<svg width="968" height="686" viewBox="0 0 968 686" fill="none" xmlns="http://www.w3.org/2000/svg">
<path d="M600.147 21.3175V23.6952L600.228 23.6229L600.295 23.5622L600.346 23.5169C600.422 23.4485 600.497 23.3799 600.573 23.3109V38.1317C600.573 39.9893 600.901 41.2565 603.031 40.9807C603.739 40.8902 604.455 41.1602 604.343 42.1056C604.015 45.1356 605.842 45.0623 607.772 44.9789L607.85 44.9787L607.917 44.9783C607.967 44.9779 608.016 44.9773 608.066 44.9766L608.098 44.9761L608.227 44.9737L608.274 44.9728L608.38 44.9705L608.549 44.9666H608.55L608.552 44.9666H608.556C609.084 44.954 609.614 44.9416 610.118 44.9789C611.676 45.0853 612.634 44.5738 612.431 42.6702C612.354 41.9447 612.407 40.9462 613.415 41.0323C615.794 41.235 615.794 39.7035 615.794 37.8717V5.69002C615.794 5.42081 615.804 5.13145 615.813 4.83559V4.82566L615.813 4.82097L615.813 4.81675V4.81472L615.814 4.78448L615.815 4.77221L615.815 4.75744L615.819 4.63639L615.824 4.47049C615.828 4.33342 615.831 4.19612 615.833 4.05999C615.833 4.02079 615.833 3.98169 615.834 3.94271C615.834 3.91495 615.834 3.88726 615.834 3.85963C615.833 3.80649 615.835 3.75351 615.839 3.70123C615.842 3.67509 615.845 3.64915 615.849 3.62341L615.851 3.6062L615.854 3.58971C615.858 3.56744 615.862 3.54533 615.867 3.52345L615.873 3.4982L615.88 3.46999C615.889 3.43835 615.898 3.40732 615.909 3.377C615.925 3.3348 615.941 3.29393 615.96 3.25463L615.971 3.23079L615.982 3.20875C615.993 3.18836 616.004 3.16835 616.015 3.1489C616.047 3.09419 616.081 3.04332 616.119 2.9969C616.128 2.98588 616.137 2.9751 616.146 2.96455C616.156 2.9533 616.167 2.94244 616.177 2.93181L616.198 2.91118L616.212 2.89828L616.219 2.89125L616.237 2.87547C616.246 2.86773 616.254 2.86019 616.263 2.85283C616.273 2.84525 616.282 2.83787 616.291 2.83069C616.357 2.78075 616.426 2.74082 616.497 2.71183C616.528 2.69893 616.559 2.68807 616.591 2.67916C616.599 2.6769 616.607 2.67479 616.615 2.67276C616.629 2.66924 616.643 2.66611 616.657 2.66338L616.666 2.66161L616.679 2.65935L616.685 2.65838C616.696 2.65666 616.706 2.65525 616.717 2.65408L616.733 2.65244C616.748 2.65095 616.764 2.65002 616.78 2.64947C616.792 2.649 616.804 2.64892 616.817 2.64916C616.846 2.6497 616.875 2.65181 616.904 2.65564C617.619 2.62696 617.989 2.97612 618.042 3.73608C618.043 3.75866 618.045 3.7814 618.046 3.8043L618.049 3.87447L618.052 3.94074L618.053 3.96184L618.053 3.97716L618.054 3.98802C618.075 4.55246 618.096 5.13676 618.721 5.27914C620.114 5.60641 620.094 6.62081 620.075 7.65616L620.072 7.76611L620.071 7.86645L620.07 7.9417L620.07 8.02602V26.3365C620.07 27.6425 620.268 28.7071 621.848 28.5893C623.16 28.4313 623.489 29.151 623.489 30.4182C623.489 31.3644 623.493 32.3095 623.498 33.2539L623.499 33.2746L623.499 33.311V33.3338L623.499 33.3478V33.4009C623.509 35.2953 623.519 37.1865 623.489 39.0771C623.452 40.3442 623.958 40.9074 625.194 40.9074C625.36 40.9074 625.526 40.9078 625.692 40.9085L625.876 40.9095L626.152 40.9114L626.408 40.9136C626.778 40.9171 627.149 40.9215 627.521 40.926H627.522L627.538 40.9262H627.542C629.103 40.945 630.665 40.9638 632.225 40.9074C633.689 40.8513 634.148 41.4706 634.148 42.9676C634.122 44.777 634.126 46.5863 634.131 48.3957V48.4173C634.136 50.6551 634.142 52.8934 634.089 55.1334C634.042 57.0815 634.516 58.1505 636.589 57.876C637.245 57.774 638.301 57.6505 638.301 58.6921C638.301 59.7574 638.847 60.3815 639.403 61.0177L639.416 61.0324C639.487 61.114 639.558 61.1957 639.629 61.2787C639.76 61.4332 639.887 61.5918 640.004 61.7608L640.05 61.8282L640.098 61.8963C640.141 61.9583 640.185 62.0202 640.228 62.0819L640.346 62.248L640.489 62.4481L640.496 62.4567C641.526 63.894 642.554 65.3289 642.439 67.3897C642.386 68.3078 643.141 69.0233 644.135 69.029C645.128 69.0347 645.884 68.358 645.884 67.4486C645.85 65.5429 646.86 64.291 647.874 63.0329L648.044 62.822L648.136 62.7073L648.167 62.6681L648.206 62.6198C648.239 62.5777 648.272 62.5355 648.305 62.4932C648.328 62.4645 648.35 62.4358 648.372 62.4069L648.423 62.3413C648.694 61.9871 649.029 61.6825 649.363 61.3786L649.364 61.3779C650.181 60.6344 650.994 59.8946 650.864 58.4406C650.821 57.8775 651.52 57.81 651.973 57.8775C654.302 58.2438 654.597 56.9207 654.597 54.849V3.90706C654.583 3.22134 654.601 2.53499 654.65 1.85254C654.709 1.21042 655.099 0.93457 655.72 0.93457C656.34 0.93457 656.703 1.33968 656.737 1.93014C656.755 2.24319 656.767 2.56468 656.773 2.8882C656.778 3.175 656.779 3.46343 656.776 3.74897V21.0783C656.776 21.1349 656.775 21.1925 656.773 21.2508C656.772 21.3088 656.771 21.3676 656.769 21.4268C656.746 22.2833 656.721 23.221 657.866 23.3296C659.441 23.4732 659.507 24.5119 659.507 25.7849V42.6746C659.507 45.907 660.065 46.5881 663.077 46.5881C664.158 46.5881 665.239 46.5852 666.32 46.5813L668.352 46.573C671.869 46.558 675.386 46.543 678.904 46.5881C680.544 46.5881 681.069 45.9013 681.069 44.262C681.069 43.9892 681.07 43.7164 681.07 43.4435C681.073 42.5788 681.078 41.7138 681.084 40.8485V40.8276C681.098 38.5364 681.113 36.2441 681.069 33.9539C681.036 32.3735 681.534 31.612 683.096 31.7988H684.264C685.751 31.9683 686.41 31.3606 686.334 29.7056C686.299 28.6184 686.314 27.5317 686.328 26.4434V26.2911C686.333 25.9327 686.337 25.5742 686.34 25.2154C686.345 24.6483 686.346 24.0807 686.334 23.512C686.315 22.2736 686.751 21.7334 687.921 21.676C690.038 21.5868 690.362 21.8512 690.362 24.2045V76.7871C690.362 80.6159 691.304 81.6229 694.824 81.6229H701.269C704.648 81.6229 705.839 80.4076 705.839 76.8158V60.5383C705.839 59.3673 705.974 58.6705 707.345 58.4551C709.409 58.1232 710.163 56.9077 710.163 54.6162V35.2425C710.163 35.2079 710.163 35.1729 710.161 35.1375C710.158 35.0204 710.149 34.8993 710.141 34.7769L710.14 34.7733C710.092 34.0982 710.04 33.3836 710.819 33.0703L710.832 33.0666L710.848 33.0614L710.865 33.0558L710.878 33.0511L710.901 33.0428C710.912 33.0388 710.923 33.0345 710.933 33.0301L710.955 33.0207C710.964 33.017 710.972 33.0132 710.98 33.0093L710.992 33.0039C711.006 32.9972 711.02 32.9901 711.034 32.9827L711.042 32.9783C711.05 32.974 711.058 32.9696 711.066 32.9652C711.083 32.9549 711.101 32.9442 711.119 32.933C711.137 32.9212 711.156 32.9087 711.174 32.8958C711.204 32.8745 711.234 32.8517 711.263 32.8275L711.276 32.8157L711.291 32.8009L711.302 32.7901L711.323 32.7695L711.339 32.7521C711.358 32.732 711.376 32.7113 711.394 32.6897C711.406 32.6757 711.417 32.6614 711.429 32.6467C711.488 32.5692 711.542 32.483 711.59 32.3893C711.672 32.2224 711.727 32.0294 711.748 31.8261L711.75 31.8035L711.753 31.771C711.754 31.7574 711.755 31.7437 711.756 31.7301L711.758 31.695L711.759 31.6652L711.76 31.6371C711.76 31.6261 711.76 31.615 711.759 31.6039L711.759 31.5745L711.758 31.5473L711.757 31.5215L711.755 31.4954L711.753 31.4709L711.75 31.4446C711.743 31.3733 711.731 31.3029 711.715 31.2342C711.594 29.7429 712.161 28.9829 713.608 29.197C715.682 29.5116 716.066 28.4141 716.066 26.4486C716.015 22.5128 716.032 18.5711 716.049 14.6327V14.6284C716.057 12.6596 716.066 10.6916 716.066 8.72566C716.066 8.64837 716.064 8.57007 716.062 8.49161L716.059 8.38322C716.035 7.54957 716.011 6.7195 717.262 6.62097C718.575 6.51313 718.989 7.18268 719.11 8.39956C719.282 10.0159 719.47 11.6298 719.659 13.2451V13.248L719.665 13.3036L719.667 13.3159L719.668 13.3292L719.669 13.3424L719.671 13.3555L719.672 13.3683C719.892 15.2515 720.112 17.137 720.308 19.0311C720.582 21.6311 720.901 24.2275 721.22 26.8245L721.224 26.8676L721.224 26.8694C721.881 32.2204 722.538 37.5742 722.811 42.969C723.579 58.3616 721.17 73.4842 718.647 88.5722C718.643 88.627 718.638 88.6814 718.631 88.7352C718.627 88.7672 718.622 88.799 718.616 88.8305C718.61 88.865 718.603 88.8992 718.595 88.9331C718.583 88.9889 718.568 89.0437 718.551 89.0972C718.543 89.1196 718.536 89.1417 718.528 89.1637C718.522 89.1798 718.516 89.1959 718.51 89.2118C718.506 89.2238 718.501 89.2357 718.496 89.2475C718.453 89.3539 718.403 89.4534 718.346 89.5445C718.284 89.6439 718.214 89.7332 718.138 89.8106C718.104 89.8456 718.068 89.8784 718.032 89.9089C718.02 89.9186 718.009 89.9282 717.997 89.9375L717.981 89.9498L717.963 89.9638L717.943 89.9778L717.927 89.989L717.914 89.9985L717.896 90.0098C717.811 90.066 717.721 90.1105 717.629 90.1425C717.442 90.209 717.247 90.2281 717.055 90.1985C715.835 90.2077 714.625 90.5161 713.476 91.1108C712.889 91.4485 712.344 91.8823 712.924 92.7328C714.273 94.7083 714.015 95.451 711.868 96.2571C711.546 96.3769 711.207 96.4606 710.862 96.5457C709.966 96.7664 709.032 96.9967 708.259 97.8948C708.717 98.1201 709.206 98.2849 709.69 98.4475C711.151 98.9392 712.554 99.4109 712.82 101.476C712.858 101.709 713.44 101.889 713.917 102.036L714.036 102.073L714.089 102.09L714.151 102.11L714.192 102.123L722.964 104.939C723.847 105.215 724.434 105.445 723.515 106.548C722.8 107.41 723.813 110.799 724.766 110.799C727.172 110.854 727.171 112.537 727.17 114.256L727.17 114.352C727.187 115.403 727.195 116.455 727.202 117.507V117.537C727.216 119.361 727.23 121.185 727.292 123.011L727.293 123.047L727.293 123.089C727.293 123.099 727.293 123.108 727.293 123.118L727.293 123.144C727.293 123.166 727.293 123.188 727.292 123.211C727.292 123.242 727.291 123.273 727.29 123.305L727.287 123.393L727.282 123.517C727.252 124.289 727.215 125.212 728.007 125.212C728.67 125.212 728.598 124.375 728.536 123.653L728.535 123.643C728.53 123.582 728.525 123.522 728.52 123.463C728.517 123.418 728.514 123.375 728.511 123.332C728.506 123.25 728.503 123.172 728.503 123.1L728.503 122.75L728.504 122.284L728.505 121.907C728.507 121.471 728.51 121.035 728.513 120.599L728.515 120.268V120.249L728.516 120.218V120.209C728.529 118.286 728.542 116.361 728.503 114.441C728.473 112.956 729.395 111.357 730.144 111.266C732.397 111.007 733.936 110.485 734.471 107.818C734.473 107.805 734.476 107.793 734.479 107.78C734.481 107.771 734.483 107.762 734.485 107.753C734.493 107.722 734.502 107.691 734.511 107.662C734.519 107.639 734.526 107.617 734.534 107.595L734.543 107.572L734.549 107.555C734.556 107.538 734.563 107.522 734.569 107.506L734.59 107.456L734.615 107.4C734.746 107.101 734.84 106.886 734.401 106.545C733.129 105.539 733.949 105.139 734.89 104.857C736.079 104.491 737.276 104.143 738.471 103.794L738.473 103.794L738.485 103.79L738.519 103.78L738.531 103.777C739.003 103.639 739.476 103.501 739.947 103.363L740.252 103.273C740.406 103.228 740.56 103.182 740.714 103.136C740.837 103.099 740.961 103.062 741.085 103.025L741.452 102.915C741.553 102.883 741.656 102.853 741.76 102.823C741.829 102.804 741.898 102.785 741.967 102.766L741.973 102.764C743.085 102.459 744.208 102.15 744.208 100.369C744.208 99.7813 744.738 99.561 745.224 99.3586C745.316 99.3205 745.406 99.283 745.491 99.2439C746.003 98.9976 746.509 98.7964 747.028 98.5904L747.06 98.5775L747.286 98.4876L747.399 98.4421L747.485 98.4075L747.58 98.3692L747.686 98.3258L747.749 98.2976C748.023 98.1762 748.339 98.0362 748.296 97.6391C748.256 97.2751 747.957 97.1925 747.682 97.1167L747.675 97.1146L747.671 97.1135L747.611 97.0968C747.587 97.0901 747.564 97.0832 747.541 97.076L747.405 97.0362L747.233 96.9865L747.124 96.9551L746.935 96.9018C746.796 96.8625 746.656 96.8234 746.517 96.7844L746.03 96.6492L746.028 96.6487C745.126 96.399 744.227 96.1503 743.404 95.8763C742.118 95.4481 741.528 93.8951 742.42 93.0619C743.751 91.8165 742.908 91.3833 741.98 90.9065L741.944 90.8881C740.916 90.3447 739.829 90.0798 738.735 90.1066C737.384 90.1799 736.879 89.4644 736.692 88.2029C736.484 86.8416 736.26 85.4791 736.036 84.1166L736.036 84.1139L736.035 84.1085L736.033 84.0984C735.769 82.4917 735.505 80.8849 735.268 79.2797C735.217 78.9587 735.167 78.6377 735.116 78.3168L734.955 77.2968L734.954 77.294C734.041 71.523 733.128 65.7556 732.751 59.9118C732.643 58.3315 733.08 57.7337 734.694 57.7337C737.069 57.7647 739.449 57.7647 741.826 57.7647C744.204 57.7647 746.579 57.7647 748.946 57.7956C750.546 57.7956 751.105 57.2324 751.105 55.5444C751.068 52.9884 751.08 50.4306 751.092 47.8733V47.8486L751.105 44.002C751.105 42.9604 751.105 41.9072 752.459 42.0424C754.772 42.2794 754.91 40.7982 754.91 38.9693L754.912 37.1224C754.912 36.7873 754.913 36.4519 754.914 36.1163V36.1116L754.919 34.2789V34.2279L754.92 34.0237V33.5355C754.929 30.3339 754.939 27.1205 754.91 23.92C754.91 22.3555 755.458 21.6213 756.968 21.7248C757.626 21.7662 758.284 21.7522 758.934 21.7383L758.94 21.7382L759.13 21.7343L759.341 21.7302L759.429 21.7288L759.593 21.7265L759.724 21.7253L759.799 21.725L759.891 21.7248C760.03 21.7199 760.172 21.7192 760.313 21.7186C761.33 21.7143 762.332 21.71 762.545 20.1028L762.545 20.0898L762.546 20.0795L762.546 20.0656L762.547 20.052L762.549 20.0355L762.55 20.0281L762.552 20.0114L762.554 20.0003L762.556 19.9873L762.558 19.9758L762.56 19.9689L762.562 19.9572C762.564 19.9482 762.567 19.9394 762.569 19.9305L762.574 19.9165L762.578 19.9018L762.581 19.894L762.585 19.8836L762.59 19.8704C762.593 19.8646 762.595 19.859 762.598 19.8535L762.603 19.842L762.61 19.8289L762.616 19.8177L762.62 19.8109L762.627 19.798L762.632 19.7901C762.636 19.7841 762.64 19.7783 762.644 19.7726L762.652 19.7626L762.657 19.7559L762.661 19.7511L762.669 19.7422C762.753 19.6436 762.858 19.5897 762.967 19.5897C763.023 19.5897 763.079 19.6045 763.132 19.6328C763.179 19.6585 763.224 19.6953 763.264 19.7422L763.269 19.7473L763.275 19.7538L763.281 19.7606C763.286 19.7668 763.292 19.7731 763.297 19.7799L763.304 19.7896L763.313 19.8031L763.319 19.8119C763.324 19.8197 763.328 19.8278 763.333 19.836L763.338 19.8453L763.342 19.8547L763.347 19.8639L763.352 19.8746C763.355 19.8829 763.359 19.8912 763.362 19.8998C763.376 19.9373 763.387 19.9773 763.393 20.0187L763.395 20.0344L763.397 20.0489C763.398 20.0581 763.399 20.0674 763.399 20.0767L763.4 20.0877L763.401 20.1042C763.646 21.7671 764.711 21.7556 765.786 21.744C765.876 21.7429 765.966 21.7421 766.055 21.7421H773.47L773.6 21.7424L773.677 21.7429C774.845 21.7505 776.029 21.7582 775.973 19.6028C776.195 19.9455 776.356 20.3611 776.442 20.814C776.521 21.2535 776.521 21.7147 776.442 22.1544V40.7263L776.442 40.7675L776.442 40.7998L776.441 40.8638L776.439 40.9281C776.438 40.966 776.437 41.0042 776.436 41.0426L776.433 41.118C776.404 41.9455 776.372 42.8461 777.426 43.1083C778.517 43.3785 778.641 44.1384 778.641 45.1125L778.641 45.1809L778.64 45.2693V45.2812C778.634 46.0586 778.627 46.9874 779.657 46.9874C780.17 46.9795 780.676 47.1721 781.12 47.5449C781.528 47.8947 781.843 48.4345 782.012 49.0764C782.777 51.1078 784.102 51.8908 786.123 51.592C786.967 51.5354 787.811 51.5354 788.653 51.592C788.935 51.6435 789.22 51.6033 789.489 51.4743C789.739 51.3436 789.964 51.1296 790.146 50.8493C790.334 50.4906 790.5 50.1052 790.665 49.7197C791.339 48.1494 792.014 46.5768 794.276 46.8065C794.341 45.6724 794.947 44.7858 795.535 43.9271C796.047 43.1787 796.544 42.4514 796.656 41.5999C796.935 39.5383 797.568 39.0138 799.301 39.2178C799.738 39.2744 800.176 39.2555 800.613 39.2367L800.788 39.2294L800.883 39.2258L800.965 39.223L801.06 39.2203L801.111 39.2193L801.161 39.2185L801.21 39.218L801.269 39.2178C802.253 39.2178 802.785 38.7681 802.67 37.7366C802.414 35.6821 803.431 35.2268 805.085 35.3891C806.473 35.5328 807.132 34.9164 807.053 33.3677C806.994 32.0555 806.994 30.7391 807.053 29.4269C807.053 28.8135 807.129 28.0822 807.933 28.1208C808.737 28.1597 808.74 28.8867 808.74 29.5001L808.74 29.6663L808.741 29.8503L808.742 29.9834L808.743 30.1601L808.745 30.3205C808.749 30.6654 808.755 31.0114 808.76 31.3575V31.3733C808.78 32.6175 808.801 33.8628 808.74 35.0687C808.649 36.8818 809.199 37.6016 811.062 37.6016C817.113 37.5125 823.167 37.5125 829.225 37.6016C830.984 37.6304 831.489 36.932 831.489 35.2037C831.404 30.8736 831.421 26.5449 831.489 22.2262C831.489 22.0339 831.467 21.8089 831.444 21.5739L831.444 21.5711L831.444 21.5681C831.357 20.6843 831.257 19.6604 832.24 19.6876C833.208 19.7144 833.092 20.7162 832.991 21.5867L832.991 21.5912L832.991 21.5928L832.99 21.5947C832.962 21.8436 832.935 22.0814 832.935 22.2822C832.987 37.1174 832.987 51.9526 832.987 66.7993C832.987 66.8188 832.987 66.8382 832.987 66.8578C832.986 66.8982 832.986 66.9389 832.984 66.9798C832.984 67.0062 832.983 67.0326 832.982 67.0592L832.979 67.1351C832.977 67.1797 832.975 67.2244 832.973 67.2692L832.966 67.389C832.924 68.2106 832.88 69.0478 833.558 69.5462C833.968 69.8454 834.368 70.1579 834.767 70.4694L834.774 70.4747C836.399 71.7437 838.005 72.9976 840.163 73.2902C843.286 73.6975 846.407 74.1468 849.527 74.596L849.541 74.598L849.564 74.6012C851.779 74.9203 853.994 75.2392 856.209 75.5429C858.834 75.9008 858.835 75.8759 858.883 73.1464L858.886 72.9813C858.887 72.9515 858.887 72.9212 858.887 72.8907C858.887 72.8647 858.886 72.8386 858.886 72.8122L858.885 72.7775C858.883 72.7324 858.881 72.6866 858.879 72.6404C858.875 72.5639 858.869 72.4861 858.862 72.4073C858.851 72.2758 858.837 72.1417 858.823 72.0066L858.823 72.0021L858.821 71.9882L858.82 71.9788C858.724 71.0587 858.624 70.1023 859.283 69.6368C860.498 68.7898 860.48 67.7424 860.461 66.6598L860.461 66.648C860.459 66.5188 860.457 66.389 860.457 66.259V22.5811C860.457 22.3966 860.448 22.2104 860.436 22.0236C860.421 21.8072 860.399 21.5902 860.378 21.3736L860.377 21.3705L860.377 21.3675L860.377 21.3645L860.377 21.3616L860.376 21.3587L860.376 21.356L860.376 21.3532L860.376 21.3506L860.375 21.348L860.375 21.3455L860.375 21.343L860.374 21.3406L860.374 21.3383L860.374 21.336L860.374 21.3338L860.373 21.3317L860.373 21.3296L860.373 21.3277L860.373 21.3257L860.373 21.3239L860.372 21.3221L860.371 21.3134L860.371 21.3078L860.37 21.3019V21.2988C860.262 20.2274 860.157 19.1782 860.745 18.3529C861.211 17.699 861.983 17.7855 862.757 17.8723C863.351 17.9389 863.946 18.0056 864.407 17.7394C865.953 16.8774 867.032 16.5686 868.751 17.6661C869.577 18.1823 870.773 18.0508 871.967 17.9196C872.504 17.8603 873.041 17.8012 873.544 17.8012C874.178 17.8012 874.817 17.5814 874.817 16.8156C874.761 14.9307 875.862 14.9384 877.062 14.9468L877.19 14.9476L877.304 14.948C877.569 14.948 877.833 14.9502 878.097 14.9538C878.38 14.9575 878.662 14.9627 878.944 14.9678H878.958C880.039 14.9876 881.115 15.0073 882.189 14.948C883.643 14.8632 884.109 15.4652 884.109 16.9737C884.085 19.7708 884.093 22.5673 884.101 25.3622V25.3641L884.109 29.5518C884.165 30.0027 884.104 30.4678 883.938 30.8578C883.755 31.2798 883.486 31.6083 883.167 31.7974C882.149 32.5131 882.354 33.7442 882.536 34.8362L882.542 34.8726L882.544 34.8841C882.56 34.9805 882.575 35.0759 882.59 35.1696L882.599 35.2279L882.61 35.3002L882.62 35.3744L882.626 35.4183C882.634 35.4868 882.642 35.5543 882.648 35.6204C882.75 36.705 883.639 36.6814 884.395 36.6614L884.402 36.6611L884.485 36.6591L884.567 36.6574L884.613 36.6567C884.636 36.6563 884.66 36.6562 884.683 36.6562H890.93C892.324 36.6562 893.348 36.6562 893.597 38.6777C893.847 40.5295 895.993 41.6559 896.612 40.6373C897.416 39.3103 898.449 39.317 899.509 39.3241C899.663 39.3251 899.818 39.3261 899.972 39.3231C900.108 39.3203 900.245 39.3145 900.38 39.3026C900.409 39.2999 900.44 39.2981 900.471 39.2967L900.506 39.2955L900.522 39.2951L900.559 39.2945L900.602 39.2943C900.621 39.2943 900.639 39.2944 900.658 39.2947L900.676 39.2949L900.753 39.2967L900.869 39.3002C901.43 39.3178 902.037 39.337 902.092 38.7394C902.252 36.5109 903.528 36.5745 904.835 36.6398H904.836L904.873 36.6417L905.016 36.6485C905.063 36.6507 905.111 36.6528 905.158 36.6546C905.204 36.6563 905.249 36.6579 905.295 36.6591C905.319 36.6597 905.344 36.6603 905.368 36.6607C905.411 36.6615 905.455 36.662 905.497 36.662C908.303 36.6174 908.641 36.2397 908.379 33.2844L908.37 33.183C908.306 32.4482 908.245 31.755 907.339 31.5502C906.584 31.3865 906.584 30.6882 906.584 30.0575V19.3557C906.584 19.3394 906.584 19.3226 906.584 19.3057L906.583 19.2778C906.582 19.2367 906.581 19.1942 906.58 19.151L906.58 19.1445C906.565 18.6439 906.547 18.0325 907.164 18.0325C907.92 18.0033 907.888 18.6298 907.86 19.1609L907.86 19.1703L907.859 19.1785C907.858 19.2119 907.856 19.2448 907.855 19.2771L907.853 19.3193L907.851 19.3661L907.851 19.3994L907.85 19.4347C907.798 20.8354 907.978 21.8325 909.674 21.8325C912.789 21.8028 915.902 21.8127 919.017 21.8226L919.02 21.8227H919.046C920.61 21.8276 922.174 21.8325 923.74 21.8325C925.029 21.8325 925.629 21.2694 925.629 19.8571L925.624 19.7866L925.62 19.7206L925.615 19.6596C925.566 18.9714 925.507 18.1459 926.338 17.9248C927.65 17.6044 927.65 16.7439 927.65 15.5717V12.0588L927.65 11.9936L927.649 11.8942C927.642 11.2518 927.635 10.5235 928.516 10.5446C929.379 10.5653 929.366 11.2651 929.355 11.894V11.8967L929.355 11.9099C929.354 11.9742 929.353 12.0374 929.353 12.099L929.353 12.4047C929.353 12.5851 929.354 12.7656 929.355 12.9461C929.357 13.5346 929.361 14.1233 929.366 14.7121L929.37 15.1918V15.2038C929.386 17.2627 929.403 19.3218 929.353 21.3714C929.317 22.9647 929.881 23.5781 931.387 23.5781C935.036 23.5111 938.682 23.5111 942.325 23.5781C943.912 23.6111 944.488 23.015 944.488 21.2981C944.437 19.1932 944.444 17.0906 944.451 14.9867V14.9806C944.456 13.3773 944.461 11.7732 944.441 10.1667C944.419 8.88367 944.849 8.33782 946.127 8.33782H955.504C956.679 8.33782 957.09 8.82771 957.09 10.0618C957.146 11.2955 957.146 12.5332 957.09 13.767C956.916 15.6246 957.707 16.2094 959.351 16.1419C959.448 16.1367 959.547 16.1277 959.649 16.1167L959.699 16.1111L959.771 16.1028L959.813 16.0977L959.935 16.0827L959.938 16.0825L959.94 16.0822C960.747 15.9825 961.608 15.876 962.109 16.6547C962.849 17.7933 963.787 17.7879 964.815 17.782L964.955 17.7813L965.039 17.7811L967.613 16.9737V685.272H0.386719L0.386862 30.0963C0.386862 26.0827 5.44209 23.3839 9.04933 25.1437L9.05173 25.1448L9.05352 25.1458L9.05501 25.1465L9.05626 25.1472L9.05732 25.1477C10.4772 25.8404 11.898 26.5336 13.2838 27.3099C13.4126 27.3821 13.5414 27.4541 13.6704 27.5262L14.044 27.7345L14.0536 27.7399L14.0632 27.7453L14.0723 27.7504L14.1031 27.7676L14.104 27.7682C15.772 28.6979 17.4511 29.6338 19.0486 30.7579C20.0913 31.489 21.0545 32.3569 22.0177 33.2248C23.6364 34.6834 25.2552 36.142 27.2507 36.95C28.7744 37.5265 30.2738 38.2302 31.7414 39.0576C32.0754 39.2553 32.4063 39.4605 32.7367 39.6655C34.4118 40.7047 36.0757 41.737 38.0932 41.737C39.083 41.7399 40.054 42.1289 40.9042 42.8634C42.5028 44.2246 44.1895 45.3558 45.9402 46.241C46.3757 46.4768 46.7717 46.8435 47.1023 47.3171C47.9491 48.4443 48.9575 49.286 50.0551 49.7825C53.1593 51.4425 56.1206 53.6172 58.8798 56.2633C60.5921 57.9899 62.4189 59.4645 64.3333 60.6653C64.5624 60.8151 64.8025 60.9602 65.045 61.1066L65.0459 61.1072C66.0804 61.7319 67.1597 62.3837 67.6133 63.5387C68.1961 65.0072 69.2025 65.969 70.1963 66.9187C70.9206 67.6109 71.6382 68.2967 72.1804 69.1676C72.6183 69.8726 73.2061 70.3388 73.7795 70.7935C74.3742 71.2652 74.9544 71.7255 75.3364 72.4274C76.3835 74.1515 77.7221 75.2549 79.1588 75.5882C79.6775 75.7785 80.1716 76.0885 80.6223 76.5062C83.7248 79.8297 87.0758 82.636 90.6121 84.872L90.7249 84.9347C91.7175 85.4868 92.8662 86.1257 93.6274 84.7584C94.1412 83.8256 94.6937 83.8316 95.4668 83.8402L95.5662 83.8413L95.6217 83.8417L95.7007 83.8419C96.5281 83.8419 97.327 83.9431 98.1352 84.0454L98.1365 84.0457L98.3343 84.0695L98.332 84.067L98.3309 84.0653L98.3301 84.0638L98.3292 84.0617C98.2146 83.9464 98.1293 83.7799 98.0863 83.5876C97.8007 81.207 97.5221 78.8193 97.2931 76.4329C97.2237 75.8195 97.5558 75.4861 98.0605 75.5034C98.2889 75.5552 98.4908 75.7095 98.6918 75.8631C99.0485 76.1357 99.4027 76.4065 99.8979 76.0996C100.043 76.0106 100.186 76.5306 100.096 76.601C99.3866 77.2542 99.6534 77.8752 99.9156 78.4857C100.004 78.6913 100.092 78.8968 100.142 79.1008C100.476 80.4899 100.108 81.7188 99.7398 82.947L99.6685 83.1859L99.6465 83.2604L99.6072 83.3942L99.5684 83.5291C99.5479 83.6012 99.5278 83.6733 99.5082 83.7456C99.4378 83.9263 99.3299 84.0701 99.1998 84.1565C99.1967 84.1591 99.1933 84.161 99.1899 84.1626L99.1824 84.1657L99.1804 84.1664L99.1728 84.1694L99.1675 84.1719L99.1641 84.1738C100.886 84.3878 102.613 84.5631 104.374 84.1853C106.131 83.7138 107.94 83.8617 109.65 84.6163C110.365 84.9687 111.075 85.336 111.787 85.7037L111.792 85.7065C113.109 86.3876 114.429 87.0701 115.785 87.662C116.281 87.864 116.763 88.0994 117.245 88.3348C118.227 88.8146 119.21 89.2943 120.306 89.4909C124.542 90.2337 128.311 88.6131 132.019 86.6765C132.908 86.2539 133.713 85.5253 134.366 84.5531C135.15 83.2931 136.033 83.1351 137.02 84.1537C137.833 84.9885 138.819 85.3889 139.808 85.7907C140.488 86.0665 141.169 86.3431 141.796 86.7612C142.316 87.1007 142.916 87.309 143.528 87.521L143.529 87.5215L143.53 87.522C143.991 87.682 144.46 87.8444 144.904 88.0672C145.474 88.3812 146.082 88.5231 146.691 88.4843C147.301 88.4456 147.898 88.2269 148.447 87.8417C149.139 87.2996 149.861 86.8044 150.583 86.3088L150.585 86.3074L150.587 86.306L150.59 86.3037C151.972 85.3561 153.355 84.4069 154.537 83.1294C155.191 82.4243 155.989 81.9748 156.789 81.5246C157.713 81.0043 158.639 80.4829 159.346 79.5649C159.68 79.2862 160.06 79.1441 160.445 79.154C161.792 79.0123 163.078 78.2909 164.14 77.0823C165.483 75.6065 166.992 74.4805 168.602 73.7549C172.056 72.2613 174.806 69.6263 177.549 66.997C178.342 66.2372 179.134 65.4781 179.943 64.7469C181.22 63.5052 182.368 62.0054 183.352 60.2932C185.304 57.2273 187.507 54.5196 189.914 52.2306C190.433 51.7126 190.978 51.2385 191.523 50.7648C193.002 49.4783 194.48 48.1936 195.422 46.0371C196.407 43.7858 198.454 42.3563 201.104 42.4913C203.004 42.589 204.649 41.6426 206.296 40.6952C207.289 40.1237 208.283 39.5517 209.334 39.2085C209.353 39.2023 209.37 39.1901 209.387 39.1737C209.414 39.1462 209.439 39.1071 209.465 39.0664L209.466 39.0654C209.496 39.0179 209.528 38.9684 209.566 38.9326C210.315 38.131 211.159 37.5373 212.057 37.1813C212.987 36.8057 213.955 36.6648 214.918 36.7647C216.704 36.9547 218.5 36.6395 220.203 35.8366C221.63 35.2269 223.037 34.4919 224.438 33.7604C224.76 33.5922 225.082 33.424 225.403 33.2577C228.09 31.7551 230.67 29.8786 233.106 27.6546V42.4755C233.106 44.3332 233.435 45.6002 235.564 45.3245C236.272 45.234 236.988 45.504 236.876 46.4494C236.548 49.4794 238.375 49.4061 240.305 49.3228C240.338 49.3228 240.372 49.3227 240.405 49.3225C240.436 49.3223 240.467 49.3221 240.498 49.3218L240.562 49.321L240.632 49.32C240.782 49.3175 240.933 49.3139 241.084 49.3103H241.091C241.618 49.2979 242.148 49.2854 242.651 49.3228C244.21 49.429 245.167 48.9176 244.964 47.014C244.888 46.2885 244.94 45.29 245.948 45.3761C248.328 45.5787 248.328 44.0473 248.328 42.2155V10.0338C248.328 9.86712 248.331 9.6927 248.336 9.51383C248.339 9.397 248.343 9.2783 248.347 9.1585C248.357 8.84162 248.367 8.51763 248.367 8.20341C248.366 8.14965 248.368 8.09604 248.373 8.04306C248.383 7.931 248.407 7.82198 248.443 7.72079C248.501 7.56059 248.581 7.42008 248.68 7.30841C248.785 7.19291 248.904 7.10711 249.031 7.05554C249.162 7.00044 249.3 6.98145 249.437 6.99951C250.152 6.97075 250.523 7.3199 250.575 8.07994C250.577 8.10425 250.578 8.1287 250.58 8.15332L250.582 8.21826L250.585 8.29008L250.587 8.3318C250.608 8.89633 250.63 9.48054 251.255 9.62292C252.647 9.95027 252.628 10.9646 252.608 11.9999C252.605 12.1233 252.603 12.247 252.603 12.3698V30.6803C252.603 31.9863 252.801 33.0509 254.381 32.9331C255.694 32.775 256.022 33.4947 256.022 34.762C256.022 35.3511 256.024 35.9398 256.026 36.5282L256.032 37.6547C256.042 39.5791 256.052 41.5003 256.022 43.4208C255.985 44.688 256.491 45.2512 257.727 45.2512C258.503 45.2512 259.279 45.2605 260.055 45.2697L260.071 45.27C261.634 45.2888 263.197 45.3077 264.758 45.2512C266.222 45.1951 266.681 45.8144 266.681 47.3114C266.655 49.1185 266.659 50.9254 266.664 52.7326V52.7464C266.669 54.9891 266.675 57.2323 266.622 59.4772C266.576 61.4254 267.049 62.4942 269.122 62.2198C269.779 62.1178 270.835 61.9943 270.835 63.0359C270.835 64.1012 271.38 64.7253 271.936 65.3615L272.032 65.4717L272.086 65.5333L272.11 65.5612L272.162 65.6225C272.293 65.777 272.42 65.9357 272.537 66.1046C272.571 66.1542 272.605 66.2036 272.64 66.253C272.662 66.2842 272.683 66.3153 272.705 66.3464C272.74 66.396 272.775 66.4455 272.811 66.4949C272.879 66.5919 272.949 66.6886 273.018 66.7853L273.022 66.7904L273.029 66.8005C274.059 68.2379 275.087 69.6728 274.972 71.7335C274.92 72.6516 275.674 73.3671 276.668 73.3728C277.661 73.3785 278.417 72.7019 278.417 71.7924C278.383 69.8865 279.393 68.6347 280.408 67.3765L280.409 67.3753L280.531 67.2236C280.572 67.1726 280.613 67.1215 280.654 67.0703C280.706 67.0051 280.758 66.9397 280.81 66.874C280.839 66.8364 280.869 66.7986 280.898 66.7607L280.956 66.6851C281.228 66.3306 281.562 66.0259 281.897 65.7219C282.714 64.9785 283.528 64.2384 283.397 62.7845C283.355 62.2213 284.053 62.1538 284.506 62.2213C286.835 62.5876 287.13 61.2645 287.13 59.1927V8.25085C287.117 7.56512 287.134 6.87877 287.183 6.19641C287.243 5.55421 287.632 5.27836 288.253 5.27836C288.874 5.27836 289.237 5.68354 289.27 6.27393C289.304 6.86447 289.316 7.4851 289.309 8.09284V25.4221C289.309 25.5343 289.306 25.6504 289.303 25.7681L289.302 25.7706C289.279 26.6271 289.254 27.5648 290.4 27.6734C291.974 27.817 292.041 28.8557 292.041 30.1286V47.0183C292.041 50.2508 292.598 50.9319 295.61 50.9319C297.366 50.9319 299.122 50.9244 300.877 50.9169H300.885C304.402 50.9018 307.92 50.8868 311.437 50.9319C313.077 50.9319 313.603 50.245 313.603 48.6059C313.603 48.0148 313.605 47.4236 313.607 46.8323L313.617 45.1723V45.1697C313.632 42.8791 313.646 40.5874 313.603 38.2976C313.569 36.7173 314.068 35.9558 315.629 36.1426H316.797C318.285 36.3122 318.943 35.7044 318.868 34.0494C318.832 32.9366 318.847 31.8243 318.861 30.7103L318.861 30.7075L318.861 30.7046C318.874 29.7567 318.886 28.8074 318.868 27.8558C318.848 26.6174 319.284 26.0772 320.454 26.0198C322.571 25.9307 322.895 26.195 322.895 28.5483V81.1309C322.895 84.9596 323.837 85.9667 327.357 85.9667H333.802C337.181 85.9667 338.372 84.7513 338.372 81.1596V64.882C338.372 63.7111 338.507 63.0144 339.878 62.7988C341.942 62.467 342.696 61.2515 342.696 58.96V39.5863C342.696 39.5198 342.694 39.4516 342.691 39.3823C342.689 39.3417 342.686 39.3008 342.683 39.2595C342.681 39.2266 342.679 39.1935 342.677 39.1603L342.674 39.1184L342.673 39.1171C342.625 38.4421 342.574 37.7275 343.353 37.4141C343.509 37.3686 343.658 37.2865 343.796 37.1712C343.923 37.0565 344.034 36.9078 344.123 36.7331C344.206 36.5662 344.26 36.3731 344.281 36.1699C344.304 35.9717 344.293 35.7682 344.248 35.578C344.127 34.0867 344.694 33.3267 346.141 33.5408C348.215 33.8554 348.599 32.7578 348.599 30.7924C348.549 26.8597 348.566 22.9214 348.582 18.9861V18.9722L348.582 18.9413V18.8672L348.583 18.8366V18.7899C348.591 16.8819 348.599 14.9748 348.599 13.0695L348.599 13.0041L348.598 12.9567C348.598 12.9245 348.597 12.8922 348.596 12.8599L348.594 12.7863L348.592 12.731L348.592 12.727C348.568 11.8934 348.544 11.0633 349.796 10.9648C351.109 10.857 351.522 11.5265 351.643 12.7433C351.818 14.3832 352.009 16.0206 352.2 17.6597L352.201 17.6649C352.422 19.5639 352.644 21.465 352.841 23.3749C353.116 25.9726 353.434 28.5668 353.752 31.1616L353.753 31.1683C354.411 36.5339 355.07 41.9033 355.345 47.3129C356.112 62.7055 353.703 77.8279 351.18 92.916C351.166 93.1547 351.114 93.3856 351.029 93.5912C350.939 93.814 350.817 94.0061 350.671 94.1544C350.518 94.3102 350.345 94.4228 350.163 94.4863C349.975 94.5529 349.781 94.5719 349.589 94.5423C348.369 94.5515 347.158 94.8599 346.009 95.4546C345.422 95.7923 344.878 96.2261 345.458 97.0766C346.806 99.0521 346.549 99.7948 344.402 100.601C344.08 100.721 343.74 100.804 343.395 100.889C342.499 101.11 341.565 101.341 340.793 102.239C341.25 102.464 341.74 102.629 342.223 102.791C343.685 103.283 345.087 103.755 345.354 105.82C345.392 106.053 345.974 106.233 346.45 106.38L346.57 106.417L346.606 106.428L346.646 106.441L346.686 106.454L346.725 106.467L355.497 109.283C356.381 109.558 356.968 109.788 356.048 110.892C355.334 111.754 356.346 115.143 357.299 115.143C359.705 115.198 359.704 116.881 359.703 118.6V118.696C359.71 119.092 359.715 119.487 359.719 119.883C359.721 120.085 359.723 120.287 359.725 120.489C359.727 120.726 359.729 120.963 359.731 121.201L359.736 121.838L359.736 121.851V121.888C359.749 123.709 359.763 125.532 359.825 127.355C359.83 127.505 359.823 127.678 359.816 127.859L359.816 127.861C359.785 128.633 359.749 129.556 360.54 129.556C361.204 129.556 361.132 128.719 361.069 127.996V127.994L361.06 127.877C361.054 127.815 361.05 127.754 361.046 127.695L361.042 127.643L361.04 127.604L361.039 127.569L361.037 127.517C361.036 127.492 361.036 127.468 361.036 127.444C361.036 126.495 361.043 125.545 361.049 124.594V124.557C361.062 122.633 361.076 120.707 361.036 118.785C361.006 117.299 361.928 115.7 362.677 115.61C364.931 115.351 366.47 114.828 367.004 112.162C367.036 111.999 367.095 111.864 367.148 111.743C367.279 111.445 367.373 111.229 366.935 110.889C365.662 109.883 366.482 109.482 367.423 109.201C368.612 108.835 369.807 108.487 371.001 108.139L371.002 108.139L371.006 108.138L371.018 108.134L371.053 108.124L371.059 108.122L371.061 108.121C372.039 107.836 373.015 107.552 373.985 107.258C374.039 107.241 374.094 107.225 374.148 107.209C374.182 107.199 374.216 107.189 374.25 107.179C374.3 107.165 374.35 107.151 374.399 107.138L374.503 107.109L374.504 107.109L374.506 107.108C375.618 106.802 376.742 106.493 376.742 104.713C376.742 104.125 377.271 103.905 377.757 103.703C377.81 103.681 377.862 103.659 377.913 103.637C377.951 103.621 377.988 103.604 378.024 103.588C378.536 103.341 379.042 103.14 379.561 102.934L379.789 102.843C379.931 102.787 380.074 102.729 380.219 102.67L380.25 102.656L380.282 102.641C380.556 102.52 380.872 102.38 380.829 101.983C380.789 101.619 380.49 101.536 380.216 101.461L380.212 101.46L380.209 101.459L380.202 101.457L380.2 101.456L380.192 101.454L380.185 101.452C380.147 101.441 380.11 101.431 380.074 101.42L379.921 101.375L379.753 101.326L379.57 101.274C379.398 101.225 379.224 101.177 379.05 101.128L378.648 101.017L378.563 100.993C377.66 100.743 376.761 100.494 375.938 100.22C374.652 99.792 374.061 98.2389 374.953 97.4056C376.284 96.1602 375.441 95.7271 374.513 95.2503L374.477 95.232C373.45 94.6885 372.362 94.4235 371.269 94.4503C369.917 94.5236 369.412 93.8081 369.225 92.5468C369.021 91.2092 368.801 89.8705 368.581 88.5318L368.578 88.5116L368.57 88.4604L368.569 88.4577L368.568 88.4523L368.564 88.425L368.564 88.4231L368.563 88.4188L368.563 88.4174L368.561 88.4083C368.299 86.8129 368.037 85.2174 367.801 83.6236C367.711 83.0503 367.62 82.4772 367.53 81.9042L367.488 81.6406C366.575 75.869 365.662 70.1001 365.285 64.2556C365.177 62.6753 365.613 62.0776 367.227 62.0776C369.602 62.1085 371.982 62.1085 374.36 62.1085C376.737 62.1085 379.113 62.1085 381.479 62.1394C383.08 62.1394 383.638 61.5763 383.638 59.8882C383.601 57.3239 383.613 54.7578 383.626 52.1923V52.1842C383.629 51.4672 383.633 50.7501 383.635 50.0331C383.637 49.4706 383.638 48.9081 383.638 48.3458C383.638 47.3042 383.638 46.2511 384.992 46.3861C387.306 46.6232 387.444 45.142 387.444 43.3131L387.445 41.729C387.447 40.7828 387.45 39.8345 387.453 38.885V38.7238L387.453 38.6262V38.5723L387.453 38.5205V38.309C387.463 34.9658 387.472 31.6075 387.444 28.2639C387.444 26.6993 387.992 25.9651 389.501 26.0686C390.156 26.1099 390.812 26.096 391.458 26.0822L391.46 26.0822H391.467L391.474 26.082L391.765 26.076L391.865 26.0742L391.962 26.0726L392.126 26.0703L392.21 26.0695L392.255 26.0692L392.284 26.069L392.344 26.0687L392.424 26.0686C392.564 26.0637 392.705 26.063 392.846 26.0624C393.863 26.0581 394.865 26.0538 395.079 24.4465L395.079 24.4329C395.079 24.425 395.079 24.4172 395.08 24.4095L395.081 24.3958C395.081 24.3878 395.082 24.3798 395.083 24.3719C395.084 24.3636 395.085 24.3553 395.087 24.3471L395.088 24.3365L395.091 24.3228C395.092 24.3154 395.094 24.3081 395.096 24.301C395.1 24.282 395.106 24.2636 395.112 24.2455C395.119 24.2247 395.127 24.2048 395.136 24.1858L395.141 24.1765L395.144 24.1699L395.15 24.1597C395.153 24.1536 395.157 24.1476 395.161 24.1418L395.17 24.1274L395.172 24.1247C395.176 24.1192 395.18 24.1138 395.184 24.1085L395.191 24.0996L395.197 24.0925L395.202 24.086C395.232 24.0512 395.265 24.022 395.299 23.9988C395.34 23.9708 395.383 23.9514 395.428 23.9414C395.439 23.9391 395.449 23.9373 395.459 23.9361C395.467 23.935 395.476 23.9343 395.485 23.9338C395.49 23.9336 395.495 23.9335 395.5 23.9335C395.608 23.9335 395.713 23.9874 395.797 24.086C395.817 24.1061 395.836 24.1296 395.852 24.1557L395.857 24.1644L395.865 24.1783C395.877 24.1988 395.887 24.2206 395.895 24.2436C395.909 24.2811 395.92 24.3211 395.926 24.3625C395.928 24.3725 395.929 24.3825 395.93 24.3927C395.931 24.4 395.932 24.4074 395.932 24.4148C395.933 24.4258 395.934 24.4369 395.934 24.448C396.179 26.111 397.244 26.0994 398.32 26.0877L398.434 26.0866L398.519 26.0859L398.588 26.0858H406.003L406.114 26.0861L406.21 26.0867C407.378 26.0943 408.562 26.102 408.507 23.9466C408.729 24.2893 408.89 24.705 408.976 25.1577C409.054 25.5973 409.054 26.0585 408.976 26.4982V45.0701L408.976 45.121L408.975 45.1696C408.975 45.2004 408.974 45.2316 408.973 45.2629C408.971 45.3265 408.969 45.391 408.967 45.4559L408.967 45.4618C408.937 46.2893 408.906 47.1899 409.96 47.4521C411.05 47.7223 411.174 48.4823 411.174 49.4564L411.174 49.5297L411.173 49.6051L411.173 49.6224V49.625C411.167 50.4024 411.161 51.3313 412.191 51.3313C412.704 51.3233 413.209 51.5158 413.653 51.8887C414.061 52.2385 414.376 52.7783 414.545 53.4202C415.31 55.4516 416.636 56.2346 418.656 55.9358C419.501 55.8792 420.344 55.8792 421.187 55.9358C421.468 55.9873 421.753 55.9471 422.023 55.818C422.272 55.6875 422.497 55.4733 422.679 55.193C422.868 54.8344 423.033 54.449 423.199 54.0634C423.873 52.4932 424.547 50.9207 426.81 51.1502C426.874 50.0162 427.481 49.1297 428.068 48.2708C428.58 47.5226 429.077 46.7951 429.189 45.9437C429.468 43.8821 430.102 43.3576 431.834 43.5617C432.272 43.6182 432.709 43.5993 433.147 43.5805L433.321 43.5731L433.411 43.5697L433.499 43.5667L433.581 43.5645C433.616 43.5636 433.65 43.563 433.685 43.5625C433.724 43.562 433.763 43.5617 433.802 43.5617C434.787 43.5617 435.318 43.1119 435.203 42.0804C434.947 40.026 435.965 39.5705 437.619 39.7328C439.007 39.8766 439.665 39.2602 439.587 37.7115C439.527 36.3993 439.527 35.0829 439.587 33.7707C439.587 33.1572 439.662 32.426 440.466 32.4647C441.27 32.5035 441.273 33.2305 441.273 33.8439C441.273 34.0288 441.274 34.2142 441.276 34.3999C441.279 34.8256 441.287 35.2532 441.294 35.681V35.7075C441.314 36.9549 441.334 38.2035 441.273 39.4125C441.182 41.2256 441.733 41.9454 443.596 41.9454C449.646 41.8563 455.7 41.8563 461.759 41.9454C463.518 41.9741 464.022 41.2759 464.022 39.5475C463.937 35.2174 463.954 30.8887 464.022 26.57C464.022 26.3784 464 26.1546 463.978 25.9207L463.977 25.915V25.9118C463.891 25.0281 463.79 24.0042 464.774 24.0314C465.741 24.0582 465.626 25.06 465.525 25.9304L465.513 26.0338L465.505 26.1041C465.484 26.2923 465.468 26.4703 465.468 26.6261C465.52 41.4612 465.521 56.2965 465.521 71.1431C465.521 71.2546 465.517 71.3679 465.512 71.4823C465.509 71.5654 465.504 71.649 465.5 71.7328C465.457 72.5543 465.413 73.3917 466.092 73.89C466.503 74.1901 466.905 74.5036 467.305 74.8162L467.308 74.8191C468.933 76.0879 470.538 77.3414 472.696 77.634C475.813 78.0403 478.928 78.4886 482.042 78.9368L482.046 78.9373L482.05 78.9378L482.056 78.9392L482.097 78.9451C484.313 79.2641 486.528 79.583 488.742 79.8866C491.368 80.2445 491.368 80.2197 491.417 77.4902L491.42 77.3251C491.422 77.1832 491.416 77.0342 491.406 76.8808C491.393 76.6993 491.373 76.5117 491.354 76.3226C491.258 75.4025 491.158 74.4461 491.816 73.9805C493.031 73.1336 493.013 72.0863 492.995 71.0036L492.992 70.8596L492.991 70.7886L492.991 70.7311C492.99 70.6883 492.99 70.6456 492.99 70.6028V26.9248C492.99 26.5068 492.947 26.079 492.904 25.6553L492.904 25.6541L492.904 25.6529V25.6457C492.796 24.5731 492.69 23.5229 493.279 22.6967C493.745 22.0428 494.516 22.1292 495.29 22.2161C495.884 22.2827 496.479 22.3494 496.94 22.0833C498.486 21.2212 499.565 20.9123 501.284 22.01C502.11 22.5262 503.306 22.3947 504.5 22.2632C505.038 22.2041 505.575 22.145 506.077 22.145C506.711 22.145 507.351 21.9252 507.351 21.1594C507.295 19.2745 508.395 19.2822 509.595 19.2906L509.724 19.2914L509.837 19.2918C510.384 19.2918 510.928 19.3016 511.471 19.3115L511.477 19.3116C512.563 19.3314 513.644 19.3511 514.723 19.2918C516.176 19.207 516.642 19.809 516.642 21.3175C516.618 24.1147 516.626 26.9111 516.634 29.706V29.7079L516.639 31.6156C516.641 32.3757 516.642 33.1357 516.642 33.8956C516.699 34.3465 516.638 34.8116 516.472 35.2016C516.288 35.6236 516.019 35.9521 515.7 36.1411C514.682 36.8569 514.887 38.088 515.069 39.18L515.069 39.181C515.103 39.3807 515.135 39.5757 515.159 39.7621C515.164 39.8022 515.169 39.8419 515.173 39.8811C515.175 39.9008 515.177 39.9204 515.179 39.9399L515.182 39.9642C515.283 41.0489 516.172 41.0252 516.928 41.0051L516.936 41.0049C516.981 41.0038 517.025 41.0026 517.069 41.0017C517.09 41.0013 517.111 41.0009 517.132 41.0006C517.161 41.0002 517.189 41 517.216 41H523.463C524.857 41 525.882 41 526.13 43.0214C526.38 44.8733 528.526 45.9996 529.146 44.9811C529.949 43.6541 530.982 43.6609 532.042 43.6679H532.044C532.169 43.6686 532.294 43.6694 532.419 43.6681C532.584 43.6663 532.749 43.6607 532.913 43.6464L532.934 43.6446L532.944 43.6439L532.981 43.6416L533.009 43.6403L533.033 43.6394C533.052 43.6389 533.072 43.6385 533.093 43.6382C533.192 43.6373 533.297 43.6406 533.403 43.6439C533.963 43.6616 534.571 43.6808 534.626 43.0833C534.785 40.8547 536.061 40.9184 537.369 40.9836H537.37L537.402 40.9852L537.539 40.9918L537.622 40.9956L537.691 40.9984C537.805 41.0028 537.918 41.0058 538.031 41.0058C540.836 40.9612 541.174 40.5835 540.912 37.6282L540.903 37.5268C540.839 36.792 540.778 36.0988 539.872 35.894C539.117 35.7303 539.117 35.0321 539.117 34.4013V23.6995C539.117 23.633 539.115 23.5618 539.113 23.4882C539.098 22.9878 539.08 22.3763 539.698 22.3763C540.453 22.3471 540.421 22.9735 540.393 23.5046L540.393 23.5142L540.39 23.5798L540.389 23.6036L540.386 23.6631C540.385 23.6833 540.385 23.7032 540.384 23.7228L540.384 23.7493C540.384 23.7591 540.384 23.7689 540.384 23.7786C540.331 25.1792 540.512 26.1763 542.207 26.1763C545.331 26.1467 548.451 26.1565 551.575 26.1664H551.58C553.143 26.1714 554.708 26.1763 556.273 26.1763C557.562 26.1763 558.162 25.6132 558.162 24.2009L558.158 24.1312L558.149 24.0035C558.099 23.3151 558.04 22.4897 558.871 22.2686C560.184 21.9482 560.184 21.0877 560.184 19.9155V16.4026L560.183 16.3374L560.182 16.238C560.176 15.5956 560.168 14.8672 561.049 14.8883C561.912 14.9091 561.9 15.6089 561.889 16.2378V16.2405L561.888 16.3032C561.887 16.3504 561.886 16.3971 561.886 16.4428C561.886 17.3131 561.892 18.1844 561.899 19.0558L561.903 19.5357V19.5477C561.92 21.6066 561.936 23.6656 561.886 25.7151C561.851 27.3085 562.415 27.9219 563.92 27.9219C567.569 27.8548 571.215 27.8548 574.859 27.9219C576.437 27.9548 577.015 27.3648 577.021 25.6679C576.6 25.389 576.824 24.3593 576.989 23.6797C576.975 22.2301 576.98 20.7811 576.984 19.3315V19.3099C576.99 17.7114 576.995 16.1122 576.975 14.5104C576.952 13.2275 577.382 12.6816 578.66 12.6816H588.037C589.212 12.6816 589.624 13.1715 589.624 14.4056C589.679 15.6393 589.679 16.877 589.624 18.1108C589.449 19.9684 590.24 20.5532 591.884 20.4857C592.072 20.4756 592.269 20.4513 592.47 20.4265L592.472 20.4263L592.474 20.426C593.28 20.3263 594.142 20.2197 594.643 20.9986C595.382 22.1371 596.32 22.1317 597.348 22.1258L597.488 22.1251L597.573 22.1249L600.147 21.3175Z" fill="#182E35"/>
<path d="M50.1245 13.3741C49.9468 13.3261 49.7872 13.1862 49.6754 12.9804C49.6251 12.888 49.5901 12.7801 49.5729 12.6651C49.5557 12.5502 49.5568 12.4309 49.5762 12.3167C49.5762 12.1483 49.5607 11.9588 49.5452 11.7693C49.5088 11.3252 49.4724 10.8804 49.6357 10.7062C49.9621 10.331 50.1891 10.6357 50.4181 10.9432C50.532 11.0962 50.6465 11.2499 50.774 11.321C51.8647 11.9 52.6143 11.607 52.9554 9.94042C53.0077 10.5626 53.2301 11.0911 53.4445 11.6006C53.7172 12.2486 53.977 12.8661 53.8577 13.6068C53.8467 13.6784 53.8527 13.7533 53.8745 13.8194C53.8953 13.8904 53.9297 13.9512 53.9737 13.9947C54.0227 14.0437 54.0792 14.0747 54.1383 14.0852C54.1967 14.1039 54.2573 14.1039 54.3158 14.0852L54.3362 14.0752C54.7284 13.8836 55.2668 13.6204 55.2736 13.1672C55.3158 11.0025 56.3228 11.1355 57.3467 11.2708L57.3491 11.2711H57.3507C57.5986 11.3038 57.8483 11.3369 58.0846 11.3369C58.1814 11.3369 58.2908 11.3678 58.3946 11.3971C58.7086 11.4859 58.9707 11.5599 58.6726 10.7176C58.508 10.2277 58.974 10.3297 59.089 10.4878C59.4649 10.9601 59.9101 11.3544 60.3552 11.7486C61.2734 12.5616 62.1918 13.3748 62.5009 14.8725C62.5009 14.921 62.5228 14.9794 62.5433 15.0342C62.5684 15.101 62.5916 15.1627 62.5703 15.1944C61.8402 16.6204 61.0452 17.9745 60.1906 19.2472C59.9051 19.6409 59.331 18.9541 59.0623 18.4757C58.7021 17.8066 58.2029 17.323 57.6384 17.0965C57.0482 16.8466 56.421 16.8466 55.8308 17.0965C55.045 17.3897 54.218 17.3549 53.4452 16.9959C52.7143 16.6716 52.0769 16.009 51.6307 15.1096C51.2593 14.3264 50.7348 13.7221 50.1245 13.3741Z" fill="#182E35"/>
<path d="M37.0768 31.232C37.3592 31.4176 37.6723 31.4819 37.9791 31.4173C39.0263 31.374 40.0639 31.7171 40.9944 32.4145L40.9963 32.4156C41.5299 32.7701 41.9866 33.0733 42.569 32.5897C42.8476 32.3527 43.1272 32.3756 43.2631 32.798C43.3048 32.8826 43.3344 32.9784 43.35 33.0799C43.3657 33.1813 43.3672 33.2863 43.3543 33.3885C43.3283 33.6027 43.2462 33.7941 43.1252 33.9229C43.0336 34.0314 42.9086 34.0651 42.7781 34.1002C42.577 34.1544 42.3621 34.2122 42.2329 34.5537C42.4755 34.6683 42.7071 34.8376 42.938 35.0064C43.5753 35.4723 44.2085 35.9352 45.0607 35.2404C45.1315 35.1763 45.171 35.0641 45.2105 34.9515C45.2818 34.7489 45.3534 34.5453 45.609 34.6212C45.6821 34.6298 45.7515 34.6715 45.8074 34.7405C45.8928 34.8549 45.9486 35.008 45.9658 35.1747C45.9829 35.3413 45.9602 35.5115 45.9015 35.657C45.4971 36.9464 46.0045 37.1136 46.7453 37.3575C46.8654 37.397 46.9917 37.4387 47.1212 37.4873C47.6934 37.6995 48.2336 37.5367 48.759 37.3783C49.3331 37.2051 49.89 37.0372 50.4517 37.3695C51.1309 37.7516 51.4819 37.6167 51.8101 36.8336C51.9862 36.3527 52.278 35.982 52.6301 35.7921C53.0104 35.5813 53.4268 35.5501 53.82 35.703C54.761 36.1104 55.7412 36.315 56.7239 36.5201C57.519 36.686 58.3159 36.8524 59.095 37.1267C60.3393 37.5261 61.5969 37.8325 62.8629 38.0448C63.1492 38.1285 63.4463 38.0853 63.7156 37.9213C63.9663 37.7751 64.1725 37.5034 64.2966 37.1555C64.3504 36.994 64.3808 36.8183 64.3859 36.6392C64.391 36.46 64.3707 36.2813 64.3263 36.1139C64.2252 35.7524 64.0326 35.4605 63.788 35.2979C62.366 33.7883 60.7053 32.8201 58.9581 32.4819C58.3967 32.4442 57.8528 32.1876 57.3836 31.7391C55.858 30.1778 54.0349 29.3432 52.1671 29.3514C51.9349 29.3406 51.6971 29.3221 51.4565 29.3033C49.7148 29.1675 47.8273 29.0205 46.8881 31.7105C46.8186 31.874 46.7244 32.0126 46.6125 32.1156C46.495 32.2312 46.3634 32.3136 46.2248 32.3584C45.9416 32.4574 45.6434 32.4095 45.382 32.2233C44.6584 31.8358 43.9039 31.532 43.1507 31.2288C41.7153 30.651 40.2817 30.0739 39.0659 28.9189C38.3499 28.256 37.927 28.6898 37.5127 29.1149C37.2896 29.3438 37.0689 29.5702 36.8062 29.6215C36.7339 29.62 36.6626 29.6452 36.5989 29.6948C36.5383 29.7378 36.4872 29.8045 36.4512 29.8872C36.4169 29.9618 36.4008 30.0509 36.4056 30.1401C36.4087 30.2312 36.4328 30.3182 36.474 30.3873C36.602 30.7608 36.8149 31.0591 37.0768 31.232Z" fill="#182E35"/>
<path d="M111.621 34.2386C111.537 33.9683 111.413 33.7281 111.257 33.535C110.991 33.2118 110.676 32.7635 110.961 32.3297C111.115 32.0792 111.322 31.9103 111.549 31.8498C111.785 31.7765 112.03 31.8101 112.251 31.9461C112.309 31.9784 112.368 32.0101 112.427 32.0413C112.497 32.079 112.569 32.116 112.64 32.1524C112.68 32.1727 112.72 32.1928 112.76 32.2128L112.787 32.2264L112.899 32.2826L112.9 32.2833L112.902 32.284L112.903 32.2847C113.824 32.7461 114.749 33.21 115.267 34.3783C115.388 34.6451 115.56 34.8545 115.762 34.9804C115.977 35.1185 116.211 35.1768 116.445 35.1499H118.879C119.544 35.1262 120.195 35.4301 120.726 36.0119C121.188 36.4744 121.498 37.2805 121.563 38.1913L121.563 38.2491L121.562 38.2956L121.561 38.3693L121.561 38.3713C121.556 38.7034 121.55 39.1194 121.662 39.1711C123.186 40.1033 122.428 40.5935 121.792 41.0052C121.591 41.1353 121.402 41.2577 121.301 41.3836C120.645 42.1997 120.547 44.7685 121.263 45.4868C121.284 45.5237 121.308 45.5567 121.334 45.5852C121.35 45.6027 121.367 45.6184 121.385 45.6324C121.402 45.646 121.42 45.6578 121.439 45.6678C121.462 45.6798 121.486 45.6895 121.51 45.6969C121.536 45.705 121.563 45.7103 121.59 45.7128L121.602 45.7138L121.609 45.7141C121.613 45.7143 121.618 45.7145 121.622 45.7145C121.637 45.7146 121.652 45.7139 121.666 45.7124C121.742 45.7003 121.815 45.664 121.879 45.606C121.911 45.5766 121.94 45.5407 121.965 45.4996C121.972 45.4866 121.98 45.4731 121.987 45.4591C121.998 45.436 122.008 45.4117 122.017 45.3863L122.032 45.3612L122.047 45.336C122.057 45.3192 122.067 45.3024 122.077 45.2857C122.103 45.243 122.129 45.2004 122.155 45.1582C122.447 44.6838 122.729 44.2264 122.463 43.5559C122.213 42.9309 121.872 42.0402 122.65 41.8161C123.302 41.628 123.322 42.3114 123.338 42.8859L123.338 42.8892C123.342 42.9979 123.344 43.1026 123.352 43.1967C123.427 44.3245 124.149 44.4409 124.789 44.4682C125.259 44.4298 125.726 44.5884 126.134 44.9251C126.512 45.2261 126.803 45.7134 126.954 46.2985C127.079 46.6971 127.295 47.0213 127.565 47.2166C129.191 48.3806 129.714 50.3458 130.229 52.2853L130.231 52.291C130.278 52.4688 130.325 52.6464 130.373 52.8233L130.419 52.992C130.5 53.1988 130.53 53.4386 130.505 53.673C130.471 53.8986 130.392 54.1047 130.278 54.2649C129.963 54.673 129.757 54.432 129.558 54.1986C129.531 54.1672 129.505 54.136 129.478 54.1066L129.459 54.0864L129.444 54.0709C129.435 54.061 129.425 54.0514 129.415 54.0422C129.39 54.0175 129.363 53.9955 129.337 53.9776C128.865 53.6642 128.368 53.7808 127.876 53.8965C127.342 54.022 126.811 54.1467 126.321 53.719C126.128 53.835 125.963 54.0303 125.845 54.2807C125.701 54.7707 126.019 55.0407 126.334 55.193C127.111 55.5089 127.82 56.1034 128.396 56.9214C128.313 57.0283 128.221 57.1209 128.123 57.1972C127.95 57.2926 127.749 57.1999 127.556 57.1103C127.28 56.9826 127.017 56.8611 126.867 57.2992C126.626 58.0006 127.198 58.3792 127.687 58.7027L127.778 58.7632C128.68 59.3264 129.354 59.9585 128.396 61.2515C127.923 61.9121 128.079 62.572 128.241 63.2552C128.304 63.5213 128.368 63.7914 128.396 64.066C128.396 64.3475 128.687 64.5056 128.953 64.4769C129.601 63.6501 130.154 62.6804 130.593 61.6035C130.52 61.4794 130.464 61.3352 130.43 61.1794C130.396 61.0237 130.384 60.8597 130.395 60.697C130.422 60.3634 130.541 60.0596 130.723 59.8521C130.735 59.8314 130.749 59.8119 130.763 59.7938L130.774 59.7802L130.78 59.7728C130.783 59.769 130.787 59.7654 130.79 59.7618C130.811 59.7387 130.834 59.7184 130.858 59.7012C130.883 59.6836 130.909 59.6694 130.935 59.6589C130.953 59.6516 130.972 59.6461 130.991 59.6422L130.998 59.6409L131.01 59.639L131.023 59.6375C131.081 59.6322 131.138 59.6436 131.192 59.6708C131.221 59.6852 131.248 59.7038 131.274 59.7263C131.279 59.7305 131.284 59.735 131.289 59.7395L131.296 59.747L131.305 59.7552L131.311 59.762L131.317 59.7685L131.322 59.7746L131.328 59.7817L131.34 59.7961C131.531 60.0408 131.679 60.3475 131.773 60.6912C131.861 61.0188 131.889 61.3734 131.855 61.7213C131.716 62.3004 131.714 62.9224 131.713 63.5431C131.71 64.7333 131.707 65.9189 130.73 66.7885C131.071 67.527 130.934 68.2706 130.792 69.0412C130.621 69.9736 130.442 70.9456 131.094 71.9965C132.038 73.5185 131.625 75.5049 131.227 77.4183C131.123 77.9179 131.02 78.4126 130.943 78.8926C130.92 79.0277 130.875 79.1531 130.812 79.2589C130.746 79.3744 130.661 79.4651 130.565 79.5233C130.463 79.5948 130.351 79.6331 130.238 79.6353C130.127 79.6471 130.015 79.6261 129.91 79.5735C129.656 79.5362 129.417 79.3828 129.227 79.1354C129.055 78.9143 128.948 78.6055 128.929 78.2733C128.798 77.0207 128.722 75.7572 128.702 74.4905C128.702 72.9087 128.243 72.0583 126.862 72.2378L126.844 72.2379L126.827 72.2382C126.81 72.2388 126.793 72.2397 126.775 72.2408C126.737 72.243 126.698 72.2464 126.659 72.2498C126.366 72.2749 126.05 72.3019 126.019 71.9117C126.03 71.4949 126.103 71.0864 126.233 70.7143C126.364 70.3424 126.548 70.0156 126.774 69.7567C126.786 69.7256 126.801 69.6961 126.816 69.6683L126.828 69.6493C126.834 69.6393 126.84 69.6295 126.846 69.62C126.857 69.6042 126.868 69.5891 126.879 69.5747C126.888 69.5637 126.897 69.5531 126.907 69.5429C126.916 69.5335 126.924 69.5245 126.934 69.5158C126.999 69.4542 127.073 69.4151 127.15 69.4012C127.228 69.3874 127.306 69.3992 127.38 69.436C127.454 69.4726 127.521 69.5332 127.576 69.613L127.582 69.6214L127.59 69.6329L127.595 69.6405L127.6 69.6489C127.835 70.1417 128.245 70.271 128.568 69.952C128.927 69.6588 128.852 69.1685 128.781 68.7125L128.769 68.6311L128.761 68.5817L128.755 68.5341C128.691 68.0358 128.494 67.631 128.303 67.2369C128.098 66.8163 127.899 66.4076 127.875 65.9107C127.7 66.3762 127.442 66.7648 127.128 67.0356C126.796 67.3242 126.423 67.4996 126.037 67.5485C125.643 67.6019 125.246 67.5298 124.873 67.3374C124.518 67.1647 124.198 66.8687 123.941 66.4753C123.768 66.2572 123.652 65.9594 123.613 65.632C123.58 65.31 123.629 64.9817 123.75 64.7082C124.249 63.2557 124.685 61.7845 124.079 60.2042C124.021 60.0467 124.003 59.8659 124.026 59.6912C124.049 59.5137 124.111 59.3518 124.203 59.2301C124.597 58.572 124.334 58.1597 123.79 57.9299C123.323 57.7513 122.9 57.3887 122.566 56.8825C122.263 56.4206 122.074 55.8267 122.028 55.193C121.938 54.099 121.632 53.0792 121.326 52.06L121.325 52.0578C121.12 51.3738 120.914 50.6903 120.775 49.985C120.454 48.8702 119.9 48.0024 119.223 47.5585C118.286 46.8047 117.5 45.8337 116.721 44.8714C115.989 43.9667 115.262 43.0695 114.423 42.3678C112.159 40.4713 111.845 37.9486 111.746 35.0996C111.748 34.8028 111.706 34.509 111.621 34.2386Z" fill="#182E35"/>
<path d="M356.57 93.4605C358.01 93.4605 358.561 92.8642 358.47 91.3715C358.413 90.2083 358.398 89.0416 358.423 87.8761C358.423 87.1995 358.26 86.6147 357.505 86.5587C356.131 86.4737 356.16 85.4657 356.187 84.4951L356.19 84.3934L356.192 84.3059L356.194 84.2078C356.195 84.1431 356.195 84.0787 356.196 84.0148V84.0005C356.202 83.0909 356.207 82.2712 357.4 82.1509C357.549 82.1608 357.698 82.1307 357.839 82.0619C357.974 81.9941 358.099 81.8865 358.204 81.7458C358.26 81.6698 358.308 81.583 358.347 81.4882C358.375 81.4186 358.399 81.3446 358.417 81.2674C358.462 81.0866 358.47 80.8912 358.44 80.7042V70.3601L358.167 70.2926C358.124 70.4125 358.079 70.5301 358.033 70.6464L358.008 70.7074L357.964 70.8162L357.91 70.9508L357.906 70.9596L357.904 70.9654L357.903 70.9675C357.827 71.1542 357.751 71.3397 357.681 71.5278C357.632 71.6584 357.586 71.7902 357.544 71.9246C355.697 78.0104 354.861 84.3103 354.031 90.6158C353.646 93.491 353.748 93.4899 356.448 93.4618L356.57 93.4605Z" fill="#182E35"/>
<path d="M364.982 93.6185C366.104 93.4749 366.767 93.0827 366.452 91.6201C366.182 90.0726 365.988 88.4993 365.871 86.9121L363.902 70.6201L363.715 70.6532V91.8615L363.715 91.9378L363.715 91.989C363.712 92.8638 363.709 93.7624 364.982 93.6185Z" fill="#182E35"/>
<path d="M135.631 65.2153C135.24 65.0572 135.303 64.5286 135.526 64.1794C136.311 62.8576 136.024 61.4908 135.741 60.1397C135.662 59.764 135.583 59.3894 135.528 59.0175C135.524 58.9928 135.52 58.9678 135.514 58.9428C135.509 58.9183 135.503 58.8937 135.496 58.869C135.489 58.8435 135.481 58.8179 135.473 58.7922C135.453 58.7314 135.431 58.6701 135.408 58.6091L135.408 58.6081C135.312 58.349 135.218 58.0937 135.347 57.8912C135.849 57.0633 135.928 56.1077 136.008 55.1482C136.07 54.4076 136.131 53.6647 136.388 52.9762C136.455 52.7952 136.5 52.6048 136.542 52.4214C136.679 51.8345 136.799 51.3202 137.614 51.4232C137.857 51.4468 138.104 51.4515 138.349 51.4561H138.351C139.39 51.4758 140.407 51.4951 140.985 52.9375C141.862 55.1154 142.088 57.3179 140.985 59.5017C140.525 60.4153 140.754 61.252 140.983 62.0903C141.08 62.4448 141.177 62.7997 141.222 63.1609C141.399 63.2231 141.468 63.0237 141.531 62.8404C141.606 62.6218 141.674 62.4259 141.907 62.7227C141.978 62.8324 142.032 62.9619 142.066 63.1035C142.1 63.2448 142.114 63.3951 142.106 63.5445C142.095 63.6957 142.064 63.8423 142.012 63.9751C141.961 64.1078 141.892 64.2238 141.808 64.316C141.357 65.0559 141.031 64.7798 140.662 64.4683C140.414 64.2585 140.147 64.0326 139.81 64.0904C139.918 64.311 139.883 64.6128 139.847 64.917C139.775 65.5438 139.701 66.1807 140.867 66.1392C141.258 66.1392 141.281 66.6075 141.251 66.9163C141.166 67.8837 141.408 68.7846 141.651 69.6855C141.922 70.6927 142.192 71.6999 142.006 72.7996C141.965 73.0285 141.965 73.2688 142.006 73.4978C142.055 73.7308 142.14 73.9446 142.254 74.1228C143.378 75.3466 142.842 76.3525 142.302 77.364L142.232 77.4952C142.21 77.5357 142.189 77.5763 142.168 77.6169C142.126 77.6975 142.085 77.7782 142.045 77.8592C142.019 77.9123 141.994 77.9656 141.97 78.0191C141.836 78.2721 141.657 78.4669 141.451 78.5822C141.231 78.711 140.993 78.7603 140.757 78.7259C140.252 78.7259 140.129 78.2899 140.008 77.8632L139.997 77.8243C139.984 77.7791 139.971 77.7341 139.957 77.69C139.834 77.2596 139.754 76.8066 139.717 76.3438C139.423 73.8168 138.593 71.5655 137.388 70.0224C137.375 70.0027 137.361 69.9832 137.346 69.9637C137.336 69.9508 137.326 69.938 137.316 69.9253C137.307 69.9141 137.297 69.903 137.288 69.8919C137.278 69.8802 137.269 69.8686 137.259 69.8569L137.226 69.8184C137.064 69.6294 136.896 69.4341 136.959 69.1892C137.25 68.1297 136.987 67.2139 136.715 66.2702C136.538 65.6552 136.358 65.0283 136.325 64.3418C136.1 64.4447 136.046 64.6867 136 64.8945C135.948 65.1309 135.905 65.3232 135.631 65.2153Z" fill="#182E35"/>
<path d="M81.828 48.7524C81.7824 48.9014 81.7589 49.0627 81.7589 49.2258C81.7589 49.3889 81.7824 49.5501 81.828 49.6991C81.9312 50.0208 82.1122 50.2764 82.3367 50.4174C82.9832 50.8168 83.3768 50.1589 83.7377 49.4994C83.7377 51.0094 85.7129 54.4604 86.7521 54.8942H87.0376C87.1798 54.9354 87.336 54.9631 87.493 54.991C87.8835 55.0603 88.2797 55.1307 88.4783 55.4114C89.2527 56.374 89.7901 57.7978 89.9874 59.4025C89.9924 59.4547 89.9963 59.5085 89.9997 59.5636C90.0031 59.6192 90.006 59.676 90.009 59.7334L90.009 59.7345C90.042 60.3748 90.0789 61.092 90.8669 61.092C91.6489 61.092 91.772 60.4061 91.9031 59.6758L91.9033 59.6748C91.9279 59.5378 91.9528 59.3991 91.9824 59.2632C92.1618 59.3533 92.2515 59.573 92.3338 59.7749C92.4666 60.1006 92.5806 60.3802 93.0225 59.9944C93.2176 59.8091 93.3588 59.5264 93.4192 59.1999C93.445 59.0436 93.4487 58.8813 93.4302 58.7228C93.4116 58.5642 93.3711 58.4129 93.3111 58.2776C93.2116 57.9993 93.1255 57.7181 93.0401 57.4387C92.7227 56.4014 92.4139 55.3919 91.4569 54.6686C91.0603 54.3813 89.9051 52.8441 91.3359 52.0825C92.539 51.4423 92.6723 50.3266 92.8051 49.2148C92.8302 49.0043 92.8553 48.794 92.8877 48.5872C93.0579 47.4981 92.5194 47.0713 91.9641 46.6313L91.925 46.6003L91.8652 46.5527L91.8056 46.5047L91.7653 46.4717C91.7245 46.438 91.6841 46.4039 91.6443 46.369C90.3464 45.3776 88.8743 44.968 87.4154 45.1922L87.2951 45.1991C86.325 45.255 85.48 45.3037 85.0238 43.7843C84.6629 42.6349 82.8315 42.0273 82.0085 42.5905C80.9226 43.2869 81.1923 44.2866 81.4843 45.3691L81.5217 45.5079L81.5425 45.5859L81.5575 45.6385L81.5844 45.7322L81.6146 45.8367C81.8819 46.7599 82.1526 47.6947 81.828 48.7524Z" fill="#182E35"/>
<path d="M66.9787 50.2667C66.9218 50.466 66.8993 50.6825 66.9133 50.8973C66.9187 51.0456 67.0272 51.1418 67.1386 51.2404C67.2939 51.3778 67.4546 51.5201 67.3496 51.8154C67.1601 51.8815 66.9769 51.7597 66.8015 51.6431C66.573 51.4912 66.3577 51.3481 66.1597 51.6415C65.9336 51.9766 66.101 52.2565 66.2708 52.5405C66.3639 52.6961 66.4577 52.853 66.4879 53.0208C66.686 53.6717 66.9727 54.258 67.3307 54.7448C67.5649 55.2027 67.8719 55.6098 68.1749 56.0113L68.1758 56.0125C68.6243 56.6068 69.0636 57.1889 69.2434 57.9055C69.8362 60.2918 71.3389 60.8476 72.9463 61.4422L73.1412 61.5144C73.1605 61.6326 72.9977 61.6851 72.834 61.7379C72.5539 61.8283 72.271 61.9195 72.8923 62.3419C73.4565 62.7471 73.6726 63.1249 73.2195 63.8289C73.1651 63.8957 73.1226 63.9804 73.0955 64.076C73.0673 64.1719 73.058 64.2774 73.0688 64.3806C73.0807 64.486 73.1115 64.5851 73.158 64.6679C73.2089 64.7563 73.2725 64.8274 73.3444 64.8763C73.6419 65.1234 74.1515 65.4164 74.3915 64.9941C74.9222 64.0637 75.3683 64.5124 75.7472 64.8935L75.7956 64.942L75.8403 64.9863L75.855 65.0005C75.8745 65.0195 75.8939 65.0378 75.913 65.0553L75.9282 65.069L75.9505 65.0887L75.9613 65.098L75.978 65.1119C76.1071 65.2178 76.2246 65.3487 76.3421 65.4796C76.6114 65.7797 76.8812 66.0802 77.2898 66.0802C77.5122 66.1184 77.7378 66.0759 77.9462 65.9566C78.2062 65.6897 78.0122 65.3381 77.8619 65.0657L77.847 65.0386C77.5947 64.5858 77.2737 64.2234 76.909 63.9798C76.521 63.722 76.1012 63.5803 75.6745 63.5631C75.0527 63.5043 75.0758 63.2404 75.1205 62.7295L75.1272 62.6523C75.2551 60.9282 74.5234 60.141 73.0599 60.3995C73.1316 59.2721 73.654 59.3998 74.1451 59.5199C74.333 59.5657 74.5164 59.6105 74.6681 59.5835C74.7866 59.5624 74.9164 59.5551 75.0489 59.5477C75.5296 59.5207 76.045 59.4918 76.1733 58.7948C76.3369 57.9055 75.6775 57.4328 75.1173 57.157L74.9876 57.0921L74.8816 57.0395C73.9397 56.572 73.0134 56.1123 72.4927 54.989C72.2447 55.173 72.2537 55.4669 72.2618 55.7305C72.2713 56.0393 72.2796 56.3065 71.872 56.3065C71.5139 56.3065 71.4743 55.952 71.4358 55.6075C71.42 55.4665 71.4044 55.3273 71.3673 55.2146C71.3321 55.1138 71.2985 55.0114 71.2658 54.9085L71.2298 54.7938L71.2083 54.7246L71.1786 54.6285C70.9053 53.7434 70.6325 52.8599 69.8086 52.4734C68.9512 52.0952 68.1729 51.4116 67.5449 50.4849L67.5352 50.4702C67.394 50.2538 67.2162 49.9816 66.9787 50.2667Z" fill="#182E35"/>
<path d="M98.5113 49.3985C98.0343 48.1571 97.5819 46.98 96.247 46.4896C95.2634 46.1634 94.8232 43.5344 95.4379 42.5488C95.5438 42.3401 95.6867 42.1768 95.8514 42.0761C96.0294 41.9734 96.222 41.9344 96.4126 41.9627C96.5954 41.9909 96.7657 42.1102 96.8945 42.3002C96.9514 42.3855 96.9949 42.4875 97.0221 42.5993C97.0493 42.7111 97.0596 42.8301 97.0522 42.9482C97.0009 43.6414 97.3128 44.0405 97.6217 44.4357C97.7667 44.6213 97.9111 44.8061 98.0169 45.0199C98.7536 46.7439 99.9534 47.6979 101.196 47.5542C101.264 47.5743 101.327 47.6187 101.38 47.6835C101.431 47.7396 101.47 47.816 101.491 47.9033C101.59 49.1668 102.303 49.7893 103.016 50.4118C103.437 50.7795 103.858 51.1474 104.153 51.6473C104.493 52.0865 104.917 52.3651 105.369 52.4461L105.41 52.4594L105.449 52.4716C105.473 52.4789 105.496 52.4859 105.52 52.493L105.58 52.5104C106.011 52.635 106.454 52.7634 106.682 53.5265C106.254 53.6665 105.82 53.6699 105.396 53.6731C104.686 53.6785 104.005 53.6837 103.434 54.3324C103.37 54.3611 103.302 54.3704 103.235 54.3598C103.178 54.3417 103.123 54.3075 103.075 54.2592C102.763 53.3601 102.131 52.9898 101.485 52.6114L101.481 52.609L101.479 52.6078L101.474 52.605C101.375 52.5472 101.276 52.4891 101.178 52.4288C101.028 52.3332 100.994 51.8998 100.968 51.5679L100.962 51.4997L100.959 51.4605L100.952 51.3774L100.948 51.3258L100.94 51.2183L100.932 51.0995L100.923 50.9684L100.912 50.7983C100.886 50.3816 100.859 49.9536 100.801 49.5066C100.819 49.7109 100.804 49.9182 100.758 50.1132C100.713 50.3083 100.638 50.4859 100.538 50.633C100.313 50.9586 100.016 51.1581 99.6986 51.1961C99.184 51.2424 98.9759 50.6569 98.7824 50.1125C98.7599 50.0494 98.7377 49.9868 98.7152 49.9259L98.6938 49.8687L98.6785 49.829L98.6704 49.8081L98.6584 49.7782L98.6161 49.6701L98.5769 49.5688L98.5113 49.3985Z" fill="#182E35"/>
<path d="M124.893 23.688C125.054 23.6202 125.223 23.6049 125.388 23.6435C125.552 23.6757 125.708 23.7622 125.844 23.8963L125.927 23.958C126.713 24.5427 127.104 24.8335 127.397 24.7213C127.687 24.6102 127.881 24.1038 128.268 23.0966L128.341 22.905L128.371 22.8281C128.707 21.9657 129.191 20.7209 130.423 21.9942C131.081 22.5738 131.812 22.9563 132.573 23.1191C132.655 23.1439 132.747 23.1827 132.843 23.2234L132.844 23.2239C133.247 23.395 133.738 23.603 134.003 22.9898C134.07 22.8201 134.11 22.6308 134.119 22.4359C134.129 22.241 134.109 22.0453 134.059 21.8634C133.954 21.4763 133.751 21.1622 133.491 20.9856C133.169 20.7823 132.851 20.555 132.533 20.3274L132.531 20.3263L132.52 20.3188L132.518 20.3177C131.113 19.3143 129.697 18.3029 127.861 19.2185C127.836 19.2317 127.806 19.2546 127.773 19.2818L127.749 19.3022L127.719 19.3288C127.539 19.4856 127.315 19.6808 127.274 19.1725C127.179 17.8698 126.598 18.468 126.284 18.7909L126.247 18.8292C125.522 19.5329 124.85 20.3463 124.243 21.2557C124.079 21.5638 123.972 21.9288 123.935 22.3146C123.901 22.6976 123.939 23.0868 124.046 23.4409C124.174 23.981 124.564 23.823 124.893 23.688Z" fill="#182E35"/>
<path d="M60.8768 29.3399C61.0007 29.1796 61.0838 28.9635 61.1128 28.7265C60.8484 25.474 62.7451 24.4707 64.6329 23.4721C64.7348 23.4182 64.8367 23.3643 64.9381 23.3101C64.9614 23.2969 64.9856 23.2819 65.0106 23.2657L65.042 23.2449L65.0769 23.2212L65.1251 23.188C65.436 22.9731 65.8139 22.712 66.0011 23.3101C66.0587 23.4943 66.1519 23.6799 66.2466 23.8682C66.5249 24.4222 66.8152 25 66.2469 25.6347C65.6437 26.2967 65.0147 26.9079 64.363 27.4651C64.3314 27.4932 64.2995 27.5205 64.2676 27.5473L64.2244 27.5831L64.1943 27.6078L64.1748 27.6236L64.1377 27.6535L64.0654 27.7113C63.5746 28.1025 63.1321 28.4551 63.2089 29.5152C63.2732 30.4025 62.752 30.4765 62.2416 30.549C62.0199 30.5804 61.8 30.6117 61.6313 30.7091L61.5566 30.6937C60.8809 30.5545 60.259 30.4263 60.8768 29.3399Z" fill="#182E35"/>
<path d="M151.211 65.9911C151.329 66.1312 151.408 66.3657 151.487 66.5976C151.645 67.0647 151.8 67.522 152.258 67.1793C152.521 66.9852 152.85 66.8538 153.181 66.7215C153.952 66.4132 154.737 66.0995 154.737 64.9725C154.751 64.1887 154.625 63.4131 154.37 62.7212C154.093 61.9856 153.704 61.3516 153.232 60.868C152.892 60.5671 152.539 60.2984 152.175 60.0634C152.162 60.0674 152.149 60.0708 152.136 60.074C152.126 60.0764 152.116 60.0786 152.106 60.0806L152.082 60.0852L152.061 60.0892L152.058 60.0898L152.039 60.0932L152.012 60.0987L151.998 60.102L151.984 60.1055C151.976 60.1075 151.969 60.1098 151.962 60.1121C151.956 60.1142 151.951 60.1164 151.946 60.1187C151.931 60.1263 151.92 60.1357 151.916 60.1481C151.317 61.3558 150.769 62.6153 150.275 63.9194C150.001 64.7179 150.443 65.1764 150.889 65.6395L150.889 65.6404C151 65.7552 151.111 65.8704 151.211 65.9911Z" fill="#182E35"/>
<path d="M52.762 40.128C53.7476 40.1898 54.0232 40.6007 57.4222 47.0356C57.357 47.1089 57.2861 47.171 57.2111 47.2209C56.6558 46.603 55.9538 46.2455 55.2516 45.888C54.1693 45.337 53.0861 44.7856 52.5389 43.28C52.4027 42.9008 52.1167 42.7264 51.8282 42.5505C51.4784 42.3373 51.1249 42.1217 51.0298 41.5359C52.1282 41.2085 52.7828 41.9987 53.4769 42.8365C53.6205 43.01 53.7659 43.1854 53.9172 43.3533C53.9517 42.4099 53.5921 41.7631 53.2428 41.1349C53.0609 40.8078 52.8811 40.4844 52.762 40.128Z" fill="#182E35"/>
<path d="M64.5871 39.368C64.8145 39.9288 65.1318 40.4019 65.5122 40.7472C65.9168 41.1283 66.3716 41.3832 66.8478 41.4957C67.3374 41.4357 67.332 41.1185 67.3247 40.6852L67.3235 40.6093L67.323 40.569L67.3228 40.5159C67.2998 39.5409 66.7467 39.2 66.1918 38.8581C65.9553 38.7124 65.7184 38.5663 65.5222 38.3709C66.4622 37.2939 67.472 36.3513 68.5374 35.5564C66.3293 34.7921 64.1707 37.0319 64.5871 39.368Z" fill="#182E35"/>
<path d="M97.8315 55.1815C97.3954 54.5678 97.0514 53.8302 96.8211 53.015C96.6628 52.5191 96.3373 52.1866 96.0102 51.8525C95.5652 51.3979 95.1171 50.9402 95.0839 50.0641C96.2875 50.2269 97.1435 51.0455 97.9664 51.8324L97.9689 51.8347C98.0413 51.904 98.1134 51.973 98.1856 52.0413L98.2628 52.1142C98.3976 52.2402 98.5058 52.4029 98.6153 52.5676C98.7942 52.8366 98.9766 53.1108 99.2841 53.2391C99.3841 53.2789 99.4784 53.3441 99.5627 53.4316C99.6436 53.5101 99.7113 53.6136 99.761 53.7348C99.8092 53.8489 99.8362 53.9791 99.8394 54.1127C99.8461 54.244 99.8294 54.3756 99.7908 54.4948C99.7678 54.7901 99.6869 55.0698 99.5578 55.3007C99.418 55.5452 99.2403 55.7382 99.0392 55.8639C98.5649 56.0912 98.1911 55.6274 97.8671 55.2255L97.8315 55.1815Z" fill="#182E35"/>
<path d="M52.2662 44.2599C52.0997 43.9395 51.6108 43.9725 51.6108 44.6262C51.5811 45.971 54.3306 49.5684 55.4461 49.6374L55.4664 49.6349C55.8171 49.5893 56.2523 49.5327 56.4109 49.1015C56.5725 48.6618 56.3117 48.297 56.0827 48.0326C55.6072 47.4824 55.0548 47.0465 54.5015 46.61C53.6734 45.9568 52.8434 45.302 52.2662 44.2599Z" fill="#182E35"/>
<path d="M210.522 31.1832C210.349 30.7504 210.168 30.299 209.631 30.051C209.105 29.8471 209.351 28.7265 209.526 28.0096C209.611 27.7337 209.745 27.4579 210.158 27.4579L210.166 27.4643L210.172 27.4685L210.18 27.4744L210.188 27.4798C210.194 27.4836 210.2 27.4875 210.206 27.4914L210.236 27.5108C210.32 27.5629 210.423 27.6275 210.447 27.7222C210.695 28.7159 211.344 28.8628 211.992 29.0094C212.056 29.0237 212.119 29.038 212.182 29.0531C212.208 29.0592 212.233 29.0655 212.258 29.0719C212.302 29.0831 212.346 29.0947 212.389 29.1072C212.819 29.2422 213.272 29.4463 213.196 30.087C213.137 30.5867 212.863 30.5054 212.599 30.4269L212.598 30.4265C212.58 30.4213 212.563 30.4161 212.545 30.411C212.531 30.407 212.517 30.4031 212.504 30.3994C212.462 30.3883 212.422 30.3792 212.383 30.3743C211.633 30.2824 211.795 30.893 211.93 31.38L211.945 31.4316L211.961 31.4872L211.977 31.5411L211.99 31.5824L211.991 31.5842C212.114 31.9867 212.222 32.3389 211.848 32.5854C211.427 32.8824 211.243 32.5202 211.076 32.1925L211.075 32.1915L211.075 32.1901C211.038 32.1181 211.002 32.0473 210.965 31.9862L210.955 31.9714L210.95 31.9623L210.939 31.9465C210.923 31.9227 210.907 31.9008 210.89 31.8814C210.723 31.6852 210.623 31.4374 210.522 31.1832Z" fill="#182E35"/>
<path d="M725.937 87.0277C726.028 88.5204 725.476 89.1167 724.037 89.1167L723.914 89.118C721.215 89.1461 721.112 89.1472 721.497 86.272C722.327 79.9664 723.164 73.6667 725.01 67.5809C725.076 67.3709 725.152 67.1672 725.232 66.9649C725.245 66.9305 725.259 66.8962 725.273 66.862L725.332 66.7155L725.37 66.6237L725.37 66.6216L725.373 66.6158L725.376 66.6071L725.431 66.4725L725.475 66.3635L725.499 66.3027C725.545 66.1863 725.591 66.0687 725.634 65.9487L725.907 66.0163V76.3604C725.936 76.5474 725.928 76.7429 725.884 76.9236C725.878 76.9498 725.871 76.9756 725.864 77.001C725.852 77.0411 725.839 77.0803 725.824 77.1183C725.803 77.1737 725.778 77.2267 725.751 77.2765C725.726 77.3209 725.7 77.3629 725.671 77.4019C725.565 77.5426 725.441 77.6503 725.306 77.7181C725.246 77.7475 725.184 77.7698 725.121 77.785C725.087 77.7933 725.053 77.7995 725.018 77.8034C724.992 77.8064 724.966 77.8082 724.94 77.8088C724.916 77.8093 724.891 77.8088 724.867 77.8071C723.673 77.9274 723.668 78.7472 723.662 79.6567V79.671L723.662 79.7551L723.661 79.8211L723.66 79.907L723.659 79.9621L723.658 80.0209L723.654 80.1514C723.627 81.122 723.598 82.13 724.972 82.2148C725.726 82.2709 725.89 82.8556 725.89 83.5323C725.864 84.6979 725.88 85.8646 725.937 87.0277Z" fill="#182E35"/>
<path d="M732.449 89.2747C733.57 89.1311 734.234 88.7388 733.918 87.2763C733.649 85.7287 733.454 84.1555 733.337 82.5683L731.369 66.2762L731.182 66.3094V87.5177L731.181 87.6452C731.178 88.52 731.175 89.4186 732.449 89.2747Z" fill="#182E35"/>
</svg>
