<svg width="967" height="1078" viewBox="0 0 967 1078" fill="none" xmlns="http://www.w3.org/2000/svg">
<rect y="367" width="966" height="711" fill="#DEA206"/>
<path fill-rule="evenodd" clip-rule="evenodd" d="M781.178 113.644C780.974 113.793 780.772 113.944 780.569 114.096C779.622 114.803 778.673 115.512 777.674 115.957C777.623 115.957 777.582 116.045 777.539 116.137L777.538 116.139L777.538 116.14L777.522 116.173L777.511 116.197L777.496 116.226C777.489 116.238 777.483 116.251 777.476 116.262C777.467 116.277 777.458 116.29 777.448 116.301C776.743 117.293 775.924 118.037 775.042 118.487C774.138 118.966 773.188 119.152 772.242 119.034C770.506 118.792 768.76 119.188 767.125 120.192C765.414 121.176 763.739 122.323 762.067 123.471C759.376 125.383 756.815 127.764 754.425 130.574V111.804C754.425 109.487 754.098 107.853 752.039 108.203C751.347 108.318 750.652 107.935 750.76 106.815C751.114 102.99 749.301 103.077 747.426 103.181C747.167 103.181 746.908 103.187 746.65 103.193C746.136 103.206 745.627 103.218 745.132 103.181C743.581 103.039 742.683 103.689 742.876 106.094C742.955 107.056 742.876 108.28 741.922 108.165C739.598 107.913 739.598 109.903 739.598 112.159V152.82C739.598 153.596 739.598 154.383 739.559 155.137C739.568 155.343 739.546 155.549 739.496 155.738C739.445 155.934 739.369 156.11 739.274 156.252C739.172 156.398 739.054 156.51 738.926 156.58C738.796 156.651 738.659 156.679 738.523 156.662C737.825 156.662 737.467 156.257 737.415 155.295C737.412 155.247 737.41 155.197 737.408 155.147L737.404 155.051L737.404 155.044C737.376 154.333 737.344 153.529 736.759 153.339C735.392 152.944 735.416 151.691 735.441 150.393L735.442 150.364L735.445 150.155L735.446 150.1L735.447 150.045C735.448 149.986 735.448 149.928 735.448 149.869V126.645C735.448 125.006 735.254 123.651 733.714 123.837C732.435 123.995 732.094 123.094 732.117 121.52C732.148 119.077 732.138 116.641 732.127 114.214V114.194L732.127 114.159V114.146C732.122 112.959 732.117 111.774 732.117 110.591C732.117 108.913 731.652 108.274 730.442 108.274C729.676 108.274 728.914 108.267 728.154 108.26L728.152 108.26C726.635 108.245 725.124 108.23 723.607 108.274C722.181 108.345 721.725 107.558 721.738 105.673C721.767 103.343 721.761 101.012 721.756 98.6814C721.749 95.8841 721.742 93.0866 721.794 90.2907C721.84 87.8153 721.375 86.4656 719.362 86.8154L719.347 86.8178C718.711 86.9273 717.703 87.1006 717.693 85.788C717.693 84.431 717.165 83.6399 716.625 82.8305C716.428 82.535 716.229 82.2371 716.054 81.9083C715.9 81.618 715.741 81.3307 715.582 81.0433L715.58 81.0411C715.371 80.663 715.162 80.2851 714.963 79.8996C713.197 79.2719 711.424 78.6611 709.643 78.0673C709.674 77.9959 709.705 77.9239 709.734 77.8513C709.368 78.75 708.878 79.5449 708.385 80.3459L708.256 80.5553L708.167 80.7014L708.104 80.8051L708.057 80.8823L708.006 80.9659L707.963 81.0386L707.934 81.0873L707.872 81.1925C707.607 81.6459 707.276 82.0333 706.945 82.4202C706.152 83.3482 705.36 84.2748 705.492 86.1105C705.537 86.7717 704.836 86.9083 704.416 86.8263C702.151 86.3673 701.856 87.9847 701.866 90.6514C701.901 104.942 701.889 119.233 701.878 133.524V133.569C701.876 135.767 701.874 137.965 701.872 140.163C734.493 153.428 762.451 173.766 785.652 200.819C825.225 246.936 840.31 299.085 829.388 357.105C822.064 395.99 804.917 430.876 775.773 460.1C722.595 513.377 656.004 535.412 577.615 526.083C529.357 520.341 487.699 501.43 453.221 469.776C425.128 443.999 396.92 418.329 368.711 392.659L368.707 392.655C352.48 377.888 336.252 363.121 320.046 348.333C314.131 342.938 307.548 338.599 299.03 337.652C284.151 335.996 270.65 342.743 264.225 354.885C258.494 365.725 259.234 377.947 271.669 389.055C297.945 412.488 324.099 436.035 350.251 459.581L350.258 459.588C373.345 480.374 396.432 501.16 419.603 521.867C428.061 529.464 437.132 536.476 446.741 542.846C482.842 566.66 523.546 579.829 567.624 585.13C602.221 589.281 636.548 588.392 670.612 581.435C735.587 568.179 789.41 538.051 831.8 491.565C866.804 453.15 887.971 409.008 895.351 359.448C899.627 331.187 898.734 302.479 892.708 274.482C882.876 228.705 861.557 187.744 827.398 152.88C822.452 147.834 817.408 143.001 812.269 138.379C812.179 138.835 811.788 139.159 811.115 139.334C809.565 139.716 808.165 139.52 807.591 136.798C807.524 136.605 807.405 136.439 807.288 136.276C807.059 135.958 806.839 135.651 807.034 135.17H807.031C807.24 134.654 807.5 134.783 807.764 134.915C807.872 134.968 807.98 135.022 808.086 135.033C808.229 135.067 808.374 135.075 808.517 135.058C805.321 132.273 802.088 129.568 798.819 126.943C799.424 127.904 799.249 128.8 798.445 129.635C797.986 130.11 797.901 130.727 798.35 131.465C798.702 132.139 799.021 132.859 799.304 133.618C797.382 135.116 795.381 135.055 793.394 134.995C792.62 134.971 791.847 134.948 791.082 135.017C788.65 135.203 787.981 136.58 788.758 139.935C788.78 140.038 788.844 140.134 788.909 140.232C789.064 140.466 789.226 140.712 788.85 141.093C788.509 141.421 788.174 141.772 787.84 142.123C786.389 143.645 784.936 145.169 782.949 144.809C782.518 144.769 782.086 144.875 781.68 145.121C781.436 145.22 781.21 145.421 781.025 145.705C780.844 145.97 780.713 146.315 780.648 146.7C780.581 147.072 780.581 147.47 780.648 147.842C780.72 148.223 780.854 148.563 781.035 148.826C781.127 148.998 781.266 149.098 781.405 149.198C781.641 149.367 781.876 149.536 781.88 150.055L781.739 150.069L781.679 150.075L781.614 150.081L781.471 150.094L781.386 150.102L781.223 150.116L780.969 150.137L780.964 150.137L780.957 150.138C780.278 150.194 779.608 150.249 778.93 150.377C778.559 150.492 778.183 150.547 777.805 150.541H777.714C777.527 150.487 777.354 150.343 777.217 150.126C777.079 149.91 776.983 149.63 776.94 149.323C776.93 149.286 776.917 149.25 776.903 149.217C776.88 149.163 776.853 149.114 776.822 149.071C776.801 149.041 776.778 149.014 776.754 148.99L776.744 148.981L776.736 148.973L776.731 148.969C776.717 148.957 776.701 148.946 776.686 148.936C776.672 148.927 776.659 148.919 776.645 148.913C776.624 148.907 776.602 148.903 776.581 148.901C776.56 148.898 776.539 148.898 776.518 148.9L776.503 148.901L776.49 148.903C776.474 148.905 776.458 148.908 776.442 148.913C776.434 148.914 776.426 148.916 776.419 148.918C776.408 148.921 776.397 148.924 776.387 148.928L776.376 148.932L776.364 148.937C776.357 148.94 776.35 148.944 776.343 148.948C776.323 148.958 776.304 148.97 776.286 148.985L776.273 148.995C776.265 149.002 776.257 149.009 776.248 149.017C776.189 149.061 776.137 149.126 776.094 149.208C776.051 149.284 776.02 149.376 776.002 149.476C775.988 149.574 775.988 149.678 776.002 149.776C776.004 149.803 776.007 149.829 776.011 149.855C776.015 149.881 776.02 149.906 776.026 149.93C776.037 149.974 776.051 150.016 776.068 150.055C776.096 150.144 776.122 150.235 776.147 150.327C776.153 150.348 776.159 150.369 776.164 150.389L776.18 150.454L776.188 150.486L776.199 150.53C775.941 150.552 775.683 150.552 775.425 150.53C775.292 150.512 775.14 150.509 774.984 150.506C774.373 150.496 773.69 150.484 773.75 149.492C773.809 148.498 773.724 147.482 773.639 146.466C773.477 144.546 773.316 142.628 774.131 140.858C774.131 140.887 774.133 140.915 774.135 140.944C774.136 140.955 774.137 140.967 774.138 140.978C774.14 141.001 774.142 141.023 774.146 141.045C774.156 141.12 774.172 141.193 774.193 141.263C774.411 142.025 774.727 141.83 775.046 141.633C775.235 141.517 775.425 141.4 775.596 141.481C776.084 141.757 776.613 141.757 777.101 141.481C777.568 141.216 777.962 140.676 778.209 139.962C778.621 138.687 777.979 137.516 777.424 136.503L777.354 136.376L777.312 136.299L777.246 136.177L777.225 136.137C776.971 135.658 776.617 135.291 776.273 134.934C775.832 134.477 775.409 134.037 775.235 133.405C774.951 132.377 775.422 131.832 775.917 131.258L775.918 131.257C776.229 130.897 776.549 130.526 776.701 130.017H776.698C777.32 127.946 779.674 127.427 780.923 128.864C780.943 128.884 780.972 128.9 781.006 128.914C781.03 128.924 781.057 128.934 781.083 128.943C781.247 129 781.425 129.062 781.208 129.372C780.782 129.995 780.798 130.323 781.372 130.465C781.821 130.569 782.316 130.465 782.333 129.607C782.348 128.798 782.719 128.3 783.108 127.779L783.154 127.716L783.178 127.684C783.606 127.217 783.933 126.533 784.109 125.733C784.275 124.957 784.275 124.11 784.109 123.334C783.976 122.89 783.929 122.388 783.975 121.897C784.024 121.4 784.16 120.938 784.365 120.569C785.139 119.34 785.473 118.159 784.526 116.493C784.78 116.574 785.022 116.63 785.249 116.66C783.861 115.669 782.466 114.691 781.066 113.727C781.103 113.699 781.14 113.671 781.178 113.644ZM791.289 142.618H791.286C791.235 142.062 791.107 141.534 790.914 141.074C792.317 144.253 794.267 144.031 796.249 143.805L796.41 143.786L796.5 143.776L796.599 143.765C797.088 143.705 798.019 143.591 798.048 144.749C798.084 145.704 797.409 145.987 796.89 146.205L796.841 146.226L796.807 146.24L796.777 146.253C796.757 146.262 796.737 146.27 796.718 146.279C795.191 146.919 793.592 146.919 792.066 146.279C791.917 146.258 791.772 146.187 791.639 146.072C791.511 145.96 791.399 145.801 791.312 145.607C791.229 145.424 791.175 145.21 791.155 144.984C791.134 144.758 791.148 144.527 791.194 144.312C791.307 143.768 791.34 143.187 791.289 142.618ZM773.049 134.968C774.327 134.274 774.708 134.525 775.344 136.749C775.065 136.749 774.76 136.519 774.467 136.298C773.943 135.902 773.459 135.537 773.236 136.574C772.916 138.064 774.019 138.571 774.879 138.966L774.991 139.018L775.043 139.042L775.094 139.066C775.094 139.567 774.819 139.793 774.561 140.004L774.542 140.019L774.491 140.061C774.662 139.678 774.56 139.378 774.311 139.159C773.799 138.708 773.303 138.146 772.806 137.583C772.242 136.945 771.677 136.305 771.088 135.826C771.139 135.805 771.189 135.784 771.239 135.763L771.347 135.719L771.489 135.661L771.657 135.594C772.124 135.407 772.596 135.218 773.052 134.973L773.049 134.968Z" fill="#F8E2A5"/>
<path d="M699.753 133.095L699.752 133.174L699.752 133.247L699.752 133.307V139.313C690.541 135.676 680.964 132.597 671.021 130.084C671.023 129.267 671.033 128.45 671.042 127.634V127.624C671.064 125.89 671.085 124.157 671.021 122.427C670.953 120.323 671.595 119.569 673.037 119.777C673.157 119.777 673.281 119.77 673.407 119.764C673.663 119.75 673.928 119.736 674.178 119.777C675.696 120.006 676.145 119.034 676.145 117.045C676.126 114.937 676.136 112.825 676.147 110.713V110.696C676.158 108.466 676.169 106.237 676.145 104.012C676.122 101.941 676.703 101.072 678.253 101.072C679.956 101.072 681.657 101.064 683.357 101.056H683.399C686.823 101.04 690.242 101.025 693.661 101.072C696.614 101.072 697.132 101.908 697.132 105.99V127.356C697.093 128.968 697.132 130.274 698.683 130.46C699.803 130.604 699.779 131.804 699.757 132.88L699.755 132.977L699.753 133.095Z" fill="#F8E2A5"/>
<path d="M667.101 129.126V67.3482C662.135 66.4768 657.118 65.7215 652.05 65.0822V83.411C652.05 84.8427 651.932 85.7225 650.598 86.0503C648.592 86.4656 647.864 88.0066 647.858 90.8973V115.4C647.858 115.587 647.868 115.785 647.879 115.985C647.924 116.839 647.973 117.747 647.222 118.132C646.294 118.607 646.297 119.498 646.353 120.449C646.468 122.334 645.917 123.274 644.507 123.028C643.137 122.794 642.513 123.362 642.263 124.534C644.42 124.829 646.583 125.151 648.752 125.5C654.997 126.506 661.114 127.716 667.101 129.126Z" fill="#F8E2A5"/>
<path d="M642.146 144.245C642.142 145.087 642.137 145.929 642.133 146.77L642.146 144.245Z" fill="#F8E2A5"/>
<path d="M635.558 105.673C635.823 112.519 636.464 119.31 637.104 126.098C637.034 125.35 636.963 124.602 636.893 123.854C625.88 122.573 615.016 122.005 604.303 122.148L604.302 122.412C604.313 118.504 604.322 114.581 604.287 110.678C604.264 108.318 604.422 106.487 606.674 106.788C607.985 106.963 607.985 105.597 607.985 104.312C607.985 102.693 607.994 101.072 608.002 99.4506V99.4409C608.02 96.1977 608.037 92.9537 607.985 89.717C607.955 87.553 608.536 86.87 610.086 86.87C612.145 86.9041 614.2 86.898 616.256 86.892C618.813 86.8844 621.373 86.8768 623.95 86.9465C625.513 87.0066 625.943 86.2088 625.841 84.2143C625.367 77.0037 624.681 69.8369 623.785 62.7395C624.562 62.7714 625.337 62.8059 626.112 62.8429C625.883 60.4168 625.655 57.9907 625.428 55.5644C626.071 62.4313 626.72 69.2982 627.375 76.1652H627.546V62.9145C629.27 63.004 630.989 63.1062 632.703 63.2209C632.704 63.1724 632.706 63.1246 632.709 63.0777C632.702 63.1915 632.699 63.3102 632.699 63.4331V76.5477L632.948 76.6242L632.985 76.5135L633.09 76.192C633.266 75.6572 633.441 75.1253 633.604 74.5696C634.46 70.9077 635.099 67.1839 635.618 63.4283C636.302 63.48 636.984 63.5341 637.665 63.5898C636.074 77.507 634.994 91.5 635.558 105.673Z" fill="#F8E2A5"/>
<path d="M634.886 58.9721C634.886 59.0357 634.887 59.0993 634.887 59.1632L634.886 58.9721Z" fill="#F8E2A5"/>
<path d="M583.533 108.536V123.334C550.414 126.698 518.798 137.088 488.725 154.399C487.356 155.18 484.554 155.491 483.424 154.746C471.167 146.631 458.402 139.182 445.194 132.434L444.786 132.432C447.825 132.448 450.862 132.463 453.9 132.416C455.549 132.394 455.729 133.678 455.673 135.449L455.672 135.475L455.67 135.509L455.667 135.553L455.663 135.614L455.659 135.675C455.613 136.361 455.555 137.219 456.329 137.219C456.929 137.195 456.911 136.441 456.897 135.818L456.897 135.811L456.894 135.697L456.894 135.672L456.893 135.631C456.893 135.604 456.893 135.578 456.893 135.552V122.001L456.892 121.909C456.887 121.137 456.881 120.315 456.181 120.11C455.293 119.858 455.237 118.969 455.179 118.037L455.172 117.924C454.916 114.187 455.244 113.7 457.971 113.64C458.188 113.637 458.41 113.649 458.631 113.662L458.632 113.662C459.887 113.733 461.13 113.803 461.289 111.017C461.329 110.273 461.927 110.3 462.475 110.324C462.643 110.331 462.807 110.339 462.948 110.323C463.24 110.29 463.531 110.293 463.818 110.296C464.854 110.306 465.836 110.315 466.619 108.629C467.216 107.345 469.317 108.793 469.54 111.11C469.812 113.668 470.779 113.668 472.136 113.668C474.156 113.595 476.182 113.595 478.214 113.668C478.296 113.67 478.382 113.668 478.47 113.664C478.502 113.663 478.534 113.662 478.566 113.66L478.596 113.659C479.299 113.625 480.082 113.589 480.181 114.973C480.204 115.298 480.246 115.638 480.288 115.984L480.288 115.99C480.459 117.393 480.641 118.885 479.679 119.81C479.361 120.076 479.098 120.497 478.925 121.017C478.761 121.517 478.705 122.095 478.765 122.656C478.765 124.42 478.772 126.183 478.779 127.946L478.779 127.953V127.972C478.792 131.501 478.806 135.031 478.765 138.563C478.742 140.47 479.22 141.235 480.633 141.132C481.69 141.062 482.764 141.086 483.824 141.109H483.825C484.349 141.12 484.87 141.132 485.383 141.132L485.456 141.134L485.534 141.136C486.735 141.172 487.86 141.205 487.809 138.76C487.793 137.787 488.429 137.509 489.039 137.509C489.509 137.505 490.015 137.433 490.524 137.36C491.693 137.192 492.88 137.021 493.69 137.684C495.379 139.072 496.411 138.684 497.913 137.591C498.364 137.252 498.953 137.331 499.538 137.41C500.292 137.511 501.04 137.612 501.479 136.815C502.041 135.797 501.939 134.416 501.837 133.045C501.798 132.509 501.758 131.976 501.758 131.465V80.9639C510.459 77.7216 519.293 74.8794 528.259 72.463C528.565 73.1153 528.531 73.9609 528.498 74.7518C528.488 74.9897 528.479 75.2227 528.479 75.4439C528.502 84.8236 528.502 94.2032 528.502 103.584V103.702C528.502 113.043 528.502 122.384 528.525 131.727C528.525 131.996 528.493 132.315 528.459 132.646C528.349 133.744 528.226 134.981 529.2 135.006C530.203 135.032 530.104 133.736 530.018 132.62L530.018 132.617C529.995 132.322 529.974 132.04 529.974 131.798C530.029 126.334 530.042 120.87 529.974 115.405C529.951 113.214 530.462 112.372 532.16 112.372C538.039 112.511 543.929 112.511 549.83 112.372C551.636 112.334 552.17 113.236 552.085 115.575C552.028 117.137 552.047 118.722 552.066 120.291V120.319L552.066 120.329L552.067 120.35C552.076 121.109 552.085 121.865 552.085 122.613L552.085 122.735V122.737C552.082 123.483 552.079 124.299 552.859 124.361C553.681 124.427 553.718 123.498 553.718 122.722C553.718 122.165 553.726 121.611 553.735 121.06L553.735 121.052V121.049C553.753 119.95 553.77 118.861 553.718 117.771C553.626 115.815 554.268 115.028 555.619 115.214C557.166 115.422 558.189 114.842 557.943 112.247C557.825 110.919 558.353 110.372 559.307 110.372C559.348 110.372 559.388 110.372 559.429 110.371L559.495 110.37L559.526 110.369C559.611 110.366 559.696 110.362 559.781 110.358L559.885 110.352L559.932 110.35L559.934 110.35L559.936 110.349C560.36 110.326 560.787 110.303 561.205 110.372C562.887 110.64 563.506 109.968 563.778 107.362C563.888 106.333 564.364 105.434 564.857 104.502C565.439 103.403 566.044 102.259 566.103 100.804C568.301 101.086 568.96 99.0957 569.62 97.0995L569.622 97.0947C569.78 96.6161 569.938 96.1373 570.118 95.6896C570.292 95.3396 570.518 95.0735 570.774 94.9191C571.034 94.7529 571.314 94.6966 571.59 94.7552C572.411 94.8262 573.234 94.8262 574.056 94.7552C576.026 94.3836 577.281 95.3672 578.055 97.9354C578.205 98.7197 578.508 99.3972 578.917 99.8589C579.347 100.352 579.857 100.617 580.379 100.618C581.378 100.674 581.37 101.789 581.364 102.765L581.363 102.893L581.363 102.995C581.363 104.22 581.487 105.181 582.549 105.526C583.598 105.856 583.568 107 583.541 108.052L583.541 108.059L583.541 108.066L583.538 108.177L583.536 108.25L583.535 108.328L583.534 108.378L583.533 108.434C583.533 108.469 583.533 108.503 583.533 108.536Z" fill="#F8E2A5"/>
<path d="M436.424 144.867L436.424 144.766C436.424 144.799 436.424 144.833 436.424 144.867Z" fill="#F8E2A5"/>
<path d="M405.576 139.602C405.517 139.605 405.458 139.611 405.398 139.618C405.363 139.622 405.327 139.627 405.291 139.632C405.308 139.63 405.324 139.627 405.341 139.625C405.361 139.623 405.381 139.62 405.4 139.618C405.46 139.611 405.518 139.605 405.576 139.602Z" fill="#F8E2A5"/>
<path d="M388.648 139.586C388.598 139.585 388.549 139.584 388.501 139.584C388.526 139.584 388.551 139.584 388.576 139.584L388.648 139.586Z" fill="#F8E2A5"/>
<path d="M385.49 141.965C384.967 142.422 384.742 143.263 384.835 144.611L385.49 141.965Z" fill="#F8E2A5"/>
<path d="M354.268 146.833C354.268 146.86 354.267 146.889 354.267 146.917L354.267 146.891L354.268 146.833Z" fill="#F8E2A5"/>
<path d="M352.173 136.847C352.174 136.84 352.174 136.834 352.174 136.827L352.173 136.847Z" fill="#F8E2A5"/>
<path d="M332.414 137.454C332.413 137.503 332.412 137.554 332.411 137.606L332.411 137.625C332.412 137.573 332.413 137.522 332.414 137.473C332.414 137.467 332.414 137.46 332.414 137.454Z" fill="#F8E2A5"/>
<path d="M303.655 143.079L303.653 143.079H303.651C303.094 143.091 302.542 143.102 301.997 143.102C302.543 143.102 303.097 143.091 303.655 143.079Z" fill="#F8E2A5"/>
<path d="M284.516 76.4034V97.6734C274.896 98.2054 265.376 99.1138 255.964 100.412L255.964 104.556C255.964 94.9265 255.964 85.2975 255.988 75.6686C255.988 75.4421 255.978 75.2037 255.968 74.9602L255.968 74.9591V74.9581C255.924 73.9231 255.875 72.7963 256.583 72.1064C256.988 71.732 257.386 71.3411 257.783 70.9502C259.481 69.2798 261.177 67.6111 263.443 67.2429C266.75 66.7058 270.053 66.1113 273.355 65.517L273.358 65.5164L273.362 65.5157L273.365 65.5152C275.612 65.1106 277.859 64.7062 280.106 64.3203C282.828 63.8533 282.829 63.8932 282.883 67.5457L282.885 67.6468C282.885 68.035 282.848 68.4596 282.811 68.8899C282.706 70.1071 282.598 71.3696 283.301 71.983C284.554 73.0473 284.537 74.453 284.52 75.8946V75.8965L284.518 76.0583C284.517 76.1733 284.516 76.2884 284.516 76.4034Z" fill="#F8E2A5"/>
<path d="M223.076 111.525C222.855 111.525 222.63 111.514 222.406 111.502L222.405 111.502C222.629 111.514 222.854 111.525 223.076 111.525Z" fill="#F8E2A5"/>
<path d="M218.22 107.949C218.216 107.934 218.213 107.918 218.209 107.903C211.138 109.756 204.137 111.855 197.212 114.207V109.641C197.212 109.599 197.212 109.556 197.211 109.513C197.211 109.482 197.21 109.45 197.21 109.419C197.209 109.382 197.208 109.346 197.207 109.309L197.206 109.247L197.203 109.146L197.203 109.144C197.174 108.063 197.142 106.889 198.262 106.55C199.396 106.196 199.529 105.209 199.529 103.952L199.529 103.848L199.528 103.773L199.528 103.715C199.521 102.713 199.513 101.569 200.579 101.512C201.136 101.51 201.68 101.239 202.14 100.732C202.576 100.259 202.9 99.563 203.06 98.7579C203.886 96.1214 205.227 95.1116 207.33 95.4931C208.207 95.566 209.085 95.566 209.962 95.4931C210.257 95.433 210.556 95.4908 210.833 95.6614C211.107 95.8199 211.348 96.093 211.533 96.4523C211.726 96.9133 211.896 97.4062 212.065 97.8989C212.77 99.948 213.473 101.992 215.821 101.703C215.883 103.196 216.529 104.371 217.15 105.498C217.594 106.306 218.025 107.089 218.22 107.949Z" fill="#F8E2A5"/>
<path d="M194.219 134.2L194.163 134.2L194.125 134.2C194.156 134.2 194.188 134.2 194.219 134.2Z" fill="#F8E2A5"/>
<path d="M180.224 134.222C179.889 134.222 179.553 134.213 179.217 134.204H179.216L179.214 134.204C179.551 134.213 179.888 134.222 180.224 134.222Z" fill="#F8E2A5"/>
<path d="M175.041 124.943V124.947C175.048 127.096 175.054 129.24 175.054 131.373C175.054 129.239 175.048 127.094 175.041 124.943Z" fill="#F8E2A5"/>
<path fill-rule="evenodd" clip-rule="evenodd" d="M175.041 124.855C175.039 124.147 175.037 123.437 175.035 122.728C173.142 123.542 171.254 124.377 169.374 125.233C158.704 130.084 148.507 135.331 138.782 140.971C138.731 141.535 138.679 142.099 138.627 142.663L138.621 142.722C138.773 141.075 138.925 139.426 139.073 137.773C139.358 134.403 139.688 131.038 140.018 127.672L140.018 127.669C140.702 120.7 141.386 113.729 141.669 106.701C142.495 86.7196 140.014 67.0858 137.351 47.525C137.346 47.2236 137.298 46.9279 137.211 46.6611C137.121 46.3857 136.996 46.1446 136.843 45.9543C136.684 45.7556 136.502 45.6088 136.308 45.5223C136.109 45.4307 135.901 45.4002 135.695 45.4326C134.421 45.419 133.161 45.0153 131.982 44.2433C131.369 43.8058 130.806 43.2448 131.411 42.1397C132.811 39.5761 132.535 38.5776 130.309 37.5678C129.975 37.4112 129.622 37.3022 129.264 37.1914C128.338 36.9052 127.371 36.6063 126.571 35.4418C127.047 35.1453 127.558 34.927 128.061 34.7116C129.577 34.0627 131.031 33.4404 131.31 30.7914C131.345 30.4887 131.949 30.2556 132.447 30.0632C132.549 30.0238 132.647 29.9862 132.734 29.9499L141.834 26.3037C142.754 25.9446 143.356 25.6473 142.404 24.2113C141.662 23.0893 142.712 18.7362 143.706 18.697C146.19 18.6256 146.189 16.4203 146.188 14.2278L146.188 14.0858C146.202 12.8244 146.207 11.5613 146.211 10.2988V10.2881C146.22 7.80964 146.229 5.33178 146.31 2.86653C146.31 2.69592 146.303 2.50393 146.295 2.3022L146.295 2.30034V2.29752C146.255 1.27302 146.206 0 147.056 0C147.73 0 147.662 1.04411 147.602 1.96838C147.584 2.2481 147.566 2.51769 147.57 2.74312C147.626 6.49037 147.661 10.2432 147.57 13.9624C147.57 15.8865 148.47 17.9677 149.282 18.0855C151.623 18.4165 153.219 19.0953 153.775 22.5732C153.809 22.7817 153.87 22.9558 153.926 23.1127C154.062 23.5003 154.162 23.7832 153.709 24.2225C152.383 25.5295 153.236 26.0512 154.213 26.4215C155.845 27.0433 157.486 27.642 159.125 28.2403L159.126 28.2408L159.129 28.242C159.765 28.4743 160.402 28.7066 161.038 28.9402C161.213 29.008 161.393 29.0689 161.573 29.1298C162.748 29.5271 163.922 29.924 163.9 32.2443C163.9 33.0849 164.574 33.3909 165.115 33.6373L165.117 33.6381L165.173 33.6635L165.234 33.6916C165.521 33.8458 165.811 33.9894 166.102 34.1333C166.572 34.3662 167.044 34.6 167.509 34.8808L167.538 34.8972L167.587 34.9239L167.589 34.925C167.87 35.0789 168.184 35.2508 168.146 35.7727C168.109 36.2683 167.8 36.3599 167.513 36.4448L167.511 36.4456C167.467 36.4584 167.424 36.4712 167.383 36.4852C166.878 36.6695 166.371 36.8456 165.863 37.0215L165.862 37.0221L165.859 37.0231L165.857 37.0239C164.931 37.345 164.004 37.6664 163.092 38.039C161.678 38.6168 161.139 40.6083 162.074 41.6909C163.473 43.2953 162.56 43.8843 161.577 44.4958C160.527 45.1859 159.4 45.5293 158.266 45.5055C158.012 45.4242 157.75 45.4242 157.496 45.5055C157.244 45.5906 157.005 45.7587 156.796 45.9991C156.597 46.2269 156.433 46.5242 156.316 46.8686C156.203 47.1989 156.141 47.5687 156.138 47.9457C155.902 49.8768 155.65 51.8064 155.398 53.7361L155.398 53.7405L155.396 53.7551L155.395 53.757C155.144 55.6826 154.893 57.6082 154.657 59.5352C153.494 67.8294 152.621 76.2215 152.043 84.6721C151.935 86.7196 152.393 87.5386 154.062 87.4769C156.813 87.4054 159.546 87.4131 162.276 87.4209C164.471 87.4271 166.665 87.4334 168.863 87.3984C170.519 87.3984 171.138 88.0996 171.107 90.321C171.051 93.6432 171.069 96.9729 171.088 100.302V100.313C171.097 101.977 171.107 103.642 171.107 105.304C171.107 106.623 171.107 108.025 172.507 107.846C174.911 107.537 175.079 109.416 175.054 111.84C175.015 116.169 175.028 120.523 175.041 124.855ZM142.744 46.8013L142.534 46.8012C139.809 46.799 139.709 46.7989 140.105 50.5037C140.935 58.6825 141.834 66.867 143.755 74.771C143.929 75.3415 144.116 75.8875 144.304 76.4366L144.417 76.7666L144.455 76.8803L144.721 76.8017V63.3386C144.721 62.3288 144.515 61.5996 143.636 61.4818C142.368 61.3158 142.377 60.1093 142.386 58.9573C142.386 58.8633 142.387 58.7696 142.387 58.6769L142.387 58.609L142.386 58.5136L142.385 58.4058V58.3879C142.375 57.2145 142.364 55.8643 143.762 55.7712C144.588 55.6982 144.721 54.9353 144.721 54.0546C144.721 53.5516 144.715 53.0486 144.708 52.5456V52.543C144.695 51.5381 144.682 50.5325 144.721 49.5276C144.844 47.5698 144.259 46.8237 142.744 46.8013ZM152.466 55.2607C152.59 53.2111 152.788 51.1749 153.061 49.163C153.411 47.2613 152.711 46.7845 151.539 46.5713C150.214 46.4067 150.218 47.5588 150.223 48.6862L150.223 48.7846L150.223 48.8769V76.409H150.405C151.105 69.3596 151.798 62.3101 152.484 55.2607H152.466Z" fill="#F8E2A5"/>
<path d="M134.662 151.302C134.661 151.309 134.661 151.317 134.661 151.324L134.661 151.321C134.661 151.315 134.661 151.309 134.662 151.302Z" fill="#F8E2A5"/>
<path d="M401.747 586.504C400.404 585.374 399.066 584.239 397.735 583.098C392.804 578.869 387.867 574.647 382.93 570.424C367.612 557.324 352.294 544.225 337.177 530.935C333.309 527.536 329.75 525.88 324.273 525.996C304.029 526.444 283.769 526.524 263.819 522.431C164.629 502.051 107.033 404.083 143.589 317.88C172.422 249.909 252.245 208.514 330.96 221.278C366.242 226.998 397.209 240.565 422.628 264.379C441.522 282.098 460.758 299.509 479.996 316.919C492.321 328.074 504.647 339.23 516.883 350.466C524.015 357.018 532.207 360.005 542.086 358.725C554.855 357.069 565.021 351.544 569.638 340.168C574.16 328.974 571.971 318.372 562.641 309.788C553.755 301.61 544.926 293.377 536.097 285.143L536.087 285.135C512.245 262.9 488.401 240.666 463.434 219.521C397.074 163.294 318.82 146.574 232.271 170.482C115.862 202.613 47.7339 311.812 74.3306 419.566C98.571 517.744 193.089 586.649 303.687 586.736C334.566 586.764 365.454 586.75 396.333 586.736C397.363 586.736 398.393 586.68 399.675 586.61L399.679 586.61C400.3 586.576 400.979 586.539 401.747 586.504Z" fill="#F8E2A5"/>
<path fill-rule="evenodd" clip-rule="evenodd" d="M966.432 338.505C966.337 338.997 966.432 326.51 966.432 338.505V309.578C966.095 306.698 965.768 303.817 965.441 300.935C964.833 295.572 964.224 290.205 963.55 284.838C959.045 248.995 947.718 214.135 930.076 181.814C922.778 168.382 914.67 155.61 905.755 143.501C904.196 144.277 902.613 144.551 901.019 144.826L900.759 144.872L900.571 144.904L900.468 144.922C900.165 144.976 899.862 145.032 899.558 145.094C898.65 145.268 897.712 145.219 897.837 142.973C897.885 142.142 897.761 141.294 897.635 140.438L897.635 140.437L897.634 140.436C897.538 139.779 897.441 139.119 897.421 138.46C897.421 137.405 897.165 137.208 896.506 137.001C896.31 136.937 896.106 136.892 895.901 136.847C895.004 136.649 894.086 136.447 893.684 134.618C893.647 134.307 893.557 134.021 893.425 133.793C893.286 133.553 893.113 133.375 892.923 133.274C892.726 133.169 892.517 133.143 892.313 133.198C892.113 133.251 891.924 133.386 891.763 133.591C891.422 133.954 891.038 133.269 890.77 132.79L890.717 132.695C890.516 132.358 890.324 132.002 890.131 131.645L890.131 131.645L890.13 131.643C889.914 131.244 889.698 130.843 889.468 130.465L889.443 130.423L889.403 130.353C889.175 129.952 888.893 129.457 888.537 129.826C888.256 130.117 888.379 130.499 888.502 130.879C888.55 131.027 888.598 131.175 888.622 131.318C888.879 132.784 889.532 133.829 890.182 134.869C890.636 135.596 891.09 136.321 891.405 137.187C891.729 138.083 892.201 138.828 892.672 139.571L892.673 139.573C893.42 140.751 894.164 141.926 894.313 143.695C894.313 143.799 894.389 143.89 894.459 143.974L894.489 144.011L894.502 144.027L894.513 144.041L894.519 144.05L894.566 144.114C894.879 144.549 895.198 144.993 895.66 144.837C896.129 144.682 896.11 144.171 896.092 143.657V143.65C896.087 143.511 896.082 143.373 896.087 143.241L896.087 143.223L896.088 143.191L896.089 143.137L896.089 143.104L896.088 143.045L896.087 142.985L896.084 142.881V142.88C896.071 142.415 896.061 142.029 896.575 141.815C896.718 143.06 896.582 144.249 896.448 145.426L896.448 145.433C896.373 146.091 896.298 146.747 896.273 147.405L896.268 147.549L896.253 147.923C896.205 149.131 896.18 149.779 895.973 150.12C895.734 150.514 895.252 150.499 894.213 150.466L894.172 150.465C893.963 150.465 893.754 150.497 893.545 150.529C893.321 150.563 893.098 150.596 892.877 150.591C890.91 150.591 888.701 150.186 887.684 147.859C886.93 146.131 885.956 145.764 884.987 145.399C884.651 145.272 884.315 145.146 883.99 144.962C883.213 144.514 883.007 145.913 882.934 146.886C882.934 147.405 882.934 148.126 883.462 148.159C884.593 148.159 884.662 148.159 884.773 149.798C884.82 150.757 885.039 151.67 885.403 152.416C884.693 151.87 883.907 151.661 883.131 151.809C882.682 151.809 882.232 151.794 881.782 151.779L881.781 151.779C880.881 151.749 879.982 151.718 879.092 151.809C878.485 151.886 877.852 151.824 877.217 151.761C875.64 151.606 874.053 151.45 872.831 153.421C872.722 153.598 872.396 153.595 872.086 153.591H872.084L872.008 153.591L871.966 153.59L871.919 153.591C871.902 153.591 871.886 153.591 871.871 153.591C871.845 153.592 871.819 153.593 871.794 153.595L871.769 153.596C870.254 153.684 869.574 153.723 869.268 154.307C869.019 154.783 869.019 155.623 869.019 157.146V158.307C866.19 158.307 865.858 158.443 865.507 161.651L864.383 162.197C863.983 161.7 863.518 161.618 863.239 162.405C863.148 162.662 863.038 162.899 862.911 163.11C862.497 163.435 862.102 163.822 861.731 164.268C861.26 164.427 860.784 164.542 860.305 164.613C859.207 164.858 858.758 165.492 858.81 166.99V167.47C858.391 168.004 858.114 168.788 858.036 169.656C857.849 171.011 857.555 171.738 857.138 171.891V163.711C857.463 163.377 857.822 163.146 858.197 163.028C858.227 163.214 858.202 163.471 858.177 163.735C858.109 164.439 858.037 165.193 858.974 164.787C859.826 164.432 862.01 159.869 862.003 158.563C862.003 157.727 862.003 156.7 861.174 157.083C860.374 157.451 859.928 156.901 859.392 156.239L859.331 156.165C858.348 155.006 857.43 155.471 857.197 157.257C856.781 160.476 856.043 161.055 854.099 159.711V159.367C854.137 158.499 854.108 157.627 854.014 156.771C853.984 156.497 853.913 156.241 853.807 156.025C853.702 155.81 853.565 155.643 853.41 155.541C853.255 155.438 853.086 155.403 852.921 155.438C852.755 155.474 852.598 155.579 852.464 155.744C851.41 157.01 850.283 156.909 849.157 156.808C848.626 156.76 848.095 156.713 847.573 156.809C847.316 156.864 847.056 156.864 846.799 156.809C846.636 155.496 846.249 154.289 845.684 153.334V140.4C845.684 137.121 845.573 137.001 843.249 136.93H831.585C832.167 136.496 832.782 136.2 833.414 136.05C835.237 135.427 836.623 132.831 835.918 130.853C835.328 129.214 835.679 128.782 836.574 128.17C837.469 127.558 837.807 126.722 836.715 125.853C836.626 125.775 836.548 125.667 836.485 125.536C836.425 125.412 836.381 125.266 836.358 125.11C835.599 122.085 835.306 118.793 835.505 115.531C835.636 113.608 835.017 113.017 833.817 113.679C832.807 114.225 832.266 113.968 832.096 112.116C831.863 109.93 830.693 109.094 829.824 110.378C828.956 111.662 828.185 113.11 828.631 115.099C829.077 117.088 828.546 117.832 827.221 117.575C827.153 117.56 827.085 117.545 827.018 117.529L826.957 117.514L826.881 117.495L826.82 117.479L826.747 117.46L826.61 117.425C826.278 117.337 825.947 117.249 825.608 117.209C824.71 117.116 824.058 117.832 824.602 119.061C825.832 121.756 825.412 124.383 824.99 127.028L824.988 127.038C824.878 127.725 824.768 128.414 824.687 129.105C824.579 130.066 824.189 130.52 823.704 130.056C823.666 130.02 823.627 129.985 823.588 129.95L823.518 129.886L823.517 129.886C822.871 129.303 822.175 128.674 822.393 127.116C822.554 126.094 822.647 125.046 822.671 123.99C822.72 123.417 822.642 122.835 822.452 122.351C822.248 121.842 821.949 121.458 821.603 121.258C821.24 121.044 820.843 121.054 820.485 121.285C820.313 121.398 820.156 121.565 820.023 121.777C819.892 121.979 819.788 122.225 819.718 122.498C819.608 122.878 819.44 123.204 819.232 123.444C819.016 123.698 818.764 123.862 818.501 123.919C817.161 124.22 815.879 125.76 815.905 127.263C815.956 130.808 814.453 131.733 812.895 132.693L812.884 132.7L812.767 132.772L812.674 132.83L812.58 132.888L812.526 132.922L812.474 132.955L812.411 132.995C812.383 133.015 812.356 133.039 812.329 133.064C812.315 133.078 812.3 133.092 812.286 133.107L812.239 133.154L812.215 133.178C812.19 133.202 812.164 133.226 812.138 133.247C811.07 134.208 810.591 135.192 811.745 136.815C812.181 137.437 812.35 137.963 812.269 138.379C817.408 143.001 822.452 147.834 827.398 152.88C861.557 187.744 882.876 228.705 892.708 274.482C898.734 302.479 899.627 331.187 895.351 359.448C887.971 409.008 866.804 453.15 831.8 491.565C789.41 538.051 735.587 568.179 670.612 581.435C636.548 588.392 602.221 589.281 567.624 585.13C523.546 579.829 482.842 566.66 446.741 542.846C437.132 536.476 428.061 529.464 419.603 521.867C396.43 501.158 373.341 480.37 350.251 459.581C324.099 436.035 297.945 412.488 271.669 389.055C259.234 377.947 258.494 365.725 264.225 354.885C270.65 342.743 284.151 335.996 299.03 337.652C307.548 338.599 314.131 342.938 320.046 348.333C336.253 363.122 352.482 377.891 368.711 392.659C396.92 418.329 425.128 443.999 453.221 469.776C487.699 501.43 529.357 520.341 577.615 526.083C656.004 535.412 722.595 513.377 775.773 460.1C804.917 430.876 822.064 395.99 829.388 357.105C840.31 299.085 825.225 246.936 785.652 200.819C762.451 173.766 734.493 153.428 701.872 140.163C701.869 145.118 701.866 150.073 701.866 155.028C701.876 155.896 701.857 156.764 701.811 157.629C701.758 158.498 701.371 158.787 700.775 158.787C700.178 158.787 699.821 158.35 699.791 157.525C699.762 156.7 699.752 155.962 699.752 155.214L699.752 139.313C690.541 135.676 680.964 132.597 671.021 130.084C671.021 130.136 671.022 130.189 671.022 130.241C671.022 131.755 670.622 132.427 669.474 132.553C667.412 132.668 667.101 132.334 667.101 129.362L667.101 129.126C661.114 127.716 654.997 126.506 648.752 125.5C646.583 125.151 644.42 124.829 642.263 124.534C642.146 125.083 642.112 125.765 642.121 126.558C642.207 133.292 642.17 140.038 642.133 146.77L642.133 146.778L642.121 148.962C642.121 148.982 642.121 149.003 642.121 149.023C642.121 149.047 642.122 149.072 642.122 149.096L642.123 149.196C642.125 149.255 642.126 149.313 642.127 149.372V149.38C642.15 150.427 642.173 151.503 640.951 151.624C639.689 151.76 639.279 150.919 639.154 149.378C638.922 146.522 638.671 143.674 638.418 140.82L638.418 140.816L638.417 140.802L638.415 140.789L638.404 140.663L638.401 140.619C638.263 139.062 638.125 137.503 637.991 135.941C637.725 132.679 637.418 129.422 637.111 126.164L637.11 126.156L637.106 126.115L637.105 126.101L637.104 126.098C637.034 125.35 636.963 124.602 636.893 123.854C625.88 122.573 615.016 122.005 604.303 122.148C604.302 122.551 604.301 122.954 604.3 123.357V123.4C604.294 125.509 604.287 127.613 604.287 129.706C604.287 131.684 603.786 132.613 602.288 132.482C601.658 132.427 601.024 132.445 600.391 132.464L600.39 132.464C600.075 132.473 599.759 132.482 599.446 132.482L599.407 132.482L599.365 132.481L599.298 132.48L599.182 132.478L599.138 132.477H599.136C598.121 132.455 597.098 132.433 596.866 134.531C596.856 134.702 596.809 134.862 596.733 134.978C596.657 135.094 596.557 135.158 596.454 135.158C596.351 135.158 596.252 135.094 596.175 134.978C596.099 134.862 596.052 134.702 596.043 134.531C595.811 132.434 594.807 132.446 593.779 132.458L593.661 132.46L593.578 132.46L593.526 132.46L593.463 132.46H586.424L586.379 132.46L586.326 132.46L586.222 132.459C585.089 132.449 583.933 132.439 583.992 135.192C583.773 134.739 583.617 134.211 583.533 133.646C583.456 133.092 583.456 132.516 583.533 131.963L583.533 123.334C550.414 126.698 518.798 137.088 488.725 154.399C487.356 155.18 484.554 155.491 483.424 154.746C471.167 146.631 458.402 139.182 445.194 132.434C445.058 132.433 444.922 132.432 444.786 132.432C443.265 132.424 441.745 132.416 440.223 132.416C438.968 132.416 438.361 133.148 438.384 134.913C438.384 134.98 438.385 135.048 438.387 135.117C438.389 135.185 438.391 135.255 438.393 135.325L438.393 135.33V135.343C438.418 136.187 438.446 137.137 437.696 137.356C436.41 137.758 436.417 138.947 436.424 140.255L436.424 140.334C436.428 141.224 436.427 142.239 436.425 143.252V143.28C436.425 143.692 436.424 144.103 436.424 144.504L436.424 144.766L436.424 144.867L436.425 144.966C436.431 145.784 436.438 146.709 435.578 146.689C434.739 146.669 434.752 145.745 434.763 144.97L434.763 144.966L434.764 144.854L434.765 144.787C434.765 144.765 434.765 144.743 434.765 144.722C434.765 143.418 434.758 142.114 434.751 140.811L434.751 140.809V140.787C434.738 138.187 434.724 135.589 434.765 132.995C434.765 130.979 434.27 130.17 432.798 130.209C429.248 130.285 425.704 130.296 422.157 130.209C420.607 130.209 420.017 130.913 420.056 133.088C420.105 135.794 420.098 138.498 420.09 141.204V141.213C420.084 143.193 420.079 145.175 420.095 147.159C420.095 148.798 419.699 149.476 418.456 149.476C415.417 149.405 412.378 149.421 409.343 149.476C409.084 149.476 408.86 149.443 408.67 149.374L408.663 145.761C408.663 143.111 408.659 142.195 407.807 141.825C407.746 140.109 406.978 139.52 405.576 139.602C405.483 139.608 405.388 139.619 405.291 139.632C405.195 139.645 405.098 139.66 405 139.676L404.997 139.676C404.214 139.801 403.376 139.933 402.895 138.957C402.172 137.514 401.265 137.512 400.282 137.51L400.182 137.51L400.107 137.509L400.059 137.509C398.669 137.405 397.276 137.405 395.889 137.509C395.261 137.598 394.605 137.525 393.948 137.451C392.318 137.267 390.677 137.082 389.418 139.383C389.305 139.596 388.97 139.591 388.651 139.586H388.648C388.598 139.585 388.549 139.584 388.501 139.584C388.439 139.584 388.379 139.586 388.323 139.591C385.988 139.744 385.566 139.771 385.49 141.965C384.967 142.422 384.742 143.263 384.835 144.611C384.881 145.479 384.863 146.362 384.844 147.24C384.829 147.975 384.813 148.707 384.836 149.425C384.885 151.001 384.405 151.668 383.18 151.668C379.939 151.612 376.695 151.595 373.451 151.668C372.124 151.668 371.701 150.973 371.701 149.29C371.718 147.256 371.712 145.225 371.706 143.195V143.185C371.698 140.404 371.69 137.626 371.743 134.845C371.785 132.612 371.155 131.889 369.499 131.889C365.712 131.979 361.929 131.967 358.139 131.889C356.567 131.849 356.039 132.68 356.039 134.75C356.083 137.413 356.068 140.081 356.054 142.75V142.773L356.053 142.805C356.046 144.133 356.039 145.46 356.039 146.788C356.039 146.87 356.04 146.956 356.041 147.043C356.053 147.838 356.066 148.787 355.171 148.807C354.253 148.828 354.26 147.878 354.267 147.039V147.035L354.268 146.919L354.267 146.891L354.268 146.833C354.268 146.336 354.267 145.823 354.266 145.308V145.277C354.265 144.238 354.263 143.196 354.268 142.283L354.268 142.203C354.276 140.86 354.283 139.639 352.91 139.226C352.109 139.002 352.139 138.026 352.166 137.159L352.166 137.156C352.168 137.073 352.171 136.99 352.173 136.909L352.174 136.844C352.175 136.802 352.175 136.76 352.175 136.719C352.2 134.907 351.552 134.155 350.212 134.155C348.589 134.155 346.968 134.163 345.347 134.171L345.34 134.171C342.096 134.187 338.853 134.204 335.61 134.155C333.85 134.133 333.657 135.451 333.717 137.268C333.718 137.289 333.719 137.309 333.72 137.33L333.723 137.375L333.728 137.438L333.732 137.502C333.781 138.205 333.843 139.086 333.017 139.086C332.376 139.061 332.395 138.287 332.41 137.646L332.411 137.642L332.411 137.606C332.413 137.526 332.415 137.448 332.415 137.375V123.463L332.416 123.369C332.421 122.576 332.427 121.733 333.174 121.522C334.123 121.263 334.182 120.351 334.245 119.394L334.252 119.278C334.525 115.441 334.175 114.942 331.263 114.88C331.032 114.877 330.794 114.89 330.557 114.903C329.217 114.975 327.891 115.047 327.722 112.188C327.679 111.424 327.04 111.451 326.455 111.476C326.276 111.484 326.101 111.491 325.951 111.475C325.639 111.441 325.328 111.444 325.021 111.447C323.915 111.457 322.867 111.467 322.031 109.736C321.394 108.418 319.15 109.905 318.913 112.283C318.622 114.908 317.59 114.908 316.141 114.908C313.985 114.834 311.822 114.834 309.652 114.908C309.523 114.912 309.385 114.906 309.244 114.899C308.494 114.865 307.658 114.827 307.552 116.249C307.527 116.584 307.483 116.936 307.437 117.292C307.255 118.733 307.061 120.265 308.087 121.214C308.428 121.487 308.708 121.92 308.892 122.453C309.068 122.966 309.128 123.56 309.064 124.136C309.064 125.948 309.057 127.761 309.049 129.573V129.588C309.034 133.212 309.02 136.838 309.064 140.466C309.088 142.424 308.577 143.209 307.069 143.102C305.941 143.031 304.793 143.055 303.662 143.079L303.658 143.079H303.655L303.653 143.079H303.651C303.094 143.091 302.542 143.102 301.997 143.102L301.837 143.107C300.555 143.143 299.354 143.178 299.408 140.668C299.425 139.669 298.746 139.383 298.095 139.383C297.594 139.38 297.054 139.305 296.51 139.23C295.262 139.058 293.995 138.883 293.129 139.563C291.327 140.988 290.224 140.589 288.621 139.467C288.14 139.119 287.511 139.201 286.887 139.281C286.081 139.386 285.283 139.489 284.814 138.671C284.214 137.626 284.323 136.208 284.432 134.8V134.799L284.432 134.797V134.796C284.474 134.248 284.516 133.701 284.516 133.179L284.516 97.6734C274.896 98.2054 265.376 99.1138 255.964 100.412C255.964 101.794 255.964 103.175 255.964 104.556C255.964 114.186 255.964 123.816 255.94 133.448C255.94 133.724 255.974 134.051 256.009 134.391C256.127 135.518 256.259 136.788 255.219 136.814C254.148 136.841 254.254 135.51 254.346 134.364C254.37 134.061 254.393 133.77 254.393 133.521C254.333 127.911 254.319 122.302 254.393 116.692C254.417 114.443 253.871 113.579 252.059 113.579C245.782 113.721 239.494 113.721 233.194 113.579C231.266 113.54 230.696 114.465 230.786 116.866C230.847 118.47 230.827 120.098 230.807 121.709C230.796 122.509 230.786 123.304 230.786 124.091L230.787 124.138L230.787 124.217V124.219C230.789 124.984 230.792 125.823 229.961 125.886C229.082 125.954 229.044 125 229.044 124.204C229.044 123.629 229.034 123.058 229.025 122.489V122.488C229.006 121.359 228.988 120.24 229.044 119.121C229.142 117.113 228.456 116.305 227.014 116.496C225.362 116.709 224.27 116.114 224.532 113.45C224.658 112.087 224.094 111.525 223.076 111.525C222.855 111.525 222.63 111.514 222.406 111.502C221.953 111.479 221.496 111.455 221.05 111.526C219.254 111.801 218.593 111.111 218.303 108.435C218.282 108.254 218.25 108.077 218.209 107.903C211.138 109.756 204.137 111.855 197.212 114.207L197.212 133.689C197.295 134.258 197.295 134.849 197.212 135.417C197.123 135.997 196.956 136.539 196.722 137.005C196.785 134.178 195.552 134.189 194.342 134.199L194.219 134.2L194.163 134.2L194.125 134.2H186.611L186.544 134.2L186.489 134.2L186.4 134.2L186.275 134.198C185.177 134.186 184.105 134.174 183.857 136.326C183.847 136.502 183.797 136.665 183.715 136.785C183.634 136.904 183.528 136.97 183.418 136.97C183.308 136.97 183.201 136.904 183.12 136.785C183.039 136.665 182.988 136.502 182.979 136.326C182.731 134.172 181.638 134.195 180.554 134.218H180.552L180.444 134.22L180.382 134.221L180.311 134.222L180.258 134.222L180.224 134.222C179.889 134.222 179.553 134.213 179.217 134.204L179.214 134.204C178.539 134.185 177.862 134.166 177.19 134.222C175.59 134.357 175.054 133.403 175.054 131.373C175.054 129.239 175.048 127.094 175.041 124.943L175.042 124.931L175.042 124.915L175.042 124.899L175.041 124.855C175.039 124.147 175.037 123.437 175.035 122.728C173.142 123.542 171.254 124.377 169.374 125.233C158.704 130.084 148.507 135.331 138.782 140.971C138.729 141.555 138.675 142.139 138.621 142.722L138.618 142.764L138.617 142.778L138.616 142.782C138.347 145.712 138.078 148.636 137.831 151.567C137.698 153.149 137.26 154.013 135.913 153.873C134.608 153.749 134.633 152.645 134.657 151.57L134.659 151.49L134.661 151.381C134.661 151.344 134.662 151.306 134.662 151.269L134.663 151.213C134.663 151.189 134.663 151.165 134.663 151.141L134.651 148.977L134.651 148.966L134.651 148.94L134.651 148.899V148.893C134.64 147.071 134.63 145.249 134.622 143.425C81.3397 175.394 42.6576 219.523 18.7256 275.683C8.00247 300.849 1.91253 327.035 0.137293 354.003C0.112202 354.381 0.0637153 354.76 0 355.138V392.8C0.680817 397.998 1.36213 403.197 2.05582 408.4C5.97567 438.113 15.5233 466.986 30.2765 493.742C51.1158 531.604 78.8183 563.003 113.332 587.869C127.743 592.439 143.013 594.893 158.822 594.893H805.259C848.917 569.006 884.914 535.378 913.167 494.118C937.049 459.232 958.697 422.592 966.132 382L966.432 338.505ZM397.735 583.098C399.066 584.239 400.404 585.374 401.747 586.504C400.979 586.539 400.3 586.576 399.679 586.61C398.395 586.68 397.364 586.736 396.333 586.736C365.454 586.75 334.566 586.764 303.687 586.736C193.089 586.649 98.571 517.744 74.3306 419.566C47.7339 311.812 115.862 202.613 232.271 170.482C318.82 146.574 397.074 163.294 463.434 219.521C488.401 240.666 512.245 262.9 536.087 285.135C544.92 293.371 553.752 301.607 562.641 309.788C571.971 318.372 574.16 328.974 569.638 340.168C565.021 351.544 554.855 357.069 542.086 358.725C532.207 360.005 524.015 357.018 516.883 350.466C504.647 339.23 492.321 328.074 479.996 316.919C460.758 299.509 441.522 282.098 422.628 264.379C397.209 240.565 366.242 226.998 330.96 221.278C252.245 208.514 172.422 249.909 143.589 317.88C107.033 404.083 164.629 502.051 263.819 522.431C283.769 526.524 304.029 526.444 324.273 525.996C329.75 525.88 333.309 527.536 337.177 530.935C352.294 544.225 367.612 557.324 382.93 570.424C387.867 574.647 392.804 578.869 397.735 583.098Z" fill="#DEA206"/>
<path d="M824.51 65.5984C823.437 65.9704 822.437 66.8095 821.616 68.0398C820.34 69.8825 818.869 71.3114 817.279 72.2529C813.88 74.1558 811.174 77.5443 808.483 80.9158L808.481 80.9184L808.479 80.9202L808.478 80.9213C807.74 81.8466 807.002 82.771 806.251 83.6626C804.987 85.2643 803.869 87.1639 802.933 89.3019C801.065 93.1263 798.92 96.5511 796.547 99.4985C796.044 100.149 795.516 100.745 794.988 101.341L794.986 101.342C793.545 102.967 792.104 104.592 791.191 107.318C790.651 108.839 789.852 110.059 788.896 110.821C787.894 111.623 786.781 111.96 785.674 111.799C784.001 111.687 782.524 112.651 781.066 113.727C782.466 114.691 783.861 115.669 785.249 116.66C786.649 116.846 787.534 116.048 787.889 113.946C788.06 112.99 788.968 112.466 789.06 112.733C789.243 113.308 789.608 113.698 789.968 114.082C790.521 114.674 791.063 115.252 790.912 116.471C790.548 119.351 791.735 119.941 793.207 120.296L793.408 120.335L793.48 120.349C795.186 120.677 796.797 120.987 797.855 123.711C798.237 124.553 798.725 125.245 799.285 125.739C799.865 126.256 800.501 126.573 801.156 126.673C800.566 127.279 800.141 126.995 799.746 126.729C799.393 126.492 799.063 126.271 798.658 126.711C798.717 126.789 798.77 126.866 798.819 126.943C802.088 129.568 805.321 132.273 808.517 135.058C808.633 135.044 808.748 135.014 808.86 134.968C809.109 134.863 809.343 134.678 809.549 134.422C809.747 134.178 809.912 133.867 810.034 133.509C810.146 133.173 810.21 132.8 810.224 132.416C810.224 131.062 810.372 129.74 810.52 128.424L810.521 128.422L810.521 128.419V128.418L810.521 128.416C810.711 126.729 810.9 125.05 810.775 123.318C810.634 121.291 811.65 120.668 812.548 120.504C813.643 120.296 813.781 121.662 813.627 123.039C813.571 123.547 813.581 124.056 813.991 124.198C814.4 124.34 814.571 123.793 814.646 123.34C815.04 120.815 815.42 118.296 815.754 115.75C815.763 115.462 815.721 115.177 815.633 114.93C815.539 114.675 815.407 114.466 815.249 114.323C814.568 113.571 814.045 112.482 813.755 111.209C813.48 109.98 813.46 108.633 813.699 107.384C814.206 105.193 814.098 103.081 813.991 100.999V100.997C813.922 99.6459 813.854 98.3076 813.955 96.9685C813.98 96.5798 813.93 96.1349 813.88 95.6915C813.775 94.7514 813.67 93.8171 814.282 93.4385C815.186 92.8787 815.589 94.0926 815.941 95.1517L815.993 95.3053C816.005 95.3416 816.017 95.3775 816.029 95.413C816.05 95.4764 816.072 95.5385 816.094 95.599C816.104 95.6284 816.114 95.6575 816.125 95.6861L816.138 95.7211L816.151 95.7554C816.231 95.9708 816.395 96.1465 816.56 96.3244C816.936 96.7286 817.324 97.1448 816.771 98.0668C815.974 99.3947 816.203 100.755 816.646 102.105C817.245 103.599 817.549 105.369 817.515 107.165C817.397 109.389 818.219 110.384 819.505 109.619C820.533 108.991 820.65 109.687 820.81 110.64L820.821 110.705C820.829 110.752 820.837 110.8 820.845 110.848C821.124 112.455 821.071 113.739 819.685 114.017C819.311 114.088 818.816 114.422 818.8 114.952C818.737 117.105 817.787 118.138 816.715 119.203C816.059 119.864 816.128 121.056 816.387 122.094C816.479 122.454 816.644 122.749 816.852 122.93C817.073 123.118 817.322 123.186 817.567 123.127C817.889 123.094 818.198 122.904 818.456 122.58C818.7 122.273 818.875 121.838 818.954 121.345C819.035 120.973 819.082 120.582 819.092 120.187C819.092 118.957 819.278 118.717 820.147 119.181C821.488 119.886 822.114 118.968 822.114 116.772C822.114 115.859 822.34 115.006 822.566 114.153C822.885 112.952 823.203 111.751 822.891 110.384C824.648 108.067 823.976 105.75 822.819 103.679C822.5 103.109 822.233 102.497 821.972 101.899C821.283 100.321 820.633 98.8336 819.193 98.4493C818.937 98.3783 818.537 98.116 818.767 97.7171C819.421 96.6199 819.338 95.3979 819.255 94.1738V94.1724C819.203 93.3972 819.15 92.6213 819.285 91.8756C819.294 91.8228 819.305 91.7668 819.317 91.7082C819.327 91.6577 819.339 91.6052 819.35 91.5511C819.362 91.4965 819.374 91.4404 819.387 91.383L819.388 91.3808L819.388 91.3779C819.579 90.5111 819.833 89.3556 819.2 89.1434C818.711 88.9798 818.6 89.6679 818.486 90.3782L818.486 90.3794L818.485 90.3847C818.42 90.7872 818.354 91.196 818.216 91.4604C818.143 91.5602 818.061 91.6412 817.974 91.7008C817.285 91.1106 816.853 90.4494 817.511 89.2254C817.628 89.012 817.714 88.7581 817.764 88.4822C817.814 88.2135 817.825 87.9289 817.797 87.6516C817.534 86.2965 818.193 85.9249 818.711 85.9467C820.023 86.0069 819.944 84.5697 819.619 83.761C818.984 82.1283 819.65 81.8857 820.281 81.6558L820.331 81.6376L820.388 81.6166L820.451 81.5925L820.495 81.5752C821.029 81.4105 821.576 81.3902 822.114 81.5151C823.097 81.7118 823.376 81.1107 823.615 79.7337C823.89 78.1319 824.411 76.6776 825.127 75.5152C825.879 74.2956 826.793 73.3894 827.795 72.8704C827.51 74.7954 827.028 76.6237 826.369 78.2747C825.405 80.3949 824.468 83.6899 825.677 86.8265C825.886 87.6488 825.969 88.5441 825.92 89.433C825.966 91.2254 827.081 91.5041 827.887 91.5259C828.825 91.5259 829.156 90.3675 828.831 89.0615C828.175 86.526 828.303 84.4331 830.07 83.0506C830.17 83.1012 830.257 83.2072 830.316 83.3511C830.369 83.4889 830.39 83.654 830.375 83.8156C830.375 83.8746 830.374 83.9345 830.372 83.9946L830.369 84.0675L830.365 84.1518C830.342 84.6965 830.32 85.2232 830.847 85.3183C831.443 85.4258 831.555 84.6846 831.656 84.0199L831.66 83.9955L831.665 83.9586L831.676 83.8867C831.876 82.597 832.04 81.3839 831.103 80.4113C830.885 80.1732 830.715 79.8327 830.614 79.4332C830.523 79.0446 830.509 78.6172 830.575 78.2146C830.962 75.7228 830.165 73.8977 829.103 71.9852C829.99 71.7214 830.846 71.2525 831.646 70.5988C829.295 68.9089 826.916 67.2421 824.51 65.5984Z" fill="#DEA206"/>
<path d="M841.808 78.1832C841.758 78.205 841.71 78.2318 841.662 78.2635C841.457 78.3936 841.28 78.6218 841.154 78.9192C841.023 79.2394 840.863 79.5597 840.701 79.8841L840.699 79.8865L840.698 79.8883C840.01 81.2623 839.283 82.7123 840.642 84.5585C840.753 84.784 840.834 85.0468 840.878 85.329C840.922 85.6054 840.929 85.8947 840.898 86.176C840.794 87.8678 841.078 89.4728 841.362 91.0746L841.362 91.076C841.587 92.3452 841.812 93.6124 841.842 94.919V94.9346L841.842 94.9673L841.841 94.9963L841.841 95.0382L841.84 95.0856V95.0904L841.838 95.1591C841.826 95.6889 841.811 96.337 842.252 96.2851C843.498 96.1544 843.496 97.0163 843.493 98.0856C843.492 98.6247 843.49 99.2166 843.648 99.7605L843.581 99.6995L843.481 99.6089L843.378 99.5141L843.288 99.4312L843.2 99.3499L843.112 99.2679L842.907 99.0763L842.904 99.0739L842.902 99.0716L842.9 99.0699C842.536 98.7294 842.279 98.489 842.009 98.2906C841.607 97.9944 841.377 98.5137 841.175 98.9695L841.144 99.0392C841.025 99.3043 840.948 99.6139 840.918 99.9409C840.891 100.262 840.912 100.588 840.98 100.892C841.059 101.22 841.308 101.482 841.458 101.116C841.826 100.187 841.839 100.154 842.095 101.263C842.317 102.195 842.409 103.198 842.363 104.198C842.316 105.204 842.132 106.179 841.826 107.05C841.36 108.536 841.216 110.244 841.419 111.886C841.638 113.561 842.18 115.07 842.963 116.181C843.619 117.165 846.599 117.82 847.32 117.121C847.563 116.89 847.593 116.558 847.625 116.217L847.625 116.213L847.625 116.21L847.626 116.207L847.626 116.204L847.626 116.201L847.63 116.163L847.639 116.066L847.642 116.042C847.645 116.014 847.648 115.987 847.652 115.96L847.658 115.921L847.661 115.895L847.663 115.884L847.667 115.859C848.421 111.91 848.559 107.708 848.071 103.646C847.831 102.006 847.69 100.476 848.428 99.0174C848.651 98.5748 848.782 97.8808 848.349 97.5693C848.029 97.3327 847.98 97.6205 847.925 97.9484C847.872 98.2644 847.812 98.6177 847.497 98.5747C847.497 97.6156 847.29 96.7219 847.084 95.8279C846.819 94.6849 846.555 93.5401 846.72 92.2524C846.775 91.8467 846.615 91.535 846.453 91.22L846.452 91.219L846.415 91.1475L846.4 91.1174L846.373 91.0619L846.354 91.0232L846.343 90.9995L846.333 90.9792L846.097 90.4489C844.858 87.6745 843.607 84.8743 843.527 81.34C843.503 80.6887 843.409 80.0499 843.248 79.4547C843.239 79.395 843.228 79.3362 843.215 79.2789C842.747 78.9126 842.278 78.5474 841.808 78.1832Z" fill="#DEA206"/>
<path d="M853.513 87.6656C853.665 88.0184 853.832 88.3656 854 88.7137L854.02 88.7555L854.081 88.8878L854.086 88.8987C854.397 89.571 854.721 90.2707 854.348 90.903C854.075 91.3228 853.894 91.8824 853.833 92.4931C853.78 93.0943 853.855 93.7075 854.046 94.2253C854.122 94.5254 854.131 94.8603 854.072 95.1707C854.017 95.4869 853.902 95.7649 853.745 95.963C852.545 97.9709 852.705 100.254 852.865 102.533C852.911 103.2 852.958 103.866 852.971 104.526C852.971 105.072 853.056 105.859 853.528 105.815C853.65 105.795 853.769 105.738 853.879 105.646C853.984 105.556 854.076 105.432 854.151 105.28C854.224 105.134 854.275 104.962 854.302 104.777C854.327 104.597 854.327 104.41 854.302 104.231C853.745 102.649 854.297 101.735 854.849 100.821C855.002 100.567 855.156 100.313 855.285 100.045C855.353 99.8993 855.404 99.7196 855.455 99.5388L855.456 99.5369C855.596 99.0398 855.739 98.5355 856.246 98.7116C856.787 98.8998 856.802 99.463 856.818 100.042V100.043C856.822 100.204 856.827 100.365 856.842 100.52L856.85 100.599L856.858 100.672L856.868 100.763L856.881 100.883L856.883 100.903C856.974 101.708 857.061 102.483 856.639 103.285C855.866 104.744 856.479 105.794 857.252 106.755C857.419 106.966 857.654 107.104 857.887 107.242C858.361 107.521 858.829 107.796 858.701 108.668C858.605 109.328 858.31 109.177 857.975 109.005C857.65 108.838 857.286 108.651 857.026 109.165C857.587 110.559 858.404 111.613 859.354 112.17C859.708 112.334 860.065 112.788 859.832 113.471C859.724 113.783 859.337 114.247 859.258 114.176C858.694 113.657 858.087 113.794 857.481 113.931C856.855 114.072 856.229 114.213 855.652 113.629C854.518 112.482 854.521 113.761 854.6 114.859C854.79 117.15 855.348 119.313 856.213 121.121C856.7 122.163 857.314 123.08 857.935 124.007L857.936 124.009L857.937 124.011C858.618 125.028 859.307 126.057 859.845 127.274C859.953 127.512 860.281 127.546 860.595 127.578L860.634 127.582L860.692 127.588L860.741 127.593C860.773 127.597 860.804 127.601 860.834 127.606C860.852 127.609 860.869 127.612 860.886 127.615C860.901 127.618 860.916 127.621 860.93 127.624C861.829 127.799 862.658 128.017 862.714 129.81C862.714 130.411 862.923 131.236 863.487 130.968C864.051 130.7 863.946 129.984 863.753 129.329L863.74 129.287L863.724 129.231L863.697 129.145L863.66 129.029C863.508 128.546 863.399 128.202 863.536 127.689L863.548 127.647L863.563 127.584L863.578 127.521C863.591 127.467 863.604 127.411 863.616 127.355L863.626 127.308L863.633 127.274L863.637 127.26L863.651 127.195L863.652 127.189L863.653 127.183L863.654 127.177L863.656 127.172L863.657 127.166L863.658 127.16L863.659 127.154L863.661 127.148C863.829 126.362 864.01 125.512 864.618 125.547C865.212 125.582 865.314 126.279 865.421 127.014L865.422 127.016C865.451 127.214 865.48 127.416 865.52 127.607C866.015 129.979 865.192 131.498 864.084 132.853L864.057 132.884C863.725 133.266 863.162 133.912 863.73 134.263C864.51 134.753 864.554 135.534 864.601 136.371L864.601 136.372L864.601 136.375C864.617 136.648 864.632 136.927 864.674 137.203C864.869 138.229 865.268 139.114 865.805 139.711C866.37 140.346 867.038 140.681 867.719 140.673H870.162C870.532 140.597 870.908 140.714 871.237 141.006C871.551 141.281 871.798 141.729 871.935 142.274C872.486 144.122 873.628 144.497 874.752 144.866C875.113 144.984 875.472 145.102 875.81 145.268C876.138 145.421 877.207 144.913 876.633 143.902C875.987 142.736 875.935 141.451 875.883 140.176V140.174C875.856 139.508 875.83 138.845 875.718 138.203C875.679 137.952 875.642 137.7 875.607 137.448L875.579 137.249L875.546 137.018L875.545 137.008C875.224 134.695 874.909 132.421 873.217 130.831C871.889 129.56 870.788 127.872 869.68 126.176C868.771 124.782 867.856 123.38 866.808 122.198C865.503 120.716 865.121 118.265 864.751 115.895L864.751 115.891L864.75 115.889L864.75 115.887C864.664 115.331 864.578 114.78 864.481 114.247C864.388 113.752 864.332 113.221 864.276 112.691C864.148 111.468 864.021 110.253 863.435 109.509C862.879 108.944 862.416 108.157 862.088 107.22C861.773 106.322 861.61 105.298 861.616 104.258C861.616 103.699 861.58 103.141 861.545 102.584L861.545 102.581V102.58C861.46 101.231 861.375 99.8921 861.793 98.5859C862.383 96.739 861.792 95.739 861.019 94.8264C860.684 94.4466 860.309 94.1759 859.914 94.0286C859.513 93.8756 859.099 93.8423 858.691 93.9303C857.942 94.0765 857.739 94.8741 857.487 95.8689C857.371 96.3234 857.245 96.8192 857.052 97.3127C857.084 95.861 856.81 94.4365 856.279 93.2855C856.199 93.1525 856.135 92.9945 856.092 92.8205C856.049 92.6466 856.026 92.4601 856.026 92.2718C856.026 92.0835 856.049 91.897 856.092 91.7231C856.135 91.5492 856.199 91.3912 856.279 91.2582C856.705 90.6134 857.121 90.7117 857.495 91.4931C857.766 92.0596 858.009 91.9857 858.217 91.7252C856.664 90.3597 855.096 89.0065 853.513 87.6656Z" fill="#DEA206"/>
<path d="M886.16 119.392C886.173 119.42 886.186 119.448 886.2 119.476C887.047 121.28 887.893 123.079 889.583 123.276C888.453 121.973 887.312 120.678 886.16 119.392Z" fill="#DEA206"/>
<path d="M890.455 124.285C890.623 125.116 891.052 125.721 891.482 126.326C892.029 127.099 892.578 127.872 892.589 129.116C892.573 129.3 892.585 129.487 892.622 129.662C892.659 129.84 892.72 130.002 892.799 130.138C892.883 130.279 892.983 130.391 893.094 130.466C893.206 130.544 893.326 130.585 893.448 130.586C893.664 130.596 893.879 130.513 894.071 130.345C894.253 130.183 894.406 129.939 894.51 129.641C894.558 129.521 894.6 129.388 894.635 129.245C893.258 127.578 891.865 125.924 890.455 124.285Z" fill="#DEA206"/>
<path d="M714.963 79.8996C714.204 78.433 713.591 76.8627 713.681 74.8048C713.737 73.6463 712.999 72.7447 712.042 72.7338C711.085 72.7229 710.327 73.5644 710.344 74.7338C710.344 76.0484 710.06 77.1133 709.643 78.0673C711.424 78.6611 713.197 79.2719 714.963 79.8996Z" fill="#DEA206"/>
<path d="M667.101 67.3482L667.101 62.8432C667.101 58.0017 666.18 56.7285 662.761 56.7285H656.49C653.211 56.7285 652.064 58.2695 652.051 62.8104L652.05 65.0822C657.118 65.7215 662.135 66.4768 667.101 67.3482Z" fill="#DEA206"/>
<path d="M637.665 63.5898C638.259 58.3941 638.925 53.209 639.604 48.0291C639.608 47.7355 639.653 47.4476 639.735 47.1876C639.818 46.9194 639.936 46.6845 640.079 46.4991C640.228 46.3056 640.398 46.1626 640.58 46.0784C640.767 45.9891 640.961 45.9594 641.154 45.9909C642.347 45.9777 643.528 45.5845 644.632 44.8325C645.206 44.4062 645.734 43.8598 645.167 42.7833C643.855 40.2861 644.114 39.3134 646.199 38.3298C646.512 38.1772 646.842 38.0711 647.178 37.9631C648.046 37.6843 648.951 37.3931 649.7 36.2588C649.255 35.9702 648.777 35.7576 648.306 35.5479L648.305 35.5475C646.885 34.9154 645.523 34.3092 645.262 31.7288C645.229 31.434 644.663 31.2069 644.196 31.0195C644.101 30.9811 644.009 30.9444 643.927 30.9091L635.404 27.3573C634.542 27.0075 633.978 26.7179 634.87 25.319C635.565 24.2261 634.581 19.9858 633.65 19.9475C631.324 19.878 631.325 17.7298 631.326 15.5941V15.4558C631.313 14.2387 631.309 13.0192 631.304 11.8011L631.304 11.766V11.7585C631.296 9.34354 631.287 6.92908 631.211 4.52692C631.211 4.36042 631.218 4.17182 631.226 3.97491V3.97264C631.263 2.97464 631.309 1.7346 630.513 1.7346C629.882 1.7346 629.945 2.75239 630.001 3.65274C630.019 3.92521 630.035 4.18712 630.031 4.4067C629.979 8.05694 629.946 11.7126 630.031 15.3355C630.031 17.2098 629.189 19.2371 628.428 19.3519C626.235 19.6743 624.74 20.3355 624.219 23.7234C624.188 23.9265 624.13 24.0961 624.078 24.2489C623.95 24.6265 623.857 24.9021 624.281 25.33C625.524 26.6032 624.724 27.1114 623.809 27.472C622.281 28.0774 620.745 28.6605 619.211 29.243L619.207 29.2443L619.204 29.2454C618.608 29.4717 618.012 29.698 617.417 29.9255C617.252 29.9916 617.083 30.0509 616.915 30.1103C615.814 30.4973 614.715 30.8839 614.735 33.1441C614.735 33.9629 614.105 34.261 613.597 34.5011L613.596 34.5018L613.503 34.5458L613.486 34.5539C613.217 34.7041 612.945 34.844 612.673 34.9842C612.233 35.211 611.791 35.4388 611.355 35.7123L611.33 35.7272L611.284 35.7535L611.282 35.7544L611.28 35.7554C611.017 35.9053 610.723 36.0728 610.759 36.5812C610.793 37.064 611.083 37.1532 611.351 37.2359L611.374 37.2429L611.409 37.2538C611.431 37.2607 611.452 37.2678 611.473 37.2752C611.948 37.4554 612.424 37.6274 612.901 37.7994L612.903 37.7999L612.904 37.8002C613.771 38.113 614.638 38.4259 615.492 38.7888C616.817 39.3517 617.322 41.2915 616.446 42.3462C615.135 43.909 615.991 44.4827 616.912 45.0784C617.895 45.7507 618.95 46.0852 620.013 46.062C620.251 45.9828 620.496 45.9828 620.734 46.062C620.97 46.1449 621.194 46.3086 621.39 46.5428C621.576 46.7647 621.73 47.0543 621.839 47.3898C621.945 47.7115 622.003 48.0717 622.006 48.439C622.226 50.3128 622.461 52.1853 622.696 54.0578L622.698 54.0761L622.699 54.0837C622.935 55.9648 623.172 57.846 623.393 59.7285C623.528 60.7307 623.659 61.7344 623.785 62.7395C624.562 62.7714 625.337 62.8059 626.112 62.8429C625.883 60.4168 625.655 57.9907 625.428 55.5644L625.445 55.5646C625.33 53.568 625.144 51.5846 624.888 49.6248C624.56 47.7723 625.216 47.3078 626.314 47.1002C627.555 46.9399 627.551 48.0621 627.547 49.1603L627.546 49.2562L627.546 49.2982L627.546 62.9145C629.27 63.004 630.989 63.1062 632.703 63.2209C632.731 62.3485 632.953 61.7309 633.716 61.6246C634.904 61.463 634.895 60.2877 634.887 59.1655L634.887 59.1632C634.886 59.0723 634.886 58.982 634.886 58.8924L634.886 58.8263L634.887 58.7333L634.888 58.6283V58.6109C634.897 57.4678 634.908 56.1526 633.598 56.0618C632.824 55.9908 632.7 55.2477 632.7 54.3897C632.7 53.8998 632.706 53.4098 632.712 52.9198V52.915C632.724 51.9366 632.737 50.9583 632.7 49.9799C632.585 48.0729 633.132 47.3461 634.552 47.3242L634.749 47.3241C637.301 47.322 637.394 47.3219 637.024 50.9308C636.616 55.1087 636.19 59.2876 635.618 63.4283C636.302 63.48 636.984 63.5341 637.665 63.5898Z" fill="#DEA206"/>
<path d="M528.259 72.463C528.174 72.2837 528.065 72.1191 527.922 71.9742C527.543 71.61 527.171 71.229 526.799 70.8487L526.798 70.8479C525.208 69.2207 523.619 67.5953 521.496 67.2366C518.399 66.7134 515.305 66.1343 512.213 65.5554C510.104 65.1607 507.997 64.7662 505.889 64.3896C503.339 63.9348 503.338 63.9736 503.287 67.5316L503.286 67.63C503.286 68.0082 503.32 68.4218 503.355 68.8409C503.453 70.0266 503.555 71.2565 502.896 71.854C501.723 72.8908 501.738 74.2602 501.755 75.6645V75.6698L501.755 75.6881L501.757 75.894C501.758 75.9826 501.758 76.0713 501.758 76.16L501.758 80.9639C510.459 77.7216 519.293 74.8794 528.259 72.463Z" fill="#DEA206"/>
<path d="M830.522 96.1326C830.315 95.1709 830.033 93.9468 829.26 94.6845C828.982 94.9656 828.631 95.1804 828.275 95.3981L828.274 95.3987C827.37 95.9511 826.435 96.5231 826.578 98.2473C826.778 100.652 827.191 103.204 829.011 104.362C829.033 104.376 829.055 104.391 829.078 104.407C829.09 104.415 829.102 104.424 829.114 104.433L829.139 104.452L829.173 104.478L829.231 104.524L829.235 104.527C829.483 104.724 829.727 104.919 829.787 104.51C829.993 103.606 830.339 102.811 830.685 102.018C831.123 101.014 831.559 100.014 831.702 98.8047C831.819 97.9193 831.464 97.5145 831.105 97.1067C830.864 96.8324 830.622 96.5567 830.522 96.1326Z" fill="#DEA206"/>
</svg>
