<svg width="32" height="25" viewBox="0 0 32 25" fill="none" xmlns="http://www.w3.org/2000/svg">
<path d="M30.2342 6.19839L17.124 0.943288C16.4096 0.656925 15.6388 0.656925 14.9249 0.943288L1.81416 6.19839C0.707779 6.64173 0.707779 8.55061 1.81416 8.99395L4.09978 9.91007C3.59829 10.7189 3.28997 11.7055 3.25942 12.786C2.80681 13.1245 2.48814 13.7352 2.48814 14.4643C2.48814 15.1253 2.75511 15.6815 3.13957 16.0371L1.93965 23.0815C1.83531 23.6941 2.19251 24.2754 2.67333 24.2754H5.3105C5.79179 24.2754 6.14899 23.6941 6.04465 23.0815L4.84473 16.0371C5.22919 15.6815 5.49615 15.1253 5.49615 14.4643C5.49615 13.7548 5.19206 13.1612 4.76013 12.8166C4.79585 11.8956 5.15681 11.0813 5.73257 10.565L14.9244 14.2497C15.3502 14.4201 16.1671 14.6329 17.1235 14.2497L30.2342 8.99457C31.3411 8.55061 31.3411 6.64234 30.2342 6.19839ZM17.5653 16.1254C16.2244 16.6626 15.0818 16.3658 14.4826 16.1254L7.66662 13.3936L7.00016 20.351C7.00016 22.5186 11.0403 24.2754 16.0242 24.2754C21.0081 24.2754 25.0482 22.5186 25.0482 20.351L24.3818 13.393L17.5653 16.1254Z" fill="#DEA206"/>
</svg>
