<svg width="269" height="206" viewBox="0 0 269 206" fill="none" xmlns="http://www.w3.org/2000/svg">
<path d="M246.454 24.0152C251.842 23.3416 255.738 23.0049 258.144 23.0049C261.415 23.0049 263.965 23.3416 265.793 24.0152L265.649 26.18C266.996 26.3725 268.006 26.613 268.68 26.9017C268.68 31.52 268.583 38.5438 268.391 47.9731C268.198 57.7871 268.102 65.1477 268.102 70.0547C268.102 82.6591 268.391 94.5418 268.968 105.703C263.58 106.28 257.951 106.569 252.082 106.569H247.175V103.682H244.289V93.5796C244.289 84.4391 244.241 77.5596 244.144 72.9412L244 52.4471C244 42.7293 244.289 33.2519 244.866 24.0152H246.454ZM246.165 25.4584C245.684 33.1557 245.443 42.2482 245.443 52.7358L245.588 72.5082C245.684 76.9342 245.732 83.5731 245.732 92.425V102.239H245.876C247.704 102.239 249.099 102.191 250.062 102.095C256.219 102.095 261.03 101.902 264.494 101.518C264.013 92.3769 263.772 81.312 263.772 68.3228C263.772 51.8698 263.965 37.4855 264.35 25.1698C262.81 24.6887 260.838 24.4481 258.432 24.4481C255.738 24.4481 251.794 24.7849 246.598 25.4584H246.165ZM249.484 130.96C248.426 130.96 247.801 129.998 247.608 128.073H246.598C245.828 128.073 245.299 127.688 245.01 126.919C244.818 126.245 244.722 125.139 244.722 123.599C244.722 121.579 244.866 119.366 245.155 116.96C245.251 115.998 245.347 114.843 245.443 113.496C245.539 112.149 245.588 110.562 245.588 108.734C247.704 107.772 250.158 107.29 252.948 107.29C254.295 107.29 256.412 107.387 259.298 107.579C262.185 107.772 264.446 107.868 266.082 107.868L265.937 110.754H268.968L268.824 119.991C268.631 124.802 268.535 128.458 268.535 130.96H266.082L263.195 130.815H260.309L249.484 130.96ZM257.711 126.486L263.195 126.63H264.205C264.205 123.936 264.302 119.799 264.494 114.218L264.638 109.311C263.484 109.311 261.656 109.215 259.154 109.022C256.46 108.83 254.439 108.734 253.092 108.734C250.398 108.734 248.378 109.022 247.031 109.6V109.744C247.031 111.091 246.983 112.438 246.886 113.785C246.79 115.036 246.694 116.239 246.598 117.393C246.309 119.991 246.165 122.348 246.165 124.465C246.165 125.908 246.309 126.63 246.598 126.63L257.422 126.486H257.711Z" fill="#182E35"/>
<path d="M232.805 30.2214C230.399 38.1112 227.561 45.8566 224.289 53.4577C221.018 60.9626 216.448 70.921 210.579 83.3329C205.383 94.2054 201.246 103.105 198.167 110.033C195.088 116.961 192.297 124.032 189.796 131.249C188.834 131.056 187.823 130.96 186.765 130.96L179.982 131.104C176.325 131.297 173.583 131.393 171.755 131.393H169.879C168.436 131.393 167.137 131.297 165.982 131.104L166.848 128.507C166.463 128.507 165.212 128.41 163.096 128.218C166.656 117.249 173.15 100.075 182.58 76.694C181.714 72.7491 180.511 68.9004 178.971 65.148C177.528 61.2993 175.7 56.8734 173.487 51.8701C170.889 45.6161 168.869 40.709 167.425 37.149C166.078 33.4928 164.924 29.596 163.962 25.4587C166.559 25.4587 169.061 25.3144 171.467 25.0257C172.332 24.9295 173.391 24.8333 174.642 24.7371C175.989 24.6409 177.528 24.5928 179.26 24.5928C183.878 24.5928 186.38 25.7955 186.765 28.2009C187.535 28.3933 188.353 28.682 189.218 29.0668C190.565 35.5133 193.211 43.6917 197.156 53.602C198.022 51.4853 199.658 46.7707 202.063 39.4582C202.448 38.2074 203.122 36.1387 204.084 33.2523C205.142 30.2695 206.056 27.9122 206.826 26.1803C209.809 25.4106 215.197 25.0257 222.99 25.0257C224.145 25.0257 226.454 25.1701 229.918 25.4587V27.3349C229.822 27.7198 229.726 27.9603 229.629 28.0566C231.169 28.249 232.227 28.3452 232.805 28.3452V30.2214ZM228.475 26.7576C226.935 26.5652 225.107 26.469 222.99 26.469C216.159 26.469 211.108 26.8057 207.836 27.4793C206.393 30.7506 204.806 35.1766 203.074 40.7571C201.919 44.2209 200.716 47.6366 199.466 51.0042C198.311 54.3718 197.204 56.9696 196.146 58.7977C194.318 54.8528 192.201 49.609 189.796 43.0663C187.487 36.5236 185.899 31.2317 185.033 27.1906C183.397 26.4209 181.136 26.036 178.25 26.036C176.807 26.036 175.556 26.0841 174.497 26.1803C173.439 26.2766 172.525 26.3728 171.755 26.469C169.735 26.7576 167.762 26.902 165.838 26.902C166.704 30.5582 167.858 34.3106 169.302 38.1593C170.745 41.9117 172.621 46.4339 174.93 51.7258C177.432 57.595 179.356 62.3096 180.703 65.8696C182.05 69.4296 183.157 73.0377 184.023 76.694V76.9826C179.212 88.9135 175.411 98.5351 172.621 105.848C169.831 113.064 167.329 120.088 165.116 126.919H165.405C165.694 127.015 166.271 127.063 167.137 127.063H168.869C170.504 127.063 172.862 126.967 175.941 126.775L182.435 126.63H184.311C185.177 126.63 185.755 126.678 186.043 126.775C188.449 119.655 191.143 112.727 194.126 105.992C197.108 99.2567 201.149 90.501 206.249 79.7248C211.637 68.6599 216.063 59.1345 219.527 51.1485C222.99 43.1625 225.973 35.0804 228.475 26.902V26.7576Z" fill="#182E35"/>
<path d="M152.207 110.177C152.399 113.064 152.496 115.277 152.496 116.816C152.496 121.435 151.918 126.053 150.764 130.671C146.53 130.671 140.18 130.768 131.713 130.96L112.951 131.104C104.387 131.104 96.4013 130.816 88.9927 130.238V127.496L86.1062 127.352C86.1062 122.349 86.0581 116.528 85.9619 109.889C85.8656 103.25 85.7694 98.1983 85.6732 94.7345C85.3846 84.3432 85.2402 73.9037 85.2402 63.4161C85.2402 51.2928 85.6251 38.7847 86.3948 25.8917C93.8997 25.5068 102.559 25.2182 112.373 25.0257C122.284 24.7371 130.462 24.5928 136.908 24.5928C144.51 24.5928 148.503 25.1701 148.887 26.3247C148.887 26.9982 149.032 27.5274 149.32 27.9122C149.705 28.2009 150.186 28.4414 150.764 28.6339C151.341 28.8263 151.678 29.0187 151.774 29.2112V29.0668C152.159 31.2798 152.351 33.8295 152.351 36.716C152.351 38.2555 152.255 40.5647 152.063 43.6436C151.87 46.915 151.774 49.4166 151.774 51.1485C146.867 52.3031 140.661 52.8804 133.156 52.8804H127.96L122.332 52.7361C119.349 52.7361 116.366 52.8804 113.384 53.169C113.384 54.6123 113.287 56.4885 113.095 58.7977L112.951 63.5604V64.8593L115.548 65.0037L121.177 64.8593C121.658 64.8593 124.064 65.0037 128.393 65.2923C128.49 65.581 128.586 66.0621 128.682 66.7356C128.778 67.3129 128.971 67.6977 129.259 67.8902C129.644 68.0826 130.318 68.1788 131.28 68.1788C131.761 70.6804 132.001 73.615 132.001 76.9826C132.001 79.9653 131.953 82.2264 131.857 83.7659L131.713 90.6935C128.826 91.4632 125.122 91.8481 120.6 91.8481C117.04 91.8481 114.875 91.9443 114.105 92.1367C113.817 93.5799 113.672 95.7929 113.672 98.7756C113.672 101.662 113.72 103.731 113.817 104.982C125.362 105.559 134.503 105.848 141.238 105.848C143.547 105.848 146.241 105.751 149.32 105.559V107.291L149.465 108.59C150.619 108.59 151.533 108.542 152.207 108.445V110.177ZM147.877 107.146C146.434 107.243 144.365 107.291 141.671 107.291C139.266 107.291 136.475 107.243 133.3 107.146C130.125 107.05 127.672 106.954 125.94 106.858C120.744 106.569 115.452 106.425 110.064 106.425L109.92 106.281C109.535 103.875 109.342 100.411 109.342 95.8891C109.342 92.8102 109.535 90.2605 109.92 88.2399C110.305 87.9513 111.171 87.7589 112.518 87.6626C113.865 87.5664 115.356 87.5183 116.992 87.5183C121.995 87.5183 125.459 87.2297 127.383 86.6524L127.527 74.0961C127.527 70.7286 127.383 68.2269 127.094 66.5912V66.4469C124.497 66.4469 122.524 66.3988 121.177 66.3026C115.885 66.3026 111.94 66.2064 109.342 66.0139L109.198 65.8696C108.813 64.4264 108.621 62.5983 108.621 60.3853C108.621 59.0383 108.717 57.1139 108.909 54.6123L109.054 48.9836L109.631 48.8393C111.363 48.6469 113.239 48.5507 115.26 48.5507C117.28 48.5507 118.627 48.5507 119.301 48.5507H130.702C137.726 48.5507 143.307 48.0696 147.444 47.1074V46.9631L147.588 40.1798C147.781 37.1009 147.877 34.7917 147.877 33.2523C147.877 31.0393 147.733 28.7782 147.444 26.469C147.444 26.1803 143.932 26.036 136.908 26.036C121.899 26.036 105.494 26.469 87.6937 27.3349C87.1164 36.6679 86.8278 48.2139 86.8278 61.9729C86.8278 69.0929 86.924 79.6767 87.1165 93.7243C87.4051 104.404 87.5494 115.181 87.5494 126.053C93.2262 126.534 100.202 126.775 108.477 126.775C112.614 126.775 119.012 126.678 127.672 126.486L146.723 126.342C147.685 122.589 148.166 118.5 148.166 114.074C148.166 112.535 148.07 110.322 147.877 107.435V107.146Z" fill="#182E35"/>
<path d="M68.063 130.094C64.4068 130.768 59.6441 131.104 53.7749 131.104C49.7338 131.104 46.7992 131.153 44.9711 131.249L44.5381 128.218C43.3835 128.218 42.5657 128.266 42.0846 128.362C41.4111 123.263 40.9781 115.902 40.7857 106.281C40.5933 99.2568 40.3527 94.0611 40.0641 90.6936C37.9473 90.5011 36.6484 90.4049 36.1673 90.4049C33.377 90.4049 30.8273 90.6455 28.5181 91.1265C28.4219 92.5698 28.3738 94.9271 28.3738 98.1984L28.5181 106.858C28.6143 108.782 28.6624 111.621 28.6624 115.373C28.6624 121.435 28.3257 126.149 27.6522 129.517C25.9203 130.575 23.563 131.104 20.5802 131.104C19.4256 131.104 17.6938 131.008 15.3846 130.816C13.0754 130.623 11.5359 130.527 10.7662 130.527C9.03427 130.527 7.25427 131.008 5.42616 131.97L5.13751 127.929C4.27156 128.122 3.40561 128.507 2.53966 129.084C1.96236 122.253 1.43317 109.744 0.952092 91.5595C0.47101 73.2784 0.230469 56.5848 0.230469 41.4789C0.230469 33.3005 0.278577 27.6718 0.374794 24.5929L2.53966 24.4485C3.88669 24.7372 5.18562 24.8815 6.43643 24.8815C7.39859 24.8815 9.03427 24.7853 11.3435 24.5929C14.0375 24.4004 16.1543 24.3042 17.6938 24.3042C18.8483 24.3042 19.8105 24.5448 20.5802 25.0258C21.35 25.4107 21.8792 26.2285 22.1678 27.4794C22.7451 27.5756 23.2262 27.6718 23.6111 27.768C24.0921 27.8642 24.477 27.9604 24.7657 28.0567C25.1505 31.4242 25.4392 36.3313 25.6316 42.7778C26.0165 51.9183 26.6419 58.7978 27.5078 63.4162H29.0954C32.0781 63.4162 34.7722 63.2238 37.1776 62.8389H38.1879C38.7652 55.9113 39.0538 49.0799 39.0538 42.3448C39.0538 34.8399 38.9095 29.1631 38.6208 25.3145C43.2392 23.9675 48.7717 23.2939 55.2182 23.2939H57.2387C58.7782 23.2939 60.1252 23.3902 61.2798 23.5826V26.3248C62.4344 26.3248 63.3966 26.3729 64.1663 26.4691L68.063 130.094ZM59.8366 24.8815C58.7782 24.7853 57.2387 24.7372 55.2182 24.7372C48.9641 24.7372 43.9127 25.3145 40.0641 26.4691C40.3527 32.2421 40.4971 37.5821 40.4971 42.4891C40.4971 49.5129 40.1603 56.7291 39.4868 64.1378H39.3424C35.9749 64.6189 32.6554 64.8594 29.384 64.8594C27.0749 64.8594 25.1986 64.667 23.7554 64.2821H23.6111C22.7451 59.76 22.1197 52.9286 21.7348 43.788C21.5424 37.0529 21.1575 31.2318 20.5802 26.3248C19.3294 25.9399 17.5975 25.7475 15.3846 25.7475L11.4878 25.8918L6.72508 26.1804L5.42616 26.3248C4.36778 26.3248 3.30939 26.1804 2.25101 25.8918L1.81804 26.0361C1.72182 29.115 1.67372 34.2626 1.67372 41.4789C1.67372 56.7773 1.86615 73.0859 2.25101 90.4049C2.7321 107.724 3.26129 119.799 3.83859 126.63C4.5121 126.246 5.57048 126.053 7.01373 126.053C8.16832 126.053 9.90022 126.149 12.2094 126.342C14.23 126.63 16.1543 126.775 17.9824 126.775C19.3294 126.775 20.3878 126.727 21.1575 126.63C22.0235 126.534 22.7932 126.246 23.4667 125.764C23.9478 122.397 24.1884 118.26 24.1884 113.353C24.1884 109.6 24.1403 106.762 24.044 104.837L23.8997 96.4665C23.8997 93.3876 24.044 90.2606 24.3327 87.0854C26.9305 86.4119 29.8651 86.0752 33.1365 86.0752C35.3495 86.0752 37.9954 86.3157 41.0743 86.7968L41.2187 86.9411C41.6998 90.886 42.0365 97.1401 42.2289 105.703C42.2289 114.555 42.6138 121.579 43.3835 126.775H43.5279C44.2976 126.679 45.6927 126.63 47.7133 126.63H52.909C57.3349 126.63 60.943 126.39 63.7333 125.909L59.8366 24.8815Z" fill="#182E35"/>
<path d="M236.881 176.779C238.728 176.866 240.633 176.88 242.596 176.822V176.909C242.654 177.833 242.668 178.8 242.64 179.81C242.611 180.791 242.481 181.715 242.25 182.581C239.306 182.552 236.304 182.595 233.244 182.711C230.213 182.797 227.298 182.725 224.498 182.494C224.498 179.983 224.469 177.501 224.411 175.047C224.354 172.565 224.31 170.097 224.281 167.643C224.253 165.19 224.253 162.736 224.281 160.283C224.31 157.829 224.397 155.361 224.541 152.879C225.667 152.821 226.879 152.778 228.178 152.749C229.506 152.691 230.834 152.648 232.162 152.619C233.489 152.59 234.774 152.561 236.015 152.533C237.256 152.504 238.353 152.489 239.306 152.489C240.258 152.489 241.023 152.504 241.6 152.533C242.178 152.561 242.466 152.59 242.466 152.619C242.611 153.629 242.64 154.654 242.553 155.693C242.495 156.732 242.466 157.757 242.466 158.767V158.811C241.543 159.013 240.605 159.143 239.652 159.2C238.728 159.229 237.79 159.244 236.838 159.244C235.885 159.215 234.933 159.2 233.98 159.2C233.027 159.2 232.075 159.244 231.122 159.33H230.993L230.949 159.374C230.978 160.211 230.935 161.077 230.819 161.971C230.733 162.837 230.79 163.66 230.993 164.439L231.036 164.483C231.902 164.54 232.782 164.569 233.677 164.569C234.572 164.569 235.467 164.584 236.361 164.613V164.656C236.506 165.637 236.549 166.619 236.491 167.6C236.434 168.581 236.419 169.606 236.448 170.674C236.015 170.79 235.524 170.862 234.976 170.891C234.427 170.891 233.893 170.891 233.374 170.891C232.883 170.891 232.436 170.905 232.032 170.934C231.628 170.963 231.353 171.035 231.209 171.15C231.065 171.988 231.007 172.926 231.036 173.965C231.094 175.004 231.151 175.87 231.209 176.563L231.252 176.606C233.157 176.606 235.034 176.664 236.881 176.779Z" fill="#182E35"/>
<path d="M216.878 160.759C216.993 163.443 216.979 166.171 216.835 168.942L216.705 182.754C216.272 182.696 215.796 182.667 215.276 182.667C214.756 182.667 214.237 182.667 213.717 182.667C213.198 182.667 212.693 182.682 212.202 182.711C211.74 182.711 211.336 182.711 210.989 182.711C210.932 181.469 210.888 180.127 210.86 178.684C210.86 177.241 210.845 175.768 210.816 174.268C210.816 172.767 210.773 171.294 210.686 169.851C210.629 168.408 210.528 167.08 210.383 165.868C210.181 166.185 209.95 166.69 209.691 167.383C209.431 168.047 209.171 168.74 208.911 169.462C208.651 170.183 208.406 170.818 208.175 171.367C207.944 171.915 207.771 172.189 207.656 172.189C207.511 172.189 207.338 172.045 207.136 171.756C206.963 171.439 206.775 171.049 206.573 170.587C206.4 170.125 206.212 169.635 206.01 169.115C205.808 168.596 205.635 168.119 205.491 167.686C205.346 167.253 205.217 166.893 205.101 166.604C205.014 166.315 204.971 166.171 204.971 166.171C204.74 168.884 204.654 171.626 204.711 174.397C204.798 177.168 204.928 179.896 205.101 182.581C204.177 182.725 203.167 182.783 202.07 182.754C200.973 182.725 199.963 182.711 199.039 182.711C198.982 182.711 198.938 182.667 198.91 182.581C198.881 182.465 198.852 182.191 198.823 181.758C198.794 181.325 198.765 180.676 198.736 179.81C198.736 178.915 198.736 177.746 198.736 176.302C198.736 174.859 198.736 173.07 198.736 170.934C198.765 168.798 198.78 166.257 198.78 163.313C198.808 160.369 198.837 156.934 198.866 153.008C199.241 152.893 199.674 152.821 200.165 152.792C200.656 152.763 201.161 152.763 201.681 152.792C202.2 152.792 202.72 152.806 203.239 152.835C203.759 152.835 204.264 152.821 204.755 152.792H204.798C205.058 153.081 205.318 153.528 205.577 154.134C205.837 154.712 206.082 155.332 206.313 155.996C206.544 156.66 206.761 157.295 206.963 157.901C207.194 158.507 207.425 158.984 207.656 159.33C207.742 159.417 207.829 159.46 207.915 159.46C208.002 159.489 208.132 159.214 208.305 158.637C208.507 158.06 208.709 157.396 208.911 156.645C209.142 155.866 209.387 155.101 209.647 154.351C209.936 153.6 210.21 153.052 210.47 152.705C210.672 152.734 211.033 152.734 211.552 152.705C212.101 152.677 212.678 152.648 213.284 152.619C213.919 152.59 214.554 152.576 215.189 152.576C215.853 152.547 216.416 152.532 216.878 152.532C216.762 155.303 216.762 158.045 216.878 160.759Z" fill="#182E35"/>
<path d="M189.281 154.438C190.118 155.189 190.709 156.069 191.056 157.079C191.258 157.512 191.402 157.96 191.489 158.421C191.604 158.854 191.691 159.302 191.749 159.764C191.806 160.485 191.835 161.207 191.835 161.928C191.864 162.621 191.864 163.328 191.835 164.05C191.749 165.58 191.72 167.066 191.749 168.51C191.777 169.953 191.734 171.425 191.619 172.926L191.489 174.355C191.431 175.365 191.272 176.39 191.013 177.429C190.753 178.439 190.363 179.363 189.844 180.2C189.353 180.893 188.703 181.456 187.895 181.889C187.116 182.293 186.279 182.61 185.384 182.841C184.576 183.072 183.753 183.216 182.916 183.274C182.108 183.332 181.285 183.332 180.448 183.274C179.842 183.216 179.25 183.13 178.673 183.014C178.124 182.928 177.59 182.769 177.071 182.538C176.58 182.307 176.133 182.018 175.729 181.672C175.324 181.297 174.993 180.821 174.733 180.243C174.329 179.522 174.054 178.757 173.91 177.949C173.795 177.111 173.722 176.274 173.694 175.437C173.607 173.186 173.506 170.934 173.391 168.683C173.304 166.403 173.333 164.122 173.477 161.842C173.506 160.543 173.665 159.244 173.953 157.945C174.271 156.617 174.877 155.448 175.772 154.438C176.061 154.149 176.392 153.89 176.768 153.659C177.72 153.197 178.745 152.865 179.842 152.663C180.968 152.432 182.079 152.345 183.176 152.403C184.301 152.461 185.384 152.663 186.423 153.009C187.491 153.327 188.444 153.803 189.281 154.438ZM186.423 169.722V167.644L186.336 164.7C186.336 164.671 186.308 164.382 186.25 163.834C186.221 163.256 186.192 162.722 186.163 162.232C186.105 161.423 185.875 160.687 185.47 160.023C185.095 159.36 184.576 158.869 183.912 158.551C183.334 158.32 182.743 158.277 182.137 158.421C181.53 158.566 180.996 158.811 180.535 159.157C179.524 159.937 178.846 160.933 178.5 162.145C178.269 163.242 178.124 164.396 178.067 165.609C178.038 166.821 178.052 168.033 178.11 169.246C178.254 170.256 178.355 171.295 178.413 172.363C178.471 173.402 178.644 174.398 178.933 175.351C179.221 175.928 179.64 176.375 180.188 176.693C180.737 177.01 181.328 177.198 181.963 177.256C182.598 177.285 183.233 177.198 183.868 176.996C184.504 176.765 185.038 176.404 185.47 175.914C185.73 175.567 185.918 175.293 186.033 175.091C186.149 174.86 186.221 174.615 186.25 174.355C186.279 174.095 186.279 173.792 186.25 173.446C186.25 173.07 186.279 172.58 186.336 171.973C186.365 171.396 186.38 170.891 186.38 170.458C186.409 170.025 186.423 169.78 186.423 169.722Z" fill="#182E35"/>
<path d="M164.297 152.099C164.846 152.099 165.337 152.114 165.769 152.143L166.939 182.451C166.448 182.537 165.914 182.595 165.337 182.624C164.788 182.653 164.24 182.667 163.691 182.667C163.172 182.667 162.652 182.667 162.133 182.667C161.642 182.667 161.223 182.682 160.877 182.711H160.834C160.689 181.758 160.588 180.777 160.531 179.766C160.502 178.727 160.473 177.703 160.444 176.692C160.444 175.682 160.429 174.672 160.401 173.661C160.372 172.651 160.3 171.684 160.184 170.761L160.141 170.717C159.304 170.573 158.467 170.501 157.63 170.501C156.793 170.501 155.955 170.602 155.118 170.804C155.032 171.814 154.988 172.81 154.988 173.791C155.017 174.773 155.046 175.754 155.075 176.736C155.104 177.717 155.104 178.684 155.075 179.637C155.075 180.56 155.003 181.484 154.859 182.408C154.512 182.61 154.05 182.711 153.473 182.711C152.896 182.711 152.318 182.682 151.741 182.624C151.164 182.566 150.615 182.523 150.096 182.494C149.605 182.465 149.23 182.523 148.97 182.667C148.912 181.859 148.84 180.762 148.754 179.377C148.696 177.962 148.638 176.389 148.58 174.657C148.523 172.897 148.465 171.035 148.407 169.072C148.378 167.109 148.35 165.146 148.321 163.184C148.292 161.192 148.277 159.287 148.277 157.468C148.306 155.621 148.335 153.961 148.364 152.489V152.446H148.407H148.494C148.927 152.532 149.374 152.561 149.836 152.532C150.327 152.504 150.803 152.475 151.265 152.446C151.756 152.417 152.232 152.402 152.694 152.402C153.156 152.402 153.588 152.46 153.993 152.576C154.252 154.567 154.382 156.501 154.382 158.378C154.382 160.254 154.555 162.116 154.902 163.963H154.945C155.667 164.136 156.446 164.194 157.283 164.136C158.12 164.049 158.9 163.977 159.621 163.92H159.665C159.838 161.928 159.924 160.066 159.924 158.334C159.953 156.602 159.924 154.697 159.838 152.619C160.184 152.504 160.603 152.402 161.093 152.316C161.613 152.229 162.147 152.172 162.695 152.143C163.244 152.085 163.778 152.071 164.297 152.099Z" fill="#182E35"/>
<path d="M139.159 165.522C139.361 166.359 139.52 167.023 139.635 167.514L142.883 182.668V182.711C142.017 182.884 141.064 182.942 140.025 182.884C138.986 182.856 138.004 182.74 137.081 182.538H137.037C136.864 182.076 136.691 181.528 136.518 180.893C136.373 180.258 136.215 179.608 136.042 178.944C135.897 178.28 135.738 177.645 135.565 177.039C135.392 176.433 135.204 175.913 135.002 175.481C134.627 175.423 134.339 175.394 134.136 175.394C133.934 175.394 133.747 175.394 133.574 175.394C133.429 175.394 133.256 175.408 133.054 175.437C132.881 175.437 132.635 175.437 132.318 175.437C132.116 175.899 131.943 176.447 131.798 177.083C131.683 177.689 131.553 178.338 131.409 179.031C131.293 179.695 131.163 180.344 131.019 180.979C130.875 181.614 130.673 182.177 130.413 182.668C130.384 182.668 130.355 182.682 130.326 182.711C130.326 182.711 130.312 182.711 130.283 182.711C130.052 182.769 129.475 182.769 128.551 182.711C127.627 182.653 126.184 182.639 124.221 182.668C124.192 182.668 124.164 182.653 124.135 182.625C124.192 182.423 124.294 181.86 124.438 180.936C124.582 180.012 124.784 178.814 125.044 177.342C125.304 175.87 125.607 174.182 125.953 172.277C126.329 170.343 126.761 168.293 127.252 166.128C127.743 163.963 128.277 161.712 128.854 159.374C129.431 157.036 130.067 154.712 130.759 152.403C130.961 152.374 131.178 152.36 131.409 152.36C131.64 152.36 131.943 152.36 132.318 152.36C132.693 152.36 133.169 152.36 133.747 152.36C134.353 152.331 135.132 152.273 136.085 152.187C136.171 152.562 136.301 153.139 136.475 153.918C136.677 154.669 136.879 155.535 137.081 156.516C137.312 157.469 137.543 158.494 137.773 159.59C138.033 160.687 138.279 161.741 138.51 162.751C138.74 163.761 138.957 164.685 139.159 165.522ZM133.574 170.371C134.122 170.343 134.67 170.328 135.219 170.328C134.93 167.846 134.67 165.912 134.44 164.526C134.237 163.141 134.05 162.203 133.877 161.712C133.732 161.221 133.574 161.12 133.4 161.409C133.256 161.669 133.112 162.217 132.967 163.054C132.852 163.891 132.708 164.945 132.534 166.215C132.39 167.485 132.217 168.856 132.015 170.328C132.506 170.357 133.025 170.371 133.574 170.371Z" fill="#182E35"/>
<path d="M117.898 182.841C117.696 182.898 117.35 182.927 116.859 182.927C116.282 182.927 115.618 182.884 114.867 182.797C114.117 182.74 113.453 182.711 112.876 182.711C111.923 180.575 110.971 178.511 110.018 176.519C109.094 174.499 108.3 172.565 107.637 170.717L107.204 169.419C107.088 169.101 106.973 168.812 106.857 168.553C106.771 168.264 106.698 168.12 106.641 168.12C106.612 168.12 106.569 168.466 106.511 169.159C106.482 169.852 106.453 170.732 106.424 171.8C106.395 172.868 106.367 174.051 106.338 175.35C106.338 176.649 106.338 177.905 106.338 179.117C106.338 179.781 106.338 180.431 106.338 181.066C106.338 181.672 106.352 182.22 106.381 182.711C106.063 182.797 105.746 182.855 105.428 182.884C105.111 182.913 104.793 182.927 104.476 182.927C103.783 182.927 103.076 182.884 102.354 182.797C101.662 182.711 100.983 182.668 100.319 182.668V179.637C100.319 176.895 100.29 174.282 100.233 171.8C100.204 169.318 100.189 166.72 100.189 164.006C100.189 162.015 100.218 160.052 100.276 158.118C100.334 156.155 100.435 154.25 100.579 152.403C100.868 152.345 101.171 152.302 101.488 152.273C101.835 152.244 102.181 152.23 102.528 152.23C102.701 152.23 102.989 152.244 103.393 152.273C103.798 152.273 104.202 152.302 104.606 152.359C105.01 152.388 105.356 152.432 105.645 152.489C105.962 152.547 106.121 152.605 106.121 152.662C106.323 153.182 106.511 153.615 106.684 153.961C106.857 154.308 107.016 154.64 107.16 154.957C107.334 155.275 107.507 155.636 107.68 156.04C107.882 156.415 108.113 156.906 108.373 157.512C108.43 157.656 108.56 157.93 108.762 158.334C108.964 158.739 109.195 159.215 109.455 159.763C109.715 160.283 109.989 160.846 110.278 161.452C110.566 162.029 110.826 162.563 111.057 163.054C111.317 163.516 111.533 163.92 111.707 164.266C111.88 164.584 111.981 164.742 112.01 164.742C112.096 164.685 112.168 164.396 112.226 163.877C112.284 163.357 112.313 162.852 112.313 162.361C112.313 161.207 112.284 160.139 112.226 159.157C112.197 158.147 112.183 157.122 112.183 156.083C112.183 155.477 112.183 154.871 112.183 154.264C112.212 153.629 112.241 152.951 112.269 152.23C113.251 152.056 114.29 151.97 115.387 151.97C116.455 151.97 117.407 152.056 118.244 152.23V166.171C118.273 167.384 118.288 168.61 118.288 169.852C118.288 171.093 118.288 172.334 118.288 173.575C118.288 174.412 118.273 175.22 118.244 176C118.244 176.779 118.244 177.573 118.244 178.381C118.244 178.958 118.244 179.536 118.244 180.113C118.273 180.69 118.288 181.268 118.288 181.845V182.711C118.23 182.74 118.1 182.783 117.898 182.841Z" fill="#182E35"/>
<path d="M59.6722 162.318C59.6722 162.635 59.6866 162.996 59.7155 163.4C59.8598 163.314 60.033 163.213 60.2351 163.097C60.466 162.982 60.6536 162.866 60.7979 162.751C61.4041 162.318 62.0824 161.972 62.8329 161.712C63.5834 161.452 64.3483 161.308 65.1277 161.279C65.9359 161.25 66.7152 161.337 67.4657 161.539C68.2162 161.741 68.8945 162.101 69.5007 162.621C69.645 162.765 69.7893 163.011 69.9337 163.357C70.078 163.271 70.2512 163.184 70.4532 163.097C70.6553 162.982 70.8285 162.866 70.9728 162.751C71.579 162.318 72.2573 161.972 73.0078 161.712C73.7583 161.452 74.5232 161.308 75.3025 161.279C76.1108 161.25 76.8901 161.337 77.6406 161.539C78.3911 161.741 79.0694 162.101 79.6756 162.621C79.9642 162.881 80.1807 163.429 80.325 164.266C80.4982 165.075 80.5993 166.056 80.6281 167.211C80.6859 168.365 80.7003 169.635 80.6714 171.021C80.6714 172.377 80.657 173.763 80.6281 175.177C80.5993 176.563 80.5704 177.905 80.5415 179.204C80.5127 180.503 80.5271 181.643 80.5848 182.624C79.5746 182.769 78.6653 182.827 77.8571 182.798C77.0777 182.798 76.1829 182.798 75.1727 182.798C75.1149 182.134 75.0861 181.383 75.0861 180.546C75.0861 179.709 75.0861 178.843 75.0861 177.948C75.1149 177.054 75.1149 176.159 75.0861 175.264C75.0861 174.369 75.0572 173.532 74.9995 172.753C74.9706 172.406 74.9417 172.031 74.9129 171.627C74.884 171.194 74.8263 170.775 74.7397 170.371C74.6819 169.967 74.5809 169.606 74.4366 169.289C74.3211 168.971 74.1479 168.726 73.917 168.553C73.8882 168.524 73.8593 168.509 73.8304 168.509C73.8016 168.509 73.7727 168.495 73.7438 168.466C73.5706 168.38 73.3542 168.307 73.0944 168.25C72.8346 168.192 72.5459 168.163 72.2284 168.163C71.9398 168.163 71.6367 168.221 71.3192 168.336C71.0305 168.423 70.7563 168.567 70.4965 168.769C70.5254 169.895 70.5254 171.093 70.4965 172.363C70.4677 173.604 70.4388 174.845 70.4099 176.087C70.3811 177.299 70.3522 178.482 70.3233 179.637C70.3233 180.763 70.3522 181.759 70.4099 182.624C69.3997 182.769 68.4904 182.827 67.6822 182.798C66.9028 182.798 66.008 182.798 64.9978 182.798C64.94 182.134 64.9112 181.383 64.9112 180.546C64.9112 179.709 64.9112 178.843 64.9112 177.948C64.94 177.054 64.94 176.159 64.9112 175.264C64.9112 174.369 64.8823 173.532 64.8246 172.753C64.7957 172.406 64.7668 172.031 64.738 171.627C64.7091 171.194 64.6514 170.775 64.5648 170.371C64.5071 169.967 64.406 169.606 64.2617 169.289C64.1462 168.971 63.9731 168.726 63.7421 168.553C63.7133 168.524 63.6844 168.509 63.6555 168.509C63.6267 168.509 63.5978 168.495 63.569 168.466C63.338 168.351 62.9917 168.264 62.5298 168.206C62.0968 168.12 61.6639 168.149 61.2309 168.293C60.7979 168.408 60.4082 168.668 60.0619 169.072C59.7155 169.448 59.5134 170.025 59.4557 170.804C59.398 171.815 59.3835 172.81 59.4124 173.792C59.4413 174.744 59.4701 175.711 59.499 176.693C59.5567 177.645 59.5856 178.598 59.5856 179.55C59.5856 180.503 59.5279 181.455 59.4124 182.408V182.581C58.9217 182.725 58.4887 182.812 58.1135 182.841C57.7671 182.87 57.4063 182.87 57.031 182.841C56.6558 182.841 56.2373 182.827 55.7754 182.798C55.3136 182.769 54.7363 182.783 54.0435 182.841C54.0435 179.291 54.0002 175.74 53.9136 172.19C53.8559 168.639 53.8848 164.959 54.0002 161.149C54.3466 161.178 54.6353 161.207 54.8662 161.236C55.0971 161.236 55.3136 161.236 55.5156 161.236C55.7177 161.236 55.9342 161.236 56.1651 161.236C56.396 161.207 56.6847 161.178 57.031 161.149C57.1465 161.149 57.3486 161.135 57.6372 161.106C57.9259 161.048 58.2145 161.005 58.5032 160.976C58.7918 160.947 59.0516 160.947 59.2825 160.976C59.5134 160.976 59.6289 161.019 59.6289 161.106C59.6866 161.596 59.701 162 59.6722 162.318Z" fill="#182E35"/>
<path d="M45.5869 162.534C45.5869 162.534 45.5725 162.563 45.5436 162.621H45.5003C45.3849 162.621 45.0818 162.649 44.5911 162.707C44.1004 162.765 43.5808 162.823 43.0324 162.88C42.484 162.909 41.9788 162.924 41.517 162.924C41.084 162.924 40.8531 162.851 40.8242 162.707C40.9108 162.39 41.0263 161.928 41.1706 161.322C41.3438 160.715 41.517 160.037 41.6902 159.287C41.8922 158.536 42.0943 157.771 42.2963 156.992C42.4984 156.184 42.686 155.448 42.8592 154.784C43.0613 154.091 43.22 153.499 43.3355 153.009C43.4798 152.518 43.5664 152.2 43.5953 152.056C43.5953 152.056 43.7829 152.056 44.1581 152.056C44.5622 152.056 45.0385 152.056 45.5869 152.056C46.1354 152.027 46.6838 152.013 47.2322 152.013C47.7807 152.013 48.1992 152.013 48.4879 152.013V152.056C48.1415 153.355 47.8528 154.452 47.6219 155.347C47.4199 156.213 47.2178 157.021 47.0157 157.771C46.8137 158.493 46.6116 159.214 46.4096 159.936C46.2075 160.658 45.9333 161.524 45.5869 162.534Z" fill="#182E35"/>
<path d="M30.4869 152.273C31.1797 152.302 32.1755 152.302 33.4745 152.273H34.5136V152.446C34.5136 154.928 34.4703 157.425 34.3837 159.937C34.326 162.448 34.2682 164.973 34.2105 167.514C34.1816 170.025 34.1816 172.536 34.2105 175.047C34.2394 177.559 34.326 180.041 34.4703 182.494C34.2394 182.725 33.7487 182.855 32.9982 182.884C32.2766 182.942 31.4828 182.956 30.6168 182.927C29.7797 182.899 28.9715 182.855 28.1922 182.798C27.4128 182.769 26.8788 182.798 26.5902 182.884C26.7922 180.286 26.8788 177.674 26.85 175.047C26.8211 172.421 26.7634 169.823 26.6768 167.254C26.619 164.656 26.5757 162.101 26.5469 159.59C26.5469 157.05 26.6768 154.568 26.9366 152.143V152.056C27.0809 152.028 27.3551 152.042 27.7592 152.1C28.1922 152.129 28.5097 152.143 28.7117 152.143C29.2313 152.172 29.823 152.215 30.4869 152.273Z" fill="#182E35"/>
</svg>
