<svg width="31" height="25" viewBox="0 0 31 25" fill="none" xmlns="http://www.w3.org/2000/svg">
<path d="M15.3785 6.83721L5.75167 14.8193V23.4344C5.75167 23.6574 5.83968 23.8714 5.99636 24.0291C6.15303 24.1868 6.36553 24.2754 6.5871 24.2754L12.4383 24.2602C12.6591 24.2591 12.8705 24.17 13.0263 24.0124C13.1821 23.8548 13.2695 23.6415 13.2695 23.4191V18.3881C13.2695 18.165 13.3575 17.9511 13.5142 17.7933C13.6709 17.6356 13.8834 17.547 14.105 17.547H17.4467C17.6683 17.547 17.8808 17.6356 18.0374 17.7933C18.1941 17.9511 18.2821 18.165 18.2821 18.3881V23.4155C18.2818 23.5261 18.3031 23.6358 18.345 23.7381C18.3868 23.8405 18.4483 23.9335 18.5259 24.0119C18.6035 24.0903 18.6957 24.1524 18.7973 24.1949C18.8988 24.2373 19.0076 24.2591 19.1176 24.2591L24.9666 24.2754C25.1882 24.2754 25.4007 24.1868 25.5574 24.0291C25.7141 23.8714 25.8021 23.6574 25.8021 23.4344V14.8136L16.1774 6.83721C16.0642 6.74539 15.9232 6.69532 15.7779 6.69532C15.6326 6.69532 15.4916 6.74539 15.3785 6.83721ZM30.5849 12.2625L26.2198 8.64022V1.35931C26.2198 1.19201 26.1538 1.03157 26.0363 0.91327C25.9188 0.794974 25.7594 0.728516 25.5932 0.728516H22.6692C22.503 0.728516 22.3436 0.794974 22.2261 0.91327C22.1086 1.03157 22.0426 1.19201 22.0426 1.35931V5.17612L17.3678 1.30411C16.9192 0.932461 16.3563 0.729259 15.7753 0.729259C15.1943 0.729259 14.6314 0.932461 14.1828 1.30411L0.965675 12.2625C0.902228 12.3153 0.849735 12.3802 0.811197 12.4534C0.772658 12.5266 0.748829 12.6068 0.741071 12.6893C0.733312 12.7718 0.741777 12.855 0.765981 12.9342C0.790185 13.0134 0.829653 13.0871 0.882132 13.1509L2.2136 14.7805C2.26594 14.8445 2.33031 14.8976 2.40304 14.9365C2.47576 14.9755 2.55541 14.9997 2.63743 15.0077C2.71944 15.0156 2.80221 15.0072 2.88099 14.9829C2.95977 14.9586 3.03303 14.919 3.09655 14.8661L15.3785 4.682C15.4916 4.59018 15.6326 4.54011 15.7779 4.54011C15.9232 4.54011 16.0642 4.59018 16.1774 4.682L28.4598 14.8661C28.5232 14.919 28.5964 14.9587 28.675 14.9831C28.7537 15.0074 28.8364 15.016 28.9183 15.0081C29.0003 15.0003 29.0799 14.9763 29.1526 14.9375C29.2254 14.8987 29.2898 14.8459 29.3422 14.782L30.6737 13.1525C30.7261 13.0883 30.7654 13.0143 30.7893 12.9347C30.8133 12.8552 30.8213 12.7716 30.8131 12.6889C30.8048 12.6062 30.7804 12.526 30.7413 12.4528C30.7021 12.3796 30.649 12.315 30.5849 12.2625Z" fill="#DEA206"/>
</svg>
