<svg width="31" height="25" viewBox="0 0 31 25" fill="none" xmlns="http://www.w3.org/2000/svg">
<path d="M8.85692 21.3321C7.52013 21.3321 6.18333 20.3019 5.51493 19.8604C2.17295 17.8 1.17035 17.0642 0.501953 16.6227V22.8038C0.501953 23.6164 1.25024 24.2754 2.17295 24.2754H15.5409C16.4636 24.2754 17.2119 23.6164 17.2119 22.8038V16.6227C16.5435 17.0642 15.5409 17.8 12.1989 19.8604C11.5305 20.3019 10.1937 21.3321 8.85692 21.3321ZM15.5409 12.502H2.17295C1.25024 12.502 0.501953 13.161 0.501953 13.9737V14.7095C1.83875 15.5925 1.67165 15.5925 6.51753 18.683C7.01883 18.9774 8.02142 19.8604 8.85692 19.8604C9.69242 19.8604 10.695 18.9774 11.1963 18.8302C16.0422 15.7397 15.8751 15.7397 17.2119 14.8567V13.9737C17.2119 13.161 16.4636 12.502 15.5409 12.502ZM28.9088 8.08693H12.1989C11.2762 8.08693 10.5279 8.74597 10.5279 9.55861V11.0303H15.5409C17.2751 11.0303 18.7048 12.1994 18.8677 13.6894L18.8829 13.6793V19.8604H28.9088C29.8315 19.8604 30.5798 19.2014 30.5798 18.3887V9.55861C30.5798 8.74597 29.8315 8.08693 28.9088 8.08693ZM27.2378 13.9737H23.8959V11.0303H27.2378V13.9737ZM8.85692 9.55861C8.85692 7.93562 10.3561 6.61525 12.1989 6.61525H23.8959V2.2002C23.8959 1.38755 23.1476 0.728516 22.2249 0.728516H5.51493C4.59223 0.728516 3.84394 1.38755 3.84394 2.2002V11.0303H8.85692V9.55861Z" fill="#DEA206"/>
</svg>
