<svg width="31" height="29" viewBox="0 0 31 29" fill="none" xmlns="http://www.w3.org/2000/svg">
<path d="M8.63968 1.21177C7.97581 0.221958 6.45421 -0.0560789 5.46723 0.689061C2.20666 3.15247 0.132812 6.82812 0.132812 10.9431H15.1726L8.63968 1.21177ZM29.2724 5.60476H26.4524C24.3786 5.60476 22.6925 7.20069 22.6925 9.16363V12.7225H0.132812C0.132812 15.5362 1.48404 18.0831 3.67538 19.9904C1.64266 20.4853 0.132812 22.2147 0.132812 24.2889C0.132812 26.7467 2.23603 28.7374 4.83274 28.7374C7.42945 28.7374 9.53266 26.7467 9.53266 24.2889C9.53266 23.7939 9.42692 23.3324 9.27417 22.8875C10.5431 23.2156 11.8944 23.3991 13.2926 23.3991C14.6908 23.3991 16.0479 23.2156 17.311 22.8875C17.1524 23.3324 17.0525 23.7939 17.0525 24.2889C17.0525 26.7467 19.1558 28.7374 21.7525 28.7374C24.3492 28.7374 26.4524 26.7467 26.4524 24.2889C26.4524 22.2147 24.9425 20.4853 22.9098 19.9904C25.1012 18.0831 26.4524 15.5362 26.4524 12.7225V9.16363H29.2724C29.7893 9.16363 30.2123 8.76326 30.2123 8.27391V6.49448C30.2123 6.00513 29.7893 5.60476 29.2724 5.60476ZM4.83274 26.0683C3.79875 26.0683 2.95277 25.2675 2.95277 24.2889C2.95277 23.3102 3.79875 22.5094 4.83274 22.5094C5.86672 22.5094 6.71271 23.3102 6.71271 24.2889C6.71271 25.2675 5.86672 26.0683 4.83274 26.0683ZM23.6324 24.2889C23.6324 25.2675 22.7865 26.0683 21.7525 26.0683C20.7185 26.0683 19.8725 25.2675 19.8725 24.2889C19.8725 23.3102 20.7185 22.5094 21.7525 22.5094C22.7865 22.5094 23.6324 23.3102 23.6324 24.2889Z" fill="#DEA206"/>
</svg>
