<svg width="80" height="80" viewBox="0 0 80 80" fill="none" xmlns="http://www.w3.org/2000/svg">
<path d="M14.2502 0.387695H65.4736C73.2397 0.387695 79.5188 6.84298 79.5188 14.8272V65.4502C79.5188 73.4344 73.2397 79.8897 65.4736 79.8897H14.2502C6.48408 79.8897 0.205078 73.4344 0.205078 65.4502V14.8272C0.205078 6.84298 6.48408 0.387695 14.2502 0.387695Z" fill="#FCAB4D"/>
<path d="M18.0527 56.1484V21.1879C18.0527 20.9501 18.1519 20.8142 18.3832 20.8142C18.945 20.8142 19.4738 20.8142 20.2339 20.7802C21.027 20.7463 21.8532 20.7463 22.7455 20.7123C23.6377 20.6783 24.5961 20.6783 25.6206 20.6443C26.645 20.6104 27.6365 20.6104 28.6279 20.6104C31.3378 20.6104 33.585 20.9501 35.4356 21.6636C37.088 22.2412 38.6082 23.1925 39.864 24.4495C40.9215 25.5368 41.7477 26.8618 42.2764 28.3227C42.7722 29.7497 43.0365 31.2106 43.0365 32.7395C43.0365 35.6614 42.3756 38.0736 41.0537 39.9762C39.7318 41.8788 37.8811 43.3058 35.7331 44.1212C33.4859 44.9706 31.0073 45.2763 28.2974 45.2763C27.5043 45.2763 26.9755 45.2763 26.645 45.2424C26.3146 45.2084 25.8519 45.2084 25.224 45.2084V56.1144C25.2571 56.3523 25.0918 56.5561 24.8605 56.5901C24.8274 56.5901 24.7944 56.5901 24.7283 56.5901H18.4493C18.1849 56.5901 18.0527 56.4542 18.0527 56.1484ZM25.2571 27.3714V38.7871C25.7197 38.8211 26.1493 38.855 26.5459 38.855H28.2974C29.5863 38.855 30.8751 38.6512 32.0979 38.2435C33.1554 37.9377 34.0807 37.2922 34.8077 36.4428C35.5017 35.5934 35.8322 34.4383 35.8322 32.9433C35.8653 31.8901 35.6009 30.8369 35.0721 29.9196C34.5103 29.0362 33.7172 28.3567 32.7588 27.983C31.5361 27.4733 30.2142 27.2695 28.8592 27.3035C28 27.3035 27.2399 27.3035 26.612 27.3374C25.9511 27.3035 25.4884 27.3374 25.2571 27.3714Z" fill="#FFF191"/>
<path d="M63.6581 36.7126C62.6666 36.169 61.6091 35.7952 60.4855 35.5574C59.2628 35.2856 58.04 35.1157 56.7842 35.1157C56.1233 35.0818 55.4293 35.1837 54.8014 35.3536C54.3717 35.4555 54.0082 35.6933 53.7769 36.0331C53.6117 36.3049 53.5125 36.6446 53.5125 36.9504C53.5125 37.2562 53.6447 37.562 53.843 37.8338C54.1404 38.2075 54.537 38.5133 54.9666 38.7511C55.7267 39.1588 56.5198 39.5325 57.313 39.8723C59.0975 40.4838 60.816 41.3332 62.4023 42.3525C63.4928 43.0659 64.3851 44.0172 65.013 45.1724C65.5418 46.2596 65.8061 47.4487 65.7731 48.6718C65.8061 50.2687 65.3435 51.8655 64.4842 53.1905C63.5589 54.5496 62.2701 55.6028 60.7829 56.2143C59.1636 56.9278 57.1808 57.3015 54.8014 57.3015C53.2812 57.3015 51.7941 57.1656 50.3069 56.8599C49.1503 56.656 47.9936 56.2823 46.9361 55.7727C46.7048 55.6368 46.5395 55.3989 46.5726 55.1271V49.2154C46.5726 49.1135 46.6056 48.9776 46.7048 48.9097C46.8039 48.8417 46.903 48.8757 47.0022 48.9436C48.291 49.7251 49.646 50.2687 51.1001 50.6084C52.3559 50.9482 53.6778 51.1181 54.9996 51.1181C56.2554 51.1181 57.1477 50.9482 57.7426 50.6424C58.2713 50.4046 58.6349 49.827 58.6349 49.2154C58.6349 48.7398 58.3705 48.2981 57.8417 47.8564C57.313 47.4148 56.2224 46.9051 54.6031 46.2596C52.9177 45.6481 51.3644 44.8326 49.9104 43.8134C48.8859 43.0659 48.0267 42.0807 47.3988 40.9255C46.87 39.8383 46.6056 38.6492 46.6387 37.46C46.6387 35.9991 47.0352 34.6061 47.7623 33.349C48.5885 31.99 49.8112 30.9028 51.2322 30.2233C52.7855 29.4079 54.7353 29.0342 57.0816 29.0342C58.4366 29.0342 59.8246 29.1361 61.1795 29.34C62.1709 29.4759 63.1293 29.7477 64.0216 30.1214C64.1538 30.1554 64.286 30.2913 64.3521 30.4272C64.3851 30.5631 64.4181 30.699 64.4181 30.8349V36.3728C64.4181 36.5087 64.352 36.6446 64.2529 36.7126C63.9555 36.7805 63.7902 36.7805 63.6581 36.7126Z" fill="#FFF191"/>
</svg>
