<svg width="80" height="80" viewBox="0 0 80 80" xmlns="http://www.w3.org/2000/svg">
<path class = "one" d="M0.0625 8.87865C0.0625 4.18923 3.86403 0.387695 8.55345 0.387695H70.8855C75.5749 0.387695 79.3765 4.18922 79.3765 8.87865V71.3987C79.3765 76.0881 75.5749 79.8897 70.8855 79.8897H8.55345C3.86403 79.8897 0.0625 76.0881 0.0625 71.3987V8.87865Z" fill="red"/>
<path class = "two" d="M26.4882 45.9126L23.6401 57.0577C23.568 57.3549 23.4598 57.4292 23.0993 57.4292H17.7997C17.4392 57.4292 17.3671 57.3178 17.4392 56.872L27.6779 19.9444C27.8582 19.2757 27.9663 18.6813 28.0384 16.8609C28.0384 16.6009 28.1466 16.4894 28.3268 16.4894H35.8977C36.1501 16.4894 36.2582 16.5637 36.3303 16.8609L47.7948 56.9463C47.8669 57.2435 47.7948 57.4292 47.5064 57.4292H41.5218C41.2334 57.4292 41.0531 57.3549 40.981 57.0949L37.9887 45.9126H26.4882ZM36.5106 39.8942C35.5011 35.7705 33.1217 26.7801 32.2204 22.4335H32.1483C31.3912 26.7801 29.4805 34.1359 27.9663 39.8942H36.5106ZM52.7339 19.2386C52.7339 16.8609 54.3562 15.4492 56.4112 15.4492C58.6103 15.4492 60.0885 16.9724 60.0885 19.2386C60.0885 21.6905 58.5382 23.0279 56.3391 23.0279C54.2481 23.0279 52.7339 21.6905 52.7339 19.2386ZM53.1665 27.6717C53.1665 27.3745 53.2747 27.2259 53.5991 27.2259H59.2593C59.5477 27.2259 59.6919 27.3374 59.6919 27.6717V56.9834C59.6919 57.2806 59.6198 57.4292 59.2593 57.4292H53.6712C53.3107 57.4292 53.2026 57.2435 53.2026 56.9463V27.6717H53.1665Z" fill="purple"/>
</svg>
