<svg width="31" height="30" viewBox="0 0 31 30" fill="none" xmlns="http://www.w3.org/2000/svg">
<path d="M8.81155 1.48618C8.14769 0.496372 6.62609 0.218335 5.6391 0.963475C2.37853 3.42688 0.304688 7.10253 0.304688 11.2175H15.3445L8.81155 1.48618ZM29.4442 5.87917H26.6243C24.5504 5.87917 22.8643 7.4751 22.8643 9.43805V12.9969H0.304688C0.304688 15.8107 1.65592 18.3575 3.84726 20.2648C1.81454 20.7597 0.304688 22.4891 0.304688 24.5633C0.304688 27.0211 2.4079 29.0119 5.00461 29.0119C7.60132 29.0119 9.70454 27.0211 9.70454 24.5633C9.70454 24.0684 9.59879 23.6068 9.44604 23.162C10.715 23.49 12.0663 23.6735 13.4645 23.6735C14.8627 23.6735 16.2198 23.49 17.4829 23.162C17.3243 23.6068 17.2244 24.0684 17.2244 24.5633C17.2244 27.0211 19.3276 29.0119 21.9243 29.0119C24.5211 29.0119 26.6243 27.0211 26.6243 24.5633C26.6243 22.4891 25.1144 20.7597 23.0817 20.2648C25.273 18.3575 26.6243 15.8107 26.6243 12.9969V9.43805H29.4442C29.9612 9.43805 30.3842 9.03767 30.3842 8.54833V6.76889C30.3842 6.27954 29.9612 5.87917 29.4442 5.87917ZM5.00461 26.3427C3.97063 26.3427 3.12464 25.542 3.12464 24.5633C3.12464 23.5846 3.97063 22.7838 5.00461 22.7838C6.0386 22.7838 6.88458 23.5846 6.88458 24.5633C6.88458 25.542 6.0386 26.3427 5.00461 26.3427ZM23.8043 24.5633C23.8043 25.542 22.9583 26.3427 21.9243 26.3427C20.8904 26.3427 20.0444 25.542 20.0444 24.5633C20.0444 23.5846 20.8904 22.7838 21.9243 22.7838C22.9583 22.7838 23.8043 23.5846 23.8043 24.5633Z" fill="#FCAB4D"/>
</svg>
