<svg width="32" height="32" viewBox="0 0 32 32" fill="none" xmlns="http://www.w3.org/2000/svg">
<path d="M9.05 1.06338C8.34375 -0.0490778 6.72501 -0.361568 5.675 0.475907C2.20625 3.24457 0 7.37569 0 12.0006H16.0001L9.05 1.06338ZM31 6.00074H28C25.7937 6.00074 24 7.79443 24 10.0006V14.0005H0C0 17.163 1.4375 20.0253 3.76875 22.169C1.60625 22.7252 0 24.6689 0 27.0001C0 29.7625 2.2375 32 5 32C7.7625 32 10 29.7625 10 27.0001C10 26.4439 9.8875 25.9251 9.725 25.4252C11.075 25.7938 12.5126 26.0001 14 26.0001C15.4875 26.0001 16.9312 25.7938 18.275 25.4252C18.1063 25.9251 18 26.4439 18 27.0001C18 29.7625 20.2375 32 23 32C25.7626 32 28 29.7625 28 27.0001C28 24.6689 26.3937 22.7252 24.2313 22.169C26.5625 20.0253 28 17.163 28 14.0005V10.0006H31C31.55 10.0006 32 9.55063 32 9.00065V7.00071C32 6.45072 31.55 6.00074 31 6.00074ZM5 29C3.9 29 3 28.1001 3 27.0001C3 25.9002 3.9 25.0001 5 25.0001C6.10001 25.0001 7 25.9002 7 27.0001C7 28.1001 6.10001 29 5 29ZM25 27.0001C25 28.1001 24.1 29 23 29C21.9 29 21 28.1001 21 27.0001C21 25.9002 21.9 25.0001 23 25.0001C24.1 25.0001 25 25.9002 25 27.0001Z" fill="#FFD170"/>
</svg>
