<svg width="80" height="80" viewBox="0 0 80 80" fill="none" xmlns="http://www.w3.org/2000/svg">
<path d="M7.60164 71.9424L0.40625 0.387695H79.4716L72.2685 71.9311L39.8906 79.8897L7.60164 71.9424Z" fill="#D17D54"/>
<path d="M66.1024 67.3863L72.258 6.24902H39.9395V73.8173L66.1024 67.3863Z" fill="#FCAB4D"/>
<path d="M16.9018 32.7851L17.7889 41.5609H39.939V32.7851H16.9018ZM16.019 23.7984H39.939V15.0225H15.1191L16.019 23.7984ZM39.939 55.577L39.8955 55.5873L28.8719 52.9482L28.1673 45.9489H18.2309L19.6178 59.7283L39.8934 64.719L39.939 64.7076V55.577Z" fill="#FCAB4D"/>
<path d="M39.9043 32.7851V41.5609H52.0928L50.9439 52.9426L39.9043 55.5843V64.7146L60.196 59.7283L60.3449 58.2456L62.6707 35.1416L62.9124 32.7851L64.6993 15.0225H39.9043V23.7984H53.8518L52.9509 32.7851H39.9043Z" fill="#FFF191"/>
</svg>
