<svg width="81" height="81" viewBox="0 0 81 81" fill="none" xmlns="http://www.w3.org/2000/svg">
<path d="M72.7478 73.1322C70.911 73.6934 69.0622 74.1947 67.1356 74.6205C66.6966 74.7176 66.7181 74.6276 66.5355 74.6588C66.1998 74.716 65.6676 74.9383 65.59 74.9573C65.1087 75.0768 65.2625 74.8907 65.1964 74.9012C64.4599 75.0221 64.707 75.1302 64.02 75.3154C63.1254 75.5565 61.9641 75.8117 60.8783 76.0703C60.4969 76.1607 60.6402 76.0126 59.8209 76.2235C59.2404 76.3728 57.4851 76.933 56.6312 77.0054C56.6143 76.9577 56.7048 76.8781 56.7361 76.8169C55.6079 77.3105 55.1839 77.4053 53.5011 77.7662C53.2349 77.8233 53.0052 77.9687 52.5321 78.0522C52.0591 78.1356 52.0076 78.0112 51.0722 78.2428C50.7405 78.3253 50.5615 78.4659 50.0534 78.5949C48.6086 78.9621 45.8237 79.5267 44.6346 79.8148C42.8567 80.2456 41.7168 80.6193 40.3558 80.9742L39.9931 80.9742C39.5584 80.8736 39.1049 80.7611 38.6078 80.6249C38.4487 80.5816 38.8248 80.5683 38.5319 80.4941C38.2366 80.4194 37.896 80.4758 37.8225 80.4611C37.0287 80.3018 35.4123 79.716 34.9702 79.6299C33.8952 79.421 34.9274 79.7369 33.4495 79.3997C32.0422 79.0786 30.1497 78.4301 28.7688 78.0545C27.1686 77.6192 26.5879 77.7416 25.4399 77.182C21.1786 76.1494 16.9018 75.1067 12.6361 74.0709C12.6611 74.0218 12.688 73.9732 12.7153 73.9247C12.3694 73.8778 12.0234 73.8309 11.6776 73.7836C11.7381 73.7573 11.7959 73.7304 11.8563 73.7046C10.469 73.499 9.22096 73.2713 7.73561 72.8984L7.30938 72.7966L7.2616 72.3523C7.23711 72.0968 7.21424 71.8337 7.19293 71.5611C7.19 71.524 7.30618 71.6107 7.30583 71.5797C7.28293 71.1504 7.15307 70.6811 7.13461 70.304C7.08957 69.3925 7.16664 67.8288 6.95114 68.5356C6.79712 66.4155 6.45139 63.9408 6.30374 61.9205C6.23973 61.0462 6.3816 60.7681 6.34935 60.3499C6.31704 59.932 6.1939 60.1588 6.17347 60.0113C6.05193 59.1251 5.91071 57.6608 6.05689 57.4904C5.97432 57.318 5.88992 57.1354 5.8067 56.9606C5.99667 57.0488 5.6462 54.3079 5.57807 53.5863C5.56563 53.4546 5.64237 53.4283 5.63157 53.329C5.51013 52.2225 5.35973 51.9641 5.22339 51.0194C5.17546 50.6879 5.36587 51.1903 5.22013 50.3416C5.20739 50.2677 5.08695 50.3198 4.98509 49.2987C4.8224 47.6688 4.45953 44.5559 4.3258 42.6093C4.31463 42.4499 4.49893 42.9203 4.39419 42.1963C4.35647 41.934 4.27285 42.0699 4.20784 41.4315C3.955 38.9573 3.8004 36.3076 3.45468 33.7926C3.57267 33.8737 3.78507 34.7605 3.58095 33.4159C3.54797 33.201 3.46707 33.3721 3.45372 33.2755C3.34672 32.4934 3.34766 31.8059 3.22493 30.9601C3.18847 30.7103 3.10594 30.6557 3.05641 30.3444C2.98307 29.8851 3.07124 29.6697 2.97114 29.1377C2.81411 28.3057 2.69801 28.1865 2.79554 27.1255C2.18961 21.2287 1.54235 15.3638 1.04034 9.47668C0.811674 7.78315 0.589429 6.22153 0.389234 4.45239C0.330351 3.93133 0.458335 3.8177 0.328934 2.99012C0.300165 2.80481 0.0183447 1.49018 0.277751 1.26835C0.246647 1.08173 0.225063 0.9296 0.205224 0.783626L0.147973 0.251228L0.690155 0.247486C0.832933 0.242506 0.969775 0.238579 1.1271 0.231234C0.982409 0.206659 0.834949 0.181922 0.690155 0.157131L0.0474568 0.161566L0.115321 0.792667C0.10846 0.891437 0.101454 0.989012 0.0941663 1.08371C0.0876608 0.986803 0.0805458 0.891276 0.0728756 0.796935L1.0853e-07 0.119234L0.690155 0.114471C1.91007 0.137772 2.93806 0.0495463 4.04571 0.0061298C4.9244 -0.0281305 4.3005 0.0920698 4.83969 0.0799844C5.37903 0.0682887 5.62429 0.0412434 6.29844 0.185212C6.82773 0.0191199 7.1796 0.135609 8.15583 0.140045C8.26068 0.140445 8.86705 0.0760364 9.37385 0.0888958C9.7383 0.098169 9.84631 0.20175 10.4251 0.1857C10.52 0.18328 11.7439 0.0549411 12.1334 0.0432402C12.7402 0.0246878 13.7045 0.157475 13.8219 0.159088C15.5271 0.182457 16.1844 0.0513658 17.3953 0.267124C17.64 0.1389 18.6505 0.063853 19.467 0.0763222C20.4982 0.0920512 22.5661 0.354231 22.8483 0.0771767C24.0417 0.200574 23.9121 0.124416 25.3274 0.121978C26.6157 0.119558 30.0266 0.225537 31.0707 0.210237C32.1145 0.195315 31.6059 0.0412256 32.0204 0.0206566C32.6989 -0.0135387 32.3324 0.100152 32.7967 0.0985396C34.1101 0.0936984 35.2514 0.0719706 36.5049 0.0223656C36.5723 0.10219 36.6448 0.182416 36.7147 0.262241C36.7796 0.235639 36.8442 0.209006 36.9091 0.182404C37.1787 0.183211 37.481 0.181572 37.7306 0.183991C35.6236 -0.166427 39.7658 0.20991 41.0092 0.218782C42.058 0.22604 43.8037 0.0598474 44.9548 0.0239526C45.2342 0.0151231 45.0422 0.10138 45.0995 0.0993942C45.7737 0.074792 45.876 0.0158863 46.7824 0.0239526C47.2618 0.0283936 47.7511 0.13641 48.218 0.138458C51.6463 0.152977 54.955 0.0444438 58.3608 0.0327419C58.94 0.0307255 59.4398 0.162587 59.9267 0.165436C60.6232 0.169468 61.0627 0.0615042 61.7167 0.0598423C62.3684 0.0582291 63.3077 0.187256 63.7497 0.167511C64.1916 0.148152 63.4353 0.0231191 64.2444 0.0574008C64.616 0.0731551 63.9597 0.166265 64.4189 0.169098C65.8521 0.177971 67.8746 0.062658 69.4003 0.174347C69.3329 0.146527 69.2408 0.12149 69.1584 0.0948774C70.784 0.105769 72.22 0.172725 73.898 0.182404C74.4848 0.186003 75.5431 0.10426 76.1198 0.104643C76.6965 0.105047 76.9589 0.193742 77.4207 0.196199C77.6104 0.197409 77.5362 0.117923 77.6636 0.119536C78.4824 0.130327 79.1112 0.172962 79.7556 0.20966L80.3327 0.205677L80.2781 0.787476C80.1826 1.39002 80.091 2.00691 80.0176 2.814C79.4641 8.8994 78.8835 15.1734 78.3149 21.3526C78.292 21.6011 78.3782 21.7785 78.3569 22.1426C78.3243 22.7035 78.2304 22.7217 78.2197 22.7959C78.1507 23.2806 78.255 23.0906 78.1892 23.7439C78.0443 25.1824 77.736 27.4955 77.5981 28.9296C77.2803 32.2354 77.0809 35.0211 76.7953 38.2649C76.775 38.4987 76.6689 38.3281 76.6266 38.7329C76.3264 41.5858 76.3823 42.2018 75.9917 45.751C75.6011 49.3006 74.8521 55.9988 74.4165 60.156C74.4162 60.156 74.4159 60.156 74.4157 60.1559C74.5093 61.4878 74.2827 63.1761 73.9706 64.565C74.2309 56.3997 75.2596 48.6658 76.1095 40.0027C77.0032 30.8974 77.5761 21.1526 78.5598 11.9335C78.6523 11.0669 78.8158 10.7315 78.8625 9.99838C78.8704 9.87443 78.7392 10.1842 78.7674 9.80346C78.9891 6.83385 79.3381 3.76457 79.6814 0.727393L79.7556 0.809438C77.4283 0.78104 75.12 0.754107 72.8942 0.781298C71.5059 0.798237 71.2882 0.909158 70.0673 0.937797C70.2819 0.885382 70.4222 0.830575 70.6095 0.777758C65.0361 0.614013 59.4547 0.687011 53.8089 0.663619C53.5543 0.662384 53.5218 0.553879 53.2546 0.549846C52.7204 0.541395 52.2086 0.660774 51.7417 0.66484C51.1325 0.670083 51.027 0.583752 50.4652 0.589398C50.191 0.592287 50.273 0.675254 49.6767 0.661178C49.6268 0.659968 49.5942 0.572923 49.1975 0.584149C48.1114 0.615201 45.8915 0.68822 44.9924 0.710007C43.844 0.73783 42.9225 0.606708 42.4879 0.598188C41.3145 0.575203 41.3389 0.709472 40.3456 0.709519C33.274 0.710326 26.5137 0.557548 19.2748 0.558758C18.82 0.558818 17.1381 0.708308 16.2966 0.702317C16.0146 0.699898 14.5398 0.660412 14.3188 0.657149C13.4224 0.644647 12.6477 0.554275 12.1533 0.53532C11.1945 0.498248 10.1232 0.639372 9.60133 0.653487C8.68502 0.67848 7.05764 0.659929 6.67279 0.656295C5.74389 0.647422 6.05081 0.472856 5.3841 0.513591C5.18713 0.525759 5.39341 0.659591 4.69944 0.659591C4.11798 0.659133 3.88276 0.558347 3.48584 0.540203C3.08889 0.522165 2.36063 0.678027 2.11322 0.674118C1.54326 0.664521 1.11331 0.639322 0.690155 0.613686L0.555351 0.614616L0.569586 0.746987C0.590951 1.28471 0.610518 1.81159 0.686417 2.5957C0.799421 3.75962 1.41134 9.13085 1.49282 9.57435C1.85736 11.5606 1.44878 8.23269 1.43538 8.0441C1.3649 7.02478 1.44246 7.16715 1.22096 6.1656C1.49855 5.22166 0.606549 2.1189 0.962509 1.26497C0.877459 1.08198 0.815577 0.903601 0.77038 0.726796L0.690155 0.815493C1.3064 0.722319 1.88471 0.820958 2.57039 0.866506C3.79562 0.947889 2.86259 0.777259 3.75639 0.776049C4.10879 0.775732 5.12986 0.908735 5.65906 0.890188C6.18814 0.871598 6.41103 0.769609 7.12002 0.763964C8.38571 0.753495 9.40465 0.801095 10.4682 0.92327C10.6629 0.869241 10.8447 0.815185 11.0369 0.761156C11.771 0.819233 12.508 0.87695 13.2421 0.934623C13.1248 0.887435 13.0072 0.839839 12.8899 0.792651C13.1046 0.785795 13.32 0.779328 13.5348 0.772875C14.2489 0.843852 14.9309 0.909567 15.6649 0.982964C17.6596 0.710007 17.0807 0.946254 18.1893 0.981744C19.2977 1.0172 19.9392 0.859179 20.7954 0.858327C21.949 0.857117 22.4788 0.837394 23.6422 0.848683C24.3164 0.855136 25.4601 1.00761 24.5213 0.766039C26.6262 0.74668 29.5082 0.679265 31.391 0.77727C31.9469 0.805866 31.2056 0.881951 31.3004 0.891409C31.7722 0.936166 32.1697 0.81282 32.6565 0.830494C33.4654 0.859932 35.0409 0.955965 35.6778 0.97857C36.5942 1.01124 38.035 0.851468 38.1823 0.839772C39.0059 0.774872 39.2263 0.907521 39.4909 0.898367C40.9965 0.845133 41.3288 0.789423 41.8032 1.06927C42.193 0.948276 43.8259 0.744684 44.2205 0.948295C44.2306 0.764414 45.5862 0.795413 46.4202 0.749437C46.575 0.802675 46.7325 0.855591 46.8873 0.909232C48.6277 0.58014 52.0934 0.819192 54.3832 0.858327C54.4406 0.859133 54.5433 0.721312 54.8878 0.752367C54.9097 0.754914 54.8742 0.816849 55.1054 0.824879C55.867 0.850704 58.7729 1.00541 59.1073 1.00677C60.3383 1.01201 60.5535 0.909145 61.3026 0.899466C62.2888 0.886562 62.4313 0.979393 63.3698 0.966118C63.8092 0.96007 64.209 0.837884 64.9003 0.855153C65.3097 0.865231 65.3502 0.961188 65.6744 0.968926C66.8281 0.996754 67.6753 0.936198 68.6991 1.06121C68.9662 0.755974 69.4555 0.980958 69.9623 1.00396C72.0198 1.09793 74.5841 0.968943 76.3495 0.996759C77.509 1.01518 78.6409 1.03807 79.7556 1.06312L79.429 0.70198C78.9167 4.85211 78.3984 8.75853 77.9396 12.982C77.8452 13.8509 77.9766 14.0757 77.8751 14.9866C77.8294 15.396 77.6765 15.8074 77.6073 16.4779C77.5515 17.0167 77.5299 17.7946 77.4617 18.4677C77.4437 18.6465 77.3386 18.6521 77.3113 18.9153C77.1042 20.912 76.9813 22.8699 76.8288 24.8922C76.7723 25.6417 76.5886 26.0903 76.84 25.9876C76.7527 26.2674 76.6737 26.54 76.5889 26.8025C76.6359 27.8463 76.3945 28.6705 76.2929 30.0657C76.2824 30.2161 76.3417 31.2832 76.1626 31.8672C76.2434 31.9179 76.3249 31.8327 76.4002 31.8578C76.3734 32.4498 76.1841 33.3445 76.134 33.7411C76.084 34.1371 76.1677 34.414 76.1568 34.5336C76.1138 34.9885 75.9792 34.8679 75.9733 34.9025C75.6207 37.0074 75.7206 36.7921 75.8096 38.0935C75.8323 38.4196 75.4537 40.5787 75.5815 41.0361C75.5093 41.0488 75.4597 40.9214 75.3962 40.8798C75.3124 41.5314 75.2276 42.188 75.1435 42.8421C75.2249 42.7098 75.3092 42.5495 75.3898 42.4296C75.1964 43.7627 75.2431 44.892 75.1277 45.987C75.0614 46.6127 74.9202 46.5214 74.9157 46.8924C74.9149 46.965 75.0277 46.8535 75.0143 47.0677C74.9044 48.8159 74.7212 49.5682 74.5256 51.3103C74.4337 52.1266 74.5446 52.8603 74.3062 54.0207C74.2841 54.1266 74.0059 55.2606 74.1671 55.9945C74.0709 56.2132 74.0122 56.4086 73.9334 56.5714C74.1341 58.0447 73.8355 57.613 73.5594 59.5503C73.4163 60.5528 73.136 63.9448 73.0626 65.0441C73.0194 65.6988 73.1564 65.7006 73.1501 65.8176C73.1114 66.5163 72.9797 66.5036 72.9365 67.149C72.8934 67.7946 72.9605 68.6225 72.8803 69.282C72.8188 69.7872 72.6954 69.3717 72.6771 70.125C72.6739 70.2812 72.8572 69.8527 72.7234 70.6358C72.7024 70.7592 72.4255 72.004 72.3669 72.2592C72.3467 71.587 72.4267 69.6525 72.4641 68.926C73.1077 56.4149 75.6263 31.3357 77.0414 18.0491C77.1726 16.8152 77.3967 16.0223 77.4902 15.2186C77.5837 14.4149 77.3843 15.0823 77.4687 14.353C77.5534 13.6237 77.6994 13.1008 77.7762 12.4184C78.2171 8.50513 78.6628 4.56692 79.0848 0.667328L79.7556 1.40903C79.0668 1.40389 78.3793 1.39937 77.6934 1.39557C76.5023 1.38912 75.5504 1.49604 74.4667 1.49604C74.045 1.49598 74.0319 1.35811 73.7324 1.35932C70.5039 1.37022 67.5173 1.50289 64.3062 1.48676C62.9729 1.47989 61.5324 1.36374 60.2116 1.35285C59.1231 1.34357 57.9945 1.42299 57.0158 1.42463C56.4845 1.42584 56.2042 1.32083 56.012 1.31256C55.3428 1.28514 55.5767 1.4134 55.2346 1.4134C54.2909 1.41296 53.8215 1.25811 52.9377 1.2702C52.5907 1.27504 52.6354 1.37372 52.1315 1.3891C51.4925 1.40846 51.7289 1.31742 51.2724 1.31415C51.2449 1.31375 51.3345 1.38431 51.0924 1.38715C49.5343 1.4057 47.5888 1.46133 46.0856 1.45649C42.9769 1.44681 39.9082 1.31087 37.0118 1.28424C36.2801 1.27779 36.4743 1.36977 36.2421 1.37421C35.1237 1.39515 34.7241 1.28513 33.5532 1.32465C33.3583 1.33112 32.574 1.45848 31.825 1.42621C31.4205 1.40885 30.9614 1.32941 30.6169 1.31085C30.2724 1.29231 30.2171 1.40929 29.803 1.40937C29.049 1.40977 29.2682 1.32869 28.1897 1.3432C27.7552 1.34885 26.3046 1.45968 25.186 1.45124C23.3582 1.43753 21.0929 1.33627 18.938 1.33466C18.1989 1.33385 17.2495 1.45406 16.1033 1.45527C14.7025 1.45687 12.1214 1.42954 10.6857 1.42792C9.95161 1.42712 9.89854 1.3012 9.81114 1.29596C9.24977 1.26094 9.47648 1.40161 9.09999 1.39606C8.5831 1.3884 8.10074 1.28463 7.6313 1.27777C7.33183 1.27339 7.28431 1.37707 7.2194 1.37787C4.94632 1.41031 2.92364 1.40338 0.690155 1.41211L1.36401 0.667103C1.37718 0.79319 1.39048 0.919943 1.40391 1.04745C2.74419 13.7794 4.16975 26.6259 5.38835 39.345C5.49071 40.4113 5.36468 40.4645 5.47933 41.399C5.59358 42.3337 5.96547 43.2103 5.73272 44.0117C5.79782 44.0302 5.84221 44.0233 5.90169 44.0424C6.00804 45.9866 6.29403 47.913 6.49563 49.8049C6.64494 51.2052 6.7599 52.4487 6.88323 53.7437C6.99215 54.8916 6.87312 54.8035 7.11535 55.7824C7.52269 60.7281 8.04613 65.7156 8.39022 70.625C8.54978 71.1397 8.62871 71.6524 8.67938 72.2097L8.07617 71.5148C8.71835 71.6793 9.40621 71.9022 10.2419 72.1272C10.4321 72.1786 10.2473 72.0451 10.8128 72.1917C11.5231 72.3757 11.8606 72.5933 13.0619 72.8816C13.38 72.9578 15.7672 73.3962 16.6199 73.6825C17.4726 73.9688 18.7231 74.3214 19.6104 74.6129C19.4953 74.5268 19.3454 74.4347 19.2156 74.3459C19.6689 74.4475 20.1245 74.55 20.5778 74.6516C20.6272 74.7331 20.6766 74.8147 20.7235 74.896C21.0007 74.8982 21.2778 74.9012 21.5576 74.9032C22.0446 75.3794 21.4875 75.126 22.7763 75.3531C23.4219 75.4672 23.9118 75.65 24.5724 75.7765C24.8105 75.8218 24.9852 75.7599 25.2474 75.811C25.89 75.9368 25.4863 75.9818 25.8789 76.0777C26.2744 76.1738 26.8786 76.1639 27.5702 76.4047C26.7654 76.4894 28.9232 76.9282 29.076 76.7462C29.3304 76.8084 29.5415 76.8694 29.8239 76.9327C29.4357 77.3921 30.8588 77.3486 31.405 77.407C31.9509 77.4655 31.8949 77.6008 32.0199 77.6257C32.3798 77.6981 32.1348 77.5759 32.3849 77.6354C34.0414 78.0306 35.5772 78.4997 37.2071 78.9091C37.4416 78.968 37.2529 78.8373 37.5247 78.9125C37.7968 78.9878 38.0399 79.1315 38.4461 79.2256C38.5551 79.251 38.6064 79.1896 38.7757 79.2312C39.2964 79.3599 39.813 79.4888 40.3268 79.618L40.0224 79.6179C43.0157 78.8978 45.9316 78.2281 49.0202 77.4771C49.3477 77.3974 49.5742 77.2101 50.208 77.0589C50.8419 76.9076 51.8295 76.7836 52.6172 76.5992C52.8263 76.5502 52.8575 76.433 53.1346 76.3678C54.0776 76.1459 54.9086 76.0309 55.8891 75.8044C57.5458 75.4217 59.259 74.9337 60.9493 74.5829C61.2697 74.5162 61.2402 74.6149 61.7042 74.5266C62.505 74.3742 62.1766 74.3216 62.3325 74.2654C62.8427 74.0823 63.0483 74.2089 63.5443 74.0415C63.6201 74.0158 63.4853 73.9439 63.5544 73.9252C64.6268 73.6433 64.7404 73.8617 65.8543 73.4558C66.9049 73.3391 65.216 73.8025 65.0589 73.9163C64.6749 74.1934 65.8518 74.1188 66.5321 74.0205C67.118 73.9359 67.0874 73.8297 67.3152 73.7736C68.5201 73.477 70.3097 73.0155 71.2388 72.841C71.8016 72.7351 70.8117 73.0258 71.1041 72.9913C71.3939 72.9574 71.5561 72.832 71.8663 72.8492C72.1765 72.8664 72.8289 72.981 72.7478 73.1322ZM3.83605 34.8364C4.4598 36.686 4.91939 41.7112 5.14913 44.4111C5.33947 46.6506 5.19939 48.6119 5.63687 48.1011C5.39701 45.6836 5.15187 43.7333 4.90966 41.1755C4.88453 40.9095 4.77 39.3195 4.72256 38.7671C4.69577 38.4562 4.77471 38.4382 4.73144 38.016C4.72179 37.9241 4.56612 37.425 4.55019 37.2384C4.49526 36.5992 4.46468 34.6846 4.4334 34.4201C4.34585 33.6864 4.24996 33.981 4.1955 33.666C4.01368 32.6076 4.18848 32.4714 4.02171 31.4216C3.99189 31.2338 3.7663 30.6241 3.70887 29.8393C3.68574 29.5204 3.71522 28.9703 3.68673 28.7273C3.53165 27.4028 3.27153 25.933 3.16783 24.7163C3.08295 23.7188 3.23542 23.974 3.19931 23.4457C3.16275 22.9173 2.95321 22.296 2.90856 21.9367C2.8374 21.3616 2.84962 20.6527 2.83043 20.474C2.45169 16.9535 2.04079 13.8302 1.66451 10.435C1.83922 12.7488 2.01838 15.0596 2.18959 17.3587C2.4505 18.6474 2.26343 18.0117 2.30907 18.8727C2.34517 19.5541 2.58189 19.696 2.64715 20.5901C2.64708 20.5893 2.647 20.5886 2.64693 20.5879C2.68031 21.0488 2.62798 22.0604 2.79022 23.0329C2.79615 23.0674 2.91921 23.1431 2.99691 23.8756C3.17137 25.5217 3.4838 28.0398 3.6457 29.8956C3.69319 30.4404 3.56201 30.3417 3.61187 30.9867C3.64833 31.4571 3.814 31.9897 3.86308 32.7272C3.92407 33.6521 3.77761 34.1135 4.10658 34.7204C4.01712 34.7821 3.9221 34.765 3.83605 34.8364ZM20.981 75.5641C21.1048 75.6054 22.7259 76.3109 22.3 75.8788C20.0587 75.1851 17.5834 74.6464 15.2088 73.9822C15.9508 74.4884 17.3628 74.7084 19.0461 75.0991C19.0468 75.0992 19.0476 75.0994 19.0483 75.0996C19.1278 75.1181 18.777 75.1163 19.2308 75.2127C19.4508 75.2593 20.3179 75.3432 20.981 75.5641ZM16.2765 15.2968C16.6094 17.5009 16.8813 19.7083 17.0687 21.9914C17.1115 22.5116 17.0246 22.4711 17.0332 22.6858C17.049 23.0806 17.2048 23.7299 17.2142 23.8222C17.2244 23.9193 17.228 23.9939 17.2271 24.0512L16.3025 23.2165C16.5814 23.2497 16.4372 23.3498 16.5015 23.3544C17.3654 23.4129 17.1167 23.2488 17.9427 23.2331C19.0183 23.2125 20.3984 23.2418 21.6944 23.2499C22.1495 23.2531 21.9469 23.3628 22.9291 23.3535C23.6249 23.3471 25.7595 23.2221 26.7423 23.3556C26.7481 23.406 26.624 23.4617 26.5718 23.5137C27.9807 23.3036 28.485 23.3128 30.4825 23.364C30.7985 23.3721 31.0977 23.2858 31.6544 23.3177C32.2108 23.3495 32.2343 23.4826 33.3533 23.481C33.7502 23.4801 33.991 23.3863 34.5996 23.3822C36.3305 23.3705 39.627 23.4871 41.0477 23.4911C43.8454 23.4992 45.3676 23.339 47.8522 23.3947C48.0436 23.3987 47.6233 23.5015 47.974 23.5036C48.3277 23.5056 48.6961 23.3693 48.7831 23.3661C49.7223 23.331 51.7072 23.5136 52.2296 23.4915C53.4995 23.4374 52.2481 23.3774 54.008 23.3516C54.0501 23.351 54.0926 23.3505 54.1355 23.3501L55.0103 23.3449L54.9274 24.2253C54.7757 25.8826 54.3838 28.0941 54.1887 29.7021C53.9844 31.3854 54.1109 32.0852 53.8624 33.1952L53.8093 33.7594L53.2351 33.7628C53.0821 33.7443 52.9209 33.7197 52.748 33.6876C47.657 33.7033 42.5457 33.7129 37.449 33.7267C37.4635 33.673 37.4803 33.6194 37.4977 33.5658C37.0947 33.6029 36.6916 33.64 36.2886 33.6767C36.3495 33.6368 36.4072 33.5969 36.4681 33.5573C34.5752 33.7114 32.8881 33.7908 30.6765 33.7485C30.6332 33.7477 30.7469 33.6408 30.7111 33.638C30.2124 33.6179 29.6551 33.7001 29.2173 33.6808C28.1591 33.6344 26.3615 33.4012 27.153 33.6864C24.6859 33.6275 21.7868 33.7239 19.4355 33.6687C18.4181 33.6449 18.1133 33.4759 17.6264 33.4661C17.1399 33.4565 17.3875 33.6017 17.2148 33.6073C17.205 33.6076 17.1952 33.6079 17.1853 33.6082L17.6587 33.0844C17.7945 34.1164 17.956 35.7864 17.8138 35.9799C17.8994 36.181 17.9869 36.3941 18.0732 36.5981C17.8815 36.4928 18.2784 39.6763 18.3587 40.514C18.3733 40.6669 18.2969 40.6962 18.3094 40.8115C18.358 41.2575 18.4085 41.5851 18.4599 41.8686L18.073 41.5188C18.6133 41.4761 18.9989 41.414 19.7218 41.3871C20.1103 41.3726 19.5078 41.5118 20.5052 41.4517C20.5921 41.4464 20.5459 41.3214 21.7374 41.3222C23.6393 41.3234 27.2777 41.2738 29.542 41.3355C29.7276 41.3403 29.1627 41.4766 30.0113 41.4449C30.3187 41.4336 30.1714 41.3368 30.9166 41.336C33.8043 41.3319 36.8833 41.4432 39.829 41.3509C39.7217 41.4602 38.6724 41.5828 40.2496 41.5142C40.5016 41.5029 40.3135 41.4053 40.4265 41.4016C41.3425 41.3734 42.1367 41.4432 43.1281 41.4057C43.4209 41.3944 43.4936 41.3177 43.8589 41.2996C44.3981 41.2726 44.6367 41.3819 45.2629 41.3355C46.2423 41.2625 46.3936 41.1589 47.608 41.3621C49.1991 41.3591 50.7885 41.3538 52.3767 41.3484L52.9919 41.3447L52.9332 41.9639C52.5627 45.7637 52.193 49.5566 51.7907 53.3463L51.7531 53.7428L51.3598 53.8393C49.9366 54.172 48.5124 54.5001 47.0862 54.8217C45.1711 55.3397 43.4065 55.8286 41.4013 56.3312C40.9648 56.4405 40.7714 56.4102 40.3234 56.4962L40.3719 56.4823C40.369 56.4831 40.366 56.484 40.363 56.4848L40.2092 56.5371L40.0443 56.4987C39.8911 56.4549 39.7038 56.4097 39.4593 56.3633C39.2455 56.3225 37.702 56.1061 37.5473 55.7808C37.1217 55.7038 36.8561 55.6411 36.4918 55.5692C36.7557 55.6747 37.0283 55.7827 37.2809 55.8859C35.7687 55.4779 34.5024 55.2764 33.1437 54.9993C32.1435 54.7951 32.876 54.8468 32.2643 54.7128C31.6526 54.5784 31.3693 54.5384 30.6416 54.2162C30.1083 54.2317 29.7619 54.0878 29.0153 53.8829L28.6008 53.7863L28.5549 53.356C28.5448 53.2068 28.532 53.0427 28.5143 52.8601C28.5025 52.7389 28.3678 52.0448 28.3216 51.4581C28.2885 51.0361 28.3789 50.9009 28.2956 50.2339C28.2822 50.1245 28.012 48.7235 27.9551 48.2746C27.8721 47.6238 27.8836 46.602 27.8759 46.3543L28.4509 46.8743C28.4325 46.873 28.4184 46.8723 28.409 46.8722C26.4291 46.8488 25.6659 46.9799 24.2598 46.7641C23.9757 46.8924 22.8024 46.9674 21.8544 46.9549C20.9573 46.9431 19.3846 46.793 18.5144 46.835L19.0503 46.2424C19.0934 46.5308 19.1501 46.7387 19.2275 46.8135C19.2435 48.2046 19.3042 48.0473 19.4713 49.682C19.6236 51.1701 19.915 55.1212 20.0517 56.326C20.188 57.5303 20.2821 56.9273 20.3508 57.4041C20.4638 58.1845 20.308 57.7725 20.3637 58.3087C20.4251 58.9 20.4861 59.4608 20.5491 60.0105L20.0575 59.4442C20.9014 59.6395 21.7214 59.8209 22.591 60.0037C22.6479 60.0999 22.7105 60.198 22.7702 60.2949C22.8497 60.287 22.9289 60.2791 23.0084 60.2713C23.3122 60.3469 23.6534 60.4292 23.9343 60.5008C21.6425 59.5759 26.2226 61.0907 27.6225 61.4444C28.8032 61.7424 30.8111 62.0655 32.1175 62.3501C32.4346 62.419 32.1975 62.4495 32.2626 62.4635C33.0286 62.6267 33.158 62.5978 34.1781 62.8572C34.7174 62.9945 35.2434 63.2352 35.7692 63.3668C37.3009 63.7497 38.816 64.1086 40.3265 64.4605L40.0354 64.4588C40.0506 64.4551 40.0659 64.4513 40.0811 64.4475L39.5993 65.0552C39.5993 65.0545 39.5993 65.0539 39.5993 65.0532L39.5964 64.5676L40.0744 64.4472C42.3425 63.8597 44.5942 63.2634 46.8936 62.6912C47.5463 62.5287 48.1412 62.5183 48.6909 62.3862C49.4772 62.1971 49.9471 61.9705 50.6841 61.7877C51.4185 61.6056 52.5084 61.4706 53.0021 61.329C53.4958 61.1877 52.6132 61.2759 53.5336 61.085C53.9564 60.9973 53.2386 61.2696 53.757 61.1451C55.3752 60.7566 57.6282 60.0843 59.3751 59.77C59.2925 59.7617 59.1827 59.7629 59.0835 59.7599C59.5082 59.6581 59.9222 59.5621 60.3311 59.4689L59.8585 60.0131C60.0215 58.6294 60.196 57.3087 60.3533 55.8194C60.4251 55.1419 60.4668 53.9111 60.5343 53.2449C60.6018 52.5787 60.7205 52.2844 60.7766 51.7512C60.7999 51.5321 60.7122 51.6098 60.7286 51.4629C60.9347 49.6249 61.1771 48.6294 61.355 46.7012C61.6974 42.9897 62.0482 39.2177 62.401 35.433C62.4757 34.6464 62.5503 33.8602 62.625 33.0739C62.8707 30.4389 63.1168 27.8015 63.3611 25.1788C63.388 24.8903 63.3045 24.686 63.3316 24.2635C63.3733 23.6126 63.4675 23.5901 63.4794 23.5039C63.5563 22.9407 63.4489 23.1627 63.5252 22.4041C63.6932 20.7338 64.039 18.0469 64.2 16.3818C64.2354 16.0164 64.2696 15.6566 64.3028 15.3012L64.9831 16.0534C61.5906 16.0774 58.6113 16.147 55.1905 16.1838C54.918 16.187 55.1028 16.0645 54.6302 16.0628C51.2994 16.0499 50.5944 16.1673 46.4486 16.1343C42.3025 16.1012 34.4771 16.0269 29.6238 16.01C29.6238 16.0097 29.6238 16.0094 29.6238 16.0091C28.096 16.2358 26.1193 16.1794 24.4784 16.008C33.9417 15.449 42.9961 15.6978 53.1031 15.6756C56.9898 15.6672 60.9704 15.6075 64.9831 15.5379L64.8157 15.3528C64.3231 21.2804 63.845 27.2805 63.2678 33.1395C63.1887 33.9278 63.1079 34.7134 63.025 35.496C63.0039 35.6987 62.9826 35.9013 62.9612 36.1038C62.8546 37.11 62.6855 37.5015 62.627 38.3524C62.6171 38.4962 62.7535 38.135 62.7191 38.5768C62.2443 44.6482 61.3686 51.0845 60.8325 57.0391C60.6959 58.5555 60.7642 58.8739 60.6766 60.0955L60.6617 60.2352L60.5273 60.2674C60.4579 60.2866 60.3854 60.3063 60.3094 60.3266C60.3859 60.2898 60.4531 60.255 60.516 60.2212L60.618 60.1968L60.6293 60.0907C60.6076 59.9496 60.5838 59.8259 60.5633 59.6782C60.5464 59.8118 60.5297 59.9454 60.513 60.079L60.5105 60.1023L60.4881 60.1077C54.2981 61.4734 48.1507 63.0555 41.9117 64.565C41.6243 64.6344 41.5617 64.538 41.2595 64.6081C40.8865 64.6944 40.5348 64.8256 40.1967 64.9447L40.1111 64.9663L40.1116 65.0532C40.1117 65.0539 40.1117 65.0545 40.1118 65.0552L40.1979 64.9465C40.183 64.9516 40.168 64.9567 40.1531 64.9617L40.203 64.962C40.0001 64.9323 39.8033 64.9002 39.6163 64.8557C38.9282 64.6917 38.8299 64.5786 38.1951 64.4282C37.8853 64.3549 37.9579 64.4582 37.289 64.2791C37.233 64.2641 37.217 64.1705 36.7671 64.0713C35.5351 63.8001 33.0148 63.255 31.9959 63.0267C30.6945 62.735 29.6869 62.352 29.1989 62.2231C27.8814 61.8752 27.8769 62.0123 26.7569 61.7367C24.4518 61.1696 22.179 60.5973 19.9154 60.0216L19.9575 60.0701C19.5327 55.4983 19.1317 50.9555 18.6817 46.2795L18.5144 46.4645C19.6926 46.4697 20.8794 46.4727 22.0775 46.4725C22.6056 46.4724 24.5586 46.3229 25.5356 46.3289C25.8631 46.3314 27.5755 46.3708 27.832 46.3741C28.0447 46.3767 28.2515 46.3825 28.4509 46.3903L28.3575 46.3058C28.4051 47.0809 28.4116 47.7464 28.4423 48.2023C28.517 49.3137 28.7821 50.5372 28.8569 51.1387C28.9309 51.7328 29.0174 52.5884 29.0862 53.3024L29.0915 53.3524L29.1396 53.3636C29.6814 53.4958 30.1388 53.6098 30.3285 53.6569C31.3754 53.9166 30.9882 54.0034 31.7505 54.144C31.9758 54.1854 31.774 53.9995 32.5576 54.1871C33.2141 54.3447 33.4562 54.5063 33.9002 54.6312C34.3443 54.756 35.2029 54.8013 35.4814 54.872C36.9369 55.2428 37.5595 55.4968 39.1485 55.8826C39.3644 55.9349 39.7088 56.016 40.136 56.1153L40.189 56.1276L40.2383 56.1108C40.2412 56.1098 40.2442 56.1088 40.2471 56.1078L40.2315 56.1123C42.4122 55.5752 46.7278 54.4861 47.1445 54.3549C49.3792 53.6516 45.6111 54.6288 45.3964 54.6745C44.2357 54.9195 44.3898 54.8179 43.2674 55.21C42.6661 55.1484 41.3856 55.5326 40.1729 55.8673C40.1645 55.8699 40.1616 55.871 40.1587 55.8721L40.1946 55.8705C39.1439 55.6568 38.155 55.4331 37.7796 55.1355C36.7612 55.1928 35.9972 54.8582 35.0099 54.5613C33.6453 54.151 34.6592 54.5691 33.6496 54.3287C33.2516 54.2338 32.1296 53.8284 31.5277 53.7034C30.9259 53.5785 30.6505 53.6174 29.8486 53.4313C29.6125 53.3765 29.3843 53.3221 29.1627 53.2675L29.1846 53.2925C29.0763 52.1416 29.0263 51.1464 29.0245 50.1102C28.948 49.8906 28.8731 49.6861 28.797 49.4694C28.7693 48.6155 28.741 47.7583 28.7129 46.9044C28.6796 47.0447 28.646 47.1853 28.6127 47.3256C28.5808 47.0782 28.5493 46.83 28.5179 46.5826C28.5165 46.4846 28.515 46.3872 28.5135 46.2901L28.5081 46.2338L28.4509 46.2335C27.7259 46.1718 27.021 46.113 26.269 46.0483C23.953 46.3212 24.6251 46.085 23.3379 46.0495C22.051 46.0141 21.3061 46.1721 20.312 46.1729C19.5744 46.1736 19.0565 46.1799 18.5144 46.1835L18.3902 46.1828L18.402 46.3077C18.4493 46.7475 18.4964 47.2036 18.5522 47.8081C18.6242 48.5876 18.6056 49.9241 18.7367 48.8153C19.0009 51.2452 19.4033 54.5678 19.5248 56.7527C19.561 57.3978 19.3991 56.5491 19.4007 56.6596C19.4111 57.2091 19.58 57.6559 19.6191 58.2201C19.6522 58.6995 19.6914 59.4123 19.7286 60.0932L19.7401 60.2146L19.8604 60.245C20.4851 60.4294 21.0817 60.6056 21.4299 60.7027C22.4553 60.9887 24.1179 61.2334 24.2868 61.2629C25.2309 61.4284 25.4477 61.6184 25.7482 61.6829C27.4584 62.049 27.8464 62.0872 28.3144 62.4905C28.7827 62.4812 30.6725 62.7366 31.0687 63.0438C31.1241 62.8681 32.6451 63.2744 33.5963 63.4612C33.7581 63.5558 33.923 63.6509 34.0848 63.7459C35.556 63.8637 37.9677 64.517 40.163 65.1248L40.1913 65.125C40.2067 65.1219 40.2221 65.1187 40.2375 65.1156L40.2851 65.1047L40.2854 65.0552C40.2854 65.0545 40.2854 65.0539 40.2855 65.0532L40.2382 65.1135C41.0831 64.9316 41.8959 64.7584 42.6056 64.595C42.6706 64.5799 42.7534 64.4176 43.1494 64.3523C43.1746 64.3487 43.1494 64.4187 43.412 64.3624C44.2769 64.1765 47.5904 63.5216 47.9678 63.4302C49.3571 63.0943 49.5751 62.9348 50.4175 62.7178C51.5264 62.432 51.7093 62.4827 52.7643 62.2098C53.2583 62.0822 53.6799 61.8527 54.4636 61.678C54.9276 61.5743 54.9962 61.6563 55.3636 61.574C56.671 61.2814 57.6119 60.9878 58.7961 60.8256C59.0245 60.4551 59.6299 60.538 60.2069 60.4199C60.3192 60.397 60.4327 60.3732 60.5473 60.3487L60.7387 60.3029L60.7599 60.1038C61.0623 57.7977 61.2269 55.0079 61.4486 53.0688C62.15 46.9427 62.8771 41.4958 63.5268 35.5463C63.5513 35.3253 63.5759 35.1026 63.6003 34.8791C63.6849 34.1038 63.6292 33.7715 63.6524 33.179C63.6591 32.9999 63.6729 32.7979 63.6998 32.5531C63.7522 32.0777 63.9119 31.5981 63.9919 30.8196C64.0564 30.1939 64.0905 29.2916 64.1695 28.5101C64.1904 28.3024 64.2958 28.2944 64.3274 27.9887C64.5667 25.6701 64.7211 23.3981 64.9062 21.0508C64.9747 20.1808 65.1659 19.6577 64.9123 19.7808C65.0043 19.455 65.0878 19.1376 65.1769 18.8319C65.149 17.7195 65.3624 16.8184 65.4934 15.421L65.5531 14.8602L64.9831 14.8568C64.8607 14.8577 64.7346 14.8595 64.6043 14.8626C64.4293 14.8672 63.2034 15.0331 62.508 14.9134C62.4587 14.9989 62.5667 15.0715 62.5464 15.1489C61.8594 15.1815 60.8038 15.0828 60.3398 15.0727C59.8765 15.0626 59.5663 15.1737 59.4269 15.1748C58.8963 15.1776 59.02 15.0315 58.9794 15.0291C56.5066 14.8892 56.767 14.967 55.2739 15.186C54.8998 15.2412 52.3613 15.0808 51.8479 15.2537C51.8248 15.1832 51.9662 15.1211 52.0069 15.0538C51.2443 15.0356 50.4759 15.017 49.7105 14.9988C49.8728 15.0666 50.0678 15.1344 50.2157 15.2026C48.6532 15.1437 47.3539 15.3034 46.0755 15.2982C45.3449 15.2949 45.4339 15.1453 45.0049 15.1779C44.9208 15.1844 45.0628 15.2855 44.8138 15.2937C42.7814 15.3594 41.8909 15.2525 39.8556 15.2324C38.9019 15.2227 38.0672 15.4066 36.6989 15.2856C36.5739 15.2743 35.2316 15.111 34.4025 15.3449C34.1386 15.2711 33.906 15.2323 33.7088 15.1702C32.0301 15.5175 32.494 15.1772 30.2238 15.0965C29.0491 15.0546 25.0978 15.1154 23.8193 15.1525C23.0579 15.1751 23.0718 15.3116 22.9359 15.3171C22.1242 15.3485 22.1235 15.2163 21.3729 15.238C20.622 15.2598 19.6733 15.4094 18.9021 15.3957C18.3114 15.3851 18.7771 15.2208 17.9046 15.278C17.7239 15.2904 18.2402 15.4299 17.3199 15.3752C17.1749 15.3667 15.7046 15.2158 15.403 15.1832C16.1772 15.0957 18.4213 14.9815 19.265 14.946C30.2034 14.4844 49.4955 14.3668 64.9831 14.3697L66.0946 14.3763L65.978 15.4697C65.4682 20.5275 64.9865 25.1761 64.5838 28.9887C64.4327 30.4215 64.1956 31.3445 64.0891 32.2778C63.9851 33.1891 64.1832 32.4701 64.1032 33.2236C64.101 33.2435 64.0989 33.2627 64.0966 33.2827C63.9985 34.1296 63.843 34.7379 63.7538 35.5303C63.7523 35.5435 63.7508 35.5568 63.7493 35.5701C63.158 40.8982 62.5595 46.2672 62.0017 51.5562C61.8568 52.9316 61.8525 54.042 61.7265 55.294C61.6774 55.7812 61.5387 55.7825 61.5051 56.1287C61.3716 57.4942 61.2582 58.824 61.1489 60.143L61.0982 60.6188L60.6406 60.7284C58.4242 61.3146 56.2423 61.9018 53.9445 62.4559C52.4395 62.8187 50.7874 63.105 49.2955 63.4604C48.0659 63.753 46.8124 64.1428 45.7092 64.4155C45.1104 64.5639 44.7693 64.5396 44.5506 64.5848C43.7895 64.7436 44.0838 64.8033 43.6981 64.8981C42.6339 65.1592 42.0677 65.1388 41.074 65.3955C40.7327 65.4837 40.7466 65.5586 40.3773 65.6795L40.8683 65.0532C40.8683 65.0539 40.8684 65.0545 40.8684 65.0552L40.8654 65.5705L40.3704 65.6833C40.3559 65.6878 40.3409 65.6924 40.3252 65.6971L40.0225 65.6954C39.9802 65.6876 39.9339 65.6783 39.8827 65.6671C39.1576 65.5086 39.4459 65.4858 38.932 65.356C38.9011 65.3479 38.9852 65.4413 38.7116 65.3769C36.9504 64.9625 34.7438 64.4767 33.0501 64.0549C29.5475 63.1828 26.1201 62.1993 22.8608 61.3697C22.0375 61.1604 22.2344 61.3036 21.9716 61.2435C21.0035 61.0217 20.5276 60.8422 19.7627 60.6419L19.3604 60.5403L19.3219 60.1341C19.3011 59.8917 19.273 59.6228 19.2317 59.3055C19.2026 59.081 18.9847 58.1877 18.9296 57.3191C18.8998 56.8502 18.9255 56.3118 18.9038 55.9119C18.8822 55.5121 18.7594 55.46 18.7111 54.9816C18.623 54.1105 18.7292 54.3557 18.5893 53.1111C18.5331 52.6098 18.2541 50.9451 18.1323 49.6519C18.0378 48.6481 17.9514 47.5283 17.8601 46.3623L17.7911 45.6345L18.5144 45.6388C19.8064 45.6674 21.1552 45.6957 22.4686 45.6966C23.3268 45.6974 24.4292 45.5772 25.76 45.576C26.4705 45.5753 27.4425 45.5801 28.4509 45.5859L29.0976 45.5897L29.1578 46.2252C29.2807 47.5194 29.4081 48.8741 29.5013 49.8083C29.5859 50.6565 29.4668 50.7304 29.4717 50.8319C29.5022 51.4839 29.6158 51.2079 29.6541 51.6434C29.7031 52.2006 29.6655 52.7315 29.6988 53.2407L29.283 52.7648C29.3189 52.7747 29.3549 52.7843 29.3909 52.7934C29.728 52.8786 29.8058 52.7906 29.8793 52.8074C32.5997 53.4233 34.9942 54.0064 37.6923 54.6407C38.5744 54.8481 39.457 55.0553 40.3402 55.2625L39.961 55.2789C39.964 55.278 39.9669 55.277 39.9698 55.276L40.0275 55.2595C43.6975 54.3637 47.3743 53.4625 51.054 52.5613L50.4832 53.2144C50.8457 49.4195 51.2092 45.6218 51.5775 41.8271L52.3767 42.7109C45.9661 42.7353 39.5622 42.7451 33.1899 42.7193C31.9461 42.7145 31.8993 42.5838 30.8063 42.6043C29.7132 42.6245 28.6573 42.9068 27.7585 42.595C27.7295 42.658 27.7324 42.7028 27.7034 42.7601C25.4449 42.6714 23.1862 42.7632 20.9771 42.7745C19.9569 42.7798 19.0087 42.7778 18.073 42.774L17.2848 42.7693L17.2111 41.9949C17.1566 41.4336 17.1034 40.8767 17.0488 40.3114C16.9205 38.9788 17.0412 39.0828 16.7822 37.9439C16.6477 36.3707 16.5044 34.7938 16.3585 33.216L16.2709 32.2959L17.1853 32.3013C21.3826 32.3374 25.5876 32.3555 29.7341 32.4636C31.0735 32.2292 32.3575 32.3769 34.2102 32.4116C34.4389 32.4159 34.1935 32.3304 34.8718 32.3377C35.7237 32.3466 36.1645 32.4773 37.599 32.47C37.9788 32.468 40.7919 32.3232 41.8328 32.3974C42.8736 32.4716 44.3813 32.5151 45.4626 32.5861C45.309 32.5301 45.1144 32.4764 44.9433 32.4212C45.4826 32.4115 46.0248 32.4022 46.564 32.3925C46.6423 32.4599 46.7207 32.5273 46.7961 32.595C47.1092 32.5309 47.4225 32.4676 47.7385 32.4026C48.4197 32.7486 47.7213 32.6358 49.2374 32.5483C49.997 32.5047 50.6 32.5652 51.3799 32.5301C51.6609 32.5172 51.8407 32.4153 52.1505 32.4023C52.91 32.3708 52.4673 32.5111 52.9365 32.5103C53.0283 32.5101 53.128 32.5041 53.2351 32.495L52.601 33.0688C52.608 32.6232 52.5763 32.0442 52.6993 31.3711C52.8844 32.2779 53.05 29.7271 52.8498 29.5847C52.8798 29.2821 52.914 29.0293 52.9415 28.6944C53.4467 29.0568 53.225 27.4342 53.2146 26.7979C53.2042 26.1621 53.3457 26.2019 53.3548 26.0543C53.3816 25.6289 53.2909 25.9315 53.3186 25.6344C53.368 25.109 53.4237 24.5924 53.4827 24.0806L54.1355 24.802C52.7204 24.781 51.338 24.7319 49.9076 24.726C49.6269 24.7249 49.8758 24.8067 49.5486 24.7986C49.2209 24.7906 48.907 24.7091 48.4228 24.7148C48.2929 24.7162 48.2521 24.7881 48.0497 24.7882C43.808 24.7849 39.7805 24.7237 35.4548 24.7144C35.0634 24.7136 34.7561 24.8414 33.9995 24.837C33.2429 24.8325 32.0949 24.7172 31.1556 24.7083C30.9063 24.7059 30.8386 24.8123 30.5081 24.8095C29.3834 24.7998 28.4145 24.7132 27.2462 24.699C25.2721 24.6753 23.2051 24.7402 21.202 24.6773C20.8222 24.6656 20.8829 24.5768 20.3352 24.5518C19.3901 24.5087 19.7457 24.6381 19.5544 24.6555C18.9284 24.7115 18.7316 24.5394 18.126 24.5837C18.0334 24.5905 18.1655 24.6926 18.0824 24.6942C17.1787 24.7066 16.8761 24.5925 16.3025 24.5677L15.9193 24.5654L15.8829 24.189C15.8686 23.9458 15.8332 23.6556 15.7536 23.2539C15.7654 22.126 15.9816 23.7482 16.089 24.1679L16.1075 24.3594L16.3025 24.3605C16.3392 24.355 16.3671 24.3494 16.3835 24.3437C16.5741 24.2773 16.5051 24.2067 16.3025 24.1407C16.3831 23.7965 16.4072 23.076 16.3982 22.5769C16.3858 21.8905 16.2764 21.9068 16.2486 21.6359C16.1013 20.2026 15.8617 18.0702 15.8021 16.9746C15.7657 16.3109 15.9335 17.4967 15.935 17.1556C15.9368 16.8174 15.832 16.6094 15.8871 16.257C15.9422 15.9045 16.1361 15.1771 16.2765 15.2968ZM38.5789 41.6259C36.3696 42.0615 30.5107 42.016 27.3649 41.9744C24.7555 41.9397 22.506 41.6041 23.0452 42.0905C25.866 42.0937 28.1476 42.0449 31.1307 42.0599C31.4409 42.0615 33.2912 42.1066 33.9348 42.1147C34.2971 42.1191 34.3087 42.1995 34.8016 42.1987C34.9089 42.1983 35.5035 42.0933 35.7209 42.0961C36.4658 42.1054 38.6812 42.2665 38.9905 42.2619C39.8482 42.2482 39.5191 42.1233 39.8893 42.1006C41.1331 42.0256 41.2702 42.2132 42.5024 42.1523C42.7227 42.1414 43.4534 41.9779 44.3667 41.9993C44.7378 42.0082 45.3699 42.0926 45.654 42.0886C47.2022 42.0668 48.9304 41.955 50.3481 41.9736C51.5103 41.9889 51.1977 42.1151 51.8123 42.132C51.9932 42.1369 52.1851 42.1276 52.3767 42.1119L52.1735 41.8872C52.1648 42.3479 52.1932 42.81 52.1694 43.1057C52.1151 43.7762 51.9503 44.5813 51.9306 44.7891C51.6487 47.7608 51.4285 50.4975 51.1898 53.2857L51.2193 53.252C50.1963 53.5132 49.1656 53.7744 48.1112 54.0365C49.1563 53.8099 50.2008 53.5828 51.2441 53.3559L51.2916 53.3442L51.2961 53.2964C51.4923 51.6862 51.6882 50.0788 51.8861 48.4768C51.9086 46.9521 51.9546 47.7169 52.0955 46.7259C52.207 45.9418 52.006 45.729 52.1349 44.6963C52.1348 44.6972 52.1347 44.698 52.1346 44.6989C52.2005 44.1727 52.4643 43.0517 52.5195 41.9221L52.5346 41.7632L52.3767 41.7641C52.3634 41.7648 52.35 41.7655 52.3367 41.7663C52.2961 41.7687 52.1944 41.8836 51.3392 41.8876C49.4171 41.8965 46.4718 41.9554 44.309 41.9308C43.674 41.9236 43.8034 41.8029 43.0524 41.788C42.5047 41.7772 41.8702 41.8888 41.0125 41.8638C39.9368 41.832 39.4208 41.6401 38.6815 41.9067C38.6206 41.8115 38.6514 41.7187 38.5789 41.6259ZM47.2718 33.1822C47.4229 33.1927 49.4463 33.4903 48.8463 33.1726C46.1268 33.0346 43.1865 33.1031 40.3249 33.0257C41.302 33.3399 42.955 33.2161 44.9613 33.1931C44.9621 33.1931 44.963 33.1931 44.9639 33.1931C45.0586 33.192 44.6626 33.2741 45.2011 33.2592C45.462 33.252 46.4629 33.1261 47.2718 33.1822Z" fill="#FFD170"/>
</svg>
