<svg width="83" height="83" viewBox="0 0 83 83" fill="none" xmlns="http://www.w3.org/2000/svg">
<path d="M2.46576 30.361C2.28885 28.6195 2.16699 26.9825 2.01321 24.915C2.0131 24.9139 2.01299 24.9128 2.01288 24.9117C1.9909 24.6163 1.96839 24.3119 1.94486 23.9974C1.75534 21.4645 1.50098 18.1742 1.04669 13.22C0.622215 8.5909 0.368759 4.75863 0.240273 2.07228L2.14577e-06 0.0363683L2.11473 -0.000121474C2.60494 0.0256022 3.05675 0.0516487 3.46807 0.0775272C3.96508 0.108797 4.47953 0.125979 5.77712 0.141616C6.62809 0.15187 7.77861 0.161128 9.43891 0.174576C10.322 0.181729 11.3498 0.18996 12.553 0.200211C16.5359 0.234145 22.778 0.22358 28.5297 0.213639C32.0207 0.207606 35.3317 0.201841 37.8465 0.20662C41.5245 0.213611 45.0733 0.244975 48.9313 0.279254C52.4644 0.310647 56.2572 0.344529 60.6455 0.36379C64.0126 0.378575 67.2839 0.505509 70.6083 0.647306C71.0314 0.665352 71.4563 0.683594 71.8816 0.701934C74.8152 0.828453 77.8141 0.957979 81.057 1.03214C81.0981 1.03308 81.1392 1.03401 81.1802 1.03494L82.1039 1.019L82.0247 1.96882C81.3235 7.65017 80.9183 12.2161 80.47 17.2677C80.2935 19.2575 80.1102 21.3231 79.8995 23.562C79.5663 27.1028 79.0495 32.1891 78.5287 37.2962C78.4843 37.7312 78.4401 38.1668 78.3957 38.6013C78.3955 38.6035 78.3953 38.6057 78.3951 38.6079C77.9182 43.2827 77.4502 47.8709 77.1246 51.239C76.6072 56.5909 76.4546 58.6088 76.3275 60.2918C76.2797 60.9244 76.2356 61.5101 76.1769 62.2078C75.9655 64.7203 75.5766 68.5062 75.1825 72.3439C75.181 72.3586 75.1795 72.3732 75.1781 72.3879C75.1126 73.0247 74.9204 73.5247 74.7488 73.5044C74.5772 73.4841 74.491 72.9511 74.5564 72.3142C74.7652 70.2814 74.9688 68.2978 75.1449 66.5211C75.0064 66.4141 74.9427 65.9245 75.0016 65.3513C75.149 63.9163 75.4803 59.5092 75.9911 52.6109C75.9167 53.0795 75.8508 53.4716 75.7911 53.815C75.7209 54.218 75.6645 54.5265 75.616 54.7918C75.515 55.3447 75.4481 55.7126 75.36 56.3687C75.1818 57.8909 74.9354 60.2868 74.6764 62.8081C74.611 63.4447 74.419 63.9448 74.2475 63.9247C74.0759 63.9043 73.9897 63.3711 74.055 62.7344C74.0563 62.722 74.0576 62.7095 74.0588 62.697C74.3153 60.1999 74.5694 57.7271 74.7561 56.1369C74.8036 55.7324 74.8467 55.3842 74.8803 55.1228C74.9072 54.9139 74.9413 54.6531 74.966 54.5088C74.9693 54.4897 74.9757 54.4531 74.9843 54.4097C74.9845 54.4089 74.9846 54.4082 74.9848 54.4075C74.9896 54.3832 75.0138 54.2591 75.0525 54.128C75.0604 54.1015 75.0777 54.0439 75.1029 53.9777C75.1061 53.9602 75.1093 53.9428 75.1125 53.9253C75.1569 53.6822 75.2021 53.4342 75.2488 53.1655C75.4313 52.1164 75.6958 50.4521 76.1483 46.9764C76.5645 43.7798 77.1521 38.3641 77.8337 31.6014C77.7748 32.057 77.7163 32.5136 77.6582 32.9699C77.5121 34.1184 77.3682 35.2723 77.2255 36.4269C77.1709 36.8691 77.117 37.3055 77.0625 37.7501C76.9747 38.4658 76.887 39.1836 76.7996 39.9012C76.7406 40.386 76.6816 40.872 76.6227 41.3572C76.6226 41.3583 76.6224 41.3594 76.6223 41.3605C76.5405 42.0342 76.4584 42.7095 76.3754 43.39C76.346 43.6282 76.3171 43.8635 76.2885 44.0971C76.1747 45.0272 76.0632 45.9408 75.9195 46.9911C75.9004 47.1187 75.8784 47.2572 75.8612 47.3604C75.8429 47.4714 75.8249 47.5782 75.8073 47.6791C75.7919 47.7681 75.7767 47.8529 75.7623 47.9342C75.7604 47.9452 75.7585 47.9561 75.7566 47.967C75.7405 48.058 75.7254 48.145 75.7109 48.2287C75.6965 48.3123 75.6826 48.3927 75.6695 48.4721C75.6695 48.4728 75.6694 48.4735 75.6693 48.4743C75.6558 48.5572 75.6456 48.6201 75.6323 48.708C75.6156 48.8185 75.6017 48.9134 75.5859 49.0286C75.5705 49.1399 75.5552 49.2561 75.5401 49.3736C75.5251 49.491 75.5102 49.6106 75.4954 49.732C75.4807 49.8535 75.4658 49.977 75.4512 50.1016C75.4365 50.226 75.422 50.3521 75.4074 50.4789C75.3927 50.6058 75.3779 50.7341 75.3632 50.8629C75.3291 51.1597 75.266 51.441 75.1864 51.6442C75.1067 51.8474 75.0176 51.956 74.9375 51.9466C74.8575 51.9371 74.7924 51.81 74.7559 51.5931C74.7195 51.3762 74.7148 51.0868 74.7418 50.7893C74.7492 50.7083 74.7565 50.6268 74.7639 50.5451C74.7683 50.4966 74.7729 50.4476 74.7774 50.3989C74.7895 50.2677 74.8015 50.1352 74.814 50.0019C74.8265 49.8687 74.8395 49.7343 74.8528 49.5985C74.8661 49.4622 74.8799 49.3242 74.8945 49.1842C74.909 49.0446 74.9244 48.902 74.9409 48.7572C74.9568 48.6159 74.9761 48.4548 74.9944 48.3109C75.0077 48.2056 75.0253 48.0761 75.0403 47.9681C75.0559 47.8554 75.0719 47.7445 75.0876 47.6377C75.1034 47.5306 75.1192 47.4271 75.1341 47.3283C75.1357 47.3177 75.1373 47.3071 75.1388 47.2966C75.1521 47.2092 75.1649 47.1248 75.1767 47.0451C75.19 46.956 75.2021 46.8715 75.2133 46.7913C75.2257 46.7029 75.2325 46.6492 75.2407 46.5832C75.3388 45.71 75.4455 44.6291 75.5474 43.5986C75.5602 43.469 75.573 43.3403 75.5856 43.2128C75.6523 42.5359 75.7184 41.8603 75.7845 41.1852C75.8326 40.6945 75.8806 40.2032 75.9289 39.7114C76 38.9876 76.0716 38.2617 76.1436 37.5366C76.1883 37.0862 76.2324 36.6441 76.2774 36.1949C76.3949 35.0219 76.5143 33.8452 76.6366 32.6673C76.7588 31.4911 76.8845 30.3076 77.0148 29.1239C77.1447 27.9447 77.2846 26.7201 77.4289 25.5385C77.5352 24.6699 77.6577 23.7807 77.7745 22.9585C77.8373 22.5166 77.8995 22.0839 77.961 21.6576C77.9613 21.6562 77.9615 21.6547 77.9618 21.6533C78.0158 21.2791 78.0691 20.9097 78.1214 20.5428C78.2337 19.7563 78.341 18.9835 78.4437 18.2102C78.5463 17.4381 78.644 16.6689 78.7377 15.8935C78.8306 15.1239 78.9206 14.341 79.0055 13.5653C79.0909 12.7858 79.1708 12.02 79.2517 11.215C79.3576 10.1565 79.4579 9.10494 79.5599 8.02523C79.661 6.95341 79.7613 5.87279 79.8618 4.78929C79.8969 4.41058 79.9323 4.03114 79.9675 3.65123C79.9676 3.64976 79.9678 3.6483 79.9679 3.64683C80.0255 3.02536 80.0831 2.40254 80.141 1.77917L81.1802 2.92819C81.0983 2.92882 81.0164 2.92946 80.9344 2.93009C79.8413 2.93849 78.7451 2.94649 77.6448 2.95297C76.5447 2.95943 75.4379 2.9645 74.3253 2.9664C73.2126 2.96814 72.0699 2.96709 70.9219 2.95694C69.8979 2.94818 68.8657 2.93649 67.8565 2.9249C67.59 2.92185 67.3234 2.91879 67.057 2.91574C65.7924 2.90147 64.5682 2.89008 63.3576 2.88797C62.1479 2.88561 60.939 2.89207 59.719 2.90567C58.5028 2.91922 57.2712 2.9395 56.0296 2.96396C54.7827 2.98853 53.5518 3.01686 52.296 3.04789C51.0498 3.07879 49.7977 3.11197 48.5304 3.14707C47.8259 3.16651 47.0764 3.18437 46.3683 3.19956C45.6532 3.21491 44.9428 3.22847 44.2414 3.24107C43.9568 3.24619 43.6735 3.25107 43.3922 3.25602C42.9821 3.26325 42.5755 3.2703 42.1753 3.27769C41.4999 3.29017 40.841 3.30352 40.2009 3.3192C39.561 3.33487 38.94 3.35309 38.3401 3.37535C37.7193 3.39848 37.2075 3.422 36.5954 3.45561C35.1047 3.52044 34.1809 3.54035 33.1544 3.56273C32.9523 3.56714 32.7457 3.57183 32.5305 3.57677C31.2997 3.60188 30.0701 3.6206 28.8566 3.63476C27.6313 3.64893 26.4252 3.65849 25.2036 3.66405C23.9938 3.66959 22.7753 3.67091 21.5617 3.66863C20.35 3.66636 19.1403 3.66038 17.9275 3.65063C16.7156 3.64091 15.4787 3.6271 14.2911 3.61034C13.6048 3.60069 12.8757 3.58783 12.1985 3.57464C11.71 3.56514 11.2284 3.55515 10.7563 3.54534C10.5635 3.54133 10.3719 3.53734 10.1821 3.53344C9.52767 3.51999 8.8916 3.50752 8.27721 3.49803C7.66267 3.48852 7.06796 3.48184 6.48607 3.47942C5.90315 3.47697 5.33287 3.47878 4.76229 3.48491C4.17083 3.49148 3.67972 3.50027 3.05176 3.51635C2.73556 3.52455 2.42431 3.53282 2.11473 3.5411L3.76372 1.71797C3.77523 1.8081 3.78672 1.89812 3.79821 1.98804C3.87402 2.58153 3.94973 3.17069 4.0265 3.76415C4.10317 4.35683 4.17946 4.94198 4.25683 5.53006C4.2817 5.71911 4.30797 5.91877 4.33308 6.1084C4.41068 6.69426 4.48815 7.27338 4.56667 7.85178C4.64504 8.42912 4.72378 9.00104 4.8036 9.57043C4.88374 10.1422 4.96384 10.7043 5.04701 11.2773C5.1885 12.2513 5.30267 13.1857 5.39853 14.0044C5.49522 14.8329 5.58055 15.6076 5.66348 16.3617C5.67901 16.5029 5.69455 16.6442 5.71008 16.7854C5.77681 17.3937 5.84223 17.992 5.90784 18.5812C5.98866 19.3075 6.06966 20.0203 6.15266 20.7353C6.2349 21.444 6.31972 22.1596 6.40567 22.864C6.49248 23.5751 6.57737 24.2548 6.67131 24.9871C6.76406 25.7113 6.86397 26.4463 6.97327 27.2519C7.08163 28.0502 7.19475 28.8879 7.30535 29.7368C7.41593 30.5847 7.52448 31.4465 7.62776 32.3025C7.73131 33.1603 7.83099 34.0213 7.92558 34.8707C8.0207 35.7247 8.11152 36.574 8.19902 37.4192C8.28634 38.2624 8.37353 39.1338 8.45256 39.9497C8.58054 41.2707 8.70593 42.586 8.83084 43.9037C8.95499 45.2142 9.07867 46.5289 9.20159 47.8408C9.32428 49.1504 9.44671 50.4615 9.56853 51.7705C9.69042 53.0802 9.81201 54.3896 9.93332 55.6971C9.96015 55.9863 9.98698 56.2755 10.0138 56.5647C10.1083 57.583 10.2027 58.6011 10.2969 59.615C10.2975 59.6219 10.2981 59.6289 10.2987 59.6359C10.4201 60.9408 10.5394 62.2221 10.6613 63.5161C10.7061 63.9911 10.7493 64.4474 10.7936 64.9112C10.838 65.3754 10.8819 65.8309 10.9268 66.2906C10.9717 66.7509 11.017 67.2084 11.0622 67.6588C11.108 68.1141 11.1534 68.5578 11.2004 69.0056C11.2435 69.4159 11.2876 69.8232 11.3357 70.2683C11.3401 70.3089 11.3445 70.3495 11.3488 70.3901C11.4015 70.8771 11.4595 71.4312 11.5097 71.9466C11.5506 72.3688 11.5914 72.7877 11.6323 73.205L9.86786 71.1721C10.7766 71.3981 11.678 71.6211 12.5908 71.8456C13.913 72.1708 15.2329 72.4929 16.5641 72.8166C17.0839 72.9431 17.6063 73.0698 18.1287 73.1967C18.9414 73.3941 19.7571 73.5923 20.5752 73.7916C21.9211 74.1195 23.2695 74.4499 24.6258 74.7857C25.9769 75.1204 27.3359 75.4606 28.6877 75.8034C30.0385 76.1459 31.4001 76.4952 32.743 76.8436C34.2391 77.232 35.7261 77.6201 37.2196 78.0108C38.7106 78.401 40.2022 78.7924 41.6871 79.1827C41.8293 79.2201 41.9715 79.2575 42.1137 79.2949L41.0851 79.2947C42.4431 78.9835 43.7984 78.6736 45.1542 78.364C46.6541 78.0215 48.153 77.6799 49.6532 77.3385C50.551 77.1342 51.4487 76.9303 52.3467 76.7264C52.8163 76.5958 53.2665 76.4704 53.6995 76.3499C56.8994 75.4594 59.2131 74.8158 62.2764 74.0112C62.5692 73.9314 62.8062 73.862 63.0947 73.7777C63.1497 73.7616 63.2081 73.7446 63.2676 73.7273C63.6447 73.6173 64.078 73.4927 64.6841 73.3323C65.8931 73.0122 67.7555 72.5594 70.1956 72.1101C70.812 71.9966 71.2384 72.0633 71.1478 72.2594C71.084 72.397 70.7823 72.5618 70.3954 72.687C71.1278 72.5276 71.8584 72.3697 72.5871 72.212C72.878 72.1491 73.1585 72.1202 73.3659 72.1328C73.5733 72.1454 73.6908 72.1982 73.6933 72.2805C73.6959 72.3627 73.5828 72.4682 73.3791 72.5749C73.1754 72.6814 72.8981 72.7802 72.6076 72.8503C71.8369 73.0361 71.0687 73.2212 70.3007 73.4073C69.5321 73.5936 68.7673 73.78 68.0004 73.9677C67.2338 74.1554 66.4676 74.3438 65.6992 74.5334C64.9337 74.7223 64.1669 74.912 63.3988 75.1027C62.6258 75.2945 61.8675 75.4834 61.0969 75.6754C60.6353 75.7905 60.168 75.9069 59.7094 76.0215C59.5385 76.0642 59.3717 76.106 59.2048 76.1477C59.0684 76.1818 58.9313 76.216 58.7902 76.2512C57.3057 76.6224 55.8072 76.9979 54.3223 77.3706C52.8303 77.745 51.3399 78.1194 49.8497 78.4942C48.3587 78.8692 46.8691 79.2444 45.3788 79.6199C44.0563 79.9532 42.7346 80.2865 41.411 80.6205L41.7874 80.6206C41.6198 80.5804 41.4521 80.5403 41.2843 80.5001C39.7941 80.1432 38.2976 79.7851 36.8047 79.4286C35.6498 79.1529 34.5046 78.8801 33.3574 78.6075C32.9027 78.5122 32.453 78.4172 32.0092 78.3231C30.7174 78.0492 29.4207 77.7878 28.1432 77.5306C30.3999 78.0576 32.2178 78.4606 33.9485 78.8441C34.1805 78.8956 34.411 78.9466 34.6408 78.9976C36.8553 79.4889 38.9973 79.9703 41.778 80.6587L41.4204 80.6587C41.5852 80.6184 41.7524 80.5777 41.922 80.5366C50.5493 78.4463 55.5528 77.2385 58.6769 76.512C61.8004 75.7855 63.1526 75.5145 64.4296 75.3225C66.234 75.0514 69.6623 74.3067 71.3745 73.8895C71.9964 73.7379 72.5319 73.7517 72.5703 73.9201C72.6086 74.0887 72.1352 74.3483 71.5132 74.4999C69.7053 74.9405 65.997 75.7524 63.8493 76.0752C62.8927 76.219 61.8034 76.4278 58.7274 77.1432C55.6511 77.8586 50.6939 79.0554 42.05 81.1497C41.8876 81.189 41.7276 81.228 41.5698 81.2665L41.6284 81.2665C38.9464 80.6024 36.8809 80.1379 34.6891 79.6516C34.4615 79.6011 34.2323 79.5504 34.0011 79.4992C33.9996 79.4988 33.9982 79.4985 33.9968 79.4981C31.8649 79.0257 29.5436 78.5114 26.4253 77.7691C20.5713 76.3756 13.0662 74.612 9.23747 73.7333L9.03365 73.6869L9.00792 73.4689C8.90439 72.5802 8.82148 71.8865 8.7663 71.4523C8.70792 70.9928 8.6496 70.5489 8.58819 70.0806C8.35247 68.2832 8.06796 66.1133 7.53113 61.2127C7.41372 60.1409 7.28182 58.8848 7.14141 57.5139C6.8507 55.4647 6.57207 53.4747 6.35123 51.7422C6.16063 50.247 5.94831 48.8719 5.73331 47.5403C5.67141 47.157 5.60821 46.7713 5.54517 46.3861C5.39313 45.4573 5.24109 44.528 5.1046 43.6214C4.99579 42.8987 4.87632 42.1423 4.75004 41.343C4.29003 38.4313 3.73878 34.942 3.27635 30.3694C2.78615 25.5222 2.40462 21.3683 2.07964 17.7853C2.30353 20.4181 2.45913 22.4523 2.58594 24.1471C2.60986 24.4668 2.63267 24.7731 2.65462 25.068C2.80966 27.1511 2.92238 28.6655 3.08681 30.2842C3.8722 38.0155 4.21661 40.9103 4.69817 44.1673C4.82496 45.0248 4.97402 45.9698 5.13456 46.9879C5.45541 49.0228 5.82235 51.3503 6.1505 53.8578C6.45613 56.1933 6.82303 58.8028 7.21165 61.5678C7.21177 61.5689 7.21188 61.57 7.21199 61.5711C7.28792 62.1114 7.36474 62.658 7.44206 63.2094C7.91044 66.5491 8.39689 70.0613 8.826 73.4872L8.86723 73.8364L9.19378 73.9109C9.21611 73.9158 9.23845 73.9207 9.26077 73.9256C9.62362 74.0057 10.0587 74.1 10.5582 74.2082C13.4412 74.8327 18.5026 75.9292 24.619 77.5303C25.9624 77.882 27.353 78.2689 28.94 78.7105C29.4234 78.845 29.9252 78.9848 30.4493 79.1301C32.7121 79.757 35.4637 80.5087 39.1402 81.4583C39.8693 81.6467 40.6372 81.8434 41.4363 82.0471L41.7617 82.0471C44.2985 81.4454 47.145 80.7593 50.0738 80.0535C51.9728 79.5958 53.9064 79.13 55.8126 78.6733C61.5707 77.2936 66.8537 76.0517 72.1267 74.8123C72.1278 74.8121 72.1288 74.8118 72.1299 74.8115C72.7529 74.6651 73.2743 74.6868 73.2937 74.8598C73.3129 75.0329 72.8236 75.2919 72.201 75.4383C66.9248 76.6785 61.6579 77.9163 55.9191 79.2914C54.0418 79.7412 52.1234 80.2034 50.2318 80.6592C47.3142 81.3624 44.4588 82.0506 41.9111 82.6551L41.2867 82.655C40.455 82.4432 39.6567 82.2387 38.9007 82.0434C35.1617 81.0776 32.3596 80.3121 30.0658 79.6765C29.5133 79.5234 28.994 79.3789 28.5011 79.2417C26.9317 78.805 25.627 78.4418 24.3528 78.1082C18.4306 76.5579 13.5606 75.5026 10.6669 74.8755C10.1537 74.7642 9.70256 74.6664 9.31878 74.5817C9.22713 74.5615 9.1354 74.5413 9.04358 74.5211L8.2952 74.3505L8.20071 73.55C7.7865 70.2581 7.31794 66.8749 6.85987 63.6087C6.78345 63.0637 6.70735 62.5215 6.63173 61.9835C6.63152 61.9824 6.6313 61.9813 6.63109 61.9802C6.24255 59.2159 5.86916 56.5594 5.55784 54.1805C5.24184 51.7658 4.9101 49.6655 4.59986 47.7009C4.43339 46.6467 4.2733 45.6314 4.1249 44.6278C3.61402 41.1726 3.25367 38.1173 2.46576 30.361ZM69.2633 72.9342C67.7491 73.2256 66.5267 73.5091 65.6206 73.7372C66.3955 73.5651 67.1687 73.3942 67.9427 73.2239C68.3832 73.127 68.8233 73.0304 69.2633 72.9342ZM7.7447 57.2635C7.77979 57.5107 7.81519 57.7598 7.85072 58.0097C7.77617 57.3174 7.70195 56.6248 7.62782 55.9334C7.5368 55.0844 7.44611 54.2355 7.35551 53.387C7.48922 54.7373 7.62018 56.0455 7.7447 57.2635ZM3.89804 30.2958C4.33414 34.6081 4.83983 37.8126 5.29597 40.7021C5.42733 41.5343 5.55459 42.3412 5.67486 43.1401C5.72473 43.4714 5.77631 43.8022 5.82926 44.1357C5.64263 42.1816 5.47236 40.3854 5.3331 38.9149C4.91758 34.5269 4.71965 32.0257 4.54571 29.8278C4.49538 29.1919 4.44694 28.5807 4.39595 27.9572C4.32327 27.4444 4.24878 26.9119 4.17626 26.3734C4.07447 25.6195 3.96757 24.8042 3.86835 24.0281C3.7687 23.2491 3.67 22.4572 3.5757 21.6792C3.48062 20.8947 3.38893 20.1172 3.29938 19.343C3.21507 18.6145 3.13271 17.8884 3.05301 17.1858C3.04845 17.1455 3.0439 17.1053 3.03934 17.0651C2.95503 16.3225 2.87316 15.6 2.79372 14.9367C2.71273 14.2614 2.64089 13.7005 2.56762 13.2036C2.47618 12.5831 2.38427 11.9464 2.29504 11.3165C2.20569 10.686 2.11839 10.058 2.03282 9.43175C1.94707 8.80413 1.86342 8.1826 1.78073 7.55925C1.75399 7.3577 1.72613 7.14685 1.69984 6.94698C1.68772 6.85485 1.67553 6.76278 1.66349 6.67095C1.78436 7.89445 1.90872 9.16485 2.03559 10.4781C2.21886 12.3752 2.40209 14.4017 2.60431 16.6371C2.9493 20.4507 3.34953 24.8721 3.89804 30.2958ZM16.0326 0.899999C15.4981 0.901627 14.7154 0.906515 13.7059 0.912817C13.4672 0.914307 13.2154 0.916076 12.9516 0.9177C12.9578 0.917851 12.9642 0.917854 12.9704 0.918005C13.6243 0.933951 14.228 0.947853 14.8797 0.960731C16.0413 0.983574 17.1698 1.00316 18.3096 1.01994C19.4538 1.03675 20.5949 1.05052 21.7373 1.06144C22.8814 1.07238 24.0288 1.08023 25.1661 1.08494C26.3145 1.08963 27.4465 1.09145 28.5893 1.08921C28.9534 1.08851 29.3186 1.08738 29.6837 1.08586C28.8686 1.07011 28.0223 1.05711 27.1284 1.04344C26.4145 1.03251 25.6698 1.02108 24.8867 1.00742C24.587 1.0022 24.2243 0.994192 23.8012 0.98484C22.1243 0.947776 19.4929 0.889467 16.0326 0.899999ZM38.8006 0.913427C39.0659 0.909279 39.3295 0.905534 39.5902 0.90244C40.3322 0.893647 41.0555 0.888619 41.7645 0.88474C42.2625 0.882039 42.7547 0.880101 43.2398 0.878026C43.4446 0.87715 43.6491 0.876188 43.8516 0.875279C44.1909 0.873761 44.5277 0.871947 44.862 0.870091C42.5169 0.851241 40.2245 0.836789 37.8355 0.832248C37.804 0.832188 37.7723 0.832305 37.7405 0.832248C38.1021 0.859877 38.4553 0.88695 38.8006 0.913427ZM46.8258 40.5567C48.8582 40.5549 50.7636 40.5975 53.17 40.6513C53.1713 40.6513 53.1726 40.6513 53.1739 40.6513C53.3792 40.6559 53.5882 40.6606 53.8013 40.6654L56.4098 40.6266L56.1804 43.2967C56.1628 43.4394 56.1449 43.5839 56.1269 43.7303C55.7997 46.3867 55.3903 49.7654 54.8515 54.6603L54.7199 56.1915L53.167 56.5876C52.6784 56.6999 52.1744 56.816 51.6543 56.9363C47.9805 57.786 44.7428 58.486 42.0797 59.0315L42.2473 58.9836C42.2443 58.9845 42.2414 58.9854 42.2384 58.9862L41.7255 59.1657L41.137 59.0341C39.3251 58.5369 37.7917 58.0982 36.5783 57.7373C36.0244 57.5726 35.4475 57.4168 33.9859 57.0509C33.0836 56.8249 31.8813 56.5281 30.1821 56.1089L29.0204 55.849L28.8776 54.6159C28.8675 54.5073 28.8571 54.3967 28.8465 54.2841C28.7509 53.2632 28.6395 52.075 28.5096 50.684C28.4231 49.7571 28.3242 48.7247 28.2157 47.6125L29.8755 49.1134C26.9562 49.1041 23.4893 49.1045 19.9389 49.1081L21.5934 47.2787C21.7798 49.1113 21.9694 50.9661 22.1547 52.7788C22.4578 55.7448 22.7495 58.5982 22.9971 61.0564L21.7279 59.5943C22.5905 59.8066 23.403 60.0071 24.1526 60.1929C28.2976 61.2203 32.2913 62.2355 36.6328 63.3394C38.3491 63.7758 40.1198 64.226 41.9758 64.6963L41.2457 64.6921C41.261 64.6887 41.2763 64.6852 41.2916 64.6817L40.0844 66.2041C40.0844 66.2035 40.0844 66.2028 40.0844 66.2021L40.0665 64.9998L41.2748 64.6838C43.7128 64.1023 46.2964 63.4835 49.0929 62.8075C52.893 61.889 56.6119 61.1059 60.3943 60.3225C60.8019 60.2381 61.2111 60.1534 61.6207 60.0687L60.7205 61.1054C60.7308 61.0305 60.7412 60.9556 60.7516 60.8806C61.2186 57.5042 61.6961 54.0526 62.147 50.3136C62.7592 45.2368 63.1847 40.9319 63.5886 36.5581C63.6623 35.7744 63.7352 34.9897 63.8084 34.1981C63.862 33.607 63.9159 33.0105 63.9703 32.4081C64.1789 30.0981 64.3955 27.7001 64.6423 25.1008C64.87 22.703 65.1686 19.6946 65.4976 16.427L66.4077 17.4332C64.0612 17.433 61.5814 17.4306 59.0975 17.4279C58.5897 17.4273 58.0813 17.4269 57.5742 17.4264C57.5717 17.4264 57.5691 17.4264 57.5665 17.4264C52.1104 17.4202 46.7553 17.4142 42.8265 17.4276C36.5835 17.4489 34.2345 17.4993 32.2754 17.5414C31.539 17.5573 30.8572 17.572 30.0444 17.5835C27.1171 17.6249 22.6982 17.6172 18.2188 17.6095C18.2017 17.6095 18.1846 17.6095 18.1675 17.6095C17.4241 17.6082 16.8242 17.467 16.8276 17.2942C16.8312 17.1214 17.4369 16.9822 18.1803 16.9835C20.5531 16.9876 22.8683 16.9916 24.9413 16.9887C25.0488 16.8402 25.607 16.7279 26.2761 16.729C27.951 16.7319 33.081 16.62 41.1097 16.4373C40.5597 16.4102 40.0991 16.3839 39.6954 16.3588C39.2216 16.3294 38.8587 16.3042 38.5466 16.2825C37.8961 16.2374 37.4633 16.2076 36.6951 16.1858C34.9158 16.1609 32.1193 16.1558 29.1764 16.1507C28.4333 16.1494 27.8332 16.0085 27.8365 15.8357C27.8401 15.663 28.446 15.5238 29.1892 15.5251C29.2037 15.5251 29.2183 15.5251 29.2328 15.5251C32.1475 15.5301 35.0338 15.5352 36.8926 15.5617C37.3655 15.5684 37.7728 15.5764 38.0786 15.5837C38.3231 15.5894 38.6283 15.5973 38.7979 15.6075C38.8204 15.6088 38.8633 15.6115 38.9146 15.6157C38.9154 15.6158 38.9163 15.6159 38.9171 15.616C38.9458 15.6183 39.092 15.63 39.2479 15.6554C39.2794 15.6605 39.3479 15.672 39.4275 15.6905C39.448 15.6919 39.4685 15.6933 39.489 15.6947C39.775 15.7145 40.0668 15.7347 40.3827 15.7542C41.6159 15.8307 43.5694 15.9271 47.6373 16.0292C51.3787 16.1231 57.7036 16.1652 65.5956 16.1659C65.0624 16.153 64.528 16.1405 63.9941 16.1284C62.6504 16.0981 61.3005 16.0705 59.9501 16.0442C59.4328 16.0341 58.9225 16.0243 58.4025 16.0146C57.5655 15.9989 56.726 15.9835 55.8869 15.9685C55.3198 15.9583 54.7516 15.9483 54.1841 15.9383C54.1829 15.9383 54.1816 15.9383 54.1803 15.9383C53.3925 15.9243 52.6028 15.9103 51.807 15.8959C51.5284 15.8905 51.2532 15.8853 50.9799 15.8803C49.8923 15.8603 48.8238 15.8408 47.5937 15.8031C47.4441 15.7968 47.2816 15.7887 47.1603 15.782C47.03 15.7749 46.9045 15.7677 46.7859 15.7604C46.6813 15.7539 46.5815 15.7473 46.4859 15.7411C46.4731 15.7403 46.4602 15.7395 46.4474 15.7387C46.3404 15.7318 46.2381 15.7255 46.1397 15.7195C46.0415 15.7135 45.9469 15.7077 45.8538 15.7027C45.8529 15.7027 45.8521 15.7027 45.8512 15.7027C45.7539 15.6975 45.68 15.6937 45.5768 15.6892C45.4473 15.6837 45.336 15.6794 45.2011 15.6752C45.0707 15.6711 44.9346 15.6674 44.7972 15.6642C44.6599 15.661 44.52 15.6582 44.378 15.6557C44.2359 15.6531 44.0914 15.6508 43.9459 15.6487C43.8004 15.6465 43.653 15.6447 43.5048 15.6429C43.3565 15.641 43.2066 15.6391 43.056 15.6374C42.7093 15.6332 42.3769 15.5986 42.1329 15.5397C41.8889 15.4808 41.7531 15.403 41.7546 15.3224C41.7563 15.2418 41.8955 15.1644 42.1418 15.1063C42.3883 15.0483 42.722 15.0147 43.0689 15.0117C43.1633 15.0109 43.2582 15.0101 43.3535 15.0093C43.4101 15.0088 43.4672 15.0085 43.524 15.0081C43.6769 15.0069 43.8315 15.0056 43.9869 15.0047C44.1422 15.0038 44.299 15.0033 44.4575 15.0029C44.6164 15.0025 44.7775 15.0024 44.9409 15.0029C45.1038 15.0034 45.2704 15.0044 45.4396 15.0062C45.6047 15.008 45.793 15.011 45.9615 15.0148C46.0846 15.0174 46.2363 15.022 46.3628 15.0261C46.4948 15.0304 46.6248 15.0351 46.75 15.0401C46.8756 15.0451 46.997 15.0504 47.1129 15.0554C47.1253 15.0559 47.1377 15.0564 47.1501 15.0569C47.2525 15.0613 47.3515 15.0656 47.445 15.0694C47.5495 15.0737 47.6484 15.0773 47.7424 15.0804C47.846 15.0839 47.9089 15.0853 47.986 15.0868C49.0062 15.0969 50.2673 15.0948 51.4697 15.0929C51.6208 15.0927 51.7711 15.0925 51.9198 15.0923C52.7096 15.0908 53.4978 15.089 54.2854 15.0871C54.8579 15.0858 55.431 15.0844 56.0048 15.0831C56.8492 15.0814 57.6962 15.0799 58.5423 15.0789C59.0678 15.0783 59.5836 15.0779 60.1078 15.0777C61.4766 15.0771 62.8499 15.0779 64.2249 15.0816C64.9505 15.0836 65.6784 15.0863 66.4077 15.0901L68.0079 15.1139L67.8289 16.6615C67.7604 17.3088 67.691 17.957 67.6205 18.6053C67.4716 19.9747 67.3118 21.3968 67.1485 22.7691C67.0281 23.778 66.8912 24.811 66.7611 25.7662C66.6911 26.2796 66.6219 26.7823 66.5535 27.2776C66.5532 27.2793 66.5529 27.281 66.5527 27.2826C66.4926 27.7174 66.4333 28.1465 66.375 28.5728C66.25 29.4865 66.1302 30.3844 66.015 31.2827C65.8999 32.1796 65.7897 33.073 65.6835 33.9736C65.6674 34.1098 65.6514 34.2465 65.6355 34.3834C65.5455 35.146 65.4578 35.9154 65.3739 36.6787C65.3717 36.6987 65.3695 36.7188 65.3673 36.7388C65.2718 37.6217 65.1815 38.4921 65.0898 39.4061C64.9667 40.6351 64.8494 41.856 64.7299 43.1096C64.6114 44.354 64.4937 45.6086 64.3757 46.8665C64.3345 47.3062 64.2929 47.7467 64.2516 48.1878C64.2514 48.1895 64.2513 48.1912 64.2511 48.1929C64.1747 49.0088 64.098 49.8267 64.0211 50.6452C63.9024 51.909 63.7829 53.1762 63.6614 54.448C63.5399 55.7195 63.4163 56.9987 63.2888 58.2842C63.1895 59.2841 63.0864 60.3048 62.978 61.3326L62.8886 62.105L62.1622 62.2721C61.875 62.3412 61.5872 62.41 61.299 62.4785C60.1422 62.7538 58.9756 63.0284 57.8348 63.2968C57.5336 63.3676 57.2324 63.4385 56.9312 63.5094C55.5019 63.8459 54.1188 64.174 52.7533 64.5074C51.3887 64.8403 50.0271 65.1815 48.6548 65.5327C47.2866 65.8828 45.9027 66.2438 44.5086 66.6115C43.6414 66.8403 42.7813 67.0688 41.9176 67.2994L42.7778 66.2021C42.7779 66.2028 42.7779 66.2035 42.7779 66.2041L42.7643 67.1167L41.9054 67.3043C41.8902 67.3082 41.875 67.3121 41.8597 67.316L41.3318 67.313C40.8118 67.196 40.2902 67.079 39.7648 66.9615C38.3523 66.6457 36.9327 66.3305 35.4955 66.0129C34.6966 65.8363 33.8472 65.6456 33.0452 65.4638C32.2353 65.2803 31.4311 65.0964 30.6373 64.914C30.3152 64.84 29.9947 64.7661 29.6763 64.6928C29.2122 64.586 28.7521 64.4801 28.2991 64.3762C27.5347 64.2009 26.7886 64.031 26.0631 63.8686C25.338 63.7063 24.6335 63.5516 23.9518 63.4068C23.2463 63.257 22.6637 63.1378 21.9655 63.0006C21.5962 62.9242 21.2578 62.8533 20.9423 62.7863L19.8213 62.4926L19.7265 61.3858C19.5734 60.2366 19.4714 59.3831 19.3605 58.4571C19.3326 58.2241 19.3039 57.9859 19.2739 57.7378C19.1058 56.3184 18.9441 54.8997 18.7888 53.4992C18.6321 52.0851 18.4823 50.6928 18.3347 49.282C18.2769 48.7307 18.2197 48.1778 18.163 47.6242L17.9922 45.6315L19.9389 45.6604C20.7927 45.659 21.6478 45.6591 22.5009 45.6605C23.9078 45.6627 25.3124 45.6687 26.7206 45.6785C27.768 45.6857 28.8315 45.6952 29.8755 45.7065L31.4734 45.7303L31.6055 47.271C31.6376 47.6282 31.6692 47.983 31.7003 48.3342C31.7706 49.1281 31.8426 49.9716 31.9083 50.7553C31.9557 51.3206 32.0018 51.878 32.047 52.4243C32.0655 52.6475 32.0838 52.8693 32.102 53.0889C32.1355 53.4925 32.1686 53.8901 32.2016 54.281L30.9598 52.8598C31.2929 52.9452 31.6211 53.029 31.9441 53.1109C32.6358 53.2862 33.3058 53.4535 33.9623 53.6131C34.62 53.7731 35.2644 53.9254 35.9101 54.0737C36.5795 54.2272 37.1361 54.3514 37.849 54.5055C38.3133 54.6057 38.7682 54.7036 39.2219 54.8012C39.901 54.9472 40.5753 55.0918 41.2547 55.2369C41.5066 55.2907 41.7573 55.3442 42.0075 55.3975L41.0559 55.4388C41.0588 55.4378 41.0617 55.4367 41.0646 55.4357L41.2094 55.3943C41.6251 55.2837 42.0392 55.1733 42.4545 55.0623C42.6684 55.0051 42.8942 54.9447 43.1087 54.8872C43.7714 54.7095 44.4264 54.5331 45.0804 54.3558C45.7332 54.1788 46.3798 54.0024 47.0233 53.8253C47.6696 53.6475 48.3047 53.4715 48.952 53.2904C50.0523 52.9826 51.1103 52.7088 52.0379 52.473C52.0835 52.4614 52.1289 52.4499 52.1743 52.4384L50.6067 54.232C50.6865 53.3199 50.7659 52.4636 50.8433 51.6292C50.8586 51.4649 50.8738 51.3006 50.889 51.1363C50.9549 50.4289 51.0198 49.7331 51.0826 49.0476C51.1601 48.2027 51.2345 47.3731 51.3074 46.5405C51.3797 45.7153 51.4509 44.8816 51.5187 44.0605C51.5527 43.6475 51.5855 43.2435 51.6181 42.8364L53.8013 45.2509C53.39 45.2595 52.9755 45.2687 52.5456 45.2788C51.6981 45.2986 50.8374 45.3245 49.894 45.3527C48.9592 45.3806 47.9782 45.4093 46.9847 45.4345C45.9923 45.4597 44.9841 45.4814 43.9832 45.4985C42.9802 45.5158 41.9739 45.5288 40.9816 45.5379C39.9839 45.5471 38.9922 45.5525 38.0056 45.555C37.0212 45.5575 36.0044 45.5571 35.0527 45.5541C33.5117 45.5493 31.9776 45.5424 30.4407 45.5349C28.9123 45.5273 27.3791 45.5188 25.8492 45.5098C24.322 45.5009 22.7931 45.4915 21.2667 45.4818C20.6769 45.478 20.0871 45.4742 19.4975 45.4703L17.2803 45.4374L17.0961 43.2996C17.0079 42.3666 16.9197 41.4341 16.8317 40.5024C16.8 40.1667 16.7683 39.8309 16.7366 39.4952C16.6249 38.3131 16.5133 37.1311 16.402 35.9541C16.4013 35.946 16.4006 35.9379 16.3999 35.9299C16.3551 35.4571 16.3106 34.987 16.2662 34.5183L16.0395 31.8874L18.6098 31.9256C19.6477 31.9322 20.6788 31.9384 21.7169 31.944C22.2708 31.9469 22.8031 31.9497 23.344 31.952C23.8855 31.9542 24.4168 31.9561 24.9531 31.9575C25.49 31.9588 26.0238 31.9596 26.5494 31.9596C27.0808 31.9596 27.5987 31.9589 28.1214 31.9568C28.6005 31.9551 29.0762 31.9519 29.5959 31.9486C29.6434 31.9483 29.6908 31.948 29.7382 31.9477C30.3069 31.9441 30.9538 31.9417 31.5551 31.9434C33.1477 31.9483 34.6998 31.9507 36.2799 31.9504C37.861 31.9502 39.4385 31.9475 41.0292 31.9437C41.6503 31.9423 42.2744 31.9405 42.8986 31.9388C43.8697 31.9363 44.8444 31.9338 45.822 31.9318C47.4305 31.9285 49.0424 31.9271 50.6648 31.9291C51.9926 31.9307 53.3275 31.9348 54.6597 31.9416L52.3317 34.048C52.362 33.7604 52.3924 33.4729 52.423 33.1856C52.5939 31.5766 52.7703 29.9541 52.9482 28.3531C53.0702 27.2562 53.1925 26.1633 53.3154 25.07L55.56 27.5508C54.8713 27.5425 54.1824 27.534 53.4923 27.5253C51.703 27.5028 49.9127 27.4793 48.1302 27.4551C46.3413 27.431 44.5569 27.4061 42.772 27.3807C40.986 27.3552 39.2011 27.3292 37.415 27.3025C36.346 27.2866 35.2774 27.2704 34.2082 27.254C33.6426 27.2687 33.1003 27.2831 32.5786 27.2968C28.7238 27.3976 25.9366 27.4704 22.2596 27.5205C21.9074 27.528 21.6209 27.5388 21.2723 27.5519C21.2058 27.5544 21.1352 27.5569 21.0633 27.5595C20.6077 27.5763 20.0845 27.5939 19.3567 27.605C18.8915 27.6121 18.347 27.6164 17.727 27.6142L15.5992 27.5826L15.4198 25.5314C15.2904 24.2227 15.1556 22.5738 15.0552 20.6193C15.0178 19.8929 15.1365 19.4161 15.3203 19.5546C15.4493 19.652 15.5762 20.0269 15.6533 20.4923C15.5846 19.6249 15.517 18.7597 15.4495 17.8967C15.4226 17.5523 15.4282 17.2257 15.4662 16.9902C15.5041 16.7548 15.5711 16.6295 15.6531 16.6411C15.7352 16.6527 15.8262 16.8009 15.9073 17.0533C15.9884 17.3055 16.0526 17.6408 16.0867 17.9861C16.177 18.9022 16.2669 19.8151 16.3579 20.7282C16.4489 21.642 16.5406 22.5513 16.6333 23.4633C16.6984 24.1043 16.764 24.7451 16.8299 25.3869L16.8997 26.1844L17.727 26.1967C17.9995 26.1966 18.2722 26.1965 18.5451 26.1963C19.4605 26.1955 20.3777 26.1944 21.2966 26.1926C22.2214 26.1909 23.1287 26.1884 24.0508 26.1859C24.6032 26.1843 25.1623 26.1828 25.7112 26.181C25.9158 26.1804 26.1154 26.1795 26.3151 26.1789C26.4783 26.1783 26.6424 26.1779 26.8113 26.1773C28.588 26.1712 30.3817 26.1643 32.1593 26.1569C33.9453 26.1495 35.7296 26.1416 37.5137 26.1334C39.2989 26.1251 41.0825 26.1164 42.8669 26.1074C44.6504 26.0985 46.4328 26.0893 48.2187 26.0797C49.998 26.07 51.7845 26.0601 53.5667 26.0495C54.2334 26.0455 54.8973 26.0413 55.56 26.0371L54.8216 25.2209C54.7556 25.9256 54.6898 26.629 54.6242 27.333C54.5865 27.8709 54.5485 28.4032 54.5107 28.9285C54.4004 30.4575 54.3032 31.99 54.2078 33.4998C54.4486 30.8198 54.6211 28.6649 54.7853 26.6133C54.8073 26.3382 54.8291 26.065 54.8509 25.7926C54.866 25.6042 54.8812 25.4163 54.8963 25.2284L55.56 25.962C52.9675 26.0122 50.397 26.0521 47.0186 26.0424C36.7116 26.0129 30.7353 25.9914 27.0113 25.9512C23.2881 25.911 21.6883 25.8514 20.1952 25.733C19.5271 25.68 18.6621 25.6342 17.727 25.5963L17.4505 25.5922L17.4272 25.3256C17.3029 23.3103 17.1089 20.974 16.9688 19.5829C16.8943 18.8433 16.9736 18.2321 17.1458 18.2178C17.3181 18.2038 17.5183 18.7921 17.5928 19.5318C17.7298 20.8914 17.9213 23.1485 18.0582 25.261L17.727 24.962C18.9563 25.008 20.1352 25.0674 21.0581 25.1406C22.1766 25.2294 23.4627 25.2866 27.1293 25.3262C30.7963 25.3658 36.7175 25.3869 47.0442 25.4165C50.3982 25.4261 52.9221 25.3855 55.56 25.3339L55.5213 25.291C55.5125 25.4005 55.5037 25.5101 55.4948 25.62C55.4732 25.8898 55.4516 26.1615 55.4297 26.4356C55.4295 26.4373 55.4293 26.439 55.4292 26.4407C55.2482 28.7033 55.0528 31.1458 54.7651 34.2918L54.7571 34.3858L54.6597 34.3872C54.2902 34.3904 53.9111 34.3933 53.5215 34.3959C44.9434 34.4523 33.4044 34.5618 30.6653 34.6235C30.1277 34.6357 29.608 34.6493 29.06 34.6635C26.9561 34.7182 24.4161 34.7842 18.6922 34.828C18.6648 34.8282 18.6374 34.8284 18.6098 34.8286L19.1545 34.2262C19.2878 35.4527 19.4378 36.8821 19.5978 38.439C19.812 40.006 20.0206 41.5431 20.2095 42.9846L19.4975 42.3411C20.252 42.3188 20.9803 42.2993 21.6731 42.2834C23.4227 42.2434 25.036 42.1697 26.5993 42.089C27.0493 42.0658 27.5023 42.0415 27.9545 42.0173C29.0453 41.959 30.1365 41.9007 31.1998 41.8556C32.0474 41.8196 32.935 41.7764 33.8731 41.7307C37.2904 41.5644 41.3855 41.365 46.7219 41.3624C49.2384 41.3612 51.5938 41.3676 53.8013 41.3782L55.6322 41.351L55.4712 43.2251C55.1815 45.9646 54.9084 48.4741 54.6562 50.7793C55.0046 47.7313 55.2908 45.38 55.532 43.4216C55.5398 43.3585 55.5475 43.2958 55.5552 43.2336L55.7243 41.2652L53.8013 41.2938C53.4971 41.2871 53.2033 41.2805 52.9187 41.2742C50.4942 41.22 48.7315 41.1807 46.8424 41.1823C37.8193 41.1902 34.435 41.2433 30.6164 41.3966C29.611 41.4369 28.5019 41.4907 27.307 41.5485C24.9856 41.661 22.3395 41.7891 19.4975 41.8656L20.6826 42.9368C20.6722 42.8558 20.6618 42.7747 20.6515 42.6935C20.3225 40.1083 19.9336 37.2336 19.5208 34.1891L18.6098 35.1969C18.7613 35.1917 18.9131 35.1866 19.0653 35.1814C19.0666 35.1814 19.0679 35.1814 19.0692 35.1814C19.7022 35.1599 20.3426 35.1382 20.9886 35.1164C24.9273 34.9837 29.0699 34.8502 33.1027 34.7661C33.534 34.7571 34.0507 34.7447 34.6439 34.7304C38.0677 34.6478 44.0785 34.5028 51.4187 34.5958C52.4574 34.6089 53.5222 34.6316 54.6597 34.6593L55.0072 34.6541L55.0358 34.3189C55.1136 33.6955 55.1952 33.0503 55.2805 32.3753C55.3536 31.7974 55.4296 31.1974 55.5082 30.5709C55.6994 29.0472 55.9104 27.3386 56.1446 25.3535L56.2005 24.6979L55.56 24.7074C54.011 24.6802 52.2952 24.6557 50.3702 24.6368C46.7318 24.6009 42.2976 24.5837 37.6932 24.5657C35.4252 24.5568 33.1159 24.5475 30.8399 24.5361C26.2705 24.513 21.9545 24.4809 17.727 24.4458L18.5717 25.2084C18.3719 23.0849 18.1752 20.9837 17.9786 18.8839C17.9785 18.8826 17.9783 18.8814 17.9782 18.8801C17.9089 18.1403 17.9944 17.5465 18.1688 17.5549C18.3432 17.5635 18.5408 18.17 18.6101 18.9094C18.8042 20.982 18.9981 23.0534 19.1948 25.1445L17.727 23.8195C21.9759 23.8549 26.3059 23.8873 30.8912 23.9104C33.1326 23.9217 35.4238 23.9309 37.683 23.9397C42.3098 23.9578 46.8056 23.9752 50.4779 24.0114C52.3545 24.0299 54.0362 24.0536 55.56 24.0799L56.8845 24.0602L56.769 25.4161C56.5216 27.5189 56.2994 29.318 56.0994 30.9123C56.0165 31.5727 55.938 32.1936 55.8635 32.7829C55.7929 33.3415 55.7258 33.8719 55.6619 34.3817L55.5858 35.2747L54.6597 35.2885C53.448 35.2583 52.353 35.2341 51.279 35.2205C44.1717 35.1305 38.3882 35.2697 34.9516 35.3523C34.3421 35.367 33.8063 35.3797 33.3501 35.3893C29.3965 35.4717 25.3173 35.603 21.3822 35.7356C20.7438 35.7572 20.1085 35.7786 19.4782 35.8C19.4769 35.8001 19.4756 35.8002 19.4743 35.8003C19.1851 35.8102 18.8969 35.82 18.6098 35.8297L20.1504 34.1254C20.5438 37.028 20.9195 39.8121 21.2397 42.3285C21.263 42.5117 21.2863 42.6932 21.3097 42.8733L19.4975 41.2352C22.096 41.1616 24.3903 41.05 26.5454 40.9452C27.7826 40.885 28.9742 40.8273 30.1509 40.7801C34.202 40.6175 37.7736 40.5646 46.8258 40.5567ZM15.7603 21.8334C15.844 23.2673 15.9456 24.485 16.0423 25.4676L16.1733 26.9653L17.727 26.9885C17.97 26.9894 18.1987 26.9892 18.413 26.9882C18.1842 26.9838 17.9556 26.9793 17.727 26.9748L16.1859 26.9519L16.0559 25.4662C15.999 24.7764 15.9427 24.0875 15.8866 23.3981C15.8442 22.8761 15.8021 22.3547 15.7603 21.8334ZM18.9977 38.7201C18.9584 38.4328 18.9188 38.1435 18.879 37.8532C18.9653 38.6571 19.0512 39.4612 19.137 40.264C19.2368 41.1972 19.3362 42.1302 19.4356 43.0629L19.4403 43.1181L19.4975 43.1189C19.5504 43.1187 19.6033 43.1184 19.6562 43.1181C19.6033 43.118 19.5504 43.118 19.4975 43.1179L19.4413 43.1171L19.4366 43.0628C19.2856 41.5511 19.1379 40.0866 18.9977 38.7201ZM46.7347 41.9883C41.7022 41.9908 37.9413 42.1733 34.5501 42.3381C33.5735 42.3855 32.6265 42.4314 31.6895 42.4711C31.301 42.4876 30.9128 42.5058 30.5215 42.5251C32.8006 42.5349 34.8956 42.5452 36.6106 42.5538C41.7281 42.5794 44.6407 42.6327 47.2002 42.6796C47.9406 42.6931 48.6524 42.7061 49.3786 42.7177C49.9795 42.6967 50.6034 42.6759 51.2339 42.6576C52.0592 42.6334 52.9471 42.6102 53.8013 42.59L54.3103 42.5825L54.2655 43.1035C54.2609 43.1628 54.2564 43.2219 54.2518 43.2808C54.1814 44.1899 54.1073 45.1135 54.0318 46.0203C53.9558 46.9346 53.8779 47.8403 53.7986 48.7417C53.7241 49.5899 53.6482 50.435 53.5747 51.2527C53.5705 51.2995 53.5663 51.3463 53.5621 51.3932C53.4845 52.2575 53.4089 53.0983 53.3436 53.8712C53.3251 54.0917 53.3077 54.3019 53.2916 54.5029L53.2534 54.9478L52.8022 55.0629C52.301 55.1937 51.859 55.3125 51.4551 55.4263C50.7544 55.6236 50.035 55.8243 49.3233 56.0211C48.6108 56.2181 47.9009 56.4127 47.1928 56.6052C46.4832 56.7982 45.7803 56.988 45.0752 57.1772C44.8472 57.2384 44.6087 57.3022 44.3826 57.3627C44.2784 57.3905 44.1743 57.4184 44.0704 57.4462C45.4592 57.1161 46.9014 56.7745 48.3924 56.423C49.8144 56.0878 51.301 55.743 52.8779 55.3791L53.5576 55.2058L53.6151 54.5356C53.7055 53.7074 53.7989 52.8549 53.8954 51.9745C54.1859 49.3242 54.5041 46.4206 54.8487 43.1623L54.9497 41.9868L53.8013 42.0039C51.6141 41.9934 49.2686 41.9871 46.7347 41.9883ZM28.9208 48.4291C29.1867 48.4284 29.5056 48.4271 29.8755 48.4254L28.9004 47.5435C28.9521 48.034 29.0138 48.6146 29.0845 49.2807C29.1137 49.5563 29.1448 49.847 29.1771 50.1516C29.1765 50.1444 29.1758 50.137 29.1752 50.1298C29.115 49.3728 29.0586 48.674 28.9955 47.9198C28.9848 47.7919 28.9742 47.6644 28.9635 47.5372L29.8755 48.3619C28.6612 48.3418 27.4745 48.3243 26.2769 48.3092C24.9483 48.2924 23.6234 48.2786 22.297 48.2677C21.5113 48.2612 20.7242 48.2558 19.9389 48.2515L20.7411 47.3645C20.7925 47.9044 20.8443 48.4433 20.8964 48.9802C21.0254 50.3074 21.1553 51.6153 21.2904 52.9354C21.3335 53.3559 21.3771 53.7777 21.4211 54.1993C21.342 53.2561 21.2564 52.2772 21.166 51.243C21.0938 50.4172 21.0186 49.5558 20.941 48.6497C20.9114 48.303 20.8771 47.8831 20.8372 47.3934C20.8362 47.3807 20.8351 47.368 20.8341 47.3552L19.9389 48.345C21.8877 48.3821 24.9292 48.4396 28.9208 48.4291ZM25.0594 61.144C25.3594 61.2136 25.6576 61.2831 25.9522 61.3524C26.7909 61.5498 27.6075 61.7456 28.4079 61.9386C28.97 62.0742 29.5254 62.2089 30.0728 62.3415C30.3039 62.3974 30.5347 62.4532 30.7632 62.5086C31.1462 62.6012 31.5263 62.6929 31.9037 62.7839C29.2642 62.1149 26.683 61.4647 23.9906 60.7973C23.9551 60.7885 23.9193 60.7799 23.8835 60.771C24.2846 60.8982 24.6764 61.0225 25.0594 61.144Z" fill="#FFD170"/>
</svg>
