<svg width="59" height="81" viewBox="0 0 59 81" fill="none" xmlns="http://www.w3.org/2000/svg">
<path d="M29.2467 1.87632C28.774 1.98279 28.3019 2.02829 27.8156 1.98191C27.7049 1.97143 27.7153 1.88914 27.6697 1.87583C27.586 1.85125 27.4455 1.94004 27.4258 1.94004C27.3036 1.94117 27.3514 1.79715 27.3349 1.7916C27.1515 1.73313 27.2043 1.89718 27.029 1.91294C26.8006 1.93351 26.5076 1.90417 26.2325 1.8961C26.1358 1.89287 26.1788 1.78323 25.9703 1.79246C25.8226 1.79891 25.3694 1.92388 25.1607 1.79038C25.1595 1.73997 25.1859 1.68432 25.197 1.6323C24.8978 1.84239 24.7908 1.83317 24.3667 1.78196C24.2996 1.77389 24.2361 1.86021 24.1179 1.82835C23.9998 1.79646 23.9948 1.6634 23.7572 1.66501C23.673 1.6659 23.6218 1.75974 23.4926 1.76377C23.1251 1.77546 22.4253 1.65891 22.1237 1.65488C21.5297 1.64682 21.2065 1.80696 20.679 1.75132C20.6384 1.74728 20.7276 1.64445 20.6532 1.64243C20.5781 1.64041 20.4999 1.77666 20.4814 1.77988C20.282 1.81495 19.8606 1.63243 19.7497 1.65451C19.4801 1.70856 19.7457 1.7686 19.3721 1.79441C19.0163 1.81897 18.5251 1.64159 18.1725 1.6069C17.7638 1.5666 17.632 1.82427 17.3242 1.55527C16.5836 1.56604 15.8409 1.57396 15.0986 1.58228C14.7679 1.58615 14.4441 1.60086 14.1157 1.62713C14.115 1.57343 14.1149 1.51967 14.1149 1.46593C14.0344 1.50845 13.9546 1.55169 13.8757 1.59509C13.8847 1.55428 13.8933 1.51349 13.9026 1.47309C13.5262 1.65884 13.1998 1.7761 12.7476 1.80634C12.7387 1.80698 12.7444 1.69771 12.7368 1.69617C12.6322 1.69276 12.534 1.79348 12.443 1.79067C12.2233 1.78276 11.8099 1.63527 12.03 1.87914C11.5235 1.92674 10.9751 2.17834 10.5046 2.27932C10.3008 2.32295 10.1841 2.18609 10.0857 2.21129C9.9875 2.23697 10.0861 2.35552 10.0546 2.37307C9.86589 2.47621 9.54075 2.60298 9.44304 2.46859C9.42828 2.54521 9.4122 2.62348 9.39839 2.70058C9.35009 2.52185 8.77533 2.86378 8.62186 2.94102C8.59328 2.95447 8.55376 2.88595 8.53271 2.89751C8.29821 3.02881 8.29887 3.1695 8.12109 3.31484C8.05894 3.36647 8.09824 3.184 7.94956 3.33769C7.93691 3.35145 8.00609 3.45397 7.7972 3.577C7.46166 3.7712 6.87512 4.224 6.47606 4.45895C6.44307 4.47836 6.45161 4.29925 6.33318 4.43127C6.29046 4.47918 6.37351 4.53633 6.25543 4.63164C5.80127 5.00027 5.25779 5.3479 4.9111 5.84929C4.84652 5.75869 4.90715 5.51626 4.73304 5.80019C4.70588 5.84592 4.80375 5.88407 4.79062 5.90351C4.68426 6.05965 4.52403 6.13421 4.42032 6.3132C4.39007 6.36615 4.43898 6.42692 4.40545 6.49534C4.35657 6.59643 4.24109 6.56487 4.19764 6.69347C4.13092 6.89573 4.19637 6.97937 3.88616 7.05589C3.06277 8.1947 2.48079 9.46524 1.99041 10.7697C1.9288 11.1733 1.90159 11.5464 1.84246 11.9572C1.82559 12.078 1.68404 12.076 1.69603 12.2784C1.69735 12.3251 1.79869 12.6519 1.5158 12.6611C1.5282 12.7518 1.52228 12.8072 1.52842 12.8843C1.57582 12.8318 1.62424 12.7784 1.67241 12.7297C1.58771 13.0398 1.6638 13.3048 1.69451 13.585C1.71817 13.79 1.60535 13.6397 1.6118 13.7657C1.61865 13.8922 1.6438 13.9482 1.49757 14.1052C1.56559 14.1578 1.5857 14.2019 1.58566 14.2525C1.58569 14.3242 1.54479 14.4088 1.54536 14.5436C1.54546 14.5685 1.61374 14.7084 1.60675 14.8265C1.60175 14.9113 1.49939 14.9432 1.52453 15.0788C1.52777 15.1019 1.67882 15.3775 1.70062 15.4651C1.73275 15.6025 1.63004 15.8436 1.6326 15.8715C1.66584 16.2725 1.82436 16.3984 1.66995 16.721C1.80703 16.7517 1.93059 16.9661 1.96566 17.1532C2.0053 17.3869 1.89775 17.9348 2.1838 17.9118C2.1549 18.2155 2.21667 18.1646 2.33439 18.4739C2.43629 18.7564 2.67036 19.5334 2.80374 19.7447C2.9308 19.9569 3.01171 19.778 3.07519 19.8539C3.1804 19.9765 3.03982 19.9559 3.09379 20.0504C3.24781 20.3169 3.40553 20.5353 3.60646 20.7533C3.54815 20.8101 3.49036 20.8683 3.43278 20.926C3.46347 20.9243 3.49413 20.9224 3.52477 20.9205C3.55924 20.974 3.60051 21.0323 3.63185 21.0823C3.64466 20.4768 3.87497 21.4915 4.06135 21.7291C4.20825 21.9319 4.60016 22.1421 4.80675 22.3156C4.85702 22.3581 4.76301 22.3827 4.77348 22.3913C4.8985 22.4918 4.95725 22.4695 5.09787 22.6282C5.1722 22.7118 5.17595 22.8693 5.25317 22.9483C5.82075 23.5278 6.4954 23.9407 7.15852 24.3807C7.2712 24.4553 7.29652 24.6301 7.39229 24.6953C7.52958 24.7884 7.67403 24.7511 7.80618 24.8289C7.93722 24.9065 8.06598 25.129 8.16735 25.1623C8.26801 25.1958 8.17259 25.0006 8.32256 25.122C8.39192 25.1776 8.21139 25.1856 8.30545 25.2398C8.60141 25.4114 9.0783 25.5164 9.36401 25.7612C9.36049 25.7293 9.35064 25.6977 9.34363 25.6655C9.68938 25.8292 9.98055 26.0163 10.3543 26.1572C10.4851 26.2071 10.7477 26.207 10.8778 26.2468C11.0078 26.2869 11.043 26.3895 11.1475 26.4218C11.1904 26.4351 11.195 26.3538 11.2235 26.3635C11.5796 26.483 11.7492 26.6703 12.1432 26.7366C13.1086 26.8955 14.1066 26.961 15.0986 26.9253C15.6058 26.9078 16.113 26.8905 16.6176 26.873C16.6791 26.8709 16.7205 26.7673 16.8103 26.752C16.9487 26.7283 16.9554 26.8198 16.9739 26.823C17.0945 26.8432 17.0453 26.7585 17.2072 26.7585C17.5636 26.7585 18.1385 26.8335 18.4937 26.8271C19.3123 26.8122 20.0005 26.7315 20.8031 26.6907C20.861 26.6875 20.8218 26.8101 20.9221 26.8117C21.6292 26.8246 21.7789 26.7072 22.6591 26.7403C23.5393 26.7734 25.2007 26.8476 26.2311 26.8646C26.2311 26.8648 26.2311 26.8651 26.2311 26.8654C26.5554 26.6388 26.9751 26.6951 27.3235 26.8665C25.3144 27.4255 23.3921 27.1767 21.2463 27.1989C19.2518 27.2192 17.1409 27.5392 15.0986 27.5748C14.8285 27.5794 14.5624 27.5722 14.2977 27.552C14.0812 27.535 14.0045 27.3999 13.8232 27.4122C13.7924 27.4142 13.863 27.52 13.7683 27.5221C12.4508 27.5464 11.13 27.0198 9.92336 26.6391C9.59626 26.5353 9.50558 26.6179 9.2122 26.5268C9.28201 26.4994 9.33532 26.4622 9.39829 26.431C8.19201 25.7573 6.97496 25.1267 5.90672 24.2351C5.85889 24.1948 5.9213 24.1057 5.87374 24.0613C5.77921 23.9725 5.60701 23.9829 5.51747 23.9104C5.40127 23.8158 5.43951 23.7341 5.33433 23.6464C5.28312 23.6034 5.2414 23.6784 5.14412 23.5685C5.13602 23.5591 5.18953 23.4904 5.1117 23.4319C4.89692 23.2741 4.46611 22.9337 4.30324 22.7817C4.09272 22.59 4.04754 22.3304 3.98732 22.2438C3.82483 22.0078 3.72355 22.0952 3.57454 21.901C2.52181 20.5076 1.91363 18.9251 1.48659 17.2263C1.45859 17.1206 1.22202 16.7518 1.19151 16.5456C1.17964 16.4768 1.15935 16.1129 1.15619 16.0594C1.13662 15.8403 1.20492 15.6404 1.21161 15.5202C1.22432 15.2872 1.0661 15.0372 1.0456 14.909C1.01339 14.7204 1.0165 14.4017 1.02317 14.2525C1.02418 14.2265 1.02513 14.2056 1.02574 14.1915C1.03678 13.963 1.21055 14.042 1.1739 13.8795C1.16339 13.8315 1.02725 13.8774 1.03412 13.7078C1.04096 13.5661 1.14529 13.5138 1.1697 13.4189C1.1938 13.3244 1.05335 13.1347 1.06329 13.0742C1.11629 12.7614 1.23479 12.6335 1.29229 12.2985C1.32156 12.0155 1.56482 10.7225 1.57925 10.6081C1.57077 10.0867 1.39419 10.8969 1.38209 10.9423C1.28618 11.1764 1.23375 11.1274 1.29179 11.3998C0.870788 11.5426 1.29699 12.4199 0.842256 12.555C1.10479 12.8018 0.939426 12.9535 0.86155 13.1694C0.756297 13.4676 0.943908 13.2488 0.930054 13.47C0.924346 13.5575 0.779671 13.803 0.795591 13.9368C0.809589 14.0562 0.892872 14.1142 0.913488 14.2525C0.915816 14.268 0.917382 14.2844 0.918018 14.3021C0.930113 14.6169 0.893051 14.8642 0.789448 15.1402C0.846744 15.1852 0.904051 15.2262 0.961733 15.2692C0.918494 15.4548 0.879669 15.6419 0.845356 15.8324C0.888527 15.7973 0.93224 15.7625 0.97569 15.728C0.988744 15.7802 1.00175 15.8324 1.01505 15.8842C0.967724 16.069 0.927938 16.2452 0.88739 16.4407C1.24615 16.8828 0.988658 16.7806 1.01301 17.0626C1.04091 17.3439 1.23499 17.46 1.29274 17.6643C1.37287 17.9408 1.4306 18.0599 1.51267 18.3378C1.56019 18.4985 1.51677 18.818 1.66307 18.516C1.85556 19.0013 2.20502 19.6188 2.33571 20.074C2.37431 20.2093 2.22157 20.0818 2.22407 20.1067C2.23888 20.2323 2.39447 20.2616 2.43716 20.3756C2.50678 20.5657 2.62558 20.9532 2.69328 21.1005C2.78795 21.3147 3.12404 21.5232 3.15458 21.5451C3.32482 21.6751 3.25014 21.796 3.29655 21.8442C3.5631 22.1148 3.65888 22.1401 3.51453 22.4089C3.67063 22.4128 4.0851 22.5901 3.99793 22.797C4.13777 22.6785 4.33694 22.9495 4.51338 23.0667C4.50112 23.1311 4.48998 23.1959 4.4783 23.261C5.00956 23.3451 5.46503 24.092 5.89597 24.4758C5.90679 24.4853 6.01189 24.393 6.05988 24.4696C6.06259 24.4749 6.01762 24.5186 6.05809 24.56C6.18656 24.6983 6.69091 25.2446 6.76391 25.2894C7.01966 25.4645 7.12134 25.405 7.2848 25.4947C7.50127 25.6109 7.48549 25.7091 7.69661 25.814C7.79561 25.8628 7.94131 25.8041 8.08468 25.8998C8.16994 25.9563 8.13472 26.046 8.20359 26.0902C8.4487 26.2468 8.66492 26.2828 8.84849 26.5029C9.03442 26.2518 9.05314 26.5063 9.1622 26.5775C9.60359 26.8693 10.2568 26.9642 10.6714 27.1165C11.9659 27.5956 13.1769 27.9818 14.5532 28.0756C14.7765 28.0894 14.833 27.9373 15.0659 27.9482C15.0768 27.9487 15.0876 27.9503 15.0986 27.9527C15.1908 27.9744 15.2904 28.0638 15.4394 28.0653C15.573 28.0669 15.7643 28.0104 15.931 28.0108C15.9754 28.0108 15.9793 28.1149 16.0446 28.1157C16.5394 28.1217 17.0226 28.0478 17.5224 27.997C17.7076 27.9781 17.8222 28.116 17.7908 27.8761C17.8616 27.9349 17.9304 27.9862 17.9969 28.0443C18.2517 27.893 18.4598 28.0506 18.8045 28.0119C18.8417 28.0073 19.102 27.8414 19.2496 27.9611C19.2601 27.8757 19.2371 27.8031 19.2414 27.7257C19.3873 27.693 19.6114 27.7917 19.7099 27.8018C19.8083 27.8119 19.8741 27.7009 19.9037 27.6998C20.0164 27.697 19.9901 27.843 19.9987 27.8454C20.5237 27.9853 20.4684 27.9075 20.7854 27.6885C20.8648 27.6333 21.4038 27.7937 21.5128 27.6208C21.5177 27.6913 21.4877 27.7534 21.479 27.8208C21.6409 27.8389 21.8041 27.8575 21.9666 27.8757C21.9321 27.8079 21.8907 27.7401 21.8593 27.6719C22.191 27.7308 22.4669 27.5712 22.7383 27.5764C22.8934 27.5796 22.8745 27.7293 22.9656 27.6966C22.9834 27.6901 22.9533 27.589 23.0062 27.5809C23.4376 27.5151 23.6267 27.622 24.0588 27.6422C24.2613 27.6518 24.4385 27.468 24.729 27.5889C24.7555 27.6003 25.0405 27.7635 25.2165 27.5296C25.2725 27.6034 25.3219 27.6422 25.3638 27.7043C25.7202 27.357 25.6217 27.6974 26.1037 27.778C26.3531 27.8199 27.192 27.7591 27.4634 27.722C27.625 27.6994 27.6221 27.5629 27.6509 27.5574C27.8233 27.526 27.8234 27.6583 27.9828 27.6365C28.1422 27.6148 28.3436 27.4651 28.5073 27.4788C28.6328 27.4894 28.5339 27.6538 28.7191 27.5965C28.7575 27.5841 28.6479 27.4446 28.8432 27.4993C28.874 27.5078 29.1862 27.6587 29.2502 27.6914C29.0858 27.7789 28.6094 27.8931 28.4303 27.9285C25.3458 28.5416 19.1325 28.548 15.8388 28.4709C15.5329 28.464 15.3329 28.3205 15.1335 28.308C15.1203 28.3071 15.1088 28.3069 15.0986 28.3073C14.9464 28.3117 15.09 28.4267 14.9104 28.415C14.718 28.4013 14.5816 28.3045 14.405 28.289C13.2074 28.1832 12.0194 27.9364 10.8882 27.5947C10.5964 27.5065 10.3279 27.5351 10.062 27.4457C9.95871 27.4106 10.0002 27.2789 9.92715 27.2547C9.14421 26.9902 8.37995 26.7968 7.65304 26.385C7.35229 26.2141 7.08931 25.924 6.8104 25.7328C6.57913 25.5744 6.29537 25.4771 6.08793 25.3298C5.97543 25.2503 5.98001 25.1226 5.94551 25.0866C5.82484 24.9618 5.79542 25.0999 5.72521 25.0464C5.53178 24.8967 5.53439 24.7001 5.35323 24.5656C5.28209 24.5123 5.22739 24.5956 5.11835 24.5226C4.98061 24.4294 5.08654 24.4006 5.00066 24.3207C4.99564 24.3157 4.96616 24.384 4.91754 24.3446C4.60479 24.0926 4.20432 23.7797 3.94115 23.4905C3.39404 22.894 3.00887 22.1833 2.62078 21.5509C2.52267 21.3908 2.47335 21.4822 2.43689 21.4343C2.26321 21.2013 2.30339 21.0564 2.11809 20.8159C2.08761 20.7761 1.87581 20.6616 1.81279 20.4738C1.77863 20.3727 1.79483 20.2306 1.77172 20.1432C1.74868 20.0557 1.63742 20.0949 1.59036 19.998C1.50578 19.8214 1.60224 19.839 1.47455 19.5912C1.42342 19.4924 1.17271 19.1886 1.07876 18.9116C0.922327 18.4603 0.8405 17.8686 0.712914 17.3291C0.668932 17.1435 0.497496 16.9293 0.442213 16.6344C0.37071 16.2748 0.311959 15.6041 0.290078 15.2319C0.277211 15.0406 0.403242 15.0195 0.406955 14.9967C0.434168 14.8507 0.296781 14.9162 0.297884 14.8185C0.299836 14.6842 0.400222 14.5568 0.405389 14.4361C0.408772 14.3589 0.305186 14.3473 0.30424 14.3304C0.302658 14.3043 0.30123 14.2784 0.299948 14.2525C0.271552 13.6588 0.314063 13.1296 0.379519 12.5381C0.730311 9.22898 2.41454 6.00134 4.99709 3.879C5.2132 3.70101 5.30435 3.79591 5.48082 3.62703C5.65689 3.46025 5.67904 3.08961 6.02617 3.22277C5.99441 3.16807 5.96753 3.13216 5.93916 3.08198C6.40157 2.85591 6.77385 2.50451 7.19943 2.24342C7.51344 2.05091 7.80681 1.90553 8.11377 1.76087C8.38741 1.6342 8.40923 1.74576 8.58707 1.50677C9.80053 1.05435 11.058 0.647901 12.3341 0.573404C12.587 0.291063 12.8992 0.391416 13.3104 0.379387C13.3616 0.378176 13.2975 0.298823 13.4495 0.290076C13.6418 0.279916 13.7482 0.399868 14.0649 0.371121C14.1482 0.360843 14.7668 0.188967 15.002 0.265358C15.0326 0.274914 15.0649 0.28402 15.0986 0.292835C15.3103 0.351173 15.5781 0.392135 15.7775 0.453795C15.7449 0.397742 15.7036 0.344119 15.6673 0.288873C15.7818 0.279194 15.8969 0.269865 16.0114 0.260186C16.028 0.327539 16.0446 0.394949 16.0606 0.462706C16.1271 0.398582 16.1936 0.335248 16.2607 0.270318C16.4053 0.616321 16.2571 0.503468 16.5789 0.415952C16.7402 0.372395 16.8682 0.432848 17.0338 0.397763C17.0935 0.384867 17.1316 0.282982 17.1974 0.269952C17.3586 0.2385 17.2647 0.378729 17.3643 0.377987C17.4646 0.376777 17.6086 0.222751 17.7884 0.291315C17.6007 0.565913 18.1431 0.476334 18.1689 0.262994C18.2335 0.262599 18.2876 0.271466 18.3589 0.265435C18.2931 0.804263 18.6312 0.421885 18.7653 0.348079C18.8994 0.27438 18.894 0.419156 18.9254 0.413511C19.0158 0.397773 18.95 0.337657 19.0133 0.335627C19.4331 0.323528 19.8284 0.411914 20.2427 0.41998C20.3022 0.421128 20.2494 0.339314 20.3189 0.347347C20.3884 0.355413 20.4551 0.436858 20.5579 0.431211C20.5855 0.42978 20.5941 0.357911 20.6371 0.357845C21.5376 0.361071 22.3927 0.422301 23.3111 0.431577C23.3941 0.432384 23.4594 0.3046 23.62 0.309015C23.7806 0.313451 24.0244 0.42877 24.2238 0.437681C24.2767 0.440101 24.2911 0.333659 24.3613 0.336482C24.6 0.346181 24.8057 0.432845 25.0538 0.446959C25.4729 0.470733 25.9117 0.405797 26.337 0.468688C26.4176 0.480382 26.4047 0.569158 26.521 0.59418C26.7217 0.637334 26.6462 0.507882 26.6868 0.490539C26.8197 0.434519 26.8615 0.606572 26.99 0.562318C27.0097 0.555475 26.9816 0.453439 26.9993 0.451842C27.2726 0.434096 27.2869 0.673238 27.5775 0.544984C27.8358 0.682483 27.4043 0.729323 27.36 0.802316C27.2517 0.979744 27.5378 1.18824 27.7065 1.25521C27.8517 1.31287 27.8507 1.2024 27.9085 1.20235C28.2144 1.20195 28.6699 1.18094 28.9026 1.23336C29.0436 1.26482 28.7895 1.31083 28.8615 1.34713C28.9329 1.38338 28.9791 1.30036 29.0523 1.39108C29.1256 1.48182 29.275 1.74887 29.2467 1.87632ZM4.89195 5.47313C4.89394 4.8307 5.88383 4.01833 6.45924 3.67553C6.93437 3.37615 7.51782 3.41761 7.16313 3.06409C6.64697 3.38506 6.27481 3.70716 5.76657 4.09587C5.71307 4.13527 5.37925 4.35542 5.27037 4.44275C5.20895 4.49109 5.15353 4.43266 5.07469 4.50483C5.05744 4.52079 5.03363 4.6848 4.99782 4.7145C4.87351 4.81413 4.41902 5.03733 4.37604 5.09103C4.25596 5.23511 4.39632 5.26979 4.35769 5.34326C4.22996 5.58945 4.07152 5.485 3.94077 5.72602C3.91735 5.76954 3.93856 5.99418 3.79887 6.13086C3.74174 6.18622 3.59114 6.23926 3.55642 6.29016C3.36639 6.56617 3.24061 6.93066 3.05745 7.17086C2.90737 7.36863 2.83889 7.24463 2.75272 7.34697C2.66693 7.45046 2.70807 7.66342 2.66965 7.74445C2.60722 7.87411 2.44868 7.98495 2.42778 8.025C2.01806 8.80959 1.79273 9.56898 1.56325 10.3782C1.79554 9.85213 2.05795 9.34539 2.356 8.86656C2.37948 8.52283 2.41925 8.71871 2.55059 8.55163C2.65575 8.42075 2.47937 8.28007 2.60865 8.0991C2.60856 8.09926 2.60848 8.09941 2.60839 8.09957C2.67568 8.00596 2.92955 7.87289 3.00217 7.63681C3.00481 7.62841 2.91788 7.54884 3.01303 7.39407C3.22454 7.04694 3.5458 6.50366 3.8596 6.16482C3.95129 6.06535 4.02616 6.16356 4.13984 6.05289C4.22278 5.97265 4.22706 5.79779 4.36806 5.68012C4.54612 5.53293 4.75824 5.58967 4.67658 5.2917C4.75354 5.34918 4.81523 5.41884 4.89195 5.47313ZM16.1616 1.04988C16.1937 1.06042 16.6233 1.35799 16.4959 1.04024C16.0484 0.933335 15.5728 0.950439 15.0986 0.927496C14.9595 0.920836 14.8208 0.91268 14.6829 0.898961C14.7918 1.0537 14.9311 1.09838 15.0986 1.10355C15.2651 1.10871 15.4588 1.0722 15.6711 1.06075C15.6713 1.06075 15.6715 1.06075 15.6716 1.06075C15.6918 1.05968 15.6077 1.14179 15.722 1.12691C15.7774 1.11965 15.9899 0.99382 16.1616 1.04988ZM30.1265 1.00131C30.233 1.17688 30.2785 1.35223 30.2321 1.53283C30.2216 1.57399 30.1393 1.57011 30.126 1.58703C30.1015 1.61812 30.1902 1.67031 30.1902 1.67762C30.1914 1.72302 30.0474 1.70528 30.0418 1.71139C29.9833 1.77951 30.1474 1.75991 30.1631 1.82504C30.1837 1.90985 30.1544 2.01869 30.1463 2.12088C30.1431 2.15677 30.0334 2.14079 30.0427 2.21825C30.0491 2.27312 30.1741 2.44144 30.0406 2.51894C29.9902 2.5194 29.9345 2.50961 29.8825 2.5055C30.0926 2.6166 30.0834 2.65636 30.0322 2.81388C30.0241 2.8388 30.1104 2.86239 30.0785 2.90629C30.0467 2.95017 29.9136 2.95202 29.9152 3.04026C29.9161 3.07155 30.0099 3.09054 30.014 3.13853C30.0257 3.27503 29.9091 3.53498 29.9051 3.64701C29.897 3.86762 30.0572 3.98766 30.0015 4.18359C29.9975 4.19868 29.8947 4.16553 29.8926 4.19319C29.8906 4.22109 30.0269 4.25013 30.0301 4.25699C30.0652 4.33105 29.8826 4.48758 29.9047 4.52877C29.9588 4.62891 30.0188 4.53023 30.0446 4.66901C30.0692 4.80115 29.8918 4.9836 29.8571 5.11459C29.8168 5.26639 30.0745 5.31534 29.8055 5.42965C29.8212 5.8311 29.8308 6.23416 29.8445 6.63607C29.7909 6.63493 29.7373 6.6336 29.6836 6.63223C29.7207 6.66401 29.7579 6.69579 29.7946 6.72757C29.7547 6.72277 29.7147 6.71822 29.6752 6.71342C29.8292 6.86268 29.9087 6.99572 29.8664 7.17012C29.8656 7.17353 29.7587 7.16457 29.7559 7.16739C29.7357 7.20672 29.818 7.25066 29.7986 7.28518C29.7523 7.36863 29.5191 7.51038 29.8042 7.44797C29.7454 7.64252 29.8418 7.87113 29.7865 8.05654C29.7628 8.13677 29.5938 8.16081 29.584 8.1992C29.5744 8.23757 29.7196 8.21804 29.7251 8.23166C29.7574 8.3135 29.7514 8.4482 29.5889 8.46239C29.6538 8.47884 29.7195 8.49626 29.7848 8.51294C29.6047 8.50316 29.6791 8.75608 29.6747 8.82243C29.6739 8.83455 29.5949 8.83624 29.5957 8.84538C29.6059 8.94731 29.7297 8.97222 29.7708 9.05953C29.7853 9.09017 29.6461 9.04266 29.7062 9.12131C29.7115 9.12817 29.8365 9.12452 29.8357 9.21847C29.8345 9.36845 29.8841 9.65537 29.8224 9.83392C29.8176 9.84855 29.6813 9.80401 29.7131 9.87092C29.7244 9.89516 29.8211 9.88355 29.8219 9.94231C29.826 10.17 29.7147 10.4128 29.8071 10.6451C29.6978 10.6366 29.5752 10.5539 29.6437 10.6783C29.655 10.6981 29.7526 10.6833 29.7563 10.6922C29.7845 10.7645 29.7148 10.8271 29.7522 10.9053C29.7635 10.9284 29.8402 10.9341 29.8583 10.9629C29.8853 11.0054 29.7761 11.0242 29.8224 11.0736C29.8954 11.1508 29.999 11.1628 29.7958 11.2585C29.8087 11.8013 29.8659 12.3415 29.7764 12.8824C29.8345 13.0388 29.8994 13.1831 29.9216 13.3461C29.928 13.3941 29.7893 13.4033 29.8353 13.4799C29.8453 13.497 29.9942 13.6194 29.7139 13.6372C29.7381 13.6713 29.7389 13.6928 29.7538 13.722C29.795 13.6999 29.8366 13.677 29.8781 13.6557C29.8333 13.7792 29.9322 13.88 29.9789 13.9893C30.0132 14.0697 29.893 14.0126 29.9051 14.062C29.9168 14.1113 29.9438 14.1338 29.7999 14.1955C29.9659 14.244 29.8495 14.2762 29.845 14.3656C29.8446 14.3752 29.909 14.4307 29.8962 14.4771C29.8869 14.5105 29.7833 14.5204 29.7994 14.5734C29.8018 14.5821 29.9301 14.6941 29.9418 14.7298C29.9604 14.7853 29.8276 14.8736 29.826 14.8844C29.8026 15.0405 29.9337 15.1007 29.7179 15.2116C29.8462 15.234 29.9212 15.3265 29.9087 15.4012C29.893 15.4957 29.6308 15.685 29.9079 15.7108C29.7845 15.8201 29.8606 15.8082 29.8631 15.9378C29.8655 16.0558 29.7595 16.3681 29.7748 16.4637C29.7898 16.5593 29.9438 16.5127 29.9644 16.5506C29.9986 16.6128 29.8849 16.5792 29.8865 16.6217C29.8914 16.742 29.9131 16.8465 29.9627 16.9612C29.8829 16.9674 29.8026 16.9741 29.7228 16.9805C29.7494 16.9864 29.7761 16.9923 29.8027 16.9982C29.8019 17.0229 29.8035 17.0506 29.8011 17.0735C30.1515 16.8806 29.7752 17.2598 29.7663 17.3737C29.759 17.4697 29.9252 17.6295 29.9611 17.7349C29.9699 17.7605 29.8837 17.7429 29.8857 17.7482C29.9103 17.8099 29.9692 17.8193 29.9611 17.9023C29.9567 17.9461 29.8487 17.9909 29.8466 18.0337C29.8321 18.3476 29.9406 18.6505 29.9523 18.9624C29.9543 19.0154 29.8225 19.0612 29.8196 19.1057C29.8156 19.1695 29.9236 19.2098 29.9252 19.2696C29.9268 19.3293 29.7978 19.4153 29.8176 19.4558C29.8369 19.4962 29.9619 19.427 29.9277 19.5011C29.9119 19.5351 29.8188 19.475 29.816 19.5171C29.8071 19.6483 29.9224 19.8335 29.8107 19.9731C29.8385 19.967 29.8636 19.9586 29.8902 19.951C29.8793 20.0998 29.8123 20.2313 29.8027 20.385C29.7991 20.4387 29.8808 20.5356 29.8804 20.5884C29.88 20.6412 29.7913 20.6652 29.7889 20.7075C29.7877 20.7249 29.8671 20.7181 29.8655 20.7297C29.8445 20.8756 29.703 20.9556 29.7192 21.1083C29.778 21.6677 29.8289 22.2446 29.8821 22.8128C29.8842 22.8356 29.9878 22.851 30.0031 22.8844C30.0268 22.9358 29.9353 22.9383 29.9321 22.9451C29.9119 22.9899 29.9966 22.9716 29.9966 23.0318C29.9966 23.1641 29.9216 23.3777 29.928 23.5096C29.943 23.8137 30.0237 24.0693 30.0644 24.3674C30.0676 24.3889 29.945 24.3743 29.9434 24.4116C29.9305 24.6743 30.0479 24.7298 30.0148 25.0568C29.9818 25.3837 29.9075 26.0008 29.8906 26.3835C29.8903 26.3835 29.89 26.3835 29.8897 26.3835C30.1163 26.504 30.06 26.6599 29.8886 26.7893C29.3296 26.043 29.5784 25.329 29.5562 24.532C29.5332 23.6943 29.127 22.8013 29.1823 21.9524C29.1875 21.8727 29.3166 21.8406 29.2896 21.7734C29.285 21.762 29.1855 21.7914 29.1754 21.7565C29.0399 21.2764 29.2667 20.7645 29.2038 20.2931C29.1868 20.1659 29.0759 20.146 29.0473 20.0342C29.0997 20.0539 29.1545 20.0667 29.2073 20.0839C29.3711 19.5736 29.2981 19.0625 29.3214 18.5456C29.3227 18.5223 29.4312 18.5193 29.4352 18.4948C29.4437 18.4459 29.3243 18.3991 29.3202 18.3563C29.315 18.3005 29.4013 18.2909 29.3957 18.2394C29.3928 18.2143 29.3098 18.2218 29.3239 18.1673C29.3251 18.1627 29.4121 18.1597 29.4009 18.1234C29.3699 18.0239 29.2968 17.8207 29.2751 17.7384C29.2472 17.6332 29.3784 17.5488 29.3869 17.509C29.4099 17.4016 29.2756 17.4038 29.2755 17.3129C29.2747 16.6654 29.4275 16.0464 29.4263 15.3836C29.4262 15.342 29.2768 15.188 29.2827 15.111C29.2852 15.0851 29.3247 14.9501 29.3279 14.9299C29.3404 14.8478 29.4308 14.7769 29.4497 14.7316C29.4868 14.6438 29.3457 14.5457 29.3316 14.4979C29.3066 14.414 29.3251 14.265 29.3288 14.2298C29.3376 14.1448 29.5122 14.1729 29.4715 14.1118C29.4593 14.0938 29.3255 14.1127 29.3255 14.0491C29.3259 13.9959 29.4267 13.9743 29.4449 13.938C29.4629 13.9017 29.307 13.835 29.3109 13.8123C29.3327 13.6939 29.4349 13.6415 29.4401 13.5125C29.4441 13.4055 29.3727 12.9105 29.336 12.8694C29.172 12.6851 29.2456 12.992 29.24 13.0093C29.2082 13.1028 29.1452 13.0892 29.2654 13.1824C28.8948 13.2659 29.4719 13.5567 29.0323 13.6312C29.3251 13.7083 29.1774 13.773 29.1186 13.8542C29.0372 13.9664 29.2078 13.8809 29.209 13.9628C29.2093 13.995 29.0763 14.0885 29.0949 14.137C29.1135 14.1854 29.2155 14.2058 29.2211 14.2707C29.2316 14.3866 29.184 14.4799 29.0618 14.5773C29.1158 14.5951 29.1699 14.6118 29.2239 14.6294C29.1658 14.6966 29.1081 14.7641 29.0504 14.8313C29.0976 14.8205 29.1452 14.8098 29.1924 14.799C29.1993 14.8187 29.2057 14.8384 29.2122 14.8581C29.1412 14.9235 29.0755 14.9859 29.0021 15.0531C29.2751 15.2358 29.0388 15.1828 29.0033 15.2843C28.9679 15.3857 29.1259 15.4445 29.1267 15.5229C29.1279 15.6285 29.1477 15.677 29.1364 15.7835C29.1299 15.8453 28.9775 15.95 29.219 15.864C29.2384 16.0567 29.3058 16.3206 29.2078 16.493C29.1792 16.5439 29.1031 16.476 29.0937 16.4847C29.0489 16.5279 29.1722 16.5643 29.1546 16.6089C29.1251 16.6829 29.0291 16.8272 29.0065 16.8855C28.9738 16.9694 29.1336 17.1013 29.1453 17.1148C29.2102 17.1902 29.0775 17.2104 29.0867 17.2346C29.1399 17.3725 29.1956 17.4029 28.9158 17.4464C29.0368 17.482 29.2404 17.6316 29.0368 17.6677C29.2207 17.6686 29.1897 17.7927 29.2356 17.8691C29.1824 17.8833 29.1295 17.8977 29.0758 17.9119C29.4049 18.0712 29.1659 18.3885 29.1267 18.5982C29.1259 18.6034 29.2638 18.6128 29.2327 18.6444C29.2302 18.6464 29.1682 18.6431 29.1602 18.6643C29.1344 18.734 28.9797 19.0001 28.9783 19.0307C28.9731 19.1434 29.0759 19.1631 29.0856 19.2317C29.0985 19.322 29.0057 19.3351 29.0189 19.421C29.025 19.4612 29.1472 19.4978 29.1299 19.5611C29.1198 19.5986 29.0239 19.6023 29.0161 19.632C28.9883 19.7376 29.0489 19.8152 28.9239 19.9089C29.2291 19.9334 29.0041 19.9782 28.9811 20.0246C28.8871 20.213 29.0161 20.4478 28.9883 20.6094C28.9008 21.1138 28.7125 21.561 28.6702 22.0537C28.6633 22.1337 28.8166 22.153 28.8069 22.2369C28.8024 22.2746 28.6914 22.3135 28.6898 22.3752C28.6882 22.4248 28.7447 22.4958 28.7443 22.5578C28.7443 22.5742 28.6402 22.5757 28.6394 22.5999C28.6334 22.7837 28.7073 22.9632 28.7581 23.1489C28.777 23.2177 28.6391 23.2602 28.8791 23.2486C28.8202 23.2748 28.7689 23.3004 28.7108 23.3251C28.8621 23.4197 28.7045 23.497 28.7432 23.6251C28.7478 23.6389 28.9137 23.7356 28.794 23.7904C28.8794 23.7943 28.952 23.7858 29.0294 23.7874C29.0621 23.8415 28.9634 23.9248 28.9533 23.9614C28.9432 23.9979 29.0542 24.0224 29.0553 24.0334C29.0581 24.0752 28.9121 24.0654 28.9097 24.0686C28.7698 24.2636 28.8476 24.2431 29.0666 24.3608C29.1218 24.3903 28.9614 24.5905 29.1343 24.631C29.0638 24.6328 29.0017 24.6217 28.9344 24.6185C28.9162 24.6786 28.8976 24.7392 28.8794 24.7996C28.9472 24.7868 29.015 24.7714 29.0832 24.7597C29.0243 24.8829 29.1839 24.9854 29.1787 25.0862C29.1755 25.1438 29.0258 25.1368 29.0585 25.1706C29.065 25.1772 29.1661 25.166 29.1742 25.1857C29.24 25.346 29.1331 25.4162 29.1129 25.5767C29.1033 25.6519 29.2871 25.7177 29.1662 25.8256C29.1548 25.8354 28.9916 25.9413 29.2255 26.0067C29.1517 26.0275 29.1129 26.0458 29.0508 26.0614C29.3981 26.1938 29.0577 26.1572 28.9771 26.3362C28.9352 26.4288 28.996 26.7404 29.0331 26.8412C29.0557 26.9013 29.1922 26.9002 29.1977 26.9109C29.2291 26.9749 29.0968 26.9749 29.1186 27.0341C29.1403 27.0934 29.29 27.1682 29.2763 27.229C29.2657 27.2756 29.1013 27.2388 29.1586 27.3076C29.171 27.3219 29.3105 27.2812 29.2558 27.3537C29.2473 27.3652 29.0964 27.4811 29.0637 27.5049C28.9762 27.4439 28.862 27.2669 28.8266 27.2004C28.2135 26.0547 28.2072 23.7469 28.2842 22.5235C28.2911 22.4099 28.4346 22.3356 28.4472 22.2615C28.4597 22.1875 28.3281 22.2501 28.339 22.1829C28.3503 22.1157 28.4431 22.0667 28.4512 22.0038C28.506 21.58 28.5641 21.1529 28.5895 20.7325C28.5959 20.6234 28.489 20.5363 28.489 20.437C28.4891 20.3984 28.627 20.3972 28.6257 20.3698C28.6148 20.0742 28.4822 19.8007 28.4983 19.5067C28.5052 19.3847 28.6213 19.2528 28.6322 19.1318C28.6415 19.0322 28.5621 18.9288 28.5604 18.8392C28.5592 18.7906 28.6642 18.7649 28.6725 18.7473C28.6999 18.686 28.5717 18.7075 28.5717 18.6761C28.5721 18.5897 28.727 18.5468 28.7149 18.4658C28.71 18.4341 28.6113 18.4381 28.596 18.392C28.5766 18.3335 28.6676 18.3552 28.6709 18.3134C28.6713 18.3108 28.6008 18.319 28.5979 18.2969C28.5794 18.1542 28.5237 17.9761 28.5286 17.8385C28.5383 17.5538 28.6742 17.2729 28.7008 17.0076C28.7073 16.9407 28.6153 16.9584 28.6109 16.9372C28.5899 16.8348 28.6999 16.7982 28.6604 16.691C28.6539 16.6731 28.5266 16.6013 28.5589 16.5327C28.5762 16.4957 28.6557 16.4537 28.6742 16.4221C28.6928 16.3906 28.5758 16.3855 28.5757 16.3476C28.5753 16.2786 28.6564 16.2986 28.6419 16.1999C28.6362 16.1601 28.5254 16.0273 28.5338 15.9249C28.5475 15.7575 28.6488 15.5501 28.6504 15.3528C28.6512 15.2851 28.531 15.1982 28.5298 15.0933C28.5282 14.965 28.5555 14.7287 28.5571 14.5972C28.5579 14.53 28.6839 14.5251 28.6891 14.5171C28.7241 14.4658 28.5835 14.4865 28.589 14.452C28.5967 14.4047 28.7004 14.3605 28.7073 14.3176C28.7117 14.2901 28.608 14.2858 28.6072 14.2798C28.5729 14.0599 28.5826 13.8656 28.5713 13.647C28.5116 12.4748 28.3785 11.2915 28.4386 10.1216C28.4434 10.0235 28.5742 10.0198 28.5536 9.93361C28.5334 9.84742 28.2511 9.76415 28.5629 9.69328C28.5 9.69099 28.4551 9.69122 28.3978 9.68893C28.4865 9.51084 28.3947 9.33272 28.3834 9.15852C28.375 9.02959 28.385 8.91525 28.3919 8.79614C28.3983 8.69057 28.508 8.69969 28.3649 8.60829C28.4544 8.154 28.4326 7.69484 28.5814 7.24444C28.3471 7.13881 28.4947 7.03756 28.5294 6.89147C28.5338 6.87343 28.4483 6.89278 28.4556 6.8393C28.4645 6.77212 28.5951 6.73736 28.5879 6.62424C28.5859 6.59429 28.4411 6.37246 28.5153 6.29038C28.5895 6.2083 28.633 6.08941 28.704 6.00414C28.6479 6.01626 28.5943 6.0316 28.5391 6.04509C28.5294 6.00257 28.5201 5.95981 28.5104 5.91729C28.5777 5.91112 28.6452 5.90493 28.7129 5.89899C28.6488 5.8743 28.5855 5.84959 28.5205 5.82468C28.8665 5.77096 28.7537 5.82603 28.6662 5.70648C28.6226 5.64658 28.6831 5.59903 28.648 5.53753C28.6351 5.51537 28.5332 5.50119 28.5202 5.47676C28.4887 5.41688 28.6289 5.45178 28.6282 5.41478C28.627 5.37752 28.473 5.32402 28.5415 5.25726C28.8161 5.32695 28.7265 5.12551 28.5132 5.11591C28.5128 5.09193 28.5217 5.07183 28.5156 5.04533C29.0545 5.0698 28.6721 4.94422 28.5983 4.89438C28.5246 4.84457 28.6694 4.84659 28.6637 4.83493C28.648 4.80134 28.5879 4.8258 28.5858 4.80227C28.5737 4.64635 28.6621 4.49953 28.6702 4.34567C28.6713 4.32353 28.5895 4.34316 28.5975 4.31735C28.6056 4.29152 28.6871 4.26676 28.6814 4.22858C28.68 4.21834 28.6081 4.21512 28.608 4.19916C28.6113 3.86468 28.6725 3.54709 28.6818 3.20597C28.6826 3.17511 28.5548 3.15088 28.5592 3.09122C28.5637 3.03155 28.679 2.94103 28.6879 2.86696C28.6903 2.8473 28.5839 2.84196 28.5867 2.8159C28.5964 2.7272 28.683 2.6508 28.6972 2.55868C28.7209 2.40301 28.656 2.24001 28.7189 2.08205C28.7306 2.05211 28.8194 2.05689 28.8444 2.01371C28.8875 1.93917 28.7581 1.96722 28.7407 1.95213C28.6847 1.90276 28.8568 1.88725 28.8125 1.8395C28.8057 1.83219 28.7036 1.84261 28.702 1.83606C28.6843 1.73455 28.9234 1.72922 28.7952 1.6213C28.9327 1.52534 28.9795 1.68563 29.0525 1.70209C29.2299 1.74229 29.4384 1.63602 29.5054 1.57338C29.5631 1.51944 29.4526 1.51983 29.4526 1.49836C29.4522 1.38474 29.4311 1.21554 29.4836 1.12911C29.515 1.07675 29.561 1.17113 29.5973 1.14438C29.6336 1.11786 29.5506 1.1007 29.6413 1.0735C29.732 1.04629 29.9991 0.990792 30.1265 1.00131ZM29.532 10.5465C29.0965 10.3723 29.142 9.9103 29.1835 9.66224C29.2182 9.45647 29.5538 9.27908 29.0674 9.3216C29.0642 9.54404 29.113 9.72396 29.0981 9.95919C29.0964 9.98366 29.0513 10.1296 29.0432 10.1803C29.0388 10.2089 28.9584 10.2098 28.9593 10.2487C28.9597 10.2571 29.0646 10.304 29.0618 10.3212C29.0525 10.3799 28.8914 10.5546 28.896 10.579C28.9097 10.6466 29.0346 10.6207 29.0573 10.6499C29.1323 10.7479 28.9447 10.7588 29.0056 10.8559C29.0165 10.8733 29.18 10.9309 29.1586 11.0029C29.1497 11.0322 29.0653 11.082 29.0694 11.1044C29.0912 11.2265 29.2029 11.3628 29.1844 11.4746C29.169 11.5662 29.0428 11.5416 29.0259 11.5901C29.0094 11.6385 29.1557 11.6971 29.1642 11.7302C29.1775 11.7832 29.0944 11.8477 29.0956 11.8642C29.1202 12.1884 29.2166 12.4767 29.2513 12.7894C29.3089 12.577 29.3619 12.3649 29.4215 12.1538C29.2909 12.0341 29.4134 12.0937 29.4541 12.0148C29.4864 11.9524 29.2651 11.9373 29.2896 11.8553C29.2896 11.8553 29.2896 11.8554 29.2896 11.8555C29.3025 11.8132 29.4558 11.7215 29.3916 11.6314C29.3892 11.6282 29.2743 11.6202 29.2703 11.5528C29.2614 11.4012 29.2025 11.1689 29.2271 10.9984C29.2343 10.9483 29.355 10.9585 29.3699 10.8993C29.3807 10.8561 29.2692 10.8061 29.2941 10.7384C29.326 10.6536 29.5178 10.6129 29.2513 10.5546C29.3464 10.5498 29.4393 10.5522 29.532 10.5465ZM29.3001 5.86148C29.3106 5.84957 29.6082 5.69001 29.2904 5.73732C29.1525 5.95177 29.221 6.18363 29.1436 6.40928C29.4578 6.33224 29.3339 6.20189 29.3109 6.04368C29.3109 6.04361 29.3109 6.04354 29.3109 6.04347C29.3099 6.036 29.392 6.06723 29.3771 6.02477C29.3699 6.00419 29.244 5.92527 29.3001 5.86148ZM29.2537 0.123679C29.7264 0.0172143 30.1985 -0.0282857 30.6847 0.0180855C30.7955 0.0285717 30.7851 0.110858 30.8306 0.124168C30.9144 0.148748 31.0548 0.0599568 31.0745 0.0599568C31.1968 0.0588253 31.149 0.202851 31.1655 0.208399C31.3489 0.266872 31.2961 0.102821 31.4714 0.0870572C31.6998 0.0664895 31.9928 0.0958348 32.2679 0.103903C32.3645 0.107129 32.3215 0.216775 32.5301 0.207544C32.6778 0.201091 33.1309 0.0761223 33.3396 0.209619C33.3408 0.260028 33.3145 0.315683 33.3034 0.367705C33.6025 0.157608 33.7096 0.166825 34.1336 0.218042C34.2007 0.226109 34.2643 0.139792 34.3824 0.171654C34.5006 0.203543 34.5056 0.336602 34.7431 0.334989C34.8274 0.334097 34.8785 0.240263 35.0077 0.236231C35.3752 0.22454 36.0751 0.341088 36.3767 0.345121C36.9706 0.353182 37.2938 0.193036 37.8213 0.248683C37.8619 0.252716 37.7727 0.355552 37.8471 0.357573C37.9222 0.359589 38.0004 0.223344 38.0189 0.220118C38.2183 0.185049 38.6397 0.367571 38.7506 0.345487C39.0202 0.291443 38.7545 0.231403 39.1282 0.205591C39.4839 0.181028 39.9751 0.358414 40.3278 0.393096C40.7365 0.4334 40.8682 0.175735 41.176 0.444733C41.9165 0.433957 42.6591 0.426046 43.4013 0.417723C43.758 0.413952 44.1081 0.421685 44.464 0.441146C44.4572 0.494436 44.4499 0.547715 44.4426 0.600971C44.533 0.569777 44.6238 0.539303 44.7149 0.510069C44.6983 0.548739 44.6825 0.587531 44.6661 0.625848C45.0894 0.506283 45.4742 0.470029 45.9517 0.590215C45.961 0.592546 45.919 0.694018 45.9263 0.698013C46.0309 0.735464 46.1655 0.675563 46.2567 0.712172C46.4788 0.799019 46.8126 1.11156 46.7038 0.796014C47.2195 0.96582 47.8625 1.04369 48.3364 1.26229C48.5408 1.35636 48.5474 1.53914 48.6431 1.58409C48.739 1.62951 48.7387 1.47481 48.7761 1.48267C49.0007 1.53014 49.3476 1.67879 49.3197 1.84423C49.3866 1.80197 49.4568 1.76044 49.5254 1.71892C49.4305 1.8707 50.0981 2.09119 50.2588 2.18215C50.2885 2.19792 50.257 2.27054 50.2798 2.28117C50.5346 2.40014 50.6534 2.32389 50.8865 2.40577C50.9679 2.43495 50.7848 2.49095 51.0042 2.54658C51.0232 2.55185 51.0774 2.43667 51.3039 2.57198C51.6645 2.78339 52.3653 3.19352 52.7216 3.55175C52.7509 3.58055 52.5697 3.61256 52.7363 3.7015C52.7963 3.7343 52.8309 3.63765 52.9603 3.73988C53.4625 4.1371 53.8857 4.67627 54.3977 5.08372C54.3016 5.14134 54.0558 5.05998 54.342 5.26296C54.3879 5.29553 54.4313 5.19892 54.4508 5.21463C54.6091 5.34374 54.6733 5.52011 54.8434 5.66147C54.8938 5.70323 54.9628 5.66596 55.0287 5.71657C55.1261 5.79158 55.0749 5.90133 55.1974 5.98031C55.3886 6.10461 55.4945 6.07108 55.492 6.40818C56.4039 7.62045 57.1595 8.9811 57.5164 10.4633C57.6993 10.8666 57.8627 11.2476 57.9747 11.6967C58.007 11.8296 57.8762 11.8797 57.9579 12.0848C57.9769 12.1297 58.1759 12.4519 57.9035 12.5389C57.9399 12.63 57.948 12.6899 57.9722 12.7699C58.006 12.7033 58.0395 12.6341 58.073 12.5691C58.0729 12.9222 58.1957 13.192 58.2606 13.5031C58.3067 13.7298 58.1785 13.5735 58.1968 13.7123C58.2138 13.851 58.243 13.9156 58.1016 14.0918C58.1709 14.1475 58.1916 14.1966 58.1915 14.2525C58.1914 14.332 58.1499 14.4246 58.1439 14.5724C58.1429 14.5993 58.203 14.7582 58.1836 14.8885C58.1696 14.9819 58.065 15.0045 58.0711 15.1542C58.0728 15.1783 58.1752 15.5042 58.1753 15.6065C58.1783 15.7659 58.0143 15.9986 58.0083 16.0274C57.924 16.4562 58.0189 16.6524 57.7456 16.9129C57.8589 16.9994 57.8759 17.2737 57.8112 17.4761C57.7326 17.7354 57.3278 18.1656 57.567 18.3185C57.3523 18.5728 57.4369 18.5651 57.3114 18.9092C57.2021 19.2265 56.7442 19.9837 56.6296 20.2239C56.5194 20.4684 56.7156 20.4246 56.6834 20.5293C56.6294 20.7009 56.5751 20.5627 56.5185 20.6687C56.3574 20.9678 56.2234 21.231 56.0874 21.5312C56.011 21.5023 55.9336 21.474 55.8571 21.4451C55.8703 21.4735 55.8834 21.502 55.8964 21.5306C55.8575 21.5879 55.8154 21.6531 55.7772 21.7047C56.3731 21.4503 55.461 22.1292 55.2533 22.3629C55.0846 22.5702 54.925 23.0212 54.7496 23.2672C54.7076 23.3269 54.677 23.2321 54.6685 23.2444C54.5696 23.3894 54.595 23.4496 54.4265 23.6142C54.3367 23.701 54.1713 23.7147 54.0846 23.7973C53.4481 24.4042 52.8566 25.0304 52.1345 25.5396C52.0117 25.626 51.8313 25.5871 51.7251 25.6523C51.5726 25.7456 51.5344 25.8964 51.3904 25.9854C51.2468 26.0743 50.9724 26.0827 50.8838 26.1541C50.794 26.2259 51.0249 26.2415 50.8255 26.3119C50.734 26.3437 50.8377 26.1814 50.7328 26.2351C50.4075 26.4026 49.9887 26.7359 49.5839 26.7888C49.6108 26.8075 49.6424 26.8209 49.6725 26.8368C49.2848 26.9951 48.9177 27.0681 48.509 27.2007C48.3664 27.2471 48.135 27.4088 47.9921 27.4517C47.8498 27.4947 47.7597 27.4285 47.6462 27.4583C47.5994 27.4702 47.639 27.5416 47.6072 27.5489C47.2065 27.637 46.9569 27.5524 46.5462 27.6552C45.5342 27.9043 44.4709 28.0496 43.4013 28.0846C42.8942 28.102 42.3872 28.1193 41.8827 28.1368C41.8212 28.1389 41.7798 28.2425 41.6899 28.2578C41.5516 28.2815 41.5448 28.19 41.5263 28.1868C41.4057 28.1666 41.4549 28.2513 41.2931 28.2513C40.9367 28.2513 40.3618 28.1763 40.0066 28.1827C39.188 28.1977 38.4998 28.2784 37.6972 28.3191C37.6393 28.3223 37.6785 28.1997 37.5782 28.1981C36.8711 28.1852 36.7214 28.3026 35.8412 28.2695C34.961 28.2365 33.2997 28.1622 32.2693 28.1453C32.2693 28.145 32.2693 28.1447 32.2693 28.1444C31.9449 28.371 31.5253 28.3147 31.1769 28.1433C33.186 27.5843 35.1083 27.8331 37.254 27.8109C39.2483 27.7906 41.3592 27.4706 43.4013 27.435C43.6691 27.4304 43.9323 27.4236 44.1954 27.4163C44.4096 27.41 44.505 27.5324 44.6836 27.4907C44.7136 27.4835 44.6268 27.3911 44.719 27.3731C45.979 27.1313 47.3681 27.0535 48.5448 26.5519C48.8586 26.4168 48.867 26.2933 49.13 26.1528C49.1023 26.2214 49.0917 26.2852 49.0692 26.3516C50.4035 25.9795 51.5846 25.204 52.6829 24.3458C52.7326 24.3071 52.8075 24.3861 52.8616 24.3468C52.9702 24.2683 52.99 24.0948 53.0745 24.0159C53.1846 23.9127 53.2616 23.9596 53.3616 23.8614C53.41 23.8132 53.3392 23.7661 53.4566 23.6759C53.4665 23.6683 53.5321 23.7264 53.5962 23.65C53.7736 23.4422 54.1036 22.9956 54.2337 22.8149C54.4022 22.5867 54.6481 22.496 54.7238 22.4174C54.9262 22.2052 54.8168 22.1259 54.9658 21.9315C56.0132 20.5447 56.9126 19.0746 57.3551 17.3113C57.3844 17.1999 57.3306 16.7596 57.3724 16.5575C57.389 16.4899 57.4877 16.1358 57.4975 16.0819C57.5421 15.8647 57.6538 15.6821 57.6853 15.5611C57.7473 15.3259 57.6246 15.0469 57.6169 14.9175C57.6067 14.7244 57.6242 14.4038 57.6291 14.2525C57.6301 14.2261 57.6308 14.205 57.6313 14.1908C57.638 13.9597 57.8133 14.0325 57.7684 13.8662C57.7545 13.8174 57.6231 13.8726 57.6162 13.7013C57.6102 13.5583 57.7071 13.4935 57.7187 13.3927C57.7303 13.2913 57.5597 13.1233 57.5576 13.0628C57.5477 12.7437 57.6316 12.5865 57.5826 12.2383C57.5597 11.9415 57.1688 10.6473 57.0847 10.5578C56.7797 10.1329 57.0966 10.8989 57.0982 10.9477C57.1327 11.1989 57.0621 11.1766 57.2378 11.3928C56.9331 11.6855 57.6402 12.3493 57.2257 12.6131C57.543 12.778 57.4163 12.9735 57.376 13.1918C57.3185 13.496 57.4715 13.2556 57.4877 13.4751C57.494 13.5635 57.3727 13.8165 57.3938 13.9445C57.4131 14.0599 57.4983 14.1147 57.5194 14.2525C57.5217 14.2679 57.5232 14.2843 57.5237 14.3019C57.5326 14.6153 57.4742 14.8628 57.3346 15.114C57.3852 15.165 57.4357 15.2135 57.4858 15.265C57.4133 15.4404 57.3376 15.6124 57.2581 15.7828C57.3085 15.7604 57.3592 15.7376 57.4095 15.7145C57.4101 15.7677 57.41 15.8211 57.4095 15.8743C57.3162 16.0395 57.2265 16.1923 57.1237 16.3555C57.3045 16.8819 57.0961 16.7007 57.0053 16.9537C56.9112 17.2064 57.025 17.3948 56.9695 17.5974C56.8933 17.8689 56.8738 17.998 56.7719 18.2639C56.7128 18.4185 56.4722 18.6269 56.7783 18.4947C56.6246 18.9874 56.3935 19.6704 56.089 20.0348C56.0004 20.1423 56.0173 19.9461 55.998 19.9624C55.9055 20.0434 55.9686 20.1869 55.8954 20.283C55.7748 20.4435 55.4963 20.7236 55.3942 20.8407C55.2504 21.0105 55.1856 21.3882 55.1733 21.425C55.1105 21.6278 54.9701 21.5935 54.9398 21.6507C54.7648 21.9765 54.7528 22.0757 54.4637 21.9905C54.5023 22.1384 54.3993 22.578 54.1812 22.5154C54.3184 22.6387 54.0744 22.8669 53.9655 23.0465C53.9006 23.0375 53.8357 23.0287 53.7709 23.0186C53.7146 23.5586 52.9126 23.9751 52.4509 24.282C52.4394 24.29 52.505 24.4141 52.4187 24.4419C52.4129 24.4432 52.3817 24.3891 52.332 24.4173C52.1703 24.5158 51.5037 24.7977 51.4349 24.8366C51.1838 24.9961 51.1936 25.1096 51.0434 25.2138C50.8446 25.3495 50.7672 25.2871 50.5762 25.4111C50.4868 25.4683 50.4606 25.6228 50.3027 25.6872C50.2094 25.7251 50.1563 25.6444 50.0827 25.6736C49.822 25.7757 49.6613 25.9194 49.3838 25.9075C49.45 26.2125 49.2487 26.0557 49.1276 26.082C48.6349 26.1914 48.0977 26.5188 47.6771 26.6151C46.3707 26.9142 45.1787 26.9111 43.9073 26.9162C43.7008 26.9158 43.6534 27.0701 43.4324 27.0616C43.4221 27.0611 43.4118 27.0595 43.4013 27.057C43.3092 27.0352 43.2097 26.946 43.0608 26.9445C42.9273 26.9429 42.7359 26.9994 42.5692 26.999C42.5249 26.999 42.5209 26.8949 42.4557 26.8941C41.9608 26.8881 41.4776 26.962 40.9778 27.0128C40.7926 27.0317 40.6781 26.8938 40.7094 27.1338C40.6387 27.0749 40.5699 27.0236 40.5034 26.9655C40.2485 27.1168 40.0404 26.9592 39.6957 26.9979C39.6586 27.0025 39.3983 27.1684 39.2507 27.0487C39.2402 27.1341 39.2631 27.2067 39.2588 27.2841C39.113 27.3168 38.8889 27.2181 38.7904 27.208C38.692 27.1979 38.6261 27.3089 38.5965 27.31C38.4839 27.3129 38.5102 27.1668 38.5015 27.1644C37.9766 27.0245 38.0318 27.1023 37.7149 27.3213C37.6354 27.3765 37.0965 27.2161 36.9875 27.389C36.9826 27.3185 37.0126 27.2564 37.0213 27.1891C36.8594 27.1709 36.6962 27.1523 36.5337 27.1341C36.5682 27.2019 36.6096 27.2697 36.641 27.3379C36.3093 27.279 36.0334 27.4386 35.762 27.4334C35.6069 27.4302 35.6258 27.2805 35.5347 27.3132C35.5169 27.3197 35.547 27.4208 35.4942 27.4289C35.0627 27.4947 34.8736 27.3878 34.4415 27.3676C34.239 27.358 34.0618 27.5418 33.7713 27.4209C33.7448 27.4095 33.4598 27.2463 33.2838 27.4802C33.2278 27.4064 33.1784 27.3676 33.1366 27.3055C32.7802 27.6528 32.8786 27.3124 32.3967 27.2318C32.1473 27.1899 31.3084 27.2507 31.037 27.2878C30.8753 27.3104 30.8783 27.4469 30.8494 27.4524C30.6771 27.4838 30.677 27.3515 30.5176 27.3733C30.3582 27.395 30.1568 27.5447 29.9931 27.531C29.8676 27.5204 29.9665 27.356 29.7813 27.4133C29.7429 27.4257 29.8525 27.5652 29.6572 27.5105C29.6264 27.502 29.3142 27.3511 29.2502 27.3185C29.4146 27.2309 29.891 27.1168 30.0701 27.0813C33.1545 26.4682 39.3678 26.4619 42.6615 26.5389C42.9673 26.5458 43.1674 26.6893 43.3668 26.7019C43.3798 26.7027 43.3912 26.7029 43.4013 26.7025C43.5388 26.6974 43.4089 26.5839 43.5688 26.5927C43.7393 26.6019 43.8663 26.6911 44.0265 26.6925C45.1085 26.7014 46.2094 26.5875 47.2577 26.3216C47.5292 26.2524 47.713 26.0833 47.9515 26.0031C48.0443 25.9717 48.0926 26.1008 48.1591 26.0762C48.8758 25.8117 49.4643 25.4052 50.1292 25.0635C50.4048 24.9219 50.7562 24.8495 51.0248 24.6908C51.2474 24.5599 51.4213 24.3452 51.6068 24.2097C51.7071 24.136 51.8222 24.181 51.8637 24.1604C52.0068 24.0873 51.885 24.0182 51.9487 23.9696C52.1238 23.8351 52.3074 23.8863 52.4613 23.743C52.5213 23.6865 52.4497 23.618 52.5297 23.5294C52.6309 23.4166 52.6485 23.5217 52.7317 23.4529C52.7368 23.4489 52.6744 23.41 52.715 23.3701C52.977 23.1134 53.264 22.7557 53.5066 22.5026C54.0091 21.9822 54.562 21.4995 54.9644 20.9423C55.0651 20.8016 54.9623 20.7896 54.9883 20.7415C55.1115 20.5097 55.2548 20.4866 55.3593 20.2279C55.3769 20.1845 55.3565 19.963 55.4664 19.8244C55.526 19.7495 55.6459 19.6902 55.6989 19.6259C55.7518 19.5616 55.6528 19.4981 55.6949 19.4112C55.7702 19.2522 55.8229 19.3333 55.9139 19.0964C55.9512 19.0007 55.9825 18.6459 56.0804 18.4064C56.2434 18.0154 56.5014 17.5392 56.621 17.0471C56.6628 16.8776 56.5938 16.6362 56.6405 16.3749C56.701 16.055 56.8048 15.4633 56.8275 15.1296C56.8405 14.9591 56.9659 14.9535 56.9726 14.9332C57.0147 14.803 56.8713 14.8494 56.8808 14.7621C56.8936 14.6426 57.0004 14.5322 57.0088 14.4209C57.0141 14.35 56.9104 14.338 56.9097 14.3228C56.9084 14.2993 56.9071 14.2758 56.9058 14.2525C56.8754 13.7175 56.8532 13.2429 56.7741 12.7143C56.3339 9.74496 54.6512 7.07312 52.444 5.10931C52.2582 4.94443 52.334 4.838 52.1491 4.71519C51.962 4.59136 51.6275 4.69243 51.6655 4.33471C51.6238 4.38216 51.5979 4.41878 51.5596 4.46173C51.2455 4.12407 50.8131 3.95255 50.4278 3.74129C50.1417 3.5846 49.8913 3.4394 49.6243 3.29925C49.3877 3.17629 49.4534 3.08662 49.1829 3.11996C48.1707 2.56311 47.0413 2.23743 45.9324 1.8904C45.6259 2.07452 45.3978 1.88914 45.0282 1.81188C44.9827 1.80246 45.0226 1.89251 44.8873 1.87094C44.7167 1.84499 44.6419 1.70557 44.3496 1.69296C44.2698 1.68726 43.6994 1.80738 43.4894 1.7352C43.4616 1.72526 43.4321 1.71592 43.4013 1.70708C43.1896 1.64879 42.922 1.60784 42.7227 1.54621C42.7553 1.60226 42.7966 1.65588 42.8329 1.71113C42.7185 1.72081 42.6034 1.73013 42.4889 1.73981C42.4722 1.67246 42.4556 1.60505 42.4396 1.53729C42.3731 1.60142 42.3066 1.66475 42.2395 1.72968C42.0949 1.38368 42.2432 1.49653 41.9213 1.58405C41.76 1.62761 41.632 1.56715 41.4664 1.60224C41.4068 1.61513 41.3686 1.71702 41.3028 1.73005C41.1416 1.7615 41.2356 1.62127 41.136 1.62201C41.0357 1.62322 40.8916 1.77725 40.7119 1.70869C40.8995 1.43409 40.3572 1.52367 40.3313 1.73701C40.2668 1.7374 40.2126 1.72853 40.1413 1.73456C40.2072 1.19574 39.8691 1.57811 39.7349 1.65192C39.6008 1.72562 39.6062 1.58084 39.5749 1.58649C39.4844 1.60223 39.5503 1.66234 39.4869 1.66437C39.0671 1.67647 38.6719 1.58809 38.2576 1.58002C38.198 1.57887 38.2509 1.66069 38.1814 1.65265C38.1119 1.64459 38.0452 1.56314 37.9424 1.56879C37.9148 1.57022 37.9062 1.64209 37.8632 1.64216C36.9627 1.63893 36.1076 1.5777 35.1893 1.56842C35.1062 1.56762 35.0409 1.6954 34.8803 1.69098C34.7197 1.68655 34.476 1.57123 34.2766 1.56232C34.2236 1.5599 34.2093 1.66634 34.1391 1.66352C33.9003 1.65382 33.6946 1.56716 33.4466 1.55304C33.0275 1.52927 32.5886 1.5942 32.1634 1.53131C32.0828 1.51962 32.0956 1.43084 31.9794 1.40582C31.7787 1.36267 31.8542 1.49212 31.8136 1.50946C31.6807 1.56548 31.6389 1.39343 31.5103 1.43768C31.4907 1.44452 31.5187 1.54656 31.5011 1.54816C31.2278 1.5659 31.2135 1.32676 30.9229 1.45502C30.6646 1.31752 31.0961 1.27068 31.1404 1.19768C31.2486 1.02026 30.9625 0.811756 30.7939 0.744791C30.6487 0.68713 30.6497 0.797597 30.5919 0.797649C30.286 0.798052 29.8305 0.819056 29.5978 0.766642C29.4568 0.735183 29.7109 0.689167 29.6389 0.652869C29.5675 0.61662 29.5213 0.699639 29.4481 0.608923C29.3748 0.518177 29.2254 0.251127 29.2537 0.123679ZM54.0098 5.07787C53.3722 5.03263 52.4911 4.19715 51.963 3.78398C51.5393 3.43563 51.3019 2.90134 51.1433 3.37426C51.6417 3.69161 52.0621 3.92829 52.5423 4.33268C52.5931 4.37412 52.8615 4.65725 52.9561 4.75347C53.01 4.80705 52.9585 4.86856 53.035 4.93648C53.0517 4.95087 53.2141 4.95712 53.2455 4.99047C53.3563 5.10307 53.5705 5.54194 53.6159 5.58477C53.7491 5.70295 53.792 5.56787 53.8619 5.60835C54.0953 5.74793 53.9756 5.89517 54.1903 6.04728C54.2283 6.0744 54.4534 6.08405 54.5595 6.24714C54.6025 6.31337 54.6196 6.46964 54.6593 6.51389C54.8768 6.75421 55.1814 6.98428 55.3332 7.24438C55.4565 7.45734 55.3138 7.47136 55.3691 7.58835C55.424 7.70472 55.6298 7.76051 55.6827 7.83281C55.7674 7.94796 55.7804 8.13897 55.8025 8.17636C56.2436 8.91593 56.6421 9.58694 56.9387 10.3776C56.816 9.81549 56.6496 9.26172 56.4524 8.71735C56.1912 8.48231 56.3734 8.57427 56.3112 8.36339C56.2601 8.19669 56.0463 8.26511 55.9599 8.06051C55.96 8.06066 55.9601 8.06082 55.9602 8.06098C55.9161 7.95595 55.923 7.66146 55.7376 7.48676C55.7307 7.48078 55.6226 7.52263 55.5207 7.37227C55.2924 7.03206 54.8782 6.56157 54.6047 6.19426C54.5246 6.08602 54.635 6.02967 54.5421 5.89734C54.4736 5.80081 54.301 5.77234 54.1968 5.62104C54.0665 5.43158 54.1257 5.21671 53.8249 5.29033C53.8838 5.21442 53.9547 5.15408 54.0098 5.07787ZM42.3386 0.950119C42.3065 0.939582 41.877 0.64201 42.0043 0.959763C42.4517 1.06664 42.9272 1.04957 43.4013 1.07249C43.5392 1.07915 43.6764 1.09105 43.8116 1.11213C43.7125 0.951716 43.5711 0.901574 43.4013 0.896436C43.2348 0.891337 43.0413 0.927804 42.8291 0.939254C42.8289 0.939254 42.8288 0.939254 42.8286 0.939254C42.8085 0.940325 42.8925 0.858213 42.7782 0.87309C42.7228 0.88035 42.5103 1.00618 42.3386 0.950119ZM15.1029 79.6257C15.6802 79.5187 16.2366 79.4404 16.8253 79.4155C16.9589 79.4095 16.9571 79.4923 17.0135 79.4982C17.1171 79.5094 17.2736 79.3959 17.2967 79.3921C17.4426 79.3679 17.4088 79.5189 17.4294 79.5212C17.6601 79.5415 17.569 79.391 17.7736 79.3368C18.0426 79.2647 18.3923 79.2173 18.718 79.1391C18.8317 79.1118 18.8105 79.2326 19.0523 79.1542C19.2271 79.0997 19.708 78.8137 19.9914 78.8485C20.0103 78.8953 19.9991 78.9587 20.004 79.0122C20.2762 78.6867 20.3971 78.6527 20.8908 78.4907C20.9689 78.4643 21.0034 78.3539 21.1465 78.3212C21.2896 78.2875 21.3541 78.4062 21.6139 78.2715C21.7058 78.2228 21.7177 78.1109 21.854 78.0321C22.2436 77.8138 23.0289 77.4509 23.3302 77.2309C23.9265 76.8053 24.1256 76.4267 24.6319 76.0315C24.6708 76.0002 24.6619 76.1502 24.7298 76.0887C24.7985 76.0264 24.772 75.8618 24.7856 75.8439C24.9345 75.653 25.4193 75.4025 25.4925 75.2833C25.6689 74.9989 25.4135 75.2061 25.686 74.8424C25.9421 74.4976 26.4384 74.121 26.7026 73.7721C27.0087 73.3666 26.8606 73.1015 27.2769 72.8983C27.8911 71.7149 28.3155 70.4315 28.5093 69.1163C28.5617 69.1285 28.614 69.1412 28.6662 69.1542C28.6463 69.0436 28.6248 68.9335 28.6023 68.8241C28.6397 68.8451 28.6773 68.8655 28.7143 68.8868C28.6279 68.3685 28.5842 67.9339 28.6335 67.3585C28.6344 67.3471 28.7411 67.378 28.7439 67.3686C28.7502 67.3299 28.7475 67.2898 28.7409 67.2495C28.725 67.1495 28.6881 67.0487 28.7018 66.9642C28.7482 66.6746 28.9813 66.1826 28.6962 66.3992C28.755 65.724 28.6586 64.9306 28.7139 64.2871C28.7376 64.0087 28.9066 63.9252 28.9164 63.792C28.926 63.6588 28.7808 63.7266 28.7753 63.6793C28.743 63.3953 28.749 62.9278 28.9115 62.8786C28.8466 62.8215 28.7809 62.761 28.7156 62.7031C28.8957 62.7371 28.8213 61.8593 28.8257 61.629C28.8265 61.5869 28.9055 61.5811 28.9047 61.5493C28.8945 61.1956 28.7707 61.1091 28.7296 60.8061C28.7151 60.6998 28.8543 60.8647 28.7942 60.5917C28.7889 60.5679 28.6639 60.5806 28.6647 60.2545C28.6659 59.734 28.6163 58.7382 28.678 58.1185C28.6828 58.0677 28.8191 58.2223 28.7873 57.9901C28.7761 57.906 28.6793 57.9463 28.6785 57.7423C28.6744 56.952 28.7857 56.1094 28.6933 55.3032C28.8026 55.3326 28.9252 55.6197 28.8567 55.1881C28.8454 55.1191 28.7478 55.1706 28.7441 55.1397C28.7159 54.889 28.7856 54.6716 28.7482 54.4003C28.7369 54.3202 28.6602 54.3003 28.6421 54.2003C28.627 54.1178 28.6545 54.0611 28.6735 53.9971L29.2502 54.5738C29.1997 54.5587 29.1448 54.5489 29.0691 54.5693C28.8011 54.6423 28.7597 54.7459 28.4273 54.5427C26.5437 54.5556 24.6687 54.6128 22.7914 54.5233C22.2487 54.5814 21.7479 54.6463 21.1822 54.6685C21.0155 54.6749 20.9837 54.5362 20.7179 54.5822C20.6584 54.5922 20.2338 54.7411 20.1719 54.4608C20.0537 54.485 19.979 54.4858 19.8775 54.5007C19.9544 54.5419 20.0339 54.5835 20.1077 54.625C19.6792 54.5802 19.3293 54.6791 18.95 54.7258C18.6708 54.7601 18.8691 54.6399 18.6977 54.652C18.5263 54.6637 18.4484 54.6907 18.2342 54.5468C18.066 54.7128 17.9542 54.5964 17.644 54.5919C17.6106 54.5915 17.418 54.6559 17.2569 54.6431C17.1411 54.6338 17.1068 54.5302 16.9228 54.5463C16.8927 54.5487 16.5038 54.677 16.38 54.6887C16.1872 54.7073 15.8808 54.5745 15.8435 54.5729C15.5077 54.5584 15.2998 54.6032 15.0986 54.5881C14.9791 54.5788 14.8626 54.5481 14.7188 54.4697C14.646 54.5994 14.3435 54.6846 14.0946 54.69C13.7855 54.6912 13.1191 54.5067 13.0732 54.7959C12.6954 54.7273 12.7437 54.795 12.3219 54.8764C11.9356 54.9433 10.901 55.1076 10.6018 55.2319C10.3036 55.3469 10.5012 55.4437 10.3889 55.504C10.2067 55.6048 10.273 55.4605 10.1408 55.5104C9.76901 55.653 9.45529 55.8076 9.13251 56.0115C9.08044 55.9476 9.02647 55.8843 8.97309 55.8212C8.96631 55.8537 8.95975 55.8863 8.95323 55.9188C8.87834 55.9534 8.79603 55.9952 8.72672 56.027C9.45509 56.0604 8.16064 56.271 7.82835 56.4748C7.54539 56.631 7.18805 57.0603 6.92941 57.2923C6.866 57.3487 6.86273 57.2449 6.8498 57.2566C6.69854 57.3971 6.70883 57.4616 6.48771 57.6224C6.37108 57.7077 6.18781 57.7168 6.07718 57.8064C5.26529 58.4655 4.64682 59.2746 4.04548 60.1008C3.94345 60.2413 3.74847 60.288 3.66185 60.4088C3.53853 60.5817 3.55599 60.7523 3.45275 60.9197C3.34979 61.0858 3.09494 61.2663 3.0468 61.3942C2.99879 61.5208 3.21836 61.3814 3.07104 61.5784C3.0038 61.6696 3.01639 61.4506 2.94768 61.5718C2.73029 61.9527 2.5788 62.5527 2.31079 62.9433C2.34411 62.9343 2.37752 62.9175 2.41141 62.9041C2.22297 63.3556 2.02311 63.7487 1.88409 64.2399C1.83463 64.4114 1.84215 64.7433 1.80882 64.9125C1.77462 65.0826 1.67349 65.1451 1.6476 65.2838C1.63697 65.3408 1.71911 65.3311 1.71141 65.3688C1.61794 65.8388 1.44763 66.0895 1.43321 66.6026C1.42857 66.8165 1.42942 67.0322 1.43599 67.2495C1.4833 68.9133 1.88721 70.5891 2.60779 72.0843C2.64047 72.1523 2.75553 72.1557 2.81547 72.2477C2.90843 72.3892 2.83054 72.4362 2.83738 72.458C2.88458 72.5989 2.93311 72.5078 3.02277 72.6825C3.21756 73.0676 3.51583 73.7076 3.77261 74.0599C4.35886 74.8733 4.97923 75.4563 5.71855 76.0885C5.77241 76.1336 5.65407 76.1918 5.74401 76.2756C6.38962 76.8553 6.59931 76.8857 7.47023 77.5104C8.33369 78.1497 10.1737 79.0767 11.4122 79.3859C11.4121 79.3862 11.412 79.3865 11.412 79.3867C11.8569 79.2711 12.3324 79.4319 12.729 79.6701C10.163 79.8052 7.84483 78.5471 5.7922 76.8325C3.61899 75.0539 1.55226 72.4831 1.08294 69.5079C1.03877 69.2312 1.15042 69.1033 1.09253 68.8768C1.0829 68.8382 0.997423 68.9529 0.97181 68.8331C0.864496 68.321 0.82296 67.7879 0.831312 67.2495C0.848449 66.0536 1.11667 64.8767 1.38921 63.7802C1.49868 63.351 1.41645 63.2508 1.52279 62.8694C1.54813 62.9525 1.58453 63.0134 1.61448 63.0873C2.35583 61.4731 3.22456 59.9185 4.45921 58.6185C4.51499 58.5603 4.60113 58.627 4.66164 58.5691C4.78303 58.4536 4.81087 58.2558 4.91387 58.1491C5.04831 58.0108 5.13235 58.0502 5.25749 57.9261C5.31897 57.8658 5.24338 57.8214 5.39319 57.706C5.40587 57.6964 5.47109 57.7543 5.5575 57.6638C5.79073 57.413 6.29784 56.9225 6.52042 56.7414C6.80152 56.5056 7.11924 56.457 7.23889 56.391C7.56317 56.2149 7.48772 56.1048 7.76125 55.9463C9.71873 54.8357 11.8628 54.356 14.1218 54.2047C14.2643 54.1933 14.7863 54.0219 15.0569 54.0297C15.0667 54.0299 15.0809 54.0306 15.0986 54.0317C15.2436 54.0402 15.623 54.0719 15.6855 54.0748C15.9704 54.0873 16.2166 54.1777 16.3737 54.1966C16.6784 54.2337 17.0188 54.0926 17.1846 54.0785C17.4758 54.0535 17.9929 54.072 18.1152 54.0757C18.4104 54.0845 18.3129 54.2591 18.5247 54.2184C18.5873 54.2062 18.5218 54.0724 18.7423 54.0724C18.9271 54.0728 19.0018 54.1736 19.1279 54.1918C19.2541 54.2098 19.4855 54.0539 19.5641 54.0579C19.9751 54.0796 20.157 54.1818 20.6046 54.187C20.9762 54.191 22.6939 54.1196 22.8367 54.0829C23.4763 53.9189 22.4111 53.9925 22.351 53.9869C22.0265 53.9551 22.074 53.8921 21.7503 54.0123C21.4606 53.6417 20.4513 54.2188 20.1926 53.7792C19.9252 54.072 19.7005 53.9243 19.4188 53.8655C19.0295 53.7841 19.326 53.9547 19.042 53.9559C18.93 53.9562 18.6055 53.8232 18.4374 53.8418C18.2692 53.8604 18.1984 53.9624 17.9731 53.968C17.5709 53.9785 17.2471 53.9309 16.9092 53.8087C16.8473 53.8627 16.7895 53.9168 16.7284 53.9708C16.4952 53.9127 16.261 53.855 16.0277 53.7973C16.065 53.8445 16.1023 53.8921 16.1396 53.9393C16.0714 53.9462 16.0029 53.9526 15.9347 53.9591C15.7078 53.8881 15.4911 53.8224 15.2578 53.749C15.1978 53.7748 15.1451 53.7961 15.0986 53.8134C14.6492 53.9823 14.7701 53.7849 14.445 53.7639C14.0844 53.7444 13.8885 53.9185 13.6176 53.9449C13.2478 53.9834 13.0853 54.0239 12.7138 54.0695C12.4994 54.0959 12.1128 54.0136 12.4506 54.1974C11.7903 54.3289 10.9266 54.6231 10.3289 54.7249C10.1521 54.7543 10.3516 54.6068 10.3202 54.6075C10.1625 54.6128 10.0815 54.7716 9.92973 54.8081C9.67701 54.8666 9.1707 54.9692 8.97387 55.0337C8.68736 55.1223 8.34064 55.4724 8.30614 55.5045C8.10117 55.6824 7.97801 55.6 7.90719 55.6486C7.50961 55.929 7.45274 56.035 7.17484 55.8756C7.12705 56.044 6.80283 56.4983 6.58523 56.4044C6.68655 56.5567 6.31399 56.7804 6.13272 56.9798C6.06136 56.9675 5.98901 56.9566 5.91667 56.9451C5.67777 57.5392 4.71248 58.0896 4.19218 58.622C4.17922 58.6353 4.25967 58.7514 4.1641 58.8127C4.1576 58.8163 4.11855 58.7667 4.06377 58.8172C3.87883 58.9758 3.18086 59.6205 3.12144 59.7145C2.88577 60.0377 2.93519 60.1545 2.8123 60.3617C2.65385 60.6364 2.5508 60.6279 2.41008 60.8977C2.34485 61.0247 2.389 61.1956 2.27105 61.3835C2.20162 61.4953 2.11036 61.4635 2.05641 61.554C1.86522 61.8773 1.80976 62.1505 1.56795 62.4109C1.81804 62.606 1.55156 62.6671 1.47247 62.8146C1.14677 63.4109 1.05144 64.2561 0.91972 64.8099C0.716683 65.6369 0.579399 66.4401 0.518258 67.2495C0.451887 68.139 0.477984 69.0378 0.650237 69.9604C0.705327 70.2464 0.870535 70.2795 0.936898 70.5725C0.967313 70.7036 0.897886 70.8701 0.961989 71.0849C1.01308 71.2575 1.14735 71.484 1.22366 71.6939C1.24404 71.7496 1.14812 71.7907 1.17838 71.8736C1.40933 72.5024 1.75314 73.0656 2.12324 73.624C2.26046 73.8304 2.22221 74.0319 2.40662 73.8732C2.40398 73.984 2.40797 74.0891 2.40582 74.1955C2.71477 74.4034 2.73497 74.7217 3.04038 75.0728C3.07375 75.1116 3.41328 75.286 3.44374 75.5124C3.51896 75.4695 3.55644 75.4003 3.62033 75.3562C3.76446 75.4844 3.87947 75.7717 3.95877 75.876C4.03708 75.98 4.1778 75.9692 4.20455 75.9969C4.30617 76.1033 4.17642 76.1775 4.18225 76.1875C4.55972 76.7869 4.57486 76.6808 5.02479 76.8061C5.13348 76.8377 5.56255 77.4232 5.7855 77.3748C5.74616 77.4337 5.67658 77.4573 5.62524 77.5023C5.77935 77.6511 5.93827 77.7982 6.09991 77.9407C6.10364 77.8591 6.10087 77.7722 6.10943 77.6932C6.42076 78.0022 6.80938 78.0743 7.10173 78.2675C7.26954 78.3777 7.17022 78.4914 7.28874 78.5259C7.31195 78.5325 7.33114 78.4258 7.3939 78.4544C7.90756 78.6839 8.06943 78.8932 8.56601 79.1596C8.80117 79.2831 9.0824 79.2109 9.38252 79.4661C9.40844 79.4899 9.69657 79.7814 9.9922 79.6382C10.0352 79.7323 10.083 79.7903 10.1144 79.8669C10.665 79.6852 10.4294 79.9723 11.0173 80.2254C11.3204 80.3639 12.4132 80.537 12.7705 80.5429C12.9841 80.5522 12.9978 80.4151 13.0356 80.415C13.2598 80.4131 13.2439 80.5442 13.453 80.5456C13.664 80.5467 13.9328 80.4195 14.1423 80.4461C14.3031 80.466 14.1667 80.6237 14.4098 80.5783C14.4597 80.5678 14.325 80.4232 14.5734 80.4875C14.6114 80.4986 15.0131 80.6573 15.0986 80.6885C14.8831 80.7793 14.254 80.8727 14.0122 80.8882C11.9664 81.0848 8.7088 80.46 6.02743 78.6078C3.30334 76.8176 1.42612 73.9069 0.748056 71.7306C0.61339 71.3258 0.673544 71.0195 0.612899 70.7528C0.554487 70.4856 0.485968 70.7431 0.434539 70.4982C0.385068 70.2521 0.436352 70.054 0.399139 69.8257C0.261535 68.9734 0.209237 68.1073 0.235584 67.2495C0.256886 66.5491 0.330036 65.8565 0.449832 65.177C0.519541 64.7845 0.479089 64.4515 0.565915 64.0945C0.600205 63.9562 0.735107 63.9865 0.75923 63.8898C1.02534 62.8504 1.27725 61.861 1.80498 60.9147C2.02462 60.5222 2.37495 60.1703 2.63007 59.8142C2.84028 59.52 3.00013 59.1709 3.2033 58.9133C3.31319 58.7735 3.45415 58.7689 3.50111 58.7253C3.66474 58.5734 3.51741 58.5497 3.59187 58.463C3.79989 58.2252 4.01919 58.2157 4.21209 57.997C4.28843 57.9114 4.20706 57.8529 4.31459 57.7232C4.45215 57.5597 4.45996 57.6799 4.57089 57.5772C4.57779 57.5712 4.5073 57.5409 4.5637 57.4831C4.92448 57.1114 5.38583 56.6488 5.79132 56.3512C6.62823 55.731 7.57917 55.3233 8.45038 54.9379C8.67132 54.8405 8.57518 54.7849 8.64334 54.7485C8.97329 54.5768 9.13795 54.6263 9.48298 54.4483C9.53986 54.4191 9.73861 54.2068 9.98659 54.1558C10.1195 54.1283 10.2885 54.1564 10.4025 54.1399C10.5165 54.1236 10.4995 54.0063 10.6318 53.9666C10.8728 53.8963 10.8234 53.9928 11.1646 53.8872C11.3021 53.8445 11.7432 53.6234 12.1141 53.5627C12.7139 53.4602 13.4751 53.4611 14.183 53.4236C14.4234 53.4106 14.723 53.2824 15.0986 53.2769C15.1052 53.2768 15.1118 53.2767 15.1185 53.2767C15.5636 53.2751 16.3838 53.3024 16.84 53.304C17.0733 53.3049 17.0902 53.4308 17.118 53.436C17.2963 53.471 17.2243 53.3304 17.3439 53.3359C17.5082 53.3436 17.6615 53.4473 17.8106 53.4542C17.9058 53.4586 17.9209 53.3549 17.9415 53.3541C18.7048 53.3198 19.3793 53.3295 20.1379 53.3182C23.1655 53.2738 26.2148 53.1887 29.2502 53.1729L30.092 53.1912L30.0745 53.9971C30.0799 55.0402 30.0772 56.0817 30.0618 57.1202C30.057 57.4606 29.9262 57.4734 29.9468 57.7725C29.967 58.0717 30.2493 58.3607 29.9375 58.6066C30.0004 58.6146 30.0453 58.6138 30.1026 58.6217C30.0139 59.2398 30.1057 59.858 30.117 60.4626C30.1254 60.91 30.1154 61.3069 30.1085 61.7202C30.1021 62.0866 29.9925 62.055 30.1355 62.3722C30.046 63.9489 30.0678 65.5424 29.919 67.1056C29.9497 67.1537 29.9739 67.2015 29.9926 67.2495C30.1158 67.5895 29.9912 67.9305 29.9219 68.3922C29.9115 68.4577 30.0039 68.3945 29.9775 68.5899C29.9423 68.8354 29.8003 68.9484 29.7436 69.3556C29.7342 69.4633 29.7185 70.2939 29.563 70.5682C29.4168 70.8413 29.2498 71.2447 29.0805 71.513C29.1478 71.4898 29.2166 71.4541 29.2847 71.4245C29.2445 71.5758 29.201 71.727 29.1555 71.8767C29.0844 71.8744 29.0134 71.8718 28.9424 71.8679C28.9708 71.974 28.9971 72.0809 29.0231 72.1901C28.6276 72.2415 28.8129 72.0979 28.7214 72.5312C28.6732 72.748 28.5451 72.8794 28.4776 73.0946C28.4534 73.1723 28.521 73.2645 28.4914 73.3502C28.4175 73.5596 28.3529 73.3809 28.2901 73.5001C28.2274 73.6192 28.2668 73.8669 28.0824 74.0429C27.9759 73.6874 27.6788 74.3531 27.8337 74.4979C27.7862 74.5719 27.7384 74.6285 27.6893 74.7124C27.2918 74.3393 27.3563 74.9246 27.3048 75.1162C27.2564 75.3062 27.1441 75.2132 27.1234 75.2503C27.0623 75.3568 27.1639 75.3226 27.1134 75.3919C26.7752 75.8503 26.3575 76.1957 25.9639 76.5881C25.9071 76.6445 26.0154 76.6511 25.9439 76.7122C25.8719 76.7733 25.7512 76.7788 25.6561 76.8787C25.6304 76.9054 25.6719 76.9653 25.6299 77.0055C24.745 77.8404 23.7782 78.4815 22.7054 79.0826C22.6085 79.1364 22.5945 79.2915 22.4005 79.3902C22.2058 79.4893 21.8621 79.5332 21.6163 79.6371C21.551 79.6647 21.5777 79.7696 21.4901 79.8061C21.1932 79.9287 20.9025 79.9555 20.5891 80.0594C20.057 80.2357 19.5147 80.475 18.9475 80.5542C18.8402 80.5692 18.8349 80.4794 18.6796 80.4909C18.412 80.5091 18.5374 80.6122 18.4886 80.6412C18.3271 80.7341 18.2374 80.577 18.0786 80.6534C18.0541 80.6652 18.1104 80.7582 18.0875 80.7642C17.7311 80.8492 17.6751 80.6166 17.3123 80.8004C16.9559 80.7113 17.5131 80.5863 17.5575 80.5027C17.6673 80.305 17.2678 80.1597 17.0504 80.1194C16.8612 80.0857 16.8758 80.1945 16.8026 80.2031C16.4158 80.2503 15.8362 80.3083 15.5408 80.2622C15.3616 80.2358 15.6814 80.1805 15.5892 80.1469C15.4986 80.1135 15.4421 80.198 15.3481 80.1089C15.2535 80.02 15.0675 79.7532 15.1029 79.6257ZM28.9684 55.6453C29.4039 56.25 29.3584 57.8534 29.3169 58.7144C29.2822 59.4285 28.9466 60.0441 29.433 59.8966C29.4362 59.1246 29.3874 58.5002 29.4024 57.6837C29.404 57.5988 29.4491 57.0925 29.4572 56.9163C29.4616 56.8172 29.542 56.814 29.5412 56.6791C29.5407 56.6497 29.4358 56.487 29.4386 56.4275C29.4479 56.2236 29.609 55.6173 29.6044 55.5327C29.5907 55.2979 29.4658 55.388 29.4431 55.2867C29.3681 54.9463 29.5557 54.9088 29.4948 54.5715C29.4839 54.5112 29.3204 54.3113 29.3418 54.0613C29.3435 54.0421 29.3479 54.0203 29.3539 53.9971L29.3561 53.8958L29.2502 53.8935C29.1508 53.8678 29.0252 53.813 28.9621 53.8163C28.5384 53.8381 28.0654 53.9498 27.6774 53.9313C27.3594 53.9159 27.4449 53.7897 27.2767 53.7728C27.1085 53.7563 26.9054 53.9026 26.7904 53.9111C26.6063 53.9244 26.3825 53.8413 26.3254 53.8425C25.2003 53.8671 24.1997 53.9635 23.1143 53.9982C23.8514 54.0558 24.5877 54.1088 25.3201 54.1684C25.7358 54.0378 25.5289 54.1603 25.8025 54.201C26.0191 54.2333 26.0715 54.012 26.3563 54.0365C26.356 54.0365 26.3558 54.0365 26.3556 54.0365C26.5024 54.0494 26.8206 54.2027 27.1332 54.1385C27.1443 54.1361 27.1721 54.0212 27.4062 54.0172C27.9089 54.0087 28.6673 53.9545 29.2502 53.9712L29.2767 53.9718L29.2761 53.9971C29.2753 54.0242 29.2744 54.0509 29.2733 54.0771C29.2661 54.2509 29.1454 54.2155 29.1305 54.421C29.1197 54.5709 29.2313 54.7446 29.2063 54.9793C29.1744 55.2737 28.9826 55.4149 29.2492 55.6173C29.154 55.6339 29.0611 55.6255 28.9684 55.6453ZM28.3468 71.7807C28.3237 71.8193 27.8377 72.2057 28.1926 72.1818C28.615 71.5517 28.8065 70.7557 29.0526 70.0057C28.6872 70.199 28.7029 70.657 28.5509 71.1851C28.5508 71.1853 28.5508 71.1855 28.5507 71.1858C28.5435 71.2105 28.4999 71.0826 28.4674 71.2258C28.4522 71.2944 28.4802 71.5952 28.3468 71.7807ZM0.0707018 40.7658C-0.0354661 40.0711 -0.0273539 39.3614 0.131107 38.6575C0.167492 38.4976 0.246733 38.5263 0.27115 38.4626C0.316063 38.3459 0.268598 38.1266 0.274724 38.0979C0.309981 37.9213 0.436881 38.0204 0.447176 37.9979C0.56152 37.7495 0.384307 37.7883 0.429983 37.5334C0.490503 37.2025 0.638779 36.7942 0.778377 36.4154C0.828484 36.2824 0.909037 36.3774 1.00588 36.0896C1.07095 35.8866 1.21432 35.2222 1.47111 35.006C1.5173 35.0263 1.55099 35.0848 1.59117 35.1215C1.59022 34.6428 1.66934 34.4981 2.02193 33.9907C2.07834 33.9111 2.05173 33.7867 2.1701 33.6569C2.28932 33.5282 2.40306 33.5925 2.59212 33.3078C2.65959 33.2072 2.62409 33.0927 2.73014 32.9376C3.02592 32.4902 3.76862 31.791 4.07559 31.488C4.67308 30.8833 4.91954 30.4527 5.55175 30.0196C5.60036 29.9866 5.56271 30.1468 5.64823 30.0823C5.73425 30.0176 5.74106 29.8415 5.76075 29.8227C5.96983 29.6167 6.57457 29.4224 6.69609 29.3208C6.99438 29.067 6.6362 29.2182 7.08369 28.9143C7.51463 28.6246 8.22553 28.4535 8.69857 28.2804C9.2439 28.0815 9.33245 27.7733 9.83825 27.8738C11.281 27.3372 12.8117 27.027 14.353 26.9416C14.3511 26.9954 14.3487 27.0492 14.346 27.103C14.4642 27.0602 14.5835 27.0187 14.704 26.979C14.6866 27.0194 14.6704 27.0598 14.6533 27.0998C14.803 27.0544 14.9503 27.0166 15.0986 26.987C15.4904 26.9057 15.8804 26.8713 16.3526 26.9023C16.3652 26.9031 16.332 27.01 16.3425 27.0128C16.4877 27.033 16.6499 26.9507 16.7774 26.9701C17.0855 27.0165 17.6089 27.2496 17.3784 26.9645C18.0968 27.0233 18.9409 26.9269 19.6255 26.9822C19.9217 27.006 20.0105 27.1749 20.1522 27.1847C20.2939 27.1943 20.2218 27.0491 20.2721 27.0436C20.5743 27.0113 21.0716 27.0173 21.124 27.1798C21.1848 27.1149 21.2491 27.0492 21.3107 26.9839C21.2745 27.1641 22.2084 27.0896 22.4534 27.094C22.4981 27.0948 22.5044 27.1738 22.5381 27.173C22.9145 27.1628 23.0065 27.039 23.3288 26.9979C23.442 26.9834 23.2665 27.1226 23.5569 27.0625C23.5823 27.0572 23.5688 26.9322 23.9157 26.933C24.4695 26.9342 25.5288 26.8846 26.1881 26.9463C26.2421 26.9511 26.0777 27.0874 26.3248 27.0556C26.4142 27.0444 26.3714 26.9476 26.5883 26.9468C27.4291 26.9427 28.3256 27.054 29.1833 26.9617C29.1534 27.0662 28.8725 27.1829 29.2502 27.1328L29.6278 27.1251L29.6359 27.5185C29.6381 27.5356 29.6407 27.5541 29.6437 27.574C29.655 27.6474 29.7526 27.5926 29.7563 27.6256C29.7845 27.8923 29.7148 28.1235 29.7522 28.4122C29.7635 28.4974 29.8402 28.5186 29.8583 28.6249C29.8853 28.7819 29.7761 28.8514 29.8224 29.0337C29.8954 29.3189 29.999 29.3629 29.7958 29.7165C29.8087 31.7205 29.8659 33.7152 29.7764 35.7125C29.8345 36.2899 29.8994 36.8227 29.9216 37.4245C29.928 37.6018 29.7893 37.6357 29.8353 37.9184C29.8453 37.9818 29.9942 38.4335 29.7139 38.4993C29.7381 38.6251 29.7389 38.7045 29.7538 38.8126C29.795 38.7307 29.8366 38.6462 29.8781 38.5677C29.8333 39.0235 29.9322 39.3957 29.9789 39.7992C30.0132 40.0963 29.893 39.8854 29.9051 40.0677C29.9168 40.25 29.9438 40.3329 29.7999 40.5608C29.9659 40.7398 29.8495 40.8587 29.845 41.1888C29.8446 41.2242 29.909 41.4292 29.8962 41.6005C29.8869 41.7237 29.7833 41.7603 29.7994 41.9559C29.8018 41.988 29.9301 42.4018 29.9418 42.5335C29.9604 42.7386 29.8276 43.0646 29.826 43.1043C29.8026 43.6807 29.9337 43.903 29.7179 44.3123C29.8462 44.3951 29.9212 44.7367 29.9087 45.0127C29.893 45.3613 29.6308 46.0604 29.9079 46.1558C29.7845 46.5593 29.8606 46.5155 29.8631 46.9939C29.8655 47.4295 29.7595 48.5826 29.7748 48.9356C29.7898 49.2884 29.9438 49.1165 29.9644 49.2566C29.9986 49.486 29.8849 49.3621 29.8865 49.5191C29.8914 49.9631 29.9131 50.3489 29.9627 50.7727C29.8829 50.7955 29.8026 50.82 29.7228 50.8436C29.7494 50.8656 29.7761 50.8874 29.8027 50.9093C29.8019 51.0005 29.8035 51.1027 29.8011 51.1871C30.1515 50.4748 29.7752 51.8751 29.7663 52.2955C29.759 52.65 29.9252 53.2402 29.9611 53.6294C29.9699 53.7238 29.8837 53.6589 29.8857 53.6783C29.9025 53.8342 29.9354 53.8996 29.9519 54.0235L29.9659 54.7106L29.2502 54.7252C29.193 54.7328 29.1233 54.737 29.0265 54.7344C28.8644 54.73 28.699 54.622 28.5412 54.6199C27.3822 54.6054 26.2636 54.7139 25.1122 54.7256C24.9164 54.7276 24.7474 54.5958 24.5828 54.5929C24.3474 54.5889 24.1988 54.6969 23.9777 54.6985C23.7574 54.7001 23.4398 54.5711 23.2904 54.5909C23.141 54.6102 23.3966 54.7353 23.1231 54.701C22.9975 54.6852 23.2194 54.5921 23.0642 54.5893C22.5796 54.5804 21.8959 54.6957 21.3801 54.584C21.4029 54.6118 21.434 54.6369 21.4619 54.6635C20.9123 54.6526 20.4268 54.5856 19.8595 54.576C19.6612 54.5724 19.3034 54.6541 19.1084 54.6537C18.9135 54.6533 18.8248 54.5646 18.6686 54.5622C18.6045 54.561 18.6296 54.6404 18.5865 54.6388C18.0481 54.6178 17.7526 54.4764 17.1888 54.4925C16.4981 54.5122 15.8001 54.5309 15.0986 54.5492C13.6525 54.5864 12.1831 54.4197 10.7743 54.0512C10.6899 54.0291 10.6028 54.1116 10.4743 54.0883C10.2762 54.0519 10.2953 53.9608 10.2711 53.9498C10.1131 53.8768 10.1537 53.9803 9.93285 53.9045C9.44383 53.7394 8.71032 53.3522 8.25184 53.1294C7.19377 52.6222 6.30866 52.155 5.3718 51.4598C5.30451 51.4095 5.42545 51.3502 5.3149 51.2574C4.55214 50.5874 4.29946 50.5317 3.47578 49.5547C2.63341 48.5901 1.44221 46.4748 1.02084 45.0452C1.02111 45.0451 1.02138 45.0451 1.02165 45.045C0.653087 44.6767 0.536115 44.0552 0.600444 43.5283C1.75773 46.195 2.93084 48.6495 5.21516 50.6641C7.62725 52.7703 10.9976 53.6847 14.0762 53.9213C14.369 53.9454 14.4813 54.0788 14.7311 54.0585C14.7731 54.0549 14.6672 53.9531 14.7959 53.9458C14.8963 53.94 14.9972 53.9345 15.0986 53.929C16.7824 53.8381 18.5571 54.0364 20.1989 53.9771C20.6682 53.9601 20.7418 53.8492 21.1546 53.8206C21.082 53.873 21.0346 53.9278 20.9713 53.9806C22.8555 54.1444 24.7424 54.0714 26.651 54.0948C26.7371 54.096 26.7481 54.2045 26.8384 54.2085C27.0191 54.217 27.1921 54.0976 27.3499 54.0935C27.5559 54.0883 27.5915 54.1746 27.7815 54.169C27.8742 54.1661 27.8464 54.0831 28.048 54.0972C28.0649 54.0984 28.0759 54.1854 28.21 54.1742C28.4647 54.1527 28.9036 54.111 29.2502 54.0802L29.308 54.079L29.3068 54.0235C29.2932 53.8703 29.2817 53.7352 29.2751 53.6421C29.2472 53.2538 29.3784 52.9423 29.3869 52.7954C29.4099 52.3987 29.2756 52.4069 29.2755 52.0711C29.2747 49.6804 29.4275 47.395 29.4263 44.9477C29.4262 44.794 29.2768 44.2254 29.2827 43.9409C29.2852 43.8455 29.3247 43.347 29.3279 43.2723C29.3404 42.9692 29.4308 42.7073 29.4497 42.5402C29.4868 42.216 29.3457 41.8539 29.3316 41.6774C29.3066 41.3677 29.3251 40.8175 29.3288 40.6874C29.3376 40.3734 29.5122 40.4771 29.4715 40.2517C29.4593 40.1851 29.3255 40.2549 29.3255 40.0203C29.3259 39.8237 29.4267 39.7442 29.4449 39.61C29.4629 39.4758 29.307 39.2296 29.3109 39.1459C29.3327 38.7087 29.4349 38.5151 29.4401 38.039C29.4441 37.6437 29.3727 35.8163 29.336 35.6643C29.172 34.9839 29.2456 36.1171 29.24 36.181C29.2082 36.5263 29.1452 36.4757 29.2654 36.8201C28.8948 37.1283 29.4719 38.2021 29.0323 38.4773C29.3251 38.7618 29.1774 39.0008 29.1186 39.3005C29.0372 39.7147 29.2078 39.3993 29.209 39.7014C29.2093 39.8206 29.0763 40.1658 29.0949 40.3447C29.1135 40.5235 29.2155 40.5989 29.2211 40.8386C29.2316 41.2665 29.184 41.6109 29.0618 41.9705C29.1158 42.0363 29.1699 42.0978 29.2239 42.1628C29.1658 42.4109 29.1081 42.6601 29.0504 42.9083C29.0976 42.8686 29.1452 42.8289 29.1924 42.7892C29.1993 42.8618 29.2057 42.9346 29.2122 43.0072C29.1412 43.2486 29.0755 43.4792 29.0021 43.7274C29.2751 44.4017 29.0388 44.206 29.0033 44.5808C28.9679 44.9555 29.1259 45.1723 29.1267 45.4618C29.1279 45.8518 29.1477 46.0309 29.1364 46.4242C29.1299 46.6522 28.9775 47.0388 29.219 46.7214C29.2384 47.433 29.3058 48.4073 29.2078 49.0438C29.1792 49.2318 29.1031 48.9812 29.0937 49.0132C29.0489 49.1727 29.1722 49.3071 29.1546 49.4717C29.1251 49.7451 29.0291 50.2778 29.0065 50.4931C28.9738 50.8029 29.1336 51.29 29.1453 51.3398C29.2102 51.6182 29.0775 51.6927 29.0867 51.7822C29.1399 52.2912 29.1956 52.4035 28.9158 52.5639C29.0368 52.6957 29.2404 53.2477 29.0368 53.3811C29.1999 53.3841 29.1939 53.7452 29.2226 54.0235L29.2502 53.9959C29.2148 53.9995 29.1808 54.0037 29.1489 54.0089C29.0966 53.9557 29.0434 53.9028 28.991 53.8491C28.4027 54.1782 27.231 53.9392 26.4569 53.9C26.4375 53.8992 26.4028 54.0371 26.2863 54.006C26.2789 54.0035 26.2909 53.9415 26.2128 53.9335C25.9553 53.9077 24.9729 53.753 24.8598 53.7516C24.4437 53.7464 24.3709 53.8492 24.1177 53.8589C23.7843 53.8718 23.7361 53.779 23.4188 53.7923C23.2703 53.7983 23.1351 53.9205 22.9014 53.9032C22.763 53.8931 22.7493 53.7972 22.6397 53.7894C22.2497 53.7616 21.9633 53.8222 21.6172 53.6972C21.5268 54.0024 21.3614 53.7774 21.1901 53.7544C20.4945 53.6604 19.6276 53.7894 19.0308 53.7616C17.6559 53.697 16.396 53.5775 15.0986 53.5023C14.6523 53.4756 14.2068 53.4347 13.753 53.3819C13.4711 53.3478 13.3845 53.4925 13.088 53.4432C12.9553 53.4203 12.8328 53.2904 12.6178 53.2519C12.4452 53.2209 12.1854 53.2285 11.9694 53.1804C11.912 53.1678 11.9296 53.0652 11.8464 53.0453C11.2138 52.8929 10.5859 52.7802 9.94676 52.5915C9.71088 52.5217 9.62265 52.3344 9.57012 52.5726C9.50483 52.4821 9.44055 52.3993 9.38314 52.3112C9.0134 52.3146 8.82658 52.0553 8.40658 51.879C8.36142 51.8614 7.97643 51.8416 7.8661 51.6373C7.81098 51.7041 7.80097 51.7823 7.7571 51.8463C7.56891 51.7756 7.36409 51.5327 7.25881 51.4521C7.15331 51.3722 7.01835 51.4154 6.98429 51.3939C6.85624 51.3111 6.96842 51.2102 6.9601 51.2017C6.46486 50.6841 6.49093 50.7903 6.01607 50.6974C5.89272 50.6756 5.44609 50.0811 5.22473 50.1045C5.26784 50.0482 5.33979 50.0302 5.39385 49.9885C5.24673 49.8284 5.10226 49.6629 4.96319 49.4959C4.94717 49.5762 4.93842 49.6635 4.92059 49.7418C4.64515 49.3848 4.27716 49.2162 4.04062 48.9283C3.90705 48.7637 4.04011 48.6886 3.93727 48.6137C3.9171 48.5989 3.86388 48.6943 3.81253 48.6431C3.39658 48.2196 3.33141 47.9443 3.03184 47.4417C2.89477 47.2056 2.60924 47.0897 2.52608 46.6819C2.51708 46.6432 2.4851 46.2312 2.17309 46.1144C2.20708 46.0135 2.21427 45.9364 2.24747 45.8592C1.73651 45.5573 2.09116 45.5396 1.94137 44.9092C1.85454 44.5851 1.493 43.521 1.39879 43.1644C1.33495 42.9553 1.20266 42.9823 1.19007 42.9446C1.11887 42.7167 1.24994 42.6967 1.19755 42.4863C1.14579 42.2761 0.96651 42.0178 0.962275 41.7917C0.959734 41.6188 1.1326 41.7426 1.05951 41.494C1.04445 41.4424 0.912349 41.5995 0.95382 41.3298C0.9586 41.2866 1.09876 40.857 1.13348 40.771C1.21667 40.9968 1.35823 41.6249 1.41921 41.8569C1.86486 43.8628 3.01253 46.7294 5.16024 48.8601C7.25304 51.0364 10.1273 52.3164 12.1837 52.7559C12.5668 52.8429 12.795 53.0247 13.052 53.0749C13.3058 53.1227 13.1075 52.9633 13.337 53.0039C13.5663 53.0434 13.7285 53.1529 13.9462 53.1787C14.3281 53.2234 14.7105 53.253 15.0986 53.2671C16.2615 53.3072 17.4257 53.344 18.5764 53.3628C18.9791 53.3692 19.3009 53.2623 19.6673 53.2623C19.8099 53.2624 19.8143 53.4003 19.9155 53.3991C21.007 53.3882 22.0167 53.2555 23.1022 53.2716C23.553 53.2785 24.04 53.3946 24.4865 53.4055C24.8545 53.4148 25.236 53.3354 25.5669 53.3337C25.7465 53.3325 25.8413 53.4375 25.9063 53.4458C26.1325 53.4732 26.0534 53.345 26.1691 53.345C26.4881 53.3454 26.6468 53.5003 26.9456 53.4882C27.0629 53.4833 27.0478 53.3846 27.2181 53.3693C27.4342 53.3499 27.3543 53.4409 27.5086 53.4442C27.5178 53.4446 27.4876 53.3741 27.5694 53.3712C28.0921 53.3528 28.7437 53.2979 29.2502 53.3018L28.5285 54.0235C28.5285 54.0195 28.5285 54.0156 28.5286 54.0116C28.5383 52.9607 28.6742 51.9233 28.7008 50.9441C28.7073 50.6967 28.6153 50.7624 28.6109 50.6838C28.5899 50.3057 28.6999 50.1707 28.6604 49.7748C28.6539 49.7089 28.5266 49.4438 28.5589 49.1906C28.5762 49.0538 28.6557 48.8986 28.6742 48.7821C28.6928 48.6657 28.5758 48.647 28.5757 48.507C28.5753 48.2521 28.6564 48.3262 28.6419 47.9616C28.6362 47.8147 28.5254 47.3243 28.5338 46.9461C28.5475 46.3282 28.6488 45.5624 28.6504 44.8339C28.6512 44.584 28.531 44.263 28.5298 43.8756C28.5282 43.402 28.5555 42.5294 28.5571 42.044C28.5579 41.7959 28.6839 41.7779 28.6891 41.7484C28.7241 41.5586 28.5835 41.6352 28.589 41.5079C28.5967 41.3332 28.7004 41.1701 28.7073 41.0114C28.7117 40.9102 28.608 40.8941 28.6072 40.8722C28.5729 40.0601 28.5826 39.3426 28.5713 38.5356C28.5208 34.8744 28.4178 31.1837 28.4236 27.5185L29.2502 28.3451C28.5826 28.344 27.9158 28.3394 27.2502 28.3301C26.8881 28.3253 26.8745 28.1945 26.5562 28.2151C26.238 28.2353 25.9305 28.5176 25.6688 28.2058C25.6604 28.2687 25.6612 28.3136 25.6528 28.3709C24.9952 28.2822 24.3376 28.374 23.6943 28.3853C23.2183 28.3937 22.7961 28.3837 22.3563 28.3769C21.9665 28.3704 22.0002 28.2608 21.6627 28.4038C19.9853 28.3143 18.29 28.3361 16.627 28.1873C16.2369 28.4216 15.8631 28.274 15.3237 28.2393C15.2571 28.2349 15.3285 28.3204 15.131 28.3131C15.12 28.3127 15.1092 28.3121 15.0986 28.3112C14.882 28.2939 14.7505 28.1744 14.37 28.1989C14.2605 28.2015 13.4979 28.4071 13.2053 28.3772C12.9101 28.3403 12.4882 28.3664 12.1766 28.3588C12.2301 28.4051 12.294 28.447 12.3512 28.4922C12.2057 28.5303 12.0606 28.5704 11.9175 28.6128C11.8815 28.5519 11.8451 28.4911 11.8093 28.4299C11.7385 28.5121 11.6684 28.5942 11.5991 28.6786C11.3304 28.391 11.5434 28.4488 11.1587 28.6456C10.9675 28.7453 10.7874 28.7371 10.5915 28.8384C10.5209 28.8753 10.5067 28.9876 10.4298 29.028C10.2416 29.1273 10.3105 28.9544 10.1876 28.9994C10.063 29.0461 9.94416 29.255 9.70121 29.2805C9.82659 28.9308 9.19571 29.2915 9.25725 29.5027C9.18066 29.5379 9.11281 29.5594 9.0314 29.6047C8.87913 29.0797 8.63778 29.6198 8.51968 29.7673C8.39872 29.9141 8.33724 29.7838 8.30336 29.8083C8.20652 29.879 8.31127 29.8903 8.23964 29.932C7.76616 30.208 7.28095 30.4105 6.83253 30.7222C6.76825 30.7671 6.87238 30.7927 6.79409 30.8397C6.71602 30.8868 6.59693 30.8735 6.49288 30.9602C6.46495 30.9835 6.49987 31.0472 6.45544 31.0818C5.52588 31.804 4.68542 32.5626 3.95278 33.523C3.88686 33.6103 3.93894 33.7538 3.81562 33.9218C3.69236 34.0894 3.42052 34.2915 3.2768 34.5116C3.23863 34.5699 3.32011 34.6407 3.27129 34.7178C3.10588 34.9802 2.90121 35.1753 2.74373 35.4611C2.47754 35.9456 2.31873 36.5007 2.08417 37.01C2.04014 37.1068 1.96054 37.0631 1.89066 37.2029C1.77189 37.4455 1.92583 37.3863 1.92715 37.4425C1.93299 37.6257 1.75274 37.6333 1.75316 37.8097C1.75342 37.8366 1.8614 37.8258 1.85727 37.8486C1.78993 38.1993 1.55105 38.1693 1.60373 38.572C1.40705 38.8858 1.46353 38.3113 1.40769 38.2373C1.26484 38.0558 0.978309 38.3955 0.87369 38.6205C0.783046 38.8123 0.893589 38.8276 0.881505 38.9071C0.815762 39.3292 0.78425 39.963 0.722858 40.2847C0.684241 40.4805 0.651579 40.1236 0.611483 40.2227C0.571103 40.3218 0.651984 40.389 0.558968 40.4903C0.465482 40.5905 0.197966 40.8064 0.0707018 40.7658ZM28.8193 27.2367C28.176 27.6722 26.4702 27.6267 25.5542 27.5852C24.7945 27.5505 24.1395 27.2149 24.2965 27.7013C25.1178 27.7045 25.7821 27.6557 26.6507 27.6707C26.741 27.6723 27.2797 27.7174 27.4671 27.7255C27.5726 27.7299 27.576 27.8103 27.7195 27.8095C27.7507 27.809 27.9239 27.7041 27.9872 27.7069C28.2041 27.7162 28.8491 27.8773 28.9391 27.8727C29.1889 27.859 29.093 27.7341 29.2008 27.7114C29.218 27.7079 29.2344 27.7049 29.2502 27.7025L29.0662 27.5185C29.1151 27.8358 28.9476 27.8882 29.0056 28.23C29.0165 28.2941 29.18 28.5069 29.1586 28.7728C29.1497 28.8808 29.0653 29.0649 29.0694 29.1476C29.0912 29.5984 29.2029 30.1016 29.1844 30.5143C29.169 30.8527 29.0428 30.7617 29.0259 30.9407C29.0094 31.1196 29.1557 31.3357 29.1642 31.4581C29.1775 31.6539 29.0944 31.892 29.0956 31.9527C29.1202 33.1498 29.2166 34.2142 29.2513 35.369C29.3089 34.5848 29.3619 33.8015 29.4215 33.0223C29.2909 32.58 29.4134 32.8002 29.4541 32.509C29.4864 32.2786 29.2651 32.2228 29.2896 31.9199C29.2896 31.9201 29.2896 31.9204 29.2896 31.9206C29.3025 31.7645 29.4558 31.426 29.3916 31.0934C29.3892 31.0815 29.2743 31.0519 29.2703 30.8029C29.2614 30.2433 29.2025 29.3857 29.2271 28.756C29.2343 28.5711 29.355 28.6088 29.3699 28.3901C29.3807 28.2306 29.2692 28.0459 29.2941 27.7962C29.3052 27.6871 29.3357 27.5977 29.3595 27.5185L29.3572 27.407L29.2502 27.4092C29.1021 27.3647 28.9894 27.3437 28.8492 27.5175C28.8314 27.4223 28.8404 27.3294 28.8193 27.2367ZM11.5417 27.8899C11.4975 27.8866 10.8437 27.7536 11.0984 28.0143C11.8968 27.9368 12.7224 27.7104 13.5563 27.7036C13.2412 27.42 12.7668 27.6013 12.199 27.7354C12.1988 27.7355 12.1985 27.7355 12.1983 27.7356C12.1711 27.742 12.2699 27.6389 12.1171 27.6841C12.0422 27.7061 11.7825 27.8886 11.5417 27.8899ZM58.4292 40.7756C58.5354 41.3877 58.5396 42.0102 58.4063 42.6328C58.3757 42.7742 58.2958 42.7483 58.274 42.8044C58.2338 42.9065 58.2904 43.1012 58.2857 43.1266C58.2585 43.2832 58.1278 43.1956 58.1185 43.2155C58.0167 43.4353 58.1911 43.4005 58.1593 43.6258C58.1166 43.9206 57.9955 44.2809 57.8848 44.6198C57.8451 44.7384 57.7581 44.6538 57.6848 44.9107C57.6354 45.0922 57.5513 45.6869 57.3212 45.8832C57.274 45.8652 57.2355 45.8128 57.1928 45.78C57.2393 46.2106 57.1754 46.341 56.8875 46.8032C56.8415 46.8758 56.8809 46.9884 56.7809 47.1075C56.6803 47.2257 56.5625 47.1679 56.4137 47.4296C56.3607 47.5221 56.4085 47.6262 56.3256 47.7693C56.0945 48.1816 55.4809 48.8392 55.2348 49.1287C54.7564 49.7045 54.5905 50.1157 54.0702 50.5463C54.0303 50.5791 54.0404 50.4266 53.9711 50.4905C53.9015 50.5545 53.9221 50.7217 53.907 50.7402C53.7455 50.9422 53.2196 51.1536 53.1255 51.2563C52.8938 51.5123 53.1963 51.3504 52.8366 51.6635C52.4912 51.9618 51.8745 52.1702 51.4796 52.3699C51.0221 52.6009 50.9967 52.9068 50.528 52.8506C49.3344 53.491 48.0442 53.9652 46.7209 54.265C46.7133 54.2118 46.7063 54.1584 46.6994 54.105C46.6035 54.1638 46.5063 54.2218 46.408 54.2785C46.4162 54.2362 46.4235 54.194 46.4316 54.1521C45.9729 54.3991 45.5337 54.5486 44.9409 54.5651C44.9294 54.5654 44.9492 54.456 44.9394 54.4542C44.8062 54.4471 44.6669 54.5413 44.5492 54.5304C44.2631 54.5066 43.7837 54.2886 44.002 54.5662C43.8098 54.5562 43.6078 54.5564 43.4013 54.5581C42.9062 54.5628 42.3904 54.5734 41.9558 54.4938C41.6885 54.4447 41.6276 54.2662 41.5027 54.2415C41.3776 54.2161 41.4235 54.3681 41.3777 54.3679C41.1028 54.3667 40.6534 54.2841 40.638 54.115C40.5727 54.1691 40.5037 54.2231 40.4362 54.2766C40.4999 54.11 39.6623 54.0066 39.4482 53.9384C39.4092 53.9272 39.4242 53.8494 39.3946 53.8423C39.0663 53.7628 38.951 53.8569 38.6582 53.8076C38.5559 53.7896 38.7499 53.7072 38.4816 53.6817C38.4582 53.6787 38.4301 53.804 38.1301 53.6965C37.6537 53.531 36.7366 53.19 36.2336 52.8482C36.1923 52.8209 36.3878 52.7704 36.1747 52.6932C36.0978 52.6645 36.0858 52.769 35.9117 52.6738C35.2342 52.3023 34.6161 51.7592 33.9461 51.3471C34.0368 51.2792 34.3288 51.3535 33.9605 51.1498C33.9016 51.1171 33.8791 51.2242 33.8535 51.2082C33.6462 51.0769 33.5305 50.8879 33.3093 50.7412C33.2439 50.6978 33.1781 50.7419 33.0938 50.6893C32.9693 50.6114 32.9975 50.4884 32.8452 50.4062C32.6077 50.2765 32.5018 50.3184 32.4239 49.9434C31.1545 48.6271 30.0963 47.0658 29.5407 45.3128C29.3024 44.8369 29.0943 44.3831 28.9417 43.8461C28.8977 43.6872 29.0247 43.626 28.9271 43.3817C28.9042 43.3289 28.6819 42.94 28.9508 42.8355C28.9089 42.7264 28.8975 42.6546 28.869 42.5588C28.8386 42.6387 28.8087 42.7216 28.7789 42.7995C28.759 42.378 28.6247 42.0485 28.5518 41.6757C28.5002 41.4009 28.6321 41.5896 28.6109 41.4222C28.5914 41.2552 28.5612 41.1774 28.7016 40.9648C28.632 40.8977 28.6112 40.8384 28.6112 40.771C28.6113 40.6751 28.6529 40.5633 28.6606 40.3852C28.6618 40.3526 28.6037 40.1617 28.626 40.0038C28.6423 39.8899 28.7473 39.8633 28.7457 39.6831C28.7445 39.6541 28.6537 39.2627 28.6591 39.1381C28.6634 38.945 28.8413 38.6678 28.8493 38.6327C28.9618 38.1149 28.8828 37.8833 29.1825 37.5708C29.0761 37.4668 29.085 37.1402 29.1733 36.8992C29.2802 36.5901 29.7483 36.0835 29.5259 35.9017C29.7812 35.6027 29.6927 35.6119 29.8743 35.2087C30.033 34.836 30.6421 33.9627 30.8114 33.6898C30.9744 33.4107 30.7605 33.458 30.8149 33.3385C30.9058 33.143 30.9352 33.3021 31.0161 33.182C31.2466 32.8434 31.445 32.5477 31.6563 32.2135C31.7313 32.248 31.8074 32.282 31.8825 32.3166C31.8748 32.2842 31.8672 32.2518 31.8598 32.2193C31.9142 32.156 31.974 32.0838 32.0267 32.0272C31.3318 32.2954 32.4604 31.5594 32.7453 31.3122C32.9776 31.089 33.2639 30.6012 33.5198 30.3429C33.5812 30.2802 33.5903 30.3849 33.6028 30.3719C33.7487 30.2198 33.7362 30.1528 33.965 29.9847C34.0863 29.8965 34.2729 29.8917 34.391 29.8086C35.2577 29.1982 36.0992 28.5901 37.0669 28.1467C37.2313 28.0716 37.4258 28.1327 37.5661 28.0787C37.7676 28.0017 37.8548 27.8526 38.0461 27.7808C38.2372 27.7088 38.5538 27.7387 38.6774 27.6792C38.8021 27.6196 38.5403 27.5705 38.791 27.5283C38.9061 27.5096 38.7385 27.6582 38.8754 27.6193C39.299 27.4978 39.8817 27.2322 40.3688 27.2522C40.343 27.2289 40.3101 27.21 40.2797 27.189C40.7766 27.1005 41.2264 27.0986 41.7415 27.0532C41.923 27.0368 42.2391 26.9285 42.4191 26.9185C42.5983 26.9081 42.6837 26.9932 42.825 26.9903C42.8833 26.9894 42.8578 26.9108 42.8972 26.9111C43.0894 26.9133 43.2487 26.938 43.4013 26.9663C43.6399 27.0109 43.8596 27.0633 44.17 27.0682C46.0446 27.0975 47.9837 27.4926 49.7623 28.2354C49.8335 28.2651 49.9245 28.1926 50.0345 28.2271C50.2039 28.2805 50.1714 28.3674 50.1911 28.3803C50.3189 28.4653 50.3009 28.3613 50.4839 28.4537C50.8908 28.6567 51.4828 29.0862 51.8596 29.3292C52.7309 29.8855 53.4645 30.3726 54.2275 31.0612C54.2823 31.1109 54.1608 31.1627 54.2495 31.2537C54.86 31.9073 55.0861 31.9678 55.7348 32.8877C56.3989 33.7993 57.3165 35.7247 57.6393 36.9941C57.639 36.9942 57.6387 36.9942 57.6385 36.9943C57.9758 37.3239 58.054 37.876 57.9653 38.3404C56.9418 35.9819 56.0895 33.7695 54.2529 31.8144C52.3129 29.7703 49.4792 28.6423 46.8442 27.9838C46.5953 27.9205 46.5196 27.7729 46.2984 27.7567C46.2612 27.7542 46.336 27.8699 46.2229 27.8584C45.2999 27.7641 44.3531 27.6256 43.4013 27.5874C42.7565 27.5612 42.1192 27.5806 41.5085 27.683C41.1042 27.7533 41.0546 27.8744 40.7085 27.9647C40.7609 27.9019 40.792 27.8407 40.8377 27.7792C39.1739 27.8991 37.5843 28.5288 36.1066 29.3327C36.0399 29.3688 35.9778 29.2793 35.9058 29.316C35.7614 29.3895 35.6908 29.5711 35.5749 29.6476C35.4236 29.748 35.3502 29.6926 35.2116 29.7898C35.1444 29.8377 35.2103 29.8927 35.055 29.9807C35.0421 29.9882 34.9847 29.9215 34.8931 29.9986C34.6391 30.2079 34.1572 30.6709 33.9688 30.8618C33.7249 31.1017 33.4347 31.1905 33.333 31.2736C33.0601 31.4991 33.1596 31.5911 32.9517 31.8008C31.4881 33.3021 30.2591 34.9987 29.6174 37.0967C29.5748 37.2293 29.5857 37.7542 29.5274 37.9971C29.5042 38.0784 29.3789 38.5013 29.3659 38.5671C29.3065 38.8297 29.1856 39.0458 29.1481 39.1928C29.0744 39.4787 29.1891 39.8114 29.1938 39.9683C29.1988 40.2032 29.1781 40.5879 29.1737 40.771C29.1726 40.8028 29.1719 40.8283 29.1715 40.8455C29.1658 41.1242 28.9901 41.0364 29.037 41.2368C29.0516 41.2956 29.1819 41.2291 29.1919 41.4355C29.2009 41.6093 29.1059 41.6871 29.0973 41.8083C29.0886 41.9305 29.2657 42.1313 29.2707 42.2052C29.2954 42.5922 29.2192 42.7769 29.2933 43.1973C29.3284 43.554 29.8638 45.0969 29.9684 45.1991C30.336 45.7 29.9109 44.796 29.906 44.7372C29.8417 44.4385 29.9157 44.4649 29.7151 44.2076C29.9902 43.8592 29.2241 43.0654 29.6269 42.7459C29.2985 42.5491 29.4156 42.3134 29.4473 42.0496C29.494 41.684 29.349 41.973 29.3261 41.7091C29.317 41.6036 29.4328 41.296 29.4107 41.1425C29.3901 41.0033 29.3045 40.9373 29.2833 40.771C29.281 40.7524 29.2795 40.7326 29.279 40.7114C29.2708 40.334 29.3342 40.0331 29.4818 39.7317C29.4328 39.6704 29.3838 39.6122 29.3356 39.5503C29.4144 39.3402 29.4989 39.1297 29.5879 38.9267C29.5362 38.9535 29.484 38.9808 29.4324 39.0085C29.4346 38.9446 29.4377 38.8807 29.4413 38.8169C29.5446 38.619 29.6458 38.4328 29.7616 38.2391C29.6225 37.6089 29.8187 37.8249 29.9341 37.5239C30.0547 37.2225 29.9609 36.9981 30.0417 36.7576C30.1523 36.4362 30.1894 36.2833 30.3314 35.9703C30.4137 35.7886 30.6929 35.5458 30.3586 35.699C30.5889 35.1196 30.9487 34.3291 31.3405 33.9156C31.4544 33.7935 31.3982 34.0186 31.4217 34.0001C31.5343 33.9086 31.4967 33.743 31.5932 33.6343C31.7523 33.4523 32.1064 33.14 32.2411 33.0102C32.4306 32.8216 32.5871 32.3989 32.6088 32.3585C32.723 32.1337 32.8663 32.1769 32.9124 32.1141C33.179 31.7571 33.2168 31.6496 33.5094 31.7549C33.5041 31.5891 33.726 31.1118 33.9493 31.191C33.8306 31.0494 34.1561 30.8128 34.3237 30.6249C34.3928 30.6383 34.4622 30.6514 34.5309 30.6663C34.7345 30.0843 35.7404 29.6979 36.3499 29.4206C36.3651 29.4133 36.3259 29.2773 36.4312 29.2564C36.4381 29.2556 36.4579 29.3151 36.5221 29.2903C36.7329 29.2003 37.5711 28.9805 37.6616 28.9502C37.9948 28.8158 38.0166 28.6992 38.2192 28.6119C38.4871 28.4994 38.5584 28.5731 38.8138 28.4743C38.9337 28.429 39.0094 28.2764 39.2111 28.2351C39.3299 28.2111 39.3673 28.3004 39.4606 28.2825C39.7926 28.2203 40.022 28.1033 40.3399 28.1633C40.3532 27.8484 40.5425 28.0393 40.6904 28.0354C41.2949 28.0157 42.0212 27.8041 42.5413 27.8049C42.8347 27.8041 43.1183 27.8155 43.4013 27.8365C44.6741 27.9344 45.8232 28.2116 47.0339 28.5581C47.2736 28.6284 47.3717 28.4965 47.6239 28.5818C47.7368 28.6208 47.8201 28.7627 48.0016 28.8253C48.1473 28.8757 48.3771 28.8974 48.5582 28.9672C48.6064 28.9857 48.5732 29.0843 48.6429 29.1125C49.1734 29.3277 49.7099 29.4951 50.2477 29.7287C50.4469 29.8154 50.4931 30.0024 50.5808 29.7758C50.6239 29.8683 50.6676 29.9532 50.7042 30.0427C51.0369 30.0657 51.1611 30.3287 51.5113 30.5228C51.5485 30.5421 51.8957 30.5843 51.9621 30.785C52.0232 30.7239 52.0452 30.6497 52.0956 30.5907C52.2544 30.6681 52.4032 30.9109 52.4862 30.9922C52.5698 31.0731 52.7004 31.038 52.7282 31.0599C52.8324 31.1442 52.7135 31.2353 52.7197 31.2437C53.0933 31.7556 53.087 31.653 53.5124 31.7574C53.6227 31.7829 53.9492 32.3547 54.1609 32.3382C54.1123 32.3896 54.0422 32.4044 53.9854 32.442C54.0994 32.5956 54.2111 32.7535 54.3184 32.9121C54.3449 32.8377 54.3656 32.7567 54.3937 32.6842C54.6015 33.0231 54.9272 33.1866 55.1136 33.4558C55.2189 33.6098 55.0823 33.6767 55.1706 33.7473C55.1879 33.7612 55.2512 33.6743 55.2935 33.7222C55.6364 34.117 55.6653 34.3696 55.8967 34.8295C56.0025 35.0452 56.2662 35.1527 56.3052 35.5214C56.3099 35.5565 56.2994 35.9279 56.5943 36.0342C56.5516 36.1246 56.5375 36.1938 56.498 36.2629C56.973 36.5354 56.6215 36.5503 56.7203 37.1132C56.7787 37.4032 57.0728 38.347 57.1541 38.662C57.2088 38.8476 57.3419 38.8229 57.3529 38.8562C57.415 39.0563 57.2837 39.0747 57.3292 39.2606C57.3744 39.4473 57.5467 39.6724 57.547 39.8726C57.5466 40.025 57.3757 39.9165 57.4451 40.1348C57.4596 40.1801 57.5933 40.0414 57.5489 40.279C57.5433 40.3171 57.4007 40.6954 57.3664 40.771C57.2823 40.5719 57.1469 40.0203 57.0917 39.815C56.6656 36.0828 52.0431 30.3846 48.2968 29.3603C47.9765 29.234 47.8068 29.0281 47.5923 28.9483C47.3778 28.8701 47.5241 29.0512 47.3302 28.9828C47.1375 28.9155 47.0166 28.7871 46.8301 28.7324C45.7237 28.4082 44.5625 28.2175 43.4013 28.1893C43.2487 28.1855 43.0969 28.1845 42.9459 28.1863C42.6085 28.1907 42.3416 28.3154 42.0398 28.3435C41.9211 28.3549 41.9031 28.2183 41.818 28.2286C40.9012 28.3412 40.0964 28.642 39.2275 28.8895C38.8668 28.9923 38.442 29.0187 38.0884 29.1485C37.7952 29.2554 37.5348 29.4572 37.2852 29.5784C37.1502 29.6443 37.0326 29.5861 36.9797 29.6033C36.7969 29.6652 36.9149 29.7494 36.8288 29.794C36.5921 29.9182 36.4011 29.8473 36.1869 29.9858C36.1036 30.0404 36.1646 30.1186 36.0503 30.2057C35.9059 30.3168 35.9152 30.2043 35.8032 30.2707C35.7964 30.2745 35.8556 30.3205 35.7991 30.3598C35.4341 30.6128 35.0198 30.978 34.6864 31.2396C33.9961 31.7766 33.2773 32.2902 32.7216 32.9066C32.5823 33.0624 32.6894 33.0788 32.6509 33.1323C32.4686 33.3911 32.3113 33.4144 32.1468 33.7071C32.119 33.7563 32.0945 34.0097 31.9517 34.1671C31.8742 34.2522 31.7372 34.3186 31.6694 34.3921C31.6018 34.4656 31.6931 34.5402 31.633 34.6401C31.5252 34.8233 31.4848 34.7284 31.3483 35.0026C31.2923 35.1136 31.1995 35.5262 31.0619 35.8073C30.8334 36.2647 30.5056 36.8264 30.3326 37.4133C30.2723 37.6154 30.3182 37.9031 30.2497 38.2168C30.1613 38.5979 30.0223 39.3111 29.99 39.7133C29.9714 39.9181 29.8462 39.9249 29.839 39.9493C29.7936 40.1068 29.9382 40.0513 29.9268 40.1567C29.9117 40.3006 29.8035 40.4336 29.7944 40.5678C29.7887 40.6533 29.8925 40.6678 29.8931 40.6861C29.8943 40.7145 29.8956 40.7428 29.8969 40.771C29.9276 41.4157 29.964 41.9896 30.0742 42.6242C30.6866 46.2015 33.0842 49.294 36.1093 51.188C36.3635 51.3471 36.3096 51.4662 36.5517 51.5784C36.7968 51.691 37.1486 51.554 37.2072 51.9288C37.241 51.8753 37.2599 51.8346 37.2911 51.7861C37.7454 52.1045 38.2889 52.2285 38.7953 52.3911C39.1697 52.511 39.5027 52.6205 39.8536 52.7183C40.1658 52.8036 40.1147 52.9034 40.4188 52.824C41.3822 53.0967 42.3937 53.2098 43.4013 53.2634C43.7981 53.2845 44.1911 53.2969 44.587 53.3067C44.8918 53.046 45.2125 53.161 45.6667 53.125C45.7225 53.1204 45.6502 53.046 45.8136 53.026C46.0178 52.9993 46.1482 53.1101 46.4911 53.029C46.5838 53.0105 47.213 52.7061 47.4732 52.701C47.7385 52.7004 48.1016 52.6262 48.377 52.5997C48.322 52.5602 48.2589 52.5261 48.201 52.4881C48.3217 52.4347 48.442 52.3798 48.5605 52.3232C48.6026 52.3791 48.6451 52.4349 48.6872 52.4911C48.7355 52.4031 48.7833 52.3155 48.8296 52.2261C49.1161 52.4808 48.9179 52.4446 49.2238 52.2154C49.376 52.0998 49.5365 52.0916 49.6932 51.9758C49.7495 51.9338 49.7433 51.8231 49.8043 51.7775C49.9546 51.6652 49.9229 51.8391 50.0247 51.7852C50.1275 51.7298 50.1988 51.5168 50.4108 51.4746C50.3576 51.8226 50.862 51.4266 50.7716 51.2276C50.8343 51.1885 50.8912 51.1634 50.957 51.1143C51.1819 51.6108 51.3102 51.0735 51.3918 50.9256C51.4765 50.7776 51.5541 50.8993 51.5807 50.8737C51.657 50.8002 51.56 50.7955 51.6182 50.7513C52.0021 50.4602 52.4124 50.2444 52.7766 49.9306C52.8287 49.8855 52.7287 49.8653 52.7934 49.8178C52.858 49.7702 52.9698 49.7783 53.0527 49.6924C53.075 49.6694 53.0329 49.6104 53.0686 49.5762C53.8173 48.8622 54.4988 48.1386 55.0795 47.2493C55.1317 47.1685 55.0637 47.0377 55.1618 46.883C55.2599 46.7287 55.4984 46.5421 55.6132 46.3413C55.6437 46.2882 55.5569 46.2246 55.5958 46.1545C55.7276 45.9158 55.9068 45.7383 56.0329 45.4806C56.2462 45.0435 56.3556 44.5464 56.5518 44.0934C56.5887 44.007 56.6704 44.0455 56.7303 43.9212C56.832 43.7059 56.6836 43.7586 56.6787 43.7088C56.6615 43.5467 56.84 43.5393 56.8299 43.3826C56.8281 43.3587 56.7215 43.3685 56.7243 43.3482C56.7724 43.0382 57.0114 43.0648 56.9418 42.7081C57.125 42.4318 57.092 42.9381 57.1515 43.0044C57.302 43.1656 57.5715 42.8621 57.6673 42.6656C57.7504 42.4969 57.64 42.4827 57.6493 42.4126C57.7002 42.0395 57.7198 41.4813 57.7791 41.1991C57.8161 41.0267 57.8518 41.341 57.8911 41.2537C57.9305 41.1665 57.8491 41.1072 57.9416 41.0181C58.0345 40.9299 58.3019 40.7398 58.4292 40.7756ZM34.3752 51.3306C35.0886 51.3451 36.3057 52.1631 37.0269 52.5307C37.6082 52.8479 38.0365 53.3604 38.0805 52.858C37.4174 52.5955 36.8712 52.396 36.2163 52.0147C36.1476 51.9765 35.7657 51.6999 35.6346 51.6052C35.5597 51.5526 35.6001 51.4833 35.4959 51.4167C35.4732 51.4027 35.2902 51.4076 35.2461 51.3742C35.0923 51.2632 34.7368 50.8045 34.6758 50.7604C34.4979 50.6406 34.4861 50.7888 34.3985 50.749C34.1051 50.6104 34.1987 50.4443 33.9245 50.2883C33.876 50.2604 33.6276 50.2606 33.4718 50.0859C33.4085 50.0148 33.3512 49.8428 33.2974 49.7955C33.0032 49.5388 32.6211 49.2917 32.3999 49.0036C32.2201 48.7673 32.3694 48.7475 32.2845 48.617C32.2004 48.487 31.97 48.4282 31.8986 48.3472C31.7844 48.2183 31.7313 48.0006 31.7002 47.9582C31.0846 47.1208 30.5542 46.3429 30.1416 45.4115C30.3441 46.0739 30.6069 46.7209 30.9135 47.3468C31.2303 47.6144 31.0228 47.511 31.1287 47.7526C31.2149 47.9431 31.4255 47.8612 31.5583 48.0934C31.5582 48.0933 31.558 48.0931 31.5579 48.0929C31.626 48.2123 31.6799 48.5476 31.9153 48.7408C31.924 48.7474 32.0293 48.6977 32.1711 48.8646C32.4897 49.2433 33.0457 49.7539 33.4359 50.146C33.55 50.2614 33.4438 50.3282 33.5784 50.4689C33.6775 50.5713 33.8737 50.5945 34.027 50.7534C34.2191 50.9523 34.2108 51.188 34.523 51.0904C34.4781 51.1758 34.4159 51.2451 34.3752 51.3306ZM49.0163 52.9919C49.0553 52.9901 49.6555 53.0562 49.3858 52.8263C48.6926 52.9792 48.0101 53.2929 47.2835 53.4076C47.6055 53.6464 47.9891 53.4083 48.465 53.2134C48.4652 53.2133 48.4654 53.2132 48.4656 53.2132C48.4883 53.2039 48.4196 53.3159 48.5457 53.2547C48.6077 53.2248 48.8032 53.0182 49.0163 52.9919Z" fill="#FFD170"/>
</svg>
