<svg width="57" height="80" viewBox="0 0 57 80" fill="none" xmlns="http://www.w3.org/2000/svg">
<path d="M14.2883 79.8897C22.1 79.8897 28.4399 73.9526 28.4399 66.6372V53.3848H14.2883C6.47663 53.3848 0.136719 59.3219 0.136719 66.6372C0.136719 73.9526 6.47663 79.8897 14.2883 79.8897Z" fill="#FCAB4D"/>
<path d="M0.136719 40.1587C0.136719 32.8434 6.47663 26.9062 14.2883 26.9062H28.4399V53.4112H14.2883C6.47663 53.4112 0.136719 47.4741 0.136719 40.1587Z" fill="#D17D54"/>
<path d="M0.136719 13.6402C0.136719 6.3248 6.47663 0.387695 14.2883 0.387695H28.4399V26.8926H14.2883C6.47663 26.8926 0.136719 20.9555 0.136719 13.6402Z" fill="#985142"/>
<path d="M28.4395 0.387695H42.591C50.4027 0.387695 56.7426 6.3248 56.7426 13.6402C56.7426 20.9555 50.4027 26.8926 42.591 26.8926H28.4395V0.387695Z" fill="#D17D54"/>
<path d="M56.7426 40.1587C56.7426 47.4741 50.4027 53.4112 42.591 53.4112C34.7794 53.4112 28.4395 47.4741 28.4395 40.1587C28.4395 32.8434 34.7794 26.9062 42.591 26.9062C50.4027 26.9062 56.7426 32.8434 56.7426 40.1587Z" fill="#FCAB4D"/>
</svg>
