<svg width="61" height="85" viewBox="0 0 61 85" fill="none" xmlns="http://www.w3.org/2000/svg">
<path d="M6.3937 9.26658C6.17747 9.54315 5.94997 9.7827 5.67909 10.1048C5.67897 10.105 5.67885 10.1051 5.67873 10.1053C5.64014 10.1514 5.60061 10.1992 5.56044 10.2491C5.24092 10.6515 4.83469 11.2003 4.44782 12.1383C4.02615 13.1737 3.72724 14.0317 3.5058 14.5772C3.46521 14.6783 3.4365 14.7853 3.40625 15.06C3.39164 15.1968 3.37762 15.3713 3.3685 15.6055C3.36572 15.678 3.36349 15.7558 3.36211 15.8395C3.35905 16.028 3.36005 16.2464 3.37099 16.5037C3.39695 17.3534 3.6694 18.6762 4.16734 19.8046C4.46132 20.492 4.81705 21.1094 5.10833 21.5648C5.53402 22.231 5.98986 22.8517 6.55506 23.4743C7.07367 24.0424 7.68595 24.6134 8.48073 25.1645C9.09004 25.5853 9.66268 26.0422 10.2927 26.475C10.3726 26.5299 10.4537 26.5844 10.5358 26.6382C11.1006 27.009 11.7181 27.3536 12.4332 27.6045C13.6366 28.0211 14.6925 28.0855 15.802 28.0338C15.874 28.0303 15.9464 28.0269 16.0192 28.0234C16.5116 27.9997 17.0227 27.9751 17.5771 27.9605C18.4537 27.9374 19.714 27.9421 20.9795 27.9486C21.0873 27.9492 21.1952 27.9496 21.3029 27.9501C21.3034 27.9501 21.304 27.9501 21.3045 27.9501C22.4629 27.9563 23.5998 27.9623 24.4339 27.9489C25.7593 27.9276 26.258 27.8772 26.6739 27.8351C26.8303 27.8192 26.975 27.8044 27.1476 27.793C27.7691 27.7516 28.7072 27.7593 29.6582 27.767C29.6618 27.767 29.6655 27.767 29.6691 27.767C29.8269 27.7683 29.9543 27.9095 29.9536 28.0823C29.9528 28.2551 29.8242 28.3942 29.6664 28.393C29.1626 28.3889 28.6711 28.3849 28.231 28.3878C28.2082 28.5362 28.0897 28.6486 27.9476 28.6475C27.592 28.6446 26.5029 28.7565 24.7984 28.9392C24.9151 28.9663 25.0129 28.9926 25.0986 29.0177C25.1992 29.0471 25.2763 29.0723 25.3425 29.094C25.4806 29.1391 25.5725 29.1688 25.7356 29.1907C26.1134 29.2156 26.7071 29.2207 27.3319 29.2258C27.4896 29.2271 27.617 29.368 27.6163 29.5408C27.6156 29.7135 27.4869 29.8526 27.3291 29.8514C27.3261 29.8514 27.323 29.8514 27.3199 29.8514C26.7011 29.8464 26.0883 29.8413 25.6937 29.8148C25.5933 29.8081 25.5068 29.8001 25.4419 29.7928C25.39 29.787 25.3252 29.7792 25.2892 29.769C25.2844 29.7677 25.2753 29.765 25.2644 29.7608C25.2642 29.7607 25.264 29.7606 25.2639 29.7605C25.2578 29.7582 25.2267 29.7465 25.1936 29.7211C25.1869 29.716 25.1724 29.7045 25.1555 29.686C25.1512 29.6846 25.1468 29.6832 25.1425 29.6817C25.0817 29.662 25.0198 29.6418 24.9527 29.6222C24.6909 29.5457 24.2762 29.4493 23.4125 29.3473C22.6182 29.2534 21.2754 29.2113 19.5999 29.2105C19.7131 29.2235 19.8265 29.236 19.9399 29.2481C20.2252 29.2784 20.5118 29.306 20.7985 29.3323C20.9083 29.3424 21.0166 29.3522 21.127 29.3619C21.3047 29.3776 21.483 29.393 21.6611 29.408C21.7815 29.4182 21.9021 29.4282 22.0226 29.4382C22.0229 29.4382 22.0231 29.4382 22.0234 29.4382C22.1907 29.4522 22.3583 29.4662 22.5273 29.4806C22.5864 29.486 22.6449 29.4912 22.7029 29.4962C22.9338 29.5162 23.1606 29.5357 23.4218 29.5734C23.4535 29.5797 23.488 29.5877 23.5138 29.5945C23.5415 29.6016 23.5681 29.6088 23.5933 29.6161C23.6155 29.6226 23.6367 29.6292 23.657 29.6354C23.6597 29.6362 23.6624 29.637 23.6651 29.6378C23.6879 29.6447 23.7096 29.651 23.7305 29.657C23.7513 29.663 23.7714 29.6688 23.7912 29.6738C23.7914 29.6738 23.7915 29.6738 23.7917 29.6738C23.8124 29.679 23.8281 29.6828 23.85 29.6872C23.8775 29.6928 23.9011 29.6971 23.9297 29.7013C23.9574 29.7054 23.9863 29.7091 24.0155 29.7123C24.0446 29.7155 24.0744 29.7183 24.1045 29.7208C24.1347 29.7234 24.1653 29.7257 24.1962 29.7278C24.2271 29.7299 24.2584 29.7318 24.2899 29.7336C24.3214 29.7355 24.3532 29.7373 24.3852 29.7391C24.4588 29.7432 24.5293 29.7779 24.5811 29.8368C24.6329 29.8956 24.6618 29.9735 24.6614 30.0541C24.6611 30.1347 24.6315 30.2121 24.5792 30.2701C24.5269 30.3282 24.4561 30.3618 24.3824 30.3648C24.3624 30.3655 24.3422 30.3664 24.322 30.3672C24.31 30.3676 24.2979 30.368 24.2858 30.3684C24.2533 30.3696 24.2205 30.3709 24.1875 30.3718C24.1545 30.3727 24.1213 30.3732 24.0876 30.3736C24.0539 30.374 24.0197 30.3741 23.985 30.3736C23.9504 30.3731 23.915 30.3721 23.8791 30.3702C23.8441 30.3685 23.8041 30.3655 23.7683 30.3617C23.7422 30.359 23.71 30.3545 23.6831 30.3504C23.6551 30.3461 23.6275 30.3413 23.6009 30.3364C23.5742 30.3314 23.5485 30.3261 23.5239 30.3211C23.5212 30.3206 23.5186 30.3201 23.516 30.3196C23.4942 30.3152 23.4732 30.3109 23.4534 30.3071C23.4312 30.3028 23.4102 30.2992 23.3902 30.2961C23.3682 30.2926 23.3549 30.2912 23.3385 30.2897C23.1219 30.2796 22.8542 30.2817 22.5989 30.2836C22.5668 30.2838 22.5349 30.284 22.5033 30.2842C22.3357 30.2857 22.1683 30.2875 22.0011 30.2894C21.8796 30.2907 21.7579 30.2921 21.6361 30.2933C21.4568 30.2951 21.277 30.2966 21.0973 30.2976C20.9858 30.2982 20.8763 30.2986 20.765 30.2988C20.4744 30.2994 20.1828 30.2986 19.8909 30.2949C19.5994 30.2911 19.306 30.2846 19.0125 30.2735C18.72 30.2624 18.4162 30.2459 18.1229 30.2207C17.9072 30.2019 17.6861 30.1691 17.4815 30.1353C17.3716 30.117 17.2639 30.0985 17.1579 30.08C17.1575 30.0799 17.1571 30.0798 17.1568 30.0797C17.0637 30.0635 16.9717 30.0474 16.8805 30.0321C16.6848 29.9992 16.4926 29.9699 16.3004 29.9451C16.1341 29.9237 15.9685 29.9057 15.802 29.8912C15.7744 29.8889 15.7469 29.8867 15.7194 29.8845C15.5147 29.8681 15.3081 29.8521 15.1046 29.8366C14.8997 29.8209 14.6966 29.8057 14.4856 29.7888C14.2093 29.7669 13.9295 29.7426 13.6475 29.7115C13.3671 29.6807 13.0816 29.6433 12.7999 29.5987C12.7012 29.5831 12.6014 29.5661 12.5023 29.5486C12.5019 29.5485 12.5015 29.5484 12.5012 29.5483C12.3175 29.5157 12.1354 29.4802 11.9523 29.4408C11.6688 29.3797 11.3897 29.3113 11.1081 29.2322C10.8275 29.1534 10.5492 29.0654 10.2712 28.9655C9.99444 28.8658 9.71298 28.7524 9.4384 28.6222C9.19419 28.5067 8.94989 28.3802 8.71693 28.2514C8.65527 28.2173 8.59422 28.183 8.53271 28.148C8.2414 27.9821 7.96601 27.8157 7.69221 27.6498C7.41977 27.4844 7.14724 27.3176 6.87397 27.1467C6.60146 26.9763 6.32625 26.7997 6.052 26.6155C5.77615 26.4302 5.5073 26.2417 5.23657 26.0405C4.96851 25.8415 4.70241 25.6325 4.4396 25.413C4.29321 25.2906 4.14171 25.1551 4.00242 25.023C3.86187 24.8899 3.72526 24.7528 3.59388 24.6147C3.54052 24.5587 3.48801 24.5023 3.4362 24.446C3.3607 24.3639 3.28656 24.2812 3.21422 24.1995C3.09208 24.0614 2.97455 23.9251 2.86014 23.7918C2.74578 23.6586 2.63457 23.5287 2.52509 23.4038C2.4118 23.2745 2.31613 23.1685 2.19873 23.0423C1.92806 22.725 1.78595 22.5088 1.63179 22.2671C1.60154 22.2194 1.5707 22.1705 1.53884 22.1194C1.35956 21.8257 1.19578 21.5214 1.04908 21.2142C0.900859 20.9036 0.769772 20.5907 0.652078 20.2673C0.535538 19.9471 0.433744 19.6191 0.347683 19.2879C0.261953 18.9581 0.191362 18.6229 0.136962 18.2865C0.0821574 17.9486 0.0432928 17.604 0.0210074 17.2699C0.00793469 17.0763 0.00137293 16.8737 0.000226259 16.6832C-0.000622749 16.5463 0.00105023 16.4094 0.00470901 16.2786C0.00618351 16.2249 0.00796163 16.1714 0.00996041 16.1185C0.0165948 15.9427 0.0257394 15.7714 0.0350891 15.6055C0.0354452 15.5992 0.0358016 15.5929 0.0361581 15.5866C0.0459048 15.4149 0.0558736 15.2496 0.0641605 15.0885C0.0724922 14.9273 0.0791359 14.7693 0.0841956 14.6099C0.0893494 14.4451 0.092307 14.3084 0.0942738 14.1332C0.0954928 14.0193 0.097942 13.9059 0.10155 13.7938C0.106995 13.6257 0.114844 13.4593 0.125285 13.2914C0.135868 13.1227 0.148687 12.9564 0.163807 12.7894C0.168666 12.7357 0.174125 12.679 0.179463 12.6252C0.195956 12.4588 0.214753 12.293 0.235113 12.1281C0.255497 11.9633 0.277312 11.8006 0.300901 11.6369C0.324518 11.4729 0.349223 11.3116 0.375853 11.1469C0.421005 10.8667 0.4936 10.6051 0.565748 10.3802C0.639151 10.1523 0.718057 9.94247 0.798911 9.74049C0.81407 9.70264 0.829377 9.66487 0.844844 9.62716C0.911653 9.46469 0.980506 9.30603 1.04982 9.15056C1.13528 8.95898 1.22174 8.77182 1.31079 8.58492C1.39909 8.39968 1.49058 8.21355 1.58239 8.03071C1.67507 7.84615 1.76559 7.6702 1.86503 7.48111C1.96358 7.29429 2.06264 7.10296 2.17665 6.89545C2.28951 6.68995 2.41343 6.47689 2.54771 6.26624C2.68166 6.05583 2.8258 5.84762 2.97759 5.64688C3.12957 5.44575 3.28976 5.25068 3.45524 5.06414C3.62159 4.87659 3.79336 4.69727 3.97074 4.52435C4.14779 4.35164 4.33582 4.18084 4.51765 4.02625C4.81176 3.77608 5.11395 3.53948 5.42438 3.31416C5.73307 3.0902 6.05085 2.87704 6.37446 2.67629C6.69815 2.47549 7.0273 2.28709 7.36278 2.11023C7.6975 1.9338 8.03915 1.76853 8.38375 1.61602C8.4601 1.58223 8.53674 1.54897 8.61367 1.51627C8.88386 1.40145 9.15617 1.29405 9.4311 1.19352C9.433 1.19288 9.43489 1.19224 9.43678 1.1916C9.78804 1.06327 10.1403 0.947461 10.4949 0.842026C10.6255 0.803119 10.7516 0.767131 10.8802 0.731492C11.0089 0.695807 11.1341 0.662308 11.2617 0.62917C11.3893 0.596031 11.5166 0.563948 11.6424 0.533011C11.7698 0.501618 11.8922 0.47225 12.0171 0.442378C12.1314 0.415145 12.2451 0.387749 12.3699 0.359341C12.3813 0.356745 12.3927 0.35416 12.4041 0.351587C12.5415 0.32058 12.6956 0.289653 12.8416 0.266321C13.2286 0.204971 13.6046 0.155805 13.9909 0.115463C14.3761 0.0753553 14.7623 0.0455878 15.1505 0.0274818C15.3019 0.020438 15.4545 0.0149734 15.6077 0.0116758C15.6723 0.0102842 15.7371 0.00924397 15.802 0.00857043C15.9525 0.00675964 16.1035 0.00502658 16.2547 0.00359297C16.5962 0.000323057 16.9385 -0.00115943 17.2829 0.000846386C17.626 0.00284886 17.9713 0.00848722 18.3151 0.0182419C18.6586 0.0279539 19.0051 0.0417159 19.3471 0.0591366C19.7281 0.0786293 20.1069 0.100152 20.4874 0.122615C20.8673 0.145105 21.2474 0.168657 21.6258 0.192807C22.0056 0.21699 22.3844 0.241824 22.7634 0.267272C23.1426 0.292732 23.5215 0.318787 23.9007 0.3454C24.1276 0.361336 24.3545 0.377563 24.5815 0.393924C24.7016 0.379238 24.8167 0.364848 24.9275 0.351198C25.7459 0.25034 26.3376 0.177594 27.1183 0.127498C27.193 0.119912 27.2539 0.109104 27.3279 0.0960639C27.342 0.0935764 27.357 0.0910859 27.3722 0.0884342C27.469 0.0716426 27.58 0.0540733 27.7346 0.0429618C28.0428 0.0207961 28.5153 0.0256157 29.1259 0.17175C29.2801 0.208666 29.3782 0.375301 29.345 0.544075C29.3216 0.662456 29.2397 0.750424 29.1397 0.779677C29.3244 0.799757 29.5086 0.820765 29.6923 0.841629C29.7657 0.849987 29.8345 0.888825 29.8834 0.95058C29.9323 1.01235 29.9573 1.0917 29.9531 1.17214C29.9489 1.25261 29.9156 1.32808 29.8606 1.38303C29.8055 1.43791 29.7333 1.46764 29.6597 1.46634C29.4642 1.46276 29.2695 1.45913 29.0747 1.45658C28.8797 1.45399 28.6857 1.45248 28.491 1.45169C28.2965 1.4509 28.102 1.451 27.9069 1.45169C27.7125 1.45242 27.5178 1.45357 27.3227 1.45536C27.1264 1.45709 26.9338 1.45953 26.738 1.46207C26.6207 1.46362 26.502 1.46516 26.3855 1.46695C26.342 1.46757 26.2997 1.46842 26.2573 1.46909C26.2226 1.46964 26.1878 1.47009 26.1519 1.47061C25.7747 1.47675 25.3939 1.48361 25.0165 1.49106C24.6373 1.49848 24.2585 1.50632 23.8797 1.51456C23.5007 1.5228 23.1221 1.53159 22.7432 1.5405C22.3646 1.54943 21.9862 1.55865 21.607 1.56827C21.2293 1.57793 20.85 1.58781 20.4716 1.59849C20.1789 1.60674 19.8887 1.6156 19.5981 1.62504C19.4836 1.64118 19.3704 1.65643 19.2586 1.67112C18.9333 1.71387 18.6075 1.76997 18.2866 1.82554C18.8578 1.79791 19.3167 1.75475 19.7535 1.71354C19.8121 1.70802 19.8703 1.70247 19.9283 1.69706C20.5204 1.64186 21.0924 1.59513 21.8618 1.60551C24.05 1.63502 25.3188 1.65656 26.1094 1.69676C26.8999 1.73695 27.2396 1.79652 27.5565 1.91496C28.0044 2.08234 28.8689 2.17754 29.3033 2.18108C29.4611 2.18237 29.5885 2.32357 29.5878 2.49634C29.587 2.66915 29.4584 2.8083 29.3006 2.80702C28.8419 2.80328 27.9065 2.70652 27.3733 2.50733C27.1359 2.41859 26.8628 2.36135 26.0844 2.32177C25.3059 2.2822 24.0488 2.26101 21.8564 2.23144C21.1147 2.22143 20.5642 2.26594 19.9784 2.32055C19.9209 2.32591 19.8631 2.33153 19.8047 2.33703C19.8043 2.33703 19.804 2.33703 19.8036 2.33703C19.2655 2.38781 18.6795 2.44316 17.8894 2.46765C17.2361 2.48791 16.5018 2.51498 15.802 2.54423C14.5624 2.591 13.4626 2.83318 13.1136 2.94013C13.007 2.97216 12.9029 3.00646 12.7948 3.04354C12.383 3.19196 11.8784 3.35092 10.7931 3.78968C10.5571 3.88727 10.2799 4.00353 9.98317 4.13806C9.56878 4.41378 9.18576 4.69895 8.85556 4.94027C8.56895 5.14935 8.33439 5.38254 8.12187 5.62184C8.06081 5.69068 8.00083 5.76116 7.94192 5.83187C7.79911 6.0029 7.66224 6.17628 7.52691 6.33815C7.41853 6.46756 7.31173 6.60888 7.20338 6.75972C6.80755 7.31295 6.38874 7.97856 5.77451 8.75075C5.12368 9.57405 4.64616 10.3358 4.28834 11.0228C4.56492 10.5244 4.82647 10.1691 5.05389 9.88391C5.09692 9.83014 5.1387 9.77911 5.1793 9.73034C5.46689 9.38653 5.6893 9.15212 5.90168 8.88014C6.9429 7.59968 7.43317 7.20148 7.89453 6.6346C8.01963 6.48876 8.15741 6.32183 8.31142 6.14622C8.61932 5.79495 9.00029 5.40417 9.47279 5.07232C9.9117 4.76353 10.4171 4.41949 10.9857 4.09543C10.9859 4.09534 10.9862 4.09525 10.9864 4.09517C11.0975 4.0318 11.212 3.96886 11.3272 3.90755C12.0328 3.53176 12.8261 3.2025 13.6335 2.99787C13.7206 2.97579 13.8229 2.94879 13.9423 2.91921C14.3696 2.81352 15.006 2.67591 15.802 2.64821C16.2983 2.63125 16.8502 2.63219 17.443 2.66755C17.7852 2.68797 18.1409 2.73124 18.5468 2.78077C18.6704 2.79586 18.7988 2.81171 18.9328 2.82746C19.5113 2.89547 20.2143 2.96771 21.1502 3.01119C21.9227 3.04706 22.8641 3.06427 23.8416 3.08229C24.3231 3.09117 24.8134 3.1004 25.2966 3.1119C26.7562 3.14662 28.0939 3.20171 29.4291 3.25686C29.4294 3.25686 29.4296 3.25686 29.4299 3.25686C29.5877 3.26337 29.7112 3.40888 29.7057 3.58158C29.7001 3.75418 29.5677 3.88895 29.41 3.88249C28.0741 3.8273 26.7404 3.77214 25.2857 3.73752C24.8099 3.7262 24.3234 3.71708 23.8438 3.70823C22.8615 3.6901 21.907 3.67272 21.1274 3.63651C20.1755 3.59229 19.4597 3.51867 18.8732 3.44974C18.7319 3.43313 18.5991 3.4169 18.473 3.40152C18.0716 3.35255 17.7379 3.31163 17.4133 3.29226C16.83 3.25747 16.2887 3.25692 15.802 3.27413C15.0728 3.30156 14.4884 3.42786 14.0807 3.52872C13.9632 3.5579 13.8613 3.58477 13.7737 3.60712C13.0156 3.8001 12.2678 4.11113 11.5943 4.47149C11.4851 4.5298 11.3775 4.5893 11.2714 4.64997C11.2712 4.65015 11.271 4.65033 11.2708 4.65051C10.7281 4.96113 10.2364 5.2968 9.81084 5.59761C9.37714 5.90393 9.05111 6.24205 8.76633 6.56689C8.61404 6.74106 8.47298 6.91206 8.33377 7.07542C7.86881 7.64911 7.38155 8.05084 6.3937 9.26658ZM28.8542 0.749464C28.4746 0.671041 28.1653 0.654504 27.9349 0.659739C28.1305 0.677555 28.3257 0.696246 28.521 0.715588C28.6322 0.726592 28.7432 0.737879 28.8542 0.749464ZM9.68697 3.58546C9.73905 3.551 9.79182 3.51653 9.84509 3.48223C9.68885 3.55511 9.53319 3.6307 9.37934 3.70885C9.19047 3.8048 9.00453 3.90408 8.81977 4.00788C9.11851 3.85193 9.4104 3.71143 9.68697 3.58546ZM5.28322 8.36289C5.89429 7.59575 6.29844 6.95628 6.70854 6.38329C6.82683 6.21915 6.94578 6.06216 7.07132 5.91288C7.1234 5.85096 7.17486 5.78821 7.22679 5.72458C6.84955 5.99808 6.51688 6.26876 6.25238 6.49944C5.46672 7.19178 5.04846 7.62456 4.68276 8.00793C4.57781 8.1199 4.47879 8.22945 4.38089 8.34392C4.32465 8.45668 4.26718 8.57394 4.20896 8.69137C4.12755 8.85593 4.04122 9.03339 3.96108 9.20245C3.88061 9.37211 3.8008 9.54455 3.72412 9.71398C3.64681 9.88479 3.57195 10.0544 3.49989 10.2235C3.43209 10.3827 3.36655 10.542 3.30634 10.6972C3.3029 10.706 3.29946 10.7149 3.29603 10.7238C3.23293 10.8877 3.17513 11.0485 3.1288 11.1987C3.08175 11.3516 3.04995 11.4805 3.03204 11.5985C3.00967 11.7456 2.98775 11.8964 2.96775 12.044C2.94766 12.192 2.92891 12.339 2.91158 12.4853C2.89432 12.6315 2.87891 12.7755 2.86494 12.9202C2.86043 12.9669 2.8559 13.0158 2.85179 13.0621C2.84989 13.0835 2.84813 13.1048 2.84631 13.1261C2.90877 12.8516 2.98414 12.5716 3.0758 12.2842C3.20785 11.8708 3.38356 11.4393 3.60864 10.981C3.99451 10.2 4.51715 9.33407 5.28322 8.36289ZM2.76574 17.3457C2.74594 17.2263 2.71584 17.0509 2.68535 16.8229C2.67818 16.7693 2.6708 16.7126 2.66377 16.6531C2.66375 16.6546 2.66388 16.656 2.66386 16.6574C2.66147 16.8064 2.66273 16.945 2.66901 17.0945C2.68038 17.3602 2.70303 17.6185 2.7376 17.8783C2.77214 18.1379 2.8191 18.3983 2.87709 18.6542C2.93547 18.9118 3.00572 19.1668 3.0869 19.4167C3.16898 19.6691 3.26076 19.9138 3.36546 20.1565C3.39879 20.2337 3.43341 20.3107 3.46918 20.387C3.40683 20.2088 3.34319 20.0237 3.28142 19.8269C3.23222 19.67 3.1842 19.5054 3.13945 19.3307C3.12229 19.2638 3.1039 19.1826 3.08373 19.0875C3.0043 18.7093 2.89521 18.12 2.76574 17.3457ZM4.6358 22.1313C4.67313 22.1792 4.71027 22.2267 4.74682 22.2738C4.85091 22.4078 4.95204 22.538 5.05286 22.6645C5.12363 22.7533 5.19432 22.8407 5.26517 22.9257C5.29504 22.9616 5.32516 22.9971 5.35516 23.0323C5.4054 23.0911 5.45607 23.1488 5.50695 23.2057C5.17485 22.7865 4.87354 22.36 4.58227 21.9034C4.57843 21.8974 4.57443 21.8914 4.57056 21.8853C4.59188 21.9692 4.61363 22.0512 4.6358 22.1313ZM32.4535 12.4375C32.4553 12.5978 32.4128 12.7481 32.3589 12.9378C32.3589 12.9379 32.3589 12.938 32.3589 12.9381C32.3512 12.9652 32.3432 12.9932 32.3351 13.022C32.2703 13.2545 32.1941 13.5566 32.1505 14.0121C32.1022 14.5154 31.9275 14.915 31.7598 15.159C31.7286 15.2045 31.7114 15.2516 31.6957 15.3704C31.6855 15.4483 31.6762 15.5536 31.6628 15.7057C31.6556 15.7865 31.6474 15.8806 31.6371 15.9908C31.6032 16.3555 31.6138 16.927 31.6237 17.4536C31.6298 17.7733 31.6355 18.0764 31.6307 18.3067C31.6237 18.6434 31.5924 18.9684 31.5581 19.3216C31.5267 19.6451 31.4928 19.9924 31.4736 20.3942C31.4588 20.7024 31.3319 21.002 31.1901 21.3064C31.172 21.3451 31.1538 21.384 31.1354 21.4229C31.0089 21.6915 30.8794 21.9661 30.8052 22.263C30.673 22.7923 30.7276 23.2147 30.7881 23.6823C30.8118 23.8652 30.8364 24.055 30.851 24.2609C30.8741 24.5866 30.8694 25.0547 30.8629 25.5247C30.8623 25.5647 30.8619 25.6048 30.8614 25.6448C30.8614 25.645 30.8614 25.6452 30.8614 25.6454C30.8552 26.0757 30.8492 26.4979 30.8626 26.8078C30.8839 27.3001 30.9343 27.4853 30.9764 27.6398C30.9923 27.6979 31.0071 27.7516 31.0185 27.8157C31.0599 28.0465 31.0522 28.395 31.0445 28.7482C31.0445 28.7496 31.0445 28.7509 31.0445 28.7523C31.0432 28.8109 30.902 28.8582 30.7292 28.8579C30.5564 28.8576 30.4173 28.8099 30.4185 28.7513C30.4226 28.5642 30.4266 28.3816 30.4237 28.2181C30.2753 28.2096 30.1629 28.1656 30.164 28.1129C30.1669 27.9808 30.055 27.5763 29.8723 26.9431C29.8452 26.9865 29.8189 27.0228 29.7938 27.0547C29.7645 27.092 29.7392 27.1206 29.7175 27.1453C29.6724 27.1966 29.6427 27.2307 29.6208 27.2913C29.5959 27.4316 29.5908 27.6521 29.5857 27.8842C29.5844 27.9428 29.4435 27.9901 29.2708 27.9898C29.098 27.9895 28.9589 27.9418 28.9601 27.8831C28.9601 27.882 28.9601 27.8808 28.9601 27.8797C28.9651 27.6499 28.9702 27.4223 28.9967 27.2757C29.0034 27.2384 29.0114 27.2063 29.0187 27.1822C29.0245 27.1629 29.0323 27.1388 29.0425 27.1254C29.0438 27.1237 29.0465 27.1203 29.0507 27.1162C29.0508 27.1162 29.0509 27.1161 29.051 27.116C29.0533 27.1138 29.065 27.1023 29.0904 27.09C29.0955 27.0875 29.107 27.0821 29.1255 27.0758C29.1269 27.0742 29.1283 27.0726 29.1298 27.0709C29.1495 27.0484 29.1697 27.0254 29.1893 27.0005C29.2658 26.9032 29.3622 26.7492 29.4642 26.4284C29.5581 26.1334 29.6002 25.6346 29.601 25.0123C29.588 25.0543 29.5755 25.0965 29.5634 25.1386C29.5331 25.2445 29.5055 25.351 29.4792 25.4575C29.4691 25.4982 29.4593 25.5385 29.4496 25.5795C29.4339 25.6455 29.4185 25.7117 29.4035 25.7779C29.3933 25.8226 29.3833 25.8674 29.3733 25.9121C29.3733 25.9122 29.3733 25.9123 29.3733 25.9124C29.3593 25.9746 29.3453 26.0368 29.3309 26.0996C29.3255 26.1216 29.3203 26.1433 29.3153 26.1648C29.2953 26.2506 29.2758 26.3348 29.2381 26.4318C29.2318 26.4436 29.2238 26.4564 29.217 26.466C29.2099 26.4763 29.2027 26.4862 29.1954 26.4955C29.1889 26.5038 29.1823 26.5117 29.1761 26.5192C29.1753 26.5202 29.1745 26.5212 29.1737 26.5222C29.1668 26.5307 29.1605 26.5387 29.1545 26.5465C29.1485 26.5542 29.1427 26.5617 29.1377 26.569C29.1377 26.5691 29.1377 26.5692 29.1377 26.5692C29.1326 26.5769 29.1287 26.5827 29.1243 26.5909C29.1187 26.6011 29.1145 26.6099 29.1102 26.6205C29.1061 26.6308 29.1024 26.6415 29.0992 26.6524C29.096 26.6632 29.0932 26.6742 29.0907 26.6854C29.0881 26.6966 29.0858 26.708 29.0837 26.7195C29.0816 26.731 29.0797 26.7426 29.0779 26.7543C29.076 26.766 29.0742 26.7778 29.0724 26.7897C29.0683 26.817 29.0336 26.8432 28.9747 26.8625C28.9159 26.8817 28.838 26.8924 28.7574 26.8923C28.6768 26.8922 28.5994 26.8812 28.5414 26.8617C28.4833 26.8423 28.4497 26.816 28.4468 26.7886C28.446 26.7812 28.4451 26.7737 28.4443 26.7662C28.4439 26.7617 28.4435 26.7572 28.4431 26.7528C28.4419 26.7407 28.4406 26.7285 28.4397 26.7163C28.4388 26.704 28.4383 26.6916 28.4379 26.6791C28.4375 26.6666 28.4374 26.6539 28.4379 26.641C28.4384 26.6282 28.4394 26.615 28.4413 26.6017C28.443 26.5887 28.446 26.5738 28.4498 26.5605C28.4525 26.5508 28.457 26.5389 28.4611 26.5289C28.4654 26.5185 28.4702 26.5082 28.4751 26.4984C28.4801 26.4885 28.4854 26.4789 28.4904 26.4698C28.4909 26.4688 28.4914 26.4678 28.4919 26.4668C28.4963 26.4587 28.5006 26.4509 28.5044 26.4436C28.5087 26.4353 28.5123 26.4275 28.5154 26.4201C28.5189 26.4119 28.5203 26.407 28.5218 26.4009C28.5319 26.3204 28.5298 26.221 28.5279 26.1262C28.5277 26.1143 28.5275 26.1024 28.5273 26.0907C28.5258 26.0284 28.524 25.9663 28.5221 25.9042C28.5208 25.859 28.5194 25.8138 28.5182 25.7686C28.5164 25.702 28.5149 25.6352 28.5139 25.5685C28.5133 25.527 28.5129 25.4864 28.5127 25.445C28.5121 25.3371 28.5129 25.2288 28.5166 25.1204C28.5204 25.0121 28.5269 24.9031 28.538 24.7941C28.5491 24.6855 28.5656 24.5726 28.5908 24.4637C28.6096 24.3836 28.6424 24.3014 28.6763 24.2255C28.6945 24.1846 28.713 24.1446 28.7315 24.1052C28.7316 24.1051 28.7317 24.105 28.7318 24.1048C28.748 24.0702 28.7641 24.0361 28.7794 24.0022C28.8123 23.9295 28.8416 23.8581 28.8664 23.7867C28.8911 23.7155 28.9113 23.6445 28.9268 23.573C28.9422 23.502 28.9533 23.4299 28.9601 23.3584C28.967 23.2866 28.9697 23.2162 28.9695 23.1421C28.9689 23.0447 28.9633 22.948 28.9567 22.8487C28.95 22.7501 28.9415 22.6507 28.9329 22.5511C28.9299 22.5163 28.9271 22.4814 28.9241 22.4465C28.9241 22.4463 28.9241 22.4462 28.9241 22.446C28.9184 22.3814 28.9127 22.3167 28.9073 22.2518C28.8989 22.1517 28.8909 22.0514 28.8844 21.9506C28.8779 21.8499 28.8729 21.7485 28.871 21.6467C28.8692 21.5448 28.8703 21.4402 28.8804 21.3351C28.8892 21.2413 28.9009 21.1468 28.9125 21.0544C28.9155 21.03 28.9186 21.0056 28.9216 20.9812C28.9359 20.8654 28.9473 20.7533 28.9494 20.6425C28.9517 20.5317 28.9453 20.421 28.9317 20.3093C28.9181 20.198 28.8979 20.0852 28.8734 19.9715C28.8488 19.8574 28.8205 19.7447 28.7895 19.6297C28.7586 19.5156 28.7254 19.4009 28.6903 19.2849C28.6708 19.2204 28.653 19.1518 28.6378 19.0869C28.6225 19.0215 28.6089 18.9564 28.5963 18.8922C28.5912 18.8661 28.5863 18.8402 28.5813 18.8144C28.5741 18.7769 28.5671 18.7397 28.5597 18.703C28.5472 18.6412 28.5338 18.5808 28.5182 18.5222C28.5025 18.4637 28.4843 18.4068 28.462 18.3519C28.4389 18.295 28.4154 18.2482 28.3817 18.1921C28.3169 18.0556 28.297 17.971 28.2746 17.8771C28.2702 17.8586 28.2655 17.8396 28.2606 17.8199C28.2355 17.7072 28.2168 17.5947 28.2026 17.4835C28.1884 17.3714 28.1789 17.2609 28.1733 17.1491C28.1678 17.0383 28.1665 16.9267 28.1687 16.8156C28.171 16.7047 28.177 16.5939 28.1867 16.4829C28.1965 16.3719 28.2103 16.2587 28.227 16.1499C28.2367 16.0871 28.2495 16.0203 28.2627 15.9583C28.2722 15.9136 28.2822 15.8695 28.292 15.8263C28.296 15.8086 28.3 15.7911 28.3039 15.7737C28.3174 15.7138 28.3298 15.6555 28.3393 15.5993C28.3488 15.543 28.3555 15.4886 28.3579 15.4353C28.3604 15.3819 28.3586 15.3297 28.3524 15.2775C28.3459 15.2233 28.3371 15.1783 28.321 15.1209C28.3104 15.0834 28.2997 15.0467 28.289 15.0101C28.2729 14.9554 28.2565 14.901 28.2395 14.8462C28.2225 14.7915 28.2052 14.7375 28.187 14.6833C28.1812 14.6658 28.1751 14.6474 28.169 14.6299C28.1504 14.5758 28.1313 14.5223 28.111 14.4689C28.0908 14.4156 28.0697 14.3628 28.0473 14.3102C28.0247 14.2573 28.0013 14.2054 27.9759 14.1524C27.9325 14.0624 27.9124 13.9762 27.8989 13.9008C27.8856 13.8244 27.8782 13.7531 27.8712 13.6836C27.8699 13.6706 27.8685 13.6576 27.8672 13.6446C27.8617 13.5885 27.8564 13.5334 27.8501 13.4792C27.8424 13.4123 27.8331 13.3466 27.822 13.2807C27.8111 13.2154 27.7983 13.1494 27.7833 13.0844C27.7681 13.0189 27.7516 12.9562 27.7314 12.8886C27.7116 12.8218 27.6857 12.7539 27.6575 12.6795C27.6296 12.6058 27.6009 12.5284 27.5758 12.4501C27.5506 12.3718 27.5288 12.2923 27.5117 12.2134C27.4945 12.1343 27.4814 12.0549 27.4723 11.9767C27.4631 11.898 27.4577 11.8198 27.4552 11.742C27.4527 11.6644 27.4531 11.5842 27.4561 11.5092C27.461 11.3876 27.4678 11.2667 27.4753 11.1455C27.4829 11.025 27.4914 10.9041 27.5004 10.7834C27.5093 10.663 27.5187 10.5424 27.5285 10.422C27.5382 10.3016 27.5482 10.1812 27.5584 10.061C27.5606 10.0344 27.5628 10.0078 27.5651 9.98121C27.573 9.88758 27.5809 9.79397 27.5886 9.70074C27.5887 9.7001 27.5888 9.69946 27.5889 9.69882C27.5987 9.57882 27.6082 9.461 27.6163 9.34201C27.6193 9.29832 27.622 9.25635 27.6243 9.2137C27.6266 9.171 27.6284 9.1291 27.6298 9.08681C27.6311 9.04447 27.6319 9.00238 27.6319 8.96093C27.6319 8.91902 27.6312 8.87819 27.6292 8.83697C27.6274 8.79919 27.6242 8.76168 27.6209 8.7207C27.6206 8.71695 27.6203 8.71321 27.62 8.70947C27.6164 8.66463 27.6141 8.61362 27.6157 8.5662C27.6207 8.44062 27.623 8.31822 27.6228 8.19362C27.6225 8.06894 27.6198 7.94455 27.616 7.81911C27.6146 7.77013 27.6128 7.72092 27.6112 7.6717C27.6086 7.59512 27.6061 7.51826 27.6041 7.44117C27.6009 7.31433 27.5994 7.18722 27.6014 7.05928C27.6034 6.93184 27.609 6.80357 27.6188 6.67588C27.6285 6.54829 27.6423 6.41959 27.6597 6.29258C27.6792 6.15106 27.7007 6.01037 27.7232 5.86904C27.7456 5.72794 27.7692 5.58676 27.7934 5.4462C27.8175 5.30513 27.8424 5.16442 27.8678 5.02367C27.8933 4.88283 27.9193 4.74209 27.9459 4.60124C27.9619 4.51695 27.9781 4.43268 27.9945 4.34837C27.9798 4.30376 27.9654 4.261 27.9517 4.21986C27.8509 3.91589 27.7781 3.6961 27.728 3.40614C27.7205 3.37837 27.7096 3.35578 27.6966 3.32829C27.6941 3.32304 27.6916 3.31748 27.689 3.31181C27.6722 3.27588 27.6546 3.23462 27.6435 3.17723C27.6213 3.06274 27.6262 2.88724 27.7723 2.66047C27.8092 2.60318 27.9758 2.56673 28.1446 2.57907C28.263 2.58775 28.351 2.61818 28.3802 2.65531C28.4003 2.58671 28.4213 2.5183 28.4422 2.45006C28.4505 2.42282 28.4894 2.39725 28.5511 2.37908C28.6129 2.36092 28.6922 2.35163 28.7727 2.3532C28.8532 2.35477 28.9286 2.36713 28.9836 2.38757C29.0385 2.40801 29.0682 2.43483 29.0669 2.46219C29.0633 2.53478 29.0597 2.60712 29.0571 2.67947C29.0545 2.75189 29.053 2.82396 29.0522 2.89625C29.0514 2.96852 29.0515 3.04076 29.0522 3.11323C29.053 3.18542 29.0541 3.25775 29.0559 3.33021C29.0576 3.40313 29.0601 3.47467 29.0626 3.54739C29.0642 3.59095 29.0657 3.63504 29.0675 3.67832C29.0681 3.69445 29.069 3.7102 29.0696 3.72595C29.0702 3.73882 29.0706 3.75176 29.0712 3.76507C29.0773 3.90518 29.0842 4.04662 29.0916 4.1868C29.099 4.32764 29.1069 4.46833 29.1151 4.60903C29.1233 4.74979 29.1321 4.89044 29.141 5.03115C29.15 5.17179 29.1592 5.31235 29.1688 5.45318C29.1785 5.59348 29.1884 5.73436 29.199 5.8749C29.2073 5.98361 29.2161 6.0914 29.2256 6.19936C29.2417 6.24186 29.257 6.28392 29.2717 6.32544C29.3144 6.44628 29.3705 6.56729 29.4261 6.6865C29.3985 6.47433 29.3553 6.30389 29.3141 6.14162C29.3086 6.11987 29.303 6.09826 29.2976 6.07671C29.2424 5.85678 29.1957 5.64432 29.2061 5.35854C29.2356 4.54577 29.2571 4.0745 29.2973 3.78085C29.3375 3.48724 29.3971 3.36109 29.5155 3.24336C29.6829 3.07699 29.7781 2.7559 29.7816 2.59454C29.7829 2.53593 29.9241 2.48862 30.0969 2.48889C30.2697 2.48917 30.4088 2.53693 30.4076 2.59555C30.4038 2.76593 30.3071 3.11338 30.1079 3.3114C30.0191 3.3996 29.9619 3.50102 29.9223 3.79015C29.8827 4.07931 29.8616 4.54624 29.832 5.36056C29.822 5.63605 29.8665 5.84052 29.9211 6.05811C29.9265 6.07945 29.9321 6.10094 29.9376 6.12262C29.9376 6.12275 29.9376 6.12289 29.9376 6.12302C29.9884 6.3229 30.0437 6.54053 30.0682 6.83401C30.1247 7.51045 30.2341 8.42037 30.2959 8.63637C30.308 8.67876 30.3216 8.71974 30.3358 8.76296C30.3905 8.92886 30.4565 9.12915 30.5003 9.58052C30.5099 9.67924 30.5155 9.79488 30.518 9.92105C30.6023 10.1104 30.6804 10.2942 30.7268 10.4541C30.7668 10.5921 30.8405 10.7193 30.9212 10.8426C30.9444 10.878 30.9687 10.9138 30.9929 10.9494C31.0512 11.0354 31.1096 11.1215 31.1547 11.2053C31.1906 11.2722 31.2338 11.3422 31.2795 11.4161C31.4459 11.6856 31.6452 12.0085 31.6478 12.4293C31.6506 12.8754 31.6146 13.2573 31.5795 13.5867C31.6201 13.3448 31.6688 13.1581 31.7122 13.0025C31.7204 12.9732 31.7284 12.9451 31.736 12.918C31.7902 12.7268 31.8295 12.5878 31.8279 12.4389C31.82 11.7273 31.7669 11.4604 31.6136 11.1593C31.5733 11.08 31.5195 10.9926 31.4617 10.8984C31.346 10.7101 31.2138 10.4946 31.1382 10.2632C31.0677 10.0476 30.9638 9.80655 30.8537 9.5511C30.8537 9.551 30.8537 9.5509 30.8537 9.5508C30.8322 9.50088 30.8105 9.45037 30.7887 9.39944C30.656 9.08885 30.5225 8.76217 30.4384 8.44416C30.4294 8.41015 30.417 8.36941 30.4027 8.32263C30.3201 8.05264 30.1751 7.57866 30.2681 6.99983C30.2885 6.8727 30.3318 6.74059 30.3813 6.58984C30.3964 6.54392 30.4123 6.49624 30.428 6.44647C30.496 6.23157 30.5683 5.97048 30.6117 5.62284C30.6476 5.33593 30.6648 4.98627 30.6828 4.62318C30.6917 4.44433 30.7009 4.26223 30.7124 4.08276C30.7472 3.54064 30.8022 3.04376 30.8574 2.54783C30.8574 2.54773 30.8574 2.54763 30.8574 2.54753C30.8639 2.48894 31.0094 2.44305 31.1821 2.44511C31.3547 2.44719 31.4895 2.49635 31.483 2.55491C31.4278 3.05113 31.3727 3.54649 31.3381 4.0868C31.3267 4.26354 31.3176 4.44422 31.3088 4.62237C31.2906 4.98723 31.2733 5.34175 31.2371 5.63133C31.1928 5.98489 31.1192 6.25076 31.0503 6.46861C31.0337 6.52108 31.0174 6.57041 31.0021 6.61724C30.9531 6.76632 30.9122 6.89027 30.8928 7.01085C30.8028 7.5713 30.942 8.02737 31.0246 8.29837C31.0393 8.34643 31.0521 8.38868 31.0616 8.42465C31.144 8.73642 31.2753 9.05809 31.408 9.36839C31.4295 9.41874 31.4509 9.46883 31.4723 9.51854C31.4725 9.51864 31.4726 9.51874 31.4727 9.51884C31.5827 9.77423 31.6884 10.0197 31.7601 10.2392C31.833 10.4621 31.9529 10.6565 32.065 10.8383C32.1252 10.9359 32.1829 11.0298 32.2301 11.1226C32.3927 11.4421 32.4456 11.7237 32.4535 12.4375ZM28.35 2.76137C28.2716 2.90237 28.255 3.01726 28.2603 3.10281C28.2781 3.03016 28.2968 2.95767 28.3161 2.88513C28.3271 2.84384 28.3384 2.8026 28.35 2.76137ZM29.8927 9.93834C29.8825 9.9155 29.8722 9.89248 29.8619 9.86939C29.8668 9.93314 29.8714 9.99692 29.8759 10.0606C29.8815 10.1388 29.8869 10.2169 29.8921 10.2951C29.8942 10.1708 29.8948 10.0504 29.8927 9.93834ZM31.0219 12.4304C31.0194 12.0335 30.8369 11.7369 30.6722 11.4695C30.6247 11.3925 30.5788 11.3178 30.5391 11.244C30.5226 11.2133 30.5044 11.1827 30.4851 11.1518C30.4753 11.3316 30.465 11.4968 30.4564 11.632C30.4308 12.0356 30.3775 12.2652 30.3307 12.4671C30.3171 12.5255 30.3041 12.5816 30.2925 12.6388C30.3135 12.6862 30.3343 12.7354 30.3526 12.7851C30.3785 12.8548 30.4033 12.93 30.4243 13.0016C30.4456 13.0735 30.4645 13.1465 30.4805 13.2183C30.4966 13.2906 30.5101 13.3623 30.5217 13.4337C30.5327 13.5008 30.542 13.5677 30.551 13.6324C30.5515 13.6361 30.552 13.6398 30.5525 13.6436C30.5621 13.712 30.5713 13.7786 30.584 13.8397C30.597 13.902 30.6123 13.9537 30.6355 13.9997C30.6644 14.057 30.6922 14.1159 30.7179 14.1741C30.7438 14.2323 30.7678 14.2903 30.7903 14.3482C30.8128 14.4061 30.8338 14.4635 30.8537 14.5211C30.8602 14.5397 30.8668 14.5591 30.873 14.5776C30.8758 14.5861 30.8787 14.5946 30.8815 14.6031C30.8837 14.4905 30.887 14.3736 30.8922 14.2528C30.8997 14.0783 30.9201 13.892 30.9425 13.6865C30.9808 13.336 31.025 12.9295 31.0219 12.4304ZM30.9374 16.3094C30.9357 16.2604 30.9308 16.1888 30.9245 16.0963C30.9231 16.0745 30.9213 16.0514 30.9197 16.0273C30.9195 16.0279 30.9195 16.0284 30.9194 16.029C30.9034 16.0889 30.8895 16.1442 30.8766 16.2038C30.8538 16.3102 30.8342 16.4135 30.8174 16.5179C30.8006 16.6226 30.7868 16.7271 30.7759 16.8317C30.765 16.9365 30.7571 17.0415 30.7524 17.1456C30.7477 17.2508 30.7459 17.3544 30.7481 17.4591C30.7489 17.4924 30.75 17.5259 30.7515 17.5593C30.7673 17.4847 30.7802 17.4072 30.7939 17.3253C30.8048 17.2599 30.8163 17.1918 30.8299 17.1201C30.8352 17.0926 30.8432 17.0594 30.8525 17.0207C30.8896 16.8671 30.9479 16.6262 30.9374 16.3094ZM30.9239 18.394C30.9281 18.4183 30.9318 18.4425 30.9349 18.4663C30.9437 18.5343 30.9487 18.6005 30.9526 18.6654C30.9553 18.711 30.9573 18.7561 30.9593 18.8005C30.9602 18.8192 30.9612 18.838 30.9621 18.8565C30.9636 18.8876 30.9654 18.9184 30.9673 18.949C30.9861 18.7343 31.0006 18.5244 31.0051 18.3057C31.0052 18.3028 31.0051 18.2999 31.0051 18.297C30.9775 18.3301 30.9504 18.3624 30.9239 18.394ZM57.43 6.15926C57.7491 6.56011 57.9989 6.97499 58.2802 7.51269C58.2804 7.51296 58.2805 7.51323 58.2807 7.5135C58.3208 7.59044 58.3613 7.67008 58.4026 7.75257C58.7303 8.41856 59.1458 9.28959 59.5961 10.659C60.0887 12.1813 60.0916 13.472 59.9968 14.2318C59.9784 14.3739 59.9766 14.5197 59.9804 14.885C59.9815 15.0668 59.9832 15.2978 59.9744 15.6055C59.9716 15.7007 59.9677 15.8029 59.9622 15.9127C59.9497 16.1599 59.9293 16.446 59.8914 16.7815C59.7792 17.8879 59.4473 19.6169 58.8189 21.0984C58.4485 21.9998 57.9974 22.8087 57.6116 23.3915C57.0476 24.2446 56.4042 24.9974 55.6344 25.7297C54.9277 26.3985 54.1132 27.0522 53.1051 27.6986C52.3301 28.194 51.4803 28.5102 50.6102 28.7384C50.4996 28.7674 50.3881 28.7952 50.2763 28.8217C49.5054 29.0038 48.7154 29.1309 47.877 29.2593C46.4703 29.4678 45.3446 29.6206 44.1047 29.6821C44.0327 29.6855 43.9604 29.689 43.8878 29.6925C43.3954 29.7161 42.8842 29.7407 42.3299 29.7554C41.4532 29.7785 40.193 29.7738 38.9275 29.7673C38.8198 29.7667 38.7118 29.7663 38.6042 29.7657C38.6036 29.7657 38.6031 29.7657 38.6025 29.7657C37.4442 29.7596 36.3073 29.7535 35.4732 29.767C34.1478 29.7883 33.6491 29.8386 33.2332 29.8808C33.0768 29.8966 32.9321 29.9114 32.7595 29.9229C32.1381 29.9642 31.1999 29.9566 30.2489 29.9488C30.2453 29.9488 30.2417 29.9488 30.238 29.9488C30.0802 29.9476 29.9528 29.8064 29.9536 29.6336C29.9543 29.4608 30.0829 29.3216 30.2408 29.3229C30.7445 29.327 31.236 29.331 31.6761 29.3281C31.6989 29.1796 31.8175 29.0672 31.9595 29.0684C32.3151 29.0712 33.4042 28.9594 35.1087 28.7766C34.9919 28.7496 34.8941 28.7232 34.8085 28.6982C34.7079 28.6688 34.6308 28.6435 34.5646 28.6219C34.4265 28.5768 34.3346 28.547 34.1715 28.5252C33.7937 28.5003 33.2 28.4951 32.5752 28.4901C32.4175 28.4887 32.2901 28.3478 32.2908 28.1751C32.2915 28.0023 32.4202 27.8632 32.578 27.8644C32.581 27.8644 32.5841 27.8644 32.5872 27.8644C33.206 27.8695 33.8188 27.8746 34.2134 27.9011C34.3138 27.9078 34.4003 27.9158 34.4652 27.923C34.5171 27.9288 34.5819 27.9367 34.6179 27.9468C34.6227 27.9482 34.6318 27.9509 34.6427 27.9551C34.6429 27.9552 34.643 27.9553 34.6432 27.9554C34.6493 27.9577 34.6803 27.9693 34.7135 27.9947C34.7201 27.9999 34.7347 28.0113 34.7516 28.0298C34.7559 28.0313 34.7603 28.0327 34.7646 28.0341C34.8253 28.0539 34.8873 28.074 34.9544 28.0936C35.2162 28.1701 35.6309 28.2665 36.4945 28.3686C37.2888 28.4625 38.6316 28.5046 40.3071 28.5053C40.1939 28.4924 40.0805 28.4798 39.9671 28.4678C39.6818 28.4375 39.3953 28.4099 39.1086 28.3836C38.9987 28.3735 38.8904 28.3636 38.78 28.3539C38.6023 28.3383 38.4241 28.3229 38.2459 28.3079C38.1255 28.2977 38.0049 28.2877 37.8844 28.2777C37.8842 28.2777 37.8839 28.2777 37.8836 28.2777C37.7164 28.2637 37.5487 28.2497 37.3798 28.2352C37.3206 28.2299 37.2622 28.2247 37.2042 28.2197C36.9733 28.1996 36.7464 28.1802 36.4853 28.1425C36.4535 28.1362 36.419 28.1281 36.3933 28.1214C36.3656 28.1143 36.339 28.1071 36.3138 28.0997C36.2916 28.0932 36.2704 28.0866 36.2501 28.0805C36.2474 28.0797 36.2446 28.0789 36.2419 28.0781C36.2192 28.0712 36.1975 28.0648 36.1766 28.0588C36.1557 28.0528 36.1357 28.0471 36.1159 28.042C36.1157 28.042 36.1155 28.042 36.1153 28.042C36.0947 28.0369 36.079 28.033 36.0571 28.0286C36.0296 28.0231 36.006 28.0188 35.9773 28.0146C35.9496 28.0105 35.9207 28.0068 35.8916 28.0036C35.8624 28.0004 35.8327 27.9976 35.8026 27.9951C35.7724 27.9925 35.7417 27.9901 35.7108 27.988C35.68 27.9859 35.6487 27.9841 35.6172 27.9822C35.5857 27.9804 35.5539 27.9785 35.5219 27.9767C35.4483 27.9726 35.3777 27.9379 35.3259 27.8791C35.2741 27.8202 35.2453 27.7424 35.2456 27.6618C35.246 27.5812 35.2755 27.5038 35.3278 27.4457C35.3801 27.3877 35.451 27.354 35.5246 27.3511C35.5447 27.3503 35.5648 27.3494 35.5851 27.3487C35.5971 27.3482 35.6092 27.3479 35.6213 27.3474C35.6537 27.3463 35.6865 27.345 35.7195 27.3441C35.7525 27.3432 35.7858 27.3426 35.8194 27.3423C35.8532 27.3419 35.8874 27.3418 35.9221 27.3423C35.9567 27.3427 35.992 27.3438 36.028 27.3456C36.063 27.3473 36.103 27.3504 36.1387 27.3542C36.1649 27.3568 36.1971 27.3614 36.2239 27.3655C36.252 27.3697 36.2796 27.3745 36.3062 27.3795C36.3328 27.3845 36.3586 27.3898 36.3832 27.3948C36.3858 27.3953 36.3885 27.3958 36.3911 27.3963C36.4128 27.4007 36.4338 27.405 36.4537 27.4088C36.4759 27.4131 36.4969 27.4167 36.5168 27.4198C36.5388 27.4233 36.5522 27.4246 36.5686 27.4262C36.7852 27.4362 37.0529 27.4342 37.3082 27.4323C37.3402 27.4321 37.3722 27.4319 37.4037 27.4317C37.5714 27.4302 37.7387 27.4284 37.9059 27.4265C38.0275 27.4251 38.1491 27.4237 38.271 27.4225C38.4502 27.4207 38.6301 27.4193 38.8097 27.4183C38.9212 27.4176 39.0308 27.4172 39.142 27.417C39.4326 27.4164 39.7242 27.4173 40.0161 27.421C40.3076 27.4247 40.601 27.4313 40.8945 27.4424C41.187 27.4534 41.4908 27.47 41.7841 27.4952C41.9998 27.514 42.2209 27.5468 42.4254 27.5806C42.5354 27.5988 42.643 27.6173 42.7491 27.6358C42.7495 27.636 42.7498 27.6361 42.7502 27.6362C42.8433 27.6524 42.9352 27.6685 43.0265 27.6838C43.2222 27.7167 43.4144 27.746 43.6066 27.7707C43.7727 27.7922 43.9383 27.8102 44.1047 27.8247C44.1288 27.8269 44.153 27.829 44.1772 27.831C44.3564 27.8454 44.5383 27.8522 44.7175 27.8514C44.8979 27.8505 45.0768 27.8423 45.2621 27.8271C45.5046 27.8068 45.7491 27.775 45.9943 27.7354C46.2381 27.6959 46.4852 27.6475 46.7277 27.5929C46.8128 27.5738 46.8987 27.5538 46.9838 27.533C46.9841 27.5329 46.9845 27.5328 46.9848 27.5328C47.1425 27.494 47.2985 27.4528 47.455 27.4087C47.6973 27.3404 47.9351 27.2667 48.1749 27.1868C48.4141 27.1071 48.6511 27.0223 48.8896 26.9327C49.1272 26.8437 49.37 26.748 49.6144 26.653C49.8315 26.5684 50.0517 26.4789 50.2631 26.3867C50.319 26.3623 50.3744 26.3377 50.4303 26.3124C50.6949 26.1923 50.9449 26.0662 51.1849 25.9254C51.424 25.7854 51.6546 25.6301 51.8769 25.4612C52.0985 25.2927 52.3138 25.1097 52.5209 24.9161C52.7292 24.7213 52.9246 24.5203 53.1153 24.3076C53.3038 24.0969 53.4848 23.8774 53.6572 23.65C53.7534 23.5235 53.8548 23.3891 53.9489 23.2618C54.0439 23.1335 54.1372 23.005 54.2269 22.8775C54.2634 22.8257 54.2994 22.7741 54.3346 22.7226C54.3859 22.6475 54.4361 22.5724 54.4842 22.4979C54.5653 22.3721 54.641 22.2475 54.71 22.1238C54.779 22.0002 54.841 21.8775 54.8949 21.756C54.9504 21.6301 54.9907 21.5233 55.0319 21.3927C55.1455 21.0834 55.2235 20.9006 55.3074 20.6957C55.3238 20.6553 55.3401 20.6139 55.3568 20.5707C55.4549 20.3251 55.5495 20.0796 55.6377 19.8372C55.7271 19.5921 55.8101 19.3505 55.8894 19.1043C55.9678 18.8604 56.0418 18.6141 56.1102 18.3669C56.1782 18.1208 56.2413 17.8721 56.2989 17.6226C56.3568 17.372 56.41 17.1165 56.4561 16.8671C56.4828 16.7227 56.5103 16.5711 56.5344 16.4277C56.5517 16.3248 56.568 16.2212 56.5826 16.1218C56.5885 16.081 56.5942 16.0403 56.5995 15.9999C56.6173 15.8656 56.6316 15.7339 56.641 15.6055C56.6413 15.6006 56.6417 15.5958 56.642 15.5909C56.6514 15.458 56.6555 15.3296 56.6534 15.2046C56.6512 15.0795 56.6429 14.9572 56.6281 14.8347C56.6125 14.7081 56.5947 14.6038 56.5649 14.4721C56.5453 14.3865 56.5246 14.3018 56.5031 14.2186C56.4709 14.0938 56.4363 13.9713 56.3989 13.8489C56.3615 13.726 56.3218 13.606 56.2793 13.4868C56.2656 13.4484 56.251 13.4081 56.2367 13.37C56.1926 13.2522 56.146 13.136 56.0966 13.0222C56.0473 12.9084 55.9957 12.7977 55.9409 12.6881C55.886 12.5784 55.829 12.4722 55.7679 12.366C55.6639 12.1853 55.5792 12.0091 55.5056 11.8554C55.4314 11.6997 55.363 11.5539 55.2938 11.4136C55.2808 11.3873 55.2678 11.3611 55.2546 11.335C55.1979 11.2222 55.1403 11.112 55.0808 11.0052C55.0075 10.8736 54.9313 10.7466 54.8508 10.6217C54.7711 10.4979 54.6865 10.3755 54.5988 10.2581C54.5102 10.1397 54.4217 10.0291 54.3221 9.91367C54.2237 9.79945 54.1169 9.68872 53.9975 9.57042C53.8792 9.45331 53.7532 9.33326 53.6259 9.21254C53.4988 9.09205 53.3701 8.97085 53.2428 8.85047C53.1152 8.72992 52.988 8.60971 52.8622 8.49112C52.7356 8.37192 52.6103 8.25423 52.4843 8.13734C52.3586 8.02062 52.2286 7.90153 52.1054 7.79011C51.9061 7.60983 51.7024 7.43559 51.4925 7.26735C51.2839 7.10003 51.0686 6.93821 50.8484 6.78361C50.6282 6.62897 50.4031 6.4817 50.1726 6.34131C49.9427 6.20121 49.7066 6.06791 49.4672 5.94295C49.4142 5.91527 49.3609 5.88794 49.3073 5.86098C49.119 5.76627 48.9285 5.67648 48.7351 5.59165C48.7338 5.59102 48.7325 5.5904 48.7312 5.58977C48.484 5.48153 48.2346 5.38221 47.9816 5.29233C47.8884 5.25932 47.7982 5.22865 47.7058 5.19895C47.6133 5.16924 47.5231 5.14178 47.4308 5.11537C47.3385 5.08897 47.246 5.06432 47.1544 5.04173C47.0615 5.01889 46.9719 4.99865 46.8801 4.98026C46.796 4.96338 46.7119 4.94877 46.6198 4.93365C46.6114 4.93227 46.603 4.9309 46.5946 4.92955C46.4931 4.9131 46.3802 4.89448 46.2742 4.87462C45.9933 4.82146 45.7188 4.78147 45.4357 4.75232C45.1535 4.72332 44.8697 4.70611 44.5842 4.69938C44.4729 4.69674 44.3606 4.69584 44.2479 4.69623C44.2003 4.69639 44.1525 4.69681 44.1047 4.69749C43.9542 4.6993 43.8034 4.70103 43.6522 4.70246C43.3107 4.70573 42.9685 4.70721 42.6241 4.70521C42.281 4.70321 41.9356 4.69757 41.5919 4.68781C41.2483 4.6781 40.9019 4.66434 40.5599 4.64692C40.1789 4.62743 39.8001 4.6059 39.4196 4.58344C39.0397 4.56095 38.6596 4.5374 38.2812 4.51325C37.9014 4.48906 37.5226 4.46423 37.1437 4.43878C36.7645 4.41332 36.3856 4.38727 36.0064 4.36066C35.7794 4.34472 35.5525 4.32849 35.3256 4.31213C35.2055 4.32682 35.0903 4.34121 34.9796 4.35486C34.1612 4.45571 33.5695 4.52846 32.7888 4.57856C32.7141 4.58614 32.6532 4.59695 32.5792 4.60999C32.5651 4.61248 32.5501 4.61497 32.5349 4.61762C32.4381 4.63441 32.3271 4.65198 32.1725 4.66309C31.8643 4.68526 31.3918 4.68044 30.7813 4.53431C30.627 4.49739 30.5289 4.33075 30.5621 4.16198C30.5855 4.0436 30.6674 3.95563 30.7674 3.92638C30.5827 3.9063 30.3985 3.88529 30.2148 3.86443C30.1415 3.85607 30.0726 3.81723 30.0237 3.75547C29.9748 3.6937 29.9498 3.61435 29.954 3.53391C29.9583 3.45344 29.9915 3.37797 30.0466 3.32303C30.1016 3.26815 30.1738 3.23842 30.2475 3.23971C30.4429 3.2433 30.6377 3.24692 30.8325 3.24948C31.0274 3.25207 31.2215 3.25358 31.4161 3.25436C31.6106 3.25515 31.8051 3.25505 32.0002 3.25436C32.1946 3.25364 32.3893 3.25248 32.5844 3.2507C32.7807 3.24896 32.9733 3.24652 33.1691 3.24399C33.2864 3.24243 33.4051 3.2409 33.5216 3.2391C33.5651 3.23849 33.6074 3.23764 33.6498 3.23697C33.6845 3.23642 33.7193 3.23597 33.7552 3.23544C34.1324 3.22931 34.5132 3.22244 34.8906 3.21499C35.2697 3.20758 35.6485 3.19974 36.0273 3.19149C36.4063 3.18325 36.785 3.17447 37.1638 3.16555C37.5424 3.15663 37.9209 3.14741 38.3 3.13778C38.6777 3.12812 39.057 3.11824 39.4354 3.10757C39.7281 3.09932 40.0183 3.09046 40.3089 3.08102C40.4234 3.06487 40.5366 3.04962 40.6484 3.03493C40.9737 2.99219 41.2995 2.93609 41.6204 2.88051C41.0492 2.90814 40.5903 2.95131 40.1535 2.99251C40.0949 2.99804 40.0367 3.00359 39.9787 3.00899C39.3866 3.0642 38.8146 3.11093 38.0452 3.10055C35.857 3.07103 34.5882 3.04949 33.7976 3.0093C33.0072 2.96911 32.6676 2.90953 32.3506 2.79109C31.9027 2.62372 31.0382 2.52851 30.6038 2.52497C30.446 2.52369 30.3186 2.38248 30.3193 2.20972C30.3201 2.03691 30.4487 1.89776 30.6065 1.89904C31.0652 1.90277 32.0007 1.99954 32.5338 2.19873C32.7712 2.28746 33.0443 2.3447 33.8227 2.38428C34.6012 2.42386 35.8583 2.44504 38.0507 2.47462C38.7924 2.48462 39.3428 2.44012 39.9286 2.3855C39.9861 2.38015 40.0439 2.37453 40.1023 2.36902C40.1027 2.36902 40.103 2.36902 40.1034 2.36902C40.6415 2.31825 41.2275 2.2629 42.0176 2.2384C42.6708 2.21815 43.4049 2.19108 44.1047 2.16184C45.374 2.10341 46.5365 2.23423 46.9176 2.26698C47.0338 2.27612 47.1484 2.28474 47.2681 2.29514C47.7248 2.34179 48.2923 2.37701 49.4936 2.76432C49.7548 2.85081 50.0586 2.96568 50.3815 3.10623C50.9001 3.24381 51.3989 3.41221 51.8154 3.59593C52.1762 3.75508 52.5215 3.88343 52.8616 4.01386C52.9593 4.05132 53.0579 4.08934 53.156 4.12845C53.3935 4.22328 53.6297 4.32488 53.8507 4.43904C54.0274 4.53043 54.2145 4.6254 54.4106 4.73065C55.1213 5.11416 55.9814 5.6423 56.7834 6.64053C57.6285 7.6991 58.1805 8.7354 58.5689 9.65588C58.2961 8.97284 58.0539 8.45524 57.8408 8.02835C57.8005 7.94788 57.7612 7.87104 57.7227 7.79731C57.4501 7.27746 57.227 6.90931 56.9424 6.55124C55.5501 4.8679 54.8189 4.43633 54.0221 3.99195C53.8082 3.87995 53.5635 3.76834 53.2998 3.65789C52.7714 3.43592 52.1626 3.21665 51.5306 2.97225C50.9418 2.74394 50.2603 2.5498 49.5374 2.40392C49.5371 2.40382 49.5369 2.40372 49.5366 2.40362C49.3952 2.375 49.2511 2.34777 49.1074 2.32287C48.2264 2.16861 47.3021 2.08515 46.4165 2.03889C46.3208 2.03372 46.2082 2.03033 46.0778 2.02818C45.6095 2.02046 44.9303 2.03021 44.1047 2.05785C43.6084 2.0748 43.0566 2.07386 42.464 2.03851C42.1217 2.01808 41.7661 1.97482 41.3602 1.92528C41.2366 1.9102 41.1082 1.89434 40.9742 1.87859C40.3957 1.81059 39.6927 1.73834 38.7568 1.69487C37.9843 1.65899 37.043 1.64179 36.0654 1.62376C35.5839 1.61488 35.0937 1.60565 34.6105 1.59416C33.1509 1.55943 31.8132 1.50435 30.478 1.4492C30.4778 1.4492 30.4775 1.4492 30.4772 1.4492C30.3195 1.44268 30.1959 1.29717 30.2015 1.12448C30.2071 0.951876 30.3394 0.817103 30.4971 0.823568C31.8331 0.878754 33.1667 0.93392 34.6214 0.96853C35.0972 0.979852 35.5836 0.988977 36.0633 0.997828C37.0455 1.01595 38 1.03333 38.7796 1.06955C39.7315 1.11376 40.4473 1.18738 41.0338 1.25632C41.1751 1.27292 41.3079 1.28916 41.434 1.30454C41.8354 1.3535 42.169 1.39443 42.4937 1.41379C43.0768 1.44858 43.618 1.44913 44.1047 1.43194C44.9253 1.4047 45.6022 1.39438 46.0868 1.40251C46.2261 1.40484 46.3479 1.40868 46.4524 1.41426C47.3557 1.46173 48.3017 1.54675 49.216 1.70665C49.364 1.73237 49.5113 1.76009 49.6581 1.7898C49.6584 1.7898 49.6587 1.78981 49.659 1.78982C50.4094 1.94078 51.131 2.14591 51.7539 2.3874C52.3872 2.63298 52.9561 2.83658 53.4871 3.05611C53.7709 3.17346 54.0434 3.2961 54.3037 3.43218C55.1828 3.91977 55.9768 4.40132 57.43 6.15926ZM31.0529 3.95659C31.4326 4.03501 31.7419 4.05155 31.9722 4.04632C31.7766 4.0285 31.5814 4.00981 31.3861 3.99047C31.275 3.97946 31.1639 3.96818 31.0529 3.95659ZM50.1702 3.69664C50.1102 3.68097 50.0498 3.66561 49.989 3.65061C50.1471 3.71364 50.3048 3.7801 50.4609 3.8492C50.6525 3.93403 50.8414 4.02292 51.0295 4.1166C50.7352 3.95837 50.4461 3.81787 50.1702 3.69664ZM56.2955 7.03265C55.5704 6.13105 54.8123 5.66164 54.1347 5.29324C53.9384 5.18714 53.747 5.08951 53.5593 4.99245C53.4815 4.95218 53.4025 4.91424 53.3223 4.87763C53.7168 5.18882 54.061 5.49658 54.3334 5.75771C55.1428 6.54191 55.5067 7.07817 55.8176 7.54282C55.9067 7.67848 55.9898 7.81008 56.0736 7.94462C56.1676 8.03787 56.2634 8.13715 56.3563 8.24061C56.4868 8.38529 56.6221 8.547 56.7454 8.70564C56.8692 8.86475 56.9895 9.03106 57.1018 9.19859C57.215 9.36746 57.3214 9.53908 57.4219 9.71295C57.5165 9.87657 57.6059 10.0427 57.6893 10.2054C57.6941 10.2147 57.6988 10.2241 57.7035 10.2334C57.7912 10.4053 57.8727 10.5749 57.9486 10.7308C58.0261 10.8896 58.0916 11.021 58.1577 11.1359C58.2401 11.2792 58.3205 11.4295 58.3954 11.5797C58.4705 11.7302 58.5411 11.8828 58.6073 12.0372C58.6736 12.1915 58.7352 12.3459 58.7931 12.5031C58.8118 12.5539 58.831 12.6073 58.8487 12.6581C58.8569 12.6815 58.8651 12.7049 58.8731 12.7284C58.8051 12.4086 58.7247 12.0817 58.6288 11.7444C58.4908 11.2594 58.3284 10.743 58.1099 10.1876C57.7361 9.24316 57.201 8.16948 56.2955 7.03265ZM59.086 17.6424C59.1057 17.502 59.1305 17.2949 59.1525 17.027C59.1577 16.964 59.1625 16.8975 59.1672 16.8277C59.1669 16.8293 59.1667 16.831 59.1664 16.8326C59.1348 17.0035 59.1034 17.1613 59.0685 17.3312C59.0064 17.6331 58.9386 17.9242 58.8635 18.2156C58.7884 18.507 58.7059 18.7981 58.6171 19.084C58.5279 19.3718 58.432 19.6568 58.3302 19.9374C58.2275 20.2208 58.1199 20.4967 58.0056 20.7737C57.9692 20.8618 57.9322 20.95 57.8946 21.0379C57.996 20.8495 58.0941 20.6496 58.192 20.4353C58.27 20.2645 58.3481 20.0843 58.4274 19.8928C58.4577 19.8194 58.4953 19.7314 58.5378 19.6276C58.7051 19.217 58.9564 18.556 59.086 17.6424ZM56.8794 23.2171C56.8436 23.2776 56.8072 23.3373 56.7702 23.3957C56.665 23.5621 56.5563 23.7199 56.4458 23.8719C56.3683 23.9786 56.2894 24.0828 56.2106 24.1843C56.1774 24.2272 56.144 24.2698 56.1107 24.3119C56.0548 24.3823 55.999 24.4519 55.9429 24.5206C56.3598 24.0599 56.7382 23.5791 57.0885 23.0483C57.0931 23.0413 57.0976 23.0342 57.1022 23.0271C57.0268 23.093 56.9525 23.1562 56.8794 23.2171ZM29.7347 57.8501C29.1784 57.8519 28.657 57.8093 27.9984 57.7555C27.998 57.7555 27.9977 57.7555 27.9973 57.7555C27.9032 57.7478 27.8063 57.7397 27.7061 57.7317C26.8992 57.6668 25.8508 57.5907 24.27 57.547C22.5233 57.4988 21.1365 57.3241 20.2896 57.1564C20.1317 57.1251 19.9682 57.1079 19.5559 57.0923C19.2855 57.0821 18.9199 57.0728 18.3923 57.0593C18.1117 57.0522 17.7851 57.044 17.4027 57.0337C16.9482 57.0215 16.4012 57.0151 15.802 57.0123C14.8471 57.0043 13.7464 57.1259 12.737 57.3724C11.7793 57.6013 10.9051 57.9369 10.2628 58.2299C9.32203 58.6583 8.4495 59.1529 7.58075 59.8069C6.78928 60.4072 5.99719 61.1443 5.26232 62.1379C4.70174 62.9 4.14917 63.6461 3.66716 64.4823C3.60604 64.5885 3.54618 64.6963 3.48778 64.8056C3.08598 65.5578 2.74899 66.3889 2.57051 67.3369C2.48879 67.7723 2.4462 68.1931 2.43382 68.6025C2.40168 69.7743 2.59946 70.8203 2.95585 71.8855C3.14554 72.4466 3.3835 73.0148 3.68218 73.6081C4.14676 74.5487 4.95934 75.8419 6.03092 76.9299C6.12132 77.0228 6.21347 77.1144 6.30673 77.2047C6.30721 77.2051 6.30768 77.2056 6.30816 77.206C7.3084 78.1811 8.46793 78.9449 9.36993 79.3929C10.8118 80.0938 11.4268 80.1749 11.9126 80.2859C12.0966 80.3225 12.2678 80.3533 12.4717 80.3914C13.2019 80.5315 14.3079 80.7283 15.4473 80.7597C15.4516 80.7598 15.456 80.7599 15.4603 80.76C15.6486 80.7659 15.8023 80.9065 15.802 81.0794C15.8017 81.2521 15.6398 81.3918 15.442 81.3857C14.8137 81.3669 14.1998 81.3059 13.6573 81.2285C13.6078 81.3713 13.4413 81.4605 13.2633 81.4286C12.8243 81.3361 11.4179 81.2615 9.336 80.4826C9.46075 80.5723 9.56614 80.6495 9.65757 80.7178C9.76504 80.7979 9.84769 80.8608 9.9193 80.9144C10.0687 81.0259 10.1706 81.0994 10.3629 81.1963C10.8197 81.3983 11.5629 81.6525 12.3677 81.8391C12.5696 81.8866 12.7074 82.0575 12.6729 82.2268C12.6384 82.396 12.4367 82.4979 12.2251 82.4483C12.221 82.4473 12.2169 82.4464 12.2128 82.4455C11.3829 82.2529 10.5832 81.9804 10.0872 81.7591C9.96144 81.7035 9.8539 81.6515 9.77415 81.6109C9.71036 81.5785 9.63148 81.5368 9.59012 81.5081C9.58463 81.5043 9.57422 81.4969 9.56219 81.4872C9.562 81.487 9.56181 81.4868 9.56162 81.4866C9.55489 81.4812 9.52044 81.4538 9.48922 81.4124C9.48291 81.404 9.46933 81.3856 9.45578 81.3594C9.45093 81.3557 9.44608 81.352 9.44124 81.3483C9.37381 81.2969 9.30528 81.2439 9.23068 81.1879C8.94311 80.9648 8.46665 80.6544 7.54746 79.9517C6.71207 79.3017 5.27795 78.2089 3.94069 76.4317C4.02032 76.5592 4.10283 76.6857 4.18768 76.8104C4.40113 77.1241 4.6316 77.4298 4.87574 77.7254C4.96944 77.8388 5.06337 77.9489 5.16132 78.0596C5.31897 78.2379 5.4822 78.4129 5.64974 78.5834C5.76295 78.6986 5.87924 78.8126 5.99642 78.9239C5.9967 78.9242 5.99698 78.9244 5.99725 78.9246C6.16008 79.0793 6.32791 79.2315 6.49985 79.3807C6.55982 79.4332 6.61965 79.4845 6.67958 79.5349C6.91871 79.7358 7.15823 79.9258 7.43584 80.1488C7.4687 80.1773 7.50401 80.2093 7.52984 80.2335C7.55775 80.2594 7.58453 80.2846 7.60967 80.3088C7.63185 80.3302 7.65288 80.3509 7.6732 80.3705C7.67593 80.3731 7.67866 80.3757 7.6814 80.3784C7.70416 80.4003 7.72613 80.4211 7.74738 80.4409C7.76858 80.4606 7.78909 80.4796 7.8097 80.4977C7.80991 80.4979 7.81012 80.498 7.81034 80.4981C7.83192 80.5169 7.84837 80.5312 7.8719 80.5501C7.90145 80.5739 7.92719 80.5939 7.95896 80.6171C7.98966 80.6396 8.02221 80.6625 8.05523 80.685C8.08819 80.7074 8.12212 80.7297 8.1568 80.7519C8.19151 80.7742 8.22701 80.7965 8.26305 80.8186C8.29905 80.8407 8.33579 80.8627 8.37285 80.8847C8.40993 80.9066 8.44753 80.9287 8.48547 80.9506C8.57273 81.0011 8.64324 81.076 8.6802 81.1605C8.71727 81.245 8.71879 81.3325 8.6827 81.4045C8.6466 81.4765 8.57517 81.5278 8.48308 81.5464C8.39126 81.5652 8.28545 81.549 8.1912 81.5027C8.16554 81.4901 8.13973 81.4775 8.11393 81.4646C8.09861 81.457 8.08322 81.4491 8.06786 81.4414C8.02656 81.4206 7.98487 81.3994 7.94323 81.3776C7.90164 81.3559 7.85992 81.3334 7.81797 81.3104C7.77586 81.2873 7.73365 81.2635 7.69083 81.2385C7.64816 81.2135 7.60495 81.1874 7.56163 81.1599C7.51931 81.1332 7.47177 81.1016 7.42999 81.0722C7.39938 81.0508 7.36245 81.0233 7.33194 80.9999C7.30009 80.9755 7.26916 80.9509 7.23965 80.9268C7.21007 80.9027 7.18182 80.8788 7.15492 80.8561C7.15203 80.8536 7.14914 80.8512 7.14625 80.8488C7.12251 80.8287 7.09958 80.8091 7.07779 80.7907C7.05345 80.7701 7.03027 80.7509 7.00811 80.733C6.98375 80.7131 6.9686 80.7016 6.94995 80.6876C6.69776 80.5117 6.38459 80.2972 6.09404 80.0806C6.05754 80.0534 6.0214 80.0262 5.98576 79.9992C5.79588 79.8557 5.60898 79.7079 5.42626 79.5566C5.29345 79.4466 5.16158 79.3337 5.03215 79.2187C4.84178 79.0496 4.65459 78.8742 4.47274 78.6945C4.35985 78.5828 4.25082 78.4713 4.14174 78.3559C3.85728 78.0551 3.58482 77.7399 3.32833 77.4119C3.07182 77.084 2.82985 76.7416 2.60676 76.3865C2.38445 76.033 2.17375 75.6526 1.99575 75.2735C1.86484 74.9946 1.75276 74.6986 1.66127 74.4211C1.61201 74.2719 1.56714 74.1253 1.52546 73.9801C1.52535 73.9796 1.52524 73.9791 1.52514 73.9786C1.48858 73.8511 1.4544 73.7249 1.42158 73.5995C1.35165 73.3312 1.28814 73.0668 1.22836 72.8031C1.16891 72.5404 1.11284 72.2772 1.06025 72.0142C1.00791 71.7529 0.957945 71.4854 0.91288 71.2223C0.867467 70.957 0.826498 70.6957 0.78896 70.4213C0.739189 70.0585 0.699536 69.701 0.672863 69.3278C0.655678 69.0888 0.643986 68.8468 0.638571 68.6025C0.635681 68.4722 0.634575 68.342 0.635316 68.2119C0.636056 68.0811 0.63885 67.9512 0.643346 67.8198C0.643376 67.8193 0.643405 67.8188 0.643434 67.8183C0.651838 67.5745 0.666679 67.3321 0.688363 67.0895C0.722101 66.713 0.771738 66.3393 0.839273 65.9649C0.90647 65.5924 0.991852 65.218 1.09626 64.8486C1.20087 64.4787 1.3271 64.1041 1.4784 63.7384C1.61317 63.4116 1.76412 63.0899 1.92353 62.7813C1.96558 62.6998 2.00841 62.6188 2.05201 62.5384C2.2588 62.1563 2.47394 61.7959 2.6936 61.4447C2.91343 61.0939 3.14079 60.7486 3.37963 60.4061C3.6179 60.0645 3.86883 59.725 4.13436 59.3908C4.40085 59.0555 4.67568 58.7326 4.96962 58.413C5.26068 58.0964 5.56648 57.788 5.88883 57.488C6.0686 57.3208 6.26468 57.1508 6.45636 56.9951C6.64992 56.8377 6.84577 56.6883 7.04444 56.545C7.12506 56.4868 7.20579 56.43 7.28629 56.3743C7.40377 56.2931 7.52161 56.2141 7.63861 56.1374C7.83651 56.0077 8.03013 55.8855 8.22127 55.7673C8.41259 55.649 8.59783 55.5364 8.77848 55.426C8.96557 55.3119 9.1196 55.2166 9.30406 55.1008C9.76287 54.8351 10.0626 54.7047 10.3998 54.5643C10.4659 54.537 10.5336 54.5093 10.6045 54.4809C11.0116 54.3211 11.4257 54.1841 11.8429 54.0686C12.2612 53.9528 12.6819 53.8585 13.1092 53.7841C13.5345 53.7101 13.9637 53.6567 14.3933 53.6234C14.8224 53.5901 15.251 53.577 15.682 53.5837C15.7219 53.5843 15.7619 53.5851 15.802 53.5861C16.1526 53.5956 16.508 53.6084 16.8504 53.6236C17.0685 53.6332 17.3002 53.6461 17.5154 53.6593C17.6706 53.6688 17.8236 53.6788 17.9737 53.6886C18.0349 53.6926 18.0958 53.6966 18.1561 53.7005C18.3641 53.7139 18.5662 53.7264 18.7614 53.7359C18.9567 53.7454 19.1457 53.7521 19.3306 53.7545C19.5159 53.757 19.6971 53.7551 19.8784 53.749C20.0663 53.7424 20.2224 53.7337 20.4219 53.7176C20.5519 53.707 20.6792 53.6963 20.8062 53.6855C20.9962 53.6695 21.1849 53.6531 21.375 53.6361C21.5648 53.6191 21.7523 53.6017 21.9407 53.5836C22.0012 53.5778 22.0652 53.5716 22.1259 53.5656C22.3137 53.547 22.4992 53.5279 22.6846 53.5076C22.8696 53.4874 23.053 53.4663 23.2355 53.4438C23.4189 53.4213 23.5991 53.3978 23.7829 53.3724C24.0954 53.3291 24.3944 53.309 24.6563 53.2955C24.9214 53.2822 25.169 53.2748 25.4101 53.2677C25.4552 53.2664 25.5004 53.2651 25.5455 53.2638C25.74 53.2582 25.9312 53.253 26.1196 53.2467C26.3518 53.2389 26.5798 53.2296 26.8085 53.2186C27.0352 53.2077 27.2641 53.1949 27.4896 53.1798C27.7171 53.1646 27.9348 53.1482 28.1693 53.128C28.4012 53.1081 28.6368 53.0823 28.895 53.0541C29.1508 53.0262 29.4193 52.9974 29.6912 52.9723C29.7783 52.9642 29.8658 52.9565 29.9536 52.9492L32.4776 53.0864L32.3545 55.3501C32.3701 55.5361 32.3838 55.7231 32.3955 55.9092C32.4127 56.1837 32.4257 56.4591 32.4348 56.7307C32.4441 57.0037 32.4494 57.2751 32.4519 57.5451C32.4544 57.8145 32.454 58.0928 32.451 58.3533C32.4462 58.775 32.4394 59.1949 32.4318 59.6155C32.4242 60.0338 32.4157 60.4534 32.4068 60.8721C32.3978 61.29 32.3885 61.7085 32.3787 62.1262C32.3689 62.5442 32.3589 62.9621 32.3488 63.3793C32.3465 63.4716 32.3443 63.5639 32.3421 63.6562C32.3342 63.9811 32.3263 64.306 32.3186 64.6296C32.3185 64.6318 32.3184 64.634 32.3183 64.6363C32.3085 65.0527 32.2989 65.4616 32.2908 65.8746C32.2879 66.0262 32.2851 66.1719 32.2829 66.3199C32.2806 66.4681 32.2787 66.6135 32.2774 66.7603C32.276 66.9072 32.2753 67.0533 32.2752 67.1972C32.2753 67.3426 32.276 67.4844 32.278 67.6274C32.2797 67.7585 32.2829 67.8887 32.2862 68.0309C32.2865 68.0439 32.2868 68.0569 32.2871 68.0699C32.2908 68.2255 32.2931 68.4026 32.2914 68.5671C32.2913 68.5789 32.2911 68.5907 32.291 68.6025C32.2862 69.1066 32.2594 69.5954 32.2099 70.0919C32.1586 70.6034 32.0836 71.1109 31.9822 71.618C31.9428 71.8149 31.8989 72.0148 31.8512 72.2117C31.777 72.5178 31.6922 72.8245 31.5973 73.1272C31.441 73.6262 31.2564 74.1171 31.0425 74.5978C30.8293 75.0768 30.5866 75.5452 30.3189 75.9946C30.0514 76.4437 29.7556 76.8794 29.4408 77.2901C29.0901 77.7475 28.7158 78.18 28.3183 78.5909C27.9216 79.0007 27.5027 79.3873 27.0683 79.7469C26.6318 80.1084 26.1786 80.4437 25.7111 80.753C25.2424 81.063 24.76 81.3463 24.2648 81.6036C23.9682 81.7577 23.6683 81.9016 23.3637 82.0365C23.2136 82.1284 23.0679 82.2146 22.9261 82.2956C21.8762 82.8867 21.066 83.2439 19.9566 83.5773C19.8501 83.6114 19.7657 83.6425 19.6615 83.6797C19.6417 83.6868 19.6206 83.6941 19.599 83.7017C19.4626 83.7493 19.3046 83.8015 19.0799 83.8559C18.6368 83.9629 17.9302 84.0765 17.0213 83.9938C16.7912 83.9728 16.639 83.8123 16.6791 83.6416C16.707 83.5216 16.8194 83.4277 16.9592 83.3887C16.6948 83.3868 16.4334 83.3775 16.173 83.3624C16.0689 83.3563 15.9706 83.3186 15.9011 83.2572C15.8317 83.1958 15.7967 83.1163 15.8026 83.0359C15.8085 82.9554 15.8548 82.8801 15.93 82.8245C16.0053 82.7691 16.1034 82.738 16.2038 82.7368C16.4696 82.7338 16.7358 82.7243 17.0014 82.7071C17.266 82.69 17.5311 82.6653 17.7949 82.6332C18.0576 82.6013 18.3222 82.5615 18.5842 82.5147C18.8442 82.4682 19.1073 82.4139 19.3661 82.3529C19.6258 82.2917 19.8829 82.2235 20.1386 82.1486C20.2915 82.1037 20.448 82.0552 20.5991 82.0055C20.6555 81.987 20.7103 81.9684 20.765 81.9497C20.8098 81.9344 20.8547 81.9189 20.9008 81.9027C21.3878 81.7312 21.8696 81.533 22.3349 81.3129C22.8038 81.0913 23.2595 80.8464 23.7016 80.5786C24.144 80.3105 24.5714 80.0201 24.9834 79.7078C25.3942 79.3962 25.7892 79.0628 26.1656 78.7088C26.5403 78.3564 26.8979 77.9823 27.2324 77.591C27.4915 77.2881 27.7348 76.9771 27.9648 76.6553C28.0453 76.5213 28.1232 76.388 28.1982 76.2554C28.4165 75.8697 28.6043 75.4672 28.7682 75.0653C28.4131 75.7449 28.0945 76.277 27.7666 76.7691C27.7225 76.835 27.6781 76.9003 27.6332 76.9648C27.1732 77.621 26.6773 78.2318 25.8813 78.9106C23.5803 80.8081 21.8824 81.341 20.8822 81.6702C19.8597 81.9706 19.3952 81.9963 18.9605 81.9709C18.3447 81.9381 17.2153 81.9864 16.6497 82.0038C16.4425 82.0139 16.2741 81.8772 16.27 81.7045C16.2667 81.5317 16.4213 81.3883 16.6189 81.3786C17.192 81.3614 18.3614 81.3076 19.0687 81.3416C19.381 81.3572 19.7444 81.3519 20.7099 81.0685C21.6537 80.7563 23.2696 80.2522 25.4775 78.4323C26.2119 77.8058 26.6701 77.2451 27.1064 76.6249C27.1489 76.5639 27.1911 76.502 27.2332 76.4392C27.2335 76.4388 27.2338 76.4385 27.2341 76.4381C27.6199 75.8586 28.0073 75.2093 28.4512 74.3023C29.4456 72.4183 29.7503 69.6371 29.6303 68.6025C29.6235 68.4893 29.6172 68.3954 29.6113 68.3236C29.5992 68.1765 29.5856 68.0343 29.5713 67.8843C29.5166 67.3085 29.4506 66.6133 29.4068 65.0468C29.3972 64.7042 29.3917 64.3029 29.3891 63.865C29.3049 63.2078 29.2268 62.5698 29.1804 62.015C29.1403 61.5362 29.0667 61.0946 28.986 60.6668C28.9627 60.5436 28.9384 60.4197 28.9142 60.2959C28.8559 59.9974 28.7976 59.6987 28.7525 59.4077C28.7165 59.1758 28.6733 58.9328 28.6277 58.6761C28.4686 57.7819 28.2794 56.7182 28.2608 55.3501L29.9536 57.0429C29.8907 57.0438 29.8272 57.0443 29.7631 57.0444C28.2149 57.0472 26.8895 57.0112 25.7463 56.976C26.5858 57.0167 27.2339 57.0654 27.7738 57.1088C27.8756 57.117 27.9732 57.1249 28.0672 57.1326C28.7307 57.1867 29.2131 57.2261 29.7301 57.2244C29.806 57.2242 29.8805 57.2239 29.9536 57.2236L28.0801 55.3501C28.0905 57.6532 28.1449 58.5545 28.2935 59.5674C28.3338 59.8426 28.3876 60.1461 28.4455 60.4731C28.5611 61.1267 28.6933 61.8743 28.769 62.6775C28.8394 63.4256 28.9434 64.2624 29.0534 65.1489C29.0534 65.1493 29.0534 65.1496 29.0534 65.15C29.0749 65.3232 29.0966 65.4985 29.1184 65.6753C29.2356 66.6272 29.3535 67.6227 29.4373 68.6025C29.4484 68.7277 29.457 68.8524 29.463 68.9766C29.4685 69.0906 29.4752 69.2252 29.4794 69.3836C29.5074 70.2775 29.4333 71.95 28.5195 73.7062C28.3207 74.0886 28.0766 74.4661 27.7736 74.8743C27.6812 74.9986 27.583 75.1257 27.4786 75.2564C27.0262 75.8189 26.4509 76.4762 25.6043 77.2542C24.9063 77.8957 23.993 78.6114 22.951 79.2013C22.4391 79.4927 21.8979 79.7552 21.3504 79.9756C19.6931 80.64 18.0575 80.9185 16.4383 80.9372C16.438 80.9372 16.4377 80.9372 16.4373 80.9372C16.2462 80.9392 16.0933 80.7961 16.097 80.6234C16.1006 80.4507 16.2513 80.3131 16.4327 80.3112C17.9823 80.2932 19.5401 80.0271 21.117 79.3949C21.6318 79.1877 22.1445 78.9397 22.6312 78.6632C23.6309 78.0989 24.5136 77.4072 25.1842 76.7903C26.0038 76.0367 26.5608 75.3993 26.9964 74.8565C27.1009 74.7253 27.1972 74.6 27.2865 74.4792C27.5705 74.0944 27.7877 73.7574 27.9667 73.4128C28.805 71.7977 28.8776 70.2726 28.8535 69.4206C28.8497 69.2668 28.8434 69.1329 28.838 69.0191C28.8315 68.881 28.8215 68.742 28.8082 68.6025C28.7264 67.6648 28.6133 66.7093 28.4992 65.783C28.4777 65.6083 28.4562 65.4344 28.4348 65.2619C28.4347 65.2616 28.4346 65.2612 28.4345 65.2609C28.3245 64.3745 28.2187 63.5227 28.147 62.7607C28.0742 61.9871 27.9542 61.3126 27.8421 60.6815C27.782 60.3429 27.7243 60.0168 27.677 59.6948C27.5193 58.6193 27.4648 57.6674 27.4545 55.3501L29.9536 57.8492C29.8819 57.8496 29.809 57.8498 29.7347 57.8501ZM17.3661 83.3861C17.9146 83.4137 18.3568 83.3631 18.6819 83.3016C18.4024 83.332 18.122 83.3544 17.8435 83.3689C17.6846 83.3772 17.5249 83.383 17.3661 83.3861ZM30.0144 63.805C30.0246 63.8843 30.0349 63.9641 30.0453 64.0443C30.0403 63.823 30.0358 63.6017 30.0312 63.3807C30.0256 63.1094 30.0203 62.8381 30.015 62.567C30.013 62.9981 30.0124 63.4159 30.0144 63.805ZM29.7596 56.4185C29.825 56.4183 29.8897 56.4178 29.9536 56.4169L28.8868 55.3501C28.905 56.631 29.0781 57.6068 29.235 58.4908C29.2824 58.7581 29.3283 59.0173 29.368 59.2737C29.3845 59.38 29.4027 59.4863 29.4221 59.5934C29.4319 58.9696 29.4422 58.3963 29.4508 57.9269C29.4725 56.7351 29.5144 55.9803 29.5552 55.3501L29.9536 55.7485C29.8432 55.7413 29.7366 55.7342 29.6322 55.7272C29.4296 55.7137 29.2348 55.7007 29.036 55.6891C28.8716 55.7101 28.7008 55.7309 28.5283 55.7492C28.2867 55.775 28.0255 55.7998 27.777 55.8209C27.5275 55.8421 27.274 55.8611 27.025 55.8771C26.7739 55.8932 26.5252 55.9066 26.2775 55.9183C26.0445 55.9293 25.8123 55.9386 25.5877 55.9476C25.5748 55.9481 25.5619 55.9486 25.549 55.9491C25.3116 55.9587 25.0805 55.9678 24.8683 55.9805C24.6522 55.9935 24.4726 56.0089 24.3132 56.0321C24.1141 56.061 23.9098 56.0887 23.7078 56.1145C23.5056 56.1403 23.3043 56.1643 23.1036 56.1868C22.9024 56.2093 22.7032 56.2304 22.5035 56.2503C22.4389 56.2567 22.3714 56.2634 22.3074 56.2695C22.2779 56.2724 22.2484 56.2753 22.2189 56.2781C22.6096 56.2802 23.0152 56.2836 23.4345 56.2888C24.0401 56.2962 24.6867 56.3167 25.3999 56.3391C26.6166 56.3774 28.0273 56.4216 29.7596 56.4185ZM16.297 56.3339C16.4669 56.3323 16.7156 56.3274 17.0364 56.3211C17.1122 56.3196 17.1922 56.3178 17.2761 56.3162C17.2741 56.3161 17.2721 56.3161 17.2701 56.3159C17.0623 56.3 16.8705 56.2861 16.6634 56.2732C16.372 56.2552 16.0872 56.2392 15.802 56.225C15.7298 56.2212 15.6576 56.2181 15.5854 56.2156C15.2422 56.2039 14.8983 56.2075 14.5561 56.2261C14.2122 56.2449 13.87 56.2791 13.53 56.3287C13.1886 56.3787 12.8527 56.4432 12.5196 56.5241C12.4139 56.5498 12.3065 56.5776 12.2007 56.6068C12.4428 56.5599 12.6916 56.515 12.9578 56.4748C13.1711 56.4426 13.3903 56.4146 13.625 56.3923C13.7148 56.3837 13.8233 56.376 13.9494 56.3689C14.3734 56.3457 14.9979 56.3272 15.802 56.3342C15.9605 56.3355 16.1256 56.3356 16.297 56.3339ZM9.71091 57.7094C9.64207 57.7475 9.57392 57.7856 9.50669 57.8233C9.31425 57.931 9.1285 58.0372 8.94866 58.1442C8.8218 58.2197 8.69757 58.2956 8.57667 58.3724C8.52565 58.4048 8.47504 58.4375 8.42505 58.4702C8.34102 58.5253 8.25853 58.581 8.1774 58.6373C8.76412 58.2699 9.36308 57.9512 10.0037 57.6605C10.0121 57.6566 10.0206 57.6526 10.0291 57.6488C9.92054 57.6682 9.81448 57.6884 9.71091 57.7094ZM32.4535 30.427C32.4553 31.0188 32.4128 31.5736 32.3589 32.2742C32.3589 32.2746 32.3589 32.275 32.3589 32.2753C32.3512 32.3754 32.3432 32.4786 32.3351 32.5852C32.2703 33.4436 32.1941 34.559 32.1505 36.2408C32.1022 38.0991 31.9275 39.5745 31.7598 40.4754C31.7286 40.6434 31.7114 40.8173 31.6957 41.256C31.6855 41.5437 31.6762 41.9327 31.6628 42.4939C31.6556 42.7925 31.6474 43.14 31.6371 43.5467C31.6032 44.8932 31.6138 47.0035 31.6237 48.948C31.6298 50.1282 31.6355 51.2475 31.6307 52.0977C31.6246 53.1908 31.5996 54.2502 31.5704 55.3765L31.6485 56.9067L29.9536 56.9933C29.7987 56.9893 29.6426 56.9852 29.485 56.9811C28.2906 56.9497 27.0083 56.9158 25.5248 56.8965C24.3865 56.8817 23.2805 56.7548 22.1567 56.613C22.0136 56.595 21.87 56.5767 21.7262 56.5584C20.7344 56.4319 19.7206 56.3023 18.6243 56.2282C17.6023 56.159 16.6884 56.141 15.802 56.1482C14.9519 56.1541 14.124 56.118 13.2606 56.009C12.5545 55.9191 11.821 55.7789 11.047 55.5522C9.82257 55.2024 8.11629 54.4521 6.62712 53.3537C6.49988 53.261 6.37398 53.1664 6.2502 53.07C6.24957 53.0695 6.24894 53.069 6.24831 53.0686C4.90643 52.0337 3.80884 50.7623 3.1155 49.7565C2.02621 48.1453 1.76716 47.4378 1.49347 46.8863C1.39729 46.6752 1.31182 46.476 1.22301 46.2355C0.897404 45.3704 0.596401 43.982 0.566568 42.5651C0.566394 42.5597 0.566224 42.5543 0.566056 42.5489C0.559932 42.3131 0.702068 42.1221 0.874736 42.124C1.04765 42.126 1.18597 42.31 1.19181 42.5333C1.20955 43.2494 1.28947 43.9465 1.41058 44.5616C1.56266 44.5663 1.70375 44.7063 1.74589 44.8994C1.86083 45.3695 2.27422 46.8966 3.66162 48.7829C3.59996 48.6337 3.55428 48.5062 3.51729 48.3933C3.47395 48.2608 3.44521 48.1578 3.42112 48.0692C3.37141 47.8844 3.34014 47.7619 3.26237 47.5573C3.05859 47.0952 2.74568 46.3666 2.51631 45.5664C2.45752 45.3635 2.55167 45.1638 2.71907 45.1217C2.88673 45.0796 3.06172 45.2012 3.11715 45.392C3.11826 45.3957 3.11937 45.3995 3.12048 45.4032C3.33612 46.1548 3.64198 46.8688 3.84504 47.3271C3.89619 47.4439 3.94037 47.545 3.97304 47.6212C3.99911 47.6821 4.03196 47.7582 4.04551 47.8032C4.0473 47.8092 4.05059 47.8206 4.05374 47.8348C4.05377 47.835 4.05379 47.8353 4.05382 47.8355C4.05561 47.8434 4.06481 47.8836 4.06378 47.933C4.06356 47.943 4.06286 47.9649 4.05765 47.9929C4.05921 47.9984 4.06077 48.004 4.06234 48.0096C4.08427 48.087 4.10748 48.1659 4.13554 48.2501C4.25034 48.5754 4.43418 49.0992 5.08834 50.0414C5.68994 50.8977 6.94752 52.2446 8.92925 53.3107C8.8019 53.2274 8.67658 53.143 8.55131 53.0562C8.23725 52.8388 7.9303 52.6104 7.63405 52.3718C7.52033 52.2802 7.40945 52.1881 7.29828 52.0932C7.11963 51.9404 6.94358 51.7824 6.77278 51.6211C6.6575 51.5122 6.54331 51.4008 6.43186 51.2879C6.43159 51.2876 6.43132 51.2874 6.43106 51.2872C6.27641 51.1305 6.12545 50.9698 5.97796 50.8041C5.92659 50.7459 5.87632 50.6882 5.8269 50.6305C5.62997 50.4004 5.44395 50.1695 5.25302 49.8859C5.23112 49.8504 5.20858 49.8109 5.19244 49.7809C5.17497 49.7488 5.15862 49.7176 5.14371 49.6877C5.13055 49.6614 5.11844 49.6359 5.10676 49.6117C5.10519 49.6084 5.10362 49.6052 5.10205 49.6019C5.08901 49.5748 5.07648 49.5489 5.06441 49.5241C5.05239 49.4993 5.04088 49.4754 5.0291 49.4522C5.02896 49.452 5.02881 49.4518 5.02867 49.4517C5.01629 49.4275 5.00692 49.4092 4.99316 49.3842C4.97589 49.3528 4.96076 49.3261 4.94184 49.2943C4.92356 49.2635 4.90415 49.2317 4.88431 49.1998C4.86447 49.1679 4.84405 49.1356 4.82325 49.103C4.80243 49.0703 4.78129 49.0371 4.75986 49.0037C4.73847 48.9703 4.71671 48.9366 4.69502 48.9025C4.67332 48.8685 4.65154 48.834 4.62977 48.7993C4.57964 48.7193 4.55807 48.6248 4.57104 48.5376C4.58398 48.4502 4.62981 48.3776 4.69765 48.3341C4.76557 48.2907 4.85039 48.2794 4.93405 48.3009C5.01775 48.3224 5.0935 48.3749 5.14673 48.4469C5.16121 48.4665 5.17591 48.4861 5.19063 48.5058C5.19936 48.5175 5.2081 48.5294 5.21691 48.5411C5.24059 48.5727 5.26478 48.6044 5.28895 48.6365C5.31308 48.6685 5.33732 48.7008 5.36184 48.7335C5.38643 48.7663 5.41132 48.7996 5.43628 48.8335C5.46117 48.8674 5.48637 48.9023 5.51157 48.938C5.53619 48.9729 5.5637 49.0132 5.58769 49.0497C5.60529 49.0764 5.62619 49.11 5.64346 49.138C5.66148 49.1674 5.67891 49.1965 5.69557 49.2248C5.71226 49.2531 5.72817 49.2808 5.74353 49.3071C5.74519 49.3099 5.74686 49.3128 5.74852 49.3156C5.76212 49.3388 5.77531 49.3613 5.78804 49.3823C5.80226 49.4059 5.81613 49.4279 5.82964 49.4485C5.84448 49.4713 5.85411 49.4846 5.86605 49.5008C6.03154 49.709 6.25597 49.9502 6.47926 50.1704C6.5073 50.1981 6.53528 50.2255 6.56312 50.2526C6.71141 50.396 6.8631 50.535 7.01816 50.6702C7.1309 50.7686 7.24574 50.8651 7.36194 50.9595C7.53309 51.0985 7.70878 51.2341 7.88688 51.3648C7.99755 51.4461 8.10795 51.5246 8.22061 51.6024C8.51515 51.8056 8.81867 51.9984 9.12963 52.1815C9.43927 52.3638 9.75834 52.5373 10.0825 52.7014C10.4055 52.8652 10.7473 53.0261 11.0799 53.1759C11.3255 53.287 11.5755 53.4052 11.8114 53.5121C11.9386 53.5697 12.0626 53.6245 12.1866 53.6772C12.187 53.6775 12.1874 53.6777 12.1878 53.6779C12.2965 53.7242 12.4049 53.7686 12.5137 53.8108C12.7453 53.901 12.978 53.981 13.2139 54.0504C13.4479 54.1194 13.6876 54.1783 13.9283 54.226C14.1671 54.2734 14.4161 54.3111 14.6595 54.3374C14.9053 54.364 15.1502 54.3802 15.4048 54.387C15.5368 54.3904 15.669 54.3912 15.802 54.3897C16.0203 54.3873 16.2394 54.3837 16.462 54.3797C16.8259 54.3729 17.1928 54.3644 17.5607 54.3559C17.6893 54.3529 17.8181 54.3501 17.9471 54.347C17.9476 54.347 17.9481 54.347 17.9486 54.347C18.1872 54.3414 18.4263 54.3357 18.6657 54.3302C19.0353 54.3218 19.4059 54.3138 19.7778 54.3073C20.1497 54.3009 20.5239 54.2958 20.9001 54.2939C21.2762 54.2922 21.6626 54.2932 22.0506 54.3034C22.3968 54.3121 22.7458 54.3238 23.087 54.3354C23.1771 54.3385 23.2672 54.3415 23.3573 54.3446C23.7848 54.3589 24.1986 54.3702 24.6079 54.3724C25.0169 54.3747 25.4256 54.3683 25.838 54.3547C26.2492 54.3411 26.6656 54.3208 27.0853 54.2964C27.5068 54.2718 27.9229 54.2435 28.3475 54.2124C28.7688 54.1815 29.1921 54.1483 29.6205 54.1133C29.7293 54.1044 29.8412 54.0958 29.9536 54.0877L28.6647 55.3765C28.6551 55.2429 28.6461 55.1087 28.6378 54.9786C28.6225 54.7369 28.6089 54.4967 28.5963 54.2596C28.5912 54.1634 28.5863 54.0676 28.5813 53.9725C28.5741 53.8339 28.5671 53.6964 28.5597 53.5611C28.5472 53.3328 28.5338 53.11 28.5182 52.8936C28.5025 52.6773 28.4843 52.4674 28.462 52.2646C28.4389 52.0547 28.4154 51.8817 28.3817 51.6747C28.3169 51.1707 28.297 50.8585 28.2746 50.5114C28.2702 50.4431 28.2655 50.3733 28.2606 50.3005C28.2355 49.8844 28.2168 49.4687 28.2026 49.0585C28.1884 48.6442 28.1789 48.2365 28.1733 47.8235C28.1678 47.4145 28.1665 47.0026 28.1687 46.5923C28.171 46.1826 28.177 45.7737 28.1867 45.3637C28.1965 44.954 28.2103 44.5358 28.227 44.1343C28.2367 43.9023 28.2495 43.6558 28.2627 43.4269C28.2722 43.2617 28.2822 43.0989 28.292 42.9393C28.296 42.8741 28.3 42.8094 28.3039 42.7452C28.3174 42.524 28.3298 42.3089 28.3393 42.1012C28.3488 41.8935 28.3555 41.6924 28.3579 41.4957C28.3604 41.2986 28.3586 41.1058 28.3524 40.9129C28.3459 40.713 28.3371 40.5469 28.321 40.3346C28.3104 40.1964 28.2997 40.0609 28.289 39.9259C28.2729 39.7237 28.2565 39.5229 28.2395 39.3207C28.2225 39.1187 28.2052 38.9193 28.187 38.7189C28.1812 38.6545 28.1751 38.5864 28.169 38.5218C28.1504 38.3221 28.1313 38.1247 28.111 37.9275C28.0908 37.7306 28.0697 37.5356 28.0473 37.3413C28.0247 37.1463 28.0013 36.9545 27.9759 36.759C27.9325 36.4265 27.9124 36.1084 27.8989 35.8298C27.8856 35.5478 27.8782 35.2843 27.8712 35.0279C27.8699 34.9798 27.8685 34.9318 27.8672 34.8838C27.8617 34.6769 27.8564 34.4734 27.8501 34.273C27.8424 34.026 27.8331 33.7835 27.822 33.5402C27.8111 33.299 27.7983 33.0554 27.7833 32.8155C27.7681 32.5734 27.7516 32.3419 27.7314 32.0924C27.7116 31.8457 27.6857 31.5951 27.6575 31.3204C27.6296 31.0482 27.6009 30.7626 27.5758 30.4733C27.5506 30.1844 27.5288 29.8908 27.5117 29.5994C27.4973 29.3565 27.4859 29.1129 27.4772 28.8715L29.9536 31.3479C29.9048 31.3496 29.8561 31.3513 29.8075 31.3528C29.517 31.362 29.2282 31.3674 28.941 31.3699C28.6544 31.3724 28.3583 31.372 28.0812 31.369C27.6325 31.3641 27.1858 31.3573 26.7384 31.3498C26.2934 31.3422 25.847 31.3337 25.4015 31.3247C24.9568 31.3158 24.5117 31.3064 24.0672 31.2967C23.6226 31.2869 23.178 31.2769 22.7341 31.2667C22.6359 31.2645 22.5377 31.2623 22.4395 31.26C22.0938 31.2521 21.7482 31.2442 21.4039 31.2365C21.4016 31.2364 21.3992 31.2363 21.3969 31.2362C20.9538 31.2264 20.5188 31.2169 20.0794 31.2088C19.9181 31.2059 19.7631 31.2031 19.6056 31.2008C19.448 31.1985 19.2933 31.1967 19.1371 31.1953C18.9808 31.194 18.8254 31.1932 18.6723 31.1932C18.5176 31.1932 18.3668 31.1939 18.2146 31.1959C18.0752 31.1977 17.9366 31.2009 17.7853 31.2042C17.7715 31.2045 17.7577 31.2048 17.7439 31.2051C17.5783 31.2087 17.39 31.211 17.2149 31.2094C16.7512 31.2044 16.2993 31.2021 15.8392 31.2024C15.8268 31.2024 15.8144 31.2024 15.802 31.2024C15.42 31.2028 15.0422 31.2219 14.6634 31.2591C14.512 31.2739 14.3578 31.2922 14.2062 31.3127C13.9709 31.3446 13.7327 31.3838 13.4981 31.4287C13.1102 31.5031 12.7256 31.5938 12.3433 31.7001C11.9619 31.806 11.5826 31.9275 11.2105 32.0624C10.8379 32.1975 10.4674 32.3484 10.1083 32.5113C9.70686 32.6933 9.31725 32.8936 8.93628 33.1157C8.55627 33.3371 8.187 33.5792 7.83268 33.8399C7.47746 34.1013 7.13642 34.3821 6.81203 34.6808C6.48693 34.9802 6.17877 35.2973 5.88882 35.632C5.71539 35.8323 5.54856 36.0386 5.38905 36.2507C5.32415 36.3757 5.26467 36.4968 5.20946 36.6137C4.8082 37.4802 4.59728 38.128 4.36855 38.9793C4.35001 39.0618 4.3401 39.1305 4.32889 39.2139C4.32676 39.2299 4.32439 39.2467 4.32214 39.2639C4.30789 39.3732 4.29127 39.4973 4.26031 39.6674C4.19895 40.0095 4.08248 40.5128 3.87396 41.1865C3.82161 41.356 3.64913 41.4589 3.48302 41.4093C3.36671 41.3742 3.2855 41.2702 3.26703 41.1482C3.22738 41.3667 3.19342 41.5875 3.16628 41.8078C3.15539 41.896 3.11536 41.9786 3.05317 42.0381C2.99096 42.0974 2.91174 42.1287 2.83127 42.1235C2.75083 42.1182 2.67524 42.0763 2.62099 42.0057C2.5668 41.9353 2.53876 41.8422 2.54308 41.7485C2.55457 41.5009 2.57418 41.2515 2.60044 41.0058C2.62669 40.76 2.66002 40.5133 2.70011 40.2703C2.74054 40.0253 2.78761 39.7833 2.8423 39.5409C2.89683 39.2991 2.95838 39.0602 3.02762 38.821C3.0972 38.581 3.17235 38.3474 3.2562 38.1123C3.30636 37.9716 3.35996 37.8301 3.41504 37.6919C3.4356 37.6404 3.45579 37.5903 3.47649 37.5403C3.49341 37.4995 3.51074 37.4585 3.52876 37.4165C3.71788 36.9736 3.93589 36.5375 4.17704 36.1185C4.41932 35.6976 4.68679 35.2905 4.97705 34.8997C5.26767 34.5085 5.58062 34.1339 5.91509 33.7768C6.24876 33.4205 6.6036 33.0818 6.97666 32.763C7.3489 32.4449 7.74019 32.1461 8.14611 31.869C8.46016 31.6546 8.78112 31.4541 9.10932 31.2667C9.23277 31.182 9.35786 31.1001 9.48153 31.0222C9.843 30.7947 10.212 30.5707 10.5879 30.3654C9.89352 30.6655 9.36946 30.9728 8.88885 31.2866C8.82463 31.3287 8.7612 31.3712 8.69804 31.414C8.05707 31.8533 7.4651 32.3054 6.70014 32.9473C4.54365 34.8169 3.81713 36.3774 3.34439 37.2746C2.89534 38.2009 2.73207 38.6161 2.50265 38.9879C2.17379 39.5113 1.88506 40.6566 1.85349 41.2444C1.83696 41.4575 1.68993 41.6229 1.51719 41.616C1.34465 41.6088 1.21193 41.4218 1.2294 41.1962C1.26335 40.5444 1.58508 39.2373 1.99942 38.5886C2.18313 38.2998 2.32316 37.9473 2.788 36.9879C3.27887 36.0599 4.03375 34.4313 6.29658 32.4687C7.06906 31.8208 7.66404 31.3645 8.32612 30.9091C8.39123 30.8648 8.45761 30.8201 8.52423 30.7762C8.52466 30.776 8.52509 30.7757 8.52552 30.7755C9.14352 30.3719 9.84691 29.961 10.8714 29.5777C12.3867 28.9948 14.3653 28.6437 15.802 28.6088C16.5811 28.5793 17.19 28.5512 17.474 28.5292C17.6305 28.5171 17.7818 28.5035 17.9414 28.4893C18.5539 28.4346 19.2935 28.3686 20.9601 28.3248C21.3246 28.3152 21.7515 28.3096 22.2174 28.3071C22.9166 28.2228 23.5954 28.1447 24.1856 28.0983C24.695 28.0583 25.1647 27.9846 25.6199 27.9039C25.7509 27.8807 25.8828 27.8564 26.0145 27.8322C26.3321 27.7739 26.6498 27.7155 26.9594 27.6705C27.2062 27.6345 27.4646 27.5913 27.7377 27.5456C28.3796 27.4383 29.1035 27.3173 29.9536 27.2441L31.4938 27.1655L31.581 28.8715C31.6212 29.3393 31.6469 29.8453 31.6478 30.3968C31.6506 32.0439 31.6146 33.454 31.5795 34.6702C31.6201 33.777 31.6688 33.0875 31.7122 32.5132C31.7204 32.4048 31.7284 32.301 31.736 32.2011C31.7902 31.4951 31.8295 30.9819 31.8279 30.4319C31.8261 29.8336 31.8219 29.3204 31.8148 28.8715L31.7151 26.9203L29.9536 27.0103C28.4314 27.0345 27.6481 27.0931 26.7895 27.2115C26.4968 27.2518 26.1739 27.3056 25.826 27.3634C25.1306 27.4791 24.3353 27.6113 23.4807 27.6869C22.6848 27.7574 21.7946 27.8613 20.8514 27.9714C20.8511 27.9714 20.8507 27.9714 20.8503 27.9714C20.666 27.9929 20.4795 28.0146 20.2914 28.0364C19.1447 28.1691 17.9385 28.3026 16.7643 28.3867C16.6387 28.3957 16.4883 28.4081 16.3156 28.4224C16.1618 28.4352 15.9902 28.4494 15.802 28.464C14.7399 28.5439 13.1904 28.7421 11.4012 29.197C10.9357 29.3155 10.4502 29.4376 9.90155 29.6118C9.73431 29.665 9.56254 29.7226 9.38303 29.7877C8.61303 30.07 7.68168 30.4748 6.57698 31.2432C5.66748 31.8764 4.64729 32.7915 3.76819 33.9002C3.33431 34.4447 2.93284 35.0335 2.58181 35.6409C1.52285 37.4769 0.937742 39.397 0.768548 41.3533C0.768525 41.3537 0.768502 41.3541 0.768479 41.3545C0.74874 41.5843 0.599472 41.762 0.42689 41.7499C0.254648 41.7375 0.124652 41.5308 0.145653 41.2882C0.324609 39.2397 0.938884 37.235 2.04323 35.3221C2.40495 34.6968 2.82061 34.086 3.27157 33.5192C4.19302 32.3547 5.27187 31.3872 6.22948 30.7222C7.40135 29.9087 8.38973 29.4819 9.20345 29.1857C9.39971 29.1151 9.58573 29.0532 9.76349 28.9973C10.3285 28.8204 10.8034 28.703 11.2635 28.5862C13.1202 28.1169 14.7103 27.9157 15.802 27.8349C15.9544 27.8229 16.0959 27.8112 16.226 27.8005C16.4034 27.7858 16.5594 27.773 16.6922 27.7635C17.8434 27.6811 19.0311 27.5498 20.1768 27.4171C20.3627 27.3956 20.5477 27.3742 20.7312 27.3528C20.7316 27.3527 20.732 27.3526 20.7323 27.3524C21.6753 27.2424 22.5815 27.1367 23.3923 27.065C24.2152 26.9921 24.9329 26.8722 25.6042 26.7601C25.9644 26.6999 26.3114 26.6422 26.654 26.595C27.5683 26.4689 28.3987 26.4088 29.9536 26.3845L32.3074 26.2642L32.4406 28.8715C32.4477 29.3225 32.4517 29.8344 32.4535 30.427ZM3.33273 40.8117C3.46513 40.3712 3.55229 40.0172 3.60697 39.7498C3.53868 39.9718 3.47668 40.1959 3.42117 40.4229C3.38967 40.5515 3.36018 40.6811 3.33273 40.8117ZM22.2813 28.9324C22.1969 28.9426 22.1119 28.9529 22.0267 28.9632C22.2621 28.9583 22.4975 28.9538 22.7326 28.9492C23.0213 28.9436 23.3099 28.9382 23.5983 28.933C23.1396 28.9309 22.6951 28.9304 22.2813 28.9324ZM31.0219 30.4005C31.021 29.8419 30.9938 29.3371 30.9515 28.8715L30.8981 27.8253L29.9536 27.8736C29.198 27.9423 28.5458 28.051 27.9349 28.1529C27.6505 28.2004 27.3748 28.2463 27.102 28.286C26.9889 28.3025 26.8758 28.3207 26.7619 28.34C27.4255 28.3498 28.0355 28.3601 28.5348 28.3687C29.0867 28.3782 29.5504 28.3915 29.9536 28.4068L30.3934 28.3843L30.4183 28.8715C30.3922 29.5569 30.3601 30.0668 30.3307 30.536C30.3171 30.7516 30.3041 30.9589 30.2925 31.1703C30.3135 31.3453 30.3343 31.5269 30.3526 31.7105C30.3785 31.9675 30.4033 32.2454 30.4243 32.5098C30.4456 32.7752 30.4645 33.0449 30.4805 33.3098C30.4966 33.5769 30.5101 33.8416 30.5217 34.105C30.5327 34.3529 30.542 34.5999 30.551 34.839C30.5515 34.8526 30.552 34.8663 30.5525 34.88C30.5621 35.1327 30.5713 35.3785 30.584 35.6043C30.597 35.8342 30.6123 36.0253 30.6355 36.1949C30.6644 36.4067 30.6922 36.624 30.7179 36.8388C30.7438 37.054 30.7678 37.2682 30.7903 37.4817C30.8128 37.6957 30.8338 37.9076 30.8537 38.1201C30.8602 38.1888 30.8668 38.2607 30.873 38.3288C30.8758 38.3602 30.8787 38.3916 30.8815 38.4229C30.8837 38.0072 30.887 37.5757 30.8922 37.1297C30.8997 36.4853 30.9201 35.7975 30.9425 35.0387C30.9808 33.7442 31.025 32.2435 31.0219 30.4005ZM30.9374 44.7231C30.9357 44.5424 30.9308 44.2778 30.9245 43.9365C30.9231 43.8558 30.9213 43.7707 30.9197 43.6815C30.9195 43.6836 30.9195 43.6857 30.9194 43.6878C30.9034 43.9089 30.8895 44.113 30.8766 44.3333C30.8538 44.726 30.8342 45.1075 30.8174 45.4929C30.8006 45.8797 30.7868 46.2654 30.7759 46.6516C30.765 47.0384 30.7571 47.4263 30.7524 47.8108C30.7477 48.199 30.7459 48.5818 30.7481 48.9681C30.7489 49.0912 30.75 49.2147 30.7515 49.3381C30.7673 49.0625 30.7802 48.7764 30.7939 48.4742C30.8048 48.2329 30.8163 47.9811 30.8299 47.7164C30.8352 47.6151 30.8432 47.4924 30.8525 47.3494C30.8896 46.7825 30.9479 45.8929 30.9374 44.7231ZM30.9239 52.4202C30.9281 52.5099 30.9318 52.5991 30.9349 52.6872C30.9437 52.938 30.9487 53.1825 30.9526 53.4222C30.9553 53.5906 30.9573 53.757 30.9593 53.921C30.9602 53.9902 30.9612 54.0593 30.9621 54.1278C30.9636 54.2425 30.9654 54.3564 30.9673 54.4694C30.9861 53.6766 31.0006 52.9016 31.0051 52.094C31.0052 52.0833 31.0051 52.0726 31.0051 52.0618C30.9775 52.1841 30.9504 52.3035 30.9239 52.4202ZM32.1794 53.1168C31.738 52.6889 31.372 52.236 30.9553 51.6385C30.9551 51.6382 30.9548 51.6379 30.9546 51.6376C30.8953 51.5521 30.8349 51.4632 30.7735 51.371C30.286 50.6256 29.665 49.6419 28.998 48.0377C28.2677 46.2531 28.1805 44.6938 28.2426 43.7805C28.2551 43.6076 28.25 43.435 28.2374 42.9935C28.232 42.7726 28.2264 42.4957 28.2351 42.124C28.2378 42.0092 28.2421 41.8859 28.2487 41.7535C28.2637 41.4564 28.2898 41.1082 28.3402 40.7061C28.4876 39.3713 28.9795 37.2948 29.8839 35.578C30.4171 34.5316 31.0588 33.6179 31.5986 32.9732C32.3876 32.0293 33.2709 31.2255 34.3125 30.4856C35.2685 29.8108 36.3633 29.1854 37.6975 28.6399C38.7233 28.2224 39.7961 28.0283 40.8729 27.9557C41.0109 27.9463 41.1477 27.9391 41.2852 27.9336C42.2017 27.8975 43.1273 27.9371 44.1047 28.0118C44.1406 28.0146 44.1766 28.0174 44.2127 28.0202C46.0229 28.1749 47.4483 28.3769 49.0002 28.8067C49.6044 28.9785 50.2243 29.1927 50.8727 29.4839C51.8994 29.9378 53.3009 30.7822 54.5039 31.8821C54.6067 31.9752 54.7079 32.0693 54.8082 32.1653C54.8087 32.1658 54.8092 32.1663 54.8097 32.1668C55.8912 33.1946 56.7609 34.3881 57.3107 35.3131C58.1737 36.7924 58.3839 37.4174 58.6071 37.9128C58.6856 38.1016 58.7551 38.2783 58.827 38.4934C59.0894 39.2646 59.3202 40.4884 59.3417 41.7358C59.3418 41.7406 59.342 41.7453 59.3421 41.7501C59.3465 41.9577 59.2046 42.1257 59.0319 42.124C58.859 42.1223 58.7205 41.9604 58.7163 41.7637C58.7036 41.1347 58.6424 40.5184 58.5482 39.9767C58.3969 39.9725 58.2621 39.8478 58.2297 39.6771C58.1404 39.2591 57.7989 37.9174 56.6699 36.1939C56.7126 36.33 56.7429 36.446 56.7665 36.5484C56.7942 36.6687 56.8113 36.762 56.8255 36.8422C56.8547 37.0094 56.8727 37.12 56.9287 37.3045C57.0828 37.7216 57.3254 38.3746 57.5024 39.0854C57.5476 39.2651 57.4431 39.4425 57.2745 39.4797C57.1057 39.5168 56.9386 39.4083 56.896 39.2394C56.8951 39.236 56.8943 39.2327 56.8934 39.2294C56.7271 38.5619 56.49 37.9222 56.337 37.5085C56.2985 37.4032 56.2657 37.312 56.2416 37.243C56.2225 37.1879 56.1985 37.119 56.19 37.0782C56.1889 37.0728 56.1869 37.0624 56.1854 37.0496C56.1854 37.0494 56.1854 37.0492 56.1854 37.049C56.1845 37.0418 56.1798 37.0054 56.1861 36.9608C56.1874 36.9518 56.1904 36.932 56.1985 36.9067C56.1976 36.9017 56.1966 36.8967 56.1957 36.8916C56.1828 36.8214 56.169 36.7499 56.1511 36.6733C56.0772 36.3767 55.9545 35.9029 55.4572 35.0242C54.9988 34.224 54.0099 32.9488 52.3913 31.8108C52.493 31.8982 52.5936 31.9866 52.6928 32.0759C52.9423 32.3003 53.1864 32.5327 53.4212 32.7719C53.5113 32.8636 53.5987 32.9551 53.6864 33.0491C53.8276 33.2005 53.9662 33.3556 54.1004 33.5128C54.1909 33.6189 54.2806 33.727 54.3678 33.8358C54.368 33.8361 54.3682 33.8363 54.3685 33.8365C54.4896 33.9877 54.6073 34.1416 54.7221 34.2995C54.7621 34.3549 54.8011 34.4098 54.8395 34.4646C54.992 34.6823 55.1365 34.9007 55.2797 35.1647C55.2958 35.1979 55.312 35.2346 55.3234 35.2625C55.3357 35.2924 55.3472 35.3214 55.3575 35.3491C55.3665 35.3736 55.3748 35.3972 55.3827 35.4196C55.3838 35.4227 55.3849 35.4257 55.386 35.4287C55.3949 35.4539 55.4035 35.4778 55.4117 35.5008C55.42 35.5237 55.4279 35.5458 55.4361 35.5672C55.4362 35.5674 55.4363 35.5676 55.4365 35.5677C55.4452 35.5901 55.4517 35.607 55.4617 35.6301C55.4742 35.6591 55.4852 35.6837 55.4993 35.7132C55.5128 35.7416 55.5274 35.771 55.5424 35.8005C55.5574 35.83 55.5729 35.8598 55.5888 35.8899C55.6047 35.9201 55.6209 35.9507 55.6374 35.9815C55.6538 36.0122 55.6705 36.0433 55.6872 36.0746C55.7039 36.1059 55.7207 36.1376 55.7375 36.1694C55.7761 36.2429 55.7857 36.3291 55.7629 36.4084C55.7402 36.4877 55.6875 36.5533 55.6169 36.5922C55.5463 36.631 55.463 36.6405 55.3848 36.6202C55.3066 36.5998 55.2399 36.5513 55.1973 36.4852C55.1858 36.4672 55.174 36.4491 55.1623 36.431C55.1553 36.4203 55.1484 36.4093 55.1413 36.3985C55.1224 36.3695 55.1031 36.3403 55.0839 36.3108C55.0647 36.2813 55.0455 36.2514 55.026 36.2212C55.0066 36.1909 54.9869 36.1602 54.9673 36.1287C54.9478 36.0974 54.9281 36.0652 54.9086 36.0321C54.8895 35.9998 54.8685 35.9626 54.8503 35.9287C54.837 35.904 54.8215 35.873 54.8086 35.8469C54.7953 35.8197 54.7825 35.7926 54.7703 35.7664C54.7582 35.74 54.7467 35.7143 54.7356 35.6899C54.7343 35.6873 54.7331 35.6847 54.7319 35.6821C54.7221 35.6604 54.7125 35.6395 54.7032 35.6199C54.6929 35.598 54.6826 35.5775 54.6726 35.5583C54.6616 35.5371 54.6542 35.5247 54.6451 35.5095C54.5162 35.3151 54.3374 35.0874 54.1592 34.8776C54.1368 34.8512 54.1145 34.825 54.0923 34.7991C53.9737 34.6621 53.8523 34.5285 53.7279 34.3975C53.6374 34.3024 53.5451 34.2083 53.4517 34.1159C53.3141 33.9799 53.1724 33.8457 53.0288 33.7155C52.9395 33.6345 52.8507 33.556 52.7594 33.4773C52.5214 33.2722 52.2748 33.0735 52.0233 32.8825C51.7713 32.691 51.513 32.5061 51.2485 32.3259C50.9863 32.147 50.7078 31.9662 50.4368 31.7938C50.2369 31.6662 50.0356 31.5297 49.8451 31.4039C49.7427 31.3362 49.6423 31.2709 49.5421 31.2074C49.5418 31.2072 49.5414 31.2069 49.5411 31.2067C49.4532 31.151 49.3654 31.0968 49.2771 31.0445C49.0878 30.9322 48.8988 30.8295 48.7036 30.7349C48.5091 30.6404 48.3126 30.5554 48.1092 30.4785C47.9078 30.4024 47.7009 30.3343 47.4915 30.2754C47.2816 30.2164 47.0746 30.1672 46.8531 30.1235C46.5636 30.0668 46.2719 30.0242 45.9731 29.9912C45.6764 29.9586 45.3745 29.9369 45.0734 29.925C44.9679 29.9208 44.8614 29.9176 44.7555 29.9158C44.7551 29.9158 44.7547 29.9158 44.7543 29.9158C44.5595 29.9126 44.3632 29.9134 44.1659 29.918C44.1455 29.9184 44.1251 29.919 44.1047 29.9195C43.8195 29.9273 43.5396 29.943 43.255 29.966C42.9511 29.9907 42.6477 30.0237 42.3429 30.0639C42.0402 30.1036 41.7259 30.1525 41.4143 30.2029C41.1338 30.2487 40.8554 30.3 40.581 30.3593C40.5088 30.3749 40.4368 30.391 40.3651 30.4077C40.0245 30.4872 39.6975 30.5796 39.3806 30.6912C39.0645 30.8023 38.755 30.9334 38.4529 31.0829C38.1506 31.2324 37.8549 31.4002 37.5652 31.5843C37.2756 31.7686 36.9981 31.9653 36.7267 32.177C36.457 32.3875 36.1968 32.6105 35.9453 32.8463C35.8055 32.9772 35.658 33.1179 35.5218 33.2519C35.3841 33.3872 35.249 33.5238 35.119 33.6602C35.0663 33.7156 35.0142 33.771 34.9629 33.8266C34.8882 33.9077 34.8154 33.9888 34.7451 34.0698C34.6268 34.2062 34.5148 34.3431 34.4115 34.4793C34.3082 34.6155 34.2132 34.7517 34.128 34.8875C34.0399 35.0281 33.9734 35.1477 33.901 35.2953C33.7129 35.6443 33.5932 35.8528 33.4641 36.0871C33.4389 36.1333 33.4135 36.1807 33.3876 36.2304C33.2366 36.5124 33.0932 36.7958 32.96 37.0783C32.8256 37.3633 32.7015 37.6469 32.5848 37.9364C32.469 38.2237 32.3614 38.5151 32.2632 38.8091C32.1655 39.102 32.0768 39.3977 31.9972 39.6971C31.9177 39.996 31.8461 40.3055 31.787 40.6033C31.7526 40.7757 31.718 40.9613 31.6892 41.1326C31.6683 41.2567 31.6492 41.3798 31.6324 41.5014C31.6256 41.5513 31.6191 41.5998 31.6131 41.6486C31.5931 41.8103 31.5778 41.9691 31.5685 42.124C31.5681 42.1299 31.5678 42.1358 31.5674 42.1417C31.5582 42.302 31.5552 42.4568 31.5594 42.6074C31.5635 42.7573 31.575 42.9072 31.5937 43.0537C31.6134 43.2058 31.6352 43.3309 31.6714 43.4906C31.6952 43.5943 31.7203 43.6952 31.7467 43.7949C31.7862 43.9442 31.8292 44.0927 31.8759 44.2395C31.9226 44.386 31.9724 44.5299 32.026 44.6727C32.0432 44.7186 32.0617 44.7668 32.0798 44.8124C32.1354 44.953 32.1944 45.0914 32.2569 45.2269C32.3193 45.3623 32.3847 45.4942 32.4539 45.6238C32.5233 45.7539 32.5952 45.8792 32.6723 46.0048C32.8036 46.2184 32.9166 46.4246 33.0169 46.6051C33.118 46.7876 33.213 46.9572 33.3094 47.1203C33.3275 47.1508 33.3457 47.1813 33.3641 47.2116C33.443 47.3424 33.5232 47.4695 33.6057 47.5925C33.7074 47.7441 33.8123 47.8895 33.9223 48.0317C34.0314 48.1727 34.1465 48.3114 34.2648 48.4435C34.3843 48.5768 34.503 48.7005 34.6355 48.8286C34.7666 48.9554 34.9069 49.0775 35.0635 49.2064C35.2188 49.3342 35.3844 49.4641 35.5526 49.5932C35.7209 49.7223 35.892 49.8507 36.0627 49.9771C36.234 50.1039 36.4054 50.2284 36.5765 50.3504C36.748 50.4727 36.9194 50.5925 37.0919 50.7098C37.2633 50.8263 37.4432 50.9451 37.6123 51.0536C37.8864 51.2296 38.1659 51.3955 38.4533 51.5514C38.7379 51.7059 39.0311 51.8508 39.3286 51.9838C39.6261 52.1167 39.93 52.2384 40.2369 52.3478C40.5454 52.4577 40.8571 52.5553 41.1743 52.641C41.244 52.6598 41.314 52.6781 41.3843 52.6958C41.6325 52.7582 41.8817 52.8129 42.133 52.8598C42.1347 52.8602 42.1365 52.8605 42.1382 52.8609C42.461 52.9209 42.7826 52.9677 43.1065 53.0009C43.2258 53.013 43.3411 53.0231 43.4588 53.0312C43.576 53.0393 43.6906 53.0453 43.8072 53.0493C43.9067 53.0528 44.0061 53.0546 44.1047 53.0548C44.1217 53.0548 44.1386 53.0548 44.1556 53.0548C44.2717 53.0543 44.3845 53.0516 44.4978 53.0462C44.6019 53.0413 44.7036 53.0339 44.817 53.0244C44.8273 53.0235 44.8376 53.0226 44.8479 53.0217C44.9713 53.0111 45.1109 52.9987 45.2403 52.9889C45.5851 52.9634 45.9176 52.9228 46.2555 52.8653C46.5912 52.808 46.9256 52.7344 47.2571 52.6457C47.3868 52.611 47.516 52.5739 47.6443 52.535C47.8452 52.474 48.0443 52.408 48.2421 52.3374C48.5687 52.2207 48.8904 52.0923 49.2092 51.9526C49.5275 51.8132 49.8424 51.663 50.1515 51.5034C50.4602 51.344 50.7663 51.1733 51.0636 50.9944C51.3943 50.7957 51.7155 50.5834 52.0279 50.3552C52.3396 50.1276 52.6414 49.8848 52.9299 49.6289C53.2195 49.3721 53.4963 49.1015 53.7595 48.8176C54.0229 48.5334 54.2723 48.236 54.5065 47.9259C54.6467 47.7403 54.7814 47.5504 54.9102 47.3562C54.958 47.2419 55.0016 47.1317 55.0419 47.0254C55.3346 46.2382 55.4823 45.6588 55.6489 44.9012C55.6617 44.8275 55.6669 44.7669 55.6726 44.6929C55.6737 44.6788 55.675 44.6638 55.6762 44.6486C55.6834 44.5519 55.6924 44.4415 55.714 44.2905C55.7563 43.9893 55.848 43.542 56.0422 42.9495C56.0911 42.7999 56.2623 42.7092 56.429 42.7529C56.5458 42.7838 56.6285 42.8755 56.6494 42.9832C56.6847 42.7899 56.7156 42.5968 56.7414 42.4024C56.7517 42.3247 56.7915 42.252 56.8536 42.1997C56.9157 42.1474 56.9949 42.1199 57.0754 42.1245C57.1558 42.1292 57.2314 42.1661 57.2858 42.2282C57.3402 42.2902 57.3686 42.3721 57.3649 42.4547C57.3552 42.6731 57.3393 42.8913 57.3183 43.1087C57.2974 43.3254 57.2714 43.5419 57.24 43.7573C57.2087 43.9721 57.172 44.1877 57.1299 44.4017C57.088 44.6143 57.0401 44.8283 56.9869 45.0397C56.9335 45.2521 56.8753 45.4614 56.8108 45.6706C56.7722 45.7959 56.7306 45.9229 56.6882 46.0465C56.6723 46.0925 56.6567 46.1375 56.6407 46.1822C56.6277 46.2189 56.6143 46.2555 56.6003 46.2933C56.4541 46.6908 56.2852 47.0847 56.0976 47.4659C55.909 47.849 55.7003 48.2224 55.4725 48.5849C55.2447 48.9474 54.9981 49.2988 54.7338 49.6375C54.4696 49.976 54.188 50.3018 53.8901 50.6139C53.5934 50.9251 53.2793 51.2234 52.9525 51.5057C52.6993 51.7244 52.4409 51.9319 52.1736 52.1315C52.0758 52.22 51.9773 52.3056 51.8782 52.3888C51.5894 52.631 51.2964 52.8732 50.9963 53.1014C51.5648 52.7565 51.9864 52.4274 52.3705 52.0997C52.422 52.0557 52.4727 52.0115 52.5229 51.9673C53.0345 51.5132 53.5041 51.0577 54.1195 50.4322C55.8511 48.6204 56.414 47.2301 56.7939 46.4197C57.153 45.5882 57.2927 45.2211 57.4973 44.8911C57.7899 44.4264 58.035 43.4157 58.0602 42.898C58.0733 42.7104 58.219 42.5654 58.3918 42.5713C58.5643 42.5779 58.6985 42.7418 58.6847 42.9404C58.6576 43.514 58.3869 44.667 58.0205 45.2445C57.8582 45.5007 57.7367 45.8133 57.3654 46.6744C56.9712 47.5133 56.3863 48.9652 54.5679 50.869C53.9459 51.5011 53.4732 51.9605 52.9441 52.4308C52.8921 52.4767 52.8395 52.5227 52.7859 52.5686C52.7855 52.5689 52.7852 52.5691 52.7848 52.5694C52.2902 52.9907 51.7235 53.4311 50.8779 53.8899C48.9494 55.0173 45.9568 55.6134 45.2437 55.6774C45.1043 55.6997 44.9683 55.7215 44.8249 55.7423C44.6169 55.7726 44.3906 55.8019 44.1047 55.8243C43.6397 55.8583 43.0246 55.885 42.0857 55.794C41.756 55.7611 41.3687 55.7057 40.9512 55.6225C40.3097 55.5774 39.6831 55.4854 39.1495 55.3572C38.689 55.2468 38.2556 55.1591 37.8306 55.0644C37.7084 55.0372 37.5861 55.0095 37.4625 54.9795C37.1652 54.9074 36.8704 54.8268 36.5876 54.7279C36.3626 54.6494 36.1265 54.5673 35.8767 54.4724C34.9747 54.1277 33.8749 53.6256 32.762 52.5594C31.5896 51.4281 30.791 50.2571 30.2223 49.1975C30.6288 49.9842 30.9918 50.5682 31.3095 51.0454C31.3697 51.1354 31.4282 51.221 31.4853 51.3029C31.8903 51.8806 32.2175 52.2817 32.6116 52.6645C34.5389 54.452 35.5018 54.8182 36.5205 55.2109C36.7942 55.3069 37.1016 55.3965 37.4341 55.481C38.0987 55.6501 38.8588 55.7954 39.6609 55.9449C40.4084 56.0849 41.2541 56.1595 42.1408 56.1571C42.1411 56.1571 42.1415 56.1572 42.1418 56.1572C42.3146 56.1568 42.4912 56.1537 42.6663 56.1475C43.1407 56.131 43.6221 56.0939 44.1047 56.0392C44.7112 55.9704 45.3099 55.8737 45.8957 55.7593C46.0081 55.7374 46.1419 55.7083 46.2943 55.6723C47.1799 55.4633 48.6931 55.0274 50.4729 54.3077C50.8648 54.1493 51.2763 53.9891 51.7377 53.78C51.8785 53.716 52.0238 53.6476 52.1738 53.5728C52.8201 53.2478 53.5947 52.8037 54.4955 52.0337C55.2374 51.399 56.0572 50.5156 56.757 49.4849C57.1026 48.9782 57.4207 48.4379 57.6986 47.8862C58.5366 46.2185 58.9991 44.525 59.1431 42.8024C59.1431 42.802 59.1431 42.8017 59.1431 42.8013C59.1599 42.5995 59.3083 42.4426 59.4809 42.4533C59.6532 42.4641 59.7843 42.647 59.7666 42.8595C59.6151 44.6633 59.1301 46.4319 58.2561 48.1705C57.9697 48.7388 57.6402 49.2997 57.2808 49.8275C56.5471 50.9108 55.6796 51.8455 54.898 52.5132C53.9422 53.3294 53.1196 53.7996 52.4367 54.1419C52.2719 54.2238 52.1151 54.2974 51.9653 54.365C51.4899 54.579 51.0872 54.7344 50.6996 54.891C48.903 55.6155 47.3891 56.0561 46.465 56.2761C46.3014 56.3149 46.158 56.3463 46.0343 56.3706C45.4049 56.4942 44.7605 56.5981 44.1047 56.6705C43.6421 56.7215 43.1808 56.7569 42.7208 56.7737C42.5414 56.7805 42.3602 56.784 42.181 56.7849C42.1807 56.7849 42.1803 56.785 42.1799 56.785C41.2599 56.79 40.3662 56.7138 39.5744 56.5667C38.7718 56.4177 38.0609 56.285 37.3935 56.1216C37.0373 56.0343 36.6922 55.9364 36.3606 55.8215C35.2365 55.3946 34.1892 54.9818 32.1794 53.1168ZM56.5918 43.2793C56.4714 43.6688 56.4004 43.9802 56.359 44.2175C56.416 44.021 56.4683 43.8224 56.5156 43.6229C56.5425 43.5091 56.5679 43.3942 56.5918 43.2793ZM41.0221 54.9986C41.0966 55.0038 41.1718 55.0084 41.2472 55.0125C41.0434 54.9781 40.8409 54.9391 40.6404 54.8962C40.3929 54.8433 40.1466 54.7836 39.9034 54.718C40.2873 54.8325 40.6671 54.9265 41.0221 54.9986ZM33.1946 52.107C34.2019 53.0709 35.1701 53.5209 36.0301 53.8561C36.2791 53.9522 36.5224 54.0386 36.7606 54.1224C36.8595 54.1571 36.9595 54.1893 37.061 54.2198C36.5264 53.934 36.0561 53.6375 35.6809 53.379C34.5666 52.6011 34.0385 52.0246 33.5875 51.5246C33.4581 51.3782 33.3369 51.2353 33.2149 51.088C33.0916 50.9872 32.9661 50.8797 32.8429 50.7663C32.6701 50.6078 32.49 50.4295 32.3247 50.2529C32.1586 50.0757 31.9965 49.8895 31.844 49.7002C31.6902 49.5094 31.5449 49.3147 31.4066 49.1158C31.2765 48.9287 31.1529 48.7379 31.0376 48.5502C31.031 48.5395 31.0245 48.5287 31.0179 48.5179C30.8965 48.3192 30.7838 48.1224 30.6804 47.941C30.5751 47.7564 30.4872 47.602 30.4024 47.4678C30.2965 47.3001 30.193 47.124 30.0961 46.9464C29.9992 46.769 29.9079 46.5888 29.8221 46.4059C29.7362 46.2228 29.6565 46.0393 29.5814 45.8521C29.5572 45.7916 29.5324 45.7279 29.5094 45.6674C29.4988 45.6396 29.4883 45.6118 29.478 45.584C29.5773 45.9645 29.6959 46.3547 29.8365 46.7528C30.0395 47.3269 30.2824 47.9325 30.6047 48.5755C31.1553 49.6681 31.9367 50.89 33.1946 52.107ZM29.1938 39.6701C29.1642 39.8396 29.1261 40.0874 29.0912 40.4095C29.0829 40.4857 29.0751 40.5663 29.0674 40.6508C29.0678 40.6489 29.068 40.6468 29.0684 40.6448C29.1074 40.4375 29.1467 40.2477 29.1915 40.0446C29.2717 39.6806 29.3611 39.3332 29.4629 38.9835C29.5647 38.6341 29.6778 38.2886 29.8015 37.9489C29.9258 37.6074 30.0609 37.2708 30.2055 36.941C30.3511 36.6086 30.5054 36.2854 30.6699 35.9643C30.7224 35.8619 30.7759 35.7597 30.8304 35.6581C30.6921 35.8758 30.5572 36.1077 30.4226 36.3575C30.3151 36.5571 30.2079 36.7679 30.0997 36.9928C30.0584 37.0788 30.0075 37.1831 29.9503 37.3054C29.7255 37.7891 29.3873 38.5736 29.1938 39.6701ZM32.34 33.1898C32.392 33.1229 32.4447 33.057 32.4976 32.993C32.6482 32.8105 32.8026 32.6382 32.9581 32.4738C33.0672 32.3585 33.1776 32.2467 33.288 32.138C33.3346 32.0921 33.3815 32.0464 33.4281 32.0017C33.5061 31.9268 33.5842 31.853 33.6625 31.7806C33.0922 32.2655 32.5702 32.7851 32.0792 33.3737C32.0727 33.3815 32.0664 33.3894 32.0599 33.3972C32.1547 33.3251 32.2481 33.256 32.34 33.1898Z" fill="#FFD170"/>
</svg>
