<svg width="120" height="36" viewBox="0 0 120 36" fill="none" xmlns="http://www.w3.org/2000/svg">
<path d="M109.377 17.364H105.221C102.537 17.364 101.066 19.3501 101.066 22.7915V35.1213H93.033V17.364H89.6727C86.9885 17.364 85.5172 19.3501 85.5172 22.7915V35.1213H77.4844V10.737H85.5172V14.4536C86.8493 11.5432 88.5991 10.737 91.2833 10.737H101.066V14.4536C102.398 11.5432 104.148 10.737 106.832 10.737H109.516L109.377 17.364ZM75.5955 24.7973H58.9733C59.3709 27.5897 61.1206 29.0449 63.9241 29.0449C66.0715 29.0449 67.5429 28.1206 68.0797 26.6655L75.178 28.6516C73.4283 32.8992 69.1534 35.4163 63.9241 35.4163C55.2153 35.4163 51.199 28.6516 51.199 22.8308C51.199 17.128 54.6785 10.3633 63.3873 10.3633C72.6329 10.3633 75.7148 17.2657 75.7148 22.4179C75.7347 23.5977 75.7347 24.2663 75.5955 24.7973ZM67.9604 20.1564C67.8212 18.0326 66.2107 16.1841 63.5464 16.1841C61.0013 16.1841 59.53 17.246 58.9931 20.1564H67.9604ZM37.2609 35.1213H44.2399L53.0879 10.855H45.0352L40.7405 25.0333L36.4457 10.7173H28.4129L37.2609 35.1213ZM4.55323 35.1213H12.4667V17.364H20.1018V35.1213H28.0153V10.737H12.4667V9.28178C12.4667 7.68893 13.6796 6.62704 15.4094 6.62704H20.1018V0H14.2164C8.45031 0 4.57311 3.57899 4.57311 8.75083V10.737H0V17.364H4.55323V35.1213Z" fill="#EA3624"/>
<path d="M114.348 35.7895C117.032 35.7895 119.298 33.5281 119.298 30.893C119.298 28.2383 117.012 25.9965 114.348 25.9965C111.683 25.9965 109.397 28.2579 109.397 30.893C109.377 33.5477 111.663 35.7895 114.348 35.7895Z" fill="#EA3624"/>
</svg>
