<svg width="120" height="37" viewBox="0 0 120 37" fill="none" xmlns="http://www.w3.org/2000/svg">
<path d="M109.414 17.9055H105.258C102.574 17.9055 101.103 19.8917 101.103 23.333V35.6628H93.0701V17.9055H89.7099C87.0256 17.9055 85.5543 19.8917 85.5543 23.333V35.6628H77.5215V11.2785H85.5543V14.9951C86.8865 12.0847 88.6362 11.2785 91.3204 11.2785H101.103V14.9951C102.435 12.0847 104.185 11.2785 106.869 11.2785H109.553L109.414 17.9055ZM75.6326 25.3388H59.0104C59.408 28.1312 61.1577 29.5864 63.9613 29.5864C66.1086 29.5864 67.58 28.6621 68.1168 27.207L75.2151 29.1931C73.4654 33.4407 69.1905 35.9578 63.9613 35.9578C55.2525 35.9578 51.2361 29.1931 51.2361 23.3723C51.2361 17.6695 54.7156 10.9048 63.4244 10.9048C72.67 10.9048 75.7519 17.8072 75.7519 22.9594C75.7718 24.1392 75.7718 24.8078 75.6326 25.3388ZM67.9975 20.6979C67.8583 18.5741 66.2478 16.7256 63.5835 16.7256C61.0384 16.7256 59.5671 17.7875 59.0303 20.6979H67.9975ZM37.298 35.6628H44.277L53.125 11.3965H45.0723L40.7776 25.5748L36.4828 11.2588H28.45L37.298 35.6628ZM4.59034 35.6628H12.5038V17.9055H20.1389V35.6628H28.0524V11.2785H12.5038V9.82329C12.5038 8.23044 13.7167 7.16854 15.4465 7.16854H20.1389V0.541504H14.2535C8.48742 0.541504 4.61022 4.12049 4.61022 9.29233V11.2785H0.0371094V17.9055H4.59034V35.6628Z" fill="#FFF191"/>
<path d="M114.385 36.331C117.069 36.331 119.336 34.0696 119.336 31.4345C119.336 28.7798 117.049 26.538 114.385 26.538C111.72 26.538 109.434 28.7994 109.434 31.4345C109.414 34.0892 111.7 36.331 114.385 36.331Z" fill="#FFF191"/>
</svg>
