<svg width="185" height="184" viewBox="0 0 185 184" fill="none" xmlns="http://www.w3.org/2000/svg">
<path d="M92.1988 1.66118C85.1776 1.82747 78.2096 2.70722 71.2002 4.35275C69.6072 4.7339 69.7276 4.58476 69.0677 4.73964C67.8531 5.02395 65.9011 5.75996 65.6261 5.85176C63.8999 6.40884 64.5076 5.99074 64.2724 6.05762C61.6632 6.86059 62.4893 6.82528 60.065 7.77639C56.9237 9.03055 52.9453 10.8061 49.3771 12.7868C48.128 13.491 48.5838 13.0038 45.938 14.6172C44.0331 15.7255 38.6192 19.7195 36.1334 21.5789C36.0713 21.5318 36.3228 21.2195 36.4026 21.0553C33.1727 24.1411 31.9271 25.1244 27.4853 29.6031C26.7928 30.3216 26.242 31.0993 25.0511 32.3884C23.8759 33.6898 23.6403 33.5953 21.4557 36.3786C20.692 37.3743 20.3386 38.0661 19.2306 39.6322C15.9601 44.0188 10.8405 53.1376 9.22451 57.3449C5.89183 65.5492 4.88121 70.3085 3.40116 78.0043C3.29521 78.6007 3.36259 77.2623 3.17677 78.358C2.99013 79.4674 3.03185 80.6471 3.0003 80.9184C2.59253 83.8542 1.9128 90.1054 1.95814 91.759C1.95924 93.3768 2.00387 93.7073 2.03315 93.8818C2.09013 94.1391 2.08587 94.0736 2.20844 97.3875C2.38908 102.67 3.07722 109.981 4.24805 115.116C5.61388 121.065 6.63504 122.801 7.82032 127.247C13.5117 142.345 23.2414 155.968 35.7444 166.182C35.6579 166.215 35.5655 166.243 35.4718 166.27C36.4947 167.041 37.5331 167.789 38.5853 168.515C38.3953 168.446 38.2132 168.383 38.0237 168.313C42.9528 171.757 47.5179 174.549 53.7801 177.677C53.9031 177.738 53.5087 177.725 53.6092 177.779C55.0172 178.496 56.6835 179.108 57.9484 179.669C59.7042 180.46 62.1867 181.528 63.5825 182.022L63.5061 182.001C64.5254 182.206 64.8962 182.163 63.9496 181.873C66.4294 182.48 68.8754 180.818 68.7733 178.126C68.7107 172.614 68.5736 166.916 68.6243 161.996C68.6283 161.55 68.6369 161.148 68.6488 160.78L69.5946 161.541C67.2529 161.966 66.3095 161.899 64.9904 162.067C63.4007 162.244 64.234 162.361 63.6755 162.43C60.3532 162.944 54.7227 162.407 54.2004 161.959C53.5276 161.939 52.7782 161.877 52.089 161.798C52.3195 161.703 49.8299 161.126 47.2363 159.746C44.5965 158.42 42.1106 156.097 41.2528 155.021C40.9168 154.622 40.9758 154.502 40.7381 154.2C39.3281 152.343 38.6748 151.143 38.124 149.826L38.1355 149.859C37.7041 148.869 37.2579 147.901 36.5478 146.506C35.9703 145.438 37.07 146.991 35.4753 144.3C35.2985 144.098 35.3628 144.194 33.167 141.241C32.0459 139.823 30.3152 137.939 28.24 136.814L28.1071 136.738C26.742 135.68 25.1298 134.959 24.2278 132.607C24.0172 131.944 24.3524 130.95 24.8828 130.545C25.392 130.102 25.9035 129.916 26.3875 129.763C27.3642 129.478 28.267 129.39 29.2188 129.371L29.2793 129.373C32.1871 129.558 34.8198 130.633 36.7515 131.877C37.261 132.227 35.6065 131.335 37.953 132.892C38.7605 133.511 38.5265 133.024 40.3353 134.723C41.7466 136.126 42.9853 137.663 44.0203 139.475L44.0096 139.456C47.3309 145.961 54.6575 150.453 61.9234 149.105C61.62 149.292 58.3873 149.883 63.2499 149.147C64.0166 148.983 63.4124 148.951 63.7559 148.876C65.8107 148.409 67.6611 147.83 69.5677 146.95L69.1494 147.526C69.2458 146.768 69.368 145.987 69.5257 145.167C69.7165 144.224 69.6543 143.961 69.9762 142.791C70.4962 141.075 70.923 140.385 71.8559 138.518C72.9904 136.44 73.537 135.626 74.9699 134.35L75.5207 136.045C74.8416 135.947 74.027 135.806 72.9653 135.58C62.0857 134.193 50.625 130.531 43.191 121.828C35.7077 113.214 33.4121 101.505 33.283 90.581C33.2653 90.0324 33.2527 89.4807 33.2452 88.9254C33.1784 83.0991 34.18 77.4783 36.8538 71.8618C37.7528 70.0746 38.065 69.8064 39.7572 67.1213C40.0138 66.6994 41.4717 64.5062 42.7345 63.2276L42.5663 64.1753C42.3078 63.4204 42.19 62.8001 42.2452 62.5494C41.8005 61.1991 41.6071 60.3294 41.3634 59.1326C41.4639 60.0474 41.6149 61.0012 41.7923 61.8758C40.5347 56.8602 40.3383 52.5964 40.8525 48.0632C41.3298 44.7436 41.1124 47.118 41.4879 45.1037C41.9255 43.1008 42.1235 42.1704 43.168 39.8302C43.2546 39.4428 43.3548 39.0819 43.4709 38.7255L43.6288 38.3154L44.0517 38.1782C45.827 37.701 47.2715 37.8332 50.2402 38.3943C50.6343 38.4593 52.9387 38.9103 54.7311 39.5987C56.0255 40.0932 56.3597 40.3714 58.3601 41.2454C58.6931 41.3476 62.9011 43.2769 64.1518 44.044C66.1446 45.1563 69.0478 47.338 69.3973 47.593C69.573 47.7149 69.7462 47.8357 69.917 47.9552L69.1974 47.8321C74.9334 46.3326 77.3513 45.7836 81.7358 45.5124C82.6173 45.1983 86.3853 44.6876 89.4531 44.6246C90.251 44.6029 91.2149 44.6031 92.2503 44.6281C96.2487 44.6915 101.258 45.3632 102.129 45.1502C106.544 45.9145 106.087 45.6848 111.287 46.7658C112.323 46.9973 113.728 47.3408 115.316 47.7931L114.56 47.9216C119.351 44.4954 126.93 40.6641 129.906 39.7437C133.658 38.4862 131.771 38.8777 133.291 38.4276C135.844 37.8275 134.476 38.27 136.269 38.0095C137.65 37.8731 138.915 37.771 140.463 38.1413L140.899 38.2802L141.068 38.7115C142.323 41.9148 143.197 45.0818 143.688 48.5466C143.601 48.8143 143.513 49.1027 143.421 49.3798C143.486 49.6219 143.548 49.8544 143.608 50.1003C143.693 51.1175 143.74 52.2721 143.732 53.2194C143.882 45.7822 144.555 58.7252 141.807 64.1257L141.657 63.3104C141.997 63.6964 142.294 64.0463 142.542 64.3418C145.192 67.2977 148.708 73.0565 149.89 77.3283C150.2 78.3508 149.871 77.6806 149.935 77.8904C150.613 80.3628 150.831 80.7293 151.256 84.1597C151.424 85.7427 151.383 87.367 151.348 88.9254C151.344 89.158 151.34 89.3884 151.337 89.6162C151.233 102.262 148.561 115.769 138.668 124.744C137.024 126.239 135.362 127.213 133.806 128.206C131.566 129.607 130.142 130.507 127.864 131.5C125.592 132.5 122.144 133.377 120.542 133.809C118.937 134.248 121.749 133.743 118.774 134.419C117.404 134.709 119.781 134.021 118.096 134.401C115.416 134.998 112.146 135.578 108.829 135.972L109.325 134.397C111.908 136.65 113.51 139.771 114.32 142.517C114.279 142.258 114.198 141.91 114.123 141.597C115.451 145.231 115.82 148.804 115.798 152.418C115.776 154.656 115.753 156.931 115.738 159.34C115.724 161.516 115.822 165.453 115.804 167.593C115.786 169.735 115.644 170.702 115.625 172.422C115.617 173.123 115.738 172.858 115.732 173.322C115.706 175.12 115.663 176.677 115.63 178.124C115.512 180.669 117.562 182.709 120.83 181.928L120.744 181.952C121.211 181.794 121.693 181.624 122.193 181.442C143.403 173.81 161.862 157.302 172.121 136.912C172.536 136.092 172.674 135.476 173.229 134.259C174.074 132.378 174.222 132.339 174.342 132.09C175.086 130.456 174.694 131.079 175.601 128.852C177.645 123.957 180.101 115.723 180.932 110.489C181.94 104.698 182.333 99.2618 182.298 93.8818C182.267 88.0905 181.745 82.3586 180.59 76.285C180.424 75.4415 180.722 75.9847 180.428 74.5141C178.019 64.2764 177.37 62.0512 171.693 50.2684C166.299 38.2408 149.244 19.3958 135.318 12.4952C135.319 12.4948 135.319 12.4945 135.319 12.4941C130.946 10.4156 125.31 7.78738 120.46 5.91208C149.141 14.7526 171.716 38.5788 179.896 69.6648C181.933 77.4558 183.014 85.6097 183.044 93.8807C183.483 120.336 171.692 147.572 151.754 164.807C149.307 166.932 148.166 167.589 146.024 169.269C145.659 169.55 146.705 168.956 145.577 169.815C138.318 175.314 129.904 179.768 121.017 182.75L120.999 182.754C119.524 183.054 117.853 183.024 116.565 182.12C115.276 181.228 114.666 179.63 114.677 178.124C114.763 170.495 114.878 162.927 114.851 155.61C114.847 154.311 114.832 153.297 114.812 152.418C114.71 149.823 114.583 148.512 113.879 145.233C114.127 145.988 114.298 146.478 114.482 147.155C113.861 142.691 112.189 138.134 108.761 135.036L108.732 135.126C124.5 133.936 142.03 126.309 147.267 110.037C147.591 109.153 147.793 109.064 148.099 108.136C148.716 106.232 148.996 104.312 149.32 102.637C149.738 100.374 149.909 100.056 150.164 97.9536C150.269 96.9509 150.135 97.2433 150.336 95.0219C150.349 94.8374 150.499 94.7419 150.563 93.259C150.612 92.0506 150.639 90.6213 150.619 88.9254C150.631 84.8356 149.686 80.017 148.943 77.7546C147.714 73.668 146.171 70.5689 145.336 69.179C143.267 65.8963 142.827 65.7446 141.107 63.8089L141.116 63.8558C141.234 63.5395 141.357 63.1909 141.489 62.7892C143.972 54.9681 143.132 46.494 140.251 39.0286L140.235 38.9886L140.195 38.9757C130.834 38.0885 122.536 43.5307 114.958 48.4936L115.13 48.4643C107.786 46.4065 100.094 45.316 92.2514 45.3013C91.091 45.3019 89.9277 45.3262 88.7622 45.3746C87.063 45.3926 80.8477 46.1718 77.778 46.7534C76.7367 46.8797 71.368 47.9863 70.5814 48.2323C70.1773 48.335 69.7804 48.4369 69.3916 48.5381L69.4992 48.5565C67.2119 46.9174 65.2317 45.5616 63.8415 44.7178C60.7882 42.8295 57.0776 41.3421 55.2396 40.6905C52.0921 39.3403 46.026 38.3262 44.5722 38.8828C44.4888 38.8992 44.3788 38.9235 44.2989 38.9474L44.2445 38.965L44.2241 39.0179C43.1219 41.9471 43.2277 40.9151 42.6051 43.2611C42.4484 43.9724 42.7789 43.2796 42.2311 45.7962C41.8167 47.9215 41.5794 48.7762 41.4199 50.2548C41.2455 51.7397 41.499 54.4633 41.5772 55.3729C41.8343 58.9592 42.1916 61.0588 43.1893 63.9321L43.2358 63.6704C42.5447 64.4292 41.8118 65.2955 41.0186 66.368C38.1642 68.9325 33.0108 83.0789 33.8979 88.9254C33.9093 90.0642 33.9396 90.8245 33.955 91.0963C34.3279 96.0261 34.0983 92.2773 34.0863 88.9254C34.0751 87.2222 34.1956 85.6424 34.2195 85.4063C34.6878 81.6459 34.6781 82.2112 35.4033 78.4981C36.3505 75.664 40.1848 66.7635 43.5447 63.9433L43.608 63.872L43.5733 63.7823C43.4184 63.2749 43.3258 62.8234 43.2934 62.4754C41.9615 59.6444 41.7788 56.9268 41.7976 53.6686C42.0035 49.1583 41.6158 52.5851 41.8663 49.2847C41.9621 47.9709 42.8504 44.2975 43.4275 42.4309C43.8083 41.0999 43.995 40.3165 44.4119 39.0908L44.3606 39.1391C44.8493 38.9854 45.4736 38.9056 46.2505 38.8953C50.9688 38.9985 54.5407 40.5596 58.0465 42.3191C58.7131 42.5384 59.3781 42.7719 60.0375 43.0163C62.4416 44.3378 64.725 45.7966 66.956 47.3575C66.6263 47.0574 66.3222 46.7766 65.9782 46.4749C66.6573 46.8928 67.3286 47.3193 67.9989 47.7571C68.4475 48.0852 68.8988 48.4203 69.3548 48.7642L69.4022 48.7974L69.4587 48.782C71.4603 48.3168 73.4433 47.9258 75.5533 47.5932C82.7468 45.8955 80.7148 46.6674 84.7849 46.2682C87.8987 46.0411 90.0136 45.856 92.2517 45.7835C92.9488 45.7637 93.6581 45.7586 94.4118 45.7779C98.6808 45.9241 100.647 46.0676 104.913 46.6853C107.388 47.0426 111.488 48.1418 108.147 47.1047C110.3 47.5006 112.662 48.0181 115.072 48.6741L115.077 48.6757L115.082 48.6724C120.332 44.9497 126.452 41.5716 131.315 40.1639C133.294 39.5972 130.708 40.5144 131.05 40.4305C132.719 39.9549 134.095 39.3975 135.881 39.165C136.984 39.0364 138.618 38.8952 140.098 39.2764L139.956 39.1429C140.869 41.6052 141.508 44.3018 141.768 45.7235C142.517 49.0195 142.785 54.3296 142.704 54.8851C142.608 57.934 142.175 58.701 142.019 59.6579C141.673 61.4728 141.278 62.7798 140.903 63.7728L140.862 63.8778L140.938 63.9623C142.386 65.5529 142.896 66.3576 143.351 67.4587C144.438 68.4222 147.59 73.6319 147.695 75.1646C148.013 75.0756 149.596 79.8659 150.005 82.9444C150.008 83.5263 149.999 84.1137 149.976 84.6884C150.19 85.8841 150.34 87.323 150.38 88.9254C150.656 95.8453 149.124 105.637 146.208 111.907C146.118 112.104 146.18 112.523 145.576 113.669C145.536 113.739 145.515 113.587 145.117 114.342C144.191 117.13 136.837 125.006 135.587 125.417C131.94 128.076 131.228 128.47 128.766 129.717C125.449 131.218 124.888 131.245 121.588 132.278C120.033 132.73 118.645 133.286 116.127 133.764C114.635 134.036 114.461 133.916 113.277 134.1C111.613 134.351 110.116 134.55 108.685 134.713L107.874 134.804L108.486 135.347C110.093 136.783 111.265 138.493 112.121 140.568C112.958 141.254 113.313 143.079 113.696 144.88C114.21 147.216 114.466 149.792 114.468 152.418C114.479 158.113 114.525 163.964 114.459 168.435C114.413 171.72 114.346 174.937 114.308 178.124C114.291 179.745 114.95 181.48 116.371 182.457C117.793 183.442 119.566 183.453 121.081 183.155L121.149 183.136C133.861 178.904 145.293 172.133 155.306 162.574C157.653 160.289 158.037 159.562 160.335 157.023C161.356 155.872 162.521 154.775 164.083 152.789C165.339 151.195 166.986 148.798 168.379 146.683C168.748 146.121 168.913 146.158 169.449 145.322C173.491 138.97 176.602 132.25 178.987 125.055C179.868 122.383 180.522 120.765 180.048 121.122C180.437 120.115 180.788 119.134 181.126 118.177C181.855 114.376 182.764 111.332 183.389 106.132C183.469 105.569 183.646 101.622 183.927 99.4035C183.808 99.2381 183.68 99.5787 183.568 99.5069C183.63 97.8572 183.77 95.5758 183.811 93.8818C183.829 93.3049 183.838 92.8005 183.837 92.4202C183.833 90.9278 183.624 89.9432 183.605 89.499C183.523 87.8008 183.753 88.181 183.752 88.0514C183.365 80.1107 183.196 80.9444 182.11 76.2738C181.903 75.1014 180.236 67.1064 179.414 65.6382C179.494 65.5357 179.716 65.945 179.849 66.0399C179.169 63.6783 178.396 61.3391 177.53 59.0298C177.624 59.5532 177.75 60.1752 177.817 60.6561C176.163 55.927 174.167 52.2337 172.245 48.6328C171.129 46.5762 171.452 46.7205 170.722 45.5545C170.577 45.3276 170.678 45.7957 170.261 45.116C166.786 39.623 165.248 37.1988 161.098 32.1679C159.112 29.8416 157.12 28.0478 154.072 24.9036C153.808 24.6083 150.782 21.5159 148.47 20.1492C147.881 19.5348 147.328 19.0313 146.881 18.5737C142.23 15.8202 143.819 16.1676 137.66 12.2547C134.543 10.0805 122.875 4.97514 118.857 4.04439C116.512 3.36447 116.491 3.59832 116.072 3.48456C113.548 2.85608 113.6 2.66904 111.24 2.17323C108.884 1.68994 105.848 1.39756 103.411 1.07891C101.537 0.84408 103.036 0.747608 100.256 0.563899C99.6784 0.537011 101.308 0.867014 98.3801 0.562824C97.9132 0.488128 93.2364 0.0819684 92.2514 0.0669991C94.7503 -0.139779 101.947 0.162635 104.653 0.562074C137.253 0.819632 187.731 43.6829 184.895 93.8861C185.031 115.736 177.179 135.341 168.166 148.235C165.505 152.086 163.398 154.324 161.406 156.618C159.381 158.889 161.244 157.101 159.371 159.135C157.474 161.149 155.945 162.469 154.045 164.216C144.633 172.84 133.374 179.529 121.304 183.592L121.178 183.626C119.584 183.95 117.648 183.962 116.055 182.858C114.465 181.756 113.764 179.858 113.771 178.124C113.778 176.554 113.8 174.977 113.817 173.417C113.867 168.997 113.737 165.461 113.758 161.442C113.765 159.879 113.972 159.829 113.975 158.719C113.98 156.59 113.975 154.5 113.963 152.418C113.925 146.249 112.401 139.843 107.994 135.902L106.136 134.252L108.602 133.976C111.75 133.598 114.907 133.1 118.066 132.382C122.807 131.318 127.858 129.716 131.97 127.248C135.375 125.246 138.384 122.437 140.583 119.685C141.77 118.202 142.439 117.43 142.832 116.85C144.136 114.815 143.521 115.424 144.118 114.348C145.671 111.328 146.49 109.788 147.404 106.703C147.743 105.458 147.56 105.626 147.962 103.806C148.416 101.543 148.375 102.4 148.672 100.75C148.688 100.652 148.535 100.956 148.667 100.092C149.182 96.701 149.419 92.7483 149.388 88.9254C149.374 86.439 149.139 84.0287 148.764 81.9042C147.648 75.3769 144.687 69.269 140.384 64.465L139.996 64.0348L140.206 63.5007C141.798 59.4126 142.279 54.8869 141.99 50.6105C141.764 47.9581 141.658 48.6844 141.547 47.8544C140.905 44.2 140.599 42.6777 139.352 39.3776L139.9 39.8936C139.756 39.8546 139.402 39.7977 139.098 39.7764C138.451 39.6724 135.697 39.9535 133.108 40.6493C131.694 40.9966 130.091 41.439 128.911 41.8879C127.755 42.3337 127.626 42.5767 126.266 43.2134C123.811 44.4319 124.417 43.9336 121.021 45.9119C120.118 46.4489 117.959 47.8561 115.666 49.5129L115.264 49.7909L114.798 49.6604C113.315 49.2746 111.758 48.9111 110.345 48.5994C105.09 47.427 98.684 46.5116 92.2514 46.4807C90.6871 46.4726 89.1218 46.5115 87.5746 46.5976C84.8623 46.7497 81.404 47.2459 77.2707 47.989C75.2352 48.3533 72.5216 48.923 69.709 49.6917L69.2237 49.8237L68.8164 49.539C65.2602 47.0325 61.2613 44.6771 58.4371 43.3404C56.0225 42.2023 55.8903 42.0067 55.6122 41.8725C53.7267 41.082 54.4163 41.5735 53.1328 41.122C51.3783 40.5338 49.7076 39.9696 48.0496 39.7688C46.9887 39.6512 46.8178 39.8279 46.5999 39.8185C45.8934 39.8053 45.0946 39.8673 44.6344 39.9907L45.2458 39.4145C42.4969 46.6945 41.6772 54.1309 43.7743 61.6804C43.9528 62.2901 44.1539 62.8931 44.3793 63.4678L44.6054 64.052L44.1932 64.5161C38.2537 71.1521 35.04 80.0043 35.1412 88.9254C35.161 100.356 37.4115 112.383 45.0456 120.861C52.6229 129.426 64.4125 132.691 75.7556 133.851L78.4912 134.149L76.4496 135.987C73.3013 138.893 71.6595 143.349 71.1102 147.771L71.023 148.453L70.4059 148.74C61.4577 153.591 48.0998 151.287 43.0275 141.807C42.7152 141.32 42.4558 140.877 42.233 140.473L42.2177 140.446C41.021 138.439 40.7734 137.844 38.7595 135.845C36.3017 133.527 33.323 132.453 30.8338 131.521C30.7311 131.598 30.7259 131.665 30.6278 131.734C30.1383 131.635 29.6414 131.565 29.1348 131.524L29.2188 131.527C28.5087 131.528 27.6592 131.614 27.0141 131.802C26.693 131.893 26.4072 132.033 26.3095 132.123C26.2204 132.243 26.3104 132.026 26.2939 132.114C26.3144 132.345 26.8392 133.024 27.4007 133.512C27.9743 134.029 28.6218 134.509 29.317 134.983L29.1321 134.877C32.4092 136.675 34.5133 139.225 36.3607 141.961C37.9207 144.344 39.0475 146.745 39.9607 149.171L39.9836 149.238C40.6492 151.058 41.9087 152.964 43.3804 154.505C46.2705 157.227 46.0151 157.133 49.1949 158.533C55.2554 161.31 62.4287 161.034 69.1652 159.585L70.6555 159.262L70.6513 160.78C70.6257 166.562 70.7051 172.326 70.7253 178.126C70.721 179.903 69.9813 181.843 68.344 182.95C66.7037 184.059 64.7529 184.017 63.1622 183.676L63.0299 183.64C60.5364 182.765 58.094 181.781 55.7073 180.691C51.6095 179.242 47.9601 177.162 42.9485 173.884C42.3336 173.472 42.9196 174.027 41.1028 172.792C38.8436 171.207 37.7693 170.254 34.1745 167.33C33.1654 166.631 26.3187 160.606 24.2385 157.93C22.0531 155.366 19.0696 151.509 17.1819 148.572C17.3959 149.027 17.6926 149.585 17.9502 150.083C16.9176 148.679 15.9164 147.235 14.9631 145.777C14.9114 145.509 14.8608 145.241 14.817 144.981C14.1969 144.178 13.5892 143.363 12.9884 142.531C12.3496 140.358 13.2621 142.436 10.8365 138.188C9.65127 136.04 8.89504 134.24 7.84774 131.954C7.4722 131.128 7.1066 130.649 6.71573 129.728C5.77461 127.459 6.49056 128.717 5.95469 127.298C5.427 125.873 4.47695 123.871 3.8023 121.215C4.97635 123.84 2.61153 115.954 2.29499 115.618C2.07559 114.661 1.91445 113.85 1.69366 112.785C2.66604 113.612 1.14744 108.686 0.811229 106.663C0.441885 104.645 0.68389 104.709 0.620811 104.235C0.457099 102.871 0.467482 103.876 0.372269 102.916C0.0805102 99.8503 -0.025328 96.8671 0.00500428 93.8818C0.0388349 90.6665 0.230521 87.4857 0.55532 84.2494C0.648893 83.3453 0.442563 84.1342 0.567984 83.0814C0.698153 82.0284 0.940772 81.0372 1.15947 79.4981C1.21985 79.0818 1.13233 78.9344 1.236 78.2874C3.45905 64.7704 8.32937 52.3821 16.0379 40.7531C16.7431 39.7048 17.1327 38.7681 18.5865 36.8001C20.0392 34.8281 22.4988 32.0452 24.5462 29.8139C25.0892 29.2203 25.118 28.9499 25.8526 28.1741C28.3636 25.5453 30.7238 23.4779 33.6089 21.056C38.4879 16.9685 43.9775 13.1086 49.7311 10.1565C50.8229 9.6012 50.7074 9.80296 52.3026 9.04774C55.0654 7.78046 53.9592 8.11371 54.5049 7.82505C56.3109 6.91154 56.9948 6.90031 58.7762 6.10764C59.0496 5.98755 58.5973 6.0031 58.8454 5.90164C62.7171 4.3867 63.0384 4.6449 67.1944 3.19133C71.0214 2.32667 64.7464 4.1663 64.1625 4.53081C62.6991 5.29612 66.8769 4.22028 69.3571 3.69811C71.4817 3.23513 71.4317 3.0954 72.277 2.89578C76.7401 1.81208 83.5403 0.915995 87.0369 0.846718C89.1558 0.776337 85.3459 1.06313 86.4304 1.05478C87.5057 1.04139 88.1859 0.883351 89.2847 0.981864C90.3841 1.07349 92.6234 1.46721 92.1988 1.66118ZM58.0688 149.628C54.2963 150.075 46.7271 146.814 43.173 139.935C40.052 134.567 34.3481 130.746 29.7761 130.423C29.5895 130.402 29.4015 130.384 29.2124 130.369C28.2164 130.384 27.2089 130.483 26.3106 130.802C25.8677 130.968 25.4319 131.204 25.2094 131.607C24.9827 132.014 25.0941 132.506 25.2879 132.893C26.1702 134.436 27.5503 135.342 28.5512 136.094L28.5674 136.103C30.666 137.327 31.541 138.322 31.1668 137.457C30.4066 136.808 29.624 136.212 28.7275 135.756L28.7682 135.779C27.3548 134.758 25.7551 133.698 25.3422 132.245C25.1945 131.541 26.007 131.072 26.7675 130.857C27.5476 130.63 28.4029 130.535 29.2188 130.517L29.2025 130.516C33.1261 130.746 36.9419 132.691 40.0483 135.98C40.4489 136.393 41.9891 138.114 43.0348 140.006C43.7995 141.382 44.6567 142.606 45.1913 143.286C45.9262 144.197 45.8389 144.319 46.9748 145.467C47.2145 145.733 48.78 146.884 49.3707 147.27C50.3382 147.988 52.4222 149.259 54.5924 149.884C56.7498 150.552 58.8472 150.634 59.3506 150.63C62.1648 150.529 61.0679 150.346 62.2557 150.196C66.0758 149.434 66.6805 149.466 70.0386 147.956L70.2246 147.869L70.2509 147.664C70.262 147.559 70.2736 147.452 70.2859 147.343C70.3693 146.666 70.4233 144.289 71.51 141.579C71.93 140.47 72.9742 138.754 73.4812 138.022C74.1244 137.034 74.8853 136.077 75.7778 135.244L76.1569 134.903L75.649 134.847C71.7838 134.5 67.811 133.923 64.4941 133.046C60.9196 132.053 61.9436 132.111 60.097 131.479C58.2617 130.826 56.0097 130.086 54.8065 129.489C52.8638 128.569 50.741 127.045 50.2061 126.658C39.2343 119.172 35.0673 106.773 34.2268 94.3311C34.6984 102.873 36.6521 111.613 41.5699 118.767C44.6826 122.543 43.0343 120.735 45.1782 123.154C46.986 124.964 47.6422 125.154 50.3378 127.101C50.3355 127.1 50.3332 127.098 50.331 127.097C51.7186 128.094 54.8555 130.203 58.3362 131.416C58.4637 131.448 58.8102 131.463 61.4129 132.302C65.2115 133.52 70.4965 134.529 75.6285 135.039L75.7081 135.047L75.6487 135.101C73.5794 136.995 72.2204 139.458 71.3482 141.713C70.6707 143.62 70.5924 143.171 70.0378 145.524C69.9031 146.164 69.8083 146.851 69.7395 147.6L69.82 147.489C68.706 148.055 67.3681 148.657 65.7131 149.107C62.3686 149.954 60.7223 149.748 58.3653 150.069C58.1802 149.915 58.2857 149.782 58.0688 149.628ZM14.7612 143.219C14.4722 142.822 11.746 136.96 12.2513 138.861C16.1687 146.63 21.86 154.254 28.2598 160.806C26.3883 158.264 22.6388 154.545 18.855 149.358C18.8534 149.356 18.8518 149.354 18.8502 149.351C18.6727 149.107 19.5086 150.062 18.4902 148.678C17.9947 148.012 16.0238 145.481 14.7612 143.219Z" fill="#FA6519"/>
</svg>
