<svg width="78" height="78" viewBox="0 0 78 78" fill="none" xmlns="http://www.w3.org/2000/svg">
<path fill-rule="evenodd" clip-rule="evenodd" d="M38.8041 0C17.3464 0 0 17.7704 0 39.7549C0 57.3282 11.1144 72.2036 26.5331 77.4685C28.4609 77.8643 29.167 76.6131 29.167 75.5606C29.167 74.639 29.1035 71.4799 29.1035 68.1883C18.3091 70.5583 16.0613 63.4493 16.0613 63.4493C14.3265 58.8419 11.7562 57.6577 11.7562 57.6577C8.22325 55.2224 12.0136 55.2224 12.0136 55.2224C15.9326 55.4857 17.989 59.3031 17.989 59.3031C21.4576 65.358 27.047 63.6472 29.2957 62.5939C29.6166 60.0269 30.6452 58.2498 31.7373 57.2628C23.128 56.3411 14.07 52.9187 14.07 37.6483C14.07 33.3042 15.6109 29.7501 18.0525 26.986C17.6673 25.9989 16.3178 21.9174 18.4386 16.4546C18.4386 16.4546 21.715 15.4013 29.1027 20.5353C32.2656 19.6651 35.5274 19.2224 38.8041 19.2187C42.0805 19.2187 45.4205 19.6799 48.5047 20.5353C55.8931 15.4013 59.1696 16.4546 59.1696 16.4546C61.2903 21.9174 59.94 25.9989 59.5548 26.986C62.0608 29.7501 63.5382 33.3042 63.5382 37.6483C63.5382 52.9187 54.4801 56.2749 45.8065 57.2628C47.2203 58.5131 48.4404 60.8823 48.4404 64.6343C48.4404 69.9654 48.3768 74.244 48.3768 75.5598C48.3768 76.6131 49.0837 77.8643 51.0107 77.4693C66.4294 72.2028 77.5438 57.3282 77.5438 39.7549C77.6073 17.7704 60.1974 0 38.8041 0Z" fill="#FFF191"/>
</svg>
