<svg width="79" height="79" viewBox="0 0 79 79" fill="none" xmlns="http://www.w3.org/2000/svg">
<path fill-rule="evenodd" clip-rule="evenodd" d="M39.3588 0.664062C17.9011 0.664062 0.554688 18.4345 0.554688 40.4189C0.554688 57.9922 11.6691 72.8677 27.0878 78.1326C29.0156 78.5284 29.7217 77.2772 29.7217 76.2247C29.7217 75.3031 29.6581 72.144 29.6581 68.8524C18.8638 71.2223 16.616 64.1134 16.616 64.1134C14.8812 59.506 12.3109 58.3218 12.3109 58.3218C8.77794 55.8865 12.5683 55.8865 12.5683 55.8865C16.4873 56.1498 18.5437 59.9672 18.5437 59.9672C22.0123 66.0221 27.6017 64.3112 29.8504 63.2579C30.1712 60.6909 31.1998 58.9139 32.292 57.9268C23.6827 57.0052 14.6247 53.5828 14.6247 38.3123C14.6247 33.9683 16.1656 30.4142 18.6072 27.6501C18.222 26.663 16.8725 22.5815 18.9933 17.1187C18.9933 17.1187 22.2697 16.0654 29.6573 21.1994C32.8203 20.3292 36.0821 19.8865 39.3588 19.8828C42.6352 19.8828 45.9752 20.344 49.0594 21.1994C56.4478 16.0654 59.7243 17.1187 59.7243 17.1187C61.845 22.5815 60.4947 26.663 60.1095 27.6501C62.6155 30.4142 64.0928 33.9683 64.0928 38.3123C64.0928 53.5828 55.0348 56.9389 46.3612 57.9268C47.775 59.1772 48.995 61.5463 48.995 65.2983C48.995 70.6294 48.9315 74.9081 48.9315 76.2239C48.9315 77.2772 49.6384 78.5284 51.5654 78.1334C66.984 72.8669 78.0985 57.9922 78.0985 40.4189C78.162 18.4345 60.7521 0.664062 39.3588 0.664062Z" fill="#FFF191"/>
</svg>
