<svg version="1.2" xmlns="http://www.w3.org/2000/svg" viewBox="0 0 273 115" width="273" height="115">
	<style>
		.s0 { fill: #bc6654 } 
		.s1 { fill: #d17d54 } 
	</style>
	<path class="s0" d="m183.82 39.13c1.96 2.51 4.03 5.99 4.03 10.99 0 12.08-9.47 19.15-23.17 19.15-3.49 0-6.64-0.43-8.6-0.98l-3.59 5.77 10.66 0.65c18.82 1.2 29.91 1.74 29.91 16.21 0 12.51-10.98 19.58-29.91 19.58-19.69 0-27.2-5.01-27.2-13.6 0-4.9 2.18-7.5 5.99-11.1-3.59-1.52-4.79-4.23-4.79-7.17 0-2.4 1.2-4.57 3.16-6.64 1.95-2.07 4.13-4.14 6.74-6.53-5.33-2.61-9.36-8.27-9.36-16.32 0-12.51 8.27-21.1 24.91-21.1 4.68 0 7.51 0.43 10.02 1.09h21.21v9.24c0 0-10.01 0.77-10.01 0.76zm-32.2 49.62c-1.42 1.73-2.83 3.58-2.83 5.76 0 4.35 5.55 5.66 13.16 5.66 6.31 0 14.91-0.44 14.91-6.31 0-3.49-4.14-3.7-9.36-4.03 0 0-15.88-1.08-15.88-1.08zm11.97-49.94c-5.99 0-10.44 2.93-10.44 10.01 0 5.33 2.94 9.03 10.12 9.03 6.09 0 10.22-3.59 10.22-9.25 0-6.42-3.7-9.79-9.9-9.79z"/>
	<path class="s0" d="m212.98 19.37c-6.2 0-9.79-3.6-9.79-9.8 0-6.2 3.59-9.57 9.79-9.57 6.31 0 9.9 3.37 9.9 9.57 0 6.2-3.59 9.8-9.9 9.8zm-14.04 65.37v-8.59l5.55-0.76c1.53-0.22 1.74-0.54 1.74-2.18v-31.98c0-1.19-0.32-1.96-1.41-2.28l-5.88-2.07 1.2-8.81h22.52v45.14c0 1.75 0.11 1.96 1.74 2.18l5.55 0.76v8.59c0 0-31.01 0-31.01 0z"/>
	<path class="s0" d="m272.97 80.53c-4.68 2.28-11.53 4.35-17.74 4.35-12.94 0-17.83-5.22-17.83-17.52v-28.5c0-0.65 0-1.09-0.88-1.09h-7.61v-9.68c9.57-1.09 13.38-5.88 14.58-17.74h10.33v15.46c0 0.76 0 1.08 0.87 1.08h15.34v10.88h-16.21v26c0 6.42 1.53 8.92 7.4 8.92 3.05 0 6.2-0.76 8.81-1.74 0 0 2.94 9.58 2.94 9.58z"/>
	<path class="s1" d="m111.78 51.98l-49.75-49.74c-2.86-2.87-7.5-2.87-10.37 0l-10.33 10.33 13.1 13.1c3.05-1.03 6.54-0.34 8.97 2.09 2.44 2.44 3.12 5.96 2.07 9.02l12.63 12.63c3.05-1.06 6.58-0.38 9.02 2.07 3.41 3.41 3.41 8.93 0 12.34-3.42 3.41-8.94 3.41-12.35 0-2.57-2.56-3.2-6.33-1.9-9.49l-11.78-11.78v30.99q1.26 0.62 2.31 1.65c3.41 3.41 3.41 8.94 0 12.35-3.41 3.41-8.94 3.41-12.35 0-3.41-3.41-3.41-8.94 0-12.35 0.85-0.84 1.82-1.48 2.86-1.9v-31.28c-1.04-0.43-2.01-1.06-2.86-1.91-2.58-2.58-3.2-6.37-1.88-9.54l-12.91-12.92-34.11 34.11c-2.87 2.86-2.87 7.51 0 10.38l49.74 49.73c2.87 2.87 7.51 2.87 10.38 0l49.51-49.5c2.86-2.87 2.86-7.51 0-10.38z"/>
</svg>