<svg width="33" height="26" viewBox="0 0 33 26" fill="none" xmlns="http://www.w3.org/2000/svg">
<path d="M17.2625 0.243578L31.2118 6.10951C32.3895 6.60507 32.3764 8.70352 31.1926 9.18435L25.0603 11.6736L25.5827 21.6381C25.5678 24.0217 21.246 25.9268 15.9295 25.8937C10.6129 25.8606 6.31516 23.9017 6.33001 21.5181L7.03197 11.5841L5.04485 10.7484C4.42713 11.3124 4.0365 12.2054 3.99208 13.218C4.45048 13.5999 4.7708 14.2546 4.76594 15.0348C4.76142 15.7617 4.47283 16.3715 4.06027 16.7601L5.29201 24.5145C5.39912 25.1887 5.01409 25.8257 4.50069 25.8225L1.68749 25.805C1.17459 25.8018 0.797527 25.1601 0.913027 24.4872L2.2413 16.7488C1.8336 16.3551 1.55263 15.7417 1.55716 15.0148C1.56215 14.213 1.90627 13.5436 2.39142 13.1744C2.43141 11.9864 2.76707 10.9035 3.30757 10.0174L0.87567 8.99482C-0.301524 8.49994 -0.288447 6.40082 0.894821 5.92065L14.9166 0.228964C15.6801 -0.0811932 16.5024 -0.0760708 17.2625 0.243578Z" fill="#FFD170"/>
</svg>
