<svg width="31" height="24" viewBox="0 0 31 24" fill="none" xmlns="http://www.w3.org/2000/svg">
<path d="M29.408 5.4728L16.2978 0.217702C15.5834 -0.0686611 14.8126 -0.0686611 14.0987 0.217702L0.987991 5.4728C-0.118393 5.91614 -0.118393 7.82503 0.987991 8.26837L3.27361 9.18448C2.77212 9.99329 2.4638 10.9799 2.43325 12.0604C1.98063 12.3989 1.66197 13.0096 1.66197 13.7387C1.66197 14.3997 1.92893 14.9559 2.3134 15.3116L1.11348 22.356C1.00914 22.9685 1.36634 23.5499 1.84715 23.5499H4.48433C4.96561 23.5499 5.32281 22.9685 5.21847 22.356L4.01856 15.3116C4.40302 14.9559 4.66998 14.3997 4.66998 13.7387C4.66998 13.0292 4.36589 12.4357 3.93396 12.091C3.96968 11.17 4.33064 10.3557 4.90639 9.83938L14.0982 13.5241C14.524 13.6946 15.3409 13.9073 16.2973 13.5241L29.408 8.26898C30.5149 7.82503 30.5149 5.91676 29.408 5.4728ZM16.7392 15.3999C15.3982 15.937 14.2557 15.6402 13.6564 15.3999L6.84045 12.6681L6.17399 19.6254C6.17399 21.793 10.2141 23.5499 15.198 23.5499C20.1819 23.5499 24.222 21.793 24.222 19.6254L23.5556 12.6674L16.7392 15.3999Z" fill="#FCAB4D"/>
</svg>
