<svg width="31" height="24" viewBox="0 0 31 24" fill="none" xmlns="http://www.w3.org/2000/svg">
<path d="M15.5503 6.11162L5.92354 14.0938V22.7088C5.92354 22.9319 6.01156 23.1458 6.16823 23.3035C6.32491 23.4612 6.5374 23.5499 6.75898 23.5499L12.6101 23.5346C12.831 23.5335 13.0424 23.4444 13.1982 23.2868C13.354 23.1292 13.4414 22.9159 13.4414 22.6936V17.6625C13.4414 17.4394 13.5294 17.2255 13.6861 17.0678C13.8428 16.91 14.0553 16.8214 14.2768 16.8214H17.6186C17.8401 16.8214 18.0526 16.91 18.2093 17.0678C18.366 17.2255 18.454 17.4394 18.454 17.6625V22.6899C18.4537 22.8005 18.475 22.9102 18.5168 23.0125C18.5587 23.1149 18.6202 23.2079 18.6978 23.2863C18.7754 23.3647 18.8676 23.4269 18.9691 23.4693C19.0707 23.5117 19.1795 23.5336 19.2894 23.5336L25.1385 23.5499C25.3601 23.5499 25.5726 23.4612 25.7293 23.3035C25.8859 23.1458 25.9739 22.9319 25.9739 22.7088V14.088L16.3492 6.11162C16.2361 6.0198 16.0951 5.96973 15.9498 5.96973C15.8045 5.96973 15.6635 6.0198 15.5503 6.11162ZM30.7568 11.537L26.3917 7.91463V0.633721C26.3917 0.466425 26.3257 0.305981 26.2081 0.187684C26.0906 0.069388 25.9313 0.00292969 25.7651 0.00292969H22.8411C22.6749 0.00292969 22.5155 0.069388 22.398 0.187684C22.2805 0.305981 22.2145 0.466425 22.2145 0.633721V4.45054L17.5397 0.578527C17.0911 0.206875 16.5282 0.00367263 15.9472 0.00367263C15.3662 0.00367263 14.8033 0.206875 14.3546 0.578527L1.13755 11.537C1.0741 11.5897 1.02161 11.6546 0.983072 11.7278C0.944533 11.8011 0.920704 11.8812 0.912946 11.9637C0.905187 12.0462 0.913652 12.1294 0.937856 12.2086C0.96206 12.2878 1.00153 12.3615 1.05401 12.4253L2.38548 14.0549C2.43781 14.1189 2.50219 14.172 2.57491 14.211C2.64764 14.25 2.72729 14.2741 2.8093 14.2821C2.89131 14.29 2.97408 14.2816 3.05287 14.2573C3.13165 14.2331 3.2049 14.1934 3.26843 14.1405L15.5503 3.95642C15.6635 3.8646 15.8045 3.81453 15.9498 3.81453C16.0951 3.81453 16.2361 3.8646 16.3492 3.95642L28.6317 14.1405C28.6951 14.1934 28.7682 14.2331 28.8469 14.2575C28.9256 14.2818 29.0083 14.2904 29.0902 14.2826C29.1721 14.2747 29.2518 14.2508 29.3245 14.212C29.3972 14.1732 29.4617 14.1203 29.5141 14.0564L30.8456 12.4269C30.898 12.3627 30.9373 12.2887 30.9612 12.2091C30.9851 12.1296 30.9932 12.046 30.985 11.9633C30.9767 11.8806 30.9523 11.8004 30.9132 11.7272C30.874 11.6541 30.8209 11.5894 30.7568 11.537Z" fill="#FCAB4D"/>
</svg>
