<svg width="32" height="28" viewBox="0 0 32 28" fill="none" xmlns="http://www.w3.org/2000/svg">
<path d="M15.5757 7.26392L5.33375 16.7556V26.9998C5.33375 27.2651 5.4274 27.5195 5.59408 27.707C5.76077 27.8945 5.98684 28 6.22258 28L12.4476 27.9818C12.6826 27.9805 12.9075 27.8745 13.0733 27.6871C13.239 27.4997 13.332 27.2461 13.332 26.9818V20.9992C13.332 20.7339 13.4256 20.4796 13.5924 20.2921C13.7591 20.1044 13.9852 19.9991 14.2208 19.9991H17.7762C18.0118 19.9991 18.2379 20.1044 18.4046 20.2921C18.5713 20.4796 18.6649 20.7339 18.6649 20.9992V26.9774C18.6646 27.1089 18.6873 27.2393 18.7318 27.361C18.7763 27.4827 18.8418 27.5933 18.9243 27.6866C19.0069 27.7798 19.105 27.8537 19.213 27.9042C19.321 27.9546 19.4368 27.9806 19.5537 27.9806L25.7766 28C26.0124 28 26.2384 27.8945 26.4051 27.707C26.5718 27.5195 26.6654 27.2651 26.6654 26.9998V16.7487L16.4256 7.26392C16.3053 7.15474 16.1553 7.0952 16.0007 7.0952C15.8461 7.0952 15.6961 7.15474 15.5757 7.26392ZM31.7539 13.7153L27.1099 9.4079V0.750082C27.1099 0.551148 27.0397 0.360362 26.9145 0.219694C26.7895 0.0790264 26.6201 0 26.4432 0H23.3324C23.1556 0 22.986 0.0790264 22.861 0.219694C22.736 0.360362 22.6657 0.551148 22.6657 0.750082V5.28871L17.6922 0.68445C17.2149 0.242514 16.6161 0.000883439 15.9979 0.000883439C15.3798 0.000883439 14.781 0.242514 14.3036 0.68445L0.241925 13.7153C0.17442 13.778 0.118576 13.8551 0.0775752 13.9422C0.0365734 14.0294 0.0112217 14.1246 0.00296794 14.2227C-0.00528688 14.3208 0.00371909 14.4197 0.0294698 14.5139C0.0552205 14.6081 0.0972127 14.6957 0.153046 14.7716L1.5696 16.7094C1.62527 16.7855 1.69377 16.8486 1.77114 16.895C1.84851 16.9414 1.93325 16.97 2.0205 16.9795C2.10775 16.9889 2.19581 16.9789 2.27964 16.9501C2.36345 16.9213 2.44138 16.8741 2.50897 16.8112L15.5757 4.70115C15.6961 4.59196 15.8461 4.53242 16.0007 4.53242C16.1553 4.53242 16.3053 4.59196 16.4256 4.70115L29.493 16.8112C29.5605 16.8741 29.6382 16.9213 29.722 16.9503C29.8057 16.9792 29.8937 16.9894 29.9808 16.9801C30.068 16.9707 30.1527 16.9423 30.2301 16.8962C30.3074 16.85 30.3761 16.7871 30.4318 16.7112L31.8484 14.7735C31.9041 14.6972 31.946 14.6092 31.9714 14.5145C31.9968 14.42 32.0054 14.3206 31.9967 14.2222C31.9879 14.1239 31.9619 14.0285 31.9203 13.9415C31.8786 13.8546 31.8221 13.7776 31.7539 13.7153Z" fill="#FFD170"/>
</svg>
