<svg width="83" height="83" viewBox="0 0 83 83" fill="none" xmlns="http://www.w3.org/2000/svg">
<path d="M2.21427 30.7678C2.05216 29.0165 1.94421 27.3708 1.80799 25.2922C1.80789 25.2911 1.80779 25.29 1.80769 25.2889C1.78823 24.992 1.7683 24.6859 1.74744 24.3697C1.57945 21.8233 1.35304 18.5154 0.940846 13.534C0.541795 8.71131 0.319072 4.74983 0.218149 2.03901L-2.86102e-06 0.0357535L2.07898 4.02927e-05C2.46177 0.0207629 2.81947 0.0416307 3.15099 0.0623904C3.65035 0.09366 4.16722 0.110842 5.47094 0.126479C6.32592 0.136734 7.48188 0.145991 9.15002 0.159439C10.0373 0.166592 11.0699 0.174823 12.2788 0.185075C16.2805 0.219009 22.5521 0.208443 28.3309 0.198503C31.8384 0.192469 35.165 0.186704 37.6917 0.191483C41.387 0.198475 44.9526 0.229838 48.8288 0.264117C52.3786 0.29551 56.1893 0.329392 60.5983 0.348653C63.9813 0.363438 67.2681 0.490373 70.6082 0.63217C71.0332 0.650215 71.4602 0.668457 71.8874 0.686798C74.8349 0.813316 77.8479 0.942842 81.1062 1.01701C81.4341 1.02447 81.7583 1.03134 82.079 1.03764L82.9879 1.02204L82.9054 1.95595C82.2375 7.27517 81.827 11.6557 81.3751 16.4767C81.1878 18.4751 80.9934 20.5494 80.7706 22.7978C80.4182 26.3536 79.874 31.4614 79.3256 36.5899C79.2789 37.0267 79.2323 37.4642 79.1856 37.9005C79.1854 37.9027 79.1852 37.9049 79.185 37.9071C78.6829 42.6016 78.1901 47.2092 77.8463 50.5914C77.3 55.966 77.1366 57.9926 77.0004 59.6829C76.9492 60.3183 76.9019 60.9065 76.8395 61.6071C76.6145 64.1305 76.2052 67.9323 75.7903 71.7861C75.7888 71.8008 75.7872 71.8155 75.7857 71.8302C75.7168 72.4698 75.5219 72.9713 75.3503 72.9501C75.1788 72.9289 75.0955 72.3931 75.1643 71.7534C75.3841 69.7121 75.5985 67.7202 75.7841 65.936C75.6462 65.8279 75.5852 65.3357 75.6471 64.7601C75.8022 63.3191 76.1573 58.8929 76.7054 51.9648C76.6285 52.4352 76.5604 52.8288 76.4988 53.1735C76.4265 53.5782 76.3684 53.8879 76.3185 54.1541C76.2145 54.7091 76.1456 55.0784 76.054 55.7372C75.8676 57.2658 75.6082 59.6717 75.3357 62.2036C75.2668 62.8429 75.0721 63.3445 74.9007 63.3235C74.7292 63.3022 74.6459 62.7662 74.7147 62.1268C74.716 62.1143 74.7173 62.1018 74.7186 62.0893C74.9886 59.5817 75.256 57.0984 75.4513 55.5017C75.501 55.0955 75.546 54.7458 75.581 54.4834C75.609 54.2737 75.6445 54.0118 75.67 53.867C75.6734 53.8477 75.68 53.8111 75.6888 53.7674C75.689 53.7667 75.6892 53.766 75.6894 53.7652C75.6943 53.7408 75.7192 53.6163 75.7586 53.4847C75.7666 53.4582 75.7842 53.4004 75.8098 53.3339C75.8131 53.3164 75.8164 53.2989 75.8197 53.2814C75.8653 53.0374 75.9119 52.7884 75.9601 52.5186C76.1482 51.4654 76.4217 49.7946 76.893 46.3047C77.3264 43.095 77.9432 37.6567 78.6614 30.8655C78.6 31.323 78.539 31.7815 78.4785 32.2397C78.3262 33.3928 78.176 34.5515 78.0271 35.7108C77.9701 36.1549 77.9139 36.593 77.857 37.0394C77.7653 37.7581 77.6737 38.4789 77.5825 39.1994C77.5208 39.6862 77.4592 40.1742 77.3976 40.6615C77.3975 40.6625 77.3974 40.6637 77.3973 40.6648C77.3118 41.3412 77.2261 42.0193 77.1394 42.7026C77.1087 42.9418 77.0786 43.178 77.0487 43.4126C76.9299 44.3465 76.8134 45.2639 76.6641 46.3185C76.6443 46.4466 76.6215 46.5856 76.6038 46.6892C76.5849 46.8006 76.5663 46.9078 76.5482 47.0091C76.5322 47.0985 76.5166 47.1836 76.5018 47.2653C76.4998 47.2762 76.4979 47.2872 76.4959 47.2981C76.4793 47.3895 76.4637 47.4769 76.4488 47.5609C76.4339 47.6448 76.4196 47.7255 76.4061 47.8052C76.406 47.8059 76.406 47.8067 76.4059 47.8074C76.3919 47.8906 76.3814 47.9538 76.3676 48.0421C76.3503 48.153 76.3359 48.2483 76.3195 48.3639C76.3035 48.4757 76.2875 48.5924 76.2718 48.7103C76.2562 48.8282 76.2407 48.9483 76.2252 49.0702C76.2098 49.1922 76.1943 49.3163 76.179 49.4413C76.1636 49.5663 76.1484 49.6929 76.1331 49.8203C76.1178 49.9477 76.1023 50.0765 76.0868 50.2059C76.0512 50.5038 75.9865 50.7862 75.9058 50.99C75.8251 51.1937 75.7353 51.3025 75.6553 51.2927C75.5753 51.2828 75.511 51.1548 75.4757 50.9368C75.4404 50.7186 75.4372 50.4279 75.4658 50.1291C75.4736 50.0477 75.4814 49.966 75.4893 49.8839C75.494 49.8352 75.4988 49.786 75.5036 49.737C75.5163 49.6053 75.5291 49.4722 75.5423 49.3384C75.5555 49.2046 75.5692 49.0697 75.5833 48.9332C75.5974 48.7964 75.6119 48.6578 75.6272 48.5173C75.6425 48.3771 75.6587 48.2338 75.6759 48.0884C75.6926 47.9465 75.7127 47.7848 75.7318 47.6403C75.7457 47.5346 75.764 47.4045 75.7795 47.2961C75.7958 47.1829 75.8123 47.0716 75.8287 46.9644C75.8451 46.8568 75.8614 46.7529 75.8768 46.6537C75.8785 46.6431 75.8801 46.6325 75.8817 46.6219C75.8954 46.5341 75.9087 46.4495 75.921 46.3694C75.9347 46.2799 75.9473 46.1951 75.959 46.1146C75.9718 46.0258 75.9789 45.9719 75.9875 45.9056C76.0902 45.0288 76.2028 43.9434 76.3102 42.9084C76.3237 42.7784 76.3372 42.6491 76.3505 42.5211C76.4209 41.8413 76.4907 41.1629 76.5604 40.4849C76.6111 39.9921 76.6618 39.4988 76.7127 39.0049C76.7877 38.278 76.8633 37.549 76.9392 36.8209C76.9863 36.3686 77.0328 35.9247 77.0802 35.4735C77.2041 34.2956 77.3297 33.114 77.4584 31.9311C77.587 30.7499 77.7191 29.5615 77.8558 28.3728C77.992 27.1887 78.1386 25.959 78.2892 24.7726C78.4002 23.9004 78.5275 23.0076 78.6488 22.1821C78.714 21.7384 78.7785 21.304 78.8423 20.876C78.8425 20.8745 78.8428 20.8731 78.843 20.8716C78.8991 20.4959 78.9544 20.125 79.0087 19.7567C79.1252 18.967 79.2367 18.191 79.3436 17.4146C79.4503 16.6394 79.5522 15.867 79.65 15.0884C79.7471 14.3157 79.8413 13.5295 79.9305 12.7506C80.0201 11.9678 80.1041 11.1989 80.1893 10.3904C80.3009 9.3275 80.4069 8.27145 80.5148 7.18716C80.6217 6.1108 80.7278 5.02559 80.8341 3.93749C80.8712 3.55717 80.9087 3.17611 80.9459 2.79458C80.9461 2.79311 80.9462 2.79164 80.9464 2.79017C80.9799 2.44702 81.0134 2.10347 81.047 1.75964L82.079 2.9064C81.7139 2.90929 81.3486 2.91215 80.983 2.91495C79.8847 2.92335 78.7834 2.93135 77.6779 2.93784C76.5726 2.9443 75.4605 2.94936 74.3427 2.95127C73.2248 2.95301 72.0766 2.95195 70.9233 2.94181C69.8944 2.93304 68.8573 2.92135 67.8433 2.90976C67.5756 2.90671 67.3078 2.90366 67.04 2.90061C65.7695 2.88633 64.5396 2.87494 63.3232 2.87283C62.1078 2.87048 60.8932 2.87693 59.6675 2.89053C58.4455 2.90408 57.208 2.92436 55.9606 2.94882C54.7079 2.9734 53.4712 3.00172 52.2094 3.03275C50.9573 3.06365 49.6994 3.09684 48.4261 3.13194C47.7183 3.15137 46.9652 3.16923 46.2537 3.18443C45.5353 3.19977 44.8215 3.21333 44.1168 3.22593C43.8308 3.23106 43.5462 3.23593 43.2636 3.24089C42.8515 3.24811 42.443 3.25516 42.0409 3.26255C41.3624 3.27503 40.7003 3.28838 40.0572 3.30406C39.4143 3.31973 38.7904 3.33795 38.1877 3.36021C37.5639 3.38334 37.0497 3.40686 36.4347 3.44048C34.9369 3.5053 34.0088 3.52521 32.9775 3.5476C32.7744 3.552 32.5669 3.55669 32.3506 3.56164C31.114 3.58674 29.8786 3.60547 28.6593 3.61962C27.4283 3.6338 26.2165 3.64336 24.9891 3.64892C23.7736 3.65445 22.5494 3.65577 21.33 3.6535C20.1126 3.65122 18.8972 3.64524 17.6787 3.63549C16.461 3.62577 15.2183 3.61196 14.0251 3.59521C13.3356 3.58556 12.6031 3.57269 11.9226 3.5595C11.4318 3.55 10.948 3.54002 10.4736 3.5302C10.2799 3.52619 10.0874 3.5222 9.89671 3.5183C9.23919 3.50485 8.60013 3.49239 7.98283 3.4829C7.36539 3.47338 6.76787 3.46671 6.18323 3.46428C5.59756 3.46183 5.02459 3.46365 4.45131 3.46977C3.85707 3.47634 3.36364 3.48513 2.73271 3.50121C2.51278 3.50689 2.29524 3.5126 2.07898 3.51832L3.72178 1.71826C3.74385 1.90481 3.76584 2.0904 3.78781 2.27572C3.85858 2.8727 3.92928 3.46528 4.00101 4.06222C4.07265 4.65836 4.14397 5.24694 4.21633 5.83848C4.2396 6.02865 4.26417 6.22949 4.28767 6.42022C4.36029 7.00952 4.43284 7.59204 4.50645 8.17388C4.57992 8.75464 4.6538 9.32995 4.72877 9.90272C4.80405 10.4779 4.87939 11.0433 4.95768 11.6198C5.0909 12.5996 5.19713 13.5395 5.28603 14.3628C5.37568 15.1961 5.45443 15.9752 5.53096 16.7336C5.54529 16.8756 5.55962 17.0177 5.57395 17.1597C5.63552 17.7714 5.69585 18.3731 5.75645 18.9657C5.83111 19.696 5.90604 20.4129 5.98297 21.132C6.05919 21.8448 6.13794 22.5645 6.2179 23.273C6.29866 23.9882 6.37778 24.6719 6.4655 25.4084C6.55209 26.1369 6.64576 26.8762 6.74822 27.6866C6.8498 28.4896 6.9558 29.3323 7.05918 30.1861C7.16256 31.039 7.26378 31.9058 7.35979 32.7667C7.45606 33.6295 7.54842 34.4954 7.63579 35.3497C7.72366 36.2085 7.80726 37.0626 7.88758 37.9125C7.96774 38.7605 8.04752 39.6368 8.11962 40.4571C8.23638 41.7855 8.3506 43.1081 8.46431 44.4331C8.57732 45.7508 8.68983 47.0727 8.80161 48.3919C8.91316 49.7087 9.02446 51.0271 9.13516 52.3433C9.24591 53.6602 9.35639 54.9768 9.46658 56.2915C9.49096 56.5823 9.51533 56.8731 9.53971 57.1639C9.62551 58.1878 9.7113 59.2115 9.7969 60.2309C9.79743 60.2379 9.79797 60.245 9.79851 60.252C9.9088 61.5641 10.0172 62.8525 10.1281 64.1536C10.1689 64.6312 10.2082 65.0901 10.2486 65.5564C10.289 66.0232 10.3291 66.4812 10.3701 66.9435C10.4111 67.4063 10.4524 67.8663 10.4939 68.3192C10.5358 68.7771 10.5774 69.2234 10.6206 69.6736C10.6602 70.0863 10.7008 70.4959 10.7451 70.9434C10.7492 70.9843 10.7532 71.0251 10.7573 71.066C10.8058 71.5557 10.8591 72.1129 10.9049 72.6312C10.9056 72.6393 10.9063 72.6474 10.907 72.6555L9.15392 70.6027C10.4802 70.9442 11.7739 71.2749 13.0915 71.6089C14.4176 71.9452 15.7413 72.2783 17.0764 72.6131C17.5978 72.7439 18.1216 72.875 18.6456 73.0062C19.4607 73.2104 20.2788 73.4154 21.0993 73.6216C22.4492 73.9607 23.8016 74.3023 25.1618 74.6495C26.5168 74.9954 27.8797 75.347 29.2355 75.7011C30.5902 76.0548 31.9557 76.4155 33.3023 76.7752C34.8027 77.176 36.2939 77.5765 37.7916 77.9797C39.2869 78.3823 40.7827 78.7862 42.2718 79.1889C42.3842 79.2193 42.4966 79.2497 42.6089 79.2801L41.5338 79.284C42.9239 78.9436 44.3112 78.6046 45.6991 78.266C47.2007 77.8995 48.7015 77.534 50.2034 77.1686C51.1024 76.95 52.0011 76.7317 52.9003 76.5135C53.3701 76.3754 53.8205 76.2427 54.2537 76.1153C57.4553 75.1738 59.7702 74.4931 62.8358 73.6396C63.1287 73.5551 63.3658 73.4819 63.6543 73.393C63.7094 73.376 63.7678 73.3582 63.8274 73.3399C64.2045 73.2239 64.638 73.0923 65.2445 72.9222C66.4544 72.5829 68.3187 72.1003 70.7632 71.612C71.3807 71.4886 71.8099 71.5486 71.7215 71.7462C71.6593 71.8848 71.3586 72.0544 70.9718 72.1858C71.7051 72.0148 72.4367 71.8451 73.1664 71.6758C73.4577 71.6083 73.739 71.5749 73.9475 71.5842C74.1559 71.5935 74.2747 71.6445 74.2784 71.7267C74.2821 71.8089 74.1699 71.9162 73.9668 72.0261C73.7637 72.136 73.4865 72.2392 73.1957 72.3139C72.4242 72.512 71.6553 72.7093 70.8865 72.9078C70.1171 73.1063 69.3515 73.305 68.5839 73.5049C67.8165 73.7048 67.0496 73.9055 66.2804 74.1074C65.5143 74.3085 64.7467 74.5105 63.9779 74.7134C63.2042 74.9175 62.4452 75.1185 61.6739 75.3229C61.2118 75.4454 60.7442 75.5693 60.2851 75.6912C60.114 75.7365 59.9471 75.7811 59.7801 75.8255C59.6436 75.8617 59.5063 75.8981 59.3651 75.9356C57.8793 76.3305 56.3794 76.7299 54.8932 77.1263C53.3999 77.5245 51.9082 77.9228 50.4166 78.3214C48.9243 78.7202 47.4333 79.1192 45.9418 79.5185C44.5879 79.881 43.2348 80.2435 41.8797 80.6069L42.2726 80.6054C42.1349 80.5714 41.9971 80.5373 41.8593 80.5033C40.3646 80.134 38.8637 79.7634 37.3663 79.3944C36.208 79.1091 35.0594 78.8268 33.9088 78.5446C33.4527 78.4455 33.0016 78.3468 32.5564 78.249C31.2606 77.9643 29.9597 77.6921 28.6781 77.4242C30.9416 77.97 32.765 78.3882 34.501 78.7861C34.7338 78.8395 34.965 78.8924 35.1955 78.9454C37.3925 79.4496 39.5185 79.9435 42.2631 80.6428L41.8895 80.6442C42.0839 80.5935 42.2815 80.5423 42.4826 80.4904C51.1186 78.2623 56.1272 76.9746 59.2549 76.1982C62.382 75.4218 63.7363 75.1292 65.0162 74.9169C66.8247 74.6169 70.2576 73.8175 71.9715 73.3729C72.5941 73.2114 73.132 73.2166 73.1729 73.3845C73.2137 73.5525 72.7418 73.8197 72.1191 73.9813C70.3094 74.4507 66.5963 75.3218 64.4437 75.6789C63.4849 75.8379 62.3938 76.0642 59.3143 76.8287C56.2344 77.5932 51.2721 78.8692 42.6195 81.1016C42.4257 81.1516 42.2352 81.201 42.0479 81.2498L42.1092 81.2496C39.4635 80.5754 37.4137 80.0988 35.2401 79.5999C35.0118 79.5475 34.7818 79.495 34.5499 79.4418C34.5485 79.4414 34.547 79.4411 34.5456 79.4407C32.4072 78.9505 30.0787 78.4168 26.9511 77.6485C20.376 76.0333 11.7239 73.9366 8.49906 73.1836L8.28084 73.1323L8.25536 72.8983C8.2202 72.5812 8.19008 72.3157 8.16569 72.1088C8.11121 71.6466 8.05666 71.2001 7.99923 70.7291C7.77879 68.9212 7.51271 66.7385 7.01752 61.8101C6.90922 60.7322 6.78799 59.4691 6.65922 58.0905C6.38593 56.029 6.12421 54.0272 5.91808 52.2846C5.74019 50.7807 5.53956 49.3972 5.33587 48.0574C5.27723 47.6717 5.2173 47.2836 5.15753 46.8961C5.01339 45.9616 4.86924 45.0266 4.74045 44.1144C4.63778 43.3873 4.52474 42.6264 4.40525 41.8222C3.96998 38.8926 3.44838 35.382 3.0248 30.7838C2.57578 25.9095 2.22954 21.7328 1.93501 18.1301C2.13652 20.7772 2.27484 22.8223 2.38725 24.5262C2.40845 24.8476 2.42866 25.1555 2.44811 25.452C2.58545 27.5462 2.6853 29.0687 2.83598 30.6964C3.55568 38.471 3.8755 41.3824 4.32939 44.659C4.44889 45.5217 4.58992 46.4725 4.7418 47.4968C5.04537 49.5441 5.39253 51.8859 5.69938 54.4081C5.98517 56.7573 6.32989 59.3824 6.69503 62.1638C6.69513 62.1649 6.69523 62.166 6.69533 62.1671C6.76668 62.7107 6.83885 63.2606 6.91149 63.8152C7.29895 66.7737 7.69929 69.8666 8.06251 72.9159L8.10318 73.2893L8.45143 73.3714C8.88026 73.4678 9.308 73.5647 9.7341 73.6619C10.0981 73.745 10.5345 73.8429 11.0355 73.9553C13.9275 74.6039 19.0046 75.7425 25.1383 77.3948C26.4855 77.7577 27.88 78.1561 29.4713 78.611C29.9559 78.7495 30.4592 78.8936 30.9847 79.0432C33.2536 79.689 36.0129 80.4637 39.6999 81.444C40.4034 81.6311 41.1428 81.8262 41.9117 82.028L42.2511 82.0268C44.8136 81.3791 47.6961 80.639 50.663 79.8774C52.564 79.3894 54.4996 78.8927 56.4078 78.4055C62.1718 76.9339 67.4607 75.6076 72.7396 74.284C72.7407 74.2837 72.7417 74.2834 72.7428 74.2831C73.3664 74.1267 73.8905 74.1401 73.9123 74.3129C73.9339 74.4856 73.4461 74.7525 72.8228 74.9089C67.5408 76.2333 62.268 77.5553 56.5232 79.022C54.6439 79.5018 52.7235 79.9946 50.83 80.4807C47.8746 81.2394 44.9829 81.9818 42.4095 82.6325L41.7577 82.6349C40.9563 82.4246 40.1863 82.2215 39.4557 82.0272C35.706 81.0302 32.8963 80.2413 30.5962 79.5866C30.0422 79.4289 29.5215 79.28 29.0272 79.1387C27.4535 78.6889 26.1453 78.3148 24.8674 77.9705C18.9285 76.3708 14.0434 75.2749 11.1407 74.6236C10.6258 74.5081 10.1733 74.4065 9.78839 74.3186C9.29348 74.2057 8.79599 74.0932 8.2967 73.9812L7.526 73.7997L7.436 72.9733C7.08693 70.0562 6.70277 67.0884 6.3259 64.2109C6.25411 63.6627 6.18262 63.1172 6.11156 62.576C6.11136 62.5749 6.11116 62.5738 6.11096 62.5727C5.7459 59.792 5.39508 57.1196 5.10398 54.7267C4.80849 52.2978 4.4946 50.1847 4.20105 48.2081C4.04353 47.1475 3.89207 46.126 3.7522 45.1163C3.27068 41.6403 2.93629 38.5674 2.21427 30.7678ZM69.8382 72.4511C68.3214 72.7667 67.0976 73.0697 66.1906 73.3123C66.9665 73.1278 67.7408 72.9446 68.5157 72.7619C68.9568 72.6579 69.3975 72.5543 69.8382 72.4511ZM7.26465 57.8446C7.29764 58.0933 7.33092 58.3439 7.36432 58.5953C7.29566 57.899 7.22732 57.2025 7.15907 56.5072C7.07527 55.6534 6.99178 54.7998 6.90839 53.9465C7.03063 55.3043 7.15048 56.6198 7.26465 57.8446ZM3.64711 30.7157C4.04658 35.0521 4.52504 38.2762 4.95663 41.1834C5.08092 42.0207 5.20132 42.8325 5.3148 43.6363C5.36186 43.9696 5.41063 44.3024 5.46074 44.6379C5.29071 42.6731 5.1357 40.8668 5.00895 39.3882C4.6307 34.976 4.45403 32.4614 4.29876 30.2516C4.25384 29.6123 4.21059 28.9978 4.16489 28.371C4.09657 27.8551 4.02661 27.3194 3.95866 26.7777C3.86328 26.0194 3.7633 25.1993 3.67068 24.4187C3.57764 23.6351 3.48568 22.8386 3.39799 22.0561C3.30957 21.2671 3.22449 20.4851 3.14151 19.7065C3.0634 18.9738 2.98721 18.2436 2.91348 17.5369C2.90926 17.4965 2.90504 17.456 2.90083 17.4155C2.82283 16.6687 2.7471 15.9421 2.67329 15.275C2.59804 14.5958 2.53097 14.0316 2.46191 13.5318C2.37575 12.9075 2.28925 12.267 2.20537 11.6334C2.12138 10.9991 2.03941 10.3673 1.95916 9.73736C1.87875 9.10603 1.80038 8.48084 1.72298 7.85381C1.69796 7.65108 1.67189 7.43899 1.64729 7.23795C1.63596 7.14527 1.62455 7.05266 1.61329 6.9603C1.72376 8.19059 1.83734 9.46807 1.95304 10.7886C2.12019 12.6962 2.28621 14.7338 2.46944 16.9815C2.78202 20.816 3.14469 25.2616 3.64711 30.7157ZM15.7748 0.884862C15.2378 0.88649 14.4514 0.891378 13.4371 0.89768C13.1973 0.89917 12.9443 0.900939 12.6793 0.902563C12.6855 0.902715 12.692 0.902717 12.6982 0.902868C13.3552 0.918815 13.9617 0.932716 14.6165 0.945594C15.7836 0.968437 16.9174 0.988019 18.0626 1.0048C19.2122 1.02161 20.3587 1.03538 21.5064 1.0463C22.6559 1.05724 23.8088 1.06509 24.9514 1.0698C26.1052 1.0745 27.2426 1.07631 28.3909 1.07408C28.7566 1.07337 29.1235 1.07224 29.4904 1.07072C28.6714 1.05497 27.8211 1.04198 26.923 1.0283C26.2057 1.01737 25.4575 1.00594 24.6707 0.992287C24.3696 0.987063 24.0052 0.979056 23.5801 0.969704C21.8952 0.93264 19.2515 0.87433 15.7748 0.884862ZM38.6503 0.89829C38.9168 0.894143 39.1817 0.890397 39.4436 0.887304C40.1892 0.878511 40.9158 0.873483 41.6282 0.869603C42.1285 0.866902 42.6231 0.864964 43.1105 0.862889C43.3162 0.862013 43.5216 0.861052 43.7252 0.860142C44.0661 0.858624 44.4044 0.85681 44.7403 0.854954C42.3842 0.836104 40.0809 0.821652 37.6806 0.817111C37.649 0.817052 37.6171 0.817168 37.5852 0.817111C37.9485 0.84474 38.3034 0.871813 38.6503 0.89829ZM24.0206 59.2051C26.0184 59.6843 27.8809 60.1764 30.2332 60.7981C30.2344 60.7985 30.2357 60.7988 30.2369 60.7991C30.573 60.8879 30.9193 60.9795 31.2772 61.074C33.9286 61.7737 37.3119 62.6594 42.2481 63.8939L41.7313 63.8325C41.7904 63.8331 41.8496 63.8336 41.9091 63.8341L39.7026 66.0405C39.7027 66.0262 39.7029 66.0119 39.703 65.9976L39.6779 64.2924L41.3927 63.8528C41.7559 63.7686 42.1273 63.6824 42.5071 63.5939C48.7907 62.1309 53.8114 61.102 56.8914 60.533C57.4658 60.4269 58.0569 60.3023 59.5412 59.9611C60.1802 59.8141 60.9664 59.6314 61.968 59.3978L60.6605 60.8749C60.7178 60.4063 60.7807 59.8913 60.85 59.3234L60.8473 59.3489C60.8558 59.2692 60.8644 59.1885 60.8732 59.1068C60.9834 58.0761 61.1115 56.8767 61.2622 55.4726C61.7609 50.8245 62.479 43.5337 63.1405 36.8156C63.1602 36.6156 63.1798 36.416 63.1994 36.2171L63.2103 36.1313C63.3293 35.3433 63.4469 34.5647 63.5624 33.8007L65.2177 35.7276C62.2335 35.7316 59.4708 35.734 57.2413 35.7304C52.9246 35.7234 48.7595 35.692 44.2315 35.6578C40.0848 35.6264 35.6334 35.5925 30.4829 35.5732C29.841 35.5708 29.2021 35.5655 28.5653 35.5576L27.2247 35.5773L27.0683 34.2011C26.807 31.1722 26.6083 28.1879 26.4191 25.1715L26.2638 23.8054L27.6757 23.7847C27.9173 23.7933 28.1592 23.8021 28.4013 23.8109C28.8979 23.8289 29.3966 23.8472 29.8957 23.8655C33.3388 23.992 36.8585 24.1216 40.6646 24.1957C47.449 24.3279 52.8629 24.2733 58.8573 24.2128C61.1521 24.1897 63.5324 24.1656 66.1073 24.1509L65.2149 24.9622C65.2198 24.9068 65.2248 24.8512 65.2298 24.7956C65.278 24.2588 65.3296 23.6917 65.3841 23.0981L65.3863 23.0775C65.5445 21.7022 65.7218 20.1848 65.9117 18.5735L65.908 18.6116C65.9652 17.8543 66.0243 17.0762 66.0849 16.2825L66.9969 17.2667C64.5559 17.2667 61.9664 17.2642 59.3724 17.2614C58.8592 17.2608 58.3452 17.2604 57.8327 17.2598C57.8301 17.2598 57.8275 17.2598 57.8249 17.2598C52.3097 17.2537 46.8968 17.2477 42.9255 17.2611C36.6149 17.2824 34.2405 17.3328 32.2603 17.3749C31.5159 17.3907 30.8267 17.4055 30.0051 17.417C27.0462 17.4584 22.5794 17.4507 18.0516 17.443C18.0343 17.443 18.0171 17.443 17.9998 17.443C17.2484 17.4417 16.6419 17.3005 16.6454 17.1277C16.649 16.9549 17.2612 16.8157 18.0127 16.817C20.4111 16.8211 22.7514 16.8251 24.8468 16.8222C24.9555 16.6737 25.5197 16.5613 26.196 16.5625C27.8891 16.5654 33.0745 16.4535 41.1901 16.2707C40.6342 16.2437 40.1685 16.2174 39.7605 16.1923C39.2816 16.1629 38.9147 16.1377 38.5992 16.116C37.9417 16.0709 37.5043 16.0411 36.7277 16.0193C34.9292 15.9944 32.1024 15.9893 29.1277 15.9842C28.3766 15.9829 27.77 15.842 27.7733 15.6692C27.777 15.4965 28.3894 15.3573 29.1406 15.3586C29.1553 15.3586 29.17 15.3586 29.1847 15.3586C32.1309 15.3636 35.0485 15.3687 36.9273 15.3952C37.4053 15.4019 37.8171 15.4099 38.1262 15.4171C38.3733 15.4229 38.6818 15.4308 38.8533 15.441C38.876 15.4423 38.9194 15.445 38.9712 15.4492C38.9721 15.4493 38.9729 15.4494 38.9738 15.4495C39.0028 15.4518 39.1505 15.4635 39.3082 15.4889C39.34 15.494 39.4093 15.5055 39.4896 15.524C39.5104 15.5254 39.5311 15.5268 39.5518 15.5282C39.8409 15.548 40.1359 15.5682 40.4552 15.5877C41.7018 15.6642 43.6763 15.7606 47.7883 15.8627C51.5702 15.9566 57.9635 15.9987 65.9408 15.9994C65.4019 15.9865 64.8617 15.9739 64.322 15.9619C62.9638 15.9316 61.5993 15.904 60.2343 15.8777C59.7114 15.8676 59.1955 15.8578 58.6699 15.8481C57.8238 15.8324 56.9753 15.817 56.1271 15.802C55.5539 15.7918 54.9795 15.7818 54.4059 15.7718C54.4046 15.7718 54.4033 15.7718 54.402 15.7718C53.6058 15.7578 52.8075 15.7438 52.003 15.7294C51.7215 15.724 51.4433 15.7188 51.1671 15.7138C50.0677 15.6937 48.9876 15.6743 47.7442 15.6366C47.593 15.6303 47.4287 15.6222 47.3061 15.6155C47.1744 15.6084 47.0476 15.6012 46.9277 15.5938C46.8219 15.5874 46.7211 15.5808 46.6244 15.5746C46.6115 15.5738 46.5985 15.573 46.5855 15.5722C46.4773 15.5653 46.3739 15.559 46.2745 15.553C46.1752 15.547 46.0796 15.5412 45.9855 15.5362C45.9846 15.5362 45.9837 15.5362 45.9829 15.5362C45.8845 15.531 45.8098 15.5272 45.7055 15.5227C45.5746 15.5172 45.4621 15.5129 45.3258 15.5087C45.1939 15.5046 45.0564 15.5009 44.9175 15.4977C44.7787 15.4945 44.6372 15.4917 44.4937 15.4892C44.3501 15.4866 44.2041 15.4843 44.0569 15.4822C43.9099 15.48 43.7609 15.4782 43.6111 15.4764C43.4612 15.4745 43.3097 15.4726 43.1575 15.4709C42.807 15.4667 42.471 15.4321 42.2243 15.3732C41.9777 15.3143 41.8404 15.2365 41.842 15.1559C41.8437 15.0753 41.9844 14.9979 42.2334 14.9398C42.4825 14.8818 42.8198 14.8482 43.1704 14.8452C43.2659 14.8444 43.3618 14.8436 43.4582 14.8428C43.5153 14.8423 43.5731 14.842 43.6305 14.8416C43.7851 14.8404 43.9413 14.8391 44.0984 14.8382C44.2554 14.8373 44.4138 14.8367 44.5741 14.8364C44.7347 14.836 44.8975 14.8359 45.0627 14.8364C45.2274 14.8369 45.3958 14.8379 45.5668 14.8397C45.7337 14.8415 45.9241 14.8445 46.0943 14.8483C46.2188 14.8509 46.3721 14.8555 46.5 14.8596C46.6334 14.8639 46.7648 14.8686 46.8914 14.8736C47.0183 14.8786 47.141 14.8839 47.2582 14.8889C47.2707 14.8894 47.2832 14.8899 47.2958 14.8904C47.3993 14.8948 47.4994 14.8991 47.5939 14.9029C47.6995 14.9072 47.7995 14.9108 47.8945 14.9139C47.9992 14.9174 48.0628 14.9188 48.1408 14.9203C49.172 14.9304 50.4467 14.9283 51.6622 14.9264C51.8149 14.9262 51.9668 14.926 52.1171 14.9258C52.9154 14.9243 53.7121 14.9225 54.5083 14.9206C55.0869 14.9193 55.6663 14.9179 56.2463 14.9166C57.0998 14.9149 57.956 14.9134 58.8112 14.9124C59.3424 14.9118 59.8638 14.9114 60.3937 14.9112C61.7773 14.9106 63.1654 14.9114 64.5553 14.9151C65.3667 14.9173 66.1811 14.9204 66.9969 14.9249L68.5578 14.9478L68.42 16.4606C68.3727 17.0384 68.3247 17.6169 68.276 18.1954C68.2594 18.3921 68.2426 18.5899 68.2256 18.7885L68.2199 18.8473C68.067 20.0439 67.9063 21.2689 67.7437 22.4567C67.7033 22.7507 67.6615 23.0468 67.619 23.3423L67.6222 23.3116C67.5463 23.9409 67.4667 24.5681 67.3887 25.1696L67.2584 26.3515L66.1073 26.3346C66.0107 26.3313 65.9148 26.328 65.8197 26.3247C65.2963 26.3065 64.7837 26.288 64.2787 26.2694C64.2769 26.2693 64.2752 26.2692 64.2735 26.2691C63.8302 26.2529 63.3926 26.2368 62.958 26.2215C62.0264 26.1886 61.1112 26.1593 60.1961 26.1346C59.2824 26.1098 58.3727 26.0896 57.4563 26.0741C56.5467 26.0588 55.6218 26.0477 54.706 26.0409C53.7856 26.034 52.8821 26.0312 51.9325 26.0314C50.684 26.032 49.4442 26.0376 48.1713 26.0442C46.9078 26.051 45.6341 26.0595 44.357 26.068C43.9107 26.071 43.4634 26.0738 43.0156 26.0769C43.0139 26.0769 43.0122 26.0769 43.0104 26.0769C42.1821 26.0825 41.3518 26.0882 40.5207 26.0937C39.2377 26.1021 37.9512 26.1101 36.6598 26.1165C35.3687 26.123 34.0696 26.1281 32.7638 26.13C31.4579 26.1317 30.1167 26.1307 28.7694 26.1205C28.4054 26.1179 28.0404 26.1149 27.6757 26.1118L28.735 24.9427C28.8104 25.7789 28.8848 26.6145 28.9579 27.437C28.9856 27.7486 29.0133 28.0601 29.041 28.3717C29.1727 29.85 29.3026 31.281 29.4402 32.6952C29.481 33.115 29.5225 33.5346 29.5648 33.9545L28.5653 33.0489C29.5638 33.0469 30.5638 33.0409 31.5703 33.0313C32.9978 33.0178 34.4433 32.9975 35.9004 32.9731C37.3639 32.9485 38.8085 32.9202 40.2824 32.8891C41.7451 32.8582 43.2146 32.825 44.7019 32.7899C45.5288 32.7705 46.4085 32.7526 47.2396 32.7374C48.0788 32.7221 48.9127 32.7085 49.7358 32.6959C50.0699 32.6908 50.4024 32.6859 50.7325 32.681C51.2139 32.6738 51.6911 32.6667 52.1607 32.6593C52.9534 32.6468 53.7268 32.6335 54.4781 32.6178C55.229 32.6021 55.9579 32.5839 56.6619 32.5617C57.3906 32.5385 57.9912 32.515 58.7097 32.4814C60.4593 32.4166 61.5434 32.3967 62.7482 32.3743C62.9854 32.3699 63.2279 32.3652 63.4805 32.3602C64.0601 32.3502 64.6396 32.3411 65.2177 32.333L67.245 32.3627L66.9182 34.3127C66.8102 35.0945 66.7009 35.8735 66.591 36.647L66.6023 36.5572C66.5958 36.6296 66.5893 36.7019 66.5828 36.7741C66.4539 38.2064 66.3226 39.6159 66.1856 41.0431C66.0498 42.4565 65.9089 43.8796 65.765 45.2968C65.6213 46.7117 65.4741 48.1238 65.3229 49.5391C65.1717 50.9535 65.0136 52.3967 64.8583 53.7819C64.7686 54.5824 64.6707 55.4326 64.5785 56.2222C64.512 56.7917 64.4459 57.3531 64.381 57.9035C64.3545 58.1283 64.3282 58.3517 64.3021 58.5729C64.258 58.9477 64.2147 59.3172 64.1724 59.6812L64.1698 59.7055C64.1203 60.0819 64.072 60.4523 64.0253 60.8162C64.0063 60.9637 63.9876 61.1101 63.9692 61.2557L63.8211 62.394L62.7475 62.6358C62.1964 62.7617 61.6589 62.8864 61.1313 63.0114C60.4656 63.1691 59.8153 63.3276 59.1657 63.4903C58.4923 63.6591 57.934 63.8026 57.2212 63.9907C56.757 64.1133 56.3023 64.2338 55.8489 64.354C55.1702 64.5339 54.4965 64.7129 53.8179 64.8937C53.1403 65.0744 52.4713 65.2533 51.799 65.4338C51.5829 65.4918 51.3547 65.5531 51.1379 65.6114C50.4683 65.7917 49.8064 65.9708 49.1455 66.1507C48.4858 66.3303 47.8324 66.5093 47.1821 66.6889C46.5291 66.8693 45.8873 67.048 45.2331 67.2316C44.2283 67.5138 43.2583 67.768 42.389 67.9911L43.9596 65.9976C43.9598 66.0119 43.96 66.0262 43.9602 66.0405L43.9296 68.1214L41.9091 68.0917C41.8493 68.0926 41.7901 68.0935 41.7313 68.0943L41.2506 68.0372C41.2303 68.0326 41.2101 68.0281 41.1899 68.0235C40.2351 67.8073 39.3441 67.6004 38.4768 67.3989C38.3144 67.3611 38.1519 67.3234 37.9895 67.2856C37.29 67.1229 36.602 66.9626 35.9241 66.8059C35.0885 66.6127 34.2678 66.4247 33.444 66.2377C32.6274 66.0523 31.8023 65.8668 30.9892 65.6866C30.1684 65.5046 29.3831 65.3325 28.5363 65.1494C27.6989 64.9681 26.8469 64.7896 25.9133 64.5938C24.9881 64.3998 24.0173 64.1956 23.0351 63.985C22.2039 63.8068 21.3622 63.6236 20.524 63.4379L18.7982 62.9954L18.6697 61.2903C18.653 61.1362 18.6364 60.9822 18.6199 60.8283C18.5117 59.8201 18.4073 58.8082 18.3082 57.81C18.2084 56.8065 18.1131 55.8086 18.021 54.8156C17.9291 53.8248 17.8373 52.8011 17.7539 51.8428C17.6268 50.3835 17.5022 48.9303 17.378 47.4751L17.1714 44.7335L19.8475 44.7729C19.9402 44.7733 20.033 44.7738 20.1257 44.7742C21.6706 44.7818 23.2204 44.7903 24.7669 44.7992C26.3106 44.8082 27.856 44.8176 29.399 44.8273C29.5364 44.8282 29.6739 44.8291 29.8114 44.8299L32.0351 44.8627L32.2215 47.0072C32.3549 48.407 32.4881 49.8065 32.621 51.2041C32.6533 51.5434 32.6856 51.8828 32.7179 52.2221C32.7742 52.8147 32.8306 53.4072 32.8869 53.9992L31.0672 51.9263C31.6544 52.0686 32.2411 52.2108 32.8265 52.3527C32.8344 52.3546 32.8424 52.3566 32.8504 52.3586C34.3453 52.7207 35.8132 53.0762 37.2961 53.4338C37.8405 53.5649 38.3635 53.6909 38.8952 53.8185C39.4274 53.9462 39.9498 54.0711 40.4771 54.1967C41.0051 54.3224 41.5301 54.4468 42.0473 54.5686C42.1196 54.5857 42.1917 54.6026 42.2635 54.6195L41.7313 54.5577C41.732 54.5577 41.7326 54.5577 41.7333 54.5577L41.2011 54.6195C41.648 54.514 42.0869 54.4099 42.529 54.304C43 54.1913 43.4673 54.078 43.9779 53.9543C44.0245 53.9431 44.0711 53.9318 44.1177 53.9205C44.6764 53.7852 45.3123 53.6331 45.9043 53.4953C47.4724 53.1311 49.0001 52.7738 50.5547 52.4074C51.1727 52.2618 51.79 52.1159 52.4077 51.9697L50.624 53.9851C50.728 53.0276 50.8314 52.0688 50.935 51.1052C51.0021 50.4809 51.0692 49.8537 51.1365 49.2263C51.2411 48.2503 51.3462 47.2707 51.4521 46.2882C51.5827 45.0775 51.7144 43.865 51.8484 42.6479L54.1874 45.2578C53.7769 45.2578 53.3658 45.2575 52.9541 45.257C51.3204 45.255 49.6762 45.2493 48.0394 45.2396C46.4039 45.2299 44.7542 45.2161 43.1261 45.1987C41.3121 45.1792 39.5085 45.1577 37.6969 45.1352C35.8882 45.1127 34.0785 45.0892 32.2768 45.065C30.4685 45.0408 28.6649 45.016 26.8606 44.9905C25.0553 44.9651 23.2511 44.939 21.4457 44.9124C20.7352 44.9019 20.0248 44.8913 19.3143 44.8806L17.5026 44.854L17.3488 43.1069C17.3165 42.7383 17.2842 42.3697 17.2519 42.001C17.1788 41.4337 17.1084 40.8899 17.0409 40.3667C16.542 36.501 16.1814 33.7059 15.7513 30.0137C15.7074 29.6603 15.667 29.3734 15.618 29.0242C15.6086 28.9575 15.5988 28.8869 15.5887 28.8148C15.5249 28.3584 15.4534 27.8342 15.367 27.1035C15.1948 25.6458 14.9695 23.4076 14.8175 20.5009C14.7791 19.7667 14.897 19.2848 15.0811 19.425C15.2103 19.5235 15.3377 19.9025 15.4155 20.373C15.3746 19.8607 15.3341 19.3492 15.2938 18.8384L15.2902 18.7981C15.2711 18.4341 15.252 18.0705 15.233 17.7073C15.2148 17.3585 15.2286 17.0287 15.2724 16.7918C15.3163 16.555 15.3864 16.4302 15.4681 16.4441C15.5499 16.458 15.6372 16.6103 15.7119 16.8674C15.7866 17.1245 15.8423 17.465 15.8677 17.8148C15.8903 18.1265 15.9129 18.4378 15.9354 18.7489L15.9375 18.7722C15.9983 19.386 16.0592 19.9989 16.1205 20.6118C16.2129 21.5355 16.3059 22.4547 16.3999 23.3765C16.4939 24.2981 16.5887 25.2192 16.6844 26.1432C16.7798 27.0636 16.8758 27.9858 16.9726 28.9096C17.07 29.8393 17.1662 30.7513 17.2641 31.6782C17.3228 32.2336 17.3821 32.7956 17.4407 33.3473C17.4624 33.5529 17.4839 33.7536 17.5052 33.9543C17.5227 34.1184 17.5401 34.2834 17.5581 34.4531C17.7479 36.239 17.9402 38.0419 18.1314 39.8285C18.2443 40.8834 18.3573 41.9376 18.4703 42.9916L18.5363 43.7418L19.3143 43.7532C20.0581 43.75 20.8018 43.7467 21.5455 43.7433C23.3499 43.735 25.1528 43.7262 26.9565 43.7173C28.7593 43.7084 30.5611 43.6992 32.3662 43.6895C34.1648 43.6799 35.9706 43.67 37.7721 43.6593C39.1656 43.6511 40.5472 43.6422 41.9311 43.6328C42.476 43.6166 43.0151 43.6014 43.5473 43.5867C45.0963 43.5439 46.6475 43.4878 48.1755 43.4323C45.4558 43.4599 43.271 43.5031 41.1911 43.5443C40.9122 43.5498 40.6352 43.5553 40.359 43.5608C37.5398 43.616 34.8163 43.6627 31.1531 43.6523C26.3425 43.6387 22.4652 43.6267 19.3143 43.6139L18.6641 43.6043L18.6089 42.9773C18.2481 39.3221 17.9895 36.6488 17.8037 34.6311C17.4587 30.8832 17.3525 29.2685 17.3159 27.7551C17.2643 25.6166 16.9379 21.5126 16.7298 19.4548C16.7015 19.1743 16.6948 18.9121 16.7066 18.6931C16.7356 18.3262 16.813 18.0837 16.9208 18.0776C17.0276 18.0717 17.1392 18.299 17.2221 18.6507L17.2211 18.6402C17.2779 18.8556 17.325 19.1185 17.3538 19.4036C17.5735 21.5765 17.9329 26.0169 17.9944 28.5622C18.0218 29.6959 18.0979 30.995 18.4377 34.6858C18.6199 36.6655 18.8745 39.2966 19.2316 42.9133L19.238 42.9869L19.3143 42.988C22.4563 43.0008 26.339 43.0127 31.1791 43.0264C34.7104 43.0364 37.3313 42.9919 40.1205 42.9373C40.3941 42.9319 40.6695 42.9263 40.9474 42.9208C40.9491 42.9208 40.9509 42.9208 40.9526 42.9208C43.5147 42.87 46.3045 42.8147 50.0664 42.7902C51.3848 42.7816 52.7724 42.7718 54.1874 42.7611L54.3456 42.7588L54.3302 42.9205C53.9354 46.7829 53.5246 50.8512 53.1848 54.2664L53.1688 54.4344L52.9982 54.4772C49.5573 55.3248 46.798 56.011 45.6432 56.3103C45.117 56.4466 44.6089 56.5803 44.0729 56.7212C43.4029 56.8972 42.6877 57.0852 41.8337 57.3059L41.7333 57.3175C41.7326 57.3176 41.732 57.3176 41.7313 57.3176L41.6309 57.3059C39.8443 56.9257 37.4624 56.4055 33.659 55.5401C32.6878 55.3192 31.5863 55.065 30.3934 54.7872L30.0102 54.7029L29.9628 54.2967C29.9285 53.9672 29.8935 53.6307 29.8581 53.2882C29.572 51.1983 29.2958 49.1609 29.0619 47.3287L29.8114 48.0058C29.532 48.0129 29.2574 48.0196 28.9881 48.0257C27.2196 48.0657 25.5888 48.1394 24.0087 48.2201C23.5538 48.2433 23.0959 48.2676 22.6387 48.2918C21.7028 48.3413 20.7666 48.3908 19.8475 48.4322L21.0225 47.1465C21.0446 47.3088 21.0663 47.4705 21.0877 47.6317C21.2004 48.4818 21.324 49.3715 21.4547 50.3118C21.8605 53.2327 22.3349 56.6475 22.7679 60.9208L21.4871 59.4374C22.2103 59.6031 22.9574 59.7782 23.7299 59.9638C29.2898 61.2996 34.0409 62.4805 38.1377 63.503C35.1326 62.7376 32.8167 62.13 30.8882 61.621C30.5244 61.525 30.1759 61.4329 29.8404 61.3443C27.4704 60.718 25.7474 60.2626 23.8905 59.8173C23.057 59.6174 22.2723 59.4296 21.5315 59.2529L22.9569 60.9038C22.2888 53.6629 21.9508 50.534 21.5049 47.103L19.8475 48.9165C19.881 48.9152 19.9146 48.9139 19.9481 48.9125C20.9644 48.8722 22.0855 48.8184 23.2933 48.7605C25.2609 48.6663 27.4591 48.561 29.8114 48.4843L28.5858 47.3771C28.6572 47.9062 28.7278 48.4434 28.7972 48.9877C29.011 50.6632 29.2496 52.4591 29.5034 54.3434L29.5897 55.0831L30.2876 55.2367C31.4737 55.4756 32.6958 55.7203 33.9451 55.9706C33.9464 55.9709 33.9476 55.9712 33.9489 55.9715C34.5766 56.0972 35.2118 56.2245 35.8523 56.3529C37.7279 56.7291 39.6498 57.1161 41.5826 57.5111L41.7313 57.5283C41.732 57.5283 41.7326 57.5283 41.7333 57.5283L41.882 57.511C43.9443 56.9603 46.0223 56.4123 48.074 55.8843C48.4963 55.7756 49.0019 55.6438 49.5822 55.4924C50.5348 55.244 51.6921 54.9421 53.0272 54.6003L53.2862 54.5353L53.3105 54.2802C53.5826 51.2663 53.9596 47.3801 54.4804 42.937L54.5119 42.6052L54.1874 42.61C53.5341 42.6052 52.8686 42.5987 52.192 42.5903C50.5623 42.5698 48.8689 42.5266 46.9365 42.477C46.3479 42.462 45.7367 42.4461 45.0987 42.4303C42.3441 42.3623 38.9973 42.2901 34.541 42.2466C30.8633 42.2108 26.3812 42.1935 21.7269 42.1755C20.9268 42.1724 20.1215 42.1693 19.3143 42.166L20.0492 42.8292C19.9013 41.3311 19.7531 39.8265 19.6073 38.336C18.931 31.4198 18.3342 25.0784 17.7387 18.7491C17.7386 18.7478 17.7384 18.7465 17.7383 18.7452C17.7333 18.6921 17.7291 18.6398 17.7256 18.5883L17.7278 18.6121C17.7003 17.9381 17.7983 17.4232 17.9602 17.4355C18.1144 17.4474 18.2751 17.9336 18.345 18.565L18.3414 18.525C18.3526 18.6062 18.3623 18.6899 18.3703 18.7753C18.9662 25.1084 19.5609 31.4304 20.235 38.3236C20.3785 39.7905 20.525 41.2786 20.6718 42.7652L19.3143 41.5401C20.1167 41.5434 20.9186 41.5465 21.7166 41.5496C26.3934 41.5677 30.9379 41.5851 34.6499 41.6213C39.182 41.6655 42.5901 41.7391 45.3825 41.8081C46.0551 41.8247 46.6874 41.8409 47.2877 41.8563C49.1988 41.9053 50.7875 41.9462 52.3332 41.9656C52.9618 41.9734 53.58 41.9795 54.1874 41.9841L55.201 41.9692L55.1026 43.0053C54.5785 47.4676 54.2047 51.3445 53.935 54.3488L53.8697 55.0365L53.1712 55.2118C51.9734 55.5191 50.9197 55.7939 50.0276 56.0265C49.4312 56.182 48.907 56.3186 48.4604 56.4335C46.3356 56.9804 44.177 57.5503 42.0267 58.1254L41.7333 58.1595C41.7326 58.1595 41.732 58.1595 41.7313 58.1595L41.4379 58.1254C39.6459 57.7598 37.8574 57.3998 36.0977 57.0469C35.4646 56.9199 34.8346 56.7936 34.2095 56.6684C34.2082 56.6682 34.207 56.668 34.2057 56.6678C32.8227 56.3908 31.4628 56.1184 30.1426 55.8521L29.0139 55.6038L28.8744 54.4074C28.6371 52.6425 28.4124 50.9464 28.2096 49.3562C28.1257 48.6989 28.0413 48.0614 27.9568 47.4411L29.8114 49.1166C27.7386 49.187 25.8534 49.2778 24.0631 49.3639C22.8125 49.4241 21.6081 49.4818 20.4186 49.529C20.2274 49.5366 20.0372 49.5439 19.8475 49.5511L22.1369 47.046C22.5815 50.5162 22.934 53.8435 23.5801 60.8476L21.678 58.6446C22.4157 58.8206 23.195 59.0071 24.0206 59.2051ZM15.5245 21.7285C15.6314 23.5344 15.7656 25.0011 15.883 26.0915C15.8054 25.1631 15.729 24.2369 15.6531 23.31C15.6099 22.7824 15.567 22.2554 15.5245 21.7285ZM30.4578 53.0044C30.4976 53.2948 30.5377 53.5872 30.578 53.8807C30.4904 53.0681 30.4031 52.2553 30.3159 51.4439C30.2089 50.4474 30.1022 49.4512 29.9956 48.4554C30.1547 50.0399 30.3103 51.5751 30.4578 53.0044ZM23.596 60.5754C22.8152 60.3878 22.0644 60.2121 21.3405 60.0466L22.1438 60.9771C21.7425 57.0359 21.3087 53.9106 20.9113 51.0479C20.7754 50.069 20.6437 49.1197 20.5191 48.1801C20.476 47.855 20.4317 47.5303 20.3864 47.2039L19.8475 47.7935C19.913 47.7903 19.9785 47.7872 20.044 47.7839C19.9784 47.7837 19.9129 47.7834 19.8475 47.7831L20.3761 47.2048C20.5666 49.4243 20.7405 51.4636 20.8834 53.1417C21.1756 56.5712 21.3669 59.0191 21.5169 61.0336L21.1931 60.6586C22.177 60.9118 23.0536 61.1397 23.8916 61.3576C24.6161 61.5459 25.3125 61.7269 26.0235 61.9101C26.6189 62.0318 27.2369 62.1592 27.8609 62.2906C28.7344 62.4743 29.678 62.676 30.5754 62.8704C31.4762 63.0654 32.391 63.2662 33.2888 63.4659C34.1941 63.6673 35.0905 63.8693 35.9824 64.072C36.8216 64.2628 37.6576 64.4545 38.4665 64.64C38.5128 64.6506 38.5591 64.6612 38.6055 64.6719C39.4604 64.8679 40.2922 65.0587 41.0573 65.2299C41.3497 65.2952 41.6238 65.3558 41.8826 65.4122L41.7313 65.3942C41.7914 65.3929 41.8506 65.3915 41.9091 65.3901L41.2587 66.0405C41.2583 66.0262 41.258 66.0118 41.2576 65.9976L41.2502 65.494L41.7566 65.3642C42.0986 65.2731 42.4127 65.1873 42.7067 65.1041C43.4148 64.9039 44.1418 64.7004 44.861 64.5007C45.581 64.3008 46.2984 64.1035 47.0139 63.9081C47.731 63.7123 48.4413 63.5197 49.1538 63.3277C49.3841 63.2656 49.6252 63.2007 49.8536 63.1394C49.9589 63.1111 50.0642 63.0828 50.1692 63.0547C48.7658 63.3903 47.3084 63.7376 45.8018 64.095C44.4901 64.4062 43.1238 64.7256 41.6835 65.0605L40.9342 65.2525L40.9452 65.9976C40.9451 66.0119 40.945 66.0262 40.9449 66.0405L41.9091 65.0763C41.8499 65.0759 41.7907 65.0754 41.7313 65.0749L41.9573 65.1018C41.0781 64.8827 40.1713 64.6562 39.2323 64.4216C34.8722 63.3325 29.8171 62.07 23.596 60.5754ZM62.3647 51.4786C62.3039 52.1029 62.2174 53.0175 62.1058 54.1971C62.0794 54.4759 62.0518 54.7702 62.0226 55.0784C62.0235 55.0712 62.0243 55.0637 62.0251 55.0565C62.1173 54.2944 62.2016 53.5908 62.2905 52.831C62.4488 51.4767 62.6001 50.1607 62.7498 48.8313C62.9001 47.4967 63.047 46.1654 63.1912 44.8324C63.3356 43.4974 63.4774 42.1581 63.6148 40.8304C63.7536 39.4898 63.8875 38.1679 64.0187 36.833C64.036 36.6569 64.0533 36.4806 64.0705 36.3042L64.0756 36.2633C64.1128 36.0152 64.15 35.7669 64.1869 35.5186C64.1454 35.7635 64.1037 36.011 64.0617 36.2612L64.0565 36.3028C63.9738 37.0214 63.8899 37.7628 63.8026 38.5346C63.7084 39.3673 63.6101 40.2358 63.5051 41.149C63.4649 41.4984 63.4146 41.9212 63.3559 42.4145C63.1233 44.3692 62.7581 47.4363 62.3647 51.4786ZM56.1215 35.0236C55.8102 35.0277 55.5007 35.0315 55.1948 35.0346C54.3239 35.0434 53.475 35.0484 52.6429 35.0523C52.0584 35.055 51.4807 35.0569 50.9113 35.059C50.6711 35.0599 50.431 35.0608 50.1933 35.0617C49.7951 35.0633 49.3998 35.0651 49.0074 35.0669C51.7598 35.0858 54.4503 35.1002 57.2542 35.1048C57.2912 35.1048 57.3284 35.1047 57.3657 35.1048C56.9413 35.0771 56.5267 35.0501 56.1215 35.0236Z" fill="#FFD170"/>
</svg>
