<svg width="81" height="80" viewBox="0 0 81 80" fill="none" xmlns="http://www.w3.org/2000/svg">
<path d="M7.91754 71.8153L0.623047 0.387695H80.8625L73.568 71.8153L40.6538 79.8897" fill="#D17D54"/>
<path d="M40.834 73.6785L67.3433 67.3121L73.5703 6.13281H40.834" fill="#FCAB4D"/>
<path d="M40.8303 32.685H27.4867L26.5971 23.6789H40.8303V14.9834H40.6524H15.5664L15.7443 17.3126L18.2351 41.5358H40.8303V32.685ZM40.8303 55.5108H40.6524L29.4437 52.8711L28.7321 45.8836H23.3946H18.7689L20.0143 59.7033L40.6524 64.6721H40.8303V55.5108Z" fill="#FCAB4D"/>
<path d="M40.6543 32.685V41.5358H53.1083L51.8629 52.8711L40.6543 55.5108V64.6721L61.2924 59.7033L61.4703 58.1505L63.7832 35.0142L64.139 32.685H61.2924H40.6543ZM40.6543 14.9834V20.4181V23.6789H65.0286L65.2065 21.8156L65.7403 17.3126L65.9182 14.9834H40.6543Z" fill="#FFF191"/>
</svg>
