<svg width="82" height="81" viewBox="0 0 82 81" fill="none" xmlns="http://www.w3.org/2000/svg">
<path d="M73.388 72.5863C71.551 73.1768 69.701 73.7077 67.7719 74.1643C67.3324 74.2684 67.3527 74.178 67.1697 74.2121C66.8334 74.2747 66.3019 74.5055 66.2242 74.5258C65.7425 74.6529 65.8944 74.4643 65.8281 74.4759C65.0901 74.6085 65.3398 74.7128 64.6524 74.9089C63.7571 75.1643 62.5943 75.438 61.5074 75.714C61.1255 75.8105 61.2674 75.6601 60.4475 75.8841C59.8666 76.0427 58.1113 76.6309 57.2547 76.7169C57.2371 76.6694 57.3269 76.5884 57.3574 76.5267C56.2311 77.0384 55.8066 77.1399 54.1215 77.5277C53.8549 77.5891 53.6262 77.7381 53.1521 77.8292C52.6783 77.9201 52.6249 77.7966 51.6886 78.0431C51.3565 78.1309 51.1787 78.2744 50.6702 78.4115C49.2241 78.8018 46.4349 79.4108 45.2446 79.718C43.4256 80.1873 42.2752 80.5864 40.8726 80.9707L40.4931 80.972C40.085 80.8735 39.659 80.7638 39.1952 80.6332C39.0357 80.5886 39.4135 80.5784 39.1198 80.5017C38.8236 80.4245 38.4812 80.4782 38.4074 80.4628C37.6111 80.2969 35.9911 79.6976 35.5475 79.6078C34.4691 79.3899 35.504 79.7145 34.0215 79.3649C32.61 79.0321 30.713 78.3678 29.3283 77.9807C27.7237 77.532 27.1397 77.6496 25.99 77.0804C21.7162 76.0122 17.4268 74.9338 13.1486 73.8624C13.1739 73.8135 13.2012 73.7651 13.229 73.7168C12.8819 73.667 12.5346 73.6173 12.1876 73.5671C12.2485 73.5413 12.3067 73.5149 12.3675 73.4895C10.742 73.236 9.30744 72.954 7.46284 72.4423C7.42675 72.4323 7.54841 72.3529 7.51905 72.3426C7.37044 72.2974 7.21224 72.2634 7.05369 72.2333L6.70408 72.1471L6.6681 71.7817C6.62465 71.4976 6.56951 71.2164 6.55973 70.9737C6.52244 70.0575 6.6128 68.4873 6.39129 69.1953C6.25529 67.064 5.93058 64.5746 5.80009 62.5435C5.74352 61.6646 5.88775 61.3865 5.85905 60.966C5.8303 60.546 5.70523 60.7726 5.68605 60.6242C5.57204 59.7328 5.44325 58.2604 5.59089 58.0905C5.50979 57.9166 5.42694 57.7323 5.3452 57.5559C5.53442 57.6464 5.20723 54.8894 5.14523 54.1639C5.13391 54.0314 5.21088 54.0057 5.20093 53.9059C5.08889 52.7931 4.94068 52.532 4.81236 51.5817C4.76726 51.2483 4.95339 51.7547 4.81487 50.9008C4.80276 50.8263 4.68187 50.8775 4.58868 49.8508C4.43984 48.2118 4.10342 45.081 3.98623 43.1242C3.97642 42.9639 4.15672 43.4382 4.05813 42.7099C4.02264 42.4461 3.93787 42.5817 3.87829 41.9397C3.64646 39.4518 3.51438 36.7883 3.19002 34.2584C3.30733 34.341 3.51219 35.2339 3.3195 33.8811C3.28834 33.665 3.20599 33.836 3.19346 33.7389C3.09311 32.9522 3.09988 32.2615 2.98435 31.4106C2.95 31.1593 2.86794 31.1036 2.82105 30.7905C2.75162 30.3283 2.84162 30.1128 2.74603 29.5774C2.59608 28.7401 2.48098 28.6192 2.58753 27.5541C2.0317 21.6244 1.43427 15.7261 0.982282 9.80703C0.768007 8.1035 0.559032 6.53257 0.373866 4.75332C0.319411 4.22929 0.44836 4.11633 0.325991 3.28371C0.298797 3.09726 0.0281468 1.7739 0.289438 1.55347C0.240776 1.24391 0.217188 1.02875 0.184924 0.7802L0.131856 0.241339L0.680145 0.237571C0.72896 0.235726 0.779067 0.233667 0.831434 0.231234C0.781261 0.222752 0.730757 0.214251 0.680145 0.205736L0.0967554 0.209744L0.153221 0.783103C0.138335 0.980142 0.123376 1.1788 0.107421 1.36625C0.0959402 1.1694 0.0819078 0.978021 0.0658371 0.791103L7.14073e-06 0.12266L0.680145 0.117986C1.7822 0.124079 2.73908 0.0461078 3.76382 0.0061298C4.64666 -0.0281305 4.01981 0.0920698 4.56155 0.0799844C5.10344 0.0682887 5.34985 0.0412434 6.02719 0.185212C6.55897 0.0191199 6.9125 0.135609 7.89334 0.140045C7.99869 0.140445 8.60792 0.0760364 9.11711 0.0888958C9.48328 0.098169 9.5918 0.20175 10.1733 0.1857C10.2687 0.18328 11.4983 0.0549411 11.8897 0.0432402C12.4994 0.0246878 13.4682 0.157475 13.5861 0.159088C15.2994 0.182457 15.9598 0.0513658 17.1765 0.267124C17.4223 0.1389 18.4376 0.063853 19.2579 0.0763222C20.294 0.0920512 22.3716 0.354231 22.6551 0.0771767C23.8542 0.200574 23.724 0.124416 25.1459 0.121978C26.4404 0.119558 29.8674 0.225537 30.9164 0.210237C31.9651 0.195315 31.4541 0.0412256 31.8706 0.0206566C32.5522 -0.0135387 32.184 0.100152 32.6505 0.0985396C33.9701 0.0936984 35.1169 0.0719706 36.3762 0.0223656C36.4439 0.10219 36.5168 0.182416 36.587 0.262241C36.6522 0.235639 36.7171 0.209006 36.7823 0.182404C37.0532 0.183211 37.3569 0.181572 37.6078 0.183991C35.4908 -0.166427 39.6525 0.20991 40.9018 0.218782C41.9556 0.22604 43.7095 0.0598474 44.8661 0.0239526C45.1467 0.0151231 44.9538 0.10138 45.0114 0.0993942C45.6888 0.074792 45.7916 0.0158863 46.7023 0.0239526C47.1839 0.0283936 47.6755 0.13641 48.1446 0.138458C51.5891 0.152977 54.9134 0.0444438 58.3353 0.0327419C58.9173 0.0307255 59.4194 0.162587 59.9086 0.165436C60.6083 0.169468 61.05 0.0615042 61.707 0.0598423C62.3618 0.0582291 63.3055 0.187256 63.7496 0.167511C64.1937 0.148152 63.4338 0.0231191 64.2467 0.0574008C64.62 0.0731551 63.9606 0.166265 64.422 0.169098C65.8619 0.177971 67.894 0.062658 69.4269 0.174347C69.3591 0.146527 69.2667 0.12149 69.1839 0.0948774C70.8171 0.105769 72.2599 0.172725 73.9458 0.182404C74.5354 0.186003 75.5987 0.10426 76.1781 0.104643C76.7576 0.105047 77.0212 0.193742 77.4851 0.196199C77.6758 0.197409 77.6013 0.117923 77.7292 0.119536C78.9012 0.134909 79.6859 0.214918 80.6801 0.250309L81.2152 0.246633L81.162 0.785765C81.111 1.1457 81.063 1.5341 81.0201 1.98048C80.4338 8.09178 79.8194 14.3924 79.2174 20.5979C79.1931 20.8475 79.2784 21.0261 79.2552 21.3918C79.2195 21.9551 79.1256 21.973 79.1145 22.0475C79.0428 22.5342 79.1481 22.3437 79.0788 22.9998C78.9262 24.4444 78.6054 26.7668 78.4598 28.2071C78.1241 31.5268 77.9097 34.3246 77.6065 37.5822C77.585 37.8171 77.4799 37.6452 77.4353 38.0517C77.1197 40.9166 77.1723 41.5356 76.7626 45.0997C76.3528 48.664 75.5676 55.3902 75.1096 59.5648C75.1093 59.5648 75.1091 59.5648 75.1088 59.5647C75.1953 60.9033 74.9595 62.5983 74.64 63.9924C74.9443 55.7902 76.0147 48.0248 76.9114 39.3251C77.8542 30.1814 78.4797 20.3937 79.5131 11.136C79.6103 10.2658 79.7756 9.92955 79.8263 9.19321C79.8348 9.06872 79.702 9.37931 79.7322 8.99696C79.948 6.28916 80.2693 3.49928 80.5958 0.72595L80.6801 0.819712C78.0551 0.788347 75.444 0.750819 72.9373 0.781298C71.5425 0.798237 71.3237 0.909158 70.097 0.937797C70.3127 0.885382 70.4537 0.830575 70.6418 0.777758C65.0421 0.614013 59.4344 0.687011 53.762 0.663619C53.5061 0.662384 53.4734 0.553879 53.205 0.549846C52.6682 0.541395 52.154 0.660774 51.685 0.66484C51.0729 0.670083 50.9669 0.583752 50.4024 0.589398C50.1269 0.592287 50.2093 0.675254 49.6102 0.661178C49.5601 0.659968 49.5273 0.572923 49.1287 0.584149C48.0375 0.615201 45.8071 0.68822 44.9038 0.710007C43.75 0.73783 42.8241 0.606708 42.3875 0.598188C41.2085 0.575203 41.233 0.709472 40.235 0.709519C33.1301 0.710326 26.3379 0.557548 19.0648 0.558758C18.6079 0.558818 16.918 0.708308 16.0725 0.702317C15.7892 0.699898 14.3074 0.660412 14.0854 0.657149C13.1848 0.644647 12.4064 0.554275 11.9097 0.53532C10.9464 0.498248 9.86997 0.639372 9.34567 0.653487C8.42503 0.67848 6.78997 0.659929 6.4033 0.656295C5.47002 0.647422 5.77838 0.472856 5.10853 0.513591C4.91063 0.525759 5.11789 0.659591 4.42064 0.659591C3.83643 0.659133 3.6001 0.558347 3.20131 0.540203C2.80248 0.522165 2.07079 0.678027 1.82221 0.674118C1.37761 0.666667 1.0178 0.649811 0.680145 0.630648L0.565242 0.631437L0.576364 0.744364C0.598861 1.39432 0.605395 1.9635 0.686826 2.89081C0.789942 4.06121 1.35623 9.4631 1.43394 9.90941C1.78161 11.9083 1.4013 8.5611 1.3895 8.37152C1.32768 7.34681 1.40402 7.49056 1.19104 6.48229C1.47665 5.53658 0.61101 2.41105 0.974226 1.5565C0.846217 1.27344 0.77257 1.00174 0.730023 0.730297L0.680145 0.78495C1.19561 0.75182 1.70016 0.828068 2.28154 0.866506C3.51255 0.947889 2.57511 0.777259 3.47313 0.776049C3.8272 0.775732 4.85309 0.908735 5.38479 0.890188C5.91637 0.871598 6.14031 0.769609 6.85264 0.763964C8.12431 0.753495 9.14806 0.801095 10.2166 0.92327C10.4123 0.869241 10.5949 0.815185 10.788 0.761156C11.5256 0.819233 12.2661 0.87695 13.0037 0.934623C12.8857 0.887435 12.7677 0.839839 12.6497 0.792651C12.8655 0.785795 13.0819 0.779328 13.2977 0.772875C14.0151 0.843852 14.7004 0.909567 15.4379 0.982964C17.442 0.710007 16.8603 0.946254 17.9742 0.981744C19.0878 1.0172 19.7323 0.859179 20.5926 0.858327C21.7516 0.857117 22.2839 0.837394 23.4529 0.848683C24.1302 0.855136 25.2793 1.00761 24.336 0.766039C26.4509 0.74668 29.3465 0.679265 31.2382 0.77727C31.7967 0.805866 31.052 0.881951 31.1472 0.891409C31.6212 0.936166 32.0206 0.81282 32.5096 0.830494C33.3224 0.859932 34.9053 0.955965 35.5452 0.97857C36.466 1.01124 37.9135 0.851468 38.0615 0.839772C38.8891 0.774872 39.1105 0.907521 39.3763 0.898367C40.889 0.845133 41.2229 0.789423 41.6996 1.06927C42.0912 0.948276 43.7318 0.744684 44.1282 0.948295C44.1384 0.764414 45.5004 0.795413 46.3384 0.749437C46.4939 0.802675 46.6521 0.855591 46.8077 0.909232C48.5562 0.58014 52.0383 0.819192 54.3389 0.858327C54.3966 0.859133 54.4997 0.721312 54.8459 0.752367C54.8679 0.754914 54.8322 0.816849 55.0645 0.824879C55.8297 0.850704 58.7494 1.00541 59.0853 1.00677C60.3222 1.01201 60.5383 0.909145 61.291 0.899466C62.2818 0.886562 62.425 0.979393 63.368 0.966118C63.8094 0.96007 64.2111 0.837884 64.9057 0.855153C65.3169 0.865231 65.3577 0.961188 65.6835 0.968926C66.8425 0.996754 67.6938 0.936198 68.7224 1.06121C68.9908 0.755974 69.4824 0.980958 69.9916 1.00396C72.0588 1.09793 74.6352 0.968943 76.4089 0.996759C77.8694 1.01985 79.2863 1.04997 80.6801 1.08256L80.3344 0.698338C79.8355 4.55522 79.3363 8.23236 78.8872 12.1866C78.7881 13.0592 78.9183 13.2856 78.812 14.2003C78.764 14.6114 78.6089 15.0241 78.5361 15.6974C78.4774 16.2384 78.4515 17.0199 78.3798 17.6957C78.3608 17.8754 78.2556 17.8804 78.2269 18.1448C78.009 20.1499 77.8756 22.1164 77.7121 24.1474C77.6516 24.9002 77.4655 25.35 77.7175 25.248C77.6287 25.5287 77.5482 25.8023 77.462 26.0656C77.5033 27.1144 77.2574 27.9414 77.1484 29.3426C77.137 29.4937 77.1906 30.5661 77.0083 31.1519C77.0888 31.2033 77.1708 31.118 77.246 31.1436C77.216 31.7382 77.0219 32.6362 76.9696 33.0344C76.9175 33.4321 76.9997 33.7107 76.9881 33.8308C76.9427 34.2876 76.8087 34.1659 76.8026 34.2005C76.4387 36.3137 76.5397 36.0978 76.6218 37.4057C76.6427 37.7334 76.2524 39.9009 76.3777 40.361C76.3055 40.3735 76.2566 40.2452 76.1934 40.2032C76.106 40.8574 76.0176 41.5167 75.93 42.1735C76.0121 42.0409 76.0973 41.8803 76.1785 41.7602C75.9779 43.0986 76.0186 44.2334 75.8972 45.3329C75.8276 45.9613 75.6868 45.8689 75.6803 46.2416C75.6791 46.3146 75.7926 46.203 75.778 46.4182C75.6587 48.174 75.4715 48.929 75.2664 50.6784C75.1701 51.4981 75.2771 52.2357 75.0324 53.4004C75.0098 53.5068 74.7254 54.6447 74.8826 55.3828C74.7853 55.6021 74.7255 55.7982 74.6459 55.9613C74.8386 57.4424 74.5423 57.0074 74.2557 58.9525C74.1073 59.959 73.8086 63.3656 73.7293 64.4696C73.6826 65.1273 73.8196 65.1296 73.8126 65.2471C73.7701 65.9489 73.6385 65.9356 73.5919 66.5838C73.5453 67.2323 73.6079 68.0643 73.5241 68.7266C73.4599 69.2338 73.3388 68.8158 73.3164 69.5726C73.3123 69.7294 73.498 69.2998 73.3599 70.0859C73.3383 70.2098 73.0546 71.4592 72.9947 71.7153C72.9781 71.0399 73.0685 69.0968 73.1099 68.3671C73.8209 55.8005 76.4749 30.6156 77.9617 17.2734C78.0995 16.0343 78.328 15.2387 78.4258 14.4317C78.5236 13.6247 78.3206 14.2943 78.4089 13.5619C78.4976 12.8296 78.6464 12.3049 78.7269 11.6197C79.1557 7.97216 79.5889 4.30306 80.0032 0.663351L80.6801 1.41562C79.7039 1.40771 78.7299 1.40092 77.7592 1.39557C76.5625 1.38912 75.6061 1.49604 74.5172 1.49604C74.0935 1.49598 74.0804 1.35811 73.7794 1.35932C70.5357 1.37022 67.535 1.50289 64.3088 1.48676C62.9692 1.47989 61.5218 1.36374 60.1948 1.35285C59.1012 1.34357 57.9673 1.42299 56.9839 1.42463C56.4501 1.42584 56.1686 1.32083 55.9754 1.31256C55.303 1.28514 55.538 1.4134 55.1943 1.4134C54.2462 1.41296 53.7746 1.25811 52.8866 1.2702C52.538 1.27504 52.5828 1.37372 52.0766 1.3891C51.4346 1.40846 51.6721 1.31742 51.2135 1.31415C51.1859 1.31375 51.2758 1.38431 51.0326 1.38715C49.4671 1.4057 47.5125 1.46133 46.0022 1.45649C42.8788 1.44681 39.7956 1.31087 36.8855 1.28424C36.1504 1.27779 36.3455 1.36977 36.1122 1.37421C34.9885 1.39515 34.5871 1.28513 33.4106 1.32465C33.2148 1.33112 32.4268 1.45848 31.6742 1.42621C31.2679 1.40885 30.8065 1.32941 30.4604 1.31085C30.1143 1.29231 30.0588 1.40929 29.6427 1.40937C28.8851 1.40977 29.1054 1.32869 28.0217 1.3432C27.5853 1.34885 26.1278 1.45968 25.0039 1.45124C23.1675 1.43753 20.8915 1.33627 18.7264 1.33466C17.9838 1.33385 17.0299 1.45406 15.8784 1.45527C14.4709 1.45687 11.8777 1.42954 10.4352 1.42792C9.6976 1.42712 9.64428 1.3012 9.55647 1.29596C8.99245 1.26094 9.22022 1.40161 8.84196 1.39606C8.32263 1.3884 7.83799 1.28463 7.36633 1.27777C7.06545 1.27339 7.01771 1.37707 6.95249 1.37787C4.76667 1.40892 2.81131 1.40391 0.680145 1.41107L1.35354 0.673215C1.37451 0.894147 1.3958 1.11698 1.41748 1.34212C2.64958 14.1457 3.96599 27.0651 5.07653 39.8547C5.16983 40.9269 5.04335 40.9792 5.15005 41.9191C5.25636 42.8592 5.6208 43.7433 5.38124 44.5463C5.44619 44.5655 5.49063 44.559 5.54995 44.5787C5.63978 46.5329 5.9094 48.4709 6.09493 50.3736C6.23234 51.7817 6.33674 53.0321 6.44906 54.3342C6.54823 55.4884 6.42995 55.3988 6.66387 56.3846C7.02918 61.357 7.51024 66.3726 7.81263 71.3079C7.84855 71.428 7.88015 71.5479 7.90808 71.6682L7.35992 71.0263C8.39572 71.1426 9.37388 71.5159 10.7555 71.8984C10.9463 71.9514 10.7615 71.8163 11.3286 71.9676C12.0409 72.1576 12.3785 72.378 13.5834 72.6763C13.9025 72.7552 16.2976 73.2135 17.1523 73.5069C18.0071 73.8003 19.2609 74.1634 20.1504 74.4623C20.0353 74.3753 19.8853 74.2819 19.7554 74.1919C20.2101 74.2973 20.6671 74.4037 21.1218 74.509C21.1709 74.591 21.2201 74.673 21.2666 74.7547C21.545 74.7592 21.8234 74.7645 22.1044 74.7688C22.5907 75.2492 22.0326 74.9911 23.3257 75.2289C23.9735 75.3484 24.4645 75.5353 25.1272 75.6673C25.3661 75.7146 25.5419 75.6541 25.805 75.7074C26.4497 75.8385 26.0439 75.8802 26.4376 75.9794C26.8343 76.0788 27.4412 76.0739 28.1344 76.3205C27.3256 76.3986 29.4902 76.8554 29.6448 76.6745C29.9 76.7388 30.1116 76.8017 30.3949 76.8673C30.0022 77.3236 31.4319 77.2919 31.9801 77.3548C32.5281 77.4178 32.471 77.5527 32.5964 77.5787C32.9575 77.6541 32.7121 77.5298 32.9629 77.5913C34.6244 78.0004 36.1641 78.4823 37.7987 78.9054C38.0339 78.9662 37.8452 78.8339 38.1177 78.9114C38.3905 78.9889 38.6338 79.1347 39.0413 79.2322C39.1506 79.2585 39.2025 79.1975 39.3723 79.2405C39.8638 79.3657 40.3517 79.4911 40.837 79.6167L40.5188 79.6178C43.5471 78.8411 46.4943 78.1184 49.6172 77.3099C49.945 77.225 50.17 77.0341 50.8045 76.8727C51.439 76.7114 52.4292 76.5716 53.2178 76.3745C53.4272 76.3223 53.4569 76.2045 53.7343 76.1349C54.6783 75.898 55.5113 75.7697 56.4929 75.5276C58.1516 75.1183 59.8655 74.603 61.5584 74.2252C61.8792 74.1534 61.8509 74.2526 62.3157 74.1569C63.1179 73.9917 62.7874 73.9443 62.9432 73.8856C63.4531 73.6944 63.6613 73.8177 64.1571 73.6423C64.2329 73.6154 64.0965 73.5456 64.1657 73.5259C65.2388 73.2269 65.3559 73.4434 66.4691 73.0197C67.5227 72.8863 65.8328 73.3767 65.6766 73.493C65.2947 73.7763 66.4756 73.6829 67.1576 73.5738C67.7449 73.4798 67.7127 73.374 67.9407 73.3143C69.1468 72.9985 70.9377 72.5084 71.8685 72.3191C72.4323 72.2042 71.4421 72.5107 71.7352 72.4716C72.0259 72.433 72.1871 72.3051 72.4988 72.3173C72.8106 72.3295 73.4674 72.4338 73.388 72.5863ZM3.56253 35.3106C4.17057 37.1747 4.58746 42.2275 4.79426 44.942C4.96557 47.1937 4.80883 49.1628 5.25064 48.6538C5.03133 46.2228 4.80276 44.2612 4.58228 41.6892C4.55941 41.4218 4.45839 39.8233 4.41564 39.2679C4.39149 38.9553 4.47059 38.9379 4.4309 38.5133C4.42203 38.4209 4.27061 37.9181 4.25626 37.7305C4.20676 37.0878 4.19245 35.164 4.16342 34.898C4.0821 34.1601 3.98371 34.4551 3.93192 34.1381C3.7591 33.0732 3.93505 32.9379 3.7772 31.8817C3.74897 31.6928 3.52857 31.0781 3.47781 30.2892C3.45738 29.9685 3.49155 29.4162 3.46512 29.1717C3.32129 27.8397 3.07366 26.3606 2.98029 25.1373C2.90389 24.1344 3.05419 24.3922 3.02257 23.8611C2.99049 23.33 2.78623 22.7038 2.74464 22.3423C2.67836 21.764 2.69661 21.0519 2.67894 20.8721C2.33011 17.3318 1.94574 14.1902 1.59832 10.7756C1.75336 13.1019 1.91289 15.425 2.06456 17.7364C2.31453 19.0336 2.13286 18.3931 2.17119 19.2586C2.20149 19.9434 2.43701 20.0883 2.49467 20.987C2.4946 20.9863 2.49454 20.9856 2.49447 20.9848C2.52393 21.4482 2.46301 22.464 2.61699 23.4425C2.62262 23.4773 2.74504 23.5545 2.81652 24.2911C2.97699 25.9465 3.26802 28.4792 3.41416 30.3451C3.45702 30.8929 3.32668 30.7925 3.37106 31.4409C3.40352 31.9139 3.56466 32.4505 3.60748 33.1919C3.6606 34.1217 3.51023 34.5838 3.83404 35.1966C3.74406 35.2578 3.64919 35.2397 3.56253 35.3106ZM21.5212 75.4251C21.6453 75.4675 23.2693 76.1865 22.8442 75.7508C20.5971 75.0384 18.1142 74.4791 15.7331 73.795C16.4753 74.3075 17.8922 74.5392 19.5806 74.9439C19.5814 74.9441 19.5821 74.9443 19.5828 74.9445C19.6625 74.9636 19.3102 74.9589 19.7655 75.0591C19.9861 75.1076 20.8565 75.1986 21.5212 75.4251ZM16.1216 15.1683C16.2168 15.9357 16.3048 16.7033 16.3846 17.4741L16.3824 17.4488C16.5739 18.9192 16.7356 20.4019 16.8608 21.9176C16.9044 22.4434 16.8174 22.4024 16.8264 22.6195C16.8427 23.0185 16.9994 23.6748 17.009 23.7681C17.0697 24.3469 16.9032 24.1354 16.9057 24.2139C16.9368 25.0885 17.0743 24.8217 17.1754 25.6506C17.3071 26.73 17.4206 28.1208 17.5466 29.4247C17.5904 29.8826 17.4604 29.6901 17.5712 30.6768C17.6496 31.3758 17.9946 33.5093 17.9634 34.5113C17.9139 34.5222 17.8457 34.4031 17.7885 34.356C18.1432 35.7511 18.1862 36.2591 18.3418 38.2729C18.3665 38.5915 18.4833 38.8835 18.5092 39.4465C18.535 40.0092 18.405 40.0465 18.5224 41.1715C18.5427 41.3655 18.5812 41.5202 18.623 41.6982L17.9155 41.0598C18.1071 41.0351 18.325 41.0093 18.641 41.0072C20.3906 40.9955 23.7228 41.1121 25.1588 41.1161C27.9868 41.1242 29.5255 40.964 32.037 41.0197C32.2304 41.0237 31.8055 41.1265 32.1601 41.1286C32.5176 41.1306 32.89 40.9943 32.9779 40.9911C33.9272 40.956 35.9336 41.1386 36.4617 41.1165C37.7453 41.0624 36.4804 41.0024 38.2593 40.9766C39.9532 40.952 42.2919 41.1294 43.971 41.1641C45.9168 41.2044 46.5442 40.9467 48.0095 41.2157C49.6009 41.2109 51.1943 41.2066 52.7885 41.2026L53.4194 41.1989L53.3536 41.8331C52.9736 45.3738 52.5917 48.919 52.2126 52.4575C52.1609 52.437 52.1094 52.4143 52.058 52.3909C52.0532 52.6476 52.0485 52.9042 52.0436 53.1609L52.0072 53.5116L51.6588 53.5958C51.5142 53.644 51.3697 53.6921 51.2251 53.7402C51.2758 53.6873 51.3235 53.635 51.3743 53.5824C49.5473 54.1709 47.9055 54.6392 45.7198 55.1104C45.677 55.1197 45.7644 54.9893 45.7285 54.9949C45.2332 55.0908 44.7038 55.3 44.2686 55.3826C43.2168 55.5826 41.3947 55.7722 42.2388 55.8663C41.6626 55.9878 41.0647 56.1232 40.4569 56.2657L40.3344 56.2799C40.3338 56.2799 40.3331 56.2799 40.3325 56.2799L40.21 56.2657C38.2444 55.8007 36.1526 55.3556 34.3956 54.8985C33.4 54.6396 33.1388 54.4045 32.662 54.2822C32.1855 54.1601 32.3959 54.3588 32.2247 54.3242C31.1961 54.1151 29.5168 53.7135 29.3771 53.5136C29.2611 53.5214 29.1418 53.5287 29.0223 53.5359L28.718 53.4662L28.684 53.1507C28.6428 53.0512 28.6015 52.9515 28.5605 52.8539C28.7524 52.9604 28.3501 49.7426 28.2684 48.8959C28.2535 48.7413 28.3299 48.7118 28.3172 48.5952C28.188 47.4163 28.048 47.056 27.9079 46.17L28.4126 46.6259C28.3215 46.631 28.225 46.6355 28.1217 46.6393C27.729 46.6538 28.338 46.5146 27.3298 46.5747C27.242 46.58 27.2886 46.705 26.0843 46.7042C24.2313 46.703 20.7476 46.7491 18.4487 46.6971L19.0249 46.0667C19.0307 46.1527 19.0362 46.2371 19.0414 46.3197C19.0534 46.5069 18.8664 45.9505 18.975 46.8019C19.0142 47.1103 19.0972 46.9534 19.1657 47.7035C19.4318 50.6103 19.6005 53.7201 19.9599 56.6773C19.8413 56.579 19.6239 55.5337 19.8354 57.1153C19.8695 57.3681 19.9497 57.1699 19.9635 57.2834C20.0707 58.1688 20.0771 58.9487 20.1911 59.8932L19.8114 59.4535C19.8474 59.4611 19.8837 59.4685 19.9202 59.4759C20.2107 59.5342 20.3 59.4769 20.6633 59.5457C21.1995 59.647 21.4084 59.8097 22.0346 59.9127C23.0142 60.0735 23.1871 60.0086 24.333 60.4935C29.7243 61.7809 35.1023 63.0362 40.4646 64.3582L40.3325 64.3425C40.3917 64.3428 40.451 64.3432 40.5102 64.3435L39.947 64.9067C39.9471 64.8924 39.9472 64.8781 39.9472 64.8638L39.9446 64.4236L40.3785 64.3164C41.6788 64.0113 42.9801 63.7102 44.283 63.4143C46.2182 62.8887 48.0014 62.3927 50.0276 61.8821C50.6244 61.7318 50.7713 61.8391 51.7149 61.5647C51.9262 61.5035 53.4161 60.9917 53.7039 61.2107C54.1226 61.085 54.3906 61.0197 54.7518 60.9174C54.4658 60.9439 54.1708 60.9722 53.8961 60.9956C55.4452 60.6687 56.6784 60.2702 58.0294 59.8968C59.024 59.6222 58.3402 59.9104 58.9527 59.7505C59.5654 59.591 59.8389 59.4974 60.6418 59.4521C60.7068 59.4169 60.77 59.3859 60.8326 59.3582L60.3797 59.8698C60.3505 59.4208 60.4494 59.0441 60.5535 58.3165C60.5685 58.2008 60.5844 58.0659 60.5997 57.9186C60.6124 57.7962 60.619 57.0816 60.691 56.491C60.7428 56.0663 60.8584 55.9505 60.91 55.2729C60.9187 55.1619 60.9339 53.7198 60.9677 53.2637C61.0201 52.5532 61.2648 51.4403 61.2801 51.3034C61.5024 49.3143 61.4486 48.5337 61.8047 47.1409C61.7057 46.8424 61.7489 45.6548 61.8567 44.7026C61.9927 43.4998 62.4949 41.111 62.2522 40.7539C62.5143 39.3724 62.4234 39.5161 62.5862 37.8631C62.6456 37.2584 62.7625 36.2551 62.888 35.192L62.8918 35.1623C63.0265 34.3741 63.1677 33.5528 63.2878 32.8384L63.8188 33.4566C63.0998 33.4457 62.4881 33.4395 62.123 33.4441C60.8979 33.459 61.4948 33.6131 61.0084 33.6336C60.2121 33.6678 60.6422 33.5541 60.0972 33.5558C58.5558 33.5606 57.2162 33.5823 55.7451 33.6319C55.666 33.5521 55.5809 33.4719 55.4988 33.3921C55.4227 33.4187 55.3469 33.4453 55.2707 33.4719C54.9542 33.4711 54.5995 33.4727 54.3065 33.4703C56.7794 33.8207 51.9179 33.4444 50.4585 33.4355C49.2276 33.4283 47.1787 33.5944 45.8277 33.6303C45.4998 33.6392 45.7252 33.5529 45.6579 33.5549C44.8666 33.5795 44.7466 33.6384 43.6827 33.6303C43.1201 33.6259 42.5458 33.5179 41.9979 33.5158C37.9742 33.5013 34.0909 33.6099 30.0936 33.6216C29.4138 33.6236 28.8273 33.4917 28.2558 33.4889C27.8387 33.4868 27.5001 33.5139 27.1665 33.5412L26.6068 33.5445L26.5477 32.9806C26.4902 32.6645 26.433 32.3531 26.3953 31.9791C26.3185 31.2181 26.3385 30.1084 26.2679 29.5941C26.1976 29.0798 26.1604 29.9754 26.1012 29.0271C26.074 28.5915 26.2424 29.3489 26.1922 28.8123C26.0629 27.4286 25.8028 25.5833 25.6797 23.9726L25.6111 23.3175L26.2768 23.3136C26.6166 23.3211 26.9454 23.3336 27.2566 23.3531C27.1775 23.3252 27.0695 23.3002 26.9728 23.2736C28.8806 23.2845 30.5661 23.3514 32.5354 23.3611C33.2242 23.3647 34.4662 23.283 35.1431 23.2834C35.8199 23.2838 36.1279 23.3725 36.6698 23.3749C36.8926 23.3761 36.8055 23.2966 36.955 23.2982C38.8244 23.3192 39.8501 23.4607 41.8074 23.4446C48.9788 23.3857 56.3735 23.3349 63.6562 23.2816C63.9491 23.2795 64.1462 23.176 64.5739 23.1607C64.622 23.1589 64.6668 23.1578 64.7085 23.1572L63.9555 23.8418C63.9985 23.3143 64.0802 23.2882 64.0909 23.2074C64.1655 22.6377 64.0589 22.8628 64.1321 22.0956C64.1357 22.0574 64.1394 22.0187 64.1433 21.9794L64.1451 21.9624C64.2954 20.7154 64.5434 18.9606 64.7388 17.4665L64.736 17.4951C64.7833 16.9605 64.8253 16.4591 64.8567 16.0261C64.8777 15.7363 64.898 15.4498 64.9179 15.1664L65.5981 15.9005C62.0707 15.9228 59.001 15.9947 55.4643 16.0324C55.1889 16.0357 55.3757 15.9131 54.898 15.9115C51.5312 15.8986 50.8185 16.016 46.6279 15.9829C42.4369 15.9498 34.5269 15.8756 29.6211 15.8586C29.6211 15.8583 29.6211 15.858 29.6211 15.8578C28.0768 16.0844 26.0787 16.028 24.42 15.8567C33.9857 15.2977 43.1381 15.5464 53.3544 15.5243C57.359 15.5157 61.4623 15.4538 65.5981 15.3825L65.4344 15.2058C65.3886 15.9822 65.3431 16.7597 65.2975 17.538C65.1467 19.0354 64.9952 20.5406 64.8418 22.045C64.7927 22.6683 64.7434 23.2904 64.6936 23.9122L64.7085 23.8986C60.6477 23.9603 56.6002 24.0017 52.6281 23.9815C51.6053 23.9763 51.1944 23.8472 50.3328 23.8742C50.1872 23.8788 50.5643 23.9782 50.1164 23.9883C43.9621 24.1238 37.4003 23.8971 31.3573 23.96C29.7279 23.9769 29.4724 24.0879 28.0394 24.1165C28.2914 24.0641 28.4561 24.0093 28.6758 23.9565C27.8763 23.9365 27.0767 23.92 26.2768 23.9064L26.2689 23.9065L26.2697 23.9143C26.5149 26.9154 26.8018 29.9162 27.0987 32.9261L27.1052 32.9879L27.1665 32.9875C29.913 32.988 32.6679 32.9809 35.4359 32.9907C35.7348 32.9919 35.773 33.1004 36.0866 33.1045C36.7136 33.1129 37.3142 32.9935 37.8622 32.9895C38.5772 32.9842 38.701 33.0705 39.3604 33.0649C39.6822 33.062 39.586 32.979 40.2858 32.9931C40.3444 32.9943 40.3827 33.0814 40.8483 33.0701C42.123 33.0391 44.7284 32.9661 45.7836 32.9443C47.1314 32.9165 48.213 33.0476 48.7231 33.0561C50.1002 33.0791 50.0716 32.9448 51.2374 32.9448C55.4855 32.9444 59.6379 32.9842 63.8188 33.023L63.7164 32.9038C63.5909 33.6781 63.4653 34.4535 63.3397 35.2307C62.991 38.433 62.6452 41.6599 62.3143 44.975C62.2612 45.5061 62.2137 47.4853 62.1095 48.4674C62.0741 48.7965 61.8627 50.5149 61.8337 50.7726C61.7166 51.8183 61.5362 52.7139 61.4597 53.2894C61.3108 54.4055 61.3262 55.6707 61.2793 56.2815C61.2351 56.8593 61.1542 57.6768 61.0814 58.3783C61.0102 58.977 60.9461 59.4918 60.9206 59.6986C60.9101 59.7838 60.8996 59.86 60.8891 59.9284L60.9526 59.8567C60.1594 60.0168 60.3674 59.8174 59.6754 60.0226C59.4535 60.0885 59.7202 60.162 58.9283 60.3526C58.2647 60.5119 57.9727 60.4785 57.5156 60.5699C57.0584 60.6614 56.2639 61.0129 55.9806 61.0771C54.4996 61.4112 53.8226 61.4692 52.2144 61.8509C50.8791 62.1682 44.7277 63.7225 44.2235 63.8817C41.9652 64.594 45.773 63.6017 45.9899 63.5551C47.1627 63.3056 47.0069 63.4078 48.1412 63.0111C49.2679 63.1211 52.7574 61.6875 53.7891 61.8913C54.6808 61.3755 55.5221 61.3248 56.5473 61.1386C57.9644 60.8811 56.8599 60.9715 57.8795 60.7248C58.2815 60.6277 59.4777 60.4766 60.0773 60.3132C60.4472 60.2123 60.6766 60.1126 60.988 60.0039L61.0338 59.9932L61.0395 59.9457C61.0426 59.7413 61.0533 59.5061 61.0876 59.1894C61.1174 58.9129 61.1482 58.6467 61.1801 58.3886C61.302 57.2658 61.4493 56.2956 61.649 55.296C61.6179 55.0632 61.5854 54.8456 61.5541 54.6157C61.6975 53.7642 61.841 52.9092 61.9841 52.0576C61.9234 52.19 61.8623 52.3225 61.8017 52.4549C61.8199 52.2034 61.8386 51.9512 61.8573 51.6998C62.0113 50.8729 62.1563 50.0829 62.315 49.233C62.2762 46.8764 62.4437 47.5759 62.6084 46.2848C62.7731 44.9939 62.6908 44.229 62.7899 43.229C62.9233 41.8816 62.9655 41.261 63.1126 39.9033C63.1977 39.1166 63.4829 37.7962 63.1329 38.8686C63.2331 37.7801 63.3417 36.5131 63.4591 35.2491C63.5745 34.4556 63.6933 33.6636 63.8133 32.9186C63.0674 32.9188 62.3619 32.9043 61.7471 32.877C61.0947 32.8484 61.9646 32.7723 61.8534 32.7629C61.2996 32.7181 60.8331 32.8415 60.2618 32.8238C59.3124 32.7944 57.4634 32.6983 56.7158 32.6757C55.6403 32.6431 53.9493 32.8028 53.7764 32.8145C52.8097 32.8794 52.551 32.7468 52.2406 32.7559C50.4735 32.8092 50.0834 32.8649 49.5266 32.585C49.0692 32.706 47.1527 32.9096 46.6896 32.706C46.6777 32.8899 45.0866 32.8589 44.1078 32.9049C43.9261 32.8516 43.7413 32.7987 43.5596 32.7451C41.517 33.0742 37.4494 32.8351 34.762 32.796C34.6946 32.7952 34.5741 32.933 34.1697 32.9019C34.1441 32.8994 34.1857 32.8374 33.9144 32.8294C33.0205 32.8036 29.6099 32.6489 29.2175 32.6475C28.1023 32.6435 27.6974 32.7038 27.1665 32.736L27.349 32.9014C27.3241 32.7461 27.3005 32.5797 27.2786 32.3803C27.152 31.2297 27.2279 31.0541 27.1064 29.9592C27.0497 29.4467 26.882 28.9917 26.8194 28.1825C26.7822 27.7035 26.873 27.6467 26.8433 27.2672C26.7425 25.9762 26.5936 25.0204 26.5863 23.883L26.2768 24.2245C26.3287 24.2293 26.381 24.2344 26.4336 24.2399C26.7472 23.9347 27.3214 24.1597 27.9163 24.1827C30.3311 24.2766 33.3407 24.1477 35.4127 24.1755C41.8776 24.263 47.6101 24.4512 53.9255 24.4936C54.9512 24.5005 55.1984 24.3472 56.2739 24.3569C56.7574 24.3614 57.2558 24.4723 58.0469 24.4739C58.6827 24.4755 59.5937 24.4191 60.3876 24.4195C60.5986 24.4195 60.6174 24.5235 60.9281 24.5244C62.1973 24.5276 63.4504 24.5077 64.7085 24.4806L65.2207 24.4837L65.273 23.9674C65.3187 23.3471 65.3629 22.7254 65.4076 22.1L65.4063 22.112C65.4495 21.6549 65.4931 21.1958 65.538 20.7338C65.6231 19.8558 65.8242 19.3304 65.5684 19.4505C65.6665 19.1228 65.756 18.8035 65.851 18.4961C65.8492 18.1871 65.8652 17.8945 65.8928 17.6034L65.8947 17.5836C65.9321 16.8728 66.0377 16.1679 66.1099 15.2573L66.155 14.7083L65.5981 14.705C65.4021 14.7044 65.1967 14.7061 64.98 14.7112C64.803 14.7159 63.5639 14.8817 62.8609 14.762C62.8111 14.8475 62.9203 14.9201 62.8998 14.9975C62.2053 15.0302 61.1383 14.9314 60.6693 14.9213C60.201 14.9113 59.8874 15.0223 59.7465 15.0234C59.2102 15.0262 59.3352 14.8802 59.2942 14.8778C56.7947 14.7378 57.0578 14.8156 55.5486 15.0346C55.1705 15.0899 52.6046 14.9294 52.0855 15.1024C52.0622 15.0318 52.2052 14.9697 52.2463 14.9024C51.4755 14.8843 50.6987 14.8656 49.925 14.8475C50.0891 14.9152 50.2862 14.9831 50.4357 15.0512C48.8563 14.9923 47.543 15.152 46.2507 15.1468C45.5122 15.1436 45.6022 14.9939 45.1685 15.0266C45.0836 15.033 45.2271 15.1342 44.9754 15.1423C42.921 15.208 42.0209 15.1012 39.9636 15.081C38.9995 15.0714 38.1558 15.2552 36.7727 15.1342C36.6464 15.1229 35.2895 14.9597 34.4515 15.1936C34.1848 15.1197 33.9496 15.081 33.7503 15.0189C32.0534 15.3661 32.5223 15.0258 30.2276 14.9451C29.0402 14.9032 25.0461 14.9641 23.7538 15.0012C22.9842 15.0238 22.9982 15.1603 22.8609 15.1657C22.0404 15.1972 22.0397 15.0649 21.281 15.0866C20.5219 15.1084 19.563 15.2581 18.7835 15.2443C18.1863 15.2338 18.6571 15.0694 17.7752 15.1267C17.5925 15.1391 18.1144 15.2785 17.1842 15.2238C17.0376 15.2154 15.5513 15.0645 15.2466 15.0318C16.0291 14.9443 18.2975 14.8301 19.1503 14.7946C30.2624 14.3308 49.9035 14.2142 65.5981 14.2184L66.6831 14.2248L66.5951 15.2943C66.5349 16.0812 66.4751 16.858 66.4159 17.6233L66.4118 17.665C66.226 19.2179 66.0447 20.723 65.8697 22.167L65.8721 22.1443C65.8101 22.7773 65.7491 23.3986 65.6891 24.0071L65.5982 24.9039L64.7085 24.8986C63.0151 24.8933 61.4204 24.8868 59.9482 24.8796C58.4919 24.8727 57.5396 24.7291 56.5902 24.7166C55.6406 24.7041 56.4435 24.8357 55.5818 24.8248C54.7202 24.8135 54.0925 24.7207 53.2865 24.7126C47.8534 24.6577 42.3792 24.5997 36.99 24.5743C35.592 24.5678 34.4748 24.6748 33.2029 24.6748C32.708 24.6747 32.6926 24.5368 32.341 24.538C30.2644 24.544 28.273 24.5866 26.2768 24.6211L26.981 23.844C27.1712 25.4794 27.3563 27.1186 27.5165 28.8143C27.6399 30.1226 27.6954 31.5268 27.7939 32.8575L27.1665 32.289C27.421 32.2953 27.673 32.2997 27.9214 32.3014C29.199 32.3107 30.5235 32.2313 31.6722 32.2297C32.2958 32.2285 32.6247 32.3335 32.8503 32.3417C33.6357 32.3692 33.3612 32.2409 33.7627 32.2409C34.8703 32.2413 35.4212 32.3962 36.4585 32.3841C36.8657 32.3793 36.8133 32.2806 37.4046 32.2652C38.1547 32.2458 37.8773 32.3369 38.413 32.3401C38.4452 32.3405 38.3401 32.27 38.6242 32.2671C40.453 32.2486 42.7363 32.193 44.5005 32.1978C48.1491 32.2075 51.7507 32.3434 55.1502 32.3701C56.0089 32.3765 55.781 32.2845 56.0535 32.2801C57.3662 32.2591 57.8351 32.3692 59.2094 32.3296C59.4381 32.3232 60.3586 32.1958 61.2378 32.2281C61.7124 32.2455 62.2513 32.3249 62.6556 32.3434C63.0599 32.362 63.1248 32.245 63.6108 32.2449C63.6883 32.2449 63.7571 32.2455 63.8188 32.2466L64.606 32.2512L64.484 33.0209C64.3756 33.6555 64.3271 33.5336 64.166 34.6774C64.1461 34.8184 64.1203 35.0525 64.0889 35.3449L64.093 35.3124C64.0512 36.0707 63.9925 37.2193 63.8923 38.1604C63.6653 40.2936 63.3002 42.929 63.047 45.4455C62.9599 46.3086 62.9687 47.4293 62.8361 48.768C62.6742 50.404 62.3457 53.4156 62.1765 55.0921C62.09 55.9494 61.9585 55.9989 61.9431 56.1004C61.8427 56.7525 62.0092 56.5017 61.9597 56.9409C61.9002 57.4689 61.7704 57.9586 61.6977 58.4399C61.6855 58.5162 61.6753 58.5842 61.6666 58.6521C61.6221 59.0007 61.7187 59.068 61.7108 59.1438C61.6807 59.4367 61.6505 59.7261 61.6202 60.0126L61.565 60.469L61.1248 60.5723C58.7292 61.1727 56.5305 61.6951 54.0936 62.2922C49.6331 63.3847 45.1613 64.487 40.685 65.5896L41.2568 64.8638C41.2569 64.8781 41.257 64.8924 41.257 64.9067L41.2526 65.6579L40.5102 65.6536C40.451 65.6539 40.3917 65.6542 40.3325 65.6545L40.1575 65.6337C33.2686 64.0135 26.3705 62.389 19.5014 60.7411L18.9214 60.5978L18.8721 60.0122C18.5715 56.7081 18.2778 53.4085 17.9943 50.1163C17.8862 48.8637 18.0121 48.8049 17.8924 47.7064C17.8359 47.1862 17.7217 46.6797 17.6413 46.1915L17.5664 45.3028L18.4487 45.308C18.9974 45.2677 19.5197 45.2672 19.9981 45.4313C20.0274 45.3684 20.0245 45.3236 20.0538 45.2663C22.3367 45.355 24.6198 45.2632 26.8529 45.2519C27.3897 45.2491 27.9067 45.2483 28.4126 45.2487L29.2035 45.2534L29.278 46.0306C29.3836 47.0768 29.4791 48.0753 29.5788 49.1013C29.7094 50.4483 29.5885 50.3431 29.8494 51.4942C29.8932 52.002 29.9379 52.5101 29.9833 53.0185L29.3216 52.2648C33.0433 53.19 36.7935 54.0834 40.5053 55.0117L40.3325 54.9916C40.3331 54.9916 40.3338 54.9916 40.3344 54.9916L40.1616 55.0117C41.6105 54.6915 43.0565 54.3785 44.498 54.0781C45.7622 53.5396 47.0593 53.3858 48.8901 52.9903C49.1162 52.9416 48.8552 52.9152 49.5242 52.7651C50.1682 52.6205 50.5911 52.6014 51.3884 52.4475L50.871 53.0321C50.908 52.7876 50.9447 52.5062 50.98 52.1695C51.0199 51.7877 51.1865 48.9453 51.3751 47.9076C51.5637 46.8699 51.7734 45.3598 51.9633 44.281C51.8907 44.4293 51.8159 44.619 51.7421 44.7848C51.792 44.2419 51.8425 43.6961 51.8924 43.1532C51.968 43.0819 52.0437 43.0105 52.1194 42.9422C52.0902 42.6206 52.0618 42.2989 52.0321 41.9743C52.1211 41.8371 52.1826 41.76 52.2251 41.7091L52.7885 42.3378C52.5834 42.2014 52.7655 42.2861 51.5581 42.355C50.7903 42.3986 50.1807 42.3381 49.3924 42.3732C49.1083 42.3861 48.9266 42.488 48.6135 42.501C47.8458 42.5325 48.2932 42.3923 47.819 42.393C47.3413 42.3942 46.6555 42.5482 45.7997 42.4797C46.6931 42.2051 44.1109 42.2947 43.9879 42.508C43.6805 42.5084 43.4228 42.4995 43.0832 42.5056C43.3968 41.9667 41.7871 42.3491 41.1482 42.4229C40.5097 42.4966 40.5356 42.3518 40.3861 42.3575C39.9556 42.3732 40.2691 42.4333 39.9675 42.4354C37.9688 42.4475 36.0869 42.3591 34.1145 42.351C33.8308 42.3499 34.0824 42.4317 33.7516 42.4236C33.4205 42.4156 33.1031 42.3341 32.6137 42.3398C32.4824 42.3412 32.4411 42.4131 32.2365 42.4132C27.949 42.4099 23.878 42.3487 19.5054 42.3394C19.1098 42.3386 18.7992 42.4664 18.0344 42.462C17.9958 42.4618 17.9561 42.4612 17.9155 42.4605L17.2892 42.4568L17.2296 41.8415C17.1659 41.0815 17.158 39.9848 17.0742 39.0872C17.0508 38.8363 16.938 38.7792 16.9066 38.4465C16.7999 37.3146 16.7859 36.3315 16.6792 35.1554C16.4987 33.1679 16.2203 31.0962 16.0758 29.0756C16.0481 28.6926 16.1427 28.7445 16.111 28.1912C16.0562 27.2364 15.9642 27.6073 15.9271 27.4167C15.8067 26.7929 15.9575 26.5775 15.8508 25.9731C15.8344 25.8807 15.7466 26.024 15.7364 25.9406C15.5856 24.648 15.8165 24.5556 15.5474 23.1927C15.5584 21.9549 15.8152 23.9941 15.9094 24.1965C16.1386 24.6909 16.2066 23.3145 16.1911 22.5089C16.1777 21.8152 16.0684 21.8315 16.0401 21.5577C15.9173 20.3663 15.7313 18.697 15.635 17.5257C15.6214 17.2778 15.6109 17.0476 15.6052 16.8507C15.5855 16.1791 15.7234 17.3818 15.7335 17.0372C15.7438 16.6956 15.6443 16.4825 15.7082 16.1279C15.7721 15.7733 15.9843 15.0436 16.1216 15.1683ZM19.5725 55.4434C19.0524 53.6519 18.6316 49.3614 18.3624 46.1264L18.3543 46.0314L18.4487 46.032C19.1617 46.0369 19.8233 46.0445 20.3959 46.052C23.0335 46.0866 25.3074 46.4222 24.7623 45.9359C22.5242 45.9333 20.6218 45.9628 18.4487 45.9684L18.2852 45.9675L18.2991 46.1321C18.3541 46.7249 18.4091 47.338 18.4641 47.9841C18.4907 48.2965 18.6137 50.1633 18.6641 50.812C18.6926 51.1771 18.6136 51.1961 18.6591 51.6921C18.6693 51.8001 18.8278 52.3893 18.8447 52.6084C18.9031 53.3592 18.9437 55.604 18.9764 55.9149C19.0679 56.7772 19.1624 56.4346 19.2186 56.8053C19.4062 58.0507 19.2319 58.2056 19.4044 59.4406C19.4172 59.5324 19.4643 59.7107 19.5194 59.9538L19.5299 60.0787L19.6536 60.1092C20.0021 60.1454 20.477 60.2077 20.9985 60.3461C21.3611 60.4425 21.9625 60.6741 22.2427 60.7374C23.7692 61.0826 25.4938 61.3828 26.8826 61.7363C28.0212 62.0262 27.6845 62.0749 28.2845 62.2368C28.8847 62.3982 29.6483 62.4315 30.0633 62.5228C30.7274 62.669 31.5114 62.9432 31.7168 62.9914C34.7252 63.6969 37.4955 64.3043 40.3242 64.9413C40.3917 64.9414 40.451 64.9405 40.5102 64.9397L40.543 64.9399L40.5432 64.9067C40.543 64.8924 40.5428 64.8781 40.5425 64.8638L40.5178 64.8952C41.4164 64.6651 42.3225 64.4349 43.2466 64.204C42.3293 64.4043 41.4124 64.6052 40.4963 64.8059L40.4505 64.8173L40.4507 64.8638C40.4504 64.8781 40.4501 64.8924 40.4498 64.9067L40.5102 64.8464C40.451 64.8451 40.3917 64.8439 40.3325 64.8427L40.3475 64.8445C38.6955 64.4107 37.0462 63.9779 35.4032 63.5437C33.8796 63.3113 34.6515 63.3711 33.6782 63.0949C32.908 62.8763 32.6681 63.0462 31.6513 62.7761C31.6522 62.7764 31.653 62.7766 31.6539 62.7768C31.1298 62.6373 30.0231 62.2132 28.8855 62.0053C28.845 61.998 28.7182 62.0856 27.8768 61.8872C25.9858 61.4411 23.0775 60.8015 20.9578 60.2659C20.3355 60.1086 20.4909 60.0219 19.7564 59.8297C19.7453 59.8268 19.7341 59.8239 19.7229 59.8211L19.8145 59.9272C19.7712 59.3831 19.6083 58.7625 19.5564 57.9148C19.4905 56.829 19.6348 56.2923 19.3022 55.5719C19.3914 55.5021 19.4867 55.5247 19.5725 55.4434ZM52.7555 42.5283C52.766 42.4704 52.849 42.1395 52.9257 41.7861L52.9417 41.6321L52.7885 41.633C52.212 41.5728 51.5799 41.5351 51.9534 41.7308C52.2296 41.7446 52.5081 41.7564 52.7885 41.7664C52.4296 44.257 52.1866 46.9125 51.8332 49.4913C52.2534 48.5438 52.3127 46.8694 52.5113 44.851C52.5114 44.8502 52.5115 44.8493 52.5116 44.8484C52.521 44.7531 52.5589 45.16 52.6036 44.6173C52.6251 44.3544 52.6105 43.335 52.7555 42.5283Z" fill="#FFD170"/>
</svg>
