<svg width="77" height="76" viewBox="0 0 77 76" fill="none" xmlns="http://www.w3.org/2000/svg">
<path d="M61.3951 48.9125C62.873 46.098 63.1102 43.5289 63.6217 39.7958C63.9526 36.0328 64.3076 35.3757 63.4093 31.0663C62.4137 26.7714 60.2862 22.8174 58.9993 21.3278C58.1636 20.3369 57.9331 19.8494 57.3119 19.0273C56.9911 18.6112 56.5655 18.1143 55.8603 17.4813C53.7523 15.6373 52.3885 14.6274 50.3123 13.3093C48.3398 11.7561 40.9315 9.54593 38.1215 9.90051C35.3719 9.93727 32.227 10.1429 30.3658 10.5843C29.7873 10.7139 29.333 10.8223 28.9825 10.903C28.834 10.9374 28.7595 10.9356 28.7518 10.912C28.7518 10.912 28.7518 10.912 28.7518 10.912C28.7423 10.8828 28.8368 10.8198 29.0229 10.7576C29.925 10.456 31.2854 10.0321 32.939 9.66128C36.0422 9.07692 36.4305 9.17106 40.6771 9.45298C44.8889 9.96782 47.5764 10.5105 51.8852 13.1754C54.7498 15.1129 56.1353 16.0379 58.2312 18.2001C59.1691 19.2113 60.228 20.5195 61.316 22.4978C64.3341 28.9251 65.1559 29.6108 65.7397 36.8124C66.1821 44.2157 61.55 52.6292 58.5381 55.6735C57.8514 56.4677 57.0685 57.287 56.174 58.1039C53.4085 60.6555 49.4982 63.0866 44.9913 64.2841C39.1161 65.9923 31.0895 65.7438 25.0306 62.5642C22.053 61.0878 18.816 58.651 16.414 55.8287C13.882 52.9255 12.2762 49.7054 11.5095 47.6328C10.1078 43.52 9.92978 42.4492 9.53712 38.299C9.36341 35.9039 9.70825 32.56 10.6056 29.9194C11.0644 28.5953 11.0652 28.9346 10.7555 30.2941C10.3251 32.2877 10.0887 33.9503 10.1449 35.0039C10.2947 37.1056 10.3726 37.9613 10.5097 40.5761C10.7187 43.2005 11.451 44.3047 11.8778 45.7468C12.5034 47.0848 11.5599 47.6097 16.204 53.8258C16.5632 54.2573 16.9228 54.6625 17.2829 55.0468C21.969 59.8922 25.7595 61.2377 28.2392 62.1659C30.9213 63.2203 37.0391 64.4415 41.7395 63.4338C45.4454 62.9354 51.7901 60.1789 55.0909 56.9003C56.0194 56.0509 56.7571 55.2466 57.2872 54.6066C59.649 51.554 59.7903 51.6326 61.3951 48.9125Z" fill="#FFD170"/>
<path d="M23.7506 57.2304C23.6891 57.1916 23.4547 57.0198 23.3518 56.9466C23.4823 57.01 23.9707 57.3708 23.7506 57.2304ZM13.7093 48.3195C13.7634 48.4187 13.8181 48.5175 13.8735 48.616C13.7365 48.3265 13.5514 47.9372 13.4379 47.6614C13.4194 47.6164 13.4877 47.7243 13.4422 47.6185C13.3971 47.5126 13.3816 47.5435 13.3132 47.3905C13.2338 47.2207 12.9309 46.4137 12.8322 46.1331C12.4477 45.0878 12.1146 44.0109 11.8788 42.9193C12.1644 44.0366 11.9089 42.903 11.8376 42.5889C11.8251 42.5183 11.7599 42.5446 11.5739 41.4013C11.4702 40.6735 11.6276 41.3367 11.4379 40.1261C11.5081 41.0672 11.3825 40.1483 11.318 39.4115C11.3022 39.2845 11.2391 38.2573 11.2309 37.8022C11.2259 37.6467 11.1961 37.41 11.1949 37.2034C11.194 37.0613 11.208 36.9537 11.2099 36.7427C11.2205 35.7591 11.2864 34.792 11.4138 33.8148C11.4085 34.3938 11.4974 33.3703 11.5115 33.3255C11.5598 33.0958 11.4241 34.1469 11.49 33.7328C11.563 33.1517 11.6555 32.5736 11.7673 31.9985C11.6657 32.4687 11.8373 31.363 11.9112 31.1679C11.8047 31.2336 12.6531 28.6005 12.8156 28.2131C12.8454 28.1306 12.6067 28.6543 13.0966 27.417C13.1515 27.2836 13.1475 27.3408 13.1743 27.2701C13.1903 27.2278 13.2418 26.9531 13.3864 26.6972C13.4437 26.606 13.1863 27.2368 13.798 25.8717C13.4744 26.3785 14.6992 24.0002 15 23.6059C14.9427 23.6859 14.8862 23.7657 14.8296 23.8469C15.0949 23.4398 15.1276 23.3573 15.1859 23.2645C15.423 22.891 15.7756 22.398 16.0124 22.0622C16.2908 21.6695 16.2626 21.6462 16.6129 21.2088C16.5256 21.3095 16.4391 21.4108 16.3535 21.5126C16.5861 21.2037 16.8263 20.8991 17.0741 20.5989C16.5458 21.3292 17.1965 20.4475 17.2436 20.3957C17.3158 20.3069 17.2247 20.445 17.346 20.2971C17.3588 20.2818 17.3254 20.2915 17.5165 20.0659C17.9196 19.5974 17.876 19.6864 18.0485 19.4953C18.065 19.4781 17.9946 19.5268 18.2977 19.198C19.2807 18.1654 18.2977 19.2093 18.2661 19.2529C18.2217 19.3096 18.5937 18.9901 17.7674 19.869C18.0435 19.57 18.0938 19.5632 18.1249 19.5296C18.1505 19.4992 18.6289 18.9878 18.6572 18.9606C18.892 18.7068 18.6643 18.9094 18.7089 18.8588C18.7448 18.8135 19.3627 18.2432 19.469 18.0648C19.8059 17.8315 19.3273 18.2562 18.8572 18.741C18.7954 18.8167 19.3312 18.3059 19.3617 18.2804C20.063 17.6245 19.6442 17.9539 19.7786 17.7888C19.7929 17.7716 19.817 17.7482 19.8439 17.7236C19.9518 17.625 20.1059 17.5066 19.8664 17.6751C20.5209 17.0916 20.1384 17.4623 20.1829 17.427C20.2504 17.3746 20.475 17.1673 20.5055 17.1443C20.5499 17.1101 20.4102 17.2463 20.5825 17.1083C20.611 17.0854 20.8687 16.8387 20.5085 17.1232C20.9813 16.7343 20.9333 16.7519 21.1226 16.6549C21.4062 16.329 21.3944 16.5036 21.5288 16.4059C21.8879 16.1492 21.7484 16.1764 21.765 16.1596C21.8776 16.0422 22.8972 15.3555 23.1516 15.1902C23.0723 15.2918 22.3439 15.7284 22.1942 15.8505C21.692 16.2419 22.9416 15.3559 22.5961 15.6681C22.7462 15.5459 22.8971 15.4257 23.05 15.3069C23.3692 15.1465 22.9509 15.4248 23.7525 14.91C23.8678 14.7996 23.1833 15.2704 23.3113 15.1614C23.3855 15.0946 23.8546 14.8019 23.8605 14.7909C23.8645 14.7762 23.4446 15.0475 23.5042 14.9943C23.6271 14.8662 25.2265 13.9829 24.0308 14.6925C24.3642 14.4955 24.5695 14.4512 24.8538 14.2737C25.0411 14.1626 23.9165 14.6554 25.5491 13.8166C25.5957 13.8231 24.9011 14.1609 24.886 14.1748C24.8628 14.191 25.0168 14.183 25.0396 14.1746C25.111 14.1308 26.7774 13.278 27.1627 13.1726C27 13.1899 28.4713 12.641 28.6321 12.5859C28.6739 12.5677 28.5059 12.6022 28.5509 12.5837C28.8305 12.4656 29.6266 12.2506 29.992 12.1495C30.4022 12.0333 30.3454 12.0306 30.3683 12.0238C30.5497 11.9757 30.4085 12.0281 30.5193 11.9983C30.6847 11.9464 31.8434 11.6776 31.9028 11.669C31.9197 11.6646 31.7247 11.6817 31.9779 11.6245C32.0223 11.6166 31.9976 11.6403 32.7517 11.4923C33.6623 11.3228 32.1121 11.5698 32.4862 11.4764C33.0799 11.4108 33.0544 11.3791 33.2145 11.356C33.2701 11.3485 33.6857 11.3184 34.1339 11.263C33.8127 11.3071 33.4927 11.3571 33.1737 11.4131C33.4886 11.3676 34.1007 11.2793 34.3624 11.2589C34.4899 11.2485 34.3881 11.287 34.6641 11.2582C34.7227 11.2534 34.9485 11.1566 34.2278 11.2667C34.1671 11.2488 34.5134 11.2253 34.6726 11.2033C34.6967 11.2 34.7883 11.1492 34.9954 11.1568C35.0454 11.1634 34.5193 11.3087 35.8929 11.1342C35.9372 11.1291 35.7817 11.1224 35.8251 11.1169C35.8547 11.1126 36.2079 11.1022 36.2468 11.0992C36.2867 11.0953 36.1154 11.0858 36.1628 11.0807C36.4062 11.0542 36.7277 11.1095 36.2256 11.1215C36.3936 11.123 36.5616 11.1261 36.7294 11.1307C36.5488 11.0856 36.9927 11.1109 37.2247 11.1103C38.7126 11.1191 37.7173 11.0753 37.9735 11.0623C38.3866 11.0497 38.069 11.1189 38.6807 11.1234C38.7371 11.1279 38.0017 11.0363 39.4408 11.1579C39.2283 11.1415 39.0157 11.1278 38.8029 11.1166C38.9227 11.1688 39.5703 11.1679 39.6201 11.1737C40.1851 11.223 39.8023 11.1948 40.6412 11.2722C40.7161 11.2796 40.8769 11.3128 41.037 11.3303C41.7009 11.4014 40.1672 11.1935 40.126 11.1803C40.1084 11.1568 41.7581 11.3907 41.8115 11.4177C42.0474 11.4765 41.0656 11.3028 41.2493 11.3589C41.3199 11.354 43.6506 11.7976 44.1007 11.96C44.6277 12.1144 44.8443 12.2515 44.8687 12.1827C44.9964 12.2951 45.1404 12.2899 45.2072 12.3116C46.0112 12.5803 46.0121 12.5845 46.6947 12.8337C46.8451 12.89 46.9633 12.9601 47.0173 12.9779C47.0488 12.9882 47 12.9436 47.1531 12.9979C47.3688 13.0647 48.5951 13.6407 48.675 13.7029C48.7606 13.7566 48.1572 13.4638 48.2568 13.5344C48.6967 13.7402 49.1149 13.9416 49.5468 14.1731C49.7252 14.2693 49.6264 14.2332 49.7033 14.2749C49.7368 14.2905 50.3541 14.6213 50.3303 14.6037C50.2866 14.5388 48.3583 13.5549 48.8759 13.7939C48.9772 13.8374 49.3084 14.0441 49.2719 13.9798C50.99 14.8737 52.6073 15.9598 54.0835 17.2076C53.2124 16.5161 52.2214 15.7556 51.2324 15.1379C51.098 15.0517 50.6396 14.77 50.6847 14.8221C51.5311 15.3287 52.556 16.018 53.2944 16.6122C53.3181 16.6311 53.2187 16.5776 53.3067 16.6495C53.4723 16.7818 54.0297 17.1969 54.1114 17.2787C54.1257 17.2922 53.808 17.0606 53.89 17.1487C54.0999 17.3746 54.216 17.3575 54.4157 17.5312C54.5776 17.6608 55.5536 18.6217 55.8092 18.8541C56.0903 19.089 55.0961 18.1316 55.1821 18.1902C55.7554 18.7002 56.2847 19.2613 56.7792 19.8168C56.8866 19.9375 56.9921 20.0574 57.0957 20.1759C57.1059 20.1876 57.0316 20.0736 57.1622 20.2205C57.3883 20.4766 57.4248 20.5632 57.5281 20.6943C57.6411 20.8349 58.0368 21.3285 58.0802 21.4037C58.0859 21.413 57.9866 21.3269 57.974 21.312C57.7958 21.1009 57.7604 21.0046 57.7451 20.9844C57.687 20.91 57.6185 20.8461 57.5644 20.7789C57.4755 20.6685 57.4342 20.5998 57.3147 20.4564C57.232 20.3576 57.2949 20.4672 57.2153 20.372C57.1873 20.3366 56.9022 19.9302 56.8306 19.9319C56.8625 19.8895 59.304 23.0913 59.4634 23.4717C59.2856 23.177 59.1006 22.8835 58.9108 22.5952C59.2975 23.1811 59.7707 23.88 59.746 23.9643C61.0776 26.1958 62.0722 28.6288 62.6852 31.1529C62.787 31.6052 62.6951 31.3657 62.8658 32.1084C62.8387 31.913 62.8094 31.7176 62.7778 31.5223C62.8724 31.9032 63.1587 33.6114 63.1898 33.8902C63.1951 33.9261 63.2411 33.9706 63.2948 34.401C63.3404 34.7831 63.3173 34.8472 63.331 35.0523C63.3422 35.2245 63.3641 35.417 63.3663 35.4681C63.3679 35.5074 63.3523 35.5241 63.3558 35.6185C63.3659 35.9163 63.3985 35.6726 63.3612 35.9711C63.3552 35.8993 63.3489 35.8275 63.3424 35.7558C63.3574 36.1154 63.3512 36.6062 63.3157 36.0787C63.3089 35.988 63.3292 36.0651 63.3257 35.9974C63.1116 33.3509 63.2804 35.4645 63.3343 36.3929C63.3289 36.6323 63.3453 37.9702 63.3316 38.0147C63.3231 38.0762 63.3098 37.8472 63.2852 38.1464C63.2945 38.2099 63.1878 39.9932 63.2002 39.3491C63.2072 39.2166 63.261 38.3627 63.2622 38.1562C63.2043 38.6393 63.1916 39.7776 63.1719 39.9054C63.1148 40.4182 63.2204 38.9147 63.1047 40.0707C63.0009 40.9577 63.1294 40.1284 63.1045 40.4715C63.0952 40.6657 62.909 41.6609 62.9575 41.6411C62.9047 41.9849 62.9131 41.7798 62.9041 41.8218C62.8974 41.863 62.7868 42.5379 62.7284 42.7522C62.7216 42.7783 62.7142 42.6902 62.7064 42.717C62.694 42.7695 62.5541 43.413 62.5481 43.4386C62.5457 43.4554 62.6035 43.3078 62.5939 43.3718C62.5846 43.4469 62.4239 44.0606 62.4192 44.0956C62.4181 44.1464 62.604 43.3853 62.5954 43.5176C62.5059 43.8676 62.3671 44.4399 62.318 44.6745C62.3295 44.6168 62.4241 44.2792 62.4571 44.162C62.4799 44.2274 62.2703 44.9521 62.3143 44.6963C62.2829 44.8578 62.3224 44.7528 62.31 44.8455C62.3069 44.8698 62.2398 45.093 62.2322 45.1376C62.2319 45.1437 62.3154 44.9178 62.3083 44.9659C62.2982 45.054 62.0782 45.7265 62.0539 45.7796C61.9927 45.9309 62.1648 45.3801 62.1632 45.3294C62.164 45.3226 61.982 45.7782 61.9761 45.7839C61.9411 45.8022 62.1313 45.2919 62.0868 45.343C62.0405 45.4693 61.9932 45.5953 61.9449 45.7209C62.0915 45.2232 62.3715 44.3069 62.4027 44.0597C62.2166 44.804 61.9608 45.5667 61.898 45.5436C61.8722 45.5342 61.9585 45.2156 61.9474 45.2255C61.9094 45.2643 61.792 45.7072 61.7843 45.7225C61.7783 45.7352 61.7749 45.7407 61.7735 45.7402C61.7735 45.7402 61.7735 45.7402 61.7735 45.7402C61.7613 45.7358 61.9543 45.1133 61.9555 45.0797C61.9605 45.024 61.8258 45.2849 61.8151 45.2809C61.8171 45.2708 61.9434 44.8262 61.8787 44.9694C61.8146 45.1145 61.6887 45.4982 61.6817 45.5109C61.6481 45.5808 61.8548 44.9056 61.852 44.883C61.8525 44.8716 61.719 45.2265 61.7092 45.2348C61.7007 45.242 61.7751 44.9639 61.7891 44.85C61.8 44.7652 61.7174 44.9966 61.7279 44.9546C61.7376 44.9255 61.9257 44.2881 61.9299 44.2555C61.9394 44.2078 61.8808 44.3528 61.8828 44.3298C61.8858 44.2973 61.9488 44.0926 61.9352 44.1177C61.9281 44.1379 61.6385 44.9176 61.6221 44.9062C61.6009 44.8898 61.9098 44.0681 61.5744 44.818C61.5723 44.8233 61.5207 45.0145 61.5182 45.0195C61.4625 45.1298 61.6258 44.517 61.3952 45.2566C61.7925 43.8713 61.4123 45.0744 61.4321 44.857C61.4413 44.774 61.5911 44.2379 61.5879 44.2344C61.552 44.2804 61.5195 44.4554 61.4919 44.5101C61.4777 44.5403 61.5915 44.0559 61.546 44.1594C61.5243 44.2132 61.3784 44.7197 61.3692 44.7397C61.2941 44.9345 61.3544 44.6858 61.3311 44.7266C61.3162 44.7537 61.2205 45.0562 61.2163 45.0635C61.2106 45.0755 61.3129 44.6567 61.3282 44.5676C61.3407 44.5003 61.2555 44.7417 61.266 44.6952C61.3322 44.4161 61.5443 43.8443 61.3162 44.3885C61.3023 44.4217 61.2406 44.6346 61.2376 44.6405C61.1791 44.7658 61.2952 44.3748 61.2989 44.3001C61.307 44.1724 61.1582 44.7381 61.2754 44.2658C61.1562 44.611 61.0982 44.8051 60.9698 45.212C61.316 44.0821 61.3514 43.6623 60.9774 44.9136C61.1033 44.5176 61.0484 44.5491 61.0836 44.4304C61.1069 44.3571 61.3078 43.7885 61.1458 44.0296C61.1262 44.06 61.0389 44.4143 61.0482 44.2981C61.2917 43.4581 61.0405 44.2766 61.0359 44.2761C61.0073 44.2559 61.5624 42.196 61.5972 41.8274C61.667 41.4074 61.6799 41.027 61.693 40.9358C61.7358 40.6351 61.7217 40.8877 61.7391 40.8215C61.7603 40.7546 61.8218 39.8912 61.8246 39.8485C61.8501 39.6828 61.8589 39.8544 61.8618 39.8372C61.9049 39.6327 61.9652 38.4717 61.9733 38.1466C61.9582 38.1563 61.9286 38.808 61.9198 38.4C61.9066 37.9256 61.9763 37.9001 61.9806 37.8877C62.0241 35.7126 61.7793 33.5319 61.2533 31.4213C61.2317 31.4547 61.5617 32.8361 61.5531 32.8715C61.5805 33.0582 61.0562 30.7187 60.9557 30.4401C61.0107 30.6572 61.0625 30.8746 61.1114 31.0925C60.9741 30.7354 60.7913 29.9096 60.59 29.3944C60.5262 29.2283 60.6207 29.5568 60.6169 29.5508C60.5373 29.3667 60.4426 29.0601 60.5442 29.2787C60.3601 28.8259 60.4062 28.8842 60.2751 28.5335C60.268 28.5155 60.3097 28.6718 60.1952 28.3983C60.144 28.269 59.8585 27.5856 59.8016 27.5023C59.7797 27.4678 59.8646 27.8392 59.9371 27.8586C60.2164 28.6136 60.0609 28.0859 60.1764 28.3767C60.1917 28.4224 60.1288 28.3279 60.4153 29.0617C60.3117 28.9393 60.0266 28.0801 59.9555 27.9405C59.8225 27.6498 60.2883 28.8819 60.4052 29.0979C60.3222 29.0075 60.4323 29.1876 60.5254 29.4664C60.6263 29.7721 60.568 29.6437 60.6223 29.8092C60.7667 30.2628 60.7394 30.0645 60.8237 30.4494C60.8053 30.0551 61.0251 31.0919 61.0699 31.397C60.9433 30.9133 60.8019 30.4335 60.6461 29.9594C60.6501 29.9881 60.6541 30.0168 60.658 30.0455C60.6192 29.9199 60.5795 29.7945 60.5387 29.6694C60.5497 29.6879 60.5608 29.7065 60.5718 29.7251C60.3286 29.0914 60.2964 28.9275 60.2789 28.8747C60.0365 28.2056 59.7145 27.4459 59.4023 26.7978C59.3536 26.7014 59.367 26.7767 59.0287 26.0663C58.9184 25.8402 59.0506 26.0391 58.9131 25.7888C58.6873 25.5067 58.7339 25.4889 58.6825 25.3961C58.5333 25.1308 58.4242 24.9792 58.4101 24.9552C58.2183 24.6331 57.9291 24.165 57.6974 23.8235C57.693 23.8172 57.7955 24.0069 57.6517 23.7805C57.6025 23.7009 57.1974 22.9528 56.7199 22.3856C56.8333 22.5416 56.9444 22.6984 57.0535 22.8561C56.9372 22.6614 55.9255 21.4423 56.1505 21.7588C56.293 21.9494 56.693 22.3685 56.6899 22.4526C56.5388 22.2416 56.0212 21.5887 55.4756 20.9897C54.9141 20.3659 54.3355 19.81 54.2556 19.725C54.2344 19.7019 54.3846 19.824 54.355 19.7923C54.3333 19.7658 53.8475 19.3113 53.7857 19.2492C53.7498 19.2107 53.9725 19.4018 53.9591 19.3814C53.9499 19.3623 53.334 18.7991 53.2821 18.787C53.4433 18.9126 53.866 19.305 53.6295 19.1158C53.5993 19.0913 53.4581 18.9474 53.4207 18.9186C53.0773 18.6483 54.0561 19.5099 54.1949 19.6561C53.5921 19.1081 52.6474 18.2551 51.8746 17.7084C51.5792 17.4653 52.3436 18.0277 52.007 17.7555C51.3014 17.1951 51.8005 17.6323 51.777 17.6174C51.5884 17.496 51.0179 16.9826 50.9754 17.0447C50.7117 16.8549 50.8042 16.903 50.4117 16.6618C50.4601 16.6986 50.5084 16.7356 50.5565 16.7728C50.1096 16.5248 49.2269 15.8931 49.2988 15.9282C49.5009 16.0148 49.9708 16.3331 50.0108 16.3581C50.0709 16.3957 50.284 16.4274 50.9009 16.9156C51.1994 17.0473 49.8761 16.2144 50.4933 16.5689C50.0987 16.2969 48.384 15.3089 48.1094 15.2209C48.0775 15.2092 48.1985 15.3202 47.7703 15.0877C47.5664 14.9779 48.0703 15.2167 47.9795 15.1613C47.7386 14.8988 43.5549 13.382 42.7003 13.3051C42.6469 13.2931 42.6699 13.2825 42.6173 13.271C42.4561 13.2338 41.8616 13.135 41.5713 13.0784C42.1689 13.2151 40.9989 13.005 40.6986 12.9672C40.2445 12.9001 40.2756 12.8795 40.0791 12.8501C39.3205 12.7338 38.1331 12.7322 37.5398 12.6715C37.5722 12.7275 36.5109 12.6399 36.0269 12.6705C35.6482 12.6879 35.1042 12.7706 35.6148 12.7574C34.9635 12.7975 34.2821 12.883 33.678 12.976C33.5781 12.9914 33.7131 12.9534 33.5428 12.9807C33.5274 12.9834 33.5086 13.0033 33.3627 13.0284C32.1607 13.2508 32.7412 13.1175 32.5138 13.147C32.387 13.1658 32.2938 13.182 32.2257 13.1952C32.922 13.043 33.7369 12.9155 33.9547 12.8874C33.762 12.8653 32.393 13.1422 31.9949 13.2307C31.981 13.2334 32.0248 13.2024 32.0107 13.2053C32.0104 13.2054 32.0101 13.2054 32.0098 13.2055C31.8581 13.2314 30.9139 13.4739 31.1152 13.4505C31.1691 13.4436 31.6023 13.3305 32.1224 13.2175C31.9827 13.2524 32.0927 13.2527 32.0681 13.259C31.7689 13.3324 31.0327 13.4903 30.7741 13.5611C30.715 13.5767 30.7232 13.5901 30.7136 13.5928C30.4785 13.6551 30.5619 13.5865 30.3352 13.6987C29.8968 13.7693 31.1272 13.4646 31.0337 13.4601C30.9485 13.4139 28.2758 14.3072 28.312 14.379C28.3013 14.3784 28.2632 14.3873 28.187 14.4108C28.0177 14.4594 27.2987 14.7714 27.1796 14.8375C27.1595 14.8483 27.1847 14.8819 27.1591 14.8939C27.094 14.9201 26.2171 15.3028 25.914 15.496C26.0866 15.4117 26.2622 15.3285 26.4372 15.2481C25.3994 15.7766 25.5731 15.7153 25.9177 15.5415C25.9348 15.5326 25.9522 15.5252 25.9686 15.5168C26.2385 15.3848 26.5882 15.223 26.5948 15.2237C26.6107 15.2088 24.8828 16.1502 25.1984 15.9408C25.2404 15.9062 26.0494 15.486 25.6398 15.6773C25.5674 15.709 25.0599 16.0042 25.0324 16.0187C24.8411 16.1 25.9483 15.4524 25.7997 15.5069C25.5378 15.676 25.1811 15.8584 24.8767 16.0463C24.7388 16.1314 24.7155 16.1699 24.6985 16.1805C24.4457 16.3399 24.578 16.2347 24.493 16.2872C24.4466 16.314 23.9728 16.6698 24.033 16.5571C22.4515 17.6871 23.5937 16.8705 24.6111 16.2454C24.3002 16.4579 23.6756 16.8522 23.4085 17.0471C23.3121 17.1166 23.3817 17.0932 23.2201 17.2123C22.8839 17.4377 21.3928 18.5867 20.9755 18.9811C20.9649 18.9903 20.955 18.9991 20.9457 19.0073C20.9559 18.9977 20.9655 18.9886 20.9745 18.9799C21.1517 18.8111 21.0977 18.8351 20.956 18.9594C20.9419 18.9718 20.9269 18.9853 20.9112 18.9996C20.7309 19.1656 20.9039 19.0498 20.8707 19.0844C20.8293 19.1183 19.9966 19.8933 19.8691 20.0393C20.47 19.4236 20.3161 19.5408 19.7983 20.0597C19.8676 19.9793 19.9375 19.8992 20.0081 19.8194C19.7054 20.1281 19.0707 20.7623 18.9154 20.9605C18.8908 20.9908 18.9979 20.8985 18.9842 20.9156C18.8429 21.0823 18.3536 21.6345 18.3388 21.667C18.3247 21.6923 18.5368 21.4605 18.4687 21.5554C18.4549 21.5746 18.2403 21.7931 18.0605 22.0332C17.9939 22.1222 18.0495 22.0807 18.0331 22.1034C17.8976 22.2931 17.9555 22.1645 17.7037 22.5072C17.521 22.7594 17.4071 22.9662 17.1553 23.315C18.0046 22.1814 17.2924 23.138 16.9793 23.6367C16.9295 23.7173 16.9974 23.6654 16.6805 24.1341C17.2831 23.0879 16.4616 24.4037 16.3099 24.68C16.301 24.6949 16.2788 24.6888 16.2 24.8232C16.1935 24.8346 16.2154 24.8255 16.1443 24.9514C15.4885 26.1532 15.9 25.3804 15.7615 25.6013C15.702 25.6949 15.4168 26.2992 15.3419 26.4615C15.3241 26.4987 15.3182 26.4749 15.2503 26.6192C15.1305 26.8745 15.0413 27.1131 14.9678 27.2842C14.9596 27.3043 14.9352 27.2948 14.8049 27.6234C14.7685 27.7158 14.7341 27.8221 14.7943 27.6945C14.9914 27.2708 15.3258 26.4471 15.5902 25.9877C15.8237 25.5663 15.1484 26.9256 15.1263 27.0034C15.1142 27.0298 15.2266 26.7545 15.0993 27.0282C14.9905 27.2625 14.8427 27.7096 14.6934 28.0628C14.6815 28.0895 14.5375 28.3625 14.541 28.3488C14.5431 28.336 14.7091 27.8945 14.6748 27.9545C14.6703 27.9615 14.5604 28.2405 14.5396 28.2744C14.5137 28.3157 14.3826 28.4043 14.358 28.4639C14.2952 28.6164 14.352 28.5231 14.3138 28.6226C14.2289 28.834 13.9509 29.5792 13.9759 29.6141C14.0174 29.4898 14.06 29.3659 14.1036 29.2423C13.8789 29.9357 13.9907 29.6451 13.9641 29.7449C13.9374 29.8529 13.9194 29.8146 13.8462 30.0489C13.8251 30.0988 13.5601 31.0922 13.5807 31.0779C13.7044 30.5231 13.6866 30.7362 13.6931 30.7109C13.721 30.6154 13.7361 30.4878 13.773 30.3593C14.0406 29.4588 13.8016 30.3759 13.8719 30.1654C13.8958 30.0929 13.9239 29.943 13.9342 29.9124C13.9676 29.8127 13.9887 29.8175 14.0079 29.7501C14.0531 29.593 13.9668 29.7659 13.9692 29.7532C13.9931 29.6073 14.1968 29.0706 14.1158 29.4197C14.1944 29.2204 14.1646 29.1838 14.2353 29.0284C14.377 28.7206 14.2014 29.1946 14.1643 29.3265C14.0298 29.7988 13.9684 29.9313 13.7863 30.602C13.7215 30.8437 13.668 31.1354 13.6417 31.2482C13.6226 31.3182 13.4035 31.9773 13.5056 32.0195C13.4396 32.2785 13.2915 32.6789 13.2488 32.9525C13.2104 33.1979 13.261 33.1261 13.2586 33.1492C13.2547 33.1844 13.2056 33.4801 13.1969 33.5813C13.1863 33.6998 13.2085 33.6431 13.1889 33.8304C13.1426 34.2968 13.1094 34.2805 13.1007 34.3281C13.0118 34.8816 13.0935 34.6435 13.0851 34.7673C13.0656 34.8812 12.9471 36.4961 12.9723 36.8379C12.9661 36.6992 12.9611 36.5603 12.9572 36.4214C12.9261 36.6692 12.9634 36.9331 12.9205 36.9374C12.9883 36.9883 12.9441 37.5001 12.9509 37.6543C12.953 37.715 12.9647 37.7099 12.9673 37.7858C12.9749 38.0824 13.0029 38.7503 13.0228 38.9103C13.0966 39.6012 13.0195 37.8267 13.0347 37.687C13.0272 37.9678 13.1537 39.543 13.1358 38.8162C13.1328 38.7041 13.0899 38.5076 13.0854 38.4447C13.0559 38.0191 13.1004 38.3528 13.1014 38.3192C13.1024 38.2625 13.0638 37.9829 13.065 37.9087C13.0657 37.8839 13.0941 38.0421 13.0843 37.6357C13.1058 37.8353 13.1474 38.9762 13.1723 39.125C13.1815 39.1778 13.194 38.8411 13.2431 39.8174C13.2467 39.8056 13.2503 39.7938 13.2538 39.7821C13.3153 40.3225 13.3948 40.8604 13.4922 41.3955C13.4707 41.3393 13.3963 41.0419 13.4674 41.4204C13.5096 41.638 13.5048 41.4721 13.5091 41.4919C13.4928 41.6984 14.3721 45.1056 14.6833 45.7205C14.7637 45.9383 15.0256 46.5289 15.0466 46.5729C15.1568 46.8455 15.5833 47.7966 15.6839 47.979C15.7437 48.0943 15.7068 47.9746 15.7581 48.0787C15.806 48.1754 15.7376 48.0847 15.7513 48.1137C15.8472 48.3652 16.8663 50.0993 17.1351 50.4995C16.9674 50.257 16.1876 49.0249 16.1967 49.0513C16.1976 49.058 16.3607 49.3749 16.405 49.4344C16.4508 49.5487 16.7093 49.8765 16.8215 50.0731C16.8346 50.0952 16.7537 50.0263 16.9678 50.3701C17.0425 50.4895 17.2599 50.7791 17.4491 51.0947C17.6842 51.4404 18.7525 52.8692 19.3495 53.4972C19.5136 53.6772 19.6312 53.7975 19.665 53.8236C19.6698 53.827 19.4116 53.5304 19.6011 53.7168C19.8542 53.9628 19.5942 53.7723 19.8742 54.0747C19.9117 54.1244 20.7302 54.9279 20.7642 54.9462C21.0378 55.1615 20.3238 54.461 20.3398 54.4651C20.3689 54.4853 20.972 55.0557 20.9975 55.0776C21.0195 55.1015 20.4934 54.6722 21.1017 55.2133C21.0362 55.1465 20.9715 55.0797 20.9068 55.0123C21.1937 55.2647 21.2026 55.3102 21.27 55.3738C21.4813 55.5702 21.7453 55.7409 22.0661 56.0778C22.1511 56.1668 21.9837 56.0512 21.9941 56.0625C22.0946 56.1716 22.2744 56.2481 22.4228 56.4162C22.435 56.4281 22.012 56.132 22.7239 56.6837C22.677 56.6431 22.6302 56.6023 22.5835 56.5614C22.6865 56.6358 23.4234 57.1715 23.5252 57.2397C23.8159 57.4486 23.5429 57.2946 23.8424 57.4947C23.6706 57.3373 24.5868 57.9337 24.5193 57.9237C24.6683 57.9734 25.4485 58.4792 25.8349 58.6849C26.0759 58.8191 26.585 59.0593 26.663 59.0988C26.7576 59.1484 26.7156 59.1595 26.8867 59.2494C26.9354 59.2756 27.4614 59.5048 27.9144 59.7282C28.0018 59.7718 28.1735 59.8949 28.0008 59.8355C27.7045 59.7351 27.1835 59.4549 27.179 59.4826C27.1734 59.5161 27.9068 59.825 28.1043 59.9072C29.0139 60.2946 28.4738 60.1095 28.493 60.1291C28.5453 60.1768 29.0525 60.3678 29.0735 60.3762C29.1583 60.4176 28.7913 60.3019 28.7809 60.3126C28.7671 60.3287 29.2476 60.5408 29.1337 60.5056C28.9695 60.4574 28.5292 60.2592 28.5007 60.2484C28.1241 60.1187 28.615 60.3606 28.7491 60.4325C28.7895 60.4548 28.6156 60.4002 28.6503 60.4154C29.1817 60.6462 28.7853 60.4027 29.1439 60.5403C29.4648 60.6603 29.04 60.5391 29.0518 60.5445C29.0668 60.5526 29.4531 60.691 29.5109 60.7203C29.5381 60.7404 28.5155 60.4269 28.5495 60.4611C28.87 60.5791 29.1929 60.6905 29.5178 60.7951C29.5325 60.8353 29.0762 60.6509 29.028 60.6356C28.9295 60.607 29.1922 60.7193 29.1774 60.7245C29.169 60.7288 28.8457 60.6367 29.1275 60.7484C29.2248 60.7863 29.4376 60.8391 29.7912 60.9789C28.5305 60.5816 29.3909 60.8943 29.4243 60.9187C29.4569 60.942 28.8494 60.7617 29.5779 61.0061C29.5897 61.076 29.5557 61.0203 29.3454 60.9598C29.0886 60.8829 29.6638 61.1137 28.7482 60.7652C28.789 60.8151 29.5332 61.0753 29.573 61.0878C29.6065 61.1013 29.4357 61.0593 29.4934 61.0838C30.1786 61.3691 29.7038 61.1857 29.8968 61.2864C29.9134 61.2968 30.5806 61.5136 30.0682 61.3631C29.1361 61.0812 28.7741 60.8881 28.5886 60.916C29.2496 61.2106 30.1033 61.4171 30.3134 61.4764C30.6355 61.5697 30.297 61.4892 30.3352 61.5057C30.3483 61.5117 30.6267 61.5907 30.6301 61.5928C30.8083 61.7207 29.3939 61.2282 28.9523 61.0677C29.0674 61.1199 29.1833 61.1714 29.2994 61.222C29.1372 61.1668 28.9755 61.1099 28.8145 61.0515C29.5764 61.345 28.8385 61.0713 28.6286 61.0497C28.5812 61.0454 29.093 61.2128 28.5058 61.0308C28.9273 61.1966 28.7879 61.1575 29.1799 61.2793C29.1617 61.2997 28.2848 61.0084 27.9441 60.877C29.1362 61.367 28.4757 61.0346 29.513 61.4397C29.7173 61.4789 29.212 61.3159 29.2548 61.3246C29.4065 61.3596 29.744 61.5012 30.1806 61.5736C30.2516 61.585 29.9709 61.4716 30.3982 61.6001C30.4454 61.6145 30.7124 61.7158 30.7082 61.7162C30.6667 61.7249 30.3976 61.6404 30.3843 61.6444C30.3715 61.6491 30.6753 61.7314 30.6758 61.7332C30.6786 61.7593 30.4207 61.6703 30.4567 61.6883C30.5336 61.728 31.6122 62.0863 30.192 61.6655C31.3816 61.9782 30.3484 61.6917 29.8895 61.5557C29.7723 61.5215 29.7384 61.526 29.5714 61.4766C29.3563 61.4131 29.111 61.3207 29.0009 61.2843C28.8827 61.2442 29.5378 61.5181 28.5774 61.1585C29.0536 61.3767 29.9414 61.6323 30.4282 61.7938C31.412 62.1223 29.7163 61.653 29.5441 61.5869C29.4972 61.5729 29.6471 61.6422 29.6157 61.6332C29.5627 61.623 28.6211 61.2861 28.5247 61.2617C28.4267 61.2428 28.8688 61.3882 28.8926 61.4133C28.907 61.4365 27.77 61.024 28.3786 61.2653C28.7979 61.4347 29.6004 61.6566 29.7198 61.7429C29.0858 61.5451 28.4594 61.3229 27.8423 61.0767C28.1722 61.2306 28.5059 61.3778 28.8427 61.5178C28.137 61.2709 27.5465 61.0081 26.8887 60.7405C28.4296 61.4787 26.3591 60.5652 26.3404 60.5452C26.3299 60.5471 26.9205 60.8751 27.0173 60.925C26.4565 60.7152 24.8381 59.8811 25.7573 60.4228C25.5903 60.3245 25.1608 60.1337 25.1654 60.1381C25.2031 60.1941 26.1231 60.6442 25.9644 60.5883C25.7785 60.5271 25.5531 60.3712 25.2889 60.2339C23.9456 59.5077 24.2332 59.8402 22.9511 58.9862C22.9738 59.0073 22.9965 59.0284 23.0194 59.0494C21.6292 58.1158 20.3298 57.0486 19.1433 55.8699C18.8851 55.6474 18.4257 55.2062 17.9819 54.7279C17.5688 54.285 17.176 53.8191 16.9205 53.4934C16.8097 53.3589 16.3166 52.6717 16.285 52.6165C16.2207 52.518 16.6091 53.0364 16.4453 52.7932C16.4039 52.7491 15.5892 51.5669 15.634 51.662C15.7193 51.7973 16.0144 52.204 16.0585 52.2739C16.3038 52.8054 13.9865 49.0392 13.9565 48.8033C13.9933 48.8945 14.0307 48.9855 14.0686 49.0765C13.9445 48.8255 13.8248 48.5732 13.7093 48.3195ZM22.8605 56.6703C22.9985 56.7459 23.3018 56.9907 23.4945 57.1176C23.7591 57.2951 24.2593 57.5176 24.0155 57.4644C23.6232 57.211 23.2382 56.9463 22.8605 56.6703ZM18.067 51.8325C18.2469 52.0888 18.058 51.9273 17.9214 51.7091C17.9066 51.6846 17.8268 51.4845 18.067 51.8325ZM20.2012 54.3298C20.1912 54.3212 20.0024 54.1263 19.9968 54.1188C19.8417 53.9311 20.4101 54.5172 20.2012 54.3298ZM13.2834 40.3451C13.3327 40.6875 13.3431 40.4331 13.2969 40.2228C13.294 40.2095 13.2802 40.3226 13.2834 40.3451ZM13.3159 40.5889C13.312 40.861 13.4841 41.3807 13.4063 40.9583C13.3982 40.9176 13.3157 40.5765 13.3159 40.5889ZM18.7457 52.7199C18.7106 52.7032 18.5122 52.4493 18.4287 52.3376C18.4421 52.3321 18.6577 52.618 18.7457 52.7199ZM14.6432 45.6706C14.6212 45.6642 15.039 46.708 15.0903 46.7688C15.0086 46.6113 14.6539 45.6804 14.6432 45.6706ZM13.7778 42.9241C13.7817 42.9524 13.8807 43.3277 13.8891 43.3138C13.8542 43.1271 13.7568 42.7975 13.7778 42.9241ZM13.0774 37.2495C13.0756 37.2284 13.0027 37.5199 13.0518 36.8298C13.0594 36.7286 13.0747 37.0904 13.0778 37.0544C13.0829 36.9791 13.0856 36.9196 13.0865 36.8718C13.0887 37.1928 13.0974 37.5257 13.0939 37.5581C13.0763 37.7099 13.0776 37.2588 13.0774 37.2495ZM13.1923 34.2414C13.1878 34.1741 13.2478 33.7549 13.2669 33.6603C13.2702 33.6441 13.2893 33.7195 13.3145 33.5308C13.3353 33.3794 13.2706 33.6007 13.3206 33.3069C13.3728 33.0104 13.3311 33.411 13.3372 33.3852C13.3434 33.3506 13.4057 32.8892 13.4217 32.9066C13.4317 32.9193 13.3421 33.4094 13.3284 33.532C13.3094 33.6886 13.358 33.5024 13.3166 33.7627C13.2913 33.9264 13.2654 33.8303 13.2588 33.8647C13.2517 33.8935 13.205 34.4716 13.1925 34.2405C13.1924 34.2408 13.1924 34.2411 13.1923 34.2414ZM13.0857 36.7849C13.0867 36.8091 13.0871 36.8375 13.0865 36.8718C13.0862 36.8426 13.0859 36.8136 13.0857 36.7849ZM22.137 56.1247C22.0181 56.0127 22.4031 56.3063 22.5384 56.4299C22.5325 56.4427 22.1554 56.1436 22.137 56.1247ZM13.0599 36.4866C13.0847 36.0098 13.0832 36.3612 13.0857 36.7849C13.0804 36.6503 13.0529 36.6467 13.0599 36.4866ZM16.405 49.4344C16.3973 49.4155 16.3948 49.4022 16.4003 49.3971C16.4201 49.4469 16.4188 49.4532 16.405 49.4344ZM15.877 48.4555C15.6799 48.1283 16.0411 48.8131 16.0551 48.7998C16.0587 48.7951 15.8842 48.4688 15.877 48.4555ZM13.2309 39.9048C13.2333 39.9398 13.1018 39.4086 13.2455 40.1851C13.2022 39.7668 13.2632 40.2062 13.2688 40.1989C13.2813 40.1799 13.1854 39.4812 13.1815 39.3246C13.139 39.2058 13.223 39.7899 13.2308 39.9039C13.2309 39.9042 13.2309 39.9045 13.2309 39.9048ZM14.4337 28.9659C14.4184 29.0619 14.3139 29.3471 14.25 29.5416C14.2622 29.445 14.3639 29.1585 14.4337 28.9659ZM57.5011 23.5685C56.6786 22.4311 56.6177 22.2485 57.3521 23.3054C57.3668 23.3261 57.5557 23.6343 57.5011 23.5685ZM48.5928 15.6228C48.4899 15.5332 48.8821 15.7312 49.1266 15.8829C49.1823 15.9169 49.3763 16.0626 49.1335 15.9342C49.1601 15.9041 48.7953 15.6871 48.5928 15.6228ZM13.0478 36.2162C13.0307 36.0764 13.0667 35.649 13.0863 35.4243C13.0933 35.5628 13.0605 36.017 13.0478 36.2162ZM54.5808 19.997C54.4771 19.8901 54.3858 19.8399 54.4026 19.8595C54.4773 19.9469 54.6895 20.1283 54.5808 19.997ZM13.0335 37.5982C13.0197 37.6182 13.0019 37.0506 13.0351 37.0112C13.0312 37.1325 13.0402 37.584 13.0335 37.5982ZM14.2988 29.3283C14.264 29.4098 14.4001 28.9734 14.4537 28.8467C14.4619 28.8612 14.3201 29.2746 14.2988 29.3283ZM52.8077 18.4018C52.7069 18.315 52.4477 18.1068 52.4118 18.0933C52.3677 18.0753 52.7507 18.3757 52.8077 18.4018ZM61.6495 40.359C61.6434 40.375 61.6662 39.8611 61.6945 39.6348C61.7532 39.2049 61.6613 40.3419 61.6495 40.359ZM55.5569 21.0073C55.8162 21.3388 55.5258 20.9731 55.517 21.0056C55.7072 21.2155 56.1584 21.7493 55.8668 21.3658C55.8098 21.2911 55.6438 21.1066 55.5569 21.0073ZM55.3026 20.7138C55.2655 20.6864 55.0384 20.4851 55.2182 20.6746C55.3012 20.7623 55.4563 20.8853 55.3026 20.7138ZM61.8165 37.183C61.8466 36.8075 61.8171 38.5284 61.7956 38.577C61.7921 38.603 61.7891 38.62 61.7868 38.6296C61.792 38.6931 61.7739 39.0176 61.7511 39.0538C61.7598 38.9567 61.7733 38.6913 61.7768 38.6605C61.7784 38.6473 61.7798 38.6374 61.781 38.6306C61.7781 38.5157 61.8204 37.2552 61.8165 37.183ZM61.6529 34.3381C61.7411 34.7607 61.6846 34.8434 61.6794 34.8067C61.6032 34.3451 61.6816 34.6428 61.6824 34.6284C61.6828 34.5954 61.6218 34.2681 61.6531 34.3394C61.653 34.339 61.653 34.3385 61.6529 34.3381ZM61.8148 36.5987C61.8168 36.6162 61.8236 36.9768 61.8222 36.9917C61.8085 37.2873 61.7886 36.2679 61.8148 36.5987ZM13.5194 31.9912C13.5799 31.7402 13.5478 31.9923 13.5054 32.1585C13.502 32.1721 13.4671 32.213 13.5194 31.9912ZM55.1572 20.5666C55.128 20.5121 54.0526 19.419 54.0893 19.5145C54.198 19.5901 55.3975 20.85 55.1572 20.5666ZM45.7063 14.2982C45.9593 14.392 45.6724 14.3196 45.5411 14.2602C45.4924 14.2379 45.6424 14.2746 45.7063 14.2982ZM13.0315 38.364C13.0645 38.6427 13.0017 38.5884 13.0091 38.3445C13.0094 38.3349 13.0303 38.3531 13.0315 38.364ZM47.6894 15.1456C46.8322 14.7794 47.083 14.7611 48.1603 15.3192C48.1243 15.3065 48.0883 15.2938 48.0523 15.2813C49.2931 15.9276 48.1373 15.3232 47.8247 15.1857C47.7065 15.132 47.7976 15.194 47.6902 15.1461C47.6899 15.1459 47.6897 15.1457 47.6894 15.1456ZM44.3598 13.8467C43.5191 13.5213 45.1511 14.0512 45.6121 14.2248C45.153 14.0911 44.5659 13.8936 45.3547 14.193C44.185 13.8056 44.6782 13.9474 44.6331 13.9267C44.5784 13.9065 44.3957 13.8606 44.3598 13.8467ZM46.5891 14.6384C46.6383 14.6556 46.9919 14.8205 47.1214 14.8757C46.9327 14.8167 46.2651 14.5213 46.5891 14.6384ZM61.0865 31.4049C61.1129 31.4317 61.1479 31.5059 61.2113 31.8077C61.1803 31.7172 61.1261 31.5277 61.0865 31.4049ZM23.0368 56.9292C23.2061 57.0569 23.548 57.3065 23.4538 57.2149C23.4425 57.2064 23.0434 56.9213 23.0368 56.9292ZM51.8501 17.6003C51.8182 17.5654 50.8621 16.8945 51.1806 17.143C51.2799 17.2121 52.1395 17.8391 51.8501 17.6003ZM56.2264 21.7609C56.1645 21.6842 55.9054 21.384 55.8959 21.381C55.8671 21.3704 56.1879 21.7363 56.2264 21.7609ZM23.9021 57.5614C23.923 57.5804 24.4694 57.9306 24.4152 57.883C24.3096 57.7972 23.8258 57.503 23.9021 57.5614ZM13.6885 31.0651C13.7011 31.0123 13.7395 30.9481 13.7445 30.93C13.7511 30.8863 14.0153 29.9282 13.937 30.3008C13.9141 30.3603 13.55 31.741 13.5191 31.925C13.4743 31.9889 13.6344 31.3988 13.6691 31.2544C13.6748 31.2289 13.6549 31.2068 13.6885 31.0656C13.6885 31.0654 13.6885 31.0653 13.6885 31.0651ZM61.4465 32.97C61.4792 33.0083 61.6712 34.1613 61.641 34.1515C61.5858 33.7563 61.5209 33.362 61.4465 32.97ZM61.336 32.3875C61.2981 32.141 61.4212 32.7111 61.4452 32.882C61.4343 32.8857 61.3426 32.4231 61.336 32.3875ZM54.7912 20.0675C54.7059 19.9871 54.9389 20.2631 54.8787 20.2092C54.8404 20.174 54.6647 19.9815 54.5982 19.9277C54.5799 19.9129 54.751 20.1201 54.8051 20.1745C54.8827 20.2518 54.8227 20.1618 54.9063 20.2475C55.1348 20.483 55.3314 20.7081 55.5336 20.9375C55.5764 20.986 55.6192 21.0346 55.6626 21.0835C55.6851 21.1087 55.5216 20.9032 55.7128 21.1192C55.7423 21.1528 55.9036 21.3666 56.1261 21.6279C56.6623 22.1733 56.957 22.6505 57.5279 23.4286C57.5149 23.3944 57.1073 22.7962 57.0809 22.7639C56.7258 22.2656 56.1165 21.5005 55.574 20.9012C55.4004 20.7079 55.2361 20.5314 55.0947 20.3828C54.9449 20.2259 55.0078 20.3116 54.9427 20.2448C54.891 20.1923 54.9707 20.2368 54.7912 20.0675ZM22.9377 56.8734C23.0037 56.9547 23.3003 57.1513 23.4858 57.2819C23.4333 57.2179 23.1119 57.0109 22.9377 56.8734ZM59.7499 27.4016C59.7032 27.2973 59.5628 26.9744 59.5429 26.9514C59.519 26.9213 59.7254 27.3857 59.7499 27.4016ZM15.6828 25.8418C15.687 25.8314 15.8158 25.5899 15.8217 25.5815C15.9537 25.375 15.5678 26.099 15.6828 25.8418ZM19.4517 20.5135C19.5904 20.3597 19.7303 20.2032 19.7938 20.1674C19.6985 20.2599 19.4452 20.5407 19.4517 20.5135ZM26.6793 15.1755C26.6286 15.1683 27.2 14.9185 27.3105 14.8742C27.2738 14.9015 26.7153 15.1775 26.6793 15.1755ZM61.1575 31.3406C61.2485 31.7122 61.2682 31.6245 61.3055 31.8654C61.3109 31.905 61.2585 32.0478 61.193 31.6324C61.1803 31.5576 61.2715 31.8402 61.1575 31.3406ZM48.3365 15.4083C48.4313 15.4358 48.7 15.5801 48.8796 15.6787C48.8338 15.6682 48.4677 15.472 48.3365 15.4083ZM24.8806 58.2079C25.0191 58.3255 25.7494 58.7179 25.5793 58.602C25.554 58.5877 24.9784 58.2709 24.8806 58.2079ZM13.0208 35.2434C13.0272 34.902 12.9662 35.6058 12.9768 35.8295C12.9795 35.7286 13.0193 35.2663 13.0208 35.2434ZM24.7631 16.1928C24.7763 16.1832 25.088 16.0021 25.1033 15.9951C25.3686 15.8632 24.4865 16.3766 24.7631 16.1928ZM18.0296 22.1315C18.0939 22.016 18.6455 21.3598 18.7858 21.2281C18.6781 21.3781 17.9429 22.2685 18.0296 22.1315ZM60.7115 29.8314C60.7961 30.0908 60.8664 30.3397 60.929 30.5827C60.9036 30.5349 60.713 29.8615 60.7115 29.8314ZM25.9177 15.5415C25.9348 15.5326 25.9522 15.5252 25.9686 15.5168C25.9513 15.5252 25.9343 15.5334 25.9177 15.5415ZM58.1432 24.3067C58.0259 24.1108 58.0296 24.1646 58.0367 24.1768C58.122 24.3253 58.2756 24.5302 58.1432 24.3067ZM23.1259 57.058C23.1763 57.1234 23.4995 57.3326 23.6796 57.4614C23.636 57.4109 23.2709 57.1618 23.1259 57.058ZM43.4463 13.542C43.1747 13.4428 44.3127 13.7188 44.5418 13.8146C44.5564 13.8292 43.4871 13.5498 43.4463 13.542ZM12.9295 36.2985C12.9098 36.3208 12.9209 36.8124 12.9317 36.7082C12.9373 36.6422 12.9405 36.2852 12.9295 36.2985ZM45.0984 14.005C45.2045 14.0344 45.4408 14.1354 45.3521 14.1158C45.2384 14.0905 45.071 13.9974 45.0984 14.005ZM53.5836 18.9002C53.5503 18.8643 53.0483 18.4572 53.239 18.6447C53.3712 18.7747 53.41 18.7752 53.443 18.8037C53.4818 18.8333 54.2317 19.5542 53.5836 18.9002ZM36.9687 12.737C37.2123 12.7271 37.5071 12.7362 37.7621 12.7412C37.6579 12.7482 37.0726 12.7485 36.9687 12.737ZM13.0591 34.41C13.0342 34.4669 12.9083 36.0751 12.9987 35.1631C13.0001 35.1095 13.0981 34.2335 13.0591 34.41ZM61.1575 31.3406C61.1459 31.2937 61.1329 31.2396 61.1183 31.1766C61.1338 31.2389 61.1465 31.2933 61.1575 31.3406ZM59.727 27.2429C59.7755 27.3174 59.5944 26.9128 59.5306 26.7978C59.5 26.7679 59.7215 27.232 59.727 27.2429ZM37.7818 12.7236C37.9291 12.719 38.1957 12.7355 38.3776 12.7432C38.3462 12.7526 37.8452 12.7358 37.7818 12.7236ZM27.7122 14.6385C27.9834 14.5303 28.3155 14.3957 28.3158 14.38C28.3223 14.38 28.3364 14.377 28.3593 14.3708C28.3822 14.364 28.6721 14.2452 28.8016 14.2035C29.5608 13.9133 25.9034 15.4169 28.0004 14.489C27.904 14.5382 27.8079 14.588 27.7122 14.6385ZM17.3118 23.0425C17.2004 23.1673 16.9594 23.564 17.0328 23.4683C17.0817 23.4007 17.4214 22.9169 17.3118 23.0425ZM21.6189 18.3529C21.5783 18.3812 21.2417 18.6859 21.2397 18.7016C21.4424 18.5362 21.8015 18.2202 21.6189 18.3529ZM16.5882 24.0921C16.5304 24.1789 16.4855 24.3071 16.493 24.2973C16.5569 24.2128 16.695 23.9527 16.5882 24.0921ZM61.0255 30.554C60.9918 30.4018 60.8269 29.9351 60.7746 29.839C60.772 29.8188 60.7601 29.7659 60.7347 29.67C60.7348 29.6703 60.7349 29.6706 60.735 29.6709C60.7604 29.5191 59.2245 25.8295 60.2225 28.3164C60.2518 28.3949 60.2273 28.2816 60.347 28.601C60.3548 28.6222 60.3458 28.6376 60.3696 28.7028C60.4286 28.8525 60.7016 29.66 60.7613 29.8215C60.7593 29.8236 60.7603 29.835 60.7654 29.8581C60.8127 30.0632 61.0536 30.6707 61.0255 30.554ZM22.3179 17.7865C22.2423 17.8379 22.0182 18.0219 22.0027 18.0507C22.118 17.9642 22.4928 17.6662 22.3179 17.7865ZM13.0033 34.4543C12.9719 34.6382 12.9497 35.1098 12.9723 34.9687C12.9838 34.8821 13.0373 34.2422 13.0033 34.4543ZM20.1422 19.698C20.9188 18.9698 20.3238 19.5204 20.4287 19.3941C20.3321 19.4948 20.2366 19.5961 20.1422 19.698ZM61.8626 35.4144C61.8527 35.2445 61.9055 35.4409 61.8994 35.6293C61.8974 35.6884 61.8681 35.5093 61.8626 35.4144ZM61.2961 43.0425C61.3617 42.9088 61.1753 43.5935 61.2202 43.3198C61.2229 43.3072 61.2929 43.0524 61.2961 43.0425ZM61.9632 37.7256C61.9428 37.6098 61.9425 37.5347 61.9461 37.2095C61.9529 37.6909 61.9735 37.2443 61.9632 37.7256ZM28.312 14.379C28.3141 14.3792 28.3158 14.3792 28.3158 14.38C28.3136 14.3801 28.3125 14.3797 28.312 14.379ZM16.0777 24.9548C15.9947 25.0614 15.8152 25.3899 15.8852 25.3011C15.8914 25.2923 16.0617 25.0088 16.0777 24.9548ZM60.7746 29.839C60.7769 29.8569 60.7722 29.8489 60.7613 29.8215C60.7632 29.8194 60.7677 29.8259 60.7746 29.839ZM17.1334 23.2459C17.1358 23.2639 17.4679 22.8011 17.4816 22.7824C17.655 22.5032 17.2635 23.0505 17.1334 23.2459ZM12.8669 38.2178C12.8696 38.2471 12.8963 38.0561 12.8788 37.9405C12.8651 37.8509 12.8562 38.1079 12.8669 38.2178ZM61.9322 38.8306C61.922 39.0108 61.9033 39.2644 61.8828 39.3098C61.8955 39.1895 61.9207 38.8262 61.9322 38.8306ZM61.3807 42.7769C61.4091 42.5646 61.5078 42.0879 61.5652 41.7821C61.5945 41.7816 61.4224 42.5811 61.3807 42.7769ZM61.147 31.0285C61.1452 31.0137 61.0316 30.5754 61.0311 30.6398C61.0325 30.7333 61.171 31.154 61.147 31.0285ZM12.8616 37.3384C12.8479 37.1359 12.8148 37.6027 12.8505 37.8157C12.8672 37.9249 12.8624 37.3724 12.8616 37.3384ZM15.5014 25.9718C15.3887 26.2145 15.7064 25.6322 15.7356 25.5441C15.6763 25.6511 15.541 25.8855 15.5014 25.9718ZM21.019 18.8082C20.9759 18.842 20.9375 18.8728 20.9031 18.9007C20.4078 19.3088 20.7686 19.0913 20.867 18.9913C20.8725 18.9857 20.8968 18.9573 20.9246 18.9245C20.9718 18.8686 21.0292 18.8002 21.019 18.8082ZM26.66 59.2989C26.7698 59.3454 26.3839 59.1244 26.3253 59.1127C26.2885 59.1065 26.5893 59.27 26.66 59.2989ZM32.2257 13.1952C32.191 13.2026 32.1565 13.2101 32.1224 13.2175C32.1478 13.2112 32.1814 13.2038 32.2257 13.1952ZM14.4458 28.1586C14.7326 27.6326 14.6606 27.6722 14.6798 27.6239C14.7232 27.5212 14.8428 27.2908 14.9255 27.0977C14.8352 27.321 14.7484 27.5452 14.6651 27.7703C14.7283 27.5909 15.4436 26.1062 15.46 26.076C15.4661 26.0237 15.2415 26.4911 15.2349 26.5046C15.2236 26.5232 15.146 26.576 15.1239 26.6189C15.0788 26.6858 14.5275 27.9514 14.4458 28.1586ZM19.7489 20.0324C19.8478 19.9392 19.8884 19.925 19.9297 19.8771C19.9438 19.8607 19.9335 19.8456 19.9823 19.7903C19.9038 19.8706 19.826 19.9513 19.7489 20.0324ZM14.1443 29.1797C14.0681 29.3311 14.3236 28.6228 14.3369 28.6022C14.3942 28.4865 14.2035 29.0545 14.1443 29.1797ZM16.9607 23.472C16.9435 23.4923 16.6215 23.9742 16.6357 23.9773C16.723 23.851 17.1544 23.2115 16.9607 23.472ZM20.0453 19.7259C20.1897 19.5845 20.4798 19.333 20.4296 19.3439C20.4294 19.3441 20.4292 19.3443 20.429 19.3445C20.2994 19.4706 20.1715 19.5977 20.0453 19.7259ZM12.8079 36.6446C12.7598 37.021 12.8148 36.8427 12.8359 36.5099C12.8191 36.4084 12.8158 36.5829 12.8079 36.6446ZM12.7829 37.8512C12.7721 37.9569 12.8432 39.0363 12.8581 38.8697C12.8599 38.8108 12.8047 38.1919 12.807 38.1629C12.8076 38.1194 12.8403 38.3164 12.8225 37.9855C12.8145 38.0052 12.7843 37.8153 12.7829 37.8512ZM12.7766 36.9563C12.7428 37.3314 12.8053 37.415 12.8039 37.1335C12.8038 37.0236 12.7817 36.9029 12.7766 36.9563ZM12.838 35.4268C12.8227 35.5608 12.7936 35.9194 12.8049 36.1676C12.8191 35.8367 12.8399 35.506 12.8674 35.1759C12.8591 35.137 12.8508 35.3094 12.8379 35.4277C12.8379 35.4274 12.838 35.4271 12.838 35.4268ZM60.9375 44.9901C61.0457 44.7109 60.8396 45.3682 60.8241 45.3939C60.7832 45.4713 60.8902 45.1151 60.9375 44.9901ZM28.5927 60.7351C28.6691 60.7712 28.713 60.8121 28.8915 60.8651C28.7216 60.7854 28.5528 60.7039 28.385 60.6206C28.2361 60.603 28.5091 60.6958 28.5927 60.7351ZM29.2176 61.1096C29.1923 61.1015 29.3097 61.2053 28.9991 61.054C28.7888 60.9558 29.9868 61.3409 30.1994 61.423C29.9549 61.3631 29.4351 61.179 29.2176 61.1096ZM31.2681 61.9874C31.281 61.9965 30.8117 61.8806 30.7588 61.8614C30.4803 61.7673 31.1967 61.9465 31.2681 61.9874ZM29.7893 61.5539C30.0018 61.6332 29.5211 61.4884 29.3817 61.4331C29.3711 61.4189 29.7563 61.5425 29.7893 61.5539ZM62.5148 42.2191C62.5997 41.9847 62.5545 41.7534 62.5032 42.1279C62.5007 42.1458 62.511 42.229 62.5148 42.2191ZM30.7958 61.9239C30.5797 61.8531 31.0668 61.9789 31.2107 62.0209C31.2214 62.0355 30.8286 61.9354 30.7958 61.9239ZM62.6395 42.0662C62.726 41.7488 62.6108 41.8458 62.6001 41.8852C62.5576 42.0482 62.4831 42.6212 62.466 42.7383C62.6251 41.8892 62.5961 42.2149 62.6395 42.0662ZM62.8128 40.5662C62.8405 40.2643 62.7245 41.0299 62.726 41.1795C62.7477 41.0305 62.8058 40.6523 62.8128 40.5662ZM63.0051 38.7351C63.0183 38.5724 63.0437 38.0873 63.0295 38.0055C63.0293 38.1838 62.9943 38.6656 63.0051 38.7351ZM63.0667 38.3677C63.0962 38.1129 63.0384 38.0499 63.0462 38.3447C63.0465 38.3562 63.0652 38.377 63.0667 38.3677ZM63.1028 36.9309C63.1234 36.7625 63.0606 36.5726 63.0656 36.8442C63.0669 36.9249 63.1003 36.9487 63.1028 36.9309ZM62.812 41.6794C62.8617 41.4433 62.8691 41.1307 62.7829 41.6371C62.8064 41.4581 62.8279 41.279 62.8475 41.0997C62.7248 41.7607 62.7833 41.7204 62.7489 41.9107C62.6978 42.1759 62.6543 42.146 62.6498 42.0901C62.6416 42.3132 62.4519 43.234 62.3184 43.7603C62.4504 43.3016 62.637 42.5486 62.7278 42.0853C62.7545 41.9533 62.7643 41.8223 62.7849 41.7094C62.8177 41.5283 62.8091 41.6926 62.8118 41.6804C62.8119 41.6801 62.8119 41.6798 62.812 41.6794ZM63.0013 35.0439C62.9807 34.5503 62.9545 34.8662 62.9893 35.1426C62.9911 35.1545 63.0018 35.0562 63.0013 35.0439ZM31.3838 62.2581C30.7508 62.0678 31.2188 62.179 29.8819 61.8327C30.4466 61.969 29.9197 61.8187 30.0321 61.8384C30.1219 61.8548 30.4452 61.9591 30.262 61.8822C30.5022 61.9856 31.5957 62.2607 31.6449 62.2705C31.6444 62.2704 31.644 62.2703 31.6435 62.2702C31.6724 62.2792 31.5867 62.3157 31.3838 62.2581ZM63.1564 38.7406C63.2347 38.5791 63.1275 38.5095 63.1963 38.1874C63.1308 37.7532 63.1465 39.3803 63.0451 39.5699C63.1852 37.8147 62.88 40.7234 63.0866 39.5073C62.9557 40.5134 63.0694 39.8396 63.0687 39.9969C63.0682 40.1654 62.9835 40.7339 63.012 40.7082C63.0121 40.7079 63.0121 40.7075 63.0122 40.7072C63.0553 40.3582 63.0913 40.0085 63.1202 39.6581C63.0335 39.9954 63.1147 39.283 63.1733 39.0424C63.1683 38.9417 63.1626 38.8411 63.1564 38.7406ZM62.9243 40.7126C62.9328 40.6788 63.0103 39.9205 62.9918 39.9682C62.9801 40.0692 62.8528 41.1427 62.9243 40.7126ZM62.2904 44.0053C62.3616 43.7408 62.4718 43.3318 62.4839 43.1814C62.4232 43.4485 62.3088 43.8558 62.2904 44.0053ZM62.1029 30.0803C61.9895 29.7499 62.2803 30.784 62.2149 30.4797C62.2124 30.4645 62.1092 30.0964 62.1029 30.0803ZM63.175 37.946C63.2027 37.5911 63.1324 37.7581 63.1442 38.0211C63.1449 38.0363 63.1737 37.9624 63.175 37.946ZM30.8635 62.133C30.835 62.1469 29.9169 61.8711 29.7563 61.8153C29.8517 61.8353 30.8932 62.1263 30.8635 62.133ZM62.2229 44.4871C62.4336 43.9783 62.5375 43.2384 62.5554 43.1599C62.5749 43.0814 62.5724 43.2109 62.5771 43.1931C62.5915 43.1531 62.7667 42.3099 62.7693 42.2678C62.7735 42.2383 62.7079 42.3842 62.7298 42.2076C62.6994 42.5547 62.3217 44.0817 62.2936 44.1587C62.2794 44.2205 62.4447 43.7713 62.2231 44.4862C62.2231 44.4865 62.223 44.4868 62.2229 44.4871ZM62.6078 42.9634C62.5467 43.17 62.6736 42.581 62.7057 42.4387C62.7821 42.1233 62.6186 42.9375 62.6078 42.9634ZM62.8939 41.5415C62.9103 41.4744 63.0038 40.8595 62.9918 40.8046C62.9331 41.0933 62.8613 41.6944 62.8939 41.5415ZM63.0809 34.6468C63.0629 34.4865 63.0218 34.0438 63.0028 34.0207C63.0271 34.1806 63.0641 34.6231 63.0809 34.6468ZM27.7175 61.212C27.9618 61.3255 27.3825 61.0945 27.2188 61.0147C27.2134 61.0027 27.6962 61.2035 27.7175 61.212ZM63.3204 37.8886C63.3444 37.7925 63.2935 35.835 63.2474 35.5628C63.2743 35.8308 63.3136 37.7685 63.3003 37.8567C63.3015 37.8825 63.3194 37.9008 63.3204 37.8886ZM62.9032 42.0978C62.8926 42.2786 62.8435 42.3886 62.8389 42.4107C62.794 42.6282 62.7006 43.0789 62.7011 42.9757C62.7978 42.5959 62.9241 41.7385 62.9032 42.0978ZM63.1658 34.4979C63.0831 33.8385 63.2006 35.1092 63.2029 34.9408C63.2038 34.9299 63.175 34.5661 63.1658 34.4979ZM63.3217 38.1074C63.3536 38.2554 63.2032 40.2101 63.1454 40.5201C63.1459 40.2366 63.1959 40.0141 63.2273 39.6369C63.2355 39.5352 63.2194 39.5612 63.2203 39.5503C63.2341 39.3742 63.2393 39.5072 63.2481 39.3986C63.2634 39.3303 63.3091 37.9007 63.3217 38.1074ZM62.8996 42.2015C62.8992 42.3129 62.6443 43.5112 62.6226 43.5566C62.5182 43.9101 62.8908 42.2971 62.8996 42.2015ZM63.3555 37.9284C63.3938 38.1403 63.322 39.113 63.3332 38.446C63.3343 38.3824 63.3605 38.1136 63.3555 37.9284ZM63.21 34.5645C63.2098 34.5316 63.1323 33.8415 63.1163 33.8313C63.1302 33.9304 63.239 34.9362 63.21 34.5645ZM63.2876 34.9184C63.2855 34.9019 63.2783 35.066 63.2492 34.7418C63.2462 34.7148 63.2701 34.6614 63.2124 34.2556C63.2006 34.1732 63.1668 34.0476 63.1669 34.057C63.1878 34.4835 63.375 35.7553 63.2876 34.9184ZM62.9166 42.2275C62.9398 42.1646 62.9433 42.3275 62.8987 42.4654C62.8794 42.5244 62.8829 42.4078 62.9166 42.2275ZM62.8907 32.3868C62.9906 32.7789 62.7423 31.5354 62.7152 31.475C62.7155 31.5169 62.8845 32.3471 62.8907 32.3868ZM27.0751 61.109C27.0754 61.1091 27.0757 61.1092 27.076 61.1094C26.7662 60.9677 26.9661 61.0375 26.9516 61.0307C26.3013 60.7101 26.4622 60.8203 26.357 60.7772C26.1334 60.6808 26.1881 60.6579 25.8129 60.492C26.4323 60.7676 25.8743 60.5051 25.8648 60.4813C25.8253 60.39 26.6601 60.9065 26.9778 61.0258C27.0214 61.0435 26.7135 60.8818 26.8259 60.9256C27.188 61.072 28.2721 61.6339 27.0751 61.109ZM62.8798 42.5746C62.875 42.7347 62.5818 43.8955 62.6385 43.5826C62.655 43.5341 62.902 42.3428 62.8798 42.5746ZM27.872 12.9622C28.1349 12.8418 27.5038 13.0656 27.3958 13.1268C27.3415 13.1557 27.756 13.0141 27.872 12.9622ZM23.6506 14.9805C23.3601 15.1637 23.095 15.4205 23.4486 15.1814C23.486 15.1559 23.689 14.9681 23.6506 14.9805ZM45.3141 12.4453C44.9812 12.3123 44.9874 12.3644 45.2374 12.4428C45.3256 12.4709 45.3245 12.4495 45.3141 12.4453ZM31.8405 11.7481C31.805 11.7531 31.4019 11.8459 31.4192 11.8538C31.5693 11.8244 32.0692 11.7112 31.8405 11.7481ZM45.4241 12.474C45.22 12.4166 45.5562 12.5607 45.8118 12.6144C45.6866 12.5736 45.4452 12.4798 45.4241 12.474ZM63.4646 37.1918C63.445 37.0145 63.4401 36.5126 63.4227 36.2248C63.4487 36.1925 63.4621 36.9858 63.4646 37.1918ZM24.9246 14.2766C24.6482 14.4463 25.2655 14.1296 25.199 14.1402C25.1905 14.1428 24.9354 14.2695 24.9246 14.2766ZM55.1716 18.2595C54.9906 18.1086 55.5186 18.6375 55.3877 18.4769C55.3813 18.4688 55.1818 18.2674 55.1716 18.2595ZM57.4039 20.6431C57.2956 20.5003 56.7942 19.9279 56.9779 20.1608C57.0082 20.1963 57.3852 20.6397 57.4039 20.6431ZM26.3311 60.7849C26.4068 60.8505 25.9052 60.6017 25.8365 60.5604C25.8091 60.5453 26.2316 60.7018 26.3311 60.7849ZM43.0766 11.826C42.8956 11.7868 42.4276 11.6826 42.3417 11.6805C42.5648 11.7197 43.13 11.8648 43.0766 11.826ZM26.2449 13.6103C25.9772 13.7034 25.5454 13.9226 25.6689 13.9019C26.1463 13.6645 25.5939 13.8975 26.2449 13.6103ZM46.5585 12.843C46.4203 12.7883 46.3013 12.7823 46.3165 12.7896C46.4617 12.8596 46.6914 12.9084 46.5585 12.843ZM35.6198 11.218C35.6103 11.2024 35.1359 11.2436 35.2001 11.2491C35.2212 11.2499 35.6275 11.2289 35.6198 11.218ZM62.6906 31.0257C62.6514 30.8107 62.825 31.4538 62.8502 31.6504C62.8503 31.7483 62.6981 31.0524 62.6906 31.0257ZM50.2756 14.6093C50.3068 14.5989 49.65 14.2487 49.8976 14.4069C49.9598 14.4457 50.2653 14.6114 50.2756 14.6093ZM55.92 18.926C55.5589 18.5819 56.9851 20.1147 56.6311 19.693C56.6087 19.6587 55.9545 18.9516 55.92 18.926ZM58.1511 21.5212C58.1007 21.4511 58.1882 21.4389 58.3786 21.7422C58.4036 21.7819 58.2568 21.6184 58.276 21.6518C58.2895 21.6695 58.737 22.3031 58.7567 22.3329C58.7804 22.3632 58.7741 22.3124 58.7987 22.3428C58.8271 22.3768 59.0805 22.7812 59.217 22.9915C59.4746 23.3862 59.5152 23.4198 59.5366 23.4524C59.5968 23.548 59.6849 23.7165 59.8023 23.9122C60.4062 24.892 61.1996 26.4686 61.4993 27.3321C61.2034 26.5771 60.8566 25.883 60.4757 25.1725C60.6274 25.3589 59.8789 24.1465 60.3221 24.8524C60.1758 24.4912 58.3573 21.7205 58.1517 21.522C58.1515 21.5217 58.1513 21.5215 58.1511 21.5212ZM22.5054 15.7039C22.6633 15.5594 21.7795 16.1923 21.7292 16.2743C21.8422 16.1906 22.4844 15.7185 22.5054 15.7039ZM26.8357 13.2203C26.9265 13.1768 26.9937 13.0887 27.4927 12.913C27.4932 12.9129 27.4936 12.9127 27.494 12.9125C27.64 12.8619 27.4814 12.9387 27.5092 12.9322C27.5187 12.9295 27.9771 12.7755 27.6058 12.9265C27.044 13.1608 27.5385 12.9126 27.2377 13.0357C27.2002 13.0492 26.6455 13.3186 26.6813 13.3109C26.6849 13.3099 26.8522 13.23 26.8814 13.2202C26.9911 13.1828 26.9456 13.2195 26.9609 13.2137C27.0088 13.1904 27.899 12.7991 28.0421 12.7751C28.0827 12.756 26.6153 13.3777 26.561 13.4113C26.5241 13.4253 26.5214 13.379 26.4824 13.392C26.461 13.3973 25.8879 13.6845 25.8119 13.7197C25.7897 13.7293 25.7725 13.7364 25.7599 13.7415C25.8526 13.7095 25.3317 13.9697 25.3411 13.9495C25.3472 13.9388 25.7069 13.761 25.7205 13.7563C25.7263 13.7539 25.7315 13.752 25.7362 13.7501C25.6515 13.7652 26.8814 13.1945 26.6067 13.2966C26.9618 13.1247 26.5699 13.3513 26.8357 13.2203ZM28.5858 12.5032C28.549 12.521 28.5122 12.5388 28.4755 12.5568C29.1206 12.3141 29.8859 12.0964 30.6541 11.8966C30.849 11.8463 30.6177 11.8766 30.8753 11.819C31.0819 11.7733 31.3153 11.7454 31.2049 11.7773C31.178 11.7845 30.7565 11.8702 30.5489 11.9282C29.9362 12.0994 30.0987 12.0833 30.0628 12.093C30.0232 12.1044 29.6356 12.2006 29.4275 12.2677C28.9046 12.437 28.6714 12.5278 27.9623 12.774C28.3624 12.6071 28.1278 12.6561 28.5858 12.5032ZM52.9431 16.2789C52.9734 16.2817 53.3233 16.5636 53.4527 16.6638C53.4236 16.6591 53.0757 16.3736 52.9431 16.2789ZM12.8977 46.2936C12.9655 46.4153 12.6237 45.4391 12.696 45.7025C12.7106 45.7615 12.8513 46.1717 12.8977 46.2936ZM11.6791 41.8066C11.6468 41.6714 11.7319 42.224 11.7518 42.2188C11.757 42.2171 11.6824 41.8242 11.6791 41.8066ZM37.3267 11.0528C37.353 11.0514 37.7344 11.0611 37.7463 11.0633C37.9984 11.09 36.7438 11.0679 37.3267 11.0528ZM11.2416 36.1736C11.2373 36.6569 11.3092 35.2042 11.268 35.6471C11.2647 35.6691 11.2405 36.1502 11.2416 36.1736ZM11.386 34.1559C11.3724 34.271 11.3147 34.7828 11.3227 34.7903C11.3324 34.8013 11.3984 34.2162 11.386 34.1559ZM46.6855 12.7917C46.6435 12.7442 47.2696 13.0125 47.4866 13.1032C47.5283 13.1494 46.9082 12.8705 46.6855 12.7917ZM42.5824 11.5687C45.3728 12.2137 44.7497 12.0975 42.4126 11.5481C42.4127 11.53 42.4052 11.5338 42.5824 11.5687ZM46.1102 12.5603C46.0061 12.5417 45.7007 12.4297 45.4924 12.3601C45.534 12.3599 45.9599 12.5089 46.1102 12.5603ZM13.3214 47.4545C13.2268 47.2997 12.9574 46.55 13.0192 46.6778C13.03 46.7098 13.3559 47.5112 13.3214 47.4545ZM37.5667 11.0307C37.5003 11 38.3605 11.0324 38.4258 11.045C38.6899 11.0783 37.6367 11.0202 37.5667 11.0307ZM50.3624 14.5141C50.5053 14.5709 50.8723 14.7999 51.1069 14.9466C50.9908 14.8947 50.5677 14.6309 50.3624 14.5141ZM48.5965 13.5686C48.6128 13.5747 48.9598 13.7458 48.9746 13.755C49.2502 13.9123 48.269 13.4295 48.5965 13.5686ZM27.4312 61.4822C27.4188 61.4782 27.1492 61.3626 27.1403 61.3575C26.9073 61.2367 27.7165 61.5831 27.4312 61.4822Z" fill="#FFD170"/>
</svg>
