<svg width="81" height="82" viewBox="0 0 81 82" fill="none" xmlns="http://www.w3.org/2000/svg">
<path d="M71.5605 0.010657C73.7723 -0.102514 76.0702 0.68239 77.7726 2.24076C78.1571 2.59844 78.0576 2.62977 78.2006 2.78833C78.4626 3.07822 78.9493 3.52998 79.0038 3.60733C79.3517 4.06763 79.0953 3.97276 79.1372 4.03759C79.5597 4.77683 79.572 4.48014 79.9724 5.20299C80.4778 6.15252 80.8545 7.51104 80.9137 8.80158C80.9277 9.10379 80.8776 9.1156 80.8496 9.37817C80.8346 9.49751 80.8245 9.67402 80.8275 9.96925C80.834 10.5966 80.959 12.5212 80.8255 13.4074C80.7751 13.4126 80.7194 13.3007 80.6674 13.2536C80.8775 14.524 80.8683 14.9786 80.817 16.7797C80.809 17.0646 80.8953 17.3344 80.8634 17.8363C80.8315 18.338 80.6985 18.3592 80.7001 19.3681C80.701 19.7259 80.7948 19.9431 80.7988 20.4918C80.8105 22.0525 80.694 25.0248 80.69 26.3057C80.6819 28.8282 80.842 30.2007 80.7864 32.4409C80.7824 32.6135 80.6795 32.2345 80.6775 32.5508C80.6755 32.8697 80.8117 33.2018 80.815 33.2802C80.85 34.1271 80.6675 35.9167 80.6896 36.3878C80.7436 37.5327 80.8037 36.4044 80.8295 37.9912C80.8541 39.5022 80.6767 41.5883 80.642 43.086C80.6017 44.8216 80.8593 45.3813 80.5903 46.6883C80.6061 51.2786 80.6157 55.8871 80.6294 60.4826C80.5758 60.4695 80.5221 60.4543 80.4685 60.4386C80.5056 60.802 80.5428 61.1654 80.5795 61.5288C80.5396 61.4739 80.4996 61.4218 80.4601 61.3669C80.6141 63.0736 80.6936 64.5948 80.6513 66.5889C80.6505 66.6279 80.5435 66.5254 80.5408 66.5577C80.5206 67.0073 80.6029 67.5098 80.5835 67.9045C80.5371 68.8587 80.304 70.4794 80.5891 69.7658C80.5711 70.4483 80.5676 71.1674 80.5699 71.8977C80.5909 73.6519 80.0406 75.4683 79.1525 76.7579C78.5923 77.5611 78.2497 77.652 77.9374 77.9805C77.6126 78.2998 77.876 78.2364 77.7635 78.3556C77.0993 79.1007 75.6616 79.9252 75.4325 79.8272C75.2857 79.9718 75.1214 80.1179 74.9585 80.255C75.0153 80.1207 72.6167 80.9141 71.5439 80.813C71.448 80.8136 71.365 80.8138 71.2985 80.8134C71.16 80.8126 71.1406 80.7337 71.0361 80.7345C69.8707 80.7446 69.5858 80.8684 68.5875 80.9095C68.2372 80.924 68.7804 80.7848 67.8812 80.8449C67.8028 80.8502 67.8444 80.9753 66.7702 80.9745C65.0553 80.9733 61.7748 81.0228 59.7332 80.9612C59.5659 80.9563 60.0752 80.82 59.3101 80.8518C59.033 80.8631 59.1657 80.9599 58.4939 80.9607C55.8902 80.9647 53.114 80.8534 50.458 80.9458C50.5548 80.8365 51.5009 80.7139 50.0788 80.7824C49.8516 80.7938 50.0212 80.8914 49.9193 80.895C49.0934 80.9232 48.3773 80.8535 47.4835 80.891C47.2194 80.9023 47.1539 80.9789 46.8245 80.997C46.3383 81.024 46.1232 80.9148 45.5586 80.9612C44.6756 81.0341 44.5391 81.1377 43.4442 80.9345C37.2384 80.9474 31.0614 81.0047 24.8765 80.9151C23.0885 80.9732 21.4386 81.0381 19.5748 81.0603C19.0259 81.0667 18.9209 80.928 18.0453 80.974C17.8492 80.9841 16.4504 81.1329 16.2465 80.8526C15.8571 80.8768 15.6111 80.8776 15.2765 80.8925C15.5301 80.9337 15.7918 80.9753 16.0349 81.0168C14.6233 80.9721 13.4706 81.0709 12.221 81.1176C11.3011 81.1519 11.9543 81.0317 11.3898 81.0438C10.8252 81.0555 10.5684 81.0825 9.86265 80.9386C9.63375 81.0072 9.43653 81.0276 9.21184 81.0276C8.86724 81.0253 8.46786 80.9762 7.83333 80.8797C7.71737 80.8648 7.03178 80.8112 6.48912 80.6221C6.10034 80.4847 6.01905 80.3567 5.42449 80.1087C5.3211 80.0895 4.0551 79.5327 3.70714 79.2483C3.12943 78.8608 2.46862 77.9793 2.39466 77.8757C1.20473 76.4036 0.803775 75.7067 0.598087 74.3685C0.391361 74.1521 0.056416 73.042 0.0646646 72.1169C0.063973 72.0479 0.064821 71.9746 0.0673277 71.8977C0.107041 70.7708 0.323549 68.8388 0.0629403 68.5609C0.186337 67.3115 0.110179 67.4472 0.107741 65.9656C0.105322 64.6168 0.211301 61.0459 0.196001 59.9528C0.181078 58.8601 0.0269891 59.3926 0.00642013 58.9586C-0.0277751 58.2483 0.085916 58.632 0.0843032 58.1459C0.0794619 56.771 0.0577342 55.576 0.00812916 54.2638C0.0879538 54.1933 0.16818 54.1173 0.248004 54.0442C0.221402 53.9762 0.19477 53.9086 0.168168 53.8407C0.168974 53.5584 0.167336 53.242 0.169755 52.9806C-0.180663 55.1864 0.195673 50.85 0.204546 49.5482C0.211804 48.4503 0.0456109 46.6227 0.00971612 45.4176C0.00088666 45.1251 0.0871431 45.3261 0.0851577 45.2661C0.0605556 44.5603 0.00164983 44.4532 0.00971612 43.5043C0.0141571 43.0025 0.122173 42.4902 0.124221 42.0014C0.13874 38.4123 0.0302074 34.9485 0.0185054 31.3829C0.0164891 30.7765 0.148351 30.2533 0.1512 29.7436C0.155232 29.0144 0.0472678 28.5542 0.0456058 27.8696C0.0439927 27.1874 0.173019 26.204 0.153275 25.7413C0.133916 25.2786 0.00888264 26.0703 0.0431643 25.2233C0.0589187 24.8343 0.152029 25.5214 0.154862 25.0407C0.163734 23.5403 0.0484215 21.4229 0.160111 19.8257C0.132291 19.8962 0.107253 19.9926 0.080641 20.0788C0.091533 18.3771 0.158489 16.8737 0.168168 15.117C0.171766 14.5027 0.0900231 13.3948 0.0904069 12.791C0.0908101 12.1872 0.179505 11.9125 0.181962 11.4291C0.183172 11.2304 0.103687 11.3081 0.1053 11.1748C0.113991 10.4844 0.14334 9.92297 0.173607 9.37817C0.222714 8.55793 0.344097 7.78227 0.644824 6.74552C1.67063 3.10847 5.30208 0.296304 9.21184 0.325417C12.1082 0.301819 15.011 0.278662 17.8941 0.255034C18.1554 0.252927 18.3312 0.149378 18.7126 0.134059C19.3003 0.110346 19.329 0.20188 19.4074 0.205106C19.9196 0.22525 19.7107 0.140529 20.3982 0.140529C21.9118 0.140529 24.3534 0.215587 25.8618 0.209134C29.3385 0.194211 32.2611 0.113513 35.6699 0.0727778C35.9156 0.0695513 35.749 0.19214 36.1751 0.193753C39.1783 0.206642 39.814 0.08927 43.552 0.12234C47.2903 0.155413 54.3459 0.229672 58.7219 0.246611C58.7219 0.246896 58.7219 0.247181 58.7219 0.247465C60.0994 0.0208257 61.8817 0.077196 63.3612 0.248564C54.8287 0.807555 46.6648 0.558789 37.552 0.580971C28.353 0.603055 18.5705 0.978576 9.21184 0.959326C8.82781 0.958585 8.44846 0.982554 8.0692 1.03173C7.17843 1.16224 6.78475 1.14737 6.06972 1.44494C5.9513 1.49772 6.29734 1.464 5.93491 1.62352C2.98523 2.91374 0.78741 6.0424 0.790634 9.37817C0.76406 11.6811 0.741335 13.9632 0.767062 16.1679C0.784001 17.6213 0.894921 17.8492 0.92356 19.1274C0.871146 18.9027 0.816339 18.7557 0.763522 18.5598C0.599776 24.3945 0.672775 30.2376 0.649383 36.1482C0.648148 36.4148 0.539643 36.4489 0.53561 36.7286C0.527159 37.2879 0.646537 37.8236 0.650604 38.3124C0.655847 38.9502 0.569516 39.0606 0.575162 39.6488C0.578051 39.9359 0.661017 39.85 0.646941 40.4742C0.645732 40.5265 0.558686 40.5607 0.569913 40.976C0.600965 42.113 0.673984 44.437 0.695771 45.3783C0.723594 46.5805 0.592471 47.5453 0.583951 48.0002C0.560966 49.2287 0.695236 49.2031 0.695283 50.243C0.696075 57.5145 0.548702 64.4715 0.544601 71.8977C0.544527 72.0358 0.547733 72.1734 0.554173 72.3103C0.534586 72.8079 1.00907 74.5453 1.40901 75.3337C1.49125 75.6222 2.26315 76.9751 2.43496 77.1423C3.00282 77.8986 3.57219 78.508 3.98536 78.8418C4.78406 79.5069 5.90576 79.8557 6.42841 80.0082C7.21 80.2825 8.56932 80.4835 9.21184 80.4651C9.32237 80.4661 9.4109 80.4669 9.47074 80.4675C10.4432 80.4764 10.1219 80.6509 10.8199 80.6102C11.0261 80.598 10.8101 80.4642 11.5366 80.4642C12.1454 80.4646 12.3916 80.5654 12.8072 80.5836C13.2227 80.6016 13.9851 80.4458 14.2442 80.4497C15.5983 80.4714 16.1975 80.5736 17.6719 80.5788C18.8961 80.5828 24.5552 80.5114 25.0257 80.4747C27.1328 80.3107 23.6235 80.3843 23.4257 80.3787C22.3565 80.3469 22.5129 80.284 21.4465 80.4041C20.4923 80.0335 17.1669 80.6106 16.3147 80.171C15.4337 80.4638 14.6936 80.3162 13.7655 80.2573C12.4829 80.1759 13.4596 80.3465 12.5239 80.3477C12.155 80.348 11.086 80.215 10.532 80.2336C10.0338 80.2503 9.79494 80.3345 9.21184 80.3554C9.14653 80.3577 9.07703 80.3585 9.00263 80.3573C7.68154 80.3292 6.62877 79.9871 5.69389 79.4206C5.49058 79.3849 5.29852 79.3472 5.09693 79.2969C4.45572 78.8732 3.87728 78.3642 3.38405 77.7955C3.43623 77.9134 3.49154 78.0313 3.5503 78.1482C3.3802 78.0033 3.21546 77.8508 3.0573 77.6923C2.59984 77.1012 2.23768 76.4885 1.94747 75.797C0.839818 74.0622 1.33602 74.4707 1.10153 73.3864C1.01446 72.7954 0.952046 72.336 0.912924 71.8977C0.879528 71.5022 0.844491 71.1309 0.84409 70.7101C0.842881 69.5024 0.823158 68.9478 0.834447 67.7297C0.8409 67.0239 0.993376 65.8266 0.751803 66.8095C0.732444 64.6058 0.665028 61.5886 0.763033 59.6176C0.791629 59.0356 0.867715 59.8116 0.877172 59.7124C0.92193 59.2184 0.798584 58.8023 0.816258 58.2927C0.845695 57.4459 0.941729 55.7965 0.964333 55.1297C0.997002 54.1703 0.837231 52.662 0.825535 52.5077C0.760636 51.6455 0.893284 51.4147 0.884131 51.1378C0.830896 49.5616 0.775186 49.2136 1.05503 48.717C0.93404 48.309 0.730448 46.5994 0.934059 46.1864C0.750178 46.1758 0.781176 44.7566 0.735201 43.8835C0.788438 43.7214 0.841354 43.5565 0.894995 43.3945C0.565903 41.5725 0.804955 37.9442 0.84409 35.5471C0.844897 35.4869 0.707075 35.3795 0.73813 35.0187C0.740678 34.9959 0.802612 35.033 0.810642 34.791C0.836468 33.9936 0.991177 30.9514 0.992532 30.6014C0.997775 29.3126 0.894909 29.0874 0.885229 28.3031C0.872326 27.2707 0.965157 27.1215 0.951882 26.139C0.945833 25.679 0.823648 25.2604 0.840917 24.5366C0.850995 24.1081 0.946952 24.0657 0.954689 23.7262C0.982517 22.5185 0.921961 21.6315 1.04698 20.5598C0.741738 20.2801 0.966721 19.7678 0.989724 19.2372C1.08369 17.0832 0.954707 14.3987 0.982522 12.5505C0.998878 11.4728 1.01875 10.4179 1.04053 9.37817C1.09479 4.96446 4.91142 1.3778 9.21184 1.46696C9.21268 1.46697 9.21353 1.46698 9.21437 1.46698C10.1293 1.47384 10.3498 1.32058 11.3092 1.33026C11.7404 1.33475 12.185 1.44572 12.8907 1.44733C13.4578 1.44892 14.2704 1.39251 14.9785 1.39288C15.1668 1.39288 15.1835 1.49694 15.4606 1.49775C17.5622 1.50378 19.6144 1.4299 21.7369 1.37909C22.5236 1.36018 23.0101 1.49805 22.8768 1.25811C23.1774 1.31699 23.4697 1.36826 23.7519 1.42633C24.8342 1.27509 25.7181 1.4327 27.182 1.39398C27.3398 1.38937 28.4451 1.22348 29.0722 1.3432C29.1166 1.25772 29.0192 1.18514 29.0375 1.10772C29.657 1.07506 30.6087 1.17378 31.0271 1.18389C31.4448 1.19396 31.7245 1.08293 31.8502 1.08184C32.3286 1.07902 32.2171 1.22505 32.2537 1.22747C34.4832 1.3674 34.2485 1.2896 35.5947 1.07061C35.932 1.01537 38.2208 1.1758 38.6837 1.00286C38.7046 1.07341 38.577 1.13549 38.5404 1.20281C39.2279 1.22096 39.9208 1.2396 40.6109 1.25775C40.4645 1.18999 40.2887 1.12217 40.1554 1.05401C41.5642 1.11288 42.7357 0.953228 43.8884 0.958423C44.5471 0.96165 44.4668 1.11133 44.8537 1.07867C44.9294 1.07219 44.8014 0.971055 45.0259 0.96294C46.8584 0.8972 47.6613 1.00406 49.4965 1.02422C50.3564 1.03385 51.109 0.850017 52.3427 0.970997C52.4554 0.982324 53.6657 1.14556 54.4132 0.911669C54.6511 0.985475 54.8609 1.02425 55.0387 1.08636C56.5522 0.739103 56.134 1.07943 58.1809 1.16009C59.24 1.20201 62.8027 1.14116 63.9554 1.10406C64.642 1.08145 64.6295 0.944963 64.752 0.939502C65.4838 0.908047 65.4844 1.04034 66.1612 1.01861C66.8383 0.996826 67.6936 0.847173 68.389 0.860886C68.9216 0.871448 68.5017 1.03582 69.2884 0.978565C69.4513 0.966171 68.9858 0.826678 69.8155 0.881395C69.9463 0.889864 71.272 1.04075 71.5439 1.07342C70.8458 1.16093 68.8225 1.27512 68.0618 1.31061C54.9623 1.92363 28.5748 1.93001 14.5866 1.85298C13.2876 1.8461 12.4381 1.70252 11.5913 1.69001C10.7443 1.67751 11.4604 1.80906 10.6918 1.79817C10.1357 1.79 9.68878 1.73913 9.21184 1.70858C9.04556 1.69697 8.87799 1.69326 8.69693 1.70292C4.79062 1.81955 1.32713 5.41429 1.39205 9.37817C1.38803 9.96764 1.38444 10.5562 1.38134 11.1436C1.37488 12.3905 1.4818 13.3871 1.4818 14.5216C1.48174 14.9631 1.34387 14.9768 1.34508 15.2904C1.35598 18.6703 1.48866 21.797 1.47253 25.1586C1.46565 26.5544 1.34951 28.0626 1.33861 29.4453C1.32934 30.5849 1.40875 31.7664 1.41039 32.791C1.4116 33.3472 1.3066 33.6406 1.29833 33.8419C1.2709 34.5424 1.39916 34.2976 1.39916 34.6557C1.39873 35.6437 1.24387 36.1351 1.25597 37.0603C1.26081 37.4236 1.35949 37.3768 1.37487 37.9043C1.39422 38.5733 1.30319 38.3258 1.29991 38.8037C1.29951 38.8325 1.37007 38.7387 1.37291 38.9921C1.39147 40.6234 1.44709 42.66 1.44225 44.2338C1.43257 47.4883 1.29663 50.7009 1.27001 53.7332C1.26355 54.4991 1.35554 54.2958 1.35997 54.539C1.38092 55.7098 1.27089 56.1281 1.31041 57.354C1.31689 57.558 1.44424 58.3791 1.41198 59.1632C1.39461 59.5866 1.31517 60.0673 1.29662 60.428C1.27807 60.7886 1.39505 60.8465 1.39513 61.28C1.39553 62.0694 1.31446 61.8399 1.32897 62.969C1.33461 63.4238 1.44544 64.9425 1.437 66.1135C1.42482 67.8141 1.34349 69.8763 1.32441 71.8977C1.32203 72.1345 1.33097 72.3686 1.35133 72.6014C1.41472 73.3204 1.70839 74.2086 2.17463 75.1982C2.66767 76.4624 4.42826 78.3261 5.71984 78.8723C6.35327 79.1791 6.36778 79.2915 6.44401 79.3315C6.95028 79.5471 6.78534 79.3406 7.13151 79.4485C7.60825 79.5874 8.05462 79.7687 8.51465 79.8159C8.80766 79.844 8.85916 79.7382 8.92138 79.7406C9.01825 79.7427 9.11507 79.7431 9.21184 79.7418C11.5992 79.7124 13.7395 79.7208 16.1343 79.71C29.5369 79.6503 43.0677 79.5172 56.4442 79.5773C57.5656 79.5822 57.6078 79.7129 58.5933 79.6923C59.5788 79.6722 60.5309 79.3898 61.3413 79.7016C61.3674 79.6387 61.3648 79.5938 61.391 79.5365C63.4273 79.6253 65.4638 79.5334 67.4557 79.5221C68.91 79.5138 70.2019 79.5234 71.5439 79.5303C71.5605 79.5304 71.5772 79.5304 71.5938 79.5304C72.6745 79.4928 72.6148 79.5967 73.4964 79.2508C76.7607 78.5024 79.2828 75.2956 79.2736 71.8977C79.2949 70.4055 79.3236 68.9179 79.3663 67.4386C79.132 66.2309 79.2796 65.0732 79.3143 63.4028C79.3187 63.1966 79.2332 63.4178 79.2405 62.8063C79.2494 62.0382 79.38 61.6407 79.3728 60.3473C79.3708 60.0048 79.2259 57.4684 79.3001 56.53C79.3743 55.5915 79.4179 54.2321 79.4889 53.2571C79.4328 53.3956 79.3792 53.5711 79.324 53.7253C79.3143 53.2391 79.3049 52.7503 79.2953 52.2641C79.3626 52.1935 79.43 52.1228 79.4978 52.0548C79.4337 51.7725 79.3703 51.49 79.3054 51.2051C79.6514 50.5909 79.5385 51.2206 79.451 49.8537C79.4075 49.1688 79.4679 48.625 79.4328 47.9219C79.4199 47.6685 79.3181 47.5064 79.305 47.2271C79.2736 46.5423 79.4138 46.9414 79.4131 46.5184C79.4119 46.0923 79.2578 45.4806 79.3264 44.7172C79.601 45.5141 79.5114 43.2108 79.2981 43.101C79.2977 42.8269 79.3065 42.597 79.3005 42.2941C79.8393 42.5738 79.457 41.138 79.3832 40.5681C79.3095 39.9986 79.4542 40.0216 79.4486 39.8883C79.4329 39.5043 79.3727 39.784 79.3707 39.5149C79.3586 37.7321 79.447 36.0534 79.4551 34.2941C79.4562 34.041 79.3744 34.2655 79.3824 33.9704C79.3905 33.675 79.4719 33.3919 79.4663 32.9554C79.4649 32.8382 79.393 32.8014 79.3929 32.619C79.3962 28.7945 79.4574 25.1632 79.4667 21.2629C79.4675 20.91 79.3397 20.6329 79.3441 19.9508C79.3485 19.2686 79.4639 18.2335 79.4728 17.3866C79.4752 17.1618 79.3687 17.1008 79.3716 16.8028C79.3813 15.7887 79.4679 14.9151 79.482 13.8617C79.5016 12.3976 79.4611 10.8769 79.4812 9.37817C79.4855 9.07422 79.4756 8.77315 79.4529 8.47331C79.4238 8.15357 79.525 8.19094 79.4601 7.72491C79.3186 6.92317 79.2537 7.25693 79.1972 7.10448C78.9873 6.61787 79.0873 6.40041 78.8308 5.94451C78.7909 5.87621 78.7468 6.02121 78.7152 5.95851C78.2022 5.0133 78.364 4.80973 77.5098 3.99424C76.8935 3.13496 78.1299 4.38351 78.2682 4.52282C78.6796 4.79463 78.1541 3.66749 77.6455 3.11178C77.2225 2.63178 77.1423 2.7291 76.9498 2.56957C75.9297 1.69386 74.0541 0.96298 73.0535 0.783828C72.4489 0.650478 73.5557 0.795 73.2516 0.704805C72.947 0.609689 72.7349 0.66206 72.4214 0.538739C72.1137 0.409269 71.4331 0.135482 71.5605 0.010657ZM51.5852 80.6707C53.5772 80.2352 58.8598 80.2807 61.6962 80.3222C64.0489 80.3569 66.0772 80.6925 65.591 80.2061C63.0477 80.2029 60.9905 80.2517 58.3008 80.2368C58.0211 80.2352 56.3528 80.19 55.7725 80.182C55.4458 80.1775 55.4353 80.0972 54.991 80.098C54.8942 80.0984 54.3581 80.2033 54.1621 80.2005C53.4904 80.1912 51.493 80.0301 51.2141 80.0347C50.4407 80.0484 50.7375 80.1733 50.4037 80.196C49.2822 80.271 49.1586 80.0835 48.0476 80.1444C47.849 80.1552 47.1902 80.3187 46.3667 80.2973C46.0321 80.2884 45.4622 80.204 45.206 80.2081C43.8101 80.2299 42.2519 80.3416 40.9736 80.3231C39.9258 80.3077 40.2075 80.1816 39.6534 80.1646C39.0993 80.1481 38.4301 80.2945 38.0511 80.3029C37.4447 80.3162 36.7075 80.2331 36.5193 80.2343C32.8125 80.2589 29.5162 80.3553 25.9401 80.39C28.3686 80.4476 30.7944 80.5006 33.2072 80.5603C34.5769 80.4296 33.8951 80.5521 34.7968 80.5929C35.5103 80.6251 35.683 80.4038 36.621 80.4283C36.6203 80.4283 36.6195 80.4283 36.6187 80.4283C37.1023 80.4412 38.1506 80.5945 39.1806 80.5304C39.2172 80.5279 39.3089 80.413 40.08 80.409C41.813 80.4001 44.4686 80.3412 46.4187 80.3658C46.9912 80.3731 46.8746 80.4937 47.5517 80.5086C48.0455 80.5194 48.6177 80.4079 49.391 80.4328C50.3608 80.4647 50.8261 80.6566 51.4927 80.39C51.5476 80.4851 51.5198 80.578 51.5852 80.6707ZM80.085 51.6259C80.0955 51.4897 80.3931 49.6653 80.0753 50.2063C79.9374 52.6583 80.0059 55.3093 79.9285 57.8895C80.2426 57.0085 80.1188 55.5181 80.0958 53.7091C80.0958 53.7084 80.0958 53.7076 80.0958 53.7068C80.0948 53.6214 80.1769 53.9784 80.162 53.493C80.1547 53.2577 80.0289 52.3552 80.085 51.6259ZM28.9926 17.8648C29.0656 17.8946 29.4136 17.7806 29.5228 17.5812C29.632 17.4041 29.613 17.36 29.6263 17.3606L29.6256 17.3974C29.6579 18.1706 29.6533 18.9418 29.481 19.8011C29.4295 20.0429 29.3507 20.0042 29.3183 20.1006C29.2587 20.278 29.2689 20.5953 29.2579 20.6345C29.2526 20.6547 29.247 20.6723 29.2412 20.6877C29.1747 20.8574 29.0776 20.7503 29.0647 20.7777C28.9117 21.1105 29.0976 21.0541 29.0205 21.3914C28.92 21.8307 28.7374 22.3796 28.5847 22.9001C28.5307 23.0828 28.4477 22.9718 28.3467 23.3704C28.2751 23.6528 28.1569 24.5471 27.9183 24.9079C27.8691 24.8968 27.8294 24.8318 27.7851 24.7969C27.83 25.4213 27.7647 25.6222 27.492 26.4142C27.4489 26.5395 27.4986 26.6832 27.4056 26.8992C27.3127 27.1151 27.1818 27.0891 27.0582 27.5408C27.0147 27.7011 27.0782 27.8234 27.014 28.0699C26.8317 28.7712 26.3508 30.0696 26.188 30.6416C25.8674 31.7678 25.8515 32.4246 25.52 33.4119C25.4948 33.488 25.4427 33.2909 25.4015 33.4319C25.36 33.574 25.4501 33.759 25.4435 33.7949C25.3722 34.1831 24.9744 34.9349 24.9373 35.1515C24.8473 35.6782 25.0451 35.1895 24.8732 35.9062C24.7095 36.5887 24.2798 37.4745 24.0606 38.1352C23.8065 38.9008 23.9854 39.2201 23.5641 39.7329C23.0099 41.7904 22.4476 43.8546 21.8909 45.914C21.8409 45.8938 21.791 45.8727 21.7413 45.8513C21.732 46.0238 21.7227 46.1963 21.713 46.3686C21.6814 46.3334 21.6493 46.2995 21.6181 46.2643C21.5548 47.069 21.4427 47.7707 21.1546 48.6514C21.149 48.6686 21.0587 48.5942 21.052 48.6079C20.9768 48.8037 20.9938 49.0504 20.9262 49.2218C20.7631 49.6363 20.3375 50.299 20.7007 50.0559C20.3681 51.0353 20.1368 52.2304 19.8207 53.1639C19.684 53.568 19.487 53.6458 19.4232 53.8395C19.3595 54.0332 19.5271 53.9721 19.5132 54.0432C19.4282 54.4705 19.2314 55.1578 19.0547 55.187C19.0939 55.2885 19.1325 55.3951 19.1718 55.4979C19.012 55.3998 18.7251 56.7133 18.6268 57.0515C18.6088 57.1133 18.5303 57.1008 18.5181 57.1478C18.4859 57.273 18.4662 57.3774 18.4537 57.4701L18.4624 57.4303C18.4586 57.556 18.4952 57.681 18.5193 57.6321C18.5385 57.6069 18.4564 57.4689 18.403 57.444C18.3562 57.4134 18.3858 57.4172 18.4432 57.4083C18.4486 57.4076 18.4535 57.4073 18.4579 57.4073C18.5756 57.4073 18.3678 57.53 18.7644 57.4729C18.8008 57.4677 18.7815 57.3426 19.2802 57.3434C20.0762 57.3446 21.5991 57.295 22.5468 57.3567C22.6245 57.3616 22.388 57.4979 22.7432 57.4661C22.8719 57.4548 22.8102 57.358 23.1221 57.3572C23.3318 57.3565 23.5439 57.3593 23.7577 57.3639C23.85 57.3728 23.9369 57.3397 23.838 57.3855C23.7161 57.4724 23.7456 57.5259 23.7683 57.4284C23.9873 56.667 24.2064 55.9004 24.342 55.1352C24.4368 55.2058 24.4468 55.6616 24.5439 55.0051C24.559 54.9001 24.445 54.9522 24.4532 54.9055C24.5208 54.527 24.6706 54.2222 24.7371 53.8109C24.7565 53.6894 24.6898 53.6409 24.7101 53.4883C24.7398 53.263 24.8704 53.1933 24.8904 52.9278C24.9212 52.5126 24.8365 52.4256 25.1592 51.9835C25.638 50.0749 26.0951 48.1673 26.5911 46.2704L26.6932 45.8456L27.1464 45.8392C28.0563 45.8441 28.966 45.8578 29.876 45.8861C30.706 45.8281 31.472 45.7632 32.3372 45.741C32.592 45.7345 32.6407 45.8733 33.0472 45.8273C33.1382 45.8172 33.7875 45.6683 33.8822 45.9486C34.0629 45.9245 34.1772 45.9236 34.3325 45.9087C34.2148 45.8676 34.0933 45.826 33.9804 45.7845C34.6357 45.8292 35.1708 45.7304 35.7509 45.6836C36.1779 45.6494 35.8747 45.7696 36.1367 45.7575C36.3988 45.7458 36.518 45.7187 36.8456 45.8627C37.1029 45.6966 37.2739 45.8131 37.7483 45.8175C37.7993 45.8179 38.0939 45.7535 38.3402 45.7664C38.4629 45.7728 38.5258 45.8245 38.6464 45.8503L39.0697 45.8443L39.1893 46.267C39.1921 46.3216 39.2027 46.3859 39.2298 46.4681C39.2441 46.512 39.5219 47.0534 39.5821 47.2333C39.6763 47.5133 39.6692 48.0004 39.6824 48.0559C39.8741 48.8624 40.0833 49.1371 40.0271 49.7614C40.1817 49.8431 40.3812 50.2981 40.4717 50.6846C40.5861 51.1728 40.5927 52.2113 40.8958 52.2722C40.9266 52.8643 40.9839 52.7838 41.1641 53.4476C41.3283 54.0518 41.6546 55.6804 41.8006 56.1666C41.9462 56.6528 42.0311 56.3742 42.1031 56.5634C42.2214 56.8731 42.0655 56.7305 42.1254 56.948C42.1709 57.1131 42.2161 57.2721 42.2617 57.4274C42.2764 57.4433 42.2211 57.3218 42.1435 57.2846C42.0757 57.2503 42.1106 57.2671 42.1797 57.2578C42.3794 57.2469 42.58 57.2333 42.787 57.2165C42.8197 57.2963 42.855 57.3765 42.8889 57.4563C42.9205 57.4297 42.9519 57.4031 42.9834 57.3765C43.1144 57.3773 43.2613 57.3757 43.3827 57.3781C42.3587 57.0277 44.3717 57.404 44.976 57.4129C45.4857 57.4201 46.3341 57.2539 46.8935 57.218C47.0293 57.2092 46.936 57.2955 46.9638 57.2935C47.2915 57.2689 47.3412 57.21 47.7817 57.218C47.9088 57.2205 48.0375 57.2538 48.165 57.2838C48.1899 57.3067 48.0311 57.3282 47.9266 57.5023C47.8435 57.6915 47.9015 57.6443 47.8747 57.5859L47.8809 57.6092C47.4566 56.1343 46.9562 54.7259 46.5245 53.2559C46.4451 52.9858 46.5051 52.716 46.4428 52.4877C46.3536 52.1612 46.191 51.9855 46.102 51.6804C46.0134 51.3763 46.0119 50.902 45.9339 50.7009C45.8562 50.4997 45.8371 50.8874 45.7619 50.5C45.7274 50.322 45.9046 50.6031 45.846 50.3878C45.663 49.7156 45.2818 48.8023 45.1853 48.0588C45.1676 48.0979 45.1558 48.1478 45.1412 48.1936C44.9345 47.4311 44.8069 46.7417 44.592 45.955C44.517 45.6798 44.297 45.2078 44.2203 44.9382C44.1436 44.6687 44.1938 44.5217 44.1345 44.3053C44.1103 44.2162 44.0438 44.2728 44.0283 44.2128C43.8356 43.4628 43.8549 43.0156 43.6165 42.2408C42.7433 39.402 41.8524 36.472 40.972 33.5873C40.9366 33.4713 40.8146 33.4213 40.7512 33.2553C40.6534 32.9996 40.7377 32.9615 40.7308 32.9257C40.6848 32.6915 40.63 32.8081 40.5423 32.5012C40.3491 31.8257 40.1095 30.7153 39.9108 30.0439C39.4526 28.4963 39.002 27.2141 38.5277 25.7039C38.4932 25.5951 38.6323 25.6358 38.5795 25.4451C38.2085 24.1012 38.0145 23.8498 37.5692 22.1724C37.2672 21.0349 36.7887 19.2116 36.3428 17.5452L36.3359 17.5188C36.3295 17.4549 36.2863 17.4407 36.3971 17.5603C36.5421 17.6814 36.6228 17.6465 36.5556 17.6493C35.971 17.6401 35.4192 17.6329 34.9374 17.6289C34.9374 17.6286 34.9374 17.6283 34.9374 17.628C34.2979 17.8547 33.4706 17.7983 32.7838 17.6269C34.0519 17.448 35.3025 17.3518 36.5556 17.303C36.643 17.2974 36.664 17.3129 36.6448 17.2953C36.6409 17.2793 36.6824 17.3459 36.7029 17.4298L36.7059 17.4413C37.4433 19.7799 38.035 22.1837 38.776 24.7241C40.0208 28.9926 41.7147 33.4381 42.9006 37.7853C43.012 38.1939 42.9347 38.393 43.0588 38.7286C43.0798 38.7853 43.1325 38.6078 43.1932 38.7834C44.0242 41.1962 44.5534 43.8709 45.3019 46.2593C45.5037 46.9033 45.6395 46.9746 45.8302 47.5372C45.7511 47.4513 45.6797 47.4008 45.6039 47.3278C46.1912 49.977 47.0073 52.5648 47.7393 55.2092C47.7722 55.3285 47.6722 55.3736 47.704 55.4995C47.7673 55.7515 47.9505 55.9578 48.0168 56.1748C48.1032 56.458 48.0343 56.531 48.1148 56.792C48.1542 56.9193 48.2231 56.8582 48.2892 57.1407C48.2947 57.1643 48.2154 57.2035 48.2792 57.3858C48.2901 57.417 48.3018 57.4503 48.3142 57.4853C48.3596 57.6531 48.4033 57.8139 48.1649 57.8277C47.6893 57.8581 47.1798 57.8907 46.9118 57.9041C46.3537 57.9319 45.9058 57.8008 45.6946 57.7923C45.1244 57.7693 45.1362 57.9036 44.6535 57.9036C43.8218 57.9038 42.999 57.895 42.1796 57.8816C41.9523 57.8866 41.7363 57.7988 41.6972 57.578C41.1381 55.3163 40.6095 53.0616 39.9816 50.7191C39.9244 50.5056 39.5686 49.7547 39.4686 49.3581C39.4355 49.2251 39.2883 48.5225 39.2637 48.4179C39.1632 47.9939 39.1531 47.6068 39.1093 47.3698C39.0427 47.0082 38.8608 46.6424 38.7476 46.3853L38.7253 46.3064L38.6464 46.3076C38.5711 46.3192 38.5049 46.328 38.4508 46.331C38.0055 46.356 37.2146 46.3374 37.0276 46.3338C36.5761 46.3249 36.7253 46.1503 36.4013 46.1911C36.3056 46.2032 36.4058 46.3371 36.0686 46.3371C35.786 46.3366 35.6717 46.2358 35.4788 46.2177C35.2859 46.1997 34.9319 46.3555 34.8117 46.3516C34.1831 46.3298 33.9049 46.2277 33.2205 46.2225C32.6522 46.2184 30.0252 46.2899 29.8068 46.3266C28.8286 46.4906 30.4577 46.417 30.5495 46.4225C31.0459 46.4544 30.9732 46.5173 31.4683 46.3971C31.9112 46.7678 33.4549 46.1907 33.8505 46.6303C34.2595 46.3375 34.6031 46.4851 35.0339 46.544C35.6293 46.6254 35.1759 46.4547 35.6103 46.4535C35.7815 46.4532 36.2777 46.5862 36.5349 46.5677C36.792 46.5491 36.9004 46.4471 37.2449 46.4415C37.7701 46.4325 38.2079 46.4659 38.6464 46.5519L38.5116 46.4484C38.5168 46.5248 38.5205 46.6015 38.5228 46.6791C38.5994 46.7565 38.6745 46.8279 38.7508 46.9041C38.787 47.2638 38.8238 47.6247 38.8604 47.9842C38.8912 47.9169 38.9224 47.8495 38.9533 47.7822C38.9869 47.8812 39.0202 47.9806 39.0534 48.0798C39.0746 48.4334 39.0968 48.7705 39.1182 49.1341C39.6325 49.9999 39.3315 49.7893 39.4366 50.3189C39.5416 50.8484 39.7749 51.1087 39.8833 51.5104C40.0294 52.0517 40.115 52.2953 40.2503 52.8444C40.3288 53.1626 40.3253 53.7389 40.4406 53.2357C40.7239 54.2189 41.1512 55.5544 41.2931 56.4636C41.3353 56.732 41.1687 56.4037 41.1714 56.4506C41.1875 56.6837 41.3566 56.8384 41.4007 57.0715C41.4286 57.2192 41.4612 57.4219 41.4941 57.6329C41.5145 57.7763 41.6157 57.964 41.776 58.0461C41.93 58.1296 42.0691 58.1427 42.1796 58.1543C42.2595 58.1622 42.3296 58.1686 42.385 58.1727C42.8304 58.2053 43.5306 58.0456 43.6022 58.0339C44.0024 57.969 44.1096 58.1016 44.2381 58.0925C44.9698 58.0392 45.1313 57.9835 45.3619 58.2634C45.5513 58.1424 46.3449 57.9388 46.5366 58.1424C46.5415 57.9585 47.2004 57.9895 47.6057 57.9435C47.6809 57.9968 47.7574 58.0497 47.8327 58.1033C47.9325 58.0645 48.0441 58.0335 48.165 58.0093C48.2748 57.9907 48.4224 57.9411 48.4734 57.8117C48.5212 57.6882 48.4925 57.5632 48.4608 57.4437C48.1994 56.6413 48.0327 55.6239 47.8498 54.8874C47.8429 54.8603 47.6967 54.8503 47.6805 54.6807C47.68 54.6698 47.7443 54.6694 47.7211 54.5591C47.6442 54.1962 47.4046 52.7958 47.3612 52.6392C47.2017 52.0626 47.0741 51.9903 46.9646 51.643C46.8204 51.1857 46.8906 51.0936 46.7525 50.6588C46.6879 50.4551 46.517 50.3019 46.4412 49.9741C46.3962 49.7801 46.4831 49.7348 46.4472 49.5812C46.3198 49.0345 46.1483 48.6553 46.1317 48.1425C45.8025 48.1016 45.9534 47.8111 45.9078 47.568C45.7232 46.5808 45.2565 45.4181 45.0473 44.5856C44.3953 41.9878 43.9236 39.6538 43.2452 37.128C43.135 36.7177 42.9595 36.6615 42.8464 36.2306C42.7956 36.0369 42.8456 35.808 42.757 35.4926C42.6862 35.2391 42.5282 34.8919 42.4382 34.5757C42.4141 34.4917 42.5121 34.4556 42.4775 34.3317C42.215 33.3921 41.882 32.4965 41.5622 31.5632C41.4436 31.2173 41.514 30.9622 41.3004 31.0877C41.3186 30.9373 41.3306 30.7928 41.3504 30.6508C41.0668 30.2094 41.1055 29.7716 40.8814 29.1288C40.8568 29.0597 40.5563 28.612 40.5913 28.2992C40.5035 28.3029 40.4461 28.3663 40.3693 28.3794C40.2589 28.1119 40.2323 27.66 40.1886 27.4705C40.145 27.2813 40.0025 27.187 39.9854 27.1312C39.9216 26.9184 40.0763 26.928 40.0739 26.9111C39.9239 25.8775 39.879 26.0036 39.4966 25.463C39.4005 25.3277 39.2625 24.2621 39.0372 24.103C39.1023 24.0743 39.1783 24.1141 39.2477 24.112C39.1774 23.8001 39.1069 23.4858 39.0362 23.1728C38.9898 23.2567 38.947 23.3538 38.8985 23.4321C38.7752 22.7871 38.4722 22.3082 38.3301 21.7923C38.2491 21.4974 38.4032 21.4921 38.3224 21.3284C38.3065 21.2964 38.2257 21.3813 38.1892 21.2833C37.8921 20.4835 37.8923 20.0958 37.6774 19.2712C37.5769 18.8848 37.3041 18.5994 37.2629 18.0155C37.2602 17.974 37.2611 17.6114 37.1112 17.3254C37.0718 17.2407 37.0065 17.1497 36.9149 17.1098C36.9133 16.962 36.7616 16.8598 36.6672 16.7943C36.6237 16.806 36.588 16.8197 36.5556 16.8328C35.96 17.1056 36.0949 16.7923 35.1885 16.7154C34.6969 16.6735 33.043 16.7343 32.5079 16.7714C32.1892 16.794 32.195 16.9305 32.1382 16.936C31.7984 16.9674 31.7982 16.8351 31.484 16.8569C31.1697 16.8787 30.7726 17.0283 30.4498 17.0146C30.2026 17.004 30.3975 16.8397 30.0323 16.8969C29.9567 16.9093 30.1728 17.0488 29.7876 16.9941C29.7269 16.9856 29.1115 16.8347 28.9853 16.8021C29.3093 16.7146 30.2486 16.6004 30.6017 16.5649C32.2231 16.4014 34.2831 16.2811 36.5556 16.194C36.6415 16.1928 36.745 16.192 36.8945 16.2236C37.0396 16.2524 37.2532 16.342 37.4066 16.4886C37.7116 16.7971 37.7318 17.0174 37.7831 17.1678L37.7746 17.1357C39.6698 22.9787 41.7177 30.1851 42.9306 34.6241C43.0898 35.2058 43.0602 35.6244 43.1562 36.0058C43.2523 36.3873 43.2874 36.0315 43.375 36.3775C43.4623 36.7236 43.4445 36.9991 43.5285 37.3221C44.0944 39.5002 44.662 41.6955 45.2512 43.848C45.4041 44.4063 45.6341 44.8217 45.779 45.328C45.8353 45.5251 45.7045 45.5691 45.7457 45.7088C46.1876 47.2142 46.7143 48.5733 47.1279 50.078C47.2995 50.7029 47.3803 51.408 47.5463 52.0281C47.6829 52.5392 47.9101 53.0447 48.0424 53.5016C48.1146 53.7495 48.0511 53.9093 48.0688 54.0014C48.1319 54.3216 48.224 54.1771 48.2697 54.3369C48.3954 54.778 48.3092 55.0399 48.439 55.4495C48.49 55.6103 48.5789 55.5623 48.661 55.7935C48.765 56.0868 48.6459 56.0013 48.7038 56.2155C48.707 56.2285 48.7629 56.1672 48.798 56.2795C48.8932 56.5839 49.0038 56.9184 49.1147 57.2563L49.1218 57.2833C49.1562 57.4584 49.2457 57.6646 49.089 58.0749C49.007 58.2781 48.7917 58.4778 48.6084 58.5499C48.4233 58.6286 48.2813 58.6376 48.1654 58.6408C47.9118 58.6479 47.6673 58.6521 47.443 58.6506C45.9323 58.6409 44.4409 58.505 43.0333 58.4783C42.6777 58.4719 42.7721 58.5639 42.6593 58.5683C42.4661 58.5757 42.317 58.5666 42.1796 58.5536C42.0295 58.5398 41.8632 58.5288 41.6241 58.4185C41.3764 58.3169 41.1349 57.9973 41.0778 57.7498C41.0644 57.7051 41.051 57.6637 41.036 57.6202C41.0053 57.5304 40.7837 57.1951 40.7207 56.8351C40.6867 56.6408 40.7057 56.4047 40.6804 56.2382C40.655 56.0717 40.535 56.076 40.4829 55.8816C40.3878 55.5277 40.4937 55.6097 40.3441 55.1071C40.2841 54.9046 39.9947 54.2523 39.8623 53.7249C39.6458 52.8633 39.459 51.7737 39.1897 50.7616C39.0976 50.4144 38.8622 49.9998 38.717 49.4621C38.5394 48.8049 38.2415 47.5861 38.0626 46.9117C38.0166 46.7382 38.0228 46.6375 38.0396 46.5748L38.6464 47.0405C38.5909 47.0085 38.5739 46.9761 38.5528 46.9735C38.2799 46.9384 38.3901 47.0791 38.2072 47.0736C37.9559 47.0659 37.7215 46.9621 37.4934 46.9553C37.3479 46.9509 37.3248 47.0546 37.2932 47.0554C36.1258 47.0896 35.0944 47.08 33.9343 47.0913C31.6774 47.1129 29.4127 47.1442 27.1464 47.1725L27.8828 46.6006C26.9783 50.3328 26.064 54.0671 25.0878 57.7588C25.0626 57.8519 25.0345 57.977 24.9296 58.1625C24.8344 58.3486 24.5711 58.5785 24.3622 58.6459C23.981 58.7698 23.8752 58.7201 23.7578 58.7169C23.5146 58.6789 23.4169 58.6102 23.076 58.6256C22.6185 58.6457 22.1765 58.928 21.8003 58.6163C21.7882 58.6792 21.7894 58.7241 21.7772 58.7813C20.832 58.6926 19.8866 58.7844 18.9619 58.7957C18.7896 58.7979 18.6221 58.7988 18.4579 58.7989C18.349 58.7965 18.2302 58.8018 18.0124 58.7443C17.9048 58.7135 17.758 58.6581 17.6084 58.5373C17.4579 58.419 17.3392 58.2369 17.2866 58.0943C17.1827 57.8019 17.2063 57.6528 17.2079 57.5297C17.2153 57.4077 17.2294 57.3186 17.2436 57.2332L17.264 57.1402C17.3184 56.9519 17.3729 56.7643 17.4278 56.5743C17.5838 56.036 17.6765 56.1119 17.6682 55.6062C18.3987 53.3065 19.0289 50.9522 19.811 48.6882C19.735 48.0853 20.0208 47.6069 20.2614 46.8689C20.2912 46.7778 20.1814 46.854 20.2642 46.5823C20.3681 46.2411 20.5433 46.0982 20.6967 45.5177C20.7373 45.364 20.9123 44.1907 21.1002 43.7907C21.2881 43.3907 21.4986 42.7942 21.688 42.377C21.6168 42.424 21.5433 42.4882 21.471 42.5424C21.5219 42.3223 21.5736 42.1012 21.6246 41.8811C21.6982 41.8675 21.7719 41.8539 21.8457 41.8416C21.8189 41.6982 21.7929 41.5549 21.7657 41.4101C22.1753 41.2277 21.9884 41.4793 22.0736 40.8444C22.1166 40.5264 22.2423 40.2993 22.2957 39.9754C22.3147 39.8586 22.2366 39.7589 22.2587 39.6305C22.3133 39.3157 22.3989 39.5317 22.4507 39.3423C22.5024 39.1514 22.4298 38.8366 22.5906 38.5134C22.7563 38.9433 22.9557 37.889 22.7637 37.7829C22.7973 37.6601 22.8344 37.5597 22.8661 37.4226C23.3507 37.6916 23.1603 36.9472 23.1598 36.6725C23.1595 36.3981 23.2961 36.4471 23.3072 36.3859C23.3397 36.2099 23.2471 36.319 23.2785 36.1981C23.4879 35.3973 23.7813 34.67 24.0073 33.8851C24.0398 33.7722 23.9331 33.8508 23.9774 33.7209C24.0218 33.591 24.1354 33.4861 24.1841 33.2893C24.1973 33.2365 24.1326 33.2008 24.1552 33.1192C24.6326 31.4092 25.142 29.8012 25.6346 28.0589C25.6792 27.9013 25.5904 27.7432 25.6793 27.4392C25.7682 27.1352 26.0077 26.703 26.1213 26.3265C26.1515 26.2266 26.0565 26.1709 26.0962 26.0383C26.2313 25.5873 26.4231 25.2196 26.5674 24.7522C26.8111 23.9623 26.9796 23.1113 27.2642 22.3202C27.318 22.1701 27.3967 22.2183 27.4821 22.0041C27.6294 21.6344 27.4648 21.7433 27.4695 21.6614C27.4856 21.394 27.6734 21.3606 27.6984 21.1045C27.7022 21.0653 27.5891 21.0914 27.5968 21.0574C27.6912 20.6678 27.847 20.5882 27.9328 20.3318C27.9601 20.2488 27.9791 20.143 27.9781 20.0013C28.1801 19.6242 28.1229 20.1533 28.116 20.3843C28.1158 20.4214 28.1179 20.451 28.1246 20.4658C28.1739 20.5753 28.2676 20.5461 28.3706 20.4532C28.5054 20.331 28.6514 20.0886 28.7248 19.903C28.8357 19.6214 28.7224 19.6051 28.7398 19.4903C28.8286 18.8777 28.8516 17.9778 28.9233 17.5186C28.9664 17.2418 28.9911 17.7462 29.0334 17.6053C29.0598 17.5162 29.0392 17.4506 29.0428 17.3743L29.0431 17.3606C29.0432 17.333 29.0558 17.3038 29.0922 17.3001C29.1466 17.273 29.2098 17.4349 29.0986 17.584C29.0135 17.7152 28.9675 17.7979 28.9926 17.8648ZM24.4789 55.7102C24.5621 56.1429 24.4884 56.8284 24.3483 57.5698C24.3258 57.687 24.2931 57.8375 24.156 57.9261C24.0226 58.0066 23.8846 58.007 23.7577 58.0127C22.9815 58.0322 22.2031 58.0136 21.6356 57.9957C20.5434 57.961 19.6019 57.6254 19.8275 58.1117C21.0082 58.115 21.9632 58.0662 23.2117 58.0811C23.2777 58.0819 23.5099 58.094 23.7577 58.1067C23.8857 58.1098 24.0287 58.1219 24.1947 58.0466C24.3694 57.9627 24.4349 57.8015 24.4624 57.7312C24.4833 57.6751 24.5006 57.641 24.5199 57.6108C24.5596 57.5572 24.6077 57.5214 24.6423 57.3838C24.653 57.3402 24.613 57.0731 24.6383 56.9856C24.7245 56.6859 25.1102 55.8274 25.1378 55.7008C25.2134 55.3496 25.0583 55.4522 25.0747 55.2964C25.1309 54.7735 25.3269 54.7643 25.3956 54.2496C25.4079 54.1575 25.3252 53.8207 25.4406 53.4557C25.4877 53.3074 25.635 53.072 25.6605 52.9558C25.7999 52.3226 25.8707 51.5941 26.0357 51.0238C26.171 50.5563 26.2608 50.7143 26.3409 50.4692C26.4206 50.2241 26.3558 49.8869 26.3911 49.7143C26.448 49.4383 26.6132 49.1273 26.6337 49.0424C26.8513 48.1376 27.0347 47.2815 27.217 46.4304L27.1464 46.4852C27.885 46.4562 28.62 46.4272 29.3823 46.4113C28.636 46.3731 27.8902 46.337 27.1464 46.2997L27.0573 46.3009L27.0372 46.3844C26.9247 46.7476 26.812 47.1103 26.6987 47.472C26.6678 48.1205 26.6275 47.7834 26.4844 48.1789C26.3711 48.4918 26.5657 48.6243 26.4341 49.0401C26.4342 49.0398 26.4343 49.0394 26.4343 49.0391C26.3662 49.2534 26.0972 49.6869 26.041 50.166C26.0391 50.1831 26.1399 50.2528 26.0551 50.6006C25.8645 51.3822 25.6163 52.5912 25.3683 53.4621C25.2954 53.7178 25.192 53.6355 25.0997 53.9363C25.0324 54.1557 25.0747 54.4407 24.9617 54.7823C24.8193 55.2106 24.5799 55.3723 24.7616 55.7382C24.663 55.7393 24.5763 55.7038 24.4789 55.7102ZM22.4647 41.8066C22.4917 41.7485 23.0048 41.0118 22.6315 41.169C22.1944 42.229 21.9317 43.4332 21.537 44.5667C21.9491 44.2566 22.0146 43.5568 22.2168 42.7414C22.2169 42.7411 22.217 42.7407 22.2171 42.7404C22.2266 42.7019 22.2615 42.8835 22.3074 42.6624C22.3295 42.5552 22.3202 42.1179 22.4647 41.8066ZM54.2565 28.6012C54.2212 28.618 54.3548 28.696 54.6104 28.4789C54.8323 28.2398 54.7904 28.1355 54.8101 28.1711L53.8241 27.1852C53.8362 27.1843 53.8482 27.1834 53.8603 27.1825L54.821 27.1561L54.8489 28.1711C54.8655 28.4042 54.8644 28.6389 54.8422 28.877C54.8317 28.9901 54.7494 28.9794 54.7361 29.0259C54.7115 29.1113 54.8003 29.2547 54.8003 29.2748C54.8014 29.3995 54.6574 29.3508 54.6519 29.3676C54.5934 29.5548 54.7575 29.5009 54.7732 29.6798C54.7938 29.9129 54.7644 30.2119 54.7564 30.4927C54.7531 30.5913 54.6435 30.5474 54.6527 30.7602C54.6592 30.911 54.7842 31.3735 54.6507 31.5864C54.6002 31.5877 54.5446 31.5608 54.4926 31.5495C54.7027 31.8548 54.6934 31.964 54.6422 32.3968C54.6342 32.4653 54.7205 32.5301 54.6886 32.6507C54.6567 32.7713 54.5237 32.7764 54.5253 33.0188C54.5262 33.1048 54.62 33.157 54.624 33.2888C54.6357 33.6639 54.5192 34.3781 54.5152 34.6859C54.5071 35.2921 54.6672 35.6219 54.6116 36.1603C54.6076 36.2017 54.5047 36.1107 54.5027 36.1867C54.5007 36.2633 54.6369 36.3431 54.6402 36.362C54.6752 36.5654 54.4927 36.9955 54.5148 37.1087C54.5688 37.3838 54.6289 37.1127 54.6547 37.494C54.6792 37.8571 54.5019 38.3584 54.4672 38.7183C54.4269 39.1354 54.6845 39.2699 54.4155 39.584C54.4313 40.687 54.4409 41.7945 54.4546 42.8988C54.401 42.8956 54.3473 42.892 54.2937 42.8882C54.3308 42.9755 54.368 43.0629 54.4047 43.1502C54.3648 43.137 54.3248 43.1245 54.2853 43.1113C54.4393 43.5214 54.5188 43.8869 54.4765 44.3661C54.4757 44.3755 54.3687 44.3509 54.366 44.3586C54.3458 44.4667 54.4281 44.5874 54.4087 44.6823C54.3623 44.9116 54.1292 45.301 54.4143 45.1296C54.3554 45.6641 54.4519 46.2922 54.3966 46.8017C54.3728 47.0221 54.2038 47.0882 54.1941 47.1937C54.1844 47.2991 54.3296 47.2454 54.3352 47.2828C54.3675 47.5077 54.3615 47.8778 54.199 47.9168C54.2639 47.962 54.3296 48.0099 54.3949 48.0557C54.2147 48.0288 54.2892 48.7237 54.2848 48.9061C54.284 48.9394 54.205 48.944 54.2058 48.9691C54.2159 49.2492 54.3397 49.3176 54.3809 49.5575C54.3954 49.6417 54.2562 49.5112 54.3163 49.7273C54.3216 49.7461 54.4466 49.7361 54.4458 49.9942C54.4446 50.4063 54.4942 51.1946 54.4325 51.6853C54.4277 51.7254 54.2914 51.6031 54.3231 51.7869C54.3344 51.8535 54.4312 51.8216 54.432 51.9831C54.4361 52.6087 54.3248 53.2759 54.4171 53.9141C54.3078 53.8908 54.1852 53.6635 54.2538 54.0052C54.2651 54.0598 54.3627 54.0191 54.3663 54.0436C54.3946 54.242 54.3248 54.4141 54.3623 54.6289C54.3736 54.6924 54.4503 54.7081 54.4684 54.7873C54.4954 54.9041 54.3861 54.9558 54.4325 55.0915C54.5055 55.3037 54.6091 55.3364 54.4059 55.5996C54.4112 56.2159 54.4241 56.831 54.4311 57.4456C54.4275 57.5216 54.4665 57.5147 54.3862 57.4143C54.2903 57.3246 54.2618 57.3572 54.3292 57.3534C54.9414 57.3539 55.5535 57.3659 56.166 57.4027C56.5956 57.3447 56.9921 57.2798 57.44 57.2576C57.5719 57.2511 57.5971 57.3899 57.8075 57.3439C57.8546 57.3338 58.1908 57.1849 58.2398 57.4652C58.3334 57.4411 58.3925 57.4402 58.4729 57.4253C58.4119 57.3842 58.3491 57.3426 58.2906 57.3011C58.6298 57.3458 58.9068 57.247 59.2071 57.2002C59.4282 57.166 59.2712 57.2862 59.4069 57.2741C59.5425 57.2624 59.6042 57.2353 59.7738 57.3793C59.8246 57.316 59.8689 57.2937 59.9179 57.2907C59.9455 57.2975 60.0336 57.2864 59.8731 57.3781C59.862 57.3855 59.7905 57.4236 59.7459 57.4813C59.7018 57.538 59.6948 57.5556 59.702 57.5335C59.7072 57.5204 59.7311 57.504 59.754 57.4827C59.7819 57.4438 59.8092 57.3996 59.8004 57.3196C59.798 57.2957 59.6696 56.9878 59.6579 56.8898C59.6394 56.7372 59.7721 56.4946 59.7738 56.4651C59.7971 56.0361 59.666 55.8707 59.8818 55.5661C59.7536 55.5045 59.6785 55.2503 59.691 55.0449C59.7067 54.7855 59.9689 54.2653 59.6918 54.1943C59.8152 53.894 59.7391 53.9266 59.7366 53.5706C59.7342 53.2465 59.8402 52.3884 59.8249 52.1257C59.81 51.8631 59.6559 51.9911 59.6353 51.8868C59.6011 51.7161 59.7148 51.8083 59.7132 51.6915C59.7084 51.3611 59.6866 51.074 59.637 50.7586C59.7169 50.7417 59.7971 50.7234 59.8769 50.7058C59.8503 50.6895 59.8237 50.6733 59.7971 50.6569C59.7979 50.5891 59.7962 50.5131 59.7987 50.4503C59.4482 50.9803 59.8246 49.9383 59.8335 49.6254C59.8407 49.3616 59.6745 48.9224 59.6386 48.6328C59.6298 48.5626 59.716 48.6109 59.7141 48.5965C59.6895 48.4268 59.6306 48.4011 59.6386 48.1731C59.6431 48.0525 59.7511 47.9294 59.7531 47.8119C59.7676 46.9494 59.6591 46.1171 59.6474 45.2603C59.6454 45.1145 59.7773 44.9888 59.7801 44.8663C59.7841 44.6911 59.6762 44.5805 59.6745 44.416C59.6729 44.2521 59.8019 44.0158 59.7822 43.9046C59.7628 43.7934 59.6378 43.9836 59.6721 43.7801C59.6878 43.6866 59.7809 43.8517 59.7838 43.7362C59.7926 43.3756 59.6773 42.8668 59.789 42.483C59.7612 42.5 59.7362 42.5231 59.7095 42.5439C59.7204 42.1349 59.7874 41.7736 59.7971 41.3515C59.8007 41.2039 59.7189 40.9377 59.7193 40.7926C59.7197 40.6475 59.8084 40.5815 59.8109 40.4653C59.8121 40.4176 59.7326 40.4362 59.7342 40.4042C59.7552 40.0035 59.8967 39.7836 59.8806 39.3641C59.8217 37.8269 59.7708 36.2418 59.7176 34.6808C59.7155 34.618 59.6119 34.5758 59.5966 34.4841C59.5729 34.3429 59.6645 34.336 59.6677 34.3171C59.6878 34.1941 59.6031 34.2443 59.6031 34.0791C59.6031 33.7153 59.6782 33.1286 59.6717 32.7661C59.6568 31.9307 59.5761 31.2284 59.5353 30.4092C59.5321 30.3502 59.6547 30.3902 59.6563 30.2878C59.6692 29.5662 59.5518 29.4134 59.5849 28.5151C59.5888 28.4105 59.5932 28.2951 59.598 28.1711C59.6111 28.1288 59.5665 28.144 59.6947 28.3167C59.862 28.4919 59.9832 28.4485 59.9176 28.4481C59.0616 28.4146 58.0515 28.3767 57.3379 28.3652C57.3379 28.3649 57.3379 28.3646 57.3379 28.3644C57.0069 28.591 56.5786 28.5346 56.2231 28.3633C57.4637 28.025 58.672 27.9825 59.9179 27.9968C60.012 27.9957 60.0627 28.0254 60.0484 28.0217C60.0449 28.0129 60.0701 28.0778 60.0648 28.1711C60.0522 28.7533 60.0374 29.3462 60.0435 29.957C60.0665 32.2586 60.4727 34.7122 60.4175 37.0447C60.4122 37.2639 60.2831 37.352 60.3102 37.5367C60.3147 37.5679 60.4142 37.487 60.4243 37.5831C60.5598 38.9022 60.3331 40.3087 60.396 41.604C60.4129 41.9533 60.5238 42.0081 60.5525 42.3152C60.5001 42.2612 60.4452 42.2259 60.3924 42.1788C60.2287 43.5809 60.3017 44.9851 60.2783 46.4054C60.2771 46.4694 60.1685 46.4776 60.1645 46.5448C60.1561 46.6792 60.2754 46.808 60.2795 46.9254C60.2848 47.0787 60.1984 47.1052 60.2041 47.2466C60.207 47.3156 60.2899 47.2949 60.2758 47.4449C60.2746 47.4575 60.1876 47.4657 60.1988 47.5655C60.2299 47.8387 60.3029 48.3972 60.3247 48.6234C60.3525 48.9123 60.2214 49.1441 60.2129 49.2535C60.1899 49.5487 60.3241 49.5425 60.3242 49.7924C60.325 51.5714 60.1722 53.2721 60.1734 55.0933C60.1735 55.2077 60.323 55.6308 60.317 55.8425C60.3146 55.9135 60.2751 56.2845 60.2718 56.3401C60.2593 56.5656 60.1689 56.7605 60.15 56.8848C60.1167 57.1015 60.2272 57.341 60.2602 57.4827C60.264 57.4982 60.2665 57.512 60.2676 57.5247C60.2764 57.6185 60.264 57.7498 60.1862 57.801C60.1083 57.8566 59.9844 57.8545 59.9179 57.8523C59.897 57.8515 59.8801 57.8508 59.868 57.8504C59.6343 57.8415 59.7115 57.6669 59.5438 57.7077C59.4943 57.7199 59.5462 57.8537 59.3716 57.8537C59.2253 57.8532 59.1661 57.7524 59.0663 57.7343C58.9664 57.7163 58.7832 57.8721 58.721 57.8682C58.3956 57.8464 58.2516 57.7443 57.8973 57.7391C57.6031 57.735 56.2432 57.8065 56.1301 57.8432C55.6238 58.0072 56.4671 57.9336 56.5146 57.9391C56.7715 57.971 56.7339 58.0339 56.9902 57.9137C57.2195 58.2844 58.0186 57.7073 58.2234 58.1469C58.4351 57.8541 58.613 58.0017 58.836 58.0606C59.1442 58.142 58.9095 57.9714 59.1343 57.9701C59.223 57.9698 59.4799 58.1028 59.613 58.0843C59.7291 58.0681 59.7866 57.9883 59.9179 57.9645C59.938 57.961 59.9591 57.9583 59.9822 57.9563C60.1071 57.9449 60.2404 57.9212 60.3252 57.8154C60.4063 57.7116 60.4314 57.592 60.4686 57.4827C60.4883 57.4247 60.5113 57.367 60.5379 57.3088C60.4839 57.2598 60.4299 57.2141 60.3758 57.1657C60.4339 56.981 60.4916 56.7956 60.5493 56.6109C60.5021 56.6404 60.4545 56.67 60.4073 56.6995C60.4005 56.6455 60.394 56.5913 60.3875 56.5373C60.4585 56.3577 60.5242 56.1861 60.5976 56.0014C60.3247 55.4996 60.5609 55.6452 60.5964 55.3663C60.6319 55.0875 60.4738 54.9261 60.473 54.7107C60.4718 54.4205 60.4521 54.2872 60.4634 53.9945C60.4698 53.8249 60.6223 53.5372 60.3807 53.7734C60.3613 53.2438 60.2939 52.5188 60.3919 52.0452C60.4205 51.9053 60.4966 52.0918 60.5061 52.0679C60.5508 51.9492 60.4275 51.8492 60.4452 51.7268C60.4746 51.5233 60.5706 51.1269 60.5932 50.9667C60.6259 50.7362 60.4661 50.3737 60.4544 50.3366C60.3895 50.1294 60.5222 50.074 60.513 50.0074C60.4598 49.6287 60.4041 49.5451 60.6839 49.4257C60.5629 49.3277 60.3594 48.9168 60.563 48.8176C60.3791 48.815 60.4101 48.474 60.3641 48.2642C60.4173 48.2252 60.4703 48.1856 60.5239 48.1467C60.1948 47.7088 60.4339 46.837 60.473 46.2609C60.4738 46.2465 60.336 46.2207 60.367 46.134C60.3696 46.1285 60.4315 46.1374 60.4395 46.0792C60.4654 45.8876 60.6201 45.1566 60.6214 45.0725C60.6267 44.7628 60.5238 44.7086 60.5141 44.5202C60.5012 44.2721 60.5941 44.2362 60.5808 44.0001C60.5747 43.8896 60.4526 43.789 60.4698 43.6151C60.4799 43.5121 60.5759 43.5019 60.5836 43.4203C60.6114 43.1301 60.5509 42.917 60.6759 42.6594C60.3706 42.5922 60.5956 42.4691 60.6186 42.3416C60.7126 41.824 60.5836 41.1789 60.6114 40.7348C60.6989 39.349 60.8872 38.1203 60.9296 36.7666C60.9364 36.5467 60.7832 36.4937 60.7928 36.2632C60.7973 36.1596 60.9083 36.0527 60.9099 35.8831C60.9115 35.7469 60.8551 35.5516 60.8555 35.3814C60.8555 35.3362 60.9595 35.3322 60.9603 35.2656C60.9663 34.7606 60.8925 34.2674 60.8417 33.7574C60.8228 33.5683 60.9606 33.4514 60.7207 33.4834C60.7796 33.4112 60.8308 33.341 60.8889 33.2731C60.7377 33.0131 60.8953 32.8007 60.8566 32.4489C60.8519 32.411 60.6861 32.1454 60.8058 31.9947C60.7203 31.984 60.6477 32.0074 60.5703 32.003C60.5376 31.8542 60.6364 31.6254 60.6465 31.5249C60.6565 31.4245 60.5455 31.3573 60.5444 31.3271C60.5416 31.2121 60.6876 31.239 60.69 31.2302C60.83 30.6944 60.7522 30.7508 60.5332 30.4273C60.4779 30.3462 60.6384 29.7962 60.4654 29.685C60.536 29.68 60.5981 29.7106 60.6654 29.7194C60.6835 29.5542 60.7022 29.3877 60.7203 29.2219C60.6526 29.2571 60.5847 29.2993 60.5166 29.3313C60.5755 28.9928 60.4158 28.7113 60.421 28.4343C60.4242 28.276 60.5739 28.2953 60.5412 28.2023C60.5352 28.1854 60.4474 28.2108 60.4286 28.1711C60.4271 28.1679 60.4261 28.1642 60.4255 28.1601C60.4015 28.0031 60.3681 27.8616 60.2658 27.7655C60.1635 27.6719 60.0396 27.6432 59.9179 27.625C59.8114 27.6093 59.6958 27.594 59.5548 27.5876C59.3482 27.578 59.1673 27.7618 58.8709 27.6408C58.8438 27.6295 58.553 27.4663 58.3733 27.7001C58.3161 27.6263 58.2657 27.5876 58.223 27.5255C57.8593 27.8727 57.9598 27.5324 57.4679 27.4517C57.2134 27.4098 56.3573 27.4707 56.0803 27.5078C55.9153 27.5304 55.9183 27.6669 55.8889 27.6723C55.713 27.7038 55.7129 27.5715 55.5502 27.5932C55.3875 27.615 55.182 27.7646 55.0149 27.7509C54.8869 27.7404 54.9878 27.576 54.7988 27.6333C54.7596 27.6456 54.8715 27.7851 54.6721 27.7304C54.6407 27.722 54.3221 27.5711 54.2568 27.5384C54.4245 27.4509 54.9107 27.3367 55.0935 27.3012C56.3325 27.0599 58.066 26.9126 59.9179 26.8274C60.112 26.8318 60.5076 26.8059 60.9162 27.2066C61.2845 27.6241 61.2604 27.9679 61.2769 28.1711C61.3754 30.8199 61.3584 33.6078 61.3155 35.4756C61.3087 35.7878 61.1651 35.9919 61.1526 36.1954C61.1401 36.3989 61.2716 36.2269 61.2607 36.4115C61.2494 36.5962 61.1566 36.7308 61.1486 36.9035C61.0937 38.0681 61.0357 39.2415 61.0102 40.3967C61.0038 40.6963 61.1107 40.9358 61.1107 41.2084C61.1106 41.3145 60.9728 41.3178 60.974 41.3932C60.9849 42.2054 61.1176 42.9567 61.1014 43.7645C61.0946 44.1 60.9784 44.4624 60.9675 44.7947C60.9582 45.0685 61.0377 45.3524 61.0393 45.5986C61.0405 45.7323 60.9355 45.8028 60.9272 45.8512C60.8998 46.0195 61.0281 45.9607 61.0281 46.0467C61.0276 46.2841 60.8728 46.4022 60.8849 46.6246C60.8897 46.7119 60.9884 46.7006 61.0038 46.8274C61.0231 46.9881 60.9321 46.9287 60.9288 47.0435C60.9284 47.0504 60.999 47.0279 61.0018 47.0888C61.0204 47.4808 61.076 47.9702 61.0712 48.3484C61.0615 49.1304 60.9255 49.9024 60.8989 50.6311C60.8925 50.8152 60.9844 50.7663 60.9889 50.8247C61.0098 51.1061 60.8998 51.2066 60.9393 51.5012C60.9458 51.5502 61.0731 51.7475 61.0409 51.936C61.0235 52.0377 60.9441 52.1532 60.9255 52.2399C60.907 52.3266 61.024 52.3405 61.024 52.4446C61.0244 52.6343 60.9434 52.5792 60.9579 52.8505C60.9635 52.9598 61.0743 53.3247 61.0659 53.6062C61.0522 54.066 60.9509 54.6359 60.9493 55.178C60.9485 55.3639 61.0687 55.6028 61.0699 55.8911C61.0715 56.2435 61.0442 56.8929 61.0426 57.254C61.0418 57.4387 60.9159 57.4521 60.9106 57.4741C60.9099 57.477 60.9092 57.4799 60.9087 57.4827C60.8765 57.6626 61.0183 57.5882 60.9893 57.7648C60.9638 57.8941 60.8784 58.0838 60.709 58.2277C60.539 58.3728 60.3568 58.4099 60.2397 58.436C60.0908 58.4649 60.0904 58.561 60.0592 58.5663C60.0076 58.5722 59.9624 58.5751 59.9181 58.5767C59.3492 58.6054 58.8381 58.5971 58.2667 58.6079C56.9577 58.6321 55.6436 58.6685 54.329 58.6991C54.1204 58.6963 53.7524 58.6918 53.4044 58.3459C53.0777 57.9851 53.0833 57.6452 53.0728 57.4456C53.0379 55.7853 53.0178 54.1256 53.0487 52.4756C53.0535 52.2061 53.1842 52.196 53.1637 51.9592C53.1435 51.7223 52.8612 51.4936 53.173 51.2988C53.11 51.2925 53.0652 51.2932 53.0079 51.2869C53.0966 50.7975 53.0048 50.3082 52.9935 49.8295C52.985 49.4752 52.9951 49.1611 53.0019 48.8338C53.0084 48.5438 53.118 48.5688 52.9749 48.3177C53.0645 47.0695 53.0427 45.8079 53.1915 44.5703C52.9572 44.2801 53.1048 44.0019 53.1395 43.6005C53.1439 43.5509 53.0584 43.6041 53.0656 43.4572C53.0746 43.2726 53.2052 43.1771 53.198 42.8663C53.196 42.784 53.0511 42.1745 53.1253 41.9489C53.1995 41.7234 53.2431 41.3968 53.3141 41.1625C53.258 41.1958 53.2044 41.2379 53.1491 41.275C53.1395 41.1581 53.1301 41.0407 53.1205 40.9238C53.1878 40.9069 53.2552 40.8899 53.323 40.8735C53.2589 40.8057 53.1955 40.7378 53.1306 40.6694C53.4766 40.5218 53.3637 40.6731 53.2762 40.3446C53.2327 40.18 53.2931 40.0494 53.258 39.8804C53.2451 39.8195 53.1433 39.7805 53.1302 39.7134C53.0988 39.5489 53.239 39.6448 53.2383 39.5431C53.2371 39.4407 53.083 39.2937 53.1516 39.1103C53.4262 39.3018 53.3366 38.7483 53.1233 38.7219C53.1229 38.656 53.1317 38.6008 53.1257 38.528C53.6645 38.5952 53.2822 38.2502 53.2084 38.1132C53.1347 37.9764 53.2794 37.9819 53.2738 37.9499C53.258 37.8576 53.1979 37.9248 53.1959 37.8602C53.1838 37.4317 53.2722 37.0284 53.2803 36.6056C53.2814 36.5448 53.1996 36.5987 53.2076 36.5278C53.2157 36.4568 53.2971 36.3888 53.2915 36.2839C53.2901 36.2557 53.2182 36.2469 53.2181 36.203C53.2213 35.284 53.2826 34.4114 53.2919 33.4741C53.2927 33.3893 53.1649 33.3228 53.1693 33.1588C53.1737 32.9949 53.289 32.7462 53.298 32.5427C53.3004 32.4886 53.1939 32.474 53.1968 32.4024C53.2065 32.1587 53.2931 31.9487 53.3072 31.6956C53.331 31.2679 53.2661 30.82 53.329 30.386C53.3407 30.3038 53.4294 30.3169 53.4545 30.1982C53.4976 29.9934 53.3682 30.0705 53.3508 30.0291C53.2948 29.8934 53.4668 29.8508 53.4226 29.7196C53.4158 29.6995 53.3137 29.7281 53.3121 29.7101C53.2944 29.4312 53.5335 29.4166 53.4053 29.1201C53.5428 28.8564 53.5896 29.2968 53.6626 29.342C53.84 29.4525 54.0485 29.1605 54.1155 28.9884C54.1731 28.8402 54.0627 28.8413 54.0626 28.7823C54.0624 28.6046 54.0555 28.3776 54.0592 28.1711L54.0536 27.9669L53.8603 27.9722C53.8482 27.972 53.8361 27.9717 53.8241 27.9714L54.0239 28.1711C54.0247 28.0479 54.0696 27.9796 54.0928 27.9923C54.12 28.0109 54.1494 28.0443 54.1803 28.0646C54.1914 28.1077 54.135 28.0436 54.1768 28.1237C54.2148 28.2067 54.2672 28.4735 54.2565 28.6012ZM54.1421 53.6432C53.7065 53.1646 53.752 51.8951 53.7936 51.2135C53.8283 50.6482 54.1639 50.1608 53.6775 50.2776C53.6743 50.8888 53.723 51.3831 53.7081 52.0295C53.7065 52.0967 53.6614 52.4976 53.6533 52.637C53.6489 52.7155 53.5685 52.718 53.5693 52.8248C53.5697 52.8481 53.6747 52.9769 53.6719 53.024C53.6626 53.1854 53.5014 53.6654 53.5061 53.7324C53.5198 53.9183 53.6447 53.8469 53.6674 53.9272C53.7424 54.1966 53.5548 54.2264 53.6157 54.4933C53.6266 54.5411 53.79 54.6994 53.7687 54.8973C53.7598 54.9777 53.6754 55.1146 53.6794 55.1762C53.7012 55.5116 53.813 55.8861 53.7944 56.1932C53.7791 56.445 53.6529 56.3773 53.636 56.5105C53.6195 56.6437 53.7658 56.8045 53.7743 56.8955C53.7876 57.0413 53.7045 57.2184 53.7057 57.2636C53.7074 57.3247 53.7094 57.3853 53.7117 57.4456C53.7179 57.5904 53.7418 57.7697 53.8799 57.9031C54.0207 58.0329 54.1932 58.0406 54.329 58.0332C54.857 57.9958 55.3704 57.9497 55.9104 57.9279C55.3821 57.8757 54.8544 57.8274 54.329 57.7744C54.2819 57.7689 54.2385 57.7594 54.2022 57.7456C53.9534 57.7828 54.0938 57.7065 54.0848 57.6103C54.0864 57.552 54.0149 57.5148 53.9592 57.4456C53.921 57.3933 53.8896 57.3317 53.8997 57.2392C53.8997 57.2394 53.8997 57.2395 53.8997 57.2397C53.9126 57.1235 54.0658 56.8716 54.0017 56.6241C53.9993 56.6153 53.8844 56.5933 53.8804 56.408C53.8715 55.9915 53.8126 55.3534 53.8372 54.8848C53.8444 54.7472 53.9651 54.7752 53.98 54.6125C53.9908 54.4938 53.8792 54.3564 53.9042 54.1705C53.936 53.9375 54.1279 53.8257 53.8613 53.6655C53.9565 53.6523 54.0493 53.6589 54.1421 53.6432ZM53.9102 40.7705C53.9207 40.7377 54.2183 40.2993 53.9005 40.4293C53.7626 41.0186 53.8311 41.6556 53.7537 42.2756C54.0678 42.0639 53.944 41.7058 53.921 41.2711C53.921 41.2709 53.921 41.2707 53.921 41.2705C53.92 41.25 54.0021 41.3358 53.9872 41.2191C53.9799 41.1626 53.8541 40.9457 53.9102 40.7705ZM33.7373 22.757C33.8994 23.014 34.005 23.2893 34.0253 23.5976C34.0295 23.6652 33.9478 23.6769 33.9408 23.7069C33.9278 23.7619 34.0333 23.8274 34.0359 23.8394C34.0535 23.9132 33.9065 23.9157 33.9033 23.9268C33.8712 24.0514 34.0244 23.9844 34.0637 24.0876C34.1141 24.218 34.1257 24.402 34.1566 24.5731C34.1666 24.6313 34.0537 24.6298 34.0915 24.7529C34.1179 24.8389 34.3045 25.0911 34.2032 25.2438C34.1542 25.256 34.0963 25.2528 34.0441 25.2579C34.2906 25.3893 34.2976 25.4602 34.3079 25.727C34.3096 25.7691 34.4026 25.7874 34.3885 25.8661C34.3745 25.9451 34.2456 25.9785 34.2817 26.1233C34.2949 26.1748 34.3936 26.1844 34.416 26.2607C34.4798 26.4783 34.4691 26.9316 34.5093 27.1145C34.5894 27.4794 34.7917 27.6327 34.8163 27.9672C34.8183 27.9927 34.7053 27.9634 34.7143 28.0087C34.7234 28.0544 34.8673 28.0692 34.8732 28.0795C34.9366 28.1911 34.8226 28.4915 34.8606 28.5531C34.9531 28.7027 34.9718 28.5279 35.0526 28.7474C35.1297 28.9571 35.0312 29.2969 35.0507 29.5188C35.0733 29.7768 35.343 29.7934 35.1285 30.0448C35.3073 30.6957 35.4817 31.3498 35.6605 32.0014C35.608 32.0127 35.5555 32.0237 35.5029 32.0346C35.552 32.0773 35.6011 32.1199 35.6497 32.1626C35.609 32.1646 35.5684 32.167 35.5281 32.1689C35.7389 32.3743 35.8709 32.572 35.9018 32.8659C35.9024 32.8717 35.7951 32.8833 35.7936 32.8886C35.7903 32.9578 35.8882 33.0094 35.8837 33.0704C35.8733 33.218 35.7058 33.5056 35.9564 33.3341C35.98 33.6662 36.1675 34.0126 36.1913 34.3303C36.2015 34.467 36.0476 34.5476 36.054 34.6123C36.0605 34.6768 36.1932 34.6094 36.2042 34.6301C36.2693 34.7551 36.3198 34.9777 36.168 35.0404C36.2378 35.0512 36.3086 35.0633 36.3788 35.0743C36.2 35.1022 36.3773 35.4968 36.4006 35.606C36.4048 35.626 36.329 35.6482 36.3335 35.6629C36.3855 35.8261 36.5154 35.8343 36.5919 35.9683C36.6187 36.0149 36.4641 35.9716 36.5551 36.0854C36.563 36.0952 36.6828 36.0588 36.7208 36.2117C36.7814 36.4548 36.9481 36.9089 36.963 37.2187C36.9643 37.2437 36.8138 37.2047 36.8723 37.3058C36.8932 37.3423 36.9823 37.2999 37.0071 37.3946C37.1055 37.7662 37.0982 38.1913 37.2823 38.5443C37.1728 38.5568 37.0193 38.4492 37.1378 38.6392C37.157 38.6693 37.2455 38.6209 37.2527 38.6348C37.3101 38.7471 37.2681 38.866 37.3357 38.9817C37.3561 39.0165 37.433 39.0083 37.4626 39.0516C37.5064 39.1156 37.4082 39.1731 37.4733 39.2423C37.5756 39.3509 37.6797 39.34 37.5227 39.5506C37.5852 39.7876 37.6521 40.0304 37.7147 40.2602L37.9084 40.923L37.1689 40.9557C36.5033 40.9725 35.8392 40.9855 35.1745 40.92C34.9116 40.9781 34.669 41.043 34.395 41.0652C34.3143 41.0716 34.2988 40.9329 34.1701 40.9789C34.1413 40.9889 33.9356 41.1378 33.9056 40.8575C33.8484 40.8817 33.8122 40.8825 33.763 40.8974C33.8003 40.9386 33.8388 40.9802 33.8745 41.0217C33.667 40.9769 33.4975 41.0757 33.3138 41.1225C33.1785 41.1568 33.2746 41.0366 33.1916 41.0487C33.1086 41.0604 33.0708 41.0874 32.967 40.9435C32.8856 41.1095 32.8314 40.9931 32.6811 40.9886C32.665 40.9882 32.5717 41.0526 32.4937 41.0398C32.4376 41.0305 32.4209 40.9269 32.3319 40.943C32.3173 40.9454 32.1289 41.0737 32.0689 41.0854C31.9755 41.104 31.8271 40.9712 31.809 40.9696C31.5466 40.9462 31.4454 41.0773 31.259 40.8615C31.2213 40.9898 31.0658 41.0648 30.9401 41.0523C30.7814 41.0366 30.4631 40.7744 30.4197 41.0515C30.236 40.9281 30.2559 41.0042 30.0381 41.0067C29.8398 41.0091 29.3148 40.9031 29.154 40.9184C28.9934 40.9333 29.0717 41.0874 29.0079 41.108C28.9034 41.1422 28.9598 41.0285 28.8884 41.0301C28.7961 41.0323 28.7093 41.0381 28.6239 41.0484L27.8055 41.0845L27.9909 40.2273C28.0047 40.1267 28.0119 40.0258 28.0124 39.9175C28.0923 39.9278 28.1727 39.9374 28.2527 39.9472C28.2295 39.9308 28.2062 39.9144 28.1831 39.8979C28.1944 39.8579 28.2047 39.8123 28.2169 39.7755C27.7954 40.0008 28.3213 39.48 28.3786 39.2967C28.4271 39.1404 28.3335 38.8417 28.344 38.6599C28.3464 38.6159 28.4224 38.6665 28.4227 38.6574C28.4254 38.5501 28.3722 38.5207 28.4152 38.3881C28.4381 38.318 28.5616 38.2725 28.5818 38.2034C28.7293 37.6967 28.7525 37.1769 28.8727 36.6668C28.8931 36.5802 29.04 36.5389 29.0616 36.467C29.0924 36.3642 29.0049 36.2713 29.0284 36.1739C29.0519 36.0767 29.2129 35.9691 29.2108 35.8982C29.2091 35.8275 29.0589 35.909 29.1232 35.797C29.1528 35.7455 29.2177 35.8666 29.2381 35.7989C29.3018 35.5875 29.2675 35.2579 29.434 35.0582C29.4045 35.0613 29.3767 35.0688 29.3478 35.0744C29.4204 34.8353 29.5401 34.6377 29.6132 34.3902C29.639 34.3036 29.6 34.1258 29.6222 34.0399C29.6444 33.9541 29.7403 33.9369 29.7602 33.8686C29.7686 33.8406 29.6887 33.8321 29.6951 33.8136C29.7757 33.5813 29.9458 33.486 29.9929 33.2332C30.1657 32.3077 30.3503 31.3554 30.5238 30.4175C30.5308 30.3798 30.4364 30.33 30.4347 30.2719C30.4321 30.1823 30.522 30.1998 30.5279 30.1894C30.5652 30.1211 30.4756 30.1309 30.4993 30.033C30.5512 29.8188 30.7085 29.4855 30.7531 29.2708C30.8573 28.7694 30.8762 28.3368 30.9495 27.8398C30.9544 27.804 31.0684 27.8554 31.084 27.795C31.1951 27.3697 31.1013 27.2548 31.254 26.7261C31.4066 26.1995 31.6977 25.2077 31.8403 24.5859C31.8406 24.5859 31.8409 24.586 31.8411 24.586C31.66 24.3399 31.7644 24.1045 31.9746 23.921C32.2845 25.2521 31.7835 26.3787 31.5064 27.6862C31.2145 29.0601 31.2563 30.6144 30.8583 31.9874C30.8209 32.1164 30.6826 32.1376 30.6814 32.2539C30.6812 32.2736 30.7898 32.2496 30.7853 32.3092C30.7215 33.1255 30.2905 33.9046 30.1553 34.6879C30.1188 34.8993 30.2179 34.9593 30.199 35.1484C30.1565 35.1034 30.1087 35.0689 30.0647 35.0279C29.6932 35.8184 29.5488 36.6682 29.3072 37.5031C29.2962 37.5407 29.19 37.5181 29.1757 37.5568C29.1467 37.6346 29.2423 37.7411 29.2281 37.8117C29.2095 37.9039 29.1219 37.8977 29.1055 37.9827C29.0977 38.0241 29.1812 38.0329 29.1444 38.1178C29.1413 38.125 29.0559 38.1075 29.0513 38.1698C29.0387 38.3408 29.0235 38.6875 29.0092 38.8281C28.9911 39.0069 28.8285 39.1104 28.8033 39.1726C28.7356 39.3403 28.866 39.3724 28.8272 39.5203C28.7511 39.8111 28.6633 40.0996 28.5721 40.3802L28.557 40.4503L28.6239 40.4474C29.398 40.4913 30.1646 40.5708 30.9697 40.5699C31.0397 40.5698 31.2986 40.4204 31.4281 40.4263C31.4715 40.4288 31.6985 40.4683 31.7325 40.4715C31.8705 40.484 31.9897 40.5744 32.0658 40.5933C32.2134 40.6304 32.3783 40.4893 32.4587 40.4752C32.5997 40.4502 32.8502 40.4687 32.9094 40.4724C33.0524 40.4812 33.0052 40.6558 33.1078 40.6151C33.1381 40.6029 33.1063 40.4691 33.2132 40.4691C33.3027 40.4695 33.3389 40.5703 33.4 40.5885C33.4611 40.6065 33.5732 40.4506 33.6112 40.4545C33.8103 40.4763 33.8984 40.5785 34.1152 40.5837C34.2952 40.5877 35.1272 40.5163 35.1964 40.4796C35.5062 40.3156 34.9903 40.3892 34.9612 40.3836C34.804 40.3518 34.827 40.2888 34.6702 40.409C34.5299 40.0384 34.041 40.6155 33.9157 40.1759C33.7861 40.4687 33.6773 40.321 33.5409 40.2622C33.3523 40.1808 33.4959 40.3514 33.3583 40.3526C33.3041 40.3529 33.1469 40.2199 33.0655 40.2385C32.984 40.2571 32.9497 40.3591 32.8406 40.3647C32.6458 40.3752 32.4889 40.3276 32.3252 40.2054C32.2953 40.2594 32.2673 40.3135 32.2377 40.3675C32.1247 40.3094 32.0113 40.2517 31.8983 40.194C31.9163 40.2412 31.9344 40.2888 31.9525 40.336C31.9194 40.3429 31.8863 40.3493 31.8532 40.3558C31.7433 40.2848 31.6383 40.2191 31.5253 40.1457C31.2183 40.4187 31.3074 40.1824 31.1368 40.1469C30.9662 40.1115 30.8674 40.2695 30.7356 40.2703C30.5581 40.2715 30.4765 40.2913 30.2974 40.28C30.1937 40.2735 30.0176 40.121 30.1621 40.3626C29.8381 40.382 29.3945 40.4494 29.1047 40.3514C29.0192 40.3228 29.1333 40.2467 29.1187 40.2373C29.0461 40.1925 28.9849 40.3158 28.91 40.2982C28.8374 40.281 28.7247 40.2412 28.6239 40.2065L28.805 40.4414C28.8472 40.3786 28.8854 40.3206 28.9049 40.2836C28.9722 40.156 28.8744 39.8996 28.8689 39.8745C28.8381 39.7362 28.975 39.737 28.9765 39.6954C28.9838 39.458 28.9431 39.3937 29.2324 39.3936C29.1305 39.3051 28.9971 39.0112 29.2095 39.0037C29.0319 38.956 29.1153 38.76 29.103 38.6255C29.1605 38.616 29.2178 38.606 29.2757 38.5965C29.0252 38.254 29.3913 37.7981 29.5179 37.4669C29.5209 37.4585 29.3915 37.4086 29.4349 37.3651C29.4382 37.3625 29.4967 37.3834 29.5135 37.3509C29.568 37.2439 29.8302 36.8496 29.8444 36.8002C29.897 36.618 29.8058 36.5597 29.8254 36.4457C29.8508 36.2958 29.9462 36.2977 29.9695 36.1545C29.9805 36.0874 29.8776 35.9972 29.9209 35.8983C29.9465 35.8397 30.0409 35.8577 30.0608 35.8113C30.132 35.6464 30.1059 35.505 30.2662 35.3831C29.9808 35.2673 30.2174 35.2504 30.2591 35.1805C30.4288 34.897 30.4016 34.4822 30.4955 34.2256C30.7893 33.425 31.1555 32.7409 31.3963 31.9456C31.4353 31.817 31.2945 31.7479 31.3377 31.6131C31.3573 31.5525 31.4807 31.5155 31.5071 31.4151C31.5286 31.3346 31.5023 31.2049 31.5276 31.1034C31.5342 31.0764 31.6358 31.0988 31.6464 31.0592C31.7257 30.7605 31.7257 30.4477 31.7493 30.1331C31.7581 30.0162 31.909 29.9781 31.6711 29.9412C31.7387 29.9118 31.7987 29.8819 31.8649 29.8549C31.7551 29.6642 31.9382 29.5763 31.9508 29.3559C31.9518 29.332 31.828 29.1352 31.9656 29.0733C31.8839 29.0473 31.81 29.0445 31.7353 29.0241C31.7243 28.9287 31.8527 28.8142 31.8767 28.7563C31.9006 28.6985 31.8019 28.6331 31.8051 28.6148C31.8184 28.5456 31.9568 28.5949 31.9604 28.5902C32.1709 28.3041 32.0878 28.3178 31.9191 28.0754C31.8767 28.0144 32.1082 27.7238 31.955 27.6174C32.0245 27.6301 32.0808 27.6623 32.1452 27.6826C32.1856 27.5875 32.2264 27.4922 32.2665 27.3976C32.1957 27.4035 32.1238 27.4136 32.053 27.4176C32.1558 27.2309 32.0389 27.0236 32.0806 26.8607C32.1048 26.7673 32.2483 26.8113 32.2287 26.7491C32.2248 26.7369 32.122 26.7332 32.1212 26.6994C32.1162 26.4187 32.2449 26.3311 32.3225 26.069C32.359 25.9463 32.2024 25.8006 32.3585 25.649C32.3731 25.635 32.5702 25.4928 32.3638 25.3377C32.4432 25.3188 32.4874 25.2968 32.5536 25.2842C32.2589 24.9962 32.5804 25.1229 32.7197 24.8452C32.7924 24.7009 32.8356 24.1733 32.8311 23.9982C32.8279 23.895 32.6934 23.8715 32.6914 23.8529C32.6802 23.7438 32.8108 23.7651 32.808 23.6629C32.8052 23.5596 32.6805 23.4114 32.7123 23.3131C32.7369 23.2368 32.8876 23.3274 32.8519 23.2023C32.8439 23.1765 32.6946 23.2192 32.7699 23.1088C32.778 23.0968 32.8671 23.0149 32.9342 22.9551L32.8066 23.0624C32.839 23.0876 32.8664 23.1092 32.8788 23.1193C32.8603 23.1351 32.8355 23.1517 32.8066 23.1686L33.0388 22.9733C33.0926 23.1131 33.1343 23.3444 33.146 23.4416C33.412 25.4694 32.5318 29.2891 31.9607 31.2691C31.9082 31.4543 31.7391 31.5405 31.697 31.6589C31.6549 31.7772 31.8079 31.7062 31.7701 31.8137C31.7319 31.9214 31.622 31.9789 31.5887 32.0797C31.3634 32.76 31.1318 33.4433 30.933 34.123C30.8816 34.2995 30.949 34.468 30.9078 34.6299C30.8916 34.6929 30.7576 34.6608 30.7473 34.7058C30.6348 35.1907 30.6488 35.6697 30.5097 36.1448C30.4515 36.3426 30.2839 36.5272 30.2221 36.7222C30.171 36.8826 30.2043 37.0704 30.1681 37.2166C30.1486 37.2964 30.0361 37.3118 30.0206 37.3385C29.9681 37.4314 30.1013 37.4288 30.088 37.4798C30.051 37.6205 29.8832 37.6506 29.8604 37.7858C29.8516 37.8389 29.9488 37.8571 29.9441 37.9363C29.938 38.0366 29.8591 37.9783 29.8382 38.0455C29.8367 38.0495 29.9084 38.054 29.9018 38.0908C29.8595 38.3264 29.837 38.6327 29.774 38.8541C29.6431 39.3162 29.392 39.7376 29.2528 40.1626C29.2178 40.2702 29.3144 40.2645 29.3096 40.3003C29.2939 40.4153 29.234 40.4671 29.194 40.5437L28.6239 39.8043C28.6658 39.8138 28.7124 39.8171 28.7719 39.804C28.8019 39.7975 28.9226 39.6702 29.0379 39.7024C29.1002 39.7198 29.1709 39.7993 29.2239 39.8178C29.2769 39.8364 29.2854 39.7194 29.3492 39.7193C29.4652 39.7189 29.4315 39.8 29.5975 39.7855C29.6644 39.7798 29.8876 39.669 30.0598 39.6774C30.3412 39.6911 30.6898 39.7924 31.0215 39.794C31.1353 39.7948 31.2814 39.6746 31.4579 39.6734C31.6735 39.6718 32.0708 39.6991 32.2917 39.7007C32.4047 39.7015 32.4129 39.8275 32.4264 39.8327C32.5128 39.8677 32.4779 39.727 32.5358 39.7326C32.6154 39.7403 32.6896 39.844 32.7619 39.8509C32.808 39.8553 32.8153 39.7516 32.8253 39.7508C33.195 39.7165 33.5217 39.7262 33.8891 39.7149C34.979 39.6819 36.0745 39.6264 37.1689 39.5936L36.3916 40.5841C36.1582 39.7428 35.9295 38.884 35.7404 38.0275C35.7046 37.8661 35.8289 37.8249 35.7741 37.6923C35.7193 37.5583 35.4111 37.4916 35.6836 37.2978C35.6216 37.3096 35.5783 37.321 35.5218 37.3313C35.535 37.023 35.3709 36.7501 35.2885 36.4722C35.2267 36.2634 35.1891 36.075 35.1464 35.8797C35.1089 35.7059 35.2187 35.6928 35.0421 35.5791C34.9403 34.8161 34.729 34.0743 34.687 33.3031C34.416 33.1875 34.5175 32.9874 34.4908 32.7402C34.4876 32.7097 34.4127 32.7623 34.3976 32.6731C34.3785 32.5611 34.4909 32.4726 34.4372 32.2899C34.423 32.2417 34.1911 31.9149 34.2294 31.7629C34.2676 31.6108 34.261 31.4062 34.2949 31.2498C34.2455 31.2832 34.1998 31.3213 34.1517 31.3568C34.1249 31.2899 34.0983 31.2221 34.0715 31.1551C34.1343 31.1286 34.1971 31.1021 34.2604 31.0759C34.1881 31.0511 34.1165 31.0262 34.0434 31.0013C34.357 30.8295 34.27 30.9468 34.1363 30.7731C34.0696 30.6861 34.1088 30.5936 34.0496 30.5015C34.028 30.4684 33.9234 30.47 33.9007 30.4332C33.8458 30.343 33.9961 30.366 33.9803 30.3058C33.9639 30.2453 33.7927 30.1953 33.8321 30.07C34.127 30.1175 33.9579 29.8095 33.747 29.8453C33.7369 29.8062 33.7373 29.7712 33.7207 29.7294C34.2535 29.6393 33.8316 29.5267 33.7398 29.4634C33.6482 29.3999 33.7894 29.368 33.7792 29.3503C33.7503 29.299 33.7019 29.3536 33.6903 29.3154C33.6152 29.0624 33.6424 28.8035 33.588 28.5484C33.5802 28.5119 33.5087 28.5635 33.5061 28.5194C33.5036 28.4752 33.5727 28.4154 33.552 28.3545C33.5465 28.3382 33.4754 28.3501 33.469 28.3241C33.3375 27.7738 33.2719 27.2441 33.1464 26.6798C33.1352 26.6293 33.0014 26.6194 32.9827 26.5217C32.9634 26.4218 33.04 26.2452 33.0201 26.1224C33.0148 26.0897 32.9092 26.1055 32.9019 26.0624C32.8779 25.9185 32.9313 25.767 32.91 25.614C32.8746 25.3581 32.7476 25.0973 32.7504 24.8269C32.7504 24.7743 32.8387 24.7624 32.8468 24.6852C32.8609 24.5525 32.7452 24.6277 32.7226 24.6066C32.6496 24.5379 32.8118 24.4747 32.7512 24.4072C32.7419 24.3969 32.6461 24.4361 32.6422 24.4259C32.5872 24.2621 32.818 24.1985 32.6536 24.0498C32.7533 23.8637 32.8568 24.1147 32.9343 24.1268C33.1223 24.1546 33.2866 23.9334 33.3299 23.8187C33.3672 23.7201 33.2593 23.7435 33.2513 23.7076C33.2089 23.5165 33.1302 23.2503 33.1509 23.0938C33.1636 23.0016 33.2412 23.1467 33.2675 23.0953C33.2938 23.0443 33.2067 23.0334 33.2862 22.9709C33.3658 22.9081 33.6091 22.7662 33.7373 22.757ZM36.9754 38.4517C36.4811 38.2723 36.3357 37.5128 36.2722 37.0941C36.2219 36.7551 36.4719 36.3767 36.0186 36.5678C36.1085 36.9342 36.23 37.2146 36.3123 37.5997C36.3201 37.6368 36.3381 37.8917 36.3508 37.9748C36.3582 38.0223 36.2807 38.0436 36.2974 38.1061C36.3013 38.1198 36.4219 38.1688 36.4263 38.1977C36.4422 38.2986 36.3577 38.6222 36.3718 38.6593C36.4123 38.7639 36.5232 38.6928 36.5572 38.7352C36.6708 38.8791 36.4933 38.9425 36.5917 39.0843C36.6092 39.109 36.7912 39.1629 36.8004 39.2877C36.8038 39.3381 36.7422 39.4396 36.7551 39.4747C36.8244 39.6624 36.9904 39.8667 37.0163 40.0493C37.0391 40.2057 36.9064 40.1945 36.9094 40.2777C36.9118 40.3365 36.9961 40.3829 37.0519 40.4224L37.1689 40.2733C37.1472 40.2915 37.1276 40.3054 37.1115 40.3078C37.0223 40.3211 36.914 40.238 36.8863 40.2392C36.3413 40.2638 35.8566 40.3602 35.3309 40.3949C35.6879 40.4525 36.0446 40.5055 36.3993 40.5651C36.6007 40.4345 36.5005 40.557 36.633 40.5977C36.7379 40.63 36.7633 40.4087 36.9012 40.4332C36.9011 40.4332 36.901 40.4332 36.9009 40.4332C36.9549 40.443 37.0567 40.5337 37.1689 40.5487L37.3728 40.5397L37.3194 40.357C37.3158 40.3224 37.3046 40.2884 37.281 40.2572C37.2773 40.2525 37.1628 40.2678 37.1318 40.1584C37.061 39.9081 36.9106 39.5473 36.8649 39.2636C36.8513 39.1794 36.9723 39.1657 36.9625 39.0651C36.9556 38.9935 36.8273 38.9403 36.8236 38.8235C36.8196 38.6767 36.9882 38.5607 36.7064 38.5333C36.7968 38.5023 36.8878 38.4835 36.9754 38.4517ZM34.8146 30.8717C34.8199 30.8496 35.0433 30.5173 34.7544 30.6716C34.7083 31.0548 34.8698 31.4164 34.8875 31.8033C35.1605 31.6008 34.9869 31.4186 34.8997 31.1663C34.8997 31.1662 34.8997 31.1661 34.8997 31.166C34.8956 31.1541 34.988 31.1849 34.9562 31.1194C34.9407 31.0877 34.7863 30.9894 34.8146 30.8717ZM57.0683 16.8248C56.9406 16.9314 56.8283 16.983 56.6997 16.9506C56.6706 16.9433 56.6634 16.8614 56.6499 16.8496C56.6248 16.8279 56.6002 16.9209 56.5955 16.9216C56.5646 16.9273 56.5553 16.7831 56.5502 16.7782C56.4923 16.7281 56.5319 16.8878 56.4904 16.911C56.4359 16.9414 56.3577 16.9275 56.2866 16.9369C56.2619 16.9398 56.2456 16.8305 56.1946 16.8537C56.1564 16.8702 56.0848 17.0226 55.9905 16.9149C55.9734 16.8675 55.9617 16.8126 55.9476 16.7625C55.94 16.9882 55.9168 16.9863 55.7944 16.9828C55.775 16.9825 55.7953 17.0678 55.7548 17.0515C55.7142 17.0353 55.6554 16.9155 55.5984 16.9458C55.5783 16.957 55.6093 17.0465 55.5818 17.0658C55.5045 17.1188 55.2871 17.1189 55.2182 17.1658C55.0828 17.256 55.1249 17.4318 54.9903 17.4841C54.9799 17.4886 54.9249 17.3986 54.9092 17.4111C54.8932 17.424 54.9755 17.5346 54.9747 17.54C54.9653 17.5986 54.7567 17.5577 54.7533 17.5967C54.749 17.6865 54.8389 17.6709 54.7995 17.7614C54.7642 17.8454 54.5464 17.8481 54.4653 17.9156C54.3711 17.9946 54.5838 18.1444 54.306 18.0969C54.1836 18.3758 54.0975 18.6734 54.0539 18.9825C54.0014 18.9718 53.9488 18.9609 53.8963 18.9499C53.928 18.9825 53.9603 19.0131 53.9924 19.0438C53.9537 19.0336 53.9148 19.0234 53.8765 19.0129C54.0084 19.1582 54.0749 19.2644 54.0218 19.397C54.0207 19.3996 53.9147 19.3842 53.9118 19.3862C53.8892 19.4162 53.9689 19.4568 53.9481 19.483C53.8976 19.5466 53.6619 19.6564 53.9482 19.6131C53.9321 19.6524 53.9266 19.6944 53.9267 19.7376C53.927 19.8656 53.9748 19.9933 53.942 20.1066C53.923 20.1716 53.7568 20.208 53.7502 20.2411C53.7438 20.2742 53.8866 20.2431 53.8933 20.2537C53.9318 20.3161 53.9404 20.4235 53.7817 20.4592C53.8479 20.4634 53.915 20.4676 53.9815 20.4705C53.8011 20.4895 53.9107 20.6836 53.9191 20.7349C53.9205 20.7447 53.8437 20.7633 53.8461 20.7705C53.875 20.8514 54.0001 20.84 54.0576 20.8957C54.0781 20.9152 53.9336 20.916 54.0087 20.9604C54.0154 20.964 54.1344 20.9275 54.1545 20.9956C54.1869 21.1085 54.3089 21.2887 54.3129 21.4341C54.3134 21.4463 54.1756 21.4749 54.2271 21.5077C54.2457 21.5196 54.3281 21.4684 54.349 21.507C54.4289 21.653 54.4381 21.8726 54.62 21.9518C54.5312 22.0158 54.3938 22.0402 54.5088 22.0741C54.5275 22.0791 54.5956 22.0082 54.6027 22.0111C54.6587 22.0346 54.6371 22.116 54.7052 22.1343C54.7254 22.1393 54.784 22.0898 54.8114 22.0921C54.8517 22.0949 54.784 22.1819 54.8426 22.1743C54.9349 22.1616 55.0066 22.0873 54.9245 22.2858C55.2396 22.5419 55.6132 22.6712 55.9865 22.8693C56.1187 22.8459 56.2379 22.806 56.3625 22.8048C56.3986 22.8042 56.3842 22.9426 56.45 22.9056C56.466 22.898 56.5737 22.7612 56.5583 23.0411C56.5879 23.02 56.6051 23.0208 56.6298 23.008C56.6157 22.9655 56.6018 22.9223 56.5897 22.8793C56.6814 22.9336 56.7668 22.84 56.8511 22.7963C56.9129 22.764 56.8662 22.8828 56.9045 22.8717C56.94 22.8617 56.9568 22.8384 56.997 22.9447C57.0008 22.9546 57.0049 22.9656 57.0092 22.9779C57.0476 22.8116 57.0733 22.9281 57.1449 22.9305C57.1526 22.9307 57.1939 22.8648 57.2309 22.8757C57.2574 22.8836 57.2714 22.9867 57.3127 22.9678C57.3199 22.9651 57.3979 22.8303 57.4233 22.8158C57.4634 22.7934 57.546 22.9172 57.5555 22.9175C57.6825 22.9244 57.7027 22.7874 57.8291 22.9831C57.8226 22.8538 57.8759 22.7665 57.9333 22.7655C58.0022 22.7665 58.2208 22.9763 58.1575 22.7052C58.2733 22.7976 58.2426 22.728 58.3326 22.6927C58.4137 22.6628 58.6726 22.6617 58.73 22.611C58.7867 22.5634 58.681 22.4453 58.6948 22.4141C58.7159 22.3628 58.7519 22.4731 58.7777 22.4562C58.8502 22.4078 58.9021 22.3476 58.9381 22.2604C58.9884 22.3226 59.0395 22.3846 59.0906 22.4461C59.0786 22.4219 59.0664 22.3978 59.0541 22.3738C59.0693 22.3636 59.0846 22.3499 59.0995 22.3415C58.7774 22.1464 59.2194 22.2841 59.2927 22.2237C59.3526 22.1791 59.3163 21.9786 59.3353 21.9016C59.3404 21.8825 59.3973 21.9484 59.3982 21.9443C59.4086 21.8947 59.3677 21.8521 59.4099 21.8126C59.432 21.792 59.5372 21.8323 59.5577 21.808C59.7069 21.6294 59.7191 21.3811 59.7919 21.1707C59.8043 21.1348 59.9396 21.1502 59.954 21.1191C59.9745 21.0747 59.8823 21.0106 59.8943 20.9682C59.906 20.927 60.0483 20.9006 60.0377 20.8642C60.0273 20.829 59.893 20.8465 59.9404 20.8022C59.9622 20.7815 60.0406 20.8493 60.0515 20.819C60.0866 20.7213 60.0028 20.5607 60.13 20.4716C60.1017 20.4719 60.076 20.4743 60.0488 20.4756C60.0781 20.365 60.1575 20.2708 60.1777 20.1475C60.1851 20.1047 60.1086 20.0228 60.1109 19.9809C60.1133 19.9387 60.2026 19.9233 60.2061 19.8891C60.2077 19.8751 60.1281 19.8784 60.13 19.8692C60.1403 19.8193 60.1723 19.7786 60.204 19.7375C60.2455 19.6847 60.2865 19.6317 60.2747 19.562C60.1993 19.1089 60.0589 18.6683 59.845 18.2986C59.8364 18.2836 59.7369 18.3141 59.7133 18.2985C59.6768 18.2747 59.7592 18.2352 59.76 18.2292C59.7645 18.1911 59.6934 18.2387 59.675 18.2004C59.6352 18.1161 59.6257 17.9459 59.5672 17.8691C59.4343 17.6929 59.2556 17.6051 59.0839 17.4963C59.0712 17.4886 59.163 17.4066 59.1448 17.3874C59.0137 17.2525 58.9131 17.3189 58.7463 17.1672C58.5819 17.0119 58.2005 16.7625 57.9186 16.6853C57.9186 16.6851 57.9187 16.6848 57.9188 16.6845C57.7789 16.8839 57.6922 16.8096 57.6182 16.6257C58.2898 16.1581 58.865 16.6428 59.3362 17.0386C59.8492 17.4346 60.616 17.9753 60.7206 18.7779C60.73 18.8506 60.6081 18.9027 60.6447 18.9564C60.6508 18.9657 60.7446 18.9231 60.7597 18.9527C60.8802 19.1954 60.8564 19.4755 60.8178 19.7375C60.7909 19.9249 60.7587 20.1022 60.7668 20.2813C60.7715 20.3971 60.8791 20.429 60.8924 20.5375C60.8433 20.5115 60.7907 20.4919 60.7406 20.4691C60.5153 20.8969 60.4588 21.3441 60.2204 21.74C60.2096 21.7576 60.1131 21.7078 60.0996 21.7238C60.0725 21.7553 60.1553 21.8503 60.1389 21.8851C60.1177 21.9299 60.0401 21.8909 60.0211 21.9307C60.0118 21.9502 60.0847 21.9907 60.0461 22.0227C60.0428 22.0254 59.9695 21.9786 59.961 22.0103C59.9397 22.0975 59.8863 22.2828 59.8526 22.3523C59.8108 22.4422 59.6632 22.4049 59.6338 22.4222C59.5525 22.4699 59.6458 22.5661 59.5853 22.6208C59.1451 23.0104 58.5748 23.1105 58.0297 23.2384C57.996 23.2469 57.8945 23.421 57.8239 23.4265C57.7999 23.4286 57.6765 23.4076 57.6582 23.4064C57.5837 23.4039 57.5129 23.3205 57.4724 23.3054C57.3941 23.2759 57.3205 23.4223 57.278 23.4386C57.2043 23.4682 57.0725 23.4526 57.0409 23.4488C57.0197 23.4465 57.0063 23.4311 56.997 23.411C56.9731 23.3592 56.9758 23.277 56.9377 23.3059C56.922 23.3178 56.9366 23.4521 56.8804 23.4509C56.8331 23.4492 56.8186 23.3477 56.7879 23.3282C56.7578 23.3089 56.6906 23.4609 56.6704 23.4555C56.5673 23.4259 56.5314 23.3199 56.4232 23.3008C56.333 23.2915 55.9019 23.2712 55.8561 23.2901C55.652 23.4015 55.938 23.4081 55.9516 23.4149C56.0253 23.4656 56.0025 23.5249 56.1089 23.4247C56.1165 23.8069 56.4675 23.2773 56.4807 23.7184C56.5827 23.4348 56.623 23.5863 56.6954 23.65C56.7948 23.7371 56.725 23.5625 56.7997 23.5648C56.8279 23.5658 56.9102 23.7011 56.9563 23.6827C56.9721 23.6764 56.9848 23.6598 56.997 23.6406C57.0197 23.6049 57.0408 23.5603 57.0789 23.5561C57.1832 23.5439 57.2679 23.5877 57.3665 23.7035C57.3793 23.6484 57.3905 23.5934 57.402 23.5383C57.4675 23.5914 57.535 23.6429 57.6037 23.6929C57.5883 23.6472 57.5732 23.601 57.5583 23.5552C57.5753 23.5464 57.592 23.538 57.609 23.5294C57.6769 23.5926 57.7433 23.6497 57.8174 23.7121C57.9408 23.4143 57.9301 23.6553 58.0329 23.6709C58.1365 23.6851 58.1531 23.5182 58.2225 23.4991C58.3173 23.4723 58.3535 23.4411 58.4511 23.4211C58.5071 23.4097 58.6495 23.5201 58.4941 23.3192C58.6552 23.2433 58.8381 23.0878 59.0202 23.0987C59.075 23.1014 59.0565 23.1982 59.0679 23.2027C59.1255 23.2224 59.0951 23.098 59.1391 23.0928C59.2122 23.085 59.3795 23.0918 59.439 23.0773C59.5265 23.0572 59.53 22.8527 59.531 22.8364C59.5446 22.7426 59.643 22.8325 59.655 22.8105C59.7195 22.6847 59.6968 22.6269 59.9219 22.7993C59.8666 22.6858 59.8143 22.4478 59.9864 22.56C59.8519 22.435 59.9507 22.3715 59.9584 22.2882C60.0078 22.3118 60.0574 22.3346 60.1077 22.3574C59.9418 22.041 60.2873 21.9535 60.4149 21.7889C60.4179 21.7848 60.2996 21.7138 60.34 21.7027C60.343 21.7023 60.397 21.7329 60.4129 21.7191C60.4655 21.677 60.7076 21.5064 60.7187 21.4758C60.7624 21.3759 60.6708 21.3238 60.6823 21.2597C60.6963 21.1755 60.7883 21.1918 60.7985 21.1088C60.8034 21.0695 60.6944 21.0051 60.7253 20.9533C60.7434 20.9223 60.8375 20.9414 60.8516 20.9156C60.9019 20.8222 60.8562 20.7421 60.9951 20.6743C60.6985 20.5986 60.9269 20.5976 60.9564 20.5564C61.0776 20.3893 60.9689 20.1543 61.0029 20.0047C61.0237 19.9146 61.046 19.8272 61.0684 19.7375C61.1624 19.3632 61.2571 18.9812 61.2004 18.574C61.1883 18.4918 61.035 18.5099 61.0231 18.4277C61.0176 18.3903 61.1138 18.322 61.097 18.2607C61.0838 18.2116 61.0077 18.1595 60.9873 18.1003C60.9818 18.0846 61.0794 18.0484 61.0716 18.0244C61.0117 17.8413 60.8682 17.6972 60.7355 17.5528C60.6865 17.4998 60.7854 17.395 60.5815 17.5218C60.6203 17.4704 60.6519 17.4223 60.6893 17.371C60.51 17.3642 60.6036 17.215 60.4955 17.126C60.4831 17.1158 60.2925 17.1337 60.3546 17.0182C60.2842 17.0669 60.2315 17.1175 60.1689 17.163C60.1122 17.142 60.1392 17.0181 60.1234 16.9837C60.108 16.9495 60.0082 17.0041 60.0007 16.997C59.9725 16.969 60.0877 16.8791 60.0875 16.8752C60.0607 16.6374 60.01 16.7006 59.778 16.7793C59.7223 16.8005 59.6847 16.5517 59.5433 16.6611C59.5869 16.6056 59.6346 16.5645 59.6801 16.5148C59.6462 16.463 59.6105 16.411 59.573 16.3602C59.5427 16.4221 59.5136 16.4852 59.4808 16.546C59.4224 16.4272 59.2504 16.503 59.177 16.4502C59.1343 16.4195 59.2177 16.2953 59.1731 16.3065C59.1644 16.3088 59.1212 16.4008 59.1015 16.3984C58.9425 16.3814 58.9383 16.2583 58.8099 16.1751C58.7486 16.1363 58.6233 16.2817 58.5769 16.1336C58.5745 16.1203 58.5343 15.9306 58.4013 16.133C58.4072 16.057 58.4031 16.0149 58.4082 15.9513C58.1863 16.246 58.3248 15.9306 58.1764 15.8081C58.0993 15.7425 57.7921 15.7453 57.6929 15.7723C57.6339 15.7873 57.6187 15.9232 57.6084 15.9274C57.5474 15.952 57.5613 15.8205 57.5041 15.8368C57.4466 15.8532 57.3692 15.9976 57.316 15.9811C57.2749 15.9685 57.3153 15.8057 57.2502 15.8603C57.2369 15.8723 57.2681 16.0128 57.2054 15.956C57.1963 15.947 57.0928 15.7944 57.0693 15.762C57.1264 15.6738 57.2988 15.5643 57.3683 15.5336C57.9371 15.2538 58.9634 15.2845 59.8371 15.8314C60.7251 16.3594 61.2669 17.3289 61.4341 17.9846C61.4692 18.1096 61.354 18.2278 61.3633 18.308C61.3722 18.3886 61.4817 18.2888 61.4899 18.3627C61.4972 18.437 61.4191 18.5105 61.4255 18.5775C61.4623 18.9737 61.4478 19.3637 61.4189 19.7375C61.4147 19.7921 61.4102 19.8461 61.4057 19.8996C61.3964 20.0065 61.4985 20.1032 61.491 20.2045C61.4879 20.244 61.3503 20.2337 61.3492 20.2617C61.3342 20.5565 61.4191 20.8616 61.3235 21.163C61.2833 21.2886 61.1313 21.3867 61.0783 21.5017C61.0352 21.5949 61.0673 21.7277 61.0299 21.8159C61.0095 21.8649 60.9025 21.8454 60.8873 21.8584C60.835 21.9044 60.96 21.94 60.9453 21.9702C60.9032 22.0536 60.7445 22.022 60.7144 22.1002C60.7023 22.1312 60.7902 22.1766 60.778 22.2276C60.7621 22.2919 60.6963 22.2246 60.6703 22.2605C60.6685 22.2626 60.7331 22.2924 60.7228 22.3141C60.6578 22.4538 60.5872 22.6461 60.4856 22.7603C60.275 22.9998 59.9551 23.1106 59.7175 23.2536C59.657 23.2902 59.7258 23.3535 59.7098 23.3706C59.6306 23.452 59.538 23.3815 59.4629 23.4748C59.4508 23.4899 59.4497 23.6396 59.3678 23.6481C59.3239 23.6528 59.247 23.6038 59.2093 23.6025C59.1715 23.6011 59.2199 23.7078 59.1831 23.7261C59.1162 23.7591 59.1012 23.677 59.0128 23.7332C58.9778 23.7556 58.8904 23.9135 58.7827 23.9435C58.6088 23.9934 58.3705 23.9592 58.1747 24.0012C58.1066 24.0157 58.0434 24.1518 57.9339 24.1716C57.8021 24.1969 57.5558 24.1987 57.4214 24.2055C57.3528 24.2095 57.3405 24.0838 57.3323 24.0791C57.2791 24.047 57.3072 24.1863 57.2718 24.1825C57.2226 24.1771 57.1756 24.0748 57.1331 24.0689C57.106 24.0652 57.1034 24.1688 57.0974 24.1698C57.0636 24.1756 57.0302 24.1801 56.997 24.1835C56.8115 24.2022 56.6403 24.1886 56.4477 24.1784C55.2561 24.1493 53.8225 23.5312 53.2186 22.321C53.1674 22.2223 53.2813 22.1574 53.2197 22.0845C53.1599 22.0132 52.8632 22.0458 53.1163 21.8471C53.0577 21.8703 53.0168 21.8886 52.9633 21.9093C52.9657 21.6948 52.8146 21.5464 52.749 21.3656C52.7007 21.2321 52.6806 21.1105 52.6601 20.9825C52.6434 20.8706 52.7535 20.8613 52.5952 20.7901C52.5985 20.4266 52.5787 20.0771 52.6364 19.7375C52.6571 19.6123 52.6883 19.4928 52.7353 19.3725C52.5086 19.2489 52.6653 19.1485 52.7191 19.0055C52.7259 18.9876 52.6383 18.9963 52.6534 18.9408C52.6728 18.8707 52.8067 18.8563 52.8208 18.7402C52.8231 18.7105 52.7312 18.4494 52.8275 18.3821C52.9209 18.318 52.9988 18.2095 53.094 18.1503C53.0369 18.1441 52.981 18.1423 52.924 18.1388C52.9287 18.0933 52.9349 18.0464 52.9412 18.0002C53.0069 18.0167 53.0725 18.0335 53.1382 18.051C53.0866 18.0052 53.0364 17.9588 52.9853 17.9106C53.3287 17.9829 53.2007 17.9976 53.1671 17.8486C53.1514 17.7735 53.2263 17.7534 53.2219 17.6799C53.2201 17.6534 53.1346 17.5959 53.1345 17.5663C53.135 17.4941 53.2439 17.5903 53.2607 17.5551C53.2768 17.5206 53.1678 17.3961 53.2634 17.3656C53.4679 17.5617 53.4905 17.3401 53.3162 17.2187C53.3295 17.1961 53.3485 17.1821 53.3589 17.1545C53.8008 17.4634 53.5455 17.1527 53.5179 17.0638C53.4881 16.9775 53.6054 17.0629 53.6078 17.0497C53.6156 17.0118 53.5518 16.9976 53.5649 16.976C53.6549 16.832 53.824 16.7665 53.9399 16.6544C53.9568 16.6381 53.8829 16.5972 53.9078 16.5826C53.933 16.5678 54.0097 16.6056 54.0339 16.5734C54.0404 16.5648 53.9921 16.5114 54.0043 16.4993C54.2641 16.2487 54.5743 16.093 54.8886 15.9268C54.9168 15.9119 54.8779 15.7872 54.9373 15.761C54.9972 15.7345 55.1338 15.7959 55.2072 15.7727C55.2267 15.7666 55.1887 15.667 55.2153 15.6584C55.3061 15.6295 55.4134 15.68 55.5069 15.6611C55.6653 15.6289 55.8092 15.5184 55.9824 15.5419C56.0149 15.5463 56.0306 15.6337 56.0775 15.6488C56.1584 15.6754 56.1048 15.5547 56.1161 15.5346C56.1545 15.4695 56.2026 15.6355 56.2412 15.5835C56.2472 15.5755 56.2188 15.4769 56.2251 15.4741C56.3251 15.4388 56.3651 15.6745 56.4535 15.533C56.5641 15.6575 56.4149 15.7238 56.4113 15.7987C56.4016 15.9796 56.5272 16.1714 56.5855 16.2322C56.637 16.2842 56.6244 16.1747 56.6429 16.1726C56.7392 16.1616 56.8844 16.1323 56.9591 16.1833C57.004 16.2136 56.9259 16.2617 56.9494 16.2974C56.9721 16.333 56.9848 16.2497 57.0088 16.34C57.0334 16.4303 57.0767 16.6973 57.0683 16.8248ZM54.3559 22.0601C53.9167 22.2133 53.7143 21.793 53.6725 21.5701C53.6278 21.3794 53.9006 21.1261 53.451 21.3169C53.516 21.5164 53.6261 21.6539 53.7143 21.8555C53.7227 21.8763 53.7504 22.0189 53.7695 22.0646C53.7798 22.0901 53.7118 22.1331 53.7327 22.1648C53.7375 22.1718 53.8504 22.1534 53.8569 22.1682C53.8775 22.2187 53.8473 22.4516 53.8679 22.469C53.9201 22.514 54.0022 22.4159 54.0373 22.4237C54.1539 22.4482 54.0176 22.5773 54.1267 22.6081C54.1466 22.6139 54.3028 22.5428 54.3335 22.6042C54.3458 22.6295 54.3204 22.7227 54.3389 22.7347C54.4389 22.8003 54.6071 22.7963 54.6762 22.8723C54.7339 22.9351 54.6415 23.0231 54.6693 23.0642C54.6983 23.1053 54.8268 23.0155 54.8564 23.0247C54.9042 23.0403 54.9113 23.1421 54.9257 23.1492C55.2023 23.2859 55.4876 23.3023 55.7641 23.3513C55.5985 23.2403 55.4444 23.1221 55.31 22.9885C55.159 23.0584 55.2595 22.9722 55.2206 22.9052C55.1911 22.852 55.0698 23.038 55.019 22.979C55.019 22.979 55.0191 22.979 55.0191 22.9791C54.9925 22.9479 55.0093 22.7777 54.9108 22.787C54.9072 22.7874 54.8358 22.8782 54.7843 22.8458C54.6702 22.7751 54.4703 22.6825 54.3793 22.5532C54.3529 22.5157 54.446 22.4386 54.422 22.3912C54.405 22.3569 54.2922 22.3986 54.272 22.3362C54.2468 22.2566 54.3792 22.114 54.1361 22.235C54.2094 22.1741 54.2847 22.1198 54.3559 22.0601ZM53.7014 18.2209C53.7152 18.2122 54.0419 18.1972 53.7326 18.1148C53.5314 18.2417 53.5301 18.4684 53.4081 18.6497C53.7301 18.6536 53.6362 18.5193 53.6583 18.3768C53.6583 18.3767 53.6584 18.3767 53.6584 18.3766C53.6594 18.3701 53.729 18.4213 53.7263 18.3818C53.7245 18.3638 53.6287 18.2547 53.7014 18.2209Z" fill="#FFD170"/>
</svg>
