<svg width="83" height="84" viewBox="0 0 83 84" fill="none" xmlns="http://www.w3.org/2000/svg">
<path d="M46.3923 83.3083C44.5597 83.3101 42.8418 83.2675 40.672 83.2137C40.6709 83.2137 40.6697 83.2137 40.6686 83.2137C40.3586 83.206 40.0391 83.1979 39.709 83.1899C37.0508 83.125 33.5969 83.0489 28.3888 83.0052C22.6341 82.957 18.0653 82.7823 15.2755 82.6146C14.7551 82.5833 14.2166 82.5662 12.8581 82.5505C12.1777 82.5427 11.3144 82.5354 10.1702 82.5265C9.74419 82.5236 9.28953 82.4951 8.79954 82.4261C7.70263 82.2706 6.43128 81.9122 5.12277 81.1533C2.65131 79.8012 -0.0259403 76.4558 0.0183614 72.3171C0.0174199 69.776 0.0130477 67.1028 0.00879014 64.5238C0.0027566 60.8692 -0.00300872 57.4029 0.00177085 54.7701C0.00876212 50.9197 0.0401258 47.2044 0.0744047 43.1654C0.105797 39.4666 0.13968 35.496 0.158941 30.9018C0.173726 27.3768 0.30066 23.9521 0.442457 20.4718C0.460503 20.0289 0.478744 19.584 0.497085 19.1388C0.620311 16.1475 0.746389 13.0914 0.821392 9.79761C0.823397 9.70032 0.826853 9.60323 0.831756 9.50635C1.13755 4.09023 5.6313 0.497123 10.1702 0.50592C11.2101 0.495753 12.2567 0.483914 13.3241 0.471842C15.4153 0.448187 17.5861 0.423596 19.9403 0.408974C23.6634 0.385849 29.0157 0.390519 34.39 0.397071C34.8478 0.397629 35.3062 0.398026 35.7634 0.398597C35.7657 0.398597 35.768 0.398597 35.7703 0.398597C40.6898 0.404751 45.5182 0.410791 49.0605 0.397377C54.6895 0.376059 56.8074 0.325685 58.5738 0.283543C59.2378 0.267702 59.8526 0.252908 60.5854 0.241427C63.2248 0.200085 67.209 0.207761 71.2478 0.215487C71.2632 0.215487 71.2787 0.215487 71.2941 0.215487C71.9643 0.216769 72.5053 0.357948 72.5022 0.530742C72.4989 0.703552 71.9528 0.842702 71.2825 0.84142C69.1432 0.837328 67.0556 0.83337 65.1866 0.836232C65.0896 0.984706 64.5863 1.0971 63.9831 1.09594C62.4729 1.09308 57.8475 1.20494 50.6085 1.3877C51.1044 1.41476 51.5197 1.4411 51.8836 1.46613C52.3108 1.49552 52.6381 1.52078 52.9195 1.54243C53.506 1.58754 53.8962 1.61731 54.5889 1.63917C56.1932 1.66402 58.7146 1.66919 61.368 1.67427C62.0381 1.6756 62.5791 1.81649 62.5761 1.98922C62.5729 2.16199 62.0266 2.30111 61.3565 2.2999C61.3434 2.2999 61.3303 2.2999 61.3172 2.2999C58.6892 2.29487 56.0867 2.28977 54.4108 2.26327C53.9844 2.25653 53.6172 2.24855 53.3415 2.2413C53.121 2.2355 52.8458 2.22763 52.6929 2.2175C52.6726 2.21615 52.6339 2.21342 52.5877 2.20926C52.5869 2.20915 52.5862 2.20905 52.5854 2.20895C52.5596 2.20665 52.4277 2.19498 52.2871 2.16958C52.2587 2.16445 52.197 2.153 52.1253 2.13449C52.1068 2.13306 52.0883 2.13164 52.0698 2.13021C51.8119 2.11044 51.5488 2.09029 51.264 2.0707C50.152 1.99421 48.3908 1.89781 44.7229 1.79573C41.3495 1.70185 35.6467 1.65975 28.531 1.65901C29.0117 1.67195 29.4936 1.6845 29.975 1.69655C31.1865 1.72683 32.4036 1.75444 33.6212 1.78078C34.0876 1.79084 34.5477 1.80069 35.0166 1.81038C35.7713 1.82605 36.5282 1.84144 37.2848 1.85646C37.796 1.86663 38.3084 1.87662 38.82 1.88668C38.8212 1.88668 38.8224 1.88668 38.8235 1.88668C39.5338 1.90063 40.2458 1.91467 40.9634 1.9291C41.2146 1.93447 41.4627 1.93963 41.7091 1.94466C42.6897 1.9647 43.6531 1.98415 44.7622 2.02187C44.8971 2.02812 45.0437 2.0362 45.153 2.04293C45.2705 2.05002 45.3837 2.05725 45.4906 2.0646C45.5849 2.07109 45.6749 2.07768 45.7611 2.08383C45.7727 2.08464 45.7842 2.08545 45.7958 2.08627C45.8923 2.09314 45.9845 2.09949 46.0732 2.10549C46.1617 2.11149 46.247 2.11727 46.331 2.12228C46.3318 2.12228 46.3326 2.12228 46.3334 2.12228C46.4211 2.12742 46.4877 2.13128 46.5807 2.13571C46.6975 2.14125 46.7979 2.14552 46.9195 2.14975C47.0371 2.15386 47.1598 2.15753 47.2836 2.16073C47.4075 2.16393 47.5336 2.16673 47.6617 2.16928C47.7898 2.17182 47.92 2.17419 48.0513 2.1763C48.1824 2.1784 48.3153 2.18024 48.449 2.1821C48.5827 2.18395 48.7178 2.18581 48.8536 2.18759C49.1662 2.19172 49.4659 2.22639 49.686 2.28525C49.9059 2.34411 50.0284 2.42197 50.027 2.50254C50.0255 2.58312 49.9 2.66057 49.6779 2.71861C49.4557 2.77662 49.1548 2.81028 48.842 2.81322C48.7569 2.814 48.6713 2.81489 48.5854 2.81566C48.5344 2.81611 48.4829 2.81644 48.4316 2.81688C48.2938 2.81805 48.1544 2.81935 48.0143 2.82024C47.8742 2.82112 47.7329 2.8217 47.59 2.82207C47.4467 2.82243 47.3015 2.82255 47.1542 2.82207C47.0072 2.82158 46.857 2.82055 46.7044 2.81871C46.5556 2.81698 46.3858 2.81395 46.2339 2.81016C46.1229 2.80751 45.9861 2.80296 45.8721 2.79887C45.753 2.79459 45.6359 2.78981 45.5229 2.78483C45.4097 2.77985 45.3003 2.77456 45.1958 2.76958C45.1846 2.76907 45.1734 2.76856 45.1623 2.76805C45.0699 2.76364 44.9807 2.75935 44.8964 2.75554C44.8021 2.75128 44.7129 2.74765 44.6281 2.74455C44.5348 2.74107 44.4781 2.73969 44.4085 2.73814C43.4887 2.72808 42.3516 2.73016 41.2674 2.73204C41.1312 2.73227 40.9957 2.73244 40.8617 2.73265C40.1496 2.73412 39.4389 2.73597 38.7287 2.73784C38.2126 2.73919 37.6958 2.7406 37.1784 2.7418C36.4171 2.7436 35.6534 2.74502 34.8906 2.74608C34.4168 2.74669 33.9517 2.74709 33.479 2.7473C32.2448 2.7479 31.0067 2.74706 29.7669 2.74333C28.5288 2.73959 27.2829 2.73307 26.0362 2.72197C24.7943 2.71089 23.504 2.69434 22.2582 2.66917C21.3422 2.65036 20.4032 2.61757 19.5345 2.58372C19.0676 2.56548 18.6104 2.54699 18.1599 2.52848C18.1584 2.52838 18.1568 2.52828 18.1553 2.52817C17.7599 2.51193 17.3695 2.49585 16.9819 2.48057C16.1509 2.44766 15.3346 2.41832 14.5183 2.39359C13.7033 2.36884 12.8919 2.34866 12.0744 2.33316C11.4444 2.32125 10.8063 2.31189 10.1702 2.30511C10.0067 2.30318 9.84652 2.30655 9.68435 2.31535C8.95976 2.35536 8.25417 2.49866 7.553 2.75898C6.63141 3.10277 5.78466 3.63027 5.05594 4.31952C4.33251 5.00367 3.74349 5.83923 3.34383 6.75765C3.20397 7.07851 3.08644 7.40976 2.99333 7.74761C2.99296 7.74891 2.99259 7.75021 2.99222 7.75152C2.81998 8.37726 2.73091 9.02555 2.72619 9.67734C2.72589 9.71735 2.7259 9.75744 2.72624 9.79761C2.73427 10.8969 2.7419 11.9991 2.74813 13.1053C2.75458 14.257 2.75965 15.4157 2.76155 16.5804C2.76329 17.7453 2.76224 18.9417 2.75209 20.1435C2.74333 21.2156 2.73164 22.2962 2.72005 23.3527C2.717 23.6317 2.71394 23.9107 2.71089 24.1897C2.69662 25.5135 2.68523 26.7952 2.68312 28.0625C2.68076 29.329 2.68722 30.5946 2.70082 31.8718C2.71437 33.1451 2.73465 34.4344 2.75911 35.7342C2.78368 37.0396 2.81201 38.3282 2.84304 39.6429C2.87394 40.9476 2.90712 42.2584 2.94222 43.5851C2.96166 44.3226 2.97952 45.1073 2.99471 45.8487C3.01006 46.5973 3.02362 47.341 3.03622 48.0753C3.04134 48.3732 3.04622 48.6698 3.05117 48.9643C3.0584 49.3937 3.06545 49.8193 3.07284 50.2383C3.08532 50.9453 3.09867 51.6352 3.11435 52.3053C3.13002 52.9752 3.14824 53.6253 3.1705 54.2533C3.19363 54.9033 3.21715 55.4391 3.25076 56.0799C3.31559 57.6405 3.3355 58.6076 3.35788 59.6822C3.36229 59.8938 3.36698 60.1101 3.37192 60.3354C3.39703 61.624 3.41575 62.9112 3.42991 64.1817C3.44408 65.4644 3.45364 66.727 3.45921 68.0059C3.46474 69.2725 3.46606 70.5481 3.46378 71.8187C3.46349 71.9848 3.46312 72.151 3.4627 72.3171C3.4595 73.1927 3.6228 74.0596 3.94678 74.8699C4.31676 75.8024 4.91625 76.6692 5.64373 77.3443C6.06226 77.7362 6.56091 78.0959 7.05975 78.3664C7.41917 78.5624 7.79139 78.7236 8.16803 78.8491C8.32138 78.9002 8.47681 78.9458 8.63136 78.9853C9.14602 79.1169 9.66435 79.1838 10.1702 79.1931C10.1937 79.1934 10.2173 79.1938 10.2408 79.1941C10.8841 79.2036 11.5067 79.2103 12.1159 79.2127C12.7262 79.2152 13.3232 79.2134 13.9205 79.2072C14.5397 79.2007 15.0539 79.1919 15.7113 79.1758C16.1395 79.1652 16.5589 79.1545 16.9772 79.1437C17.6034 79.1277 18.225 79.1113 18.8512 79.0943C19.4766 79.0773 20.0941 79.06 20.7148 79.0418C20.9143 79.036 21.125 79.0298 21.3252 79.0238C21.9436 79.0052 22.5549 78.9861 23.1656 78.9658C23.7752 78.9456 24.3792 78.9245 24.9807 78.902C25.5847 78.8795 26.1785 78.856 26.7841 78.8306C27.8135 78.7873 28.7988 78.7672 29.6616 78.7537C30.5347 78.7404 31.3507 78.733 32.1448 78.726C32.2936 78.7246 32.4423 78.7233 32.5911 78.722C33.2317 78.7164 33.8618 78.7112 34.4824 78.7049C35.2474 78.6971 35.9983 78.6879 36.7518 78.6768C37.4987 78.6659 38.2529 78.6531 38.9957 78.6381C39.7455 78.6228 40.4624 78.6064 41.235 78.5862C41.9991 78.5664 42.7752 78.5405 43.6258 78.5123C44.4686 78.4844 45.3532 78.4556 46.2489 78.4305C47.1437 78.4053 48.0528 78.3836 48.9553 78.3664C49.8596 78.3492 50.7669 78.3362 51.6616 78.3271C52.5611 78.3179 53.4553 78.3125 54.3449 78.31C55.2324 78.3075 56.1492 78.3079 57.0073 78.3109C58.3968 78.3157 59.78 78.3226 61.1657 78.3301C62.5437 78.3377 63.9261 78.3462 65.3056 78.3552C66.6826 78.3641 68.0611 78.3735 69.4374 78.3832C70.4594 78.3905 71.4812 78.3979 72.5022 78.4053C72.7596 78.4079 73.0137 78.3948 73.2671 78.3658C73.4834 78.3411 73.699 78.3047 73.9119 78.2567C74.6604 78.0885 75.377 77.775 76.0119 77.339C76.0163 77.336 76.0207 77.3331 76.0251 77.3301C76.841 76.7673 77.5101 76.0142 77.9705 75.1438C78.1393 74.824 78.2742 74.5026 78.3823 74.1667C78.4902 73.8305 78.5671 73.4911 78.615 73.1432C78.6528 72.868 78.6713 72.5933 78.6716 72.3171C78.6717 72.2158 78.6717 72.1147 78.6717 72.0139C78.6717 71.5348 78.671 71.0678 78.669 70.5966C78.6672 70.1646 78.664 69.7357 78.6607 69.2671C78.6604 69.2243 78.6601 69.1815 78.6598 69.1388C78.6562 68.626 78.6539 68.0428 78.6556 67.5006C78.6605 66.0647 78.6628 64.6652 78.6626 63.2405C78.6624 61.815 78.6597 60.3926 78.6559 58.9584C78.6544 58.3983 78.6526 57.8357 78.651 57.2728C78.6485 56.3972 78.6459 55.5184 78.644 54.637C78.6407 53.1867 78.6392 51.7333 78.6412 50.2705C78.6432 48.8133 78.6488 47.3467 78.6586 45.8867C78.6683 44.4278 78.6821 42.9563 78.6995 41.504C78.719 39.8859 78.7405 38.2772 78.763 36.6613C78.7855 35.0479 78.809 33.4337 78.8332 31.8266C78.8574 30.2136 78.8822 28.6047 78.9076 26.9954C78.9331 25.385 78.9592 23.7757 78.9858 22.1653C79.0017 21.2015 79.0179 20.2379 79.0343 19.274C79.0196 18.7639 79.0052 18.275 78.9916 17.8046C78.9043 14.7959 78.838 12.5085 78.7893 9.79761C78.7817 9.48301 78.7518 9.16468 78.6956 8.8413C78.6522 8.61049 78.6028 8.42665 78.5323 8.20745C78.5187 8.16551 78.504 8.12122 78.4884 8.07637C78.3883 7.79288 78.2618 7.47193 78.0405 7.04895C77.5996 6.22151 76.7483 4.94286 75.0401 4.01836C74.6132 3.79107 74.3514 3.55238 74.506 3.42058C74.615 3.33082 74.9115 3.33197 75.2409 3.44274C74.6633 3.1713 74.0467 2.97994 73.414 2.87668C73.1607 2.835 72.9235 2.78068 72.7521 2.71316C72.581 2.64569 72.4883 2.56804 72.5038 2.48728C72.5192 2.40711 72.6438 2.33008 72.8529 2.28442C73.0628 2.23879 73.3407 2.23188 73.6175 2.27421C74.3526 2.38567 75.0664 2.60527 75.7344 2.92288C76.4029 3.2407 77.0221 3.65446 77.5716 4.1491C78.1211 4.64357 78.5988 5.21713 78.9855 5.84916C79.3706 6.47835 79.664 7.16451 79.852 7.88102C80.0167 8.50943 80.0991 9.14849 80.1015 9.79761C80.1018 9.90342 80.1021 10.0094 80.1024 10.1156C80.104 10.6137 80.1055 11.1178 80.1073 11.6127C80.1079 11.7971 80.1088 11.9771 80.1095 12.1572C80.11 12.3044 80.1105 12.4523 80.111 12.6046C80.1171 14.2065 80.124 15.8238 80.1314 17.4266C80.1388 19.0369 80.1467 20.6456 80.1549 22.2543C80.1632 23.8639 80.172 25.472 80.1809 27.0809C80.1898 28.689 80.199 30.2961 80.2086 31.9063C80.2183 33.5106 80.2282 35.1214 80.2389 36.7283C80.2471 37.9713 80.256 39.2037 80.2654 40.4381C80.2815 40.9241 80.2968 41.4051 80.3115 41.8798C80.3542 43.2615 80.4103 44.6451 80.4659 46.0081C80.4383 43.5821 80.3951 41.6333 80.3539 39.778C80.3484 39.5293 80.3428 39.2822 80.3374 39.0358C80.2822 36.5211 80.2355 34.0918 80.2459 30.8243C80.2754 21.5311 80.2969 16.1426 80.3371 12.7849C80.3517 11.5656 80.3689 10.5989 80.3905 9.79761C80.4152 8.48745 80.2211 7.65474 80.0067 6.87005C79.6769 5.02483 76.982 2.32464 75.1612 1.9124C74.543 1.70082 74.0419 1.47722 74.0736 1.30581C74.103 1.13717 74.7 1.09259 75.3727 1.32316C77.4444 1.77451 80.5842 5.00054 80.8122 7.40487C80.9219 8.00641 81.0428 8.66475 81.0199 9.79761C80.9971 10.565 80.9782 11.5521 80.9621 12.8913C80.9226 16.1976 80.9014 21.5364 80.8718 30.8474C80.8618 33.9973 80.9063 36.3352 80.9609 38.8231C80.9663 39.0671 80.9719 39.3128 80.9774 39.5607C80.9774 39.5622 80.9774 39.5638 80.9774 39.5653C81.0282 41.8507 81.0835 44.3391 81.108 47.6948C81.1645 55.4292 81.2739 65.8332 81.3357 68.3029C81.3478 68.7876 81.3614 69.2561 81.3757 69.7503C81.3971 70.4953 81.4204 71.3008 81.4433 72.3171C81.4561 73.9211 81.1685 76.3741 78.8081 78.7915C77.9584 79.6361 76.7651 80.4564 75.2971 80.933C74.3904 81.2647 73.4366 81.4428 72.5022 81.4733C71.2932 81.5167 70.1355 81.5545 69.0709 81.5816C67.4934 81.6216 66.0388 81.6953 64.6293 81.776C64.2235 81.7992 63.8151 81.8235 63.4073 81.8477C62.4239 81.906 61.44 81.9643 60.4813 82.0094C59.717 82.0454 58.9167 82.0886 58.0709 82.1343C54.9897 82.3006 51.2974 82.5 46.4859 82.5026C41.3854 82.5054 37.0186 82.4694 33.2524 82.4342C36.0182 82.4749 38.1535 82.5236 39.9321 82.567C40.2677 82.5752 40.5891 82.5831 40.8986 82.5908C43.0847 82.645 44.674 82.6843 46.3772 82.6827C54.5129 82.6748 57.5643 82.6217 61.0073 82.4684C61.9138 82.4281 62.9138 82.3743 63.9911 82.3164C66.1443 82.2008 68.6073 82.0686 71.2536 81.993C71.6619 81.9813 72.0784 81.9687 72.5022 81.9553C74.919 81.9089 77.5317 80.8153 79.3159 78.78C79.3167 78.7791 79.3176 78.7782 79.3185 78.7772C79.737 78.3047 80.1114 77.7858 80.4304 77.2308C81.2793 75.7622 81.7177 74.0307 81.6592 72.3171C81.5891 70.2489 81.5258 68.1612 81.4782 66.1052C81.4692 65.7163 81.4568 65.2505 81.4425 64.7156C81.3599 61.6286 81.215 56.209 81.3079 49.5908C81.3283 48.1371 81.3716 46.6266 81.4211 44.9029C81.4362 44.3779 81.4521 43.8327 81.4678 43.2636C81.5358 40.8065 81.6081 37.8212 81.6516 33.8462C81.6874 30.5657 81.7046 26.5677 81.7227 22.4162C81.7315 20.3712 81.7408 18.289 81.7523 16.237C81.7646 14.0327 81.7795 11.8938 81.7961 9.79761C81.8755 5.59729 78.8692 1.76361 74.9387 0.721913C74.9375 0.721581 74.9362 0.721249 74.935 0.720918C74.2228 0.522313 73.6586 0.322274 73.7035 0.151516C73.7469 -0.0157385 74.4282 -0.0787903 75.193 0.142814C79.3538 1.2882 82.5029 5.35651 82.4222 9.79761C82.4054 11.9093 82.3903 14.0631 82.3779 16.2832C82.3666 18.3041 82.3574 20.37 82.3486 22.4069C82.3305 26.5786 82.3131 30.6323 82.2769 33.9433C82.2327 37.986 82.159 41.0259 82.0901 43.5168C82.0735 44.1167 82.0573 44.6807 82.0419 45.2162C81.9929 46.9208 81.952 48.338 81.9326 49.7168C81.8426 56.1249 81.9818 61.3396 82.0645 64.4382C82.0791 64.9877 82.0919 65.4708 82.1014 65.8821C82.1505 68.0041 82.2169 70.1662 82.2905 72.3171C82.3443 74.0005 81.9517 75.7095 81.1683 77.1998C80.8556 77.7977 80.4824 78.362 80.0594 78.8813C80.0586 78.8824 80.0577 78.8835 80.0569 78.8846C78.1683 81.2348 75.2208 82.5453 72.5022 82.5859C72.1727 82.5961 71.8477 82.6058 71.5276 82.6149C68.9792 82.6877 66.7567 82.8077 64.6778 82.9198C63.5623 82.98 62.488 83.0377 61.427 83.0849C57.7744 83.2475 54.5541 83.3004 46.3923 83.3083ZM76.1005 3.92341C77.1751 4.67887 77.8377 5.52446 78.2592 6.18076C77.9198 5.60839 77.4955 5.08367 77.0028 4.62864C76.7224 4.36963 76.4203 4.13341 76.1005 3.92341ZM74.9169 80.3965C75.1625 80.3126 75.4054 80.2167 75.6439 80.1093C74.9771 80.3839 74.2734 80.571 73.5585 80.665C73.2079 80.7112 72.8568 80.7351 72.5022 80.7373C71.9645 80.7405 71.4269 80.7437 70.8894 80.7469C71.4344 80.7477 71.973 80.7482 72.5022 80.7485C73.3479 80.7494 74.1659 80.6224 74.9169 80.3965ZM46.4743 81.8767C51.0119 81.8742 54.4028 81.6917 57.4605 81.5269C58.341 81.4795 59.1949 81.4336 60.0397 81.3939C60.39 81.3774 60.74 81.3592 61.0929 81.3399C59.0379 81.33 57.149 81.3197 55.6027 81.3112C50.9885 81.2856 48.3624 81.2323 46.0547 81.1854C45.387 81.1719 44.7453 81.1589 44.0905 81.1473C43.5488 81.1683 42.9862 81.1891 42.4177 81.2074C41.6217 81.2333 40.7613 81.258 39.9425 81.2791C39.1207 81.3003 38.2854 81.3193 37.4651 81.3353C36.638 81.3514 35.8185 81.3648 35.0027 81.3765C34.235 81.3875 33.47 81.3968 32.7298 81.4058C32.6874 81.4063 32.645 81.4068 32.6027 81.4073C31.8203 81.4169 31.0592 81.4261 30.3599 81.4387C29.648 81.4518 29.0562 81.4671 28.531 81.4903C27.8751 81.5192 27.2022 81.5469 26.5367 81.5727C25.8706 81.5985 25.2073 81.6226 24.546 81.645C23.8833 81.6676 23.2271 81.6886 22.5691 81.7085C22.3564 81.715 22.1338 81.7216 21.9229 81.7277C21.8256 81.7306 21.7285 81.7335 21.6315 81.7363C22.9186 81.7384 24.255 81.7418 25.6362 81.747C27.6315 81.7544 29.7616 81.7749 32.1113 81.7973C36.1198 81.8356 40.7673 81.8798 46.4743 81.8767ZM2.47502 77.8463C2.84101 78.3494 3.42765 79.0654 4.36083 79.7864C4.58136 79.9563 4.82172 80.1257 5.08152 80.2899C5.07552 80.2859 5.06925 80.2819 5.06326 80.2778C4.43156 79.8509 3.89519 79.3906 3.37968 78.8376C2.46331 77.8495 1.78178 76.7021 1.35555 75.4576C1.00876 74.445 0.839859 73.3793 0.850048 72.3171C0.852333 72.0897 0.854514 71.8623 0.856592 71.6348C0.867526 70.4371 0.875377 69.2358 0.880092 68.0452C0.884783 66.843 0.886602 65.6579 0.884364 64.4614C0.883657 64.0803 0.882529 63.698 0.881007 63.3158C0.865256 64.169 0.852266 65.055 0.838586 65.9909C0.827662 66.7383 0.816227 67.5179 0.802575 68.3377C0.797351 68.6514 0.789343 69.0312 0.779991 69.4741C0.763889 70.2368 0.743778 71.1881 0.727043 72.3171C0.699477 73.9384 1.12608 75.9836 2.47502 77.8463ZM0.708578 53.7712C0.70443 53.4935 0.700685 53.2175 0.697591 52.9446C0.688798 52.1678 0.68377 51.4106 0.679891 50.6683C0.677189 50.147 0.675252 49.6317 0.673177 49.1238C0.672301 48.9095 0.671339 48.6954 0.67043 48.4834C0.668912 48.1281 0.667097 47.7756 0.665242 47.4256C0.646391 49.8806 0.631939 52.2806 0.627399 54.7816C0.627339 54.8146 0.627455 54.8478 0.627399 54.8811C0.655027 54.5025 0.6821 54.1327 0.708578 53.7712ZM23.9953 52.8138C24.2043 51.9892 24.443 51.2271 24.7446 50.2646C24.7447 50.264 24.7449 50.2635 24.745 50.263C24.7881 50.1255 24.8326 49.9838 24.8784 49.8373C25.1621 48.9291 25.5065 47.8103 25.9426 46.2791L26.2947 44.6645L28.1047 44.6002C28.58 44.6131 29.0928 44.6248 29.6488 44.6349C32.3201 44.6831 34.441 44.8579 35.7361 45.0255C35.9777 45.0568 36.2277 45.074 36.8583 45.0896C37.2718 45.0999 37.831 45.1091 38.6379 45.1226C38.9268 45.1274 39.2475 45.1327 39.6047 45.1388L40.8424 45.0948L41.2402 46.394C41.2821 46.5623 41.3262 46.7389 41.3724 46.9244C41.8401 48.803 42.6347 51.7306 43.3671 54.4282C43.6713 55.5487 43.9649 56.6297 44.2197 57.5793L44.2157 57.5648C44.1938 57.4878 44.1499 57.3553 44.0331 57.1923C43.92 57.0293 43.722 56.8659 43.5595 56.7882C43.2219 56.6347 43.1382 56.6785 43.1382 56.6698C43.3348 56.67 43.5241 56.6705 43.705 56.6712C45.4924 56.6782 47.2171 56.7096 49.092 56.7439C49.1024 56.744 49.1128 56.7442 49.1233 56.7444C49.0434 56.7485 48.9073 56.7447 48.658 56.8483C48.4121 56.9389 48.0684 57.2542 47.9552 57.542C47.7435 58.1221 47.8775 58.1997 47.8647 58.2402L47.8812 58.3026C47.4914 56.8401 47.0713 55.2712 46.5815 53.4983C46.1457 51.921 45.8306 50.3576 45.5226 48.7653C45.4835 48.5626 45.4442 48.3591 45.405 48.1553C45.1346 46.7498 44.8584 45.3129 44.4963 43.7773C43.8509 41.04 43.1819 38.8997 42.4412 36.5299C42.1515 35.6031 41.8508 34.641 41.5362 33.5943C41.0387 31.9389 40.36 29.5488 39.6802 27.1484C39.6223 26.9439 39.5642 26.7392 39.5064 26.535C39.5061 26.534 39.5058 26.533 39.5055 26.5319C38.8834 24.3346 38.2729 22.178 37.8078 20.6007C37.4748 19.4712 37.2271 18.6616 37.0311 18.0419L37.0212 18.0045C37.016 17.9496 36.9643 18.0075 37.1806 18.2206C37.4353 18.4165 37.5534 18.3678 37.5139 18.3806C37.0655 18.3971 36.7253 18.4146 36.4093 18.4308C36.1011 18.4467 35.8157 18.4614 35.4755 18.4729C34.2503 18.5143 32.4007 18.5066 30.5259 18.4989C30.5187 18.4989 30.5116 18.4989 30.5044 18.4989C30.1933 18.4976 29.9421 18.3564 29.9436 18.1836C29.9451 18.0108 30.1986 17.8717 30.5098 17.8729C31.5029 17.877 32.4719 17.881 33.3396 17.8781C33.3846 17.7296 33.6182 17.6173 33.8983 17.6184C34.3977 17.6204 35.6309 17.5643 37.5139 17.4657C37.7192 17.4326 37.8724 17.5629 37.9231 17.7857C38.118 18.3516 38.3313 18.9692 38.5623 19.6374C38.525 19.4087 38.4973 19.2161 38.475 19.0468C38.4487 18.848 38.4312 18.695 38.4161 18.5635C38.3846 18.2893 38.3634 18.1069 38.296 17.7918C38.2875 17.7579 38.2788 17.7232 38.2697 17.6876L38.2732 17.7008C38.2439 17.5895 38.2277 17.4517 38.0744 17.2718C37.901 17.0787 37.6464 17.0589 37.5139 17.0581C36.8314 17.0473 35.9872 17.0437 35.1122 17.0401C34.8012 17.0388 34.55 16.8979 34.5514 16.7251C34.5529 16.5524 34.8065 16.4132 35.1175 16.4145C35.1236 16.4145 35.1297 16.4145 35.1358 16.4145C35.9805 16.4179 36.8194 16.4215 37.5139 16.4321C37.6157 16.4342 37.7417 16.4359 37.9282 16.4839C38.1101 16.5273 38.3673 16.6615 38.5247 16.8365C38.8342 17.1966 38.8363 17.4044 38.8821 17.5531L38.8721 17.5153C38.8885 17.5791 38.904 17.6406 38.9188 17.6996C38.9667 17.8918 39.0059 18.0579 39.0342 18.183C39.0567 18.2829 39.0843 18.4079 39.0941 18.479C39.0954 18.4884 39.0977 18.5064 39.0996 18.5282C39.0996 18.5286 39.0996 18.5289 39.0996 18.5293C39.1006 18.5415 39.1063 18.6035 39.0998 18.6732C39.0985 18.6873 39.0953 18.718 39.0867 18.7551C39.0877 18.7638 39.0887 18.7724 39.0897 18.7811C39.1036 18.9016 39.1178 19.0246 39.1353 19.1571C39.2037 19.6744 39.3359 20.487 39.7059 22.1521C40.0463 23.6835 40.7338 26.2403 41.6414 29.4163C41.5925 29.1982 41.5431 28.9797 41.4932 28.7616C41.3676 28.2125 41.2388 27.6617 41.1087 27.111C41.0589 26.9001 41.0096 26.692 40.9591 26.4801C40.8778 26.139 40.796 25.7969 40.7138 25.4551C40.6583 25.2241 40.6025 24.9927 40.5469 24.7616C40.5467 24.7611 40.5466 24.7606 40.5464 24.76C40.4692 24.4392 40.3918 24.1176 40.3141 23.7933C40.2872 23.6797 40.2605 23.5676 40.2338 23.4562C40.1279 23.013 40.0237 22.5777 39.9183 22.0723C39.9071 22.0104 39.8962 21.9428 39.8887 21.8921C39.8805 21.8377 39.873 21.7852 39.8664 21.7355C39.8606 21.6916 39.8555 21.6497 39.8504 21.6095C39.8497 21.6041 39.849 21.5987 39.8483 21.5933C39.8426 21.5484 39.8369 21.5054 39.8314 21.4642C39.8259 21.4231 39.8205 21.3834 39.8146 21.3445C39.8145 21.3442 39.8144 21.3438 39.8143 21.3435C39.8081 21.3029 39.8033 21.2721 39.7956 21.2294C39.7861 21.1758 39.7774 21.1298 39.7659 21.0744C39.7548 21.0207 39.7427 20.965 39.73 20.9088C39.7173 20.8526 39.7038 20.7956 39.6899 20.7377C39.676 20.6798 39.6617 20.6211 39.647 20.5619C39.6322 20.5028 39.617 20.443 39.6018 20.3828C39.5865 20.3226 39.571 20.2618 39.5554 20.2007C39.5195 20.0601 39.5145 19.9167 39.543 19.8024C39.5716 19.688 39.6308 19.6119 39.7084 19.5904C39.7861 19.5689 39.8766 19.6036 39.9607 19.6868C40.0449 19.77 40.1156 19.8951 40.1584 20.0338C40.17 20.0716 40.1818 20.1096 40.1935 20.1477C40.2004 20.1704 40.2073 20.1933 40.2143 20.216C40.233 20.2772 40.252 20.339 40.2708 20.4014C40.2895 20.4636 40.3081 20.5265 40.3267 20.5902C40.3454 20.6541 40.364 20.7189 40.3824 20.7847C40.4006 20.8505 40.4188 20.9178 40.4365 20.9864C40.4539 21.0533 40.4726 21.1299 40.4884 21.1987C40.5 21.249 40.5131 21.3113 40.5237 21.3633C40.5348 21.4176 40.5452 21.4712 40.5548 21.523C40.5644 21.5749 40.5733 21.6252 40.5819 21.6732C40.5828 21.6784 40.5838 21.6835 40.5847 21.6886C40.5922 21.7311 40.5995 21.772 40.6066 21.8107C40.6145 21.8539 40.6224 21.8948 40.6303 21.9334C40.6388 21.9761 40.6448 22.0018 40.6521 22.0332C40.7599 22.4465 40.907 22.9535 41.0472 23.4368C41.0649 23.4976 41.0823 23.558 41.0996 23.6178C41.1919 23.9352 41.2844 24.2519 41.3769 24.5683C41.4441 24.7983 41.5114 25.0285 41.5786 25.2591C41.6775 25.5984 41.7764 25.9389 41.8748 26.2791C41.9358 26.4904 41.9956 26.6978 42.0561 26.9087C42.2142 27.4594 42.3715 28.0122 42.5262 28.5666C42.6806 29.1202 42.8334 29.678 42.9819 30.2375C43.1297 30.7948 43.2785 31.3753 43.4134 31.9382C43.5122 32.3522 43.6006 32.7803 43.6789 33.1774C43.721 33.3907 43.7615 33.5999 43.8013 33.806C43.8014 33.8068 43.8015 33.8075 43.8016 33.8082C43.8364 33.9891 43.8708 34.1678 43.9056 34.345C43.98 34.7249 44.056 35.0973 44.1364 35.4684C44.2167 35.839 44.3009 36.2067 44.3903 36.5758C44.4791 36.9422 44.5738 37.3134 44.6715 37.6799C44.7697 38.0482 44.8699 38.4087 44.9782 38.7866C45.1209 39.2835 45.2675 39.7756 45.4188 40.2805C45.5692 40.7816 45.7223 41.2864 45.876 41.7924C45.9297 41.9693 45.9833 42.1466 46.0372 42.324C46.0374 42.3247 46.0376 42.3254 46.0378 42.3261C46.1376 42.6543 46.2376 42.9833 46.3374 43.3127C46.4916 43.8211 46.6458 44.3311 46.7991 44.8434C46.9523 45.3557 47.1051 45.8715 47.2556 46.3908C47.406 46.9102 47.5577 47.4444 47.7013 47.9836C47.8298 48.4645 47.9565 48.95 48.0802 49.4247C48.1129 49.5501 48.1456 49.6755 48.1782 49.8008C48.3335 50.3956 48.4862 50.9707 48.6459 51.537C48.8053 52.1029 48.9731 52.6659 49.1492 53.2322C49.3247 53.7968 49.5088 54.3667 49.6983 54.9401C49.8885 55.5159 50.0803 56.0832 50.2779 56.6615C50.3769 56.9508 50.4766 57.2406 50.5771 57.5316L50.5897 57.5791C50.6294 57.8021 50.7677 58.0676 50.5362 58.7001C50.4151 59.0139 50.0749 59.3408 49.7883 59.4554C49.4995 59.5812 49.2884 59.593 49.1241 59.5989C49.048 59.6031 48.9727 59.6074 48.8972 59.6117C48.5548 59.6311 48.1905 59.649 47.8464 59.6642C47.4989 59.6795 47.1536 59.6931 46.8128 59.7057C46.6745 59.7108 46.5368 59.7157 46.4001 59.7206C46.2008 59.7278 46.0032 59.7349 45.8087 59.7423C45.4805 59.7548 45.1602 59.7681 44.8491 59.7838C44.5382 59.7995 44.2364 59.8177 43.9449 59.84C43.6571 59.862 43.4176 59.8844 43.1379 59.9156C43.1109 59.9171 43.0837 59.9183 43.0541 59.9191C42.8037 59.9164 42.3942 59.9178 41.879 59.5986C41.3556 59.2688 41.1124 58.731 41.0328 58.4474L41.0289 58.4334C40.9054 58.0734 40.8126 57.7798 40.7131 57.4653C40.6834 57.3716 40.653 57.2758 40.6211 57.176C40.4422 56.6047 40.2696 56.0323 40.1034 55.4663C39.9358 54.8947 39.775 54.331 39.6161 53.759C39.4587 53.1924 39.3043 52.6208 39.154 52.0504C39.0039 51.481 38.8577 50.9116 38.7147 50.3397C38.5718 49.7682 38.4297 49.184 38.2966 48.6222C38.2197 48.2975 38.1405 47.9519 38.0682 47.6305C38.0405 47.5078 38.0132 47.3858 37.9863 47.265L39.6047 48.5072C39.4949 48.5026 39.386 48.498 39.2781 48.4933C39.1844 48.4893 39.0913 48.4853 38.999 48.4814C38.681 48.468 38.3719 48.4555 38.0733 48.446C37.7746 48.4365 37.4856 48.4298 37.2028 48.4274C36.9195 48.425 36.6424 48.4268 36.3651 48.4329C36.0777 48.4395 35.839 48.4483 35.5338 48.4643C35.3351 48.475 35.1403 48.4857 34.9462 48.4964C34.6555 48.5124 34.3669 48.5288 34.0762 48.5458C33.7859 48.5628 33.4993 48.5802 33.2111 48.5983C33.1185 48.6041 33.0207 48.6103 32.9278 48.6163C32.6407 48.6349 32.3569 48.6541 32.0734 48.6743C31.7904 48.6945 31.5101 48.7157 31.2309 48.7381C30.9505 48.7606 30.6748 48.7841 30.3937 48.8095C29.9158 48.8528 29.4584 48.8729 29.0579 48.8864C28.7253 48.8973 28.4106 48.9043 28.1047 48.9103L30.1185 47.3465C30.1032 47.4117 30.088 47.4764 30.0728 47.5408C30.057 47.6081 30.0412 47.6753 30.0254 47.7425C29.9571 48.032 29.8897 48.3167 29.8245 48.5974C29.7441 48.9433 29.6667 49.2834 29.5908 49.625C29.5155 49.9636 29.4412 50.306 29.3704 50.6438C29.299 50.9848 29.2325 51.3113 29.1632 51.6638C29.0946 52.0123 29.0305 52.3678 28.96 52.7573C28.8901 53.1433 28.8163 53.5482 28.7376 53.9573C28.6592 54.366 28.5758 54.7802 28.4886 55.1904C28.4013 55.6014 28.3096 56.0127 28.2156 56.4173C28.1211 56.8241 28.0236 57.2276 27.9237 57.6283C27.8437 57.9494 27.7597 58.2785 27.6772 58.5952L27.6846 58.5655C27.6264 58.7626 27.5871 59.0594 27.2322 59.6052C26.8625 60.2266 25.9143 60.7113 25.5175 60.7608C25.0818 60.8521 24.8837 60.8381 24.7164 60.8417C24.2386 60.8374 23.7621 60.8322 23.285 60.8266C22.6453 60.819 22.0036 60.8105 21.3632 60.8016C20.724 60.7926 20.0841 60.7833 19.4452 60.7735C19.4355 60.7734 19.4259 60.7732 19.4162 60.7731C19.244 60.7661 19.045 60.7835 18.5737 60.6639C18.3399 60.5983 18.0036 60.4809 17.6339 60.1959C17.2635 59.9179 16.9528 59.4687 16.8178 59.1184C16.5541 58.4045 16.6228 58.1029 16.6199 57.8768C16.6331 57.6558 16.6555 57.5243 16.675 57.4057L16.7317 57.1464C16.8312 56.8081 16.9307 56.4699 17.0302 56.1321C17.0701 55.9967 17.1099 55.8612 17.1498 55.7258C17.2902 55.249 17.4306 54.7723 17.5702 54.2975C17.5712 54.2943 17.5722 54.291 17.5732 54.2878C17.7528 53.6766 17.9291 53.0765 18.1057 52.4701C18.1704 52.2474 18.2326 52.0335 18.2953 51.8159C18.358 51.5981 18.4192 51.3843 18.4805 51.1684C18.5419 50.9522 18.6023 50.7371 18.6611 50.5251C18.7205 50.3108 18.7777 50.1017 18.8342 49.8903C18.8861 49.6966 18.9362 49.5039 18.9912 49.2934C18.9962 49.2742 19.0012 49.255 19.0062 49.2357C19.0663 49.0054 19.1364 48.7439 19.2052 48.5018C19.3881 47.8608 19.5639 47.2354 19.7404 46.598C19.917 45.9602 20.0908 45.3232 20.265 44.6806C20.333 44.4297 20.4011 44.1775 20.4693 43.9253C20.5755 43.533 20.6821 43.1392 20.7895 42.7443C20.9662 42.0947 21.145 41.4441 21.3284 40.7903C21.511 40.139 21.6984 39.4844 21.8889 38.8339C22.0791 38.1839 22.2749 37.5293 22.4718 36.8843C22.6913 36.1657 22.9116 35.4518 23.1336 34.7349C23.3554 34.0192 23.5783 33.3034 23.8009 32.5909C24.0242 31.8759 24.2477 31.1628 24.4718 30.4497C24.6961 29.7361 24.9208 29.0232 25.1462 28.3099C25.2811 27.883 25.4162 27.4563 25.5515 27.0294C25.6006 26.7974 25.6474 26.5748 25.6926 26.3607C26.0265 24.779 26.268 23.6354 26.631 22.1389C26.663 21.9948 26.6847 21.8764 26.7111 21.7323C26.7161 21.7048 26.7216 21.6757 26.7271 21.646C26.7619 21.4577 26.8034 21.242 26.8741 20.9455C26.9218 20.7453 26.9824 20.5103 27.0596 20.2435L27.0553 20.2594C27.1762 19.8463 27.2724 19.4719 27.4214 18.7234C27.4771 18.4489 27.6521 18.273 27.8176 18.3444C27.9334 18.3948 28.013 18.5528 28.0297 18.7396C28.0719 18.407 28.1088 18.0664 28.143 17.7202L28.1418 17.78C28.1423 17.7601 28.1429 17.74 28.1439 17.7196C28.1554 17.5206 28.1873 17.2631 28.3523 16.94C28.5061 16.6172 28.884 16.2748 29.2013 16.1716C29.838 15.9808 29.9603 16.1696 29.9402 16.2271C29.9143 16.328 29.6608 16.3041 29.1874 16.6838C28.7584 17.0828 28.7674 17.554 28.7674 17.78L28.768 17.7449C28.7679 17.759 28.7675 17.773 28.7669 17.7869C28.7479 18.1646 28.7258 18.5402 28.6963 18.9085C28.6666 19.2757 28.6302 19.6323 28.5727 19.9651C28.5345 20.1868 28.4859 20.397 28.4235 20.6283C28.3908 20.7461 28.3566 20.8702 28.3224 20.9945C28.2207 21.3639 28.1193 21.7342 28.0182 22.1053C27.9165 22.4787 27.8174 22.8453 27.7167 23.2179C27.6564 23.4412 27.5954 23.6671 27.5357 23.8889C27.5135 23.9716 27.4919 24.0524 27.4703 24.1331C27.4525 24.1991 27.4346 24.2654 27.4162 24.3336C27.2235 25.0519 27.0295 25.7772 26.8379 26.4961C26.6453 27.2185 26.4534 27.9402 26.2618 28.6621C26.0701 29.3843 25.8791 30.106 25.6882 30.8281C25.4973 31.5498 25.3069 32.2712 25.1165 32.9941C24.9268 33.7143 24.7365 34.4376 24.5475 35.1592C24.4013 35.7175 24.257 36.2712 24.113 36.8259C24.0683 37.0476 24.0233 37.2668 23.9786 37.4831C23.8484 38.1126 23.7309 38.7465 23.6154 39.3711C23.8897 38.2785 24.0898 37.3952 24.2802 36.5542C24.3057 36.4415 24.331 36.3295 24.3563 36.2178C24.615 35.0781 24.8713 33.9789 25.2865 32.52C26.4676 28.3707 27.1566 25.966 27.6118 24.4747C28.0669 22.9837 28.3032 22.3544 28.5843 21.7838C28.7148 21.519 28.8614 21.1666 29.0078 20.7836C29.3105 20.0337 29.4114 19.0858 29.4477 18.5144C29.4664 18.2061 29.6174 17.9625 29.7901 17.97C29.9625 17.9797 30.0914 18.2405 30.0723 18.5551C30.0348 19.1168 29.9468 20.0912 29.6193 20.9507C29.4322 21.4516 29.2373 21.9274 29.0586 22.2902C28.848 22.7176 28.6491 23.221 28.2009 24.6893C27.7527 26.1577 27.0701 28.5403 25.8869 32.6976C25.4865 34.104 25.2395 35.1617 24.9835 36.2892C24.9584 36.3998 24.9334 36.5112 24.9079 36.6236C24.9077 36.6243 24.9076 36.625 24.9074 36.6256C24.6729 37.6615 24.4176 38.7895 24.025 40.2972C23.1201 43.7721 21.9353 48.4555 21.6884 49.5768C21.64 49.7968 21.595 50.01 21.5475 50.2349C21.3649 51.0981 21.1445 52.1402 20.5466 54.4606C20.4158 54.9681 20.2572 55.561 20.0807 56.2071C19.9654 56.8171 19.8508 57.4159 19.7373 57.9797L19.7539 57.9037C19.7321 57.9977 19.7972 58.1753 19.7307 57.9077C19.6796 57.7426 19.4364 57.6011 19.4023 57.603C19.3517 57.5877 19.3803 57.5917 19.4162 57.5865C19.4833 57.5825 19.5497 57.5788 19.6153 57.5752C20.3476 57.5351 21.0229 57.4615 21.6772 57.3808C21.8655 57.3575 22.0551 57.3332 22.2444 57.3091C22.7009 57.2507 23.1577 57.1924 23.6027 57.1473C23.9558 57.1115 24.3255 57.0686 24.716 57.0231C24.7168 57.0229 24.7177 57.0227 24.7186 57.0225C24.7669 57.0265 24.8017 56.9251 24.3968 57.0983C24.1973 57.1942 24.0097 57.4209 23.9581 57.5227C23.8971 57.6314 23.8926 57.6528 23.8859 57.6439L23.8901 57.6272C24.0682 56.3537 24.3054 54.8631 24.7652 53.0555C25.3488 50.7608 25.8857 48.8058 26.3527 47.1206C25.9954 48.3545 25.7027 49.3027 25.4562 50.092C25.4097 50.2408 25.365 50.3834 25.322 50.5207C25.0183 51.4905 24.7974 52.1955 24.6032 52.962C24.0634 55.0924 23.7363 56.4523 23.5085 57.5296L23.5031 57.5511C23.51 57.5437 23.5145 57.4941 23.6019 57.3261C23.6765 57.1658 23.9475 56.8473 24.218 56.7187C24.7606 56.4834 24.7423 56.5972 24.7158 56.5818C24.2405 56.6102 23.8066 56.6453 23.3585 56.6883C22.9377 56.7287 22.4735 56.7824 21.9734 56.8403C21.1983 56.93 20.3368 57.0296 19.4162 57.1051C19.3997 57.1127 19.3965 57.1068 19.5194 57.1399C19.5807 57.159 19.6884 57.193 19.826 57.2916C19.9643 57.3873 20.1008 57.5618 20.1575 57.6972C20.2693 57.978 20.2257 58.0389 20.2284 58.0544C20.223 58.0672 20.221 58.0327 20.2236 57.9903C20.2238 57.9869 20.2241 57.9834 20.2243 57.9797L20.1965 58.107C20.4332 56.9896 20.6738 55.7342 20.9289 54.4045C20.929 54.404 20.9292 54.4035 20.9293 54.4029C20.9794 54.1419 21.03 53.8778 21.0813 53.6114C21.3938 51.9873 21.7284 50.2808 22.0984 48.6317C22.1379 48.4554 22.1837 48.2436 22.2363 48.0006C22.5396 46.5976 23.072 44.1345 23.9825 41.1987C24.1824 40.5539 24.4115 39.8898 24.673 39.1319C24.7526 38.9011 24.8355 38.6614 24.9213 38.4111C25.2916 37.3301 25.7314 36.0139 26.2663 34.2474C26.7078 32.7895 27.2202 31.0056 27.7525 29.1533C28.0146 28.2409 28.2818 27.3119 28.5474 26.397C29.085 24.545 29.6026 22.7993 30.1133 21.0901C30.3982 20.15 30.4698 19.1939 30.5352 18.3214C30.5352 18.3208 30.5353 18.3202 30.5353 18.3197C30.5512 18.0924 30.6342 17.9081 30.7434 17.8232L30.7442 17.78C30.7866 17.7859 30.833 17.8016 30.8824 17.8023C30.924 17.8034 30.964 17.7931 30.9998 17.78L30.9987 17.8333C31.1075 17.9327 31.1754 18.1465 31.1581 18.3919C31.0927 19.2583 31.0167 20.2624 30.7196 21.2474L30.7168 21.2575C30.2035 22.9752 29.684 24.7265 29.1445 26.5849C28.883 27.4859 28.6179 28.4076 28.3568 29.3164C27.8219 31.1777 27.3024 32.9864 26.8569 34.4579C26.3129 36.2545 25.8649 37.5947 25.4895 38.6906C25.3991 38.9545 25.3135 39.2025 25.2323 39.4379C24.9737 40.1874 24.7585 40.8104 24.5688 41.422C23.6873 44.2645 23.1747 46.6344 22.8701 48.0426C22.816 48.2924 22.7684 48.5119 22.7266 48.6984C22.3639 50.3151 22.0343 51.9955 21.722 53.6181C21.6714 53.8813 21.621 54.1433 21.5712 54.4032C21.5711 54.4038 21.5711 54.4043 21.571 54.4049C21.3149 55.7405 21.0687 57.0241 20.8265 58.1664C20.8187 58.2028 20.8111 58.2391 20.8035 58.2753L20.8462 58.0803C20.8451 58.1132 20.8499 58.1336 20.8577 58.0848C20.8532 58.0308 20.9158 57.9151 20.7446 57.464C20.657 57.2444 20.4435 56.9564 20.2132 56.7923C19.9833 56.6232 19.7963 56.5631 19.6826 56.5294C19.4546 56.4704 19.4258 56.4817 19.4162 56.4724C20.219 56.4038 20.9544 56.3183 21.6546 56.2369C22.1725 56.1768 22.6712 56.1191 23.1637 56.0718C23.6765 56.0227 24.171 55.9835 24.716 55.9526C24.7192 55.9499 24.7019 55.9436 24.6023 55.9517C24.5047 55.9653 24.2935 55.9736 23.9139 56.1689C23.5285 56.3564 23.1522 56.8042 23.044 57.0383C22.9182 57.2833 22.9069 57.371 22.8934 57.4031L22.9006 57.3742C23.1362 56.2697 23.4673 54.8977 23.9953 52.8138ZM27.9577 19.2506C27.8463 19.7686 27.7584 20.079 27.6595 20.4223L27.6627 20.4107C27.6297 20.5242 27.6002 20.6306 27.574 20.7296C27.6084 20.6246 27.6429 20.5197 27.6774 20.4148L27.6742 20.4263C27.7504 20.1949 27.8059 20.0093 27.8547 19.7953C27.8934 19.6263 27.9273 19.4424 27.9577 19.2506ZM19.4536 56.1284C19.4762 56.0089 19.4989 55.8884 19.5217 55.7675C19.436 56.0949 19.35 56.4223 19.2641 56.7492C19.1743 57.0908 19.0844 57.4323 18.9944 57.7737C18.9837 57.8429 18.9757 57.9061 18.972 57.9703C18.9767 57.906 18.9856 57.843 18.9957 57.781C19.1574 57.2027 19.3114 56.6484 19.4536 56.1284ZM25.3729 53.2053C24.9077 55.0343 24.6883 56.485 24.5097 57.7855C24.5084 57.8351 24.5016 57.8503 24.5475 57.7884C24.5881 57.7224 24.746 57.6259 24.7878 57.6314C24.8474 57.6288 24.7837 57.6545 24.716 57.6632C24.4084 57.6987 24.1068 57.7326 23.8077 57.7629C23.6451 57.7793 23.4826 57.7976 23.3188 57.8169C23.8086 57.8219 24.278 57.8271 24.716 57.8321C24.8171 57.84 24.9035 57.8038 24.8119 57.8468C24.7086 57.9273 24.7448 57.9477 24.7627 57.8566C24.8012 57.7124 24.837 57.579 24.8714 57.4508C25.4267 55.3819 25.7802 54.214 26.0909 53.1877C26.1808 52.8908 26.2671 52.6054 26.3536 52.3138C26.3956 52.0649 26.4401 51.8067 26.4877 51.5465C26.5542 51.1822 26.6291 50.789 26.7028 50.4156C26.7767 50.0407 26.8543 49.6603 26.9332 49.2874C27.0126 48.9114 27.0938 48.5395 27.1763 48.1697C27.2539 47.8218 27.3329 47.4754 27.4092 47.1403C27.4136 47.1211 27.418 47.1019 27.4224 47.0827C27.4533 46.947 27.4839 46.8126 27.5137 46.6807L27.61 46.2394L28.1047 46.2218C28.3224 46.2157 28.5335 46.2092 28.7338 46.2014C29.0642 46.1884 29.339 46.173 29.5828 46.1498C29.8872 46.1209 30.1996 46.0932 30.5085 46.0674C30.8177 46.0416 31.1256 46.0176 31.4326 45.9951C31.7403 45.9726 32.0449 45.9515 32.3503 45.9316C32.4491 45.9252 32.5524 45.9186 32.6503 45.9124C32.6955 45.9095 32.7406 45.9066 32.7856 45.9038C32.1881 45.9017 31.5677 45.8983 30.9266 45.8932C30.0527 45.8861 29.1231 45.8675 28.1047 45.8466L27.3057 45.875L27.1502 46.5878C27.1339 46.6466 27.1175 46.7057 27.101 46.7651C26.6031 48.5585 26.026 50.6377 25.3729 53.2053ZM41.1336 48.7388C41.0649 48.4883 40.9618 48.1222 40.8289 47.6499C40.7974 47.5382 40.7641 47.4205 40.7294 47.2971C40.73 47.3 40.7308 47.303 40.7314 47.3059C40.7982 47.617 40.8606 47.9041 40.9301 48.2133C41.054 48.7645 41.1769 49.2994 41.3039 49.8388C41.4315 50.3803 41.5616 50.9196 41.6946 51.4587C41.8278 51.9986 41.9644 52.5393 42.1028 53.0744C42.2425 53.6147 42.383 54.1467 42.5288 54.6826C42.5753 54.8533 42.6222 55.0245 42.6696 55.1955C42.5824 54.8088 42.4886 54.4081 42.3894 53.9849C42.3103 53.6469 42.2278 53.2944 42.1425 52.9232C42.1099 52.7812 42.0721 52.6088 42.0279 52.4078C41.853 51.611 41.5787 50.3606 41.1336 48.7388ZM44.1687 57.378C44.2976 57.3739 44.4257 57.3701 44.5524 57.367C44.913 57.3582 45.2645 57.3532 45.6091 57.3493C45.8511 57.3466 46.0903 57.3447 46.326 57.3426C46.4255 57.3418 46.5249 57.3408 46.6233 57.3399C46.7882 57.3384 46.9519 57.3365 47.1144 57.3347C45.9747 57.3158 44.8606 57.3014 43.6996 57.2968C43.6843 57.2968 43.6689 57.2969 43.6535 57.2968C43.8292 57.3245 44.0009 57.3516 44.1687 57.378ZM57.3185 55.5408C57.3203 55.9812 57.2778 56.394 57.2239 56.9154C57.2239 56.9157 57.2239 56.916 57.2239 56.9163C57.2162 56.9908 57.2082 57.0675 57.2001 57.1469C57.1783 57.3617 57.1552 57.5981 57.1325 57.865C57.0983 57.7795 57.1967 57.4377 56.668 56.7499C56.4035 56.431 56.0104 56.2228 55.7652 56.1565C55.5117 56.0839 55.3713 56.0896 55.288 56.0922C55.6455 56.1149 56.0494 56.1354 56.5106 56.1515C57.8934 56.1997 58.9913 56.3745 59.6617 56.5421C59.7868 56.5734 59.9162 56.5906 60.2426 56.6062C60.4037 56.6139 60.6074 56.6211 60.8762 56.6299C60.8415 56.6487 60.7764 56.5791 60.3258 56.8004C60.0238 56.941 59.6943 57.4113 59.6547 57.6317C59.5925 57.8619 59.6141 57.9071 59.613 57.9021C59.6165 57.7954 59.6202 57.6822 59.6243 57.5621C59.6582 56.5601 59.6476 54.9898 59.6377 53.5428C59.6317 52.6646 59.6259 51.8316 59.6307 51.1989C59.6377 50.2737 59.669 49.3809 59.7033 48.4103C59.7347 47.5215 59.7686 46.5673 59.7878 45.4633C59.8026 44.6162 59.9296 43.7933 60.0714 42.9569C60.0894 42.8505 60.1077 42.7436 60.126 42.6366C60.2525 41.8986 60.382 41.1441 60.4562 40.3283C60.5884 38.8741 60.5338 37.7136 60.4733 36.4287C60.4496 35.9262 60.425 35.4045 60.4104 34.8388C60.3873 33.9441 60.392 32.658 60.3985 31.3665C60.3991 31.2565 60.3995 31.1463 60.4 31.0365C60.4 31.0359 60.4 31.0354 60.4 31.0348C60.4045 30.171 60.409 29.319 60.4058 28.5906C60.4151 28.5471 60.3571 28.6546 60.5695 28.8906C60.8087 29.0965 60.9089 29.0409 60.8758 29.0529C60.8668 29.053 60.8575 29.0532 60.8482 29.0533C59.4955 29.0746 58.9866 29.125 58.5621 29.1671C58.4025 29.183 58.2548 29.1978 58.0787 29.2093C57.4445 29.2506 56.487 29.2429 55.5165 29.2352C55.5128 29.2352 55.5091 29.2352 55.5054 29.2352C55.3443 29.2339 55.2143 29.0927 55.2151 28.9199C55.2159 28.7471 55.3471 28.608 55.5082 28.6093C56.0223 28.6134 56.5239 28.6173 56.973 28.6145C56.9963 28.466 57.1173 28.3536 57.2622 28.3547C57.6251 28.3576 58.7366 28.2457 60.4762 28.063C60.357 28.0359 60.2572 28.0096 60.1698 27.9846C60.0671 27.9552 59.9885 27.9299 59.9209 27.9083C59.7799 27.8631 59.6862 27.8334 59.5197 27.8115C59.1342 27.7867 58.5283 27.7815 57.8906 27.7764C57.7296 27.7751 57.5996 27.6342 57.6003 27.4615C57.6011 27.2887 57.7324 27.1496 57.8934 27.1508C57.8966 27.1508 57.8997 27.1508 57.9029 27.1508C58.5344 27.1558 59.1598 27.1609 59.5625 27.1874C59.6649 27.1942 59.7532 27.2021 59.8195 27.2094C59.8724 27.2152 59.9386 27.2231 59.9753 27.2332C59.9802 27.2345 59.9895 27.2373 60.0006 27.2414C60.0008 27.2415 60.001 27.2416 60.0011 27.2417C60.0074 27.244 60.039 27.2557 60.0728 27.2811C60.0796 27.2862 60.0945 27.2977 60.1117 27.3162C60.1162 27.3176 60.1206 27.319 60.125 27.3205C60.187 27.3402 60.2502 27.3604 60.3187 27.38C60.4526 27.4183 60.6258 27.4617 60.8762 27.5082C61.0201 27.535 61.2437 27.5273 61.5448 27.7714C61.8496 28.0482 61.8493 28.3953 61.833 28.5906C61.8212 28.6822 61.8092 28.7796 61.7972 28.8835C61.7033 29.6941 61.6612 31.0645 61.6605 32.7744C61.6734 32.6589 61.6859 32.5431 61.698 32.4275C61.7283 32.1363 61.7559 31.8438 61.7822 31.5513C61.7923 31.4392 61.8021 31.3286 61.8118 31.2159C61.8275 31.0346 61.8429 30.8527 61.8579 30.6709C61.8681 30.548 61.8781 30.4249 61.8881 30.302C61.8881 30.3017 61.8881 30.3014 61.8881 30.3011C61.9021 30.1304 61.9161 29.9593 61.9305 29.7869C61.9359 29.7265 61.9411 29.6669 61.9461 29.6077C61.9662 29.3721 61.9856 29.1405 62.0233 28.874C62.0296 28.8416 62.0377 28.8064 62.0444 28.7801C62.0515 28.7519 62.0587 28.7247 62.066 28.699C62.0725 28.6763 62.0791 28.6547 62.0853 28.634C62.0861 28.6312 62.0869 28.6284 62.0877 28.6257C62.0913 28.6137 62.0947 28.602 62.098 28.5906C62.101 28.5722 62.1038 28.5541 62.1062 28.5359C62.111 28.4974 62.1145 28.4585 62.1155 28.4171C62.1155 28.4167 62.1154 28.4163 62.1154 28.4159C62.1161 28.3722 62.1155 28.3375 62.1101 28.2838C62.1026 28.2163 62.0918 28.1528 62.0649 28.0668C62.0386 27.9837 61.9969 27.887 61.932 27.7893C61.8677 27.692 61.7786 27.5954 61.6791 27.5202C61.5798 27.4444 61.4738 27.3904 61.3786 27.3545C61.2829 27.3184 61.1972 27.2986 61.1212 27.2855C61.045 27.2726 60.9778 27.2666 60.9165 27.2635C60.903 27.2628 60.8897 27.262 60.8766 27.261C60.809 27.252 60.7456 27.2186 60.6979 27.1654C60.645 27.1066 60.6156 27.0287 60.6159 26.9481C60.6163 26.8676 60.6465 26.7901 60.6998 26.7321C60.7474 26.6804 60.81 26.648 60.8762 26.6395C60.8962 26.6385 60.9162 26.638 60.9366 26.6382C60.9886 26.6387 61.0445 26.6406 61.1075 26.6459C61.1445 26.649 61.185 26.6535 61.2268 26.6595C61.3402 26.6759 61.4763 26.7035 61.6356 26.763C61.7933 26.8219 61.9791 26.9182 62.1512 27.0609C62.3244 27.2024 62.4741 27.3887 62.5714 27.565C62.6703 27.742 62.7252 27.9088 62.7577 28.0485C62.7899 28.1865 62.8025 28.3161 62.8056 28.4152C62.8076 28.4742 62.8062 28.5365 62.8028 28.5906C62.802 28.5963 62.8011 28.6019 62.8003 28.6073C62.796 28.6359 62.7913 28.6641 62.7863 28.6912C62.7813 28.7184 62.776 28.7447 62.771 28.7698C62.7705 28.7725 62.77 28.7752 62.7695 28.7779C62.7651 28.8001 62.7608 28.8215 62.757 28.8418C62.7527 28.8644 62.7491 28.8859 62.746 28.9062C62.7425 28.9287 62.7411 28.9423 62.7396 28.959C62.7295 29.1801 62.7316 29.4533 62.7335 29.7138C62.7337 29.7466 62.7339 29.7791 62.7341 29.8113C62.7356 29.9825 62.7374 30.1532 62.7393 30.3239C62.7406 30.4479 62.742 30.5721 62.7433 30.6964C62.745 30.8794 62.7465 31.0629 62.7475 31.2462C62.7481 31.3601 62.7485 31.4718 62.7487 31.5854C62.7493 31.882 62.7485 32.1795 62.7448 32.4775C62.741 32.775 62.7345 33.0744 62.7234 33.3739C62.7123 33.6724 62.6958 33.9824 62.6706 34.2818C62.6518 34.5019 62.619 34.7276 62.5852 34.9363C62.5669 35.0485 62.5484 35.1584 62.5299 35.2667C62.5298 35.267 62.5297 35.2674 62.5296 35.2678C62.5134 35.3628 62.4973 35.4566 62.482 35.5497C62.4491 35.7494 62.4198 35.9456 62.395 36.1418C62.3703 36.3376 62.3501 36.5326 62.3346 36.729C62.3193 36.924 62.3082 37.1222 62.3013 37.3185C62.2945 37.5158 62.2917 37.7095 62.2919 37.913C62.2925 38.1807 62.2981 38.4464 62.3047 38.7192C62.3115 38.9901 62.3199 39.2631 62.3285 39.5368C62.3315 39.6325 62.3343 39.7284 62.3374 39.8244C62.3374 39.8247 62.3374 39.8251 62.3374 39.8255C62.343 40.003 62.3487 40.181 62.3541 40.3591C62.3625 40.6342 62.3705 40.9099 62.377 41.1867C62.3835 41.4635 62.3886 41.7419 62.3905 42.0218C62.3922 42.3018 62.3911 42.5892 62.381 42.878C62.3722 43.1357 62.3605 43.3953 62.349 43.6492C62.3459 43.7163 62.3428 43.7833 62.3398 43.8504C62.3255 44.1685 62.3141 44.4765 62.312 44.781C62.3097 45.0853 62.3161 45.3895 62.3297 45.6964C62.3433 46.0024 62.3636 46.3122 62.388 46.6245C62.4126 46.9382 62.4409 47.2479 62.4719 47.5638C62.5028 47.8773 62.536 48.1923 62.5711 48.5111C62.5906 48.6884 62.6084 48.8769 62.6236 49.0551C62.639 49.235 62.6525 49.4137 62.6651 49.5901C62.6702 49.6617 62.6751 49.733 62.6801 49.8038C62.6873 49.907 62.6944 50.0092 62.7017 50.1099C62.7142 50.2798 62.7276 50.4456 62.7433 50.6066C62.7589 50.7676 62.7771 50.9238 62.7994 51.0747C62.8225 51.2309 62.8461 51.3597 62.8797 51.5137C62.9445 51.8887 62.9644 52.1211 62.9868 52.3793C62.9912 52.4302 62.9959 52.4821 63.0008 52.5363C63.0259 52.8459 63.0447 53.1553 63.0588 53.4606C63.073 53.7688 63.0826 54.0722 63.0881 54.3795C63.0936 54.6839 63.095 54.9904 63.0927 55.2958C63.0904 55.6006 63.0844 55.9049 63.0747 56.21C63.065 56.5149 63.0512 56.8261 63.0344 57.1248C63.0247 57.2975 63.0119 57.4809 62.9987 57.6513C62.9922 57.7358 62.9854 57.8195 62.9786 57.9021C62.9754 57.9737 62.9708 58.057 62.9582 58.1634C62.9403 58.3018 62.9156 58.4847 62.8161 58.7409C62.684 59.1952 62.0436 59.765 61.6565 59.8517C61.2605 59.9784 61.0515 59.9622 60.8768 59.9629C60.8747 59.9628 60.8731 59.9627 60.8716 59.9626C60.717 59.9531 60.5674 59.9464 60.421 59.944C60.2743 59.9416 60.1309 59.9434 59.9873 59.9495C59.8385 59.9561 59.715 59.9649 59.557 59.9809C59.4541 59.9916 59.3533 60.0023 59.2528 60.013C59.1023 60.029 58.9529 60.0454 58.8025 60.0624C58.6522 60.0794 58.5038 60.0968 58.3546 60.1149C58.3067 60.1208 58.2561 60.1269 58.208 60.1329C58.0594 60.1515 57.9124 60.1707 57.7657 60.1909C57.6192 60.2111 57.4741 60.2323 57.3295 60.2547C57.1844 60.2772 57.0417 60.3007 56.8961 60.3261C56.6488 60.3694 56.412 60.3895 56.2047 60.403C55.9949 60.4163 55.7988 60.4237 55.608 60.4308C55.5722 60.4321 55.5365 60.4334 55.5007 60.4348C55.4291 60.4373 55.3579 60.4398 55.2873 60.4424C55.0438 60.4413 54.7299 60.4361 54.275 60.2655C53.7586 60.1001 53.1082 59.4805 52.9161 58.9584C52.6998 58.4397 52.6992 58.1095 52.6875 57.865C52.6874 57.8625 52.6872 57.86 52.6871 57.8575C52.6761 57.678 52.6633 57.4967 52.6483 57.3183C52.6331 57.1381 52.6166 56.9658 52.5964 56.7801C52.5766 56.5965 52.5507 56.41 52.5226 56.2056C52.4946 56.0031 52.4659 55.7905 52.4408 55.5753C52.4156 55.3603 52.3938 55.1418 52.3767 54.9249C52.3595 54.7076 52.3464 54.4896 52.3373 54.2746C52.3281 54.0584 52.3227 53.8436 52.3202 53.6298C52.3177 53.4165 52.3181 53.1962 52.3211 52.99C52.326 52.6561 52.3328 52.3237 52.3404 51.9907C52.348 51.6596 52.3564 51.3274 52.3654 50.9959C52.3744 50.665 52.3837 50.3338 52.3935 50.003C52.4032 49.6721 52.4133 49.3413 52.4234 49.011C52.4256 48.9379 52.4279 48.8648 52.4301 48.7918C52.438 48.5345 52.4459 48.2773 52.4536 48.0211C52.4537 48.0194 52.4538 48.0176 52.4539 48.0159C52.4637 47.6862 52.4732 47.3624 52.4814 47.0355C52.4843 46.9155 52.487 46.8001 52.4893 46.6829C52.4916 46.5656 52.4934 46.4505 52.4948 46.3343C52.4961 46.218 52.4969 46.1023 52.4969 45.9884C52.4969 45.8733 52.4962 45.7611 52.4942 45.6478C52.4924 45.544 52.4892 45.441 52.4859 45.3284C52.4856 45.3181 52.4853 45.3078 52.485 45.2975C52.4814 45.1743 52.4791 45.0341 52.4808 44.9039C52.4857 44.5588 52.488 44.2225 52.4878 43.8801C52.4875 43.5376 52.4849 43.1958 52.4811 42.8511C52.4796 42.7166 52.4778 42.5813 52.4762 42.4461C52.4737 42.2357 52.4711 42.0245 52.4692 41.8127C52.4659 41.4642 52.4644 41.1149 52.4664 40.7634C52.4684 40.4132 52.474 40.0608 52.4838 39.71C52.4935 39.3594 52.5073 39.0058 52.5247 38.6568C52.5442 38.268 52.5657 37.8814 52.5882 37.4931C52.6107 37.1054 52.6342 36.7175 52.6584 36.3313C52.6826 35.9437 52.7074 35.5571 52.7328 35.1703C52.7583 34.7833 52.7843 34.3966 52.811 34.0096C52.8269 33.778 52.8431 33.5465 52.8595 33.3148C52.8448 33.1923 52.8304 33.0748 52.8168 32.9617C52.7159 32.1265 52.6432 31.5227 52.5931 30.7259C52.5855 30.6496 52.5747 30.5876 52.5616 30.512C52.5591 30.4976 52.5566 30.4823 52.554 30.4668C52.5372 30.368 52.5196 30.2547 52.5085 30.097C52.4864 29.7824 52.4912 29.3002 52.6373 28.6771C52.6447 28.6458 52.6571 28.6168 52.6737 28.5906L54.8186 30.7354C54.8058 30.7273 54.7938 30.7183 54.7825 30.7083L52.5299 30.5537L52.6647 28.5906C52.7364 28.3614 52.8818 28.1969 52.9885 28.2992C53.0548 28.3563 53.1062 28.4751 53.1498 28.5906L53.0459 30.104L54.7825 30.2233C54.7939 30.2133 54.8059 30.2044 54.8186 30.1964L53.2128 28.5906C53.227 28.6131 53.2379 28.6375 53.2452 28.6629C53.2478 28.6388 53.2504 28.6147 53.253 28.5906L54.8186 30.1562C54.8065 30.1549 54.7945 30.1536 54.7825 30.1523L53.1214 30.0382L53.2208 28.5906C53.2324 28.4166 53.2404 28.1974 53.364 27.8561C53.4701 27.5225 53.8499 27.0388 54.2488 26.8598C54.637 26.6724 54.891 26.7034 55.0317 26.749C55.1745 26.8006 55.2212 26.8837 55.2136 26.9634C55.2026 27.0446 55.1389 27.1167 55.0123 27.1852C54.8885 27.2573 54.6883 27.3101 54.43 27.4786C54.1844 27.6351 54.0121 27.9242 53.9572 28.1207C53.8957 28.3238 53.891 28.4686 53.8885 28.5906L53.8316 29.4192L54.7825 29.4845C54.7945 29.4847 54.8065 29.4849 54.8186 29.4851L53.9241 28.5906C53.9234 28.6368 53.9227 28.6831 53.9221 28.7293C53.9195 28.9283 53.918 29.1263 53.9173 29.325C53.9165 29.5235 53.9166 29.722 53.9173 29.9211C53.918 30.1195 53.9191 30.3182 53.9209 30.5173C53.9227 30.7177 53.9251 30.9143 53.9276 31.114C53.9292 31.2337 53.9307 31.3549 53.9325 31.4738C53.9331 31.5181 53.934 31.5614 53.9347 31.6047C53.9352 31.64 53.9356 31.6756 53.9362 31.7122C53.9423 32.0971 53.9492 32.4857 53.9566 32.8709C53.964 33.2579 53.9719 33.6445 53.9801 34.031C53.9884 34.4178 53.9971 34.8043 54.0061 35.1909C54.015 35.5773 54.0242 35.9635 54.0338 36.3504C54.0435 36.736 54.0534 37.123 54.064 37.5092C54.0723 37.8079 54.0812 38.104 54.0906 38.4007C54.1067 38.5174 54.122 38.633 54.1367 38.7471C54.1794 39.0791 54.2355 39.4116 54.2911 39.7391C54.2635 39.1562 54.2203 38.6879 54.1791 38.242C54.1736 38.1823 54.168 38.1229 54.1626 38.0637C54.1074 37.4594 54.0607 36.8756 54.0711 36.0904C54.1006 33.8572 54.1221 32.5624 54.1623 31.7555C54.2025 30.9488 54.2621 30.6022 54.3805 30.2787C54.5367 29.8521 54.63 29.0554 54.6447 28.5906L54.8186 28.7645C54.8063 28.7641 54.7943 28.7637 54.7825 28.7635L54.5986 28.7508L54.6096 28.5906C54.6101 28.5672 54.6109 28.5447 54.6123 28.5226C54.6161 28.3138 54.8672 28.2117 54.9811 28.3549C55.0984 28.4975 55.2488 28.4785 55.2372 28.5585C55.2366 28.5677 55.236 28.5784 55.2356 28.5906L54.7825 28.1374C54.7943 28.1377 54.8063 28.138 54.8186 28.1383L55.2378 28.1096L55.2708 28.5906C55.2565 29.0829 55.1598 29.9551 54.9729 30.4656C54.8842 30.708 54.8269 30.9866 54.7873 31.7811C54.7478 32.5756 54.7266 33.8585 54.697 36.096C54.687 36.8529 54.7315 37.4147 54.7861 38.0126C54.7915 38.0712 54.7971 38.1302 54.8026 38.1898C54.8026 38.1902 54.8026 38.1905 54.8026 38.1909C54.8534 38.7401 54.9087 39.3381 54.9332 40.1445C54.9897 42.0031 55.0991 44.5032 55.1609 45.0967C55.173 45.2131 55.1866 45.3257 55.2009 45.4445C55.2556 45.9003 55.3215 46.4506 55.3654 47.6908C55.3749 47.9621 55.3805 48.2798 55.3831 48.6265C55.4673 49.1467 55.5454 49.6519 55.5918 50.0911C55.6318 50.4702 55.7055 50.8197 55.7862 51.1584C55.8094 51.2559 55.8337 51.3541 55.8579 51.4521C55.9163 51.6884 55.9746 51.9248 56.0197 52.1552C56.0556 52.3389 56.0988 52.5312 56.1445 52.7344C56.3109 53.4748 56.5102 54.3621 56.5128 55.5183C56.5148 56.3849 56.4974 57.1634 56.4746 57.865C56.4713 57.8406 56.4725 57.781 56.4356 57.6443C56.4009 57.5135 56.2994 57.2721 56.0943 57.0732C55.8916 56.8722 55.6564 56.779 55.5254 56.7476C55.3884 56.7146 55.3229 56.719 55.2878 56.7204C55.3056 56.7211 55.3237 56.7218 55.3418 56.7225C55.3235 56.7214 55.3054 56.7202 55.2873 56.7191C55.3279 56.716 55.4097 56.7087 55.575 56.7541C55.7344 56.795 56.0032 56.9339 56.1852 57.1505C56.5492 57.6198 56.4778 57.8341 56.5049 57.865C56.5292 57.5763 56.554 57.3225 56.5772 57.0932C56.5854 57.0126 56.5934 56.9354 56.601 56.861C56.6552 56.3357 56.6946 55.9538 56.6929 55.5445C56.685 53.5894 56.6319 52.8562 56.4787 52.0288C56.4383 51.811 56.3845 51.5707 56.3267 51.3118C56.211 50.7943 56.0788 50.2025 56.0032 49.5666C55.9328 48.9743 55.8288 48.3119 55.7188 47.61C55.7188 47.6097 55.7188 47.6094 55.7188 47.6092C55.6973 47.472 55.6755 47.3332 55.6538 47.1933C55.521 46.3399 55.3875 45.4423 55.3034 44.5686C55.2944 44.4751 55.282 44.3631 55.2677 44.2346C55.1851 43.4928 55.0401 42.1905 55.1331 40.6001C55.1535 40.2508 55.1968 39.8878 55.2463 39.4736C55.2614 39.3474 55.2773 39.2164 55.293 39.0796C55.361 38.4892 55.4333 37.7718 55.4767 36.8166C55.5126 36.0283 55.5298 35.0675 55.5479 34.0699C55.5567 33.5785 55.566 33.0782 55.5775 32.585C55.6103 31.1767 55.6613 29.8795 55.7134 28.5906L55.6481 27.6388L54.8186 27.6958C54.8065 27.6953 54.7945 27.6948 54.7825 27.6943L55.6787 28.5906C55.6806 28.5744 55.6876 28.5755 55.6785 28.6255C55.6785 28.6258 55.6784 28.626 55.6783 28.6262C55.6722 28.6864 55.6233 28.8665 55.5533 28.996C55.4885 29.1264 55.4547 29.221 55.4979 29.2979C55.5387 29.3699 55.6712 29.4129 55.8854 29.292C56.104 29.1752 56.2788 28.875 56.2938 28.7414C56.3114 28.643 56.3067 28.605 56.3051 28.5906L54.7825 27.0679C54.7945 27.0684 54.8065 27.0689 54.8186 27.0694L56.2287 26.9725L56.3398 28.5906C56.2874 29.8863 56.236 31.1854 56.2031 32.5961C56.1918 33.0818 56.1826 33.5782 56.1738 34.0677C56.1557 35.0702 56.1383 36.0443 56.1021 36.8399C56.0579 37.8114 55.9842 38.5419 55.9153 39.1405C55.8987 39.2846 55.8825 39.4202 55.8671 39.5488C55.8181 39.9585 55.7772 40.299 55.7578 40.6303C55.6678 42.1702 55.807 43.4234 55.8897 44.1679C55.9043 44.3 55.9171 44.4161 55.9266 44.5149C56.009 45.3715 56.1403 46.2554 56.273 47.108C56.2945 47.2463 56.316 47.384 56.3374 47.5205C56.3375 47.5208 56.3376 47.5211 56.3377 47.5214C56.4477 48.2231 56.5534 48.8974 56.6252 49.5007C56.698 50.1131 56.8179 50.6472 56.93 51.1468C56.9902 51.4148 57.0479 51.673 57.0951 51.928C57.2578 52.8057 57.3106 53.5795 57.3185 55.5408ZM53.215 28.9544C53.1366 29.3418 53.1201 29.6574 53.1253 29.8925C53.1431 29.6929 53.1618 29.4937 53.1811 29.2944C53.1922 29.181 53.2034 29.0677 53.215 28.9544ZM54.7577 48.674C54.7476 48.6112 54.7373 48.548 54.7269 48.4845C54.7318 48.6597 54.7364 48.8349 54.7409 49.0099C54.7466 49.2247 54.7519 49.4394 54.7571 49.6541C54.7592 49.3128 54.7598 48.982 54.7577 48.674ZM55.8869 55.5211C55.8845 54.4307 55.7019 53.6159 55.5372 52.8811C55.4897 52.6695 55.4438 52.4643 55.4041 52.2613C55.3876 52.1771 55.3694 52.093 55.3501 52.0082C55.3403 52.502 55.33 52.956 55.3214 53.3275C55.2958 54.4364 55.2425 55.0674 55.1957 55.622C55.1821 55.7824 55.1692 55.9366 55.1575 56.094C55.1785 56.2241 55.1994 56.3593 55.2176 56.4959C55.2435 56.6872 55.2683 56.894 55.2894 57.0907C55.3106 57.2882 55.3295 57.4889 55.3455 57.6861C55.3504 57.7459 55.355 57.8055 55.3594 57.865C55.3643 57.9523 55.4154 57.9317 55.3262 57.8246C55.2405 57.7472 55.2288 57.7701 55.2875 57.7601C55.3479 57.757 55.408 57.754 55.4674 57.751C55.4776 57.7505 55.4878 57.7499 55.4979 57.7494C55.6859 57.7398 55.8688 57.7307 56.0369 57.718C56.208 57.705 56.3502 57.6896 56.4764 57.6664C56.634 57.6375 56.7957 57.6098 56.9556 57.584C57.1157 57.5582 57.2751 57.5342 57.434 57.5117C57.5932 57.4892 57.7509 57.4681 57.909 57.4482C57.9602 57.4418 58.0136 57.4352 58.0643 57.429C58.0877 57.4262 58.111 57.4232 58.1343 57.4204C57.825 57.4183 57.5039 57.4149 57.172 57.4098C56.6925 57.4023 56.1807 57.3819 55.616 57.3594C55.5084 57.3551 55.3989 57.3508 55.2873 57.3464C55.2679 57.35 55.4035 57.2983 55.6521 57.5161C55.88 57.76 55.8364 57.903 55.8488 57.865C55.8716 57.1701 55.8889 56.3976 55.8869 55.5211ZM60.3241 56.6867C60.3257 56.8212 60.3306 57.0181 60.3369 57.2721C60.3384 57.3321 60.3401 57.3955 60.3418 57.4618C60.3419 57.4603 60.3419 57.4587 60.3421 57.4571C60.358 57.2926 60.3719 57.1407 60.3848 56.9768C60.4076 56.6845 60.4272 56.4006 60.444 56.1139C60.4608 55.826 60.4746 55.539 60.4855 55.2516C60.4964 54.9638 60.5043 54.6751 60.509 54.389C60.5137 54.1001 60.5155 53.8153 60.5133 53.5278C60.5126 53.4362 60.5114 53.3443 60.5099 53.2525C60.4942 53.4575 60.4812 53.6704 60.4675 53.8953C60.4566 54.0749 60.4451 54.2623 60.4315 54.4593C60.4263 54.5347 60.4183 54.6259 60.4089 54.7324C60.3718 55.1542 60.3135 55.8162 60.3241 56.6867ZM60.3375 50.9589C60.3333 50.8922 60.3296 50.8258 60.3265 50.7603C60.3177 50.5736 60.3127 50.3916 60.3088 50.2133C60.3061 50.088 60.3042 49.9641 60.3021 49.8421C60.3012 49.7906 60.3002 49.7392 60.2993 49.6882C60.2978 49.6028 60.296 49.5181 60.2941 49.434C60.2753 50.024 60.2608 50.6007 60.2563 51.2017C60.2562 51.2096 60.2564 51.2176 60.2563 51.2256C60.2839 51.1346 60.311 51.0458 60.3375 50.9589ZM40.3063 39.2124C40.373 39.4723 40.3925 39.7269 40.4192 40.0605C40.4192 40.0607 40.4192 40.0608 40.4193 40.061C40.4228 40.1075 40.4262 40.1551 40.4298 40.2035C40.4309 40.2185 40.432 40.2335 40.4331 40.2487L41.3755 42.8277L38.1272 43.1873C37.7425 43.1241 37.2447 43.0521 36.5083 43.0101C35.6622 42.9619 34.9905 42.7872 34.5803 42.6195C34.5038 42.5882 34.4246 42.571 34.2249 42.5554C34.0939 42.5452 33.9168 42.5359 33.6612 42.5224C33.5253 42.5153 33.3671 42.5071 33.1819 42.4968C32.5689 42.4629 31.6081 42.4734 30.7227 42.4834C30.3123 42.488 29.9181 42.4924 29.5823 42.4922L27.614 42.7094L27.9585 40.3863C27.9848 40.2867 28.0102 40.1922 28.0345 40.1041C28.1852 39.5583 28.354 39.0386 28.5371 38.4738C28.705 37.9556 28.8847 37.4009 29.0725 36.7531C29.2167 36.2555 29.4649 35.8017 29.7293 35.3418C29.7629 35.2834 29.7968 35.2248 29.8308 35.1661C30.0652 34.7608 30.3045 34.3465 30.4987 33.8816C30.8447 33.053 30.9636 32.3517 31.0925 31.5758C31.1426 31.2735 31.1947 30.9574 31.2619 30.6187C31.368 30.0843 31.5561 29.3216 31.7408 28.5576C31.7564 28.4935 31.7723 28.4267 31.788 28.3616C31.7881 28.3613 31.7881 28.361 31.7882 28.3606C31.9571 27.6604 32.1174 26.9749 32.2149 26.4657C32.3692 25.6586 32.3809 25.3461 32.3919 25.0852C32.3957 24.9877 32.3986 24.8993 32.4088 24.7907C32.4436 24.4096 32.5633 23.8409 32.6715 23.2714C32.6719 23.2692 32.6723 23.267 32.6727 23.2649C32.6798 23.2274 32.7084 23.1969 32.7512 23.1757L32.7964 22.432L33.7649 22.3233C33.809 22.3808 33.8374 22.4731 33.8371 22.5766C33.8369 22.6792 33.8085 22.7698 33.7649 22.8264L33.2698 22.8819L33.2467 23.262C33.28 23.2972 33.2961 23.3367 33.2888 23.3753C33.2306 23.6817 33.1706 23.9812 33.1221 24.2485C33.2652 24.2903 33.3617 24.3835 33.3435 24.4708C33.298 24.6882 33.2783 25.3744 33.231 26.4543C33.273 26.3884 33.3116 26.3342 33.3473 26.2873C33.3892 26.2323 33.4239 26.1909 33.4537 26.1553C33.5159 26.0803 33.5573 26.0288 33.5998 25.9333C33.6729 25.7081 33.7539 25.3458 33.8363 24.9603C33.857 24.8635 34.0105 24.8135 34.1799 24.8474C34.3493 24.8814 34.4702 24.9872 34.4494 25.0849C34.449 25.0868 34.4486 25.0887 34.4482 25.0906C34.366 25.4753 34.2822 25.8514 34.2049 26.0884C34.1852 26.1491 34.1659 26.2012 34.1502 26.2401C34.1376 26.2716 34.1215 26.3092 34.1069 26.329C34.1049 26.3316 34.1011 26.3366 34.0956 26.3424C34.0954 26.3425 34.0953 26.3426 34.0952 26.3426C34.0922 26.3459 34.0767 26.3624 34.0475 26.3773C34.0416 26.3803 34.0285 26.3867 34.0082 26.3932C34.0062 26.3955 34.0043 26.3979 34.0023 26.4003C33.975 26.4332 33.9471 26.467 33.9191 26.504C33.8091 26.65 33.6605 26.8828 33.4428 27.389C33.2423 27.8557 33.0153 28.6639 32.7722 29.6835C32.8012 29.6175 32.8298 29.5514 32.8577 29.4855C32.9278 29.3207 32.9965 29.1492 33.0627 28.9816C33.0882 28.917 33.1129 28.8544 33.1382 28.7886C33.1788 28.683 33.2191 28.5775 33.2587 28.4725C33.2856 28.4013 33.3119 28.3313 33.3388 28.2593C33.3388 28.2591 33.3389 28.2589 33.3389 28.2588C33.3761 28.1589 33.4133 28.0594 33.4508 27.9596C33.4642 27.9247 33.4773 27.8903 33.4902 27.8562C33.5414 27.7211 33.5924 27.5833 33.6647 27.4327C33.6752 27.4147 33.6877 27.3955 33.6978 27.3812C33.7085 27.3659 33.7192 27.3513 33.7298 27.3376C33.7391 27.3255 33.7484 27.3141 33.7571 27.3031C33.7583 27.3016 33.7595 27.3001 33.7606 27.2986C33.7704 27.2863 33.7795 27.2746 33.7883 27.2629C33.797 27.2513 33.8054 27.2401 33.813 27.2289C33.813 27.2288 33.8131 27.2287 33.8131 27.2286C33.8209 27.2169 33.8269 27.2081 33.8342 27.1955C33.8434 27.1797 33.8508 27.166 33.8588 27.1493C33.8666 27.1331 33.8741 27.1161 33.8812 27.0988C33.8883 27.0816 33.8951 27.0639 33.9016 27.0459C33.9082 27.028 33.9147 27.0097 33.9209 26.9912C33.9271 26.9727 33.9331 26.9539 33.9391 26.9351C33.9452 26.9163 33.9513 26.8972 33.9573 26.8781C33.9712 26.834 34.0143 26.7991 34.0788 26.7793C34.1434 26.7596 34.2233 26.7583 34.302 26.7756C34.3807 26.793 34.4524 26.8278 34.502 26.8728C34.5515 26.9179 34.5751 26.9678 34.568 27.0137C34.5661 27.0261 34.5643 27.0387 34.5623 27.0513C34.5611 27.0587 34.5598 27.0662 34.5586 27.0738C34.5554 27.0939 34.5522 27.1144 34.5486 27.1349C34.545 27.1554 34.541 27.1761 34.5368 27.1969C34.5326 27.2178 34.528 27.239 34.5228 27.2603C34.5176 27.2817 34.5117 27.3034 34.505 27.3252C34.4985 27.3466 34.49 27.3708 34.4814 27.3922C34.4752 27.4078 34.4662 27.4272 34.4586 27.4425C34.4507 27.4587 34.4422 27.4745 34.4338 27.4896C34.4253 27.5048 34.4166 27.5194 34.4084 27.5334C34.4075 27.5349 34.4067 27.5364 34.4058 27.5379C34.3985 27.5503 34.3915 27.5622 34.385 27.5735C34.3778 27.5862 34.3714 27.5983 34.3656 27.6099C34.3592 27.6226 34.356 27.6305 34.3523 27.6402C34.3128 27.7706 34.277 27.9387 34.2437 28.0938C34.2394 28.1135 34.2352 28.1331 34.231 28.1525C34.209 28.2556 34.1873 28.359 34.1653 28.4629C34.1495 28.538 34.1339 28.6119 34.1178 28.6869C34.0943 28.7969 34.07 28.9078 34.0453 29.0189C34.0299 29.0876 34.0148 29.1539 33.9991 29.222C33.9583 29.3992 33.9148 29.5803 33.8694 29.7562C33.8238 29.9326 33.7741 30.1134 33.7208 30.2884C33.6675 30.4635 33.6064 30.6472 33.5389 30.8193C33.4889 30.946 33.4244 31.0732 33.3611 31.1904C33.327 31.2535 33.2931 31.3144 33.2594 31.3745C33.2592 31.3747 33.2591 31.3749 33.2589 31.3751C33.2294 31.4278 33.2001 31.4799 33.1717 31.5319C33.1106 31.6431 33.0532 31.7539 33.0005 31.8647C32.9479 31.9752 32.8997 32.0866 32.8557 32.2001C32.812 32.3128 32.772 32.4284 32.7364 32.5433C32.7006 32.659 32.6692 32.7738 32.6392 32.8952C32.6 33.0549 32.5661 33.2139 32.5317 33.3781C32.4978 33.5412 32.4653 33.7053 32.4326 33.8703C32.4212 33.9279 32.4095 33.9857 32.3981 34.0435C32.398 34.0438 32.398 34.044 32.3979 34.0442C32.3767 34.1513 32.3555 34.2584 32.334 34.3657C32.3007 34.5312 32.2668 34.6972 32.2313 34.8633C32.1957 35.0294 32.1585 35.1961 32.1178 35.3628C32.077 35.5296 32.0323 35.7002 31.9785 35.869C31.9308 36.0197 31.8798 36.1714 31.8298 36.3191C31.8166 36.3581 31.8034 36.3971 31.7902 36.4361C31.7278 36.6211 31.6694 36.8017 31.6208 36.9815C31.572 37.1607 31.5312 37.3441 31.4973 37.529C31.4635 37.713 31.435 37.9033 31.4107 38.0942C31.3863 38.2854 31.3655 38.4776 31.3468 38.6723C31.3284 38.865 31.3114 39.0615 31.296 39.259C31.2874 39.3689 31.2757 39.484 31.2625 39.5944C31.2493 39.7053 31.2347 39.8147 31.2196 39.9221C31.2134 39.9657 31.2071 40.0089 31.201 40.0518C31.1919 40.1149 31.1827 40.1778 31.1742 40.2395C31.1598 40.3436 31.1469 40.445 31.1372 40.5439C31.1276 40.6421 31.1205 40.7408 31.1185 40.8359C31.1165 40.9345 31.1193 41.0166 31.1279 41.1159C31.1287 41.1528 31.1289 41.1873 31.1287 41.2199L29.5823 39.2143C29.7553 39.1703 29.8774 39.1532 30.0109 39.1343C30.042 39.1299 30.0738 39.1252 30.1069 39.1203C30.2964 39.0951 30.4856 39.0764 30.6724 39.0623C30.861 39.0481 31.0467 39.0385 31.2347 39.033C31.4209 39.0274 31.6085 39.0261 31.7953 39.0284C31.9818 39.0307 32.168 39.0366 32.3547 39.0464C32.5412 39.0561 32.7316 39.0699 32.9144 39.0867C33.02 39.0963 33.1322 39.1092 33.2365 39.1224C33.3117 39.1319 33.3858 39.1419 33.4585 39.1517C33.4881 39.1557 33.5176 39.1597 33.5468 39.1636C33.6476 39.177 33.7455 39.1895 33.8401 39.199C33.9346 39.2085 34.0262 39.2152 34.1157 39.2176C34.2055 39.2201 34.2933 39.2182 34.3811 39.2121C34.4721 39.2055 34.5477 39.1968 34.6444 39.1807C34.7073 39.1701 34.769 39.1594 34.8305 39.1486C34.9226 39.1326 35.0139 39.1162 35.106 39.0992C35.198 39.0822 35.2888 39.0648 35.38 39.0467C35.4093 39.0409 35.4403 39.0347 35.4698 39.0287C35.5607 39.0101 35.6506 38.991 35.7404 38.9707C35.83 38.9505 35.9188 38.9294 36.0072 38.9069C36.096 38.8844 36.1833 38.8609 36.2724 38.8355C36.4237 38.7922 36.5686 38.7721 36.6954 38.7586C36.8238 38.7453 36.9438 38.7379 37.0605 38.7308C37.0824 38.7295 37.1043 38.7282 37.1261 38.7269C37.2203 38.7213 37.313 38.7161 37.4042 38.7098C37.5167 38.702 37.6271 38.6927 37.7379 38.6817C37.8477 38.6708 37.9586 38.658 38.0678 38.6429C38.0877 38.6402 38.1075 38.6374 38.1272 38.6346L36.011 41.3313C35.9783 41.2519 35.9443 41.1723 35.906 41.086C35.8593 40.9796 35.8078 40.8792 35.7508 40.7662C35.6942 40.6541 35.634 40.5315 35.5789 40.4144C35.5235 40.2964 35.4681 40.165 35.4205 40.0455C35.3722 39.9235 35.327 39.7975 35.2855 39.6698C35.245 39.5466 35.208 39.4221 35.1733 39.2949C35.1381 39.1658 35.1068 39.0404 35.0787 38.917C35.0329 38.7165 34.9902 38.5201 34.9474 38.3208C34.9042 38.1196 34.8636 37.9255 34.8219 37.7252C34.7798 37.5231 34.7404 37.3304 34.6994 37.1297C34.6581 36.9278 34.6193 36.7346 34.5787 36.5341C34.5698 36.49 34.5608 36.4457 34.5519 36.4014C34.521 36.2483 34.4899 36.094 34.4585 35.9394C34.4584 35.9384 34.4582 35.9373 34.458 35.9362C34.4172 35.736 34.3784 35.5451 34.3366 35.3477C34.3213 35.2756 34.3063 35.2054 34.291 35.136C34.2756 35.0661 34.26 34.9975 34.2439 34.9282C34.2276 34.8588 34.2109 34.7899 34.1937 34.722C34.1763 34.6535 34.1585 34.5864 34.1396 34.5202C34.1223 34.4591 34.1037 34.3988 34.0835 34.3328C34.0817 34.3268 34.0798 34.3207 34.078 34.3147C34.0559 34.2424 34.0325 34.1596 34.0145 34.0816C33.9671 33.8748 33.919 33.6754 33.8672 33.4714C33.8153 33.2674 33.7615 33.0654 33.7061 32.8611C33.6845 32.7813 33.6624 32.7013 33.6406 32.6212C33.6066 32.4967 33.5725 32.3716 33.5389 32.246C33.4836 32.0395 33.4298 31.8314 33.3794 31.6218C33.3292 31.4132 33.2818 31.2007 33.2393 30.9898C33.1968 30.7791 33.1572 30.5632 33.1227 30.3518C33.0842 30.1156 33.0476 29.8778 33.0127 29.6422C32.977 29.4035 32.9434 29.1678 32.9103 28.9307C32.8764 28.6906 32.8456 28.4589 32.8134 28.2178C32.7818 27.9794 32.7517 27.7432 32.7217 27.5035C32.7038 27.3607 32.6872 27.2209 32.6694 27.0755C32.6375 27.0048 32.6068 26.9375 32.5775 26.873C32.3608 26.3946 32.2045 26.0446 32.0458 25.5747C32.0278 25.5295 32.0086 25.494 31.9854 25.4509C31.981 25.4427 31.9765 25.434 31.9718 25.4251C31.9418 25.3689 31.9092 25.3043 31.8772 25.2127C31.8115 25.0214 31.7511 24.7294 31.8113 24.3151C31.8272 24.2139 31.9763 24.1137 32.146 24.1003C32.265 24.0908 32.3622 24.1244 32.4037 24.1786C32.3997 24.0645 32.3939 23.9363 32.3907 23.8195C32.3893 23.7723 32.4185 23.7221 32.4728 23.6797C32.527 23.6373 32.6016 23.6061 32.6809 23.5923C32.7602 23.5786 32.8383 23.5833 32.899 23.6054C32.9597 23.6276 32.998 23.6655 33.0063 23.7112C33.0279 23.8315 33.0516 23.9599 33.074 24.0758C33.097 24.1946 33.1223 24.3176 33.1481 24.4384C33.1731 24.5557 33.1996 24.6749 33.2275 24.7964C33.2561 24.9207 33.2825 25.0324 33.3117 25.1532C33.3408 25.2732 33.371 25.3945 33.4003 25.5107C33.4182 25.5815 33.4364 25.6537 33.4547 25.7251C33.4615 25.7517 33.4684 25.7777 33.4752 25.8038C33.4807 25.8252 33.4861 25.8467 33.4918 25.8689C33.5504 26.0941 33.6131 26.3312 33.674 26.5566C33.7355 26.7846 33.7989 27.0172 33.8617 27.244C33.9255 27.4747 33.989 27.701 34.0538 27.9303C34.1192 28.1623 34.1828 28.3846 34.2492 28.6155C34.3147 28.8429 34.3806 29.0698 34.448 29.2986C34.4996 29.4733 34.5517 29.6474 34.6048 29.8225C34.6379 29.8888 34.6695 29.9528 34.7006 30.0171C34.7909 30.2035 34.895 30.3896 34.9972 30.5697C34.8839 30.2296 34.7732 29.9627 34.6673 29.7065C34.6531 29.6721 34.6389 29.6381 34.625 29.6041C34.4827 29.2588 34.3517 28.9222 34.2473 28.4511C33.9521 27.1166 33.7905 26.332 33.7182 25.844C33.6442 25.3477 33.6559 25.1284 33.7277 24.9092C33.8291 24.5996 33.8043 24.0458 33.7526 23.7848C33.7326 23.6852 33.8543 23.5781 34.0234 23.5429C34.1927 23.5078 34.3452 23.5569 34.365 23.6557C34.4189 23.9278 34.4522 24.5267 34.3306 24.8895C34.2774 25.0555 34.2579 25.2301 34.3305 25.7175C34.4015 26.197 34.5609 26.971 34.8562 28.306C34.9566 28.7594 35.0822 29.0832 35.2227 29.4241C35.2365 29.4576 35.2507 29.4914 35.2648 29.5255C35.2648 29.5258 35.2649 29.526 35.265 29.5262C35.3951 29.8409 35.5371 30.1829 35.6803 30.6548C36.0106 31.745 36.4922 33.2006 36.6415 33.5375C36.6708 33.6037 36.7009 33.6671 36.7325 33.7339C36.8539 33.9898 37.0009 34.3007 37.2304 35.025C37.2805 35.183 37.3344 35.3723 37.3888 35.5757C37.5494 35.8651 37.7002 36.1408 37.8123 36.3935C37.9085 36.6091 38.0321 36.7962 38.1619 36.9791C38.1991 37.0313 38.2374 37.0834 38.2755 37.1351C38.3668 37.2576 38.4603 37.3888 38.5384 37.5134C38.6011 37.6141 38.6708 37.7133 38.7465 37.8261C39.0186 38.2231 39.3465 38.7058 39.5213 39.3943C39.6126 39.7542 39.6908 40.1039 39.7536 40.4151L40.4183 42.2341L38.1272 42.4877C37.802 42.4746 37.5015 42.4568 37.2234 42.4391C37.5902 42.4758 37.8817 42.519 38.1272 42.559L40.5159 42.2946L39.8229 40.3981C39.8209 40.3719 39.819 40.3459 39.8171 40.3204C39.8134 40.271 39.8098 40.2232 39.8063 40.1766C39.7802 39.8444 39.7613 39.6055 39.6998 39.3661C39.3989 38.1962 39.237 37.7782 38.9643 37.3254C38.8922 37.2053 38.8035 37.0746 38.7088 36.9369C38.5183 36.6568 38.3013 36.34 38.1317 35.9805C37.9742 35.6472 37.7735 35.28 37.5608 34.8902C37.5607 34.8901 37.5607 34.8899 37.5606 34.8897C37.5192 34.8141 37.4772 34.7373 37.435 34.6596C37.1774 34.1855 36.9132 33.6874 36.7002 33.1891C36.6774 33.136 36.6486 33.0727 36.6155 33C36.4239 32.5799 36.088 31.8432 35.9419 30.877C35.9097 30.6644 35.8979 30.4384 35.8848 30.1812C35.8807 30.1024 35.8767 30.0207 35.8718 29.9357C35.8508 29.5694 35.8157 29.1278 35.7184 28.5488C35.6385 28.0726 35.5163 27.4986 35.3918 26.9018C35.3313 26.611 35.2685 26.3069 35.2116 26.0153C35.0367 25.1198 34.9063 24.3021 34.788 23.4824C34.788 23.4822 34.788 23.482 34.7879 23.4819C34.7737 23.3837 34.9008 23.2805 35.0704 23.2483C35.2401 23.2163 35.3883 23.2665 35.4024 23.3639C35.5192 24.1762 35.6486 24.9892 35.8222 25.8786C35.8779 26.1646 35.9401 26.4657 36.0002 26.7546C36.1249 27.3528 36.2487 27.9339 36.3291 28.4136C36.4278 29.0013 36.4634 29.4504 36.4847 29.8216C36.4898 29.9111 36.4942 29.9958 36.4983 30.0758C36.5111 30.3296 36.522 30.542 36.5524 30.7432C36.6937 31.6779 37.0165 32.3864 37.2084 32.8079C37.2424 32.8826 37.2722 32.9482 37.2962 33.0043C37.5049 33.4923 37.7651 33.9833 38.0222 34.4563C38.064 34.5332 38.1055 34.6095 38.1468 34.6849C38.147 34.685 38.1471 34.6852 38.1472 34.6853C38.3597 35.0742 38.564 35.448 38.7246 35.7882C38.8877 36.134 39.0837 36.4178 39.2687 36.6904C39.3676 36.8352 39.4616 36.9709 39.5465 37.1136C39.8358 37.5934 40.0038 38.0365 40.3063 39.2124ZM32.4124 24.3614C32.3885 24.6205 32.4129 24.8066 32.4508 24.9518C32.4407 24.8252 32.4323 24.7009 32.4252 24.5785C32.4205 24.506 32.4161 24.4329 32.4124 24.3614ZM36.7899 35.758C36.7706 35.7235 36.7512 35.6887 36.7316 35.6538C36.7627 35.756 36.7933 35.858 36.8245 35.9617C36.8625 36.0884 36.9001 36.2144 36.9373 36.3393C36.8883 36.1385 36.8382 35.9396 36.7899 35.758ZM38.9144 39.5476C38.7501 38.9003 38.4487 38.4534 38.18 38.063C38.1019 37.9479 38.0264 37.8367 37.9577 37.7275C37.9291 37.6819 37.8988 37.6365 37.8673 37.5908C37.9315 37.8838 37.991 38.1607 38.0376 38.3797C38.1797 39.0464 38.2212 39.4315 38.2586 39.7745C38.2686 39.8705 38.2794 39.9676 38.2916 40.0649C38.3314 40.1379 38.3714 40.2127 38.4087 40.2874C38.462 40.3953 38.5175 40.5167 38.5659 40.6257C38.5767 40.6499 38.5873 40.674 38.5977 40.698L38.79 41.2243L38.1272 41.2976C38.0324 41.3134 37.9369 41.3277 37.8428 41.3402C37.7211 41.3563 37.6007 41.3697 37.4807 41.3814C37.3679 41.3924 37.2554 41.4017 37.1465 41.4107C37.1403 41.4112 37.1341 41.4117 37.1278 41.4122C37.0128 41.4218 36.9009 41.4309 36.7981 41.4436C36.6934 41.4566 36.6064 41.472 36.5292 41.4952C36.4328 41.5241 36.3338 41.5518 36.236 41.5776C36.1381 41.6034 36.0405 41.6274 35.9433 41.6499C35.8459 41.6724 35.7494 41.6935 35.6526 41.7134C35.6214 41.7198 35.5886 41.7265 35.5576 41.7326C35.5433 41.7355 35.529 41.7384 35.5148 41.7412C35.704 41.7433 35.9005 41.7467 36.1036 41.7519C36.397 41.7593 36.7101 41.7798 37.0556 41.8022C37.3807 41.8233 37.7345 41.8462 38.1272 41.862L39.5622 41.7032L39.1459 40.5639C39.0839 40.2569 39.0063 39.9098 38.9144 39.5476ZM32.6463 41.797C32.7286 41.7954 32.8491 41.7905 33.0045 41.7842C33.0412 41.7827 33.08 41.7809 33.1206 41.7793C33.1196 41.7792 33.1186 41.7792 33.1177 41.779C33.017 41.7631 32.9241 41.7492 32.8238 41.7363C32.645 41.7134 32.4713 41.6939 32.2958 41.6771C32.1197 41.6603 31.9441 41.6465 31.7682 41.6356C31.5921 41.6246 31.4155 41.6168 31.2405 41.6121C31.0637 41.6074 30.8895 41.6056 30.7136 41.6078C30.6575 41.6085 30.6013 41.6096 30.5451 41.6112C30.6706 41.6269 30.8008 41.6399 30.9384 41.6536C31.0483 41.6645 31.1629 41.6759 31.2835 41.6896C31.3296 41.6948 31.3854 41.7028 31.4506 41.7122C31.7087 41.7492 32.1137 41.8076 32.6463 41.797ZM28.7555 40.1414C28.7619 40.1007 28.7687 40.0603 28.7759 40.0204C28.7962 39.9086 28.8195 39.8 28.8435 39.6934C28.8604 39.6185 28.8778 39.5445 28.8948 39.4713C28.902 39.4405 28.909 39.4102 28.9159 39.38C28.9277 39.3293 28.939 39.2789 28.9502 39.2287C28.8408 39.5719 28.7376 39.9083 28.6392 40.2648C28.6379 40.2694 28.6368 40.2742 28.6355 40.2789C28.6763 40.2321 28.7164 40.1863 28.7555 40.1414ZM57.1458 21.2127C57.166 21.2295 57.1554 21.2769 57.1553 21.3433C57.1553 21.3433 57.1553 21.3433 57.1553 21.3433C57.1553 21.3528 57.1554 21.3627 57.156 21.3728C57.1613 21.4535 57.1861 21.5631 57.3208 21.6567C57.4667 21.7587 57.6263 21.9571 57.748 22.1335C57.7701 22.1663 57.7951 22.1856 57.8616 22.2034C57.8865 22.21 57.9168 22.2162 57.9554 22.2223C57.986 22.227 58.0209 22.2316 58.0605 22.2363C58.1089 22.242 58.1667 22.2476 58.2317 22.2527C58.451 22.2717 58.7695 22.2014 58.9961 22.0921C59.136 22.0273 59.2462 21.9537 59.3281 21.9004C59.4476 21.8222 59.565 21.7544 59.6873 21.6521C59.7985 21.5581 59.9133 21.4348 60.0077 21.2436C60.079 21.0988 60.2459 20.9699 60.419 20.7954C60.4409 20.7736 60.4628 20.751 60.4847 20.7276C60.6326 20.5704 60.7746 20.3805 60.8494 20.157C60.8508 20.1528 60.8523 20.1486 60.8536 20.1443C60.9833 19.7431 60.8797 19.4172 60.7299 19.1168C60.6707 18.999 60.603 18.8826 60.5328 18.7615C60.4228 18.569 60.2711 18.3004 60.0657 18.0745C60.0483 18.0552 60.0305 18.0363 60.0126 18.0176C60.0125 18.0175 60.0124 18.0174 60.0123 18.0173C59.8203 17.8153 59.5891 17.6575 59.4001 17.5786C59.0972 17.4553 58.9565 17.4802 58.8495 17.4923C58.8087 17.4979 58.7703 17.5038 58.7274 17.506C58.5715 17.5132 58.3476 17.4717 58.1037 17.4596C58.1028 17.4596 58.1019 17.4596 58.1009 17.4596C58.0611 17.4575 58.0279 17.3164 58.0276 17.1436C58.0272 16.9708 58.0665 16.8315 58.1144 16.8338C58.2649 16.8408 58.4117 16.8565 58.5409 16.8704C58.566 16.7239 58.6184 16.6173 58.6633 16.6254C58.7741 16.6504 59.1271 16.5689 59.7334 16.6401C59.7086 16.5989 59.6883 16.5612 59.6705 16.5265C59.6497 16.4857 59.6339 16.452 59.6199 16.4231C59.5911 16.3631 59.5705 16.3234 59.5219 16.2827C59.4008 16.2125 59.1931 16.143 58.9711 16.093C58.9156 16.0802 58.8944 15.9334 58.9249 15.7634C58.9549 15.5933 59.0328 15.4657 59.0978 15.4803C59.099 15.4806 59.1003 15.4809 59.1016 15.4811C59.3533 15.5372 59.6008 15.6186 59.7484 15.7009C59.786 15.7217 59.8172 15.7421 59.84 15.7587C59.8582 15.7719 59.8805 15.7893 59.8909 15.8044C59.8922 15.8064 59.8948 15.8104 59.8974 15.816C59.8974 15.8161 59.8975 15.8162 59.8975 15.8164C59.899 15.8195 59.9067 15.8352 59.9097 15.8639C59.9103 15.8698 59.9115 15.8827 59.9108 15.9024C59.9119 15.9044 59.913 15.9064 59.9141 15.9085C59.9295 15.9364 59.9448 15.9649 59.9618 15.9938C60.0267 16.1079 60.1429 16.2603 60.3686 16.5228C60.5735 16.7649 60.9512 17.0983 61.3074 17.6055C61.2939 17.5639 61.2791 17.5225 61.2632 17.4815C61.2232 17.3786 61.1754 17.2773 61.1214 17.1783C61.1007 17.1404 61.0795 17.1033 61.0569 17.0661C61.0205 17.0059 60.9819 16.9465 60.9411 16.8883C60.9135 16.8489 60.8849 16.81 60.8555 16.7715C60.8554 16.7714 60.8553 16.7713 60.8553 16.7712C60.8144 16.7177 60.772 16.665 60.7276 16.6125C60.7123 16.5939 60.6969 16.5757 60.6813 16.5578C60.6195 16.4869 60.5557 16.4187 60.4871 16.3301C60.4796 16.318 60.472 16.3036 60.4666 16.2924C60.4608 16.2804 60.4554 16.2685 60.4504 16.2568C60.446 16.2465 60.442 16.2364 60.438 16.2268C60.4375 16.2255 60.4369 16.2242 60.4364 16.223C60.4319 16.2122 60.4274 16.2022 60.4231 16.1926C60.4187 16.183 60.4145 16.1738 60.41 16.1654C60.4099 16.1653 60.4098 16.1653 60.4098 16.1652C60.405 16.1565 60.4013 16.1499 60.3956 16.1415C60.3885 16.131 60.3821 16.1224 60.3738 16.1128C60.3658 16.1035 60.3571 16.0944 60.348 16.0857C60.3389 16.0769 60.3293 16.0685 60.3194 16.0602C60.3095 16.0519 60.2993 16.0437 60.2888 16.0357C60.2784 16.0278 60.2675 16.02 60.2567 16.0122C60.2459 16.0045 60.2349 15.9967 60.2238 15.9891C60.1982 15.9714 60.1872 15.9273 60.1929 15.8646C60.1987 15.802 60.2205 15.7262 60.2553 15.6535C60.2901 15.5808 60.3356 15.5166 60.3831 15.4752C60.4306 15.4338 60.4763 15.4188 60.5091 15.4323C60.518 15.4359 60.527 15.4396 60.536 15.4434C60.5413 15.4456 60.5467 15.448 60.552 15.4503C60.5664 15.4565 60.5811 15.4628 60.5956 15.4695C60.6101 15.4763 60.6246 15.4834 60.639 15.4909C60.6535 15.4985 60.6681 15.5064 60.6825 15.515C60.6968 15.5236 60.7112 15.533 60.7254 15.5432C60.7392 15.5531 60.7544 15.5655 60.7673 15.5775C60.7768 15.5861 60.788 15.5981 60.797 15.6083C60.8064 15.6189 60.8153 15.6299 60.8237 15.6409C60.8321 15.6519 60.8398 15.6629 60.8473 15.6734C60.8481 15.6745 60.8489 15.6756 60.8497 15.6767C60.8562 15.686 60.8625 15.695 60.8685 15.7033C60.8752 15.7126 60.8817 15.721 60.8881 15.7288C60.895 15.7374 60.8997 15.742 60.9054 15.7476C60.9867 15.8122 61.0931 15.8836 61.1915 15.9564C61.2039 15.9655 61.2161 15.9747 61.2282 15.9838C61.2927 16.0321 61.3559 16.0815 61.4181 16.1327C61.4632 16.1698 61.5077 16.2079 61.5515 16.2469C61.6158 16.3044 61.6786 16.3641 61.7393 16.4257C61.7769 16.4639 61.813 16.5023 61.849 16.542C61.9428 16.6454 62.0312 16.7546 62.1117 16.8681C62.1924 16.982 62.2656 17.1007 62.3295 17.2244C62.3928 17.347 62.4485 17.4796 62.4875 17.6117C62.5163 17.7096 62.5292 17.814 62.5352 17.9125C62.5384 17.9653 62.5397 18.0162 62.5401 18.0668C62.5401 18.067 62.5401 18.0672 62.54 18.0674C62.5404 18.1117 62.5401 18.1554 62.5398 18.1983C62.5388 18.2893 62.5381 18.3774 62.5395 18.4632C62.5405 18.548 62.5438 18.6313 62.5496 18.7132C62.5551 18.7937 62.5633 18.8749 62.5735 18.954C62.5835 19.0327 62.5956 19.11 62.6096 19.1905C62.628 19.2947 62.6484 19.4008 62.6668 19.5066C62.6854 19.613 62.7026 19.7197 62.7171 19.8274C62.7221 19.865 62.7266 19.9034 62.731 19.9405C62.731 19.9407 62.731 19.9408 62.731 19.9409C62.7391 20.0102 62.7461 20.0802 62.7516 20.1508C62.7518 20.1529 62.7519 20.1549 62.7521 20.1569C62.7603 20.2631 62.7658 20.3664 62.767 20.4738C62.7682 20.5838 62.7655 20.6915 62.7561 20.8042C62.7467 20.9147 62.7308 21.0301 62.7024 21.1431C62.6775 21.2429 62.646 21.3469 62.6128 21.4436C62.604 21.4696 62.5949 21.496 62.5856 21.5219C62.542 21.6447 62.4973 21.7636 62.4575 21.8818C62.4171 22.0011 62.3812 22.1202 62.3447 22.2458C62.309 22.3691 62.2724 22.4982 62.233 22.6284C62.1928 22.7605 62.1504 22.8918 62.1012 23.027C62.0523 23.1612 61.9978 23.2964 61.935 23.4335C61.9003 23.5093 61.8582 23.588 61.8148 23.6603C61.7711 23.7332 61.7238 23.8038 61.6746 23.8718C61.6546 23.8994 61.6342 23.9265 61.6137 23.9532C61.5838 23.9923 61.5533 24.0306 61.523 24.0681C61.4719 24.1315 61.4209 24.193 61.3714 24.2538C61.3219 24.3145 61.274 24.3748 61.229 24.4358C61.1824 24.499 61.1449 24.5542 61.1018 24.6238C60.9858 24.7794 60.8963 24.8547 60.7965 24.936C60.7768 24.952 60.7565 24.9684 60.7355 24.9852C60.6135 25.0789 60.4843 25.1613 60.3528 25.2328C60.2205 25.3047 60.0852 25.366 59.9478 25.4177C59.8102 25.4695 59.6714 25.5111 59.5311 25.5439C59.3922 25.5765 59.2519 25.6001 59.1125 25.6149C58.9725 25.6298 58.8312 25.6357 58.6971 25.6336C58.6199 25.6324 58.5368 25.6271 58.4616 25.6194C58.4074 25.6139 58.3541 25.6071 58.3019 25.5999C58.2806 25.597 58.2595 25.594 58.2386 25.5909C58.1671 25.5804 58.0988 25.5696 58.0326 25.5608C58.0065 25.5574 57.9808 25.5542 57.9553 25.5514C57.9152 25.5471 57.876 25.5437 57.8373 25.5416C57.7732 25.5379 57.7119 25.5377 57.6476 25.5407C57.5816 25.5441 57.5266 25.5494 57.4556 25.56C57.4093 25.567 57.3626 25.5735 57.3164 25.5795C57.247 25.5886 57.1787 25.597 57.1071 25.6044C57.0361 25.6118 56.9657 25.6185 56.8941 25.6245C56.8708 25.6264 56.8462 25.6283 56.8227 25.6301C56.7501 25.6355 56.6784 25.6405 56.605 25.6449C56.5314 25.6492 56.4579 25.6531 56.3838 25.6569C56.3093 25.6607 56.2339 25.6638 56.1568 25.6669C56.026 25.6726 55.9024 25.6516 55.7979 25.6269C55.6909 25.6011 55.593 25.5691 55.4981 25.5351C55.4802 25.5287 55.4623 25.5222 55.4445 25.5156C55.3677 25.4869 55.2931 25.457 55.2187 25.4264C55.127 25.3886 55.0373 25.3505 54.9462 25.3107C54.856 25.2711 54.765 25.2302 54.674 25.1886C54.5822 25.1466 54.4943 25.1056 54.3983 25.0599C54.3035 25.0146 54.2045 24.9701 54.0968 24.9167C53.9901 24.8638 53.8794 24.8036 53.7717 24.7351C53.6639 24.6667 53.5594 24.5906 53.461 24.5077C53.3626 24.425 53.2699 24.3356 53.1844 24.2421C53.0991 24.149 53.0191 24.0494 52.9472 23.949C52.8748 23.8482 52.8062 23.7398 52.7484 23.6369C52.6538 23.4687 52.5718 23.2991 52.4994 23.1282C52.4272 22.9573 52.3653 22.7865 52.3117 22.6144C52.259 22.4448 52.2144 22.2738 52.1781 22.1051C52.1418 21.9369 52.1127 21.7674 52.0913 21.605C52.0865 21.5686 52.0819 21.5323 52.0777 21.4958C52.0626 21.3667 52.0521 21.2438 52.0441 21.1175C52.0441 21.1167 52.0441 21.1158 52.0441 21.1149C52.0344 20.9576 52.0296 20.7997 52.0285 20.6483C52.028 20.592 52.028 20.5379 52.028 20.4827C52.0281 20.4286 52.0284 20.3762 52.0287 20.3228C52.029 20.2694 52.0292 20.2163 52.0292 20.1638C52.0292 20.1615 52.0291 20.1593 52.0291 20.157C52.0291 20.1042 52.0289 20.053 52.028 20.0013C52.0273 19.9519 52.0256 19.9028 52.0245 19.8492C52.0244 19.8443 52.0243 19.8394 52.0242 19.8345C52.0232 19.7744 52.0247 19.7062 52.0308 19.6434C52.0473 19.4787 52.0671 19.3119 52.0909 19.1439C52.1149 18.9746 52.143 18.8043 52.1777 18.6323C52.1911 18.5659 52.206 18.4962 52.2218 18.4285C52.2464 18.3232 52.2743 18.2162 52.3058 18.1096C52.3572 17.9354 52.4193 17.7597 52.4942 17.5858C52.5683 17.4138 52.6556 17.2427 52.7545 17.0789C52.8534 16.915 52.9654 16.7555 53.0867 16.6066C53.2221 16.4403 53.3677 16.284 53.5228 16.1368C53.6775 15.9901 53.8411 15.8534 54.0107 15.7286C54.1807 15.6035 54.357 15.49 54.5375 15.3886C54.7182 15.2872 54.9029 15.198 55.0902 15.1209C55.2022 15.0748 55.3152 15.033 55.4283 14.9957C55.4778 14.955 55.5261 14.9164 55.5733 14.8801C55.9228 14.6146 56.2016 14.447 56.5886 14.3037C56.6252 14.2875 56.6537 14.2702 56.689 14.2493C56.6957 14.2453 56.7029 14.2413 56.7102 14.2371C56.7564 14.2103 56.8107 14.1815 56.8889 14.1564C57.0427 14.1067 57.2973 14.0731 57.6139 14.1996C57.6943 14.2316 57.7498 14.3963 57.7413 14.5655C57.7355 14.6843 57.7021 14.7739 57.6585 14.8059C57.7441 14.8208 57.8278 14.8384 57.9104 14.8577C57.9434 14.8654 57.9748 14.9039 57.9966 14.9656C58.0185 15.0272 58.0292 15.1066 58.0274 15.187C58.0256 15.2675 58.0116 15.343 57.9896 15.3981C57.9675 15.4531 57.9391 15.4832 57.9096 15.4825C57.8314 15.4807 57.7529 15.4805 57.6742 15.4832C57.5958 15.4859 57.5171 15.4914 57.4385 15.4996C57.3603 15.5077 57.2814 15.5186 57.203 15.532C57.1253 15.5453 57.0465 15.5611 56.9689 15.5795C56.8911 15.5978 56.8138 15.6187 56.7369 15.6418C56.691 15.6556 56.644 15.6705 56.5985 15.686C56.5815 15.6917 56.565 15.6976 56.5486 15.7034C56.5351 15.7082 56.5216 15.713 56.5077 15.718C56.3612 15.7716 56.2159 15.834 56.0761 15.9039C55.935 15.9743 55.7981 16.0525 55.6661 16.1384C55.5339 16.2244 55.4069 16.3181 55.2858 16.4188C55.1648 16.5194 55.0498 16.627 54.942 16.7409C54.8345 16.8546 54.7337 16.9746 54.6414 17.0996C54.57 17.1963 54.5041 17.2957 54.4437 17.3971C54.43 17.4442 54.4168 17.4906 54.4042 17.5363C54.3683 17.6683 54.351 17.8078 54.3421 17.9427C54.4209 17.7367 54.483 17.5625 54.5519 17.3983C54.5612 17.3764 54.5707 17.3543 54.5804 17.3326C54.6798 17.1123 54.8022 16.9006 55.0445 16.6979C55.7459 16.1334 56.2604 16.0041 56.5612 15.9384C56.8692 15.8826 57.0116 15.9194 57.1494 16.0119C57.3452 16.1422 57.6519 16.203 57.802 16.2015C57.8576 16.2 57.9051 16.3402 57.9092 16.5129C57.913 16.6856 57.8789 16.8257 57.832 16.8267C57.695 16.8276 57.4126 16.7626 57.2035 16.6051C57.1113 16.5351 57.0087 16.4931 56.747 16.5352C56.4914 16.5861 56.0549 16.6928 55.4585 17.1675C55.26 17.3316 55.1642 17.5078 55.087 17.6966C55.0795 17.7152 55.0722 17.7341 55.0649 17.7532C55.0648 17.7533 55.0648 17.7534 55.0647 17.7535C54.9986 17.9291 54.9406 18.1191 54.8507 18.3587C54.624 18.9154 54.6396 19.7099 54.7006 19.8893C54.7107 19.9255 54.7228 19.9607 54.7358 19.9965C54.7531 20.0442 54.7721 20.0952 54.7923 20.157C54.8312 20.2759 54.8705 20.4287 54.9227 20.6624C54.9402 20.7391 54.9575 20.8315 54.9762 20.9279C55.0841 21.0629 55.1913 21.1783 55.2677 21.2779C55.3336 21.3632 55.4326 21.4261 55.5372 21.4735C55.5674 21.4874 55.5986 21.5001 55.6297 21.5119C55.7044 21.5401 55.7797 21.565 55.8416 21.5886C55.8913 21.6082 55.9481 21.6236 56.0075 21.6359C56.2271 21.6852 56.4653 21.6782 56.5838 21.7899C56.7132 21.9113 56.8258 22.0243 56.9489 22.1215C56.8655 22.037 56.8251 21.9537 56.7993 21.8834C56.7944 21.8702 56.7902 21.8574 56.7863 21.8451C56.7591 21.7581 56.7502 21.6976 56.7115 21.663C56.5324 21.4926 56.4459 21.4244 56.2443 21.3669C56.1918 21.3507 56.1249 21.3327 56.0528 21.3079C55.9085 21.2587 55.7412 21.1762 55.6326 21.0471C55.5316 20.9277 55.3999 20.782 55.2721 20.6046C55.2721 20.6045 55.2721 20.6044 55.2721 20.6044C55.2471 20.5697 55.2222 20.5329 55.1978 20.4967C55.128 20.3914 55.0616 20.2783 55.0043 20.157C54.9391 20.0219 54.8865 19.8824 54.8545 19.7429C54.8481 19.7145 54.8391 19.6804 54.8293 19.6412C54.7716 19.4217 54.6951 18.9777 54.9737 18.5696C55.034 18.4823 55.1203 18.4041 55.2218 18.3249C55.2527 18.301 55.2853 18.2768 55.3189 18.2522C55.4646 18.1464 55.6347 18.0293 55.8397 17.8807C56.0089 17.7579 56.2111 17.614 56.4425 17.5004C56.5561 17.4444 56.6763 17.3955 56.7983 17.3579C57.168 17.2445 57.5336 17.2339 57.8882 17.2745C57.8883 17.2745 57.8884 17.2745 57.8885 17.2745C57.9308 17.2793 57.9661 17.4244 57.9674 17.597C57.9687 17.7696 57.9425 17.9049 57.9089 17.8998C57.6178 17.8569 57.3238 17.8561 57.0338 17.9375C56.9393 17.9641 56.8463 17.9998 56.7584 18.0408C56.5777 18.1248 56.4202 18.232 56.284 18.3208C56.1178 18.429 55.9703 18.512 55.8418 18.59C55.8108 18.609 55.7816 18.6271 55.7539 18.6453C55.6655 18.7037 55.5932 18.7598 55.5436 18.8257C55.3092 19.1414 55.3882 19.5088 55.449 19.697C55.4596 19.7314 55.4692 19.7616 55.4763 19.7873C55.5108 19.9112 55.5668 20.0357 55.6355 20.1571C55.6892 20.2561 55.7502 20.3472 55.8141 20.4327C55.8377 20.4639 55.8616 20.4941 55.8858 20.5239C55.8859 20.524 55.886 20.524 55.8862 20.5241C56.0104 20.6748 56.1389 20.7962 56.2347 20.8903C56.332 20.9864 56.475 21.0373 56.6048 21.0628C56.6746 21.0771 56.7406 21.0844 56.7958 21.0913C56.9863 21.1107 57.0584 21.1354 57.1458 21.2127ZM57.5262 14.7853C57.3447 14.7219 57.1964 14.7257 57.0895 14.7481C57.1838 14.7511 57.2773 14.7574 57.3693 14.7666C57.4218 14.7719 57.4745 14.7781 57.5262 14.7853ZM54.3621 21.0465C54.3485 21.0273 54.335 21.0089 54.3215 20.9897C54.3352 21.0455 54.3501 21.1039 54.3657 21.1597C54.3848 21.228 54.4055 21.2975 54.4276 21.3651C54.4024 21.2542 54.3814 21.1479 54.3621 21.0465ZM56.1483 22.2395C55.9838 22.0822 55.7366 22.0485 55.4969 21.9664C55.4283 21.9428 55.3625 21.9177 55.302 21.8859C55.2769 21.8727 55.2505 21.8603 55.223 21.8474C55.2728 21.9753 55.3265 22.0895 55.3747 22.1802C55.5206 22.4502 55.6061 22.6109 55.6879 22.7557C55.7119 22.7972 55.7363 22.8367 55.7635 22.8753C55.8059 22.8841 55.8492 22.8926 55.891 22.9023C55.9498 22.9156 56.0113 22.9301 56.0681 22.9437C56.1253 22.9573 56.182 22.9712 56.2362 22.9852C56.2911 22.9994 56.3441 23.0137 56.3965 23.0279C56.4459 23.0414 56.4942 23.0545 56.5415 23.0662C56.5442 23.0669 56.5469 23.0676 56.5496 23.0682C56.5999 23.0805 56.6483 23.0907 56.695 23.0954C56.7427 23.1 56.7833 23.0983 56.8225 23.0874C56.8715 23.0737 56.9202 23.0602 56.9672 23.0473C57.0142 23.0343 57.0604 23.0221 57.105 23.0101C57.1497 22.9982 57.194 22.9868 57.2368 22.9755C57.2507 22.9718 57.2652 22.968 57.2789 22.9644C57.2853 22.9628 57.2916 22.961 57.2979 22.9594C57.2222 22.9427 57.1446 22.9215 57.0678 22.8948C56.9565 22.8563 56.8458 22.7969 56.7354 22.724C56.5457 22.598 56.3593 22.4388 56.1483 22.2395ZM58.513 22.9254C58.479 22.9319 58.4292 22.9434 58.3642 22.9562C58.3488 22.9593 58.3325 22.9626 58.3152 22.9657C58.3156 22.9658 58.316 22.9658 58.3165 22.9659C58.361 22.978 58.402 22.9877 58.4459 22.9955C58.5256 23.0088 58.6012 23.0172 58.6788 23.02C58.7556 23.0229 58.8329 23.0201 58.9076 23.0123C58.9836 23.0043 59.0573 22.9909 59.1293 22.9719C59.2013 22.9529 59.2712 22.9287 59.3374 22.8985C59.3587 22.8887 59.3797 22.8784 59.4003 22.8675C59.3464 22.8744 59.292 22.8831 59.2341 22.8905C59.1876 22.8965 59.1396 22.9015 59.088 22.9039C59.0684 22.9048 59.0436 22.9043 59.0155 22.903C58.9023 22.8981 58.7315 22.8838 58.513 22.9254ZM59.7851 22.4414C59.7946 22.429 59.8042 22.4168 59.8138 22.4052C59.8413 22.3723 59.869 22.3424 59.896 22.3131C59.915 22.2926 59.9337 22.2726 59.9517 22.2524C59.9593 22.2439 59.9668 22.2353 59.9741 22.2267C59.9864 22.2124 59.9981 22.1977 60.0095 22.1831C59.9063 22.2639 59.8026 22.335 59.6934 22.4083C59.6919 22.4092 59.6906 22.4103 59.6891 22.4113C59.7214 22.4222 59.7534 22.4322 59.7851 22.4414Z" fill="#FFD170"/>
</svg>
