<svg width="47" height="80" viewBox="0 0 47 80" fill="none" xmlns="http://www.w3.org/2000/svg">
<path fill-rule="evenodd" clip-rule="evenodd" d="M16.0349 42.5743C16.0349 42.5743 13.8106 43.7862 17.6196 44.1956C22.2354 44.6891 24.5931 44.6181 29.6781 43.7174C29.6781 43.7174 31.0168 44.5023 32.8856 45.1813C21.4832 49.756 7.08007 44.9167 16.0349 42.5743ZM14.6411 36.6045C14.6411 36.6045 12.1457 38.3339 15.9581 38.703C20.8889 39.1798 24.7811 39.2187 31.5203 38.0046C31.5203 38.0046 32.4508 38.8889 33.9152 39.372C20.1309 43.147 4.77891 39.6692 14.6411 36.6045Z" fill="#D17D54"/>
<path fill-rule="evenodd" clip-rule="evenodd" d="M26.3868 26.4626C29.1977 29.4921 25.65 32.2167 25.65 32.2167C25.65 32.2167 32.784 28.7692 29.5074 24.4505C26.4482 20.4249 24.1016 18.425 36.8036 11.5283C36.8036 11.5283 16.8647 16.189 26.3868 26.4626Z" fill="#D17D54"/>
<path fill-rule="evenodd" clip-rule="evenodd" d="M41.465 46.9873C41.465 46.9873 43.1115 48.2584 39.6513 49.2414C33.0715 51.1074 12.2606 51.6702 6.47991 49.3156C4.40341 48.4688 8.29939 47.2949 9.52509 47.047C10.8035 46.7883 11.533 46.8353 11.533 46.8353C9.22217 45.3118 -3.40353 49.8277 5.12086 51.1233C28.3653 54.6521 47.4935 49.5346 41.465 46.9873ZM17.104 30.4155C17.104 30.4155 6.51953 32.77 13.3563 33.6259C16.244 33.9873 21.9962 33.9041 27.3585 33.4829C31.7395 33.1387 36.137 32.4022 36.137 32.4022C36.137 32.4022 34.5934 33.0224 33.4749 33.7363C22.7247 36.3839 1.96069 35.1508 7.93897 32.4443C12.9935 30.1549 17.104 30.4155 17.104 30.4155ZM36.093 40.3525C47.02 35.0372 41.9679 29.9283 38.4406 30.6168C37.5782 30.7855 37.1912 30.9312 37.1912 30.9312C37.1912 30.9312 37.5129 30.4598 38.1246 30.2571C45.1015 27.9614 50.4662 37.0299 35.8751 40.6212C35.8746 40.6212 36.0428 40.4792 36.093 40.3525Z" fill="#D17D54"/>
<path fill-rule="evenodd" clip-rule="evenodd" d="M29.5059 0.387695C29.5059 0.387695 35.5562 6.05608 23.7658 14.7697C14.3104 21.7621 21.6101 25.7477 23.7629 30.3033C18.2427 25.641 14.1935 21.5359 16.9097 17.7163C20.8975 12.1094 31.9472 9.39034 29.5059 0.387695Z" fill="#D17D54"/>
<path fill-rule="evenodd" clip-rule="evenodd" d="M18.1793 54.7596C28.6662 55.3874 44.7733 54.4108 45.1555 49.7637C45.1555 49.7637 44.4221 51.5252 36.4876 52.9225C27.5357 54.5004 16.4927 54.3167 9.94531 53.3048C9.94531 53.3048 11.287 54.3443 18.1793 54.7596Z" fill="#D17D54"/>
<path fill-rule="evenodd" clip-rule="evenodd" d="M44.6711 63.0817H44.3523V62.9143H45.2127V63.0817H44.8939V63.9176H44.6711V63.0817ZM46.3882 63.1233H46.3843L46.0674 63.9172H45.922L45.607 63.1233H45.6031V63.9172H45.3915V62.9139H45.7021L45.994 63.6236L46.2858 62.9139H46.5935V63.9172H46.3887L46.3882 63.1233ZM16.4611 72.5021C15.4721 73.3046 14.4266 73.7561 13.4879 73.7561C12.1506 73.7561 11.4249 73.0038 11.4249 71.8001C11.4249 70.4968 12.2018 69.5432 15.3112 69.5432H16.4606L16.4611 72.5021ZM19.1908 75.3855V66.4595C19.1908 64.1782 17.8013 62.6727 14.4517 62.6727C12.4974 62.6727 10.7843 63.1247 9.39139 63.7005L9.79239 65.2815C10.8896 64.9042 12.3081 64.5546 13.7004 64.5546C15.6301 64.5546 16.4606 65.2815 16.4606 66.7865V67.9152H15.4962C10.8089 67.9152 8.69375 69.6179 8.69375 72.1778C8.69375 74.3835 10.0876 75.6374 12.7115 75.6374C14.3981 75.6374 15.6581 74.9856 16.8345 74.0316L17.0485 75.3855H19.1908ZM28.3012 75.3855H24.8975L20.7991 62.8998H23.7723L26.316 70.5723L26.8822 72.8776C28.1654 69.5432 29.0761 66.1582 29.5317 62.8998H32.4228C31.6488 67.0109 30.2545 71.5246 28.3012 75.3855ZM41.3636 72.5021C40.3717 73.3046 39.3263 73.7561 38.3895 73.7561C37.0522 73.7561 36.3274 73.0038 36.3274 71.8001C36.3274 70.4968 37.1048 69.5432 40.2123 69.5432H41.3636V72.5021ZM44.0943 75.3855V66.4595C44.0943 64.1782 42.7004 62.6727 39.3543 62.6727C37.3981 62.6727 35.6854 63.1247 34.2925 63.7005L34.6935 65.2815C35.7907 64.9042 37.2121 64.5546 38.6049 64.5546C40.5317 64.5546 41.3631 65.2815 41.3631 66.7865V67.9152H40.3988C35.711 67.9152 33.5973 69.6179 33.5973 72.1778C33.5973 74.3835 34.9882 75.6374 37.6126 75.6374C39.3006 75.6374 40.5587 74.9856 41.738 74.0316L41.953 75.3855H44.0943ZM5.70074 77.5071C4.9229 78.5715 3.66482 79.4142 2.28935 79.8897L0.941406 78.4032C1.98932 77.8997 2.88698 77.0868 3.30489 76.3305C3.66482 75.6564 3.81508 74.7897 3.81508 72.7152V58.459H6.71628V72.5184C6.71628 75.2932 6.47955 76.4146 5.70074 77.5071Z" fill="#D17D54"/>
</svg>
