<svg width="76" height="81" viewBox="0 0 76 81" fill="none" xmlns="http://www.w3.org/2000/svg">
<path d="M75.903 0.973026C75.8373 2.83698 75.7112 4.69287 75.4885 6.59584C75.4378 7.02947 75.3596 6.98093 75.3298 7.15837C75.275 7.48447 75.3124 8.04372 75.3052 8.12098C75.2619 8.60053 75.1359 8.3999 75.1244 8.46392C74.9995 9.17793 75.1821 8.98599 75.1341 9.67524C75.0716 10.5728 74.936 11.7194 74.8281 12.7979C74.7898 13.1766 74.6962 12.9977 74.6297 13.8166C74.5825 14.3966 74.5423 16.1856 74.3336 16.9918C74.283 16.992 74.2371 16.8835 74.1894 16.8352C74.2899 18.0279 74.2419 18.4469 74.0369 20.1056C74.0045 20.368 74.0674 20.6252 73.9927 21.0858C73.9181 21.5462 73.7838 21.5535 73.6991 22.4855C73.6694 22.8161 73.7442 23.0253 73.7013 23.5324C73.5795 24.9749 73.2093 27.7094 73.0958 28.892C72.8721 31.2211 72.9142 32.5035 72.6672 34.5674C72.6484 34.7264 72.5784 34.3669 72.5494 34.6588C72.5201 34.9532 72.6274 35.2725 72.6239 35.3452C72.5864 36.1306 72.2516 37.7666 72.2333 38.2037C72.1892 39.2662 72.3455 38.2296 72.2355 39.6976C72.1308 41.0953 71.7758 43.0057 71.6131 44.3858C71.4246 45.9851 71.6333 46.5257 71.2537 47.7081C70.8769 51.949 70.4924 56.2063 70.1131 60.4519C70.0608 60.4349 70.0087 60.4159 69.9566 60.3965C69.9625 60.7355 69.9684 61.0746 69.9739 61.4136C69.9388 61.3592 69.9035 61.3074 69.8689 61.2531C69.8763 62.8436 69.8253 64.2558 69.6127 66.0937C69.6086 66.1296 69.5109 66.0251 69.5054 66.0547C69.4468 66.4681 69.4858 66.9397 69.4327 67.3025C69.305 68.1795 68.9342 69.6549 69.2792 69.0221C69.1625 69.9829 69.0725 71.0259 68.9854 72.0641L68.9537 72.4352L68.5876 72.5373C67.4513 72.856 66.3221 73.1761 65.3065 73.4211C64.4791 73.6208 64.1888 73.5244 63.7932 73.6216C63.398 73.7188 63.6359 73.8047 63.4979 73.8479C62.6686 74.1062 61.2883 74.4743 61.1006 74.3568C60.9491 74.4651 60.7881 74.5769 60.6344 74.6862C60.6873 74.4852 58.118 75.259 57.4377 75.4389C57.3134 75.4718 57.2755 75.4003 57.1821 75.4264C56.1415 75.7191 55.9188 75.9077 55.0359 76.1897C54.7261 76.2888 55.176 76.0226 54.3867 76.2989C54.3179 76.323 54.3879 76.4336 53.426 76.6936C51.8905 77.1087 48.9667 77.9529 47.1229 78.3889C46.9719 78.4249 47.3921 78.1697 46.7155 78.3861C46.4704 78.4642 46.6145 78.5254 46.0133 78.6893C43.6835 79.3252 41.1691 79.8917 38.8156 80.6256C38.8737 80.4966 39.6885 80.1486 38.4334 80.56C38.233 80.6261 38.4104 80.6791 38.3201 80.7073C38.2982 80.7141 38.2763 80.7208 38.2546 80.7274L38.1272 80.7629L37.9921 80.7284C37.2734 80.5619 36.6621 80.3342 35.875 80.1647C35.6353 80.1133 35.557 80.1719 35.257 80.1117C34.814 80.0231 34.6489 79.8666 34.1306 79.7782C33.3199 79.6403 33.1712 79.7083 32.2407 79.2532C26.6709 77.8007 21.1156 76.3977 15.5906 74.851C13.972 74.4851 12.4755 74.1583 10.798 73.7398C10.304 73.6164 10.2452 73.4575 9.44808 73.2952C9.26965 73.2587 7.97697 73.0724 7.86541 72.7532C7.51002 72.6847 7.28909 72.6274 6.98522 72.5628C7.2022 72.6625 7.42635 72.7645 7.63386 72.862C7.31899 72.7675 7.01645 72.6856 6.72198 72.612L6.30481 72.5054L6.26345 72.068C6.1734 71.1663 6.03822 70.3572 5.92773 69.4954C5.81932 68.6484 5.99181 69.2414 5.93419 68.7209C5.87695 68.2002 5.82927 67.9653 5.91571 67.3006C5.70551 66.8031 5.79181 66.4525 5.71371 65.5078C5.70525 65.4063 5.58982 64.8254 5.5598 64.334C5.53823 63.9806 5.63228 63.8671 5.56737 63.3086C5.55694 63.217 5.32563 62.0443 5.28105 61.6684C5.21127 61.0831 5.26205 60.1387 5.25373 60.025C5.13287 58.3735 4.94672 57.7491 5.0593 56.5588C4.91088 56.3333 4.7507 55.3623 4.69411 54.5714C4.6226 53.5725 4.709 51.5493 4.40914 51.3004C4.43119 50.1352 4.36627 50.2672 4.24421 48.8984C4.1329 47.6523 3.95016 44.3435 3.84666 43.3348C3.74356 42.3264 3.63305 42.8318 3.57752 42.4326C3.4861 41.7793 3.63034 42.1239 3.58948 41.6749C3.47365 40.4048 3.35552 39.3026 3.20015 38.0944C3.27398 38.0223 3.34777 37.9451 3.42138 37.8706C3.3894 37.8101 3.3574 37.75 3.32542 37.6895C3.30343 37.4286 3.27625 37.1363 3.25755 36.8946C3.08657 38.9633 3.11134 34.9237 3.01507 33.72C2.93365 32.7049 2.62053 31.0306 2.48746 29.9202C2.45505 29.6507 2.55721 29.8289 2.55039 29.7737C2.46889 29.1236 2.40156 29.0298 2.33298 28.1523C2.29689 27.6882 2.36313 27.2054 2.3257 26.7536C2.05037 23.4359 1.66258 20.2447 1.36302 16.9511C1.31205 16.3909 1.40117 15.896 1.36285 15.4248C1.308 14.7507 1.16328 14.3348 1.10635 13.7024C1.04966 13.0721 1.0988 12.1522 1.04176 11.7264C0.985118 11.3005 0.92449 12.043 0.890253 11.2574C0.874538 10.8966 1.02277 11.5234 0.986778 11.0789C0.874468 9.6917 0.58863 7.74523 0.570933 6.25966C0.548917 6.3273 0.531753 6.4185 0.512207 6.50052C0.385653 4.92711 0.330963 3.53208 0.198769 1.90805C0.174855 1.61289 0.117219 1.19659 0.0605784 0.786439L1.12195e-06 0.145753L0.651961 0.142376C1.0342 0.123961 1.41111 0.105925 1.68012 0.106629C2.24011 0.108113 2.49473 0.197299 2.94311 0.200622C3.12739 0.202187 3.0555 0.122563 3.17916 0.124415C4.72576 0.14839 5.57413 0.291519 7.19357 0.278529C13.127 0.231097 19.2452 0.192058 25.2707 0.150449C25.513 0.14881 25.6763 0.0455758 26.0301 0.0309397C26.5752 0.00827915 26.6017 0.0998645 26.6744 0.10323C27.1495 0.124291 26.9559 0.0391963 27.5935 0.040427C28.9974 0.0431371 31.262 0.122566 32.6611 0.118813C35.8859 0.110114 38.5969 0.0346475 41.7587 1.47105e-05C41.9867 -0.00277189 41.8319 0.119518 42.2271 0.121894C45.0126 0.140159 45.6025 0.0239254 49.0696 0.0636866C52.5369 0.103452 59.0812 0.190342 63.14 0.215114C63.14 0.215399 63.14 0.215684 63.14 0.215968C64.4182 -0.00820487 66.0712 0.0513559 67.4432 0.225372C59.5278 0.769088 51.956 0.505707 43.5035 0.511576C34.6194 0.517424 25.1479 0.905304 16.1452 0.832687C15.2989 0.825811 14.9592 0.696073 14.2463 0.72172C14.1258 0.726057 14.4376 0.826137 14.067 0.835513C9.68159 0.943755 5.04653 0.782831 0.65075 0.770102L0.685923 0.731796C0.746897 1.43744 0.811151 2.13656 0.880239 2.82694C1.01447 4.16846 1.14337 4.36938 1.2751 5.54799C1.20475 5.34491 1.13828 5.21392 1.06984 5.03742C1.37783 10.4431 1.92234 15.8359 2.37627 21.2994C2.39656 21.5458 2.29122 21.5868 2.30979 21.8456C2.34653 22.3631 2.50871 22.8478 2.55223 23.299C2.60895 23.888 2.53186 23.9975 2.58498 24.5405C2.61103 24.8055 2.68676 24.719 2.72313 25.2969C2.72615 25.3453 2.64219 25.3845 2.68691 25.7673C2.80965 26.8152 3.07004 28.9563 3.16774 29.8241C3.29253 30.9326 3.2398 31.8355 3.26805 32.2566C3.34434 33.3937 3.47604 33.3584 3.56005 34.3193C4.15861 41.16 4.57785 47.7128 5.19095 54.7153C5.22946 55.1553 5.52055 56.7693 5.58572 57.5838C5.60715 57.8569 5.69247 59.287 5.7079 59.501C5.77122 60.3692 5.74667 61.1265 5.76958 61.6064C5.81369 62.5371 6.04484 63.5612 6.10302 64.0648C6.20537 64.949 6.32445 66.5249 6.35336 66.8975C6.42304 67.7968 6.22319 67.5151 6.32013 68.1565C6.3489 68.346 6.46479 68.1348 6.52345 68.8061C6.57214 69.3686 6.49162 69.6049 6.5071 69.9905C6.52268 70.3761 6.73951 71.067 6.75653 71.3066C6.77502 71.571 6.78723 71.8046 6.79606 72.0214L6.80165 72.0806L6.85806 72.095C7.63283 72.3379 8.17121 72.5463 9.21371 72.8249C10.3108 73.1178 15.4051 74.3847 15.8365 74.4603C17.7683 74.7992 14.6018 74.0418 14.4257 73.9898C13.4748 73.7066 13.6311 73.6826 12.6439 73.5471C11.8824 72.9634 8.75262 72.7364 8.1001 72.1101C7.65294 72.149 7.26954 72.0828 6.89049 71.9718L6.92302 72.0103C6.90111 71.6421 6.9174 71.2642 6.90955 70.8476C6.88705 69.6553 6.79594 70.5728 6.71918 69.7082C6.68908 69.3674 6.73526 68.3681 6.67206 67.8577C6.60881 67.3476 6.48837 67.1408 6.42282 66.4555C6.3054 65.232 6.26669 64.2422 6.2985 63.2027C6.22822 63.0191 6.159 62.8479 6.08893 62.6667C6.08473 61.9515 6.07993 61.2335 6.07533 60.5183C6.03824 60.636 6.00076 60.7538 5.96367 60.8715C5.93869 60.6643 5.91404 60.4565 5.88946 60.2493C5.8998 59.5524 5.90762 58.8869 5.91869 58.1704C5.47816 56.2647 5.76245 56.8041 5.70409 55.7286C5.64572 54.6533 5.43408 54.0465 5.36085 53.2183C5.26213 52.1025 5.1977 51.5917 5.1106 50.4652C5.06004 49.8125 5.11527 48.6929 4.95397 49.6221C4.75675 47.5875 4.44598 44.8055 4.38447 42.9757C4.36596 42.4354 4.50442 43.1458 4.50583 43.0533C4.51053 42.593 4.35405 42.2193 4.33052 41.7468C4.29146 40.9618 4.25396 39.4294 4.22264 38.8113C4.17772 37.9219 3.89677 36.5421 3.87266 36.4006C3.73839 35.6095 3.8519 35.3848 3.82042 35.1297C3.64012 33.6778 3.55653 33.3612 3.79522 32.8779C3.64174 32.5114 3.30089 30.9495 3.47037 30.5501C3.28633 30.5563 3.20262 29.2422 3.08633 28.4395C3.12627 28.2851 3.16568 28.1281 3.20603 27.9737C2.73108 26.3188 2.67627 22.9454 2.5217 20.727C2.51765 20.6714 2.37168 20.5841 2.37348 20.248C2.37417 20.2267 2.43887 20.2556 2.42733 20.0313C2.38868 19.2923 2.29717 16.4677 2.27025 16.1442C2.17142 14.9529 2.05075 14.7537 1.97779 14.0299C1.88157 13.077 1.96201 12.9311 1.86945 12.0243C1.82629 11.5999 1.67077 11.2237 1.62953 10.5534C1.60497 10.1566 1.69713 10.109 1.67744 9.7947C1.60765 8.67633 1.4757 7.86199 1.51371 6.86078C1.18704 6.62889 1.36981 6.13601 1.34988 5.64371C1.28752 4.09175 1.06538 2.25584 0.91232 0.712013L0.650311 0.997361C1.09666 0.993018 1.51842 0.992219 1.90143 0.999173C7.25003 1.09701 11.9926 1.29442 17.2175 1.34686C18.0662 1.35535 18.271 1.20249 19.1608 1.21389C19.5608 1.21914 19.973 1.33091 20.6275 1.33378C21.1535 1.33639 21.9073 1.28143 22.5642 1.28308C22.7388 1.28341 22.7541 1.3875 23.0111 1.3888C24.9604 1.3986 26.8641 1.3284 28.8329 1.28138C29.5625 1.26388 30.0136 1.40262 29.8904 1.16245C30.1691 1.22186 30.4401 1.27365 30.7018 1.33223C31.7059 1.18293 32.5254 1.34212 33.8834 1.30602C34.0297 1.30169 35.0553 1.13778 35.6367 1.25862C35.678 1.17322 35.5879 1.10046 35.605 1.02308C36.1796 0.991527 37.0622 1.09196 37.4502 1.10282C37.8377 1.11363 38.0973 1.0031 38.2139 1.00224C38.6576 1.00027 38.5539 1.14611 38.5879 1.14859C40.6556 1.29251 40.438 1.21429 41.6871 0.997709C42 0.943074 44.1227 1.10761 44.5524 0.935488C44.5716 1.00607 44.4532 1.06793 44.4191 1.13519C45.0567 1.15457 45.6994 1.17444 46.3394 1.19383C46.2038 1.12581 46.0409 1.05767 45.9174 0.989272C47.224 1.05067 48.3109 0.893113 49.38 0.900371C49.991 0.904776 49.9162 1.05432 50.2751 1.02234C50.3454 1.016 50.2269 0.914637 50.4351 0.906924C52.135 0.844464 52.8795 0.952757 54.5816 0.976208C55.3792 0.987379 56.0776 0.804891 57.2217 0.928079C57.3262 0.939607 58.4484 1.10501 59.1423 0.872458C59.3628 0.94669 59.5573 0.985836 59.7221 1.04826C61.1267 0.703721 60.738 1.04329 62.6364 1.12762C63.6188 1.17143 66.9234 1.11696 67.9927 1.08193C68.6295 1.06055 68.6182 0.92404 68.7318 0.918798C69.4107 0.888654 69.411 1.02095 70.0388 1.00042C70.6668 0.979858 71.4605 0.831736 72.1054 0.846694C72.5995 0.858209 72.2097 1.02183 72.9394 0.965983C73.0906 0.95388 72.6591 0.813554 73.4286 0.869756C73.5498 0.878459 74.7792 1.03172 75.0313 1.06487C74.3837 1.15114 72.5067 1.2617 71.8011 1.29583C59.6496 1.8854 35.1742 1.84454 22.1998 1.74247C20.9949 1.73327 20.2073 1.58816 19.4218 1.57414C18.6362 1.56012 19.3001 1.69295 18.5873 1.68069C17.8745 1.66802 17.3552 1.57419 16.6885 1.56484C12.1934 1.50131 7.66441 1.43452 3.20565 1.40051C2.26454 1.39344 1.47707 1.46173 0.649368 1.48633L1.39943 0.669448C1.4219 0.857704 1.44228 1.04825 1.45935 1.24356C1.49493 1.65151 1.35869 1.67616 1.38522 1.96583C1.66898 5.08797 2.05361 7.96555 2.30896 11.0732C2.41481 12.3635 2.42088 13.7672 2.52167 15.0458C2.60445 16.0996 2.77895 17.1844 2.86332 18.131C2.90943 18.6449 2.82852 18.9251 2.83653 19.1118C2.86578 19.7616 2.97378 19.5241 3.00269 19.8551C3.08203 20.768 2.96744 21.2355 3.0542 22.0894C3.08835 22.4247 3.18288 22.3729 3.24079 22.8589C3.31409 23.4754 3.20342 23.2547 3.23874 23.6965C3.24066 23.7231 3.30339 23.6304 3.32668 23.8643C3.47687 25.37 3.69673 27.247 3.81898 28.7016C4.07211 31.7097 4.19608 34.69 4.41439 37.4942C4.46981 38.2026 4.54503 38.0067 4.56908 38.231C4.68448 39.3111 4.60865 39.7071 4.747 40.8364C4.76992 41.0244 4.96309 41.772 4.99426 42.4994C5.01114 42.8921 4.97082 43.3432 4.98146 43.6781C4.9921 44.0129 5.11331 44.0562 5.14839 44.4568C5.21254 45.1862 5.11323 44.9811 5.21886 46.0232C5.2612 46.443 5.49423 47.8366 5.58038 48.9194C5.72122 50.6887 5.81183 52.8889 5.99238 54.9736C6.05405 55.6887 6.25406 56.5966 6.35214 57.7052C6.47215 59.0602 6.6631 61.5594 6.78285 62.9484C6.8441 63.6586 6.72315 63.7209 6.72532 63.8059C6.73788 64.352 6.85885 64.1204 6.88515 64.4851C6.92121 64.9858 6.85861 65.4614 6.89146 65.9162C6.9124 66.2062 7.0197 66.2432 7.02599 66.3059C7.22726 68.275 7.37997 70.0521 7.55176 71.9554L7.05113 71.3614C7.38137 71.4473 7.71559 71.534 8.05565 71.6217C18.1169 74.2182 28.2715 76.7862 38.3319 79.4373L37.9052 79.4389C39.8774 78.9048 41.848 78.3752 43.8164 77.8517C44.8216 77.5842 44.8936 77.7001 45.7704 77.441C46.6474 77.1823 47.4258 76.6787 48.2328 76.7829C48.2398 76.7158 48.2257 76.6732 48.2342 76.6115C50.0803 76.2029 51.8794 75.6199 53.6596 75.1255C54.9771 74.7594 56.1501 74.4518 57.371 74.1278C58.4533 73.841 58.3887 73.9722 59.2868 73.5804C62.2693 72.8309 65.2602 72.0321 68.2425 71.2646L67.6724 71.9426C67.8558 70.2062 68.0476 68.4761 68.2606 66.76C68.1305 65.623 68.3765 64.5674 68.5539 63.0278C68.5759 62.8377 68.4718 63.0341 68.5313 62.47C68.6059 61.7614 68.77 61.4063 68.8734 60.2111C68.9006 59.8947 68.9733 57.5387 69.1275 56.6788C69.2816 55.8189 69.4412 54.5674 69.5952 53.6734C69.5276 53.7962 69.4592 53.9533 69.391 54.0906C69.4229 53.6407 69.4554 53.1883 69.4874 52.7384C69.5605 52.6794 69.6336 52.6203 69.7069 52.5638C69.6672 52.2971 69.6283 52.0304 69.588 51.7613C69.9851 51.2259 69.8188 51.7971 69.8486 50.5265C69.8638 49.8899 69.9705 49.3933 69.9957 48.7406C70.0045 48.5054 69.9169 48.3463 69.9278 48.0872C69.955 47.4518 70.0605 47.8334 70.096 47.4426C70.1312 47.0489 70.0301 46.4698 70.1637 45.7711C70.369 46.5324 70.4767 44.3968 70.2737 44.2758C70.2967 44.0225 70.3252 43.811 70.3451 43.5307C70.8577 43.8387 70.5997 42.4774 70.575 41.9442C70.5503 41.4114 70.6925 41.446 70.6983 41.3224C70.7154 40.9663 70.6317 41.219 70.6526 40.9704C70.793 39.3226 71.0246 37.7804 71.1831 36.1562C71.2058 35.9226 71.1052 36.1224 71.1384 35.8506C71.1717 35.5785 71.277 35.3246 71.3087 34.9208C71.3173 34.8125 71.2489 34.7719 71.2644 34.6034C71.5947 31.0714 71.9661 27.7232 72.3089 24.1218C72.3399 23.796 72.2363 23.5283 72.299 22.8986C72.3618 22.269 72.5651 21.3236 72.6464 20.5422C72.6681 20.3348 72.5673 20.2687 72.5956 19.9937C72.692 19.058 72.8529 18.2591 72.9571 17.2876C73.1329 15.6458 73.2276 13.9186 73.4447 12.2563C73.4856 11.9411 73.5693 11.9998 73.6365 11.5461C73.7523 10.7629 73.596 11.0472 73.5935 10.8863C73.586 10.3598 73.7725 10.2118 73.7751 9.70341C73.7754 9.62567 73.6636 9.72626 73.6684 9.65692C73.75 8.5833 73.9933 8.54906 73.9711 7.39764C74.2019 6.3969 74.0918 8.09394 74.1484 8.27449C74.2858 8.71538 74.5973 7.61234 74.7252 6.95701C74.8354 6.39266 74.725 6.38668 74.7459 6.15988C74.8566 4.95999 75.0011 3.17125 75.1378 2.26337C75.2203 1.71337 75.1739 2.71422 75.2362 2.43509C75.2982 2.15845 75.2323 1.96954 75.3492 1.69065C75.4662 1.41171 75.7864 0.850215 75.903 0.973026ZM39.7527 80.0865C41.422 79.1826 46.163 77.9442 48.713 77.2957C50.8282 76.7581 52.7318 76.5897 52.1693 76.2383C49.8916 76.8525 48.0628 77.399 45.651 78.0375C45.4002 78.1038 43.8949 78.4652 43.3733 78.5983C43.0797 78.6733 43.0493 78.5983 42.6517 78.707C42.5652 78.7308 42.1128 78.9623 41.9365 79.0071C41.3328 79.1612 39.5025 79.4906 39.2541 79.5627C38.5653 79.7637 38.8637 79.8122 38.5708 79.9151C38.3783 79.9825 38.2174 80.0309 38.0757 80.0677L38.1661 80.0674C37.5854 79.9078 37.3853 79.7395 36.5711 79.5759C36.3901 79.5395 35.7576 79.542 35.0244 79.327C34.7265 79.2394 34.2368 79.0232 34.006 78.9666C32.7483 78.6582 31.3222 78.3984 30.1803 78.0787C29.2443 77.8164 29.5291 77.761 29.0364 77.6138C28.5435 77.467 27.906 77.4505 27.5639 77.3692C27.0166 77.2389 26.3765 76.9845 26.2074 76.9413C22.8762 76.09 19.8948 75.4049 16.6783 74.5942C18.842 75.2233 21.0044 75.8472 23.1535 76.4745C24.4154 76.6715 23.7726 76.6291 24.571 76.8813C25.2029 77.081 25.4141 76.9077 26.2493 77.1529C26.2486 77.1527 26.2479 77.1525 26.2472 77.1523C26.6777 77.279 27.579 77.6747 28.5192 77.8558C28.5526 77.8621 28.6642 77.7727 29.3568 77.9508C30.9136 78.3514 33.3107 78.9213 35.0536 79.4055C35.5653 79.5476 35.43 79.6368 36.0335 79.8111C36.4738 79.9381 37.0154 79.9653 37.7027 80.172C37.8492 80.2162 37.9815 80.2614 38.1035 80.3055L38.1223 80.3103L38.1401 80.3053C38.7632 80.1952 39.1591 80.1858 39.5964 79.838C39.6705 79.9165 39.6699 80.0128 39.7527 80.0865ZM70.3283 52.2218C70.3504 52.0969 70.8027 50.4394 70.4401 50.9097C70.093 53.1617 69.9346 55.6165 69.6368 57.9923C70.025 57.2077 70.0292 55.8197 70.1609 54.1468C70.161 54.1461 70.1611 54.1454 70.1611 54.1447C70.1674 54.0657 70.2186 54.403 70.2453 53.9533C70.2582 53.7353 70.2101 52.8902 70.3283 52.2218ZM26.5829 60.0063C25.5095 59.9231 24.4482 59.7801 23.3714 59.541C23.126 59.4866 23.1637 59.4097 23.0644 59.3785C22.8819 59.321 22.5529 59.3525 22.5089 59.3447C22.236 59.2972 22.3679 59.1744 22.3321 59.1624C21.9332 59.0319 22.0222 59.2144 21.6281 59.1601C21.2349 59.106 20.7621 59.008 20.287 58.9123L19.5509 58.7904L19.5414 58.022C19.5447 57.8742 19.5478 57.7263 19.5496 57.5806C19.5529 57.3616 19.6625 57.4591 19.6533 56.9864C19.6468 56.6516 19.5219 55.6245 19.6554 55.1516C19.7058 55.1488 19.7614 55.2085 19.8134 55.2337C19.6033 54.5557 19.6126 54.3131 19.6638 53.3519C19.6718 53.1999 19.5855 53.0559 19.6174 52.788C19.6459 52.5484 19.7555 52.5142 19.7771 52.1235L20.3467 52.7848C20.3018 52.7756 20.2518 52.7668 20.1959 52.7585C20.0069 52.7311 19.8784 52.8068 19.5882 52.7674C18.7628 52.6556 17.2114 52.3054 16.5359 52.2001C15.2058 51.9927 14.4577 52.0426 13.2836 51.8105C13.1931 51.7929 13.4083 51.7211 13.2417 51.6941C13.0737 51.6669 12.8782 51.7754 12.8363 51.7724C12.8349 51.7723 12.8335 51.7722 12.8321 51.7721L13.7279 51.0005C13.7615 51.4541 13.5802 52.4041 13.6022 52.6547C13.6562 53.2657 13.7163 52.6636 13.7421 53.5104C13.7667 54.3167 13.5893 55.43 13.5546 56.2293C13.5143 57.1556 13.772 57.4542 13.503 58.1518C13.5159 60.1646 13.5247 62.184 13.535 64.2007L13.0868 63.6301C13.5125 63.7315 13.9382 63.8329 14.3637 63.9341C14.3442 63.9845 14.3237 64.0347 14.3028 64.0848C14.5 64.0947 14.6973 64.1045 14.8944 64.1148C14.8565 64.1466 14.82 64.1789 14.7822 64.2103C15.7036 64.2763 16.5111 64.3913 17.535 64.6844C17.555 64.6902 17.4766 64.7811 17.4927 64.7878C17.721 64.8642 18.001 64.8478 18.2011 64.9165C18.6848 65.0821 19.47 65.5135 19.1675 65.1462C20.3069 65.4845 21.685 65.7212 22.7712 66.0427C23.2412 66.1818 23.3437 66.3807 23.569 66.4456C23.7941 66.5104 23.7127 66.3411 23.7948 66.3554C24.2877 66.4423 25.0848 66.6427 25.1304 66.8211C25.2433 66.7818 25.3621 66.7432 25.4765 66.7038C25.3759 66.8647 26.8929 67.1578 27.2852 67.258C27.3569 67.2762 27.3482 67.3554 27.4026 67.3678C28.0092 67.5053 28.1863 67.421 28.7136 67.5072C28.8987 67.5373 28.5841 67.6039 29.0646 67.6592C29.1065 67.664 29.1145 67.5372 29.6713 67.6737C30.5601 67.8916 32.2728 68.2579 33.3168 68.5759C33.4023 68.6017 33.106 68.6698 33.5102 68.7356C33.6566 68.7596 33.6107 68.6488 33.9592 68.7329C34.2942 68.8135 34.633 68.9024 34.9744 68.9942L34.2839 69.5366C34.3091 68.4645 34.3548 67.3623 34.2854 66.2963C34.3947 66.348 34.5173 66.8529 34.4487 66.094C34.4374 65.9727 34.3398 66.0632 34.3362 66.0088C34.3079 65.5681 34.3777 65.1859 34.3402 64.7089C34.3289 64.568 34.2522 64.533 34.2341 64.3572C34.2071 64.0978 34.3164 63.983 34.27 63.6817C34.197 63.2104 34.0934 63.1376 34.2966 62.5532C34.2837 59.2414 34.2265 55.9449 34.316 52.6443C34.2579 51.6901 34.1931 50.8095 34.1709 49.8149C34.1644 49.5219 34.3031 49.4659 34.2572 48.9987C34.2471 48.894 34.0982 48.1475 34.3785 48.0387C34.3543 47.8309 34.3535 47.6996 34.3386 47.521C34.2975 47.6564 34.2559 47.796 34.2143 47.9258C34.2591 47.1724 34.1603 46.5573 34.1135 45.8904C34.0792 45.3995 34.1994 45.7481 34.1873 45.4468C34.1756 45.1455 34.1486 45.0085 34.2926 44.6318C34.1265 44.3361 34.243 44.1395 34.2474 43.5941C34.2478 43.5355 34.1834 43.1967 34.1963 42.9136C34.2055 42.71 34.3091 42.6496 34.2931 42.3263C34.2906 42.2732 34.1623 41.5895 34.1506 41.3718C34.132 41.0328 34.2648 40.4941 34.2664 40.4285C34.2898 39.4758 34.1587 39.1086 34.3745 38.432C34.2463 38.2953 34.1712 37.7307 34.1837 37.2746C34.1994 36.6984 34.4616 35.5431 34.1845 35.3855C34.3079 34.7187 34.2318 34.7911 34.2293 34.0004C34.2269 33.2806 34.3329 31.375 34.3176 30.7916C34.3027 30.2085 34.1486 30.4926 34.128 30.261C34.0938 29.882 34.2075 30.0867 34.2059 29.8273C34.2011 29.0935 34.1793 28.4558 34.1297 27.7555C34.2096 27.7179 34.2898 27.6774 34.3696 27.6383C34.343 27.6021 34.3164 27.566 34.2898 27.5297C34.2906 27.3791 34.2889 27.2102 34.2914 27.0707C33.9409 28.2479 34.3173 25.9337 34.3261 25.239C34.3334 24.653 34.1672 23.6777 34.1313 23.0346C34.1225 22.8785 34.2087 22.9858 34.2068 22.9537C34.1822 22.5771 34.1232 22.5199 34.1313 22.0135C34.1358 21.7457 34.2438 21.4723 34.2458 21.2115C34.2603 19.2961 34.1518 17.4475 34.1401 15.5447C34.1396 15.4712 34.1461 15.3999 34.1564 15.3306L34.8422 16.0164C34.6062 15.9814 34.3917 15.9022 34.1815 15.9C33.7924 15.896 33.5468 16.0039 33.1814 16.0056C32.8173 16.0072 32.2925 15.8782 32.0456 15.8979C31.7987 15.9173 32.2212 16.0423 31.7692 16.008C31.5616 15.9923 31.9283 15.8992 31.6717 15.8963C30.871 15.8875 29.741 16.0028 28.8886 15.8911C28.9263 15.9189 28.9777 15.9439 29.0237 15.9706C28.2368 15.9611 27.5293 15.9096 26.7446 15.8897L27.3037 15.3306C27.3006 15.4515 27.2983 15.5742 27.297 15.6994C27.2934 16.0272 27.3752 16.6185 27.3748 16.9407C27.3744 17.2629 27.2857 17.4095 27.2832 17.6675C27.282 17.7735 27.3615 17.7321 27.3599 17.8032C27.3389 18.6931 27.1974 19.1814 27.2135 20.1131C27.2724 23.5269 27.3233 27.047 27.3765 30.5138C27.3786 30.6532 27.4822 30.747 27.4975 30.9506C27.5212 31.2642 27.4297 31.2796 27.4264 31.3214C27.4063 31.5948 27.491 31.4833 27.491 31.8501C27.491 32.6579 27.4159 33.9609 27.4224 34.7659C27.4373 36.6213 27.518 38.181 27.5588 40.0002C27.562 40.1313 27.4394 40.0424 27.4378 40.2698C27.4249 41.8725 27.5423 42.2117 27.5092 44.2066C27.4761 46.2016 27.4019 49.967 27.3849 52.3023C27.3846 52.3023 27.3844 52.3023 27.3841 52.3023C27.6107 53.0375 27.5543 53.9886 27.383 54.7782C26.824 50.2246 27.0727 45.8678 27.0506 41.0046C27.0276 35.8931 26.6214 30.444 26.6766 25.2641C26.6819 24.7772 26.811 24.5816 26.784 24.1715C26.7794 24.1021 26.6799 24.2817 26.6698 24.0684C26.5373 21.2039 26.7511 18.1538 26.7019 15.3306L26.7024 15.2874L26.7446 15.2879C26.8087 15.2868 26.8727 15.2855 26.9366 15.2841C27.7122 15.2672 27.8338 15.1563 28.516 15.1276C28.396 15.18 28.3176 15.2349 28.213 15.2877C30.4168 15.4036 32.6228 15.4009 34.8422 15.3977L34.7751 15.3306C34.7764 16.2471 34.7778 17.1659 34.771 18.0878C34.7697 18.2301 34.6612 18.2483 34.6572 18.3975C34.6488 18.696 34.7681 18.9819 34.7722 19.2427C34.7774 19.5831 34.6911 19.642 34.6968 19.9559C34.6996 20.1091 34.7826 20.0633 34.7685 20.3965C34.7673 20.4243 34.6803 20.4426 34.6915 20.6642C34.7226 21.271 34.7956 22.5113 34.8174 23.0136C34.8452 23.6552 34.7141 24.17 34.7055 24.4129C34.6826 25.0684 34.8168 25.0548 34.8169 25.6098C34.8177 29.5606 34.6649 33.3376 34.6661 37.3819C34.6662 37.636 34.8157 38.5758 34.8097 39.0459C34.8073 39.2035 34.7678 40.0274 34.7645 40.1509C34.752 40.6517 34.6616 41.0845 34.6427 41.3607C34.6056 41.8964 34.7467 42.495 34.7608 42.7865C34.7858 43.2984 34.7673 44.2077 34.7637 44.4227C34.7548 44.9417 34.5802 44.7702 34.621 45.1427C34.6331 45.2527 34.767 45.1375 34.767 45.5252C34.7665 45.85 34.6657 45.9815 34.6476 46.2032C34.6295 46.425 34.7854 46.8319 34.7815 46.9701C34.7597 47.6928 34.6576 48.0126 34.6523 48.7994C34.6483 49.4527 34.7198 52.4728 34.7565 52.7239C34.9204 53.8484 34.8469 51.9756 34.8524 51.87C34.8843 51.2994 34.9472 51.3829 34.827 50.8138C35.1976 50.3045 34.6206 48.5299 35.0602 48.0751C34.7674 47.6049 34.915 47.2099 34.9739 46.7147C35.0552 46.0301 34.8846 46.5514 34.8834 46.0521C34.8831 45.8552 35.0161 45.2847 34.9975 44.989C34.979 44.6935 34.877 44.5689 34.8713 44.1728C34.8609 43.4657 34.9085 42.8964 35.0306 42.3022C34.9766 42.1934 34.9225 42.0918 34.8685 41.9845C34.9266 41.5743 34.9843 41.1625 35.042 40.7524C34.9948 40.818 34.9472 40.8836 34.9 40.9492C34.8932 40.8292 34.8867 40.7089 34.8802 40.5889C34.9512 40.1899 35.0169 39.8089 35.0903 39.3988C34.8174 38.2844 35.0536 38.6078 35.0891 37.9884C35.1246 37.3692 34.9665 37.0108 34.9657 36.5324C34.9645 35.8879 34.9448 35.5919 34.956 34.9419C34.9625 34.5652 35.115 33.9263 34.8734 34.4508C34.854 33.2747 34.7866 31.6646 34.8846 30.6127C34.9132 30.3021 34.9893 30.7162 34.9988 30.6633C35.0435 30.3997 34.9202 30.1776 34.9379 29.9056C34.9673 29.4537 35.0633 28.5735 35.0859 28.2176C35.1186 27.7056 34.9588 26.9007 34.9471 26.8184C34.8822 26.3582 35.0149 26.2351 35.0057 26.0873C34.9525 25.2461 34.8968 25.0604 35.1766 24.7954C35.0556 24.5776 34.852 23.6653 35.0557 23.4448C34.8718 23.4392 34.9028 22.6818 34.8568 22.2159C34.91 22.1294 34.963 22.0414 35.0166 21.9549C34.6875 20.9826 34.9266 19.0463 34.9657 17.767C34.9665 17.7349 34.8287 17.6775 34.8597 17.485C34.8623 17.4728 34.9242 17.4926 34.9322 17.3635C34.9537 17.0094 35.0645 15.8255 35.1018 15.3306L35.105 15.0742L34.8422 15.071C34.7424 15.0634 34.6706 15.0589 34.6393 15.0587C33.9515 15.0534 33.8313 15.1563 33.4128 15.166C32.8618 15.1789 32.7822 15.086 32.2578 15.0993C32.0123 15.1054 31.789 15.2275 31.4027 15.2103C31.174 15.2002 31.1514 15.1042 30.9702 15.0965C30.3257 15.0687 29.8523 15.1292 29.2804 15.0042C29.1311 15.3095 28.8578 15.0845 28.5746 15.0615C28.0045 15.0149 27.3649 15.0231 26.7446 15.0398L26.4575 15.0363L26.4538 15.3306C26.4709 15.9612 26.4967 16.5718 26.4827 17.069C26.3952 20.1465 26.2069 22.8754 26.1645 25.8817C26.1577 26.37 26.311 26.4876 26.3013 26.9996C26.2968 27.2298 26.1858 27.467 26.1842 27.8436C26.1826 28.1463 26.239 28.5799 26.2386 28.9578C26.2386 29.0583 26.1346 29.0672 26.1338 29.2151C26.1278 30.3367 26.2016 31.4319 26.2524 32.5646C26.2713 32.9844 26.1335 33.244 26.3734 33.1729C26.3145 33.3333 26.2633 33.4893 26.2052 33.6399C26.3564 34.2175 26.1988 34.6892 26.2375 35.4705C26.2422 35.5547 26.408 36.1446 26.2883 36.4792C26.3738 36.5029 26.4464 36.4509 26.5238 36.4607C26.5565 36.7913 26.4577 37.2992 26.4476 37.5225C26.4376 37.7454 26.5486 37.8947 26.5497 37.9617C26.5525 38.217 26.4065 38.1575 26.4041 38.1771C26.2641 39.3669 26.3419 39.2416 26.5609 39.9601C26.6162 40.1401 26.4557 41.3615 26.6287 41.6086C26.5581 41.6197 26.496 41.5516 26.4287 41.5321C26.4106 41.899 26.3919 42.2687 26.3738 42.6371C26.4415 42.5589 26.5094 42.4651 26.5775 42.394C26.5186 43.1458 26.6783 43.771 26.6731 44.3861C26.6699 44.7377 26.5202 44.6948 26.5529 44.9013C26.5593 44.9417 26.6605 44.8734 26.6686 44.9932C26.7343 45.9712 26.6275 46.3996 26.6073 47.379C26.5977 47.8379 26.7815 48.2396 26.6605 48.8979C26.6492 48.9581 26.486 49.604 26.7199 50.0029C26.6461 50.1299 26.6073 50.2418 26.5452 50.3367C26.8924 51.1445 26.5521 50.9212 26.4714 52.0136C26.4295 52.5788 26.4904 54.4801 26.5275 55.0953C26.5501 55.4617 26.6866 55.455 26.692 55.5204C26.7235 55.911 26.5912 55.9113 26.6129 56.2725C26.6347 56.6338 26.7844 57.0903 26.7706 57.4613C26.7601 57.7456 26.5957 57.5215 26.653 57.9413C26.6654 58.0283 26.8049 57.7798 26.7501 58.2227C26.7417 58.2924 26.5908 58.9999 26.5581 59.145C26.4706 58.7725 26.3564 57.6927 26.3209 57.2867C25.7079 50.2959 25.7015 36.2138 25.7786 28.7487C25.7854 28.0554 25.929 27.6021 25.9415 27.1502C25.954 26.6981 25.8225 27.0803 25.8334 26.6702C25.8447 26.26 25.9375 25.9612 25.9455 25.5775C26.0004 22.9912 26.0584 20.3853 26.0839 17.8199C26.0903 17.1544 25.9834 16.6226 25.9834 16.0171C25.9835 15.7815 26.1213 15.7742 26.1201 15.6069C26.1196 15.5144 26.1187 15.4223 26.1175 15.3306L26.1254 14.6959L26.7446 14.7035C28.4434 14.682 30.0326 14.5634 31.7346 14.5787C32.4795 14.5855 33.2844 14.7017 34.0223 14.7126C34.2943 14.7167 34.5708 14.7031 34.8422 14.6867L35.494 14.6948L35.4861 15.3306C35.5064 15.6661 35.5311 15.9939 35.532 16.2961C35.5332 16.593 35.4282 16.7496 35.4199 16.857C35.3925 17.2309 35.5208 17.1002 35.5208 17.2913C35.5203 17.8185 35.3655 18.0808 35.3776 18.5746C35.3824 18.7684 35.4811 18.7435 35.4965 19.025C35.5158 19.382 35.4248 19.2499 35.4215 19.5049C35.4211 19.5203 35.4917 19.4703 35.4945 19.6055C35.5131 20.476 35.5687 21.563 35.5638 22.4028C35.5542 24.1396 35.4182 25.8541 35.3916 27.4724C35.3852 27.8811 35.4771 27.7726 35.4816 27.9024C35.5025 28.5272 35.3925 28.7504 35.432 29.4047C35.4385 29.5135 35.5658 29.9517 35.5336 30.3702C35.5162 30.5962 35.4368 30.8527 35.4182 31.0452C35.3997 31.2376 35.5166 31.2685 35.5167 31.4999C35.5171 31.9212 35.4361 31.7986 35.4506 32.4012C35.4562 32.644 35.567 33.4544 35.5586 34.0794C35.5449 35.1006 35.4436 36.3662 35.442 37.5701C35.4412 37.9831 35.5614 38.5135 35.5626 39.1539C35.5642 39.9365 35.5369 41.3785 35.5353 42.1807C35.5345 42.5908 35.4086 42.6205 35.4033 42.6693C35.3683 42.9829 35.509 42.8563 35.5034 43.0666C35.4958 43.3554 35.392 43.6249 35.3851 43.8872C35.3807 44.0545 35.4844 44.081 35.4852 44.1173C35.5195 45.4593 35.5098 46.6452 35.5211 47.9788C35.5808 55.1314 35.7139 62.3523 35.6538 69.4909C35.6537 69.5066 35.6535 69.5218 35.6532 69.5366L35.6405 70.5787L34.6502 70.3245C34.1142 70.1827 34.1097 70.0545 33.6073 69.9527C33.0916 69.8477 32.5311 70.0017 32.1847 69.5964C32.1563 69.6542 32.147 69.6981 32.1199 69.7505C31.0851 69.407 30.0074 69.2388 28.9719 68.9981C28.2056 68.8201 27.5301 68.6451 26.8256 68.4664C26.2013 68.3075 26.2813 68.2142 25.7055 68.2211C23.0335 67.4778 20.3062 66.8356 17.6713 66.0402C16.9896 66.1153 16.4243 65.8255 15.5664 65.5808C15.4606 65.5504 15.555 65.6615 15.2397 65.5771C14.8435 65.4714 14.6683 65.2943 13.996 65.1379C13.8834 65.1117 13.3019 65.0301 12.7711 64.9255L12.1946 64.7774L12.2017 64.2007C12.1878 63.8869 12.1855 63.5879 12.2128 63.4039C12.287 62.9031 12.3305 62.1776 12.4015 61.6573C12.3454 61.7312 12.2918 61.8249 12.2366 61.9072C12.2269 61.6477 12.2176 61.3868 12.2079 61.1273C12.2752 61.0897 12.3426 61.0519 12.4104 61.0157C12.3463 60.865 12.2829 60.7143 12.218 60.5622C12.564 60.2344 12.4512 60.5705 12.3636 59.841C12.3201 59.4755 12.3805 59.1853 12.3455 58.81C12.3326 58.6748 12.2307 58.5883 12.2176 58.4393C12.1862 58.0738 12.3264 58.2868 12.3257 58.0611C12.3245 57.8337 12.1704 57.5072 12.239 57.0998C12.5136 57.5251 12.424 56.2959 12.2107 56.2373C12.2103 56.091 12.2192 55.9683 12.2131 55.8067C12.752 55.956 12.3696 55.1897 12.2958 54.8856C12.2221 54.5816 12.3668 54.5939 12.3612 54.5228C12.3455 54.3179 12.2853 54.4671 12.2833 54.3235C12.2712 53.3721 12.3596 52.4762 12.3677 51.5373C12.3688 51.4023 12.287 51.5221 12.295 51.3646C12.3009 51.2509 12.3449 51.1406 12.3668 51.0005L12.3752 50.3191L13.0337 50.426C13.086 50.4424 13.1431 50.4562 13.2076 50.4643C13.2696 50.4721 13.2997 50.404 13.396 50.4183C15.414 50.7238 17.3215 51.0714 19.3786 51.3889C19.5647 51.4176 19.7299 51.3132 20.0893 51.3715C20.2215 51.3929 20.3767 51.433 20.5423 51.4788L21.1045 51.5702L21.0976 52.1235C21.0618 52.4165 21.0137 52.7423 21.0081 53.028C21.0056 53.148 21.1121 53.1805 21.1093 53.3396C21.0996 53.8808 21.0129 54.347 20.9988 54.9091C20.975 55.859 21.0399 56.8536 20.9771 57.8175C20.9702 57.9246 20.9369 57.9589 20.9054 58.022L20.5264 57.5694C20.5664 57.5991 20.6207 57.6304 20.7262 57.6598C21.1664 57.7821 21.0206 57.6246 21.1143 57.6237C21.4207 57.6214 21.4837 57.8074 21.7783 57.815C21.8234 57.8161 21.7788 57.7045 21.8184 57.7099C22.4313 57.8012 22.4213 58.0423 23.0921 58.0316C23.6445 58.2698 22.6733 58.1442 22.5617 58.1984C22.289 58.33 22.8908 58.6491 23.2554 58.7821C23.5693 58.8967 23.5863 58.7875 23.7153 58.8105C24.3979 58.9318 25.418 59.0923 25.928 59.2365C26.237 59.3235 25.662 59.2677 25.8163 59.3321C25.9692 59.3962 26.0869 59.3329 26.2344 59.4513C26.3819 59.5698 26.6684 59.8921 26.5829 60.0063ZM34.5604 66.8979C34.7859 67.4483 34.8825 68.4696 34.9174 69.5366L34.9162 69.6332L34.8244 69.6097C33.8512 69.4059 32.8521 69.1409 32.1477 68.9486C30.936 68.6176 29.9638 68.0352 30.1008 68.5692C31.4187 68.8937 32.4969 69.1063 33.8879 69.4606C33.9888 69.4864 34.4347 69.618 34.7968 69.7229L35.0309 69.7829L35.0339 69.5366C35.0409 69.3732 35.0467 69.2262 35.0492 69.1325C35.0536 68.9582 35.134 68.9526 35.1332 68.7154C35.1328 68.6638 35.0278 68.3777 35.0306 68.2731C35.0399 67.9146 35.2011 66.8486 35.1964 66.6998C35.1827 66.2871 35.0578 66.4455 35.0351 66.2673C34.9601 65.6688 35.1477 65.6029 35.0868 65.01C35.0759 64.9039 34.9125 64.5524 34.9338 64.1129C34.9427 63.9343 35.0271 63.6302 35.0231 63.4935C35.0013 62.7485 34.8895 61.917 34.9081 61.2348C34.9234 60.6756 35.0496 60.826 35.0665 60.5302C35.083 60.2345 34.9367 59.8774 34.9282 59.6751C34.9149 59.3515 34.998 58.9581 34.9968 58.8577C34.9722 56.8795 34.8759 55.1203 34.8412 53.2119C34.7835 54.5079 34.7306 55.8024 34.6709 57.0901C34.8015 57.8211 34.679 57.4572 34.6383 57.9384C34.606 58.3192 34.8274 58.4113 34.8028 58.912C34.8028 58.9115 34.8028 58.9111 34.8028 58.9107C34.7899 59.1688 34.6367 59.7282 34.7008 60.2779C34.7032 60.2974 34.8181 60.3464 34.8221 60.7579C34.831 61.6828 34.8899 63.1 34.8653 64.1407C34.8581 64.4462 34.7374 64.384 34.7225 64.7453C34.7117 65.0089 34.8233 65.3142 34.7983 65.7269C34.7665 66.2445 34.5746 66.4928 34.8412 66.8485C34.746 66.8778 34.6532 66.863 34.5604 66.8979ZM12.9976 60.7868C13.0081 60.7141 13.3057 59.7405 12.9879 60.0292C12.85 61.3377 12.9185 62.7525 12.8411 64.1295C13.1553 63.6593 13.0314 62.8639 13.0084 61.8985C13.0084 61.8981 13.0084 61.8977 13.0084 61.8973C13.0074 61.8517 13.0895 62.0423 13.0746 61.7832C13.0673 61.6576 12.9415 61.176 12.9976 60.7868ZM41.7928 15.3403C41.8992 16.6444 41.9447 17.9467 41.8984 19.2881C41.8879 19.5938 41.8056 19.565 41.7923 19.6906C41.7677 19.9216 41.8565 20.3092 41.8565 20.3635C41.8576 20.7007 41.7136 20.5689 41.708 20.6143C41.6496 21.1203 41.8136 20.9747 41.8294 21.4584C41.85 22.0884 41.8206 22.8967 41.8125 23.6557C41.8093 23.9223 41.6997 23.8036 41.7089 24.3789C41.7154 24.7865 41.8403 26.0366 41.7068 26.6123C41.6564 26.6157 41.6008 26.543 41.5487 26.5124C41.7588 27.3376 41.7496 27.633 41.6984 28.8029C41.6903 28.988 41.7767 29.1632 41.7448 29.4892C41.7129 29.8151 41.5798 29.8289 41.5815 30.4843C41.5823 30.7167 41.6762 30.8578 41.6802 31.2142C41.6919 32.228 41.5754 34.1588 41.5713 34.9908C41.5633 36.6294 41.7234 37.521 41.6678 38.9762C41.6637 39.0883 41.5609 38.8421 41.5589 39.0475C41.5569 39.2547 41.6931 39.4705 41.6963 39.5214C41.7314 40.0715 41.5489 41.234 41.571 41.54C41.625 42.2838 41.685 41.5508 41.7109 42.5816C41.7354 43.5631 41.558 44.9182 41.5233 45.8911C41.5067 46.3561 41.5408 46.6911 41.5677 46.9839L40.8289 46.3386C41.2371 46.2445 41.5622 46.1765 42.0778 46.2661C45.0303 45.8498 47.9955 45.438 50.9518 45.0233C50.9506 45.0776 50.948 45.1321 50.9451 45.1866C51.174 45.1181 51.403 45.0496 51.6319 44.9815C51.602 45.0258 51.5738 45.07 51.5438 45.1139C52.5742 44.8256 53.5046 44.6196 54.7109 44.4866L55.4566 44.3778L55.4141 45.1428C55.409 45.1985 55.4037 45.2547 55.3981 45.3115C55.3957 45.3368 55.2933 45.2633 55.2892 45.284C55.2499 45.5742 55.3106 45.9052 55.2745 46.1598C55.1875 46.7753 54.8859 47.8105 55.2008 47.3667C55.0473 48.8047 55.0321 50.5053 54.8867 51.8758C54.8239 52.4689 54.6435 52.636 54.6151 52.9199C54.5868 53.2036 54.7412 53.0684 54.7401 53.1697C54.7324 53.7784 54.6609 54.7763 54.4918 54.8708C54.5485 54.997 54.6056 55.1304 54.6627 55.2583C54.5499 55.204 54.4895 55.9651 54.4509 56.6448L54.4356 56.922L54.1642 57.0121C53.8076 57.1302 53.4765 57.2453 53.3092 57.2974C53.2233 57.3241 53.1872 57.2528 53.1228 57.2743C52.4051 57.5154 52.2667 57.6898 51.6619 57.9272C51.4497 58.0106 51.7431 57.7702 51.2053 58.006C51.1584 58.0266 51.2224 58.1374 50.5577 58.3499C49.4967 58.6893 47.4829 59.388 46.2014 59.7347C46.0964 59.7633 46.3697 59.5324 45.9062 59.7146C45.7383 59.7804 45.85 59.8462 45.4347 59.9803C44.0292 60.4353 42.5153 60.8327 41.0788 61.3361L41.4474 60.8306C41.4532 61.0509 41.4616 61.2704 41.4733 61.4887C41.364 61.4258 41.2414 60.8112 41.31 61.735C41.3213 61.8826 41.4189 61.7724 41.4225 61.8386C41.4507 62.3751 41.381 62.8403 41.4185 63.4209C41.4298 63.5924 41.5064 63.635 41.5246 63.8489C41.5516 64.1648 41.4423 64.3045 41.4887 64.6712C41.5617 65.2449 41.6653 65.3335 41.4621 66.0448C41.4658 67.2101 41.4732 68.3738 41.4798 69.5366L40.797 68.9861C43.5882 68.3642 46.3747 67.7489 49.1795 67.2055C50.3022 66.9025 51.3359 66.6119 52.5143 66.3335C52.8615 66.2516 52.9575 66.3727 53.5036 66.2072C53.6259 66.1704 54.4824 65.8322 54.6713 66.0781C54.9133 66.0008 55.0693 65.9661 55.2785 65.9055C55.1088 65.9002 54.9339 65.8956 54.7707 65.8885C55.6764 65.7378 56.3872 65.4825 57.1705 65.2647C57.7472 65.1045 57.358 65.3119 57.7138 65.2224C58.0698 65.1332 58.227 65.0714 58.7056 65.1149C59.0221 64.8762 59.2807 64.9394 59.9304 64.8029C59.9633 64.796 60.0672 64.7589 60.2034 64.7153L59.7137 65.2902C59.7069 65.13 59.703 64.9283 59.7196 64.7468C59.7422 64.4998 59.8496 64.432 59.8548 64.0381C59.8558 63.9735 59.7725 63.1355 59.7751 62.8704C59.7788 62.4573 59.9467 61.8096 59.9526 61.73C60.0384 60.5734 59.9315 60.12 60.1913 59.3093C60.0722 59.1362 60.0343 58.4459 60.0767 57.8922C60.1301 57.1928 60.4677 55.8027 60.2013 55.5961C60.3683 54.7924 60.2875 54.8763 60.3369 53.9151C60.3816 53.0401 60.6124 50.7296 60.6353 50.0197C60.6586 49.3101 60.4862 49.6472 60.4808 49.3646C60.4715 48.9021 60.5716 49.157 60.587 48.8416C60.6303 47.9495 60.6504 47.1733 60.6467 46.3195C60.7289 46.278 60.8117 46.2331 60.8939 46.1899C60.8698 46.1444 60.8455 46.0991 60.8213 46.0536C60.832 45.8705 60.8415 45.6652 60.853 45.4958C60.4259 46.9077 60.9534 44.1152 61.0078 43.2713C61.0535 42.5595 60.9515 41.3651 60.9578 40.5815C60.9592 40.3913 61.0383 40.5263 61.0384 40.4873C61.0385 40.0282 60.9834 39.9555 61.0247 39.3404C61.0467 39.0152 61.1725 38.6887 61.1916 38.3718C61.2096 38.0724 61.2255 37.7743 61.2398 37.4772L61.8354 38.1057C59.8199 38.1175 57.8519 38.2012 55.8337 38.2114C55.4397 38.2134 55.0999 38.0816 54.7688 38.0787C54.2951 38.0747 53.9962 38.1826 53.5515 38.1843C53.1083 38.1859 52.4695 38.0569 52.1689 38.0766C51.8684 38.096 52.3827 38.221 51.8325 38.1867C51.5798 38.171 52.0261 38.0779 51.7139 38.075C51.0712 38.0692 50.2544 38.1173 49.475 38.1188L48.8718 38.1249L48.8655 37.5093C48.8648 37.1066 48.8765 36.7139 48.9145 36.3605C48.8867 36.4063 48.8617 36.4689 48.8351 36.525C48.8459 35.4195 48.9129 34.4429 48.9226 33.3018C48.9262 32.9027 48.8444 32.1831 48.8448 31.7909C48.8452 31.3987 48.9339 31.2202 48.9364 30.9062C48.9376 30.7772 48.8581 30.8276 48.8597 30.741C48.8807 29.6578 49.0222 29.0635 49.0061 27.9294C48.9864 26.541 48.9676 25.1381 48.9494 23.728L48.9441 23.2077L49.475 23.2023C52.285 23.1659 55.1236 23.1315 57.9335 23.0961C58.1031 23.094 58.2173 22.9904 58.4651 22.9751C58.8469 22.9514 58.8656 23.0429 58.9165 23.0462C59.2492 23.0663 59.1135 22.9816 59.5601 22.9816C60.1799 22.9816 61.0393 23.0114 61.8354 23.0319L61.1501 23.6057C61.2439 23.1484 61.3307 22.7119 61.3919 22.355C61.7741 20.1291 62.0283 18.246 62.3773 16.059C62.4022 15.9013 62.5039 16.0294 62.5541 15.7572C62.5907 15.5598 62.623 15.3783 62.6521 15.2088L63.3344 16.0236C61.8344 16.0334 61.2779 16.1249 59.0996 16.0952C56.6712 16.0621 52.088 15.9879 49.2454 15.9709C49.2454 15.9706 49.2454 15.9703 49.2454 15.9701C48.3506 16.1967 47.1929 16.1403 46.2318 15.969C51.7744 15.41 57.0775 15.6587 62.9971 15.6366C63.1094 15.6361 63.2218 15.6356 63.3344 15.6349L63.0348 15.2771C62.5613 18.0226 62.1461 20.8591 61.7267 23.7086L61.8354 23.6176C58.3864 23.7229 54.918 23.8255 51.5435 23.7959C50.9508 23.7907 50.7128 23.6616 50.2135 23.6886C50.1291 23.6932 50.3476 23.7927 50.0881 23.8028C49.8845 23.8105 49.6801 23.8171 49.475 23.8226L49.5696 23.728C49.6604 27.1141 49.4622 30.6829 49.5215 33.9844C49.5384 34.9286 49.6493 35.0766 49.678 35.9069C49.6256 35.7609 49.5707 35.6655 49.5179 35.5382C49.4896 36.195 49.4683 36.8519 49.4524 37.5093L49.4526 37.5321L49.475 37.5319C52.6109 37.6077 55.7551 37.5612 58.9291 37.5805C59.1023 37.5818 59.1245 37.6903 59.3061 37.6943C59.6694 37.7027 60.0175 37.5834 60.335 37.5793C60.7493 37.5741 60.821 37.6604 61.2031 37.6547C61.3895 37.6519 61.3338 37.5689 61.7393 37.583C61.7588 37.5837 61.7744 37.6127 61.8354 37.6352L61.7097 37.5025C61.6907 37.5467 61.6739 37.6158 61.6725 37.7306C61.6638 38.4698 61.6554 39.9812 61.6442 40.5929C61.6299 41.3743 61.4652 41.993 61.4408 42.2876C61.3749 43.0832 61.5099 43.0739 61.4735 43.7484C61.2154 48.5505 60.8153 53.1329 60.5514 58.0487C60.5348 58.3575 60.6224 59.5077 60.5856 60.0788C60.5729 60.2702 60.4795 61.2696 60.4681 61.4194C60.4228 62.0275 60.3042 62.5486 60.2672 62.8834C60.195 63.5324 60.2967 64.2676 60.2917 64.6227C60.289 64.8208 60.2792 65.0674 60.2666 65.32L60.3208 65.2564C59.7903 65.3738 59.2293 65.4858 59.0543 65.5213C58.435 65.6465 58.602 65.4317 58.1675 65.5676C58.0392 65.6079 58.2047 65.709 57.7435 65.809C57.357 65.8924 57.1793 65.8278 56.9116 65.8673C56.644 65.9069 56.193 66.1642 56.0278 66.1961C55.1635 66.3613 54.7615 66.344 53.8244 66.542C53.0464 66.7066 49.4691 67.5558 49.1782 67.6565C47.8753 68.1069 50.0875 67.5517 50.2142 67.5299C50.8997 67.4138 50.8137 67.4968 51.4653 67.2325C52.1496 67.4633 54.1383 66.4414 54.7725 66.7536C55.2696 66.3461 55.7708 66.3885 56.3724 66.3182C57.2039 66.2211 56.5477 66.1888 57.1414 66.0588C57.3756 66.0077 58.0824 65.9904 58.4301 65.896C58.7778 65.8016 58.9043 65.6697 59.3743 65.562C59.719 65.4828 60.0381 65.4192 60.3453 65.3694L60.3798 65.3623L60.3821 65.3262C60.4296 64.8826 60.498 64.4702 60.5928 64.0486C60.546 63.9134 60.4987 63.7871 60.4518 63.6536C60.5367 63.1583 60.6213 62.6609 60.7058 62.1655C60.6543 62.2426 60.6025 62.3199 60.5511 62.397C60.5521 62.2509 60.5535 62.1042 60.555 61.9581C60.652 61.477 60.7426 61.0174 60.8428 60.5229C60.6432 59.1537 60.8579 59.5595 60.934 58.8086C61.01 58.0578 60.8757 57.6137 60.9062 57.0322C60.9472 56.2488 60.9469 55.888 61.0008 55.0985C61.0319 54.641 61.2261 53.8726 60.9505 54.4972C61.0082 53.0667 61.0465 51.106 61.2133 49.8328C61.2622 49.4568 61.311 49.9643 61.3239 49.9004C61.3859 49.5824 61.2773 49.3059 61.3128 48.9763C61.3718 48.4286 61.5254 47.3639 61.5713 46.9326C61.6374 46.3121 61.5307 45.3251 61.5244 45.2244C61.4897 44.6616 61.6303 44.5191 61.6308 44.339C61.6328 43.3137 61.5893 43.085 61.8861 42.7779C61.7796 42.5067 61.6361 41.3869 61.8539 41.1299C61.6706 41.1131 61.7512 40.1943 61.7359 39.6255C61.7947 39.5232 61.8533 39.4191 61.9125 39.3169C61.8093 38.8496 61.8018 38.2091 61.8384 37.5094C60.7377 37.5081 59.4892 37.4097 58.5386 37.3858C58.4996 37.385 58.4298 37.5228 58.1955 37.4918C58.1806 37.4892 58.2047 37.4273 58.0475 37.4193C57.5296 37.3934 55.5534 37.2387 55.326 37.2374C54.4888 37.2321 54.3425 37.335 53.8331 37.3447C53.1624 37.3576 53.0655 37.2647 52.4273 37.278C52.1285 37.2841 51.8566 37.4063 51.3864 37.389C51.1081 37.3789 51.0805 37.283 50.86 37.2752C50.3384 37.2567 49.9089 37.2773 49.475 37.2564L49.7279 37.5093C49.7384 37.2905 49.7595 37.0707 49.8014 36.8374C49.4961 36.6557 49.7211 36.3229 49.7441 35.9783C49.8381 34.5791 49.7091 32.8352 49.7369 31.6347C49.8015 28.8701 49.921 26.3367 49.9962 23.728L49.475 24.2492C50.4011 24.2758 51.3365 24.297 52.2952 24.308C52.8896 24.3149 53.0328 24.1616 53.656 24.1713C53.9361 24.1758 54.2249 24.2868 54.6833 24.2884C55.0517 24.29 55.5795 24.2336 56.0395 24.2339C56.1618 24.2339 56.1727 24.338 56.3527 24.3388C57.7178 24.3448 59.0509 24.271 60.4297 24.2202C60.9407 24.2012 61.2567 24.3391 61.1701 24.0992C61.3654 24.1581 61.5552 24.2093 61.7386 24.2674C61.7711 24.2604 61.8034 24.2541 61.8354 24.2483L62.2657 24.2527L62.3476 23.8195C62.3474 23.1488 62.586 22.6183 62.7091 21.719C62.7225 21.6172 62.6854 20.8812 62.8748 20.5013C62.7958 20.4579 62.7132 20.5074 62.6391 20.4821C62.6776 20.0802 62.8835 19.489 62.9412 19.2232C62.9988 18.9578 62.9214 18.7595 62.9347 18.6789C62.9865 18.3725 63.1175 18.4694 63.1241 18.4465C63.5163 17.0453 63.413 17.1818 63.3511 16.2824C63.3433 16.173 63.4381 15.7787 63.5243 15.3645L63.5667 15.1401L63.3344 15.1377C62.8858 15.125 62.4167 15.1256 62.2619 15.2147C62.2484 15.1441 62.3312 15.082 62.355 15.0147C61.9084 14.9966 61.4584 14.9779 61.0101 14.9598C61.1051 15.0275 61.2193 15.0954 61.3059 15.1635C60.3908 15.1046 59.6298 15.2643 58.8811 15.2591C58.4531 15.2559 58.5053 15.1062 58.254 15.1389C58.2048 15.1453 58.288 15.2465 58.1421 15.2546C56.9517 15.3203 56.4302 15.2135 55.2381 15.1933C54.6795 15.1837 54.1907 15.3675 53.3892 15.2465C53.3161 15.2352 52.5299 15.072 52.0443 15.3059C51.8897 15.2321 51.7535 15.1933 51.638 15.1312C50.6548 15.4784 50.9265 15.1381 49.5969 15.0574C48.9088 15.0155 46.5946 15.0764 45.8458 15.1135C45.3998 15.1361 45.408 15.2726 45.3284 15.278C44.853 15.3095 44.8526 15.1772 44.4129 15.1989C43.9731 15.2207 43.4175 15.3704 42.9658 15.3566C42.6198 15.3461 42.8926 15.1817 42.3816 15.239C42.2757 15.2514 42.5781 15.3909 42.0391 15.3361C41.9542 15.3277 41.0931 15.1768 40.9164 15.1441C41.3699 15.0566 42.6842 14.9424 43.1784 14.9069C48.0906 14.553 55.8792 14.4013 63.3344 14.3511L64.514 14.363L64.2986 15.5027C63.7975 18.4234 63.2899 21.2894 62.8174 23.9033L62.6604 24.734L61.8354 24.7256C59.598 24.7207 57.5411 24.7089 55.7849 24.694C54.9411 24.6872 54.3893 24.5436 53.8392 24.5311C53.289 24.5186 53.7542 24.6501 53.2549 24.6392C52.7557 24.6279 52.392 24.5351 51.925 24.527C51.1095 24.5128 50.2924 24.4984 49.475 24.4844L50.2314 23.728C50.1913 26.0662 50.1546 28.407 50.1357 30.7207C50.1293 31.5307 50.2362 32.1781 50.2362 32.9151C50.2361 33.2018 50.0983 33.2107 50.0995 33.4145C50.1065 34.819 50.1633 36.1563 50.1991 37.5093L49.475 36.7852C50.2369 36.7651 51.0038 36.7516 51.7905 36.7574C52.6972 36.7643 53.6768 36.8804 54.575 36.8913C55.3153 36.9006 56.0828 36.8212 56.7483 36.8195C57.1096 36.8183 57.3002 36.9233 57.431 36.9316C57.8861 36.959 57.727 36.8307 57.9596 36.8307C58.6014 36.8312 58.9206 36.986 59.5217 36.9739C59.7576 36.9691 59.7272 36.8704 60.0699 36.855C60.5045 36.8357 60.3437 36.9267 60.6541 36.93C60.6728 36.9304 60.6119 36.8598 60.7765 36.857C61.1093 36.8512 61.4681 36.8417 61.8354 36.8316L62.5574 36.8389L62.5121 37.5458C62.491 38.3479 62.4707 39.1907 62.4296 39.8908C62.3061 42.0012 62.058 44.0778 61.9253 46.0432C61.8921 46.5397 61.9911 46.4128 61.987 46.5707C61.9669 47.3313 61.8424 47.5967 61.839 48.394C61.8384 48.5267 61.9368 49.0661 61.8772 49.573C61.845 49.8467 61.7489 50.1542 61.7177 50.3872C61.6866 50.6201 61.8014 50.6639 61.7863 50.9451C61.7591 51.4572 61.6862 51.304 61.6611 52.0372C61.6509 52.3325 61.7084 53.3235 61.659 54.0826C61.5784 55.3231 61.3943 56.8559 61.3138 58.3192C61.2859 58.821 61.3712 59.4722 61.3304 60.2506C61.2807 61.2019 61.1589 62.9532 61.1047 63.928C61.077 64.4265 60.9494 64.4557 60.9409 64.5148C60.8854 64.8941 61.0342 64.7478 61.0148 65.0031C61.0056 65.1243 60.9851 65.2421 60.9612 65.3575L60.9302 65.8409L60.4683 65.9363C60.2457 65.9504 60.0281 65.9505 59.823 65.9904C59.6231 66.0293 59.6135 66.1375 59.5705 66.1476C57.9814 66.5275 56.5688 66.824 54.9847 67.1792C50.3646 68.2148 45.725 69.2768 41.0857 70.317L40.108 70.5188L40.1179 69.5366C40.0977 66.6305 40.0855 63.7263 40.0909 60.8306L40.0971 60.2203L40.6641 60.0446C41.6912 59.7169 42.7179 59.3919 43.7441 59.0703C44.4392 58.8522 44.5052 58.9683 45.1085 58.753C45.7118 58.5381 46.2144 58.0802 46.8109 58.2161C46.8078 58.151 46.7925 58.1088 46.7912 58.0491C48.0777 57.7292 49.3092 57.2373 50.5377 56.831C51.4469 56.5302 52.2586 56.2802 53.1029 56.0163C53.454 55.9067 53.6336 55.8761 53.7875 55.8389L53.2214 56.564C53.2464 56.3865 53.2515 56.2365 53.1993 55.8718C53.5099 52.5108 53.7118 49.1063 54.0797 45.778C54.0239 45.5338 54.0036 45.295 54.0053 45.0502L54.9006 45.8856C54.3556 45.9924 53.7577 45.9943 53.0082 46.0716C52.8749 46.0853 53.0288 46.1507 52.6342 46.1969C52.1385 46.2551 51.8651 46.1603 51.0336 46.2804C50.8134 46.3123 49.2002 46.6772 48.5861 46.6855C47.9721 46.6939 47.0912 46.7694 46.454 46.7842C46.5508 46.8276 46.6709 46.8655 46.7776 46.9068C46.4659 46.9588 46.1525 47.0107 45.8408 47.0627C45.7863 47.0021 45.7318 46.9415 45.6789 46.8803C45.5058 46.9685 45.3325 47.0559 45.1578 47.1451C44.716 46.8559 45.1365 46.9127 44.2683 47.1188C43.8333 47.2217 43.4752 47.2093 43.0273 47.3054C42.8659 47.3403 42.7753 47.4554 42.5972 47.4927C42.1607 47.5836 42.3987 47.4098 42.1265 47.4475C41.8586 47.485 41.496 47.6828 41.0122 47.6904L40.1953 47.7927L40.2035 46.9839C40.2048 46.9729 40.2062 46.9618 40.2078 46.9507C40.2142 46.9629 40.2204 46.9739 40.2265 46.9839L40.2186 47.7666L41.0092 47.6676C41.1096 47.5864 41.0839 47.5467 40.9914 47.5363L40.3525 47.6164L40.3589 46.9839C40.4216 46.7348 40.3323 45.952 40.1794 45.9009C40.179 45.7228 40.1879 45.5735 40.1819 45.3767C40.7207 45.5584 40.3383 44.6257 40.2645 44.2555C40.1908 43.8856 40.3356 43.9005 40.33 43.8139C40.3142 43.5645 40.2541 43.7461 40.2521 43.5714C40.24 42.4133 40.3284 41.3228 40.3364 40.18C40.3376 40.0156 40.2558 40.1614 40.2638 39.9697C40.2719 39.7778 40.3533 39.594 40.3477 39.3104C40.3462 39.2343 40.2744 39.2104 40.2743 39.0919C40.2775 36.6075 40.3387 34.2487 40.348 31.7151C40.3488 31.4859 40.221 31.3059 40.2255 30.8628C40.2299 30.4196 40.3452 29.7472 40.3541 29.1971C40.3565 29.0511 40.2501 29.0115 40.2529 28.8179C40.2626 28.1591 40.3493 27.5917 40.3634 26.9074C40.3872 25.7512 40.3222 24.5406 40.3851 23.3674C40.3968 23.1449 40.4856 23.1805 40.5106 22.8597C40.5538 22.3061 40.4243 22.5145 40.407 22.4024C40.351 22.0357 40.523 21.9205 40.4788 21.5658C40.4719 21.5116 40.3699 21.5889 40.3683 21.5403C40.3505 20.7863 40.5897 20.7467 40.4614 19.9452C40.5989 19.2324 40.6458 20.423 40.7188 20.5452C40.8962 20.8438 41.1047 20.0545 41.1717 19.5893C41.2293 19.1886 41.1188 19.1915 41.1188 19.032C41.1184 18.1881 41.0974 16.9314 41.1498 16.2895C41.1813 15.9006 41.2273 16.6016 41.2636 16.4029C41.2998 16.206 41.2168 16.0785 41.3075 15.8765C41.3983 15.6744 41.6653 15.2622 41.7928 15.3403ZM41.0732 61.0762C42.172 60.266 45.4532 59.2602 47.2201 58.7365C48.6859 58.3024 50.0429 58.2191 49.5935 57.8526C48.0195 58.3546 46.7621 58.8095 45.094 59.3294C44.9205 59.3835 43.8749 59.6718 43.5135 59.7793C43.3101 59.84 43.2791 59.7656 43.0045 59.8546C42.9448 59.8742 42.6453 60.0806 42.5232 60.1168C42.1725 60.2212 41.2129 60.4091 40.811 60.5023L40.5742 60.5757L40.5717 60.8306C40.5651 60.9098 40.5615 60.9682 40.5623 60.9975C40.576 61.4999 40.7008 61.3071 40.7235 61.5239C40.7985 62.2524 40.611 62.3327 40.6719 63.0544C40.6828 63.1835 40.8462 63.6114 40.8248 64.1463C40.816 64.3637 40.7316 64.7339 40.7356 64.9003C40.7574 65.807 40.8691 66.8192 40.8506 67.6496C40.8353 68.3303 40.7091 68.1472 40.6921 68.5072C40.6759 68.8617 40.8176 69.2886 40.83 69.5366L40.8289 69.643L40.9348 69.6211C40.9385 69.6201 40.9422 69.6192 40.9458 69.6182C41.328 69.5217 41.8136 69.5014 41.9328 69.4743C44.2807 68.9398 46.3528 68.3916 48.6156 67.8652C47.0618 68.1433 45.5106 68.4257 43.9663 68.6996C43.1244 69.016 43.5313 68.8023 42.9503 68.8867C42.4904 68.9535 42.4278 69.1935 41.8271 69.2988C41.8276 69.2987 41.828 69.2986 41.8285 69.2984C41.6324 69.3326 41.2806 69.343 40.8864 69.3979L41.0584 69.5366C41.0757 69.3067 41.0814 69.0597 41.0579 68.8143C41.0554 68.7905 40.9406 68.731 40.9365 68.2301C40.9277 67.1043 40.8687 65.3793 40.8933 64.1125C40.9006 63.7406 41.0212 63.8164 41.0362 63.3766C41.0469 63.0558 40.9354 62.6841 40.9603 62.1818C40.9919 61.5586 41.1799 61.2561 40.926 60.8306L40.9194 60.8397C40.923 60.8356 40.9265 60.8315 40.9301 60.8273C40.9932 60.907 41.0044 61.0009 41.0732 61.0762ZM45.324 46.3359C45.2348 46.3373 44.0205 46.2017 44.4114 46.4694C46.0083 46.392 47.7056 46.0927 49.3768 45.9443C48.7675 45.7098 47.8248 45.9626 46.6635 46.1433C46.663 46.1434 46.6625 46.1434 46.662 46.1435C46.6071 46.152 46.8259 46.0395 46.5154 46.0966C46.3649 46.1243 45.801 46.3278 45.324 46.3359Z" fill="#FFD170"/>
</svg>
