<svg width="78" height="82" viewBox="0 0 78 82" fill="none" xmlns="http://www.w3.org/2000/svg">
<path d="M77.1584 3.81948C77.078 5.39397 76.8183 7.44358 76.5785 8.99732C76.5036 9.48429 76.3946 9.22411 76.337 9.55972C76.2245 10.2161 76.2322 10.8381 76.1106 11.4858C76.0696 11.7004 75.8855 11.4115 75.8474 11.6369C75.6398 12.8726 75.5841 14.0545 75.423 15.3108C74.629 21.4986 73.9856 27.5938 73.3085 33.869C73.0855 35.9381 72.6626 38.4394 72.5474 40.5873C72.5341 40.838 72.7314 40.7061 72.7421 40.755C72.9046 41.522 72.5571 41.2398 72.4629 41.722C72.0897 43.6361 71.8739 45.7829 71.7726 47.6488C71.73 48.4427 72.1678 47.6833 71.8895 48.4609C71.8706 48.5149 71.6944 48.2962 71.6535 48.5112C71.5612 48.9988 71.5096 49.9354 71.4589 50.3152C71.3601 51.0472 71.3508 51.169 71.2842 51.8638C71.1916 52.8135 70.9901 53.9346 70.9398 54.9581C70.9297 55.1766 71.1561 54.9071 71.1579 55.2572C71.1597 55.6077 71.0577 56.525 70.982 56.8304C70.9062 57.1359 70.7614 56.9895 70.7203 57.041C70.3749 57.464 70.6971 58.5658 70.6948 58.7035C70.6412 61.2134 70.2037 63.3294 69.9876 65.6701C69.8242 67.447 69.7274 69.3543 69.56 71.044C69.5219 71.4266 69.4815 71.7977 69.4398 72.1615L69.385 72.8961L68.6403 73.1123C67.126 73.4879 65.7306 73.7953 64.1983 74.2265C63.9986 74.2825 64.2949 74.4465 64.0511 74.5153C61.4608 75.2461 58.8747 75.9207 56.2469 76.4683C55.9833 76.523 56.2633 76.2325 55.9967 76.2753C54.3657 76.5412 51.7484 76.8274 51.0421 77.953C49.9582 78.2104 48.644 78.5291 47.635 78.6144C46.9845 78.6696 47.5276 78.2886 46.7913 78.588C46.6252 78.6553 46.9002 78.7854 46.6472 78.8718C45.5817 79.2356 44.3802 79.4949 43.3342 79.8843C43.1216 79.964 43.2275 80.1186 43.174 80.1662C42.722 80.5562 41.7453 80.3789 41.5486 80.4001C40.2728 80.5418 39.3398 80.8332 38.2625 81.1375L38.0507 81.199L37.8059 81.1392C37.6182 81.0919 37.4267 81.0428 37.2294 80.99C36.9187 80.9068 37.2259 81.2334 36.9248 81.1616C35.3639 80.7861 33.7612 80.3431 32.2682 79.8411C31.9363 79.7289 32.2987 79.6148 32.1427 79.5512C31.4543 79.2729 31.199 79.6013 30.5369 79.3415C30.3971 79.2873 30.5224 79.141 30.501 79.1156C30.1659 78.7183 29.7008 79.0339 29.5927 79.0151C28.2224 78.7866 27.4798 78.1339 26.1715 77.8543C26.0148 77.8213 26.3076 78.1252 25.8708 78.0194C22.9599 77.3159 19.913 76.4517 17.0916 75.5277C16.6529 75.3843 17.0129 75.3087 16.99 75.2816C16.6138 74.8544 16.2098 75.1879 16.0605 75.1651C14.8849 74.9749 13.9049 74.3482 12.9971 74.6331C10.8663 73.9917 8.71685 73.4389 6.57493 72.8737L6.01516 72.737L5.95167 72.1342C5.71101 69.3595 5.49277 66.5894 5.5032 63.805C5.50293 63.7415 5.72147 63.8362 5.72003 63.7096C5.70483 62.1846 5.40594 62.5038 4.92172 61.5362C4.80006 61.2924 5.21182 60.4825 5.24098 60.4114C5.3487 60.1525 5.68157 60.3822 5.69938 60.2971C5.83614 59.5939 4.81926 59.7954 4.73806 58.8699C4.73724 58.8408 4.93683 58.9458 4.94883 58.8665C4.98673 58.6201 4.89073 58.3873 4.93514 58.1455C5.03843 57.5918 5.52047 57.3557 5.158 56.5555C5.11119 56.4543 4.54277 56.6648 4.49807 55.8361C4.48075 55.5056 4.34335 54.0483 4.34538 53.6363C4.3474 53.2249 4.55956 53.4887 4.56514 53.4589C4.71719 52.3374 4.85648 52.7455 5.17572 52.1623C5.49358 51.5794 4.63398 51.8085 4.51691 51.5924C4.4001 51.3758 4.53438 50.5516 4.58824 50.3472C4.64214 50.1429 4.78297 50.3795 4.80788 50.1999C4.96911 49.0092 4.32979 49.7252 4.15761 49.3526C3.75028 48.4741 4.33593 47.711 4.3268 46.875C4.3243 46.6488 4.19287 46.8451 4.1616 46.6462C4.03969 45.8583 4.20005 45.3641 3.93605 44.4787C3.89298 44.3338 3.44007 43.639 3.68448 43.1422C3.71983 43.0718 3.89775 43.2476 3.90437 42.9067C3.91452 42.3974 3.87035 41.4853 3.76903 40.9476C3.69414 40.5507 3.46842 41.0329 3.50696 40.5217C3.52426 40.2945 3.71605 40.696 3.73557 40.2703C3.75528 39.8468 3.65493 38.7771 3.61397 38.3703C3.57296 37.9643 3.39076 38.2044 3.37431 38.1727C3.27912 37.9807 3.11371 37.2091 3.10793 37.1401C2.77944 33.6647 2.83911 30.4282 2.43075 27.0521C2.399 26.7872 2.20182 26.9828 2.19479 26.9425C2.02621 26.0407 2.65423 26.7085 2.78794 26.0565C2.36446 26.186 2.40981 25.8041 2.3065 25.1675C2.25636 24.8607 2.10398 25.0435 2.08441 25.0168C1.79063 24.5811 2.09055 24.2336 2.15043 24.1456C2.37059 23.8208 2.05031 23.5163 2.19715 23.2955C2.34277 23.075 2.62683 23.5284 2.57003 22.9142C2.40051 22.7554 2.03672 23.2468 1.93053 22.786C1.52925 21.0473 1.55882 17.7336 1.46804 16.3153C1.37748 14.8999 1.30911 14.4461 1.29301 13.6181C1.26402 12.1225 1.01215 12.6935 0.794395 11.7823C0.576421 10.8684 1.35263 11.2541 1.49941 11.1072C1.64633 10.9627 1.47087 10.8343 1.54371 10.6641C1.61658 10.4945 1.75493 10.8358 1.75431 10.452C1.75365 10.0679 1.38088 9.05029 1.20344 8.92966C0.827577 8.67468 0.500325 9.1765 0.541591 8.15652C0.544202 8.09784 0.754411 8.26917 0.754583 8.04534C0.749579 6.26801 0.598662 4.43429 0.576612 2.66065C0.573883 2.41674 0.808365 2.61457 0.809215 2.47241C0.818544 1.02291 0.514445 1.52578 0.0569243 0.825724L1.04308e-05 0.285336L0.561278 0.276443C0.577201 0.267954 0.593688 0.259444 0.610771 0.250918C0.428294 0.789905 0.874505 1.12074 1.99343 1.12608C2.66606 1.12948 2.5507 0.893705 2.98608 0.728524C3.11669 0.678729 3.59233 0.841388 3.67878 0.730776C3.96388 0.369205 3.51635 -0.0370304 4.66969 0.12661C4.72027 0.134379 4.55874 0.332287 4.7336 0.344629C5.86394 0.425386 5.99993 0.0468746 7.22201 0.00336272C8.17991 -0.0307812 9.88299 0.203477 10.9735 0.243147C10.9494 0.849476 11.9798 0.712612 12.3985 0.295335C13.1063 0.313818 13.8708 0.291658 14.5548 0.350767C14.7902 0.370923 14.6352 0.546185 14.6649 0.565212C15.1196 0.863664 15.4281 0.457509 15.5809 0.441858C17.237 0.290044 18.5855 0.60093 20.1663 0.302698C20.2224 0.291955 20.3141 -0.129075 20.7359 0.179286C20.7632 0.200538 20.2409 0.391171 20.9843 0.407426C21.7277 0.423713 23.1289 0.652215 24.1614 0.459029C24.4113 0.412523 25.0437 0.0718088 25.5503 0.339944C25.6178 0.376352 25.5436 0.497012 25.641 0.564423C25.9558 0.779229 26.1287 0.353827 26.4985 0.716225C26.8684 1.07861 27.6385 1.35096 28.6799 1.10343C28.7131 1.09624 28.9602 0.75928 29.2875 0.765247C29.8101 0.775063 30.5518 0.846789 31.0974 0.845645C31.3587 0.844975 31.1918 0.635121 31.2372 0.631376C32.994 0.517353 34.2439 0.706561 36.1255 0.791262C36.4705 0.807204 37.4624 0.52339 38.1298 0.750575C38.8626 0.999275 38.1071 2.02649 39.7931 1.78467C40.4731 1.68796 41.3363 0.384567 42.5567 1.06307C44.9265 0.900101 47.117 1.25038 49.4935 1.01573C49.6004 1.00534 49.939 0.641761 50.1902 0.647203C50.5631 0.655987 50.7675 0.826617 51.0337 0.838345C52.1494 0.891776 53.1707 0.748099 54.2465 0.77283C54.6549 0.781849 54.5117 0.957595 54.9988 0.968373C55.4857 0.978987 55.8107 0.747827 56.4703 0.861045C56.9683 0.947335 57.4656 1.42206 58.1269 1.47856C58.153 1.01129 58.6072 1.02179 59.4147 0.899992C59.57 0.876357 59.4039 0.713384 59.4773 0.693814C59.7762 0.61056 60.0525 0.745896 60.3363 0.655189C60.4054 0.633405 60.4089 0.47382 60.4654 0.447003C60.9456 0.2129 61.7352 0.573411 61.8708 0.636178C62.3906 0.874561 62.6341 0.667463 63.033 0.761711C63.4312 0.855947 62.8353 0.971639 63.3005 1.02926C64.2649 1.14843 65.5043 1.12505 66.484 1.13428C66.8749 1.13697 66.6086 0.923428 66.6646 0.918867C67.4729 0.866396 68.2899 1.09458 68.7389 0.6711C69.2972 1.76937 69.2265 0.56562 70.3814 0.787491C70.4724 0.805431 70.5872 1.32451 70.2376 1.40001C69.8881 1.47543 69.3586 1.31222 68.8736 1.43003C68.7587 1.45767 68.1002 1.9426 68.0104 1.97188C67.3071 2.2007 67.209 1.42515 67.1719 1.38249C66.7511 0.922101 65.9465 1.44434 65.7348 1.48012C64.7664 1.64409 63.9441 1.53346 63.1342 1.65027C62.6045 1.72576 62.5517 2.23354 62.1358 2.21719C60.7536 2.16314 60.2724 1.45371 58.9685 2.06551C58.689 2.19599 58.9655 2.75163 57.9655 2.31321C57.9026 2.28557 57.1603 1.88482 56.7305 2.13657C56.6765 2.16831 56.6779 2.33009 56.6068 2.34355C56.1301 2.43053 55.8125 2.30104 55.2932 2.36176C54.774 2.42249 54.1496 2.5133 53.5569 2.45729C53.1998 2.42379 52.7421 2.12149 52.5712 2.04737C52.0888 1.83385 51.5704 2.1814 51.2718 1.9234C50.9707 1.6641 51.5611 1.27233 50.7705 1.10365C50.7404 1.5239 50.6723 1.95517 50.6243 2.37778C48.891 2.35963 47.1857 2.22043 45.4465 2.23564C45.2308 2.23795 45.4509 2.46433 45.2197 2.47263C44.2444 2.50665 43.393 2.34392 42.3815 2.40612C41.5985 2.45512 40.7396 2.69271 39.9209 2.7514C39.4219 2.26949 38.2068 2.43042 37.3245 2.38476C37.0154 2.36898 37.0364 2.24056 36.8166 2.19823C35.9876 2.04165 36.3754 2.46741 36.1479 2.53386C35.172 2.81743 35.0903 1.85528 33.9402 1.87683C33.8793 1.87764 33.1336 2.38899 33.0309 2.42072C32.3788 2.62769 32.9234 2.24204 32.5156 2.20336C31.771 2.13268 31.2537 2.00923 30.3796 2.15773C30.1248 2.20173 29.513 2.52016 29.0187 2.27199C28.9536 2.23949 28.9899 2.07007 28.9376 2.06004C27.9896 1.89275 27.9636 2.42528 27.4214 2.6046C26.879 2.78388 26.0426 2.41463 25.8725 2.30834C25.4273 2.03337 26.2142 2.19185 26.2384 2.165C26.5225 1.84543 25.9119 1.89937 25.4454 1.87142C25.3789 1.34909 24.7265 1.37918 24.9619 1.84454C24.9887 1.89538 25.3518 1.84738 25.4454 1.87142C25.035 2.38297 24.3179 2.4472 23.5269 1.9669C23.1567 1.74179 23.5076 1.48083 22.3814 1.57437C21.8703 1.61659 22.067 1.97652 21.6159 2.07368C20.5851 2.29535 19.2469 1.95736 18.1846 2.00816C17.7991 2.0266 18.1742 2.22415 17.9107 2.24353C17.2114 2.29559 16.5951 2.14673 15.8927 2.22102C15.829 2.228 15.9841 2.43433 15.7657 2.43654C14.1102 2.45727 12.669 2.32252 10.9406 2.31553C10.1055 2.31224 8.61219 2.42299 7.74711 2.39848C6.24779 2.3572 4.40382 2.05405 3.12278 2.12435C2.28727 2.16933 2.47015 2.37576 2.11192 2.51547C1.67209 2.68778 1.01754 2.55217 0.557158 2.41118L2.18356 0.639895C2.12669 0.90924 2.06242 1.11553 2.04028 1.17757C2.03823 1.1828 1.92725 0.470872 1.85527 0.862212C1.6551 1.10358 2.03862 1.16958 2.04028 1.17757C2.00111 1.28953 2.07952 2.72423 2.14359 3.00487C2.17852 3.15736 2.36548 3.05401 2.38001 3.13382C2.72123 5.03161 2.93812 6.94362 3.01672 8.89177C3.01577 8.92626 2.79372 8.89383 2.79421 8.97472C2.79563 10.1064 3.12462 10.8024 3.36358 11.715C3.60246 12.6274 3.61375 13.3666 3.28817 13.9475C3.39627 14.6423 3.31876 15.6594 3.26899 16.2451C3.21922 16.8309 3.64976 16.8744 3.66256 16.9244C4.06889 18.4844 3.90647 19.4209 4.0123 21.067C4.06188 21.8496 4.25868 23.3935 4.37889 24.2351C4.47459 24.9001 4.41052 25.3114 4.5278 25.9217C4.54355 26.0042 4.72476 25.9036 4.73424 25.9284C5.0199 26.5959 4.53007 26.3059 4.46014 26.455C4.2057 26.9956 4.07402 27.3274 4.29177 28.1952C4.34176 28.3954 5.05717 28.9287 5.12832 29.2953C5.21961 29.7722 4.96583 29.6114 5.06748 30.1101C5.07596 30.1528 5.22195 30.131 5.24265 30.4425C5.34065 31.8882 5.39274 33.4691 5.5385 34.9676C5.55785 35.1723 5.7677 34.8893 5.79949 35.1848C5.94845 36.5713 6.07286 38.0944 6.08213 39.4571C6.08368 39.7925 5.90243 39.598 5.86035 39.6745C5.60629 40.144 6.08679 40.7363 6.10397 40.8394C6.52493 43.299 6.30555 45.2287 6.70953 47.7378C6.7323 47.8743 7.2809 48.8925 6.93094 49.3987C6.90773 49.4333 6.5483 49.9353 6.85804 50.3243C6.8774 50.3485 7.05802 50.0395 7.0814 50.5491C7.10482 51.0588 7.31384 51.8641 7.14844 52.582C7.09643 52.8092 6.74282 53.3664 7.11869 53.9979C7.14466 54.0389 7.95323 54.9937 7.48846 55.4004C7.41187 55.4664 6.88106 55.4507 7.21921 56.214C7.28457 56.3597 7.37792 56.0766 7.48571 56.4662C7.65153 57.0632 7.58106 57.8795 7.8803 58.605C7.9331 58.7315 8.33812 59.2541 8.10625 59.7219C8.06994 59.7952 7.88297 59.6783 7.88384 59.9146C7.88715 61.0384 8.10656 62.1962 8.08416 63.3394C8.07657 63.7443 7.77507 63.564 7.73562 63.9888C7.6962 64.4137 7.69675 65.2627 7.86458 65.689C8.03247 66.1154 8.44264 65.5977 8.53611 66.2503C8.80377 68.1199 8.88708 69.9939 8.97285 71.8702L7.34682 69.9409C8.27566 70.227 9.20531 70.5127 10.1442 70.7736C10.5526 70.8871 10.2541 70.6407 10.8589 70.7966C13.0887 71.371 16.972 72.2357 18.8164 73.0778C20.2942 73.7524 18.2924 73.4431 19.4468 73.8632C20.0041 74.0653 20.7559 73.7178 20.898 73.738C22.2872 73.9292 23.1633 74.4014 24.3933 74.651C24.6473 74.7025 24.4563 74.4311 24.6719 74.4772C25.4087 74.6328 26.149 74.9263 26.8485 75.0924C27.1624 75.1664 27.1465 74.9934 27.4303 75.0811C28.1096 75.2891 28.6993 75.5153 29.3297 75.8394C29.3871 75.869 28.9241 75.9571 29.4301 76.0981C30.2493 76.3258 31.2313 76.7403 32.2169 76.8385C32.5095 76.867 32.6154 76.509 33.1531 76.917C33.266 77.0024 32.9905 77.3932 33.7917 77.2038C33.9263 77.1727 35.2397 76.9783 35.7333 77.4563C35.8636 77.5822 36.1604 78.0395 36.5125 78.0726C36.5606 78.0757 36.4283 77.8337 36.7129 77.8883C37.3181 78.0068 37.9325 78.1604 38.5508 78.3088L37.4966 78.3127C37.8967 78.1948 38.2972 78.0741 38.6911 77.9415C38.9564 77.8518 38.5002 77.7606 38.8974 77.6332C39.9897 77.2827 41.3844 76.9593 42.483 76.7287C42.8881 76.644 42.6574 76.8846 42.6913 76.8948C43.2375 77.0618 43.4059 76.5908 43.5545 76.5257C44.4801 76.1262 45.2639 76.1135 46.1383 75.8235C46.3798 75.744 46.1548 75.6022 46.199 75.5721C46.6602 75.2704 46.3754 75.7118 46.7057 75.6624C47.6313 75.5251 48.627 75.2388 49.5274 74.9687C49.8581 74.8692 49.4242 74.7517 49.7217 74.665C51.481 74.1474 53.3263 73.6695 55.086 73.322C55.4174 73.257 55.2586 73.4811 55.3368 73.5013C55.877 73.6441 56.4618 73.0909 56.6099 73.0131C57.2827 72.659 57.6014 72.7328 58.2263 72.5334C61.1862 71.5865 64.8888 70.6779 67.785 69.9582L66.1857 71.8602C66.1963 71.7677 66.2067 71.6761 66.217 71.5853C66.6611 67.6716 67.1084 64.6443 67.4116 60.9011C67.431 60.6632 67.1774 60.8814 67.1912 60.6761C67.3803 58.026 67.7118 55.4304 67.8903 52.774C67.9054 52.5561 67.6569 52.8492 67.6737 52.4987C67.7066 51.7796 67.8025 50.8738 67.9396 50.1563C68.006 49.8064 68.1505 50.2974 68.2135 49.9448C68.3608 49.1237 68.4585 48.2381 68.502 47.3848C68.5201 47.0216 68.2451 47.5466 68.286 47.0762C68.5603 43.8713 68.8129 40.7221 69.4032 37.5124C69.4437 37.2924 69.9179 37.1399 69.8741 36.66C69.7508 36.6128 69.6017 36.6009 69.4678 36.5729C69.8266 31.9036 70.412 27.3032 70.8693 22.6298C70.8885 22.4328 70.6153 22.7511 70.6513 22.3695C70.8594 20.1609 70.991 18.0096 71.4404 15.7723C71.4847 15.5503 71.8993 15.7047 71.8961 15.0381C71.8952 14.9205 71.9306 13.9202 71.8621 13.6544C71.8514 13.6181 71.6361 13.7813 71.66 13.4601C71.8024 11.594 72.0285 9.64553 72.322 7.79666C72.3697 7.4983 72.5515 7.83756 72.5873 7.62523C72.84 6.11888 72.832 4.45423 73.1581 3.02268C73.3771 2.06453 73.7092 2.45752 74.1166 1.9753C74.1741 1.90709 74.2377 1.3071 74.4498 1.29541C74.9834 1.26437 75.5326 1.60868 76.1045 1.54121C76.2276 1.52717 76.172 0.710595 76.4198 1.21395C76.4362 1.24904 76.4791 1.8413 76.5648 1.99413C76.624 2.10049 76.8535 1.93995 76.9223 2.15214C76.991 2.36431 76.7918 2.57203 76.8635 2.9199C76.9364 3.26774 77.1922 3.14145 77.1584 3.81948ZM3.04819 18.8822C2.89149 19.4342 3.64328 19.448 3.41457 18.8857C3.40263 18.8586 3.05576 18.8538 3.04819 18.8822ZM47.1965 1.65644C46.496 1.32528 46.0153 1.8093 46.5094 2.06496C47.0035 2.32035 47.4099 1.75683 47.1965 1.65644ZM54.4672 1.42969C53.6483 1.16807 53.5172 2.22814 54.3953 2.01549C54.4463 2.00347 54.515 1.44488 54.4672 1.42969ZM73.9977 4.37545C74.0082 4.36899 74.0578 3.93806 74.049 3.92683C73.8338 3.675 73.7348 4.5367 73.9977 4.37545ZM61.6821 1.18147C61.4266 1.03754 60.6898 1.20169 61.0072 1.38066C61.2628 1.52464 62.0003 1.3605 61.6821 1.18147ZM4.68844 46.8208C4.67808 46.8302 4.69515 47.1408 4.75735 47.1291C4.9576 47.0904 4.8629 46.6644 4.68844 46.8208ZM73.9439 1.19293C72.1324 1.14952 71.0356 0.271523 73.0083 0.374165C73.3655 0.392736 72.2378 0.651988 72.6923 0.731831C73.5241 0.877298 74.0776 0.328423 74.9262 0.624753C75.0798 0.678988 74.0472 1.19735 73.9407 1.19414C73.9417 1.19373 73.9428 1.19333 73.9439 1.19293ZM2.18035 19.268C2.17144 19.2796 2.19956 19.7092 2.21023 19.7186C2.467 19.9301 2.41048 19.0647 2.18035 19.268ZM5.80715 64.9345C5.78822 64.96 5.85554 65.9567 5.87772 65.9875C6.30979 66.4728 6.17484 64.4575 5.80715 64.9345ZM10.9907 0.259354C11.4608 0.0214497 12.0226 -0.00558329 12.3964 0.295026C11.9297 0.278206 11.4599 0.274954 10.9907 0.259354ZM24.7031 61.3577C23.7994 61.2627 22.6421 60.9856 21.77 60.733C21.4967 60.6542 21.661 60.5489 21.4733 60.4885C21.1063 60.3708 20.7445 60.3723 20.3836 60.2456C20.2641 60.203 20.4543 60.0236 20.3281 59.9837C20.2282 59.9523 20.1286 59.924 20.0291 59.8981L18.547 59.6808L18.4972 58.0688C18.5447 57.4618 18.5111 56.874 18.5493 56.251C18.6331 54.885 18.6965 53.5279 18.748 52.1704L20.1172 53.7599C17.9466 53.35 15.7707 52.9707 13.5559 52.5791C13.2674 52.5281 12.9651 52.4655 12.6548 52.3984L14.2233 51.0474C14.1604 52.0256 14.067 53.0846 14.13 54.0188C14.1399 54.1631 14.3241 54.0771 14.3393 54.1045C14.5718 54.5353 14.1998 54.3921 14.1504 54.6734C13.9553 55.7897 13.9383 57.0311 14.0094 58.1055C14.0402 58.5626 14.4062 58.1043 14.2008 58.5645C14.1869 58.5965 13.9912 58.4805 13.9704 58.6059C13.9234 58.8901 13.9584 59.4294 13.9429 59.6498C13.912 60.0743 13.914 60.1446 13.9118 60.5462C13.907 61.0952 13.8098 61.7482 13.8541 62.3372C13.8641 62.463 14.0647 62.2965 14.0988 62.497C14.1329 62.6977 14.1159 63.2287 14.0686 63.4077C14.0213 63.5867 13.8637 63.5105 13.8275 63.5422C13.6313 63.7099 13.7362 64.0239 13.8387 64.2476L13.0896 63.2939C13.2235 63.2681 13.3303 63.2363 13.3586 63.2394C14.8005 63.4076 15.9439 63.9339 17.2581 64.2535C18.2558 64.4956 19.3413 64.6784 20.2878 64.9203C21.4153 65.2092 22.348 65.5484 23.4509 65.7979C23.5673 65.8245 23.4873 65.5623 23.6295 65.5943C25.1404 65.9342 26.6282 66.3233 28.0884 66.843C28.2348 66.8953 27.9922 67.0493 28.1355 67.1136C29.0141 67.5029 30.3712 68.2544 31.1304 67.5115C31.7445 67.6974 32.4916 67.9169 33.0054 68.2292C33.3367 68.4303 32.9346 68.5645 33.3984 68.5784C33.503 68.5818 33.4204 68.3584 33.5736 68.378C34.0343 68.4371 34.508 68.5711 34.9763 68.6619L33.8032 69.5835C33.7941 69.3926 33.7785 69.2042 33.7493 69.0213C33.7281 68.8913 33.5511 68.9268 33.5192 68.8899C33.2611 68.5802 33.6878 68.0646 33.7188 67.9521C33.95 67.0962 33.859 66.4711 33.8647 65.6737C33.8661 65.4887 33.6283 65.7074 33.6211 65.5293C33.587 64.6059 33.6075 63.6492 33.713 62.745C33.737 62.5439 33.9395 62.7288 33.9614 62.6327C34.0553 62.2089 33.6728 62.115 33.7554 61.7085C33.7723 61.6228 33.9457 61.6711 33.9647 61.6554C34.2637 61.4108 33.8401 61.1983 33.8308 61.1354C33.703 60.3394 34.1452 59.8307 34.0825 59.0618C34.0746 58.9698 33.8552 59.1772 33.8463 58.9186C33.7858 57.196 33.846 55.3741 34.0215 53.6689C34.0485 53.4038 34.2133 53.593 34.2336 53.5764C34.551 53.3045 34.1257 53.1285 34.1097 53.0421C33.9944 52.3601 34.3511 51.723 33.8445 51.2597C34.0203 48.3714 33.7358 45.4965 34.1897 42.6321C34.1949 42.5957 34.4044 42.6609 34.414 42.5883C34.5316 41.7134 34.206 41.8814 33.8079 41.3026C33.7079 41.1567 34.1886 40.7131 34.2238 40.6739C34.3537 40.5309 34.6653 40.6792 34.6905 40.6313C34.8879 40.2351 33.8574 40.2996 33.857 39.7651C33.8587 39.7484 34.0484 39.8186 34.0673 39.7737C34.1265 39.6344 34.0511 39.4961 34.1164 39.3597C34.2675 39.0476 34.7683 38.9364 34.4768 38.4596C34.439 38.3993 33.8544 38.4914 33.882 38.0142C33.8936 37.8239 33.8835 36.9817 33.9214 36.7457C33.9593 36.5099 34.1476 36.6718 34.1558 36.655C34.4049 36.0198 34.5081 36.2607 34.8769 35.9424C35.2443 35.6242 34.368 35.7124 34.2702 35.5827C34.1727 35.4528 34.3782 34.9871 34.4497 34.8726C34.5212 34.7582 34.6409 34.9009 34.6813 34.7992C34.9456 34.1248 34.2463 34.5032 34.1073 34.2809C33.778 33.757 34.4278 33.349 34.4915 32.8693C34.5087 32.7395 34.3607 32.8455 34.3468 32.7299C34.294 32.2722 34.4967 31.9969 34.3108 31.4762C34.2805 31.3911 33.8898 30.9701 34.1765 30.6976C34.2179 30.659 34.3798 30.7687 34.4161 30.5736C34.4705 30.2822 34.5059 29.7572 34.4518 29.444C34.4118 29.2127 34.1449 29.4778 34.2278 29.1867C34.2648 29.0573 34.4209 29.2971 34.4774 29.0541C34.5339 28.8123 34.5271 28.1942 34.5217 27.9589C34.5162 27.7242 34.3138 27.8527 34.3001 27.8337C34.222 27.7189 34.1244 27.2683 34.1247 27.2285C34.1 25.22 34.4411 23.3679 34.3282 21.4124C34.3196 21.2589 34.1062 21.3611 34.1027 21.3377C34.0133 20.8124 34.5808 21.2266 34.7707 20.8596C34.3376 20.9126 34.416 20.696 34.3685 20.3259C34.3453 20.1476 34.1775 20.2447 34.1604 20.2284C33.9056 19.964 34.2347 19.7798 34.302 19.7324C34.5496 19.5573 34.257 19.3667 34.4225 19.2475C34.5868 19.1284 34.8303 19.4025 34.8272 19.0476C34.6721 18.9481 34.2669 19.2115 34.2013 18.9421C33.9686 17.9896 34.2329 16.2638 34.2943 15.3774L34.7517 15.8348C34.6919 15.8307 34.636 15.8274 34.5844 15.8254C33.7685 15.7924 33.505 15.821 33.0296 15.7649C32.1709 15.6636 32.4856 15.9642 31.9524 16.1018C31.4176 16.2394 31.6776 15.4997 31.6007 15.3407C31.5253 15.1818 31.4429 15.3454 31.349 15.258C31.2555 15.1707 31.458 15.0626 31.238 15.0298C31.0178 14.997 30.4159 15.2798 30.3378 15.446C30.1728 15.7983 30.4441 16.168 29.8615 16.0381C29.828 16.0303 29.9368 15.8359 29.8085 15.8162C28.7895 15.6665 27.7309 15.6572 26.7132 15.5248C26.6822 15.5206 26.6642 15.5068 26.6541 15.4876L26.7642 15.3774C26.6969 15.4129 26.5635 15.3512 26.5533 15.4146C26.4149 16.2628 26.7797 15.9596 27.185 16.4245C26.6456 16.3201 26.3157 16.5772 26.3125 17.221C26.3104 17.608 26.5459 17.5414 26.7119 17.7917C26.762 17.8668 26.6003 18.1406 26.711 18.1903C27.0732 18.3539 27.4785 18.096 27.3171 18.7597C27.3094 18.7888 27.1112 18.6961 27.0992 18.7967C27.0206 19.4472 27.3994 19.525 27.4453 20.2281C27.4813 20.7792 27.2503 21.7593 27.2127 22.3868C26.6064 22.3736 26.7452 22.9663 27.1633 23.2068C27.1462 23.614 27.1698 24.0539 27.112 24.4475C27.0923 24.5829 26.9168 24.4939 26.8978 24.511C26.6002 24.773 27.007 24.95 27.0229 25.0379C27.1779 25.9906 26.8696 26.7668 27.1709 27.676C27.1818 27.7083 27.603 27.7606 27.2954 28.0036C27.2742 28.0194 27.0826 27.7191 27.0678 28.1468C27.0529 28.5745 26.8271 29.3809 27.0223 29.9748C27.0693 30.1185 27.4112 30.482 27.1441 30.7738C27.1078 30.8126 26.987 30.7701 26.9198 30.8262C26.7056 31.0076 27.1313 31.1066 26.7696 31.3198C26.408 31.533 26.1371 31.9764 26.3866 32.5753C26.3939 32.5944 26.7313 32.7362 26.726 32.9245C26.7172 33.2252 26.6469 33.652 26.6491 33.9659C26.6503 34.1162 26.8598 34.02 26.8636 34.0461C26.981 35.0568 26.7942 35.7761 26.7132 36.8589C26.6979 37.0573 26.9836 37.6277 26.7577 38.0119C26.5104 38.4339 25.4818 38.0003 25.7268 38.9701C25.8249 39.3612 27.1299 39.8564 26.4538 40.5594C26.6213 41.9227 26.2753 43.1834 26.5145 44.5505C26.5251 44.612 26.8893 44.8064 26.8844 44.9509C26.8763 45.1655 26.7061 45.2832 26.6949 45.4364C26.6436 46.0784 26.7892 46.6659 26.7666 47.2849C26.7583 47.5199 26.5823 47.4377 26.5725 47.718C26.5628 47.9981 26.7946 48.1848 26.6827 48.5644C26.5973 48.8511 26.1236 49.1377 26.0683 49.5183C26.5357 49.5328 26.526 49.7941 26.6494 50.2586C26.6733 50.3479 26.836 50.2521 26.8557 50.2944C26.9395 50.4663 26.8047 50.6254 26.896 50.7886C26.9179 50.8283 27.0775 50.8301 27.1044 50.8626C27.3394 51.1386 26.9804 51.5933 26.9179 51.6714C26.6806 51.9708 26.8881 52.1106 26.7947 52.3402C26.7012 52.5694 26.5843 52.2267 26.5276 52.4945C26.4103 53.0495 26.4361 53.7626 26.4287 54.3262C26.4268 54.5511 26.6398 54.3977 26.6445 54.4299C26.6985 54.8949 26.4719 55.3652 26.8963 55.6231C25.7991 55.9455 27.0027 55.9035 26.7831 56.5683C26.7653 56.6206 26.2464 56.6872 26.1703 56.4862C26.0942 56.2852 26.2563 55.9803 26.1376 55.7014C26.1097 55.6354 25.6235 55.257 25.5941 55.2054C25.3639 54.801 26.1393 54.7437 26.1819 54.7223C26.6414 54.4797 26.1177 54.0173 26.0815 53.8956C25.9156 53.3386 26.0247 52.8653 25.9063 52.3995C25.8298 52.0948 25.3219 52.0649 25.3374 51.8257C25.3888 51.0303 26.0973 50.7527 25.483 50.0032C25.352 49.8425 24.7969 50.0022 25.2334 49.4263C25.2609 49.3901 25.6602 48.9626 25.4076 48.7156C25.3758 48.6846 25.214 48.6856 25.2004 48.6446C25.1125 48.3704 25.2414 48.1876 25.1797 47.8889C25.1179 47.5902 25.0259 47.231 25.0808 46.89C25.1136 46.6845 25.415 46.4208 25.4888 46.3224C25.7014 46.0446 25.3528 45.7467 25.6103 45.5746C25.869 45.4011 26.2619 45.7404 26.4291 45.2853C26.0087 45.2684 25.5773 45.2297 25.1546 45.2026C25.1694 44.2053 25.3054 43.224 25.2868 42.2233C25.2841 42.0993 25.0581 42.2261 25.0494 42.0931C25.0135 41.532 25.1745 41.0419 25.1104 40.46C25.0599 40.0096 24.8206 39.5157 24.7604 39.0447C25.2413 38.7571 25.078 38.0582 25.122 37.5505C25.1372 37.3726 25.2656 37.3845 25.3075 37.258C25.4625 36.7809 25.0375 37.0045 24.9706 36.8737C24.6852 36.3124 25.6472 36.2644 25.6234 35.6027C25.6225 35.5677 25.1097 35.1392 25.0777 35.0802C24.8695 34.7052 25.2562 35.0181 25.2941 34.7834C25.3633 34.3549 25.4858 34.0572 25.3356 33.5544C25.2911 33.4078 24.9715 33.0562 25.2187 32.7715C25.2511 32.734 25.4206 32.7547 25.4305 32.7246C25.596 32.179 25.0634 32.1646 24.883 31.8528C24.7027 31.541 25.0703 31.0594 25.1763 30.9613C25.4504 30.7049 25.2935 31.1578 25.3204 31.1717C25.6405 31.3348 25.5854 30.9836 25.6124 30.7152C26.1346 30.6763 26.1033 30.301 25.6383 30.4369C25.5876 30.4524 25.6363 30.6613 25.6124 30.7152C25.1001 30.4796 25.0344 30.067 25.5132 29.6114C25.7376 29.3981 25.9993 29.5998 25.9035 28.9519C25.8603 28.6579 25.5008 28.7715 25.4027 28.512C25.1791 27.9192 25.5145 27.1489 25.4616 26.5377C25.4425 26.3159 25.2456 26.532 25.2257 26.3804C25.1723 25.9781 25.32 25.6233 25.2444 25.2193C25.2373 25.1827 25.0312 25.2721 25.0286 25.1465C25.0047 24.194 25.1366 23.3646 25.1403 22.3702C25.142 21.8897 25.0283 21.0306 25.0512 20.5329C25.0896 19.6702 25.3892 18.6089 25.3164 17.8719C25.2698 17.3912 25.0637 17.4967 24.9233 17.2907C24.6512 16.8933 25.1387 16.1898 25.2142 16.0951C25.2167 16.0922 25.2652 16.5058 25.371 16.2851C25.5914 16.1568 25.2151 16.0997 25.2142 16.0951C25.2466 16.0537 25.2781 15.675 25.284 15.3774L25.3277 13.9664L26.6541 14.0074C26.8043 14.0104 26.9339 14.0069 26.989 13.9937C27.0781 13.9722 27.0282 13.7769 27.0747 13.7694C28.1796 13.5947 29.2863 13.545 30.4069 13.6363C30.4266 13.6403 30.3969 13.8587 30.4433 13.8652C31.0921 13.9623 31.5074 13.6952 32.0425 13.5365C32.5774 13.378 33.0017 13.4311 33.3184 13.806C33.722 13.7588 34.3011 13.9246 34.6343 14.0251C34.6782 14.0384 34.7171 14.0425 34.7517 14.0397L36.1295 14.0823L36.0895 15.3774C36.1082 15.6052 36.4297 15.6437 36.437 15.6691C36.706 16.5836 36.4626 17.1123 36.4248 18.0611C36.406 18.5121 36.4677 19.4069 36.5142 19.8953C36.5516 20.2813 36.452 20.5138 36.5157 20.8695C36.5242 20.9176 36.7135 20.869 36.7208 20.8837C36.9472 21.2806 36.4845 21.0898 36.4019 21.1718C36.1013 21.4689 35.9413 21.6525 36.0827 22.1608C36.115 22.278 36.7813 22.6195 36.8203 22.8332C36.8697 23.1111 36.6309 23.0062 36.6887 23.2972C36.6935 23.3221 36.8408 23.3169 36.8343 23.4965C36.8061 24.33 36.7204 25.2388 36.7351 26.105C36.7366 26.2233 36.9703 26.0716 36.9762 26.2426C37.0039 27.0447 36.9953 27.924 36.8859 28.7055C36.8582 28.8978 36.6946 28.7772 36.646 28.819C36.3521 29.0753 36.7792 29.4389 36.7873 29.4989C36.9926 30.9297 36.606 32.0248 36.7901 33.4832C36.8009 33.5626 37.2587 34.1737 36.866 34.4463C36.8399 34.4649 36.4382 34.7347 36.7128 34.9732C36.73 34.988 36.9369 34.8199 36.9158 35.1132C36.8948 35.4065 37.0329 35.8786 36.8056 36.2817C36.734 36.4094 36.3333 36.7111 36.6527 37.0918C36.675 37.1166 37.3974 37.7044 36.899 37.9142C36.817 37.9482 36.2895 37.9126 36.56 38.3671C36.6124 38.4539 36.73 38.2963 36.8035 38.525C36.9167 38.8755 36.7754 39.3398 37.0104 39.7706C37.052 39.8458 37.41 40.1656 37.1383 40.4222C37.0957 40.4623 36.9196 40.386 36.8999 40.5215C36.8054 41.1658 36.9232 41.8404 36.8013 42.4945C36.7585 42.7262 36.4739 42.6078 36.3976 42.8493C36.3213 43.0909 36.248 43.5775 36.3781 43.8302C36.5082 44.083 36.9619 43.8069 36.9982 44.1856C37.1559 45.8321 36.8897 47.4631 36.8508 49.1071C36.845 49.3509 37.0073 49.1488 37.0104 49.5081C37.0225 50.8329 37.1747 53.1202 36.8297 54.2698C36.5534 55.1909 36.3431 54.0318 36.2307 54.7356C36.177 55.0753 36.7045 55.4427 36.7211 55.5247C36.8898 56.3257 36.6561 56.8823 36.7278 57.6033C36.7427 57.7521 36.9565 57.6061 36.9668 57.7328C37.0038 58.1656 36.9084 58.6204 36.9259 59.034C36.9342 59.2195 37.0975 59.1853 37.0849 59.356C37.0566 59.7645 36.988 60.1257 36.8349 60.5239C36.821 60.5602 36.6179 60.3155 36.6103 60.6177C36.5987 61.1069 36.4477 61.714 36.6036 62.2767C36.6505 62.4437 37.0237 62.4502 36.7659 62.8092C36.7121 62.8845 36.264 62.7884 36.6512 63.2065C36.7155 63.2768 37.2378 63.9791 36.9011 64.3238C36.8125 64.4147 36.4459 64.6468 36.5035 64.8476C36.5127 64.8748 36.7131 64.7657 36.7327 64.9321C36.7981 65.5185 36.7767 66.1331 36.8395 66.7355C36.8567 66.8964 37.0641 66.6568 37.083 66.8965C37.1355 67.5559 37.0826 68.3791 37.0177 69.0238C36.9934 69.2615 36.8216 69.0972 36.8029 69.1145C36.5608 69.3359 36.7714 69.4852 36.8796 69.5835L36.795 72.3545L34.2479 71.6508C34.2168 71.6718 34.1906 71.687 34.1712 71.6873C33.5794 71.6906 33.2003 71.3998 32.674 71.324C32.5289 71.3026 32.5832 71.5173 32.5508 71.5274C32.2175 71.6217 32.519 71.3334 32.3427 71.2505C31.8492 71.0173 31.2664 70.8915 30.7352 70.7878C30.54 70.7499 30.7032 71.0233 30.5286 70.9868C29.4944 70.775 28.4341 70.4943 27.4635 70.1289C27.2809 70.0597 27.4407 69.9188 27.4109 69.8705C27.2065 69.5332 26.7198 69.8067 26.62 69.8197C26.166 69.8796 26.0414 69.6902 25.6683 69.6289C23.8447 69.3323 21.6593 68.6943 19.985 68.2212C17.803 67.6057 16.1342 67.0279 14.0249 66.5582C13.8909 66.5282 13.9703 66.7868 13.8541 66.7638C13.3409 66.6585 12.8345 66.5371 12.3299 66.411L10.5785 65.9264L10.6304 64.2476C10.6362 63.2496 10.6603 62.2544 10.6162 61.2477C10.6111 61.122 10.3907 61.3032 10.3751 61.1015C10.3416 60.6878 10.3536 60.1637 10.4239 59.7454C10.4578 59.5414 10.647 59.815 10.6772 59.6097C10.7481 59.1315 10.7638 58.6189 10.7285 58.1277C10.713 57.9187 10.4876 58.2341 10.485 57.9624C10.4626 56.1117 10.4238 54.2941 10.7157 52.4239C10.7357 52.2957 11.1939 52.1832 11.106 51.9106C10.9789 51.8901 10.8293 51.8912 10.6934 51.8822C10.6858 51.6037 10.6807 51.3254 10.6777 51.0474L10.7577 48.4525L13.18 48.892C15.5683 49.2233 17.9168 49.7064 20.3092 50.087C20.4217 50.1048 20.263 49.8356 20.481 49.869C20.5524 49.8799 20.6238 49.8905 20.6951 49.901L22.7088 50.2666L22.6499 52.1704C22.653 53.3709 22.6999 54.5437 22.4723 55.7753C22.4487 55.9049 22.0217 55.8384 22.0863 56.2201C22.098 56.2875 22.155 56.8624 22.2477 57.0111C22.2617 57.0313 22.461 56.9264 22.4668 57.1117C22.4757 57.4272 22.478 57.7471 22.4739 58.0688L20.7271 55.9831C21.4895 56.1292 22.2554 56.3145 22.9883 56.5326C23.1556 56.5828 22.9365 56.7593 23.0553 56.7969C23.8983 57.0616 24.8651 57.0701 25.6557 57.4068C26.1848 57.633 25.916 57.9578 26.1459 58.3656C26.1784 58.4232 26.5187 58.492 26.4995 58.7021C26.4521 59.2304 26.1851 59.7705 26.1541 60.337C26.1472 60.459 26.6278 60.412 26.3054 60.6523C26.283 60.6682 25.9341 60.7049 25.8349 60.7882C25.766 60.8457 25.831 61.0744 25.6994 61.1404C25.5679 61.2062 25.4718 61.0071 25.2612 61.0746C25.0504 61.1434 25.0924 61.3978 24.7031 61.3577ZM35.6545 16.7605C35.4503 17.0691 36.1981 17.1146 36.0192 16.7809C36.0097 16.7647 35.6645 16.7446 35.6545 16.7605ZM25.8694 43.2296C26.1992 42.8262 25.7142 42.5501 25.4595 42.8347C25.2051 43.1193 25.7694 43.3525 25.8694 43.2296ZM26.1101 47.4126C26.3702 46.9411 25.3099 46.8669 25.5242 47.3718C25.5363 47.4012 26.095 47.4401 26.1101 47.4126ZM24.7679 58.2244C24.7704 58.2349 25.0143 58.2882 25.0219 58.2796C25.1944 58.0691 24.7066 57.9627 24.7679 58.2244ZM26.3723 51.5635C26.5157 51.4163 26.3501 50.9925 26.1718 51.1754C26.0283 51.3226 26.1939 51.7468 26.3723 51.5635ZM34.8565 32.8564C34.8453 32.8612 34.8353 33.0401 34.8983 33.0365C35.1011 33.0244 35.0439 32.7754 34.8565 32.8564ZM26.3845 58.6184C26.4244 57.5761 27.3003 56.9441 27.2014 58.0792C27.1836 58.2847 26.9221 57.6362 26.8432 57.8978C26.6993 58.3765 27.2493 58.6944 26.9546 59.1829C26.9006 59.2714 26.3803 58.6779 26.3833 58.6166C26.3837 58.6172 26.3841 58.6178 26.3845 58.6184ZM34.7564 16.9382C34.7465 16.9444 34.7371 17.192 34.7469 17.1979C34.9843 17.332 35.0033 16.8332 34.7564 16.9382ZM34.3941 43.2947C34.3731 43.3084 34.3534 43.8831 34.3728 43.9018C34.761 44.2016 34.8019 43.0397 34.3941 43.2947ZM27.1966 22.3967C27.4354 22.6669 27.4635 22.9901 27.1636 23.2055C27.1795 22.937 27.1819 22.6667 27.1966 22.3967ZM43.3005 17.2526C43.3656 18.3557 43.296 19.8018 43.2004 20.9008C43.1708 21.2452 43.0382 21.0708 43.0118 21.3085C42.9603 21.7735 43.0253 22.2068 42.9639 22.6663C42.9429 22.8186 42.733 22.629 42.7158 22.7887C42.623 23.6637 42.6765 24.4916 42.6319 25.378C42.4117 29.7444 42.3329 34.0364 42.2373 38.4561C42.2059 39.9134 42.0154 41.685 42.0987 43.1902C42.1086 43.3659 42.2929 43.2612 42.3081 43.2946C42.5406 43.819 42.1686 43.6446 42.1192 43.987C41.9785 44.9669 41.9304 46.0259 41.9412 47.0308L40.6761 45.9256C41.0606 45.8693 41.436 45.8053 41.7947 45.7366C42.3419 45.6313 41.7399 45.3436 42.3226 45.4719C42.3631 45.4804 42.2495 45.6933 42.4035 45.6935C42.7526 45.6935 43.3984 45.5706 43.6663 45.55C44.1825 45.5111 44.267 45.4977 44.7517 45.4342C45.4145 45.3491 46.2152 45.3387 46.9197 45.1984C47.07 45.1679 46.8423 44.9964 47.0796 44.9297C47.3171 44.8631 47.9598 44.7932 48.182 44.8107C48.4043 44.8283 48.3336 44.997 48.3767 45.0276C48.732 45.2872 49.4161 44.7682 49.5099 44.7449C51.2239 44.3329 52.7464 44.3693 54.3776 44.1474C54.4397 44.1389 54.502 44.1302 54.5645 44.1213L55.791 43.9234L55.7386 45.2169C55.6683 46.4096 55.6565 47.6738 55.5721 48.8001C55.4655 50.2129 55.2783 51.4038 55.2067 52.7784C55.1989 52.9234 55.4454 52.7691 55.4364 52.9462C55.3713 54.2182 55.2825 55.4825 55.1448 56.7433L55.1132 57.5282L54.314 57.8074C53.7268 57.9683 53.1363 58.1184 52.541 58.2554C52.3568 58.2975 52.5245 58.0262 52.3368 58.0565C51.1886 58.2464 49.3294 58.4141 48.9539 59.4814C48.2007 59.6863 47.2882 59.9411 46.5684 59.9813C46.1044 60.0075 46.4514 59.6592 45.9548 59.9197C45.8427 59.9782 46.0573 60.1168 45.8847 60.1903C45.1576 60.4997 44.3195 60.7014 43.6096 61.0365C43.4653 61.1051 43.5606 61.2604 43.5276 61.3045C43.2476 61.6655 42.5195 61.4511 42.3798 61.4634C41.8937 61.5084 41.4842 61.5996 41.0943 61.7132L41.7037 60.8774C41.6907 61.359 41.716 61.8238 41.713 62.3504C41.7116 62.5757 41.9493 62.3094 41.9565 62.5262C41.9906 63.6502 41.9702 64.8146 41.8647 65.9153C41.8406 66.1601 41.6381 65.935 41.6162 66.052C41.5224 66.5678 41.9049 66.6822 41.8222 67.1769C41.8053 67.2812 41.6319 67.2225 41.6129 67.2415C41.314 67.5393 41.7375 67.798 41.7469 67.8746C41.8342 68.5366 41.6554 69.0354 41.5533 69.5835L40.6717 68.8726C40.93 68.865 41.1951 68.839 41.4806 68.7567C41.5883 68.7252 41.2951 68.5644 41.6008 68.489C43.6371 67.9852 45.8171 67.5739 47.8826 67.3054C48.2037 67.2633 48.0135 67.4732 48.0377 67.4888C48.4284 67.7288 48.5475 67.2678 48.647 67.2298C49.4338 66.9411 50.2672 67.1253 50.711 66.5107C53.871 65.9888 56.9372 65.0973 60.1033 64.7182L59.5782 65.3347C59.6249 65.0224 59.6767 64.7105 59.7344 64.399C59.742 64.3551 59.9469 64.4457 59.9613 64.3579C60.136 63.3008 59.8 63.4875 59.4403 62.7625C59.3501 62.5799 59.8591 62.0666 59.8969 62.0208C60.0359 61.854 60.3374 62.051 60.3656 61.9942C60.5888 61.5232 59.5555 61.5462 59.5902 60.8964C59.593 60.8762 59.7778 60.9718 59.7996 60.9183C59.8678 60.7521 59.8016 60.58 59.8758 60.4177C60.0471 60.0465 60.5544 59.9383 60.2947 59.3431C60.2608 59.2677 59.6711 59.3482 59.7299 58.7696C59.7539 58.539 59.7991 57.5149 59.8524 57.23C59.9056 56.9455 60.0831 57.1524 60.0924 57.1324C60.3827 56.3738 60.47 56.6721 60.8592 56.3051C61.2469 55.9381 60.3661 55.9982 60.2769 55.8353C60.1881 55.6721 60.4238 55.1171 60.5027 54.9818C60.5815 54.8467 60.6917 55.0265 60.7388 54.9051C61.0469 54.0996 60.3238 54.5218 60.1995 54.2443C59.905 53.5897 60.5807 53.1288 60.6757 52.5492C60.7014 52.3924 60.5467 52.5132 60.5404 52.372C60.5176 51.8128 60.7381 51.4892 60.5866 50.8463C60.562 50.7411 60.1994 50.2084 60.5036 49.8927C60.5474 49.848 60.7019 49.99 60.7509 49.7549C60.8244 49.4036 60.8941 48.7674 60.8606 48.3838C60.8358 48.1005 60.552 48.4083 60.6538 48.059C60.6992 47.9038 60.8394 48.2036 60.9118 47.9112C60.984 47.6204 61.0177 46.8687 61.0277 46.5826C61.0376 46.2969 60.8271 46.4422 60.8147 46.4184C60.7442 46.2746 60.6763 45.7217 60.6792 45.6733C60.7861 43.2308 61.2482 40.9981 61.2636 38.6152C61.2652 38.4282 61.0453 38.541 61.0433 38.5123C60.9885 37.869 61.528 38.403 61.7417 37.9671C61.3899 38.0003 61.3822 37.838 61.3802 37.5365L61.7449 37.9213C61.6728 37.9257 61.5928 37.9302 61.5058 37.9394C61.2888 37.9626 61.407 38.1303 61.3872 38.1475C61.0653 38.4022 60.8411 38.0732 60.7834 38.0059C60.5702 37.7583 60.3382 38.0508 60.1931 37.8853C60.0482 37.7211 60.3818 37.4776 59.9498 37.4807C59.8287 37.6357 60.1494 38.0409 59.8214 38.1066C58.5839 38.355 56.2738 38.0371 55.2788 38.0041C54.2858 37.9711 53.965 37.9997 53.3864 37.9436C52.3411 37.8423 52.7242 38.1429 52.0752 38.2806C51.4243 38.4181 51.7407 37.6785 51.6471 37.5194C51.5553 37.3605 51.455 37.5241 51.3407 37.4367C51.2269 37.3494 51.4734 37.2413 51.2056 37.2085C50.9376 37.1757 50.2049 37.4585 50.1099 37.6247C49.9091 37.977 50.2393 38.3467 49.5302 38.2168C49.4894 38.2091 49.6217 38.0146 49.4656 37.9949C49.4386 37.9916 49.4116 37.9885 49.3845 37.9853L48.9665 37.9959L48.9553 37.5562C49.096 36.3408 49.1077 35.0814 49.2372 33.8696C49.2557 33.6993 49.4721 33.8516 49.4853 33.7524C49.6237 32.7199 49.2589 33.089 48.8536 32.5231C49.3929 32.6502 49.7229 32.3372 49.7261 31.5536C49.7282 31.0825 49.4926 31.1636 49.3266 30.859C49.2766 30.7676 49.4383 30.4342 49.3275 30.3738C48.9654 30.1747 48.5601 30.4886 48.7215 29.6807C48.7291 29.6453 48.9274 29.7581 48.9394 29.6356C49.0179 28.8439 48.6392 28.7492 48.5933 27.8934C48.5573 27.2226 48.7883 26.0296 48.8258 25.2658C49.4322 25.2818 49.2934 24.5604 48.8753 24.2677C48.8808 24.1065 48.8821 23.9412 48.8832 23.7749L48.8708 23.2867L49.3845 23.2736C49.7296 23.276 50.0786 23.2779 50.4019 23.3169C50.5668 23.3366 50.4585 23.5122 50.4792 23.5312C50.7981 23.8287 51.0136 23.422 51.1206 23.406C52.2802 23.251 53.225 23.5593 54.3317 23.258C54.371 23.2472 54.4346 22.826 54.7305 23.1335C54.7496 23.1547 54.3841 23.3464 54.9047 23.3612C55.4254 23.376 56.407 23.6018 57.1298 23.4066C57.3047 23.3597 57.7472 23.0177 58.1023 23.2849C58.1496 23.3212 58.0979 23.442 58.1662 23.5092C58.3869 23.7234 58.5075 23.2976 58.7669 23.6593C59.0264 24.021 59.5661 24.2919 60.2951 24.0423C60.3184 24.0351 60.4909 23.6976 60.7202 23.703C61.0131 23.71 61.4044 23.7565 61.7449 23.7736C61.7627 23.6918 61.7795 23.6118 61.7925 23.5366C61.8235 23.3563 61.5966 23.4347 61.5984 23.4028C61.699 22.1711 62.0368 21.342 62.3482 20.0588C62.4057 19.8237 62.2464 19.09 62.551 18.6693C62.8846 18.2072 63.8046 18.9075 63.7707 17.7024C63.7579 17.2164 62.5791 16.3937 63.3951 15.6702C63.4018 15.5825 63.4098 15.4953 63.419 15.4087L63.4607 15.205L63.2439 15.1996C61.6839 15.3098 60.2238 15.0113 58.6475 15.2379C58.5727 15.2485 58.3361 15.6127 58.1602 15.6078C57.899 15.5997 57.7556 15.4295 57.5692 15.4182C56.7877 15.367 56.0727 15.5126 55.3193 15.49C55.0332 15.4817 55.1332 15.3057 54.7921 15.2959C54.4511 15.2862 54.2238 15.518 53.7617 15.406C53.4128 15.3207 53.0639 14.8469 52.6007 14.7917C52.5831 15.259 52.265 15.2494 51.6996 15.3728C51.5909 15.3967 51.7075 15.5594 51.656 15.5791C51.4468 15.6629 51.2532 15.5281 51.0545 15.6194C51.0062 15.6413 51.0039 15.8009 50.9644 15.8278C50.6284 16.0628 50.0749 15.7038 49.9799 15.6413C49.6155 15.404 49.4453 15.6115 49.1658 15.518C48.8868 15.4246 49.304 15.3077 48.9781 15.251C48.3025 15.1337 47.4345 15.1595 46.7485 15.1521C46.4747 15.1502 46.6615 15.3632 46.6223 15.3679C46.0562 15.4219 45.4838 15.1953 45.1699 15.6197C44.7775 14.5225 44.8286 15.7261 44.0194 15.5064C43.9557 15.4887 43.8746 14.9698 44.1193 14.8937C44.364 14.8176 44.7351 14.9797 45.0746 14.861C45.155 14.8331 45.6155 14.3469 45.6783 14.3175C46.1705 14.0873 46.2403 14.8627 46.2663 14.9052C46.5616 15.3648 47.1244 14.841 47.2726 14.8048C47.9506 14.639 48.5267 14.748 49.0937 14.6297C49.4646 14.5532 49.5009 14.0453 49.7921 14.0608C50.7603 14.1122 51.0982 14.8207 52.0105 14.2064C52.2061 14.0754 52.0117 13.5203 52.7126 13.9568C52.7567 13.9843 53.2771 14.3836 53.5778 14.131C53.6155 14.0992 53.6143 13.9374 53.6641 13.9238C53.9979 13.8359 54.2205 13.9648 54.5841 13.9031C54.9476 13.8413 55.3848 13.7493 55.7999 13.8042C56.05 13.837 56.371 14.1384 56.4908 14.2122C56.8289 14.4248 57.1915 14.0762 57.4009 14.3337C57.6122 14.5924 57.1992 14.9853 57.7531 15.1524C57.7737 14.7321 57.8208 14.3007 57.8538 13.878C59.0677 13.8928 60.2622 14.0287 61.4802 14.0102C61.6312 14.0074 61.4768 13.7815 61.6386 13.7727C62.1954 13.7435 62.6947 13.8451 63.2439 13.8489L65.1068 13.896L64.7486 15.646C64.7259 15.7685 64.7076 15.8944 64.6963 16.0253C64.6497 16.5739 64.7796 17.2078 64.7382 17.7827C64.2032 18.0429 64.2144 18.9091 64.0625 19.5097C64.0095 19.7202 63.8856 19.6834 63.8173 19.8275C63.5627 20.3721 64.0289 20.1788 64.0668 20.3473C64.2277 21.07 63.2704 20.9585 63.1523 21.7555C63.1457 21.7977 63.5589 22.4013 63.5777 22.4776C63.7025 22.9635 63.3887 22.5206 63.3012 22.7952C63.1652 23.2218 63.0114 23.5283 62.9936 23.9978L62.774 25.0695L61.7449 25.0433C61.6635 25.0547 61.578 25.071 61.4869 25.0933C61.3085 25.1378 60.8805 25.4574 60.534 25.2102C60.4884 25.1779 60.5136 25.0084 60.4769 24.9984C59.8127 24.833 59.7953 25.3655 59.4158 25.5459C59.0362 25.7262 58.4499 25.3586 58.3306 25.2526C58.0185 24.9785 58.5698 25.1355 58.5867 25.1086C58.7853 24.7885 58.3577 24.8436 58.031 24.8166C57.9837 24.2944 57.5268 24.3257 57.6923 24.7906C57.7111 24.8414 57.9654 24.7927 58.031 24.8166C57.7442 25.3289 57.2421 25.3945 56.6875 24.9157C56.4279 24.6913 56.6733 24.4297 55.8847 24.5254C55.5268 24.5686 55.6651 24.9282 55.3493 25.0262C54.6277 25.2499 53.6901 24.9145 52.9462 24.9673C52.6762 24.9865 52.9392 25.1833 52.7547 25.2032C52.265 25.2566 51.8331 25.1089 51.3414 25.1846C51.2968 25.1917 51.4057 25.3977 51.2527 25.4004C50.6035 25.4137 50.0013 25.3783 49.3845 25.3438L50.9534 23.7749C50.9263 24.2596 50.8999 24.7534 50.8983 25.286C50.8966 25.8709 51.0102 26.9165 50.9874 27.5224C50.949 28.5725 50.6494 29.8643 50.7222 30.7613C50.7688 31.3464 50.9748 31.2181 51.1153 31.4688C51.3874 31.9525 50.8999 32.8088 50.8244 32.9241C50.8219 32.9276 50.7733 32.4242 50.6676 32.6928C50.4471 32.849 50.8235 32.9184 50.8244 32.9241C50.7757 32.9998 50.7289 34.0056 50.7683 34.2053C50.7898 34.3138 50.985 34.2531 50.9926 34.3097C51.1327 35.3878 51.1923 36.4675 51.1634 37.5562L49.3845 35.7772C49.6538 35.7844 49.9236 35.7969 50.194 35.815C50.218 35.819 50.1819 36.0374 50.2383 36.0439C51.028 36.141 51.5336 35.8739 52.1848 35.7153C52.836 35.5567 53.3524 35.6098 53.7378 35.9847C54.2291 35.9375 54.934 36.1033 55.3396 36.2038C55.7452 36.3044 55.8018 35.8793 55.8375 35.8709C56.9507 35.6019 57.5942 35.8452 58.749 35.8831C59.2981 35.9018 60.3872 35.8402 60.9817 35.7937C61.2834 35.7696 61.5081 35.8021 61.7449 35.8116L63.6292 35.8594L63.4869 37.6501C63.4746 37.7816 63.4691 37.9172 63.4836 38.0731C63.4889 38.132 63.6811 38.0831 63.6874 38.1014C63.8875 38.596 63.438 38.3392 63.3501 38.4344C63.0305 38.7793 62.8586 38.9938 62.9665 39.6193C62.9911 39.7635 63.6341 40.2145 63.659 40.4764C63.6901 40.8168 63.4585 40.6764 63.4972 41.0332C63.5003 41.0637 63.6478 41.0653 63.6295 41.2832C63.5467 42.2948 63.4015 43.3948 63.3595 44.4484C63.3532 44.5923 63.5965 44.4205 63.5912 44.6286C63.5663 45.6051 63.5 46.6733 63.3396 47.6172C63.2993 47.8495 63.1439 47.6942 63.0926 47.7423C62.7823 48.0381 63.1849 48.5029 63.1891 48.5763C63.3003 50.3265 62.8425 51.6366 62.9307 53.4191C62.9363 53.5162 63.3535 54.2836 62.9435 54.5938C62.9162 54.6151 62.4973 54.9213 62.756 55.2259C62.7721 55.2449 62.9897 55.0517 62.9494 55.4071C62.9092 55.7624 63.0162 56.3436 62.7628 56.8214C62.683 56.9727 62.263 57.3178 62.557 57.7978C62.5777 57.8291 63.2605 58.5825 62.7491 58.8106C62.6649 58.8475 62.1406 58.7759 62.3808 59.3428C62.4275 59.4511 62.5553 59.2659 62.6136 59.5479C62.7037 59.9799 62.5322 60.5367 62.7386 61.073C62.7752 61.1666 63.1117 61.5746 62.8236 61.8718C62.7785 61.9183 62.6076 61.816 62.5791 61.9797C62.4425 62.7576 62.5159 63.5839 62.3513 64.3725C62.2934 64.6518 62.0169 64.4925 61.9249 64.7819C61.873 64.9453 61.8169 65.2038 61.7982 65.4544L61.7012 66.6762L60.5747 66.8908C60.3845 66.9281 60.2046 66.9856 60.0857 67.0693C59.8126 67.2618 60.2373 67.6339 59.7944 67.7671C57.8694 68.346 55.8728 68.5069 53.9089 68.8931C53.6176 68.9503 53.8925 69.0568 53.4657 69.1526C51.8924 69.5062 49.2038 70.2453 47.7632 70.2048C46.609 70.1725 47.9432 69.6678 47.0821 69.7396C46.6667 69.7748 46.3414 70.3851 46.2474 70.4225C45.3304 70.7941 44.6187 70.7094 43.7764 70.9655C43.6024 71.0184 43.8214 71.1897 43.6729 71.2324C43.166 71.3803 42.6047 71.4045 42.1164 71.5283C41.8975 71.5843 41.9728 71.735 41.7671 71.7667C41.6118 71.7913 41.4613 71.8107 41.3121 71.8243L38.463 72.3678L38.533 69.5835C38.5728 69.2611 38.638 68.9505 38.7427 68.6188C38.7567 68.5746 38.9598 68.8725 38.9673 68.5046C38.979 67.9093 39.1299 67.1702 38.974 66.4853C38.9271 66.282 38.554 66.2741 38.8117 65.8372C38.8655 65.7455 39.3136 65.8625 38.9264 65.3536C38.8621 65.268 38.3399 64.4131 38.6765 63.9936C38.7651 63.8829 39.1318 63.6004 39.0741 63.356C39.0649 63.3228 38.8645 63.4556 38.845 63.2531C38.7795 62.5393 38.8009 61.7913 38.7381 61.058C38.7213 60.8658 38.5211 61.1434 38.4958 60.8774L38.5405 59.1203L40.1136 58.6589C40.1182 58.6569 40.1229 58.655 40.1279 58.653C40.876 58.3578 41.8462 58.1017 42.6132 57.9236C42.8962 57.8583 42.7583 58.0831 42.784 58.0944C43.1994 58.2805 43.2645 57.8285 43.3641 57.7713C43.9857 57.4212 44.5513 57.4421 45.149 57.1966C45.3142 57.1294 45.1343 56.9815 45.1627 56.9541C45.46 56.6795 45.3071 57.0978 45.5402 57.0637C46.1933 56.9692 46.8792 56.7324 47.4982 56.5074C47.7255 56.4245 47.3974 56.2915 47.6022 56.2195C48.8128 55.7898 50.0904 55.4024 51.3217 55.1384C51.5537 55.0891 51.4658 55.3009 51.5248 55.3239C51.9329 55.4861 52.2894 54.9716 52.3871 54.9021C52.7483 54.6447 52.9741 54.653 53.2761 54.575L51.7571 56.5206C51.7659 56.4495 51.7719 56.3729 51.7722 56.287C51.7759 54.0404 52.0596 51.2847 52.2615 49.1771C52.4058 47.6643 52.5636 46.3403 52.6978 45.0171L54.974 47.1411C53.8946 47.2487 52.8188 47.3715 51.6507 47.5494C51.4854 47.5744 51.6836 47.7821 51.5416 47.8066C49.7057 48.1121 47.8787 48.2681 46.0406 48.5851C45.8898 48.6108 46.1379 48.7995 45.8967 48.848C45.4022 48.9488 44.7684 49.0227 44.2544 49.0214C44.0038 49.0211 44.3085 48.789 44.0567 48.7926C43.4704 48.8005 42.85 48.8688 42.2623 48.9841C42.0123 49.0337 42.423 49.2055 42.0956 49.2525C41.7784 49.2987 41.462 49.3452 41.146 49.3909L38.3767 49.6952L38.4442 47.0308C38.427 45.1067 38.4341 43.2014 38.6844 41.249C38.7045 41.0929 39.1626 40.956 39.0747 40.6242C38.9476 40.5992 38.798 40.6005 38.6622 40.5896C38.5889 37.3103 38.7478 34.0645 38.7723 30.776C38.7733 30.6373 38.5306 30.877 38.5312 30.6085C38.5348 29.0549 38.4676 27.5462 38.7088 25.957C38.7324 25.7993 39.1595 25.8802 39.0949 25.4156C39.0831 25.3336 39.0262 24.6338 38.9335 24.4528C38.9195 24.4283 38.7201 24.5559 38.7143 24.3304C38.6841 23.0199 38.7296 21.6465 38.8514 20.3383C38.8714 20.1271 39.0837 20.352 39.0998 20.2016C39.2124 19.1348 39.0511 17.9745 39.2438 16.9552C39.3736 16.2729 39.7405 16.5255 40.1017 16.1629C40.1526 16.1116 40.1607 15.6891 40.3708 15.6673C40.8992 15.6112 41.4778 15.8158 42.041 15.7318C42.1624 15.7141 42.0317 15.1483 42.3249 15.4833C42.3445 15.5067 42.4418 15.9169 42.5412 16.018C42.61 16.0883 42.8237 15.9615 42.9117 16.1051C42.9996 16.2486 42.8205 16.4063 42.9239 16.6443C43.0286 16.8821 43.2717 16.7775 43.3005 17.2526ZM57.166 36.6534C57.5416 36.8575 57.597 36.1098 57.1908 36.2887C57.1711 36.2982 57.1466 36.6433 57.166 36.6534ZM60.2554 14.5927C60.7464 14.9226 61.0824 14.4376 60.736 14.1829C60.3896 13.9285 60.1058 14.4928 60.2554 14.5927ZM55.1638 14.8335C55.7377 15.0936 55.828 14.0332 55.2134 14.2476C55.1776 14.2597 55.1303 14.8184 55.1638 14.8335ZM40.2045 17.8443C40.2144 17.8391 40.2241 17.5354 40.2143 17.5282C39.9768 17.3664 39.9576 17.9737 40.2045 17.8443ZM50.1113 15.0957C50.2904 15.2391 50.8062 15.0735 50.5837 14.8952C50.4045 14.7517 49.8882 14.9173 50.1113 15.0957ZM61.041 52.5531C61.0296 52.5584 61.0078 52.7753 61.071 52.7743C61.2743 52.7705 61.2335 52.4648 61.041 52.5531ZM41.524 15.1079C42.7927 15.1478 43.562 16.0237 42.1803 15.9248C41.9301 15.907 42.7196 15.6455 42.4011 15.5666C41.8184 15.4227 41.4315 15.9726 40.8368 15.678C40.7292 15.624 41.4516 15.1037 41.5262 15.1067C41.5255 15.1071 41.5247 15.1075 41.524 15.1079ZM57.3823 37.5515C57.3898 37.5614 57.6912 37.5708 57.6984 37.5609C57.8617 37.3236 57.2544 37.3045 57.3823 37.5515ZM59.8951 65.2154C59.8892 65.2196 59.8807 65.2735 59.8718 65.3505L60.1657 65.0055C59.9587 65.0373 59.5887 65.1107 59.5754 65.1281C59.3928 65.4321 59.948 65.4187 60.2247 65.2775L60.1498 65.3655C60.1182 65.2127 60.0369 65.1191 59.8951 65.2154ZM48.842 25.2537C48.6032 24.9248 48.5751 24.5314 48.875 24.2692C48.859 24.5961 48.8567 24.9251 48.842 25.2537Z" fill="#FFD170"/>
</svg>
