<svg width="79" height="79" viewBox="0 0 79 79" fill="none" xmlns="http://www.w3.org/2000/svg">
<path fill-rule="evenodd" clip-rule="evenodd" d="M69.747 78.2942H9.30114C4.53209 78.2942 0.666016 74.4282 0.666016 69.6591V9.21325C0.666016 4.4442 4.53209 0.578125 9.30114 0.578125H69.747C74.5161 0.578125 78.3821 4.4442 78.3821 9.21325V69.6591C78.3821 74.4282 74.5161 78.2942 69.747 78.2942ZM56.0551 67.5002H67.5877V43.8089C67.5877 33.7849 61.9055 28.9382 53.9686 28.9382C46.028 28.9382 42.6863 35.1217 42.6863 35.1217V30.0814H31.5721V67.5002H42.6863V47.8576C42.6863 42.5945 45.109 39.4626 49.7462 39.4626C54.0088 39.4626 56.0551 42.4721 56.0551 47.8576V67.5002ZM11.4594 18.2768C11.4594 22.0899 14.5271 25.1817 18.3129 25.1817C22.0986 25.1817 25.1645 22.0899 25.1645 18.2768C25.1645 14.4637 22.0986 11.3719 18.3129 11.3719C14.5271 11.3719 11.4594 14.4637 11.4594 18.2768ZM24.1632 67.5002H12.574V30.0814H24.1632V67.5002Z" fill="#FFF191"/>
</svg>
