<svg width="78" height="78" viewBox="0 0 78 78" fill="none" xmlns="http://www.w3.org/2000/svg">
<path fill-rule="evenodd" clip-rule="evenodd" d="M69.081 77.7161H8.63512C3.86608 77.7161 0 73.85 0 69.081V8.63512C0 3.86608 3.86608 0 8.63512 0H69.081C73.85 0 77.7161 3.86608 77.7161 8.63512V69.081C77.7161 73.85 73.85 77.7161 69.081 77.7161ZM55.3891 66.9221H66.9217V43.2308C66.9217 33.2068 61.2395 28.36 53.3026 28.36C45.362 28.36 42.0203 34.5436 42.0203 34.5436V29.5032H30.9061V66.9221H42.0203V47.2795C42.0203 42.0164 44.443 38.8844 49.0802 38.8844C53.3428 38.8844 55.3891 41.894 55.3891 47.2795V66.9221ZM10.7934 17.6987C10.7934 21.5118 13.8611 24.6036 17.6468 24.6036C21.4326 24.6036 24.4984 21.5118 24.4984 17.6987C24.4984 13.8856 21.4326 10.7938 17.6468 10.7938C13.8611 10.7938 10.7934 13.8856 10.7934 17.6987ZM23.4972 66.9221H11.9079V29.5032H23.4972V66.9221Z" fill="#EA3624"/>
</svg>
