<svg width="32" height="22" viewBox="0 0 32 22" fill="none" xmlns="http://www.w3.org/2000/svg">
<path d="M16 16.5C13.44 16.5 10.88 14.5749 9.60001 13.7499C3.19999 9.90005 1.28 8.52494 0 7.69996V19.25C0 20.7684 1.433 22 3.19999 22H28.8C30.567 22 32 20.7684 32 19.25V7.69996C30.72 8.52494 28.8 9.90005 22.4 13.7499C21.1199 14.5749 18.5599 16.5 16 16.5ZM28.8 0H3.19999C1.433 0 0 1.23141 0 2.75002V4.12494C2.56001 5.77492 2.24001 5.77492 11.52 11.55C12.48 12.1 14.4 13.7499 16 13.7499C17.6 13.7499 19.5199 12.1 20.4799 11.8249C29.76 6.04998 29.44 6.04998 32 4.4V2.75002C32 1.23141 30.567 0 28.8 0Z" fill="#FFD170"/>
</svg>
