<svg width="31" height="24" viewBox="0 0 31 24" fill="none" xmlns="http://www.w3.org/2000/svg">
<path d="M9.03075 20.6065C7.69395 20.6065 6.35716 19.5763 5.68876 19.1348C2.34677 17.0745 1.34418 16.3386 0.675781 15.8971V22.0782C0.675781 22.8908 1.42407 23.5499 2.34677 23.5499H15.7147C16.6374 23.5499 17.3857 22.8908 17.3857 22.0782V15.8971C16.7173 16.3386 15.7147 17.0745 12.3727 19.1348C11.7043 19.5763 10.3675 20.6065 9.03075 20.6065ZM15.7147 11.7764H2.34677C1.42407 11.7764 0.675781 12.4354 0.675781 13.2481V13.9839C2.01258 14.8669 1.84548 14.8669 6.69136 17.9575C7.19266 18.2518 8.19525 19.1348 9.03075 19.1348C9.86625 19.1348 10.8688 18.2518 11.3701 18.1046C16.216 15.0141 16.0489 15.0141 17.3857 14.1311V13.2481C17.3857 12.4354 16.6374 11.7764 15.7147 11.7764ZM29.0827 7.36134H12.3727C11.45 7.36134 10.7017 8.02038 10.7017 8.83303V10.3047H15.7147C17.4489 10.3047 18.8786 11.4738 19.0416 12.9639L19.0567 12.9537V19.1348H29.0827C30.0054 19.1348 30.7537 18.4758 30.7537 17.6631V8.83303C30.7537 8.02038 30.0054 7.36134 29.0827 7.36134ZM27.4117 13.2481H24.0697V10.3047H27.4117V13.2481ZM9.03075 8.83303C9.03075 7.21004 10.5299 5.88966 12.3727 5.88966H24.0697V1.47461C24.0697 0.661968 23.3214 0.00292969 22.3987 0.00292969H5.68876C4.76606 0.00292969 4.01777 0.661968 4.01777 1.47461V10.3047H9.03075V8.83303Z" fill="#FCAB4D"/>
</svg>
