<svg width="127" height="181" viewBox="0 0 127 181" fill="none" xmlns="http://www.w3.org/2000/svg">
<path d="M12.1592 0C38.5808 0 60 21.4192 60 47.8408V48.6377C60 55.4651 54.4651 61 47.6377 61H36.9531L36.8242 61.5742C30.5227 89.5965 43.9627 117.521 68.0449 130.678C87.5878 122.009 111.193 127.799 124.303 145.773C128.73 151.845 127.398 160.355 121.327 164.783L107.273 175.033C93.887 184.796 75.1205 181.859 65.3574 168.473L63.5273 165.963C19.1661 148.996 -7.03681 101.647 3.65234 54.1143L5.08887 47.7227C1.87509 42.9446 0 37.1912 0 31V12.1592C0.000156682 5.44392 5.44392 0.000156163 12.1592 0Z" fill="#FFE6B1"/>
</svg>
