<svg width="253" height="253" viewBox="0 0 253 253" fill="none" xmlns="http://www.w3.org/2000/svg">
<path d="M108.998 143.902L139.559 174.464C142.296 177.201 146.503 177.819 149.911 175.99L186.537 156.328C189.246 154.872 192.519 154.943 195.163 156.514L248.601 188.224C252.414 190.486 253.949 195.218 252.164 199.276C247.598 209.667 239.286 228.714 235.984 237.135C235.29 238.908 234.256 240.532 232.817 241.777C197.203 272.648 126.347 235.033 72.1107 180.798C17.8665 126.559 -19.7482 55.7019 11.1225 20.088C12.3701 18.6493 13.9943 17.6152 15.7646 16.9211C24.1834 13.6194 43.2323 5.3074 53.6237 0.741154C57.6814 -1.0432 62.4134 0.491064 64.6755 4.30423L96.3863 57.742C97.9543 60.3862 98.0245 63.6599 96.5718 66.3687L76.9102 102.989C75.0809 106.397 75.6991 110.604 78.436 113.341L108.998 143.902Z" fill="#FFD170"/>
</svg>
