<svg width="83" height="84" viewBox="0 0 83 84" fill="none" xmlns="http://www.w3.org/2000/svg">
<path d="M50.7685 83.3881C48.9955 83.3899 47.3334 83.3474 45.2342 83.2935C45.2331 83.2935 45.232 83.2935 45.2308 83.2935C44.9309 83.2858 44.6219 83.2778 44.3025 83.2697C41.7307 83.2049 38.389 83.1287 33.3503 83.0851C27.7828 83.0368 23.3625 82.8621 20.6633 82.6944C20.1599 82.6632 19.6389 82.646 18.3246 82.6304C17.6663 82.6225 16.831 82.6153 15.7239 82.6063C15.3366 82.6034 14.9263 82.5866 14.4796 82.5478C13.4793 82.4598 12.3159 82.2649 11.0148 81.8382C6.63579 80.685 0.795287 75.237 0.146382 68.5918C0.051964 67.8704 0.00663304 67.1572 0.0055443 66.4487C0.000988603 63.6368 -0.00212836 61.0227 0.00177014 58.9451C0.00876141 55.2199 0.0401251 51.6254 0.074404 47.7177C0.105797 44.1392 0.139679 40.2976 0.15894 35.8529C0.173725 32.4425 0.30066 29.1291 0.442456 25.7619C0.460502 25.3334 0.478744 24.903 0.497084 24.4723C0.615256 21.6969 0.736052 18.8639 0.81191 15.8257C0.817268 15.5975 0.827253 15.3696 0.84188 15.1421C1.31955 8.96537 4.6461 4.37146 9.52923 1.93106C11.3538 1.04918 13.4479 0.506371 15.7238 0.491284C15.8469 0.49043 15.9704 0.489604 16.0945 0.488808C19.6966 0.465683 24.8749 0.470353 30.0744 0.476905C30.5173 0.477463 30.9608 0.47786 31.4032 0.478431C31.4054 0.478431 31.4076 0.478431 31.4099 0.478431C36.1694 0.484585 40.8408 0.490625 44.268 0.477211C49.714 0.455893 51.763 0.405519 53.472 0.363377C54.1144 0.347536 54.7091 0.332742 55.4181 0.321261C57.9717 0.279919 61.8265 0.287595 65.7339 0.295321C65.7488 0.295321 65.7638 0.295321 65.7787 0.295321C66.4271 0.296603 66.9505 0.437782 66.9475 0.610576C66.9444 0.783386 66.416 0.922536 65.7675 0.921254C63.6977 0.917162 61.678 0.913204 59.8697 0.916066C59.776 1.06454 59.289 1.17693 58.7054 1.17578C57.2443 1.17292 52.7693 1.28478 45.7656 1.46753C46.2454 1.4946 46.6472 1.52093 46.9993 1.54597C47.4126 1.57535 47.7292 1.60062 48.0015 1.62226C48.5689 1.66738 48.9464 1.69714 49.6166 1.71901C51.1687 1.74386 53.6082 1.74903 56.1754 1.7541C56.8236 1.75543 57.3471 1.89633 57.3442 2.06905C57.341 2.24182 56.8125 2.38095 56.1642 2.37973C56.1515 2.37973 56.1388 2.37973 56.1261 2.37973C53.5836 2.3747 51.0658 2.3696 49.4443 2.34311C49.0318 2.33637 48.6765 2.32839 48.4097 2.32114C48.1964 2.31534 47.9302 2.30747 47.7822 2.29733C47.7626 2.29598 47.7252 2.29326 47.6805 2.28909C47.6797 2.28899 47.679 2.28889 47.6782 2.28879C47.6533 2.28648 47.5257 2.27482 47.3897 2.24942C47.3622 2.24428 47.3024 2.23283 47.2331 2.21432C47.2152 2.2129 47.1973 2.21147 47.1794 2.21005C46.9299 2.19028 46.6753 2.17013 46.3998 2.15054C45.324 2.07405 43.62 1.97765 40.0714 1.87557C36.8077 1.78168 31.2903 1.73958 24.4059 1.73884C24.871 1.75179 25.3372 1.76433 25.8029 1.77638C26.9751 1.80666 28.1526 1.83428 29.3306 1.86061C29.7818 1.87067 30.227 1.88052 30.6806 1.89021C31.4108 1.90589 32.1431 1.92128 32.8751 1.9363C33.3697 1.94647 33.8654 1.95646 34.3604 1.96651C34.3616 1.96651 34.3627 1.96651 34.3638 1.96651C35.051 1.98046 35.7398 1.9945 36.4341 2.00893C36.6771 2.0143 36.9172 2.01946 37.1555 2.0245C38.1043 2.04454 39.0364 2.06399 40.1094 2.10171C40.2399 2.10795 40.3817 2.11604 40.4875 2.12277C40.6012 2.12986 40.7106 2.13708 40.8141 2.14443C40.9053 2.15092 40.9924 2.15752 41.0758 2.16366C41.087 2.16447 41.0982 2.16529 41.1094 2.1661C41.2027 2.17297 41.292 2.17932 41.3778 2.18533C41.4634 2.19133 41.546 2.1971 41.6272 2.20211C41.628 2.20211 41.6287 2.20211 41.6295 2.20211C41.7144 2.20725 41.7788 2.21112 41.8688 2.21554C41.9818 2.22108 42.0789 2.22535 42.1965 2.22958C42.3103 2.23369 42.429 2.23736 42.5489 2.24057C42.6687 2.24377 42.7907 2.24657 42.9146 2.24911C43.0385 2.25166 43.1646 2.25402 43.2915 2.25613C43.4184 2.25824 43.547 2.26007 43.6763 2.26193C43.8056 2.26379 43.9364 2.26565 44.0678 2.26742C44.3702 2.27155 44.6602 2.30622 44.8731 2.36508C45.0859 2.42395 45.2044 2.5018 45.203 2.58237C45.2016 2.66296 45.0801 2.74041 44.8652 2.79844C44.6503 2.85645 44.3592 2.89011 44.0566 2.89305C43.9742 2.89384 43.8914 2.89473 43.8083 2.89549C43.7589 2.89595 43.7091 2.89628 43.6595 2.89671C43.5261 2.89788 43.3913 2.89918 43.2557 2.90007C43.1202 2.90095 42.9835 2.90153 42.8453 2.9019C42.7066 2.90227 42.5661 2.90239 42.4236 2.9019C42.2814 2.90142 42.1361 2.90038 41.9885 2.89854C41.8445 2.89681 41.6802 2.89378 41.5333 2.89C41.4259 2.88734 41.2936 2.8828 41.1832 2.87871C41.068 2.87443 40.9547 2.86965 40.8454 2.86467C40.7359 2.85968 40.63 2.85439 40.5289 2.84941C40.5181 2.8489 40.5073 2.84839 40.4964 2.84788C40.407 2.84348 40.3208 2.83918 40.2392 2.83537C40.148 2.83111 40.0617 2.82748 39.9797 2.82438C39.8894 2.8209 39.8345 2.81952 39.7672 2.81798C38.8773 2.80792 37.7772 2.80999 36.7283 2.81187C36.5965 2.81211 36.4654 2.81227 36.3357 2.81248C35.6467 2.81395 34.9592 2.8158 34.2721 2.81767C33.7727 2.81903 33.2728 2.82043 32.7722 2.82164C32.0356 2.82343 31.2967 2.82485 30.5587 2.82591C30.1003 2.82652 29.6503 2.82692 29.193 2.82713C27.999 2.82773 26.8011 2.82689 25.6016 2.82316C24.4038 2.81943 23.1984 2.81291 21.9922 2.8018C20.7907 2.79073 19.5424 2.77417 18.337 2.749C17.4586 2.73036 16.5582 2.69797 15.7239 2.66444C15.7172 2.66414 15.7105 2.66385 15.7038 2.66357C15.2915 2.64602 14.889 2.64803 14.4925 2.66817C14.4911 2.6682 14.4898 2.66823 14.4884 2.66826C14.139 2.68625 13.7968 2.71812 13.4556 2.76483C12.7267 2.86455 12.018 3.02946 11.3273 3.25901C10.6379 3.48826 9.97062 3.78074 9.32947 4.13538C8.69308 4.4872 8.07716 4.90503 7.50872 5.37092C6.9376 5.8393 6.41589 6.34857 5.91938 6.92851C5.26767 7.69183 4.70784 8.52531 4.23798 9.43426C3.77204 10.3365 3.40666 11.2991 3.15391 12.2932C3.06551 12.6406 2.99028 12.993 2.92956 13.3462C2.92931 13.3475 2.92906 13.3489 2.92882 13.3503C2.81607 14.0069 2.75128 14.6703 2.73364 15.3382C2.72938 15.4999 2.72787 15.6624 2.72917 15.8257C2.73612 16.7596 2.74266 17.6958 2.74812 18.6349C2.75458 19.7491 2.75965 20.8702 2.76155 21.9971C2.76329 23.1241 2.76224 24.2815 2.75209 25.4442C2.74333 26.4815 2.73164 27.527 2.72005 28.5492C2.717 28.8191 2.71394 29.089 2.71089 29.3589C2.69662 30.6397 2.68523 31.8797 2.68312 33.1059C2.68076 34.3311 2.68722 35.5556 2.70082 36.7913C2.71437 38.0232 2.73465 39.2706 2.75911 40.5281C2.78368 41.7911 2.81201 43.0378 2.84304 44.3097C2.87394 45.572 2.90712 46.8402 2.94222 48.1238C2.96166 48.8373 2.97952 49.5965 2.99471 50.3137C3.01006 51.038 3.02362 51.7576 3.03622 52.4679C3.04134 52.7562 3.04622 53.0432 3.05117 53.3281C3.0584 53.7435 3.06545 54.1553 3.07284 54.5606C3.08532 55.2447 3.09867 55.9121 3.11435 56.5605C3.13002 57.2085 3.14824 57.8375 3.1705 58.4451C3.19363 59.074 3.21715 59.5923 3.25076 60.2123C3.31559 61.7222 3.3355 62.6578 3.35788 63.6975C3.36229 63.9023 3.36698 64.1115 3.37192 64.3295C3.38617 65.0372 3.39837 65.7445 3.40884 66.4487C3.41683 66.926 3.44905 67.397 3.5049 67.8623C3.63589 68.9508 3.89306 69.9996 4.27889 71.0164C4.66071 72.0223 5.16937 72.9867 5.78682 73.87C6.40269 74.7516 7.12727 75.5556 7.94193 76.2574C8.7554 76.9598 9.67833 77.5673 10.6242 78.0281C11.1704 78.2959 11.772 78.5366 12.3453 78.7168C12.7595 78.8475 13.1744 78.9543 13.5856 79.0378C13.7541 79.072 13.9221 79.1023 14.0888 79.1288C14.6454 79.2172 15.1898 79.2635 15.7239 79.2729C15.7467 79.2732 15.7695 79.2736 15.7923 79.2739C16.4148 79.2835 17.0171 79.2901 17.6065 79.2926C18.1969 79.295 18.7745 79.2932 19.3525 79.2871C19.9515 79.2805 20.4489 79.2717 21.085 79.2556C21.4992 79.245 21.9051 79.2343 22.3097 79.2236C22.9155 79.2075 23.5169 79.1912 24.1228 79.1741C24.7279 79.1572 25.3253 79.1398 25.9258 79.1217C26.1188 79.1158 26.3227 79.1097 26.5163 79.1036C27.1146 79.0851 27.7061 79.0659 28.297 79.0457C28.8867 79.0254 29.4711 79.0043 30.053 78.9819C30.6374 78.9594 31.2119 78.9359 31.7978 78.9105C32.7937 78.8671 33.747 78.847 34.5817 78.8336C35.4265 78.8202 36.2159 78.8129 36.9842 78.8058C37.1282 78.8045 37.2721 78.8031 37.416 78.8018C38.0358 78.7963 38.6454 78.7911 39.2458 78.7847C39.9859 78.777 40.7125 78.7677 41.4414 78.7567C42.164 78.7457 42.8938 78.7329 43.6124 78.7179C44.3378 78.7027 45.0314 78.6862 45.7789 78.666C46.5182 78.6462 47.269 78.6203 48.0919 78.5922C48.9074 78.5642 49.7631 78.5355 50.6298 78.5104C51.4955 78.4852 52.375 78.4634 53.2481 78.4463C54.1231 78.4291 55.0009 78.416 55.8665 78.4069C56.7367 78.3977 57.6019 78.3923 58.4625 78.3898C59.3212 78.3873 60.2082 78.3877 61.0384 78.3907C62.3827 78.3956 63.7209 78.4024 65.0616 78.41C65.6895 78.4135 66.3184 78.4173 66.9475 78.4212C67.5311 78.4256 68.1112 78.386 68.6844 78.3022C69.7674 78.1442 70.8258 77.8269 71.8206 77.3626C72.8157 76.8986 73.7472 76.2874 74.5775 75.5567C74.7613 75.395 74.94 75.2277 75.1137 75.0547C75.7253 74.4458 76.2715 73.7687 76.7385 73.043C76.7417 73.038 76.7449 73.0331 76.7482 73.0281C77.3478 72.0924 77.8104 71.0919 78.1353 70.0338C78.254 69.6461 78.3499 69.2672 78.4289 68.877C78.5074 68.4878 78.566 68.1014 78.6066 67.7071C78.6469 67.3151 78.668 66.9211 78.6705 66.5318C78.6707 66.5041 78.6707 66.4764 78.6707 66.4487C78.6706 66.0192 78.6699 65.5989 78.668 65.175C78.6662 64.7571 78.6631 64.3421 78.6598 63.8888C78.6595 63.8474 78.6592 63.806 78.6589 63.7646C78.6552 63.2685 78.6529 62.7043 78.6546 62.1797C78.6595 60.7905 78.6618 59.4365 78.6616 58.0581C78.6614 56.679 78.6587 55.3029 78.6549 53.9152C78.6534 53.3734 78.6516 52.829 78.65 52.2845C78.6475 51.4374 78.645 50.5871 78.643 49.7344C78.6397 48.3312 78.6382 46.9251 78.6402 45.5098C78.6422 44.1 78.6479 42.6811 78.6576 41.2685C78.6673 39.8571 78.6811 38.4334 78.6985 37.0284C78.718 35.4629 78.7395 33.9065 78.762 32.343C78.7845 30.7822 78.808 29.2204 78.8322 27.6655C78.8564 26.105 78.8812 24.5484 78.9067 22.9914C78.9321 21.4334 78.9582 19.8764 78.9848 18.3184C78.999 17.4874 79.0134 16.6567 79.028 15.8257C79.0298 15.7367 79.0306 15.648 79.0306 15.5594C79.0073 15.1312 78.9638 14.7217 78.9051 14.3316C78.4211 11.4671 77.4169 9.52015 75.6098 7.50887C75.4302 7.32108 75.2767 7.17616 75.0853 7.00533C75.0488 6.9728 75.0099 6.93845 74.97 6.90379C74.7168 6.68495 74.4218 6.43942 73.9962 6.12159C73.1454 5.49528 71.79 4.58121 69.7813 3.91763C69.2757 3.75271 68.9639 3.53781 69.1094 3.39067C69.212 3.28917 69.5208 3.25651 69.8811 3.31595C69.2338 3.13478 68.5727 3.00717 67.9042 2.93451C67.6365 2.90524 67.3876 2.85674 67.2077 2.79137C67.0281 2.72603 66.9333 2.64776 66.9492 2.56711C66.9651 2.48683 67.0921 2.41041 67.3041 2.36112C67.5151 2.31181 67.7956 2.29585 68.0775 2.32195C68.8259 2.3908 69.5642 2.52481 70.2855 2.72131C71.0075 2.91802 71.7096 3.17641 72.3862 3.49378C73.0626 3.81111 73.7118 4.18651 74.3271 4.61586C74.94 5.0435 75.5182 5.52434 76.0537 6.05121C76.5923 6.58164 77.078 7.14642 77.5214 7.75744C77.7868 8.1233 78.0369 8.50758 78.2633 8.89604C78.3476 9.04066 78.4276 9.18339 78.505 9.32789C78.5681 9.44572 78.6296 9.56493 78.6913 9.6889C79.3414 10.9921 79.7844 12.4132 79.9938 13.8595C80.0885 14.5105 80.1371 15.1655 80.1407 15.8257C80.145 16.6855 80.1494 17.545 80.154 18.4045C80.1622 19.9617 80.171 21.5176 80.1799 23.0742C80.1888 24.63 80.198 26.1849 80.2077 27.7427C80.2173 29.2948 80.2272 30.8532 80.2379 32.4079C80.2461 33.6105 80.255 34.8028 80.2644 35.9971C80.2806 36.4673 80.2958 36.9326 80.3105 37.3919C80.3533 38.7287 80.4094 40.0673 80.4649 41.386C80.4373 39.0389 80.3941 37.1535 80.3529 35.3585C80.3474 35.1178 80.3419 34.8788 80.3364 34.6404C80.2812 32.2075 80.2345 29.8571 80.2449 26.6958C80.2596 22.2054 80.2724 18.6574 80.2865 15.8257C80.289 13.1081 79.6067 11.1429 78.967 9.73897C77.5971 6.94604 76.5262 6.03069 75.6929 5.09247C74.5192 3.71023 71.3383 2.04715 69.5703 1.81193C68.9436 1.68677 68.4446 1.49759 68.4634 1.3249C68.4835 1.15421 69.0418 1.06772 69.7021 1.19993C71.6564 1.45188 75.266 3.36884 76.6426 5.15634C77.2444 5.9292 78.177 6.68388 79.5749 9.5624C80.2207 11.0049 80.9143 13.0255 80.9124 15.8257C80.8984 18.6474 80.8857 22.1992 80.8708 26.7182C80.8608 29.7657 80.9053 32.0275 80.9599 34.4346C80.9653 34.6706 80.9709 34.9084 80.9764 35.1482C80.9764 35.1497 80.9764 35.1512 80.9764 35.1527C81.0272 37.3637 81.0825 39.7713 81.107 43.0179C81.1635 50.5008 81.273 60.5665 81.3347 62.956C81.3468 63.4249 81.3604 63.8782 81.3747 64.3563C81.3932 64.9788 81.4131 65.6451 81.4329 66.4487C81.4431 68.0409 81.3809 70.3002 79.8829 73.3976C79.3784 74.4108 78.6593 75.5432 77.6906 76.6242C76.3018 78.3063 74.5476 79.6091 72.8584 80.4059C71.402 81.098 69.9562 81.5379 68.5121 81.7733C68.0985 81.8406 67.6746 81.8917 67.2524 81.9244C67.1511 81.9323 67.0495 81.9391 66.9475 81.9448C66.0904 81.9973 65.235 82.0486 64.3994 82.0893C63.66 82.1252 62.8857 82.1684 62.0674 82.2141C59.0864 82.3805 55.5141 82.5798 50.8591 82.5824C45.9244 82.5852 41.6996 82.5492 38.0558 82.5141C40.7317 82.5547 42.7975 82.6034 44.5184 82.6468C44.843 82.655 45.154 82.663 45.4534 82.6706C47.5684 82.7248 49.106 82.7642 50.7539 82.7625C58.625 82.7546 61.5773 82.7015 64.9083 82.5483C65.5427 82.5191 66.2244 82.4829 66.9475 82.4432C67.2571 82.428 67.568 82.4032 67.887 82.3677C70.1856 82.1196 72.7465 81.2666 75.0401 79.6917C77.1793 78.2407 79.1517 76.008 80.3513 73.2483C80.3518 73.2472 80.3523 73.2462 80.3528 73.2451C80.5877 72.7076 80.7942 72.1515 80.9689 71.581C81.4721 69.9422 81.7036 68.1925 81.6446 66.4487C81.58 64.5759 81.5217 62.6894 81.4772 60.8297C81.4682 60.4535 81.4558 60.0028 81.4415 59.4853C81.3589 56.4986 81.214 51.2553 81.3069 44.8522C81.3274 43.4458 81.3706 41.9844 81.4202 40.3167C81.4352 39.8088 81.4511 39.2813 81.4668 38.7307C81.5349 36.3535 81.6071 33.4653 81.6506 29.6195C81.6865 26.4457 81.7037 22.5776 81.7217 18.5611C81.7258 17.6547 81.7299 16.7409 81.7343 15.8257C81.7398 14.6897 81.6225 13.5495 81.3843 12.4434C80.0694 6.23918 75.0281 1.58682 69.2344 0.660378C69.2332 0.660192 69.232 0.660007 69.2308 0.659821C68.5528 0.546089 68.0206 0.370054 68.0561 0.198246C68.0911 0.0284382 68.7066 -0.0675664 69.4178 0.0561472C75.4612 1.05976 80.6597 5.92092 82.0057 12.3564C82.246 13.4878 82.3656 14.6576 82.3602 15.8257C82.3558 16.7358 82.3517 17.6469 82.3476 18.5521C82.3295 22.5882 82.3121 26.5101 82.2759 29.7135C82.2317 33.6247 82.1581 36.5658 82.0891 38.9756C82.0725 39.5561 82.0563 40.1018 82.0409 40.6198C81.9919 42.2691 81.951 43.6401 81.9316 44.9741C81.8416 51.1739 81.9808 56.219 82.0635 59.2169C82.0781 59.7486 82.0909 60.2159 82.1004 60.6139C82.1464 62.5383 82.2076 64.4969 82.2758 66.4487C82.3308 68.1276 82.1279 69.8189 81.6733 71.4259C81.5072 72.0148 81.3073 72.5939 81.0767 73.1564C81.0763 73.1575 81.0759 73.1587 81.0755 73.1599C79.8973 76.0577 77.8687 78.4728 75.6269 80.0503C73.351 81.6597 70.9784 82.5386 68.6868 82.905C68.1037 82.9975 67.5247 83.0561 66.9475 83.0827C66.3969 83.1122 65.8539 83.1399 65.3143 83.1647C61.7805 83.3273 58.6649 83.3802 50.7685 83.3881ZM70.8671 3.63726C72.1443 4.15757 73.1011 4.7419 73.79 5.20719C73.2175 4.79221 72.6108 4.42649 71.9758 4.11501C71.6142 3.93766 71.2441 3.77815 70.8671 3.63726ZM77.0971 76.3472C77.2604 76.1552 77.4193 75.958 77.5734 75.7559C77.1301 76.2984 76.6458 76.8089 76.1274 77.2798C75.4907 77.8582 74.8007 78.3783 74.0683 78.8301C75.2392 78.121 76.2623 77.2564 77.0971 76.3472ZM50.8479 81.9565C55.2379 81.954 58.5186 81.7715 61.4768 81.6068C62.3287 81.5593 63.1548 81.5134 63.9722 81.4737C64.3111 81.4572 64.6497 81.439 64.9911 81.4197C63.003 81.4099 61.1755 81.3996 59.6794 81.391C55.2152 81.3654 52.6745 81.3121 50.4419 81.2653C49.7959 81.2517 49.1751 81.2388 48.5415 81.2271C48.0174 81.2481 47.4731 81.269 46.9231 81.2872C46.153 81.3131 45.3206 81.3379 44.5284 81.359C43.7333 81.3802 42.9252 81.3991 42.1315 81.4151C41.3313 81.4312 40.5384 81.4447 39.7491 81.4563C39.0065 81.4673 38.2664 81.4766 37.5502 81.4856C37.5092 81.4861 37.4682 81.4866 37.4272 81.4871C36.6702 81.4967 35.9339 81.5059 35.2573 81.5186C34.5686 81.5316 33.996 81.5469 33.4879 81.5701C32.8533 81.599 32.2023 81.6268 31.5585 81.6525C30.914 81.6784 30.2723 81.7024 29.6325 81.7249C28.9913 81.7474 28.3564 81.7684 27.7198 81.7884C27.514 81.7948 27.2987 81.8014 27.0946 81.8076C27.0005 81.8104 26.9065 81.8133 26.8127 81.8161C28.058 81.8183 29.3509 81.8216 30.6872 81.8268C32.6176 81.8343 34.6785 81.8547 36.9518 81.8772C40.83 81.9155 45.3263 81.9596 50.8479 81.9565ZM7.81873 79.5732C8.30866 79.8811 9.04599 80.3102 10.0589 80.7274C10.2981 80.8256 10.5541 80.9232 10.8238 81.0167C10.8175 81.0144 10.811 81.0121 10.8047 81.0097C10.1422 80.7566 9.5477 80.4814 8.92922 80.1445C7.82789 79.5422 6.83548 78.8246 5.93323 77.9966C5.02763 77.1647 4.22681 76.2289 3.5457 75.2132C2.86305 74.1957 2.30136 73.0964 1.87736 71.9576C1.44897 70.8073 1.16073 69.6257 1.00668 68.4164C0.957543 68.0296 0.922598 67.6441 0.901278 67.2531C0.929604 68.1225 1.033 69.0252 1.23283 69.9615C1.3927 70.7092 1.61393 71.4777 1.91333 72.2645C2.02784 72.5651 2.17388 72.9264 2.36587 73.3398C3.11951 74.9466 4.62775 77.5379 7.81873 79.5732ZM0.708577 57.9787C0.704429 57.7101 0.700684 57.443 0.697591 57.179C0.688797 56.4274 0.683769 55.6949 0.67989 54.9767C0.677189 54.4723 0.675251 53.9738 0.673176 53.4824C0.6723 53.2751 0.671338 53.0679 0.670429 52.8628C0.668911 52.5191 0.667097 52.178 0.665241 51.8394C0.646391 54.2146 0.631939 56.5365 0.627398 58.9563C0.627338 58.9882 0.627455 59.0203 0.627398 59.0525C0.655027 58.6862 0.6821 58.3284 0.708577 57.9787ZM47.3635 52.1727C47.5549 52.2588 47.8965 52.3841 48.3689 52.3696C48.8406 52.3613 49.3252 52.1605 49.5887 51.9712C50.0729 51.6369 50.3002 51.2199 50.4055 50.9445C50.5117 50.6552 50.5368 50.4617 50.5388 50.2144C50.5246 50.7475 50.4911 51.2883 50.4515 51.9268C50.4515 51.9273 50.4515 51.9278 50.4515 51.9282C50.4438 52.0522 50.4357 52.18 50.4277 52.3121C50.3705 53.2489 50.3047 54.4327 50.2599 56.1255L50.2437 56.3931C50.3337 55.6868 49.897 55.1013 49.6102 54.9326C49.581 54.9128 49.5519 54.8948 49.5225 54.8781L49.3634 54.7932C50.3708 55.3117 51.3362 55.6575 52.1275 55.8898L52.1829 55.9003C52.7389 56.0756 53.2206 56.2158 53.6097 56.3312C53.7952 56.3852 53.9891 56.429 54.4871 56.4868C54.8139 56.5232 55.2574 56.5637 55.9041 56.5881C56.0211 56.5924 56.1447 56.5961 56.2756 56.5988C56.5276 56.604 56.8045 56.6055 57.1097 56.5994C58.3264 56.5791 60.0911 56.364 61.5859 55.6893L61.624 55.6731C61.9851 55.5229 62.3335 55.3377 62.6581 55.1263C63.4817 54.5936 64.1341 53.8881 64.5706 53.2442L64.5498 53.2756C64.6286 53.1545 64.7004 53.0353 64.7656 52.9197C65.3093 51.9502 65.6243 50.8611 65.6346 49.7037L65.6348 49.6269C65.6405 49.5217 65.6434 49.4158 65.6434 49.3092C65.6434 48.5191 65.4863 47.6835 65.0995 46.8451L65.1314 46.9071C64.9308 46.5201 64.682 46.1405 64.3759 45.7795C63.9929 45.3278 63.5717 44.9134 63.0995 44.5383L63.1092 44.5447C62.612 44.1654 62.1069 43.7937 61.5825 43.4369C61.4426 43.3418 61.3011 43.2476 61.1583 43.1548C60.3411 42.6244 59.4696 42.1305 58.4965 41.7164L58.4343 41.6925C58.2276 41.587 58.0188 41.4796 57.8076 41.3702C57.1956 41.053 56.6212 40.7458 56.0715 40.4377L56.0625 40.4328C55.5613 40.1431 55.0947 39.7857 54.7134 39.3126L54.6938 39.2869C54.4445 38.9429 54.2153 38.5089 54.2049 37.9487C54.2065 37.4508 54.3299 37.0303 54.5657 36.6151L54.5881 36.5803C54.9187 36.0738 55.4418 35.7225 55.9933 35.5629C56.023 35.5542 56.0527 35.546 56.0826 35.5382L56.0572 35.5447C56.7403 35.3441 57.4733 35.2033 58.3035 35.2278L58.258 35.2266C58.4597 35.2228 58.6642 35.2235 58.8717 35.2289C59.7979 35.2503 60.9522 35.392 62.1577 35.6633C63.0283 35.8469 63.9501 36.1349 64.8272 36.5412C65.0075 36.6245 65.186 36.7124 65.3617 36.8048C65.3626 36.8052 65.3635 36.8057 65.3644 36.8062C65.4327 36.8421 65.5006 36.8787 65.5682 36.916L65.5463 36.9044C65.2656 36.8064 65.3742 36.8808 65.5253 36.8289L65.2146 36.965C64.9997 37.1367 65.0012 37.2231 64.9877 37.3709C64.9919 35.8385 64.9934 34.3906 64.9828 33.2664C64.9775 32.7091 64.9705 32.2379 64.9622 31.8335C64.9616 31.8469 64.9486 31.7688 64.9139 31.6469L64.982 31.8363C65.0397 31.9143 64.9583 31.924 65.2581 32.0419L65.1275 31.998C64.5423 31.7791 64.1572 31.6908 63.8119 31.6182C63.5744 31.5698 63.354 31.532 63.0918 31.4913C62.9129 31.4638 62.7167 31.436 62.5064 31.4119L62.4923 31.4098C61.5358 31.2843 60.2955 31.1557 59.0376 31.1281C59.0317 31.128 59.0258 31.1279 59.0198 31.1278C58.7629 31.1218 58.5551 30.9812 58.5559 30.8084C58.5566 30.6356 58.7714 30.4959 59.0355 30.502C59.8768 30.5209 60.6966 30.5803 61.4277 30.6553C61.481 30.5116 61.6919 30.4209 61.9298 30.4516C62.0818 30.4712 62.3148 30.4942 62.6251 30.5271C63.2672 30.5884 64.2512 30.7146 65.4859 31.1422C65.6265 31.173 65.7505 31.2874 65.8302 31.4234C65.8702 31.5535 65.9127 31.687 65.922 31.8335C65.9383 32.0947 65.9554 32.366 65.9731 32.6471C66.0002 32.4487 66.0265 32.2825 66.0516 32.1369C66.0718 32.0191 66.0901 31.9204 66.1066 31.8335C66.114 31.7844 66.1178 31.7388 66.1199 31.6964C66.1256 31.5611 66.117 31.4561 66.109 31.3567L66.0879 31.298C66.0272 31.1472 65.9573 31.013 65.7538 30.8707C65.7062 30.8416 65.6502 30.8136 65.5791 30.7939L65.6253 30.8094C65.0244 30.5315 64.0816 30.2033 63.0528 30.0274C62.9168 30.0037 62.7988 29.9506 62.7161 29.8821C62.6421 29.8133 62.5985 29.7276 62.6115 29.6419C62.6244 29.5573 62.6905 29.4887 62.7878 29.4465L62.776 29.4449C62.8788 29.4012 63.0168 29.3861 63.1622 29.4114C63.1678 29.4124 63.1734 29.4133 63.1791 29.4143C64.2189 29.5932 65.2093 29.9295 65.8673 30.2315L65.7352 30.1871C65.9842 30.2565 66.1248 30.3582 66.239 30.4486C66.4594 30.6342 66.5758 30.8069 66.6743 31.0126L66.7428 31.2028C66.752 31.2524 66.7621 31.3061 66.7709 31.3593C66.7909 31.4726 66.8117 31.6655 66.8024 31.7919C66.8019 31.8013 66.8009 31.8156 66.7992 31.8335C66.798 31.84 66.7965 31.8473 66.7947 31.8552C66.7946 31.8555 66.7945 31.8558 66.7944 31.8561C66.7921 31.8665 66.7804 31.9192 66.755 31.9755C66.7499 31.9868 66.7384 32.0115 66.7199 32.0402C66.7185 32.0476 66.7171 32.055 66.7156 32.0624C66.6959 32.1656 66.6757 32.2709 66.6561 32.3848C66.5797 32.8297 66.4832 33.5343 66.3812 35.0018C66.3387 35.6123 66.3068 36.4136 66.2846 37.3716C66.2744 37.6171 66.1948 37.8455 65.9443 38.0283L65.8123 38.0861C65.6046 38.1157 65.3492 38.2213 64.9614 38.044L64.9523 38.0392C64.172 37.5939 63.2266 37.2103 62.1515 36.9602C62.3308 37.0154 62.509 37.0742 62.6851 37.1364C63.1285 37.2931 63.5626 37.4736 63.9813 37.6802C64.1417 37.7592 64.2976 37.841 64.4541 37.928C64.5971 38.0075 64.7382 38.0904 64.8771 38.1765L64.8899 38.1833C65.1645 38.3301 65.4249 38.3102 65.5904 38.2961C65.6861 38.2866 65.7706 38.2728 65.8516 38.258L66.044 38.1737C66.3549 37.9499 66.4553 37.6799 66.4717 37.372C66.4718 37.3689 66.472 37.3661 66.4721 37.3634C66.4721 37.363 66.4721 37.3625 66.4721 37.362C66.4861 37.0779 66.5001 36.793 66.5145 36.5059C66.5199 36.4054 66.5251 36.3062 66.5301 36.2076C66.5501 35.8152 66.5696 35.4298 66.6073 34.986C66.6136 34.9321 66.6216 34.8735 66.6284 34.8297C66.6355 34.7827 66.6427 34.7374 66.65 34.6947C66.6565 34.6569 66.6631 34.6209 66.6693 34.5864C66.6701 34.5818 66.6709 34.5772 66.6717 34.5726C66.6786 34.5339 66.6849 34.497 66.6909 34.4615C66.6969 34.4261 66.7027 34.392 66.7077 34.3584C66.7077 34.3581 66.7077 34.3578 66.7077 34.3575C66.7129 34.3224 66.7167 34.2957 66.7211 34.2585C66.7267 34.2118 66.7309 34.1716 66.7352 34.123C66.7393 34.0759 66.743 34.0268 66.7462 33.9773C66.7494 33.9277 66.7522 33.8773 66.7547 33.826C66.7573 33.7748 66.7596 33.7227 66.7617 33.6702C66.7638 33.6177 66.7657 33.5645 66.7675 33.5111C66.7694 33.4576 66.7712 33.4035 66.773 33.3492C66.7772 33.2241 66.8118 33.1042 66.8707 33.0162C66.9295 32.9282 67.0074 32.8791 67.088 32.8797C67.1686 32.8803 67.246 32.9305 67.304 33.0194C67.3621 33.1083 67.3957 33.2287 67.3987 33.3538C67.3994 33.3879 67.4003 33.4221 67.4011 33.4565C67.4015 33.4769 67.4019 33.4975 67.4023 33.518C67.4035 33.5731 67.4048 33.6289 67.4057 33.685C67.4066 33.741 67.4071 33.7975 67.4075 33.8547C67.4079 33.912 67.408 33.9702 67.4075 34.0291C67.407 34.0879 67.406 34.148 67.4041 34.209C67.4024 34.2686 67.3994 34.3365 67.3956 34.3973C67.3929 34.4417 67.3884 34.4964 67.3843 34.542C67.38 34.5896 67.3752 34.6365 67.3703 34.6817C67.3653 34.727 67.36 34.7708 67.355 34.8126C67.3545 34.8171 67.354 34.8215 67.3535 34.826C67.3491 34.863 67.3448 34.8987 67.341 34.9324C67.3367 34.9701 67.3331 35.0058 67.33 35.0397C67.3265 35.0771 67.3251 35.0997 67.3236 35.1276C67.3135 35.4956 67.3156 35.9505 67.3175 36.3843C67.3177 36.4388 67.3179 36.493 67.3181 36.5466C67.3195 36.822 67.3213 37.0969 67.3231 37.3716C67.3231 37.4143 67.3217 37.4554 67.3191 37.496C67.2666 38.0088 67.1157 38.4615 66.538 38.8937L66.0459 39.1093C65.93 39.1358 65.8028 39.1637 65.6251 39.1836C65.4041 39.2064 64.9574 39.236 64.4758 38.9902L64.4411 38.9717C64.2978 38.8943 64.1524 38.8204 64.0051 38.7502C63.8569 38.6796 63.7095 38.6138 63.5578 38.5505C63.1617 38.3852 62.7514 38.244 62.3297 38.1241C62.111 38.0619 61.8888 38.0053 61.6634 37.9538L61.6492 37.9507C61.4303 37.8986 61.2116 37.849 60.9932 37.8025C60.5407 37.7059 60.0727 37.619 59.6216 37.5478C59.29 37.4949 58.9507 37.4397 58.6353 37.3967C58.5079 37.3792 58.3824 37.3635 58.258 37.3497L58.1947 37.348C58.1616 37.3417 58.128 37.3359 58.0942 37.3305C58.0938 37.3304 58.0933 37.3302 58.0928 37.3301C57.9735 37.3111 57.8507 37.2978 57.7257 37.2904C57.4577 37.2743 57.1809 37.2846 56.9032 37.3184C56.7861 37.3327 56.6687 37.3512 56.552 37.3736L56.5198 37.3818C56.4319 37.3902 56.3507 37.4117 56.2809 37.4431C56.196 37.4813 56.1283 37.5332 56.0783 37.5949L56.1063 37.5514C56.084 37.5827 56.0617 37.6216 56.0427 37.6633C55.997 37.7609 55.9716 37.8786 55.9713 37.9488C55.9708 37.9563 55.9716 37.9732 55.9792 38.0009C55.9939 38.0572 56.0401 38.1526 56.1148 38.2502L56.0897 38.2173C56.1849 38.3333 56.302 38.4458 56.4374 38.5519C56.584 38.6667 56.7506 38.7724 56.9296 38.8662L56.9179 38.8598C57.0874 38.9467 57.2588 39.0318 57.4316 39.1152C57.5697 39.1818 57.7087 39.2476 57.8487 39.3122C57.8493 39.3125 57.8498 39.3127 57.8503 39.313C58.1093 39.4325 58.3712 39.5485 58.6353 39.6615C58.8233 39.742 59.0125 39.8209 59.2028 39.8985L59.1292 39.8702C59.376 39.9503 59.6216 40.035 59.866 40.1244C60.3196 40.2902 60.7699 40.4724 61.215 40.6717C61.66 40.8712 62.1096 41.0921 62.5491 41.3352C62.9414 41.5518 63.3291 41.783 63.7015 42.0186C63.7999 42.0808 63.8978 42.1436 63.9952 42.2071C64.1415 42.3023 64.2854 42.3977 64.4273 42.4934C64.7642 42.7234 65.0754 42.9646 65.3709 43.2201C65.8025 43.5936 66.205 44.0026 66.5733 44.4491C66.884 44.8259 67.1705 45.2308 67.4259 45.6597L67.4481 45.7027C67.4909 45.7827 67.5327 45.8635 67.5734 45.945C67.8394 46.4782 68.0544 47.0335 68.2148 47.6207C68.3739 48.2034 68.4755 48.809 68.5132 49.4288C68.5188 49.5194 68.5228 49.6117 68.5251 49.7049L68.5253 49.644C68.5444 49.9035 68.5508 50.1699 68.5453 50.4251C68.5379 50.7748 68.5089 51.1218 68.461 51.4619C68.4415 51.5999 68.4189 51.7368 68.3936 51.8723C68.3567 52.0699 68.3137 52.2647 68.2659 52.4553C68.1852 52.7769 68.0907 53.0873 67.9867 53.3857C67.8827 53.684 67.7694 53.9703 67.6509 54.2449C67.5277 54.529 67.4191 54.7618 67.2805 55.0389C67.2795 55.0408 67.2785 55.0426 67.2775 55.0445L67.258 55.0739C66.8934 55.7165 66.6009 56.0798 66.2637 56.467C66.1965 56.5432 66.1267 56.6203 66.0527 56.6994C65.6272 57.15 65.1535 57.5582 64.6485 57.9121C64.1386 58.2692 63.5991 58.5718 63.0257 58.8207C62.9954 58.8339 62.965 58.8468 62.9345 58.8597L62.9752 58.8423C62.4618 59.0739 61.9333 59.2645 61.4035 59.4177C60.8445 59.5794 60.2828 59.7004 59.7215 59.7883C59.1605 59.8763 58.5899 59.9314 58.046 59.9581C57.7317 59.9738 57.3992 59.9796 57.092 59.977C56.8702 59.9753 56.6528 59.9696 56.4402 59.9613C56.3852 59.9591 56.3304 59.9568 56.2756 59.9543C56.2444 59.9528 56.2133 59.9513 56.1823 59.9498C55.8903 59.9353 55.6064 59.9171 55.3321 59.8977C55.0577 59.8782 54.7922 59.8575 54.5321 59.8373C54.2716 59.817 54.0165 59.7971 53.7607 59.7774C53.4956 59.757 53.2751 59.7402 52.9924 59.7186C52.8083 59.7045 52.6278 59.6888 52.4478 59.671C52.1784 59.6444 51.9109 59.6136 51.6416 59.5782C51.5717 59.569 51.5022 59.5596 51.4327 59.5499L51.4806 59.559C51.2716 59.5351 51.0645 59.5071 50.8573 59.4749C50.7674 59.4609 50.6725 59.4452 50.5825 59.4297C50.3045 59.3815 50.0308 59.3268 49.7583 59.2656C49.4864 59.2045 49.218 59.1374 48.9514 59.0644C48.6837 58.991 48.4212 58.9127 48.1542 58.8263C47.9383 58.7564 47.7295 58.6782 47.5311 58.5958L47.3843 58.5174C46.8171 58.1981 46.2796 57.6441 46.0644 56.825C45.9844 56.5172 45.9633 56.1834 45.9993 55.8762L45.9842 56.1255C45.9753 55.8527 45.9694 55.5928 45.9637 55.3384C45.9624 55.2789 45.9611 55.2194 45.9598 55.1599C45.9542 54.9036 45.949 54.6515 45.9427 54.4032C45.9349 54.0972 45.9256 53.7967 45.9146 53.4953C45.9037 53.1964 45.8909 52.8947 45.8758 52.5975C45.8606 52.2975 45.8442 52.0107 45.824 51.7016C45.8041 51.3959 45.7783 51.0854 45.7501 50.7451C45.7358 50.572 45.7212 50.3946 45.707 50.2144C45.7406 49.5945 45.7382 48.8259 46.8428 47.9557C47.2883 47.5908 48.3233 47.3835 48.8994 47.5655C49.4083 47.6924 49.6524 47.8639 49.8239 47.9707L49.714 47.8999C49.9457 48.016 50.1803 48.1271 50.4147 48.2321C50.6873 48.3542 50.9622 48.4689 51.2359 48.5748C51.5111 48.6811 51.7873 48.7795 52.0656 48.8699C52.3432 48.9603 52.6339 49.0455 52.9099 49.1185C52.9867 49.1388 53.0637 49.1585 53.1411 49.1776L53.2251 49.1987C53.5886 49.3018 53.9587 49.3887 54.3345 49.459C54.7857 49.5436 55.2459 49.6045 55.7082 49.6409C55.9626 49.6609 56.2181 49.6735 56.4739 49.6787C56.6783 49.6829 56.8754 49.6817 57.0629 49.6743C57.4763 49.6602 57.8564 49.6015 58.0382 49.5449C58.0775 49.5335 58.1058 49.5234 58.1199 49.5189C58.1218 49.5183 58.1235 49.5178 58.1249 49.5174L58.2367 49.4636C57.9394 49.6147 57.8445 49.787 57.787 49.9557C57.7867 49.957 57.7864 49.9582 57.786 49.9595C57.7629 50.0358 57.7504 50.1201 57.7534 50.2136C57.7547 50.5563 57.9459 50.7928 57.922 50.7467C57.9165 50.7358 57.8799 50.6941 57.8219 50.6432C57.8223 50.6432 57.8216 50.6423 57.82 50.6407C57.8029 50.6233 57.7162 50.5609 57.6102 50.4976C57.5024 50.4326 57.3725 50.3621 57.2352 50.2929C57.0965 50.2229 56.9501 50.1537 56.7983 50.0861C56.6587 50.0238 56.5154 49.9634 56.3558 49.8977C56.3413 49.8918 56.3267 49.8858 56.312 49.8798C56.1366 49.8079 55.9335 49.725 55.7438 49.6453C55.5678 49.571 55.391 49.4981 55.2132 49.426L55.2815 49.452C54.8959 49.3099 54.5161 49.1594 54.1355 48.9974C53.5495 48.7478 52.9738 48.4758 52.406 48.1779C52.1843 48.0615 51.9634 47.9412 51.7447 47.817C51.4046 47.6239 51.0684 47.4212 50.7376 47.2092C50.4999 47.057 50.2652 46.9 50.0337 46.7384L49.9974 46.7125C49.6574 46.4654 49.3326 46.1977 49.0248 45.911C48.4805 45.4042 47.9905 44.8376 47.5687 44.2324C47.3 43.8472 47.0565 43.4433 46.8415 43.0282L46.7937 42.9353C46.678 42.6852 46.5733 42.4306 46.4801 42.173C46.1938 41.3818 46.0106 40.5567 45.9387 39.7159C45.9013 39.278 45.8945 38.8368 45.919 38.3974L45.9181 38.4585C45.9293 38.066 45.9634 37.6745 46.0199 37.2875C46.1382 36.4752 46.3568 35.6833 46.6609 34.9368C46.8898 34.374 47.1666 33.8373 47.4817 33.3322L47.5044 33.2939C47.6138 33.1264 47.7282 32.9626 47.8471 32.8027C48.1352 32.4153 48.4501 32.0511 48.7878 31.7122C48.9494 31.517 49.1116 31.3355 49.2734 31.1662C50.0871 30.323 50.8722 29.7487 51.7703 29.2648L51.6978 29.3011C52.1216 29.055 52.5703 28.8373 53.0633 28.6433C53.2083 28.5834 53.3253 28.5326 53.4681 28.4734C53.4953 28.4622 53.5243 28.4505 53.5538 28.4386C53.7406 28.3634 53.9572 28.2819 54.2614 28.1949C54.8661 28.021 55.816 27.8426 56.9932 27.9057C57.291 27.9214 57.4831 28.0805 57.4294 28.2519C57.3919 28.3723 57.2456 28.4679 57.0626 28.5103C57.4055 28.5061 57.7447 28.5124 58.0804 28.5262C58.2138 28.5318 58.3404 28.5693 58.4288 28.6306C58.5175 28.6919 58.5627 28.7714 58.5551 28.8518C58.5475 28.9323 58.4877 29.0077 58.3906 29.0633C58.2936 29.1189 58.1661 29.1503 58.0354 29.1521C57.6887 29.1567 57.3422 29.1697 56.9948 29.194C56.6466 29.2184 56.2995 29.2539 55.9515 29.3024C55.6029 29.3511 55.2555 29.4128 54.907 29.4905C54.5603 29.5678 54.2139 29.6606 53.8705 29.7719C53.5247 29.8839 53.189 30.012 52.8541 30.1625C52.6654 30.2473 52.4769 30.3396 52.2943 30.4373L52.3239 30.4225C52.3121 30.4282 52.3004 30.434 52.2887 30.4398C52.2154 30.4759 52.1444 30.5124 52.0738 30.5496C52.0162 30.58 51.9585 30.6111 51.8995 30.6438C51.2793 30.9882 50.6954 31.409 50.1734 31.8877C49.6488 32.3684 49.1814 32.9105 48.7854 33.5015C48.6948 33.6367 48.608 33.7744 48.525 33.9145L48.5157 33.9302C48.2496 34.4033 48.0226 34.9001 47.8417 35.4145C47.6072 36.0809 47.4512 36.7764 47.3822 37.4808C47.3504 37.8056 47.3368 38.1322 47.3414 38.4585L47.3417 38.437C47.3364 38.82 47.3591 39.2028 47.4088 39.5806C47.4802 40.1245 47.6066 40.6545 47.7829 41.1663C47.8642 41.3639 47.9513 41.5559 48.0435 41.7415C48.1219 41.8994 48.2061 42.054 48.2955 42.2048L48.3088 42.2306C48.5394 42.5818 48.7954 42.913 49.0674 43.2208C48.796 42.8669 48.5688 42.5266 48.3708 42.1969L48.359 42.174C48.1182 41.7271 47.9319 41.2968 47.7833 40.865C47.7482 40.7628 47.7153 40.6604 47.6845 40.5576C47.4878 39.8943 47.3707 39.213 47.3746 38.438L47.3743 38.4585C47.3653 38.0126 47.3943 37.5344 47.4847 37.016C47.6998 35.7922 48.1385 34.7888 48.6116 33.9857L48.6197 33.9721C49.7809 32.1474 51.0645 31.3517 51.9394 30.8799C52.1133 30.7895 52.277 30.7125 52.4307 30.6459L52.4094 30.6565C53.384 30.2049 53.9149 30.1307 54.4068 30.0918C55.2147 30.0202 56.6971 29.9123 57.442 29.8905C57.7127 29.8768 57.9356 30.0124 57.9386 30.185C57.9421 30.3579 57.7322 30.5025 57.4719 30.5157C56.7097 30.5381 55.1781 30.6523 54.2706 30.7488C53.9295 30.7832 53.5356 30.8298 52.7007 31.2116C52.5497 31.2762 52.3848 31.3533 52.2057 31.4471C51.4077 31.8809 50.2273 32.6142 49.1545 34.2973C48.7104 35.0501 48.3006 35.9863 48.1005 37.1286C48.0173 37.6073 47.9914 38.0471 48.0007 38.4585C47.999 39.1294 48.098 39.7299 48.2703 40.3262C48.2977 40.4205 48.3274 40.5147 48.359 40.6091C48.3592 40.6097 48.3593 40.6103 48.3595 40.6109C48.5006 41.0306 48.6822 41.4548 48.9233 41.8995C49.2029 42.3616 49.5454 42.8525 49.9985 43.3674C50.4152 43.8408 50.9169 44.2984 51.4757 44.6864C53.12 45.8043 55.0165 46.6149 56.1801 46.9753C56.5759 47.1166 56.8767 47.226 57.0621 47.2908C57.2471 47.3555 57.4267 47.4177 57.6161 47.4858C58.1191 47.6888 58.6857 47.8097 59.6366 48.4707C59.9997 48.7765 60.6023 49.2348 60.6553 50.2016C60.6554 50.2059 60.6555 50.2101 60.6556 50.2144C60.6662 50.82 60.3949 51.5448 59.7268 52.0013C59.6428 52.0661 59.5524 52.1248 59.4566 52.1759L59.484 52.1627C58.6529 52.6559 57.8158 52.7893 57.1068 52.8751C56.8894 52.8986 56.6799 52.9191 56.4739 52.9381C56.0434 52.978 55.6286 53.0127 55.2189 53.0361C55.045 53.0461 54.8694 53.0541 54.6934 53.0592C54.2692 53.0716 53.8413 53.0667 53.4252 53.0337C53.0935 53.0074 52.7443 52.9748 52.3744 52.9259C52.3241 52.9192 52.2733 52.9122 52.2223 52.9049L52.2675 52.9163C50.9764 52.7764 49.3589 52.4473 47.5974 51.3905L47.5194 51.3403C47.537 51.3523 47.562 51.3688 47.5991 51.3898C47.6892 51.4374 47.8663 51.538 48.2001 51.5625C48.5333 51.594 48.9435 51.4501 49.1348 51.3068C49.4498 51.0895 49.5928 50.8223 49.6579 50.6533C49.7235 50.475 49.7379 50.3627 49.7401 50.2144C49.7358 51.9943 49.7036 53.5417 49.672 54.8953C49.7127 53.7887 49.7614 52.9345 49.8048 52.2228C49.813 52.0886 49.8209 51.96 49.8286 51.8362C49.8675 51.2074 49.8988 50.702 49.9127 50.2144C49.9117 50.3857 49.8957 50.5164 49.8214 50.72C49.7477 50.9132 49.5856 51.2127 49.2371 51.4537C49.0503 51.5874 48.7119 51.7313 48.3746 51.7432C48.037 51.7594 47.7846 51.6736 47.6445 51.613C47.5186 51.5574 47.4561 51.5143 47.4179 51.4888L47.5041 51.5444C49.632 52.8006 51.0672 53.1268 52.1694 53.3366L52.1095 53.3215C52.6259 53.4296 53.0897 53.4909 53.5701 53.5266C53.9745 53.5563 54.4209 53.5646 54.8979 53.5512C55.3937 53.5373 55.9225 53.5001 56.4739 53.4412C56.9879 53.3861 57.5317 53.3149 58.1165 53.1901C58.6054 53.0815 59.1404 52.931 59.7082 52.5989L59.6578 52.6232C60.5778 52.1436 61.0729 51.1924 61.0223 50.2146C61.0178 50.1326 61.0087 50.0506 60.9949 49.9693C60.9948 49.9686 60.9947 49.9678 60.9947 49.967C60.9296 49.5766 60.7506 49.2283 60.5467 48.9655C60.3164 48.668 60.0597 48.4532 59.8043 48.27C58.5716 47.4869 57.4415 47.2345 56.2957 46.8234C56.2827 46.8191 56.2695 46.8147 56.256 46.8102L56.2419 46.8048C56.104 46.7641 55.9422 46.716 55.7595 46.6584C54.7985 46.3569 53.2166 45.773 51.5486 44.5772C51.2392 44.3468 50.9339 44.0775 50.6478 43.7737C50.264 43.3651 49.9199 42.8898 49.6019 42.3131C49.5053 42.1374 49.4114 41.9517 49.3207 41.7553C49.3116 41.7355 49.3024 41.7155 49.2933 41.6955L49.3032 41.7147C48.9805 40.8911 48.6946 39.8384 48.7672 38.4767L48.7674 38.4585C48.7685 38.4231 48.7699 38.3876 48.7715 38.3519C48.8131 37.2405 49.14 35.9149 49.8643 34.7102L49.8562 34.7239C49.9165 34.6274 49.9792 34.532 50.0445 34.4378C50.4673 33.8264 50.9954 33.2708 51.5858 32.8148C52.0467 32.4583 52.5389 32.1648 53.0469 31.9345L53.0733 31.9212C54.5078 31.2103 56.1079 30.9869 57.7043 30.9546C57.7047 30.9546 57.7052 30.9546 57.7056 30.9546C57.9613 30.9499 58.1651 31.0924 58.1589 31.2651C58.1527 31.438 57.9472 31.5762 57.7018 31.581C56.167 31.612 54.6633 31.8332 53.3642 32.4755L53.317 32.4992C52.8468 32.7113 52.3907 32.9828 51.9642 33.3133C51.4314 33.7255 50.9505 34.2297 50.565 34.7855C50.5047 34.8722 50.4467 34.9601 50.391 35.0491L50.4061 35.0236C49.7319 36.1425 49.4327 37.3667 49.3963 38.3935C49.3954 38.4152 49.3946 38.4369 49.3939 38.4585L49.3934 38.4941C49.3239 39.7182 49.5772 40.6832 49.869 41.4395L49.8461 41.395C49.8669 41.4413 49.8877 41.4868 49.9087 41.5317C49.9985 41.7233 50.0902 41.9007 50.1829 42.0662C50.4793 42.5925 50.7816 43.0031 51.1188 43.3606C51.3735 43.6296 51.6442 43.8679 51.9218 44.075L51.9077 44.065C53.4752 45.1894 54.9535 45.7433 55.8887 46.0407C56.0875 46.1041 56.2631 46.1567 56.4125 46.2012C56.427 46.2055 56.4416 46.2098 56.4562 46.2141L56.4887 46.2265C57.6684 46.6569 58.7643 46.8562 60.2096 47.7848C60.4441 47.9556 60.6843 48.1553 60.9192 48.4242C61.1683 48.7102 61.4184 49.0953 61.5535 49.5771C61.5539 49.5781 61.5542 49.579 61.5545 49.58C61.6119 49.7843 61.6462 50.0012 61.6551 50.2144C61.7002 51.4366 61.0885 52.5993 59.9169 53.1993L59.9969 53.1608C59.3871 53.5099 58.8409 53.6672 58.3486 53.7827C57.6441 53.9403 57.0399 54.0159 56.4739 54.0773C56.0191 54.1258 55.581 54.1601 55.1532 54.1783C54.6422 54.1999 54.1458 54.1982 53.655 54.1661C53.0923 54.1286 52.5508 54.0581 51.9453 53.9283L52.0263 53.9488C50.849 53.7218 49.3346 53.3552 47.1797 52.0793L47.0647 52.0052C47.1208 52.0429 47.2063 52.1005 47.3635 52.1727ZM56.5306 28.5254C55.8158 28.5179 55.224 28.6057 54.7895 28.7055C55.1634 28.6427 55.5357 28.5972 55.9041 28.5658C56.1145 28.5478 56.3224 28.5346 56.5306 28.5254ZM59.3161 51.521C59.3971 51.4616 59.4711 51.393 59.5367 51.3179C59.4324 51.4185 59.3124 51.5029 59.1815 51.5644C59.0606 51.6288 58.9377 51.6827 58.8118 51.7295C58.4833 51.8513 58.1361 51.9269 57.7856 51.9785C58.2899 51.9137 58.7793 51.7985 59.1885 51.5874C59.2343 51.5666 59.276 51.5448 59.3161 51.521ZM47.9108 50.8469C47.8902 50.8355 47.8789 50.8278 47.8728 50.8236L47.922 50.8553C49.5772 51.8441 51.0411 52.1393 52.3029 52.2813C52.3398 52.2853 52.3765 52.2892 52.4132 52.2929L52.3895 52.2869C52.7203 52.3325 53.0421 52.3659 53.3595 52.3936C53.5056 52.4063 53.6519 52.4151 53.7993 52.4209C53.314 52.3316 52.8559 52.2221 52.4391 52.1035L52.4564 52.1078C52.1517 52.0325 51.8682 51.9524 51.611 51.8726C49.9336 51.3398 49.0192 50.7653 48.2744 50.2741L48.2565 50.2626C48.2246 50.2328 48.2299 50.2571 48.3185 50.2462C48.3515 50.2402 48.3789 50.2243 48.389 50.2151C48.4473 50.1535 48.4013 50.1789 48.4012 50.2144C48.3956 50.3292 48.3902 50.4436 48.3851 50.5591C48.4061 50.7759 48.4269 51.001 48.4452 51.2284C48.471 51.5469 48.4958 51.8911 48.5169 52.2187C48.5381 52.5475 48.5571 52.8817 48.5731 53.2099C48.5892 53.5408 48.6026 53.8687 48.6143 54.1951C48.6253 54.5022 48.6345 54.8082 48.6436 55.1044C48.6441 55.1213 48.6446 55.1383 48.6451 55.1553C48.6547 55.4683 48.6638 55.7728 48.6765 56.0526C48.6776 56.0772 48.6788 56.1015 48.68 56.1255L48.6753 56.2021C48.6904 56.1631 48.6846 56.1541 48.7331 56.1674C48.7423 56.1689 48.7525 56.1703 48.7628 56.1711L48.7124 56.1442C48.9117 56.2137 49.1153 56.2799 49.3178 56.3412C49.5591 56.4141 49.8004 56.4807 50.0418 56.541C50.2837 56.6015 50.5241 56.6551 50.7654 56.7027C50.8435 56.7181 50.9252 56.7334 51.0026 56.7473C51.0383 56.7537 51.074 56.7598 51.1096 56.7659C50.6465 56.647 50.1719 56.4948 49.6952 56.3052C49.4074 56.1906 49.1169 56.0601 48.8245 55.9116L48.8937 55.9485C48.8928 55.9381 49.0238 56.0215 49.0097 56.2428L49.0169 56.1255C49.0226 55.8741 49.0288 55.6164 49.0351 55.3518C49.0699 53.8931 49.1096 52.2228 49.1142 50.2144C49.097 50.3335 49.1429 50.4983 48.7825 50.7894C48.6761 50.8693 48.4414 50.9541 48.2486 50.9384C48.0556 50.9264 47.9556 50.8698 47.9108 50.8469ZM58.5135 57.1873C58.3048 57.2144 57.9977 57.2531 57.5982 57.2863C57.5031 57.2942 57.404 57.3019 57.2987 57.3089C57.3012 57.3089 57.3037 57.3088 57.3062 57.3088C57.5671 57.3113 57.8078 57.308 58.0667 57.2967C58.5281 57.2761 58.9737 57.2352 59.4184 57.17C59.8646 57.1044 60.3044 57.0143 60.7346 56.8966C61.1458 56.7841 61.5489 56.6456 61.9347 56.4808L61.953 56.473C61.9712 56.4657 61.9894 56.4584 62.0076 56.451C62.4086 56.2872 62.7892 56.0873 63.1509 55.8504C63.2661 55.7749 63.3794 55.6956 63.4901 55.6129C63.2317 55.7819 62.9558 55.9439 62.6546 56.093C62.4267 56.2057 62.1842 56.3108 61.9246 56.4039L61.9046 56.4124C61.89 56.4181 61.8753 56.4237 61.8605 56.4293C61.7529 56.4704 61.6217 56.5165 61.4664 56.5662C60.8518 56.7632 59.8659 57.012 58.5135 57.1873ZM65.5461 52.9527C65.5856 52.8632 65.6232 52.7737 65.6592 52.6848C65.7617 52.4316 65.8502 52.1805 65.9246 51.9307C65.9769 51.7554 66.0225 51.5803 66.0608 51.4065C66.0769 51.3331 66.0918 51.2596 66.1054 51.1866C66.1283 51.0643 66.1474 50.9423 66.1632 50.821C66.0199 51.6672 65.7358 52.4711 65.3103 53.2275C65.3047 53.2375 65.2992 53.2476 65.2934 53.2576C65.382 53.1568 65.4662 53.055 65.5461 52.9527ZM22.0265 53.5471C22.0283 54.2175 21.9858 54.8459 21.9319 55.6396C21.9319 55.6401 21.9319 55.6405 21.9319 55.6409C21.9242 55.7543 21.9162 55.8712 21.9081 55.9919C21.8852 56.3354 21.8609 56.7153 21.8371 57.147C21.8103 57.0316 21.8899 56.7248 21.4332 56.0732C21.2042 55.7637 20.8101 55.505 20.5216 55.4126C20.2276 55.3126 20.0398 55.3118 19.9232 55.3127C20.5727 55.3431 21.3281 55.3709 22.2261 55.3915C23.9101 55.4301 25.3165 55.5496 26.3342 55.6817L26.0569 55.702C25.2625 55.8129 24.7365 56.7551 24.9047 57.3622L24.8874 57.1128C24.8887 57.105 24.89 57.0973 24.8912 57.0896C24.9225 56.8992 24.9397 56.7022 24.9553 56.2053C24.9656 55.8794 24.9748 55.4388 24.9883 54.8029C24.9954 54.4647 25.0037 54.0711 25.0139 53.6103C25.0479 52.085 25.0373 49.6945 25.0273 47.4918C25.0254 47.0532 25.0234 46.622 25.0219 46.2065L24.9498 44.6097L26.6975 44.5309C27.209 44.5326 27.664 44.5145 28.29 44.5706C28.4485 44.5868 28.7467 44.5925 28.9923 44.5958C29.2462 44.5992 29.5083 44.6012 29.7717 44.6042C30.8515 44.6158 31.9092 44.595 33.0153 44.4848C34.1692 44.3669 35.3816 44.1562 36.6682 43.6936C36.7665 43.6579 36.8672 43.6196 36.9682 43.579C38.0063 43.1614 39.0026 42.689 39.9454 42.0397C40.0651 41.9571 40.1838 41.8714 40.3011 41.7828C40.8111 41.3978 41.2989 40.9537 41.7445 40.431C42.0015 40.1304 42.241 39.8001 42.4562 39.4379C43.4826 37.6681 43.6864 35.9209 43.6725 34.0674C43.6709 33.9576 43.6684 33.8492 43.6648 33.7378C43.6445 33.1207 43.5798 32.4845 43.4599 31.8124C43.3486 31.1852 43.1683 30.4272 42.8864 29.6209L42.8903 29.632C42.6087 28.8534 42.2057 28.0449 41.6955 27.3072C41.6085 27.181 41.5182 27.0568 41.4255 26.935C41.4251 26.9344 41.4246 26.9337 41.4241 26.9331C41.1942 26.6312 40.9478 26.3443 40.6902 26.0779L40.6987 26.0865C39.8185 25.1954 38.8261 24.5314 38.0039 24.121C37.4486 23.8422 36.9843 23.6694 36.5999 23.547L36.572 23.5368C35.7834 23.2647 35.3237 23.1899 34.924 23.1207C34.6996 23.0841 34.4908 23.0545 34.2416 23.0188C33.3466 22.8856 31.9714 22.7262 30.5449 22.703C30.5395 22.7029 30.5341 22.7028 30.5286 22.7028C30.2922 22.6981 30.1014 22.5574 30.1018 22.3845C30.103 22.2118 30.2994 22.0722 30.5416 22.077C31.312 22.0916 32.0609 22.1377 32.7269 22.2023C32.7761 22.058 32.9694 21.9644 33.1861 21.992C33.6468 22.0673 34.9589 22.0753 36.9119 22.6551C37.241 22.7455 37.5871 22.8561 37.9466 22.9917C37.7917 22.8911 37.6608 22.8066 37.5454 22.7322C37.41 22.645 37.3052 22.5778 37.2144 22.5208C37.1379 22.4729 37.0712 22.4322 37.003 22.3939C36.9128 22.3373 36.8109 22.2823 36.6686 22.2184C36.11 21.9926 35.196 21.7287 34.2206 21.559C33.9748 21.5152 33.7959 21.3471 33.8217 21.1762C33.8476 21.0055 34.0758 20.8978 34.3313 20.9433C34.3363 20.9441 34.3413 20.945 34.3463 20.9458C35.3453 21.1199 36.3298 21.4022 36.9415 21.653C37.058 21.6999 37.162 21.745 37.2477 21.7841L37.2197 21.7738C37.2491 21.7861 37.2765 21.7978 37.3017 21.8087C37.3818 21.8434 37.481 21.8887 37.5337 21.9197C37.5407 21.9238 37.554 21.9318 37.5695 21.9422C37.5698 21.9424 37.57 21.9426 37.5703 21.9428C37.5789 21.9486 37.6233 21.9782 37.6653 22.0222C37.6738 22.0311 37.6921 22.0506 37.7113 22.0783C37.7175 22.0823 37.7237 22.0863 37.7299 22.0904C37.8162 22.1465 37.9033 22.2046 37.9974 22.2667C38.3585 22.5166 38.9648 22.8578 40.0588 23.7353C40.4881 24.0865 41.0339 24.552 41.6183 25.1679C42.386 25.9974 43.1965 27.1114 43.8085 28.5154C43.7477 28.3439 43.6822 28.1734 43.6121 28.0046C43.4357 27.5799 43.2294 27.1635 42.9961 26.7606C42.9067 26.6062 42.8147 26.4558 42.7169 26.3049C42.5596 26.062 42.3917 25.824 42.2141 25.5928C42.0941 25.4365 41.9693 25.283 41.8404 25.1329C41.8401 25.1326 41.8398 25.1323 41.8395 25.1319C41.8127 25.1008 41.7857 25.0697 41.7586 25.0388C41.5974 24.8605 41.4362 24.6915 41.2691 24.5257C41.2005 24.4573 41.1319 24.3905 41.0628 24.325C40.7877 24.0646 40.5068 23.8196 40.1763 23.5415C40.1371 23.5063 40.0949 23.4673 40.0635 23.4378C40.0298 23.4062 39.9974 23.3756 39.9668 23.3464C39.9399 23.3206 39.9143 23.2957 39.8895 23.2722C39.8862 23.269 39.8828 23.2659 39.8795 23.2627C39.8518 23.2364 39.825 23.2115 39.7991 23.1877C39.7732 23.164 39.7482 23.1412 39.7231 23.1195C39.7228 23.1193 39.7225 23.1191 39.7223 23.119C39.696 23.0963 39.6759 23.0792 39.6473 23.0563C39.6113 23.0275 39.58 23.0033 39.5414 22.975C39.5041 22.9476 39.4647 22.9198 39.4245 22.8923C39.3842 22.8649 39.3428 22.8375 39.3005 22.8103C39.2582 22.7831 39.2148 22.7558 39.1708 22.7288C39.1268 22.7019 39.0819 22.6751 39.0366 22.6484C38.9913 22.6217 38.9453 22.5951 38.8989 22.5687C38.792 22.5078 38.7026 22.4239 38.6504 22.3325C38.5982 22.2412 38.5874 22.1499 38.6228 22.0775C38.6581 22.0051 38.7376 21.9571 38.845 21.9453C38.9523 21.9335 39.0786 21.9595 39.1942 22.0171C39.2257 22.0328 39.2573 22.0486 39.2889 22.0647C39.3077 22.0742 39.3266 22.084 39.3454 22.0937C39.396 22.1198 39.447 22.1465 39.4979 22.174C39.5488 22.2014 39.5999 22.2298 39.6512 22.2589C39.7026 22.2882 39.7544 22.3184 39.8064 22.3499C39.8583 22.3814 39.9109 22.4144 39.9636 22.4489C40.015 22.4825 40.0729 22.5222 40.1238 22.559C40.161 22.5857 40.206 22.6201 40.2432 22.6491C40.282 22.6795 40.3197 22.71 40.3556 22.7399C40.3916 22.7699 40.426 22.7995 40.4587 22.8278C40.4622 22.8308 40.4658 22.8338 40.4693 22.8368C40.4982 22.8619 40.5259 22.8862 40.5522 22.9091C40.5816 22.9347 40.6095 22.9587 40.6361 22.9813C40.6654 23.0063 40.6835 23.0209 40.7058 23.0388C41.0069 23.2664 41.3754 23.552 41.7107 23.8443C41.7529 23.881 41.7946 23.9178 41.8356 23.9544C42.0114 24.1109 42.1829 24.2717 42.35 24.4368L42.3635 24.4505C42.4038 24.4914 42.4437 24.5325 42.4834 24.574C42.6318 24.7291 42.7761 24.8884 42.916 25.0516C43.1219 25.2917 43.3184 25.5408 43.5043 25.7969C43.6197 25.956 43.729 26.1149 43.836 26.279C44.1154 26.7074 44.3673 27.1549 44.5882 27.6176C44.7769 28.0129 44.9437 28.4209 45.0856 28.8375L45.0917 28.8547C45.114 28.9233 45.1358 28.992 45.157 29.061C45.3039 29.5371 45.4287 30.0427 45.5146 30.5377C45.5778 30.9017 45.6146 31.28 45.6321 31.6299C45.6416 31.818 45.6465 32.0022 45.6477 32.1834C45.6477 32.184 45.6476 32.1846 45.6476 32.1852C45.6486 32.3443 45.6469 32.501 45.6433 32.6563C45.6355 32.9892 45.6193 33.3145 45.5968 33.6378C45.5945 33.6711 45.5921 33.7044 45.5897 33.7378C45.5683 34.0204 45.5448 34.3012 45.5187 34.5838C45.4897 34.8972 45.4567 35.2157 45.4191 35.531C45.3812 35.848 45.3393 36.1592 45.2877 36.4863C45.2198 36.917 45.1391 37.3441 45.0346 37.7804C44.9308 38.214 44.8058 38.6478 44.6548 39.0777C44.6021 39.2276 44.546 39.3773 44.4868 39.5264C44.4865 39.527 44.4863 39.5276 44.4861 39.5282C44.3766 39.8036 44.2561 40.0766 44.1239 40.3451C43.9198 40.7598 43.688 41.1643 43.4277 41.5533C43.4205 41.5641 43.4133 41.5748 43.4061 41.5855C43.1553 41.9572 42.8816 42.3172 42.5849 42.6609C42.2798 43.0142 41.9435 43.3581 41.5808 43.6749C41.2576 43.9578 40.9153 44.2232 40.5688 44.4642C40.4773 44.5279 40.385 44.5903 40.2919 44.6514C39.8502 44.9416 39.407 45.196 38.96 45.429C38.5131 45.6615 38.0571 45.8746 37.5872 46.0684C37.5815 46.0708 37.5758 46.0731 37.5701 46.0754C37.113 46.2627 36.6456 46.4359 36.1694 46.5932C35.6854 46.7529 35.2025 46.8935 34.7068 47.0199C34.2147 47.1453 33.7171 47.2546 33.2124 47.3499C32.9316 47.4029 32.6321 47.4509 32.3487 47.4897C32.0628 47.5289 31.7786 47.5614 31.498 47.5888C31.3841 47.5999 31.2708 47.61 31.1583 47.6196C30.9943 47.6336 30.8317 47.646 30.6721 47.6575C30.4025 47.6769 30.1395 47.6937 29.8846 47.7101C29.8469 47.7126 29.8092 47.715 29.7717 47.7174C29.5646 47.7315 29.3614 47.7475 29.1611 47.7657C28.9162 47.7875 28.7142 47.81 28.4459 47.835C28.2857 47.8451 28.1309 47.8508 27.9539 47.8442C27.7358 47.8578 27.4535 47.8711 27.1749 47.8862C27.1006 47.8903 27.0236 47.8948 26.9425 47.8996C26.8615 47.9039 26.7797 47.9081 26.6975 47.9121L28.4031 46.2065C28.422 46.5953 28.4368 46.9831 28.4485 47.3666C28.4626 47.8359 28.4722 48.2977 28.4778 48.7656C28.4833 49.2289 28.4846 49.6955 28.4823 50.1603C28.4801 50.6244 28.4741 51.0876 28.4643 51.5521C28.4546 52.0162 28.4408 52.4899 28.424 52.9447C28.4144 53.2075 28.4015 53.4867 28.3883 53.7461C28.3788 53.9332 28.3689 54.1176 28.359 54.2984C28.355 54.3722 28.351 54.4456 28.3471 54.5183C28.3337 54.7689 28.3212 55.0125 28.3117 55.2478C28.3022 55.4832 28.2955 55.7109 28.2931 55.9338C28.2907 56.157 28.2925 56.3754 28.2986 56.5939C28.3039 56.776 28.3106 56.9332 28.3214 57.1128L28.3059 56.889C28.3364 57.0884 28.34 57.3099 28.3011 57.5408C28.1778 58.3218 27.5698 58.9598 26.8784 59.1681C26.7788 59.1996 26.6779 59.2235 26.577 59.2399L26.3342 59.2576C26.1276 59.2722 25.922 59.2871 25.7151 59.3024C25.4863 59.3194 25.2604 59.3368 25.0333 59.3549C24.9604 59.3607 24.8833 59.3669 24.81 59.3729C24.5838 59.3915 24.3602 59.4106 24.1368 59.4309C23.9138 59.4511 23.6928 59.4722 23.4728 59.4947C23.2519 59.5172 23.0346 59.5407 22.8131 59.5661C22.4366 59.6094 22.0761 59.6295 21.7605 59.643C21.4411 59.6563 21.1426 59.6637 20.8521 59.6708C20.7977 59.6721 20.7433 59.6734 20.6889 59.6747C20.4545 59.6803 20.224 59.6855 19.997 59.6918C19.9723 59.6925 19.9477 59.6932 19.9231 59.6939C19.7095 59.6938 19.4366 59.6808 19.0752 59.5625C18.7204 59.4511 18.2655 59.1735 17.9712 58.8028C17.3797 58.024 17.4221 57.4709 17.398 57.1471C17.397 57.1226 17.396 57.0981 17.3951 57.0737C17.3841 56.8005 17.3713 56.5246 17.3563 56.2528C17.3411 55.9786 17.3246 55.7163 17.3044 55.4337C17.2846 55.1542 17.2587 54.8703 17.2306 54.5591C17.2026 54.2508 17.1739 53.9272 17.1488 53.5996C17.1236 53.2722 17.1018 52.9397 17.0847 52.6096C17.0675 52.2787 17.0544 51.9468 17.0453 51.6195C17.0361 51.2905 17.0307 50.9634 17.0282 50.638C17.0257 50.3133 17.0262 49.9779 17.0291 49.664C17.034 49.1558 17.0408 48.6498 17.0484 48.1429C17.056 47.6388 17.0644 47.1331 17.0734 46.6284C17.0824 46.1247 17.0917 45.6205 17.1015 45.117C17.1112 44.6133 17.1213 44.1097 17.1314 43.6068C17.1336 43.4956 17.1359 43.3844 17.1381 43.2731C17.146 42.8815 17.1539 42.49 17.1616 42.1C17.1617 42.0973 17.1618 42.0947 17.1619 42.092C17.1717 41.5901 17.1812 41.0973 17.1894 40.5996C17.1923 40.4168 17.195 40.2413 17.1973 40.0629C17.1996 39.8843 17.2014 39.709 17.2028 39.5322C17.2042 39.3551 17.2049 39.179 17.2049 39.0056C17.2049 38.8304 17.2042 38.6596 17.2022 38.4872C17.2004 38.3291 17.1972 38.1722 17.1939 38.0008C17.1936 37.9852 17.1933 37.9695 17.193 37.9539C17.1894 37.7663 17.1871 37.553 17.1888 37.3546C17.1937 36.8293 17.196 36.3174 17.1958 35.7962C17.1956 35.2748 17.1929 34.7545 17.1891 34.2298C17.1876 34.0249 17.1858 33.8191 17.1842 33.6132C17.1817 33.2929 17.1791 32.9714 17.1772 32.649C17.1739 32.1185 17.1724 31.5868 17.1744 31.0517C17.1764 30.5186 17.1821 29.9822 17.1918 29.4481C17.2015 28.9144 17.2153 28.3761 17.2327 27.8448C17.2522 27.2529 17.2737 26.6644 17.2962 26.0733C17.3187 25.4831 17.3422 24.8926 17.3664 24.3047C17.3906 23.7147 17.4154 23.1261 17.4408 22.5374C17.4459 22.4203 17.451 22.3032 17.4561 22.186C17.4767 21.8744 17.4512 21.3484 17.9936 20.6303C18.5812 19.8871 19.4847 19.7504 19.8554 19.7676C20.1381 19.7801 20.4074 19.7924 20.6723 19.8013C20.9881 19.812 21.3008 19.818 21.6196 19.8193C21.6417 19.8191 21.6598 19.8192 21.678 19.8192C21.8766 19.7964 22.0641 19.7762 22.2421 19.7578C22.9802 19.6825 23.5655 19.628 24.1373 19.5658C24.6399 19.5156 25.1287 19.4812 25.6589 19.45C25.7747 19.4404 25.8682 19.4279 25.9814 19.4128C26.003 19.4099 26.0259 19.407 26.0492 19.4039C26.1966 19.3843 26.3651 19.3634 26.5965 19.3465C26.7201 19.3374 26.8607 19.3295 27.0171 19.3245C27.4869 19.3091 28.0919 19.3279 28.8018 19.4305C29.0468 19.4659 29.2016 19.6322 29.1499 19.8011C29.1135 19.9196 28.9851 20.008 28.8276 20.0383C29.119 20.0565 29.408 20.0769 29.6949 20.0976C29.8094 20.1059 29.9166 20.1447 29.9927 20.2064C30.0688 20.2682 30.1076 20.3476 30.1011 20.428C30.0945 20.5085 30.0428 20.5839 29.9572 20.6389C29.8716 20.6938 29.7592 20.7235 29.6444 20.7223C29.3398 20.719 29.0353 20.7162 28.7299 20.7158C28.4242 20.7155 28.119 20.7176 27.8123 20.7228C27.5635 20.727 27.3142 20.7333 27.0642 20.7419C27.0079 20.7439 26.9519 20.7457 26.8957 20.7475C26.5989 20.7571 26.3001 20.7647 25.9986 20.772C25.6954 20.7794 25.3959 20.7865 25.089 20.7952C24.9052 20.8004 24.7182 20.8063 24.5338 20.8134C24.4649 20.816 24.3978 20.819 24.3304 20.8219C24.2826 20.824 24.2345 20.8262 24.1854 20.8285C24.1782 20.8288 24.171 20.8292 24.1637 20.8295C23.5916 20.8573 23.0058 20.8721 22.4125 20.8937C22.1674 20.9028 21.9202 20.9131 21.6709 20.927C21.3308 20.9468 20.9951 20.9615 20.6571 20.9708C20.3931 20.9781 20.1272 20.9822 19.8567 20.9862C19.6501 20.9817 19.2265 21.0567 18.9584 21.402C18.7082 21.7364 18.7138 22.0058 18.7083 22.1857C18.7102 22.3136 18.7121 22.4411 18.7141 22.5687C18.723 23.157 18.7322 23.7449 18.7418 24.3339C18.7515 24.9208 18.7614 25.51 18.7721 26.0978C18.7803 26.5525 18.7892 27.0034 18.7986 27.4549C18.8147 27.6327 18.83 27.8086 18.8447 27.9823C18.8874 28.4877 18.9435 28.9939 18.9991 29.4925C18.9715 28.605 18.9283 27.8921 18.8871 27.2134C18.8816 27.1224 18.876 27.0321 18.8706 26.9419C18.8154 26.022 18.7687 25.1334 18.7791 23.9381C18.7846 23.3062 18.7898 22.7236 18.7949 22.186C18.8016 22.0103 18.804 21.7494 19.0423 21.4472C19.2967 21.1383 19.6695 21.0824 19.8562 21.0868C20.5511 21.0956 21.142 21.092 21.6758 21.0744C22.7437 21.0476 23.5134 21.0623 24.1074 21.0579C24.1367 21.0578 24.1655 21.0577 24.1941 21.0576C25.3811 21.0589 25.8869 21.1214 26.3689 21.2243C26.5658 21.2674 26.8137 21.303 27.0836 21.3294C27.7769 21.3953 28.6062 21.4374 29.0909 21.4383C29.3365 21.4386 29.5347 21.5797 29.5337 21.7525C29.5327 21.9253 29.3335 22.0646 29.0892 22.0643C28.6187 22.0636 27.827 22.0267 27.1046 21.9643C26.7312 21.9324 26.378 21.8842 26.0968 21.8223C25.7391 21.7456 25.3319 21.6864 24.218 21.6835C24.1765 21.6837 24.1343 21.6838 24.0909 21.6838C23.5005 21.6879 22.7339 21.6739 21.7039 21.6997C21.1637 21.7177 20.5536 21.7217 19.8567 21.7128C19.7524 21.7109 19.6136 21.7385 19.5244 21.8465C19.4374 21.9528 19.4228 22.0774 19.4209 22.186C19.4158 22.7253 19.4105 23.3106 19.405 23.9465C19.395 25.0988 19.4395 25.954 19.4941 26.8641C19.4995 26.9534 19.5051 27.0433 19.5106 27.1339C19.5106 27.1345 19.5106 27.1351 19.5106 27.1356C19.5614 27.9716 19.6167 28.8819 19.6412 30.1095C19.6977 32.9388 19.8071 36.7447 19.8689 37.6481C19.881 37.8254 19.8946 37.9968 19.9089 38.1776C19.9636 38.8715 20.0295 39.7093 20.0734 41.5972C20.0829 42.0101 20.0885 42.4938 20.0911 43.0215C20.1753 43.8135 20.2534 44.5824 20.2998 45.2511C20.3399 45.8281 20.4135 46.3602 20.4942 46.8758C20.5174 47.0243 20.5417 47.1737 20.5659 47.3229C20.6243 47.6826 20.6826 48.0425 20.7277 48.3932C20.7636 48.6728 20.8068 48.9656 20.8525 49.275C21.0189 50.4021 21.2182 51.7528 21.2209 53.5129C21.2228 54.8576 21.2047 56.0629 21.1813 57.147C21.1645 57.0947 21.2244 56.8609 20.8778 56.4127C20.7059 56.2037 20.4433 56.055 20.2693 56.0038C20.0902 55.9483 19.9852 55.9493 19.9232 55.9494C20.1012 55.9537 20.2758 55.9581 20.447 55.9625C20.2651 55.9552 20.0906 55.9476 19.9231 55.9399C19.9909 55.9385 20.1104 55.9363 20.3084 56.0025C20.5024 56.0633 20.7754 56.2404 20.9333 56.4523C21.2481 56.8996 21.1887 57.0917 21.2095 57.1468C21.2349 56.6818 21.2609 56.2755 21.2852 55.9103C21.2934 55.7876 21.3014 55.67 21.3091 55.5568C21.3632 54.7571 21.4026 54.1757 21.4009 53.5526C21.393 50.5765 21.34 49.4603 21.1867 48.2008C21.1463 47.8692 21.0926 47.5034 21.0347 47.1093C20.919 46.3216 20.7868 45.4207 20.7112 44.4526C20.6408 43.551 20.5368 42.5426 20.4268 41.4741C20.4268 41.4737 20.4268 41.4733 20.4268 41.4729C20.4053 41.2641 20.3835 41.0528 20.3618 40.8398C20.229 39.5407 20.0955 38.1743 20.0114 36.8442C20.0024 36.7019 19.99 36.5315 19.9757 36.3359C19.8931 35.2066 19.7482 33.2241 19.8411 30.803C19.8615 30.2713 19.9048 29.7187 19.9543 29.0882C19.9694 28.8961 19.9853 28.6967 20.001 28.4885C20.069 27.5897 20.1413 26.4976 20.1848 25.0435C20.21 24.1974 20.2261 23.2208 20.2396 22.186C20.2355 22.167 20.2665 22.2123 20.162 22.3615C20.0416 22.5188 19.8605 22.536 19.8571 22.5332C20.1053 22.5363 20.3597 22.5392 20.6176 22.5391C20.989 22.5393 21.3658 22.5329 21.7404 22.5208C22.1162 22.5097 22.4994 22.5066 22.8843 22.5046C23.3409 22.5022 23.7962 22.5009 24.2488 22.4921C25.2088 22.4756 26.1663 22.4984 27.1221 22.4893C27.8463 22.4837 28.5656 22.496 29.2894 22.5135C29.2898 22.5135 29.2902 22.5135 29.2907 22.5135C29.5344 22.5193 29.726 22.6648 29.7174 22.8375C29.7089 23.0101 29.5042 23.1449 29.2618 23.1392C28.5499 23.122 27.847 23.1102 27.1427 23.1152C26.1743 23.1245 25.2132 23.1018 24.2726 23.1176C23.8071 23.1268 23.3418 23.128 22.8804 23.1304C22.5032 23.1324 22.1297 23.1355 21.7657 23.1461C21.3898 23.1584 21.0059 23.165 20.6284 23.165C20.3653 23.1651 20.1067 23.1622 19.8567 23.1591C19.9183 23.1576 20.0188 23.1543 20.1731 23.0991C20.3245 23.0476 20.529 22.9133 20.6524 22.7503C20.9013 22.4049 20.8565 22.2322 20.8655 22.1866C20.8518 23.2322 20.8357 24.2234 20.8101 25.0791C20.7659 26.5579 20.6922 27.6699 20.6233 28.5811C20.6067 28.8006 20.5905 29.0069 20.5751 29.2028C20.5261 29.8264 20.4852 30.3448 20.4658 30.8491C20.3758 33.1933 20.515 35.1009 20.5977 36.2344C20.6123 36.4354 20.6251 36.6121 20.6346 36.7626C20.717 38.0666 20.8483 39.412 20.981 40.7099C21.0025 40.9205 21.024 41.13 21.0454 41.3379C21.0455 41.3384 21.0456 41.3388 21.0457 41.3392C21.1557 42.4074 21.2614 43.434 21.3332 44.3524C21.406 45.2846 21.5259 46.0976 21.638 46.8581C21.6982 47.2662 21.7559 47.6592 21.8031 48.0473C21.9658 49.3834 22.0186 50.5615 22.0265 53.5471ZM28.3759 20.0119C27.8424 19.9484 27.3912 19.9383 27.0379 19.9498C26.995 19.9512 26.954 19.9528 26.9142 19.9547C26.9557 19.9559 26.9967 19.9571 27.0381 19.9583C27.3088 19.9648 27.5778 19.9743 27.8457 19.9859C28.0232 19.9936 28.1998 20.0023 28.3759 20.0119ZM19.4657 43.0938C19.4556 42.9983 19.4453 42.902 19.4349 42.8054C19.4398 43.0721 19.4444 43.3388 19.449 43.6051C19.4546 43.9321 19.4599 44.259 19.4651 44.5858C19.4672 44.0662 19.4678 43.5627 19.4657 43.0938ZM20.5949 53.5171C20.5925 51.8572 20.4099 50.6168 20.2452 49.4983C20.1977 49.1761 20.1519 48.8638 20.1121 48.5548C20.0956 48.4266 20.0774 48.2986 20.0581 48.1695C20.0483 48.9212 20.038 49.6122 20.0294 50.1779C20.0038 51.8658 19.9505 52.8264 19.9037 53.6706C19.8901 53.9148 19.8772 54.1496 19.8655 54.3891C19.8865 54.5873 19.9074 54.7931 19.9257 55.0011C19.9515 55.2922 19.9763 55.607 19.9974 55.9065C20.0186 56.2071 20.0375 56.5127 20.0535 56.8128C20.0595 56.9245 20.0651 57.0359 20.0703 57.147C20.0725 57.1934 20.0944 57.2134 20.0713 57.1552C20.0509 57.0907 19.9293 57.0179 19.9173 57.0206C19.9097 57.0177 19.9131 57.0173 19.9231 57.0158C20.1647 57.0067 20.4048 56.9987 20.6381 56.991C20.6536 56.9904 20.6691 56.9899 20.6846 56.9894C20.9708 56.9798 21.2493 56.9707 21.5051 56.958C21.7655 56.945 21.982 56.9296 22.1741 56.9064C22.414 56.8775 22.6602 56.8498 22.9036 56.824C23.1473 56.7982 23.3899 56.7742 23.6318 56.7517C23.8743 56.7292 24.1143 56.7081 24.355 56.6882C24.4328 56.6818 24.5142 56.6751 24.5914 56.669C24.627 56.6661 24.6625 56.6632 24.698 56.6604C24.2271 56.6583 23.7383 56.6549 23.233 56.6498C22.5031 56.6423 21.7239 56.6218 20.8644 56.5994C20.5611 56.5915 20.2478 56.5833 19.9231 56.5754C19.9331 56.5723 20.1814 56.5679 20.3989 56.8157C20.5866 57.059 20.5443 57.1581 20.5555 57.1469C20.5789 56.0732 20.5969 54.8774 20.5949 53.5171ZM25.7137 52.2778C25.7153 52.4825 25.7202 52.7822 25.7265 53.1688C25.728 53.2602 25.7298 53.3567 25.7314 53.4577C25.7316 53.4553 25.7316 53.4529 25.7317 53.4505C25.7477 53.2001 25.7616 52.9689 25.7744 52.7193C25.7973 52.2744 25.8169 51.8423 25.8336 51.4058C25.8505 50.9676 25.8642 50.5306 25.8751 50.0931C25.8861 49.6549 25.8939 49.2155 25.8986 48.78C25.9033 48.3402 25.9052 47.9066 25.9029 47.469C25.9022 47.3295 25.9011 47.1897 25.8996 47.0499C25.8838 47.362 25.8708 47.6861 25.8571 48.0285C25.8462 48.3019 25.8348 48.5871 25.8211 48.887C25.8159 49.0017 25.8079 49.1406 25.7985 49.3027C25.7615 49.9449 25.7032 50.9526 25.7137 52.2778ZM29.3456 45.3043C29.4464 45.3003 29.5466 45.2966 29.6462 45.2935C29.6882 45.2923 29.7296 45.291 29.7717 45.2899C30.0059 45.2833 30.2339 45.2768 30.4582 45.2688C30.643 45.2623 30.8253 45.2549 31.0044 45.2459C31.0802 45.242 31.1556 45.2378 31.2302 45.2334C31.3557 45.2259 31.4793 45.2174 31.6024 45.2081C30.9919 45.2319 30.3879 45.2367 29.7717 45.2298C29.508 45.2268 29.244 45.2249 28.983 45.2214C28.9712 45.2213 28.9594 45.2213 28.9478 45.2211C29.0818 45.25 29.2145 45.2775 29.3456 45.3043ZM37.2296 40.0214C36.9766 40.2403 36.6991 40.4025 36.3364 40.5787C36.3362 40.5788 36.336 40.5789 36.3358 40.5791C36.2839 40.6041 36.23 40.6293 36.1742 40.6549C35.7232 40.8563 35.1314 41.1151 34.1901 41.3497C34.1873 41.3504 34.1845 41.3511 34.1817 41.3518L34.2662 41.3254C33.4128 41.5581 32.6933 41.5273 32.2586 41.4366C32.1769 41.4193 32.0954 41.4171 31.8945 41.4326C31.7628 41.4424 31.5853 41.4593 31.3292 41.4748C31.193 41.483 31.0344 41.4906 30.8489 41.4948C30.5538 41.5015 30.1795 41.5144 29.7718 41.5135C29.3839 41.5127 28.962 41.518 28.5579 41.5232C28.3731 41.5255 28.1921 41.5279 28.0198 41.5295C27.6882 41.5317 27.4133 41.5163 27.1917 41.4996C26.9873 41.4839 26.7955 41.4631 26.6091 41.4407L25.2915 41.5114L25.0711 39.7856C25.085 39.482 25.105 39.1764 25.1262 38.8549C25.1576 38.3769 25.1914 37.8638 25.2107 37.2701C25.2255 36.8146 25.3524 36.372 25.4942 35.9222C25.5123 35.865 25.5305 35.8075 25.5488 35.75C25.6754 35.3531 25.8049 34.9474 25.8791 34.5087C26.0112 33.7266 25.9566 33.1026 25.8961 32.4116C25.8725 32.1414 25.8479 31.8609 25.8333 31.5566C25.8101 31.0755 25.8148 30.3839 25.8214 29.6894C25.8219 29.6302 25.8223 29.571 25.8229 29.5119C25.8229 29.5116 25.8229 29.5113 25.8229 29.511C25.8267 29.1133 25.8306 28.7203 25.8296 28.3696L25.7463 27.717L26.5996 27.4781C26.8745 27.439 27.0837 27.4283 27.2774 27.4165C27.6678 27.3956 27.9324 27.3907 28.1351 27.3807L28.0347 27.3809C28.2454 27.3486 28.3809 27.3204 28.5036 27.2949C28.5926 27.2765 28.6748 27.2597 28.7725 27.2463C29.1248 27.1976 29.6488 27.2034 30.1711 27.2113C30.1731 27.2113 30.1751 27.2113 30.177 27.2113C30.2637 27.2126 30.3336 27.3538 30.3332 27.5266C30.3328 27.6994 30.2622 27.8385 30.1756 27.8373C29.8988 27.8332 29.6283 27.8294 29.385 27.8338C29.3732 27.9823 29.3087 28.0951 29.2305 28.0946C29.0794 28.095 28.6832 28.1593 28.0845 28.3043C27.9095 28.3288 27.7144 28.3604 27.5051 28.4029C27.5687 28.4296 27.6218 28.4563 27.6676 28.4818C27.7214 28.5119 27.7623 28.538 27.7973 28.5605C27.8702 28.6076 27.9181 28.6389 28.0038 28.6646C28.0243 28.6681 28.0457 28.6715 28.0688 28.6748L28.1045 28.6748C28.307 28.6825 28.5957 28.6773 28.9004 28.6771C28.9862 28.677 29.0573 28.817 29.059 28.9898C29.0606 29.1625 28.9933 29.3024 28.9093 29.3026C28.9077 29.3026 28.906 29.3027 28.9044 29.3027C28.617 29.3029 28.3379 29.3078 28.1382 29.3002L28.0367 29.3004C28.0073 29.2961 27.9803 29.2917 27.9545 29.2872C27.9047 29.2783 27.8615 29.2688 27.8294 29.2606C27.8035 29.254 27.7717 29.2453 27.7537 29.2348C27.7513 29.2334 27.7468 29.2305 27.7415 29.2263C27.7414 29.2262 27.7413 29.226 27.7412 29.2259C27.7381 29.2236 27.7233 29.2116 27.7068 29.1859C27.7036 29.1807 27.6964 29.1692 27.6883 29.1505C27.6861 29.1491 27.6839 29.1476 27.6818 29.1462C27.6515 29.1259 27.6206 29.1055 27.5868 29.0858C27.4584 29.0116 27.2331 28.9046 26.8142 28.852C26.8098 28.8515 26.8056 28.851 26.8014 28.8505L27.2167 28.3696C27.1252 28.8074 27.084 29.5378 27.0833 30.4465C27.0963 30.3844 27.1088 30.3221 27.1208 30.2599C27.1511 30.1033 27.1787 29.9461 27.2051 29.7887C27.2151 29.7284 27.225 29.669 27.2347 29.6084C27.2504 29.5109 27.2657 29.4131 27.2808 29.3153C27.2909 29.2492 27.3009 29.183 27.311 29.1169C27.311 29.1167 27.311 29.1166 27.311 29.1164C27.3249 29.0247 27.339 28.9326 27.3534 28.8399C27.3588 28.8075 27.3639 28.7754 27.369 28.7436C27.388 28.6229 27.4066 28.5044 27.4408 28.3696L26.834 29.0722C26.8389 29.0733 26.844 29.0743 26.8495 29.0754C26.8629 29.0798 26.8783 29.086 26.8903 29.0913C26.9027 29.097 26.9154 29.1028 26.9271 29.1089C26.9378 29.1142 26.9475 29.1198 26.9574 29.125C26.9587 29.1257 26.9601 29.1264 26.9614 29.1271C26.9721 29.1329 26.9826 29.1383 26.9926 29.1434C27.0025 29.1485 27.0125 29.1534 27.0218 29.1576C27.0219 29.1576 27.022 29.1576 27.0221 29.1576C27.0318 29.162 27.0396 29.1652 27.05 29.1688C27.0629 29.1734 27.0746 29.1768 27.088 29.18C27.1013 29.1832 27.115 29.186 27.129 29.1883C27.1433 29.1906 27.157 29.1926 27.1718 29.1943C27.186 29.1961 27.2011 29.1977 27.2158 29.1991C27.2306 29.2005 27.246 29.2017 27.2611 29.2029C27.2764 29.2041 27.2917 29.2054 27.3074 29.2067C27.3432 29.2096 27.3786 29.2434 27.4049 29.3018C27.4309 29.3602 27.4462 29.4378 27.447 29.5184C27.4481 29.599 27.435 29.6766 27.4127 29.7351C27.3898 29.7936 27.3593 29.828 27.3271 29.832C27.3182 29.8331 27.3096 29.8343 27.3008 29.8354C27.2955 29.8361 27.2902 29.8366 27.285 29.8372C27.2711 29.839 27.2567 29.8409 27.2429 29.8425C27.2287 29.844 27.2149 29.8454 27.2006 29.8465C27.1865 29.8477 27.1723 29.8487 27.1581 29.8491C27.1439 29.8496 27.1298 29.8495 27.1152 29.8488C27.1012 29.8481 27.0853 29.8464 27.0715 29.8438C27.0612 29.842 27.0489 29.8386 27.0388 29.8355C27.0283 29.8322 27.018 29.8285 27.0083 29.8245C26.9987 29.8206 26.9896 29.8163 26.9814 29.8122C26.9805 29.8118 26.9796 29.8114 26.9788 29.811C26.9713 29.8075 26.9649 29.804 26.9587 29.801C26.952 29.7975 26.9461 29.7947 26.9412 29.7923C26.9407 29.792 26.9402 29.7918 26.9397 29.7916L28.1679 28.3696C28.1651 28.3798 28.1638 28.3866 28.1624 28.3947C28.1524 28.5136 28.1545 28.6605 28.1563 28.8006C28.1566 28.8182 28.1567 28.8357 28.1569 28.8531C28.1584 28.9451 28.1603 29.0369 28.1621 29.1287C28.1635 29.1954 28.1649 29.2622 28.1661 29.329C28.1679 29.4274 28.1693 29.5261 28.1704 29.6247C28.171 29.6859 28.1714 29.746 28.1716 29.8071C28.1722 29.9666 28.1714 30.1266 28.1676 30.2868C28.1639 30.4468 28.1574 30.6078 28.1463 30.7689C28.1352 30.9294 28.1186 31.0961 28.0935 31.2571C28.0747 31.3755 28.0419 31.4968 28.008 31.6091C27.9898 31.6694 27.9713 31.7285 27.9528 31.7867C27.9527 31.7869 27.9526 31.7871 27.9525 31.7873C27.9362 31.8384 27.9201 31.8889 27.9049 31.9389C27.872 32.0463 27.8426 32.1518 27.8179 32.2573C27.7931 32.3626 27.773 32.4675 27.7575 32.5731C27.7421 32.678 27.731 32.7846 27.7242 32.8901C27.7173 32.9962 27.7145 33.1004 27.7147 33.2098C27.7153 33.3538 27.7209 33.4967 27.7276 33.6434C27.7343 33.789 27.7428 33.9358 27.7514 34.0831C27.7544 34.1345 27.7572 34.1861 27.7602 34.2377C27.7602 34.2379 27.7602 34.2381 27.7602 34.2383C27.7659 34.3338 27.7715 34.4295 27.777 34.5253C27.7854 34.6731 27.7934 34.8214 27.7999 34.9703C27.8063 35.1191 27.8114 35.2689 27.8133 35.4194C27.8151 35.5699 27.814 35.7245 27.8038 35.8798C27.7951 36.0184 27.7834 36.158 27.7718 36.2945C27.7688 36.3306 27.7657 36.3666 27.7627 36.4027C27.7484 36.5738 27.737 36.7394 27.7349 36.9032C27.7325 37.0668 27.739 37.2304 27.7526 37.3954C27.7661 37.56 27.7864 37.7266 27.8109 37.8945C27.8354 38.0632 27.8638 38.2298 27.8948 38.3996C27.9257 38.5682 27.9589 38.7376 27.994 38.9091C28.0134 39.0044 28.0313 39.1058 28.0465 39.2016C28.0618 39.2983 28.0754 39.3944 28.088 39.4893C28.0931 39.5278 28.098 39.5662 28.1029 39.6042C28.1102 39.6597 28.1172 39.7147 28.1246 39.7688C28.1254 39.7745 28.1261 39.7801 28.1269 39.7856L26.833 38.3932C26.9199 38.3877 27.0037 38.3812 27.0842 38.3723C27.17 38.3628 27.2521 38.3504 27.3301 38.3332C27.4108 38.3154 27.4763 38.2959 27.553 38.2664C27.7376 38.2114 27.8416 38.1946 27.9519 38.1737C27.9735 38.1695 27.9953 38.165 28.0174 38.16C28.0182 38.1599 28.019 38.1597 28.0198 38.1596C28.1852 38.1347 28.3505 38.1161 28.5137 38.1021C28.6794 38.0879 28.8426 38.0783 29.0079 38.0728C29.1715 38.0672 29.3364 38.0659 29.5006 38.0682C29.591 38.0694 29.6813 38.0718 29.7717 38.0753C29.8344 38.0782 29.8973 38.0812 29.9603 38.0845C30.1007 38.0917 30.2445 38.1 30.3832 38.1086C30.4633 38.1136 30.5488 38.1205 30.6285 38.1272C30.686 38.1321 30.7428 38.137 30.7987 38.1414C30.8215 38.1432 30.8442 38.1449 30.8666 38.1465C30.9441 38.1519 31.0196 38.1557 31.0923 38.1561C31.165 38.1566 31.2351 38.1537 31.303 38.1463C31.3711 38.1388 31.4371 38.1266 31.5021 38.1096C31.5694 38.0918 31.6247 38.0732 31.6939 38.044C31.739 38.0248 31.7828 38.0054 31.8264 37.9858C31.8915 37.9564 31.9557 37.9261 32.0197 37.8946C32.0836 37.863 32.146 37.8307 32.2081 37.797C32.228 37.7861 32.2491 37.7746 32.2689 37.7635C32.3303 37.729 32.3902 37.6936 32.4492 37.6566C32.508 37.6197 32.5655 37.5816 32.6217 37.5418C32.6781 37.5018 32.7326 37.4607 32.787 37.417C32.835 37.3783 32.8831 37.3456 32.9298 37.3171L33.0079 37.2928C33.0389 37.272 33.0689 37.2543 33.0971 37.2383C33.1565 37.2049 33.2126 37.1765 33.2667 37.1474C33.2769 37.142 33.287 37.1364 33.2971 37.1309C33.3406 37.107 33.383 37.0826 33.4239 37.0566C33.4744 37.0245 33.5225 36.99 33.5691 36.9525C33.6153 36.9153 33.6603 36.8749 33.7023 36.8318C33.7447 36.7883 33.7833 36.744 33.8223 36.6931C33.8609 36.6429 33.8955 36.5863 33.9317 36.5235C33.9675 36.4611 34.0034 36.3953 34.0405 36.3305C34.0775 36.2658 34.1158 36.2018 34.1552 36.1402C34.1948 36.0785 34.2359 36.0183 34.2778 35.9601C34.3127 35.9117 34.3483 35.8643 34.3846 35.8174L34.3479 35.8613C34.3518 35.8556 34.3557 35.8499 34.3596 35.8442C34.3821 35.8118 34.4063 35.7788 34.4306 35.7471C34.47 35.6958 34.5094 35.64 34.5486 35.5758C34.5875 35.5122 34.6262 35.4403 34.6632 35.3595C34.7002 35.2789 34.7355 35.1894 34.7681 35.0917C34.8007 34.994 34.8306 34.8878 34.8569 34.7751C34.8627 34.7503 34.8684 34.7249 34.8739 34.6992C34.8932 34.6091 34.9103 34.515 34.9249 34.4177C34.925 34.417 34.9252 34.4164 34.9253 34.4157C34.9439 34.2906 34.9585 34.1623 34.9682 34.0286C34.9702 33.9996 34.9721 33.9708 34.9736 33.9419L34.9748 33.8686C34.9763 33.8538 34.9777 33.839 34.9788 33.8241C34.9818 33.7872 34.9837 33.7509 34.9845 33.7142C34.9853 33.6774 34.9848 33.6407 34.9831 33.6047C34.9813 33.5682 34.9783 33.5327 34.9734 33.497C34.9689 33.4643 34.9627 33.432 34.9555 33.3968C34.9548 33.3936 34.9541 33.3904 34.9534 33.3872C34.9454 33.3488 34.9373 33.3051 34.9327 33.2639C34.9211 33.1549 34.902 33.049 34.8751 32.9432C34.8481 32.8372 34.8137 32.7334 34.7732 32.6314C34.7574 32.5916 34.7404 32.552 34.7229 32.5128C34.6957 32.4517 34.6666 32.3914 34.6362 32.3317C34.5952 32.2512 34.5521 32.172 34.5076 32.0934L34.5607 32.1811C34.5505 32.1648 34.5403 32.1486 34.53 32.1325C34.4734 32.0435 34.4158 31.9566 34.3579 31.8717C34.3 31.7869 34.2408 31.7032 34.1808 31.6218C34.1141 31.5309 34.0441 31.4439 33.9687 31.3608C33.8935 31.2777 33.8133 31.1987 33.7279 31.1247C33.6478 31.0555 33.5631 30.9905 33.473 30.9299L33.4282 30.9118C33.4193 30.9063 33.4103 30.9007 33.4014 30.8952C33.2674 30.8126 33.129 30.734 32.9862 30.6594C32.9007 30.6148 32.8137 30.5715 32.725 30.5298C32.6719 30.5303 32.6209 30.5316 32.572 30.5332C32.2103 30.5465 31.953 30.5744 31.6181 30.5828C31.5856 30.5865 31.5587 30.5943 31.5261 30.6038C31.5199 30.6056 31.5133 30.6074 31.5065 30.6094C31.4639 30.6217 31.4154 30.6344 31.3491 30.6398C31.2161 30.6506 31.0206 30.6312 30.7547 30.4809C30.6877 30.443 30.6439 30.2764 30.6596 30.1077C30.6708 29.9893 30.7098 29.9015 30.7573 29.873C30.6706 29.8516 30.5835 29.8306 30.4957 29.8108C30.4607 29.8029 30.4272 29.7647 30.4022 29.7035C30.3773 29.6422 30.363 29.5632 30.3631 29.4828C30.3631 29.4023 30.3778 29.3264 30.4043 29.2709C30.4309 29.2154 30.467 29.1851 30.5043 29.186C30.6033 29.1884 30.7017 29.1924 30.7998 29.1967C30.8981 29.201 30.9956 29.2056 31.0932 29.211C31.1908 29.2164 31.2882 29.2224 31.3856 29.2293C31.4827 29.2361 31.5797 29.244 31.6768 29.2529C31.7744 29.2619 31.87 29.2715 31.9669 29.2828C32.025 29.2896 32.0836 29.297 32.1411 29.3046C32.1625 29.3075 32.1834 29.3101 32.2043 29.313C32.2214 29.3154 32.2385 29.318 32.2562 29.3206C32.4418 29.3474 32.6281 29.3799 32.8113 29.418C32.9954 29.4563 33.1778 29.5006 33.3585 29.5511C33.5392 29.6016 33.718 29.6581 33.8946 29.7214C33.9032 29.7245 33.9119 29.7276 33.9205 29.7307L33.9379 29.7377C34.0927 29.7889 34.2446 29.85 34.393 29.9208C34.5486 29.9949 34.7006 30.0801 34.8473 30.1749C34.9609 30.2483 35.0707 30.3266 35.1776 30.4105C35.228 30.4343 35.2772 30.4597 35.3253 30.486C35.4651 30.5627 35.6126 30.6402 35.7561 30.7265C35.5552 30.5277 35.3649 30.4016 35.1816 30.2957C35.157 30.2816 35.1324 30.2678 35.1078 30.2543C34.8561 30.1175 34.6163 30.0042 34.3073 29.8335C34.1898 29.7693 34.0754 29.7147 33.9652 29.6677L33.9494 29.6614C33.1754 29.3182 32.6529 29.2018 32.3171 29.1017C31.9266 28.9924 31.7585 28.9186 31.6049 28.7834C31.3884 28.5916 30.9243 28.4733 30.689 28.4708C30.6041 28.469 30.5342 28.3284 30.5329 28.1557C30.5316 27.9829 30.604 27.843 30.6945 27.8449C30.9565 27.8473 31.4906 27.9713 31.7636 28.2042C31.8853 28.3079 32.0292 28.3761 32.4416 28.4891C32.7961 28.593 33.3518 28.7143 34.1903 29.0836C34.3216 29.1388 34.4557 29.2021 34.5936 29.2768C34.9407 29.467 35.2052 29.5986 35.4873 29.7589C35.5148 29.7748 35.5426 29.7909 35.5703 29.8076C35.5705 29.8077 35.5706 29.8078 35.5708 29.8079C35.8256 29.9622 36.1005 30.1539 36.3893 30.492C36.4817 30.6009 36.5748 30.7187 36.6652 30.8427C37.2115 31.6277 37.5195 32.6861 37.5979 32.9694C37.6187 33.0336 37.6397 33.0959 37.6607 33.1623C37.7181 33.3484 37.7842 33.5668 37.8127 33.9578L37.813 33.9419C37.8273 34.0812 37.8383 34.2428 37.8407 34.4347C37.8426 34.59 37.8352 34.7726 37.8151 34.9725C37.8653 35.2808 37.8897 35.5929 37.8717 35.8651C37.8566 36.0994 37.8645 36.3297 37.8659 36.5633C37.8663 36.6306 37.8662 36.6991 37.8646 36.7683C37.8608 36.9348 37.8481 37.1052 37.8163 37.2681C37.7909 37.3979 37.7641 37.5371 37.7275 37.6857C37.6723 37.9099 37.5949 38.1562 37.4693 38.4113L37.4467 38.4383C37.293 38.7562 37.0673 39.0946 36.716 39.4005C36.0786 39.9546 35.4107 40.3019 34.8108 40.5213C35.2578 40.3724 35.596 40.2324 35.8745 40.1075C35.927 40.0838 35.9771 40.0605 36.0251 40.0377C36.3635 39.8755 36.6017 39.7372 36.8198 39.5487C37.2227 39.1968 37.4858 38.8949 37.6804 38.6383L37.7075 38.6059C38.0519 38.1279 38.1841 37.77 38.268 37.3901C38.3029 37.2258 38.3245 37.0423 38.3362 36.8493C38.3603 36.4627 38.3415 36.0437 38.3428 35.6301C38.3449 35.2437 38.2876 34.8244 38.1959 34.4042C38.196 34.404 38.196 34.4039 38.196 34.4037C38.1781 34.322 38.159 34.239 38.1389 34.1571C38.1214 34.0848 38.1031 34.0141 38.0843 33.9419L38.0839 33.9663C37.9854 33.5086 37.8411 33.0622 37.6907 32.6462C37.672 32.5943 37.6473 32.5326 37.6174 32.4629C37.457 32.0868 37.1589 31.4938 36.8039 30.7699L36.7971 30.7588C36.7655 30.7008 36.7333 30.6418 36.7006 30.5818C36.6046 30.4064 36.5137 30.2145 36.3919 29.9999C36.3548 29.9346 36.3149 29.8671 36.2707 29.7979C36.0796 29.5013 35.8086 29.1478 35.3331 28.7992C35.0987 28.6285 34.8118 28.4623 34.4894 28.3236L34.5045 28.3297C34.3025 28.2365 34.0884 28.1487 33.868 28.0683C33.5983 27.9698 33.3192 27.8824 33.0417 27.8064C32.2028 27.578 31.4126 27.4511 30.6212 27.3948C30.621 27.3948 30.6208 27.3948 30.6207 27.3948C30.5275 27.3883 30.4523 27.2439 30.453 27.0712C30.4537 26.8986 30.5344 26.7626 30.6331 26.7692C31.4658 26.8264 32.2992 26.9577 33.1894 27.1984C33.4805 27.2775 33.7759 27.3693 34.063 27.4735C34.2983 27.5588 34.528 27.6524 34.7454 27.752L34.7168 27.7404C35.083 27.8963 35.4099 28.0843 35.6762 28.2762C36.2185 28.6695 36.5293 29.0666 36.7486 29.3976C36.8013 29.4779 36.8482 29.5546 36.891 29.6279C37.0272 29.8616 37.1238 30.06 37.2263 30.2439C37.26 30.3045 37.2929 30.3641 37.3253 30.4229L37.3462 30.4573C37.7316 31.2351 38.0433 31.8719 38.2161 32.2892C38.2488 32.3683 38.276 32.4387 38.2972 32.4992C38.4608 32.9656 38.6151 33.4678 38.7158 33.9862L38.7165 33.9419C38.731 34.0004 38.7452 34.0582 38.7589 34.1166C38.7791 34.2029 38.7983 34.289 38.8163 34.3757C38.8164 34.3759 38.8165 34.376 38.8166 34.3762C38.9095 34.8209 38.9679 35.2764 38.9623 35.7013C38.9568 36.1314 38.9706 36.5402 38.9446 36.9439C38.9307 37.1601 38.905 37.374 38.8585 37.5842C38.756 38.0295 38.5952 38.4506 38.1925 39.0021L38.1562 39.0455C37.9427 39.3238 37.6582 39.6473 37.2296 40.0214ZM30.8907 29.906C31.0658 29.9895 31.2053 30.015 31.3113 30.0178C31.2232 29.9932 31.1344 29.9691 31.0446 29.9457C30.9936 29.9323 30.9422 29.9191 30.8907 29.906ZM37.1909 34.9273C37.1847 34.8929 37.1781 34.8581 37.1713 34.8237C37.1666 34.9166 37.1599 35.01 37.1513 35.1024C37.1406 35.2166 37.127 35.3296 37.1098 35.443C37.1472 35.2652 37.1739 35.0907 37.1909 34.9273ZM36.3056 38.9278C36.6333 38.6423 36.8316 38.3262 36.9646 38.0256L36.9778 38.0098C37.0626 37.8175 37.1177 37.6294 37.1589 37.4503C37.1908 37.3112 37.2146 37.1771 37.2371 37.0484C37.2466 36.9947 37.2531 36.941 37.2581 36.8862C37.1198 37.1514 36.9642 37.3816 36.8245 37.5593C36.7697 37.6293 36.7154 37.6932 36.662 37.7518L36.6548 37.7604C36.3087 38.1184 36.0449 38.2942 35.8102 38.442C35.7315 38.4909 35.655 38.5362 35.5773 38.582C35.5317 38.644 35.4823 38.707 35.4292 38.7677C35.355 38.8529 35.2698 38.9408 35.1843 39.0202C35.0985 39.0999 35.007 39.1767 34.9132 39.2473C34.8187 39.3185 34.7211 39.3844 34.621 39.4456C34.5268 39.5032 34.4302 39.5566 34.3351 39.6058C34.3297 39.6086 34.3242 39.6114 34.3187 39.6142C34.218 39.666 34.1181 39.7133 34.0262 39.7585C33.9327 39.8046 33.855 39.845 33.7876 39.8891C33.7795 39.8943 33.7714 39.8995 33.7633 39.9048L33.7898 39.8965C33.7206 39.9469 33.6488 39.9962 33.5766 40.0431C33.4968 40.095 33.4159 40.1443 33.3341 40.1912C33.2521 40.2382 33.1699 40.2826 33.0865 40.3253C33.0596 40.339 33.0313 40.3533 33.0043 40.3665C32.9919 40.3726 32.9795 40.3788 32.9671 40.3848C33.1415 40.3429 33.3221 40.2968 33.5082 40.2462C33.626 40.2143 33.7475 40.1819 33.8736 40.1476L33.8368 40.1591C34.0164 40.1169 34.203 40.0666 34.3968 40.0033C34.9828 39.8115 35.6487 39.4976 36.3056 38.9278ZM30.2869 40.8268C30.3649 40.8221 30.479 40.8121 30.6257 40.7963C30.6604 40.7926 30.697 40.7883 30.7352 40.7838C30.7343 40.7838 30.7334 40.7838 30.7325 40.7837C30.6361 40.7748 30.5474 40.7664 30.4521 40.7585C30.2821 40.7444 30.1178 40.7301 29.9525 40.7156C29.8921 40.7103 29.8319 40.705 29.7717 40.6997C29.6734 40.6904 29.5751 40.6823 29.4768 40.6754C29.322 40.6644 29.1668 40.6566 29.013 40.6519C28.8576 40.6472 28.7044 40.6454 28.5498 40.6476C28.5006 40.6483 28.4512 40.6494 28.4018 40.651C28.512 40.6667 28.6265 40.6797 28.7475 40.6934C28.8441 40.7043 28.9448 40.7157 29.0508 40.7294C29.0913 40.7346 29.1404 40.7426 29.1976 40.752C29.3397 40.7752 29.5325 40.8067 29.7717 40.8245C29.9258 40.8351 30.0981 40.8381 30.2869 40.8268ZM27.1031 40.7854C27.066 40.7871 27.0293 40.7882 26.9932 40.7888C26.8903 40.7903 26.7917 40.788 26.696 40.7848C26.6831 40.7844 26.6702 40.784 26.6574 40.7835L25.863 40.8261L25.7302 39.7856C25.7282 39.7315 25.7266 39.6778 25.7249 39.6248C25.7241 39.5971 25.7231 39.5695 25.7222 39.5421C25.7207 39.4962 25.7189 39.4506 25.717 39.4054C25.7094 39.5328 25.7026 39.6592 25.6968 39.7856L25.834 40.8609L26.6549 40.8168C26.8411 40.8391 27.0313 40.8598 27.2329 40.8754C27.2374 40.8757 27.2419 40.8759 27.2463 40.8762C27.1969 40.8454 27.1493 40.8151 27.1031 40.7854Z" fill="#FFD170"/>
</svg>
