<svg width="81" height="82" viewBox="0 0 81 82" fill="none" xmlns="http://www.w3.org/2000/svg">
<path d="M66.0047 0.0167538C68.0674 -0.0897902 70.1863 0.307862 72.1141 1.2431C72.552 1.45869 72.4715 1.5165 72.6437 1.6174C72.959 1.80199 73.5338 2.03414 73.6073 2.08141C74.0643 2.36218 73.807 2.37506 73.8652 2.41747C74.4949 2.90644 74.4002 2.63957 75.0229 3.08927C75.8277 3.68304 76.7445 4.59211 77.4894 5.53401C77.7466 5.86789 77.5586 5.77818 78.0899 6.50824C78.4832 7.00852 79.5603 8.68671 79.7386 9.59581C79.6937 9.61914 79.6 9.53425 79.5339 9.51016C80.1852 10.6307 80.3625 11.095 80.6296 12.9088C80.665 13.1961 80.7908 13.4587 80.8044 13.9727C80.8097 14.4501 80.7074 14.5072 80.7007 15.3325C80.6996 15.3922 80.699 15.4561 80.6991 15.5247C80.7 15.8709 80.7938 16.081 80.7979 16.6119C80.8096 18.1218 80.693 20.9975 80.689 22.2368C80.6809 24.6773 80.8411 26.0052 80.7854 28.1726C80.7814 28.3395 80.6785 27.9728 80.6765 28.2788C80.6745 28.5874 80.8108 28.9087 80.814 28.9846C80.8491 29.8039 80.6665 31.5353 80.6886 31.9911C80.7427 33.0988 80.8027 32.0072 80.8285 33.5424C80.8531 35.0042 80.6757 37.0225 80.641 38.4715C80.6007 40.1507 80.8584 40.6922 80.5894 41.9567C80.6051 46.3977 80.6147 50.8564 80.6284 55.3025C80.5748 55.2898 80.5212 55.2752 80.4675 55.26C80.5046 55.6115 80.5418 55.9632 80.5785 56.3147C80.5386 56.2616 80.4986 56.2112 80.4591 56.1581C80.6131 57.8093 80.6926 59.281 80.6503 61.2103C80.6495 61.248 80.5426 61.1489 80.5398 61.1801C80.5196 61.6151 80.6019 62.1012 80.5825 62.4832C80.5361 63.4063 80.303 64.9743 80.5881 64.2839C80.5734 64.822 80.5684 65.3837 80.5683 65.9556C80.5773 67.7315 80.2715 69.6116 79.6898 71.0994C79.351 71.9583 79.0695 72.1325 78.8772 72.5209C78.677 72.9063 78.9038 72.7731 78.839 72.9142C78.4604 73.7733 77.5626 75.0402 77.3266 75.0589C77.2654 75.2466 77.1939 75.4427 77.1223 75.6321C77.0946 75.4691 75.1606 77.5994 74.4918 77.9895C74.3804 78.0713 74.3182 78.0186 74.2347 78.0799C73.2934 78.7466 73.1052 78.99 72.2293 79.4805C71.9174 79.6426 72.355 79.2956 71.5588 79.7156C71.4862 79.7445 71.5862 79.8735 70.5627 80.2338C69.4905 80.6092 67.6955 81.0174 65.9892 80.998C65.1396 80.9965 64.3216 80.9884 63.6445 80.9673C63.4826 80.9624 63.9754 80.8261 63.2351 80.8579C62.967 80.8692 63.0954 80.966 62.4455 80.9668C59.9264 80.9708 57.2405 80.8595 54.6709 80.9519C54.7645 80.8426 55.6798 80.72 54.304 80.7885C54.0841 80.7999 54.2483 80.8975 54.1497 80.9011C53.3506 80.9293 52.6578 80.8596 51.793 80.8971C51.5376 80.9084 51.4742 80.985 51.1555 81.0031C50.6851 81.0302 50.477 80.9209 49.9307 80.9673C49.0764 81.0402 48.9444 81.1438 47.885 80.9406C41.881 80.9535 35.9048 81.0108 29.9211 80.9212C28.1912 80.9793 26.5949 81.0442 24.7917 81.0664C24.2606 81.0728 24.1591 80.9341 23.312 80.9801C23.1223 80.9902 21.7689 81.139 21.5716 80.8587C21.1949 80.8829 20.9568 80.8837 20.6332 80.8986C20.8785 80.9398 21.1317 80.9814 21.3669 81.0229C20.0012 80.9782 18.886 81.077 17.677 81.1238C16.787 81.158 17.419 81.0378 16.8728 81.0499C16.3266 81.0616 16.0782 81.0886 15.3953 80.9447C15.1738 81.0133 14.983 81.0337 14.7655 81.0337C14.4401 81.0324 14.0646 80.9867 13.4613 80.9311C13.353 80.9227 12.7051 80.9209 12.177 80.8082C11.7994 80.7264 11.7066 80.6075 11.1141 80.4724C11.0147 80.4624 9.74025 80.1988 9.35363 80.0362C8.74086 79.8194 7.89323 79.2255 7.79151 79.1598C6.2537 78.2405 5.6326 77.8638 4.84735 76.8452C4.57186 76.7661 3.76353 76.0507 3.24972 75.3516C2.54603 74.4911 1.75597 72.4568 1.41195 72.2885C1.03768 71.0781 0.998123 71.2421 0.589706 69.8032C0.370333 69.0072 0.127701 67.3677 0.171743 65.9556C0.189273 65.0746 0.202015 64.2879 0.195997 63.872C0.181075 62.8148 0.0269858 63.3299 0.00641679 62.9101C-0.0277784 62.2229 0.0859127 62.5941 0.0842999 62.1238C0.0794586 60.7935 0.0577308 59.6375 0.00812582 58.3679C0.0879505 58.2997 0.168176 58.2262 0.248001 58.1554C0.221399 58.0897 0.194766 58.0243 0.168165 57.9586C0.168971 57.6854 0.167332 57.3793 0.169752 57.1264C-0.180667 59.2605 0.19567 55.0651 0.204543 53.8056C0.211801 52.7434 0.0456076 50.9752 0.00971278 49.8093C0.000883322 49.5263 0.0871397 49.7208 0.0851544 49.6628C0.0605522 48.9799 0.00164649 48.8763 0.00971278 47.9582C0.0141538 47.4727 0.12217 46.977 0.124218 46.5042C0.138737 43.0317 0.030204 39.6805 0.0185021 36.2309C0.0164857 35.6442 0.148348 35.138 0.151196 34.6449C0.155229 33.9394 0.0472644 33.4942 0.0456025 32.8318C0.0439893 32.1718 0.173016 31.2204 0.153272 30.7727C0.133912 30.325 0.0088793 31.0911 0.043161 30.2716C0.0589153 29.8952 0.152026 30.56 0.154859 30.0949C0.163731 28.6432 0.0484182 26.5947 0.160108 25.0494C0.132287 25.1177 0.10725 25.2109 0.0806376 25.2944C0.0915296 23.6479 0.158485 22.1934 0.168165 20.4938C0.171763 19.8995 0.0900197 18.8276 0.0904036 18.2434C0.0908068 17.6593 0.179502 17.3936 0.181959 16.9259C0.183169 16.7336 0.103683 16.8088 0.105297 16.6798C0.111864 16.1751 0.130225 15.7416 0.151865 15.3325C0.205452 14.3994 0.319566 13.5979 0.527725 12.42C1.55551 6.08326 7.37438 0.540241 14.0528 0.27856C14.2876 0.265805 14.4522 0.176866 14.7655 0.147691C14.8003 0.144354 14.8368 0.141772 14.8756 0.140162C15.4441 0.11645 15.472 0.207984 15.5478 0.211209C16.0433 0.231354 15.8412 0.146632 16.5063 0.146632C17.9707 0.146633 20.333 0.221691 21.7923 0.215238C25.156 0.200315 27.9836 0.119616 31.2815 0.0788813C31.5193 0.0756548 31.358 0.198243 31.7703 0.199856C34.6758 0.212746 35.2909 0.0953735 38.9073 0.128443C42.5241 0.161516 49.3504 0.235776 53.5841 0.252714C53.5841 0.252999 53.5841 0.253284 53.5841 0.253569C54.9168 0.0269292 56.6411 0.0832995 58.0726 0.254668C49.8174 0.813659 41.919 0.564892 33.1024 0.587074C27.1456 0.601856 20.9359 0.774968 14.7655 0.882073C11.3233 0.926587 7.99271 2.3123 5.51739 4.55004C4.87061 5.14112 4.53514 5.31695 4.07122 5.90278C3.99461 6.00242 4.27754 5.8159 4.04063 6.11942C2.04615 8.68097 0.810424 11.9889 0.786014 15.3325C0.761563 17.4278 0.742837 19.5024 0.767059 21.5105C0.783997 22.9167 0.894918 23.1372 0.923557 24.3738C0.871143 24.1564 0.816335 24.0143 0.763518 23.8247C0.599773 29.4697 0.672772 35.1229 0.649379 40.8413C0.648145 41.0992 0.539639 41.1322 0.535607 41.4028C0.527155 41.9439 0.646534 42.4622 0.6506 42.9351C0.655843 43.5522 0.569512 43.659 0.575159 44.2281C0.578048 44.5058 0.661014 44.4228 0.646938 45.0266C0.645728 45.0772 0.558683 45.1103 0.569909 45.5121C0.600962 46.6122 0.673981 48.8606 0.695767 49.7713C0.72359 50.9344 0.592468 51.8678 0.583948 52.308C0.560963 53.4965 0.695233 53.4718 0.695279 54.4778C0.695716 58.3538 0.651177 62.1375 0.610403 65.9556C0.567184 69.2148 1.62295 72.5442 3.75275 75.2111C4.02826 75.5947 5.30959 76.7502 5.98253 77.2722C6.18833 77.4724 7.39324 78.3678 7.59636 78.4703C8.36908 78.9545 9.05499 79.3639 9.51932 79.5724C10.4205 79.9871 11.529 80.1259 12.0507 80.2093C12.8327 80.3594 14.1466 80.4792 14.7655 80.4712C14.8725 80.4722 14.9582 80.473 15.0162 80.4736C15.957 80.4825 15.6461 80.657 16.3214 80.6163C16.5209 80.6041 16.312 80.4703 17.0149 80.4703C17.6038 80.4707 17.8421 80.5715 18.2441 80.5897C18.6462 80.6077 19.3838 80.4519 19.6344 80.4558C20.9445 80.4775 21.5242 80.5797 22.9507 80.5849C24.1351 80.5889 29.6102 80.5175 30.0654 80.4808C32.104 80.3168 28.7088 80.3904 28.5174 80.3848C27.483 80.353 27.6343 80.2901 26.6025 80.4102C25.6794 80.0396 22.4621 80.6167 21.6376 80.1771C20.7853 80.4699 20.0692 80.3223 19.1713 80.2634C17.9303 80.182 18.8754 80.3526 17.9701 80.3538C17.6131 80.3542 16.5789 80.2211 16.0429 80.2397C15.5609 80.2564 15.3298 80.3406 14.7655 80.3615C14.7023 80.3638 14.635 80.3649 14.5628 80.3644C13.2827 80.352 12.2562 80.1367 11.2606 79.7482C11.0583 79.75 10.8677 79.7509 10.6665 79.7446C9.97518 79.4674 9.309 79.1343 8.68041 78.7534C8.7641 78.8483 8.84892 78.9426 8.93593 79.0358C8.73727 78.9497 8.53965 78.8581 8.345 78.7622C7.74159 78.361 7.19703 77.9387 6.65529 77.443C4.92949 76.4092 5.53846 76.5654 4.78849 75.7665C4.07235 74.9315 3.57116 74.5051 3.10143 73.7815C2.49332 72.797 2.23273 72.3251 1.80855 71.2357C1.56139 70.6019 1.40061 69.4517 1.43771 70.427C1.01016 69.1466 0.698673 67.4885 0.711441 65.9556C0.713495 65.0763 0.72722 64.2444 0.76303 63.5476C0.791626 62.9846 0.867712 63.7353 0.877169 63.6393C0.921926 63.1614 0.79858 62.7589 0.816254 62.2658C0.845692 61.4465 0.941726 59.8508 0.96433 59.2057C0.996998 58.2775 0.837228 56.8182 0.825532 56.6689C0.760632 55.8347 0.893281 55.6115 0.884127 55.3435C0.830893 53.8185 0.775183 53.4819 1.05503 53.0014C0.934037 52.6067 0.730445 50.9527 0.934055 50.5531C0.750174 50.5428 0.781173 49.1698 0.735197 48.3251C0.788435 48.1682 0.841351 48.0088 0.894992 47.8519C0.5659 46.0892 0.804952 42.5789 0.844087 40.2597C0.844894 40.2015 0.707072 40.0975 0.738127 39.7485C0.740674 39.7264 0.802609 39.7623 0.810639 39.5282C0.836465 38.7568 0.991173 35.8135 0.992529 35.4748C0.997772 34.2279 0.894906 34.01 0.885226 33.2513C0.872323 32.2524 0.965153 32.108 0.951878 31.1575C0.94583 30.7124 0.823644 30.3075 0.840913 29.6072C0.850992 29.1926 0.946948 29.1516 0.954686 28.8232C0.982514 27.6547 0.921958 26.7966 1.04697 25.7596C0.741735 25.489 0.966718 24.9935 0.989721 24.4801C1.08369 22.3962 0.954703 19.7989 0.982519 18.0108C0.99676 17.1029 1.01367 16.2118 1.03218 15.3325C1.13669 10.8949 3.21131 6.89761 6.68442 4.23989C7.36558 3.73746 7.45191 3.49249 8.23506 3.04787C8.59075 2.85466 9.0075 2.75779 9.60877 2.50147C10.0917 2.29473 10.7859 1.98772 11.4273 1.82429C11.597 1.78095 11.6366 1.87722 11.8864 1.82102C12.8372 1.6112 13.7965 1.48994 14.7656 1.46565C15.7702 1.44161 16.7774 1.41053 17.8016 1.38519C18.5626 1.36628 19.0334 1.50416 18.9044 1.26422C19.1952 1.3231 19.4779 1.37436 19.7511 1.43244C20.7981 1.28119 21.6533 1.4388 23.0696 1.40009C23.2223 1.39547 24.2917 1.22959 24.8983 1.3493C24.9413 1.26382 24.8471 1.19124 24.8648 1.11382C25.4641 1.08116 26.3849 1.17989 26.7897 1.19C27.1938 1.20007 27.4644 1.08903 27.586 1.08794C28.0489 1.08512 27.941 1.23116 27.9764 1.23358C30.1334 1.3735 29.9064 1.2957 31.2088 1.07671C31.5351 1.02147 33.7495 1.18191 34.1974 1.00896C34.2176 1.07951 34.0942 1.1416 34.0587 1.20892C34.7239 1.22707 35.3942 1.2457 36.0619 1.26385C35.9203 1.19609 35.7502 1.12827 35.6212 1.06011C36.9842 1.11899 38.1176 0.959332 39.2328 0.964527C39.8702 0.967753 39.7924 1.11744 40.1667 1.08477C40.24 1.0783 40.1162 0.977158 40.3334 0.969043C42.1063 0.903303 42.8831 1.01016 44.6586 1.03032C45.4905 1.03996 46.2187 0.856121 47.4123 0.9771C47.5213 0.988427 48.6922 1.15166 49.4155 0.917772C49.6456 0.991579 49.8486 1.03035 50.0206 1.09246C51.485 0.745206 51.0803 1.08553 53.0606 1.16619C54.0854 1.20811 57.5322 1.14726 58.6475 1.11016C59.3117 1.08756 59.2996 0.951067 59.4181 0.945605C60.1261 0.914151 60.1267 1.04645 60.7815 1.02471C61.4366 1.00293 62.2641 0.853277 62.9368 0.86699C63.4522 0.877551 63.0459 1.04192 63.807 0.984669C63.9646 0.972275 63.5143 0.832782 64.317 0.887498C64.4435 0.895968 65.7261 1.04685 65.9892 1.07952C65.3138 1.16704 63.3563 1.28122 62.6203 1.31671C51.0748 1.87517 28.8605 1.93017 14.7655 1.8773C13.4823 1.87177 12.2806 2.05721 11.2031 2.36311C10.0846 2.68732 9.32683 2.88692 8.63679 3.23737C7.95715 3.60309 8.58619 3.39204 7.98439 3.73988C7.39065 4.09895 6.92418 4.32573 6.41288 4.73924C3.28444 7.2629 1.38841 11.2867 1.38936 15.3325C1.38641 15.7721 1.38373 16.2112 1.38133 16.6496C1.37488 17.856 1.4818 18.8202 1.4818 19.9178C1.48174 20.3449 1.34387 20.3582 1.34508 20.6616C1.35598 23.9316 1.48865 26.9567 1.47252 30.209C1.46565 31.5594 1.3495 33.0185 1.33861 34.3563C1.32933 35.4588 1.40875 36.6019 1.41039 37.5932C1.4116 38.1313 1.30659 38.4152 1.29832 38.6099C1.2709 39.2877 1.39916 39.0508 1.39916 39.3973C1.39872 40.3531 1.24387 40.8286 1.25596 41.7238C1.2608 42.0752 1.35948 42.03 1.37486 42.5403C1.39422 43.1875 1.30318 42.9481 1.29991 43.4104C1.29951 43.4383 1.37007 43.3476 1.37291 43.5928C1.39146 45.1709 1.44709 47.1414 1.44225 48.664C1.43257 51.8126 1.29663 54.9208 1.27 57.8545C1.26355 58.5956 1.35553 58.3989 1.35997 58.6341C1.38092 59.7669 1.27089 60.1716 1.31041 61.3576C1.31688 61.555 1.44424 62.3494 1.41197 63.1081C1.39461 63.5177 1.31517 63.9827 1.29661 64.3317C1.27807 64.6806 1.39505 64.7365 1.39513 65.156C1.39537 65.6096 1.36686 65.7155 1.34671 65.9556C1.33367 66.1139 1.32269 66.3325 1.35102 66.7566C1.36887 67.1818 1.62596 68.567 1.91191 69.6055C2.33583 71.3084 3.20827 73.3757 4.56648 74.9812C5.02764 75.5332 5.745 76.1221 6.60466 76.8071C7.6272 77.6906 9.83961 78.8769 11.189 79.2049C11.8684 79.3925 11.8957 79.5115 11.9771 79.5379C12.5043 79.6815 12.3146 79.4996 12.6718 79.5669C13.1605 79.6533 13.6148 79.8035 14.0736 79.8342C14.3636 79.8527 14.413 79.7477 14.4755 79.7489C14.5724 79.7495 14.6691 79.7492 14.7656 79.7479C17.0753 79.7185 19.1461 79.7269 21.4631 79.7161C34.43 79.6564 47.5208 79.5233 60.4624 79.5834C61.5474 79.5883 61.5882 79.719 62.5416 79.6984C63.4951 79.6783 64.4162 79.3959 65.2003 79.7077C65.2256 79.6448 65.2231 79.5999 65.2484 79.5427C65.4953 79.5538 65.7423 79.5621 65.9892 79.568C67.6158 79.6112 69.2207 79.2308 70.6828 78.6449C71.9222 78.1464 72.9594 77.5479 73.9417 76.7958C74.795 76.1111 74.8005 76.2421 75.3696 75.4687C77.8421 72.9974 79.2393 69.48 79.2786 65.9556C79.2992 64.643 79.3264 63.3344 79.3653 62.0324C79.131 60.8639 79.2786 59.7439 79.3133 58.1278C79.3177 57.9282 79.2322 58.1423 79.2395 57.5506C79.2484 56.8075 79.379 56.4229 79.3718 55.1716C79.3698 54.8403 79.225 52.3864 79.2992 51.4784C79.3734 50.5704 79.4169 49.2553 79.4879 48.312C79.4318 48.446 79.3782 48.6157 79.323 48.7649C79.3133 48.2945 79.304 47.8216 79.2943 47.3512C79.3616 47.2829 79.429 47.2145 79.4968 47.1487C79.4327 46.8756 79.3693 46.6023 79.3044 46.3267C79.6504 45.7324 79.5376 46.3417 79.4501 45.0191C79.4065 44.3565 79.4669 43.8305 79.4319 43.1502C79.419 42.905 79.3171 42.7482 79.3041 42.478C79.2726 41.8155 79.4128 42.2016 79.4121 41.7923C79.4109 41.3801 79.2569 40.7882 79.3254 40.0497C79.6 40.8207 79.5104 38.5923 79.2971 38.4861C79.2967 38.2208 79.3056 37.9984 79.2995 37.7054C79.8384 37.976 79.456 36.5869 79.3822 36.0355C79.3085 35.4845 79.4533 35.5068 79.4476 35.3778C79.4319 35.0063 79.3718 35.2769 79.3697 35.0166C79.3576 33.2917 79.446 31.6676 79.4541 29.9655C79.4552 29.7206 79.3734 29.9378 79.3814 29.6523C79.3895 29.3665 79.471 29.0926 79.4653 28.6703C79.4639 28.5569 79.392 28.5213 79.3919 28.3448C79.3952 24.6447 79.4564 21.1314 79.4657 17.3579C79.4665 17.0165 79.3387 16.7485 79.3431 16.0885C79.3446 15.8681 79.3584 15.6096 79.3766 15.3325C79.4138 14.8019 79.4323 14.1983 79.377 13.6748C79.3545 13.466 79.2426 13.4245 79.2046 13.152C79.0685 12.2266 78.9559 11.4157 78.639 10.4857C78.0998 8.91374 77.1643 7.42548 76.1148 6.11424C75.9138 5.86673 76.0164 5.84338 75.7164 5.4882C75.1854 4.88539 75.3026 5.19716 75.1764 5.09597C74.7552 4.77819 74.7427 4.53994 74.3154 4.25117C74.25 4.20791 74.2736 4.35699 74.218 4.31486C73.3519 3.67992 73.4308 3.43886 72.362 2.97372C71.5154 2.36712 73.0627 3.13665 73.2444 3.19488C73.7147 3.28484 72.839 2.46607 72.2238 2.10065C71.7021 1.7823 71.6552 1.89215 71.4355 1.79573C70.2682 1.26835 68.4043 0.859554 67.4391 0.734189C66.8561 0.6446 67.9193 0.70716 67.6234 0.63993C67.3265 0.5699 67.129 0.635823 66.8251 0.526364C66.5263 0.413499 65.884 0.142737 66.0047 0.0167538ZM55.7614 80.6768C57.6886 80.2413 62.7995 80.2868 65.5437 80.3283C65.6937 80.3306 65.8424 80.3342 65.9892 80.3388C68.0596 80.4147 69.7791 80.1337 69.237 79.8201C68.1103 80.0941 67.0559 80.2194 65.9892 80.2306C64.8098 80.2411 63.6177 80.2507 62.2587 80.2429C61.988 80.2413 60.374 80.1961 59.8125 80.1881C59.4965 80.1836 59.4864 80.1033 59.0565 80.1041C58.9629 80.1045 58.4442 80.2094 58.2545 80.2066C57.6047 80.1973 55.6722 80.0362 55.4024 80.0408C54.6541 80.0545 54.9413 80.1794 54.6183 80.2021C53.5333 80.2771 53.4137 80.0896 52.3388 80.1505C52.1466 80.1613 51.5093 80.3248 50.7126 80.3034C50.3888 80.2945 49.8374 80.2101 49.5896 80.2142C48.2391 80.236 46.7315 80.3477 45.4948 80.3292C44.481 80.3138 44.7537 80.1877 44.2175 80.1707C43.6814 80.1542 43.034 80.3006 42.6673 80.309C42.0806 80.3223 41.3674 80.2392 41.1853 80.2404C37.5991 80.265 34.4099 80.3614 30.9501 80.3961C33.2996 80.4537 35.6465 80.5067 37.9809 80.5664C39.3061 80.4357 38.6464 80.5582 39.5188 80.599C40.2091 80.6312 40.3762 80.4099 41.2837 80.4344C41.283 80.4344 41.2823 80.4344 41.2815 80.4344C41.7494 80.4473 42.7636 80.6006 43.7601 80.5365C43.7955 80.534 43.8842 80.4191 44.6303 80.4151C46.3069 80.4062 48.8762 80.3473 50.7629 80.3719C51.3168 80.3792 51.204 80.4998 51.859 80.5147C52.3368 80.5255 52.8903 80.414 53.6385 80.4389C54.5768 80.4708 55.027 80.6627 55.6719 80.3961C55.725 80.4913 55.6982 80.5841 55.7614 80.6768ZM80.084 46.7338C80.0945 46.602 80.3921 44.8369 80.0743 45.3603C79.9364 47.7326 80.0049 50.2975 79.9275 52.7937C80.2417 51.9414 80.1178 50.4995 80.0948 48.7493C80.0948 48.7485 80.0948 48.7478 80.0948 48.7471C80.0938 48.6644 80.1759 49.0098 80.161 48.5401C80.1538 48.3125 80.0279 47.4394 80.084 46.7338ZM57.5918 30.4159C56.82 30.523 56.0698 30.6086 55.3015 30.6677C55.1265 30.6818 55.1308 30.5988 55.0571 30.5965C54.9206 30.5924 54.7178 30.7193 54.6876 30.7254C54.4993 30.7629 54.5448 30.6078 54.5181 30.6073C54.2206 30.6097 54.3366 30.752 54.074 30.8312C53.7327 30.9361 53.2904 31.0388 52.8958 31.1877C52.7581 31.2406 52.7755 31.1105 52.4849 31.25C52.408 31.2878 52.2784 31.3699 52.1338 31.4639L52.106 31.4778C51.8587 31.6238 51.5719 31.8066 51.359 31.8427C51.3306 31.8009 51.3359 31.7321 51.3237 31.6786C51.0406 32.1082 50.9061 32.1787 50.3747 32.5634C50.2916 32.626 50.2774 32.7541 50.126 32.8563C49.9762 32.9608 49.8713 32.8695 49.6236 33.1466C49.5373 33.2463 49.5566 33.3668 49.4363 33.5243C49.2945 33.7108 49.0918 33.9612 48.9014 34.2329L48.9096 34.2192C48.644 34.6115 48.4077 35.0448 48.3076 35.3028C47.9775 36.1783 48.04 36.7051 47.9202 37.5029C47.9123 37.5654 47.8183 37.4205 47.8091 37.5363C47.8 37.6542 47.9331 37.7797 47.9358 37.8075C47.9401 37.8536 47.9397 37.9068 47.9366 37.9653L47.9363 37.9871C47.9047 38.3101 47.8137 38.8091 47.8535 38.9535C47.9656 39.3578 47.9562 38.9481 48.0855 39.5016C48.2026 39.9753 48.2781 40.6544 48.471 41.1602L48.4582 41.1354C48.4791 41.1845 48.5004 41.2317 48.5224 41.2768C48.8186 41.8626 49.1493 41.8717 49.2358 42.4194C49.6808 42.9625 50.1947 43.4484 50.7629 43.8566L50.7541 43.8503C51.626 44.4527 52.5437 44.9863 53.4979 45.4379C53.47 45.484 53.4413 45.5297 53.4124 45.5753C53.5566 45.6039 53.7007 45.6307 53.8446 45.6561C53.8086 45.6835 53.7734 45.7113 53.7374 45.7382C54.2916 45.853 54.7776 45.9719 55.3331 46.1753L55.3514 46.1823C55.4735 46.2312 55.5963 46.2845 55.7249 46.3448C55.7392 46.3515 55.6605 46.4349 55.6716 46.4424C55.8321 46.5293 56.0515 46.531 56.1915 46.6109C56.533 46.8022 57.0367 47.2877 56.89 46.9082C57.4473 47.2129 58.0953 47.4552 58.7119 47.9373C58.9657 48.1458 59.2038 48.391 59.3727 48.6886C59.6027 49.1208 59.452 49.3366 59.4746 49.5467C59.482 49.7535 59.5995 49.6654 59.6226 49.7212C59.624 49.7251 59.6249 49.7294 59.6252 49.7346C59.6971 50.2431 59.2667 50.9827 59.0744 50.9183C59.0695 51.0303 59.0503 51.1504 59.0203 51.2689C58.9809 51.1903 58.765 51.3855 58.4283 51.5272L58.4478 51.5178C58.0911 51.6941 57.6434 51.8318 57.4662 51.867C57.4079 51.879 57.3827 51.8034 57.3399 51.813C56.858 51.9134 56.7536 52.0435 56.3353 52.1181C56.1897 52.1412 56.4074 51.9913 56.0367 52.0694C56.0043 52.0746 56.0261 52.2051 55.5764 52.2089C55.5567 52.209 55.5364 52.209 55.5156 52.2091C54.7905 52.2221 53.4709 52.1592 52.6699 51.9387C52.6027 51.9211 52.834 51.8264 52.518 51.7986C52.4037 51.7871 52.4384 51.8945 52.1648 51.8366C51.9334 51.7868 51.7008 51.7254 51.4686 51.6555L51.4875 51.6602C50.6497 51.4402 49.8203 51.1157 49.0003 50.8396C49.0815 50.7553 49.4856 50.7962 48.922 50.6271C48.832 50.5993 48.8559 50.7169 48.8159 50.7029C48.4914 50.5872 48.2554 50.394 47.912 50.2525C47.8105 50.2104 47.7496 50.2647 47.6208 50.2133C47.4426 50.1416 47.4117 50.0147 47.2245 49.932L47.1984 49.9152C47.1945 49.9147 47.1913 49.9155 47.1902 49.9183C47.1836 49.9279 47.227 49.9726 47.3265 49.9875C47.426 50.0036 47.5341 49.9702 47.5833 49.9454C47.7637 49.8387 47.7605 49.7521 47.7205 49.7212C47.7017 49.7831 47.6736 49.8546 47.6334 49.9412C47.6433 51.8428 47.6792 53.7376 47.6552 55.6323L47.6511 55.7009C47.6453 55.6857 47.64 55.7372 47.7326 55.8003L47.6925 55.7789C47.9627 55.9169 48.2379 56.0468 48.5172 56.169C49.1782 56.3649 49.7998 56.4876 50.4942 56.6164C50.6693 56.6479 50.7034 56.7582 50.9222 56.7978L50.9381 56.8008C50.9753 56.8085 51.0178 56.8143 51.067 56.8174C51.1448 56.8245 51.7021 56.7742 51.7358 57.0618C51.8901 57.0624 51.9852 57.076 52.1167 57.0801C52.0245 57.0252 51.93 56.9687 51.8434 56.9128C52.3785 57.0428 52.8374 56.9971 53.3223 56.9932C53.6798 56.9886 53.4182 57.0878 53.6377 57.0925C53.8577 57.0963 53.9571 57.0757 54.2254 57.2327C54.4486 57.0761 54.5862 57.1993 54.9858 57.2101C55.0175 57.2108 55.1612 57.1776 55.3173 57.1644C55.3727 57.1597 55.4294 57.1576 55.4831 57.1605C55.6313 57.1683 55.6768 57.2719 55.9129 57.2497C55.9524 57.2476 56.4441 57.0994 56.5989 57.0758C56.8415 57.043 57.2404 57.1389 57.2889 57.1347C57.9799 57.0827 58.2147 56.9078 58.7353 57.0271C58.808 56.8826 59.1862 56.7255 59.5008 56.6521C59.8974 56.5716 60.7693 56.5357 60.7672 56.2301C60.8979 56.2131 60.9876 56.1947 61.0585 56.174L61.0721 56.1682C61.2605 56.1159 61.3225 56.051 61.6767 55.8681C62.1304 55.6656 63.2678 54.9519 63.5354 54.629C63.8153 54.3289 63.5624 54.3624 63.6581 54.2332C63.8088 54.0187 63.7985 54.1989 63.9162 54.0629C64.1248 53.817 64.2965 53.575 64.4472 53.3195L64.4389 53.332C64.5218 53.1835 64.5969 53.0302 64.6655 52.8681C64.7478 52.8841 64.8317 52.8978 64.9151 52.9112C64.9037 52.8761 64.892 52.8413 64.8802 52.8065C64.9298 52.7138 64.9806 52.6074 65.0241 52.5203C64.3539 53.0978 65.3995 51.8339 65.5014 51.3306C65.6253 50.9332 65.5795 50.232 65.5649 49.7959C65.5625 49.6891 65.6442 49.7671 65.6435 49.7451C65.6328 49.5095 65.5846 49.4544 65.5777 49.1919L65.5778 49.1581C65.5782 49.1301 65.579 49.0999 65.5802 49.0669C65.5872 48.8861 65.6901 48.696 65.6801 48.5153C65.6298 47.6078 65.344 46.7479 64.9264 45.97L64.9402 45.9969C64.7328 45.6488 64.4992 45.3181 64.2438 45.0014C64.1061 44.8308 64.079 44.5999 63.9509 44.4591C63.767 44.2593 63.5693 44.2195 63.3815 44.0554C63.196 43.8917 62.986 43.5679 62.8313 43.485C62.6794 43.4029 62.8485 43.671 62.6111 43.4673C62.5003 43.3747 62.7639 43.4379 62.6165 43.3368C62.6137 43.335 62.611 43.3331 62.6082 43.3312C62.1227 43.0079 61.3604 42.6914 60.8643 42.3059C60.8757 42.3434 60.8971 42.3831 60.9142 42.4224C60.3349 42.1014 59.8358 41.785 59.2096 41.5035C58.9906 41.4041 58.5598 41.3171 58.3409 41.2339C58.1219 41.1499 58.052 41.0301 57.875 40.9643C57.8023 40.9373 57.8044 41.0224 57.7561 41.0037C57.7127 40.9869 57.671 40.9703 57.6306 40.9536L57.5882 40.9373C57.0572 40.671 56.7725 40.4106 56.1736 40.1367C55.8647 39.9943 55.5565 39.8456 55.2499 39.6896C54.7733 39.437 54.3191 39.1115 53.949 38.6651L53.9357 38.6477C53.7037 38.3374 53.4956 37.9459 53.4851 37.4556C53.484 37.0115 53.5981 36.6197 53.8118 36.2462L53.8276 36.2218C54.1445 35.7374 54.656 35.417 55.1815 35.2864L55.1636 35.2909C55.8555 35.0916 56.5774 34.9697 57.3319 34.9924L57.2997 34.9916C57.3493 34.9906 57.3987 34.9899 57.4482 34.9894C57.5573 34.9886 57.633 34.8861 57.7942 34.876C58.0427 34.8612 58.05 34.9549 58.0826 34.9595C58.2954 34.9919 58.2133 34.9009 58.5011 34.9223C59.1371 34.9661 60.1317 35.1915 60.7398 35.3143C60.8786 35.3411 61.015 35.3681 61.1493 35.3952C62.3525 35.6299 63.4322 35.9358 64.5632 36.5079L64.5437 36.4975C64.5116 36.4791 64.4701 36.4647 64.4443 36.4589C64.4054 36.4484 64.3835 36.5767 64.4348 36.5745C64.4772 36.5718 64.5464 36.5593 64.6143 36.5431L64.3767 36.6473C64.2292 36.7679 64.249 36.7969 64.2333 36.8779C64.2096 36.1763 64.1429 35.767 64.1689 34.5937C64.187 33.7755 64.2174 32.5601 64.244 31.3403C64.2485 31.3141 64.237 31.2247 64.2067 31.0927L64.2561 31.23C64.2846 31.2448 64.1912 31.2071 64.3699 31.2764L64.2778 31.2455C63.6713 30.9756 63.065 30.7783 62.5499 30.6536C62.55 30.6534 62.5501 30.6531 62.5501 30.6528C62.2412 30.7097 61.9138 30.6863 61.5887 30.6221L61.5785 30.6206C61.3055 30.5635 61.0354 30.4735 60.7884 30.3673C61.0659 30.354 61.3427 30.3503 61.6184 30.3558C62.5767 30.3595 63.5264 30.5551 64.4235 30.8974L64.4639 30.911C64.4717 30.8995 64.5824 30.9841 64.6148 31.0554L64.5943 30.9986C64.6298 31.1308 64.6575 31.2464 64.6588 31.3403C64.682 33.1337 64.6181 34.9537 64.6269 36.8784C64.6271 36.8886 64.6257 36.9012 64.6226 36.9137C64.6165 36.9439 64.5935 36.9711 64.5967 36.9679L64.7009 36.9222C64.5216 36.9683 64.3449 36.9832 64.3082 36.9564C63.2993 36.4266 62.1762 36.0816 61.0359 35.8977C59.8049 35.6843 58.5437 35.5772 57.2997 35.6268C56.6286 35.6201 55.9676 35.7391 55.334 35.9207C54.9375 36.0205 54.5777 36.2499 54.353 36.5795C54.2665 36.721 54.1989 36.8796 54.1528 37.0433C54.1056 37.2142 54.0601 37.3336 54.0295 37.4556C54.0009 37.5741 53.9931 37.6999 54.0539 37.8452C54.0749 37.8923 54.1263 37.7386 54.187 37.8789C54.253 38.0219 54.3397 38.1558 54.4387 38.2807C54.7408 38.6299 55.1234 38.9183 55.539 39.154C56.2932 39.5675 57.067 39.9689 57.8494 40.3277C58.5265 40.5787 59.1879 40.8544 59.832 41.1237C60.3682 41.3513 60.4985 41.2928 60.9716 41.5008C60.867 41.5059 60.7895 41.5281 60.6956 41.54C61.4381 41.9806 62.1696 42.4314 62.8864 42.907C63.9464 43.6202 64.859 44.5709 65.4691 45.7094C65.5497 45.8771 65.6251 46.0508 65.6932 46.2274C65.7309 46.3265 65.6343 46.3776 65.668 46.4812C65.7341 46.6881 65.9104 46.8533 65.9652 47.0405C66.0345 47.2842 65.9597 47.3463 66.011 47.5707C66.0343 47.6808 66.1124 47.6324 66.1369 47.8792C66.1384 47.9 66.0557 47.9258 66.0871 48.0855C66.1398 48.3487 66.2034 48.7844 66.2196 49.1754C66.2442 49.4368 66.2514 49.6746 66.2505 49.8245C66.2482 50.3081 66.0493 50.6676 66.007 50.8393C65.885 51.306 66.0144 51.3288 65.8959 51.7273C65.6779 52.4222 65.3602 53.0771 64.9595 53.6696C64.0317 54.9771 62.7319 55.9851 61.2376 56.5706C60.6939 56.7996 60.1302 56.9857 59.5497 57.1383C59.3711 57.1898 58.7207 57.489 58.3694 57.537C58.2525 57.5576 57.6379 57.6034 57.5458 57.6077C57.1726 57.6382 56.8434 57.5722 56.6385 57.5664C56.2411 57.5557 55.8008 57.708 55.5824 57.7242C55.5038 57.7302 55.4141 57.7342 55.3173 57.7361C54.9432 57.7448 54.4873 57.7185 54.3599 57.71C53.9726 57.6842 54.1099 57.5156 53.8315 57.5402C53.7492 57.5469 53.8264 57.6872 53.5373 57.6663C53.2951 57.6472 53.2063 57.5376 53.0443 57.5037C52.8827 57.4703 52.564 57.5907 52.4614 57.5734C51.928 57.4822 51.7083 57.3456 51.1352 57.2333C51.0716 57.2205 50.9768 57.2029 50.86 57.1809C50.0934 57.0924 48.4567 56.6094 48.3009 56.5571C47.4597 56.3904 48.7876 56.8532 48.866 56.8688C49.2614 57.0341 49.1865 57.0767 49.6297 57.0788C49.7837 57.3436 50.3342 57.3807 50.8121 57.4217C51.1654 57.4641 51.484 57.5213 51.5987 57.73C51.996 57.4984 52.2631 57.6852 52.6288 57.7874C53.1334 57.9246 52.7608 57.7135 53.1342 57.7492C53.2807 57.7635 53.6991 57.9298 53.9238 57.923C54.1477 57.9168 54.246 57.8199 54.5431 57.8242C54.8242 57.8274 55.0757 57.8414 55.3173 57.8709C55.5324 57.8971 55.7386 57.9351 55.9517 57.9865C56.0323 57.9301 56.1074 57.8734 56.1853 57.8162C56.4953 57.8618 56.809 57.8998 57.1239 57.9296C57.07 57.8871 57.0165 57.8438 56.9638 57.8008C57.0525 57.7867 57.1431 57.7722 57.2316 57.7572C57.5369 57.7991 57.8308 57.8298 58.1506 57.8561C58.9407 57.45 58.735 57.7198 59.2069 57.6572C59.6775 57.5856 59.8998 57.3578 60.2434 57.2489C60.6996 57.0988 60.9039 57.0021 61.3444 56.8229C61.3493 56.8211 61.3568 56.8182 61.3644 56.8153C61.6315 56.7148 62.1339 56.633 61.6708 56.5896C62.4766 56.2071 63.4109 55.4419 64.0267 54.9407C64.2118 54.7937 64.046 55.0703 64.0802 55.0486C64.2552 54.9372 64.2818 54.7289 64.4305 54.5868C64.6272 54.4018 64.9704 54.0694 65.1822 53.8199C65.2415 53.7473 65.2892 53.6861 65.3239 53.6385C65.5659 53.3169 65.6874 52.6852 65.6971 52.6248C65.7762 52.28 65.9275 52.2396 65.9591 52.1297C66.1217 51.5036 66.083 51.3575 66.4066 51.222C66.3364 51.0241 66.249 50.3164 66.4608 50.1702C66.2814 50.146 66.3614 49.5789 66.3044 49.2281C66.3181 49.2109 66.3317 49.1936 66.3452 49.1761C66.3858 49.1312 66.4259 49.0827 66.4659 49.034C66.172 48.2983 66.1689 46.8522 65.7804 45.9299C65.7711 45.907 65.6286 45.9226 65.5961 45.7789C65.5944 45.7695 65.6574 45.7569 65.6223 45.665C65.6189 45.6563 65.6153 45.6469 65.6115 45.6368C65.4895 45.2905 64.9118 44.2454 64.8015 44.1471C64.4519 43.7421 64.3061 43.7551 64.0674 43.5429C63.7456 43.2718 63.7561 43.1616 63.4246 42.9282C63.306 42.8469 63.1562 42.8283 62.9883 42.7502C62.9339 42.7255 62.8784 42.6948 62.8211 42.6536C62.6807 42.5533 62.7167 42.4629 62.604 42.3844C62.2017 42.1057 61.862 41.9806 61.5413 41.6628C61.2963 41.8768 61.2224 41.5816 61.0414 41.4623C60.3096 40.974 59.2579 40.6521 58.5691 40.3662C58.3524 40.2748 58.137 40.1868 57.9224 40.102L57.9427 40.1098C57.1472 39.7237 56.4031 39.312 55.6884 38.8722C55.3208 38.6361 54.9926 38.3466 54.7616 38.0184L54.7747 38.0356C54.6405 37.8284 54.57 37.608 54.5839 37.4556C54.5936 37.2747 54.6627 37.052 54.7661 36.8784C54.7742 36.8648 54.7815 36.8519 54.788 36.8395L54.7718 36.8647C54.874 36.7085 54.8341 36.5515 55.0729 36.4209C55.169 36.3739 55.2975 36.4003 55.4442 36.3939L55.4609 36.3896C55.503 36.3848 55.5472 36.3773 55.5937 36.3659C55.7971 36.3158 56.0823 36.2001 56.343 36.1674C56.4121 36.1587 56.4306 36.2609 56.53 36.2514C56.7808 36.2284 57.0272 36.2135 57.2693 36.214L57.2997 36.2148C57.8325 36.191 58.3691 36.1786 58.9203 36.2067C59.2265 36.2225 59.3943 36.3878 59.3764 36.1426C59.4848 36.2172 59.5898 36.2849 59.6889 36.3596C60.0978 36.2839 60.3974 36.4672 60.8897 36.5633C60.9325 36.5714 60.9713 36.578 61.0115 36.584C61.0703 36.5909 61.5285 36.5288 61.7294 36.7127C61.7694 36.6352 61.7528 36.5551 61.7807 36.4825C62.0253 36.5163 62.3504 36.7267 62.499 36.7919C62.6484 36.8561 62.7898 36.7922 62.8365 36.8092C63.0127 36.8757 62.9164 36.9954 62.9289 37.0028C63.6189 37.4385 63.603 37.3848 64.0653 37.4161C64.1183 37.4285 64.1702 37.4335 64.2225 37.4314C64.3132 37.4391 64.5716 37.4513 64.8106 37.403L64.8757 37.3745C65.0578 37.2526 65.1333 37.0573 65.1305 36.8786C65.1245 36.726 65.1029 36.5987 65.0494 36.5414C65.12 36.5331 65.182 36.5841 65.2494 36.5987C65.2675 36.3237 65.2862 36.0465 65.3043 35.7704C65.2365 35.8289 65.1687 35.8993 65.1006 35.9526C65.1594 35.389 64.9998 34.9203 65.005 34.4591C65.0082 34.1955 65.1579 34.2277 65.1252 34.0729C65.1187 34.0426 65.0176 34.0938 65.0095 34.004C64.9438 33.2708 65.0506 32.9496 65.0708 32.2154C65.0786 31.9371 64.9598 31.687 64.9781 31.3403C64.9825 31.2541 64.9817 31.1622 64.9843 31.0618C64.9849 31.047 64.9901 30.9855 64.9868 30.9033L64.9779 30.8787C64.9361 30.7399 64.8158 30.5361 64.5685 30.5039L64.5859 30.5098C64.5077 30.4976 64.4267 30.4992 64.3474 30.5224C64.286 30.4186 64.2205 30.3521 64.1745 30.2686C63.4793 30.3922 63.7644 30.1153 62.9723 29.8162C62.7541 29.7367 62.24 29.6266 61.7321 29.576C61.2982 29.5252 60.8689 29.4967 60.6513 29.4905C60.3734 29.4832 60.3651 29.6206 60.3157 29.621C60.0209 29.6243 60.0323 29.4927 59.7591 29.4925C59.4855 29.4927 59.1346 29.6208 58.8582 29.5947C58.6459 29.575 58.8206 29.417 58.5028 29.4629C58.4372 29.4734 58.6189 29.6179 58.2888 29.5539C58.2375 29.5429 57.7079 29.3843 57.5976 29.3531C57.8778 29.2624 58.7005 29.1684 59.0115 29.1519C59.8231 29.0997 60.7651 29.1027 61.7939 29.1898C62.7627 29.2601 63.8109 29.4814 64.8529 29.8722L64.7407 29.8345C65.2894 30.0139 65.4276 30.2445 65.6197 30.5663L65.6804 30.7349C65.7166 30.8699 65.7774 31.0617 65.7845 31.3403C65.8476 33.1248 65.887 35.0147 65.9093 36.8784C65.894 37.3095 65.778 37.6823 65.3231 38.0265L64.9866 38.1739C64.8611 38.2028 64.7269 38.2334 64.5331 38.2483C64.35 38.2625 64.0305 38.2547 63.7235 38.0956L63.6997 38.083C62.7724 37.585 61.7798 37.2495 60.7939 37.0413L60.7839 37.0391C59.5268 36.7567 58.3455 36.61 57.2997 36.6007L57.2495 36.5995C56.9211 36.5785 56.5865 36.599 56.2692 36.6426C55.9863 36.6821 55.7522 36.6753 55.5406 36.6843L55.5146 36.6909C55.4365 36.6827 55.3626 36.6856 55.2991 36.7098C55.131 36.7839 55.3234 36.8249 55.1986 36.894C55.1251 36.9403 55.0501 36.9623 54.9819 37.0076L55.0051 36.9715C54.9658 37.0028 54.928 37.0455 54.9026 37.1009C54.848 37.2183 54.814 37.3548 54.8083 37.4557C54.7953 37.5375 54.8445 37.717 54.9667 37.8955L54.9475 37.8704C55.1596 38.1593 55.472 38.4206 55.8283 38.6313C56.5545 39.045 57.3158 39.4242 58.0889 39.7685L58.0428 39.7508C58.0837 39.7654 58.1245 39.7801 58.1653 39.795C58.6474 39.9708 59.0694 40.02 59.503 40.2009C59.6714 40.2718 59.6221 40.401 59.7408 40.451C60.9974 40.9875 62.1812 41.4786 63.3247 42.2248C63.3474 42.2399 63.3648 42.2516 63.3822 42.2634C63.8891 42.6068 64.3228 43.1173 64.7273 43.5528C65.0626 43.9106 65.4455 44.2617 65.6981 44.632C65.8353 44.8328 65.8113 44.9975 65.849 45.0753C65.9784 45.3479 66.0356 45.1941 66.1117 45.3299C66.116 45.3377 66.1201 45.3455 66.1242 45.3533L66.1382 45.3806C66.3108 45.7572 66.2534 46.0093 66.3925 46.3697C66.4465 46.5155 66.5353 46.4652 66.6162 46.6807C66.7143 46.9556 66.5973 46.8759 66.6446 47.0762C66.647 47.0885 66.7064 47.032 66.7344 47.1388C66.8994 47.756 67.0268 48.5409 67.0101 49.1967L67.0102 49.1624C67.0123 49.2338 67.0129 49.3035 67.0122 49.3713C66.9969 50.803 66.4949 52.1449 65.8776 53.2768C65.7192 53.5632 65.8383 53.5302 65.7914 53.6242C65.6991 53.8027 65.6091 53.9238 65.5201 54.0331L65.5124 54.0447C65.3729 54.2067 65.2387 54.3432 65.06 54.6053C65.012 54.6766 64.8839 55.0337 64.6238 55.2578C64.4846 55.379 64.281 55.4671 64.1557 55.5579C64.03 55.6485 64.0901 55.7524 63.948 55.8753C63.6857 56.0942 63.7154 55.973 63.3356 56.274C63.1851 56.3949 62.6977 56.8549 62.234 57.0763C62.0278 57.1778 61.801 57.2719 61.5608 57.3564L61.5766 57.3497C60.9617 57.5839 60.2667 57.7614 59.6036 57.9255C59.2906 58.0031 58.908 58.2112 58.4108 58.2933C57.8042 58.4023 56.6809 58.4764 56.0605 58.488C55.7428 58.497 55.7177 58.3696 55.6803 58.3653C55.4381 58.3335 55.5378 58.4729 55.375 58.4683C55.3557 58.4676 55.3365 58.4663 55.3173 58.4643C55.1165 58.4434 54.9291 58.354 54.7458 58.3436C54.6178 58.3363 54.5945 58.4391 54.5665 58.4391C53.5325 58.441 52.6176 58.3482 51.5972 58.1969C51.2918 58.151 50.9872 58.0988 50.6834 58.0402L50.7025 58.0438C49.471 57.8404 48.2703 57.472 47.1311 56.944L47.0775 56.9154C46.6791 56.6965 46.2653 56.1799 46.3422 55.5415L46.3367 55.6323C46.3077 53.6621 46.2804 51.6898 46.268 49.7212C46.2825 49.4285 46.3102 49.0786 46.7564 48.7364C46.9314 48.601 47.2898 48.5153 47.5272 48.5736C47.767 48.6231 47.8904 48.7097 47.9823 48.7691L47.9444 48.7446C49.1086 49.4448 50.367 49.9614 51.6818 50.2954C51.725 50.3064 51.7637 50.3175 51.7986 50.3287L51.8257 50.3355C52.1179 50.439 52.141 50.5508 52.4732 50.6056C52.8481 50.6661 53.243 50.4467 53.5031 50.7975C53.5216 50.7366 53.5268 50.692 53.5444 50.6366C54.1912 50.803 54.865 50.7903 55.5155 50.7654C55.6202 50.7614 55.7233 50.7571 55.8258 50.7529C56.3712 50.7295 56.846 50.692 57.2848 50.5919C57.6447 50.5004 57.6746 50.5928 57.8596 50.3731L57.9004 50.3534C57.9029 50.3475 57.9053 50.3411 57.9076 50.3344C58.1021 50.2784 58.315 49.988 58.3198 49.7209C58.3467 49.5602 58.19 49.267 57.8485 48.9709C57.3024 48.5114 56.3688 48.082 55.5507 47.6623C55.2849 47.6796 55.0603 47.6114 54.8245 47.504L54.8478 47.5129C54.5993 47.4096 54.3424 47.2634 54.0309 47.1164C53.9536 47.0794 54.0054 47.1945 53.7739 47.0886C53.4837 46.9534 53.3852 46.7703 52.901 46.5451C52.772 46.4916 51.7695 46.1323 51.4732 45.8638C51.174 45.6044 50.7222 45.2689 50.4307 44.9851C50.4465 45.0634 50.4768 45.1482 50.4996 45.2295C50.3325 45.1302 50.1661 45.0277 50.0016 44.9238L49.9902 44.9157C49.984 44.9115 49.9778 44.9074 49.9716 44.9033C49.9866 44.8308 50.0023 44.7585 50.0197 44.6869C49.8851 44.6662 49.7503 44.6413 49.6132 44.6134C49.6305 44.1756 49.7627 44.4472 49.269 44.1215C49.0242 43.9532 48.9033 43.745 48.676 43.5464C48.5941 43.4747 48.4714 43.4893 48.3829 43.4051C48.1688 43.197 48.3874 43.2412 48.2731 43.1004C48.16 42.9595 47.8748 42.8393 47.7475 42.5252C48.1597 42.6548 47.5575 41.8915 47.3568 41.9457C47.3245 41.8892 47.2981 41.8363 47.2697 41.7813L47.2546 41.7519C47.233 41.7049 47.2103 41.6566 47.1826 41.6032C47.7191 41.4851 47.1235 41.0939 46.974 40.8754C46.8222 40.6655 46.9653 40.6282 46.942 40.5758C46.8777 40.4224 46.8558 40.5555 46.8201 40.4441C46.5887 39.7001 46.5678 38.9563 46.5715 38.1988C46.5727 38.0893 46.4903 38.1865 46.4995 38.0578C46.5023 38.0211 46.5113 37.9849 46.5229 37.9478L46.5226 37.9653C46.5491 37.872 46.5907 37.7727 46.5916 37.6391C46.5922 37.589 46.5209 37.57 46.525 37.4911C46.6063 36.0763 47.0669 34.7624 47.7802 33.5659L47.7866 33.5551C47.9129 33.3535 48.0478 33.1555 48.1913 32.9612C48.2814 32.8407 48.2501 32.666 48.4431 32.4399C48.6363 32.2128 49.0247 31.9644 49.2956 31.727C49.3676 31.6637 49.3151 31.567 49.4137 31.4836C49.7509 31.2016 50.1026 31.0418 50.4847 30.8071C50.8137 30.6061 51.1519 30.4024 51.5076 30.2264L51.489 30.2357C51.8273 30.0522 52.182 29.8959 52.545 29.7932C52.6852 29.7541 52.6933 29.8446 52.8962 29.8015C53.2463 29.7319 53.0809 29.6514 53.1449 29.6127C53.3564 29.4904 53.4749 29.6363 53.6824 29.537C53.7145 29.5218 53.6411 29.4351 53.6712 29.4258C54.1422 29.2938 54.2125 29.5232 54.6912 29.3077C55.1588 29.3705 54.4236 29.5381 54.3649 29.629C54.2194 29.839 54.736 29.9469 55.0216 29.974C55.2698 29.9955 55.2521 29.8879 55.3489 29.875C55.8562 29.8058 56.6208 29.7365 57.0134 29.781C57.2503 29.8061 56.8264 29.8639 56.9482 29.8968C57.0675 29.9293 57.144 29.8445 57.2672 29.9332C57.3923 30.0216 57.6385 30.2883 57.5918 30.4159ZM49.5347 50.7624C50.0276 50.7067 50.8176 50.8817 51.6331 51.0369C52.329 51.199 53.0419 51.3463 53.5576 51.431C54.4767 51.588 55.2907 51.9233 55.1068 51.4353C54.1037 51.3998 53.2832 51.3554 52.2451 51.1129C52.178 51.0971 51.908 51.0165 51.6638 50.934C51.5068 50.8877 51.3653 50.8431 51.2823 50.8181C51.1588 50.7808 51.1757 50.7026 51.008 50.6561C50.9716 50.6466 50.7396 50.6876 50.6662 50.6614C50.411 50.5793 49.7314 50.1576 49.633 50.1169C49.3491 50.0148 49.4075 50.1734 49.2776 50.1427C48.8413 50.0316 48.8773 49.8409 48.4618 49.6984C48.3883 49.6726 48.0795 49.6967 47.8057 49.5132C47.7423 49.4706 47.6654 49.3904 47.5955 49.3201C47.5438 49.2614 47.4521 49.2025 47.3666 49.1984C47.2805 49.1908 47.1833 49.2238 47.1226 49.271C46.9579 49.4009 46.935 49.5745 46.942 49.7212C46.9815 50.1381 47.0353 50.5627 47.022 50.9296C47.0066 51.3488 46.8805 51.2361 46.8635 51.4578C46.847 51.6795 46.9934 51.9472 47.0018 52.0989C47.0151 52.3415 46.932 52.6364 46.9332 52.7117C46.9502 53.7331 47.0011 54.6765 47.0426 55.6323C47.0164 55.9149 47.2114 56.1667 47.4448 56.2903C47.6055 56.3612 47.7673 56.4293 47.9317 56.4956C47.7745 56.4164 47.6192 56.3342 47.4659 56.2491C47.2576 56.1125 47.1167 55.8673 47.1644 55.6417C47.1956 55.0994 47.2264 54.5673 47.2592 54.0368C47.1285 53.4888 47.251 53.7616 47.2917 53.4009C47.324 53.1154 47.1027 53.0463 47.1272 52.671C47.1272 52.6713 47.1272 52.6716 47.1272 52.6719C47.1401 52.4784 47.2934 52.059 47.2292 51.647C47.2268 51.6323 47.1119 51.5956 47.1079 51.2871C47.1024 50.8557 47.0775 50.2815 47.0654 49.7212C47.0644 49.6016 47.098 49.4684 47.2048 49.3914C47.3091 49.3103 47.4525 49.3636 47.5337 49.4251C47.6211 49.4789 47.7072 49.5318 47.7894 49.5828C47.9842 49.7024 47.8842 49.7854 48.1174 49.9288C48.2888 50.0325 48.5434 50.0388 48.8129 50.1929C49.1505 50.385 49.2553 50.6354 49.603 50.4875C49.5884 50.5841 49.5439 50.6664 49.5347 50.7624ZM50.2363 44.1133C50.1905 44.074 49.8486 43.3818 49.797 43.7581C49.9756 43.9702 50.1813 44.1666 50.4051 44.3471C50.9855 44.7979 51.6396 45.184 52.2661 45.5911C52.108 45.1459 51.5365 44.9628 50.92 44.5821C50.9198 44.582 50.9195 44.5818 50.9193 44.5816C50.8904 44.5637 51.0539 44.5738 50.8849 44.4794C50.8281 44.4475 50.6321 44.3912 50.4491 44.2855C50.3709 44.2385 50.2953 44.181 50.2363 44.1133ZM29.138 21.992C28.4035 22.0985 27.6772 22.1442 26.9333 22.1117C26.7637 22.1045 26.778 22.022 26.708 22.0102C26.5793 21.9884 26.3672 22.0831 26.3373 22.0841C26.1511 22.0909 26.2192 21.9448 26.194 21.94C26.1826 21.938 26.1719 21.9364 26.1616 21.9351C25.9105 21.9035 25.9811 22.0533 25.7162 22.0754C25.357 22.1052 24.8976 22.0835 24.472 22.0829C24.3227 22.0825 24.3866 21.9713 24.0656 21.9871C23.9219 21.9943 23.5928 22.0531 23.2931 22.0682C23.1098 22.0773 22.9358 22.0684 22.8136 22.0227C22.8103 21.9723 22.8502 21.9155 22.8661 21.863C22.4025 22.0862 22.2314 22.0788 21.5765 22.0421C21.4731 22.0364 21.3777 22.125 21.1968 22.0984C21.0419 22.0759 21.0108 21.9747 20.7776 21.9568C20.7384 21.9541 20.6924 21.9536 20.6392 21.956C20.5058 21.9622 20.4284 22.0592 20.2229 22.0693C19.8819 22.0868 19.3573 22.0544 18.8984 22.0208C18.898 22.0217 19.0982 21.9794 19.1886 21.8272C19.2659 21.6906 19.2309 21.6734 19.2319 21.6931C19.227 21.7887 19.2238 21.8742 19.2232 21.9454C19.2151 22.8682 19.3752 23.3702 19.3196 24.1897C19.3156 24.2528 19.2127 24.1142 19.2107 24.2299C19.2087 24.3466 19.3449 24.4681 19.3482 24.4968C19.3832 24.8065 19.2007 25.4612 19.2228 25.6335C19.2768 26.0524 19.3369 25.6396 19.3627 26.2201C19.3873 26.7728 19.2099 27.5359 19.1752 28.0838C19.1349 28.7187 19.3925 28.9235 19.1235 29.4016C19.1393 31.0807 19.1489 32.7666 19.1626 34.4476C19.109 34.4429 19.0553 34.4373 19.0017 34.4316C19.0388 34.5645 19.076 34.6974 19.1127 34.8304C19.0728 34.8103 19.0328 34.7912 18.9933 34.7712C19.1473 35.3955 19.2268 35.9519 19.1845 36.6814C19.1837 36.6957 19.0767 36.6582 19.074 36.67C19.0538 36.8345 19.1361 37.0183 19.1167 37.1627C19.0703 37.5117 18.8372 38.1046 19.1223 37.8435C19.0635 38.6573 19.1599 39.6135 19.1046 40.389C19.0808 40.7246 18.9119 40.8251 18.9021 40.9857C18.8924 41.1461 19.0376 41.0645 19.0432 41.1214C19.0755 41.4638 19.0695 42.0272 18.907 42.0865C18.9719 42.1553 19.0376 42.2282 19.1029 42.298C18.9227 42.257 18.9972 43.3149 18.9928 43.5925C18.992 43.6431 18.913 43.6502 18.9138 43.6885C18.9239 44.1148 19.0477 44.219 19.0889 44.5842C19.1034 44.7123 18.9642 44.5136 19.0243 44.8426C19.0296 44.8712 19.1546 44.856 19.1538 45.249C19.1526 45.8763 19.2022 47.0763 19.1405 47.8232C19.1357 47.8844 18.9994 47.698 19.0311 47.9779C19.0424 48.0793 19.1392 48.0308 19.14 48.2765C19.1441 49.229 19.0328 50.2445 19.1251 51.2161C19.0158 51.1807 18.8932 50.8346 18.9618 51.3548C18.9731 51.4379 19.0707 51.3759 19.0744 51.4132C19.1026 51.7153 19.0328 51.9772 19.0703 52.3042C19.0816 52.4008 19.1583 52.4248 19.1764 52.5453C19.2034 52.7231 19.0941 52.8018 19.1405 53.0084C19.2135 53.3314 19.3171 53.3813 19.1139 53.7818C19.1194 54.7407 19.1327 55.6977 19.1396 56.6538C19.1356 56.7094 19.1689 56.7119 19.1007 56.6139C19.0155 56.5115 18.9217 56.5199 18.9648 56.5203C20.0442 56.517 21.1228 56.5263 22.2021 56.569C22.8561 56.5109 23.4597 56.446 24.1415 56.4239C24.3423 56.4174 24.3807 56.5561 24.701 56.5102C24.7727 56.5001 25.2844 56.3512 25.359 56.6315C25.3647 56.6305 25.3704 56.6296 25.3759 56.6287L25.3081 56.6337C25.3007 56.6132 25.2832 56.616 25.2584 56.6257C25.2368 56.5852 25.2386 56.5285 25.2621 56.4789C25.1844 56.5147 25.1138 56.6196 25.1127 56.7068L25.1066 56.6196C25.0828 56.3511 25.0377 56.0964 25.0104 55.8296C24.9762 55.4931 25.0964 55.732 25.0843 55.5256C25.0726 55.319 25.0456 55.2251 25.1895 54.9669C25.0234 54.7642 25.1399 54.6294 25.1444 54.2556C25.1448 54.2154 25.0804 53.9832 25.0932 53.7891C25.1025 53.6496 25.2061 53.6082 25.19 53.3865C25.1876 53.3502 25.0593 52.8815 25.0476 52.7323C25.029 52.4999 25.1618 52.1306 25.1634 52.0857C25.1868 51.4326 25.0557 51.1809 25.2714 50.7172C25.1432 50.6235 25.0682 50.2365 25.0806 49.9238C25.0964 49.5289 25.3585 48.737 25.0815 48.6289C25.2049 48.1718 25.1287 48.2215 25.1263 47.6795C25.1242 47.2596 25.2007 46.251 25.2141 45.7134L25.2048 45.1979L25.7392 45.1883C25.8335 45.1906 25.9134 45.191 25.9732 45.1888C26.3758 45.1748 26.1806 45.0203 26.3422 45.0007C26.6098 44.9694 26.4636 45.0812 26.6483 45.0831C26.8395 45.086 27.0253 45.0887 27.2264 45.1021C27.4692 45.1138 27.7596 45.0963 28.0571 45.0676C28.0819 45.1476 28.1086 45.228 28.1348 45.308C28.1598 45.2815 28.184 45.255 28.209 45.2285C28.311 45.2297 28.4263 45.2283 28.5217 45.2308C28.069 45.0319 28.3734 45.067 28.8134 45.1355C29.1461 45.1889 29.5579 45.2548 29.762 45.2523C30.1582 45.2496 30.8042 45.0495 31.2261 44.9765C31.3291 44.9589 31.2652 45.0509 31.2863 45.0471C31.5347 45.0003 31.5668 44.9389 31.9019 44.9102C32.079 44.8946 32.2728 44.9791 32.4455 44.9572C33.6998 44.7971 34.8597 44.4155 36.0008 43.9701C36.0122 43.9656 36.0246 43.9607 36.0369 43.9559C36.23 43.8795 36.4476 43.9314 36.6115 43.8618C36.8453 43.7616 36.9421 43.5949 37.1504 43.486C37.3577 43.3784 37.7174 43.3214 37.8452 43.2196C37.9718 43.1193 37.6739 43.1563 37.9397 43.0318C38.0616 42.9733 37.9104 43.1792 38.0528 43.0923C38.5028 42.8204 39.0145 42.2891 39.4958 41.9982C39.4589 41.9941 39.4173 41.9978 39.3774 41.9977C39.8213 41.6148 40.2321 41.2843 40.6271 40.8163C40.7665 40.6529 40.9321 40.2964 41.0498 40.1251C41.0504 40.1242 41.0511 40.1233 41.0517 40.1223C41.1684 39.9556 41.293 39.9242 41.3835 39.7843C41.4207 39.7266 41.3388 39.7078 41.3641 39.6696C41.6735 39.1915 41.9458 38.9693 42.1694 38.3989C42.7833 36.7966 42.9985 35.0136 42.957 33.2446C42.9447 32.7093 42.8981 32.1769 42.8178 31.6521C42.8039 31.562 42.6933 31.5157 42.6586 31.3881C42.6041 31.1919 42.6914 31.167 42.6902 31.1396C42.679 30.961 42.6095 31.0471 42.564 30.8143C42.4716 30.329 42.3292 29.551 42.152 29.05C42.1452 29.0311 42.1354 29.0048 42.1257 28.9795C41.6891 27.8663 41.1126 27.0248 40.3603 26.1557C40.3051 26.0936 40.4362 26.0591 40.3437 25.9463C40.1687 25.7341 40.0164 25.579 39.8741 25.4465C39.4778 25.0986 39.1805 24.8804 38.4391 24.3102C37.8281 23.8426 36.8102 23.2128 35.7262 22.8118L35.7059 22.8044C35.0016 22.5117 34.2713 22.3021 33.6747 22.1708C33.6748 22.1705 33.6748 22.1702 33.6749 22.17C33.1559 22.2912 32.5613 22.1391 32.0578 21.9096C33.3584 21.8219 34.644 21.9969 35.8501 22.4305C37.4496 22.9515 38.8983 23.9153 40.1625 25.1716C40.2118 25.222 40.2637 25.276 40.3151 25.3306C41.2646 26.3363 42.0858 27.5333 42.6561 28.8768C43.2217 30.249 43.5786 31.7437 43.6098 33.2446C43.6246 33.8914 43.5971 34.5365 43.5164 35.1693C43.4727 35.5022 43.3256 35.6171 43.3082 35.8973C43.3049 35.9451 43.4233 35.8392 43.4092 35.9858C43.2544 37.5895 42.5479 39.199 41.6011 40.504C41.3566 40.8456 41.1017 41.1729 40.8433 41.4894C40.5019 41.8991 40.5214 42.0354 40.199 42.3874C40.2236 42.2918 40.2245 42.2145 40.2389 42.1264C39.0307 43.1455 37.7006 44.0002 36.2253 44.5641C35.6992 44.7642 35.1597 44.9336 34.61 45.069C34.5155 45.0919 34.477 44.9897 34.3779 45.0099C34.1797 45.0497 34.0165 45.2086 33.8424 45.2493C33.6158 45.3016 33.5598 45.2243 33.3509 45.2688C33.2491 45.29 33.2942 45.367 33.0676 45.3911C33.0486 45.3929 33.0221 45.3095 32.8751 45.3442C32.4734 45.4432 31.6398 45.612 31.2976 45.6589C30.8614 45.7236 30.5015 45.6105 30.3361 45.61C29.8885 45.6068 29.9026 45.7398 29.5223 45.7491C29.285 45.7542 29.0492 45.7554 28.8134 45.7533C28.2599 45.7452 27.7051 45.7497 27.1659 45.6913C26.6875 45.6365 26.2136 45.6348 25.7392 45.6189L25.643 45.6206L25.6447 45.7134C25.6048 47.12 25.5624 48.5331 25.5631 49.9974C25.5631 50.1716 25.7126 50.8157 25.7066 51.138C25.7042 51.246 25.6647 51.8108 25.6615 51.8954C25.649 52.2387 25.5586 52.5353 25.5396 52.7247C25.5026 53.0919 25.6437 53.5022 25.6578 53.702C25.6828 54.0529 25.6642 54.6762 25.6606 54.8235C25.6517 55.1793 25.4772 55.0617 25.5179 55.3171C25.5301 55.3925 25.6639 55.3135 25.6639 55.5793C25.6634 55.8019 25.5627 55.892 25.5445 56.044C25.5265 56.196 25.6823 56.4749 25.6784 56.5697C25.6777 56.5867 25.6768 56.6033 25.6759 56.6196C25.686 56.8673 25.4924 56.9617 25.3544 56.9493L25.3759 56.9477C25.2226 56.9255 25.0565 56.9074 24.8376 56.9053C24.3897 56.9013 22.3196 56.9727 22.1475 57.0094C21.3767 57.1734 22.6604 57.0999 22.7328 57.1054C23.1239 57.1373 23.0667 57.2002 23.4568 57.08C23.8059 57.4506 25.0223 56.8736 25.3341 57.3132C25.3481 57.3004 25.362 57.2885 25.3759 57.2774L25.4024 57.2754C25.6697 57.0357 25.7864 56.8932 25.8217 56.6081L25.8225 56.6196C25.839 56.5473 25.8573 56.4728 25.8708 56.3946C25.9522 55.9254 25.7816 56.2827 25.7804 55.9404C25.78 55.8055 25.913 55.4144 25.8945 55.2118C25.8759 55.0091 25.7739 54.9238 25.7683 54.6523C25.7578 54.1675 25.8054 53.7773 25.9276 53.37C25.8736 53.2955 25.8195 53.2258 25.7655 53.1522C25.8235 52.8711 25.8813 52.5888 25.9389 52.3077C25.8918 52.3526 25.8442 52.3977 25.797 52.4426C25.7901 52.3604 25.7836 52.2779 25.7772 52.1956C25.8482 51.9222 25.9139 51.661 25.9873 51.3799C25.7143 50.616 25.9506 50.8377 25.9861 50.4131C26.0215 49.9886 25.8635 49.743 25.8626 49.4151C25.8614 48.9733 25.8417 48.7704 25.853 48.3248C25.8595 48.0666 26.0119 47.6286 25.7704 47.9882C25.754 47.3056 25.7031 46.4097 25.7474 45.7134L25.7392 45.7216C25.8655 45.7296 25.9847 45.7408 26.0952 45.7561C26.3077 45.7854 26.024 45.8605 26.0603 45.8701C26.2403 45.9153 26.3928 45.7926 26.5781 45.8137C26.7262 45.831 26.9435 45.8659 27.1428 45.9158C27.3784 45.9707 27.6027 46.0048 27.7302 46.0196C28.0865 46.0595 28.6375 45.898 28.6941 45.8866C28.7383 45.8776 28.7773 45.8724 28.8134 45.8701C29.0343 45.8558 29.1096 45.9519 29.1974 45.9432C29.776 45.8822 29.8999 45.8186 30.0937 46.092C30.2418 45.967 30.8545 45.7295 31.0204 45.9196C31.0115 45.7366 31.5325 45.7276 31.8457 45.6462C31.9104 45.6928 31.9762 45.7388 32.0417 45.7852C32.6686 45.3902 34.0045 45.4072 34.8727 45.2008C34.8945 45.1956 34.8959 45.0528 35.0313 45.0467C35.0401 45.0468 35.0439 45.1103 35.1317 45.0933C35.3346 45.0557 35.9462 44.9474 36.3329 44.8485C36.4977 44.8075 36.6215 44.7715 36.6578 44.7571C37.1052 44.5745 37.1362 44.4409 37.3927 44.3046C37.7277 44.1196 37.8208 44.1741 38.1319 43.9786C38.2771 43.8855 38.3457 43.7015 38.578 43.5693C38.7153 43.4901 38.7823 43.5602 38.8909 43.4942C39.2772 43.2566 39.4977 43.0054 39.8841 42.8386C39.7635 42.5396 40.0527 42.5845 40.2146 42.4636C40.8475 42 41.3853 41.1855 41.7822 40.6299C41.7994 40.6061 41.8165 40.5828 41.8335 40.56C43.1193 38.8156 43.8383 36.9097 44.0682 34.7895C44.1028 34.4436 43.9551 34.3518 43.9804 33.9932C43.9911 33.8322 44.1075 33.6678 44.1114 33.4019C44.1122 33.3538 44.1098 33.3009 44.1056 33.2446C44.0913 33.0496 44.0525 32.8181 44.0429 32.61C44.0395 32.5386 44.1432 32.527 44.1378 32.4208C44.0953 31.616 43.9053 30.8448 43.6696 30.0752C43.582 29.7904 43.6641 29.5768 43.4462 29.6882C43.4735 29.5639 43.4927 29.4437 43.518 29.3244C43.3639 29.1179 43.316 28.9096 43.2551 28.6667C43.2076 28.4906 43.1546 28.3038 43.0506 28.0978C43.0234 28.0415 42.7039 27.7276 42.7036 27.4632C42.6196 27.4862 42.571 27.5515 42.4985 27.5796C42.3683 27.3874 42.2846 27.0289 42.2128 26.8876C42.1423 26.7464 41.9923 26.715 41.9669 26.676C41.8704 26.5266 42.0149 26.4835 42.0098 26.4705C41.6622 25.691 41.6302 25.8051 41.1513 25.5468C41.058 25.4965 40.7677 25.0164 40.5131 24.825C40.444 24.7728 40.3815 24.7421 40.3303 24.7431C40.3739 24.687 40.4512 24.6756 40.5081 24.6372C40.3363 24.4436 40.1566 24.2533 39.971 24.0697C39.9688 24.1571 39.9737 24.2515 39.9655 24.3353C39.6104 23.9433 39.1655 23.8036 38.823 23.5579C38.6256 23.4178 38.7324 23.3106 38.5943 23.2585C38.5672 23.2486 38.5516 23.359 38.4778 23.3209C37.8738 23.0172 37.6695 22.7822 37.0632 22.4714C36.7757 22.329 36.4543 22.3894 36.0709 22.1218C36.0621 22.1156 36.0328 22.092 35.9882 22.0624C35.8615 21.97 35.5873 21.8203 35.3367 21.9241C35.2764 21.8268 35.2143 21.7667 35.1694 21.6879C34.534 21.8642 34.7854 21.5732 34.059 21.3193C33.6845 21.1791 32.3648 21.0313 31.9378 21.0357C31.6823 21.032 31.6755 21.1696 31.6299 21.1706C31.3602 21.1781 31.3707 21.0465 31.1203 21.05C30.87 21.0541 30.5495 21.1867 30.2966 21.1635C30.1025 21.1459 30.2612 20.9864 29.9712 21.0351C29.9113 21.046 30.0775 21.1892 29.7759 21.1276C29.7282 21.1172 29.2451 20.9609 29.1435 20.9293C29.3997 20.8394 30.1502 20.7396 30.4353 20.719C31.9621 20.6003 34.0437 20.6418 36.2524 21.387L36.2275 21.3778C37.9629 21.9053 39.6907 22.9135 41.0689 24.2661L41.0781 24.2754C42.3037 25.5009 43.1997 27.0004 43.7316 28.4875L43.7359 28.4996C44.2644 30.0164 44.4862 31.5081 44.5088 32.7425C44.5129 32.9311 44.4939 33.096 44.4675 33.2446C44.4224 33.4937 44.3585 33.6959 44.3438 33.8996C44.3189 34.2226 44.462 33.9536 44.4371 34.249C44.4099 34.5443 44.301 34.7522 44.2665 35.026C44.0342 36.8709 43.4626 38.7296 42.4604 40.3226C42.3387 40.5171 42.2434 40.7031 42.1475 40.8837C42.0413 41.0841 41.9354 41.2784 41.7913 41.463C41.6845 41.5988 41.5736 41.5159 41.498 41.6104C40.6794 42.6191 39.8413 43.5353 38.7225 44.228C38.2575 44.5147 37.6863 44.6905 37.1983 44.8998C36.9564 45.0039 36.7183 45.1316 36.4836 45.2445C36.328 45.3193 36.1756 45.3878 36.0274 45.4392C35.8261 45.5091 35.6872 45.4424 35.6121 45.4575C35.3505 45.5099 35.4762 45.6049 35.3453 45.644C34.9825 45.7488 34.7629 45.6459 34.4272 45.739C34.2952 45.7748 34.3345 45.8675 34.1425 45.9257C33.8983 45.998 33.9715 45.8892 33.7941 45.9219C33.7834 45.9237 33.8321 45.986 33.7384 46.0074C33.1366 46.1461 32.3809 46.3095 31.7895 46.363C30.773 46.4581 29.7668 46.4 28.8134 46.3528C28.6224 46.3432 28.4328 46.3356 28.2438 46.3305C27.9612 46.3227 28.0349 46.4148 27.9444 46.4185C27.5916 46.4299 27.4259 46.3629 27.1007 46.3263C27.0424 46.3185 26.9738 46.3151 26.8917 46.3187C26.824 46.3206 26.5393 46.4388 26.2574 46.4057C26.1056 46.3874 25.9306 46.3079 25.7988 46.2894C25.7762 46.2862 25.7568 46.287 25.7392 46.2906L26.3164 45.7134C26.3335 45.7971 26.4136 45.8342 26.4137 45.9654C26.4141 46.2542 26.333 46.1702 26.3475 46.5833C26.3532 46.7497 26.464 47.3052 26.4556 47.7336C26.4418 48.4336 26.3406 49.3011 26.339 50.1264C26.3382 50.4094 26.4584 50.773 26.4596 51.212C26.4612 51.7484 26.4339 52.7369 26.4322 53.2867C26.4314 53.5679 26.3055 53.5882 26.3003 53.6217C26.2653 53.8366 26.4059 53.7498 26.4004 53.894C26.3927 54.092 26.2889 54.2767 26.2821 54.4565C26.2777 54.5711 26.3814 54.5893 26.3822 54.6142C26.4083 55.3141 26.4089 55.9519 26.4127 56.6196L26.4063 56.5268C26.5052 57.0631 26.0794 57.666 25.5336 57.7566C25.514 57.7607 25.4945 57.7642 25.4747 57.7672L25.3759 57.7744C23.2449 57.8005 21.105 57.8403 18.9648 57.872C18.7594 57.8764 18.3416 57.8252 18.0516 57.4718C17.7851 57.1271 17.7909 56.8448 17.7817 56.6539C17.7462 54.1057 17.7256 51.5585 17.7567 49.0263C17.7615 48.6161 17.8922 48.6006 17.8717 48.2401C17.8515 47.8796 17.5692 47.5314 17.881 47.2349C17.818 47.2253 17.7732 47.2263 17.7159 47.2167C17.8046 46.4718 17.7128 45.7268 17.7015 44.9982C17.693 44.4589 17.7031 43.9807 17.7099 43.4825C17.7164 43.0409 17.826 43.0791 17.683 42.6967C17.7725 40.7966 17.7507 38.8761 17.8995 36.9922C17.6652 36.5504 17.8128 36.1269 17.8475 35.5159C17.8519 35.4404 17.7664 35.5214 17.7737 35.2977C17.7826 35.0167 17.9132 34.8713 17.906 34.3982C17.904 34.2729 17.7591 33.345 17.8333 33.0017C17.9075 32.6584 17.9511 32.1612 18.0221 31.8045C17.966 31.8552 17.9124 31.9194 17.8572 31.9758C17.8475 31.7979 17.8381 31.6191 17.8285 31.4412C17.8958 31.4154 17.9632 31.3895 18.031 31.3647C17.9669 31.2614 17.9035 31.1581 17.8386 31.0538C18.1846 30.8292 18.0717 31.0595 17.9842 30.5595C17.9407 30.3089 18.0011 30.11 17.966 29.8528C17.9531 29.7601 17.8513 29.7008 17.8382 29.5986C17.8068 29.3482 17.947 29.4941 17.9463 29.3394C17.9451 29.1835 17.791 28.9598 17.8596 28.6805C18.1342 28.972 18.0446 28.1295 17.8313 28.0893C17.8309 27.989 17.8397 27.9049 17.8337 27.7941C18.3725 27.8964 17.9902 27.3712 17.9164 27.1627C17.8427 26.9544 17.9874 26.9628 17.9818 26.9141C17.9661 26.7736 17.9059 26.8759 17.9039 26.7775C17.8918 26.1253 17.9802 25.5112 17.9883 24.8676C17.9894 24.7751 17.9076 24.8572 17.9156 24.7492C17.9237 24.6412 18.0051 24.5376 17.9995 24.3779C17.9981 24.3351 17.9262 24.3216 17.9261 24.2549C17.9281 23.3871 17.9524 22.5466 17.9728 21.6929C17.9801 21.5366 17.9836 21.3156 18.1813 21.0565C18.3918 20.789 18.7243 20.7307 18.898 20.7371C19.2346 20.7439 19.5689 20.7488 19.9081 20.7443C20.0349 20.7424 20.131 20.6128 20.3751 20.609C20.4733 20.6074 20.592 20.6224 20.7201 20.6402C20.9196 20.6666 21.1341 20.7033 21.3215 20.7037C21.4045 20.7039 21.4244 20.5969 21.5344 20.5972C21.9085 20.5982 22.2289 20.6796 22.6116 20.6841C22.8193 20.6865 23.0292 20.6788 23.2397 20.6673C23.6984 20.6424 24.1597 20.6181 24.609 20.6529C24.7345 20.6624 24.7161 20.7515 24.897 20.7734C25.2088 20.8109 25.0893 20.6835 25.1519 20.665C25.3563 20.605 25.4244 20.7757 25.622 20.7267C25.6522 20.7191 25.6064 20.6182 25.6336 20.6159C25.8737 20.5998 25.9859 20.6699 26.121 20.7067C26.2242 20.7342 26.3399 20.7431 26.5335 20.6832C26.9409 20.8109 26.2674 20.8739 26.2009 20.95C26.0386 21.1327 26.4892 21.3266 26.7509 21.3885C26.9766 21.4415 26.9728 21.3314 27.0624 21.3297C27.5359 21.3209 28.2425 21.297 28.6037 21.3493C28.8225 21.3805 28.4283 21.427 28.5401 21.4632C28.6509 21.4993 28.7225 21.4162 28.8362 21.5068C28.9499 21.5975 29.182 21.8646 29.138 21.992ZM18.8501 50.8038C18.4145 50.0751 18.46 48.1426 18.5016 47.1051C18.5363 46.2444 18.8719 45.5025 18.3855 45.6803C18.3823 46.6107 18.431 47.3632 18.4161 48.3471C18.4145 48.4495 18.3694 49.0597 18.3613 49.272C18.3569 49.3915 18.2765 49.3954 18.2773 49.5579C18.2777 49.5933 18.3827 49.7894 18.3799 49.8611C18.3706 50.1068 18.2094 50.8375 18.2141 50.9395C18.2278 51.2224 18.3527 51.1139 18.3754 51.236C18.4504 51.6462 18.2628 51.6914 18.3237 52.0978C18.3346 52.1705 18.4981 52.4115 18.4767 52.7127C18.4678 52.8352 18.3834 53.0436 18.3874 53.1373C18.4092 53.648 18.521 54.218 18.5024 54.6856C18.4871 55.0689 18.3609 54.9658 18.344 55.1685C18.3275 55.3713 18.4738 55.616 18.4823 55.7547C18.4956 55.9765 18.4125 56.2462 18.4137 56.315C18.4158 56.429 18.4183 56.5418 18.4213 56.6538C18.426 56.7829 18.4426 56.9345 18.5535 57.0659C18.6686 57.1993 18.8397 57.224 18.9648 57.2188C19.9267 57.1797 20.8416 57.1199 21.813 57.0942C20.9246 57.0365 20.0373 56.9836 19.1546 56.9239C19.0736 56.945 19.0122 56.9595 18.9648 56.9688C18.7738 56.9995 18.8379 56.9154 18.8051 56.8338C18.7953 56.7859 18.7453 56.7295 18.699 56.6538C18.6489 56.5594 18.5949 56.4566 18.6077 56.2778C18.6077 56.2781 18.6077 56.2784 18.6077 56.2787C18.6206 56.1017 18.7738 55.7183 18.7097 55.3415C18.7073 55.3281 18.5924 55.2946 18.5884 55.0125C18.5795 54.3785 18.5206 53.4071 18.5452 52.6937C18.5524 52.4843 18.6731 52.5269 18.688 52.2793C18.6988 52.0986 18.5872 51.8893 18.6122 51.6064C18.644 51.2517 18.8359 51.0815 18.5693 50.8376C18.6645 50.8175 18.7573 50.8277 18.8501 50.8038ZM18.6182 31.2078C18.6287 31.158 18.9263 30.4906 18.6085 30.6885C18.4706 31.5854 18.5391 32.5552 18.4617 33.4991C18.7758 33.1768 18.652 32.6316 18.629 31.9699C18.629 31.9696 18.629 31.9693 18.629 31.969C18.628 31.9377 18.7101 32.0684 18.6952 31.8908C18.6879 31.8047 18.5621 31.4746 18.6182 31.2078ZM29.355 26.933C29.6312 26.8196 29.9177 26.7763 30.2069 26.8359C30.2728 26.8495 30.2623 26.9315 30.2886 26.9462C30.3368 26.9733 30.4257 26.8899 30.4376 26.8907C30.5108 26.8945 30.472 27.0363 30.4814 27.0425C30.585 27.1088 30.5663 26.9428 30.6723 26.9359C30.8103 26.9272 30.9822 26.9748 31.1444 27.0045C31.2014 27.0154 31.1612 27.1202 31.285 27.1287C31.3716 27.134 31.6621 27.0559 31.7594 27.2119C31.7504 27.2615 31.7244 27.3132 31.7082 27.363C31.921 27.1911 31.9865 27.2131 32.2201 27.3222C32.2569 27.3396 32.3151 27.2651 32.3759 27.3139C32.4364 27.363 32.4046 27.4916 32.5398 27.5283C32.5878 27.5412 32.6434 27.4596 32.7186 27.4782C32.9343 27.5293 33.2882 27.7803 33.4499 27.8529C33.4761 27.8642 33.5017 27.8743 33.5268 27.8832L33.5127 27.8776C33.812 27.9801 34.0521 27.9514 34.297 28.1506C34.3171 28.1671 34.2168 28.2276 34.2561 28.2529C34.2952 28.2781 34.408 28.1874 34.4201 28.191C34.5508 28.228 34.6679 28.5307 34.7337 28.5539C34.9011 28.6129 34.8049 28.4616 35.0082 28.5895C35.2042 28.7147 35.3122 29.0583 35.4324 29.2388C35.571 29.4474 35.8236 29.3503 35.7309 29.6661C35.8505 29.8119 35.9624 29.9637 36.0667 30.1207L36.0795 30.1419C36.3205 30.5412 36.5154 30.9693 36.6628 31.4129C36.6111 31.427 36.5592 31.4408 36.5073 31.4547C36.5577 31.4919 36.6079 31.5302 36.6572 31.5696C36.6167 31.5731 36.5763 31.577 36.5362 31.5806C36.7491 31.7656 36.8787 31.9676 36.8838 32.2566C36.8839 32.2622 36.776 32.2651 36.774 32.2701C36.7644 32.3354 36.8561 32.3935 36.8443 32.4518C36.8175 32.594 36.6037 32.8375 36.8791 32.7134C36.8567 32.953 36.9089 33.2182 36.9014 33.4661L36.9017 33.4487C36.902 33.5271 36.8967 33.6021 36.8815 33.6737C36.8548 33.7984 36.684 33.8296 36.6718 33.8875C36.6594 33.946 36.8058 33.923 36.8103 33.9445C36.8369 34.0731 36.8134 34.2857 36.6492 34.2915C36.7115 34.3229 36.7742 34.3564 36.8365 34.3893C36.6608 34.3558 36.6874 34.7555 36.6623 34.8588C36.6583 34.8775 36.58 34.8667 36.5783 34.8808C36.5604 35.0385 36.6736 35.1012 36.6831 35.2477C36.686 35.299 36.5682 35.1936 36.5974 35.3291C36.5995 35.3411 36.724 35.3653 36.6832 35.514C36.6222 35.7491 36.5053 36.2224 36.3105 36.4637C36.2953 36.4831 36.2064 36.3571 36.1852 36.4691C36.1768 36.5097 36.2722 36.5375 36.2259 36.625C36.1002 36.8612 35.901 37.0656 35.726 37.2768L35.7183 37.286C35.6428 37.3731 35.573 37.4644 35.5153 37.5668C35.4455 37.4814 35.4444 37.304 35.3607 37.4923C35.3472 37.5226 35.4337 37.5735 35.4265 37.5862C35.3663 37.6891 35.2465 37.7096 35.1817 37.822C35.1625 37.8554 35.2079 37.9179 35.1856 37.9629C35.1524 38.0295 35.0572 37.9681 35.0277 38.0552C34.9811 38.1912 35.0285 38.2871 34.7804 38.2249C34.1958 38.7012 33.5217 39.1122 32.7674 39.2816L32.7887 39.275C32.6791 39.3039 32.5685 39.3292 32.4569 39.3504C32.2428 39.4757 32.0426 39.5976 31.8002 39.6789C31.7286 39.7025 31.6835 39.5709 31.578 39.6417C31.5551 39.6576 31.3981 39.8432 31.3155 39.5735C31.269 39.6076 31.2366 39.6148 31.1952 39.6379C31.2365 39.6719 31.2793 39.7059 31.3198 39.7402C31.1233 39.7337 30.9874 39.858 30.8251 39.9311C30.7057 39.9843 30.7759 39.8519 30.7017 39.8753C30.6275 39.8981 30.5956 39.93 30.4819 39.7999C30.429 39.9743 30.3638 39.8655 30.2261 39.8765C30.2114 39.8778 30.1324 39.9512 30.0592 39.9453C30.0065 39.9411 29.9818 39.8395 29.9017 39.8625C29.889 39.8663 29.7257 40.0079 29.6704 40.023C29.5846 40.0475 29.4402 39.922 29.4239 39.9211C29.1827 39.9086 29.0901 40.041 28.917 39.8272C28.9016 39.8867 28.8627 39.935 28.8134 39.9681C28.7591 40.0066 28.6922 40.0251 28.6329 40.0184C28.4934 40.0027 28.2137 39.7405 28.1755 40.0175C28.014 39.8942 28.0316 39.9703 27.8401 39.9727C27.6658 39.9752 27.2044 39.8692 27.0631 39.8845C27.0625 39.8845 27.062 39.8846 27.0614 39.8847C26.9125 39.8999 26.9837 40.0531 26.9228 40.0729C26.8227 40.1052 26.8788 39.9926 26.8116 39.9925C26.6223 39.9918 26.4606 40.0046 26.283 40.043C26.2787 39.9627 26.2739 39.882 26.2695 39.8018C26.2589 39.8277 26.2482 39.8537 26.2375 39.8797C26.2004 39.8764 26.1588 39.8752 26.1248 39.8704C26.3677 40.2079 25.9336 39.8912 25.7338 39.817L25.2727 39.8067L25.2464 39.2925C25.252 39.2728 25.2555 39.2553 25.2563 39.2407C25.2636 39.0988 25.0974 38.8627 25.0615 38.7069C25.0526 38.6691 25.1389 38.6951 25.1369 38.6873C25.1123 38.5961 25.0534 38.5823 25.0615 38.4597C25.0659 38.3948 25.1739 38.3286 25.176 38.2655C25.1905 37.8017 25.082 37.354 25.0703 36.8933C25.0682 36.8149 25.2001 36.7473 25.203 36.6814C25.207 36.5872 25.099 36.5277 25.0974 36.4393C25.0957 36.3511 25.2248 36.224 25.205 36.1642C25.1857 36.1044 25.0606 36.2068 25.0949 36.0973C25.1107 36.047 25.2038 36.1358 25.2066 36.0737C25.2155 35.8798 25.1002 35.6062 25.2119 35.3998C25.184 35.4089 25.159 35.4214 25.1324 35.4325C25.1433 35.2126 25.2102 35.0183 25.2199 34.7913C25.2235 34.7119 25.1418 34.5688 25.1422 34.4907C25.1426 34.4127 25.2313 34.3772 25.2337 34.3147C25.2349 34.2891 25.1554 34.2991 25.1571 34.2819C25.178 34.0664 25.3195 33.9482 25.3034 33.7225C25.2445 32.8959 25.1937 32.0435 25.1405 31.2041C25.1383 31.1703 25.0348 31.1476 25.0195 31.0983C24.9958 31.0223 25.0873 31.0186 25.0905 31.0085C25.1107 30.9423 25.0259 30.9693 25.0259 30.8805C25.0259 30.6849 25.101 30.3693 25.0946 30.1744C25.0796 29.7251 24.9989 29.3475 24.9582 28.907C24.955 28.8752 25.0776 28.8968 25.0792 28.8417C25.0921 28.4536 24.9747 28.3714 25.0078 27.8884C25.008 27.8845 25.0083 27.8805 25.0086 27.8765L24.977 27.2574L25.6613 27.1208C26.0857 27.0829 26.6479 27.118 27.1621 27.1742L27.0918 27.1743C27.3164 27.1752 27.5268 27.1792 27.7029 27.1802C27.7029 27.1805 27.7029 27.1808 27.7029 27.1811C27.8801 26.9501 28.1183 27.0033 28.3125 27.1732C27.9092 27.3795 27.5129 27.4823 27.1118 27.5454L27.1431 27.5453C26.6814 27.5711 26.2317 27.5408 25.73 27.5878L25.4686 27.64L25.4806 27.8765C25.4703 28.1339 25.4613 28.3956 25.4664 28.6638C25.4894 29.9015 25.8955 31.221 25.8403 32.4752C25.8351 32.5931 25.706 32.6405 25.733 32.7398C25.7376 32.7566 25.837 32.7131 25.8471 32.7648C25.9826 33.4742 25.7559 34.2305 25.8188 34.9271C25.8358 35.1149 25.9467 35.1444 25.9753 35.3096C25.9229 35.2805 25.8681 35.2615 25.8153 35.2362C25.6515 35.9902 25.7245 36.7453 25.7011 37.5091C25.6999 37.5435 25.5914 37.5479 25.5874 37.5841C25.5789 37.6564 25.6983 37.7256 25.7024 37.7887C25.7076 37.8712 25.6213 37.8854 25.6269 37.9614C25.6298 37.9985 25.7128 37.9875 25.6987 38.0681C25.6975 38.0749 25.6104 38.0793 25.6217 38.1329C25.6527 38.2799 25.7257 38.5802 25.7475 38.7018C25.7753 38.8572 25.6442 38.9819 25.6357 39.0407C25.6151 39.1828 25.7206 39.195 25.7429 39.2925L25.7444 39.3213L25.7702 39.3218C25.7818 39.3201 25.7944 39.3195 25.8084 39.3205C26.2304 39.3508 26.6408 39.4138 27.0614 39.4476C27.5862 39.4894 28.1125 39.5366 28.6589 39.536C28.6861 39.5359 28.7456 39.5068 28.8134 39.4748C28.9001 39.4343 28.9987 39.3879 29.0625 39.3899C29.1006 39.392 29.3022 39.425 29.3325 39.4266C29.4547 39.434 29.5657 39.5178 29.635 39.5322C29.7697 39.5606 29.9047 39.4072 29.9736 39.3864C30.0954 39.3503 30.3171 39.3429 30.3696 39.3395C30.496 39.3319 30.4783 39.5103 30.5636 39.4572C30.5887 39.4413 30.5419 39.3131 30.6353 39.2992C30.7134 39.2878 30.7609 39.3822 30.8178 39.3913C30.875 39.4003 30.9466 39.2296 30.98 39.2275C31.1566 39.2173 31.2536 39.3024 31.4442 39.2666C31.6046 39.2423 32.3028 38.9811 32.3479 38.9232C32.5603 38.6862 32.1486 38.8899 32.1218 38.8898C31.98 38.8967 31.9841 38.8304 31.8817 38.9819C31.6746 38.6553 31.3878 39.3138 31.1886 38.9037C31.1365 39.2131 31.0118 39.0865 30.8857 39.0488C30.7105 38.9963 30.8622 39.1437 30.7436 39.1644C30.6963 39.1726 30.5411 39.0617 30.4741 39.0895C30.4068 39.1176 30.3905 39.2228 30.2961 39.2402C30.1278 39.2713 29.9847 39.2378 29.8331 39.1281C29.8119 39.1842 29.792 39.24 29.7704 39.2959C29.667 39.2458 29.5646 39.1948 29.4639 39.1425C29.4821 39.1887 29.5005 39.2354 29.519 39.2816C29.4905 39.2901 29.4619 39.2981 29.4333 39.3061C29.3335 39.2401 29.2398 39.178 29.1405 39.1073C28.8854 39.3813 28.9496 39.1557 28.8134 39.115C28.8109 39.1143 28.8084 39.1136 28.8058 39.113C28.6558 39.0775 28.569 39.2355 28.4532 39.2364C28.2971 39.2376 28.2255 39.2573 28.0681 39.246C27.9769 39.2396 27.8221 39.0871 27.9491 39.3287C27.6795 39.347 27.3156 39.4084 27.0614 39.3317C27.0473 39.3274 27.0334 39.3226 27.02 39.3173C26.9457 39.2882 27.0455 39.2129 27.0327 39.2033C26.9708 39.1582 26.9162 39.2807 26.8511 39.2613C26.7432 39.2295 26.5379 39.1234 26.4546 39.0956C26.3349 39.056 26.1305 39.2017 26.1096 39.2119C25.994 39.2687 25.9739 39.1342 25.9376 39.1407C25.8708 39.153 25.8204 39.1668 25.7814 39.1703L25.8949 39.2925C25.8817 39.2114 25.9173 39.1767 26.1068 39.1333C25.9858 39.0806 25.7822 38.8596 25.9858 38.8063C25.8019 38.8049 25.8329 38.6215 25.787 38.5087C25.8402 38.4877 25.8931 38.4664 25.9467 38.4455C25.6177 38.21 25.8567 37.7412 25.8958 37.4314C25.8967 37.4236 25.7588 37.4097 25.7899 37.3631C25.7924 37.3602 25.8544 37.365 25.8624 37.3337C25.8882 37.2307 26.0429 36.8375 26.0443 36.7923C26.0495 36.6257 25.9467 36.5966 25.937 36.4953C25.9241 36.3619 26.0169 36.3426 26.0036 36.2156C25.9976 36.1562 25.8754 36.1021 25.8927 36.0086C25.9027 35.9532 25.9987 35.9477 26.0064 35.9038C26.0343 35.7478 25.9737 35.6332 26.0987 35.4947C25.7935 35.4585 26.0185 35.3923 26.0415 35.3237C26.1354 35.0454 26.0065 34.6985 26.0343 34.4596C26.1218 33.7145 26.31 33.0537 26.3524 32.3257C26.3593 32.2075 26.206 32.179 26.2157 32.055C26.2202 31.9993 26.3311 31.9418 26.3327 31.8506C26.3343 31.7773 26.2779 31.6723 26.2783 31.5808C26.2783 31.5565 26.3824 31.5543 26.3832 31.5185C26.3892 31.247 26.3153 30.9818 26.2645 30.7075C26.2456 30.6058 26.3835 30.5429 26.1435 30.5602C26.2024 30.5213 26.2537 30.4836 26.3118 30.4471C26.1605 30.3072 26.3181 30.193 26.2794 30.0038C26.2748 29.9834 26.1089 29.8406 26.2286 29.7596C26.1431 29.7538 26.0706 29.7664 25.9931 29.764C25.9605 29.684 26.0592 29.561 26.0693 29.5069C26.0794 29.453 25.9683 29.4168 25.9673 29.4006C25.9644 29.3388 26.1105 29.3532 26.1129 29.3484C26.2528 29.0603 26.175 29.0907 25.956 28.9167C25.9008 28.8731 26.0612 28.5773 25.8883 28.5175C25.9588 28.5148 26.0209 28.5313 26.0882 28.536C26.1064 28.4472 26.125 28.3576 26.1432 28.2685C26.0754 28.2874 26.0076 28.3101 25.9394 28.3273C25.9942 28.1581 25.8601 28.0154 25.8451 27.8765L25.783 27.9484C25.7925 27.9458 25.8032 27.9439 25.813 27.9429C25.8964 27.9354 25.9026 28.0859 25.9465 28.0485C25.9552 28.0411 25.929 27.942 25.9567 27.9312C26.1846 27.8455 26.2953 27.9489 26.5276 27.9658C26.636 27.9747 26.7359 27.7913 26.8918 27.9168C26.9047 27.9271 27.0222 28.0614 27.1233 27.9305C27.1434 27.913 27.1535 27.8915 27.1628 27.8652C27.1975 27.9373 27.2258 27.9747 27.2516 28.0357C27.4302 27.6805 27.3926 28.0221 27.6552 28.0952C27.7911 28.1326 28.2471 28.0656 28.3957 28.0281C28.484 28.0049 28.4816 27.8685 28.4974 27.8629C28.5918 27.831 28.5923 27.9633 28.6797 27.9413C28.767 27.9193 28.8773 27.7695 28.9672 27.7831C29.036 27.7936 28.9818 27.958 29.0834 27.9007C29.1045 27.8883 29.0442 27.7488 29.1515 27.8035C29.1684 27.812 29.3396 27.9629 29.3749 27.9955C29.2846 28.083 29.0233 28.1972 28.9253 28.2329C28.4436 28.4099 27.8172 28.5327 27.1717 28.6543L27.0862 28.6544C26.6885 28.6896 26.2363 28.7312 25.9089 28.8053L26.7112 27.8765C26.7968 29.2482 26.7795 30.6676 26.7384 31.6315C26.7315 31.7993 26.5879 31.9091 26.5754 32.0186C26.5629 32.128 26.6945 32.0355 26.6836 32.1348C26.6723 32.2341 26.5795 32.3065 26.5714 32.3994C26.5166 33.0256 26.4585 33.6566 26.4331 34.2778C26.4266 34.439 26.5336 34.5678 26.5336 34.7144C26.5335 34.7714 26.3956 34.7732 26.3968 34.8137C26.4077 35.2505 26.5404 35.6545 26.5243 36.0889C26.5174 36.2693 26.4013 36.4642 26.3904 36.6429C26.3811 36.7902 26.4605 36.9428 26.4621 37.0752C26.4634 37.1471 26.3584 37.185 26.3501 37.211C26.3227 37.3016 26.4509 37.2699 26.4509 37.3162C26.4505 37.4439 26.2956 37.5074 26.3077 37.627C26.3126 37.6739 26.4112 37.6678 26.4266 37.736C26.446 37.8225 26.3549 37.7905 26.3517 37.8522C26.3513 37.856 26.4218 37.8438 26.4247 37.8766C26.4432 38.0874 26.4988 38.3506 26.494 38.5539C26.4883 38.8033 26.4382 39.0507 26.3927 39.2925L25.8179 38.6738C25.9818 38.7171 26.1413 38.7581 26.2968 38.7793C26.3931 38.7922 26.3732 38.6986 26.404 38.6961C26.5513 38.6841 26.5976 38.797 26.7499 38.7636C26.7755 38.7582 26.8789 38.6345 26.9703 38.6679C26.9997 38.6786 27.0315 38.711 27.0614 38.7393C27.084 38.7587 27.1055 38.7763 27.1245 38.7839C27.1711 38.8024 27.1786 38.6854 27.2346 38.6854C27.3366 38.685 27.3069 38.766 27.4529 38.7515C27.5116 38.7459 27.7079 38.635 27.8592 38.6435C28.1065 38.6572 28.413 38.7585 28.7045 38.7601C28.7377 38.7603 28.774 38.7473 28.8134 38.7296C28.8887 38.6942 28.9744 38.6395 29.0718 38.6365C29.2498 38.632 29.5798 38.6422 29.7626 38.6276C29.8559 38.6206 29.8742 38.745 29.886 38.7493C29.9615 38.7774 29.9189 38.6401 29.9673 38.6409C30.0337 38.6419 30.1066 38.7383 30.1678 38.7381C30.2068 38.7379 30.2005 38.6342 30.2086 38.6324C30.5096 38.5609 30.7784 38.5273 31.0752 38.4564C31.5191 38.35 31.9551 38.2112 32.3791 38.0463L32.4076 38.0374C33.2974 37.7278 34.0622 37.1289 34.6978 36.4125L34.6857 36.427C34.7629 36.3364 34.8358 36.2419 34.9047 36.1433C34.9693 36.049 35.0845 36.1103 35.118 36.0074C35.1526 35.9009 34.9371 35.6971 35.2566 35.7448C35.2001 35.7169 35.1589 35.6992 35.1075 35.6738C35.2749 35.5121 35.2596 35.2687 35.3015 35.0585C35.333 34.901 35.3714 34.7615 35.4029 34.6116C35.4302 34.4794 35.5371 34.5038 35.4102 34.3681C35.4916 34.0757 35.5246 33.7645 35.5496 33.4487L35.55 33.4237C35.5831 33.1408 35.5991 32.8554 35.6304 32.5599C35.3788 32.4594 35.5036 32.314 35.4935 32.1197C35.4923 32.0961 35.4152 32.1401 35.4058 32.0724C35.3932 31.988 35.5084 31.9095 35.4577 31.7695C35.4452 31.7299 35.2155 31.5098 35.2426 31.3868C35.2715 31.2607 35.2469 31.1004 35.2591 30.9671C35.2162 31.0066 35.1771 31.0484 35.135 31.0883C35.1023 31.0431 35.069 30.9981 35.0349 30.9543C35.0908 30.9158 35.1465 30.877 35.2025 30.8381C35.1304 30.8392 35.0593 30.8411 34.9869 30.8448C35.1722 30.6852 35.1981 30.6916 35.1457 30.6801L35.1572 30.6991C35.1337 30.6951 35.0946 30.688 35.0455 30.6626C34.9659 30.6214 34.98 30.5359 34.9038 30.4912C34.8762 30.4753 34.7836 30.5216 34.7546 30.5049C34.6835 30.4638 34.8214 30.4132 34.7913 30.3758C34.7597 30.3378 34.5984 30.3829 34.5956 30.2749C34.8644 30.165 34.6182 30.0205 34.4548 30.1611C34.4339 30.1394 34.4227 30.1149 34.3951 30.0953C34.8032 29.7414 34.4103 29.8883 34.3156 29.9025C34.2192 29.9137 34.3183 29.8086 34.3032 29.8025C34.2602 29.7852 34.2439 29.8512 34.22 29.8328C34.064 29.7118 33.9685 29.5279 33.8051 29.4111C33.7818 29.3946 33.7584 29.4769 33.7352 29.4524C33.7121 29.428 33.7282 29.3419 33.6827 29.321C33.6705 29.3154 33.6301 29.375 33.6127 29.3647C33.4279 29.2541 33.2461 29.1476 33.0538 29.0542L33.0408 29.049C32.8429 28.9484 32.6385 28.8549 32.4186 28.7801C32.378 28.7664 32.3085 28.8784 32.2324 28.8511C32.1565 28.8238 32.0678 28.6794 31.9701 28.6454C31.9443 28.6363 31.9112 28.7377 31.8774 28.7264C31.7623 28.6882 31.6786 28.5805 31.5557 28.5411C31.3475 28.4747 31.1143 28.5025 30.9041 28.4127C30.864 28.396 30.8815 28.3086 30.8236 28.2766C30.7233 28.2219 30.7489 28.3552 30.7259 28.3701C30.6516 28.4186 30.6467 28.2453 30.5751 28.2832C30.5642 28.2891 30.5697 28.392 30.5605 28.3928C30.4184 28.3985 30.4271 28.1593 30.2662 28.2778C30.1374 28.1329 30.3684 28.0989 30.398 28.0284C30.4696 27.8556 30.3274 27.6363 30.235 27.5648C30.1561 27.5032 30.1516 27.6137 30.1194 27.6124C29.9482 27.6051 29.6943 27.6233 29.5637 27.5725C29.4843 27.5418 29.6267 27.4945 29.586 27.4586C29.5452 27.4226 29.5202 27.5059 29.4774 27.4158C29.435 27.3256 29.342 27.0608 29.355 26.933ZM35.4184 37.2663C35.393 37.1793 35.3866 37.093 35.3938 37.0082C35.4256 36.6155 35.6979 36.2197 35.843 35.9524C35.9909 35.6965 36.3843 35.5319 35.9012 35.4523C35.8045 35.7524 35.7534 36.011 35.579 36.2989C35.5616 36.3298 35.4171 36.4837 35.37 36.5367C35.3439 36.5675 35.2771 36.5232 35.2473 36.567C35.2414 36.5764 35.2883 36.6906 35.2712 36.7085C35.2485 36.7327 35.1907 36.7624 35.1283 36.7885C35.0348 36.8239 34.9275 36.8568 34.9157 36.8737C34.8618 36.9524 34.9775 37.011 34.9654 37.057C34.9217 37.2112 34.7775 37.0903 34.7217 37.2293C34.7119 37.2538 34.7639 37.4304 34.6707 37.4851C34.6329 37.5072 34.5233 37.4907 34.5016 37.5143C34.3838 37.6438 34.2944 37.8539 34.1489 37.9331C34.03 37.9969 33.9889 37.8715 33.9223 37.8956C33.8566 37.9193 33.8636 38.0875 33.8261 38.1201C33.7666 38.1719 33.644 38.1459 33.6243 38.1582C33.2842 38.3716 32.9734 38.5826 32.6087 38.733C32.5518 38.759 32.4945 38.7837 32.436 38.8071C32.4988 38.7993 32.5615 38.7908 32.6242 38.7816C32.8787 38.755 33.1346 38.7064 33.3892 38.6425C33.4987 38.4471 33.4681 38.597 33.595 38.5797C33.6957 38.5645 33.6127 38.3585 33.7304 38.3211C33.7303 38.3212 33.7302 38.3212 33.7301 38.3213C33.7902 38.3026 33.9896 38.3641 34.071 38.2352C34.0737 38.2304 34.0222 38.1278 34.1028 38.069C34.2864 37.9369 34.5202 37.6816 34.7214 37.5317C34.7809 37.4877 34.8512 37.5871 34.9267 37.537C34.9818 37.4999 34.958 37.3682 35.0459 37.3145C35.156 37.2479 35.3405 37.3308 35.2019 37.087C35.2773 37.1456 35.3437 37.2106 35.4184 37.2663ZM35.6938 30.5122C35.6943 30.5019 35.732 30.4054 35.735 30.3404C35.7314 30.271 35.7027 30.2413 35.5911 30.356C35.5945 30.3762 35.5985 30.3961 35.6029 30.4157C35.6594 30.7291 35.8462 30.9921 35.8869 31.3089C36.1415 31.0927 35.9514 30.9486 35.8282 30.7488C35.8282 30.7487 35.8281 30.7486 35.8281 30.7485C35.8222 30.7388 35.9167 30.7452 35.8751 30.6942C35.8547 30.6686 35.69 30.6215 35.6938 30.5122Z" fill="#FFD170"/>
</svg>
