<svg width="106" height="80" viewBox="0 0 106 80" fill="none" xmlns="http://www.w3.org/2000/svg">
<path fill-rule="evenodd" clip-rule="evenodd" d="M52.9754 69.4425C23.8776 69.4425 0.289062 53.984 0.289062 34.9151C0.289062 15.8461 23.8776 0.387695 52.9754 0.387695C82.0733 0.387695 105.662 15.8461 105.662 34.9151C105.662 53.984 82.0733 69.4425 52.9754 69.4425ZM61.04 13.8867C38.9231 13.8867 20.9938 24.4548 20.9938 37.4911C20.9938 50.5274 38.9231 61.0955 61.04 61.0955C83.1567 61.0955 99.4786 53.8704 99.4786 37.4911C99.4786 21.117 83.1567 13.8867 61.04 13.8867Z" fill="#D17D54"/>
<path fill-rule="evenodd" clip-rule="evenodd" d="M80.5276 53.8568C80.5276 53.8568 83.7164 54.7984 85.5691 55.7157C86.2119 56.034 87.3241 56.6691 88.1263 57.503C88.9122 58.3198 89.2954 59.1474 89.2954 59.1474L101.862 79.8808L81.5505 79.8897L72.0521 62.4361C72.0521 62.4361 70.1072 59.1661 68.9104 58.218C67.912 57.4271 67.4863 57.1455 66.4992 57.1455C65.8121 57.1455 61.6732 57.1455 61.6732 57.1455L61.677 79.8771L43.7031 79.8845V21.8184H79.797C79.797 21.8184 96.2365 22.1085 96.2365 37.413C96.2365 52.7176 80.5276 53.8568 80.5276 53.8568ZM72.7097 34.4137L61.8285 34.4068L61.8231 44.2802L72.7097 44.2768C72.7097 44.2768 77.7512 44.2615 77.7512 39.2543C77.7512 34.1465 72.7097 34.4137 72.7097 34.4137Z" fill="#FCAB4D"/>
</svg>
