<svg width="120" height="37" viewBox="0 0 120 37" fill="none" xmlns="http://www.w3.org/2000/svg">
<path d="M32.937 23.2766C30.9972 23.2766 29.1797 22.4463 27.5283 21.0949L27.9302 19.1871L27.9477 19.1164C28.3059 17.085 29.4419 13.6756 32.937 13.6756C35.5584 13.6756 37.6905 15.8307 37.6905 18.4805C37.6817 21.1214 35.5497 23.2766 32.937 23.2766ZM32.937 8.80888C28.472 8.80888 25.0118 11.7413 23.605 16.5638C21.4554 13.3046 19.8302 9.39182 18.8777 6.09729H14.0719V18.7366C14.0719 21.2274 12.0622 23.2589 9.59808 23.2589C7.13399 23.2589 5.12427 21.2274 5.12427 18.7366V6.09729H0.318414V18.7366C0.300938 23.9125 4.46892 28.1609 9.58934 28.1609C14.7098 28.1609 18.8777 23.9125 18.8777 18.7366V16.6168C19.8127 18.5865 20.9574 20.5738 22.3467 22.3403L19.402 36.331H24.3215L26.4535 26.1825C28.3234 27.3925 30.4729 28.1521 32.937 28.1521C38.206 28.1521 42.4963 23.7888 42.4963 18.4628C42.4963 13.1456 38.206 8.80888 32.937 8.80888Z" fill="#FFF191"/>
<path d="M57.1669 9.35637L60.2689 21.9957L63.6854 9.35637H67.7573L62.5058 27.622H58.4339L55.2096 14.9032L51.9941 27.6132H47.9222L42.6707 9.34753H46.7426L50.1591 21.9869L53.2611 9.34753H57.1669V9.35637ZM77.5 8.80875C72.2136 8.80875 67.932 13.1455 67.932 18.4804C67.932 23.824 72.2224 28.152 77.5 28.152C82.7865 28.152 87.0768 23.824 87.0768 18.4804C87.0768 13.1367 82.7865 8.80875 77.5 8.80875ZM77.5 24.1773C74.3894 24.1773 71.8728 21.6336 71.8728 18.4892C71.8728 15.3448 74.3981 12.8011 77.5 12.8011C80.6107 12.8011 83.1273 15.3448 83.1273 18.4892C83.1273 21.6247 80.6107 24.1773 77.5 24.1773ZM98.707 13.4458C95.972 13.4458 93.7613 15.6893 93.7613 18.445V27.6132H89.6632V9.35637H93.7613V12.1651C93.7613 12.1651 95.5089 9.34753 99.1002 9.34753H100.358V13.4458H98.707ZM112.46 17.7738C115.37 16.1132 117.345 12.96 117.345 9.34753H113.247C113.247 12.3948 110.8 14.8679 107.786 14.8679H107.235V0.541504H103.137V27.6132H107.235V19.0103H107.724C108.126 19.0103 108.651 19.2753 108.887 19.6021L114.706 27.6132H119.617L112.46 17.7738Z" fill="#FFF191"/>
</svg>
