<svg width="120" height="36" viewBox="0 0 120 36" fill="none" xmlns="http://www.w3.org/2000/svg">
<path d="M32.6187 22.7351C30.6789 22.7351 28.8614 21.9048 27.2099 20.5534L27.6119 18.6456L27.6293 18.5749C27.9876 16.5435 29.1235 13.1341 32.6187 13.1341C35.2401 13.1341 37.3721 15.2892 37.3721 17.939C37.3634 20.5799 35.2313 22.7351 32.6187 22.7351ZM32.6187 8.26737C28.1536 8.26737 24.6934 11.1998 23.2866 16.0223C21.1371 12.7631 19.5118 8.85032 18.5594 5.55579H13.7535V18.1951C13.7535 20.6859 11.7438 22.7174 9.27972 22.7174C6.81563 22.7174 4.80591 20.6859 4.80591 18.1951V5.55579H5.47554e-05V18.1951C-0.0174211 23.371 4.15056 27.6194 9.27098 27.6194C14.3914 27.6194 18.5594 23.371 18.5594 18.1951V16.0753C19.4943 18.045 20.639 20.0323 22.0283 21.7988L19.0837 35.7895H24.0031L26.1352 25.641C28.0051 26.851 30.1546 27.6106 32.6187 27.6106C37.8876 27.6106 42.178 23.2473 42.178 17.9213C42.178 12.6041 37.8876 8.26737 32.6187 8.26737Z" fill="#EA3624"/>
<path d="M56.8486 8.81486L59.9505 21.4542L63.3671 8.81486H67.4389L62.1874 27.0805H58.1156L54.8913 14.3617L51.6757 27.0717H47.6039L42.3524 8.80603H46.4242L49.8408 21.4454L52.9427 8.80603H56.8486V8.81486ZM77.1817 8.26724C71.8952 8.26724 67.6137 12.604 67.6137 17.9389C67.6137 23.2825 71.904 27.6105 77.1817 27.6105C82.4681 27.6105 86.7584 23.2825 86.7584 17.9389C86.7584 12.5952 82.4681 8.26724 77.1817 8.26724ZM77.1817 23.6358C74.071 23.6358 71.5545 21.0921 71.5545 17.9477C71.5545 14.8033 74.0797 12.2595 77.1817 12.2595C80.2924 12.2595 82.8089 14.8033 82.8089 17.9477C82.8089 21.0832 80.2924 23.6358 77.1817 23.6358ZM98.3886 12.9043C95.6536 12.9043 93.4429 15.1478 93.4429 17.9035V27.0717H89.3449V8.81486H93.4429V11.6236C93.4429 11.6236 95.1905 8.80603 98.7818 8.80603H100.04V12.9043H98.3886ZM112.142 17.2323C115.052 15.5717 117.027 12.4185 117.027 8.80603H112.928C112.928 11.8533 110.482 14.3264 107.467 14.3264H106.917V0H102.819V27.0717H106.917V18.4688H107.406C107.808 18.4688 108.332 18.7338 108.568 19.0606L114.388 27.0717H119.298L112.142 17.2323Z" fill="#EA3624"/>
</svg>
