<svg width="41" height="40" viewBox="0 0 41 40" xmlns="http://www.w3.org/2000/svg">
<path fill-rule="evenodd" clip-rule="evenodd" d="M20.3315 0.0927734C9.31443 0.0927734 0.408203 9.21669 0.408203 20.5042C0.408203 29.5269 6.11473 37.1645 14.0312 39.8677C15.0209 40.0709 15.3835 39.4285 15.3835 38.8881C15.3835 38.4149 15.3509 36.7929 15.3509 35.1029C9.80869 36.3197 8.65458 32.6697 8.65458 32.6697C7.76392 30.3041 6.44424 29.6961 6.44424 29.6961C4.63029 28.4458 6.57637 28.4458 6.57637 28.4458C8.58852 28.581 9.64435 30.5409 9.64435 30.5409C11.4253 33.6497 14.295 32.7713 15.4496 32.2305C15.6143 30.9125 16.1424 30.0001 16.7032 29.4933C12.2829 29.0201 7.6322 27.263 7.6322 19.4226C7.6322 17.1922 8.42335 15.3675 9.67697 13.9483C9.47918 13.4415 8.78631 11.3459 9.87517 8.54111C9.87517 8.54111 11.5574 8.00031 15.3505 10.6363C16.9744 10.1895 18.6492 9.9622 20.3315 9.96029C22.0137 9.96029 23.7286 10.1971 25.3121 10.6363C29.1056 8.00031 30.7878 8.54111 30.7878 8.54111C31.8767 11.3459 31.1834 13.4415 30.9856 13.9483C32.2722 15.3675 33.0308 17.1922 33.0308 19.4226C33.0308 27.263 28.3801 28.9861 23.9268 29.4933C24.6527 30.1353 25.2791 31.3517 25.2791 33.2781C25.2791 36.0153 25.2464 38.2121 25.2464 38.8877C25.2464 39.4285 25.6094 40.0709 26.5988 39.8681C34.5152 37.1641 40.2217 29.5269 40.2217 20.5042C40.2544 9.21669 31.3155 0.0927734 20.3315 0.0927734Z" fill="#F8E2A5"/>
</svg>
