<svg width="41" height="40" viewBox="0 0 41 40" fill="none" xmlns="http://www.w3.org/2000/svg">
<path fill-rule="evenodd" clip-rule="evenodd" d="M36.1618 39.9508H5.12691C2.67833 39.9508 0.693359 37.9659 0.693359 35.5173V4.48238C0.693359 2.0338 2.67833 0.0488281 5.12691 0.0488281H36.1618C38.6104 0.0488281 40.5954 2.0338 40.5954 4.48238V35.5173C40.5954 37.9659 38.6104 39.9508 36.1618 39.9508ZM29.1321 34.4089H35.0533V22.245C35.0533 17.0983 32.1359 14.6099 28.0608 14.6099C23.9839 14.6099 22.2681 17.7847 22.2681 17.7847V15.1968H16.5617V34.4089H22.2681V24.3237C22.2681 21.6215 23.512 20.0134 25.8929 20.0134C28.0815 20.0134 29.1321 21.5586 29.1321 24.3237V34.4089ZM6.23523 9.13597C6.23523 11.0937 7.81028 12.6812 9.754 12.6812C11.6977 12.6812 13.2718 11.0937 13.2718 9.13597C13.2718 7.17819 11.6977 5.59078 9.754 5.59078C7.81028 5.59078 6.23523 7.17819 6.23523 9.13597ZM12.7578 34.4089H6.80746V15.1968H12.7578V34.4089Z" fill="#F8E2A5"/>
</svg>
