<svg width="41" height="34" viewBox="0 0 41 34" fill="none" xmlns="http://www.w3.org/2000/svg">
<path d="M11.4147 29.3394C9.59394 29.3394 7.77322 27.8998 6.86286 27.2828C2.31106 24.4035 0.945517 23.3752 0.0351562 22.7582V31.396C0.0351562 32.5316 1.05433 33.4526 2.31106 33.4526H20.5183C21.775 33.4526 22.7942 32.5316 22.7942 31.396V22.7582C21.8838 23.3752 20.5183 24.4035 15.9665 27.2828C15.0561 27.8998 13.2354 29.3394 11.4147 29.3394ZM20.5183 16.9997H2.31106C1.05433 16.9997 0.0351562 17.9207 0.0351562 19.0564V20.0847C1.85588 21.3186 1.62829 21.3186 8.2284 25.6375C8.91117 26.0488 10.2767 27.2828 11.4147 27.2828C12.5526 27.2828 13.9182 26.0488 14.6009 25.8432C21.201 21.5243 20.9734 21.5243 22.7942 20.2903V19.0564C22.7942 17.9207 21.775 16.9997 20.5183 16.9997ZM38.7255 10.8299H15.9665C14.7097 10.8299 13.6906 11.7509 13.6906 12.8865V14.9431H20.5183C22.8802 14.9431 24.8275 16.5769 25.0494 18.6592L25.0701 18.645V27.2828H38.7255C39.9822 27.2828 41.0014 26.3618 41.0014 25.2262V12.8865C41.0014 11.7509 39.9822 10.8299 38.7255 10.8299ZM36.4496 19.0564H31.8978V14.9431H36.4496V19.0564ZM11.4147 12.8865C11.4147 10.6185 13.4566 8.77331 15.9665 8.77331H31.8978V2.60348C31.8978 1.46785 30.8786 0.546875 29.6219 0.546875H6.86286C5.60614 0.546875 4.58696 1.46785 4.58696 2.60348V14.9431H11.4147V12.8865Z" fill="#F8E2A5"/>
</svg>
