<svg class="navImg" width="30" height="29" viewBox="0 0 30 29" fill="#F8E2A5"
                        xmlns="http://www.w3.org/2000/svg">
                        <path
                            d="M0.962891 3.645V28.9585H14.6502V21.206L10.3377 16.2737C10.3377 15.9443 10.3377 14.7186 10.3377 13.9015L15.5876 19.898L20.8376 13.9015V16.2737L16.5251 21.2043V28.9585H25.765C26.7456 28.9585 27.6861 28.6162 28.3795 28.007C29.0729 27.3978 29.4624 26.5715 29.4624 25.7099V0.458984H4.58908C3.62735 0.458984 2.70502 0.794653 2.02498 1.39215C1.34494 1.98964 0.962891 2.80002 0.962891 3.645ZM24.9044 28.1348H23.7438C23.6936 28.1349 23.6443 28.1235 23.6006 28.1019C23.5569 28.0802 23.5203 28.049 23.4944 28.0113C22.945 27.209 21.8613 25.275 21.1169 21.7249C20.9913 21.1203 21.9494 20.1105 22.9019 17.6905C23.2482 16.7884 23.762 15.9429 24.4225 15.1881C24.4476 15.1553 24.481 15.128 24.52 15.1083C24.559 15.0886 24.6026 15.077 24.6475 15.0745C24.6681 15.0763 24.6888 15.0763 24.7094 15.0745C24.7829 15.0515 24.8514 15.0175 24.9119 14.974C24.97 14.941 25.015 14.8965 25.0731 14.862C25.1133 14.8446 25.1554 14.8308 25.1987 14.8208C25.2963 14.88 25.4006 14.9302 25.51 14.9707C25.6443 15.0016 25.7809 15.0247 25.9187 15.0399L25.9675 14.9591L26.065 15.025L26.275 14.9344C26.2679 14.9047 26.2647 14.8742 26.2656 14.8438C26.2048 14.8617 26.1419 14.8734 26.0781 14.8784C26.0781 14.8784 26.0593 14.8784 26.0518 14.8784C26.0443 14.8784 26.0256 14.8603 26.0331 14.8455C26.0406 14.8307 26.0537 14.8455 26.065 14.8455C26.0762 14.8455 26.1137 14.8554 26.1175 14.8257C26.1212 14.7961 26.0987 14.7911 26.0762 14.7845C26.0611 14.782 26.047 14.7762 26.0351 14.7675C26.0233 14.7589 26.0142 14.7477 26.0087 14.7351C26.0087 14.7351 25.99 14.717 25.9806 14.7055C25.9675 14.7236 25.9581 14.74 25.9581 14.74L25.855 14.689C25.8577 14.675 25.8659 14.6624 25.8783 14.6533C25.8907 14.6442 25.9064 14.6394 25.9225 14.6396C25.9768 14.6396 26.0012 14.6807 26.0068 14.7252C26.0068 14.7252 26.0068 14.7252 26.0068 14.7351C26.0725 14.7911 26.1118 14.7895 26.155 14.7351C26.1876 14.7392 26.2173 14.7537 26.2385 14.7759C26.2596 14.7981 26.2706 14.8264 26.2693 14.8554H26.29C26.3118 14.8461 26.3287 14.8298 26.3374 14.8099C26.3461 14.7901 26.3459 14.768 26.3368 14.7483C26.3263 14.7269 26.3251 14.7028 26.3334 14.6807C26.3417 14.6585 26.3589 14.6398 26.3818 14.628C26.3992 14.6206 26.4125 14.6074 26.4188 14.5913C26.4252 14.5753 26.424 14.5577 26.4156 14.5424C26.4074 14.526 26.4069 14.5074 26.4143 14.4907C26.4217 14.474 26.4363 14.4606 26.455 14.4534C26.4962 14.432 26.5018 14.4089 26.455 14.3842C26.4081 14.3595 26.4137 14.3233 26.4381 14.287C26.4625 14.2508 26.4681 14.2425 26.4381 14.2211C26.4274 14.2103 26.4134 14.2025 26.3977 14.1987C26.382 14.1949 26.3654 14.1952 26.35 14.1997L26.3218 14.2112C26.2753 14.2175 26.2277 14.208 26.1887 14.1849C26.1756 14.1766 26.1887 14.1569 26.1887 14.1486C26.1887 14.1404 26.2243 14.0465 26.305 14.0778C26.3096 14.0799 26.3146 14.0811 26.3198 14.0812C26.325 14.0814 26.3302 14.0804 26.3349 14.0785C26.3396 14.0766 26.3438 14.0738 26.347 14.0702C26.3503 14.0667 26.3526 14.0625 26.3537 14.058C26.3537 14.0103 26.4193 13.974 26.3912 13.9164C26.3762 13.8867 26.4043 13.862 26.4268 13.8406C26.4749 13.793 26.5108 13.7368 26.5318 13.6758C26.5491 13.6282 26.5547 13.5779 26.5482 13.5282C26.5418 13.4785 26.5234 13.4306 26.4943 13.3876C26.4775 13.3628 26.4662 13.3332 26.4475 13.3068C26.4287 13.2805 26.4475 13.2558 26.4868 13.2525C26.5618 13.2442 26.6237 13.1948 26.7062 13.2063C26.7437 13.2063 26.7512 13.1767 26.7512 13.1487C26.7512 13.1207 26.7512 13.0696 26.8075 13.0581C26.8375 13.0581 26.8337 13.0235 26.8318 13.0004C26.83 12.9774 26.8318 12.9543 26.8618 12.9477C26.8918 12.9411 26.8881 12.9658 26.8956 12.9823C26.9031 12.9988 26.9218 12.9971 26.9312 12.9823C26.9395 12.9687 26.9434 12.9533 26.9425 12.9378C26.9436 12.8571 26.9562 12.7769 26.98 12.699C26.98 12.6561 26.9912 12.6067 27.0625 12.6018C27.0831 12.6018 27.0831 12.5787 27.0887 12.5655C27.1021 12.5295 27.1268 12.4975 27.16 12.4733C27.1874 12.451 27.2049 12.4208 27.2093 12.3882C27.2138 12.3556 27.2049 12.3227 27.1843 12.2953C27.1554 12.2699 27.1168 12.2548 27.0759 12.2529C27.035 12.2511 26.9948 12.2627 26.9631 12.2855C26.9331 12.3201 26.9031 12.3283 26.8656 12.3003C26.8281 12.2723 26.7606 12.2822 26.7025 12.3003C26.7253 12.2535 26.73 12.2014 26.7156 12.152C26.7156 12.1388 26.7156 12.1339 26.7343 12.1273C26.768 12.1174 26.8038 12.1144 26.8389 12.1187C26.874 12.123 26.9076 12.1344 26.9368 12.152C26.9637 12.1725 26.9961 12.1864 27.031 12.1925C27.0658 12.1986 27.1019 12.1965 27.1356 12.1866C27.2218 12.1669 27.2293 12.0828 27.3081 12.0697C27.3437 12.0697 27.3737 12.0433 27.4131 12.0581C27.4206 12.0639 27.4303 12.0671 27.4403 12.0671C27.4503 12.0671 27.4599 12.0639 27.4674 12.0581C27.474 12.0515 27.4777 12.043 27.4777 12.0342C27.4777 12.0254 27.474 12.017 27.4674 12.0104C27.45 11.9858 27.4433 11.9565 27.4487 11.928C27.4508 11.9114 27.447 11.8946 27.438 11.8799C27.4289 11.8652 27.415 11.8532 27.3981 11.8456C27.3606 11.8275 27.3474 11.8654 27.3306 11.8819C27.3137 11.8983 27.2406 11.9395 27.2256 11.9972C27.2182 11.9702 27.2044 11.9449 27.185 11.923C27.1656 11.9012 27.141 11.8832 27.1131 11.8703C27.0925 11.8604 27.1018 11.8324 27.0981 11.8143C27.1 11.7589 27.0937 11.7035 27.0793 11.6496C27.0744 11.6393 27.0735 11.6278 27.0769 11.617C27.0803 11.6063 27.0878 11.5968 27.0981 11.5903C27.1026 11.5864 27.1087 11.5843 27.115 11.5843C27.1212 11.5843 27.1273 11.5864 27.1318 11.5903C27.1418 11.5971 27.1486 11.6069 27.151 11.6178C27.1534 11.6287 27.1512 11.64 27.1449 11.6496C27.1449 11.6611 27.1299 11.6776 27.1449 11.6842C27.1599 11.6908 27.1731 11.6743 27.1806 11.6611C27.1955 11.6289 27.1984 11.5935 27.189 11.5597C27.1796 11.526 27.1582 11.4958 27.1281 11.4733C27.0963 11.423 27.0807 11.3661 27.0831 11.3086C27.0831 11.2937 27.1056 11.2937 27.1225 11.2905C27.1439 11.2899 27.1648 11.2841 27.1828 11.2739C27.2009 11.2637 27.2154 11.2493 27.2248 11.2324C27.2343 11.2154 27.2383 11.1966 27.2364 11.1778C27.2346 11.159 27.2269 11.141 27.2143 11.1257C27.1937 11.0878 27.1731 11.0516 27.1524 11.0104C27.1524 11.0565 27.1206 11.073 27.0868 11.0648C27.0531 11.0565 27.055 11.0153 27.0718 10.9923C27.0887 10.9692 27.0718 10.8621 27.1431 10.8588C27.2143 10.8555 27.2556 10.9132 27.3006 10.956C27.3456 10.9989 27.3587 11.0104 27.4074 11.0022C27.4562 10.9939 27.4562 10.9923 27.4637 10.9659C27.4668 10.9583 27.4663 10.9499 27.4625 10.9425C27.4586 10.9351 27.4517 10.9293 27.4431 10.9264C27.4311 10.9226 27.418 10.9231 27.4064 10.9277C27.3949 10.9323 27.3858 10.9407 27.3812 10.9511L27.3699 10.9725C27.3418 10.9396 27.3512 10.9214 27.3699 10.9083C27.4169 10.8768 27.4672 10.8492 27.5199 10.8259C27.5724 10.8061 27.6287 10.7781 27.6249 10.7188C27.6212 10.6595 27.6081 10.592 27.5237 10.5656C27.491 10.5547 27.462 10.5365 27.4397 10.5128C27.4173 10.4892 27.4023 10.4608 27.3962 10.4305C27.3852 10.3852 27.359 10.3438 27.3208 10.3118C27.2827 10.2797 27.2345 10.2586 27.1824 10.251C27.1381 10.2448 27.0947 10.2343 27.0531 10.2197C27.0024 10.2032 26.9743 10.1785 26.995 10.1208C27.0083 10.0982 27.014 10.0726 27.0113 10.0472C27.0087 10.0218 26.9978 9.99763 26.98 9.9775C27.0325 9.95608 27.0737 9.93631 27.0568 9.87042C27.04 9.80452 27.1149 9.73204 27.1881 9.70568C27.2237 9.70568 27.2256 9.66779 27.2237 9.64143C27.2237 9.52447 27.2087 9.40751 27.1974 9.29219C27.1877 9.24446 27.1617 9.20047 27.1229 9.16604C27.084 9.13161 27.0342 9.10839 26.98 9.09945C26.9395 9.08663 26.9036 9.06465 26.8759 9.03572C26.8483 9.00678 26.8298 8.97193 26.8225 8.93471C26.8237 8.9217 26.8221 8.9086 26.8176 8.89616C26.8131 8.88372 26.8058 8.87219 26.7962 8.86223C26.7862 8.85548 26.7789 8.84604 26.7755 8.83533C26.7721 8.82463 26.7728 8.81325 26.7775 8.80292C26.7872 8.7827 26.7901 8.76043 26.7858 8.7388C26.7815 8.71716 26.7701 8.69709 26.7531 8.68102C26.7775 8.66454 26.8018 8.68101 26.8206 8.66948C26.8393 8.65795 26.8581 8.65466 26.8487 8.64477C26.8056 8.597 26.8356 8.52122 26.7625 8.48003C26.7381 8.4563 26.7221 8.42684 26.7164 8.39524C26.7107 8.36365 26.7157 8.33129 26.7306 8.30212C26.7475 8.28235 26.77 8.28894 26.7925 8.29059C26.8294 8.29021 26.8656 8.28096 26.8969 8.26382C26.9283 8.24669 26.9538 8.22233 26.9706 8.19339C26.9837 8.16703 26.9706 8.15386 26.9443 8.14562C26.9015 8.12432 26.857 8.1056 26.8112 8.08961C26.8007 8.08818 26.7906 8.08474 26.7818 8.07954C26.7729 8.07433 26.7654 8.06749 26.7599 8.05948C26.7544 8.05148 26.7509 8.04251 26.7497 8.0332C26.7485 8.02389 26.7497 8.01447 26.7531 8.00559C26.7531 7.97429 26.7531 7.94629 26.7175 7.93311C26.6651 7.91216 26.6189 7.88091 26.5825 7.84178C26.5461 7.80264 26.5204 7.75667 26.5075 7.70742C26.4943 7.67447 26.4625 7.66294 26.4287 7.65141C26.395 7.63988 26.3481 7.62011 26.3875 7.57069C26.4268 7.52126 26.3875 7.5295 26.3556 7.53115C26.2843 7.54103 26.2675 7.48667 26.2356 7.45043C26.2037 7.41419 26.2225 7.41583 26.2356 7.41419C26.3256 7.39277 26.2656 7.34005 26.2675 7.30052C26.2752 7.25846 26.2641 7.2154 26.2365 7.18039C26.2089 7.14537 26.1669 7.12112 26.1193 7.11272C26.0015 7.06951 25.8798 7.03481 25.7556 7.00893C25.7106 7.00893 25.7012 6.98257 25.7256 6.94304C25.7512 6.90606 25.7807 6.87131 25.8137 6.83925C25.8366 6.84014 25.8593 6.84346 25.8812 6.84914C25.9086 6.85566 25.9377 6.8542 25.964 6.845C25.9904 6.83579 26.0126 6.81933 26.0275 6.79807C26.0378 6.78447 26.0531 6.77442 26.0709 6.76962C26.0886 6.76482 26.1077 6.76555 26.125 6.77171C26.1737 6.79313 26.1475 6.82443 26.125 6.84914C26.1025 6.87385 26.095 6.87879 26.1156 6.89362C26.1362 6.90844 26.1625 6.90185 26.185 6.89362C26.199 6.88788 26.2103 6.87796 26.2168 6.86561C26.2533 6.76948 26.2716 6.66876 26.2712 6.56744C26.2666 6.53294 26.2475 6.50119 26.2177 6.47835C26.1879 6.45552 26.1495 6.44323 26.11 6.44388C26.0661 6.44466 26.0233 6.4319 25.9891 6.40782C25.9548 6.38374 25.9312 6.34986 25.9225 6.31209C25.9191 6.28469 25.9038 6.25952 25.8796 6.24197C25.8554 6.22442 25.8243 6.21589 25.7931 6.21819C25.7601 6.21954 25.7278 6.20941 25.7032 6.18998C25.6786 6.17055 25.6638 6.1434 25.6618 6.11441C25.6487 6.04851 25.6094 6.0271 25.5419 6.06334C25.4744 6.09958 25.4106 6.07982 25.3544 6.0271C25.2981 5.97438 25.2944 5.96285 25.24 5.97933C25.215 5.98564 25.193 5.99879 25.1772 6.01687C25.1613 6.03495 25.1524 6.057 25.1519 6.07982C25.1519 6.09299 25.1519 6.10617 25.1519 6.11935C25.145 6.15014 25.1307 6.17928 25.1101 6.20485C25.0894 6.23042 25.0627 6.25181 25.0319 6.26762C25.0319 6.26762 24.9775 6.26762 24.9719 6.24291C24.9494 6.18031 24.8162 6.13747 24.9175 6.05346C24.9241 6.04917 24.9294 6.04358 24.9331 6.03714C24.9368 6.03071 24.9387 6.0236 24.9387 6.01639C24.9387 6.00918 24.9368 6.00208 24.9331 5.99564C24.9294 5.9892 24.9241 5.98362 24.9175 5.97933C24.8369 5.93979 24.8106 5.84589 24.6906 5.84589C24.6306 5.84589 24.6062 5.79647 24.5819 5.75528C24.4751 5.59305 24.314 5.46364 24.1206 5.38462C24.0913 5.3673 24.0572 5.35724 24.0219 5.3555C23.9866 5.35376 23.9514 5.36041 23.92 5.37474C23.8367 5.39664 23.7501 5.40719 23.6631 5.40604C23.6013 5.41592 23.575 5.36815 23.59 5.32202C23.6238 5.22153 23.5713 5.11281 23.6406 5.01561C23.6725 4.97113 23.6181 4.93983 23.5675 4.92501C23.5169 4.91018 23.425 4.88218 23.4419 4.79651C23.4419 4.75533 23.3988 4.7438 23.3594 4.73226C23.32 4.72073 23.2769 4.70097 23.2844 4.65978C23.2919 4.6186 23.3313 4.63837 23.3631 4.64001C23.395 4.64166 23.4081 4.6153 23.3856 4.59389C23.367 4.57509 23.3431 4.56089 23.3163 4.5527C23.1754 4.50161 23.0415 4.43697 22.9169 4.35996C22.8456 4.32372 22.7631 4.28748 22.7969 4.19522C22.7969 4.16886 22.7706 4.15404 22.7481 4.13921C22.697 4.09957 22.6572 4.04991 22.6319 3.99424C22.6081 3.94383 22.5653 3.90211 22.5107 3.87604C22.4561 3.84996 22.393 3.8411 22.3319 3.85092C22.2706 3.87068 22.2205 3.91062 22.1922 3.96228C22.1638 4.01393 22.1595 4.07325 22.18 4.12768C22.2232 4.18863 22.2194 4.22817 22.1463 4.26276C22.0732 4.29736 22.0525 4.38467 22.0507 4.47033C21.9816 4.41163 21.8928 4.37407 21.7975 4.36325C21.7732 4.36325 21.7694 4.34513 21.7675 4.32536C21.7705 4.27561 21.7873 4.22726 21.8164 4.18449C21.8455 4.14171 21.886 4.10582 21.9344 4.07991C21.9872 4.06037 22.0327 4.02827 22.0658 3.98723C22.0989 3.94619 22.1184 3.89784 22.1219 3.84763C22.1369 3.72737 21.9963 3.66806 22.0225 3.55934C22.0357 3.51156 22.0132 3.45885 22.0657 3.41931C22.0724 3.41575 22.0784 3.41105 22.0831 3.40548C22.0878 3.3999 22.0912 3.39357 22.0931 3.38683C22.095 3.3801 22.0954 3.3731 22.0942 3.36623C22.0931 3.35937 22.0904 3.35277 22.0863 3.34683C22.0675 3.31553 22.0338 3.31553 22 3.32047C21.9457 3.32754 21.8902 3.31825 21.8425 3.29411C21.8146 3.28218 21.7835 3.27739 21.7527 3.28031C21.7218 3.28322 21.6925 3.29371 21.6682 3.31058C21.6119 3.34353 21.6682 3.38472 21.6907 3.41931C21.7282 3.48521 21.7375 3.56593 21.8294 3.62194C21.7781 3.61451 21.7256 3.61653 21.6753 3.62787C21.6249 3.63922 21.5778 3.65964 21.5369 3.68783C21.5088 3.7076 21.4657 3.68783 21.43 3.67136C21.3373 3.63749 21.2404 3.61316 21.1413 3.59887C21.1205 3.59906 21.1002 3.5934 21.0834 3.58273C21.0665 3.57207 21.0539 3.55694 21.0476 3.53957C21.0454 3.5356 21.0443 3.53128 21.0442 3.52689C21.0441 3.52251 21.0451 3.51816 21.047 3.51412C21.049 3.51008 21.0519 3.50645 21.0555 3.50345C21.0591 3.50046 21.0635 3.49817 21.0682 3.49674C21.0869 3.4883 21.1082 3.4855 21.1289 3.48878C21.1495 3.49205 21.1684 3.50122 21.1826 3.51486C21.1994 3.52968 21.2201 3.5511 21.2444 3.53298C21.2688 3.51486 21.2444 3.49179 21.2257 3.47367C21.1782 3.43402 21.1181 3.40816 21.0533 3.39962C20.9886 3.39107 20.9224 3.40025 20.8638 3.4259C20.7536 3.43563 20.6423 3.41973 20.5413 3.37977C20.5207 3.36165 20.5282 3.34188 20.5319 3.32212C20.5638 3.18209 20.4776 3.09148 20.3013 3.10301C20.2244 3.10301 20.1476 3.10301 20.0613 3.10301C20.1438 3.12773 20.1532 3.18374 20.1176 3.21998C20.0819 3.25622 20.0126 3.23151 19.9788 3.19527C19.9207 3.12937 19.7576 3.1096 19.7913 3.03053C19.8251 2.95146 19.9582 2.92016 20.0594 2.88886C20.1269 2.86579 20.1907 2.84767 20.2057 2.78178C20.2136 2.76572 20.2149 2.74776 20.2094 2.73095C20.204 2.71413 20.192 2.6995 20.1757 2.68953C20.1647 2.68073 20.1503 2.67585 20.1354 2.67585C20.1205 2.67585 20.1061 2.68073 20.0951 2.68953C20.088 2.69551 20.0824 2.70268 20.0786 2.71061C20.0748 2.71853 20.0728 2.72705 20.0728 2.73565C20.0728 2.74426 20.0748 2.75277 20.0786 2.7607C20.0824 2.76862 20.088 2.77579 20.0951 2.78178L20.1288 2.81143C20.0538 2.8279 20.0276 2.80319 20.0182 2.76366C19.9923 2.68453 19.9747 2.60346 19.9657 2.52149C19.9733 2.4809 19.9653 2.43924 19.9429 2.40312C19.9204 2.36701 19.8849 2.33851 19.8419 2.32216C19.7899 2.29607 19.7296 2.2855 19.6701 2.29204C19.6106 2.29857 19.5551 2.32185 19.512 2.3584C19.4824 2.38635 19.4463 2.40834 19.4062 2.42284C19.3661 2.43735 19.3228 2.44403 19.2795 2.44242C19.1685 2.44137 19.0586 2.46143 18.9573 2.50124C18.856 2.54106 18.7657 2.59967 18.6926 2.67305C18.6691 2.69835 18.644 2.72255 18.6176 2.74554C18.6069 2.76177 18.592 2.77555 18.5741 2.78574C18.5562 2.79594 18.5358 2.80226 18.5146 2.80419C18.4934 2.80612 18.4719 2.8036 18.452 2.79684C18.4321 2.79008 18.4143 2.77927 18.4001 2.7653C18.3683 2.7336 18.327 2.71044 18.2809 2.69849C18.2348 2.68654 18.1857 2.68629 18.1395 2.69776C18.1395 2.61704 18.1245 2.55279 18.0007 2.53302C17.9403 2.51368 17.8885 2.47778 17.8531 2.43061C17.8176 2.38345 17.8004 2.32753 17.8039 2.27109C17.8039 2.22002 17.7589 2.20026 17.712 2.18543C17.502 2.12448 17.2939 2.06352 17.082 2.00751C16.9938 1.99097 16.902 1.99779 16.8182 2.02712C16.7344 2.05644 16.6625 2.10695 16.6114 2.17225C16.562 2.21592 16.5009 2.2479 16.4337 2.26518C16.3665 2.28247 16.2954 2.2845 16.227 2.27109C16.2041 2.26271 16.1796 2.25839 16.1548 2.25839C16.13 2.25839 16.1055 2.26271 16.0826 2.27109C16.0638 2.27888 16.0429 2.28178 16.0223 2.27944C16.0017 2.27711 15.9823 2.26964 15.9664 2.25791C15.9366 2.23279 15.8995 2.21523 15.8593 2.20711C15.819 2.19899 15.777 2.20061 15.7376 2.21179C15.7226 2.17225 15.7564 2.14919 15.7583 2.11789C15.7601 2.08659 15.7583 2.06352 15.732 2.07011C15.6214 2.09647 15.507 2.01081 15.3964 2.08C15.3399 2.09734 15.279 2.10036 15.2206 2.08871C15.1623 2.07705 15.1088 2.0512 15.0664 2.0141C15.0402 1.98116 15.0664 1.95644 15.0814 1.92844C15.1034 1.88047 15.1093 1.82796 15.0983 1.77715C15.0873 1.72634 15.06 1.67936 15.0195 1.6418C15.0132 1.63576 15.0055 1.63093 14.997 1.62763C14.9884 1.62434 14.9792 1.62263 14.9698 1.62263C14.9605 1.62263 14.9513 1.62434 14.9427 1.62763C14.9342 1.63093 14.9265 1.63576 14.9202 1.6418C14.8546 1.68409 14.792 1.72974 14.7327 1.77853C14.7228 1.79164 14.7099 1.80278 14.6949 1.81123C14.6798 1.81968 14.6629 1.82525 14.6452 1.82758C14.6275 1.82991 14.6095 1.82895 14.5922 1.82476C14.575 1.82056 14.559 1.81323 14.5452 1.80324C14.5253 1.78643 14.4987 1.77704 14.4711 1.77704C14.4435 1.77704 14.4169 1.78643 14.397 1.80324C14.3321 1.86275 14.2526 1.90851 14.1646 1.93705C14.0766 1.96559 13.9823 1.97617 13.8889 1.96798C13.8603 1.96867 13.8322 1.97512 13.8069 1.98683C13.7815 1.99854 13.7596 2.01519 13.7427 2.03552C13.6921 2.08 13.6396 2.11624 13.5758 2.03552C13.5364 1.98774 13.5008 2.0141 13.4896 2.05199C13.4596 2.14919 13.3546 2.13766 13.2702 2.15742C13.2458 2.15742 13.2046 2.15742 13.2064 2.13601C13.2252 2.01081 13.0958 2.05364 13.0189 2.02563C12.95 1.99337 12.8704 1.98313 12.7938 1.99665C12.7172 2.01017 12.6484 2.04661 12.5989 2.09977C12.4582 2.22032 12.329 2.35091 12.2127 2.49019C12.1696 2.54456 12.1302 2.54456 12.0796 2.49019C11.998 2.39129 11.9271 2.28595 11.8677 2.17554C11.8418 2.13396 11.8007 2.10126 11.751 2.08273C11.7013 2.0642 11.646 2.06091 11.594 2.07341C11.4777 2.08659 11.3915 2.12777 11.3896 2.23815C11.3896 2.42595 11.2377 2.56762 11.1515 2.71753C11.1431 2.73328 11.131 2.74727 11.116 2.75858C11.101 2.76988 11.0833 2.77823 11.0643 2.78307C11.0454 2.7879 11.0254 2.78911 11.0058 2.78662C10.9862 2.78412 10.9675 2.77798 10.9508 2.7686C10.8574 2.73829 10.7565 2.73033 10.6584 2.74554C10.5871 2.74554 10.5571 2.78507 10.5365 2.8312C10.5105 2.89596 10.4644 2.95303 10.4034 2.99594C10.3738 3.01344 10.3525 3.03985 10.3435 3.0702C10.3345 3.10054 10.3385 3.13272 10.3546 3.16067C10.3735 3.21382 10.373 3.27082 10.3531 3.3237C10.3333 3.37658 10.2951 3.42268 10.244 3.45555C10.2309 3.4226 10.2177 3.38966 10.2027 3.35671C10.1877 3.32376 10.1315 3.28423 10.1034 3.28917C10.0752 3.29411 9.97024 3.30399 10.0002 3.39625C10.0171 3.45391 10.0396 3.50992 10.0584 3.56098C10.0771 3.61205 10.079 3.63017 10.094 3.67136H9.96836C9.96836 3.63182 9.96836 3.60052 9.96836 3.56593C9.91586 3.59723 9.87087 3.62523 9.82962 3.65324C9.84217 3.69046 9.85158 3.72846 9.85774 3.76691C9.85828 3.80274 9.8721 3.83744 9.89712 3.86575L9.87649 3.88057L9.84462 3.90693C9.83602 3.89598 9.82849 3.88441 9.82212 3.87234C9.79718 3.8378 9.76962 3.80477 9.73962 3.7735C9.73962 3.73725 9.73962 3.69936 9.73962 3.66147C9.73864 3.64831 9.73864 3.6351 9.73962 3.62194C9.75198 3.59511 9.75957 3.56678 9.76212 3.53792C9.75427 3.49414 9.74172 3.45112 9.72462 3.40943C9.72462 3.38142 9.69837 3.35506 9.68149 3.31717C9.67271 3.3286 9.66518 3.34074 9.65899 3.35342C9.58293 3.34651 9.50671 3.36507 9.44554 3.40538C9.38437 3.44569 9.34276 3.50478 9.329 3.57087C9.32371 3.59367 9.31139 3.61476 9.29338 3.63182C9.34587 3.66642 9.40775 3.68454 9.42462 3.72078C9.47525 3.83115 9.58774 3.93494 9.49775 4.07167C9.49775 4.0832 9.49775 4.10956 9.49775 4.12768C9.51379 4.17468 9.52632 4.22256 9.53525 4.271C9.53525 4.34184 9.53525 4.41268 9.53525 4.4901C9.47337 4.45221 9.39275 4.44233 9.41525 4.38467L9.269 4.28418L9.224 4.33525C9.19213 4.29901 9.16213 4.26935 9.12838 4.22982L9.19213 4.20181L8.89776 3.96624L9.00088 3.92505C8.94088 3.88057 8.88276 3.83939 8.82651 3.79491C8.82651 3.78503 8.82651 3.75537 8.82651 3.73561C8.82651 3.65324 8.84338 3.57087 8.85276 3.49015C8.85276 3.46214 8.89213 3.43908 8.90713 3.40613C8.92503 3.37328 8.92901 3.3359 8.91838 3.3007C8.89213 3.2694 8.83026 3.23645 8.80026 3.24634C8.77026 3.25622 8.66901 3.31388 8.66714 3.35342C8.66714 3.43578 8.57339 3.50168 8.63714 3.58899C8.63945 3.59309 8.64065 3.5976 8.64065 3.60217C8.64065 3.60674 8.63945 3.61125 8.63714 3.61535C8.55839 3.68783 8.58464 3.78997 8.56964 3.87728C8.56964 3.90693 8.56964 3.96624 8.58839 3.96953C8.69151 3.99424 8.62401 4.06508 8.63901 4.09638C8.45152 4.20346 8.23027 4.26112 8.0934 4.42585C8.06201 4.4602 8.02086 4.48666 7.97412 4.50256C7.92737 4.51847 7.87668 4.52327 7.82715 4.51646H7.77278C7.77278 4.51646 7.77278 4.53129 7.77278 4.53952L7.84215 4.5873C7.65465 4.56094 7.56465 4.59718 7.54028 4.69273C7.65278 4.7438 7.75965 4.85747 7.88715 4.72897C7.88715 4.72897 7.90777 4.72897 7.91715 4.72897L8.15714 4.66308C8.15714 4.66308 8.16839 4.64825 8.17589 4.64166C8.18339 4.63507 8.22652 4.59883 8.23027 4.59553L8.27527 4.65649C8.30719 4.69824 8.35277 4.73051 8.40599 4.74904C8.45922 4.76757 8.51758 4.77148 8.57339 4.76027C8.62876 4.75371 8.68489 4.75371 8.74026 4.76027L8.98776 4.88547L9.09088 5.01726C9.13963 5.07821 9.18088 5.14576 9.23338 5.20177C9.28588 5.25778 9.31962 5.43569 9.254 5.47852C9.19854 5.52489 9.15779 5.58316 9.13576 5.64758C9.11374 5.71199 9.11119 5.78034 9.12838 5.84589C9.12319 5.93795 9.14556 6.0296 9.19326 6.11169C9.24097 6.19378 9.31234 6.26345 9.40025 6.31374C9.49775 6.35328 9.46587 6.38128 9.42462 6.41423L14.8377 13.1289V5.38627L16.362 6.89856L16.3376 16.6032L15.2127 17.9211L9.35712 11.241V17.8519L7.9134 16.1766V8.38119C7.91371 8.32588 7.8937 8.27195 7.85634 8.22742C7.81898 8.1829 7.76626 8.15016 7.70603 8.13406C7.6458 8.11796 7.58126 8.11937 7.52201 8.13807C7.46276 8.15677 7.41196 8.19177 7.37716 8.23787C6.81867 8.93449 6.3972 9.70852 6.1303 10.5277C6.0103 11.0318 6.48655 11.4354 6.48655 11.8456C6.48655 12.2558 5.89218 12.2492 5.29782 12.5523C3.5316 13.5095 1.54788 14.0547 3.93472 15.4781C3.99003 15.5113 4.0309 15.56 4.05065 15.6162C4.0704 15.6725 4.06787 15.733 4.04346 15.7878C3.94222 16.0135 3.73597 16.3067 3.51285 16.282C3.28973 16.2573 3.1566 16.3841 3.1566 16.6856C3.1566 16.9871 3.03661 17.2918 3.75097 17.5933C3.9208 17.6645 4.08168 17.7512 4.23096 17.8519C4.27611 17.8834 4.30965 17.926 4.32738 17.9742C4.34511 18.0224 4.34623 18.0741 4.3306 18.1228C4.31498 18.1716 4.2833 18.2152 4.23955 18.2482C4.1958 18.2812 4.14193 18.3021 4.08471 18.3083C3.79972 18.3396 3.50535 18.417 3.39472 18.6031C3.1566 18.8041 3.27473 19.4087 3.51285 19.5108C3.75097 19.613 4.22721 19.5108 4.34533 19.7118C4.46346 19.9128 3.86909 20.211 3.75097 20.7216C3.35348 22.855 6.71904 22.8632 8.67276 23.5897C9.38337 23.85 10.0677 24.1136 10.4127 24.7577C10.8646 25.7626 11.2077 26.7906 11.6108 27.7988C11.6264 27.8374 11.6312 27.8787 11.6249 27.9193C11.6185 27.9599 11.6013 27.9985 11.5745 28.0321C11.5477 28.0656 11.5122 28.093 11.4709 28.112C11.4296 28.1311 11.3837 28.1411 11.3371 28.1414H7.34903C6.63287 28.1414 5.92374 28.0174 5.26219 27.7764C4.60064 27.5354 3.99965 27.1822 3.4936 26.7369C2.98754 26.2917 2.58635 25.7632 2.31297 25.1816C2.0396 24.6 1.89939 23.9768 1.90037 23.3476V4.44727C1.90037 3.60797 2.27985 2.80304 2.95532 2.20956C3.63079 1.61608 4.54693 1.28267 5.50219 1.28267H23.0875C24.5296 1.28267 25.9126 1.786 26.9323 2.68193C27.9521 3.57786 28.5249 4.79301 28.5249 6.06005V24.9537C28.5244 25.7973 28.1428 26.6062 27.4639 27.2026C26.7851 27.7991 25.8644 28.1344 24.9044 28.1348ZM24.7169 14.8372L24.7975 14.7384H24.8275C24.8087 14.7862 24.79 14.8307 24.7694 14.8867C24.7492 14.872 24.731 14.8554 24.715 14.8372H24.7169ZM24.8537 14.7384H24.9419C24.9275 14.7621 24.9092 14.7838 24.8875 14.8026C24.8744 14.7812 24.865 14.7615 24.8519 14.7384H24.8537Z"
                             />
                    </svg>