<svg viewBox="0 0 256 256" fill="none" xmlns="http://www.w3.org/2000/svg">
<path d="M127.857 192.487C92.2201 192.487 63.2266 163.496 63.2266 127.857C63.2266 92.2201 92.2201 63.2266 127.857 63.2266C163.496 63.2266 192.487 92.2201 192.487 127.857C192.487 163.496 163.496 192.487 127.857 192.487Z" fill="#FFCB55"/>
<path d="M110.019 50.8904C109.198 50.8904 108.408 50.5335 107.869 49.89C107.197 49.092 107.023 47.9876 107.416 47.021L125.254 3.15688C125.684 2.10032 126.713 1.40625 127.856 1.40625C129 1.40625 130.029 2.10032 130.458 3.15688L148.299 47.021C148.693 47.9876 148.516 49.092 147.844 49.89C147.175 50.688 146.113 51.0533 145.096 50.8257C133.729 48.3501 121.975 48.3501 110.614 50.8257C110.418 50.8707 110.218 50.8904 110.019 50.8904Z" fill="#FFCB55"/>
<path d="M127.856 254.306C126.713 254.306 125.684 253.615 125.254 252.556L107.416 208.691C107.023 207.725 107.197 206.62 107.869 205.822C108.54 205.024 109.597 204.665 110.617 204.887C121.978 207.365 133.732 207.365 145.099 204.887C146.119 204.662 147.178 205.027 147.847 205.822C148.518 206.618 148.695 207.725 148.302 208.691L130.461 252.556C130.029 253.615 129 254.306 127.856 254.306Z" fill="#FFCB55"/>
<path d="M48.0804 148.507C47.7235 148.507 47.3638 148.44 47.021 148.302L3.15688 130.461C2.10032 130.029 1.40625 129 1.40625 127.856C1.40625 126.713 2.10032 125.684 3.15969 125.254L47.0238 107.416C47.9876 107.023 49.0948 107.197 49.8928 107.869C50.6908 108.54 51.0505 109.6 50.8285 110.617C49.5893 116.296 48.9599 122.099 48.9599 127.856C48.9599 133.614 49.5893 139.414 50.8285 145.099C51.0505 146.116 50.6908 147.175 49.8928 147.847C49.3758 148.282 48.7323 148.507 48.0804 148.507Z" fill="#FFCB55"/>
<path d="M207.632 148.507C206.983 148.507 206.337 148.282 205.823 147.847C205.025 147.178 204.665 146.119 204.887 145.099C206.123 139.417 206.753 133.614 206.753 127.856C206.753 122.099 206.123 116.296 204.887 110.617C204.665 109.6 205.025 108.54 205.823 107.869C206.618 107.197 207.722 107.023 208.692 107.416L252.556 125.254C253.615 125.684 254.306 126.713 254.306 127.856C254.306 129 253.615 130.029 252.556 130.458L208.692 148.299C208.349 148.437 207.989 148.507 207.632 148.507Z" fill="#FFCB55"/>
<path d="M58.8344 86.872C58.7557 86.872 58.6742 86.8691 58.5955 86.8607C57.5558 86.7708 56.651 86.1132 56.2464 85.155L37.8437 41.5242C37.3997 40.4704 37.6386 39.2537 38.445 38.4444C39.2543 37.6351 40.4738 37.4019 41.5248 37.8431L85.1557 56.2458C86.1167 56.6504 86.7742 57.5552 86.8613 58.5921C86.9512 59.6318 86.4567 60.635 85.58 61.197C80.6821 64.3414 76.1384 67.9972 72.0667 72.0661C67.9978 76.1377 64.3392 80.6815 61.1976 85.5793C60.6777 86.3886 59.7842 86.872 58.8344 86.872Z" fill="#FFCB55"/>
<path d="M215.281 218.091C214.913 218.091 214.542 218.02 214.188 217.871L170.56 199.469C169.599 199.061 168.941 198.156 168.854 197.119C168.764 196.08 169.259 195.077 170.136 194.512C175.039 191.362 179.586 187.703 183.646 183.643C187.706 179.585 191.365 175.036 194.515 170.132C195.08 169.256 196.069 168.758 197.123 168.851C198.16 168.938 199.065 169.598 199.472 170.557L217.875 214.185C218.316 215.238 218.08 216.458 217.271 217.264C216.731 217.807 216.012 218.091 215.281 218.091Z" fill="#FFCB55"/>
<path d="M196.877 86.8694C195.925 86.8694 195.034 86.3889 194.511 85.5796C191.361 80.6734 187.703 76.1296 183.642 72.0663C179.576 68.0003 175.03 64.3416 170.132 61.1972C169.252 60.6352 168.76 59.6321 168.85 58.5924C168.937 57.5527 169.598 56.6507 170.556 56.246L214.184 37.8433C215.232 37.3994 216.455 37.6354 217.264 38.4447C218.073 39.254 218.309 40.4707 217.868 41.5244L199.465 85.1553C199.058 86.1163 198.153 86.7739 197.116 86.861C197.037 86.8666 196.959 86.8694 196.877 86.8694Z" fill="#FFCB55"/>
<path d="M40.4297 218.091C39.6991 218.091 38.9797 217.804 38.443 217.268C37.6337 216.458 37.3949 215.242 37.8417 214.188L56.2443 170.56C56.649 169.599 57.5538 168.941 58.5907 168.854C59.6304 168.733 60.6336 169.259 61.1956 170.135C64.34 175.03 67.9986 179.577 72.0646 183.646C76.1279 187.709 80.6717 191.365 85.5779 194.515C86.4547 195.08 86.9492 196.083 86.8593 197.123C86.7694 198.16 86.1118 199.064 85.1536 199.472L41.5228 217.875C41.1687 218.021 40.8006 218.091 40.4297 218.091Z" fill="#FFCB55"/>
</svg>
