<svg width="80" height="80" viewBox="0 0 80 80" fill="none" xmlns="http://www.w3.org/2000/svg">
<path d="M0.0625 8.84642C0.0625 4.157 3.86403 0.355469 8.55345 0.355469H70.8855C75.5749 0.355469 79.3765 4.157 79.3765 8.84642V71.3665C79.3765 76.0559 75.5749 79.8574 70.8855 79.8574H8.55345C3.86403 79.8574 0.0625 76.0559 0.0625 71.3665V8.84642Z" fill="#DEA206"/>
<path d="M26.4882 45.8804L23.6401 57.0255C23.568 57.3227 23.4598 57.397 23.0993 57.397H17.7997C17.4392 57.397 17.3671 57.2856 17.4392 56.8398L27.6779 19.9122C27.8582 19.2435 27.9663 18.6491 28.0384 16.8287C28.0384 16.5687 28.1466 16.4572 28.3268 16.4572H35.8977C36.1501 16.4572 36.2582 16.5315 36.3303 16.8287L47.7948 56.9141C47.8669 57.2113 47.7948 57.397 47.5064 57.397H41.5218C41.2334 57.397 41.0531 57.3227 40.981 57.0627L37.9887 45.8804H26.4882ZM36.5106 39.862C35.5011 35.7383 33.1217 26.7479 32.2204 22.4013H32.1483C31.3912 26.7479 29.4805 34.1037 27.9663 39.862H36.5106ZM52.7339 19.2063C52.7339 16.8287 54.3562 15.417 56.4112 15.417C58.6103 15.417 60.0885 16.9402 60.0885 19.2063C60.0885 21.6583 58.5382 22.9957 56.3391 22.9957C54.2481 22.9957 52.7339 21.6583 52.7339 19.2063ZM53.1665 27.6395C53.1665 27.3423 53.2747 27.1937 53.5991 27.1937H59.2593C59.5477 27.1937 59.6919 27.3051 59.6919 27.6395V56.9512C59.6919 57.2484 59.6198 57.397 59.2593 57.397H53.6712C53.3107 57.397 53.2026 57.2113 53.2026 56.9141V27.6395H53.1665Z" fill="#182E35"/>
</svg>
