<svg width="80" height="80" viewBox="0 0 80 80" fill="none" xmlns="http://www.w3.org/2000/svg">
<path d="M14.2502 0.355469H65.4736C73.2397 0.355469 79.5188 6.81076 79.5188 14.7949V65.418C79.5188 73.4022 73.2397 79.8574 65.4736 79.8574H14.2502C6.48408 79.8574 0.205078 73.4022 0.205078 65.418V14.7949C0.205078 6.81076 6.48408 0.355469 14.2502 0.355469Z" fill="#DEA206"/>
<path d="M18.0527 56.1162V21.1557C18.0527 20.9179 18.1519 20.782 18.3832 20.782C18.945 20.782 19.4738 20.782 20.2339 20.748C21.027 20.714 21.8532 20.714 22.7455 20.6801C23.6377 20.6461 24.5961 20.6461 25.6206 20.6121C26.645 20.5781 27.6365 20.5781 28.6279 20.5781C31.3378 20.5781 33.585 20.9179 35.4356 21.6314C37.088 22.2089 38.6082 23.1602 39.864 24.4173C40.9215 25.5045 41.7477 26.8296 42.2764 28.2905C42.7722 29.7175 43.0365 31.1784 43.0365 32.7073C43.0365 35.6291 42.3756 38.0414 41.0537 39.944C39.7318 41.8466 37.8811 43.2736 35.7331 44.089C33.4859 44.9383 31.0073 45.2441 28.2974 45.2441C27.5043 45.2441 26.9755 45.2441 26.645 45.2101C26.3146 45.1762 25.8519 45.1762 25.224 45.1762V56.0822C25.2571 56.32 25.0918 56.5239 24.8605 56.5579C24.8274 56.5579 24.7944 56.5579 24.7283 56.5579H18.4493C18.1849 56.5579 18.0527 56.422 18.0527 56.1162ZM25.2571 27.3392V38.7549C25.7197 38.7888 26.1493 38.8228 26.5459 38.8228H28.2974C29.5863 38.8228 30.8751 38.619 32.0979 38.2113C33.1554 37.9055 34.0807 37.2599 34.8077 36.4106C35.5017 35.5612 35.8322 34.406 35.8322 32.9111C35.8653 31.8579 35.6009 30.8047 35.0721 29.8873C34.5103 29.004 33.7172 28.3245 32.7588 27.9507C31.5361 27.4411 30.2142 27.2373 28.8592 27.2712C28 27.2712 27.2399 27.2712 26.612 27.3052C25.9511 27.2712 25.4884 27.3052 25.2571 27.3392Z" fill="#182E35"/>
<path d="M63.6581 36.6803C62.6666 36.1367 61.6091 35.763 60.4855 35.5252C59.2628 35.2534 58.04 35.0835 56.7842 35.0835C56.1233 35.0495 55.4293 35.1515 54.8014 35.3213C54.3717 35.4233 54.0082 35.6611 53.7769 36.0008C53.6117 36.2726 53.5125 36.6124 53.5125 36.9182C53.5125 37.2239 53.6447 37.5297 53.843 37.8015C54.1404 38.1753 54.537 38.481 54.9666 38.7189C55.7267 39.1266 56.5198 39.5003 57.313 39.84C59.0975 40.4516 60.816 41.301 62.4023 42.3202C63.4928 43.0337 64.3851 43.985 65.013 45.1402C65.5418 46.2274 65.8061 47.4165 65.7731 48.6396C65.8061 50.2365 65.3435 51.8333 64.4842 53.1583C63.5589 54.5173 62.2701 55.5706 60.7829 56.1821C59.1636 56.8956 57.1808 57.2693 54.8014 57.2693C53.2812 57.2693 51.7941 57.1334 50.3069 56.8276C49.1503 56.6238 47.9936 56.2501 46.9361 55.7404C46.7048 55.6045 46.5395 55.3667 46.5726 55.0949V49.1832C46.5726 49.0813 46.6056 48.9454 46.7048 48.8774C46.8039 48.8095 46.903 48.8435 47.0022 48.9114C48.291 49.6928 49.646 50.2365 51.1001 50.5762C52.3559 50.916 53.6778 51.0858 54.9996 51.0858C56.2554 51.0858 57.1477 50.916 57.7426 50.6102C58.2713 50.3723 58.6349 49.7948 58.6349 49.1832C58.6349 48.7076 58.3705 48.2659 57.8417 47.8242C57.313 47.3825 56.2224 46.8729 54.6031 46.2274C52.9177 45.6158 51.3644 44.8004 49.9104 43.7812C48.8859 43.0337 48.0267 42.0484 47.3988 40.8933C46.87 39.8061 46.6056 38.6169 46.6387 37.4278C46.6387 35.9669 47.0352 34.5739 47.7623 33.3168C48.5885 31.9578 49.8112 30.8706 51.2322 30.1911C52.7855 29.3757 54.7353 29.002 57.0816 29.002C58.4366 29.002 59.8246 29.1039 61.1795 29.3077C62.1709 29.4436 63.1293 29.7154 64.0216 30.0892C64.1538 30.1231 64.286 30.259 64.3521 30.3949C64.3851 30.5308 64.4181 30.6667 64.4181 30.8026V36.3406C64.4181 36.4765 64.352 36.6124 64.2529 36.6803C63.9555 36.7483 63.7902 36.7483 63.6581 36.6803Z" fill="#182E35"/>
</svg>
