<svg width="80" height="80" viewBox="0 0 80 80" fill="none" xmlns="http://www.w3.org/2000/svg">
<path d="M7.60164 71.9102L0.40625 0.355469H79.4716L72.2685 71.8989L39.8906 79.8574L7.60164 71.9102Z" fill="#F8E2A5"/>
<path d="M66.1024 67.3541L72.258 6.2168H39.9395V73.7851L66.1024 67.3541Z" fill="#DEA206"/>
<path d="M16.9018 32.7529L17.7889 41.5287H39.939V32.7529H16.9018ZM16.019 23.7662H39.939V14.9902H15.1191L16.019 23.7662ZM39.939 55.5448L39.8955 55.555L28.8719 52.9159L28.1673 45.9167H18.2309L19.6178 59.6961L39.8934 64.6867L39.939 64.6754V55.5448Z" fill="#DEA206"/>
<path d="M39.9043 32.7529V41.5287H52.0928L50.9439 52.9104L39.9043 55.5521V64.6824L60.196 59.6961L60.3449 58.2134L62.6707 35.1094L62.9124 32.7529L64.6993 14.9902H39.9043V23.7662H53.8518L52.9509 32.7529H39.9043Z" fill="#182E35"/>
</svg>
