<svg width="57" height="80" viewBox="0 0 57 80" fill="none" xmlns="http://www.w3.org/2000/svg">
<path d="M14.2883 79.8575C22.1 79.8575 28.4399 73.9204 28.4399 66.605V53.3525H14.2883C6.47663 53.3525 0.136719 59.2896 0.136719 66.605C0.136719 73.9204 6.47663 79.8575 14.2883 79.8575Z" fill="#F8E2A5"/>
<path d="M0.136719 40.1265C0.136719 32.8111 6.47663 26.874 14.2883 26.874H28.4399V53.379H14.2883C6.47663 53.379 0.136719 47.4418 0.136719 40.1265Z" fill="#DEA206"/>
<path d="M0.136719 13.6079C0.136719 6.29257 6.47663 0.355469 14.2883 0.355469H28.4399V26.8604H14.2883C6.47663 26.8604 0.136719 20.9233 0.136719 13.6079Z" fill="#DEA206"/>
<path d="M28.4395 0.355469H42.591C50.4027 0.355469 56.7426 6.29257 56.7426 13.6079C56.7426 20.9233 50.4027 26.8604 42.591 26.8604H28.4395V0.355469Z" fill="#DEA206"/>
<path d="M56.7426 40.1265C56.7426 47.4418 50.4027 53.379 42.591 53.379C34.7794 53.379 28.4395 47.4418 28.4395 40.1265C28.4395 32.8111 34.7794 26.874 42.591 26.874C50.4027 26.874 56.7426 32.8111 56.7426 40.1265Z" fill="#F8E2A5"/>
</svg>
