<svg width="81" height="80" viewBox="0 0 81 80" fill="none" xmlns="http://www.w3.org/2000/svg">
<path d="M7.91754 71.783L0.623047 0.355469H80.8625L73.568 71.783L40.6538 79.8574" fill="#F8E2A5"/>
<path d="M40.834 73.6462L67.3433 67.2799L73.5703 6.10059H40.834" fill="#DEA206"/>
<path d="M40.8303 32.6528H27.4867L26.5971 23.6467H40.8303V14.9512H40.6524H15.5664L15.7443 17.2803L18.2351 41.5036H40.8303V32.6528ZM40.8303 55.4786H40.6524L29.4437 52.8388L28.7321 45.8514H23.3946H18.7689L20.0143 59.671L40.6524 64.6399H40.8303V55.4786Z" fill="#DEA206"/>
<path d="M40.6543 32.6528V41.5036H53.1083L51.8629 52.8388L40.6543 55.4786V64.6399L61.2924 59.671L61.4703 58.1183L63.7832 34.9819L64.139 32.6528H61.2924H40.6543ZM40.6543 14.9512V20.3859V23.6467H65.0286L65.2065 21.7834L65.7403 17.2803L65.9182 14.9512H40.6543Z" fill="#182E35"/>
</svg>
