<svg width="47" height="80" viewBox="0 0 47 80" fill="none" xmlns="http://www.w3.org/2000/svg">
<path fill-rule="evenodd" clip-rule="evenodd" d="M16.0349 42.5421C16.0349 42.5421 13.8106 43.754 17.6196 44.1634C22.2354 44.6569 24.5931 44.5859 29.6781 43.6852C29.6781 43.6852 31.0168 44.4701 32.8856 45.1491C21.4832 49.7238 7.08007 44.8844 16.0349 42.5421ZM14.6411 36.5723C14.6411 36.5723 12.1457 38.3016 15.9581 38.6708C20.8889 39.1476 24.7811 39.1865 31.5203 37.9723C31.5203 37.9723 32.4508 38.8567 33.9152 39.3398C20.1309 43.1148 4.77891 39.637 14.6411 36.5723Z" fill="#F8E2A5"/>
<path fill-rule="evenodd" clip-rule="evenodd" d="M26.3868 26.4304C29.1977 29.4599 25.65 32.1844 25.65 32.1844C25.65 32.1844 32.784 28.737 29.5074 24.4183C26.4482 20.3927 24.1016 18.3928 36.8036 11.4961C36.8036 11.4961 16.8647 16.1568 26.3868 26.4304Z" fill="#F8E2A5"/>
<path fill-rule="evenodd" clip-rule="evenodd" d="M41.465 46.9551C41.465 46.9551 43.1115 48.2262 39.6513 49.2092C33.0715 51.0752 12.2606 51.6379 6.47991 49.2834C4.40341 48.4366 8.29939 47.2627 9.52509 47.0148C10.8035 46.756 11.533 46.8031 11.533 46.8031C9.22217 45.2795 -3.40353 49.7955 5.12086 51.091C28.3653 54.6199 47.4935 49.5023 41.465 46.9551ZM17.104 30.3832C17.104 30.3832 6.51953 32.7378 13.3563 33.5937C16.244 33.9551 21.9962 33.8719 27.3585 33.4507C31.7395 33.1065 36.137 32.37 36.137 32.37C36.137 32.37 34.5934 32.9902 33.4749 33.704C22.7247 36.3517 1.96069 35.1186 7.93897 32.4121C12.9935 30.1227 17.104 30.3832 17.104 30.3832ZM36.093 40.3203C47.02 35.005 41.9679 29.896 38.4406 30.5845C37.5782 30.7533 37.1912 30.8989 37.1912 30.8989C37.1912 30.8989 37.5129 30.4276 38.1246 30.2249C45.1015 27.9292 50.4662 36.9977 35.8751 40.589C35.8746 40.589 36.0428 40.4469 36.093 40.3203Z" fill="#F8E2A5"/>
<path fill-rule="evenodd" clip-rule="evenodd" d="M29.5059 0.355469C29.5059 0.355469 35.5562 6.02385 23.7658 14.7374C14.3104 21.7298 21.6101 25.7155 23.7629 30.2711C18.2427 25.6087 14.1935 21.5037 16.9097 17.684C20.8975 12.0772 31.9472 9.35811 29.5059 0.355469Z" fill="#F8E2A5"/>
<path fill-rule="evenodd" clip-rule="evenodd" d="M18.1793 54.7273C28.6662 55.3552 44.7733 54.3786 45.1555 49.7314C45.1555 49.7314 44.4221 51.4929 36.4876 52.8903C27.5357 54.4681 16.4927 54.2845 9.94531 53.2725C9.94531 53.2725 11.287 54.3121 18.1793 54.7273Z" fill="#F8E2A5"/>
<path fill-rule="evenodd" clip-rule="evenodd" d="M44.6711 63.0494H44.3523V62.8821H45.2127V63.0494H44.8939V63.8854H44.6711V63.0494ZM46.3882 63.0911H46.3843L46.0674 63.885H45.922L45.607 63.0911H45.6031V63.885H45.3915V62.8816H45.7021L45.994 63.5914L46.2858 62.8816H46.5935V63.885H46.3887L46.3882 63.0911ZM16.4611 72.4699C15.4721 73.2724 14.4266 73.7238 13.4879 73.7238C12.1506 73.7238 11.4249 72.9716 11.4249 71.7678C11.4249 70.4646 12.2018 69.511 15.3112 69.511H16.4606L16.4611 72.4699ZM19.1908 75.3533V66.4272C19.1908 64.146 17.8013 62.6405 14.4517 62.6405C12.4974 62.6405 10.7843 63.0924 9.39139 63.6683L9.79239 65.2493C10.8896 64.872 12.3081 64.5223 13.7004 64.5223C15.6301 64.5223 16.4606 65.2493 16.4606 66.7543V67.8829H15.4962C10.8089 67.8829 8.69375 69.5856 8.69375 72.1456C8.69375 74.3513 10.0876 75.6052 12.7115 75.6052C14.3981 75.6052 15.6581 74.9534 16.8345 73.9993L17.0485 75.3533H19.1908ZM28.3012 75.3533H24.8975L20.7991 62.8676H23.7723L26.316 70.5401L26.8822 72.8454C28.1654 69.511 29.0761 66.126 29.5317 62.8676H32.4228C31.6488 66.9787 30.2545 71.4923 28.3012 75.3533ZM41.3636 72.4699C40.3717 73.2724 39.3263 73.7238 38.3895 73.7238C37.0522 73.7238 36.3274 72.9716 36.3274 71.7678C36.3274 70.4646 37.1048 69.511 40.2123 69.511H41.3636V72.4699ZM44.0943 75.3533V66.4272C44.0943 64.146 42.7004 62.6405 39.3543 62.6405C37.3981 62.6405 35.6854 63.0924 34.2925 63.6683L34.6935 65.2493C35.7907 64.872 37.2121 64.5223 38.6049 64.5223C40.5317 64.5223 41.3631 65.2493 41.3631 66.7543V67.8829H40.3988C35.711 67.8829 33.5973 69.5856 33.5973 72.1456C33.5973 74.3513 34.9882 75.6052 37.6126 75.6052C39.3006 75.6052 40.5587 74.9534 41.738 73.9993L41.953 75.3533H44.0943ZM5.70074 77.4748C4.9229 78.5392 3.66482 79.382 2.28935 79.8574L0.941406 78.371C1.98932 77.8675 2.88698 77.0546 3.30489 76.2982C3.66482 75.6242 3.81508 74.7575 3.81508 72.683V58.4268H6.71628V72.4862C6.71628 75.261 6.47955 76.3824 5.70074 77.4748Z" fill="#F8E2A5"/>
</svg>
