<svg width="106" height="80" viewBox="0 0 106 80" fill="none" xmlns="http://www.w3.org/2000/svg">
<path fill-rule="evenodd" clip-rule="evenodd" d="M52.9754 69.4102C23.8776 69.4102 0.289062 53.9518 0.289062 34.8829C0.289062 15.8139 23.8776 0.355469 52.9754 0.355469C82.0733 0.355469 105.662 15.8139 105.662 34.8829C105.662 53.9518 82.0733 69.4102 52.9754 69.4102ZM61.04 13.8545C38.9231 13.8545 20.9938 24.4226 20.9938 37.4589C20.9938 50.4952 38.9231 61.0632 61.04 61.0632C83.1567 61.0632 99.4786 53.8381 99.4786 37.4589C99.4786 21.0848 83.1567 13.8545 61.04 13.8545Z" fill="#DEA206"/>
<path fill-rule="evenodd" clip-rule="evenodd" d="M80.5276 53.8246C80.5276 53.8246 83.7164 54.7662 85.5691 55.6834C86.2119 56.0017 87.3241 56.6369 88.1263 57.4708C88.9122 58.2875 89.2954 59.1152 89.2954 59.1152L101.862 79.8486L81.5505 79.8575L72.0521 62.4039C72.0521 62.4039 70.1072 59.1339 68.9104 58.1857C67.912 57.3949 67.4863 57.1133 66.4992 57.1133C65.8121 57.1133 61.6732 57.1133 61.6732 57.1133L61.677 79.8449L43.7031 79.8523V21.7861H79.797C79.797 21.7861 96.2365 22.0763 96.2365 37.3808C96.2365 52.6854 80.5276 53.8246 80.5276 53.8246ZM72.7097 34.3815L61.8285 34.3746L61.8231 44.248L72.7097 44.2446C72.7097 44.2446 77.7512 44.2293 77.7512 39.2221C77.7512 34.1142 72.7097 34.3815 72.7097 34.3815Z" fill="#F8E2A5"/>
</svg>
