<svg width="512" height="115" viewBox="0 0 512 115" fill="none" xmlns="http://www.w3.org/2000/svg">
<path d="M0.148369 80.78C0.114131 80.72 0.0798881 80.66 0 80.56C6.40246 69.55 24.7995 76.5 34.8997 70.09C41.9755 64.6 51.1512 65.19 59.9617 65.41C65.8963 65.4 71.5341 63.5 77.4915 63.69C84.9097 63.52 94.7017 71.64 99.6433 63.51C103.193 58.2 111.49 60.24 116.271 56.51C116.271 56.42 116.26 56.38 116.26 56.35C116.808 56.4 117.253 56.2 117.219 55.72C117.413 55.79 117.652 55.65 117.698 55.5C118.12 55.26 118.577 54.81 118.896 54.45C119.01 54.45 119.159 54.32 119.147 54.25C119.25 54.26 119.353 54.08 119.387 54.04C119.49 54.05 119.593 53.87 119.627 53.83C119.729 53.84 119.832 53.66 119.866 53.62C119.969 53.63 120.072 53.45 120.106 53.41C120.323 53.38 120.506 53.12 120.585 52.98C120.757 52.98 120.882 52.69 120.825 52.57C120.825 52.57 120.837 52.57 120.905 52.57C121.088 52.43 121.19 52.29 121.293 52.15C121.396 52.16 121.498 51.98 121.533 51.94C122.023 51.67 121.921 51.19 122.503 50.89C122.605 50.89 122.708 50.72 122.742 50.68C122.857 50.68 122.993 50.54 122.982 50.47C123.176 50.46 123.165 50.28 123.279 50.23C123.382 50.08 123.416 49.96 123.461 49.85C123.564 49.85 123.667 49.68 123.701 49.64C123.815 49.64 123.941 49.49 123.941 49.43C124.1 49.38 124.135 49.11 124.18 49.01C124.18 49.01 124.192 49.01 124.272 49C124.534 48.72 124.717 48.44 124.899 48.16C124.899 48.16 124.911 48.16 124.991 48.15C125.253 47.87 125.436 47.59 125.618 47.31C125.618 47.31 125.63 47.31 125.71 47.3C130.195 43.5 130.195 38.03 132.101 33.2C132.101 33.2 132.112 33.2 132.181 33.18C132.283 33.03 132.318 32.91 132.363 32.79C132.534 32.78 132.649 32.49 132.603 32.37C142.098 22.18 158.076 22.69 171.075 18.81C176.393 16.43 178.253 10.88 183.663 8.63C187.737 1.96 197.095 2.74001 203.966 0.0100098C209.432 1.17001 216.189 13.26 219.384 17.85C222.66 24.17 214.123 33.37 224.737 36.61C232.874 40.66 231.059 36.91 237.69 36.42C244.081 35.95 252.184 47.57 241.753 45.07C228.891 33.75 237.599 53.55 225.718 50.77C220.548 50.98 217.821 42.13 214.591 45.75C210.654 52.33 206.671 45.44 201.204 46.96C198.602 47.7 189.426 48.88 194.733 51.99C202.859 54.4 211.224 57.05 217.923 61.9C218.859 62.57 219.807 63.29 221.119 63.07C226.175 61.21 242.084 55.57 242.723 63.72C242.7 69.38 235.111 65.79 232.109 68.7C242.164 72.54 245.782 63.98 250.495 67.47C258.233 77.71 261.166 65.19 270.775 68.14C274.302 68.93 274.45 73.07 278.091 73.82C285.589 77.13 293.201 74.04 300.996 74.04C308.037 72.96 319.416 77.9 322.212 69.96C326.663 63.02 339.319 65.37 341.522 72.77C343.051 74.91 346.715 70.55 350.298 73.62C351.827 74.66 353.414 76.36 355.525 75.44C361.882 73.36 368.809 73.27 375.463 74.01C380.77 73.55 394.339 84.16 394.431 75.48C397.466 74.95 400.137 75.57 402.944 76.95C397.558 77.91 400.844 80.52 404.325 80.75C412.12 80.87 412.086 76.63 420.702 81.18C408.674 81.9 397.272 84.12 385.232 84.14C381.706 83.83 377.3 81.54 373.968 83.27C353.608 87.07 330.634 78.48 310.742 84.35C310.228 84.54 309.726 84.9 309.304 85.19C288.157 85.31 267.169 85.43 246.078 86.91C241.285 86.58 234.449 90.02 230.843 86.55C227.544 83.31 221.233 86.95 216.782 85.97C195.578 84.98 171.326 76.01 151.24 83.49C147.565 83.42 145.271 80.34 141.653 80.02C131.587 79.68 121.43 81.83 111.33 82.28C109.995 81.85 106.651 84 108.876 84.81C113.224 85.29 117.961 91.32 121.635 90.02C124.306 89.58 124.432 86.53 127.41 86.44C130.674 86.97 137.202 85.68 136.654 90.09C120.049 96.71 140.774 94.58 147.017 95.98C143.182 103.16 125.128 94.43 118.417 93.66C112.037 93.34 105.601 93.84 99.2097 92.98C90.2736 93.49 81.3832 95.27 72.4129 94.47C64.6637 93.39 57.839 89.35 49.8616 89.16C34.3633 87.93 17.3471 91.53 3.50364 83.5C3.50364 83.5 3.51505 83.5 3.50364 83.43C3.09279 83.13 2.69335 82.9 2.29391 82.66C2.23684 82.52 1.97436 82.27 1.80317 82.24C1.50645 81.82 0.958656 81.52 0.604866 81.19C0.604866 81.1 0.410827 81.01 0.365176 80.98C0.376589 80.89 0.171172 80.8 0.125522 80.77C0.15976 80.77 0.148369 80.78 0.148369 80.78Z" fill="#F9CFB3"/>
<path d="M353.745 110.62C339.125 112.75 324.254 112.79 309.624 114.76C304.511 114.97 300.026 111.45 294.719 111.45C283.409 110.3 271.836 111.31 261.291 106.96C250.107 104.57 238.352 105.08 227.076 102.38C256.829 95.71 287.962 109.71 317.818 102.75C329.173 95.89 343.234 98.74 356.05 99.46C378.59 99.13 401.004 98.23 423.533 100.16C427.607 101.34 433.986 98.83 436.406 102.49C432.103 104.01 427.299 105.81 422.973 103.92C411.869 105.58 398.744 102.11 388.667 106.59C377.437 109.28 365.054 107.46 353.745 110.62Z" fill="#F4D0B3"/>
<path d="M510.724 68.27C507.609 71.42 503.078 64.76 498.901 66.98C489.565 70.66 478.358 62.84 470.096 68.56C455.59 60.13 521.897 49.99 510.724 68.27Z" fill="#F5EEDB"/>
<path d="M300.391 50.34C306.702 43.07 319.906 38.32 327.45 46.91C334.058 49.68 340.826 39.93 350.743 49.47C356.495 53.18 351.953 61.77 357.602 64.52C373.386 65.12 379.252 75.03 394.294 75.5C394.853 84.15 380.382 73.5 375.474 74C368.809 73.26 361.882 73.35 355.536 75.43C353.402 76.35 351.839 74.66 350.309 73.61C346.783 70.55 343.005 74.89 341.533 72.76C339.33 65.36 326.674 63.01 322.223 69.95C319.427 77.89 308.049 72.95 301.007 74.03C286.387 74.85 281.788 78.53 270.775 68.13C261.223 65.19 258.176 77.69 250.495 67.46C245.542 63.98 242.335 72.54 232.109 68.69C235.111 65.79 242.7 69.37 242.723 63.71C242.095 55.58 226.175 61.17 221.119 63.06C219.806 63.29 218.859 62.56 217.923 61.89C211.681 57.26 203.863 54.89 196.342 52.39C187.931 49.91 197.575 47.66 201.204 46.96C206.659 45.43 210.653 52.33 214.591 45.75C217.786 42.13 220.594 50.99 225.718 50.77C237.77 53.5 228.697 33.75 241.753 45.07C252.173 47.58 244.115 35.96 237.69 36.42C231.048 36.91 232.897 40.66 224.737 36.6C214.123 33.35 222.671 24.18 219.384 17.84C216.348 11.89 211.27 7.03999 207.401 1.51999C220.571 2.57999 231.812 9.43001 241.125 17.23C243.99 19.4 248.247 17.07 251.739 18.03C272.978 23.56 265.092 23.42 268.116 34.97C267.203 40.39 263.654 41.05 267.443 48C267.876 49.94 270.684 50.15 271.471 48.28C273.491 43.07 283.763 38.24 287.631 44.2C288.99 46.54 287.951 49.83 290.724 51.43C294.662 54.39 298.382 55.84 300.391 50.34Z" fill="#F8EEDB"/>
<path d="M150.692 83.79C158.361 88.64 168.598 79.06 172.478 87.03C173.665 90.6 183.765 86.59 181.654 91.57C180.81 95.19 128.22 97.74 130.115 93.05C132.089 91.87 134.406 91.97 136.175 90.34C137.602 88.45 135.159 86.69 133.128 86.75C131.176 86.87 128.243 85.7001 126.748 86.7301C122.662 87.5801 122.583 92.67 117.241 89.02C115.712 86.83 107.221 85.32 108.225 83.58C111.547 81.26 122.183 82.26 127.125 81.09C140.067 79.67 139.165 79.45 150.692 83.79Z" fill="#F5EEDB"/>
<path d="M453.753 109.79C443.345 107.34 461.194 107.38 463.032 105.61C466.513 103.3 470.484 99.46 474.479 102.98C480.562 109.88 482.559 106.56 491.107 106.65C494.748 106.73 505.978 107.79 502.097 112.63C496.38 111.55 490.331 112.26 485.092 109.71C482 107.96 479.477 110.59 476.579 111.29C468.898 113.4 461.137 107.53 453.753 109.79Z" fill="#F5EEDB"/>
<path d="M453.753 109.88C461.08 107.4 468.909 113.46 476.578 111.28C479.477 110.58 482.011 107.95 485.092 109.7C490.285 112.28 496.379 111.47 502.028 112.67C502.097 112.82 502.085 112.91 502.063 113.06C494.724 115.4 485.868 113.32 477.891 114.01C469.845 114.56 461.959 115.11 454.335 112.31C453.879 111.55 453.639 110.79 453.753 109.88Z" fill="#F1D0B3"/>
<path d="M377.939 61.9C347.444 54.22 389.751 46.96 386.19 57.33C384.764 58.54 385.414 59.81 386.27 61.11C387.137 65.25 380.244 62.86 377.939 61.9Z" fill="#F6DBBF"/>
<path d="M470.13 68.63C476.658 63.37 485.902 68.94 493.651 67.88C504.299 65.67 500.681 67.01 509.675 69.2C508.716 76.25 500.088 69.36 495.763 71.75C488.082 74.57 475.562 74.59 470.13 68.63Z" fill="#F1D0B3"/>
<g opacity="0.5608">
<path d="M108.344 83.52C108.256 83.64 108.202 83.76 108.169 83.87C108.169 83.77 108.19 83.68 108.245 83.58C108.278 83.56 108.311 83.54 108.344 83.52Z" fill="#F5CF73"/>
<path d="M113.715 86.9C111.946 86.16 109.995 85.49 108.945 84.81C110.508 84.99 112.117 85.89 113.715 86.9Z" fill="#F5CF73"/>
<path d="M121.898 89.96C120.951 90.48 119.809 90.55 118.006 89.5C119.296 90.12 120.528 90.41 121.658 90.01C121.738 90 121.818 89.98 121.898 89.96Z" fill="#F5CF73"/>
<path d="M127.444 86.43C127.193 86.49 126.965 86.59 126.76 86.73C126.109 86.87 125.55 87.11 125.071 87.42C125.653 86.88 126.36 86.47 127.422 86.43C127.433 86.43 127.433 86.43 127.444 86.43Z" fill="#F5CF73"/>
<path d="M131.942 92.27C130.846 92.91 130.366 93.41 130.355 93.8C130.103 93.58 130.024 93.33 130.138 93.05C130.72 92.7 131.325 92.47 131.942 92.27Z" fill="#F5CF73"/>
<path d="M133.14 86.75C132.615 86.78 132.021 86.72 131.405 86.63C131.999 86.65 132.581 86.68 133.14 86.75Z" fill="#F5CF73"/>
<path d="M136.666 90.08C136.518 90.14 136.381 90.19 136.244 90.25C137.055 89.09 136.427 88 135.353 87.35C136.29 87.84 136.838 88.67 136.666 90.08Z" fill="#F5CF73"/>
<path d="M144.095 95.58C141.174 95.55 138.526 95.43 136.323 95.22C138.857 95.35 141.744 95.4 144.095 95.58Z" fill="#F5CF73"/>
<path d="M193.9 51.44C192.896 50.85 192.793 50.29 193.227 49.77C192.953 50.24 193.101 50.79 193.9 51.44Z" fill="#F5CF73"/>
<path d="M208.976 56.92C205.906 55.6 202.688 54.5 199.481 53.44C202.699 54.46 205.906 55.57 208.976 56.92Z" fill="#F5CF73"/>
<path d="M228.583 50.99C228.218 51.04 227.807 51.05 227.35 51.02C227.807 51.04 228.207 51.03 228.583 50.99Z" fill="#F5CF73"/>
<path d="M235.545 41.55C234.255 41.76 233.776 43.26 233.273 45.01C233.753 43.23 234.198 41.7 235.545 41.55Z" fill="#F5CF73"/>
<path d="M241.513 60.96C240.269 59.75 238.203 59.36 235.818 59.45C238.203 59.37 240.28 59.76 241.513 60.96Z" fill="#F5CF73"/>
<path d="M233.593 59.64C232.84 59.74 232.064 59.87 231.288 60.03C232.064 59.88 232.84 59.74 233.593 59.64Z" fill="#F5CF73"/>
<path d="M242.746 68.46C241.057 69.19 239.094 69.83 236.628 69.7C239.059 69.81 241.034 69.18 242.746 68.46Z" fill="#F5CF73"/>
<path d="M246.731 43.46C246.763 43.8 246.731 44.11 246.615 44.37C246.72 44.1 246.763 43.79 246.731 43.46Z" fill="#F5CF73"/>
<path d="M249.879 67.1C249.046 66.66 248.247 66.55 247.459 66.65C248.27 66.54 249.069 66.64 249.879 67.1Z" fill="#F5CF73"/>
<path d="M274.815 71.56C273.548 70.64 272.213 69.51 270.764 68.14C272.795 68.6 273.708 70.17 274.815 71.56Z" fill="#F5CF73"/>
<path d="M300.985 74.04C297.355 74.25 294.331 74.63 291.683 74.92C294.765 74.54 297.858 74.04 300.985 74.04Z" fill="#F5CF73"/>
<path d="M348.061 72.54C347.81 72.5 347.548 72.48 347.296 72.48C347.548 72.48 347.799 72.49 348.061 72.54Z" fill="#F5CF73"/>
<path d="M382.39 75.98C380.929 75.38 379.514 74.81 378.282 74.43C379.537 74.8 380.952 75.36 382.39 75.98Z" fill="#F5CF73"/>
<path d="M394.088 77.39C393.723 78.42 392.901 78.85 391.771 78.89C392.844 78.82 393.655 78.38 394.088 77.39Z" fill="#F5CF73"/>
<path d="M231.288 60.03C232.064 59.87 232.84 59.74 233.593 59.64C232.84 59.74 232.064 59.88 231.288 60.03Z" fill="#F5CF73"/>
<path d="M479.637 66.45C476.59 66.23 473.668 66.49 471.021 67.98C473.6 66.33 476.544 66.14 479.637 66.45Z" fill="#F5CF73"/>
<path d="M499.152 66.87C499.072 66.9 498.981 66.94 498.901 66.98C496.801 67.81 494.598 68.05 492.362 67.99C492.784 67.97 493.218 67.93 493.64 67.87C496.151 67.35 497.874 67.03 499.152 66.87Z" fill="#F5CF73"/>
<path d="M193.9 51.44C192.896 50.85 192.793 50.29 193.227 49.77C192.953 50.24 193.101 50.79 193.9 51.44Z" fill="#F5CF73"/>
<path d="M208.976 56.92C205.906 55.6 202.688 54.5 199.481 53.44C202.699 54.46 205.906 55.57 208.976 56.92Z" fill="#F5CF73"/>
<path d="M228.583 50.99C228.218 51.04 227.807 51.05 227.35 51.02C227.807 51.04 228.207 51.03 228.583 50.99Z" fill="#F5CF73"/>
<path d="M235.545 41.55C234.255 41.76 233.776 43.26 233.273 45.01C233.753 43.23 234.198 41.7 235.545 41.55Z" fill="#F5CF73"/>
<path d="M241.513 60.96C240.269 59.75 238.203 59.36 235.818 59.45C238.203 59.37 240.28 59.76 241.513 60.96Z" fill="#F5CF73"/>
<path d="M233.593 59.64C232.84 59.74 232.064 59.87 231.288 60.03C232.064 59.88 232.84 59.74 233.593 59.64Z" fill="#F5CF73"/>
<path d="M242.746 68.46C241.057 69.19 239.094 69.83 236.628 69.7C239.059 69.81 241.034 69.18 242.746 68.46Z" fill="#F5CF73"/>
<path d="M246.731 43.46C246.763 43.8 246.731 44.11 246.615 44.37C246.72 44.1 246.763 43.79 246.731 43.46Z" fill="#F5CF73"/>
<path d="M249.879 67.1C249.046 66.66 248.247 66.55 247.459 66.65C248.27 66.54 249.069 66.64 249.879 67.1Z" fill="#F5CF73"/>
<path d="M274.815 71.56C273.548 70.64 272.213 69.51 270.764 68.14C272.795 68.6 273.708 70.17 274.815 71.56Z" fill="#F5CF73"/>
<path d="M300.985 74.04C297.355 74.25 294.331 74.63 291.683 74.92C294.765 74.54 297.858 74.04 300.985 74.04Z" fill="#F5CF73"/>
<path d="M348.061 72.54C347.81 72.5 347.548 72.48 347.296 72.48C347.548 72.48 347.799 72.49 348.061 72.54Z" fill="#F5CF73"/>
<path d="M382.39 75.98C380.929 75.38 379.514 74.81 378.282 74.43C379.537 74.8 380.952 75.36 382.39 75.98Z" fill="#F5CF73"/>
<path d="M394.088 77.39C393.723 78.42 392.901 78.85 391.771 78.89C392.844 78.82 393.655 78.38 394.088 77.39Z" fill="#F5CF73"/>
<path d="M231.288 60.03C232.064 59.87 232.84 59.74 233.593 59.64C232.84 59.74 232.064 59.88 231.288 60.03Z" fill="#F5CF73"/>
<path d="M470.096 68.56C470.381 68.36 470.666 68.18 470.952 68.02C470.678 68.2 470.404 68.4 470.13 68.62C475.562 74.59 488.082 74.57 495.751 71.74C500.077 69.35 508.704 76.24 509.663 69.19C509.515 69.15 509.366 69.12 509.229 69.08C509.754 68.99 510.257 68.74 510.724 68.27C521.897 49.99 455.59 60.13 470.096 68.56ZM471.02 67.98C473.599 66.33 476.544 66.14 479.637 66.45C476.589 66.23 473.668 66.49 471.02 67.98ZM499.152 66.87C499.072 66.9 498.981 66.94 498.901 66.98C496.801 67.81 494.598 68.05 492.362 67.99C488.276 68.19 483.859 66.87 479.682 66.45C483.814 66.75 488.162 67.89 492.362 67.99C492.784 67.97 493.218 67.93 493.64 67.87C496.151 67.35 497.874 67.03 499.152 66.87C500.841 66.1 502.576 66.73 504.253 67.52C502.473 66.86 501.663 66.55 499.152 66.87Z" fill="#F5CF73"/>
<path d="M231.288 60.03C232.064 59.87 232.84 59.74 233.593 59.64C232.84 59.74 232.064 59.88 231.288 60.03Z" fill="#F5CF73"/>
<path d="M108.344 83.52C108.256 83.64 108.202 83.76 108.169 83.87C108.169 83.77 108.19 83.68 108.245 83.58C108.278 83.56 108.311 83.54 108.344 83.52Z" fill="#F5CF73"/>
<path d="M113.715 86.9C111.946 86.16 109.995 85.49 108.945 84.81C110.508 84.99 112.117 85.89 113.715 86.9Z" fill="#F5CF73"/>
<path d="M121.898 89.96C120.951 90.48 119.809 90.55 118.006 89.5C119.296 90.12 120.528 90.41 121.658 90.01C121.738 90 121.818 89.98 121.898 89.96Z" fill="#F5CF73"/>
<path d="M127.444 86.43C127.193 86.49 126.965 86.59 126.76 86.73C126.109 86.87 125.55 87.11 125.071 87.42C125.653 86.88 126.36 86.47 127.422 86.43C127.433 86.43 127.433 86.43 127.444 86.43Z" fill="#F5CF73"/>
<path d="M131.942 92.27C130.846 92.91 130.366 93.41 130.355 93.8C130.103 93.58 130.024 93.33 130.138 93.05C130.72 92.7 131.325 92.47 131.942 92.27Z" fill="#F5CF73"/>
<path d="M133.14 86.75C132.615 86.78 132.021 86.72 131.405 86.63C131.999 86.65 132.581 86.68 133.14 86.75Z" fill="#F5CF73"/>
<path d="M136.666 90.08C136.518 90.14 136.381 90.19 136.244 90.25C137.055 89.09 136.427 88 135.353 87.35C136.29 87.84 136.838 88.67 136.666 90.08Z" fill="#F5CF73"/>
<path d="M144.095 95.58C141.174 95.55 138.526 95.43 136.323 95.22C138.857 95.35 141.744 95.4 144.095 95.58Z" fill="#F5CF73"/>
<path d="M467.86 111.12C467.403 111.02 466.946 110.92 466.478 110.81C466.946 110.92 467.403 111.03 467.86 111.12Z" fill="#F5CF73"/>
<path d="M459.368 109.36C461.719 109.59 464.093 110.24 466.478 110.81C464.093 110.25 461.719 109.62 459.368 109.36Z" fill="#F5CF73"/>
<path d="M477.378 111.03C477.115 111.13 476.841 111.22 476.567 111.28C476.475 111.3 476.384 111.33 476.293 111.34C476.384 111.32 476.475 111.3 476.567 111.27C476.841 111.21 477.115 111.12 477.378 111.03Z" fill="#F5CF73"/>
<path d="M498.468 112.14C496.094 111.9 493.697 111.8 491.369 111.47C493.709 111.79 496.105 111.89 498.468 112.14Z" fill="#F5CF73"/>
<path d="M467.86 111.12C467.403 111.02 466.946 110.92 466.478 110.81C466.946 110.92 467.403 111.03 467.86 111.12Z" fill="#F5CF73"/>
<path d="M459.368 109.36C461.719 109.59 464.093 110.24 466.478 110.81C464.093 110.25 461.719 109.62 459.368 109.36Z" fill="#F5CF73"/>
<path d="M477.378 111.03C477.115 111.13 476.841 111.22 476.567 111.28C476.475 111.3 476.384 111.33 476.293 111.34C476.384 111.32 476.475 111.3 476.567 111.27C476.841 111.21 477.115 111.12 477.378 111.03Z" fill="#F5CF73"/>
<path d="M498.468 112.14C496.094 111.9 493.697 111.8 491.369 111.47C493.709 111.79 496.105 111.89 498.468 112.14Z" fill="#F5CF73"/>
<path d="M246.078 86.9C267.157 85.42 288.157 85.3 309.304 85.18C309.726 84.89 310.228 84.53 310.742 84.34C330.634 78.48 353.608 87.07 373.968 83.26C377.3 81.53 381.706 83.82 385.221 84.13C397.272 84.11 408.674 81.89 420.702 81.17C412.097 76.62 412.131 80.86 404.325 80.74C400.844 80.52 397.558 77.9 402.944 76.94C400.148 75.56 397.466 74.94 394.442 75.47C394.431 76.23 394.316 76.84 394.111 77.32C394.282 76.84 394.339 76.24 394.294 75.5C379.252 75.03 373.386 65.12 357.602 64.52C351.953 61.76 356.495 53.17 350.743 49.46C340.837 39.93 334.058 49.67 327.45 46.9C319.906 38.32 306.702 43.07 300.391 50.34C298.382 55.84 294.662 54.38 290.747 51.43C287.974 49.83 289.001 46.54 287.654 44.2C283.774 38.24 273.514 43.08 271.483 48.28C270.695 50.15 267.888 49.94 267.454 48C263.654 41.05 267.214 40.39 268.127 34.97C265.103 23.42 272.978 23.56 251.739 18.03C248.247 17.07 243.99 19.4 241.125 17.23C231.813 9.43001 220.571 2.57999 207.401 1.51999C207.641 1.86999 207.892 2.20999 208.143 2.54999C206.728 1.21999 205.312 0.28 203.966 0C197.095 2.73 187.737 1.95 183.663 8.62C178.253 10.87 176.393 16.42 171.075 18.8C158.064 22.69 142.098 22.17 132.603 32.36C132.649 32.49 132.534 32.78 132.363 32.79C132.318 32.91 132.283 33.03 132.181 33.17C132.124 33.2 132.112 33.2 132.112 33.2C130.206 38.03 130.206 43.49 125.721 47.3C125.641 47.3 125.63 47.3 125.63 47.3C125.447 47.58 125.265 47.85 125.002 48.14C124.922 48.14 124.911 48.14 124.911 48.14C124.728 48.42 124.534 48.7 124.283 48.98C124.203 48.98 124.192 48.99 124.192 48.99C124.135 49.08 124.112 49.35 123.941 49.4C123.952 49.47 123.815 49.62 123.712 49.61C123.678 49.66 123.564 49.83 123.461 49.83C123.427 49.94 123.382 50.06 123.279 50.21C123.165 50.26 123.176 50.44 122.982 50.45C122.993 50.52 122.857 50.67 122.742 50.67C122.708 50.71 122.617 50.88 122.514 50.88C121.932 51.18 122.035 51.66 121.544 51.93C121.51 51.97 121.407 52.15 121.304 52.14C121.202 52.28 121.088 52.42 120.916 52.56C120.837 52.56 120.825 52.56 120.825 52.56C120.882 52.68 120.757 52.97 120.585 52.97C120.494 53.11 120.323 53.37 120.106 53.4C120.072 53.44 119.969 53.62 119.866 53.61C119.832 53.65 119.729 53.83 119.627 53.82C119.581 53.86 119.49 54.04 119.387 54.03C119.341 54.07 119.239 54.25 119.136 54.24C119.147 54.31 119.01 54.44 118.896 54.45C118.577 54.81 118.12 55.25 117.698 55.49C117.652 55.64 117.401 55.79 117.219 55.71C117.242 56.19 116.808 56.39 116.249 56.34C116.26 56.38 116.26 56.41 116.26 56.5C111.478 60.23 103.181 58.19 99.6319 63.5C94.6903 71.64 84.8983 63.52 77.4915 63.69C71.5341 63.5 65.8963 65.4 59.9617 65.41C51.1512 65.19 41.9755 64.6 34.8997 70.09C24.7881 76.5 6.40246 69.55 0 80.56C0.0798881 80.66 0.102719 80.72 0.148369 80.78L0.159758 80.77C0.205409 80.8 0.410825 80.89 0.399413 80.98C0.445063 81.01 0.639102 81.1 0.639102 81.19C0.992893 81.52 1.52927 81.82 1.83741 82.24C1.99719 82.27 2.25969 82.52 2.31675 82.66C2.7162 82.89 3.11563 83.12 3.52649 83.42C3.5379 83.49 3.52649 83.5 3.52649 83.5C17.3585 91.52 34.3861 87.92 49.8844 89.15C57.8618 89.35 64.6866 93.39 72.4357 94.47C81.406 95.26 90.2964 93.48 99.2325 92.97C105.624 93.83 112.049 93.33 118.428 93.65C125.139 94.43 143.205 103.16 147.028 95.97C146.241 95.79 145.237 95.67 144.095 95.58C141.174 95.55 138.526 95.43 136.323 95.22C138.857 95.35 141.744 95.4 144.095 95.58C159.183 95.78 181.118 93.9 181.666 91.57C183.777 86.59 173.677 90.6 172.49 87.03C168.61 79.06 158.361 88.64 150.692 83.79C139.165 79.44 140.067 79.67 127.148 81.09C124.169 81.79 119.125 81.72 114.856 82.05C123.792 81.35 132.763 79.71 141.665 80.01C145.282 80.33 147.576 83.41 151.251 83.48C171.326 76 195.589 84.97 216.782 85.96C221.233 86.94 227.533 83.3 230.843 86.54C234.449 90.01 241.274 86.57 246.078 86.9ZM394.088 77.39C393.723 78.42 392.901 78.85 391.771 78.89C392.844 78.82 393.655 78.38 394.088 77.39ZM382.39 75.98C380.93 75.38 379.514 74.81 378.282 74.43C379.537 74.8 380.952 75.36 382.39 75.98ZM348.061 72.54C347.81 72.5 347.548 72.48 347.297 72.48C347.548 72.48 347.799 72.49 348.061 72.54ZM300.984 74.04C297.355 74.25 294.331 74.63 291.683 74.92C294.764 74.54 297.857 74.04 300.984 74.04ZM274.815 71.56C278.125 73.96 280.921 74.95 283.888 75.24C281.948 75.09 280.008 74.67 278.079 73.82C276.538 73.51 275.625 72.58 274.815 71.56C273.548 70.64 272.213 69.51 270.764 68.14C272.795 68.6 273.708 70.17 274.815 71.56ZM249.879 67.1C249.046 66.66 248.247 66.55 247.459 66.65C248.27 66.54 249.068 66.64 249.879 67.1ZM246.74 43.46C246.774 43.8 246.74 44.11 246.615 44.37C246.729 44.1 246.774 43.79 246.74 43.46ZM246.341 66.91C245.736 67.12 245.108 67.39 244.435 67.69C245.108 67.38 245.736 67.1 246.341 66.91ZM108.248 83.58C108.283 83.56 108.317 83.54 108.351 83.52C108.26 83.64 108.203 83.76 108.169 83.87C108.169 83.77 108.191 83.68 108.248 83.58ZM108.945 84.81C108.922 84.8 108.91 84.8 108.888 84.8C108.26 84.57 108.077 84.24 108.169 83.88C108.18 84.19 108.465 84.5 108.945 84.81C110.508 84.99 112.117 85.89 113.715 86.9C111.946 86.16 109.995 85.49 108.945 84.81ZM130.355 93.81C131.062 94.47 133.208 94.93 136.244 95.22C132.98 95.05 130.355 94.74 130.355 93.81ZM136.666 90.08C136.517 90.14 136.38 90.19 136.244 90.25C136.232 90.28 136.209 90.31 136.186 90.34C134.943 91.49 133.425 91.78 131.941 92.27C130.845 92.91 130.366 93.41 130.355 93.8C130.104 93.58 130.024 93.33 130.138 93.05C130.72 92.7 131.325 92.47 131.941 92.27C132.888 91.71 134.292 91.04 136.244 90.25C137.054 89.09 136.426 88 135.353 87.35C136.289 87.84 136.837 88.67 136.666 90.08ZM135.182 87.26C134.6 87 133.904 86.84 133.151 86.75C133.835 86.73 134.566 86.92 135.182 87.26ZM127.422 86.43C127.433 86.43 127.433 86.43 127.444 86.43C128.54 86.13 130.024 86.44 131.405 86.63C131.998 86.65 132.58 86.68 133.139 86.75C132.614 86.78 132.021 86.72 131.405 86.63C129.978 86.58 128.529 86.6 127.444 86.43C127.193 86.49 126.965 86.59 126.76 86.73C126.109 86.87 125.55 87.11 125.071 87.42C125.653 86.88 126.36 86.47 127.422 86.43ZM117.253 89.02C117.515 89.2 117.767 89.36 118.006 89.5C119.296 90.12 120.528 90.41 121.658 90.01C121.738 90 121.818 89.98 121.898 89.96C120.951 90.48 119.809 90.55 118.006 89.5C116.637 88.85 115.199 87.83 113.738 86.91C115.301 87.55 116.705 88.24 117.253 89.02ZM197.118 47.93C195.418 48.43 193.831 49.05 193.238 49.76C193.706 48.96 195.372 48.37 197.118 47.93ZM194.722 51.99C194.391 51.8 194.117 51.61 193.9 51.44C192.896 50.85 192.793 50.29 193.227 49.77C192.953 50.24 193.101 50.79 193.9 51.44C194.436 51.75 195.224 52.07 196.331 52.4C197.278 52.71 198.214 53.02 199.161 53.34C197.678 52.87 196.194 52.43 194.722 51.99ZM199.481 53.44C202.699 54.46 205.906 55.57 208.976 56.92C205.906 55.6 202.688 54.5 199.481 53.44ZM212.605 58.64C214.465 59.59 216.246 60.66 217.912 61.9C216.246 60.69 214.465 59.61 212.605 58.64ZM215.025 11.2C216.668 13.32 218.186 15.49 219.384 17.84C218.289 16.27 216.771 13.8 215.025 11.2ZM236.629 69.7C239.06 69.81 241.034 69.18 242.746 68.46C241.057 69.19 239.094 69.83 236.629 69.7ZM241.205 44.6C238.74 42.53 237.119 41.65 236.012 41.54C237.119 41.61 238.74 42.49 241.205 44.6ZM235.544 41.55C234.255 41.76 233.775 43.26 233.273 45.01C233.753 43.23 234.198 41.7 235.544 41.55ZM227.35 51.02C227.807 51.04 228.206 51.03 228.583 50.99C228.218 51.04 227.807 51.05 227.35 51.02ZM232.897 46.35C232.429 47.96 231.778 49.56 230.352 50.41C231.755 49.55 232.406 47.95 232.897 46.35Z" fill="#F5CF73"/>
<path d="M436.417 102.49C432.115 104.02 427.31 105.81 422.985 103.92C411.88 105.59 398.756 102.11 388.69 106.6C377.437 109.27 365.054 107.46 353.745 110.62C339.125 112.75 324.254 112.79 309.624 114.76C304.511 114.97 300.026 111.46 294.719 111.45C283.42 110.3 271.848 111.31 261.291 106.96C250.118 104.58 238.352 105.08 227.076 102.38C256.829 95.71 287.962 109.72 317.818 102.76C329.185 95.8901 343.234 98.75 356.061 99.47C378.59 99.14 401.016 98.2301 423.544 100.17C427.618 101.34 433.998 98.84 436.417 102.49Z" fill="#F5CF73"/>
<path d="M386.19 57.33C384.764 58.53 385.403 59.81 386.27 61.1C387.137 65.25 380.244 62.86 377.939 61.9C347.444 54.21 389.751 46.95 386.19 57.33Z" fill="#F5CF73"/>
<path d="M491.095 106.63C482.536 106.54 480.55 109.86 474.467 102.97C470.473 99.44 466.501 103.29 463.02 105.6C461.194 107.37 443.345 107.33 453.753 109.78C454.883 109.43 456.013 109.28 457.166 109.27C456.025 109.31 454.883 109.49 453.753 109.87C453.639 110.79 453.879 111.55 454.335 112.3C461.959 115.11 469.845 114.56 477.891 114.01C485.868 113.32 494.725 115.4 502.063 113.06C502.074 112.9 502.086 112.81 502.029 112.66C500.979 112.44 499.917 112.29 498.845 112.17C499.929 112.28 501.013 112.42 502.086 112.62C505.966 107.78 494.736 106.72 491.095 106.63ZM466.478 110.81C464.093 110.25 461.708 109.61 459.368 109.36C461.719 109.59 464.093 110.24 466.478 110.81ZM476.567 111.28C476.476 111.3 476.385 111.33 476.293 111.34C476.385 111.32 476.476 111.3 476.567 111.27C476.841 111.21 477.115 111.12 477.378 111.03C477.115 111.13 476.841 111.22 476.567 111.28ZM491.369 111.47C493.709 111.79 496.106 111.89 498.468 112.14C496.094 111.9 493.698 111.8 491.369 111.47Z" fill="#F5CF73"/>
<path d="M479.637 66.45C476.59 66.23 473.668 66.49 471.021 67.98C473.6 66.33 476.544 66.14 479.637 66.45Z" fill="#F5CF73"/>
<path d="M499.152 66.87C499.072 66.9 498.981 66.94 498.901 66.98C496.801 67.81 494.598 68.05 492.362 67.99C492.784 67.97 493.218 67.93 493.64 67.87C496.151 67.35 497.874 67.03 499.152 66.87Z" fill="#F5CF73"/>
</g>
<g opacity="0.5608">
<path d="M108.344 83.52C108.256 83.64 108.202 83.76 108.169 83.87C108.169 83.77 108.19 83.68 108.245 83.58C108.278 83.56 108.311 83.54 108.344 83.52Z" fill="#FFB62A"/>
<path d="M113.715 86.9C111.946 86.16 109.995 85.49 108.945 84.81C110.508 84.99 112.117 85.89 113.715 86.9Z" fill="#FFB62A"/>
<path d="M121.898 89.96C120.951 90.48 119.809 90.55 118.006 89.5C119.296 90.12 120.528 90.41 121.658 90.01C121.738 90 121.818 89.98 121.898 89.96Z" fill="#FFB62A"/>
<path d="M127.444 86.43C127.193 86.49 126.965 86.59 126.76 86.73C126.109 86.87 125.55 87.11 125.071 87.42C125.653 86.88 126.36 86.47 127.422 86.43C127.433 86.43 127.433 86.43 127.444 86.43Z" fill="#FFB62A"/>
<path d="M131.942 92.27C130.846 92.91 130.366 93.41 130.355 93.8C130.103 93.58 130.024 93.33 130.138 93.05C130.72 92.7 131.325 92.47 131.942 92.27Z" fill="#FFB62A"/>
<path d="M133.14 86.75C132.615 86.78 132.021 86.72 131.405 86.63C131.999 86.65 132.581 86.68 133.14 86.75Z" fill="#FFB62A"/>
<path d="M136.666 90.08C136.518 90.14 136.381 90.19 136.244 90.25C137.055 89.09 136.427 88 135.353 87.35C136.29 87.84 136.838 88.67 136.666 90.08Z" fill="#FFB62A"/>
<path d="M144.095 95.58C141.174 95.55 138.526 95.43 136.323 95.22C138.857 95.35 141.744 95.4 144.095 95.58Z" fill="#FFB62A"/>
<path d="M193.9 51.44C192.896 50.85 192.793 50.29 193.227 49.77C192.953 50.24 193.101 50.79 193.9 51.44Z" fill="#FFB62A"/>
<path d="M208.976 56.92C205.906 55.6 202.688 54.5 199.481 53.44C202.699 54.46 205.906 55.57 208.976 56.92Z" fill="#FFB62A"/>
<path d="M228.583 50.99C228.218 51.04 227.807 51.05 227.35 51.02C227.807 51.04 228.207 51.03 228.583 50.99Z" fill="#FFB62A"/>
<path d="M235.545 41.55C234.255 41.76 233.776 43.26 233.273 45.01C233.753 43.23 234.198 41.7 235.545 41.55Z" fill="#FFB62A"/>
<path d="M241.513 60.96C240.269 59.75 238.203 59.36 235.818 59.45C238.203 59.37 240.28 59.76 241.513 60.96Z" fill="#FFB62A"/>
<path d="M233.593 59.64C232.84 59.74 232.064 59.87 231.288 60.03C232.064 59.88 232.84 59.74 233.593 59.64Z" fill="#FFB62A"/>
<path d="M242.746 68.46C241.057 69.19 239.094 69.83 236.628 69.7C239.059 69.81 241.034 69.18 242.746 68.46Z" fill="#FFB62A"/>
<path d="M246.731 43.46C246.763 43.8 246.731 44.11 246.615 44.37C246.72 44.1 246.763 43.79 246.731 43.46Z" fill="#FFB62A"/>
<path d="M249.879 67.1C249.046 66.66 248.247 66.55 247.459 66.65C248.27 66.54 249.069 66.64 249.879 67.1Z" fill="#FFB62A"/>
<path d="M274.815 71.56C273.548 70.64 272.213 69.51 270.764 68.14C272.795 68.6 273.708 70.17 274.815 71.56Z" fill="#FFB62A"/>
<path d="M300.985 74.04C297.355 74.25 294.331 74.63 291.683 74.92C294.765 74.54 297.858 74.04 300.985 74.04Z" fill="#FFB62A"/>
<path d="M348.061 72.54C347.81 72.5 347.548 72.48 347.296 72.48C347.548 72.48 347.799 72.49 348.061 72.54Z" fill="#FFB62A"/>
<path d="M382.39 75.98C380.929 75.38 379.514 74.81 378.282 74.43C379.537 74.8 380.952 75.36 382.39 75.98Z" fill="#FFB62A"/>
<path d="M394.088 77.39C393.723 78.42 392.901 78.85 391.771 78.89C392.844 78.82 393.655 78.38 394.088 77.39Z" fill="#FFB62A"/>
<path d="M231.288 60.03C232.064 59.87 232.84 59.74 233.593 59.64C232.84 59.74 232.064 59.88 231.288 60.03Z" fill="#FFB62A"/>
<path d="M479.637 66.45C476.59 66.23 473.668 66.49 471.021 67.98C473.6 66.33 476.544 66.14 479.637 66.45Z" fill="#FFB62A"/>
<path d="M499.152 66.87C499.072 66.9 498.981 66.94 498.901 66.98C496.801 67.81 494.598 68.05 492.362 67.99C492.784 67.97 493.218 67.93 493.64 67.87C496.151 67.35 497.874 67.03 499.152 66.87Z" fill="#FFB62A"/>
<path d="M193.9 51.44C192.896 50.85 192.793 50.29 193.227 49.77C192.953 50.24 193.101 50.79 193.9 51.44Z" fill="#FFB62A"/>
<path d="M208.976 56.92C205.906 55.6 202.688 54.5 199.481 53.44C202.699 54.46 205.906 55.57 208.976 56.92Z" fill="#FFB62A"/>
<path d="M228.583 50.99C228.218 51.04 227.807 51.05 227.35 51.02C227.807 51.04 228.207 51.03 228.583 50.99Z" fill="#FFB62A"/>
<path d="M235.545 41.55C234.255 41.76 233.776 43.26 233.273 45.01C233.753 43.23 234.198 41.7 235.545 41.55Z" fill="#FFB62A"/>
<path d="M241.513 60.96C240.269 59.75 238.203 59.36 235.818 59.45C238.203 59.37 240.28 59.76 241.513 60.96Z" fill="#FFB62A"/>
<path d="M233.593 59.64C232.84 59.74 232.064 59.87 231.288 60.03C232.064 59.88 232.84 59.74 233.593 59.64Z" fill="#FFB62A"/>
<path d="M242.746 68.46C241.057 69.19 239.094 69.83 236.628 69.7C239.059 69.81 241.034 69.18 242.746 68.46Z" fill="#FFB62A"/>
<path d="M246.731 43.46C246.763 43.8 246.731 44.11 246.615 44.37C246.72 44.1 246.763 43.79 246.731 43.46Z" fill="#FFB62A"/>
<path d="M249.879 67.1C249.046 66.66 248.247 66.55 247.459 66.65C248.27 66.54 249.069 66.64 249.879 67.1Z" fill="#FFB62A"/>
<path d="M274.815 71.56C273.548 70.64 272.213 69.51 270.764 68.14C272.795 68.6 273.708 70.17 274.815 71.56Z" fill="#FFB62A"/>
<path d="M300.985 74.04C297.355 74.25 294.331 74.63 291.683 74.92C294.765 74.54 297.858 74.04 300.985 74.04Z" fill="#FFB62A"/>
<path d="M348.061 72.54C347.81 72.5 347.548 72.48 347.296 72.48C347.548 72.48 347.799 72.49 348.061 72.54Z" fill="#FFB62A"/>
<path d="M382.39 75.98C380.929 75.38 379.514 74.81 378.282 74.43C379.537 74.8 380.952 75.36 382.39 75.98Z" fill="#FFB62A"/>
<path d="M394.088 77.39C393.723 78.42 392.901 78.85 391.771 78.89C392.844 78.82 393.655 78.38 394.088 77.39Z" fill="#FFB62A"/>
<path d="M231.288 60.03C232.064 59.87 232.84 59.74 233.593 59.64C232.84 59.74 232.064 59.88 231.288 60.03Z" fill="#FFB62A"/>
<path d="M470.096 68.56C470.381 68.36 470.666 68.18 470.952 68.02C470.678 68.2 470.404 68.4 470.13 68.62C475.562 74.59 488.082 74.57 495.751 71.74C500.077 69.35 508.704 76.24 509.663 69.19C509.515 69.15 509.366 69.12 509.229 69.08C509.754 68.99 510.257 68.74 510.724 68.27C521.897 49.99 455.59 60.13 470.096 68.56ZM471.02 67.98C473.599 66.33 476.544 66.14 479.637 66.45C476.589 66.23 473.668 66.49 471.02 67.98ZM499.152 66.87C499.072 66.9 498.981 66.94 498.901 66.98C496.801 67.81 494.598 68.05 492.362 67.99C488.276 68.19 483.859 66.87 479.682 66.45C483.814 66.75 488.162 67.89 492.362 67.99C492.784 67.97 493.218 67.93 493.64 67.87C496.151 67.35 497.874 67.03 499.152 66.87C500.841 66.1 502.576 66.73 504.253 67.52C502.473 66.86 501.663 66.55 499.152 66.87Z" fill="#FFB62A"/>
<path d="M231.288 60.03C232.064 59.87 232.84 59.74 233.593 59.64C232.84 59.74 232.064 59.88 231.288 60.03Z" fill="#FFB62A"/>
<path d="M108.344 83.52C108.256 83.64 108.202 83.76 108.169 83.87C108.169 83.77 108.19 83.68 108.245 83.58C108.278 83.56 108.311 83.54 108.344 83.52Z" fill="#FFB62A"/>
<path d="M113.715 86.9C111.946 86.16 109.995 85.49 108.945 84.81C110.508 84.99 112.117 85.89 113.715 86.9Z" fill="#FFB62A"/>
<path d="M121.898 89.96C120.951 90.48 119.809 90.55 118.006 89.5C119.296 90.12 120.528 90.41 121.658 90.01C121.738 90 121.818 89.98 121.898 89.96Z" fill="#FFB62A"/>
<path d="M127.444 86.43C127.193 86.49 126.965 86.59 126.76 86.73C126.109 86.87 125.55 87.11 125.071 87.42C125.653 86.88 126.36 86.47 127.422 86.43C127.433 86.43 127.433 86.43 127.444 86.43Z" fill="#FFB62A"/>
<path d="M131.942 92.27C130.846 92.91 130.366 93.41 130.355 93.8C130.103 93.58 130.024 93.33 130.138 93.05C130.72 92.7 131.325 92.47 131.942 92.27Z" fill="#FFB62A"/>
<path d="M133.14 86.75C132.615 86.78 132.021 86.72 131.405 86.63C131.999 86.65 132.581 86.68 133.14 86.75Z" fill="#FFB62A"/>
<path d="M136.666 90.08C136.518 90.14 136.381 90.19 136.244 90.25C137.055 89.09 136.427 88 135.353 87.35C136.29 87.84 136.838 88.67 136.666 90.08Z" fill="#FFB62A"/>
<path d="M144.095 95.58C141.174 95.55 138.526 95.43 136.323 95.22C138.857 95.35 141.744 95.4 144.095 95.58Z" fill="#FFB62A"/>
<path d="M467.86 111.12C467.403 111.02 466.946 110.92 466.478 110.81C466.946 110.92 467.403 111.03 467.86 111.12Z" fill="#FFB62A"/>
<path d="M459.368 109.36C461.719 109.59 464.093 110.24 466.478 110.81C464.093 110.25 461.719 109.62 459.368 109.36Z" fill="#FFB62A"/>
<path d="M477.378 111.03C477.115 111.13 476.841 111.22 476.567 111.28C476.475 111.3 476.384 111.33 476.293 111.34C476.384 111.32 476.475 111.3 476.567 111.27C476.841 111.21 477.115 111.12 477.378 111.03Z" fill="#FFB62A"/>
<path d="M498.468 112.14C496.094 111.9 493.697 111.8 491.369 111.47C493.709 111.79 496.105 111.89 498.468 112.14Z" fill="#FFB62A"/>
<path d="M467.86 111.12C467.403 111.02 466.946 110.92 466.478 110.81C466.946 110.92 467.403 111.03 467.86 111.12Z" fill="#FFB62A"/>
<path d="M459.368 109.36C461.719 109.59 464.093 110.24 466.478 110.81C464.093 110.25 461.719 109.62 459.368 109.36Z" fill="#FFB62A"/>
<path d="M477.378 111.03C477.115 111.13 476.841 111.22 476.567 111.28C476.475 111.3 476.384 111.33 476.293 111.34C476.384 111.32 476.475 111.3 476.567 111.27C476.841 111.21 477.115 111.12 477.378 111.03Z" fill="#FFB62A"/>
<path d="M498.468 112.14C496.094 111.9 493.697 111.8 491.369 111.47C493.709 111.79 496.105 111.89 498.468 112.14Z" fill="#FFB62A"/>
<path d="M246.078 86.9C267.157 85.42 288.157 85.3 309.304 85.18C309.726 84.89 310.228 84.53 310.742 84.34C330.634 78.48 353.608 87.07 373.968 83.26C377.3 81.53 381.706 83.82 385.221 84.13C397.272 84.11 408.674 81.89 420.702 81.17C412.097 76.62 412.131 80.86 404.325 80.74C400.844 80.52 397.558 77.9 402.944 76.94C400.148 75.56 397.466 74.94 394.442 75.47C394.431 76.23 394.316 76.84 394.111 77.32C394.282 76.84 394.339 76.24 394.294 75.5C379.252 75.03 373.386 65.12 357.602 64.52C351.953 61.76 356.495 53.17 350.743 49.46C340.837 39.93 334.058 49.67 327.45 46.9C319.906 38.32 306.702 43.07 300.391 50.34C298.382 55.84 294.662 54.38 290.747 51.43C287.974 49.83 289.001 46.54 287.654 44.2C283.774 38.24 273.514 43.08 271.483 48.28C270.695 50.15 267.888 49.94 267.454 48C263.654 41.05 267.214 40.39 268.127 34.97C265.103 23.42 272.978 23.56 251.739 18.03C248.247 17.07 243.99 19.4 241.125 17.23C231.813 9.43001 220.571 2.57999 207.401 1.51999C207.641 1.86999 207.892 2.20999 208.143 2.54999C206.728 1.21999 205.312 0.28 203.966 0C197.095 2.73 187.737 1.95 183.663 8.62C178.253 10.87 176.393 16.42 171.075 18.8C158.064 22.69 142.098 22.17 132.603 32.36C132.649 32.49 132.534 32.78 132.363 32.79C132.318 32.91 132.283 33.03 132.181 33.17C132.124 33.2 132.112 33.2 132.112 33.2C130.206 38.03 130.206 43.49 125.721 47.3C125.641 47.3 125.63 47.3 125.63 47.3C125.447 47.58 125.265 47.85 125.002 48.14C124.922 48.14 124.911 48.14 124.911 48.14C124.728 48.42 124.534 48.7 124.283 48.98C124.203 48.98 124.192 48.99 124.192 48.99C124.135 49.08 124.112 49.35 123.941 49.4C123.952 49.47 123.815 49.62 123.712 49.61C123.678 49.66 123.564 49.83 123.461 49.83C123.427 49.94 123.382 50.06 123.279 50.21C123.165 50.26 123.176 50.44 122.982 50.45C122.993 50.52 122.857 50.67 122.742 50.67C122.708 50.71 122.617 50.88 122.514 50.88C121.932 51.18 122.035 51.66 121.544 51.93C121.51 51.97 121.407 52.15 121.304 52.14C121.202 52.28 121.088 52.42 120.916 52.56C120.837 52.56 120.825 52.56 120.825 52.56C120.882 52.68 120.757 52.97 120.585 52.97C120.494 53.11 120.323 53.37 120.106 53.4C120.072 53.44 119.969 53.62 119.866 53.61C119.832 53.65 119.729 53.83 119.627 53.82C119.581 53.86 119.49 54.04 119.387 54.03C119.341 54.07 119.239 54.25 119.136 54.24C119.147 54.31 119.011 54.44 118.896 54.45C118.577 54.81 118.12 55.25 117.698 55.49C117.652 55.64 117.401 55.79 117.219 55.71C117.242 56.19 116.808 56.39 116.249 56.34C116.26 56.38 116.26 56.41 116.26 56.5C111.478 60.23 103.181 58.19 99.6319 63.5C94.6903 71.64 84.8983 63.52 77.4915 63.69C71.5341 63.5 65.8963 65.4 59.9617 65.41C51.1512 65.19 41.9755 64.6 34.8997 70.09C24.7881 76.5 6.40246 69.55 0 80.56C0.0798881 80.66 0.102719 80.72 0.148369 80.78L0.159758 80.77C0.205409 80.8 0.410825 80.89 0.399413 80.98C0.445063 81.01 0.639102 81.1 0.639102 81.19C0.992893 81.52 1.52927 81.82 1.83741 82.24C1.99719 82.27 2.25969 82.52 2.31675 82.66C2.7162 82.89 3.11563 83.12 3.52649 83.42C3.5379 83.49 3.52649 83.5 3.52649 83.5C17.3585 91.52 34.3861 87.92 49.8844 89.15C57.8618 89.35 64.6866 93.39 72.4357 94.47C81.406 95.26 90.2964 93.48 99.2325 92.97C105.624 93.83 112.049 93.33 118.428 93.65C125.139 94.43 143.205 103.16 147.028 95.97C146.241 95.79 145.237 95.67 144.095 95.58C141.174 95.55 138.526 95.43 136.323 95.22C138.857 95.35 141.744 95.4 144.095 95.58C159.183 95.78 181.118 93.9 181.666 91.57C183.777 86.59 173.677 90.6 172.49 87.03C168.61 79.06 158.361 88.64 150.692 83.79C139.165 79.44 140.067 79.67 127.148 81.09C124.169 81.79 119.125 81.72 114.856 82.05C123.792 81.35 132.763 79.71 141.665 80.01C145.282 80.33 147.576 83.41 151.251 83.48C171.326 76 195.589 84.97 216.782 85.96C221.233 86.94 227.533 83.3 230.843 86.54C234.449 90.01 241.274 86.57 246.078 86.9ZM394.088 77.39C393.723 78.42 392.901 78.85 391.771 78.89C392.844 78.82 393.655 78.38 394.088 77.39ZM382.39 75.98C380.929 75.38 379.514 74.81 378.282 74.43C379.537 74.8 380.952 75.36 382.39 75.98ZM348.061 72.54C347.81 72.5 347.548 72.48 347.297 72.48C347.548 72.48 347.799 72.49 348.061 72.54ZM300.984 74.04C297.355 74.25 294.331 74.63 291.683 74.92C294.764 74.54 297.857 74.04 300.984 74.04ZM274.815 71.56C278.125 73.96 280.921 74.95 283.888 75.24C281.948 75.09 280.008 74.67 278.079 73.82C276.538 73.51 275.625 72.58 274.815 71.56C273.548 70.64 272.213 69.51 270.764 68.14C272.795 68.6 273.708 70.17 274.815 71.56ZM249.879 67.1C249.046 66.66 248.247 66.55 247.459 66.65C248.27 66.54 249.068 66.64 249.879 67.1ZM246.74 43.46C246.774 43.8 246.74 44.11 246.615 44.37C246.729 44.1 246.774 43.79 246.74 43.46ZM246.341 66.91C245.736 67.12 245.108 67.39 244.435 67.69C245.108 67.38 245.736 67.1 246.341 66.91ZM108.248 83.58C108.283 83.56 108.317 83.54 108.351 83.52C108.26 83.64 108.203 83.76 108.169 83.87C108.169 83.77 108.191 83.68 108.248 83.58ZM108.945 84.81C108.922 84.8 108.91 84.8 108.888 84.8C108.26 84.57 108.077 84.24 108.169 83.88C108.18 84.19 108.465 84.5 108.945 84.81C110.508 84.99 112.117 85.89 113.715 86.9C111.946 86.16 109.995 85.49 108.945 84.81ZM130.355 93.81C131.062 94.47 133.208 94.93 136.244 95.22C132.98 95.05 130.355 94.74 130.355 93.81ZM136.666 90.08C136.517 90.14 136.38 90.19 136.244 90.25C136.232 90.28 136.209 90.31 136.186 90.34C134.943 91.49 133.425 91.78 131.941 92.27C130.845 92.91 130.366 93.41 130.355 93.8C130.104 93.58 130.024 93.33 130.138 93.05C130.72 92.7 131.325 92.47 131.941 92.27C132.888 91.71 134.292 91.04 136.244 90.25C137.054 89.09 136.426 88 135.353 87.35C136.289 87.84 136.837 88.67 136.666 90.08ZM135.182 87.26C134.6 87 133.904 86.84 133.151 86.75C133.835 86.73 134.566 86.92 135.182 87.26ZM127.422 86.43C127.433 86.43 127.433 86.43 127.444 86.43C128.54 86.13 130.024 86.44 131.405 86.63C131.998 86.65 132.58 86.68 133.139 86.75C132.614 86.78 132.021 86.72 131.405 86.63C129.978 86.58 128.529 86.6 127.444 86.43C127.193 86.49 126.965 86.59 126.76 86.73C126.109 86.87 125.55 87.11 125.071 87.42C125.653 86.88 126.36 86.47 127.422 86.43ZM117.253 89.02C117.515 89.2 117.767 89.36 118.006 89.5C119.296 90.12 120.528 90.41 121.658 90.01C121.738 90 121.818 89.98 121.898 89.96C120.951 90.48 119.809 90.55 118.006 89.5C116.637 88.85 115.199 87.83 113.738 86.91C115.301 87.55 116.705 88.24 117.253 89.02ZM197.118 47.93C195.418 48.43 193.831 49.05 193.238 49.76C193.706 48.96 195.372 48.37 197.118 47.93ZM194.722 51.99C194.391 51.8 194.117 51.61 193.9 51.44C192.896 50.85 192.793 50.29 193.227 49.77C192.953 50.24 193.101 50.79 193.9 51.44C194.436 51.75 195.224 52.07 196.331 52.4C197.278 52.71 198.214 53.02 199.161 53.34C197.678 52.87 196.194 52.43 194.722 51.99ZM199.481 53.44C202.699 54.46 205.906 55.57 208.976 56.92C205.906 55.6 202.688 54.5 199.481 53.44ZM212.605 58.64C214.465 59.59 216.246 60.66 217.912 61.9C216.246 60.69 214.465 59.61 212.605 58.64ZM215.025 11.2C216.668 13.32 218.186 15.49 219.384 17.84C218.289 16.27 216.771 13.8 215.025 11.2ZM236.629 69.7C239.06 69.81 241.034 69.18 242.746 68.46C241.057 69.19 239.094 69.83 236.629 69.7ZM241.205 44.6C238.74 42.53 237.119 41.65 236.012 41.54C237.119 41.61 238.74 42.49 241.205 44.6ZM235.545 41.55C234.255 41.76 233.775 43.26 233.273 45.01C233.753 43.23 234.198 41.7 235.545 41.55ZM227.35 51.02C227.807 51.04 228.206 51.03 228.583 50.99C228.218 51.04 227.807 51.05 227.35 51.02ZM232.897 46.35C232.429 47.96 231.778 49.56 230.352 50.41C231.755 49.55 232.406 47.95 232.897 46.35Z" fill="#FFB62A"/>
<path d="M436.417 102.49C432.115 104.02 427.31 105.81 422.985 103.92C411.88 105.59 398.756 102.11 388.69 106.6C377.437 109.27 365.054 107.46 353.745 110.62C339.125 112.75 324.254 112.79 309.624 114.76C304.511 114.97 300.026 111.46 294.719 111.45C283.42 110.3 271.848 111.31 261.291 106.96C250.118 104.58 238.352 105.08 227.076 102.38C256.829 95.71 287.962 109.72 317.818 102.76C329.185 95.8901 343.234 98.75 356.061 99.47C378.59 99.14 401.016 98.2301 423.544 100.17C427.618 101.34 433.998 98.84 436.417 102.49Z" fill="#FFB62A"/>
<path d="M386.19 57.33C384.764 58.53 385.403 59.81 386.27 61.1C387.137 65.25 380.244 62.86 377.939 61.9C347.444 54.21 389.751 46.95 386.19 57.33Z" fill="#FFB62A"/>
<path d="M491.095 106.63C482.536 106.54 480.55 109.86 474.467 102.97C470.473 99.44 466.501 103.29 463.02 105.6C461.194 107.37 443.345 107.33 453.753 109.78C454.883 109.43 456.013 109.28 457.166 109.27C456.025 109.31 454.883 109.49 453.753 109.87C453.639 110.79 453.879 111.55 454.335 112.3C461.959 115.11 469.845 114.56 477.891 114.01C485.868 113.32 494.725 115.4 502.063 113.06C502.074 112.9 502.086 112.81 502.029 112.66C500.979 112.44 499.917 112.29 498.845 112.17C499.929 112.28 501.013 112.42 502.086 112.62C505.966 107.78 494.736 106.72 491.095 106.63ZM466.478 110.81C464.093 110.25 461.708 109.61 459.368 109.36C461.719 109.59 464.093 110.24 466.478 110.81ZM476.567 111.28C476.476 111.3 476.385 111.33 476.293 111.34C476.385 111.32 476.476 111.3 476.567 111.27C476.841 111.21 477.115 111.12 477.378 111.03C477.115 111.13 476.841 111.22 476.567 111.28ZM491.369 111.47C493.709 111.79 496.106 111.89 498.468 112.14C496.094 111.9 493.698 111.8 491.369 111.47Z" fill="#FFB62A"/>
<path d="M479.637 66.45C476.59 66.23 473.668 66.49 471.021 67.98C473.6 66.33 476.544 66.14 479.637 66.45Z" fill="#FFB62A"/>
<path d="M499.152 66.87C499.072 66.9 498.981 66.94 498.901 66.98C496.801 67.81 494.598 68.05 492.362 67.99C492.784 67.97 493.218 67.93 493.64 67.87C496.151 67.35 497.874 67.03 499.152 66.87Z" fill="#FFB62A"/>
</g>
</svg>
