<svg width="205" height="227" viewBox="0 0 205 227" fill="none" xmlns="http://www.w3.org/2000/svg">
<path d="M178.277 210.271C178.277 207.261 177.882 203.491 179.056 201.981C179.429 201.661 179.758 201.321 180.055 200.941C179.66 200.081 179.067 199.291 179.495 198.681C180.79 196.861 180.11 195.531 179.166 194.011C178.694 193.261 178.913 192.361 179.056 191.501C179.188 190.841 179.276 190.181 179.287 189.511C179.287 187.091 178.178 185.391 175.446 187.091C175.347 187.031 175.259 186.961 175.183 186.891C175.819 185.921 176.521 184.971 175.72 183.731C174.985 182.601 173.986 182.401 172.768 182.791C172.099 183.001 171.836 182.591 171.627 182.121C170.574 179.661 168.533 178.571 165.932 178.091C164.933 177.901 163.979 177.521 163.145 176.961C162.08 176.241 161.005 176.291 159.875 176.421C159.381 176.481 158.931 176.731 158.393 176.551C156.605 175.971 155.079 176.491 153.587 177.511C150.877 179.341 149.626 179.081 147.837 176.431C146.268 174.101 144.205 172.641 141.264 172.241C138.18 171.811 135.064 171.791 131.98 172.181C131.147 172.291 130.598 172.001 129.599 171.701C130.883 170.881 131.959 169.771 132.705 168.471C133.451 167.171 133.868 165.711 133.912 164.221C133.945 163.681 134.307 163.401 134.735 163.091C137.094 161.311 137.215 159.321 135.13 157.221C134.581 156.661 134.109 156.161 134.395 155.311C135.624 151.701 134.428 148.981 130.817 147.501C129.929 147.121 129.874 146.791 130.082 146.021C131.223 141.721 130.06 139.691 125.407 138.301C126.45 137.851 125.879 136.101 127.339 136.451C128.798 136.811 130.225 136.731 131.651 136.871C132.189 136.921 132.65 136.821 132.88 137.401C133.308 138.531 134.252 138.911 135.404 139.041C136.161 139.131 136.392 139.501 136.183 140.321C135.525 142.921 137.094 146.001 139.409 147.521C141.911 149.171 145.16 149.521 147.288 151.811C147.431 151.941 147.596 152.031 147.771 152.091C147.958 152.151 148.144 152.161 148.331 152.141C150.734 151.651 153.324 151.481 155.211 149.771C157.099 148.061 159.37 146.791 161.224 145.051C162.355 143.991 163.342 142.981 165.054 144.061C165.449 144.301 165.998 143.981 166.492 143.801C168.774 142.981 168.983 140.711 170.08 139.091C170.519 138.441 169.937 137.711 169.125 137.361C168.127 136.921 167.172 136.441 166.042 135.921C167.907 134.621 169.498 133.471 171.803 133.351C173.701 133.211 175.567 132.771 177.322 132.041C178.497 131.581 179.276 130.891 179.319 129.631C179.352 128.591 179.934 128.351 180.889 128.241C181.931 128.121 183.27 128.001 183.709 126.991C184.323 125.591 184.795 124.331 186.748 124.451C187.012 124.451 187.56 123.891 187.582 123.561C187.659 122.131 188.757 121.981 189.81 121.751C191.171 121.441 192.553 121.291 193.881 120.871C195.209 120.451 195.988 120.661 196.372 121.951C196.646 122.871 197.261 123.221 198.227 123.051C200.586 122.641 202.276 118.781 200.816 117.021C199.993 116.031 199.181 114.931 197.897 114.451C196.932 114.071 196.613 113.501 196.372 112.571C195.703 110.081 193.771 109.391 191.412 110.671C190.831 110.991 190.348 111.551 189.064 111.241C191.017 109.691 191.522 107.661 191.906 105.591C192.027 104.801 191.906 104.001 191.588 103.271C191.259 102.541 190.732 101.911 190.051 101.451C189.02 100.671 188.877 99.7814 188.954 98.4415C189.075 96.6615 189.569 94.6715 188.043 93.0015C187.154 91.9815 185.958 91.2415 184.62 90.8815C183.116 90.4415 181.536 91.0415 180.033 90.5515L176.225 90.5115C174.272 89.6915 172.549 90.7915 170.738 91.1315C171.474 89.6215 173.372 89.1715 173.953 87.5915C174.469 86.3215 175.358 85.4314 176.796 85.1515C178.233 84.8715 178.935 84.0215 179.385 82.7815C179.802 81.6315 180.34 80.5215 181.668 80.0215C182.469 79.7115 182.579 78.9715 182.787 78.2515C183.292 76.5415 183.182 74.6315 184.455 73.1515C186.024 73.9015 186.99 75.5115 188.877 75.5615C189.481 75.7815 190.15 75.7715 190.754 75.5415C193.025 74.2615 194.748 72.3815 196.701 70.7415C198.797 68.9815 199.565 68.2515 200.992 69.3815C201.716 69.9515 202.407 70.9915 203.362 70.5715C204.536 70.0615 204.064 68.7515 204.108 67.7515C204.108 67.2715 204.042 66.7815 203.889 66.3215C203.428 64.8615 202.352 64.2015 200.827 64.5915C199.115 65.0315 197.425 64.8415 195.736 64.8415C195.132 64.6215 194.463 64.6215 193.859 64.8415C192.685 63.7415 192.817 62.0115 191.719 60.8515C190.798 59.8715 190.94 58.6715 191.533 57.6015C192.202 56.4715 193.069 55.4715 194.671 55.6715C197.151 55.9915 198.161 55.1215 199.477 52.4115C199.829 51.5715 200.136 50.7115 200.388 49.8415C200.608 49.2615 200.608 48.6215 200.388 48.0415C199.631 45.5615 199.028 43.1015 200.333 40.6115C200.685 39.9615 200.904 39.2515 201.014 38.5315C201.167 37.3515 201.584 35.8215 200.07 35.3115C196.745 34.2015 196.602 31.6615 196.548 28.9815C196.076 28.1615 196.635 27.2215 196.196 26.4015C195.977 24.8015 194.726 24.1415 193.332 23.9115C192.279 23.7315 191.248 23.4815 190.227 23.2215C189.053 22.9015 187.802 23.0415 186.737 23.6015C186.244 23.8615 185.673 24.4715 185.048 23.8715C184.51 23.3615 184.795 22.7715 184.993 22.1715C185.925 19.2015 185.552 18.3215 182.82 16.8415C182.085 16.6015 181.284 16.6015 180.548 16.8415C179.583 17.4015 179.517 18.2515 180.044 19.0315C181.218 20.7815 179.188 20.9115 178.595 21.2615C177.728 21.7715 178.025 20.5715 177.805 20.1315C177.333 19.2115 177.092 18.0815 176.006 17.6815C174.645 17.1815 174.831 16.3715 175.215 15.4215C175.468 14.8415 175.468 14.1915 175.215 13.6115C174.831 12.7715 174.239 12.0315 173.504 11.4515C172.296 10.5115 172.428 9.87145 173.844 9.25145C174.864 8.81145 176.368 8.58145 176.543 7.44145C176.828 5.62145 177.893 4.72145 179.44 4.03145C179.835 3.89145 180.164 3.61145 180.362 3.26145C180.559 2.90145 180.614 2.49145 180.516 2.10145C180.439 1.71145 180.241 1.35145 179.956 1.05145C179.671 0.761453 179.308 0.551452 178.902 0.451452C177.564 0.0914524 176.159 -0.0485472 174.766 0.0514528C173.262 0.121453 172.757 0.921453 172.999 2.24145C173.087 2.71145 173.558 3.27145 173.098 3.60145C171.221 4.96145 170.497 7.26145 168.39 8.50145C165.965 9.95145 164.637 12.3515 167.512 14.4915C168.291 15.0815 169.016 15.8115 169.081 16.8915C168.785 17.0315 168.456 17.1115 168.116 17.1115C167.776 17.1115 167.446 17.0315 167.15 16.8915C166.711 16.9215 166.261 16.8415 165.855 16.6715C165.449 16.5015 165.087 16.2315 164.802 15.9015C163.595 14.5815 162.058 14.4615 160.467 14.8515C159.666 15.0115 158.843 15.0815 158.031 15.0615C157.318 15.5015 156.462 14.9915 155.727 15.3915C155.321 15.4315 154.948 15.6015 154.662 15.8715C154.377 16.1515 154.201 16.5115 154.158 16.9015C153.763 17.2515 154.41 18.6115 153.005 18.0015C152.621 18.0615 152.226 18.0015 151.886 17.8215C151.546 17.6415 151.272 17.3615 151.118 17.0215C149.681 13.7115 146.279 13.3115 143.437 12.0715C142.614 11.7615 141.714 11.7115 140.858 11.9215C138.51 12.3215 137.292 13.9115 136.117 15.6915C134.943 17.4715 135.24 18.8815 137.401 19.8315C138.159 20.1515 138.971 19.9015 139.75 19.9915C140.123 20.0315 140.704 19.8615 140.496 20.5815C139.925 22.3915 140.781 23.6615 142.328 23.0915C144.183 22.4015 145.434 22.9115 146.575 24.2215C147.288 24.6415 148.144 24.1015 148.847 24.5715L148.825 24.9515C148.583 26.2815 148.583 27.6315 148.825 28.9615C148.748 30.0415 149.494 31.5615 147.343 31.5515C146.597 31.8415 145.763 31.8415 145.017 31.5515C142.636 30.7614 140.562 31.0115 138.992 33.1415C138.257 34.1315 137.731 35.2615 137.456 36.4515C136.918 38.8215 136.534 41.2015 134.998 43.2515C134.504 43.9115 134.548 44.7615 134.647 45.6615C134.888 47.8315 136.414 49.5615 136.644 51.6915C137.094 52.3815 136.589 53.2015 136.973 53.9015C136.864 55.7315 138.301 56.8615 139.146 58.2515C140.134 59.8915 139.958 61.2215 138.4 62.2415C137.939 62.5615 137.588 63.0015 137.39 63.5215C136.908 64.6515 136.578 65.8315 135.986 66.8815C135.075 68.4815 135.591 69.8915 136.897 70.7315C138.202 71.5615 137.928 72.1415 137.215 72.9615C135.733 74.6615 135.426 76.8115 134.801 78.8215C134.504 79.7815 134.856 80.6615 135.689 81.4615C137.5 83.1915 140.331 84.0014 140.913 86.8715C140.99 87.2815 141.692 87.7415 142.186 87.8815C143.952 88.3715 145.807 88.6014 147.014 90.2215C147.212 90.4914 147.793 90.5415 148.243 90.6015C151.019 90.9115 151.019 90.8915 149.516 93.1715C149.121 93.7815 148.759 94.4415 148.309 95.0215C147.749 95.7215 147.047 95.9915 146.136 95.5615C143.985 94.5315 141.659 94.3015 139.311 94.3115C137.785 94.3115 136.26 93.9315 135.24 93.0015C133.451 91.3815 131.651 91.0215 129.226 91.2915C125.44 91.7215 122.532 92.8715 121.391 96.6815C120.864 98.4115 119.098 98.6815 117.638 99.1415C116.684 99.4415 116.398 98.3415 115.894 97.7715C115.147 96.9115 114.05 96.7315 112.997 96.5415C112.262 96.4115 111.471 96.5415 110.714 96.5115C109.54 96.4515 109.101 95.5815 108.871 94.6915C108.761 94.2615 108.201 93.5115 108.926 93.2515C110.978 92.5215 112.766 90.6615 115.29 91.7715C115.894 91.9815 116.552 91.9815 117.167 91.7715C119.262 91.3615 120.875 89.9715 122.796 89.2115C123.575 88.9015 123.761 88.2315 123.849 87.6015C124.277 84.8715 120.81 81.4715 118.417 82.7615C116.157 83.9715 115.115 82.4515 113.534 82.1915L113.348 82.1615C112.097 81.9215 110.813 81.9215 109.562 82.1615C108.432 82.3015 107.334 82.6515 106.347 83.1915C103.483 84.7215 102.704 86.0215 103.186 88.9115C103.307 89.6615 102.846 89.8915 102.495 90.2715C100.037 92.9415 100.652 95.2915 102.967 97.6115C103.406 98.0515 104.01 98.3215 103.79 99.0715C103.56 99.7815 103.56 100.531 103.79 101.241C103.922 101.701 103.933 102.261 104.218 102.621C105.315 104.031 104.613 105.091 103.592 106.111C102.342 107.331 101.058 108.511 99.8287 109.751C99.1593 110.421 98.6545 111.171 99.0385 112.211C99.8286 114.421 98.8411 115.661 96.4708 115.141C93.3873 114.471 90.7428 115.491 88.1201 116.731C87.2093 117.161 86.3644 117.751 86.2547 118.871C85.8597 119.441 86.3534 120.151 85.9035 120.701C85.8267 120.991 85.7389 121.281 85.6621 121.571C85.3329 122.791 85.1243 123.651 83.6649 122.171C82.1396 120.611 79.6048 121.281 78.6172 123.261C78.3758 123.971 78.3758 124.731 78.6172 125.431C78.6172 127.751 79.1658 129.621 81.7555 130.671C83.2589 131.291 84.4002 132.701 85.3988 134.031C85.7389 134.441 85.9365 134.941 85.9804 135.461C86.0243 135.981 85.9035 136.501 85.6401 136.961C85.1354 137.871 84.4989 138.691 84.2026 139.711C84.016 140.361 83.643 140.461 82.9298 140.091C80.9107 138.921 78.6173 138.391 76.3568 137.901C75.3691 137.661 74.3267 137.661 73.3281 137.901C72.7026 138.001 72.099 138.151 71.4955 138.341C70.1019 138.881 69.2899 138.781 68.9607 137.091C68.6645 135.781 68.1267 134.531 67.3915 133.401C66.6124 132.131 64.4725 131.531 64.7359 130.161C64.9883 128.911 66.5684 127.931 67.4792 126.771C68.2254 125.831 68.1707 124.851 67.3257 123.961C66.2832 122.881 60.6648 122.831 59.9845 124.091C58.8103 126.351 57.307 126.151 55.4305 125.181C54.7612 124.851 54.048 124.581 53.3128 124.381C52.2374 124.081 52.2592 123.681 52.8189 122.821C54.7721 119.841 53.8943 116.641 53.3895 113.491C53.2798 113.141 53.0712 112.831 52.7969 112.581C50.3828 109.841 46.8165 109.571 43.6562 111.951C41.8346 113.331 39.3107 113.201 37.5879 114.761C37.3904 114.941 36.8088 114.901 36.4906 114.761C33.9777 113.661 31.4977 113.821 29.0068 114.801C28.4252 115.221 27.679 114.761 27.0975 115.131C24.42 115.151 22.2143 116.291 20.2611 117.901C18.4395 119.411 18.0445 121.981 19.5917 123.011C20.7439 123.761 20.1074 124.231 19.7562 124.861C19.4051 125.501 18.7577 125.761 18.1322 126.071C14.9938 127.631 14.6427 128.711 16.4094 131.651C16.5631 131.911 16.8045 132.141 16.9361 132.401C17.9128 134.081 17.814 135.711 16.8045 137.401C15.6303 136.321 14.1489 135.591 12.5468 135.291C11.6799 135.061 10.7691 135.061 9.90219 135.291C7.25762 135.921 6.37978 137.801 7.7295 140.011C8.06967 140.581 8.66224 141.221 8.01481 141.811C5.99572 143.661 7.42227 147.511 3.77912 148.431C3.43895 148.521 3.24136 149.221 3.02189 149.661C2.55004 150.731 1.86973 151.701 1.00284 152.511C-0.00670759 153.401 -0.22611 154.571 0.520077 155.631C1.95758 157.681 3.31826 159.821 5.8531 160.901C7.19185 161.471 8.72805 162.241 9.07919 163.581C9.73759 166.171 11.8884 167.351 13.9185 168.061C16.4533 168.941 18.5272 171.381 21.6875 170.531C22.3789 170.351 22.7959 170.991 23.2568 171.411C24.1785 172.241 25.4733 172.621 26.3292 171.861C27.6899 170.641 28.4581 171.481 29.3689 172.211C29.8078 172.561 30.1919 172.961 30.6198 173.341C31.1136 173.821 31.7721 174.131 32.4744 174.201C33.1767 174.271 33.8899 174.101 34.4715 173.721C35.1189 173.361 35.7444 172.661 36.4358 173.531C37.0174 174.281 37.3685 175.171 36.7321 176.071C36.2163 176.691 35.898 177.451 35.8322 178.241C35.5798 178.951 35.5798 179.711 35.8322 180.421C36.315 181.371 36.0956 182.271 35.7664 183.221C34.9873 185.441 35.8432 188.321 37.8294 189.361C39.7388 190.371 41.8565 191.031 43.8866 191.841C44.0621 191.931 44.2597 191.991 44.4682 192.011C44.6657 192.031 44.8743 192.011 45.0718 191.951C45.2254 191.901 45.3681 191.831 45.4997 191.721L45.6642 191.631C46.0264 191.421 46.3886 191.211 46.7507 191.011C46.4105 191.251 46.0483 191.461 45.6642 191.631L45.1925 191.921L45.0718 191.941C44.7426 192.051 44.4024 192.131 44.2488 192.501C42.9649 192.911 41.4396 192.851 40.7154 194.301C40.0789 195.611 39.0913 196.771 38.9157 198.281C38.7841 199.411 38.1695 199.221 37.5111 198.691C37.0722 198.341 36.721 197.891 36.2492 197.561C35.6566 197.141 34.9653 196.881 34.2301 196.811C33.4949 196.741 32.7596 196.871 32.1012 197.181C30.8722 197.731 31.1795 198.951 31.1685 200.171C31.1466 203.661 32.7377 207.141 30.9381 210.671C30.1041 212.321 30.9381 213.441 32.7378 214.171C35.6567 215.351 35.9529 215.941 34.8885 218.891C34.5812 219.751 34.9653 220.321 35.4701 220.851C35.9749 221.381 36.6222 221.511 37.1709 221.021C38.6962 219.641 39.5192 220.911 39.7716 221.921C40.3312 224.181 41.7249 224.671 43.8208 224.411C44.4134 224.001 45.1486 224.461 45.7521 224.091C46.9702 224.151 48.0236 223.511 49.1758 223.341C49.483 223.201 49.8232 223.131 50.1524 223.131C50.4926 223.131 50.8218 223.201 51.1291 223.341C51.963 223.501 52.7201 223.741 53.0822 224.581C53.6967 225.971 54.7722 226.581 56.2755 226.121C57.7898 225.671 58.0203 224.371 57.9654 223.001C57.9654 222.621 57.3728 221.961 58.3275 221.871C59.5675 221.781 60.2369 220.791 61.1915 220.171C61.7841 221.881 62.278 223.511 62.9144 225.071C63.5618 226.631 64.8128 227.331 66.5685 226.841C67.2269 226.611 67.9401 226.591 68.6095 226.781C69.7837 227.191 70.8481 227.081 71.6931 226.071C72.538 225.061 72.6916 224.021 72.0442 222.841C71.8247 222.431 71.1335 221.961 71.8467 221.431C73.1964 220.431 73.5036 219.211 72.8891 217.701C72.8233 217.461 72.8233 217.211 72.8891 216.971C72.955 216.731 73.0756 216.511 73.2512 216.321C74.2608 214.981 75.2923 213.681 77.1688 213.431C78.738 213.241 80.0328 212.391 81.1411 211.401C82.3921 210.271 83.3028 208.861 82.4908 207.161C82.2494 206.741 82.1286 206.261 82.1616 205.771C82.1835 205.291 82.3591 204.821 82.6444 204.431C83.2809 203.471 83.3906 202.431 82.6444 201.531C81.7007 200.401 80.9984 199.051 79.5938 198.321C78.5953 197.801 78.6172 197.421 79.6268 196.681C83.7528 193.641 85.8487 189.761 84.7184 184.591C84.2246 182.301 85.6402 181.071 88.1421 181.521C89.3711 181.741 90.5781 182.221 91.3682 183.281C93.4531 186.061 96.0648 188.351 98.6545 190.691C99.7848 191.721 100.531 192.811 100.366 194.361C100.312 194.831 100.257 195.351 100.586 195.781C102.023 197.591 101.947 199.721 101.727 201.791C101.409 204.801 99.5543 207.271 97.9412 209.681C96.6683 211.561 96.3062 213.151 97.4365 215.181C95.3625 215.241 93.7385 216.001 92.9045 218.191C92.707 217.501 92.5863 217.121 92.4875 216.721C92.0815 214.981 90.8964 214.491 89.1297 214.461C86.968 214.431 86.4521 215.941 85.9912 217.331C85.5303 218.721 85.9912 219.881 87.5165 220.671C89.3491 221.611 90.9183 222.971 92.0595 224.641C92.6192 225.471 93.0911 226.521 94.3421 225.931C95.593 225.341 96.833 224.491 96.1197 222.811C95.7247 221.851 95.7576 221.141 96.6135 220.381C96.9646 220.021 97.4146 219.781 97.9084 219.691C98.4022 219.601 98.9179 219.661 99.3788 219.871C100.816 220.321 102.221 220.861 103.582 221.491C105.974 222.711 106.632 222.541 107.653 220.911C108.673 219.271 109.705 219.001 111.482 219.911C112.591 220.481 113.227 221.391 113.743 222.481C114.763 224.651 116.355 225.701 118.45 225.441C121.512 225.091 124.563 224.591 127.569 223.931C129.797 223.421 131.553 222.111 132.112 219.761C132.584 217.781 133.1 215.831 135.821 215.701C136.26 215.611 136.655 215.381 136.94 215.041C137.895 214.051 138.575 214.291 139.508 215.211C141.933 217.631 144.194 217.251 145.829 214.281C146.399 213.241 146.959 212.171 148.473 212.271C150.427 212.411 151.82 211.421 153.126 210.161C153.521 209.781 153.598 208.831 154.476 209.201C155.2 209.511 155.255 210.191 155.332 210.901C155.595 213.601 156.945 214.961 159.513 215.231C160.237 215.611 161.082 215.121 161.817 215.551C163.748 215.481 165.339 214.901 166.404 213.181C167.249 211.801 168.39 210.671 170.179 210.431C170.749 210.001 171.496 210.461 172.077 210.111C173.361 209.851 174.272 208.931 175.369 208.341C175.698 208.161 176.082 207.731 176.543 208.151C177.147 208.681 177.542 209.391 177.673 210.161C177.827 210.161 178.058 210.191 178.277 210.271Z" fill="#F1DAB6"/>
<path d="M45.5435 191.631L45.379 191.721C45.2583 191.821 45.1047 191.901 44.951 191.951L45.0717 191.931L45.5435 191.631Z" fill="#F1DAB6"/>
<path d="M61.6634 117.721C61.1915 115.171 62.4425 113.011 63.4411 110.821C63.6605 110.271 64.0665 109.811 64.6152 109.521C65.1529 109.241 65.7783 109.151 66.3819 109.271C67.7425 109.471 68.6315 108.891 69.3777 107.821C70.486 106.231 71.8905 105.861 73.4268 106.951C73.8657 107.291 74.3705 107.541 74.9081 107.681C75.4458 107.831 76.0055 107.871 76.5651 107.801C77.0699 107.721 77.5856 107.801 78.0465 108.031C78.5074 108.261 78.8696 108.631 79.0891 109.071C79.6158 110.051 79.089 110.821 78.3428 111.491C77.9258 111.941 77.4759 112.361 76.9821 112.721C76.2798 113.091 75.6983 113.611 75.2484 114.231C74.7985 114.861 74.5241 115.581 74.4254 116.341C74.1949 117.901 73.1195 119.031 71.8027 119.761C69.5532 121.011 67.0184 121.701 64.5384 122.381C63.2326 122.761 61.7951 122.431 61.6744 120.621C61.4 119.661 61.422 118.671 61.6634 117.721Z" fill="#F1DAB6"/>
<path d="M4.05323 182.211C3.98739 180.071 5.8309 178.961 7.75123 179.951C8.82662 180.501 9.57275 180.331 10.297 179.691C11.2187 178.891 12.1296 178.561 13.1172 179.461C14.1816 180.421 14.05 181.631 13.2709 182.581C11.8663 184.311 10.0007 185.591 8.10232 186.801C7.32321 187.301 6.36851 186.901 5.88569 186.281C4.95295 185.101 4.31659 183.701 4.05323 182.211Z" fill="#F1DBB7"/>
<path d="M187.846 113.301C189.558 113.321 191.302 113.561 192.641 112.111C192.97 111.731 193.442 111.801 193.848 112.111C194.331 112.461 194.77 112.971 194.517 113.511C193.629 115.391 194.759 115.861 196.328 116.151C198.04 116.481 199.071 117.501 199.598 119.121C199.916 120.111 199.598 120.361 198.665 120.251C198.347 120.221 198.04 120.121 197.777 119.961C195.593 118.381 193.256 118.611 190.907 119.471C189.141 120.121 187.659 119.881 186.167 118.721C183.533 116.651 180.384 115.181 178.409 112.351C178.156 111.981 177.783 111.711 177.344 111.581C176.905 111.451 176.433 111.471 176.016 111.641C173.822 112.511 171.682 111.741 169.509 111.661C166.722 111.561 163.88 110.911 161.104 111.841C159.491 112.381 157.702 112.141 156.1 112.871C155.398 113.191 154.761 112.691 154.125 112.441C152.951 111.971 151.974 112.231 151.425 113.381C150.646 115.051 149.856 116.721 149.209 118.431C148.419 120.481 147.497 122.381 145.214 123.311C144.885 123.441 144.435 123.751 144.391 124.031C143.941 126.511 141.802 128.591 142.306 131.231C142.625 132.921 142.043 134.011 140.847 135.081C139.958 135.951 138.981 136.731 137.917 137.401C136.436 138.261 135.371 137.781 135.009 136.151C134.537 134.041 134.296 133.951 132.266 134.641C129.215 135.661 127.064 134.321 126.263 131.461C126.033 130.651 126.417 130.061 127.262 129.721C127.855 129.491 128.381 129.141 128.798 128.681C129.226 128.221 129.522 127.681 129.687 127.081C130.082 125.861 131.157 125.461 132.277 125.201C133.297 124.951 133.648 124.451 133.374 123.471C133.209 122.881 132.343 122.271 133.166 121.681C133.989 121.101 135.097 120.301 136.139 120.821C137.533 121.521 138.685 121.051 139.936 120.681C141.11 120.301 142.241 119.791 143.623 120.161C144.446 120.381 145.061 119.611 144.797 118.751C144.567 117.931 144.194 117.151 143.689 116.451C142.427 114.771 141.593 114.841 140.584 116.641C140.265 117.191 139.936 117.691 139.289 117.911C138.718 118.101 138.115 118.811 137.577 118.291C136.896 117.661 137.785 117.251 138.104 116.781C138.696 115.911 138.367 115.201 137.39 115.271C134.384 115.441 131.509 114.161 128.524 114.471C128.041 114.521 127.437 114.261 127.152 114.821C126.867 115.381 127.383 115.711 127.712 116.061C128.282 116.651 129.051 117.281 127.964 117.991C127.108 118.551 126.11 118.941 125.221 117.991C119.976 112.281 113.238 116.001 111.68 120.801C111.241 122.171 110.78 123.251 109.178 123.631C108.135 123.881 108.135 124.801 108.399 125.601C108.53 125.911 108.552 126.261 108.443 126.581C108.333 126.901 108.113 127.171 107.806 127.351C107.126 127.841 106.511 127.601 105.853 127.271C103.944 126.291 100.838 127.921 100.652 130.051C100.52 131.081 100.608 132.131 100.915 133.121C101.837 135.831 100.652 137.801 97.6998 138.271C95.0772 138.691 93.1568 139.681 91.4888 141.891C90.0952 143.741 87.9225 145.121 86.3972 147.001C85.8046 147.751 84.872 147.451 84.049 147.481C82.3262 147.541 81.0971 148.041 81.0971 150.021C81.0971 151.021 80.5594 151.731 79.5608 152.331C77.7393 153.411 76.1152 154.811 74.3485 155.981C71.6052 157.801 68.8071 157.801 65.943 156.201C62.6291 154.341 60.4782 155.001 58.6895 158.271C57.7349 160.001 56.023 161.011 54.3222 161.971C54.0259 162.151 53.6639 162.221 53.3127 162.191C52.9616 162.161 52.6214 162.021 52.358 161.801C51.6448 161.231 50.7668 161.051 49.9438 160.751C48.638 160.281 47.826 160.911 47.9577 162.231C47.9906 162.841 48.1223 163.441 48.3527 164.011C49.3074 166.141 48.0345 167.321 46.4214 168.381C45.0168 169.311 43.5684 170.171 42.3284 171.341C41.1543 172.471 40.397 173.741 40.7262 175.251C41.1651 177.291 39.19 178.351 38.9157 180.051C38.9157 180.161 38.6194 180.301 38.4548 180.311C38.1475 180.311 38.0597 180.071 38.0158 179.821C37.928 179.021 38.1366 178.221 38.5974 177.561C40.6824 174.201 39.1351 172.471 36.3698 170.561C35.5139 169.971 34.6799 170.161 34.0215 170.941C33.2314 171.851 32.5622 171.831 31.6624 170.941C29.3141 168.531 29.3469 169.361 32.0244 165.971C32.9681 164.791 33.8898 163.871 33.8679 162.201C33.835 160.281 35.2067 159.831 36.9185 160.971C38.2572 161.861 39.8594 161.521 40.2654 160.071C40.6824 158.681 41.1981 157.331 41.8345 156.021C42.1527 155.351 42.2515 154.601 42.1308 153.871C41.626 150.751 44.139 146.281 47.1128 144.961C47.8041 144.651 48.4186 144.441 49.0001 145.091C49.8341 146.011 50.5035 145.631 51.2278 144.911C53.0493 143.121 54.9039 141.351 56.7584 139.591C57.4607 138.921 58.0971 138.081 58.1081 137.231C58.141 135.381 59.2821 135.231 60.6428 135.461C61.795 135.641 62.6839 135.461 63.1118 134.381C63.6605 133.001 64.3957 134.001 64.4615 134.421C64.8017 136.761 67.172 138.301 67.0842 140.821C67.0622 141.611 67.8633 141.991 68.7192 142.051C69.7397 142.121 70.7493 141.961 71.693 141.591C75.5337 140.061 78.9354 141.301 82.1177 143.241C84.1917 144.501 84.7293 144.541 85.6291 142.391C86.1668 141.161 86.8471 139.981 87.6482 138.891C89.8209 135.701 88.9979 132.031 85.5962 130.101C84.1806 129.301 84.5208 128.731 85.7278 128.311C87.6043 127.651 88.186 126.381 88.0104 124.581C87.8458 123.031 88.7456 121.631 88.8334 120.101C88.8553 119.951 88.9211 119.811 89.0198 119.701C89.1186 119.581 89.2394 119.491 89.382 119.421C91.6316 118.811 93.4641 117.031 96.1964 117.751C98.9288 118.471 101.595 116.791 102.627 114.331C102.824 113.861 103.055 113.351 102.758 112.931C101.672 111.381 102.758 110.491 103.735 109.491C104.909 108.311 106.281 107.281 107.236 105.881C107.993 104.781 108.168 103.791 107.236 102.731C106.303 101.671 106.138 100.501 106.862 99.3615C107.532 98.3215 108.662 98.8015 109.65 98.9115C110.012 98.9815 110.385 99.0115 110.758 98.9915C113.776 98.6115 115.63 100.521 115.125 103.441C114.961 104.401 114.138 104.651 113.468 105.041C111.109 106.391 111.142 109.961 113.578 111.201C115.147 112.001 116.815 111.751 118.363 111.091C119.723 110.511 119.383 109.211 119.295 108.171C119.12 106.121 120.184 104.101 119.383 102.021C119.12 101.341 119.998 101.051 120.513 100.721C122.05 99.7215 123.377 98.6315 124.091 96.8315C124.464 95.8815 125.572 95.2015 126.362 94.4115C127.339 93.4515 128.37 93.6615 129.5 94.2115C129.775 94.3415 130.334 94.0415 130.718 93.8315C131.41 93.4815 132.211 93.6615 132.452 94.1215C133.659 96.3315 136.084 95.9715 137.983 96.6815C139.267 97.1615 140.606 97.5415 142.054 96.9915C142.68 96.7515 143.382 96.9415 144.04 97.3315C147.179 99.1415 149.417 98.6315 151.337 95.5515C152.665 93.4215 153.368 90.9115 155.727 89.4515C156.199 89.1615 155.891 88.5215 156.089 88.0715C156.286 87.6315 156.594 87.1415 157.164 87.1715C157.823 87.2115 157.943 87.7715 157.888 88.2615C157.669 90.1415 158.876 90.4315 160.379 90.3115C162.464 90.1415 164.505 91.2115 166.601 90.4415C166.733 90.3915 167.194 90.7015 167.172 90.7615C166.909 91.7715 165.943 92.2515 165.252 92.9215C164.725 93.4315 164.187 93.2715 163.902 92.6215C163.507 91.7615 162.805 91.7615 162.003 91.7715C160.412 91.8015 158.821 91.7715 157.23 91.7915C156.495 91.7915 155.814 92.0415 155.529 92.7615C155.244 93.4815 155.88 93.8015 156.363 94.2115C157.515 95.1715 158.646 96.1515 159.216 97.5815C159.535 98.3815 160.346 98.7115 161.027 99.1415C161.894 99.7215 162.102 100.581 161.224 101.071C160.171 101.681 159.699 102.831 158.514 103.301C158.152 103.431 157.867 103.691 157.702 104.031C157.548 104.371 157.537 104.751 157.669 105.101V105.141C158.064 106.001 159.041 105.891 159.688 105.631C160.862 105.191 161.905 104.551 162.497 103.331C163.628 101.021 166.942 100.671 168.686 102.581C168.895 102.811 169.136 103.001 169.399 103.161C169.959 103.481 170.574 103.701 171.188 103.311C171.583 103.081 171.934 102.811 171.726 102.271C171.627 101.981 171.463 101.711 171.243 101.491C171.024 101.271 170.749 101.101 170.453 100.991C167.852 100.121 168.258 100.241 168.95 97.8215C170.08 93.8715 173.119 92.8815 176.521 93.0715C179.714 93.2415 183.006 92.7315 186.134 93.7915C187.11 94.1215 187.912 94.3315 186.968 95.6715C185.541 97.6815 186.035 100.741 187.89 102.411C189.338 103.611 190.293 105.281 190.556 107.101C190.754 108.511 190.26 109.391 188.899 109.711C188.526 109.781 188.175 109.931 187.89 110.171C187.593 110.401 187.374 110.701 187.231 111.041C186.836 111.921 186.287 112.461 185.201 112.341C184.806 112.301 184.356 112.341 184.367 112.851C184.367 113.481 184.927 113.401 185.355 113.411C186.167 113.331 187.012 113.301 187.846 113.301Z" fill="#F7E9D8"/>
<path d="M160.116 16.8514C161.817 16.5514 163.507 17.1914 165.164 18.2714C165.965 18.8314 166.887 19.1914 167.874 19.3214C168.851 19.4414 169.849 19.3214 170.771 18.9714C173.317 18.0714 175.435 19.2814 176.126 21.8414C176.444 23.0214 176.686 24.1814 177.695 25.0814C178.474 25.7714 178.233 26.6414 177.794 27.4414C177.498 27.9714 177.355 28.4314 177.926 28.9014C178.156 29.1114 178.453 29.2514 178.771 29.2914C179.089 29.3314 179.407 29.2714 179.692 29.1314C181.196 28.4814 181.832 27.2514 181.942 25.7814C182.019 24.7214 182.37 24.3414 183.27 25.0314C184.762 26.1614 186.068 26.1814 187.769 25.2014C189.909 23.9614 193.793 26.1914 194.254 28.4714C194.792 30.9214 194.605 33.4614 193.716 35.8114C193.08 37.5214 194.386 38.4514 196.547 38.0714C197.458 37.9014 198.457 36.7314 199.049 37.3214C199.894 38.1814 198.303 38.8714 198.117 39.7914C197.667 42.0514 195.999 44.2214 197.82 46.5714C197.919 46.6915 197.974 46.8514 197.952 47.0114C197.941 47.1714 197.864 47.3114 197.733 47.4214C196.043 48.2814 195.571 50.4114 193.607 51.0014C191.884 51.5114 190.468 52.4014 190.413 54.3714C190.381 55.4414 189.634 56.1614 189.13 56.9714C188.12 58.6514 188.361 60.1814 189.525 61.5714C190.666 62.8815 191.379 64.4914 191.588 66.1914C191.807 67.9314 193.157 67.4414 194.002 66.9414C195.176 66.2514 196.24 66.3114 197.425 66.7114C198.501 67.0914 198.567 67.5714 197.787 68.2714C197.37 68.6514 197.03 69.2814 196.449 69.2314C194.1 69.0414 192.981 70.7414 191.588 72.0314C189.525 73.9514 187.944 73.7314 186.726 71.2314C186.408 70.5714 185.98 69.9714 185.442 69.4614C183.643 67.7114 182.985 67.8014 181.986 70.1414C181.075 72.2814 180.548 74.5514 179.385 76.6014C178.902 77.4314 178.518 78.1114 177.311 78.1614C175.896 78.2214 175.621 79.0614 176.433 80.1614C176.938 80.8414 177.454 81.5414 176.631 82.2614C175.929 82.8614 175.139 82.9614 174.162 82.6115C171.858 81.7915 169.849 80.7814 169.378 78.1814C169.301 77.9114 169.169 77.6614 168.982 77.4514C168.807 77.2314 168.577 77.0514 168.335 76.9214C166.535 75.7514 164.494 74.9015 163.013 73.2915C162.859 73.1315 162.651 73.0214 162.431 72.9814C162.212 72.9414 161.971 72.9614 161.762 73.0514C158.404 74.3214 154.816 74.7314 151.403 75.7814C149.823 76.3214 148.495 77.3914 147.661 78.7915C146.794 80.1414 148.386 81.2514 148.89 82.4414C149.724 84.4414 151.941 83.9514 153.565 84.2714C154.893 84.5414 155.398 85.0815 155.233 86.1814C155.057 87.4214 153.828 87.0514 153.247 86.8414C151.678 86.2714 150.306 85.9214 148.901 87.2714C148.309 87.8414 147.991 87.0214 148.067 86.5814C148.462 84.5914 147.146 84.6115 145.785 84.7915C143.557 85.1014 143.217 84.8914 143.074 82.6115C142.998 81.4514 142.57 80.8315 141.297 80.6814C138.729 80.3815 137.741 78.6214 138.729 76.2014C139.267 74.8114 140.309 73.6614 141.67 72.9514C142.339 72.5914 142.855 72.0314 143.151 71.3615C143.415 70.8115 143.513 70.3314 143.031 69.8514C142.855 69.6314 142.603 69.4814 142.328 69.4114C142.054 69.3514 141.758 69.3815 141.494 69.5014C141.176 69.6414 140.825 69.7114 140.474 69.6914C140.123 69.6714 139.772 69.5714 139.475 69.4014C139.157 69.2214 138.861 68.9914 138.619 68.7214C138.411 68.4614 139.651 64.2314 139.925 64.0314C142.328 62.3114 142.789 59.2514 140.704 57.0614C138.894 55.1814 138.345 52.9214 138.125 50.5514C138.016 49.4214 137.807 48.4214 137.061 47.5114C135.788 45.9514 136.085 44.4314 137.379 43.0614C138.663 41.6914 139.387 40.3414 139.069 38.3014C138.784 36.4814 139.815 34.6014 141.396 33.5414C142.756 32.6214 144.611 33.3014 146.169 33.5114C149.812 34.0114 150.701 33.4414 150.668 29.9314C150.723 28.7814 150.646 27.6214 150.449 26.4814C150.24 25.5314 150.789 24.8214 152.018 25.2214C152.435 25.3614 152.863 25.6514 153.269 25.6214C154.344 25.5414 155.771 26.2414 156.352 24.9114C157.076 23.2814 158.733 21.8614 157.351 19.7014C155.595 16.9514 155.716 16.8714 159.249 16.8714L160.116 16.8514Z" fill="#F7E9D8"/>
<path d="M50.635 118.201C50.8545 120.161 50.5912 122.381 48.2319 123.881C47.9466 124.041 47.7381 124.291 47.6393 124.591C47.5406 124.891 47.5626 125.211 47.6833 125.501C47.9796 126.171 48.5941 126.681 49.3403 126.481C51.513 125.911 53.1261 127.511 55.0903 127.821C56.4839 128.041 56.4838 130.221 57.0984 131.521C57.23 131.781 57.0983 132.141 57.219 132.421C57.4275 132.991 57.5702 133.551 56.7911 133.761C56.0888 133.961 55.7706 133.451 55.5183 132.931C55.211 132.321 54.772 131.751 54.6074 131.121C54.2453 129.681 53.2797 129.331 51.908 129.441C49.3183 129.671 46.7834 130.261 44.3693 131.181C43.9194 131.411 43.4475 131.581 42.9537 131.691C41.1541 131.841 40.1336 132.611 40.0129 134.451C39.9142 135.881 38.5205 136.081 37.467 136.251C36.9074 136.311 36.3697 136.531 35.9308 136.881C35.4918 137.231 35.1736 137.701 34.9981 138.221C34.603 139.171 33.8678 139.831 33.1764 140.541C32.0023 141.741 30.9489 143.001 29.1164 141.361C28.6006 140.901 27.9751 141.311 27.7557 141.891C27.1302 143.541 26.1536 145.131 26.2743 146.941C26.3292 147.751 26.1097 147.941 25.4074 148.221C22.9713 149.221 22.5653 150.161 23.3444 152.601C23.7943 154.001 22.7518 155.291 21.04 155.471C19.9317 155.591 18.9112 155.291 17.8687 154.971C16.1788 154.451 15.1253 155.001 14.7961 156.671C14.5657 157.861 14.2036 159.041 14.3353 160.281C14.4121 161.091 14.1598 161.461 13.249 160.881C12.3272 160.241 11.175 159.961 10.0447 160.131C8.78278 160.321 3.83377 156.091 3.55943 154.881C3.53749 154.761 3.43879 154.581 3.48268 154.541C5.10673 152.971 4.86526 150.131 7.4001 149.211C8.96929 148.651 10.1435 148.011 9.41929 146.021C9.05717 145.061 9.71547 144.181 10.2751 143.321C11.1639 141.961 12.3162 140.571 10.4507 138.981C9.7594 138.381 10.2642 137.881 11.1201 137.851C12.7441 137.821 14.1488 138.231 14.9279 139.731C15.4107 140.661 16.0691 141.461 17.2213 141.321C18.2967 141.201 18.6697 140.271 18.955 139.351C19.2623 138.361 19.6355 137.381 19.9866 136.401C20.7877 134.171 20.6998 132.171 18.7137 130.441C17.6602 129.521 18.0882 128.901 19.4489 128.641C21.4132 128.261 23.7614 125.041 23.4103 123.221C23.3115 122.941 23.1469 122.681 22.9384 122.471C21.435 120.611 21.7642 118.761 24.1454 118.501C28.0629 118.071 31.8707 115.921 36.0406 117.541C36.7319 117.821 37.4891 117.871 38.2133 117.701C38.9375 117.531 39.5849 117.141 40.0677 116.591C40.4957 116.121 41.0004 115.651 41.7027 115.881C43.1732 116.371 44.1718 115.571 45.0387 114.701C46.2457 113.481 47.6394 112.821 49.2963 113.461C50.9533 114.101 50.5912 115.651 50.5912 116.981L50.635 118.201Z" fill="#F7E9D8"/>
<path d="M158.294 183.711C158.119 185.471 159.052 186.651 160.972 186.921C161.938 187.061 162.377 187.581 162.859 188.251C163.331 188.931 163.419 189.611 162.75 190.211C162.453 190.501 162.069 190.681 161.652 190.701C161.235 190.731 160.818 190.601 160.5 190.351C160.237 190.181 159.995 189.971 159.809 189.721C158.657 188.191 157.142 188.181 155.584 188.921C154.037 189.671 152.248 189.821 150.591 189.331C150.163 189.191 149.702 189.201 149.285 189.361C148.868 189.521 148.528 189.831 148.32 190.211C147.102 192.121 145.028 193.011 143.283 194.301C142.559 194.841 142.043 194.611 141.428 194.151C140.342 193.361 139.344 193.431 138.455 194.501C137.072 196.151 135.283 196.791 133.067 196.551C131.465 196.371 129.972 196.931 128.458 197.431C126.79 197.991 125.001 197.501 123.311 197.271C122.291 197.131 122.51 196.371 123.191 195.831C123.399 195.691 123.619 195.561 123.849 195.451C126.538 193.851 126.494 193.871 124.606 191.431C123.268 189.681 122.071 187.811 120.831 185.991C120.25 185.151 120.941 184.601 121.435 184.111C122.423 183.171 123.344 182.171 124.178 181.101C124.958 179.991 124.99 179.081 123.597 178.431C123.059 178.231 122.609 177.861 122.335 177.371C121.94 176.571 121.622 175.531 122.028 174.951C122.587 174.201 123.531 174.951 124.222 175.271C125.934 176.051 127.514 176.731 128.765 174.581C129.116 173.971 129.896 174.051 130.466 174.461C131.41 175.121 132.354 174.951 133.363 174.631C136.842 173.501 140.134 174.491 143.349 175.651C144.303 175.991 144.918 176.831 145.434 177.711C145.862 178.461 146.334 179.181 146.86 179.861C147.859 181.121 149.088 181.801 150.811 181.131C152.38 180.511 154.026 180.211 155.584 179.411C157.845 178.251 160.292 179.071 162.574 179.741C163.628 180.051 164.505 180.701 165.767 180.611C166.634 180.551 167.589 181.041 168.28 181.741C168.741 182.211 169.114 182.691 168.895 183.361C168.609 184.181 167.951 183.741 167.446 183.691C167.128 183.651 166.81 183.701 166.513 183.821C166.217 183.951 165.976 184.151 165.789 184.401C164.824 185.691 164.374 185.151 163.913 184.001C163.518 182.991 163.101 181.951 161.96 181.421C159.776 180.441 158.283 181.291 158.294 183.711Z" fill="#F7E9D8"/>
<path d="M122.499 221.291C121.358 221.901 120.623 222.351 119.833 222.691C118.044 223.441 116.332 222.641 115.915 220.871C115.312 218.321 109.814 215.731 107.323 216.871C106.226 217.371 105.853 218.301 105.974 219.461C106.039 220.131 106.039 220.851 105.118 221.061C104.196 221.271 104.075 220.561 103.878 220.001C103.296 218.391 101.771 218.351 100.432 218.231C99.1921 218.121 97.8973 217.991 96.6463 218.421C96.1964 218.581 95.538 218.761 95.4173 218.041C95.2966 217.411 95.9549 217.251 96.4158 217.141C97.0961 216.971 97.8204 217.021 98.4788 217.291C99.214 217.581 99.7078 217.151 100.048 216.621C100.202 216.391 100.268 216.121 100.246 215.841C100.224 215.571 100.103 215.311 99.8944 215.111C99.2908 214.411 98.6654 213.721 98.1057 212.981C97.184 211.791 97.4364 211.181 98.9397 210.861C99.3347 210.781 99.7518 210.821 99.9713 210.481C101.881 207.561 103.889 204.641 104.251 201.121C104.36 200.021 103.79 198.661 103.077 197.731C101.903 196.221 102.1 194.651 102.199 193.051C102.308 191.171 101.145 190.131 99.5651 189.711C98.4129 189.391 97.4254 188.671 96.789 187.691C96.4927 187.221 96.1086 186.811 95.6587 186.471C94.1663 185.571 92.9592 184.621 93.2774 182.631C93.3762 182.051 92.5752 181.681 92.0156 181.381C91.7522 181.271 91.5327 181.071 91.423 180.811C91.3133 180.551 91.3133 180.261 91.423 180.001C91.4449 179.951 91.4668 179.911 91.4888 179.871C91.8509 179.061 92.5313 179.281 93.1019 179.431C93.6396 179.551 94.1224 179.821 94.4955 180.201C94.8795 180.581 95.132 181.061 95.2417 181.581C95.7465 183.901 97.568 185.191 99.1591 186.781C101.749 189.331 104.306 192.011 104.47 195.951C104.558 198.011 106.928 199.581 109.068 199.191C110.111 199.001 110.868 198.881 112.042 199.761C115.85 202.621 116.574 206.641 117.419 210.691C117.616 211.641 117.693 212.611 117.814 213.581C117.924 214.451 117.627 215.181 116.782 215.571C115.444 216.181 115.707 216.871 116.42 217.861C118.275 220.371 119.087 220.931 122.499 221.291Z" fill="#F7E9D8"/>
<path d="M48.649 193.211C51.2607 193.311 52.5665 194.761 53.971 196.071C54.3661 196.451 54.421 197.071 53.6967 197.201C51.7654 197.581 51.1069 199.211 50.0645 200.471C49.1537 201.601 49.6694 202.011 50.8985 202.011C51.9629 202.011 52.9286 202.181 53.6747 202.961C54.8269 204.161 54.5965 205.541 52.9944 205.961C50.9204 206.491 49.6146 207.761 48.4954 209.351C47.2773 210.991 45.8618 212.481 44.2597 213.801C42.7563 215.101 43.5134 216.301 44.2048 217.571C44.8522 218.741 45.4887 219.781 47.2444 219.371C47.9906 219.191 49.3293 218.781 49.5927 219.711C49.8231 220.521 48.3965 220.701 47.7491 220.921C45.9056 221.551 43.8317 221.181 41.9333 222.051C41.1542 222.431 40.9676 221.191 40.8688 220.631C40.6494 219.221 39.8813 218.411 38.4547 218.231C37.5659 218.111 37.4781 217.571 37.2257 216.891C36.5125 215.031 36.688 212.531 33.6484 212.161C32.7925 212.061 32.4743 211.121 32.8694 210.221C33.5936 208.401 34.4385 206.831 33.3741 204.571C32.8144 203.361 33.1107 201.341 32.6278 199.711C32.3425 198.741 33.0668 198.631 33.7362 198.961C34.4604 199.331 35.1298 199.821 35.6894 200.391C37.1379 201.861 38.9046 202.221 40.9018 202.081C41.9881 202.001 42.3174 201.501 42.1637 200.511C41.5492 196.621 41.9003 196.021 45.6861 194.701C46.8274 194.271 47.6614 193.111 48.649 193.211Z" fill="#F7E9D8"/>
<path d="M148.989 22.5115C148.254 22.6215 148.035 22.2015 148.013 21.6615C147.925 19.9815 147.08 19.5115 145.5 20.1515C144.238 20.6715 143.426 20.5615 143.382 18.9715C143.36 17.9615 142.504 17.9015 141.714 17.9515C140.2 18.0415 138.696 18.2115 137.182 18.2915C136.556 18.3215 136.008 18.2015 136.403 17.3415C137.226 15.4715 140.474 13.2715 142.548 13.3015C143.689 13.3015 144.435 14.2315 145.379 14.6915C147.332 15.6515 149.373 16.5615 150.076 18.8715C150.361 19.7515 151.294 19.8015 152.161 19.7815C152.72 19.7615 153.433 19.7215 153.543 20.4315C153.653 21.1415 152.907 21.2815 152.413 21.4615C151.283 21.8615 150.13 22.1715 148.989 22.5115Z" fill="#F7E9D8"/>
<path d="M122.324 141.871C124.617 141.491 125.462 143.721 127.174 144.371C127.613 144.541 127.284 145.241 127.108 145.711C126.23 148.001 126.483 148.511 128.974 149.281C130.543 149.771 132.013 150.291 132.266 152.131C132.332 152.581 132.595 153.201 131.98 153.421C131.432 153.621 131.322 153.011 131.07 152.671C130.137 151.361 128.798 150.371 127.24 149.841C124.749 149.091 122.467 147.821 120.546 146.131C119.976 145.601 119.328 145.571 118.615 145.531C117.54 145.471 116.728 144.931 116.749 143.851C116.749 142.871 117.529 142.381 118.549 142.271L122.324 141.871Z" fill="#F7E9D8"/>
<path d="M111.131 84.3314C112.415 84.3914 113.962 84.0214 114.346 85.7914C114.588 86.8614 114.193 87.7814 112.942 88.0014C111.471 88.3214 110.111 89.0314 109.024 90.0514C108.19 90.7614 107.576 90.6614 107.093 89.7014C106.961 89.4914 106.852 89.2714 106.742 89.0414C106.479 88.2514 104.975 87.9314 105.48 87.0114C105.798 86.4414 106.226 85.9414 106.753 85.5414C107.269 85.1414 107.872 84.8414 108.52 84.6614C109.365 84.4014 110.242 84.2914 111.131 84.3314Z" fill="#F7E9D8"/>
<path d="M78.2 209.401C76.4881 209.631 75.8517 207.931 76.126 205.681C76.3235 204.121 76.6747 202.621 76.4662 201.021C76.3126 199.891 76.993 199.761 77.8599 200.301C78.7268 200.841 79.3632 201.571 80.263 202.061C80.9323 202.441 80.4605 203.141 80.1642 203.481C79.045 204.781 79.0998 206.121 79.6923 207.581C80.2739 209.041 79.2534 209.201 78.2 209.401Z" fill="#F7E9D8"/>
<path d="M178.463 2.41146C178.398 2.87146 177.937 2.91146 177.684 3.16146C176.949 3.87146 176.214 4.38146 176.016 5.67146C175.852 6.69146 174.798 8.07146 173.416 8.65146C172.845 8.89146 172.275 8.87146 171.967 8.23146C171.66 7.59146 170.881 6.89146 171.649 6.09146C172.187 5.58146 172.757 5.10146 173.361 4.67146C174.14 4.08146 175.171 3.84146 175.27 2.49146C175.336 1.64146 176.499 1.36146 177.443 1.53146C177.893 1.61146 178.452 1.78146 178.463 2.41146Z" fill="#F7E9D8"/>
<path d="M173.493 14.3015C173.229 14.9215 173.098 15.6115 172.318 15.6715C171.967 15.7115 171.605 15.6315 171.32 15.4415C171.024 15.2515 170.815 14.9615 170.727 14.6315C170.376 13.3315 169.937 12.2615 168.313 11.9915C167.589 11.8715 167.83 11.1815 168.225 10.8615C168.829 10.3615 169.707 8.98147 170.179 9.81147C171.024 11.2915 172.384 12.2915 173.229 13.6915C173.339 13.8815 173.427 14.0915 173.493 14.3015Z" fill="#F7E9D8"/>
<path d="M131.542 164.421C131.399 165.721 131.3 166.801 131.147 167.881C131.059 168.501 128.118 170.291 127.514 170.061C126.757 169.771 126.845 169.131 127.339 168.781C129.116 167.531 129.786 165.771 130.082 163.781C130.148 163.341 130.345 162.851 130.861 162.971C131.816 163.191 131.487 164.021 131.542 164.421Z" fill="#F7E9D8"/>
<path d="M166.656 138.591C167.402 138.621 168.05 138.481 168.368 139.071C168.686 139.661 168.105 139.911 167.688 140.141C167.029 140.521 167.391 140.961 167.556 141.401C167.775 141.961 167.479 142.321 167.029 142.621C166.459 143.001 166.129 142.591 165.734 142.281C165.317 142.001 165.01 141.591 164.846 141.121C164.692 140.651 164.703 140.141 164.878 139.681C164.977 139.321 165.219 139.001 165.548 138.801C165.877 138.601 166.283 138.531 166.656 138.591Z" fill="#F7E9D8"/>
<path d="M138.06 142.141C138.115 141.561 137.895 140.911 138.389 140.411C138.883 139.911 139.563 139.981 140.156 140.131C140.935 140.331 140.748 140.941 140.551 141.461C140.331 141.971 140.298 142.521 140.441 143.051C140.616 143.631 141.001 144.321 140.189 144.611C139.387 144.901 138.795 144.281 138.312 143.711C137.928 143.271 138.093 142.681 138.06 142.141Z" fill="#F7E9D8"/>
<path d="M65.7454 220.471C65.8222 220.611 65.8881 220.751 65.943 220.901C66.2941 221.841 67.0732 221.931 67.9511 221.861C68.8948 221.781 69.3117 222.381 69.5751 223.111C69.7397 223.561 69.7287 224.071 69.0374 223.861C68.1266 223.611 67.15 223.651 66.2611 223.971C65.8332 224.111 65.3284 224.071 65.2077 223.511C65.0431 222.761 64.9115 221.971 64.8127 221.191C64.7359 220.811 64.8566 220.471 65.7454 220.471Z" fill="#F7E9D8"/>
<path d="M59.776 129.371C59.8857 128.201 60.2259 127.061 61.3781 126.331C61.5866 126.191 61.839 126.111 62.0914 126.121C62.3437 126.131 62.5961 126.211 62.7937 126.371C63.3753 126.811 62.9472 127.181 62.7058 127.611C62.3217 128.291 61.9815 129.001 61.7182 129.731C61.4987 130.341 61.5426 131.241 60.6428 131.171C59.5784 131.081 59.8418 130.131 59.776 129.371Z" fill="#F7E9D8"/>
<path d="M103.296 93.8814C103.263 93.2014 103.516 92.5414 103.977 92.0314C104.097 91.8514 104.273 91.7014 104.481 91.6214C104.69 91.5414 104.92 91.5215 105.151 91.5715C105.579 91.6915 105.568 92.1214 105.634 92.4814C105.721 92.9614 105.853 93.4214 106.029 93.8714C106.369 94.6914 106.841 95.6014 105.579 95.9714C104.459 96.3014 103.878 95.4214 103.406 94.6014C103.329 94.3714 103.285 94.1214 103.296 93.8814Z" fill="#F7E9D8"/>
<path d="M81.7007 123.681C82.4908 124.161 83.1601 124.791 83.6868 125.541C84.0818 126.071 84.4659 126.721 84.0818 127.391C83.6868 128.071 82.9955 128.211 82.5127 127.681C81.6019 126.711 81.4373 125.421 81.2288 124.151C81.1629 123.901 81.3605 123.741 81.7007 123.681Z" fill="#F7E9D8"/>
<path d="M90.3256 217.281C89.9964 218.161 89.9305 219.191 88.7564 219.141C88.6247 219.141 88.4821 219.111 88.3504 219.051C88.2187 218.991 88.1091 218.921 88.0103 218.821C87.9115 218.721 87.8346 218.611 87.7907 218.481C87.7359 218.351 87.714 218.221 87.714 218.081C87.714 218.011 87.725 217.941 87.736 217.871C87.9335 217.121 87.8786 216.061 89.1186 216.021C90.0952 215.991 90.0842 216.781 90.3256 217.281Z" fill="#F7E9D6"/>
<path d="M24.2772 167.861C24.2992 167.691 24.3431 167.531 24.4089 167.381C24.9246 166.421 25.5831 164.961 26.6255 165.351C27.5802 165.701 26.3622 166.881 26.1318 167.691C26.0659 167.921 25.9013 168.131 25.8465 168.361C25.7038 168.901 25.3417 169.291 24.7821 169.151C24.2224 169.001 24.2992 168.381 24.2772 167.861Z" fill="#F7E9D8"/>
<path d="M134.197 159.911C134.131 160.661 133.714 160.961 133.067 160.951C132.156 160.931 131.947 160.341 131.958 159.601C131.958 158.921 132.353 158.211 132.924 158.241C133.879 158.301 133.835 159.361 134.197 159.911Z" fill="#F7E9D6"/>
<path d="M120.491 87.2115C119.284 87.3015 118.944 86.9915 118.977 86.2815C119.01 85.6715 119.186 85.1515 119.899 85.1215C120.678 85.1015 120.974 85.7615 121.073 86.3415C121.139 86.5015 121.128 86.6815 121.051 86.8315C120.974 86.9915 120.843 87.1115 120.678 87.1715C120.623 87.2015 120.546 87.2115 120.491 87.2115Z" fill="#F7E9D8"/>
<path d="M63.2107 118.931C63.5289 116.781 63.8032 114.551 64.5055 112.401C64.9554 111.051 65.8662 110.381 67.4244 110.921C68.9826 111.461 69.9153 110.731 70.5188 109.361C71.3748 107.361 71.8795 107.301 73.2292 109.091C73.8657 109.931 74.5132 110.131 75.5008 109.701C75.8958 109.531 76.5103 109.161 76.8285 109.831C76.9602 110.101 76.9822 110.411 76.8834 110.691C76.7737 110.971 76.5652 111.201 76.2908 111.341L76.2141 111.371C73.5695 112.561 71.9015 114.381 71.5504 117.281C71.4626 118.111 70.5299 118.271 69.7837 118.431C67.9073 118.811 66.1076 119.321 64.6262 120.581C64.3299 120.841 64.0006 121.041 63.6276 120.731C63.035 120.241 63.2765 119.591 63.2107 118.931Z" fill="#F7E9D8"/>
<path d="M8.42077 182.251C8.8597 182.341 9.68271 182.031 9.66076 182.861C9.63882 183.841 8.88168 184.351 7.90506 184.411C7.12595 184.461 6.73083 184.031 6.73083 183.311C6.7857 182.291 7.55388 182.241 8.42077 182.251Z" fill="#F7E9D8"/>
<path d="M188.065 106.091C188.361 107.191 187.473 107.921 186.891 108.871C186.112 110.191 185.135 109.621 184.148 109.641C183.588 109.661 183.028 109.861 182.469 109.881C181.009 109.941 179.374 110.591 178.453 108.801C178.123 108.161 177.619 108.371 177.169 108.621C176.302 109.111 175.687 108.771 175.259 108.061C174.798 107.281 175.182 106.621 175.841 106.151C177.245 105.231 178.562 104.201 179.78 103.061C180.713 102.151 181.734 101.331 182.041 99.9815C182.183 99.3815 182.469 98.5515 183.38 98.7015C183.764 98.7515 184.126 98.9215 184.4 99.1915C184.674 99.4515 184.85 99.8015 184.905 100.171C185.015 101.821 185.892 102.851 187.297 103.651C188.241 104.181 188.087 105.111 188.065 106.091Z" fill="#F1DAB6"/>
<path d="M141.242 99.0014C142.416 98.8214 143.195 99.4314 143.711 100.451C144.326 101.851 145.203 103.131 146.312 104.221C146.641 104.511 146.893 104.881 147.047 105.281C147.2 105.681 147.255 106.111 147.211 106.541C147.091 108.251 146.356 108.721 144.907 107.781C143.338 106.751 142.043 107.131 140.858 108.271C140.024 109.061 139.366 109.021 138.63 108.211C137.61 107.081 136.315 106.261 136.074 104.511C135.58 100.801 137.138 98.9814 141.242 99.0014Z" fill="#F1DAB6"/>
<path d="M56.9228 145.531C56.6704 145.531 56.4291 145.461 56.2096 145.341C55.9901 145.221 55.8145 145.041 55.7047 144.831C55.3865 144.191 55.8914 143.871 56.3413 143.491C57.68 142.361 58.8322 141.071 60.3136 140.101C60.9501 139.701 61.6414 139.401 62.3656 139.191C63.2545 138.911 63.825 139.401 64.3627 139.911C65.065 140.571 64.3189 141.041 64.0116 141.471C63.2435 142.631 62.201 143.601 60.972 144.311C59.743 145.021 58.3493 145.431 56.9228 145.531Z" fill="#F1DBB5"/>
<path d="M152.413 101.181C151.315 101.011 150.899 100.101 150.69 99.0314C150.635 98.7414 153.005 95.9114 153.225 95.9314C153.587 95.9614 155.902 98.3414 155.891 98.6714C155.858 99.3614 153.488 101.181 152.413 101.181Z" fill="#F1DBB5"/>
<path d="M120.118 112.491C120.118 111.841 120.228 111.161 121.04 111.171C121.227 111.171 121.413 111.211 121.589 111.291C121.764 111.371 121.918 111.481 122.039 111.611C122.159 111.751 122.258 111.911 122.313 112.081C122.368 112.251 122.39 112.441 122.368 112.621C122.379 112.781 122.357 112.951 122.302 113.101C122.247 113.251 122.159 113.401 122.039 113.521C121.929 113.641 121.786 113.741 121.633 113.811C121.479 113.881 121.314 113.921 121.139 113.931H121.073C120.129 113.961 120.118 113.181 120.118 112.491Z" fill="#F2DAB4"/>
<path d="M173.91 105.221C173.569 105.221 173.24 105.101 172.977 104.881C172.714 104.661 172.549 104.361 172.516 104.031C172.428 103.231 173.076 103.041 173.767 103.041C174.469 103.031 175.018 103.271 175.073 104.041C175.117 104.811 174.744 105.181 173.91 105.221Z" fill="#F1DBB4"/>
<path d="M152.907 47.3014C152.709 47.8114 152.588 48.5114 152.204 49.0514C150.953 50.7614 150.394 52.8614 150.635 54.9414C150.679 55.3514 150.712 55.8814 150.174 56.0214C148.462 56.4914 147.574 57.9314 146.334 58.9414C144.644 60.3214 143.7 59.9114 142.91 57.9514C142.01 55.6914 141.055 53.4314 140.518 51.0414C140.265 49.9314 140.55 49.4414 141.593 49.1614C143.107 48.7314 144.062 47.9614 144.271 46.2614C144.479 44.5614 147.299 42.4514 148.583 42.6614C150.679 42.9914 153.093 45.5114 152.907 47.3014Z" fill="#F1DAB6"/>
<path d="M179.297 38.7715C179.188 36.9415 179.747 35.3815 180.142 33.7815C180.34 32.9715 180.998 32.1615 182.074 32.3715C182.513 32.4315 182.908 32.6615 183.171 33.0115C183.434 33.3515 183.544 33.7815 183.478 34.2115C183.478 34.2415 183.478 34.2715 183.478 34.2915C182.962 37.0215 183.226 39.7615 183.105 42.5015C183.061 43.5115 182.381 44.0115 181.316 44.0115C180.252 44.0115 180.055 43.3815 180.066 42.5415C180.055 41.1715 178.847 40.0415 179.297 38.7715Z" fill="#F1DBB5"/>
<g opacity="0.5098">
<path d="M10.3081 179.701C9.57286 180.331 8.8377 180.501 7.76232 179.951C5.83101 178.961 3.99846 180.081 4.05333 182.211C4.31669 183.701 4.95307 185.101 5.90775 186.301C6.39058 186.921 7.34528 187.321 8.12439 186.811C10.0228 185.611 11.8882 184.331 13.2928 182.591C14.0609 181.641 14.2037 180.431 13.1283 179.471C12.1407 178.571 11.2298 178.901 10.3081 179.701Z" fill="#F7C16E"/>
<path d="M204.042 67.7414C204.053 67.2514 203.976 66.7714 203.823 66.3114C203.362 64.8514 202.287 64.1914 200.761 64.5814C199.06 65.0214 197.36 64.8314 195.67 64.8314C195.066 64.6114 194.397 64.6114 193.793 64.8314C192.619 63.7314 192.751 62.0014 191.653 60.8414C190.732 59.8614 190.874 58.6614 191.478 57.5914C192.136 56.4614 193.014 55.4614 194.616 55.6714C197.096 55.9914 198.106 55.1214 199.422 52.4014C199.774 51.5714 200.081 50.7114 200.322 49.8314C200.553 49.2614 200.553 48.6214 200.322 48.0414C199.565 45.5614 198.962 43.1014 200.278 40.6014C200.619 39.9514 200.849 39.2514 200.959 38.5214C201.112 37.3414 201.529 35.8114 200.004 35.3114C196.69 34.2014 196.537 31.6514 196.482 28.9814C196.01 28.1614 196.58 27.2114 196.13 26.3914C195.911 24.7914 194.671 24.1314 193.266 23.9014C192.213 23.7214 191.182 23.4814 190.15 23.2214C188.987 22.9014 187.736 23.0314 186.661 23.5914C186.167 23.8514 185.596 24.4614 184.971 23.8714C184.433 23.3614 184.718 22.7614 184.916 22.1714C185.849 19.2014 185.475 18.3214 182.732 16.8414C182.008 16.5914 181.196 16.5914 180.472 16.8414C179.495 17.4014 179.44 18.2514 179.967 19.0214C181.141 20.7814 179.111 20.9114 178.518 21.2514C177.651 21.7614 177.948 20.5614 177.728 20.1214C177.256 19.2014 177.015 18.0714 175.929 17.6714C174.568 17.1714 174.744 16.3614 175.139 15.4114C175.391 14.8314 175.391 14.1814 175.139 13.5914C174.755 12.7514 174.162 12.0114 173.427 11.4314C172.22 10.4914 172.351 9.85143 173.767 9.24143C174.777 8.80143 176.291 8.57143 176.455 7.42143C176.741 5.60143 177.805 4.70143 179.363 4.01143C179.758 3.87143 180.088 3.59143 180.285 3.24143C180.472 2.88143 180.526 2.47143 180.428 2.07143C180.351 1.68143 180.153 1.32143 179.868 1.03143C179.583 0.741433 179.221 0.531433 178.815 0.431433C177.476 0.0714329 176.071 -0.0685667 174.689 0.0314333C173.174 0.101433 172.67 0.901434 172.922 2.22143C173.01 2.69143 173.482 3.26143 173.021 3.59143C171.133 4.94143 170.42 7.25143 168.313 8.49143C165.888 9.93143 164.56 12.3414 167.435 14.4714C168.225 15.0614 168.939 15.7914 169.004 16.8714C168.708 17.0214 168.379 17.0914 168.05 17.0914C167.71 17.0914 167.38 17.0214 167.084 16.8714C166.634 16.9014 166.195 16.8214 165.778 16.6514C165.372 16.4814 165.01 16.2114 164.725 15.8814C163.518 14.5614 161.993 14.4414 160.39 14.8314C159.589 14.9914 158.777 15.0614 157.954 15.0414C157.241 15.4814 156.385 14.9814 155.639 15.3814C155.244 15.4114 154.871 15.5814 154.574 15.8614C154.289 16.1314 154.114 16.5014 154.081 16.8814C153.686 17.2414 154.333 18.5914 152.928 17.9914C152.544 18.0514 152.16 17.9914 151.809 17.8114C151.469 17.6314 151.206 17.3514 151.052 17.0114C149.615 13.7014 146.213 13.2914 143.371 12.0614C142.548 11.7514 141.637 11.6914 140.781 11.9014C138.433 12.3014 137.215 13.8914 136.041 15.6714C134.867 17.4514 135.163 18.8714 137.324 19.8114C138.082 20.1314 138.883 19.8814 139.673 19.9714C140.035 20.0114 140.617 19.8414 140.419 20.5614C139.848 22.3814 140.693 23.6514 142.251 23.0714C144.095 22.3814 145.357 22.8914 146.498 24.2014C147.2 24.6314 148.067 24.0814 148.77 24.5514L148.748 24.9314C148.506 26.2614 148.506 27.6114 148.748 28.9414C148.682 30.0214 149.428 31.5414 147.266 31.5314C146.531 31.8114 145.697 31.8114 144.951 31.5314C142.559 30.7414 140.485 30.9914 138.916 33.1114C138.18 34.1114 137.654 35.2314 137.379 36.4214C136.853 38.7914 136.469 41.1814 134.932 43.2314C134.428 43.8814 134.482 44.7314 134.581 45.6314C134.823 47.8014 136.348 49.5314 136.567 51.6614C137.028 52.3514 136.512 53.1714 136.907 53.8714C136.787 55.7014 138.235 56.8314 139.08 58.2214C140.068 59.8614 139.892 61.1914 138.323 62.2214C137.862 62.5314 137.511 62.9814 137.324 63.5014C136.842 64.6314 136.502 65.8014 135.909 66.8614C135.009 68.4614 135.525 69.8714 136.82 70.7014C138.126 71.5414 137.851 72.1114 137.138 72.9314C135.646 74.6314 135.349 76.7814 134.724 78.8014C134.417 79.7614 134.779 80.6414 135.602 81.4314C137.412 83.1614 140.243 83.9714 140.825 86.8414C140.913 87.2514 141.604 87.7114 142.098 87.8514C143.876 88.3414 145.73 88.5614 146.926 90.1914C147.124 90.4614 147.716 90.5114 148.166 90.5614C150.931 90.8714 150.931 90.8614 149.428 93.1414C149.044 93.7514 148.682 94.4014 148.221 94.9814C147.661 95.6814 146.959 95.9514 146.048 95.5214C143.898 94.4814 141.582 94.2614 139.223 94.2714C137.698 94.2714 136.172 93.8914 135.152 92.9514C133.363 91.3314 131.563 90.9714 129.138 91.2414C125.353 91.6714 122.456 92.8214 121.303 96.6414C120.777 98.3714 119.01 98.6414 117.55 99.1014C116.596 99.4014 116.311 98.3014 115.806 97.7314C115.071 96.8714 113.962 96.6914 112.92 96.5014C112.185 96.3614 111.395 96.5014 110.637 96.4614C109.463 96.4014 109.024 95.5314 108.794 94.6414C108.684 94.2114 108.124 93.4614 108.849 93.2014C110.901 92.4814 112.689 90.6114 115.202 91.7214C115.806 91.9314 116.475 91.9314 117.079 91.7214C119.175 91.3114 120.788 89.9214 122.708 89.1614C123.498 88.8514 123.674 88.1814 123.761 87.5514C124.189 84.8214 120.733 81.4214 118.33 82.7114C116.069 83.9214 115.038 82.4114 113.446 82.1514L113.26 82.1114C112.009 81.8714 110.725 81.8714 109.474 82.1114C108.344 82.2514 107.247 82.6014 106.259 83.1414C103.384 84.6814 102.616 85.9814 103.099 88.8614C103.219 89.6214 102.759 89.8414 102.407 90.2214C99.9493 92.8914 100.564 95.2514 102.879 97.5614C103.318 98.0014 103.922 98.2714 103.702 99.0214C103.472 99.7314 103.472 100.481 103.702 101.191C103.834 101.651 103.845 102.211 104.13 102.571C105.227 103.981 104.514 105.041 103.494 106.061C102.254 107.281 100.97 108.461 99.7408 109.691C99.0604 110.371 98.5557 111.111 98.9507 112.161C99.7408 114.361 98.7533 115.601 96.383 115.091C93.2885 114.421 90.6549 115.441 88.0323 116.681C87.1215 117.111 86.2765 117.701 86.1558 118.821C85.7717 119.391 86.2546 120.101 85.8157 120.661C85.7279 120.951 85.651 121.241 85.5742 121.531C85.245 122.751 85.0365 123.621 83.5771 122.131C82.0518 120.571 79.517 121.251 78.5294 123.221C78.288 123.931 78.288 124.691 78.5294 125.401C78.5294 127.721 79.078 129.591 81.6677 130.641C83.1711 131.261 84.3122 132.671 85.3108 134.001C85.64 134.411 85.8485 134.911 85.8815 135.431C85.9254 135.961 85.8047 136.481 85.5414 136.931C85.0476 137.841 84.4001 138.671 84.1148 139.681C83.9173 140.341 83.5551 140.441 82.8418 140.061C80.8227 138.891 78.5293 138.361 76.2688 137.871C75.2702 137.631 74.2278 137.631 73.2402 137.871C72.6147 137.971 72.0003 138.121 71.3967 138.311C70.0141 138.851 69.202 138.751 68.8728 137.061C68.5655 135.751 68.0389 134.501 67.3037 133.371C66.5136 132.101 64.3738 131.501 64.6481 130.131C64.9005 128.881 66.4806 127.901 67.3914 126.741C68.1486 125.801 68.0827 124.821 67.2378 123.931C66.1953 122.841 60.577 122.801 59.8967 124.061C58.7225 126.321 57.2192 126.121 55.3427 125.151C54.6734 124.821 53.96 124.551 53.2358 124.351C52.1604 124.061 52.1714 123.651 52.7421 122.791C54.6953 119.811 53.8175 116.611 53.3127 113.471C53.192 113.121 52.9944 112.811 52.7091 112.561C50.295 109.821 46.7287 109.541 43.5684 111.931C41.7468 113.311 39.2229 113.191 37.5111 114.751C37.3026 114.931 36.721 114.891 36.4028 114.751C33.8899 113.641 31.4098 113.811 28.9298 114.791C28.3483 115.211 27.6021 114.751 27.0095 115.121C24.343 115.141 22.1264 116.281 20.1841 117.891C18.3516 119.401 17.9675 121.971 19.5148 122.991C20.667 123.751 20.0306 124.211 19.6794 124.851C19.3283 125.481 18.6809 125.751 18.0554 126.061C14.917 127.621 14.5658 128.701 16.3325 131.641C16.4861 131.901 16.7275 132.131 16.8592 132.391C17.8358 134.071 17.7371 135.701 16.7275 137.391C15.5534 136.311 14.072 135.581 12.4699 135.281C11.603 135.051 10.6923 135.051 9.82538 135.281C7.1808 135.911 6.30296 137.791 7.65268 140.001C7.99285 140.571 8.58529 141.211 7.93786 141.811C5.91877 143.661 7.34532 147.511 3.70217 148.421C3.362 148.511 3.16454 149.211 2.94508 149.651C2.47322 150.721 1.78194 151.691 0.926021 152.501C-0.0835253 153.391 -0.303062 154.561 0.443125 155.621C1.88063 157.681 3.24131 159.811 5.77615 160.901C7.11489 161.471 8.65122 162.231 8.99139 163.571C9.66077 166.161 11.8115 167.341 13.8415 168.051C16.3764 168.931 18.4504 171.371 21.6107 170.521C22.302 170.341 22.7189 170.991 23.1688 171.401C24.0906 172.231 25.3855 172.611 26.2414 171.851C27.6021 170.631 28.3703 171.471 29.2811 172.201C29.731 172.551 30.1151 172.951 30.543 173.331C31.0368 173.811 31.6952 174.121 32.3865 174.181C33.0997 174.251 33.8021 174.081 34.3947 173.711C35.0311 173.351 35.6675 172.641 36.3588 173.511C36.9404 174.271 37.2916 175.151 36.6551 176.051C36.1394 176.681 35.8212 177.431 35.7554 178.231C35.503 178.931 35.503 179.701 35.7554 180.411C36.2382 181.351 36.0187 182.251 35.6895 183.201C34.9104 185.421 35.7663 188.301 37.7524 189.351C39.6508 190.361 41.7687 191.011 43.7988 191.821C43.9743 191.921 44.1719 191.981 44.3804 192.001C44.5779 192.021 44.7863 192.001 44.9838 191.941C44.6546 192.051 44.3035 192.131 44.1499 192.501C42.866 192.911 41.3407 192.851 40.6275 194.301C39.991 195.611 39.0034 196.771 38.8168 198.271C38.6852 199.411 38.0817 199.221 37.4233 198.691C36.9844 198.341 36.6332 197.891 36.1614 197.551C35.5798 197.131 34.8774 196.881 34.1422 196.811C33.407 196.741 32.6828 196.871 32.0134 197.181C30.7954 197.721 31.0917 198.951 31.0807 200.171C31.0588 203.651 32.6498 207.141 30.8612 210.671C30.0162 212.321 30.8612 213.431 32.6498 214.161C35.5687 215.351 35.8651 215.931 34.8007 218.891C34.4934 219.751 34.8774 220.321 35.3822 220.851C35.8869 221.381 36.5344 221.511 37.0831 221.021C38.6084 219.631 39.4314 220.911 39.6838 221.921C40.2434 224.181 41.6479 224.661 43.7438 224.411C44.3254 224.001 45.0716 224.451 45.6642 224.081C46.8822 224.151 47.9357 223.501 49.0988 223.331C49.4061 223.191 49.7353 223.111 50.0755 223.111C50.4157 223.111 50.7449 223.191 51.0521 223.331C51.8861 223.491 52.6433 223.731 53.0164 224.571C53.6199 225.961 54.6953 226.571 56.2097 226.121C57.724 225.671 57.9543 224.371 57.8995 223.001C57.8995 222.621 57.307 221.961 58.2727 221.871C59.5017 221.781 60.182 220.791 61.1367 220.171C61.7292 221.881 62.212 223.511 62.8594 225.071C63.4959 226.631 64.7578 227.331 66.5135 226.831C67.1719 226.601 67.8853 226.581 68.5547 226.781C69.7288 227.191 70.8041 227.081 71.6381 226.061C72.483 225.051 72.6367 224.021 71.9783 222.841C71.7589 222.431 71.0675 221.951 71.7917 221.431C73.1415 220.431 73.4377 219.211 72.8342 217.701C72.7683 217.461 72.7683 217.211 72.8232 216.971C72.889 216.731 73.0098 216.511 73.1854 216.321C74.1949 214.981 75.2264 213.681 77.1028 213.441C78.672 213.241 79.9668 212.401 81.0751 211.411C82.3261 210.281 83.2369 208.871 82.4248 207.171C82.1834 206.751 82.0628 206.271 82.0957 205.781C82.1177 205.301 82.2932 204.841 82.5785 204.441C83.2149 203.491 83.3356 202.441 82.5785 201.541C81.6348 200.411 80.9326 199.061 79.528 198.321C78.5294 197.801 78.5513 197.431 79.5608 196.691C83.6868 193.651 85.7827 189.771 84.6525 184.601C84.1587 182.311 85.5742 181.081 88.0761 181.541C89.3051 181.761 90.5123 182.241 91.3024 183.291C93.3873 186.071 95.999 188.361 98.5887 190.701C99.7189 191.731 100.465 192.821 100.3 194.371C100.246 194.841 100.18 195.361 100.52 195.791C101.957 197.601 101.881 199.731 101.661 201.791C101.343 204.811 99.4994 207.271 97.8754 209.691C96.6025 211.571 96.2293 213.161 97.3705 215.181C95.2856 215.251 93.6726 216.001 92.8277 218.201C92.6411 217.511 92.5094 217.121 92.4217 216.731C92.0047 215.001 90.8304 214.511 89.0528 214.471C86.891 214.451 86.3753 215.951 85.9144 217.341C85.4645 218.731 85.9144 219.901 87.4397 220.681C89.2832 221.621 90.8415 222.981 91.9827 224.651C92.5423 225.481 93.0142 226.541 94.2761 225.941C95.5161 225.351 96.767 224.501 96.0538 222.821C95.6587 221.861 95.6916 221.151 96.5475 220.391C96.8877 220.031 97.3486 219.791 97.8424 219.701C98.3362 219.611 98.8519 219.681 99.3128 219.891C100.75 220.341 102.144 220.881 103.516 221.511C105.908 222.731 106.566 222.561 107.587 220.921C108.596 219.291 109.628 219.011 111.416 219.921C112.525 220.501 113.161 221.401 113.677 222.501C114.698 224.671 116.289 225.721 118.384 225.451C121.446 225.111 124.497 224.601 127.503 223.951C129.731 223.441 131.487 222.131 132.046 219.771C132.529 217.791 133.034 215.851 135.755 215.711C136.194 215.631 136.589 215.391 136.874 215.061C137.829 214.061 138.521 214.301 139.442 215.231C141.867 217.651 144.128 217.261 145.763 214.291C146.345 213.251 146.904 212.181 148.407 212.281C150.361 212.421 151.754 211.441 153.06 210.181C153.444 209.801 153.532 208.851 154.41 209.221C155.134 209.521 155.189 210.211 155.266 210.921C155.529 213.621 156.879 214.981 159.447 215.261C160.171 215.631 161.005 215.141 161.74 215.581C163.671 215.511 165.263 214.931 166.327 213.211C167.172 211.831 168.313 210.701 170.102 210.451C170.672 210.031 171.419 210.481 172.011 210.131C173.295 209.861 174.206 208.951 175.292 208.351C175.632 208.171 176.005 207.741 176.466 208.161C177.07 208.701 177.465 209.401 177.608 210.181C177.827 210.161 178.058 210.191 178.277 210.271C178.277 207.261 177.882 203.491 179.056 201.991C179.429 201.671 179.758 201.321 180.055 200.951C179.671 200.091 179.067 199.301 179.495 198.691C180.79 196.871 180.109 195.541 179.166 194.021C178.683 193.261 178.902 192.361 179.056 191.511C179.188 190.861 179.275 190.191 179.286 189.521C179.286 187.101 178.167 185.401 175.435 187.101C175.347 187.041 175.259 186.971 175.171 186.901C175.808 185.921 176.51 184.981 175.709 183.741C174.974 182.611 173.975 182.411 172.757 182.801C172.088 183.021 171.825 182.611 171.616 182.131C170.563 179.681 168.522 178.591 165.921 178.111C164.911 177.921 163.968 177.531 163.123 176.981C162.069 176.261 160.983 176.301 159.853 176.441C159.359 176.501 158.909 176.751 158.371 176.571C156.583 175.991 155.057 176.511 153.554 177.531C150.855 179.351 149.593 179.091 147.804 176.441C146.235 174.111 144.183 172.651 141.231 172.261C138.148 171.831 135.031 171.811 131.947 172.201C131.114 172.301 130.565 172.011 129.566 171.711C130.85 170.891 131.915 169.781 132.672 168.481C133.418 167.181 133.835 165.721 133.868 164.231C133.901 163.691 134.263 163.411 134.691 163.101C137.05 161.331 137.171 159.341 135.086 157.231C134.537 156.671 134.054 156.171 134.351 155.321C135.58 151.711 134.373 148.981 130.762 147.501C129.874 147.131 129.819 146.791 130.027 146.021C131.168 141.721 130.005 139.681 125.352 138.291C126.395 137.841 125.824 136.091 127.284 136.451C128.743 136.811 130.17 136.731 131.596 136.871C132.123 136.921 132.595 136.821 132.825 137.401C133.253 138.531 134.186 138.901 135.338 139.041C136.095 139.131 136.326 139.501 136.128 140.321C135.47 142.911 137.039 146.001 139.354 147.511C141.845 149.161 145.105 149.511 147.222 151.801C147.365 151.931 147.53 152.021 147.716 152.081C147.892 152.141 148.089 152.161 148.276 152.131C150.679 151.641 153.269 151.481 155.156 149.771C157.044 148.061 159.326 146.791 161.18 145.051C162.311 143.991 163.287 142.981 165.01 144.061C165.405 144.301 165.954 143.981 166.448 143.811C168.73 142.991 168.939 140.721 170.036 139.101C170.475 138.451 169.893 137.731 169.081 137.371C168.083 136.931 167.128 136.451 165.998 135.941C167.863 134.641 169.454 133.491 171.759 133.371C173.657 133.231 175.523 132.791 177.267 132.061C178.442 131.601 179.232 130.911 179.275 129.651C179.297 128.611 179.89 128.371 180.845 128.261C181.887 128.151 183.215 128.021 183.665 127.011C184.279 125.611 184.751 124.351 186.704 124.471C186.979 124.471 187.516 123.901 187.538 123.581C187.615 122.151 188.713 122.001 189.766 121.771C191.127 121.461 192.509 121.311 193.837 120.881C195.165 120.461 195.944 120.681 196.328 121.971C196.602 122.891 197.217 123.241 198.183 123.071C200.542 122.661 202.232 118.791 200.772 117.041C199.949 116.041 199.137 114.951 197.853 114.461C196.899 114.091 196.58 113.511 196.328 112.581C195.659 110.091 193.727 109.401 191.368 110.681C190.787 110.991 190.304 111.561 189.02 111.241C190.973 109.691 191.478 107.661 191.862 105.591C191.983 104.801 191.862 104.001 191.544 103.271C191.215 102.541 190.677 101.911 190.007 101.451C188.976 100.671 188.822 99.7814 188.91 98.4314C189.02 96.6514 189.525 94.6714 187.999 93.0014C187.1 91.9714 185.903 91.2314 184.565 90.8814C183.061 90.4314 181.481 91.0414 179.978 90.5414L176.17 90.5114C174.217 89.6814 172.494 90.7914 170.683 91.1214C171.419 89.6214 173.317 89.1614 173.899 87.5814C174.425 86.3214 175.303 85.4214 176.741 85.1414C178.167 84.8714 178.88 84.0114 179.33 82.7714C179.747 81.6214 180.285 80.5114 181.613 80.0114C182.425 79.7014 182.524 78.9614 182.732 78.2414C183.237 76.5214 183.127 74.6214 184.4 73.1314C185.969 73.8914 186.935 75.4914 188.822 75.5414C189.426 75.7614 190.095 75.7514 190.699 75.5214C192.959 74.2514 194.693 72.3714 196.635 70.7214C198.731 68.9614 199.499 68.2314 200.926 69.3714C201.65 69.9414 202.341 70.9814 203.296 70.5614C204.481 70.0414 204.009 68.7414 204.042 67.7414ZM45.0937 191.911L45.0388 191.921L45.0607 191.911L45.1047 191.891C45.1376 191.881 45.1705 191.861 45.2034 191.841L45.0937 191.911Z" fill="#F7C16E"/>
<path d="M61.6306 120.611C61.7622 122.431 63.1997 122.751 64.5056 122.371C66.9855 121.691 69.5204 121.001 71.7699 119.751C73.0867 119.021 74.1621 117.891 74.3925 116.331C74.4913 115.571 74.7656 114.851 75.2155 114.221C75.6545 113.591 76.247 113.071 76.9493 112.711C77.4431 112.341 77.9039 111.931 78.31 111.481C79.0671 110.811 79.5939 110.041 79.0672 109.061C78.8477 108.611 78.4857 108.251 78.0248 108.021C77.5749 107.791 77.048 107.711 76.5433 107.791C75.9946 107.861 75.424 107.821 74.8863 107.671C74.3486 107.521 73.8438 107.271 73.4049 106.941C71.8796 105.861 70.4751 106.221 69.3668 107.811C68.6206 108.891 67.7317 109.471 66.371 109.271C65.7674 109.141 65.142 109.231 64.6043 109.521C64.0666 109.801 63.6497 110.261 63.4412 110.811C62.4426 113.011 61.1916 115.171 61.6635 117.721C61.4221 118.671 61.4001 119.661 61.6306 120.611Z" fill="#F7C16E"/>
</g>
<g opacity="0.5098">
<path d="M10.3081 179.701C9.57286 180.331 8.8377 180.501 7.76232 179.951C5.83101 178.961 3.99846 180.081 4.05333 182.211C4.31669 183.701 4.95307 185.101 5.90775 186.301C6.39058 186.921 7.34528 187.321 8.12439 186.811C10.0228 185.611 11.8882 184.331 13.2928 182.591C14.0609 181.641 14.2037 180.431 13.1283 179.471C12.1407 178.571 11.2298 178.901 10.3081 179.701Z" fill="#FFDB83"/>
<path d="M204.042 67.7414C204.053 67.2514 203.976 66.7714 203.823 66.3114C203.362 64.8514 202.287 64.1914 200.761 64.5814C199.06 65.0214 197.36 64.8314 195.67 64.8314C195.066 64.6114 194.397 64.6114 193.793 64.8314C192.619 63.7314 192.751 62.0014 191.653 60.8414C190.732 59.8614 190.874 58.6614 191.478 57.5914C192.136 56.4614 193.014 55.4614 194.616 55.6714C197.096 55.9914 198.106 55.1214 199.422 52.4014C199.774 51.5714 200.081 50.7114 200.322 49.8314C200.553 49.2614 200.553 48.6214 200.322 48.0414C199.565 45.5614 198.962 43.1014 200.278 40.6014C200.619 39.9514 200.849 39.2514 200.959 38.5214C201.112 37.3414 201.529 35.8114 200.004 35.3114C196.69 34.2014 196.537 31.6514 196.482 28.9814C196.01 28.1614 196.58 27.2114 196.13 26.3914C195.911 24.7914 194.671 24.1314 193.266 23.9014C192.213 23.7214 191.182 23.4814 190.15 23.2214C188.987 22.9014 187.736 23.0314 186.661 23.5914C186.167 23.8514 185.596 24.4614 184.971 23.8714C184.433 23.3614 184.718 22.7614 184.916 22.1714C185.849 19.2014 185.475 18.3214 182.732 16.8414C182.008 16.5914 181.196 16.5914 180.472 16.8414C179.495 17.4014 179.44 18.2514 179.967 19.0214C181.141 20.7814 179.111 20.9114 178.518 21.2514C177.651 21.7614 177.948 20.5614 177.728 20.1214C177.256 19.2014 177.015 18.0714 175.929 17.6714C174.568 17.1714 174.744 16.3614 175.139 15.4114C175.391 14.8314 175.391 14.1814 175.139 13.5914C174.755 12.7514 174.162 12.0114 173.427 11.4314C172.22 10.4914 172.351 9.85143 173.767 9.24143C174.777 8.80143 176.291 8.57143 176.455 7.42143C176.741 5.60143 177.805 4.70143 179.363 4.01143C179.758 3.87143 180.088 3.59143 180.285 3.24143C180.472 2.88143 180.526 2.47143 180.428 2.07143C180.351 1.68143 180.153 1.32143 179.868 1.03143C179.583 0.741433 179.221 0.531433 178.815 0.431433C177.476 0.0714329 176.071 -0.0685667 174.689 0.0314333C173.174 0.101433 172.67 0.901434 172.922 2.22143C173.01 2.69143 173.482 3.26143 173.021 3.59143C171.133 4.94143 170.42 7.25143 168.313 8.49143C165.888 9.93143 164.56 12.3414 167.435 14.4714C168.225 15.0614 168.939 15.7914 169.004 16.8714C168.708 17.0214 168.379 17.0914 168.05 17.0914C167.71 17.0914 167.38 17.0214 167.084 16.8714C166.634 16.9014 166.195 16.8214 165.778 16.6514C165.372 16.4814 165.01 16.2114 164.725 15.8814C163.518 14.5614 161.993 14.4414 160.39 14.8314C159.589 14.9914 158.777 15.0614 157.954 15.0414C157.241 15.4814 156.385 14.9814 155.639 15.3814C155.244 15.4114 154.871 15.5814 154.574 15.8614C154.289 16.1314 154.114 16.5014 154.081 16.8814C153.686 17.2414 154.333 18.5914 152.928 17.9914C152.544 18.0514 152.16 17.9914 151.809 17.8114C151.469 17.6314 151.206 17.3514 151.052 17.0114C149.615 13.7014 146.213 13.2914 143.371 12.0614C142.548 11.7514 141.637 11.6914 140.781 11.9014C138.433 12.3014 137.215 13.8914 136.041 15.6714C134.867 17.4514 135.163 18.8714 137.324 19.8114C138.082 20.1314 138.883 19.8814 139.673 19.9714C140.035 20.0114 140.617 19.8414 140.419 20.5614C139.848 22.3814 140.693 23.6514 142.251 23.0714C144.095 22.3814 145.357 22.8914 146.498 24.2014C147.2 24.6314 148.067 24.0814 148.77 24.5514L148.748 24.9314C148.506 26.2614 148.506 27.6114 148.748 28.9414C148.682 30.0214 149.428 31.5414 147.266 31.5314C146.531 31.8114 145.697 31.8114 144.951 31.5314C142.559 30.7414 140.485 30.9914 138.916 33.1114C138.18 34.1114 137.654 35.2314 137.379 36.4214C136.853 38.7914 136.469 41.1814 134.932 43.2314C134.428 43.8814 134.482 44.7314 134.581 45.6314C134.823 47.8014 136.348 49.5314 136.567 51.6614C137.028 52.3514 136.512 53.1714 136.907 53.8714C136.787 55.7014 138.235 56.8314 139.08 58.2214C140.068 59.8614 139.892 61.1914 138.323 62.2214C137.862 62.5314 137.511 62.9814 137.324 63.5014C136.842 64.6314 136.502 65.8014 135.909 66.8614C135.009 68.4614 135.525 69.8714 136.82 70.7014C138.126 71.5414 137.851 72.1114 137.138 72.9314C135.646 74.6314 135.349 76.7814 134.724 78.8014C134.417 79.7614 134.779 80.6414 135.602 81.4314C137.412 83.1614 140.243 83.9714 140.825 86.8414C140.913 87.2514 141.604 87.7114 142.098 87.8514C143.876 88.3414 145.73 88.5614 146.926 90.1914C147.124 90.4614 147.716 90.5114 148.166 90.5614C150.931 90.8714 150.931 90.8614 149.428 93.1414C149.044 93.7514 148.682 94.4014 148.221 94.9814C147.661 95.6814 146.959 95.9514 146.048 95.5214C143.898 94.4814 141.582 94.2614 139.223 94.2714C137.698 94.2714 136.172 93.8914 135.152 92.9514C133.363 91.3314 131.563 90.9714 129.138 91.2414C125.353 91.6714 122.456 92.8214 121.303 96.6414C120.777 98.3714 119.01 98.6414 117.55 99.1014C116.596 99.4014 116.311 98.3014 115.806 97.7314C115.071 96.8714 113.962 96.6914 112.92 96.5014C112.185 96.3614 111.395 96.5014 110.637 96.4614C109.463 96.4014 109.024 95.5314 108.794 94.6414C108.684 94.2114 108.124 93.4614 108.849 93.2014C110.901 92.4814 112.689 90.6114 115.202 91.7214C115.806 91.9314 116.475 91.9314 117.079 91.7214C119.175 91.3114 120.788 89.9214 122.708 89.1614C123.498 88.8514 123.674 88.1814 123.761 87.5514C124.189 84.8214 120.733 81.4214 118.33 82.7114C116.069 83.9214 115.038 82.4114 113.446 82.1514L113.26 82.1114C112.009 81.8714 110.725 81.8714 109.474 82.1114C108.344 82.2514 107.247 82.6014 106.259 83.1414C103.384 84.6814 102.616 85.9814 103.099 88.8614C103.219 89.6214 102.759 89.8414 102.407 90.2214C99.9493 92.8914 100.564 95.2514 102.879 97.5614C103.318 98.0014 103.922 98.2714 103.702 99.0214C103.472 99.7314 103.472 100.481 103.702 101.191C103.834 101.651 103.845 102.211 104.13 102.571C105.227 103.981 104.514 105.041 103.494 106.061C102.254 107.281 100.97 108.461 99.7408 109.691C99.0604 110.371 98.5557 111.111 98.9507 112.161C99.7408 114.361 98.7533 115.601 96.383 115.091C93.2885 114.421 90.6549 115.441 88.0323 116.681C87.1215 117.111 86.2765 117.701 86.1558 118.821C85.7717 119.391 86.2546 120.101 85.8157 120.661C85.7279 120.951 85.651 121.241 85.5742 121.531C85.245 122.751 85.0365 123.621 83.5771 122.131C82.0518 120.571 79.517 121.251 78.5294 123.221C78.288 123.931 78.288 124.691 78.5294 125.401C78.5294 127.721 79.078 129.591 81.6677 130.641C83.1711 131.261 84.3122 132.671 85.3108 134.001C85.64 134.411 85.8485 134.911 85.8815 135.431C85.9254 135.961 85.8047 136.481 85.5414 136.931C85.0476 137.841 84.4001 138.671 84.1148 139.681C83.9173 140.341 83.5551 140.441 82.8418 140.061C80.8227 138.891 78.5293 138.361 76.2688 137.871C75.2702 137.631 74.2278 137.631 73.2402 137.871C72.6147 137.971 72.0003 138.121 71.3967 138.311C70.0141 138.851 69.202 138.751 68.8728 137.061C68.5655 135.751 68.0389 134.501 67.3037 133.371C66.5136 132.101 64.3738 131.501 64.6481 130.131C64.9005 128.881 66.4806 127.901 67.3914 126.741C68.1486 125.801 68.0827 124.821 67.2378 123.931C66.1953 122.841 60.577 122.801 59.8967 124.061C58.7225 126.321 57.2192 126.121 55.3427 125.151C54.6734 124.821 53.96 124.551 53.2358 124.351C52.1604 124.061 52.1714 123.651 52.7421 122.791C54.6953 119.811 53.8175 116.611 53.3127 113.471C53.192 113.121 52.9944 112.811 52.7091 112.561C50.295 109.821 46.7287 109.541 43.5684 111.931C41.7468 113.311 39.2229 113.191 37.5111 114.751C37.3026 114.931 36.721 114.891 36.4028 114.751C33.8899 113.641 31.4098 113.811 28.9298 114.791C28.3483 115.211 27.6021 114.751 27.0095 115.121C24.343 115.141 22.1264 116.281 20.1841 117.891C18.3516 119.401 17.9675 121.971 19.5148 122.991C20.667 123.751 20.0306 124.211 19.6794 124.851C19.3283 125.481 18.6809 125.751 18.0554 126.061C14.917 127.621 14.5658 128.701 16.3325 131.641C16.4861 131.901 16.7275 132.131 16.8592 132.391C17.8358 134.071 17.7371 135.701 16.7275 137.391C15.5534 136.311 14.072 135.581 12.4699 135.281C11.603 135.051 10.6923 135.051 9.82538 135.281C7.1808 135.911 6.30296 137.791 7.65268 140.001C7.99285 140.571 8.58529 141.211 7.93786 141.811C5.91877 143.661 7.34532 147.511 3.70217 148.421C3.362 148.511 3.16454 149.211 2.94508 149.651C2.47322 150.721 1.78194 151.691 0.926021 152.501C-0.0835253 153.391 -0.303062 154.561 0.443125 155.621C1.88063 157.681 3.24131 159.811 5.77615 160.901C7.11489 161.471 8.65122 162.231 8.99139 163.571C9.66077 166.161 11.8115 167.341 13.8415 168.051C16.3764 168.931 18.4504 171.371 21.6107 170.521C22.302 170.341 22.7189 170.991 23.1688 171.401C24.0906 172.231 25.3855 172.611 26.2414 171.851C27.6021 170.631 28.3703 171.471 29.2811 172.201C29.731 172.551 30.1151 172.951 30.543 173.331C31.0368 173.811 31.6952 174.121 32.3865 174.181C33.0997 174.251 33.8021 174.081 34.3947 173.711C35.0311 173.351 35.6675 172.641 36.3588 173.511C36.9404 174.271 37.2916 175.151 36.6551 176.051C36.1394 176.681 35.8212 177.431 35.7554 178.231C35.503 178.931 35.503 179.701 35.7554 180.411C36.2382 181.351 36.0187 182.251 35.6895 183.201C34.9104 185.421 35.7663 188.301 37.7524 189.351C39.6508 190.361 41.7687 191.011 43.7988 191.821C43.9743 191.921 44.1719 191.981 44.3804 192.001C44.5779 192.021 44.7863 192.001 44.9838 191.941C44.6546 192.051 44.3035 192.131 44.1499 192.501C42.866 192.911 41.3407 192.851 40.6275 194.301C39.991 195.611 39.0034 196.771 38.8168 198.271C38.6852 199.411 38.0817 199.221 37.4233 198.691C36.9844 198.341 36.6332 197.891 36.1614 197.551C35.5798 197.131 34.8774 196.881 34.1422 196.811C33.407 196.741 32.6828 196.871 32.0134 197.181C30.7954 197.721 31.0917 198.951 31.0807 200.171C31.0588 203.651 32.6498 207.141 30.8612 210.671C30.0162 212.321 30.8612 213.431 32.6498 214.161C35.5687 215.351 35.8651 215.931 34.8007 218.891C34.4934 219.751 34.8774 220.321 35.3822 220.851C35.8869 221.381 36.5344 221.511 37.0831 221.021C38.6084 219.631 39.4314 220.911 39.6838 221.921C40.2434 224.181 41.6479 224.661 43.7438 224.411C44.3254 224.001 45.0716 224.451 45.6642 224.081C46.8822 224.151 47.9357 223.501 49.0988 223.331C49.4061 223.191 49.7353 223.111 50.0755 223.111C50.4157 223.111 50.7449 223.191 51.0521 223.331C51.8861 223.491 52.6433 223.731 53.0164 224.571C53.6199 225.961 54.6953 226.571 56.2097 226.121C57.724 225.671 57.9543 224.371 57.8995 223.001C57.8995 222.621 57.307 221.961 58.2727 221.871C59.5017 221.781 60.182 220.791 61.1367 220.171C61.7292 221.881 62.212 223.511 62.8594 225.071C63.4959 226.631 64.7578 227.331 66.5135 226.831C67.1719 226.601 67.8853 226.581 68.5547 226.781C69.7288 227.191 70.8041 227.081 71.6381 226.061C72.483 225.051 72.6367 224.021 71.9783 222.841C71.7589 222.431 71.0675 221.951 71.7917 221.431C73.1415 220.431 73.4377 219.211 72.8342 217.701C72.7683 217.461 72.7683 217.211 72.8232 216.971C72.889 216.731 73.0098 216.511 73.1854 216.321C74.1949 214.981 75.2264 213.681 77.1028 213.441C78.672 213.241 79.9668 212.401 81.0751 211.411C82.3261 210.281 83.2369 208.871 82.4248 207.171C82.1834 206.751 82.0628 206.271 82.0957 205.781C82.1177 205.301 82.2932 204.841 82.5785 204.441C83.2149 203.491 83.3356 202.441 82.5785 201.541C81.6348 200.411 80.9326 199.061 79.528 198.321C78.5294 197.801 78.5513 197.431 79.5608 196.691C83.6868 193.651 85.7827 189.771 84.6525 184.601C84.1587 182.311 85.5742 181.081 88.0761 181.541C89.3051 181.761 90.5123 182.241 91.3024 183.291C93.3873 186.071 95.999 188.361 98.5887 190.701C99.7189 191.731 100.465 192.821 100.3 194.371C100.246 194.841 100.18 195.361 100.52 195.791C101.957 197.601 101.881 199.731 101.661 201.791C101.343 204.811 99.4994 207.271 97.8754 209.691C96.6025 211.571 96.2293 213.161 97.3705 215.181C95.2856 215.251 93.6726 216.001 92.8277 218.201C92.6411 217.511 92.5094 217.121 92.4217 216.731C92.0047 215.001 90.8304 214.511 89.0528 214.471C86.891 214.451 86.3753 215.951 85.9144 217.341C85.4645 218.731 85.9144 219.901 87.4397 220.681C89.2832 221.621 90.8415 222.981 91.9827 224.651C92.5423 225.481 93.0142 226.541 94.2761 225.941C95.5161 225.351 96.767 224.501 96.0538 222.821C95.6587 221.861 95.6916 221.151 96.5475 220.391C96.8877 220.031 97.3486 219.791 97.8424 219.701C98.3362 219.611 98.8519 219.681 99.3128 219.891C100.75 220.341 102.144 220.881 103.516 221.511C105.908 222.731 106.566 222.561 107.587 220.921C108.596 219.291 109.628 219.011 111.416 219.921C112.525 220.501 113.161 221.401 113.677 222.501C114.698 224.671 116.289 225.721 118.384 225.451C121.446 225.111 124.497 224.601 127.503 223.951C129.731 223.441 131.487 222.131 132.046 219.771C132.529 217.791 133.034 215.851 135.755 215.711C136.194 215.631 136.589 215.391 136.874 215.061C137.829 214.061 138.521 214.301 139.442 215.231C141.867 217.651 144.128 217.261 145.763 214.291C146.345 213.251 146.904 212.181 148.407 212.281C150.361 212.421 151.754 211.441 153.06 210.181C153.444 209.801 153.532 208.851 154.41 209.221C155.134 209.521 155.189 210.211 155.266 210.921C155.529 213.621 156.879 214.981 159.447 215.261C160.171 215.631 161.005 215.141 161.74 215.581C163.671 215.511 165.263 214.931 166.327 213.211C167.172 211.831 168.313 210.701 170.102 210.451C170.672 210.031 171.419 210.481 172.011 210.131C173.295 209.861 174.206 208.951 175.292 208.351C175.632 208.171 176.005 207.741 176.466 208.161C177.07 208.701 177.465 209.401 177.608 210.181C177.827 210.161 178.058 210.191 178.277 210.271C178.277 207.261 177.882 203.491 179.056 201.991C179.429 201.671 179.758 201.321 180.055 200.951C179.671 200.091 179.067 199.301 179.495 198.691C180.79 196.871 180.109 195.541 179.166 194.021C178.683 193.261 178.902 192.361 179.056 191.511C179.188 190.861 179.275 190.191 179.286 189.521C179.286 187.101 178.167 185.401 175.435 187.101C175.347 187.041 175.259 186.971 175.171 186.901C175.808 185.921 176.51 184.981 175.709 183.741C174.974 182.611 173.975 182.411 172.757 182.801C172.088 183.021 171.825 182.611 171.616 182.131C170.563 179.681 168.522 178.591 165.921 178.111C164.911 177.921 163.968 177.531 163.123 176.981C162.069 176.261 160.983 176.301 159.853 176.441C159.359 176.501 158.909 176.751 158.371 176.571C156.583 175.991 155.057 176.511 153.554 177.531C150.855 179.351 149.593 179.091 147.804 176.441C146.235 174.111 144.183 172.651 141.231 172.261C138.148 171.831 135.031 171.811 131.947 172.201C131.114 172.301 130.565 172.011 129.566 171.711C130.85 170.891 131.915 169.781 132.672 168.481C133.418 167.181 133.835 165.721 133.868 164.231C133.901 163.691 134.263 163.411 134.691 163.101C137.05 161.331 137.171 159.341 135.086 157.231C134.537 156.671 134.054 156.171 134.351 155.321C135.58 151.711 134.373 148.981 130.762 147.501C129.874 147.131 129.819 146.791 130.027 146.021C131.168 141.721 130.005 139.681 125.352 138.291C126.395 137.841 125.824 136.091 127.284 136.451C128.743 136.811 130.17 136.731 131.596 136.871C132.123 136.921 132.595 136.821 132.825 137.401C133.253 138.531 134.186 138.901 135.338 139.041C136.095 139.131 136.326 139.501 136.128 140.321C135.47 142.911 137.039 146.001 139.354 147.511C141.845 149.161 145.105 149.511 147.222 151.801C147.365 151.931 147.53 152.021 147.716 152.081C147.892 152.141 148.089 152.161 148.276 152.131C150.679 151.641 153.269 151.481 155.156 149.771C157.044 148.061 159.326 146.791 161.18 145.051C162.311 143.991 163.287 142.981 165.01 144.061C165.405 144.301 165.954 143.981 166.448 143.811C168.73 142.991 168.939 140.721 170.036 139.101C170.475 138.451 169.893 137.731 169.081 137.371C168.083 136.931 167.128 136.451 165.998 135.941C167.863 134.641 169.454 133.491 171.759 133.371C173.657 133.231 175.523 132.791 177.267 132.061C178.442 131.601 179.232 130.911 179.275 129.651C179.297 128.611 179.89 128.371 180.845 128.261C181.887 128.151 183.215 128.021 183.665 127.011C184.279 125.611 184.751 124.351 186.704 124.471C186.979 124.471 187.516 123.901 187.538 123.581C187.615 122.151 188.713 122.001 189.766 121.771C191.127 121.461 192.509 121.311 193.837 120.881C195.165 120.461 195.944 120.681 196.328 121.971C196.602 122.891 197.217 123.241 198.183 123.071C200.542 122.661 202.232 118.791 200.772 117.041C199.949 116.041 199.137 114.951 197.853 114.461C196.899 114.091 196.58 113.511 196.328 112.581C195.659 110.091 193.727 109.401 191.368 110.681C190.787 110.991 190.304 111.561 189.02 111.241C190.973 109.691 191.478 107.661 191.862 105.591C191.983 104.801 191.862 104.001 191.544 103.271C191.215 102.541 190.677 101.911 190.007 101.451C188.976 100.671 188.822 99.7814 188.91 98.4314C189.02 96.6514 189.525 94.6714 187.999 93.0014C187.1 91.9714 185.903 91.2314 184.565 90.8814C183.061 90.4314 181.481 91.0414 179.978 90.5414L176.17 90.5114C174.217 89.6814 172.494 90.7914 170.683 91.1214C171.419 89.6214 173.317 89.1614 173.899 87.5814C174.425 86.3214 175.303 85.4214 176.741 85.1414C178.167 84.8714 178.88 84.0114 179.33 82.7714C179.747 81.6214 180.285 80.5114 181.613 80.0114C182.425 79.7014 182.524 78.9614 182.732 78.2414C183.237 76.5214 183.127 74.6214 184.4 73.1314C185.969 73.8914 186.935 75.4914 188.822 75.5414C189.426 75.7614 190.095 75.7514 190.699 75.5214C192.959 74.2514 194.693 72.3714 196.635 70.7214C198.731 68.9614 199.499 68.2314 200.926 69.3714C201.65 69.9414 202.341 70.9814 203.296 70.5614C204.481 70.0414 204.009 68.7414 204.042 67.7414ZM45.0937 191.911L45.0388 191.921L45.0607 191.911L45.1047 191.891C45.1376 191.881 45.1705 191.861 45.2034 191.841L45.0937 191.911Z" fill="#FFDB83"/>
<path d="M61.6306 120.611C61.7622 122.431 63.1997 122.751 64.5056 122.371C66.9855 121.691 69.5204 121.001 71.7699 119.751C73.0867 119.021 74.1621 117.891 74.3925 116.331C74.4913 115.571 74.7656 114.851 75.2155 114.221C75.6545 113.591 76.247 113.071 76.9493 112.711C77.4431 112.341 77.9039 111.931 78.31 111.481C79.0671 110.811 79.5939 110.041 79.0672 109.061C78.8477 108.611 78.4857 108.251 78.0248 108.021C77.5749 107.791 77.048 107.711 76.5433 107.791C75.9946 107.861 75.424 107.821 74.8863 107.671C74.3486 107.521 73.8438 107.271 73.4049 106.941C71.8796 105.861 70.4751 106.221 69.3668 107.811C68.6206 108.891 67.7317 109.471 66.371 109.271C65.7674 109.141 65.142 109.231 64.6043 109.521C64.0666 109.801 63.6497 110.261 63.4412 110.811C62.4426 113.011 61.1916 115.171 61.6635 117.721C61.4221 118.671 61.4001 119.661 61.6306 120.611Z" fill="#FFDB83"/>
</g>
</svg>
