<svg width="449" height="115" viewBox="0 0 449 115" fill="none" xmlns="http://www.w3.org/2000/svg">
<path d="M0.129895 80.78C0.0999207 80.72 0.0699411 80.66 0 80.56C5.60528 69.55 21.7117 76.5 30.5543 70.09C36.749 64.6 44.7823 65.19 52.4958 65.41C57.6914 65.4 62.6273 63.5 67.8429 63.69C74.3374 63.52 82.9102 71.64 87.2365 63.51C90.3439 58.2 97.6078 60.24 101.794 56.51C101.794 56.42 101.784 56.38 101.784 56.35C102.264 56.4 102.654 56.2 102.624 55.72C102.793 55.79 103.003 55.65 103.043 55.5C103.413 55.26 103.813 54.81 104.092 54.45C104.192 54.45 104.322 54.32 104.312 54.25C104.402 54.26 104.492 54.08 104.522 54.04C104.612 54.05 104.702 53.87 104.732 53.83C104.822 53.84 104.912 53.66 104.942 53.62C105.032 53.63 105.121 53.45 105.151 53.41C105.341 53.38 105.501 53.12 105.571 52.98C105.721 52.98 105.831 52.69 105.781 52.57C105.781 52.57 105.791 52.57 105.851 52.57C106.011 52.43 106.101 52.29 106.191 52.15C106.28 52.16 106.37 51.98 106.4 51.94C106.83 51.67 106.74 51.19 107.25 50.89C107.34 50.89 107.43 50.72 107.459 50.68C107.559 50.68 107.679 50.54 107.669 50.47C107.839 50.46 107.829 50.28 107.929 50.23C108.019 50.08 108.049 49.96 108.089 49.85C108.179 49.85 108.269 49.68 108.299 49.64C108.399 49.64 108.509 49.49 108.509 49.43C108.648 49.38 108.678 49.11 108.718 49.01C108.718 49.01 108.728 49.01 108.798 49C109.028 48.72 109.188 48.44 109.348 48.16C109.348 48.16 109.358 48.16 109.428 48.15C109.658 47.87 109.818 47.59 109.977 47.31C109.977 47.31 109.987 47.31 110.057 47.3C113.984 43.5 113.984 38.03 115.653 33.2C115.653 33.2 115.663 33.2 115.723 33.18C115.812 33.03 115.842 32.91 115.882 32.79C116.032 32.78 116.132 32.49 116.092 32.37C124.405 22.18 138.393 22.69 149.774 18.81C154.43 16.43 156.059 10.88 160.795 8.63C164.362 1.96 172.555 2.74001 178.57 0.0100098C183.356 1.17001 189.271 13.26 192.068 17.85C194.936 24.17 187.462 33.37 196.754 36.61C203.878 40.66 202.29 36.91 208.095 36.42C213.69 35.95 220.784 47.57 211.652 45.07C200.391 33.75 208.015 53.55 197.614 50.77C193.087 50.98 190.699 42.13 187.872 45.75C184.425 52.33 180.938 45.44 176.152 46.96C173.874 47.7 165.84 48.88 170.486 51.99C177.6 54.4 184.924 57.05 190.789 61.9C191.609 62.57 192.438 63.29 193.587 63.07C198.013 61.21 211.942 55.57 212.501 63.72C212.481 69.38 205.837 65.79 203.209 68.7C212.011 72.54 215.179 63.98 219.305 67.47C226.08 77.71 228.647 65.19 237.06 68.14C240.148 68.93 240.278 73.07 243.465 73.82C250.029 77.13 256.694 74.04 263.518 74.04C269.683 72.96 279.645 77.9 282.092 69.96C285.989 63.02 297.07 65.37 298.998 72.77C300.337 74.91 303.544 70.55 306.682 73.62C308.021 74.66 309.409 76.36 311.258 75.44C316.823 73.36 322.888 73.27 328.713 74.01C333.359 73.55 345.239 84.16 345.319 75.48C347.977 74.95 350.315 75.57 352.773 76.95C348.057 77.91 350.934 80.52 353.982 80.75C360.806 80.87 360.776 76.63 368.32 81.18C357.789 81.9 347.807 84.12 337.266 84.14C334.179 83.83 330.322 81.54 327.404 83.27C309.579 87.07 289.466 78.48 272.051 84.35C271.601 84.54 271.162 84.9 270.792 85.19C252.278 85.31 233.903 85.43 215.439 86.91C211.242 86.58 205.257 90.02 202.1 86.55C199.212 83.31 193.687 86.95 189.79 85.97C171.226 84.98 149.994 76.01 132.409 83.49C129.191 83.42 127.183 80.34 124.016 80.02C115.203 79.68 106.31 81.83 97.4679 82.28C96.2989 81.85 93.3714 84 95.3197 84.81C99.1265 85.29 103.273 91.32 106.49 90.02C108.828 89.58 108.938 86.53 111.546 86.44C114.404 86.97 120.119 85.68 119.639 90.09C105.101 96.71 123.246 94.58 128.712 95.98C125.354 103.16 109.548 94.43 103.673 93.66C98.0874 93.34 92.4521 93.84 86.8568 92.98C79.0334 93.49 71.25 95.27 63.3966 94.47C56.6123 93.39 50.6374 89.35 43.6532 89.16C30.0847 87.93 15.1872 91.53 3.06739 83.5C3.06739 83.5 3.07739 83.5 3.06739 83.43C2.7077 83.13 2.35799 82.9 2.00829 82.66C1.95833 82.52 1.72853 82.27 1.57866 82.24C1.31888 81.82 0.839292 81.52 0.529553 81.19C0.529553 81.1 0.359674 81.01 0.319708 80.98C0.329699 80.89 0.149859 80.8 0.109893 80.77C0.139868 80.77 0.129895 80.78 0.129895 80.78Z" fill="#F9CFB3"/>
<path d="M309.699 110.62C296.9 112.75 283.881 112.79 271.072 114.76C266.595 114.97 262.669 111.45 258.023 111.45C248.121 110.3 237.99 111.31 228.757 106.96C218.966 104.57 208.674 105.08 198.803 102.38C224.851 95.71 252.108 109.71 278.246 102.75C288.187 95.89 300.497 98.74 311.717 99.46C331.451 99.13 351.074 98.23 370.798 100.16C374.365 101.34 379.95 98.83 382.068 102.49C378.301 104.01 374.095 105.81 370.308 103.92C360.586 105.58 349.096 102.11 340.273 106.59C330.442 109.28 319.601 107.46 309.699 110.62Z" fill="#F4D0B3"/>
<path d="M447.133 68.27C444.406 71.42 440.439 64.76 436.782 66.98C428.609 70.66 418.797 62.84 411.563 68.56C398.864 60.13 456.915 49.99 447.133 68.27Z" fill="#F5EEDB"/>
<path d="M262.989 50.34C268.514 43.07 280.074 38.32 286.679 46.91C292.464 49.68 298.389 39.93 307.071 49.47C312.107 53.18 308.131 61.77 313.076 64.52C326.895 65.12 332.03 75.03 345.199 75.5C345.689 84.15 333.02 73.5 328.723 74C322.888 73.26 316.823 73.35 311.268 75.43C309.399 76.35 308.031 74.66 306.692 73.61C303.604 70.55 300.297 74.89 299.008 72.76C297.08 65.36 285.999 63.01 282.102 69.95C279.654 77.89 269.693 72.95 263.528 74.03C250.729 74.85 246.702 78.53 237.06 68.13C228.697 65.19 226.03 77.69 219.305 67.46C214.969 63.98 212.161 72.54 203.209 68.69C205.837 65.79 212.481 69.37 212.501 63.71C211.952 55.58 198.013 61.17 193.587 63.06C192.438 63.29 191.609 62.56 190.789 61.89C185.324 57.26 178.48 54.89 171.895 52.39C164.531 49.91 172.974 47.66 176.152 46.96C180.928 45.43 184.425 52.33 187.872 45.75C190.669 42.13 193.127 50.99 197.614 50.77C208.165 53.5 200.221 33.75 211.652 45.07C220.774 47.58 213.72 35.96 208.095 36.42C202.28 36.91 203.898 40.66 196.754 36.6C187.462 33.35 194.946 24.18 192.068 17.84C189.411 11.89 184.964 7.03999 181.577 1.51999C193.107 2.57999 202.949 9.43001 211.102 17.23C213.61 19.4 217.337 17.07 220.394 18.03C238.989 23.56 232.085 23.42 234.732 34.97C233.933 40.39 230.826 41.05 234.143 48C234.522 49.94 236.98 50.15 237.67 48.28C239.438 43.07 248.431 38.24 251.818 44.2C253.007 46.54 252.098 49.83 254.526 51.43C257.973 54.39 261.23 55.84 262.989 50.34Z" fill="#F8EEDB"/>
<path d="M131.929 83.79C138.643 88.64 147.606 79.06 151.003 87.03C152.042 90.6 160.885 86.59 159.036 91.57C158.297 95.19 112.255 97.74 113.914 93.05C115.643 91.87 117.671 91.97 119.22 90.34C120.469 88.45 118.33 86.69 116.552 86.75C114.843 86.87 112.275 85.7001 110.967 86.7301C107.39 87.5801 107.32 92.67 102.644 89.02C101.305 86.83 93.8709 85.32 94.7502 83.58C97.6578 81.26 106.97 82.26 111.296 81.09C122.627 79.67 121.837 79.45 131.929 83.79Z" fill="#F5EEDB"/>
<path d="M397.255 109.79C388.143 107.34 403.77 107.38 405.379 105.61C408.426 103.3 411.903 99.46 415.4 102.98C420.726 109.88 422.474 106.56 429.958 106.65C433.145 106.73 442.977 107.79 439.58 112.63C434.574 111.55 429.279 112.26 424.692 109.71C421.985 107.96 419.777 110.59 417.239 111.29C410.514 113.4 403.72 107.53 397.255 109.79Z" fill="#F5EEDB"/>
<path d="M397.255 109.88C403.67 107.4 410.524 113.46 417.239 111.28C419.776 110.58 421.995 107.95 424.692 109.7C429.239 112.28 434.574 111.47 439.52 112.67C439.58 112.82 439.57 112.91 439.55 113.06C433.125 115.4 425.372 113.32 418.388 114.01C411.344 114.56 404.439 115.11 397.765 112.31C397.365 111.55 397.155 110.79 397.255 109.88Z" fill="#F1D0B3"/>
<path d="M330.881 61.9C304.184 54.22 341.223 46.96 338.105 57.33C336.856 58.54 337.426 59.81 338.175 61.11C338.935 65.25 332.9 62.86 330.881 61.9Z" fill="#F6DBBF"/>
<path d="M411.593 68.63C417.309 63.37 425.402 68.94 432.186 67.88C441.508 65.67 438.341 67.01 446.214 69.2C445.375 76.25 437.821 69.36 434.034 71.75C427.31 74.57 416.349 74.59 411.593 68.63Z" fill="#F1D0B3"/>
<g opacity="0.5608">
<path d="M94.8601 83.52C94.7802 83.64 94.7302 83.76 94.7003 83.87C94.7003 83.77 94.7202 83.68 94.7702 83.58C94.8001 83.56 94.8302 83.54 94.8601 83.52Z" fill="#F5CF73"/>
<path d="M99.5562 86.9C98.0075 86.16 96.2989 85.49 95.3797 84.81C96.7485 84.99 98.1574 85.89 99.5562 86.9Z" fill="#F5CF73"/>
<path d="M106.72 89.96C105.891 90.48 104.892 90.55 103.313 89.5C104.442 90.12 105.521 90.41 106.51 90.01C106.58 90 106.65 89.98 106.72 89.96Z" fill="#F5CF73"/>
<path d="M111.576 86.43C111.356 86.49 111.156 86.59 110.977 86.73C110.407 86.87 109.917 87.11 109.498 87.42C110.007 86.88 110.627 86.47 111.556 86.43C111.566 86.43 111.566 86.43 111.576 86.43Z" fill="#F5CF73"/>
<path d="M115.513 92.27C114.554 92.91 114.134 93.41 114.124 93.8C113.904 93.58 113.834 93.33 113.934 93.05C114.444 92.7 114.973 92.47 115.513 92.27Z" fill="#F5CF73"/>
<path d="M116.562 86.75C116.102 86.78 115.583 86.72 115.043 86.63C115.563 86.65 116.072 86.68 116.562 86.75Z" fill="#F5CF73"/>
<path d="M119.649 90.08C119.519 90.14 119.399 90.19 119.28 90.25C119.989 89.09 119.439 88 118.5 87.35C119.319 87.84 119.799 88.67 119.649 90.08Z" fill="#F5CF73"/>
<path d="M126.154 95.58C123.596 95.55 121.278 95.43 119.349 95.22C121.568 95.35 124.095 95.4 126.154 95.58Z" fill="#F5CF73"/>
<path d="M169.757 51.44C168.878 50.85 168.788 50.29 169.168 49.77C168.928 50.24 169.058 50.79 169.757 51.44Z" fill="#F5CF73"/>
<path d="M182.956 56.92C180.268 55.6 177.451 54.5 174.643 53.44C177.461 54.46 180.268 55.57 182.956 56.92Z" fill="#F5CF73"/>
<path d="M200.121 50.99C199.802 51.04 199.442 51.05 199.042 51.02C199.442 51.04 199.792 51.03 200.121 50.99Z" fill="#F5CF73"/>
<path d="M206.216 41.55C205.087 41.76 204.668 43.26 204.228 45.01C204.648 43.23 205.037 41.7 206.216 41.55Z" fill="#F5CF73"/>
<path d="M211.442 60.96C210.353 59.75 208.544 59.36 206.456 59.45C208.544 59.37 210.363 59.76 211.442 60.96Z" fill="#F5CF73"/>
<path d="M204.508 59.64C203.848 59.74 203.169 59.87 202.489 60.03C203.169 59.88 203.848 59.74 204.508 59.64Z" fill="#F5CF73"/>
<path d="M212.521 68.46C211.042 69.19 209.324 69.83 207.166 69.7C209.294 69.81 211.022 69.18 212.521 68.46Z" fill="#F5CF73"/>
<path d="M216.017 43.46C216.047 43.8 216.017 44.11 215.908 44.37C216.007 44.1 216.047 43.79 216.017 43.46Z" fill="#F5CF73"/>
<path d="M218.766 67.1C218.036 66.66 217.337 66.55 216.648 66.65C217.357 66.54 218.056 66.64 218.766 67.1Z" fill="#F5CF73"/>
<path d="M240.597 71.56C239.488 70.64 238.319 69.51 237.05 68.14C238.829 68.6 239.628 70.17 240.597 71.56Z" fill="#F5CF73"/>
<path d="M263.508 74.04C260.331 74.25 257.683 74.63 255.365 74.92C258.063 74.54 260.77 74.04 263.508 74.04Z" fill="#F5CF73"/>
<path d="M304.723 72.54C304.504 72.5 304.274 72.48 304.054 72.48C304.274 72.48 304.494 72.49 304.723 72.54Z" fill="#F5CF73"/>
<path d="M334.778 75.98C333.499 75.38 332.26 74.81 331.181 74.43C332.28 74.8 333.519 75.36 334.778 75.98Z" fill="#F5CF73"/>
<path d="M345.019 77.39C344.7 78.42 343.98 78.85 342.991 78.89C343.93 78.82 344.64 78.38 345.019 77.39Z" fill="#F5CF73"/>
<path d="M202.489 60.03C203.169 59.87 203.848 59.74 204.508 59.64C203.848 59.74 203.169 59.88 202.489 60.03Z" fill="#F5CF73"/>
<path d="M419.916 66.45C417.249 66.23 414.691 66.49 412.373 67.98C414.631 66.33 417.209 66.14 419.916 66.45Z" fill="#F5CF73"/>
<path d="M437.002 66.87C436.932 66.9 436.852 66.94 436.782 66.98C434.944 67.81 433.015 68.05 431.057 67.99C431.427 67.97 431.806 67.93 432.176 67.87C434.374 67.35 435.883 67.03 437.002 66.87Z" fill="#F5CF73"/>
<path d="M169.757 51.44C168.878 50.85 168.788 50.29 169.168 49.77C168.928 50.24 169.058 50.79 169.757 51.44Z" fill="#F5CF73"/>
<path d="M182.956 56.92C180.268 55.6 177.451 54.5 174.643 53.44C177.461 54.46 180.268 55.57 182.956 56.92Z" fill="#F5CF73"/>
<path d="M200.121 50.99C199.802 51.04 199.442 51.05 199.042 51.02C199.442 51.04 199.792 51.03 200.121 50.99Z" fill="#F5CF73"/>
<path d="M206.216 41.55C205.087 41.76 204.668 43.26 204.228 45.01C204.648 43.23 205.037 41.7 206.216 41.55Z" fill="#F5CF73"/>
<path d="M211.442 60.96C210.353 59.75 208.544 59.36 206.456 59.45C208.544 59.37 210.363 59.76 211.442 60.96Z" fill="#F5CF73"/>
<path d="M204.508 59.64C203.848 59.74 203.169 59.87 202.489 60.03C203.169 59.88 203.848 59.74 204.508 59.64Z" fill="#F5CF73"/>
<path d="M212.521 68.46C211.042 69.19 209.324 69.83 207.166 69.7C209.294 69.81 211.022 69.18 212.521 68.46Z" fill="#F5CF73"/>
<path d="M216.017 43.46C216.047 43.8 216.017 44.11 215.908 44.37C216.007 44.1 216.047 43.79 216.017 43.46Z" fill="#F5CF73"/>
<path d="M218.766 67.1C218.036 66.66 217.337 66.55 216.648 66.65C217.357 66.54 218.056 66.64 218.766 67.1Z" fill="#F5CF73"/>
<path d="M240.597 71.56C239.488 70.64 238.319 69.51 237.05 68.14C238.829 68.6 239.628 70.17 240.597 71.56Z" fill="#F5CF73"/>
<path d="M263.508 74.04C260.331 74.25 257.683 74.63 255.365 74.92C258.063 74.54 260.77 74.04 263.508 74.04Z" fill="#F5CF73"/>
<path d="M304.723 72.54C304.504 72.5 304.274 72.48 304.054 72.48C304.274 72.48 304.494 72.49 304.723 72.54Z" fill="#F5CF73"/>
<path d="M334.778 75.98C333.499 75.38 332.26 74.81 331.181 74.43C332.28 74.8 333.519 75.36 334.778 75.98Z" fill="#F5CF73"/>
<path d="M345.019 77.39C344.7 78.42 343.98 78.85 342.991 78.89C343.93 78.82 344.64 78.38 345.019 77.39Z" fill="#F5CF73"/>
<path d="M202.489 60.03C203.169 59.87 203.848 59.74 204.508 59.64C203.848 59.74 203.169 59.88 202.489 60.03Z" fill="#F5CF73"/>
<path d="M411.563 68.56C411.813 68.36 412.063 68.18 412.313 68.02C412.073 68.2 411.833 68.4 411.593 68.62C416.349 74.59 427.31 74.57 434.024 71.74C437.811 69.35 445.365 76.24 446.204 69.19C446.074 69.15 445.944 69.12 445.825 69.08C446.284 68.99 446.724 68.74 447.133 68.27C456.915 49.99 398.864 60.13 411.563 68.56ZM412.373 67.98C414.631 66.33 417.209 66.14 419.916 66.45C417.249 66.23 414.691 66.49 412.373 67.98ZM437.002 66.87C436.932 66.9 436.852 66.94 436.782 66.98C434.944 67.81 433.015 68.05 431.057 67.99C427.48 68.19 423.613 66.87 419.956 66.45C423.573 66.75 427.38 67.89 431.057 67.99C431.427 67.97 431.806 67.93 432.176 67.87C434.374 67.35 435.883 67.03 437.002 66.87C438.481 66.1 439.999 66.73 441.468 67.52C439.909 66.86 439.2 66.55 437.002 66.87Z" fill="#F5CF73"/>
<path d="M202.489 60.03C203.169 59.87 203.848 59.74 204.508 59.64C203.848 59.74 203.169 59.88 202.489 60.03Z" fill="#F5CF73"/>
<path d="M94.8601 83.52C94.7802 83.64 94.7302 83.76 94.7003 83.87C94.7003 83.77 94.7202 83.68 94.7702 83.58C94.8001 83.56 94.8302 83.54 94.8601 83.52Z" fill="#F5CF73"/>
<path d="M99.5562 86.9C98.0075 86.16 96.2989 85.49 95.3797 84.81C96.7485 84.99 98.1574 85.89 99.5562 86.9Z" fill="#F5CF73"/>
<path d="M106.72 89.96C105.891 90.48 104.892 90.55 103.313 89.5C104.442 90.12 105.521 90.41 106.51 90.01C106.58 90 106.65 89.98 106.72 89.96Z" fill="#F5CF73"/>
<path d="M111.576 86.43C111.356 86.49 111.156 86.59 110.977 86.73C110.407 86.87 109.917 87.11 109.498 87.42C110.007 86.88 110.627 86.47 111.556 86.43C111.566 86.43 111.566 86.43 111.576 86.43Z" fill="#F5CF73"/>
<path d="M115.513 92.27C114.554 92.91 114.134 93.41 114.124 93.8C113.904 93.58 113.834 93.33 113.934 93.05C114.444 92.7 114.973 92.47 115.513 92.27Z" fill="#F5CF73"/>
<path d="M116.562 86.75C116.102 86.78 115.583 86.72 115.043 86.63C115.563 86.65 116.072 86.68 116.562 86.75Z" fill="#F5CF73"/>
<path d="M119.649 90.08C119.519 90.14 119.399 90.19 119.28 90.25C119.989 89.09 119.439 88 118.5 87.35C119.319 87.84 119.799 88.67 119.649 90.08Z" fill="#F5CF73"/>
<path d="M126.154 95.58C123.596 95.55 121.278 95.43 119.349 95.22C121.568 95.35 124.095 95.4 126.154 95.58Z" fill="#F5CF73"/>
<path d="M409.605 111.12C409.205 111.02 408.806 110.92 408.396 110.81C408.806 110.92 409.205 111.03 409.605 111.12Z" fill="#F5CF73"/>
<path d="M402.171 109.36C404.23 109.59 406.308 110.24 408.396 110.81C406.308 110.25 404.23 109.62 402.171 109.36Z" fill="#F5CF73"/>
<path d="M417.938 111.03C417.708 111.13 417.468 111.22 417.229 111.28C417.149 111.3 417.069 111.33 416.989 111.34C417.069 111.32 417.149 111.3 417.229 111.27C417.468 111.21 417.708 111.12 417.938 111.03Z" fill="#F5CF73"/>
<path d="M436.402 112.14C434.324 111.9 432.226 111.8 430.188 111.47C432.236 111.79 434.334 111.89 436.402 112.14Z" fill="#F5CF73"/>
<path d="M409.605 111.12C409.205 111.02 408.806 110.92 408.396 110.81C408.806 110.92 409.205 111.03 409.605 111.12Z" fill="#F5CF73"/>
<path d="M402.171 109.36C404.23 109.59 406.308 110.24 408.396 110.81C406.308 110.25 404.23 109.62 402.171 109.36Z" fill="#F5CF73"/>
<path d="M417.938 111.03C417.708 111.13 417.468 111.22 417.229 111.28C417.149 111.3 417.069 111.33 416.989 111.34C417.069 111.32 417.149 111.3 417.229 111.27C417.468 111.21 417.708 111.12 417.938 111.03Z" fill="#F5CF73"/>
<path d="M436.402 112.14C434.324 111.9 432.226 111.8 430.188 111.47C432.236 111.79 434.334 111.89 436.402 112.14Z" fill="#F5CF73"/>
<path d="M215.439 86.9C233.893 85.42 252.278 85.3 270.792 85.18C271.162 84.89 271.601 84.53 272.051 84.34C289.466 78.48 309.579 87.07 327.404 83.26C330.322 81.53 334.179 83.82 337.256 84.13C347.807 84.11 357.789 81.89 368.32 81.17C360.786 76.62 360.816 80.86 353.982 80.74C350.934 80.52 348.057 77.9 352.773 76.94C350.325 75.56 347.977 74.94 345.329 75.47C345.319 76.23 345.219 76.84 345.039 77.32C345.189 76.84 345.239 76.24 345.199 75.5C332.03 75.03 326.895 65.12 313.076 64.52C308.13 61.76 312.107 53.17 307.071 49.46C298.399 39.93 292.464 49.67 286.679 46.9C280.074 38.32 268.514 43.07 262.988 50.34C261.23 55.84 257.973 54.38 254.546 51.43C252.118 49.83 253.017 46.54 251.838 44.2C248.441 38.24 239.458 43.08 237.68 48.28C236.99 50.15 234.532 49.94 234.153 48C230.826 41.05 233.943 40.39 234.742 34.97C232.095 23.42 238.989 23.56 220.394 18.03C217.337 17.07 213.61 19.4 211.102 17.23C202.949 9.43001 193.107 2.57999 181.577 1.51999C181.787 1.86999 182.007 2.20999 182.227 2.54999C180.988 1.21999 179.749 0.28 178.57 0C172.555 2.73 164.362 1.95 160.795 8.62C156.059 10.87 154.43 16.42 149.774 18.8C138.383 22.69 124.405 22.17 116.092 32.36C116.132 32.49 116.032 32.78 115.882 32.79C115.842 32.91 115.812 33.03 115.723 33.17C115.673 33.2 115.663 33.2 115.663 33.2C113.994 38.03 113.994 43.49 110.067 47.3C109.997 47.3 109.987 47.3 109.987 47.3C109.828 47.58 109.668 47.85 109.438 48.14C109.368 48.14 109.358 48.14 109.358 48.14C109.198 48.42 109.028 48.7 108.808 48.98C108.738 48.98 108.728 48.99 108.728 48.99C108.678 49.08 108.658 49.35 108.509 49.4C108.519 49.47 108.399 49.62 108.309 49.61C108.279 49.66 108.179 49.83 108.089 49.83C108.059 49.94 108.019 50.06 107.929 50.21C107.829 50.26 107.839 50.44 107.669 50.45C107.679 50.52 107.559 50.67 107.459 50.67C107.43 50.71 107.35 50.88 107.26 50.88C106.75 51.18 106.84 51.66 106.41 51.93C106.38 51.97 106.29 52.15 106.201 52.14C106.111 52.28 106.011 52.42 105.861 52.56C105.791 52.56 105.781 52.56 105.781 52.56C105.831 52.68 105.721 52.97 105.571 52.97C105.491 53.11 105.341 53.37 105.151 53.4C105.121 53.44 105.032 53.62 104.942 53.61C104.912 53.65 104.822 53.83 104.732 53.82C104.692 53.86 104.612 54.04 104.522 54.03C104.482 54.07 104.392 54.25 104.302 54.24C104.312 54.31 104.192 54.44 104.092 54.45C103.813 54.81 103.413 55.25 103.043 55.49C103.003 55.64 102.783 55.79 102.624 55.71C102.644 56.19 102.264 56.39 101.774 56.34C101.784 56.38 101.784 56.41 101.784 56.5C97.5978 60.23 90.3339 58.19 87.2265 63.5C82.9002 71.64 74.3274 63.52 67.8429 63.69C62.6273 63.5 57.6914 65.4 52.4958 65.41C44.7823 65.19 36.749 64.6 30.5543 70.09C21.7017 76.5 5.60528 69.55 0 80.56C0.0699411 80.66 0.0899291 80.72 0.129895 80.78L0.139866 80.77C0.179833 80.8 0.359673 80.89 0.349681 80.98C0.389647 81.01 0.559526 81.1 0.559526 81.19C0.869265 81.52 1.33886 81.82 1.60863 82.24C1.74851 82.27 1.97833 82.52 2.02829 82.66C2.378 82.89 2.7277 83.12 3.0874 83.42C3.09739 83.49 3.0874 83.5 3.0874 83.5C15.1972 91.52 30.1046 87.92 43.6732 89.15C50.6573 89.35 56.6323 93.39 63.4166 94.47C71.27 95.26 79.0534 93.48 86.8768 92.97C92.4721 93.83 98.0974 93.33 103.683 93.65C109.558 94.43 125.374 103.16 128.722 95.97C128.032 95.79 127.153 95.67 126.154 95.58C123.596 95.55 121.278 95.43 119.35 95.22C121.568 95.35 124.096 95.4 126.154 95.58C139.363 95.78 158.566 93.9 159.046 91.57C160.895 86.59 152.052 90.6 151.013 87.03C147.616 79.06 138.643 88.64 131.929 83.79C121.837 79.44 122.627 79.67 111.316 81.09C108.708 81.79 104.292 81.72 100.555 82.05C108.379 81.35 116.232 79.71 124.026 80.01C127.193 80.33 129.201 83.41 132.418 83.48C149.994 76 171.236 84.97 189.79 85.96C193.687 86.94 199.202 83.3 202.1 86.54C205.257 90.01 211.232 86.57 215.439 86.9ZM345.019 77.39C344.7 78.42 343.98 78.85 342.991 78.89C343.93 78.82 344.64 78.38 345.019 77.39ZM334.778 75.98C333.499 75.38 332.26 74.81 331.181 74.43C332.28 74.8 333.519 75.36 334.778 75.98ZM304.723 72.54C304.504 72.5 304.274 72.48 304.054 72.48C304.274 72.48 304.494 72.49 304.723 72.54ZM263.508 74.04C260.331 74.25 257.683 74.63 255.365 74.92C258.063 74.54 260.77 74.04 263.508 74.04ZM240.597 71.56C243.495 73.96 245.943 74.95 248.541 75.24C246.842 75.09 245.144 74.67 243.455 73.82C242.106 73.51 241.307 72.58 240.597 71.56C239.488 70.64 238.319 69.51 237.05 68.14C238.829 68.6 239.628 70.17 240.597 71.56ZM218.766 67.1C218.036 66.66 217.337 66.55 216.648 66.65C217.357 66.54 218.056 66.64 218.766 67.1ZM216.018 43.46C216.048 43.8 216.018 44.11 215.908 44.37C216.008 44.1 216.048 43.79 216.018 43.46ZM215.668 66.91C215.139 67.12 214.589 67.39 214 67.69C214.589 67.38 215.139 67.1 215.668 66.91ZM94.7702 83.58C94.8001 83.56 94.8301 83.54 94.8601 83.52C94.7802 83.64 94.7302 83.76 94.7002 83.87C94.7002 83.77 94.7202 83.68 94.7702 83.58ZM95.3797 84.81C95.3597 84.8 95.3497 84.8 95.3297 84.8C94.7802 84.57 94.6203 84.24 94.7002 83.88C94.7102 84.19 94.96 84.5 95.3797 84.81C96.7485 84.99 98.1573 85.89 99.5561 86.9C98.0074 86.16 96.2989 85.49 95.3797 84.81ZM114.124 93.81C114.743 94.47 116.622 94.93 119.28 95.22C116.422 95.05 114.124 94.74 114.124 93.81ZM119.649 90.08C119.519 90.14 119.399 90.19 119.28 90.25C119.27 90.28 119.25 90.31 119.23 90.34C118.141 91.49 116.812 91.78 115.513 92.27C114.554 92.91 114.134 93.41 114.124 93.8C113.904 93.58 113.834 93.33 113.934 93.05C114.444 92.7 114.973 92.47 115.513 92.27C116.342 91.71 117.571 91.04 119.28 90.25C119.989 89.09 119.439 88 118.5 87.35C119.319 87.84 119.799 88.67 119.649 90.08ZM118.35 87.26C117.841 87 117.231 86.84 116.572 86.75C117.171 86.73 117.811 86.92 118.35 87.26ZM111.556 86.43C111.566 86.43 111.566 86.43 111.576 86.43C112.535 86.13 113.834 86.44 115.043 86.63C115.563 86.65 116.072 86.68 116.562 86.75C116.102 86.78 115.583 86.72 115.043 86.63C113.794 86.58 112.525 86.6 111.576 86.43C111.356 86.49 111.156 86.59 110.977 86.73C110.407 86.87 109.917 87.11 109.498 87.42C110.007 86.88 110.627 86.47 111.556 86.43ZM102.654 89.02C102.883 89.2 103.103 89.36 103.313 89.5C104.442 90.12 105.521 90.41 106.51 90.01C106.58 90 106.65 89.98 106.72 89.96C105.891 90.48 104.892 90.55 103.313 89.5C102.114 88.85 100.855 87.83 99.5761 86.91C100.945 87.55 102.174 88.24 102.654 89.02ZM172.575 47.93C171.086 48.43 169.697 49.05 169.178 49.76C169.587 48.96 171.046 48.37 172.575 47.93ZM170.476 51.99C170.187 51.8 169.947 51.61 169.757 51.44C168.878 50.85 168.788 50.29 169.168 49.77C168.928 50.24 169.058 50.79 169.757 51.44C170.227 51.75 170.916 52.07 171.885 52.4C172.715 52.71 173.534 53.02 174.363 53.34C173.064 52.87 171.765 52.43 170.476 51.99ZM174.643 53.44C177.461 54.46 180.268 55.57 182.956 56.92C180.268 55.6 177.451 54.5 174.643 53.44ZM186.133 58.64C187.762 59.59 189.321 60.66 190.779 61.9C189.321 60.69 187.762 59.61 186.133 58.64ZM188.251 11.2C189.69 13.32 191.019 15.49 192.068 17.84C191.109 16.27 189.78 13.8 188.251 11.2ZM207.165 69.7C209.294 69.81 211.022 69.18 212.521 68.46C211.042 69.19 209.324 69.83 207.165 69.7ZM211.172 44.6C209.014 42.53 207.595 41.65 206.626 41.54C207.595 41.61 209.014 42.49 211.172 44.6ZM206.216 41.55C205.087 41.76 204.668 43.26 204.228 45.01C204.648 43.23 205.037 41.7 206.216 41.55ZM199.042 51.02C199.442 51.04 199.792 51.03 200.121 50.99C199.802 51.04 199.442 51.05 199.042 51.02ZM203.898 46.35C203.489 47.96 202.919 49.56 201.67 50.41C202.899 49.55 203.469 47.95 203.898 46.35Z" fill="#F5CF73"/>
<path d="M382.078 102.49C378.311 104.02 374.105 105.81 370.318 103.92C360.596 105.59 349.106 102.11 340.293 106.6C330.442 109.27 319.601 107.46 309.699 110.62C296.9 112.75 283.881 112.79 271.072 114.76C266.595 114.97 262.669 111.46 258.023 111.45C248.131 110.3 238 111.31 228.757 106.96C218.976 104.58 208.674 105.08 198.803 102.38C224.851 95.71 252.108 109.72 278.246 102.76C288.197 95.8901 300.497 98.75 311.727 99.47C331.451 99.14 351.084 98.2301 370.808 100.17C374.375 101.34 379.96 98.84 382.078 102.49Z" fill="#F5CF73"/>
<path d="M338.105 57.33C336.856 58.53 337.416 59.81 338.175 61.1C338.935 65.25 332.9 62.86 330.881 61.9C304.184 54.21 341.223 46.95 338.105 57.33Z" fill="#F5CF73"/>
<path d="M429.948 106.63C422.454 106.54 420.716 109.86 415.39 102.97C411.893 99.44 408.416 103.29 405.369 105.6C403.77 107.37 388.143 107.33 397.255 109.78C398.245 109.43 399.234 109.28 400.243 109.27C399.244 109.31 398.245 109.49 397.255 109.87C397.156 110.79 397.365 111.55 397.765 112.3C404.439 115.11 411.344 114.56 418.388 114.01C425.372 113.32 433.125 115.4 439.55 113.06C439.56 112.9 439.57 112.81 439.52 112.66C438.601 112.44 437.671 112.29 436.732 112.17C437.681 112.28 438.631 112.42 439.57 112.62C442.967 107.78 433.135 106.72 429.948 106.63ZM408.396 110.81C406.308 110.25 404.22 109.61 402.171 109.36C404.23 109.59 406.308 110.24 408.396 110.81ZM417.229 111.28C417.149 111.3 417.069 111.33 416.989 111.34C417.069 111.32 417.149 111.3 417.229 111.27C417.468 111.21 417.708 111.12 417.938 111.03C417.708 111.13 417.468 111.22 417.229 111.28ZM430.188 111.47C432.236 111.79 434.334 111.89 436.403 112.14C434.324 111.9 432.226 111.8 430.188 111.47Z" fill="#F5CF73"/>
<path d="M419.916 66.45C417.249 66.23 414.691 66.49 412.373 67.98C414.631 66.33 417.209 66.14 419.916 66.45Z" fill="#F5CF73"/>
<path d="M437.002 66.87C436.932 66.9 436.852 66.94 436.782 66.98C434.944 67.81 433.015 68.05 431.057 67.99C431.427 67.97 431.806 67.93 432.176 67.87C434.374 67.35 435.883 67.03 437.002 66.87Z" fill="#F5CF73"/>
</g>
<g opacity="0.5608">
<path d="M94.8601 83.52C94.7802 83.64 94.7302 83.76 94.7003 83.87C94.7003 83.77 94.7202 83.68 94.7702 83.58C94.8001 83.56 94.8302 83.54 94.8601 83.52Z" fill="#FFDB83"/>
<path d="M99.5562 86.9C98.0075 86.16 96.2989 85.49 95.3797 84.81C96.7485 84.99 98.1574 85.89 99.5562 86.9Z" fill="#FFDB83"/>
<path d="M106.72 89.96C105.891 90.48 104.892 90.55 103.313 89.5C104.442 90.12 105.521 90.41 106.51 90.01C106.58 90 106.65 89.98 106.72 89.96Z" fill="#FFDB83"/>
<path d="M111.576 86.43C111.356 86.49 111.156 86.59 110.977 86.73C110.407 86.87 109.917 87.11 109.498 87.42C110.007 86.88 110.627 86.47 111.556 86.43C111.566 86.43 111.566 86.43 111.576 86.43Z" fill="#FFDB83"/>
<path d="M115.513 92.27C114.554 92.91 114.134 93.41 114.124 93.8C113.904 93.58 113.834 93.33 113.934 93.05C114.444 92.7 114.973 92.47 115.513 92.27Z" fill="#FFDB83"/>
<path d="M116.562 86.75C116.102 86.78 115.583 86.72 115.043 86.63C115.563 86.65 116.072 86.68 116.562 86.75Z" fill="#FFDB83"/>
<path d="M119.649 90.08C119.519 90.14 119.399 90.19 119.28 90.25C119.989 89.09 119.439 88 118.5 87.35C119.319 87.84 119.799 88.67 119.649 90.08Z" fill="#FFDB83"/>
<path d="M126.154 95.58C123.596 95.55 121.278 95.43 119.349 95.22C121.568 95.35 124.095 95.4 126.154 95.58Z" fill="#FFDB83"/>
<path d="M169.757 51.44C168.878 50.85 168.788 50.29 169.168 49.77C168.928 50.24 169.058 50.79 169.757 51.44Z" fill="#FFDB83"/>
<path d="M182.956 56.92C180.268 55.6 177.451 54.5 174.643 53.44C177.461 54.46 180.268 55.57 182.956 56.92Z" fill="#FFDB83"/>
<path d="M200.121 50.99C199.802 51.04 199.442 51.05 199.042 51.02C199.442 51.04 199.792 51.03 200.121 50.99Z" fill="#FFDB83"/>
<path d="M206.216 41.55C205.087 41.76 204.668 43.26 204.228 45.01C204.648 43.23 205.037 41.7 206.216 41.55Z" fill="#FFDB83"/>
<path d="M211.442 60.96C210.353 59.75 208.544 59.36 206.456 59.45C208.544 59.37 210.363 59.76 211.442 60.96Z" fill="#FFDB83"/>
<path d="M204.508 59.64C203.848 59.74 203.169 59.87 202.489 60.03C203.169 59.88 203.848 59.74 204.508 59.64Z" fill="#FFDB83"/>
<path d="M212.521 68.46C211.042 69.19 209.324 69.83 207.166 69.7C209.294 69.81 211.022 69.18 212.521 68.46Z" fill="#FFDB83"/>
<path d="M216.017 43.46C216.047 43.8 216.017 44.11 215.908 44.37C216.007 44.1 216.047 43.79 216.017 43.46Z" fill="#FFDB83"/>
<path d="M218.766 67.1C218.036 66.66 217.337 66.55 216.648 66.65C217.357 66.54 218.056 66.64 218.766 67.1Z" fill="#FFDB83"/>
<path d="M240.597 71.56C239.488 70.64 238.319 69.51 237.05 68.14C238.829 68.6 239.628 70.17 240.597 71.56Z" fill="#FFDB83"/>
<path d="M263.508 74.04C260.331 74.25 257.683 74.63 255.365 74.92C258.063 74.54 260.77 74.04 263.508 74.04Z" fill="#FFDB83"/>
<path d="M304.723 72.54C304.504 72.5 304.274 72.48 304.054 72.48C304.274 72.48 304.494 72.49 304.723 72.54Z" fill="#FFDB83"/>
<path d="M334.778 75.98C333.499 75.38 332.26 74.81 331.181 74.43C332.28 74.8 333.519 75.36 334.778 75.98Z" fill="#FFDB83"/>
<path d="M345.019 77.39C344.7 78.42 343.98 78.85 342.991 78.89C343.93 78.82 344.64 78.38 345.019 77.39Z" fill="#FFDB83"/>
<path d="M202.489 60.03C203.169 59.87 203.848 59.74 204.508 59.64C203.848 59.74 203.169 59.88 202.489 60.03Z" fill="#FFDB83"/>
<path d="M419.916 66.45C417.249 66.23 414.691 66.49 412.373 67.98C414.631 66.33 417.209 66.14 419.916 66.45Z" fill="#FFDB83"/>
<path d="M437.002 66.87C436.932 66.9 436.852 66.94 436.782 66.98C434.944 67.81 433.015 68.05 431.057 67.99C431.427 67.97 431.806 67.93 432.176 67.87C434.374 67.35 435.883 67.03 437.002 66.87Z" fill="#FFDB83"/>
<path d="M169.757 51.44C168.878 50.85 168.788 50.29 169.168 49.77C168.928 50.24 169.058 50.79 169.757 51.44Z" fill="#FFDB83"/>
<path d="M182.956 56.92C180.268 55.6 177.451 54.5 174.643 53.44C177.461 54.46 180.268 55.57 182.956 56.92Z" fill="#FFDB83"/>
<path d="M200.121 50.99C199.802 51.04 199.442 51.05 199.042 51.02C199.442 51.04 199.792 51.03 200.121 50.99Z" fill="#FFDB83"/>
<path d="M206.216 41.55C205.087 41.76 204.668 43.26 204.228 45.01C204.648 43.23 205.037 41.7 206.216 41.55Z" fill="#FFDB83"/>
<path d="M211.442 60.96C210.353 59.75 208.544 59.36 206.456 59.45C208.544 59.37 210.363 59.76 211.442 60.96Z" fill="#FFDB83"/>
<path d="M204.508 59.64C203.848 59.74 203.169 59.87 202.489 60.03C203.169 59.88 203.848 59.74 204.508 59.64Z" fill="#FFDB83"/>
<path d="M212.521 68.46C211.042 69.19 209.324 69.83 207.166 69.7C209.294 69.81 211.022 69.18 212.521 68.46Z" fill="#FFDB83"/>
<path d="M216.017 43.46C216.047 43.8 216.017 44.11 215.908 44.37C216.007 44.1 216.047 43.79 216.017 43.46Z" fill="#FFDB83"/>
<path d="M218.766 67.1C218.036 66.66 217.337 66.55 216.648 66.65C217.357 66.54 218.056 66.64 218.766 67.1Z" fill="#FFDB83"/>
<path d="M240.597 71.56C239.488 70.64 238.319 69.51 237.05 68.14C238.829 68.6 239.628 70.17 240.597 71.56Z" fill="#FFDB83"/>
<path d="M263.508 74.04C260.331 74.25 257.683 74.63 255.365 74.92C258.063 74.54 260.77 74.04 263.508 74.04Z" fill="#FFDB83"/>
<path d="M304.723 72.54C304.504 72.5 304.274 72.48 304.054 72.48C304.274 72.48 304.494 72.49 304.723 72.54Z" fill="#FFDB83"/>
<path d="M334.778 75.98C333.499 75.38 332.26 74.81 331.181 74.43C332.28 74.8 333.519 75.36 334.778 75.98Z" fill="#FFDB83"/>
<path d="M345.019 77.39C344.7 78.42 343.98 78.85 342.991 78.89C343.93 78.82 344.64 78.38 345.019 77.39Z" fill="#FFDB83"/>
<path d="M202.489 60.03C203.169 59.87 203.848 59.74 204.508 59.64C203.848 59.74 203.169 59.88 202.489 60.03Z" fill="#FFDB83"/>
<path d="M411.563 68.56C411.813 68.36 412.063 68.18 412.313 68.02C412.073 68.2 411.833 68.4 411.593 68.62C416.349 74.59 427.31 74.57 434.024 71.74C437.811 69.35 445.365 76.24 446.204 69.19C446.074 69.15 445.944 69.12 445.825 69.08C446.284 68.99 446.724 68.74 447.133 68.27C456.915 49.99 398.864 60.13 411.563 68.56ZM412.373 67.98C414.631 66.33 417.209 66.14 419.916 66.45C417.249 66.23 414.691 66.49 412.373 67.98ZM437.002 66.87C436.932 66.9 436.852 66.94 436.782 66.98C434.944 67.81 433.015 68.05 431.057 67.99C427.48 68.19 423.613 66.87 419.956 66.45C423.573 66.75 427.38 67.89 431.057 67.99C431.427 67.97 431.806 67.93 432.176 67.87C434.374 67.35 435.883 67.03 437.002 66.87C438.481 66.1 439.999 66.73 441.468 67.52C439.909 66.86 439.2 66.55 437.002 66.87Z" fill="#FFDB83"/>
<path d="M202.489 60.03C203.169 59.87 203.848 59.74 204.508 59.64C203.848 59.74 203.169 59.88 202.489 60.03Z" fill="#FFDB83"/>
<path d="M94.8601 83.52C94.7802 83.64 94.7302 83.76 94.7003 83.87C94.7003 83.77 94.7202 83.68 94.7702 83.58C94.8001 83.56 94.8302 83.54 94.8601 83.52Z" fill="#FFDB83"/>
<path d="M99.5562 86.9C98.0075 86.16 96.2989 85.49 95.3797 84.81C96.7485 84.99 98.1574 85.89 99.5562 86.9Z" fill="#FFDB83"/>
<path d="M106.72 89.96C105.891 90.48 104.892 90.55 103.313 89.5C104.442 90.12 105.521 90.41 106.51 90.01C106.58 90 106.65 89.98 106.72 89.96Z" fill="#FFDB83"/>
<path d="M111.576 86.43C111.356 86.49 111.156 86.59 110.977 86.73C110.407 86.87 109.917 87.11 109.498 87.42C110.007 86.88 110.627 86.47 111.556 86.43C111.566 86.43 111.566 86.43 111.576 86.43Z" fill="#FFDB83"/>
<path d="M115.513 92.27C114.554 92.91 114.134 93.41 114.124 93.8C113.904 93.58 113.834 93.33 113.934 93.05C114.444 92.7 114.973 92.47 115.513 92.27Z" fill="#FFDB83"/>
<path d="M116.562 86.75C116.102 86.78 115.583 86.72 115.043 86.63C115.563 86.65 116.072 86.68 116.562 86.75Z" fill="#FFDB83"/>
<path d="M119.649 90.08C119.519 90.14 119.399 90.19 119.28 90.25C119.989 89.09 119.439 88 118.5 87.35C119.319 87.84 119.799 88.67 119.649 90.08Z" fill="#FFDB83"/>
<path d="M126.154 95.58C123.596 95.55 121.278 95.43 119.349 95.22C121.568 95.35 124.095 95.4 126.154 95.58Z" fill="#FFDB83"/>
<path d="M409.605 111.12C409.205 111.02 408.806 110.92 408.396 110.81C408.806 110.92 409.205 111.03 409.605 111.12Z" fill="#FFDB83"/>
<path d="M402.171 109.36C404.23 109.59 406.308 110.24 408.396 110.81C406.308 110.25 404.23 109.62 402.171 109.36Z" fill="#FFDB83"/>
<path d="M417.938 111.03C417.708 111.13 417.468 111.22 417.229 111.28C417.149 111.3 417.069 111.33 416.989 111.34C417.069 111.32 417.149 111.3 417.229 111.27C417.468 111.21 417.708 111.12 417.938 111.03Z" fill="#FFDB83"/>
<path d="M436.402 112.14C434.324 111.9 432.226 111.8 430.188 111.47C432.236 111.79 434.334 111.89 436.402 112.14Z" fill="#FFDB83"/>
<path d="M409.605 111.12C409.205 111.02 408.806 110.92 408.396 110.81C408.806 110.92 409.205 111.03 409.605 111.12Z" fill="#FFDB83"/>
<path d="M402.171 109.36C404.23 109.59 406.308 110.24 408.396 110.81C406.308 110.25 404.23 109.62 402.171 109.36Z" fill="#FFDB83"/>
<path d="M417.938 111.03C417.708 111.13 417.468 111.22 417.229 111.28C417.149 111.3 417.069 111.33 416.989 111.34C417.069 111.32 417.149 111.3 417.229 111.27C417.468 111.21 417.708 111.12 417.938 111.03Z" fill="#FFDB83"/>
<path d="M436.402 112.14C434.324 111.9 432.226 111.8 430.188 111.47C432.236 111.79 434.334 111.89 436.402 112.14Z" fill="#FFDB83"/>
<path d="M215.439 86.9C233.893 85.42 252.278 85.3 270.792 85.18C271.162 84.89 271.601 84.53 272.051 84.34C289.466 78.48 309.579 87.07 327.404 83.26C330.322 81.53 334.179 83.82 337.256 84.13C347.807 84.11 357.789 81.89 368.32 81.17C360.786 76.62 360.816 80.86 353.982 80.74C350.934 80.52 348.057 77.9 352.773 76.94C350.325 75.56 347.977 74.94 345.329 75.47C345.319 76.23 345.219 76.84 345.039 77.32C345.189 76.84 345.239 76.24 345.199 75.5C332.03 75.03 326.895 65.12 313.076 64.52C308.13 61.76 312.107 53.17 307.071 49.46C298.399 39.93 292.464 49.67 286.679 46.9C280.074 38.32 268.514 43.07 262.988 50.34C261.23 55.84 257.973 54.38 254.546 51.43C252.118 49.83 253.017 46.54 251.838 44.2C248.441 38.24 239.458 43.08 237.68 48.28C236.99 50.15 234.532 49.94 234.153 48C230.826 41.05 233.943 40.39 234.742 34.97C232.095 23.42 238.989 23.56 220.394 18.03C217.337 17.07 213.61 19.4 211.102 17.23C202.949 9.43001 193.107 2.57999 181.577 1.51999C181.787 1.86999 182.007 2.20999 182.227 2.54999C180.988 1.21999 179.749 0.28 178.57 0C172.555 2.73 164.362 1.95 160.795 8.62C156.059 10.87 154.43 16.42 149.774 18.8C138.383 22.69 124.405 22.17 116.092 32.36C116.132 32.49 116.032 32.78 115.882 32.79C115.842 32.91 115.812 33.03 115.723 33.17C115.673 33.2 115.663 33.2 115.663 33.2C113.994 38.03 113.994 43.49 110.067 47.3C109.997 47.3 109.987 47.3 109.987 47.3C109.828 47.58 109.668 47.85 109.438 48.14C109.368 48.14 109.358 48.14 109.358 48.14C109.198 48.42 109.028 48.7 108.808 48.98C108.738 48.98 108.728 48.99 108.728 48.99C108.678 49.08 108.658 49.35 108.509 49.4C108.519 49.47 108.399 49.62 108.309 49.61C108.279 49.66 108.179 49.83 108.089 49.83C108.059 49.94 108.019 50.06 107.929 50.21C107.829 50.26 107.839 50.44 107.669 50.45C107.679 50.52 107.559 50.67 107.459 50.67C107.43 50.71 107.35 50.88 107.26 50.88C106.75 51.18 106.84 51.66 106.41 51.93C106.38 51.97 106.29 52.15 106.201 52.14C106.111 52.28 106.011 52.42 105.861 52.56C105.791 52.56 105.781 52.56 105.781 52.56C105.831 52.68 105.721 52.97 105.571 52.97C105.491 53.11 105.341 53.37 105.151 53.4C105.121 53.44 105.032 53.62 104.942 53.61C104.912 53.65 104.822 53.83 104.732 53.82C104.692 53.86 104.612 54.04 104.522 54.03C104.482 54.07 104.392 54.25 104.302 54.24C104.312 54.31 104.192 54.44 104.092 54.45C103.813 54.81 103.413 55.25 103.043 55.49C103.003 55.64 102.783 55.79 102.624 55.71C102.644 56.19 102.264 56.39 101.774 56.34C101.784 56.38 101.784 56.41 101.784 56.5C97.5978 60.23 90.3339 58.19 87.2265 63.5C82.9002 71.64 74.3274 63.52 67.8429 63.69C62.6273 63.5 57.6914 65.4 52.4958 65.41C44.7823 65.19 36.749 64.6 30.5543 70.09C21.7017 76.5 5.60528 69.55 0 80.56C0.0699411 80.66 0.0899291 80.72 0.129895 80.78L0.139866 80.77C0.179833 80.8 0.359673 80.89 0.349681 80.98C0.389647 81.01 0.559526 81.1 0.559526 81.19C0.869265 81.52 1.33886 81.82 1.60863 82.24C1.74851 82.27 1.97833 82.52 2.02829 82.66C2.378 82.89 2.7277 83.12 3.0874 83.42C3.09739 83.49 3.0874 83.5 3.0874 83.5C15.1972 91.52 30.1046 87.92 43.6732 89.15C50.6573 89.35 56.6323 93.39 63.4166 94.47C71.27 95.26 79.0534 93.48 86.8768 92.97C92.4721 93.83 98.0974 93.33 103.683 93.65C109.558 94.43 125.374 103.16 128.722 95.97C128.032 95.79 127.153 95.67 126.154 95.58C123.596 95.55 121.278 95.43 119.35 95.22C121.568 95.35 124.096 95.4 126.154 95.58C139.363 95.78 158.566 93.9 159.046 91.57C160.895 86.59 152.052 90.6 151.013 87.03C147.616 79.06 138.643 88.64 131.929 83.79C121.837 79.44 122.627 79.67 111.316 81.09C108.708 81.79 104.292 81.72 100.555 82.05C108.379 81.35 116.232 79.71 124.026 80.01C127.193 80.33 129.201 83.41 132.418 83.48C149.994 76 171.236 84.97 189.79 85.96C193.687 86.94 199.202 83.3 202.1 86.54C205.257 90.01 211.232 86.57 215.439 86.9ZM345.019 77.39C344.7 78.42 343.98 78.85 342.991 78.89C343.93 78.82 344.64 78.38 345.019 77.39ZM334.778 75.98C333.499 75.38 332.26 74.81 331.181 74.43C332.28 74.8 333.519 75.36 334.778 75.98ZM304.723 72.54C304.504 72.5 304.274 72.48 304.054 72.48C304.274 72.48 304.494 72.49 304.723 72.54ZM263.508 74.04C260.331 74.25 257.683 74.63 255.365 74.92C258.063 74.54 260.77 74.04 263.508 74.04ZM240.597 71.56C243.495 73.96 245.943 74.95 248.541 75.24C246.842 75.09 245.144 74.67 243.455 73.82C242.106 73.51 241.307 72.58 240.597 71.56C239.488 70.64 238.319 69.51 237.05 68.14C238.829 68.6 239.628 70.17 240.597 71.56ZM218.766 67.1C218.036 66.66 217.337 66.55 216.648 66.65C217.357 66.54 218.056 66.64 218.766 67.1ZM216.018 43.46C216.048 43.8 216.018 44.11 215.908 44.37C216.008 44.1 216.048 43.79 216.018 43.46ZM215.668 66.91C215.139 67.12 214.589 67.39 214 67.69C214.589 67.38 215.139 67.1 215.668 66.91ZM94.7702 83.58C94.8001 83.56 94.8301 83.54 94.8601 83.52C94.7802 83.64 94.7302 83.76 94.7002 83.87C94.7002 83.77 94.7202 83.68 94.7702 83.58ZM95.3797 84.81C95.3597 84.8 95.3497 84.8 95.3297 84.8C94.7802 84.57 94.6203 84.24 94.7002 83.88C94.7102 84.19 94.96 84.5 95.3797 84.81C96.7485 84.99 98.1573 85.89 99.5561 86.9C98.0074 86.16 96.2989 85.49 95.3797 84.81ZM114.124 93.81C114.743 94.47 116.622 94.93 119.28 95.22C116.422 95.05 114.124 94.74 114.124 93.81ZM119.649 90.08C119.519 90.14 119.399 90.19 119.28 90.25C119.27 90.28 119.25 90.31 119.23 90.34C118.141 91.49 116.812 91.78 115.513 92.27C114.554 92.91 114.134 93.41 114.124 93.8C113.904 93.58 113.834 93.33 113.934 93.05C114.444 92.7 114.973 92.47 115.513 92.27C116.342 91.71 117.571 91.04 119.28 90.25C119.989 89.09 119.439 88 118.5 87.35C119.319 87.84 119.799 88.67 119.649 90.08ZM118.35 87.26C117.841 87 117.231 86.84 116.572 86.75C117.171 86.73 117.811 86.92 118.35 87.26ZM111.556 86.43C111.566 86.43 111.566 86.43 111.576 86.43C112.535 86.13 113.834 86.44 115.043 86.63C115.563 86.65 116.072 86.68 116.562 86.75C116.102 86.78 115.583 86.72 115.043 86.63C113.794 86.58 112.525 86.6 111.576 86.43C111.356 86.49 111.156 86.59 110.977 86.73C110.407 86.87 109.917 87.11 109.498 87.42C110.007 86.88 110.627 86.47 111.556 86.43ZM102.654 89.02C102.883 89.2 103.103 89.36 103.313 89.5C104.442 90.12 105.521 90.41 106.51 90.01C106.58 90 106.65 89.98 106.72 89.96C105.891 90.48 104.892 90.55 103.313 89.5C102.114 88.85 100.855 87.83 99.5761 86.91C100.945 87.55 102.174 88.24 102.654 89.02ZM172.575 47.93C171.086 48.43 169.697 49.05 169.178 49.76C169.587 48.96 171.046 48.37 172.575 47.93ZM170.476 51.99C170.187 51.8 169.947 51.61 169.757 51.44C168.878 50.85 168.788 50.29 169.168 49.77C168.928 50.24 169.058 50.79 169.757 51.44C170.227 51.75 170.916 52.07 171.885 52.4C172.715 52.71 173.534 53.02 174.363 53.34C173.064 52.87 171.765 52.43 170.476 51.99ZM174.643 53.44C177.461 54.46 180.268 55.57 182.956 56.92C180.268 55.6 177.451 54.5 174.643 53.44ZM186.133 58.64C187.762 59.59 189.321 60.66 190.779 61.9C189.321 60.69 187.762 59.61 186.133 58.64ZM188.251 11.2C189.69 13.32 191.019 15.49 192.068 17.84C191.109 16.27 189.78 13.8 188.251 11.2ZM207.165 69.7C209.294 69.81 211.022 69.18 212.521 68.46C211.042 69.19 209.324 69.83 207.165 69.7ZM211.172 44.6C209.014 42.53 207.595 41.65 206.626 41.54C207.595 41.61 209.014 42.49 211.172 44.6ZM206.216 41.55C205.087 41.76 204.668 43.26 204.228 45.01C204.648 43.23 205.037 41.7 206.216 41.55ZM199.042 51.02C199.442 51.04 199.792 51.03 200.121 50.99C199.802 51.04 199.442 51.05 199.042 51.02ZM203.898 46.35C203.489 47.96 202.919 49.56 201.67 50.41C202.899 49.55 203.469 47.95 203.898 46.35Z" fill="#FFDB83"/>
<path d="M382.078 102.49C378.311 104.02 374.105 105.81 370.318 103.92C360.596 105.59 349.106 102.11 340.293 106.6C330.442 109.27 319.601 107.46 309.699 110.62C296.9 112.75 283.881 112.79 271.072 114.76C266.595 114.97 262.669 111.46 258.023 111.45C248.131 110.3 238 111.31 228.757 106.96C218.976 104.58 208.674 105.08 198.803 102.38C224.851 95.71 252.108 109.72 278.246 102.76C288.197 95.8901 300.497 98.75 311.727 99.47C331.451 99.14 351.084 98.2301 370.808 100.17C374.375 101.34 379.96 98.84 382.078 102.49Z" fill="#FFDB83"/>
<path d="M338.105 57.33C336.856 58.53 337.416 59.81 338.175 61.1C338.935 65.25 332.9 62.86 330.881 61.9C304.184 54.21 341.223 46.95 338.105 57.33Z" fill="#FFDB83"/>
<path d="M429.948 106.63C422.454 106.54 420.716 109.86 415.39 102.97C411.893 99.44 408.416 103.29 405.369 105.6C403.77 107.37 388.143 107.33 397.255 109.78C398.245 109.43 399.234 109.28 400.243 109.27C399.244 109.31 398.245 109.49 397.255 109.87C397.156 110.79 397.365 111.55 397.765 112.3C404.439 115.11 411.344 114.56 418.388 114.01C425.372 113.32 433.125 115.4 439.55 113.06C439.56 112.9 439.57 112.81 439.52 112.66C438.601 112.44 437.671 112.29 436.732 112.17C437.681 112.28 438.631 112.42 439.57 112.62C442.967 107.78 433.135 106.72 429.948 106.63ZM408.396 110.81C406.308 110.25 404.22 109.61 402.171 109.36C404.23 109.59 406.308 110.24 408.396 110.81ZM417.229 111.28C417.149 111.3 417.069 111.33 416.989 111.34C417.069 111.32 417.149 111.3 417.229 111.27C417.468 111.21 417.708 111.12 417.938 111.03C417.708 111.13 417.468 111.22 417.229 111.28ZM430.188 111.47C432.236 111.79 434.334 111.89 436.403 112.14C434.324 111.9 432.226 111.8 430.188 111.47Z" fill="#FFDB83"/>
<path d="M419.916 66.45C417.249 66.23 414.691 66.49 412.373 67.98C414.631 66.33 417.209 66.14 419.916 66.45Z" fill="#FFDB83"/>
<path d="M437.002 66.87C436.932 66.9 436.852 66.94 436.782 66.98C434.944 67.81 433.015 68.05 431.057 67.99C431.427 67.97 431.806 67.93 432.176 67.87C434.374 67.35 435.883 67.03 437.002 66.87Z" fill="#FFDB83"/>
</g>
</svg>
