<svg width="1441" height="485" viewBox="0 0 1441 485" fill="none" xmlns="http://www.w3.org/2000/svg">
<path fill-rule="evenodd" clip-rule="evenodd" d="M1440.48 323.5L1429.48 322.879L1425.41 322.585C1422.32 322.36 1419.24 322.134 1416.15 321.933C1415.33 321.88 1414.52 321.893 1413.61 321.907L1413.51 321.909C1413.09 321.915 1412.64 321.921 1412.17 321.921L1411.95 326.917C1410.35 327.467 1409.05 328.463 1409.58 330.496C1407.44 332.103 1405.96 331.095 1404.51 330.113L1404.5 330.105C1403.96 329.738 1403.42 329.374 1402.86 329.155C1400.8 328.346 1400.79 326.631 1400.77 324.866C1400.77 323.908 1400.76 322.936 1400.43 322.084C1399.62 321.523 1398.75 321.405 1397.88 321.412C1397.18 321.419 1396.47 321.51 1395.77 321.514C1395.27 321.517 1394.78 321.475 1394.3 321.327C1393.99 321.875 1393.82 322.46 1393.65 323.022C1393.34 324.057 1393.05 325.023 1391.98 325.571C1391.73 325.698 1391.58 326.058 1391.45 326.547C1391.38 326.805 1391.32 327.098 1391.25 327.411C1391.15 327.881 1391.05 328.397 1390.89 328.906C1388.59 328.963 1386.26 328.972 1383.89 328.968L1381.59 328.963C1380.38 328.96 1379.16 328.956 1377.93 328.958C1376.49 328.96 1375.04 328.969 1373.58 328.994C1372.71 332.695 1372.76 336.406 1372.81 340.133V340.183C1372.85 342.908 1372.89 345.641 1372.57 348.385H1351.5L1350.76 331.587C1347.53 331.741 1345.32 330.034 1344.28 326.302L1337.73 326.992C1337.65 327.169 1337.58 327.355 1337.52 327.545L1337.38 327.996L1337.37 328.028C1337.13 328.82 1336.89 329.592 1336.4 329.951C1335.93 330.299 1335.28 330.356 1334.61 330.358L1334.13 330.353C1333.87 330.349 1333.63 330.345 1333.39 330.353C1332.39 330.389 1331.39 330.38 1330.35 330.372H1330.33L1328.94 330.366L1328.28 327.377C1322.98 326.194 1317.87 327.35 1312.69 328.521C1310.48 329.019 1308.27 329.519 1306.01 329.845C1305.93 330.958 1305.28 331.717 1304.63 332.477C1303.75 333.498 1302.86 334.524 1303.36 336.417C1303.07 336.482 1302.79 336.56 1302.54 336.634C1302.01 336.783 1301.55 336.915 1301.09 336.881C1300.3 336.82 1299.58 336.882 1298.95 337.163C1298.33 337.438 1297.79 337.918 1297.34 338.693C1297.08 339.134 1296.54 339.475 1296.06 339.628C1293.66 340.412 1291.25 341.266 1288.8 341.814C1286.12 342.413 1285.39 343.473 1285.54 346.486C1285.59 347.357 1285.55 348.234 1285.48 349.119C1285.44 349.591 1285.4 350.065 1285.35 350.54L1285.24 351.694L1285.19 352.374C1279.21 356.556 1273.09 355.67 1266.51 353.548V381.646L1261.17 382.107L1260.66 386.802L1254.7 386.423L1254.24 382.12C1254.12 382.062 1254.01 381.998 1253.91 381.939C1253.7 381.819 1253.52 381.712 1253.33 381.688C1250.28 381.282 1250.13 380.978 1250.48 377.537C1250.6 376.382 1250.57 375.208 1250.54 373.973V373.939L1250.52 372.859L1250.51 372.15L1246.04 371.25L1245.74 366.055C1244.11 364.875 1242.53 365.209 1240.9 365.556C1240.4 365.66 1239.9 365.766 1239.39 365.831C1238.94 365.89 1238.47 365.916 1238 365.879V369.63C1237.99 372.417 1237.98 375.12 1238.02 377.823C1238.05 380.225 1238.01 380.309 1235.83 380.461C1234.24 380.573 1232.66 380.713 1230.97 380.863L1228.39 381.089V404.51L1224.41 404.911L1217.63 416.116C1217.53 416.064 1217.33 416.009 1217.17 415.933C1217.06 415.88 1216.98 415.818 1216.96 415.739C1216.56 413.451 1215.27 411.833 1213.98 410.205L1213.65 409.783C1213.48 409.568 1213.31 409.351 1213.14 409.13C1212.6 408.407 1212.16 407.576 1211.65 406.587L1211.59 406.488C1211.35 406.022 1211.09 405.521 1210.78 404.981L1207.39 404.638L1207.33 404.523L1207.24 404.348C1207.16 404.216 1207.08 404.086 1207.04 403.954C1207.01 403.881 1206.99 403.809 1206.99 403.736L1206.86 400.683C1206.71 397.274 1206.56 393.865 1206.51 390.453C1206.4 382.87 1206.3 375.286 1206.21 367.703L1206 350.781C1205.95 346.958 1205.91 343.136 1205.85 339.315C1205.83 337.927 1205.74 336.538 1205.63 334.992L1205.53 333.491L1205.47 332.521L1201.49 334.019V358.032C1201.48 359.203 1201.44 360.174 1200.29 360.973C1199.68 361.402 1199.44 362.946 1199.44 363.987C1199.44 368.931 1199.49 373.876 1199.55 378.821L1199.61 384.33L1199.62 384.802V386.127L1199.61 387.938C1196.99 388.78 1181.94 388.941 1178.37 388.286C1177.59 385.096 1177.65 381.842 1177.72 378.515C1177.74 377.3 1177.76 376.076 1177.74 374.842C1177.73 373.656 1177.67 372.46 1177.54 371.254L1172.19 370.965C1171.55 369.155 1171.68 367.25 1171.81 365.304C1171.96 363.03 1172.12 360.698 1171.06 358.391L1165.85 361.165V426.549C1165.85 427.601 1165.92 428.67 1165.78 429.703C1165.67 430.557 1165.37 431.266 1164.93 431.815C1164.34 432.544 1163.5 432.994 1162.5 433.132C1161.61 433.255 1160.72 433.438 1159.79 433.627L1159.78 433.63L1159.71 433.643C1159.31 433.727 1158.9 433.811 1158.48 433.892L1158.66 435.572L1158.83 436.98L1158.84 437.081C1159.1 439.386 1159.35 441.6 1159.52 443.821C1159.66 445.608 1160.48 446.213 1161.92 446.373C1163.97 446.601 1165.91 447.281 1168.35 448.479L1165.67 450.551C1166.03 453.297 1167.72 453.616 1169.53 453.955C1170.59 454.155 1171.7 454.362 1172.59 455.075L1165.75 458.607L1166.16 461.283L1155.4 466.185L1156.75 469.722C1156.33 470.077 1155.93 470.49 1155.54 470.902L1155.52 470.928C1154.22 472.286 1152.95 473.624 1150.83 472.848C1149.95 474.32 1149.58 475.819 1149.42 477.348C1149.32 478.447 1149.32 479.56 1149.32 480.69V480.815C1149.32 481.845 1149.32 482.889 1149.24 483.945C1148.79 484.267 1148.52 484.267 1148.24 484.267L1148.27 483.554C1148.45 480.069 1148.63 476.633 1147.49 474.127L1141.18 469.933L1143.25 466.776C1142.44 466.014 1141.77 465.124 1140.92 464.637C1139.98 464.103 1139.01 463.631 1138.04 463.173L1137.26 462.806C1136.66 462.531 1136.07 462.255 1135.49 461.969C1135.22 461.838 1134.94 461.73 1134.65 461.622C1133.49 461.181 1132.34 460.74 1132.33 458.757C1132.32 458.486 1131.9 458.169 1131.46 457.912C1131.27 457.802 1131.08 457.703 1130.92 457.623C1129.7 457.019 1128.46 456.457 1127.23 455.895L1127.02 455.8C1126.62 455.619 1126.22 455.436 1125.82 455.25L1125.78 454.504C1126.14 454.395 1126.49 454.282 1126.84 454.168L1126.93 454.142C1127.68 453.904 1128.42 453.665 1129.18 453.465C1132.49 452.593 1132.8 451.622 1130.72 448.722C1130.65 448.624 1130.63 448.483 1130.59 448.23C1130.56 448.069 1130.53 447.861 1130.48 447.59L1138.57 445.84C1139.04 441.604 1139.49 437.234 1140 432.871C1140.14 431.659 1140.28 430.446 1140.41 429.232L1140.54 428.063C1141.05 423.537 1141.56 419.01 1142.26 414.521C1143.32 407.679 1143.48 400.823 1143.25 393.924C1143.19 392.153 1143.12 390.382 1143.05 388.612C1142.93 385.487 1142.81 382.363 1142.73 379.236C1142.72 378.618 1142.72 377.999 1142.72 377.38C1142.72 374.297 1142.72 371.204 1140.8 368.345L1138.45 368.128C1137.67 364.098 1137.69 360.026 1137.71 355.948C1137.72 355.138 1137.72 354.327 1137.72 353.517C1137.72 352.004 1137.69 350.492 1137.6 348.982C1137.16 348.882 1136.74 348.78 1136.33 348.681L1135.49 348.482C1134.95 348.356 1134.43 348.238 1133.9 348.134C1133.07 347.972 1132.76 347.483 1132.62 346.869C1132.56 346.61 1132.53 346.328 1132.49 346.04C1132.47 345.867 1132.45 345.693 1132.42 345.519C1132.37 345.193 1132.3 344.87 1132.16 344.573C1131.76 344.534 1131.31 344.465 1130.84 344.436C1130.72 344.428 1130.59 344.423 1130.47 344.422C1130.35 344.421 1130.23 344.424 1130.11 344.429C1129.95 344.435 1129.79 344.446 1129.62 344.459L1129.1 344.503C1128.85 344.526 1128.58 344.551 1128.26 344.575C1128.25 344.927 1128.23 345.278 1128.21 345.626L1128.19 346.086C1128.17 346.391 1128.16 346.695 1128.15 346.998L1128.14 347.387L1128.13 347.587V347.977C1128.16 353.39 1128.2 358.803 1128.24 364.217L1128.33 376.402C1128.33 376.612 1128.33 376.823 1128.34 377.033C1128.39 378.657 1128.43 380.274 1126.47 380.96C1126.26 381.033 1126.11 381.445 1126.01 381.903C1125.94 382.208 1125.89 382.535 1125.87 382.796C1125.8 383.52 1125.81 384.253 1125.83 385.024C1125.83 385.352 1125.84 385.686 1125.84 386.029L1123.11 386.921C1123.08 386.999 1123.04 387.072 1123 387.141L1122.99 387.164L1122.98 387.176L1122.96 387.205C1122.92 387.273 1122.89 387.337 1122.86 387.398C1122.83 387.47 1122.81 387.539 1122.82 387.608L1122.86 391.212C1122.87 392.453 1122.89 393.694 1122.91 394.934C1122.94 396.455 1122.98 397.977 1123.03 399.496C1123.11 401.631 1122.84 402.129 1120.8 402.206C1120.31 402.225 1119.81 402.232 1119.32 402.232L1118.78 402.23L1118.05 402.223C1117.2 402.214 1116.34 402.205 1115.49 402.233C1111.44 402.361 1107.39 402.544 1103.34 402.688C1102.66 402.712 1101.98 402.705 1101.23 402.7L1100.06 402.693L1099.23 384.882C1096.22 384.19 1096.22 384.156 1096.2 380.879V380.363C1096.16 375.542 1096.02 370.724 1095.87 365.785C1095.81 363.674 1095.75 361.54 1095.7 359.376C1094.99 359.376 1094.28 359.435 1093.57 359.493C1092.32 359.596 1091.08 359.698 1089.94 359.484C1089.62 359.423 1089.31 359.338 1089 359.221C1087.59 358.676 1086.38 359.073 1085.18 359.464L1085.15 359.473C1084.75 359.602 1084.36 359.731 1083.96 359.823C1083.42 359.948 1082.88 360.009 1082.31 359.927C1080.79 359.708 1079.24 359.757 1077.57 359.809L1077.5 359.813C1077.08 359.826 1076.65 359.838 1076.21 359.847C1075.88 359.854 1075.54 359.858 1075.2 359.858L1075.13 364.358C1075.08 367.7 1075.04 370.922 1074.97 374.144C1074.96 374.536 1074.97 374.931 1074.98 375.325C1075.01 376.867 1075.05 378.403 1074 379.821C1073.81 380.083 1073.73 380.457 1073.71 380.879C1073.7 381.188 1073.71 381.523 1073.72 381.857C1073.73 382.058 1073.74 382.261 1073.74 382.457C1073.74 382.607 1073.74 382.752 1073.73 382.892C1073.65 384.106 1074.06 385.501 1072.46 386.053C1072.22 386.134 1072.06 386.681 1071.96 387.217C1071.92 387.434 1071.9 387.649 1071.88 387.83C1071.85 388.247 1071.83 388.665 1071.83 389.096C1071.83 389.471 1071.83 389.856 1071.84 390.254V390.292L1071.85 391.073V391.495C1069.6 391.315 1068.44 392.633 1067.22 394.174C1064.83 397.202 1061.48 396.998 1059.07 394.094C1058.41 393.289 1057.62 392.606 1056.84 391.927C1056.41 391.56 1055.98 391.194 1055.57 390.813C1055.51 390.752 1055.43 390.691 1055.35 390.628C1055.14 390.461 1054.92 390.288 1054.92 390.12C1054.92 389.43 1054.79 388.795 1054.58 388.193C1054.29 387.342 1053.85 386.555 1053.41 385.773C1052.57 384.296 1051.74 382.829 1051.97 380.95C1051.1 380.621 1050.49 380.389 1050.06 380.132C1049.8 379.979 1049.61 379.816 1049.46 379.617C1049.04 379.031 1049.03 378.134 1049.01 376.244H1043.61L1042.74 388.441C1042.38 388.474 1042.06 388.508 1041.78 388.539C1041.26 388.596 1040.87 388.639 1040.47 388.64L1038.87 388.642C1032.22 388.653 1025.56 388.664 1018.9 388.64C1015.76 388.629 1015.61 388.42 1015.58 384.807C1015.57 383.636 1015.6 382.465 1015.56 381.296V380.95C1015.56 380.424 1015.55 379.823 1015.32 379.633C1014.32 378.833 1013.9 377.876 1013.75 376.856C1013.62 376.016 1013.67 375.131 1013.72 374.256C1013.76 373.576 1013.8 372.902 1013.75 372.256C1013.61 370.202 1013.53 368.144 1013.47 366.082C1013.39 363.362 1013.35 360.638 1013.24 357.918C1013.22 357.555 1013.02 357.2 1012.82 356.846L1012.69 356.617C1012.64 356.528 1012.6 356.438 1012.56 356.348L1011.87 356.483V360.223C1011.87 362.872 1011.86 365.521 1011.87 368.17C1011.89 371.468 1011.94 374.768 1011.99 378.069C1012.1 386.007 1012.22 393.945 1011.84 401.852C1011.64 406.032 1011.46 410.226 1011.28 414.418V414.462L1011.17 416.813C1011.14 417.484 1011.04 418.153 1010.93 418.745C1010.83 419.254 1010.73 419.707 1010.67 420.061C1003.52 423.632 996.237 424.484 988.768 425.359L988.01 425.448C987.983 425.247 987.952 425.059 987.922 424.877L987.911 424.821L987.811 424.237C987.735 423.776 987.674 423.355 987.669 422.933C987.649 421.26 987.586 419.58 987.577 417.907C987.567 416.535 987.592 415.168 987.704 413.81C988.002 410.158 987.199 407.19 984.31 404.74H980.225C979.954 401.816 979.896 398.903 979.902 395.986C979.906 394.746 979.92 393.506 979.934 392.264C979.977 388.555 980.02 384.828 979.762 381.055L973.31 380.648C972.233 380.583 971.159 380.519 970.085 380.459C967.797 380.333 967.798 380.296 967.853 377.719L967.857 377.591C967.882 376.482 967.894 375.372 967.9 374.258C967.904 372.908 967.9 371.55 967.894 370.179L967.889 369.533L967.887 368.695C967.883 367.828 967.879 366.954 967.879 366.074C967.135 365.958 966.419 365.829 965.717 365.703C964.178 365.427 962.723 365.166 961.26 365.105C959.085 365.012 958.362 365.998 958.269 368.467C958.248 369 958.254 369.534 958.26 370.19L958.264 371.289L952.521 372.083C952.521 372.643 952.501 373.2 952.484 373.753C952.445 374.959 952.407 376.147 952.559 377.303C953.049 381.049 952.862 381.41 949.426 381.65C949.254 381.661 949.083 381.695 948.877 381.738C948.717 381.771 948.535 381.811 948.316 381.852L947.786 386.363L939.469 386.835L939.133 382.196L932.529 381.625V353.612C924.402 355.617 916.603 356.657 908.947 352.3C908.919 351.686 908.885 351.082 908.85 350.486C908.823 350.015 908.796 349.563 908.775 349.114C908.734 348.283 908.708 347.461 908.721 346.64C908.778 343.529 908.061 341.92 905.46 342.019C903.915 342.076 902.516 341.527 901.126 340.98L901.107 340.973C900.445 340.712 899.785 340.452 899.113 340.259C898.281 340.02 897.429 339.882 896.531 339.973C895.962 340.03 895.122 339.778 894.801 339.321C892.926 336.642 890.286 336.918 887.727 336.771C887.54 336.761 887.356 336.66 887.122 336.533L886.883 336.408L886.689 336.317L886.671 336.178C886.43 334.434 886.171 332.57 884.103 332.023C883.867 331.96 883.725 331.469 883.555 330.89L883.549 330.872C883.463 330.575 883.37 330.256 883.255 329.961C881.594 329.729 879.935 329.445 878.275 329.144L876.062 328.737C869.404 327.504 862.699 326.262 855.728 327.269L855.613 327.675L855.609 327.69C855.558 327.863 855.508 328.033 855.467 328.204C855.44 328.314 855.415 328.423 855.393 328.534C855.34 328.821 855.309 329.112 855.268 329.527C855.247 329.745 855.22 329.998 855.185 330.303C854.255 330.303 853.328 330.309 852.406 330.315C850.212 330.327 848.044 330.34 845.874 330.279C844.659 330.244 844.431 329.257 844.197 328.225L844.193 328.198L844.187 328.174C844.095 327.783 844.004 327.386 843.852 327.034L836.247 326.291C834.196 329.634 832.017 332.31 827.74 331.103L827.253 348.081C826.366 348.412 825.473 348.579 824.577 348.655C823.434 348.75 822.286 348.697 821.141 348.644C820.716 348.623 820.287 348.604 819.861 348.591C819.56 348.582 819.26 348.577 818.962 348.579C818.757 348.581 818.551 348.586 818.346 348.595C816.247 348.683 814.139 348.661 812.038 348.641L810.716 348.63L809.281 348.623H800.154C800.111 348.155 800.066 347.742 800.023 347.366C799.943 346.643 799.88 346.053 799.876 345.464C799.86 343.269 799.868 341.074 799.87 338.879C799.872 337.095 799.868 335.311 799.844 333.528C799.833 332.634 799.731 331.743 799.622 330.734L799.609 330.649L799.592 330.499C799.538 330.019 799.483 329.509 799.43 328.961H777.497C777.395 328.728 777.308 328.486 777.232 328.242C777.154 327.993 777.087 327.743 777.018 327.496C776.649 326.149 776.302 324.891 774.65 324.611C774.31 324.553 774.083 323.651 773.846 322.72L773.699 322.148C773.634 321.908 773.569 321.678 773.499 321.473C772.942 321.473 772.389 321.468 771.841 321.464C770.612 321.454 769.389 321.445 768.171 321.485C767.079 321.52 766.511 321.575 766.189 321.921C765.875 322.258 765.792 322.871 765.678 324.01C765.655 324.237 765.639 324.466 765.624 324.696C765.606 324.924 765.588 325.153 765.566 325.378L765.548 325.574L765.508 325.858C765.479 326.054 765.44 326.247 765.387 326.436C765.178 327.197 764.797 328.464 764.406 328.506C763.246 328.632 762.27 329.273 761.294 329.912L761.269 329.93C760.818 330.225 760.367 330.519 759.898 330.762C759.203 331.122 758.469 331.368 757.633 331.334L757.327 331.324C755.598 331.261 754.098 331.209 753.673 328.571C753.553 327.834 752.188 327.351 751.352 326.718C751.274 324.235 751.237 323.039 750.624 322.464C750.055 321.931 748.989 321.933 746.934 321.936H746.915L746.023 321.94C744.414 322.625 742.801 323.311 741.187 323.993C739.201 324.832 737.214 325.665 735.22 326.482C734.899 326.612 734.575 326.734 734.247 326.849C734.018 326.929 733.79 327.006 733.557 327.081C732.794 327.328 732.006 327.551 731.191 327.783C730.715 327.916 730.228 328.054 729.734 328.2C722.259 329.159 715.6 331.544 709.712 335.886C706.62 338.165 703.498 340.41 700.363 342.671C697.568 344.687 694.76 346.714 691.947 348.788C691.9 348.913 691.859 348.899 691.857 348.903C689.914 348.783 688.196 348.998 686.888 350.824C686.522 351.335 684.889 351.448 684.081 351.142C682.102 350.395 680.134 349.621 678.171 348.837C676.805 348.291 675.442 347.741 674.079 347.19C672.393 346.508 670.704 345.825 669.013 345.153C668.552 344.969 667.994 345.014 667.271 344.99C666.882 344.962 666.705 344.901 666.402 344.773C663.217 340.361 657.1 340.052 653.335 343.832C650.95 346.226 648.179 348.258 645.617 350.491C645.338 350.734 645.077 351.001 644.829 351.279C644.702 351.421 644.579 351.568 644.458 351.715C644.274 351.937 644.096 352.163 643.923 352.389C642.458 354.288 641.048 356.231 639.595 358.139C638.604 359.441 637.594 360.726 636.533 361.972C634.353 364.535 632.073 367.018 629.792 369.5C628.458 370.951 627.124 372.403 625.809 373.87C624.001 375.89 622.213 377.926 620.437 379.972C619.506 381.046 618.578 382.123 617.652 383.203C617.33 383.58 617.146 384.07 616.937 384.625L616.913 384.69C616.856 384.844 616.793 385.004 616.727 385.168C616.72 385.245 616.705 385.281 616.697 385.296C616.683 385.319 616.68 385.306 616.695 385.315L616.617 385.364C613.496 387.32 610.564 389.158 606.271 388.731C605.015 388.606 603.591 390.029 602.171 391.446C601.89 391.726 601.608 392.006 601.331 392.275C600.985 392.606 600.641 392.918 600.304 393.189C599.663 393.701 599.029 394.225 598.396 394.747L598.279 394.841C597.244 395.695 596.211 396.548 595.15 397.366C594.75 397.673 594.346 397.978 593.935 398.274C593.676 398.462 593.263 398.598 592.843 398.656C592.36 398.721 591.868 398.685 591.583 398.507C589.964 397.494 588.389 396.418 586.814 395.341L585.661 394.554C584.384 393.686 583.099 392.826 581.786 392.013C581.427 391.79 581.076 391.554 580.73 391.311C580.208 390.943 579.697 390.557 579.185 390.17C577.091 388.588 574.987 387.001 572.097 386.639C571.673 386.586 571.281 386.343 570.896 386.027C570.754 385.909 570.612 385.782 570.47 385.65L570.208 385.403C569.847 385.058 569.481 384.709 569.093 384.454C568.833 384.283 568.572 384.103 568.31 383.921C567.343 383.25 566.353 382.566 565.271 382.314C562.209 381.6 559.589 380.687 557.995 377.68C556.618 375.081 554.638 373.006 551.488 371.878C550.367 371.477 549.317 370.891 548.292 370.24C547.725 369.879 547.166 369.498 546.607 369.117C546.171 368.821 545.733 368.523 545.294 368.235C544.942 368.004 544.588 367.781 544.228 367.567C543.954 367.404 543.657 367.271 543.339 367.153C543.009 367.03 542.652 366.922 542.273 366.805L542.232 366.793L541.906 366.695C541.84 366.698 541.772 366.69 541.71 366.675C541.595 366.65 541.499 366.601 541.456 366.552C540.973 366.174 540.513 365.762 540.057 365.355C539.02 364.424 538.008 363.515 536.81 363.099C534.116 362.161 532.956 360.23 531.718 358.079C530.907 356.674 529.982 355.073 528.65 354.258C528.156 353.955 527.652 353.661 527.144 353.375C526.077 352.775 524.985 352.209 523.88 351.665C522.282 350.88 520.657 350.14 519.036 349.406C518.464 349.147 517.671 349.342 516.878 349.537C516.69 349.583 516.502 349.629 516.318 349.669C516.279 349.748 516.263 349.796 516.253 349.823L516.232 349.855C512.561 350.937 509.363 352.428 507.311 355.941C505.824 358.485 503.922 361.188 499.806 360.495L499.587 360.493C499.563 360.493 499.56 360.492 499.561 360.487L499.523 360.364L499.499 360.259C499.454 360.075 499.407 359.895 499.294 359.777C494.03 354.331 488.678 348.979 481.947 344.9C481.684 344.848 481.6 344.817 481.408 344.709C479.223 341.906 476.167 340.819 472.925 340.435C468.896 339.957 464.844 339.665 460.781 339.373L457.617 339.143C457.5 339.134 457.382 339.134 457.261 339.14C457.116 339.147 456.971 339.162 456.824 339.185C456.551 339.226 456.276 339.289 456.003 339.353L455.603 339.442C454.985 339.571 454.37 339.726 453.755 339.881L453.689 339.897C452.364 340.232 451.041 340.565 449.697 340.657C447.786 340.788 446.79 341.697 446.935 343.273C447.088 344.953 446.139 345.968 445.193 346.978C444.656 347.553 444.12 348.125 443.792 348.819C443.735 348.936 443.573 349.03 443.378 349.096C443.142 349.177 442.853 349.22 442.634 349.224C440.144 349.274 437.092 346.701 436.777 344.199C436.533 342.25 435.599 340.958 433.513 340.957C433.017 340.957 432.5 340.883 431.982 340.809C430.28 340.566 428.569 340.32 427.458 342.722C426.101 345.653 424.122 347.971 419.978 347.481C417.843 347.228 415.673 347.246 413.499 347.303C412.093 347.34 410.684 347.393 409.281 347.397C405.437 347.409 404.958 348.15 405.308 351.993C405.435 353.386 405.489 354.787 405.501 356.19C405.517 357.895 405.472 359.605 405.425 361.308C405.366 363.406 404.58 364.552 401.856 364.38C399.003 364.2 396.136 364.235 393.267 364.269C392.298 364.28 391.328 364.291 390.36 364.294C389.633 364.297 388.907 364.294 388.181 364.284C387.794 364.279 387.406 364.271 387.022 364.26C386.196 364.238 384.784 363.3 384.692 362.648C384.473 361.077 384.377 359.49 384.283 357.903C384.231 357.021 384.179 356.139 384.105 355.26C384.04 354.483 383.958 353.707 383.845 352.938C383.753 352.322 383.431 351.693 383.007 351.111C382.847 350.89 382.67 350.677 382.486 350.473C382.24 350.198 381.982 349.94 381.726 349.708C381.163 349.198 380.476 348.814 379.79 348.43L379.579 348.31L379.136 348.06C378.638 347.766 378.161 347.45 377.759 347.063C375.284 344.678 369.567 344.617 367.193 347.142C365.787 348.639 362.246 349.191 360.865 347.744C358.465 345.227 355.425 345.441 352.55 345.643L352.14 345.671C347.466 345.989 342.837 346.885 338.183 347.5C335.298 347.883 333.617 349.647 332.318 351.978C332.047 352.468 331.71 353.033 331.302 353.443C331.093 353.653 330.866 353.821 330.622 353.915C329.402 354.39 328.169 354.843 326.931 355.281C326.13 355.564 325.326 355.84 324.522 356.113C323.241 356.546 321.954 356.967 320.665 357.383L320.367 357.48C318.92 357.95 317.419 358.437 315.925 358.492C313.452 358.585 312.905 359.748 312.872 361.883C312.851 363.351 312.637 364.816 312.401 366.331C312.279 367.104 312.154 367.889 312.042 368.695C311.919 368.915 311.841 368.962 311.636 369.059L310.987 369.252C309.804 369.604 308.681 369.937 307.466 370.35C307.091 370.488 306.849 370.513 306.423 370.528L304.815 370.294L303.151 370.048C300.296 369.622 297.511 369.208 294.712 368.929C294.152 368.874 292.964 370.024 292.917 370.674C292.855 371.522 292.88 372.375 292.933 373.231C292.954 373.589 292.98 373.949 293.005 374.308L293.021 374.493C293.071 375.227 293.122 375.96 293.13 376.693C293.181 381.147 293.105 385.602 293.179 390.055C293.214 392.239 292.372 393.205 290.009 393.392C289.351 393.444 288.701 393.819 288.076 394.273C287.617 394.605 287.172 394.98 286.744 395.301C286.43 395.538 286.126 395.937 285.843 396.307C285.47 396.795 285.135 397.233 284.867 397.181C283.717 396.961 282.246 396.33 281.731 395.425L281.636 395.253C281.165 394.425 280.75 393.698 280.067 393.203C279.662 392.91 279.163 392.699 278.501 392.596C278.3 392.564 278.108 392.283 277.944 391.908C277.733 391.426 277.569 390.789 277.483 390.326C277.346 389.586 277.248 388.84 277.151 388.082L277.147 388.06C277.032 387.163 276.915 386.248 276.724 385.31C276.63 385.255 276.572 385.235 276.538 385.222C276.511 385.212 276.496 385.208 276.492 385.197C276.363 385.099 276.233 384.978 276.105 384.859L276.069 384.829C275.899 384.677 275.733 384.531 275.567 384.446C275.469 384.396 275.373 384.367 275.28 384.371C273.132 384.475 272.648 383.169 272.474 381.523C272.22 379.161 270.586 378.51 268.447 378.526C268.268 378.527 268.088 378.543 267.908 378.567L267.615 378.611L267.406 378.648L267.054 378.704L266.901 378.726C262.739 379.273 262.335 379.764 262.431 383.893C262.478 385.971 262.566 388.065 262.345 390.123C262.282 390.698 261.216 391.584 260.562 391.626L260.458 391.633C255.712 391.937 253.759 392.063 252.972 393.092C252.421 393.813 252.441 394.976 252.478 396.954C252.493 397.802 252.512 398.799 252.489 399.976C252.475 400.72 252.461 401.465 252.453 402.21C252.446 402.803 252.441 403.396 252.439 403.99C252.437 404.896 252.44 405.802 252.453 406.708C252.465 407.401 252.482 408.092 252.507 408.783C252.56 410.207 252.46 411.45 251.587 412.186C251.144 412.559 250.5 412.802 249.578 412.873C249.401 412.888 249.237 413.068 249.06 413.301C248.97 413.418 248.875 413.549 248.774 413.679L248.733 413.833L248.72 413.896C248.712 413.927 248.703 413.948 248.689 413.958C248.273 414.433 247.867 414.902 247.464 415.389C247.058 415.884 246.656 416.399 246.257 416.958C246.265 417.139 246.148 417.351 246.052 417.427C244.499 418.552 243.041 419.602 241.53 420.691C240.494 419.812 239.245 418.752 237.81 417.675C237.626 417.641 237.5 417.6 237.403 417.535L237.341 417.49C237.286 417.445 237.236 417.39 237.181 417.321C236.88 414.785 236.105 412.891 233.132 412.412C232.337 412.284 231.404 411.106 231.136 410.235C230.882 409.416 230.914 408.511 230.948 407.608C230.961 407.228 230.976 406.848 230.968 406.474L229.972 355.797L229.956 355.306C229.935 354.793 229.913 354.279 229.997 353.782C230.3 351.986 229.772 350.649 227.741 350.592C225.78 350.535 224.417 351.493 224.269 353.573C224.255 353.772 224.246 353.971 224.242 354.17C224.237 354.481 224.237 354.794 224.239 355.106L224.237 359.406C224.233 363.595 224.229 367.785 224.16 371.975C224.151 372.735 223.82 373.818 223.249 374.182C221.583 375.241 221.549 376.576 221.606 378.295C221.684 380.65 221.738 383.004 221.771 385.36C221.826 389.297 221.829 393.236 221.812 397.174C221.81 397.7 220.917 398.663 220.417 398.678C216.583 398.78 212.744 398.813 208.907 398.845L204.499 398.886L202.946 398.905C201.433 398.924 200.71 398.342 200.663 396.842C200.622 395.503 200.553 394.165 200.485 392.826C200.383 390.807 200.28 388.788 200.272 386.769C200.264 384.658 199.494 383.532 197.224 383.742C195.058 383.945 194.204 382.945 194.251 380.964C194.263 380.553 194.248 380.14 194.237 379.728V379.634L194.235 379.551L194.222 379.089C194.212 378.629 194.209 378.171 194.235 377.713C194.35 375.777 194.382 373.846 191.915 373.287C189.964 372.844 186.255 375.33 186.243 377.143C186.217 381.263 186.253 385.384 186.288 389.506C186.302 391.008 186.315 392.51 186.325 394.012L186.343 397.076C186.367 405.314 186.374 413.552 186.353 421.79C186.345 424.457 186.285 427.123 186.229 429.79L186.173 432.635C186.138 434.546 185.903 435.643 185.112 436.318C184.463 436.87 183.442 437.139 181.853 437.342C178.849 437.726 178.363 438.454 178.896 441.35C179.169 442.83 179.281 444.348 179.349 445.854C179.497 449.123 180.13 449.896 183.392 450.257L183.476 450.267C184.578 450.389 185.555 450.497 186.065 451.127C186.401 451.545 186.534 452.19 186.358 453.219C186.221 454.017 187.609 455.249 188.55 455.969C189.117 456.402 189.836 456.645 190.612 456.908C191.002 457.04 191.409 457.177 191.817 457.345C191.899 457.452 191.918 457.522 191.905 457.609C191.897 457.656 191.879 457.707 191.86 457.771L191.851 457.801C191.824 457.926 191.6 457.999 191.485 457.996C190.602 458.279 189.761 458.561 188.929 458.879C188.316 459.112 187.71 459.364 187.097 459.648C187.068 459.826 187.047 459.886 187.021 459.905C186.071 462.117 184.282 463.072 181.953 463.53C180.455 463.826 178.895 464.338 177.653 465.162C176.925 465.646 176.472 466.56 176.04 467.43C175.945 467.623 175.849 467.814 175.751 467.998C175.579 468.329 175.476 468.733 175.378 469.127C175.226 469.736 175.078 470.324 174.679 470.596C173.695 471.268 172.625 471.837 171.532 472.356C170.758 472.72 169.971 473.062 169.188 473.398C168.964 473.494 168.595 473.276 168.175 473.028C167.954 472.897 167.719 472.758 167.483 472.652C167.397 472.62 167.348 472.6 167.319 472.585C167.294 472.573 167.284 472.564 167.284 472.555C167.258 472.432 167.207 472.338 167.101 472.272C167.035 472.229 166.944 472.196 166.825 472.172C166.729 472.172 166.692 472.149 166.688 472.133C166.687 472.127 166.691 472.122 166.696 472.12C166.506 471.951 166.306 471.789 166.101 471.629C165.921 471.487 165.741 471.344 165.569 471.195C165.379 471.032 165.203 470.861 165.044 470.673L164.88 470.484L164.599 470.174C164.31 469.858 164.008 469.529 163.784 469.202C163.553 468.87 163.406 468.54 163.429 468.232C163.646 465.432 161.937 464.329 159.673 463.565C159.318 463.445 158.958 463.331 158.599 463.224C158.058 463.062 157.515 462.911 156.97 462.758L156.888 462.735C156.406 462.6 155.92 462.465 155.442 462.323C155.348 462.294 155.25 462.269 155.151 462.244C154.817 462.157 154.475 462.068 154.235 461.871C153.268 461.089 152.309 460.296 151.362 459.505L148.187 456.849C152.075 455.126 152.496 454.436 151.937 450.19C151.912 450.101 151.945 450.041 151.997 450.005C152.025 449.986 152.06 449.973 152.095 449.965C152.14 449.954 152.189 449.953 152.224 449.959C155.322 450.958 157.859 449.749 160.55 448.462L160.739 448.372C160.928 448.358 160.985 448.408 160.981 448.446C161.006 448.618 161.079 448.727 161.285 448.852C161.334 448.874 161.375 448.88 161.41 448.884L161.46 448.896L161.476 448.905C161.991 449.009 162.494 449.098 163.03 449.13C163.203 449.14 163.38 449.145 163.562 449.141C163.871 448.98 164.099 448.942 164.499 448.91C164.628 448.885 164.765 448.864 164.901 448.841L165.024 448.821C165.225 448.788 165.423 448.756 165.593 448.722C165.72 448.697 165.831 448.669 165.917 448.639C166.025 448.601 166.091 448.558 166.097 448.507L166.239 447.515C166.332 446.868 166.427 446.219 166.513 445.57C166.562 445.198 166.606 444.826 166.649 444.453C166.776 443.33 166.867 442.206 166.876 441.081C166.9 438.644 166.884 436.206 166.851 433.768C166.82 431.391 166.771 429.014 166.722 426.638L166.683 424.741C166.628 421.96 167.204 419.038 164.46 416.865C164.179 416.642 164.094 416.159 164.075 415.62C164.057 415.152 164.088 414.641 164.078 414.22C163.996 410.446 163.921 406.67 163.847 402.898C163.749 397.96 163.649 393.023 163.534 388.086C163.53 387.879 163.498 387.673 163.448 387.465C163.34 387.018 163.147 386.56 162.937 386.065L162.843 385.84C162.685 385.73 162.593 385.507 162.562 385.39C162.55 384.921 162.498 384.489 162.405 384.084C162.332 383.771 162.235 383.475 162.114 383.193C161.729 382.296 161.084 381.541 160.157 380.819C159.739 380.493 159.417 379.974 159.181 379.384C159.06 379.08 158.962 378.757 158.886 378.432C158.783 377.982 158.721 377.528 158.698 377.116C158.66 376.411 158.658 375.705 158.669 374.998C158.681 374.279 158.709 373.558 158.739 372.838C158.799 371.335 158.859 369.833 158.765 368.34C158.628 366.198 158.235 363.925 154.991 363.944C154.243 363.948 153.193 363.203 152.79 362.523C151.456 360.26 149.659 360.187 147.368 361.216C147.268 361.492 147.161 361.761 147.058 362.023C146.849 362.548 146.649 363.048 146.532 363.54C146.465 363.818 146.425 364.093 146.423 364.368C146.398 368.097 146.392 371.825 146.394 375.554C146.398 379.526 146.413 383.498 146.427 387.47L146.433 388.308V389.128C146.413 390.555 146.189 391.859 144.339 392.407C144.261 392.43 144.148 392.473 144.122 392.535C143.935 392.991 143.74 393.445 143.544 393.898L143.087 394.943C142.22 396.916 141.354 398.892 140.772 400.941C140.443 402.106 140.526 403.38 140.612 404.654C140.633 404.998 140.658 405.345 140.673 405.689C140.685 405.947 140.69 406.204 140.688 406.46C140.662 410.188 140.318 410.476 136.556 410.565C134.501 410.613 132.45 410.86 130.272 411.158C130.081 411.323 129.994 411.369 129.825 411.463L129.776 411.491C127.735 411.496 125.811 411.43 123.651 411.336C123.283 411.255 122.943 411.149 122.624 411.049L122.306 410.952C122.038 410.872 121.784 410.807 121.535 410.773C121.379 410.751 121.227 410.742 121.075 410.752C120.093 410.814 119.377 410.644 118.894 410.233C118.392 409.806 118.14 409.12 118.095 408.165C118.023 406.607 117.933 405.048 117.843 403.491C117.744 401.79 117.645 400.091 117.569 398.391C117.494 396.77 117.02 395.584 115.327 394.777C115.063 394.652 114.819 394.4 114.612 394.087C114.455 393.851 114.322 393.58 114.218 393.302C114.076 392.925 113.99 392.535 113.979 392.204C113.952 391.152 113.937 390.099 113.927 389.046C113.911 387.444 113.91 385.84 113.91 384.237C113.909 381.866 113.909 379.494 113.858 377.124C113.842 376.313 113.407 375.511 112.953 374.679L112.679 374.167C112.394 374.116 112.296 374.113 112.056 374.077C111.579 373.969 111.244 373.893 110.868 373.918C110.594 374.043 110.365 374.066 109.96 374.075C109.138 374.028 108.327 373.977 107.522 373.927L107.399 373.918L107.298 373.911C105.181 373.778 103.121 373.646 101.065 373.592C100.04 373.565 99.0106 373.574 97.9814 373.594C97.3702 373.607 96.7588 373.624 96.1455 373.642C95.4404 373.661 94.7334 373.681 94.0264 373.695C91.3078 373.744 90.1788 374.713 90.0459 377.305L90.0127 377.943C89.9658 378.821 89.9209 379.702 89.9092 380.582C89.9033 380.976 89.9053 381.369 89.917 381.762C89.9326 382.295 89.9678 382.827 90.0283 383.357C90.4911 387.332 89.1981 390.916 87.9033 394.505C87.6631 395.17 87.4228 395.835 87.1943 396.502C87.1514 396.625 87.081 396.747 87.0107 396.867L86.9424 396.989C86.8604 397.137 86.796 397.283 86.8056 397.428C87.0048 400.329 85.0303 401.676 83.0869 403.001C82.6103 403.325 82.1377 403.65 81.6982 403.993C79.4679 405.741 76.747 404.887 74.1514 403.065C70.5186 400.511 69.1299 396.762 67.2061 393.22C66.335 391.615 65.3505 389.976 64.042 388.719C63.6768 388.371 63.1006 388.139 62.4775 388.011C61.874 387.888 61.2256 387.861 60.6846 387.92C58.5986 388.149 57.8428 387.714 58.5654 385.631C58.8017 384.95 58.8154 384.14 58.7119 383.418C58.6553 383.03 58.624 382.621 58.5654 382.23C58.4912 381.737 58.3739 381.269 58.1182 380.899C57.7784 380.408 57.1904 380.088 56.1221 380.11C53.0244 380.17 51.7353 381.062 51.3428 383.586C51.2842 383.954 51.2178 384.322 51.1514 384.688C51.0674 385.149 50.9834 385.611 50.917 386.075C50.3428 390.093 49.6044 390.803 45.4814 390.783C43.1103 390.772 40.7412 390.721 38.3721 390.671C35.6123 390.613 32.8545 390.554 30.0947 390.557C28.5361 390.558 27.5322 390.127 26.9639 389.216C26.6105 388.649 26.4268 387.895 26.3838 386.943C26.2686 386.383 26.2471 385.991 26.2666 385.405C26.335 383.086 26.4325 380.824 26.4853 378.588C26.5282 376.7 26.5381 374.831 26.4697 372.965C26.4364 372.028 25.1064 371.137 23.9248 370.379C22.9424 374.346 22.7509 378.155 23.7529 382.111C23.9559 382.445 24.0088 382.66 24.0596 383.044L24.0537 383.268L24.0127 386.374C23.9932 388.104 23.9892 389.822 24.0185 391.608L24.0654 394.038V394.117C24.1728 399.618 24.2783 405.001 24.1455 410.378C24.083 412.919 23.8799 415.457 23.6768 417.996L23.665 418.125C23.4872 420.361 23.3096 422.596 23.2295 424.834C23.1631 426.742 22.0225 427.019 20.8096 427.313C20.583 427.37 20.3682 427.421 20.1572 427.482C20.0148 427.524 19.8721 427.569 19.7334 427.622C13.8526 429.894 6.33203 430.731 0 431.267V0H1440.48V323.5ZM173.628 438.496C173.288 441.524 173.083 444.281 173.175 447.028C173.228 448.583 173.947 448.808 177.302 448.712C176.742 445.423 176.234 442.172 175.556 438.954C175.517 438.772 174.945 438.694 174.372 438.616L174.005 438.564C173.869 438.544 173.742 438.521 173.628 438.496ZM1145.05 411.888C1143.6 415.705 1143.59 419.725 1143.13 423.648C1142.68 427.56 1142.31 431.486 1141.91 435.407C1141.64 439.135 1141.41 442.223 1141.16 445.525L1142.03 445.626C1142.53 445.686 1142.92 445.734 1143.32 445.764C1144.31 445.841 1145.01 445.545 1145.4 444.844C1145.6 444.471 1145.72 443.984 1145.74 443.376L1145.76 443.038L1145.79 442.648C1145.81 442.44 1145.83 442.231 1145.84 442.023C1145.84 441.894 1145.85 441.764 1145.85 441.635V440.513C1145.85 431.911 1145.86 423.308 1145.84 414.705C1145.83 414.453 1145.82 414.201 1145.78 413.949C1145.76 413.782 1145.73 413.613 1145.68 413.445C1145.56 412.924 1145.35 412.406 1145.05 411.888ZM1153.73 433.801C1153.34 433.874 1152.8 434.703 1152.77 435.229C1152.7 436.597 1152.69 437.971 1152.7 439.345L1152.71 440.68V441.523C1152.99 443.008 1153.16 443.931 1153.43 444.501C1153.55 444.761 1153.69 444.948 1153.87 445.081C1154.34 445.43 1155.08 445.413 1156.43 445.382L1156.13 442.887C1155.8 440.166 1155.48 437.456 1155.07 434.762C1155.04 434.54 1154.78 434.268 1154.49 434.07C1154.36 433.974 1154.21 433.895 1154.07 433.846C1153.94 433.802 1153.82 433.784 1153.73 433.801Z" fill="#D17D54"/>
</svg>
