<svg width="467" height="208" viewBox="0 0 467 208" fill="none" xmlns="http://www.w3.org/2000/svg">
<path d="M24.2242 84.7526C23.8853 86.8356 23.526 88.735 23.1667 90.6345C25.6938 88.7108 26.0889 85.1123 28.9185 83.6947C29.1306 83.7912 29.3427 83.8877 29.5548 83.9842C28.5931 87.2484 27.6313 90.5126 26.606 93.9925C28.1279 93.5356 29.3187 93.1781 30.483 92.8285C31.4071 91.0314 32.0025 88.9058 34.675 88.3267C34.1511 90.6446 33.7236 92.7393 33.1995 94.8072C32.4307 97.84 31.4734 100.825 30.8102 103.881C29.5714 109.59 28.2899 115.304 27.4176 121.08C26.9616 124.099 27.3371 127.256 27.3371 131.067C30.021 129.671 32.5736 128.629 34.8278 127.104C38.2019 124.821 41.5267 122.396 44.5826 119.675C49.2527 115.516 53.9385 111.312 58.1257 106.643C61.9349 102.396 65.1201 97.5308 68.5174 92.8874C70.1759 90.6205 70.1111 90.5686 72.6586 92.7829C73.9521 91.4077 74.9748 89.148 77.2693 90.8056C76.562 93.6704 75.8754 96.4516 75.1888 99.2327C75.4439 99.3592 75.6991 99.4857 75.9543 99.6122C76.9733 98.8295 78.0535 98.1191 78.9956 97.2455C80.1152 96.2075 81.1415 95.5729 82.1408 96.7656C81.4699 99.3239 80.9486 101.651 80.2379 103.913C79.6792 105.691 78.9834 107.44 78.1783 109.112C76.3526 112.903 74.4661 116.665 72.5226 120.392C70.1279 124.985 67.6166 129.511 65.219 134.101C63.3647 137.652 61.6979 141.312 59.788 144.828C56.4254 151.018 53.0328 157.195 49.4792 163.267C46.4269 168.482 43.2977 173.665 39.8995 178.635C36.3037 183.894 31.943 188.27 26.1981 191.17C23.0834 192.743 19.9712 193.75 16.6233 194.276C15.5046 194.451 14.2688 195.262 13.3288 194.959C10.5226 194.054 7.64035 193.081 5.15127 191.506C1.73379 189.342 0.25982 185.51 0.0215279 181.556C-0.145055 178.791 0.690283 175.921 1.31476 173.156C1.87812 170.662 2.68282 168.217 3.52851 165.807C4.387 163.361 5.42592 160.984 6.38582 158.576C6.67734 158.642 6.96886 158.707 7.26038 158.772C7.14583 160.515 7.03128 162.258 6.91673 164.001C7.02589 164.067 7.13506 164.133 7.24422 164.2C8.19588 162.441 9.14755 160.683 10.2872 158.577C10.7815 162.398 11.2319 165.88 11.7679 170.023C12.2774 169.187 12.6079 168.865 12.6717 168.493C12.7988 167.751 12.6275 166.925 12.8606 166.239C13.1318 165.44 13.7043 164.754 14.146 164.019C14.5442 164.706 15.1798 165.353 15.2974 166.089C15.7008 168.617 15.8986 171.18 16.2261 173.722C16.3453 174.646 16.6084 175.551 16.8166 176.514C23.5402 173.42 41.3155 149.639 40.9774 144.427C38.2954 145.186 35.6274 146.018 32.9221 146.686C29.9483 147.419 26.9591 148.149 23.937 148.57C22.8674 148.718 21.6052 148.112 20.5631 147.571C17.5042 145.984 13.7309 145.402 12.1533 141.599C11.6319 140.342 11.174 138.923 11.183 137.582C11.2131 133.111 11.2102 128.609 11.7047 124.178C12.2734 119.082 13.1839 114.008 14.2687 109.001C15.3319 104.094 16.5568 99.1925 18.1749 94.4624C19.3083 91.1492 21.1947 88.1128 22.8278 85.0006C22.992 84.6875 23.7313 84.705 24.2242 84.7526Z" fill="#985142"/>
<path d="M227.518 186.039C225.778 193.273 225.484 200.922 221.696 208C221.506 207.194 221.387 206.689 221.269 206.183C221.081 205.383 221.1 204.044 220.676 203.868C217.659 202.613 218.585 199.88 218.58 197.721C218.549 185.505 218.685 173.288 218.764 161.071C218.769 160.249 218.764 159.428 218.764 158.329C213.563 157.961 208.491 157.486 203.409 157.283C199.863 157.14 196.303 157.318 192.753 157.449C189.635 157.564 189.202 158.148 188.294 161.174C186.958 165.631 185.41 170.018 183.84 174.771C181.966 169.816 184.098 165.212 184.401 160.586C184.148 160.515 183.895 160.444 183.641 160.372C183.012 162.57 182.219 164.734 181.804 166.975C181.462 168.819 181.602 170.735 179.02 170.722C178.701 170.72 178.283 171.491 178.075 171.98C177.601 173.096 177.229 174.26 176.816 175.404C176.566 175.442 176.315 175.481 176.065 175.519C175.785 174.424 175.513 173.327 175.224 172.235C174.976 171.299 174.71 170.369 174.452 169.437C173.879 170.241 173.313 171.052 172.729 171.847C172.579 172.052 172.372 172.212 172.19 172.393C171.996 172.333 171.802 172.273 171.608 172.212C171.97 169.529 172.216 166.823 172.715 164.168C173.92 157.76 176.17 151.737 179.034 145.94C181.026 141.906 182.681 137.68 184.812 133.732C187.443 128.856 190.385 124.162 193.24 119.42C195.457 115.737 197.535 111.931 200.053 108.483C204.191 102.818 208.551 97.3227 212.985 91.9054C215.437 88.9085 218.177 86.1599 220.881 83.4006C223.654 80.572 229.355 81.0836 231.982 84.0645C233.164 85.4052 234.799 86.3013 236.187 87.4525C236.662 87.8459 237.251 88.3418 237.38 88.8947C237.919 91.2213 238.634 93.5798 238.681 95.94C238.816 102.613 238.798 109.298 238.568 115.969C238.339 122.608 237.821 129.239 237.35 135.867C236.987 140.983 236.537 146.092 236.059 151.197C235.688 155.157 235.283 159.116 234.769 163.058C234.103 168.166 233.375 173.267 232.557 178.351C231.798 183.065 230.956 187.768 230.017 192.446C229.294 196.045 228.377 199.602 227.509 203.168C227.414 203.555 227.071 203.875 226.339 204.131C226.88 199.005 227.421 193.879 228.071 188.438C228.481 185.97 228.781 183.819 229.081 181.668C228.761 181.61 228.441 181.553 228.121 181.495C227.92 183.01 227.719 184.524 227.518 186.039ZM222.317 118.913C222.317 115.152 222.317 111.392 222.317 107.648C219.722 108.251 200.447 136.971 200.737 139.969C206.733 139.969 212.736 139.987 218.738 139.955C220.142 139.948 221.041 139.496 221.126 137.627C221.403 131.529 221.893 125.441 222.317 118.913ZM217.417 145.095C217.649 145.05 217.881 145.004 218.582 144.867C212.438 142.869 206.685 143.871 200.976 143.63C200.964 143.976 200.952 144.321 200.939 144.667C206.303 144.82 211.668 144.973 217.417 145.095Z" fill="#985142"/>
<path d="M331.519 94.7612C331.84 96.5571 332.21 98.1466 332.451 99.7573C333.048 103.752 333.504 107.772 334.171 111.754C334.809 115.562 335.641 119.334 336.44 123.386C336.849 122.916 337.361 122.593 337.468 122.16C338.131 119.484 338.611 116.757 339.328 114.099C340.369 110.235 341.56 106.416 342.688 102.578C343.62 99.4075 344.456 96.2014 345.519 93.0802C346.307 90.7692 347.355 88.5509 348.375 86.336C348.563 85.9277 349.174 85.7327 349.753 85.3237C349.634 86.912 349.533 88.249 349.433 89.5861C349.665 89.6757 349.897 89.7652 350.128 89.8548C351.166 87.9852 352.203 86.1156 353.468 83.837C355.173 89.1437 352.818 94.059 354.091 98.9153C354.966 95.687 355.841 92.4587 356.716 89.2304C356.995 89.3113 357.275 89.3923 357.555 89.4732C357.705 94.2462 357.745 98.9822 356.516 103.704C355.652 107.025 355.313 110.492 354.573 113.854C353.533 118.576 352.321 123.256 351.226 127.966C351.023 128.841 351.063 129.776 350.932 130.674C350.391 134.379 349.763 138.072 349.286 141.787C348.371 148.91 347.608 156.056 346.646 163.172C345.915 168.579 345.01 173.963 344.096 179.341C343.905 180.466 343.362 181.533 342.921 182.6C342.802 182.886 342.316 183.311 342.248 183.266C341.698 182.895 341.191 182.446 340.701 181.986C339.962 181.294 339.248 180.574 338.454 179.798C336.839 181.839 336.944 184.64 334.202 185.13C333.371 183.142 332.362 181.36 329.813 181.821C329.563 181.867 329.025 181.247 328.908 180.845C328.416 179.147 327.895 177.437 327.637 175.691C326.946 171.012 326.452 166.3 325.755 161.621C324.954 156.246 324.063 150.885 323.131 145.533C322.343 141.004 321.48 136.488 320.567 131.985C320.257 130.453 319.695 128.978 318.743 127.445C318.223 128.724 317.51 129.958 317.22 131.292C316.508 134.564 315.884 137.866 315.421 141.186C314.449 148.143 313.695 155.135 312.657 162.082C312.272 164.663 311.359 167.159 310.648 169.682C310.549 170.034 310.231 170.318 310.015 170.634C309.734 170.312 309.347 170.037 309.193 169.658C308.872 168.868 308.695 168.016 308.417 167.205C308.272 166.782 308.039 166.392 307.845 165.986C307.594 166.405 307.317 166.81 307.1 167.248C306.977 167.498 306.952 167.802 306.73 168.702C305.961 167.488 305.449 166.679 304.553 165.264C304.349 168.067 304.19 170.248 304.016 172.645C300.514 171.682 302.397 168.04 300.622 165.859C299.812 167.611 299.124 169.098 298.251 170.984C297.466 167.691 296.635 164.692 297.096 161.472C297.159 161.033 297.428 160.612 297.431 160.181C297.486 153.053 298.984 146.143 300.384 139.232C301.649 132.985 302.97 126.74 304.577 120.584C306.086 114.801 307.832 109.071 309.789 103.437C311.578 98.286 313.775 93.2883 315.831 88.2406C316.149 87.4598 316.64 86.7434 317.121 86.0503C318.589 83.932 319.79 83.8445 321.46 85.4449C322.391 84.9475 323.4 83.9734 323.979 84.2005C324.866 84.5483 325.734 85.6053 326.11 86.5741C326.751 88.2256 327.197 89.6424 329.384 89.3969C329.889 89.3402 330.769 90.4605 331.041 91.2119C331.415 92.2432 331.373 93.4391 331.519 94.7612Z" fill="#985142"/>
<path d="M296.655 97.1571C297.379 94.5231 298.102 91.8892 298.825 89.2553C299.044 89.2463 299.263 89.2373 299.482 89.2284C299.698 90.0316 300.177 90.8685 300.088 91.6325C299.499 96.6697 298.849 101.701 298.091 106.714C297.67 109.498 297.025 112.246 296.445 115.002C295.161 121.097 293.749 127.164 292.597 133.286C291.849 137.263 291.423 141.309 290.93 145.334C290.035 152.635 289.309 159.961 288.298 167.243C287.673 171.741 286.673 176.182 285.785 180.637C285.639 181.373 285.329 182.168 284.853 182.699C284.608 182.972 283.768 182.872 283.315 182.661C282.959 182.495 282.866 181.776 282.513 181.524C281.841 181.046 281.088 180.543 280.321 180.44C280.057 180.405 279.574 181.495 279.324 182.128C278.721 183.659 277.956 184.923 276.038 185.026C275.492 183.085 274.726 181.635 272.387 181.832C271.825 181.88 270.749 180.369 270.575 179.438C269.842 175.529 269.435 171.555 268.772 167.63C267.717 161.393 266.514 155.184 265.449 148.949C264.766 144.951 264.29 140.915 263.586 136.923C263.037 133.806 262.281 130.729 261.508 127.123C260.802 127.94 260.257 128.279 260.168 128.719C259.076 134.089 257.899 139.446 257.047 144.86C256.011 151.452 255.298 158.099 254.363 164.71C254.147 166.238 253.652 167.733 253.176 169.204C252.995 169.764 252.508 170.215 252.161 170.716C251.779 170.215 251.192 169.767 251.06 169.203C250.823 168.184 250.89 167.092 250.766 166.039C250.703 165.51 250.499 164.999 249.936 164.497C249.681 165.834 249.426 167.172 249.079 168.997C248.302 167.68 247.778 166.793 247.255 165.905C247.038 165.968 246.822 166.031 246.605 166.094C246.605 167.784 246.665 169.477 246.566 171.16C246.54 171.612 246.032 172.034 245.745 172.469C245.309 172.088 244.621 171.789 244.481 171.312C243.985 169.626 243.676 167.879 242.844 166.106C242.182 167.562 241.521 169.018 240.7 170.825C239.105 166.86 239.004 163.162 239.491 159.399C239.664 158.066 239.894 156.741 240.103 155.413C241.126 148.908 242.055 142.383 243.211 135.904C243.869 132.213 244.788 128.56 245.79 124.951C247.225 119.781 248.83 114.663 250.389 109.531C251.301 106.529 252.131 103.49 253.234 100.565C254.995 95.8965 256.709 91.1767 258.921 86.7398C260.2 84.1739 261.387 83.3206 263.796 85.6395C266.312 83.2065 267.371 83.5115 268.701 87.4755C269.218 89.0192 269.883 89.4897 271.348 89.3823C271.832 89.3468 272.669 89.92 272.819 90.3962C273.353 92.0919 273.768 93.8479 274.036 95.613C275.125 102.802 276.103 110.009 277.21 117.194C277.541 119.348 278.158 121.453 278.748 124.033C279.431 122.052 280.079 120.537 280.475 118.954C281.57 114.577 282.318 110.09 283.65 105.798C285.616 99.4602 287.94 93.2423 290.2 87.0084C290.448 86.3254 291.274 85.8721 292.088 85.0549C291.825 87.422 291.605 89.4067 291.385 91.3913C291.519 91.384 291.654 91.3767 291.788 91.3694C293.008 88.9228 294.228 86.4762 295.448 84.0297C295.7 84.0886 295.952 84.1476 296.204 84.2065C296.204 87.1617 296.204 90.1168 296.066 93.3859C295.078 96.149 295.273 98.6002 295.488 101.051C295.696 101.064 295.904 101.076 296.113 101.089C296.293 99.7783 296.474 98.4677 296.655 97.1571Z" fill="#985142"/>
<path d="M161.278 168.699C160.282 170.857 159.332 173.042 158.23 175.139C158.09 175.406 157.02 175.434 156.612 175.174C156.132 174.868 155.905 174.127 155.376 173.26C154.696 174.076 154.127 174.759 153.199 175.871C152.914 174.802 152.575 174.046 152.528 173.27C152.172 167.414 153.25 161.739 154.595 156.1C155.421 152.637 156.227 149.169 156.996 145.692C157.756 142.259 158.458 138.813 159.3 134.831C157.214 135.312 155.454 135.539 153.816 136.135C150.904 137.193 148.092 138.55 145.186 139.626C143.951 140.084 143.412 140.638 143.27 142.103C142.841 146.507 142.353 150.923 141.555 155.266C140.439 161.332 139.178 167.381 137.665 173.35C136.97 176.09 135.528 178.623 134.19 181.325C134.121 178.999 134.286 176.597 134.452 174.195C134.285 174.167 134.119 174.139 133.953 174.111C133.369 175.656 132.785 177.202 132.2 178.747C131.474 180.329 130.795 181.937 129.998 183.478C129.695 184.065 129.121 184.499 128.671 185.002C128.314 184.496 127.951 183.994 127.602 183.482C127.405 183.194 127.229 182.89 126.846 182.276C126.568 183.19 126.388 183.782 126.076 184.805C125.623 183.967 125.052 183.363 124.981 182.7C124.68 179.916 124.366 177.115 124.367 174.32C124.367 171.217 124.553 168.093 124.929 165.015C125.585 159.638 126.486 154.294 127.198 148.924C127.375 147.588 127.224 146.204 127.224 144.601C126.034 144.601 124.786 144.601 123.538 144.601C123.409 144.398 123.279 144.195 123.15 143.992C123.739 143.31 124.287 142.581 124.928 141.958C125.524 141.379 126.275 140.97 126.849 140.372C127.201 140.007 127.529 139.422 127.516 138.946C127.509 138.697 126.758 138.43 126.315 138.244C125.653 137.966 124.967 137.751 124.289 137.509C126.368 135.683 128.222 134.056 130.075 132.428C129.953 132.223 129.83 132.019 129.707 131.815C128.656 131.815 127.606 131.815 126.555 131.815C126.433 131.639 126.31 131.464 126.188 131.289C127.139 130.277 128.14 129.311 129.025 128.24C129.815 127.285 130.783 126.319 131.137 125.176C132.213 121.704 133.012 118.139 133.951 114.62C135.173 110.038 136.416 105.462 137.666 100.888C138.678 97.1822 139.631 93.4546 140.773 89.7924C141.37 87.8777 142.319 86.0832 143.373 84.1028C143.873 83.545 144.108 83.1188 144.344 82.6927C144.396 82.4116 144.447 82.1305 144.785 81.7694C145.307 81.6993 145.545 81.7093 145.782 81.7192C145.764 82.0637 145.747 82.4082 145.486 82.9291C144.938 84.3142 144.632 85.5229 144.326 86.7315C144.462 87.3211 144.598 87.9106 144.734 88.5001C144.895 88.512 145.057 88.5238 145.218 88.5356C146.686 85.1746 148.154 81.8135 149.623 78.4524C149.968 78.5312 150.314 78.61 150.659 78.6888C150.589 80.0697 150.56 81.4545 150.437 82.8302C150.337 83.9448 150 85.0508 150.019 86.1558C150.028 86.6678 150.591 87.5329 150.983 87.5851C151.518 87.6566 152.284 87.2475 152.669 86.7864C153.146 86.2148 153.278 85.3438 153.662 84.6667C154.179 83.7582 154.794 82.9117 155.367 82.0386C155.722 82.1975 156.077 82.3564 156.432 82.5153C155.814 85.7096 155.275 88.9236 154.553 92.0919C153.98 94.6045 153.136 97.0478 152.498 99.5458C151.438 103.694 150.474 107.868 149.415 112.016C148.763 114.572 148.01 117.099 147.147 120.193C148.923 119.913 150.428 119.907 151.772 119.417C155.33 118.118 158.871 116.731 162.303 115.11C163.321 114.629 164.381 113.388 164.694 112.271C166.731 105.025 168.539 97.7098 170.499 90.4403C170.767 89.4457 171.467 88.5785 171.967 87.6523C172.215 87.689 172.463 87.7256 172.71 87.7623C172.71 89.9161 172.71 92.0699 172.71 94.2238C172.947 94.2494 173.184 94.275 173.42 94.3006C174.62 91.6609 175.819 89.0211 177.018 86.3814C177.308 86.4247 177.597 86.468 177.887 86.5114C177.887 90.1787 177.887 93.846 177.887 97.5133C178.218 97.6043 178.55 97.6954 178.881 97.7864C180.107 94.9783 181.333 92.1702 182.559 89.362C182.906 89.4567 183.253 89.5514 183.6 89.6461C183.249 92.4506 182.904 95.2559 182.538 98.0583C182.502 98.335 182.282 98.5849 182.243 98.862C181.628 103.249 181.148 107.663 180.376 112.019C179.972 114.297 179.053 116.474 178.383 118.702C178.253 119.134 178.116 119.592 178.123 120.035C178.208 124.95 175.551 129.061 174.5 133.641C174.003 135.804 173.422 137.947 172.934 140.112C171.889 144.741 171.077 149.439 169.803 153.997C168.363 159.153 166.521 164.187 164.655 169.479C163.823 169.967 163.191 170.25 162.559 170.533C162.559 170.188 162.559 169.842 162.764 169.26C163.31 167.157 163.652 165.291 163.993 163.425C163.801 163.36 163.608 163.295 163.416 163.23C162.703 165.053 161.991 166.876 161.278 168.699ZM152.638 124.383C154.8 123.467 156.995 122.626 159.11 121.603C160.291 121.032 161.337 120.157 162.444 119.419C162.314 119.242 162.184 119.064 162.054 118.887C159.323 119.809 156.585 120.714 153.861 121.659C149.708 123.099 147.152 124.702 147.146 125.744C148.85 125.32 150.571 124.892 152.638 124.383Z" fill="#985142"/>
<path d="M424.652 98.0402C420.173 99.1896 415.736 100.587 411.205 101.432C403.882 102.797 396.502 103.845 389.134 104.935C384.833 105.571 384.288 106.048 383.282 110.521C382.936 112.062 382.343 113.541 381.674 115.641C386.714 115.641 391.267 115.641 395.819 115.641C395.86 115.963 395.9 116.284 395.94 116.605C392.673 117.516 389.406 118.426 386.139 119.337C386.183 119.617 386.228 119.896 386.273 120.176C390.78 120.176 395.286 120.176 399.793 120.176C399.95 120.448 400.107 120.721 400.264 120.994C398.515 122.974 396.766 124.954 394.803 127.176C396.149 127.176 397.304 127.176 398.459 127.176C398.592 127.365 398.726 127.555 398.859 127.745C398.212 128.623 397.739 129.868 396.885 130.316C393.472 132.107 389.938 133.643 386.454 135.287C382.995 136.92 379.343 138.241 376.177 140.358C374.739 141.319 373.959 143.779 373.448 145.723C372.922 147.726 373.052 149.927 372.959 152.044C372.884 153.773 373.807 154.6 375.372 154.298C377.015 153.981 378.621 153.434 380.225 152.924C381.977 152.368 383.682 151.638 385.452 151.163C389.361 150.113 393.289 149.14 397.229 148.224C397.936 148.059 398.733 148.317 400.066 148.427C398.043 149.859 396.52 150.938 394.836 152.13C395.685 152.455 396.394 152.726 397.263 153.059C396.985 153.645 396.733 154.174 396.285 155.119C398.303 154.486 400.027 153.946 401.751 153.406C401.873 153.595 401.995 153.784 402.117 153.973C399.65 156.861 397.182 159.749 394.715 162.637C394.876 162.82 395.038 163.002 395.199 163.185C397.218 161.764 399.238 160.344 401.665 158.637C401.373 161.702 399.549 163.079 398.027 164.629C395.137 167.571 391.641 169.462 387.917 170.995C382.68 173.15 377.368 175.117 371.671 174.81C365.248 174.464 359.751 171.653 356.568 165.704C354.462 161.767 354.19 157.158 355.606 152.643C355.914 151.66 355.789 150.538 355.981 149.504C356.974 144.168 357.881 138.809 359.058 133.517C360.176 128.496 361.368 123.469 362.929 118.586C365.159 111.609 367.756 104.761 370.19 97.8565C370.313 97.508 370.364 97.1325 370.475 96.7786C371.659 93.0062 372.935 92.5415 375.617 94.4143C377.653 93.7617 379.323 92.9988 381.065 92.7113C385.968 91.9019 390.898 91.262 395.824 90.6045C400.379 89.9963 404.935 89.3655 409.506 88.9057C413.372 88.5168 417.259 88.2092 421.139 88.166C422.876 88.1467 424.626 88.8355 426.355 89.2679C426.689 89.3514 426.954 89.7366 427.25 89.9826C426.965 90.2943 426.695 90.6249 426.388 90.9117C426.13 91.1528 425.815 91.5437 425.548 91.5241C422.935 91.3314 422.16 93.0795 421.873 95.2937C422.805 95.2937 423.818 95.3197 424.83 95.2868C425.959 95.2501 426.231 95.7947 425.912 97.0145C425.951 97.1971 425.996 97.1536 425.842 97.0701C425.333 97.3566 424.978 97.7267 424.634 98.0848C424.646 98.073 424.652 98.0402 424.652 98.0402ZM372.674 100.023C372.864 100.458 373.054 100.893 373.244 101.329C373.561 101.04 374.078 100.802 374.157 100.454C374.426 99.269 374.541 98.0457 374.715 96.8371C374.44 96.7488 374.165 96.6604 373.89 96.5721C373.51 97.6207 373.129 98.6694 372.674 100.023Z" fill="#985142"/>
<path d="M425.932 97.2218C428.264 94.8557 430.443 92.2348 433.011 90.1365C435.761 87.8907 438.694 85.6894 441.872 84.2636C448.184 81.4318 454.91 82.8778 461.486 83.1317C462.005 83.1518 462.503 83.7728 463.01 84.1145C462.956 84.299 462.901 84.4835 462.847 84.668C458.017 84.949 453.187 85.2301 448.357 85.5112C454.389 87.9949 461.02 86.0853 466.965 88.5548C466.95 88.8447 466.935 89.1346 466.921 89.4244C464.59 89.8368 462.259 90.2492 459.621 90.7159C462.137 92.5327 464.569 94.2883 467 96.0439C466.92 96.2971 466.841 96.5503 466.761 96.8035C465.94 96.8035 465.092 96.6672 464.301 96.8325C462.774 97.1522 461.296 97.7516 459.764 98.027C458.493 98.2553 457.141 98.4087 455.882 98.2067C451.079 97.4361 447.351 99.0152 443.639 102.418C439.16 106.523 435.377 111.186 431.867 116.073C429.469 119.412 427.864 123.392 426.036 127.156C425.02 129.248 424.275 131.484 423.207 134.161C424.541 134.073 425.26 134.166 425.889 133.961C430.12 132.583 434.253 130.702 438.573 129.84C443.147 128.927 448.179 127.57 452.359 130.778C455.253 132.999 457.601 136.089 459.9 139.041C461.908 141.621 461.663 144.952 461.094 147.926C460.139 152.912 459.433 158.059 456.437 162.356C454.342 165.361 451.602 167.499 448.532 169.342C444.555 171.729 440.211 172.91 435.897 174.31C430.362 176.106 424.816 176.772 419.154 175.345C416.336 174.635 413.344 171.552 413.059 169.187C413.867 169.299 414.619 169.403 415.991 169.593C415.488 168.638 415.07 168.023 414.827 167.339C414.553 166.567 414.436 165.733 414.165 164.549C415.527 164.751 416.739 164.931 418.083 165.131C418.711 162.181 415.974 162.219 414.446 160.659C415.824 160.422 416.838 160.136 417.862 160.09C421.697 159.921 425.582 160.165 429.359 159.603C432.269 159.17 435.164 158.022 437.848 156.708C440.231 155.542 442.338 153.741 444.525 152.158C445.978 151.106 446.649 147.747 445.788 146.254C445.109 145.075 442.214 144.535 440.676 145.242C438.981 146.02 437.241 146.692 435.553 147.485C432.686 148.831 429.844 150.234 426.992 151.614C426.927 151.645 426.87 151.702 426.803 151.716C422.81 152.542 418.826 153.974 414.822 154.037C409.655 154.118 405.172 150.009 407.445 143.61C408.547 140.507 408.53 136.987 409.433 133.783C410.798 128.938 412.418 124.161 414.136 119.437C415.341 116.121 416.694 112.829 418.336 109.734C420.148 106.319 422.378 103.149 424.395 99.8526C424.689 99.3724 424.815 98.7795 424.835 98.1395C424.652 98.0403 424.646 98.073 424.761 98.2379C425.25 97.9864 425.623 97.57 425.996 97.1536C425.996 97.1536 425.951 97.1971 425.932 97.2218ZM437.482 133.556C437.228 133.666 436.974 133.776 436.721 133.886C436.765 134.062 436.809 134.238 436.853 134.414C439.317 133.92 441.782 133.427 444.246 132.933C444.169 132.551 444.092 132.168 444.015 131.786C441.944 132.336 439.873 132.886 437.482 133.556ZM431.785 163.716C432.039 163.69 432.293 163.664 433.06 163.586C429.604 162.789 428.359 163.028 427.435 165.029C429.058 164.553 430.26 164.201 431.785 163.716ZM451.871 161.873C451.243 162.597 450.614 163.322 449.986 164.046C450.148 164.255 450.311 164.463 450.474 164.672C451.422 163.832 452.37 162.992 453.318 162.152C452.93 162.001 452.541 161.849 451.871 161.873Z" fill="#985142"/>
<path d="M110.547 77.338C113.304 79.383 116.205 81.0455 117.568 84.3384C118.335 86.1932 119.282 88.0712 119.555 90.0293C121.218 101.968 120.312 113.939 119.205 125.833C118.624 132.086 117.174 138.327 115.453 144.366C113.687 150.565 111.267 156.62 107.598 161.919C104.491 166.405 100.674 170.162 95.8712 172.723C93.7184 173.871 91.7276 175.351 89.5762 176.503C88.5985 177.026 87.4208 177.29 86.3138 177.371C82.58 177.644 78.8667 177.404 75.5303 175.421C73.3659 174.135 71.589 172.452 70.4287 169.937C67.3887 163.348 67.1219 156.451 68.2387 149.485C68.9828 144.844 70.3342 140.303 71.5276 135.75C72.3289 132.693 73.0426 129.554 74.3025 126.696C76.6458 121.382 79.3294 116.23 81.9551 111.058C82.3 110.378 83.1379 109.973 84.015 109.207C84.0661 110.252 84.0994 110.932 84.1326 111.612C84.2744 111.674 84.4162 111.735 84.558 111.797C86.2909 108.178 88.2025 104.639 89.7186 100.923C92.6192 93.8146 95.5206 86.7207 100.594 80.947C101.481 79.9376 102.889 79.2624 104.178 78.8457C106.222 78.1851 107.904 75.8504 110.547 77.338ZM96.5233 113.025C95.2395 115.288 93.8979 117.517 92.6876 119.823C91.4151 122.246 88.948 123.466 87.7598 126.187C85.5297 131.294 83.1005 136.318 82.246 141.868C81.4503 147.036 81.8148 152.258 83.3398 157.319C83.9588 159.374 86.9796 161.839 88.2839 161.212C90.4552 160.169 92.6003 159.167 94.3247 157.222C98.9186 152.039 102.727 146.429 104.289 139.426C104.835 136.979 105.382 134.516 105.677 132.027C106.368 126.216 107.172 120.398 107.412 114.559C107.565 110.833 106.884 107.053 106.392 103.324C106.151 101.501 105.485 99.7398 105.011 97.9508C104.796 97.9364 104.581 97.9221 104.366 97.9078C102.971 100.737 101.61 103.585 100.17 106.389C99.0693 108.533 97.8695 110.621 96.5233 113.025ZM103.79 162.607C105.013 162.547 106.45 160.489 106.265 158.162C105.433 159.518 104.601 160.873 103.79 162.607Z" fill="#985142"/>
<path d="M211.792 73.9462C211.299 75.0785 210.805 76.2107 210.312 77.3429C210.001 77.239 209.691 77.1351 209.38 77.0313C209.722 75.4128 210.065 73.7947 210.405 72.1758C211.004 69.3258 211.477 66.4394 212.228 63.6339C213.256 59.79 214.492 56.0073 215.641 52.1987C216.553 49.1715 217.423 46.1289 218.391 43.1212C220.071 37.8998 221.77 32.6842 223.543 27.4966C224.842 23.6953 226.241 19.9304 227.66 16.1756C228.114 14.9734 228.603 13.699 229.401 12.7599C229.852 12.2295 230.976 12.3575 231.773 12.1077C232.391 11.9143 233.089 11.7304 233.543 11.3008C234.285 10.5977 235.086 8.90741 235.461 9.02581C236.736 9.42795 238.136 10.2028 238.913 11.2871C239.654 12.3218 239.961 13.9202 239.966 15.2729C240.002 24.9778 239.908 34.6833 239.87 44.3887C239.866 45.3724 239.959 46.3565 240.04 47.9877C241.071 46.8319 241.956 46.1166 242.502 45.1841C245.794 39.5594 248.946 33.844 252.295 28.258C253.059 26.9839 253.602 25.0123 256.095 25.8818C256.825 26.1366 258.256 24.1917 259.396 23.2295C259.909 23.5606 260.4 24.0534 260.977 24.2194C263.241 24.8706 263.156 26.8777 263.162 28.6024C263.169 30.6289 262.773 32.6574 262.544 34.6842C261.979 39.7056 261.483 44.7371 260.823 49.7447C260.059 55.5318 259.303 61.3283 258.26 67.0642C257.159 73.1177 255.807 79.1264 254.389 85.109C253.871 87.2942 252.965 89.4105 251.983 91.4235C251.693 92.0188 250.541 92.1541 249.833 92.311C249.736 92.0298 249.591 91.9377 249.445 91.8457C248.366 92.8303 247.286 93.8149 246.206 94.7996C246.072 94.7499 245.938 94.7002 245.803 94.6506C246.213 93.4464 246.623 92.2422 247.164 90.8562C247.201 90.6387 247.106 90.603 247.011 90.5674C247.131 90.6903 247.251 90.8132 247.372 90.9361C246.538 90.4769 245.705 90.0177 244.825 89.5331C244.251 90.3217 243.588 91.234 242.924 92.1463C242.715 92.0328 242.506 91.9193 242.296 91.8059C243.106 88.6188 243.885 85.4227 244.737 82.248C245.29 80.1877 246.139 78.1967 246.52 76.1076C247.273 71.9765 247.795 67.7992 248.409 63.6404C248.777 61.1468 249.138 58.6521 249.502 56.1579C249.288 56.0645 249.073 55.9711 248.859 55.8776C247.721 57.6016 246.6 59.3385 245.441 61.0463C244.039 63.1113 242.838 65.4043 241.127 67.1433C238.554 69.7596 234.408 69.3324 231.554 66.758C229.744 65.1253 228.785 63.2461 228.704 60.7113C228.635 58.5519 228.109 56.4118 227.977 54.2504C227.845 52.073 227.948 49.8798 227.519 47.5269C227.198 48.1083 226.781 48.6542 226.571 49.2767C224.422 55.6538 222.39 62.0758 220.146 68.4157C219.046 71.5239 217.605 74.5045 216.219 77.4922C216.038 77.8829 215.216 77.9015 214.77 78.2147C214.036 78.729 213.367 79.3434 212.45 80.0963C212.358 79.3665 212.298 78.8936 212.391 78.1585C213.3 75.6016 213.183 73.3045 212.995 71.0074C212.77 70.9882 212.546 70.9691 212.322 70.95C212.145 71.9487 211.969 72.9475 211.792 73.9462Z" fill="#985142"/>
<path d="M90.6838 9.22172C90.96 8.73169 91.2362 8.24165 91.5124 7.75161C91.6372 7.76901 91.762 7.78639 91.8868 7.80379C91.8868 11.2048 91.8868 14.6059 91.8868 18.0069C92.0107 18.0214 92.1346 18.0358 92.2585 18.0503C92.8436 16.0048 93.4288 13.9594 94.014 11.9139C94.1508 11.8777 94.2877 11.8416 94.4246 11.8055C94.5924 12.4952 94.9567 13.2052 94.8937 13.871C94.6352 16.6037 94.3168 19.335 93.888 22.0439C93.354 25.4167 92.7564 28.7821 92.0657 32.1235C90.9911 37.3223 89.7935 42.4931 88.7001 47.6878C88.4836 48.7163 88.5236 49.8015 88.4088 50.8562C87.8706 55.7992 87.4284 60.7573 86.7423 65.678C86.0747 70.4663 85.1868 75.2225 84.3113 79.9758C84.1511 80.8458 83.5867 81.6343 83.0837 82.7342C82.6146 82.0179 82.3021 81.3711 81.8366 80.8848C81.4762 80.5081 80.9034 80.0959 80.4638 80.1384C80.0831 80.1752 79.7066 80.7916 79.4167 81.2177C78.7709 82.1668 78.1804 83.1571 77.2014 84.7118C76.7819 81.7472 75.4135 80.9492 73.0437 81.3969C70.7772 67.8802 68.5339 54.5025 66.2906 41.1248C66.1048 41.0086 65.9189 40.8925 65.7331 40.7763C65.23 41.6075 64.447 42.3793 64.2729 43.28C63.5539 47.001 63.004 50.7583 62.4209 54.5072C61.5578 60.0555 60.7368 65.6112 59.8397 71.1534C59.7614 71.6372 59.2513 72.0444 58.9418 72.4871C58.5539 72.0461 57.947 71.6621 57.8256 71.1517C57.6024 70.2132 57.665 69.2004 57.6018 68.1039C57.2246 69.1186 56.8888 70.0223 56.459 71.1786C55.9503 70.3268 55.6409 69.8088 55.3316 69.2907C55.163 69.3318 54.9943 69.3729 54.8257 69.414C54.7425 70.9247 54.6593 72.4354 54.5761 73.9461C54.3553 74.0455 54.1344 74.1448 53.9136 74.2442C53.2749 72.8965 52.6361 71.5488 51.776 69.7341C51.3195 70.6407 50.8704 71.5328 50.0697 73.1232C49.7943 71.5242 49.4031 70.4841 49.4782 69.4822C49.865 64.3238 50.0633 59.1188 50.9126 54.0372C52.0256 47.3776 53.4802 40.7599 55.1724 34.2334C56.6227 28.6395 58.5183 23.163 60.4063 17.7064C61.3619 14.9447 62.712 12.3294 63.9428 9.67795C64.1693 9.19002 64.6194 8.60991 65.0709 8.48442C66.0627 8.20871 67.2839 8.49575 68.1128 8.00292C69.2074 7.35217 69.7468 7.66919 70.8236 9.70778C71.3435 10.692 71.5504 12.3955 73.4159 11.9111C73.6999 11.8374 74.4421 12.5172 74.5214 12.941C75.3415 17.324 76.1078 21.7192 76.8094 26.1249C77.3395 29.4544 77.7414 32.8062 78.2371 36.1421C78.2952 36.5329 78.5863 36.8857 78.7854 37.2885C81.7002 28.0503 84.4669 19.2814 87.4129 10.3225C87.7576 9.8239 87.9231 9.5154 88.0885 9.20688C88.0885 9.20688 88.1396 9.20039 88.3138 9.23287C88.5799 10.4892 88.6718 11.713 88.7637 12.9368C88.893 12.9259 89.0222 12.915 89.1514 12.9041C89.6622 11.6766 90.173 10.4492 90.6838 9.22172Z" fill="#985142"/>
<path d="M131.593 84.8472C131.517 85.805 131.441 86.7629 131.158 87.9765C130.718 90.1377 130.485 92.0431 130.253 93.9485C130.192 94.7625 130.131 95.5765 129.861 96.5484C129.356 96.7054 129.06 96.7045 128.746 96.5137C128.825 94.3421 128.923 92.3603 129.067 90.2164C129.085 89.5395 129.057 89.0247 129.029 88.5098C128.894 88.4853 128.759 88.4609 128.624 88.4364C128.37 89.6898 128.115 90.9432 127.817 92.3896C127.633 94.4202 127.494 96.2579 127.314 98.2706C126.793 101.013 126.314 103.581 125.834 106.148C125.321 107.152 124.808 108.155 124.352 109.046C121.185 104.821 122.034 99.7134 121.912 94.8565C121.778 89.4882 122.008 84.1079 122.146 78.7347C122.276 73.6655 122.456 68.5967 122.702 63.5324C122.753 62.4856 123.191 61.4593 123.571 59.9447C119.771 60.6474 116.333 61.1754 112.944 61.9423C110.034 62.6011 107.152 63.4431 104.315 64.3935C103.36 64.7135 102.163 65.4217 101.799 66.2858C100.421 69.5536 99.3392 72.9584 97.9796 76.5188C97.6213 76.0883 97.43 75.4509 97.2563 74.6132C97.2738 73.3474 97.2738 72.282 97.2738 71.2167C97.0791 71.1845 96.8844 71.1524 96.6897 71.1202C96.117 72.9408 95.5443 74.7613 94.9716 76.5819C92.5289 76.5992 92.8532 79.1704 91.323 81.0283C90.988 79.3829 90.7507 78.2178 90.4223 76.6051C89.6476 77.6477 89.0558 78.4441 88.464 79.2404C88.2809 79.1667 88.0978 79.093 87.9147 79.0192C88.6722 76.8427 89.3246 74.618 90.2107 72.5005C91.7096 68.9187 93.3192 65.3859 94.9515 61.8678C96.4769 58.5799 98.1192 55.3515 99.6603 52.0714C101.051 49.1116 102.219 46.0257 103.759 43.1565C107.352 36.4624 110.707 29.6147 115.46 23.6594C118.287 20.1185 120.806 16.3105 123.501 12.6523C124.377 11.4635 125.321 10.32 126.321 9.24401C127.404 8.07791 130.403 8.96426 131.414 10.4938C132.123 11.5671 133.224 12.3509 133.982 13.397C134.595 14.2419 135.293 15.2555 135.374 16.2461C135.816 21.646 136.765 26.9881 135.825 32.5049C135.183 36.2729 135.595 40.226 135.367 44.0855C134.9 52.0039 134.366 59.9188 133.763 67.8272C133.501 71.268 133.001 74.6891 132.395 78.349C131.984 80.6684 131.789 82.7578 131.593 84.8472ZM116.668 47.9131C118.236 47.6245 119.801 47.326 121.371 47.0497C123.807 46.6207 124.519 45.8188 124.586 43.1625C124.686 39.2219 124.732 35.2797 124.78 31.3379C124.788 30.6436 124.693 29.948 124.645 29.2529C124.442 29.1978 124.238 29.1427 124.035 29.0875C122.079 32.3388 120.169 35.6214 118.154 38.832C116.392 41.6401 114.504 44.3618 112.694 47.1375C112.49 47.4501 112.225 48.0311 112.348 48.1964C112.562 48.4852 113.083 48.7284 113.426 48.6706C114.396 48.507 115.341 48.1813 116.668 47.9131ZM123.486 49.1213C120.967 49.3135 118.534 49.7648 116.559 51.6877C118.963 51.5516 121.247 50.9681 123.512 50.312C123.665 50.2679 123.672 49.6751 123.486 49.1213Z" fill="#985142"/>
<path d="M141.255 36.9876C142.204 34.5238 139.84 36.0955 139.322 34.8216C139.538 34.6084 139.855 34.065 140.303 33.8926C141.906 33.2748 142.633 31.9371 143.055 30.3856C144.523 24.9855 145.764 19.5096 147.433 14.1797C148.781 9.87426 150.601 5.7285 152.27 1.53767C152.5 0.961365 153.07 0.533858 153.483 0.0374713C153.669 0.137754 153.854 0.238044 154.04 0.338326C153.516 2.58905 152.993 4.83978 152.47 7.0905C152.667 7.15337 152.864 7.21624 153.061 7.27911C154.264 4.85274 155.468 2.42637 156.672 0C156.91 0.094116 157.149 0.188239 157.388 0.282363C157.281 2.05619 157.081 3.83201 157.115 5.60285C157.128 6.27641 157.68 6.93856 157.986 7.6059C158.55 7.11171 159.19 6.68465 159.655 6.10371C160.087 5.56402 160.332 4.86019 160.948 4.34607C161.618 9.22191 159.693 13.5266 158.571 17.9783C157.451 22.4222 156.195 26.8285 154.922 31.5361C155.876 31.6956 156.621 31.9421 157.359 31.9219C160.257 31.8422 163.157 31.7327 166.047 31.4985C166.597 31.4539 167.452 30.8873 167.571 30.4016C168.596 26.2263 169.339 21.9712 170.456 17.8255C171.522 13.8707 171.926 9.63447 174.811 6.1808C174.811 7.86231 174.811 9.54383 174.811 11.2254C174.971 11.2518 175.132 11.2782 175.293 11.3047C176.272 9.49802 177.252 7.69136 178.232 5.88471C178.471 5.96559 178.709 6.04648 178.947 6.12736C178.947 9.21476 178.947 12.3022 178.947 15.3896C179.164 15.4724 179.381 15.5553 179.598 15.6381C180.445 13.74 181.292 11.8418 182.139 9.94367C182.47 10.0556 182.8 10.1675 183.131 10.2794C182.746 12.7768 182.368 15.2756 181.973 17.7713C181.026 23.7615 180.254 29.7913 179.047 35.7238C178.338 39.2031 176.914 42.5209 175.843 45.9221C175.319 47.586 174.812 49.2598 174.393 50.9549C173.351 55.1658 172.543 59.4504 171.301 63.5938C170.205 67.2504 168.664 70.7625 167.273 74.3186C167.139 74.6618 166.679 74.8655 166.11 75.3606C166.288 73.5408 166.435 72.0335 166.639 69.9354C165.075 72.4356 163.821 74.4393 162.444 76.6402C161.882 75.6503 161.41 74.8188 160.795 73.7354C160.393 74.2384 160.047 74.6714 159.7 75.1073C158.025 72.9867 158.797 70.5041 158.871 68.1625C158.912 66.8651 159.344 65.5751 159.646 64.294C160.881 59.0724 162.151 53.86 163.364 48.6331C163.581 47.6981 163.59 46.7104 163.695 45.7516C159.827 45.7516 156.094 45.7516 152.253 45.7516C150.032 55.7728 149.8 66.1331 145.191 75.254C144.951 75.2118 144.71 75.1697 144.47 75.1275C144.626 73.68 144.783 72.2324 144.939 70.7849C144.848 70.7359 144.757 70.687 144.666 70.6381C143.509 72.6692 142.352 74.7003 141.066 76.9584C140.365 75.8235 139.87 75.0204 139.374 74.2147C139.174 74.6255 138.973 75.0388 138.684 75.6317C138.445 75.2584 138.248 75.0943 138.246 74.9264C138.156 69.8646 137.868 64.7925 138.08 59.7436C138.253 55.6389 139.045 51.5639 139.523 47.4708C139.618 46.6542 139.536 45.8149 139.536 44.9618C139.288 44.8342 139.113 44.7304 138.928 44.6521C138.208 44.3474 137.485 44.0507 136.764 43.7511C137.385 43.3969 138.028 43.0777 138.622 42.6787C139.213 42.2818 139.755 41.8048 140.423 41.2804C139.526 40.4956 138.712 39.7831 137.957 39.1226C139.079 38.3686 140.08 37.6958 141.255 36.9876ZM156.839 35.6354C159.995 35.4663 163.222 35.7501 166.2 34.4501C166.158 34.1516 166.116 33.8531 166.074 33.5546C162.205 34.0912 158.336 34.6278 154.467 35.1644C154.483 35.3206 154.5 35.4769 154.516 35.6331C155.163 35.6331 155.811 35.6331 156.839 35.6354Z" fill="#985142"/>
<path d="M311.857 10.8274C313.018 11.5161 313.32 12.57 311.907 12.9287C310.091 13.3899 309.468 14.4823 309.267 16.3066C310.06 16.3066 310.858 16.3066 311.651 16.3066C311.672 17.799 310.933 18.6891 308.881 19.3541C305.079 20.5856 301.264 21.7819 297.422 22.8666C293.573 23.9534 289.661 24.8033 285.83 25.9515C285.004 26.199 284.033 27.1565 283.782 28C283.279 29.6876 283.228 31.5226 282.957 33.541C285.913 33.4047 288.601 33.2807 291.898 33.1286C290.499 36.2902 287.028 34.3774 285.787 37.0365C288.813 37.0365 291.642 37.0365 295.047 37.0365C293.636 39.0895 292.541 40.6836 291.313 42.4704C292.123 42.5553 292.779 42.624 294.174 42.7702C293.079 43.9424 292.417 44.9572 291.507 45.5665C288.889 47.3198 286.128 48.8397 283.505 50.5867C281.637 51.8311 279.117 52.9105 278.295 54.7516C277.109 57.4115 277.142 60.6883 276.834 63.7218C276.805 63.9998 278.213 64.8713 278.709 64.6986C280.806 63.969 282.816 62.964 284.846 62.0304C287.695 60.7199 290.478 59.1691 294.242 59.4431C293.112 60.4626 292.27 61.2223 291.341 62.0609C291.847 62.7009 292.391 63.3881 293.051 64.2219C293.693 63.9991 294.466 63.7311 295.239 63.4631C295.39 63.5959 295.541 63.7286 295.692 63.8614C294.224 66.0688 292.756 68.2763 291.288 70.4837C291.414 70.5809 291.54 70.6781 291.666 70.7753C292.509 70.2112 293.351 69.6471 294.194 69.083C294.448 69.3728 294.701 69.6625 294.955 69.9523C293.477 71.6249 292.136 73.4644 290.494 74.9359C286.92 78.1382 282.567 79.8753 278.09 81.008C273.899 82.0682 269.332 80.2674 266.582 76.187C264.195 72.6457 264.561 68.6667 264.988 64.8542C265.741 58.131 266.804 51.4309 268.069 44.7902C269.094 39.408 270.486 34.0914 271.94 28.8133C272.984 25.024 274.385 21.3413 275.668 17.6268C275.786 17.2854 276.245 16.7841 276.482 16.8201C279.99 17.3533 282.963 14.8483 286.728 14.9523C289.802 14.1423 292.486 13.0683 295.263 12.5974C299.352 11.9043 303.506 11.6341 307.634 11.1993C309.039 11.0512 310.449 10.95 311.857 10.8274Z" fill="#985142"/>
<path d="M208.854 59.9464C208.602 61.1613 208.371 62.1907 208.277 63.2337C207.659 70.0425 205.686 76.4579 202.588 82.405C200.829 85.7812 197.738 87.8802 194.16 89.0212C192.819 89.4489 191.516 90.1495 190.149 90.3198C185.997 90.8373 183.113 88.2783 180.536 85.4107C177.927 82.5061 176.722 78.9068 176.461 74.9217C176.306 72.5493 175.445 70.1065 175.79 67.8434C176.579 62.6595 177.709 57.5054 179.092 52.4566C180.134 48.6547 181.741 45.0172 183.189 41.3464C183.577 40.3622 184.215 39.4316 184.931 38.6772C185.135 38.4624 186.019 38.9543 186.994 39.2403C188.172 36.6568 189.505 33.5698 190.976 30.5561C192.381 27.6753 193.732 24.7295 195.466 22.0694C197.517 18.9244 201.842 19.2657 204.3 22.0422C208.396 26.6688 209.468 32.245 209.443 38.1725C209.413 45.3714 209.119 52.569 208.854 59.9464ZM201.284 48.6613C200.863 44.073 200.443 39.4847 199.961 34.2235C199.208 35.1607 198.845 35.4853 198.633 35.8949C196.034 40.899 193.804 46.0764 189.809 50.2329C188.048 52.066 187.011 54.8747 186.179 57.4309C184.34 63.0858 184.253 68.8751 185.955 74.6369C187.077 78.4378 189.529 79.2486 192.583 77.0724C196.987 73.9348 198.936 69.1927 199.885 64.1422C200.81 59.2257 200.849 54.1266 201.284 48.6613Z" fill="#985142"/>
<path d="M390.62 85.7994C398.321 84.9111 405.82 83.8998 413.346 83.232C415.8 83.0143 418.334 83.6342 420.814 84.0041C421.399 84.0915 421.912 84.7162 422.458 85.0937C421.869 85.4777 421.302 86.1465 420.686 86.2014C414.71 86.7344 408.707 86.9917 402.748 87.6758C397.502 88.2781 392.315 89.4282 387.077 90.1372C383.859 90.5729 380.594 90.6341 377.28 90.3722C381.183 87.1024 385.861 86.6383 390.62 85.7994Z" fill="#985142"/>
<path d="M286.645 13.4615C284.426 13.8883 282.207 14.3151 279.988 14.742C279.838 14.5263 279.688 14.3106 279.537 14.0949C280.061 13.5 280.479 12.6073 281.125 12.3552C289.648 9.02768 298.405 6.89353 307.571 7.1238C308.437 7.14556 309.813 6.81739 309.257 8.70651C308.169 9.07158 307.381 9.61519 306.598 9.60765C300.59 9.5498 294.867 11.3784 289.029 12.4213C288.484 12.5186 288.003 13.0042 287.509 13.3267C287.526 13.3438 287.496 13.3087 287.387 13.2736C287.068 13.3128 286.857 13.3872 286.645 13.4615Z" fill="#985142"/>
</svg>
