<svg width="1440" height="403" viewBox="0 0 1440 403" fill="none" xmlns="http://www.w3.org/2000/svg">
<path fill-rule="evenodd" clip-rule="evenodd" d="M0.254272 160.805C0.254272 348.734 0 403 0 403H720H1440V258.654H1439.96C1439.95 251.758 1439.93 244.85 1439.92 237.926C1439.86 235.083 1439.82 232.313 1439.78 229.585C1439.74 225.689 1439.71 221.881 1439.69 218.073C1439.69 217.945 1439.89 217.817 1440 217.689C1440 212.117 1440 206.545 1439.99 200.947C1439.98 192.664 1439.96 184.32 1439.9 175.828C1439.71 174.666 1439.53 173.924 1439.53 173.181L1439.51 169.933C1439.47 163.614 1439.44 157.293 1439.48 150.974C1439.51 148.302 1439.82 145.631 1440 142.959L1440 140.815L1439.99 139.475C1439.98 137.876 1439.95 136.22 1439.89 134.425C1439.66 133.356 1439.43 132.707 1439.43 132.057C1439.43 118.674 1439.43 105.291 1439.41 91.9003C1439.39 78.9749 1439.34 66.0414 1439.25 53.0924C1438.41 53.1674 1437.57 53.2383 1436.74 53.3091L1436.67 53.3148C1430.34 53.8502 1424.14 54.3733 1418.26 56.6442C1417.92 56.7762 1417.56 56.8634 1417.2 56.9497L1417.19 56.9546C1415.97 57.2488 1414.83 57.525 1414.77 59.4325C1414.68 61.7139 1414.5 63.9922 1414.32 66.2704C1414.12 68.8093 1413.91 71.3475 1413.85 73.8889C1413.72 79.2748 1413.82 84.6664 1413.93 90.177V90.2283L1413.98 92.6589C1414.01 94.4458 1414 96.1634 1413.98 97.8924C1413.97 98.9908 1413.95 100.094 1413.94 101.223C1413.99 101.606 1414.04 101.822 1414.24 102.156C1415.24 106.112 1415.05 109.921 1414.07 113.887C1412.89 113.13 1411.56 112.239 1411.53 111.302C1411.37 107.227 1411.6 103.139 1411.73 98.8621C1411.75 98.2762 1411.73 97.8835 1411.61 97.3245C1411.5 94.8442 1410.43 93.7076 1407.9 93.71C1405.14 93.7133 1402.38 93.6546 1399.62 93.5959C1397.25 93.5454 1394.88 93.4949 1392.51 93.4835C1388.39 93.4639 1387.65 94.1736 1387.08 98.1923C1386.96 99.0242 1386.78 99.8496 1386.65 100.681C1386.26 103.205 1384.97 104.096 1381.87 104.158C1380.8 104.179 1380.22 103.859 1379.88 103.368C1379.42 102.704 1379.41 101.726 1379.28 100.849C1379.18 100.127 1379.19 99.3159 1379.43 98.6356C1380.15 96.5529 1379.4 96.1186 1377.31 96.3467C1376.77 96.4062 1376.12 96.3793 1375.52 96.2555C1374.89 96.1276 1374.32 95.8953 1373.95 95.5474C1372.64 94.291 1371.66 92.6524 1370.79 91.0472C1368.87 87.5044 1367.48 83.7554 1363.84 81.2018C1361.25 79.3799 1358.53 78.5268 1356.3 80.2738C1355.86 80.6176 1355.39 80.9411 1354.91 81.2654C1352.96 82.5911 1350.99 83.9371 1351.19 86.8387C1351.2 86.9829 1351.14 87.1296 1351.05 87.2787C1350.97 87.4376 1350.86 87.5997 1350.8 87.7643C1350.57 88.4317 1350.33 89.0965 1350.09 89.7614C1348.8 93.3507 1347.51 96.9342 1347.97 100.911C1348.03 101.439 1348.06 101.971 1348.08 102.505C1348.09 102.897 1348.09 103.291 1348.09 103.685C1348.07 104.778 1348 105.874 1347.95 106.962C1347.82 109.553 1346.69 110.523 1343.97 110.573C1343.26 110.586 1342.56 110.605 1341.85 110.625C1340.21 110.671 1338.57 110.718 1336.93 110.674C1334.87 110.621 1332.82 110.489 1330.7 110.356L1330.6 110.348C1329.75 110.296 1328.9 110.243 1328.03 110.192C1327.63 110.201 1327.4 110.224 1327.13 110.348C1326.75 110.374 1326.42 110.298 1325.94 110.19C1325.7 110.155 1325.6 110.151 1325.32 110.099L1325.04 109.587C1324.59 108.756 1324.15 107.954 1324.14 107.142C1324.05 103.17 1324.11 99.1945 1324.07 95.2207C1324.06 94.1679 1324.04 93.1152 1324.02 92.0625C1324.01 91.7317 1323.92 91.3422 1323.78 90.9649C1323.54 90.3188 1323.13 89.7093 1322.67 89.4901C1320.98 88.6826 1320.5 87.4971 1320.43 85.8764C1320.35 84.1759 1320.25 82.4762 1320.15 80.7765C1320.06 79.2186 1319.97 77.6606 1319.9 76.1019C1319.81 74.227 1318.92 73.3886 1316.92 73.5149C1316.53 73.5393 1316.13 73.444 1315.69 73.3144L1315.37 73.2175C1315.05 73.1181 1314.71 73.0121 1314.34 72.9307C1312.18 72.837 1310.26 72.771 1308.22 72.7767C1308.02 72.8891 1307.93 72.929 1307.72 73.1091C1305.55 73.4073 1303.49 73.655 1301.44 73.7031C1297.68 73.7919 1297.33 74.0787 1297.31 77.8065C1297.3 78.4013 1297.34 79.0075 1297.38 79.6129C1297.47 80.8881 1297.55 82.1609 1297.22 83.326C1296.64 85.3761 1295.78 87.3504 1294.91 89.3239L1294.45 90.3701C1294.26 90.8231 1294.06 91.2762 1293.87 91.7317C1293.85 91.7936 1293.74 91.8368 1293.66 91.8604C1291.54 92.487 1291.55 94.0995 1291.56 95.756V95.9589L1291.57 96.7973C1291.6 104.497 1291.63 112.198 1291.57 119.898C1291.57 120.174 1291.53 120.449 1291.46 120.727C1291.29 121.465 1290.93 122.221 1290.63 123.051C1288.34 124.08 1286.54 124.007 1285.21 121.744C1284.8 121.063 1283.75 120.319 1283 120.323C1279.76 120.342 1279.37 118.069 1279.23 115.927C1279.14 114.433 1279.2 112.931 1279.26 111.429C1279.31 110.001 1279.37 108.572 1279.3 107.151C1279.26 106.441 1279.1 105.609 1278.81 104.883C1278.58 104.293 1278.26 103.773 1277.84 103.448C1276.91 102.726 1276.27 101.971 1275.88 101.074C1275.6 100.428 1275.46 99.7087 1275.43 98.8767C1275.4 98.7602 1275.31 98.537 1275.15 98.427L1275.06 98.2029C1274.85 97.7067 1274.66 97.2487 1274.55 96.8022C1274.5 96.5936 1274.47 96.3875 1274.46 96.1805C1274.35 91.2444 1274.25 86.3074 1274.15 81.3705C1274.07 77.5963 1274 73.8212 1273.92 70.047C1273.9 69.1401 1274.06 67.8185 1273.54 67.4021C1270.79 65.2282 1271.37 62.3071 1271.31 59.5262L1271.27 57.6293C1271.17 52.8154 1271.08 47.999 1271.12 43.1851C1271.13 42.0606 1271.22 40.9362 1271.35 39.8134C1271.46 38.7916 1271.61 37.7707 1271.76 36.7521L1271.9 35.7597C1271.9 35.7092 1271.97 35.666 1272.08 35.6277C1272.16 35.5975 1272.28 35.5707 1272.4 35.5446C1272.57 35.5104 1272.77 35.4786 1272.97 35.446C1273.15 35.4175 1273.33 35.389 1273.5 35.3572C1273.9 35.3254 1274.12 35.2871 1274.43 35.1258C1274.61 35.1225 1274.79 35.1266 1274.96 35.1372C1275.5 35.169 1276 35.2578 1276.52 35.3621C1276.53 35.3751 1276.56 35.3784 1276.58 35.3824C1276.62 35.3865 1276.66 35.3922 1276.71 35.415C1276.92 35.5405 1276.99 35.6497 1277.01 35.8216C1277.01 35.8591 1277.07 35.9096 1277.26 35.895L1277.45 35.8045C1280.14 34.5179 1282.67 33.3087 1285.77 34.3077C1285.83 34.3175 1285.93 34.3069 1286 34.2621C1286.05 34.2254 1286.08 34.1667 1286.06 34.0779C1285.5 29.8311 1285.92 29.141 1289.81 27.4176L1286.63 24.7622C1285.69 23.971 1284.73 23.1782 1283.76 22.3951C1283.45 22.1417 1282.97 22.0676 1282.55 21.9445C1282.05 21.7938 1281.54 21.6512 1281.03 21.5086C1280.12 21.2552 1279.21 21.0026 1278.32 20.7028C1276.06 19.9393 1274.35 18.836 1274.57 16.0363C1274.59 15.7267 1274.44 15.3975 1274.21 15.0651C1273.99 14.7383 1273.69 14.4092 1273.4 14.093L1273.12 13.7834L1272.95 13.5935C1272.65 13.235 1272.27 12.936 1271.89 12.6377C1271.69 12.4772 1271.49 12.3167 1271.3 12.1472C1271.31 12.1448 1271.31 12.1399 1271.31 12.1342C1271.3 12.1179 1271.27 12.0943 1271.17 12.0943C1271.05 12.0715 1270.96 12.0389 1270.9 11.9965C1270.79 11.9289 1270.74 11.8352 1270.71 11.7121C1270.71 11.6934 1270.67 11.6763 1270.51 11.6152C1270.28 11.5092 1270.04 11.3699 1269.82 11.2395C1269.4 10.991 1269.03 10.7735 1268.81 10.8704C1268.02 11.2061 1267.24 11.5467 1266.46 11.9126C1265.37 12.4308 1264.3 12.9987 1263.32 13.6709C1262.92 13.9431 1262.77 14.5314 1262.62 15.1392C1262.52 15.5344 1262.42 15.9377 1262.24 16.2686C1262.15 16.4527 1262.05 16.6434 1261.96 16.8365C1261.52 17.7067 1261.07 18.6209 1260.34 19.1041C1259.1 19.9287 1257.54 20.4412 1256.04 20.737C1253.71 21.1957 1251.92 22.1507 1250.97 24.3621C1250.95 24.3808 1250.93 24.4411 1250.9 24.6188C1250.29 24.9031 1249.68 25.1549 1249.07 25.3879C1248.23 25.7057 1247.39 25.9885 1246.51 26.2704C1246.39 26.2671 1246.17 26.3405 1246.14 26.4659L1246.14 26.4969C1246.08 26.6786 1246.05 26.7585 1246.18 26.9214C1247.39 27.425 1248.59 27.6474 1249.45 28.2976C1250.39 29.0179 1251.77 30.2499 1251.64 31.0476C1251.46 32.0767 1251.59 32.7221 1251.93 33.1393C1252.44 33.7699 1253.42 33.8783 1254.52 33.9997L1254.6 34.0095C1257.87 34.3713 1258.5 35.1437 1258.65 38.4144C1258.72 39.9201 1258.83 41.4365 1259.1 42.917C1259.63 45.8129 1259.15 46.5413 1256.14 46.9251C1252.61 47.3765 1251.89 48.1571 1251.82 51.6314C1251.75 55.2468 1251.65 58.8613 1251.64 62.4766C1251.62 70.7144 1251.63 78.9529 1251.65 87.1907C1251.66 89.7142 1251.68 92.2376 1251.71 94.7611C1251.74 98.8824 1251.78 103.004 1251.75 107.124C1251.74 108.936 1248.03 111.422 1246.08 110.98C1243.61 110.421 1243.65 108.49 1243.76 106.554C1243.79 106.096 1243.78 105.637 1243.77 105.178L1243.76 104.716L1243.76 104.633C1243.75 104.189 1243.73 103.745 1243.74 103.303C1243.79 101.322 1242.94 100.322 1240.77 100.524C1238.5 100.735 1237.73 99.6093 1237.72 97.4981C1237.72 95.479 1237.61 93.4599 1237.51 91.4408C1237.44 90.102 1237.37 88.7633 1237.33 87.4245C1237.29 85.9245 1236.56 85.3427 1235.05 85.3623C1233.81 85.3786 1232.57 85.3916 1231.33 85.4022L1229.09 85.4217C1225.25 85.4543 1221.41 85.4869 1217.58 85.5888C1217.08 85.6026 1216.19 86.5674 1216.18 87.0929C1216.17 91.0309 1216.17 94.9697 1216.22 98.9077C1216.26 101.263 1216.31 103.617 1216.39 105.971C1216.45 107.691 1216.41 109.026 1214.75 110.084C1214.18 110.448 1213.84 111.532 1213.83 112.292C1213.75 117.753 1213.77 123.214 1213.76 128.676V129.163C1213.76 129.474 1213.76 129.786 1213.75 130.096C1213.75 130.296 1213.74 130.496 1213.73 130.694C1213.58 132.774 1212.22 133.731 1210.25 133.675C1208.22 133.618 1207.69 132.282 1208 130.486C1208.08 129.989 1208.06 129.474 1208.04 128.961C1208.03 128.797 1208.03 128.633 1208.02 128.47L1207.03 77.7926C1207 76.5313 1207.22 75.1966 1206.86 74.0323C1206.59 73.1612 1205.66 71.9822 1204.86 71.8543C1201.89 71.376 1201.12 69.4816 1200.81 66.9459C1200.76 66.8766 1200.71 66.822 1200.65 66.7764L1200.59 66.7316C1200.49 66.6672 1200.37 66.6264 1200.19 66.5914C1198.75 65.515 1197.5 64.455 1196.46 63.5758C1194.95 64.6652 1193.5 65.7147 1191.94 66.8399C1191.85 66.9157 1191.73 67.1284 1191.74 67.3084C1191.34 67.8682 1190.94 68.3824 1190.53 68.8778C1190.13 69.365 1189.72 69.8335 1189.31 70.3086C1189.29 70.3192 1189.28 70.3395 1189.28 70.3721L1189.26 70.4341L1189.22 70.5881C1188.92 70.9759 1188.68 71.3719 1188.42 71.3931C1185.68 71.6058 1185.41 73.3381 1185.49 75.4835C1185.54 77.0797 1185.56 78.6783 1185.56 80.2778C1185.55 81.6157 1185.53 82.9537 1185.51 84.2908C1185.43 88.2117 1185.81 90.1452 1185.02 91.1751C1184.24 92.2042 1182.28 92.3297 1177.54 92.6336L1177.43 92.641C1176.78 92.6825 1175.71 93.5691 1175.65 94.1435C1175.43 96.2017 1175.52 98.2958 1175.57 100.374C1175.66 104.503 1175.26 104.994 1171.09 105.541C1170.93 105.563 1170.76 105.592 1170.59 105.62L1170.38 105.656C1170.1 105.701 1169.83 105.739 1169.55 105.742C1167.41 105.757 1165.77 105.106 1165.52 102.745C1165.35 101.098 1164.86 99.7918 1162.72 99.8953C1162.46 99.9075 1162.2 99.681 1161.93 99.4373C1161.79 99.3086 1161.64 99.1758 1161.5 99.0699C1161.49 99.0438 1161.44 99.0544 1161.27 98.9566C1161.08 98.0179 1160.96 97.1037 1160.85 96.2066L1160.84 96.1846C1160.75 95.4268 1160.65 94.6805 1160.51 93.9406C1160.43 93.4778 1160.26 92.8406 1160.05 92.3591C1159.89 91.9842 1159.7 91.7031 1159.49 91.6714C1157.71 91.3959 1157.11 90.3326 1156.36 89.0134L1156.26 88.8415C1155.75 87.9362 1154.28 87.3056 1153.13 87.0856C1152.66 86.9951 1151.98 88.4162 1151.25 88.9654C1150.24 89.7256 1149.13 90.7857 1147.99 90.8753C1145.62 91.0611 1144.78 92.0282 1144.82 94.2119C1144.89 98.6649 1144.82 103.12 1144.87 107.574C1144.87 108.307 1144.92 109.04 1144.98 109.773L1144.99 109.959C1145.08 111.176 1145.17 112.39 1145.08 113.593C1145.03 114.243 1143.85 115.393 1143.28 115.338C1140.48 115.059 1137.7 114.644 1134.84 114.219C1133.76 114.058 1132.68 113.896 1131.57 113.739C1131.15 113.754 1130.91 113.78 1130.53 113.917C1129.31 114.33 1128.19 114.663 1127.01 115.015L1126.36 115.208C1126.16 115.305 1126.08 115.351 1125.95 115.572C1125.63 117.959 1125.16 120.169 1125.12 122.384C1125.09 124.518 1124.54 125.682 1122.07 125.775C1120.58 125.83 1119.08 126.317 1117.63 126.788L1117.33 126.883C1115.23 127.561 1113.14 128.252 1111.06 128.987C1109.83 129.424 1108.59 129.877 1107.37 130.351C1107.13 130.447 1106.9 130.615 1106.69 130.824C1106.28 131.233 1105.95 131.799 1105.68 132.289C1104.38 134.62 1102.7 136.384 1099.81 136.766C1095.16 137.382 1090.53 138.278 1085.86 138.596L1085.45 138.624C1082.57 138.826 1079.53 139.04 1077.13 136.523C1075.75 135.076 1072.21 135.628 1070.8 137.125C1068.43 139.651 1062.71 139.59 1060.24 137.205C1059.83 136.816 1059.36 136.501 1058.86 136.207C1058.64 136.081 1058.43 135.959 1058.21 135.837C1057.52 135.453 1056.83 135.069 1056.27 134.559C1056.01 134.328 1055.75 134.069 1055.51 133.794C1055.32 133.59 1055.15 133.377 1054.99 133.156C1054.56 132.574 1054.24 131.946 1054.15 131.33C1053.91 129.688 1053.81 128.027 1053.71 126.364C1053.62 124.777 1053.52 123.19 1053.3 121.619C1053.21 120.967 1051.8 120.029 1050.97 120.006C1049.86 119.976 1048.75 119.969 1047.64 119.972C1046.67 119.976 1045.7 119.987 1044.73 119.998C1041.86 120.033 1038.99 120.067 1036.14 119.887C1033.41 119.715 1032.63 120.861 1032.57 122.959C1032.48 126.062 1032.41 129.188 1032.69 132.273C1033.04 136.117 1032.56 136.858 1028.71 136.871C1025.14 136.881 1021.53 137.204 1018.02 136.788C1013.87 136.297 1011.9 138.614 1010.54 141.545C1009.43 143.947 1007.72 143.701 1006.01 143.458C1005.49 143.383 1004.98 143.309 1004.48 143.309C1002.4 143.309 1001.46 142.016 1001.22 140.069C1000.9 137.566 997.853 134.993 995.361 135.043C995.142 135.047 994.854 135.09 994.617 135.171C994.421 135.238 994.261 135.331 994.204 135.448C993.875 136.141 993.339 136.714 992.801 137.289C991.855 138.299 990.906 139.313 991.061 140.994C991.205 142.571 990.209 143.479 988.297 143.61C986.954 143.702 985.631 144.036 984.305 144.371C983.669 144.532 983.032 144.692 982.394 144.826L981.993 144.914C981.72 144.977 981.444 145.041 981.17 145.082C980.903 145.123 980.637 145.143 980.377 145.124L977.214 144.893H977.2C973.151 144.602 969.099 144.309 965.071 143.832C961.828 143.448 958.772 142.362 956.585 139.558C956.394 139.45 956.312 139.419 956.047 139.367C949.318 135.288 943.965 129.936 938.701 124.49C938.588 124.372 938.542 124.191 938.497 124.008L938.471 123.903L938.434 123.781C938.439 123.768 938.413 123.775 938.189 123.772C934.072 123.079 932.17 125.783 930.685 128.326C928.632 131.84 925.434 133.331 921.763 134.413C921.758 134.412 921.755 134.413 921.752 134.421L921.742 134.444C921.732 134.471 921.716 134.518 921.677 134.597C920.711 134.808 919.666 135.182 918.958 134.861C916.217 133.618 913.463 132.361 910.85 130.892C910.341 130.606 909.839 130.311 909.343 130.008C908.011 129.194 907.088 127.592 906.278 126.188C905.039 124.037 903.88 122.105 901.184 121.168C899.987 120.752 898.974 119.844 897.938 118.913C897.482 118.505 897.022 118.092 896.539 117.715C896.496 117.666 896.4 117.617 896.285 117.591C896.224 117.577 896.155 117.569 896.087 117.573L895.762 117.473C895.365 117.353 894.999 117.241 894.657 117.114C894.338 116.996 894.041 116.864 893.766 116.7C892.957 116.219 892.172 115.684 891.388 115.149C889.816 114.08 888.248 113.013 886.506 112.389C883.357 111.261 881.377 109.186 880 106.587C878.406 103.58 875.786 102.668 872.722 101.954C871.348 101.634 870.125 100.614 868.902 99.813C868.513 99.5579 868.149 99.2092 867.787 98.8645L867.525 98.6168C867.002 98.1296 866.478 97.7002 865.898 97.6276C863.008 97.2659 860.905 95.6786 858.809 94.0962C858.297 93.71 857.787 93.3246 857.265 92.9563C856.918 92.7127 856.568 92.4764 856.209 92.2539C854.896 91.4399 853.612 90.5811 852.335 89.7125C850.371 88.3779 848.426 87.0196 846.412 85.7599C845.879 85.4274 844.617 85.588 844.059 85.9929C842.564 87.0758 841.14 88.2508 839.716 89.4257C839.044 89.9798 838.371 90.5339 837.691 91.079C837.354 91.3495 837.01 91.6616 836.665 91.9924C836.387 92.2605 836.106 92.5408 835.824 92.8211C834.405 94.238 832.98 95.6623 831.722 95.5368C827.431 95.1099 824.498 96.9473 821.376 98.9036L821.299 98.9525C821.315 98.9623 821.31 98.9484 821.297 98.9705C821.289 98.9867 821.276 99.0218 821.268 99.0984C821.201 99.263 821.14 99.4227 821.081 99.5783L821.057 99.6419C820.848 100.198 820.664 100.686 820.341 101.064C817.655 104.2 814.943 107.317 812.185 110.397C808.626 114.374 804.916 118.233 801.46 122.294C798.846 125.368 796.537 128.683 794.073 131.877C793.898 132.103 793.721 132.33 793.538 132.552C793.417 132.7 793.293 132.845 793.165 132.988C792.918 133.267 792.657 133.533 792.378 133.777C789.815 136.009 787.045 138.041 784.66 140.435C780.895 144.215 774.777 143.907 771.592 139.494C771.289 139.366 771.113 139.305 770.724 139.278C770.001 139.253 769.444 139.298 768.982 139.115C767.291 138.442 765.603 137.76 763.916 137.078C760.593 135.734 757.27 134.39 753.915 133.125C753.105 132.819 751.474 132.932 751.108 133.444C749.799 135.269 748.081 135.485 746.129 135.354L746.137 135.364C746.135 135.368 746.093 135.353 746.048 135.478C740.083 139.88 734.134 144.068 728.284 148.381C722.394 152.723 715.737 155.107 708.261 156.066C707.765 156.213 707.279 156.35 706.803 156.485C705.989 156.715 705.202 156.939 704.437 157.186C703.872 157.368 703.318 157.564 702.777 157.786C700.782 158.603 698.793 159.434 696.807 160.274C695.193 160.956 693.581 161.642 691.971 162.328L691.08 162.331H691.06C689.006 162.334 687.94 162.336 687.371 161.802C686.759 161.228 686.721 160.033 686.644 157.549C685.806 156.916 684.442 156.433 684.322 155.696C683.898 153.058 682.397 153.006 680.669 152.944L680.361 152.933C679.527 152.899 678.791 153.145 678.096 153.505C677.618 153.753 677.16 154.053 676.701 154.354C675.726 154.995 674.749 155.635 673.589 155.76C673.197 155.803 672.816 157.07 672.607 157.831C672.555 158.02 672.516 158.213 672.487 158.409L672.448 158.693C672.414 158.983 672.393 159.277 672.372 159.571C672.356 159.801 672.34 160.03 672.317 160.257C672.087 162.564 671.982 162.712 669.824 162.783C668.605 162.822 667.384 162.813 666.154 162.803C665.605 162.799 665.053 162.794 664.497 162.794C664.426 162.589 664.359 162.359 664.296 162.119L664.148 161.546C663.912 160.616 663.684 159.714 663.343 159.656C661.691 159.376 661.346 158.118 660.976 156.771C660.842 156.28 660.704 155.777 660.498 155.306H638.564C638.512 154.757 638.457 154.248 638.402 153.767L638.386 153.618C638.267 152.574 638.162 151.658 638.151 150.74C638.099 146.762 638.146 142.782 638.12 138.803C638.115 138.213 638.05 137.624 637.971 136.902C637.929 136.525 637.883 136.112 637.84 135.644H628.714C628.236 135.644 627.758 135.641 627.28 135.637L625.958 135.626C623.855 135.605 621.749 135.584 619.649 135.672C619.145 135.693 618.64 135.69 618.133 135.675C617.707 135.663 617.281 135.644 616.853 135.623C614.812 135.528 612.759 135.433 610.743 136.185L610.254 153.164C605.977 151.957 603.8 154.633 601.749 157.976L594.142 157.232C593.988 156.874 593.894 156.469 593.802 156.069L593.797 156.042C593.562 155.01 593.337 154.022 592.122 153.988C589.039 153.901 585.954 153.964 582.81 153.964C582.709 154.845 582.685 155.295 582.602 155.732C582.549 156.016 582.468 156.293 582.385 156.577L582.38 156.592L582.265 156.998C575.296 158.004 568.59 156.763 561.931 155.53C559.532 155.085 557.137 154.642 554.74 154.305C554.625 154.011 554.532 153.692 554.445 153.394C554.275 152.808 554.129 152.307 553.891 152.245C551.823 151.697 551.564 149.833 551.325 148.089L551.305 147.95C551.141 147.876 551 147.801 550.874 147.733C550.639 147.607 550.456 147.507 550.268 147.497C547.71 147.349 545.069 147.625 543.193 144.946C542.872 144.489 542.032 144.237 541.463 144.294C539.838 144.458 538.369 143.878 536.886 143.294C535.491 142.745 534.087 142.191 532.535 142.248C529.934 142.346 529.217 140.739 529.273 137.627C529.296 136.362 529.221 135.096 529.145 133.796V133.781C529.11 133.184 529.074 132.581 529.046 131.967C521.391 127.61 513.592 128.651 505.464 130.655V102.641L498.861 102.072L498.525 97.4321L490.209 97.9039L489.678 102.415C489.459 102.456 489.278 102.496 489.117 102.53C488.912 102.573 488.74 102.605 488.568 102.618C485.134 102.856 484.946 103.218 485.437 106.964C485.589 108.12 485.55 109.308 485.509 110.514C485.492 111.067 485.474 111.624 485.474 112.183L479.731 112.977C479.731 114.191 479.756 114.997 479.726 115.8C479.633 118.268 478.911 119.256 476.735 119.163C475.272 119.101 473.817 118.84 472.278 118.563C471.577 118.437 470.859 118.308 470.115 118.194C470.115 117.028 470.11 115.875 470.105 114.734L470.101 114.088C470.094 112.716 470.089 111.359 470.094 110.009C470.099 108.895 470.112 107.785 470.136 106.676L470.141 106.547C470.196 103.971 470.198 103.933 467.91 103.808C466.836 103.749 465.762 103.685 464.683 103.619L458.232 103.212C457.888 98.1744 458.081 93.2219 458.092 88.2817C458.099 85.3639 458.041 82.4509 457.77 79.5274H453.684C450.795 77.0772 449.992 74.1081 450.292 70.4569C450.539 67.4404 450.361 64.3767 450.326 61.3342C450.321 60.9122 450.259 60.4909 450.183 60.0305L450.084 59.4463C450.05 59.2475 450.016 59.0397 449.985 58.8197L449.227 58.9085C441.758 59.7828 434.475 60.6351 427.319 64.2065C427.262 64.5593 427.161 65.0123 427.064 65.5216C426.952 66.1147 426.845 66.7829 426.816 67.4551L426.714 69.805C426.536 74.0119 426.356 78.2204 426.152 82.4151C425.768 90.322 425.886 98.2599 426.005 106.199C426.055 109.499 426.105 112.799 426.118 116.097C426.128 118.746 426.126 121.395 426.123 124.044L426.12 127.784L425.431 127.919C425.391 127.829 425.345 127.739 425.297 127.649C425.256 127.573 425.212 127.497 425.169 127.421C424.968 127.067 424.767 126.712 424.752 126.348C424.558 121.569 424.566 116.776 424.237 112.011C424.192 111.365 424.231 110.691 424.269 110.011C424.378 108.071 424.491 106.091 422.672 104.633C422.437 104.444 422.434 103.843 422.431 103.317C422.431 103.196 422.431 103.079 422.427 102.971C422.393 101.802 422.424 100.631 422.413 99.4602C422.379 95.8465 422.231 95.6379 419.092 95.6273C412.433 95.6028 405.776 95.6142 399.119 95.6248L397.52 95.6273C397.123 95.6281 396.726 95.6713 396.209 95.7275C395.931 95.7585 395.616 95.7927 395.249 95.8261L394.379 108.022H388.984C388.964 106.133 388.954 105.236 388.527 104.65C388.14 104.12 387.411 103.843 386.022 103.317C386.247 101.438 385.419 99.9719 384.583 98.4938C384.141 97.7116 383.697 96.9261 383.406 96.0738C383.2 95.4716 383.072 94.8369 383.073 94.1468C383.075 93.9789 382.855 93.8054 382.643 93.6391C382.563 93.5764 382.485 93.5153 382.421 93.455C382.009 93.0728 381.581 92.707 381.155 92.3403C380.368 91.6616 379.585 90.9771 378.918 90.1729C376.507 87.2681 373.16 87.0644 370.769 90.0931C369.552 91.6339 368.394 92.9522 366.137 92.7713C366.137 93.191 366.143 93.5902 366.15 93.9748C366.156 94.3879 366.163 94.7839 366.161 95.171C366.158 95.6012 366.145 96.02 366.111 96.4364C366.096 96.6181 366.071 96.8332 366.032 97.0499C365.936 97.5861 365.768 98.1328 365.531 98.2143C363.929 98.7659 364.344 100.161 364.266 101.375C364.245 101.699 364.258 102.055 364.271 102.411C364.298 103.202 364.326 103.992 363.992 104.446C362.945 105.865 362.981 107.401 363.017 108.942C363.026 109.336 363.034 109.73 363.026 110.123C362.921 114.766 362.869 119.409 362.79 124.409C361.996 124.409 361.233 124.433 360.489 124.455L360.416 124.458C358.751 124.51 357.199 124.559 355.679 124.34C355.11 124.257 354.566 124.319 354.031 124.444C353.623 124.538 353.22 124.67 352.815 124.802C351.614 125.194 350.401 125.591 348.99 125.046C347.608 124.512 346.023 124.643 344.424 124.773C343.711 124.832 342.997 124.89 342.296 124.89C342.111 117.664 341.848 110.785 341.795 103.904C341.764 100.113 341.923 100.111 338.759 99.3852L337.929 81.5742C337.518 81.5742 337.132 81.5709 336.764 81.5677C336.011 81.5611 335.332 81.5555 334.653 81.5799C330.603 81.7233 326.555 81.9066 322.504 82.0346C321.649 82.0614 320.793 82.0525 319.938 82.0443L319.215 82.0378L318.671 82.0362C318.177 82.0362 317.683 82.0419 317.19 82.0606C315.149 82.1372 314.882 82.6359 314.959 84.7707C315.016 86.2903 315.053 87.8116 315.081 89.3328C315.104 90.573 315.12 91.8139 315.134 93.0549C315.147 94.2559 315.16 95.4578 315.177 96.6588C315.178 96.7281 315.159 96.7973 315.128 96.8699C315.097 96.9399 315.055 97.0133 315.011 97.0907L315.003 97.1029C314.961 97.1795 314.919 97.2585 314.878 97.3457L312.152 98.2387C312.152 99.3876 312.223 100.44 312.124 101.47C312.063 102.122 311.868 103.185 311.523 103.307C309.563 103.993 309.607 105.61 309.65 107.233C309.657 107.445 309.662 107.656 309.663 107.865C309.725 117.34 309.804 126.816 309.861 136.291C309.863 136.487 309.861 136.683 309.856 136.88L309.845 137.268C309.83 137.725 309.806 138.181 309.782 138.64C309.762 138.989 309.743 139.34 309.728 139.692C309.19 139.732 308.759 139.777 308.375 139.807C308.204 139.821 308.04 139.833 307.881 139.838C307.761 139.843 307.643 139.846 307.525 139.845C307.4 139.844 307.275 139.839 307.152 139.831C306.686 139.802 306.229 139.732 305.83 139.694C305.693 139.397 305.618 139.074 305.568 138.748C305.542 138.574 305.521 138.399 305.5 138.227C305.385 137.259 305.279 136.365 304.093 136.132C303.565 136.029 303.04 135.912 302.504 135.786L301.663 135.586C301.25 135.487 300.827 135.386 300.391 135.286C300.255 132.966 300.267 130.641 300.278 128.319C300.299 124.241 300.319 120.169 299.541 116.139L297.192 115.922C294.886 112.488 295.351 108.716 295.261 105.031C295.142 100.133 294.907 95.2394 294.741 90.3424C294.507 83.4442 294.671 76.5892 295.735 69.7472C296.494 64.8713 297.026 59.9515 297.576 55.0357C297.712 53.8217 297.85 52.6084 297.99 51.396C298.501 47.0335 298.953 42.6628 299.418 38.4266L307.515 36.6772C307.373 35.9821 307.389 35.7051 307.274 35.5454C305.189 32.6447 305.506 31.6742 308.808 30.8016C309.594 30.5938 310.37 30.3461 311.146 30.0984C311.501 29.9851 311.855 29.8719 312.212 29.7627L312.175 29.0163C311.705 28.7996 311.233 28.5861 310.763 28.3726C309.527 27.8104 308.291 27.2482 307.071 26.6436C306.535 26.3779 305.667 25.8972 305.665 25.5094C305.654 23.5269 304.497 23.0861 303.339 22.6445C303.055 22.5369 302.771 22.4285 302.504 22.2982C301.918 22.0122 301.326 21.7368 300.735 21.4614L299.951 21.0939C298.979 20.636 298.013 20.1642 297.075 19.6297C296.221 19.1424 295.551 18.2526 294.741 17.4916L296.813 14.3342L290.499 10.1395C289.363 7.63398 289.54 4.19792 289.718 0.712961L289.754 0C289.475 0 289.198 0 288.753 0.322666C288.667 1.40148 288.67 2.46725 288.672 3.51999C288.675 4.66888 288.678 5.80147 288.566 6.91939C288.412 8.44798 288.042 9.94724 287.158 11.4188C285.043 10.6423 283.769 11.9802 282.475 13.3393C282.073 13.7597 281.67 14.1826 281.239 14.5452L282.593 18.0823L271.832 22.9842L272.244 25.6609L265.402 29.1923C266.293 29.9053 267.396 30.1122 268.459 30.3119C270.267 30.6516 271.964 30.9694 272.32 33.7161L269.644 35.789C272.085 36.9876 274.024 37.6655 276.075 37.8937C277.512 38.0534 278.332 38.6588 278.467 40.4465C278.638 42.6995 278.896 44.9451 279.165 47.2885C279.281 48.2964 279.4 49.3223 279.513 50.375C279.094 50.4565 278.684 50.5404 278.279 50.6243L278.216 50.6366C277.286 50.8272 276.391 51.0106 275.492 51.1344C273.734 51.3772 272.472 52.5717 272.21 54.5648C272.074 55.5971 272.145 56.6662 272.145 57.7181L272.142 123.102L266.936 125.876C265.874 123.57 266.029 121.238 266.181 118.963C266.313 117.017 266.441 115.113 265.799 113.301L260.448 113.013C260.185 110.552 260.231 108.133 260.276 105.752C260.339 102.424 260.401 99.1709 259.618 95.9809C256.056 95.3258 240.997 95.4879 238.377 96.3296L238.374 98.1393L238.376 99.465L238.379 99.9368C238.397 101.773 238.418 103.61 238.439 105.447C238.495 110.391 238.552 115.336 238.549 120.28C238.547 121.322 238.314 122.866 237.7 123.294C236.555 124.093 236.508 125.063 236.504 126.235C236.501 128.407 236.501 130.58 236.503 132.753V150.248L232.522 151.747C232.472 150.869 232.415 150.052 232.362 149.275C232.253 147.728 232.158 146.341 232.14 144.953C232.038 137.523 231.947 130.092 231.855 122.662L231.782 116.564C231.689 108.98 231.594 101.397 231.484 93.8135C231.435 90.4027 231.284 86.9935 231.132 83.5843C231.087 82.5666 231.041 81.5489 230.999 80.5312C230.996 80.4579 230.98 80.3854 230.954 80.3129C230.907 80.1809 230.831 80.0505 230.755 79.9193L230.656 79.7449L230.597 79.6292L227.207 79.287C226.904 78.746 226.643 78.2449 226.398 77.7796L226.345 77.6794C225.826 76.6902 225.392 75.8607 224.848 75.1364C224.682 74.9164 224.514 74.6996 224.344 74.4845L224.01 74.0616C222.717 72.4336 221.434 70.8154 221.029 68.5282C220.995 68.3359 220.527 68.2406 220.357 68.1501L213.586 79.3555L209.598 79.7572V103.178L207.018 103.404C205.335 103.554 203.751 103.694 202.163 103.806C199.984 103.958 199.945 104.042 199.976 106.445C200.011 109.147 200.003 111.849 199.995 114.637V114.683C199.992 115.9 199.989 117.133 199.989 118.387C198.994 118.309 198.037 118.512 197.097 118.711C195.459 119.057 193.878 119.391 192.256 118.211L191.952 113.016L187.477 112.117C187.477 111.505 187.462 110.91 187.448 110.329C187.418 109.082 187.389 107.896 187.508 106.729C187.857 103.289 187.71 102.987 184.659 102.58C184.374 102.543 184.11 102.323 183.752 102.147L183.294 97.8436L177.328 97.4647L176.82 102.16L171.478 102.622V130.719C164.904 128.596 158.783 127.711 152.803 131.893L152.75 132.573C152.716 132.959 152.679 133.343 152.641 133.726V133.741C152.51 135.098 152.379 136.447 152.448 137.782C152.606 140.794 151.867 141.855 149.187 142.454C146.736 143.002 144.335 143.854 141.929 144.638C141.454 144.792 140.91 145.133 140.651 145.574C139.732 147.145 138.461 147.506 136.897 147.386C136.22 147.334 135.522 147.654 134.629 147.849C135.128 149.743 134.245 150.768 133.365 151.79C132.709 152.55 132.056 153.309 131.977 154.422C129.725 154.748 127.507 155.249 125.304 155.747C120.121 156.918 115.013 158.073 109.707 156.89L109.052 153.901C108.579 153.901 108.116 153.898 107.659 153.895H107.64C106.601 153.886 105.602 153.878 104.602 153.914C104.365 153.922 104.118 153.918 103.866 153.914L103.379 153.909C102.708 153.911 102.058 153.968 101.59 154.316C101.106 154.674 100.866 155.448 100.621 156.239L100.612 156.271C100.505 156.614 100.398 156.959 100.267 157.274L93.71 157.965C92.6715 154.233 90.465 152.526 87.228 152.68L86.486 135.882H65.4214C65.1039 138.626 65.1427 141.359 65.1816 144.084C65.2334 147.828 65.2869 151.556 64.4137 155.272C62.9524 155.298 61.5007 155.307 60.0573 155.309C58.0515 155.312 56.0636 155.301 54.0952 155.298C51.7332 155.295 49.4001 155.303 47.0996 155.361C46.9457 155.87 46.8372 156.385 46.7383 156.856C46.6719 157.168 46.6104 157.462 46.5424 157.719C46.4127 158.209 46.2604 158.57 46.0126 158.696C44.9368 159.245 44.6484 160.21 44.339 161.246C44.1721 161.808 43.9971 162.391 43.6877 162.939C42.5504 162.585 41.3191 162.843 40.1073 162.854C39.2373 162.862 38.3754 162.744 37.5637 162.183C37.23 161.331 37.2235 160.358 37.217 159.401C37.2057 157.635 37.1943 155.921 35.1302 155.112C34.5649 154.89 34.027 154.524 33.4827 154.154C32.0359 153.172 30.5519 152.164 28.4117 153.771C28.9431 155.804 27.6422 156.799 26.0383 157.349L25.818 162.346C25.3092 162.346 24.8362 162.353 24.3857 162.36C23.472 162.374 22.6555 162.387 21.8439 162.334C17.3983 162.044 12.9559 161.705 8.51196 161.388L0.254272 160.805ZM296.087 48.8603C295.68 52.7811 295.312 56.7069 294.857 60.6205C294.402 64.543 294.387 68.5616 292.946 72.379C292.639 71.8616 292.432 71.3426 292.307 70.8227C292.205 70.4023 292.156 69.9818 292.155 69.5614C292.129 60.9594 292.137 52.3566 292.145 43.7538V42.6318C292.145 42.2945 292.173 41.9572 292.2 41.6198L292.229 41.2287L292.249 40.8906C292.273 40.2835 292.39 39.7963 292.596 39.4231C292.983 38.7215 293.686 38.4258 294.676 38.5032C295.068 38.5333 295.458 38.5806 295.962 38.6409L296.832 38.7419C296.583 42.0435 296.349 45.1317 296.087 48.8603ZM285.287 44.4863L285.289 44.9215C285.297 46.296 285.295 47.6698 285.221 49.0387C285.192 49.5659 284.654 50.3929 284.259 50.4663C284.064 50.5029 283.763 50.3807 283.497 50.1974C283.207 49.9986 282.956 49.7264 282.922 49.5048C282.515 46.8102 282.19 44.1001 281.864 41.3803L281.561 38.8845C282.907 38.8535 283.648 38.8364 284.121 39.186C284.699 39.6121 284.881 40.5842 285.282 42.7443C285.281 43.3244 285.284 43.9054 285.287 44.4863ZM1263.99 45.7037L1263.62 45.6515C1263.05 45.5733 1262.48 45.4951 1262.44 45.3126C1261.76 42.0949 1261.25 38.8438 1260.69 35.5544C1264.05 35.459 1264.77 35.6831 1264.82 37.2394C1264.91 39.9861 1264.71 42.7435 1264.37 45.7705C1264.25 45.746 1264.13 45.724 1263.99 45.7037Z" fill="#BC6654"/>
</svg>
