<svg width="1440" height="197" viewBox="0 0 1440 197" fill="none" xmlns="http://www.w3.org/2000/svg">
<path d="M1440 196.999H0.00390625L0.0334533 117.767C6.36548 117.231 15.8899 116.394 21.7708 114.122C21.842 114.095 21.9143 114.069 21.9866 114.046L22.1946 113.981C22.3284 113.942 22.4631 113.908 22.6018 113.874L22.8469 113.812C24.0598 113.518 25.2004 113.242 25.2668 111.334C25.3469 109.1 25.5247 106.869 25.7024 104.637V104.625L25.7141 104.496C25.9172 101.957 26.1204 99.4189 26.1829 96.8779C26.3157 91.5088 26.2102 86.1338 26.1028 80.6406V80.5381L26.0559 78.1084C26.0266 76.3223 26.0305 74.6035 26.0501 72.874L26.0911 69.7676L26.0969 69.5439C26.0618 69.2773 26.0247 69.0918 25.9377 68.8916C25.8997 68.8037 25.8518 68.7129 25.7903 68.6113C24.7883 64.6553 24.9797 60.8457 25.9622 56.8789C27.1438 57.6367 28.4739 58.5283 28.5071 59.4648C28.5754 61.3311 28.5657 63.2002 28.5227 65.0879C28.4915 66.3945 28.4456 67.71 28.3987 69.041C28.3655 69.9873 28.3323 70.9414 28.304 71.9053C28.2913 72.29 28.2961 72.5918 28.3342 72.9121C28.3538 73.0791 28.3821 73.251 28.4211 73.4434C28.4475 74.0234 28.5256 74.5303 28.6633 74.9658C28.7512 75.2451 28.8635 75.4951 29.0012 75.7158C29.5696 76.627 30.5735 77.0576 32.1321 77.0566C33.5383 77.0547 34.9446 77.0693 36.3508 77.0918C37.7034 77.1143 39.0559 77.1426 40.4094 77.1709L40.7317 77.1768C42.9934 77.2246 45.2551 77.2725 47.5188 77.2832C51.6418 77.3027 52.3801 76.5928 52.9543 72.5752C53.0051 72.2227 53.0657 71.8721 53.1282 71.5205L53.1887 71.1865C53.2551 70.8213 53.3215 70.4541 53.3801 70.0859C53.7727 67.5615 55.0618 66.6699 58.1594 66.6104C59.2278 66.5879 59.8157 66.9082 60.1555 67.3994C60.3 67.6074 60.4006 67.8477 60.4739 68.1055C60.5305 68.3047 60.5705 68.5146 60.6028 68.7285C60.6233 68.8643 60.6399 69.001 60.6555 69.1387C60.6858 69.4004 60.7121 69.6641 60.7492 69.918C60.8528 70.6396 60.8391 71.4502 60.6028 72.1309C59.8801 74.2139 60.636 74.6494 62.7219 74.4199C63.2629 74.3613 63.9114 74.3877 64.5149 74.5107C65.1379 74.6387 65.7141 74.8711 66.0794 75.2188C67.3879 76.4756 68.3723 78.1152 69.2434 79.7197C71.1672 83.2617 72.5559 87.0107 76.1887 89.5654C78.7844 91.3867 81.5051 92.2412 83.7356 90.4932C84.1751 90.1504 84.6477 89.8252 85.1243 89.501C87.0676 88.1758 89.0422 86.8291 88.843 83.9277C88.8332 83.7832 88.8977 83.6367 88.9797 83.4893L89.0481 83.3672C89.1184 83.2471 89.1887 83.125 89.2317 83.002C89.3762 82.5791 89.5256 82.1562 89.677 81.7344L89.9407 81.0049C91.2356 77.416 92.5286 73.832 92.0657 69.8574C92.0051 69.3271 91.97 68.7949 91.9543 68.2617C91.9426 67.8691 91.9407 67.4756 91.9465 67.082C91.9582 66.2021 92.0032 65.3213 92.05 64.4434L92.0833 63.8047C92.2161 61.2129 93.345 60.2441 96.0637 60.1953C96.7707 60.1807 97.4778 60.1611 98.1829 60.1416L98.9084 60.1211L100.019 60.0938C101.048 60.0742 102.077 60.0654 103.103 60.0918C104.591 60.1309 106.081 60.2109 107.593 60.3018L109.335 60.4111L109.437 60.418L109.56 60.4268L110.093 60.459C110.723 60.499 111.357 60.5391 111.997 60.5752C112.402 60.5664 112.632 60.543 112.906 60.418C113.281 60.3926 113.615 60.4688 114.093 60.5771C114.333 60.6133 114.431 60.6162 114.716 60.667L114.99 61.1787C115.445 62.0107 115.88 62.8135 115.896 63.624C115.947 65.9941 115.947 68.3662 115.948 70.7373C115.948 71.6748 115.948 72.6133 115.951 73.5508C115.953 74.2158 115.957 74.8809 115.964 75.5459C115.974 76.5986 115.989 77.6523 116.017 78.7041C116.027 79.0352 116.113 79.4248 116.255 79.8018C116.359 80.0801 116.493 80.3506 116.65 80.5869C116.857 80.9004 117.101 81.1523 117.364 81.2773C119.058 82.084 119.531 83.2695 119.607 84.8906C119.683 86.5908 119.781 88.29 119.88 89.9912C119.97 91.5479 120.06 93.1074 120.132 94.665C120.177 95.6201 120.429 96.3057 120.931 96.7334C121.215 96.9736 121.579 97.1328 122.03 97.21C122.346 97.2637 122.706 97.2773 123.113 97.252C123.265 97.2422 123.417 97.25 123.572 97.2725C123.822 97.3057 124.074 97.3721 124.343 97.4521L124.661 97.5488C124.98 97.6494 125.32 97.7549 125.689 97.8359C127.849 97.9297 129.773 97.9961 131.814 97.9912L131.863 97.9629C131.978 97.8984 132.055 97.8574 132.154 97.7842C132.199 97.75 132.249 97.71 132.31 97.6582C133.403 97.5088 134.464 97.3721 135.509 97.2666C136.547 97.1621 137.57 97.0879 138.593 97.0645C142.355 96.9746 142.699 96.6885 142.726 92.96L142.724 92.5879L142.71 92.1885C142.698 91.9092 142.68 91.6299 142.661 91.3506L142.65 91.1543C142.6 90.4189 142.551 89.6836 142.582 88.9697C142.605 88.4463 142.67 87.9346 142.81 87.4414C143.392 85.3906 144.257 83.416 145.124 81.4434L145.581 80.3975C145.777 79.9443 145.972 79.4912 146.158 79.0352C146.166 79.0166 146.182 79 146.201 78.9854C146.248 78.9492 146.322 78.9229 146.376 78.9072C148.226 78.3586 148.45 77.0549 148.47 75.6279V74.8076L148.464 73.9697C148.449 69.998 148.435 66.0264 148.431 62.0537C148.43 60.2051 148.431 58.3564 148.435 56.5078C148.44 54.6279 148.448 52.748 148.46 50.8682C148.462 50.5928 148.503 50.3184 148.57 50.04C148.687 49.5479 148.886 49.0479 149.095 48.5234L149.167 48.3408C149.247 48.1367 149.329 47.9287 149.406 47.7158C151.697 46.6865 153.493 46.7598 154.827 49.0234C155.23 49.7031 156.281 50.4482 157.029 50.4443C160.273 50.4248 160.665 52.6982 160.802 54.8398C160.896 56.333 160.837 57.835 160.777 59.3379C160.76 59.751 160.743 60.166 160.73 60.5791C160.72 60.8857 160.711 61.1924 160.706 61.498C160.695 62.2051 160.698 62.9111 160.736 63.6162C160.759 64.0283 160.82 64.4824 160.923 64.9316C160.972 65.1387 161.03 65.3457 161.096 65.5469C161.133 65.6611 161.174 65.7734 161.218 65.8838C161.454 66.4736 161.777 66.9932 162.195 67.3193C163.122 68.041 163.767 68.7959 164.152 69.6934C164.273 69.9746 164.37 70.2715 164.443 70.584C164.487 70.7754 164.522 70.9727 164.547 71.1777C164.576 71.4062 164.593 71.6426 164.599 71.8896C164.63 72.0068 164.722 72.2305 164.88 72.3398L164.974 72.5645C165.185 73.0596 165.378 73.5176 165.486 73.9648C165.536 74.1729 165.568 74.3789 165.572 74.5859C165.687 79.5234 165.786 84.459 165.884 89.3975C165.958 93.1699 166.034 96.9463 166.115 100.72C166.12 100.912 166.116 101.123 166.113 101.34C166.108 101.599 166.103 101.866 166.113 102.12C166.132 102.659 166.216 103.142 166.497 103.365C168.803 105.191 168.764 107.547 168.725 109.903C168.718 110.351 168.711 110.798 168.72 111.241L168.759 113.138C168.808 115.514 168.857 117.891 168.888 120.268C168.921 122.706 168.937 125.144 168.913 127.581C168.904 128.706 168.814 129.83 168.687 130.953C168.644 131.326 168.599 131.698 168.55 132.07C168.464 132.719 168.37 133.368 168.277 134.015L168.134 135.007C168.128 135.058 168.062 135.101 167.954 135.139L167.843 135.173C167.78 135.19 167.707 135.207 167.63 135.222C167.469 135.254 167.282 135.284 167.091 135.315L167.062 135.321L166.939 135.341L166.717 135.378L166.536 135.41C166.136 135.442 165.909 135.48 165.599 135.641C165.417 135.645 165.24 135.64 165.068 135.63C164.531 135.598 164.029 135.509 163.513 135.405L163.497 135.395L163.448 135.384C163.413 135.38 163.372 135.374 163.323 135.352C163.115 135.227 163.044 135.118 163.019 134.946C163.023 134.908 162.966 134.858 162.777 134.872L162.587 134.962C159.896 136.249 157.359 137.458 154.261 136.459C154.226 136.453 154.177 136.454 154.132 136.465L154.072 136.484L154.033 136.505C153.982 136.541 153.948 136.6 153.974 136.689C154.534 140.936 154.113 141.626 150.224 143.349L153.4 146.005C153.914 146.435 154.432 146.865 154.952 147.294C155.391 147.654 155.831 148.014 156.273 148.371C156.513 148.568 156.855 148.657 157.189 148.744L157.29 148.771C157.355 148.786 157.418 148.804 157.48 148.823C157.958 148.965 158.443 149.1 158.925 149.235L159.007 149.258C159.463 149.386 159.917 149.513 160.369 149.646L160.636 149.724C160.995 149.831 161.355 149.944 161.71 150.064C163.974 150.828 165.683 151.931 165.466 154.731C165.443 155.04 165.591 155.37 165.822 155.702C166.046 156.029 166.347 156.358 166.636 156.674L166.917 156.984L167.081 157.173C167.24 157.361 167.417 157.532 167.607 157.695L167.864 157.909L168.138 158.129C168.343 158.289 168.544 158.451 168.734 158.62C168.728 158.622 168.724 158.627 168.726 158.633C168.73 158.649 168.767 158.672 168.863 158.672C168.982 158.696 169.072 158.728 169.138 158.771C169.245 158.838 169.296 158.932 169.322 159.055C169.322 159.064 169.331 159.073 169.357 159.085C169.386 159.1 169.435 159.12 169.521 159.152C169.638 159.204 169.754 159.265 169.868 159.328C169.985 159.394 170.1 159.462 170.212 159.528C170.632 159.776 171.001 159.994 171.226 159.897C172.009 159.561 172.796 159.22 173.57 158.855C174.349 158.485 175.116 158.09 175.849 157.65C176.144 157.474 176.434 157.289 176.716 157.096C176.929 156.95 177.071 156.715 177.179 156.435C177.274 156.189 177.344 155.911 177.415 155.627C177.513 155.233 177.615 154.829 177.788 154.498C177.886 154.314 177.982 154.123 178.077 153.93C178.358 153.365 178.647 152.783 179.013 152.312C179.212 152.056 179.435 151.832 179.691 151.662C180.933 150.838 182.493 150.326 183.99 150.03C186.32 149.572 188.109 148.617 189.058 146.405C189.085 146.386 189.105 146.326 189.134 146.148C189.747 145.864 190.353 145.612 190.966 145.379C191.499 145.175 192.036 144.986 192.585 144.803C192.893 144.699 193.205 144.598 193.523 144.496C193.586 144.498 193.681 144.477 193.759 144.437C193.823 144.403 193.875 144.357 193.888 144.301L193.898 144.27L193.909 144.23C193.924 144.185 193.937 144.146 193.943 144.109C193.956 144.022 193.937 143.952 193.855 143.845C193.447 143.677 193.04 143.54 192.65 143.408L192.623 143.399C191.857 143.139 191.147 142.897 190.587 142.469C190.015 142.031 189.278 141.404 188.819 140.801C188.523 140.411 188.342 140.031 188.396 139.719C188.572 138.69 188.439 138.045 188.103 137.627C187.593 136.997 186.614 136.889 185.513 136.767L185.429 136.757C182.167 136.396 181.534 135.623 181.386 132.353C181.318 130.847 181.206 129.33 180.933 127.85C180.611 126.1 180.66 125.141 181.414 124.571C181.907 124.199 182.701 123.993 183.89 123.842C185.48 123.639 186.501 123.37 187.15 122.818C187.941 122.143 188.175 121.046 188.21 119.135L188.279 115.726C188.33 113.247 188.383 110.769 188.39 108.29C188.411 100.052 188.404 91.8145 188.38 83.5762L188.363 80.5117C188.353 79.0098 188.339 77.5078 188.324 76.0059C188.29 71.8838 188.255 67.7627 188.281 63.6426C188.292 61.8301 192.001 59.3438 193.952 59.7871C196.419 60.3457 196.388 62.2773 196.273 64.2129C196.247 64.6709 196.249 65.1289 196.259 65.5889L196.273 66.0508L196.275 66.1338V66.2275C196.282 66.5049 196.291 66.7822 196.292 67.0596C196.293 67.1943 196.292 67.3291 196.288 67.4639C196.24 69.4453 197.095 70.4453 199.261 70.2422C201.531 70.0322 202.302 71.1582 202.31 73.2686C202.313 74.002 202.328 74.7354 202.352 75.4688C202.393 76.7549 202.458 78.04 202.523 79.3262C202.591 80.665 202.659 82.0029 202.699 83.3418C202.747 84.8418 203.47 85.4238 204.984 85.4053L206.536 85.3857L210.945 85.3447C213.38 85.3252 215.817 85.3037 218.252 85.2656C219.654 85.2432 221.054 85.2148 222.454 85.1777C222.954 85.1641 223.847 84.2002 223.849 83.6738C223.865 79.7363 223.863 75.7969 223.808 71.8604C223.775 69.5039 223.722 67.1504 223.644 64.7949C223.611 63.7812 223.609 62.9014 223.954 62.1328C224.195 61.5977 224.603 61.1162 225.286 60.6816C225.857 60.3193 226.189 59.2363 226.197 58.4746C226.267 54.2852 226.271 50.0947 226.275 45.9062L226.277 41.6055C226.275 41.293 226.275 40.9814 226.279 40.6699C226.284 40.4707 226.292 40.2725 226.306 40.0732C226.372 39.1445 226.681 38.4395 227.176 37.9482C227.79 37.3398 228.693 37.0605 229.779 37.0918C231.81 37.1494 232.337 38.4863 232.033 40.2822C231.95 40.7754 231.972 41.2832 231.993 41.791V41.8057L232.009 42.2969L233.005 92.9736C233.013 93.3477 232.999 93.7275 232.986 94.1084C232.952 95.0107 232.919 95.915 233.173 96.7354C233.441 97.6064 234.374 98.7842 235.169 98.9121C238.142 99.3906 238.917 101.285 239.218 103.821C239.273 103.89 239.322 103.945 239.378 103.99L239.441 104.035C239.538 104.1 239.663 104.141 239.847 104.175C240.476 104.647 241.07 105.116 241.625 105.568C242.336 106.146 242.986 106.697 243.568 107.191L245.832 105.559L248.089 103.927C248.125 103.897 248.165 103.849 248.199 103.789C248.256 103.693 248.299 103.569 248.294 103.458C248.693 102.899 249.095 102.384 249.501 101.889C249.904 101.402 250.31 100.933 250.726 100.458C250.74 100.448 250.749 100.427 250.757 100.395L250.771 100.333L250.812 100.179L250.959 99.9844L251.097 99.8008C251.275 99.5684 251.439 99.3877 251.615 99.373C252.099 99.3359 252.505 99.252 252.846 99.126C253.156 99.0117 253.413 98.8633 253.624 98.6855C254.497 97.9502 254.597 96.707 254.544 95.2832C254.519 94.5918 254.503 93.9014 254.49 93.208C254.478 92.3018 254.474 91.3965 254.476 90.4902C254.478 89.8965 254.484 89.3027 254.49 88.71C254.499 87.9648 254.513 87.2197 254.527 86.4756C254.548 85.375 254.531 84.4316 254.518 83.6201L254.515 83.4541C254.478 81.4756 254.458 80.3135 255.009 79.5918C255.796 78.5635 257.749 78.4365 262.495 78.1328L262.598 78.126C263.253 78.084 264.318 77.1982 264.382 76.623C264.577 74.8057 264.53 72.959 264.485 71.1201L264.468 70.3926C264.372 66.2637 264.775 65.7734 268.938 65.2256L269.091 65.2041L269.443 65.1475L269.652 65.1113L269.945 65.0674C270.126 65.043 270.305 65.0273 270.484 65.0264C272.624 65.0098 274.257 65.6602 274.51 68.0225C274.684 69.6689 275.169 70.9746 277.317 70.8711C277.411 70.8672 277.507 70.8965 277.604 70.9463C277.703 70.9961 277.802 71.0674 277.9 71.1494C277.969 71.2061 278.037 71.2666 278.106 71.3291L278.141 71.3594C278.27 71.4775 278.4 71.5986 278.529 71.6973C278.533 71.707 278.545 71.7109 278.565 71.7188L278.574 71.7217L278.628 71.7432C278.661 71.7568 278.705 71.7773 278.76 71.8096C278.946 72.7197 279.06 73.6064 279.173 74.4775L279.184 74.5596L279.188 74.582C279.286 75.3398 279.384 76.0859 279.52 76.8262C279.606 77.2891 279.77 77.9258 279.981 78.4082C280.145 78.7832 280.337 79.0645 280.538 79.0957C281.199 79.1992 281.699 79.4102 282.104 79.7031C282.788 80.1982 283.202 80.9248 283.673 81.7529L283.768 81.9248C284.283 82.8301 285.755 83.4609 286.904 83.6807C287.173 83.7334 287.507 83.2949 287.88 82.8066C288.163 82.4365 288.468 82.0381 288.781 81.8008C288.969 81.6611 289.159 81.5107 289.352 81.3574C289.6 81.1602 289.854 80.96 290.113 80.7734C290.738 80.3193 291.387 79.9443 292.046 79.8916C294.408 79.7051 295.251 78.7393 295.216 76.5547C295.141 72.1016 295.218 67.6475 295.167 63.1934C295.158 62.4766 295.109 61.7598 295.06 61.043L295.057 60.9932L295.042 60.8076L294.992 60.0869L294.969 59.7305C294.938 59.2158 294.916 58.7031 294.917 58.1914C294.918 57.8516 294.928 57.5127 294.954 57.1738C295.001 56.5244 296.188 55.374 296.749 55.4287C299.548 55.708 302.333 56.1221 305.188 56.5479L306.852 56.7939L308.46 57.0283C308.885 57.0127 309.128 56.9883 309.503 56.8496C310.717 56.4365 311.841 56.1035 313.024 55.752L313.673 55.5586C313.878 55.4619 313.956 55.415 314.079 55.1953C314.179 54.4658 314.293 53.7529 314.403 53.0518L314.438 52.8311C314.675 51.3164 314.887 49.8506 314.908 48.3828C314.941 46.248 315.488 45.085 317.962 44.9922C319.456 44.9365 320.958 44.4502 322.404 43.9785L322.702 43.8828C323.99 43.4668 325.277 43.0459 326.559 42.6133C327.363 42.3398 328.167 42.0645 328.967 41.7812C330.206 41.3428 331.438 40.8896 332.658 40.415C332.902 40.3213 333.13 40.1533 333.339 39.9434C333.747 39.5332 334.085 38.9678 334.355 38.4775C335.654 36.1475 337.335 34.3828 340.219 34C344.874 33.3848 349.503 32.4893 354.176 32.1709L354.587 32.1426C357.462 31.9414 360.503 31.7266 362.902 34.2441C364.283 35.6914 367.824 35.1387 369.23 33.6416C371.604 31.1172 377.32 31.1768 379.796 33.5615C380.197 33.9502 380.674 34.2656 381.173 34.5596L381.615 34.8096L381.827 34.9297L381.841 34.9385C382.522 35.3203 383.203 35.7021 383.762 36.208C384.018 36.4404 384.277 36.6982 384.523 36.9727C384.708 37.1768 384.883 37.3896 385.044 37.6113C385.467 38.1934 385.79 38.8213 385.882 39.4365C385.995 40.207 386.077 40.9834 386.141 41.7598C386.216 42.6387 386.268 43.5215 386.32 44.4033C386.415 45.9902 386.51 47.5762 386.729 49.1484C386.82 49.7998 388.232 50.7383 389.059 50.7598C389.443 50.7705 389.831 50.7793 390.217 50.7842C390.943 50.7939 391.671 50.7969 392.397 50.7939C393.365 50.791 394.335 50.7803 395.303 50.7686C398.173 50.7354 401.04 50.7002 403.893 50.8799C406.618 51.0518 407.402 49.9062 407.462 47.8076C407.508 46.1055 407.553 44.3945 407.538 42.6895C407.525 41.2861 407.471 39.8857 407.344 38.4932C406.995 34.6504 407.473 33.9082 411.318 33.8965C412.387 33.8926 413.46 33.8623 414.531 33.8311L415.536 33.8027C417.71 33.7461 419.88 33.7266 422.014 33.9805C426.158 34.4697 428.137 32.1533 429.495 29.2217C430.081 27.9551 430.834 27.4248 431.665 27.2422C432.408 27.0791 433.215 27.1943 434.019 27.3086C434.343 27.3555 434.668 27.4023 434.986 27.4307C435.175 27.4473 435.364 27.457 435.549 27.457C437.635 27.458 438.57 28.75 438.814 30.6992C439.13 33.2012 442.18 35.7744 444.671 35.7236C444.889 35.7197 445.178 35.6768 445.415 35.5957C445.609 35.5303 445.771 35.4355 445.829 35.3193C446.047 34.8584 446.356 34.4512 446.697 34.0605C446.869 33.8633 447.049 33.6709 447.23 33.4775C448.176 32.4678 449.126 31.4531 448.971 29.7734C448.827 28.1963 449.822 27.2881 451.734 27.1572C452.4 27.1113 453.06 27.0068 453.718 26.8721C454.389 26.7344 455.057 26.5654 455.726 26.3965L455.792 26.3809C456.406 26.2256 457.021 26.0713 457.639 25.9424L458.04 25.8525C458.184 25.8193 458.33 25.7861 458.475 25.7559C458.604 25.7285 458.733 25.7041 458.861 25.6846C459.008 25.6621 459.152 25.6475 459.298 25.6396C459.419 25.6338 459.538 25.6338 459.654 25.6426L462.818 25.873C466.881 26.165 470.932 26.457 474.962 26.9346C478.204 27.3193 481.26 28.4062 483.445 31.209C483.637 31.3174 483.721 31.3477 483.984 31.4004C490.715 35.4785 496.066 40.8311 501.331 46.2773C501.443 46.3945 501.49 46.5752 501.536 46.7588L501.56 46.8643L501.598 46.9873C501.596 46.9922 501.599 46.9932 501.624 46.9932L501.842 46.9951C505.96 47.6885 507.861 44.9854 509.348 42.4414C511.4 38.9268 514.598 37.4355 518.27 36.3535L518.29 36.3232C518.3 36.2959 518.317 36.248 518.356 36.1689C518.526 36.1318 518.697 36.0908 518.869 36.0488L518.915 36.0371C519.208 35.9648 519.501 35.8926 519.784 35.8438C520.264 35.7598 520.712 35.7432 521.073 35.9062C521.839 36.2529 522.607 36.6016 523.372 36.9551C524.225 37.3496 525.075 37.751 525.917 38.165C527.022 38.709 528.114 39.2754 529.182 39.875C529.69 40.1611 530.194 40.4551 530.688 40.7578C532.02 41.5732 532.944 43.1738 533.755 44.5791C534.994 46.7305 536.153 48.6611 538.848 49.5986C540.044 50.0137 541.053 50.9189 542.088 51.8477L542.094 51.8535C542.55 52.2617 543.01 52.6738 543.493 53.0518C543.537 53.1006 543.632 53.1504 543.747 53.1748C543.809 53.1904 543.878 53.1982 543.944 53.1953L544.27 53.293L544.311 53.3047L544.396 53.3311C544.743 53.4375 545.071 53.5391 545.376 53.6533C545.694 53.7715 545.991 53.9043 546.266 54.0674C546.626 54.2812 546.979 54.5039 547.331 54.7354C547.744 55.0059 548.156 55.2861 548.566 55.5645L548.645 55.6172L548.727 55.6729C549.259 56.0352 549.789 56.3965 550.33 56.7402C551.354 57.3906 552.405 57.9766 553.526 58.3779C556.676 59.5059 558.655 61.5811 560.032 64.1797C561.626 67.1865 564.247 68.0986 567.309 68.8135C568.391 69.0654 569.38 69.75 570.348 70.4209C570.61 70.6025 570.871 70.7832 571.13 70.9541C571.518 71.209 571.884 71.5576 572.246 71.9033L572.507 72.1504C572.649 72.2822 572.792 72.4092 572.934 72.5273C573.319 72.8428 573.71 73.0859 574.134 73.1387C577.024 73.501 579.128 75.0879 581.223 76.6699C581.735 77.0566 582.246 77.4434 582.768 77.8105C582.941 77.9316 583.115 78.0518 583.289 78.1689C583.465 78.2861 583.643 78.4014 583.823 78.5127C585.136 79.3262 586.421 80.1855 587.698 81.0537L588.852 81.8408C590.427 82.918 592.001 83.9941 593.621 85.0068C593.905 85.1846 594.397 85.2207 594.88 85.1562C595.3 85.0977 595.714 84.9619 595.973 84.7744C596.384 84.4766 596.789 84.1729 597.188 83.8662C598.241 83.0547 599.266 82.209 600.293 81.3613L600.317 81.3408L600.434 81.2471L600.531 81.165C601.131 80.6699 601.733 80.1748 602.341 79.6885C602.678 79.417 603.022 79.1064 603.368 78.7754L603.803 78.3486L604.208 77.9463L604.214 77.9404C605.632 76.5254 607.055 75.1055 608.309 75.2305C612.602 75.6572 615.534 73.8203 618.655 71.8643L618.733 71.8154L618.723 71.8105L618.735 71.7959C618.744 71.7812 618.757 71.7451 618.764 71.668C618.831 71.5039 618.893 71.3438 618.95 71.1895L618.975 71.125C619.184 70.5703 619.369 70.0801 619.69 69.7031C620.616 68.623 621.544 67.5459 622.475 66.4717C624.251 64.4258 626.039 62.3896 627.846 60.3701C628.509 59.6309 629.176 58.8955 629.846 58.1621C630.505 57.4404 631.167 56.7197 631.83 56C634.11 53.5176 636.391 51.0352 638.571 48.4717C639.632 47.2256 640.641 45.9414 641.632 44.6387C642.46 43.5518 643.275 42.4531 644.093 41.3584C644.71 40.5312 645.331 39.7061 645.96 38.8887C646.133 38.6631 646.311 38.4365 646.496 38.2148C646.616 38.0684 646.739 37.9209 646.866 37.7793C647.114 37.5 647.376 37.2344 647.655 36.9912C648.563 36.2002 649.497 35.4346 650.43 34.6689C652.132 33.2725 653.832 31.8779 655.372 30.332C659.137 26.5518 665.255 26.8604 668.44 31.2734C668.744 31.4014 668.919 31.4619 669.309 31.4902L669.77 31.499C670.277 31.5049 670.693 31.5098 671.05 31.6533C672.741 32.3252 674.43 33.0068 676.116 33.6904C677.479 34.2412 678.842 34.791 680.208 35.3369C682.171 36.1211 684.139 36.8945 686.118 37.6416C686.597 37.8232 687.367 37.8574 687.99 37.749C688.417 37.6738 688.776 37.5322 688.925 37.3242C690.233 35.498 691.953 35.2832 693.895 35.4033C693.896 35.4014 693.906 35.4033 693.919 35.3936C693.936 35.3818 693.959 35.3545 693.985 35.2881C695.862 33.9043 697.736 32.541 699.605 31.1885L703.104 28.6641C706.003 26.5742 708.888 24.4941 711.749 22.3857C717.637 18.0439 724.296 15.6592 731.772 14.7002L732.578 14.4668L733.229 14.2832L733.355 14.248C734.124 14.0273 734.87 13.8154 735.594 13.5811L735.922 13.4736L736.284 13.3486C736.478 13.2812 736.671 13.2109 736.864 13.1377L737.257 12.9814C738.163 12.6104 739.068 12.2363 739.971 11.8594C741.056 11.4072 742.141 10.9512 743.225 10.4932C744.839 9.81055 746.452 9.125 748.061 8.43945L748.952 8.43555H748.971C751.026 8.43262 752.092 8.43066 752.661 8.96387C753.274 9.53906 753.311 10.7354 753.389 13.2178C754.225 13.8506 755.59 14.334 755.71 15.0713C756.135 17.709 757.635 17.7607 759.364 17.8242L759.67 17.834C760.506 17.8682 761.241 17.6221 761.936 17.2617C762.405 17.0186 762.856 16.7246 763.307 16.4297L763.331 16.4121L763.343 16.4062C764.315 15.7695 765.287 15.1318 766.444 15.0059C766.65 14.9834 766.853 14.623 767.029 14.1748C767.188 13.7715 767.326 13.2969 767.424 12.9355C767.477 12.7471 767.516 12.5537 767.545 12.3584L767.585 12.0742L767.604 11.8779C767.62 11.7109 767.634 11.542 767.647 11.373L767.661 11.1963C767.676 10.9658 767.692 10.7373 767.715 10.5098C767.829 9.37109 767.913 8.75781 768.227 8.4209C768.549 8.0752 769.116 8.01953 770.208 7.98535C771.426 7.94531 772.649 7.9541 773.878 7.96387L774.915 7.9707L775.536 7.97266C775.584 8.11523 775.631 8.26953 775.677 8.43164L775.737 8.64844L775.883 9.21973L775.889 9.2373C776.122 10.1631 776.35 11.0527 776.688 11.1113C778.34 11.3906 778.686 12.6494 779.055 13.9961C779.124 14.2432 779.192 14.4932 779.27 14.7422C779.346 14.9863 779.432 15.2275 779.534 15.4609H801.467C801.52 16.0088 801.575 16.5186 801.629 16.999L801.647 17.1494L801.659 17.2344L801.679 17.418C801.78 18.3525 801.871 19.1885 801.881 20.0283C801.905 21.8105 801.909 23.5947 801.907 25.3789C801.905 27.5742 801.897 29.7686 801.913 31.9639C801.917 32.5527 801.981 33.1426 802.061 33.8662C802.104 34.2422 802.149 34.6553 802.192 35.123H811.319L812.753 35.1299L814.075 35.1406C816.176 35.1611 818.284 35.1826 820.383 35.0947C820.588 35.0859 820.794 35.0811 820.999 35.0791C821.297 35.0771 821.598 35.082 821.899 35.0908C822.325 35.1035 822.753 35.123 823.178 35.1436C824.323 35.1973 825.471 35.25 826.614 35.1553C827.51 35.0791 828.403 34.9121 829.29 34.5811L829.778 17.6025C834.055 18.8096 836.233 16.1338 838.284 12.791L845.889 13.5342C846.037 13.874 846.127 14.2559 846.216 14.6328L846.225 14.6738L846.231 14.6982L846.235 14.7246C846.469 15.7568 846.696 16.7441 847.911 16.7793C850.081 16.8398 852.25 16.8271 854.444 16.8154C855.366 16.8086 856.292 16.8027 857.223 16.8027C857.258 16.498 857.284 16.2451 857.305 16.0273C857.346 15.6123 857.377 15.3213 857.43 15.0342L857.469 14.8535L857.504 14.7041C857.542 14.5469 857.588 14.3906 857.635 14.2314L857.647 14.1904L857.651 14.1748L857.766 13.7686C864.737 12.7617 871.442 14.0039 878.1 15.2373L880.313 15.6436C881.973 15.9453 883.631 16.2285 885.291 16.4609C885.356 16.627 885.414 16.8008 885.469 16.9736L885.586 17.3721L885.592 17.3896C885.762 17.9688 885.905 18.46 886.141 18.5234C888.209 19.0703 888.467 20.9336 888.707 22.6777L888.727 22.8174L888.92 22.9082L889.159 23.0332C889.393 23.1602 889.576 23.2598 889.764 23.2695C890.084 23.2881 890.405 23.2998 890.725 23.3115C892.971 23.3945 895.198 23.4766 896.838 25.8213C897.076 26.1602 897.602 26.3867 898.088 26.457C898.258 26.4814 898.422 26.4873 898.569 26.4727C899.073 26.4219 899.563 26.4424 900.043 26.5127C900.418 26.5684 900.785 26.6543 901.151 26.7588C901.823 26.9521 902.483 27.2119 903.145 27.4727L903.162 27.4785C904.553 28.0264 905.951 28.5762 907.496 28.5186C910.098 28.4199 910.815 30.0293 910.758 33.1396C910.744 33.9609 910.772 34.7832 910.813 35.6143C910.834 36.0635 910.86 36.5146 910.887 36.9863L910.922 37.5977C910.946 37.9941 910.967 38.3945 910.985 38.7998C918.641 43.1572 926.44 42.1172 934.567 40.1123V68.125L941.17 68.6963L941.506 73.335L949.823 72.8633L950.354 68.3516L950.658 68.291L950.914 68.2383C951.119 68.1953 951.291 68.1611 951.463 68.1504C954.899 67.9102 955.086 67.5488 954.596 63.8027C954.444 62.6475 954.483 61.459 954.522 60.2529C954.539 59.7002 954.559 59.1426 954.559 58.583L960.301 57.7891L960.297 56.6904V56.6143C960.291 55.9932 960.285 55.4795 960.307 54.9668C960.399 52.498 961.121 51.5107 963.297 51.6035C964.76 51.665 966.215 51.9268 967.754 52.2031L968.91 52.4082C969.24 52.4658 969.576 52.5215 969.916 52.5742C969.916 53.4541 969.92 54.3281 969.924 55.1953L969.926 56.0332L969.932 56.6787C969.938 58.0498 969.942 59.4082 969.938 60.7578C969.932 61.8721 969.92 62.9824 969.895 64.0908L969.891 64.2188C969.836 66.7959 969.834 66.833 972.121 66.959L974.055 67.0703L975.348 67.1484L981.799 67.5547C981.967 70.0186 982.008 72.4619 982.004 74.8926C982.002 76.1855 981.987 77.4756 981.971 78.7637L981.949 80.8896L981.94 82.4863C981.934 85.4033 981.99 88.3164 982.262 91.2402H986.348C989.237 93.6904 990.039 96.6582 989.74 100.31C989.629 101.668 989.604 103.035 989.614 104.407C989.619 105.329 989.641 106.253 989.662 107.177C989.68 107.93 989.698 108.682 989.705 109.433C989.711 109.855 989.772 110.276 989.848 110.737L989.948 111.321L989.959 111.377C989.989 111.559 990.02 111.747 990.047 111.948L990.805 111.859C998.274 110.984 1005.56 110.132 1012.71 106.561C1012.75 106.341 1012.8 106.082 1012.86 105.796L1012.97 105.245C1013.08 104.653 1013.18 103.984 1013.21 103.312L1013.32 100.962V100.918C1013.5 96.7256 1013.68 92.5322 1013.88 88.3516C1014.26 80.4453 1014.14 72.5068 1014.03 64.5693C1013.98 61.2676 1013.93 57.9678 1013.91 54.6699C1013.9 53.0859 1013.91 51.501 1013.91 49.916L1013.91 42.9834L1014.6 42.8477C1014.64 42.9385 1014.68 43.0283 1014.73 43.1172L1014.86 43.3457C1015.06 43.7002 1015.26 44.0547 1015.28 44.418C1015.35 46.1797 1015.39 47.9434 1015.44 49.7061C1015.46 50.665 1015.48 51.624 1015.51 52.582C1015.55 53.9424 1015.6 55.3027 1015.67 56.6602C1015.7 57.3594 1015.74 58.0576 1015.79 58.7559C1015.81 58.9971 1015.81 59.2422 1015.81 59.4902C1015.81 59.9062 1015.79 60.3301 1015.76 60.7559C1015.71 61.6309 1015.66 62.5146 1015.79 63.3555C1015.94 64.376 1016.36 65.333 1017.36 66.1328C1017.59 66.3232 1017.6 66.9238 1017.6 67.4502V67.7959C1017.63 68.54 1017.62 69.2842 1017.62 70.0293C1017.62 70.4551 1017.62 70.8809 1017.62 71.3066C1017.65 74.9199 1017.8 75.1289 1020.94 75.1396C1027.6 75.1641 1034.26 75.1533 1040.91 75.1416L1042.51 75.1396C1042.78 75.1387 1043.04 75.1191 1043.35 75.0889L1043.82 75.0391C1044.1 75.0078 1044.42 74.9736 1044.78 74.9414L1045.65 62.7441H1051.05C1051.07 64.6338 1051.08 65.5312 1051.5 66.1172C1051.65 66.3164 1051.84 66.4785 1052.1 66.6318C1052.53 66.8887 1053.14 67.1211 1054.01 67.4502C1053.89 68.4043 1054.05 69.252 1054.34 70.0488C1054.63 70.8213 1055.04 71.5459 1055.45 72.2734C1055.89 73.0547 1056.33 73.8408 1056.62 74.6934C1056.83 75.2949 1056.96 75.9297 1056.96 76.6201C1056.96 76.7881 1057.18 76.9609 1057.39 77.1279L1057.44 77.1641C1057.5 77.2148 1057.56 77.2627 1057.61 77.3115C1058 77.6738 1058.4 78.0205 1058.81 78.3682L1058.88 78.4268C1059.66 79.1064 1060.45 79.7891 1061.11 80.5938C1063.52 83.498 1066.87 83.7021 1069.26 80.6738C1070.03 79.7051 1070.77 78.8252 1071.77 78.3496C1072.37 78.0684 1073.05 77.9287 1073.89 77.9951V77.5732L1073.88 76.792V76.7539C1073.87 76.3564 1073.87 75.9707 1073.87 75.5957C1073.87 75.165 1073.89 74.7471 1073.92 74.3301L1073.93 74.1992C1073.95 74.0488 1073.97 73.8828 1074 73.7168C1074.1 73.1807 1074.26 72.6338 1074.5 72.5527C1075.79 72.1094 1075.77 71.1211 1075.76 70.1191C1075.76 69.875 1075.76 69.6299 1075.77 69.3916C1075.78 69.252 1075.78 69.1074 1075.78 68.957C1075.78 68.7607 1075.77 68.5576 1075.76 68.3564C1075.75 68.0225 1075.74 67.6885 1075.75 67.3789C1075.77 66.957 1075.85 66.583 1076.04 66.3213C1077.08 64.916 1077.05 63.3945 1077.02 61.8662V61.8252C1077.01 61.5498 1077.01 61.2744 1077.01 60.999C1077.01 60.8799 1077.01 60.7617 1077.01 60.6436C1077.08 57.4219 1077.12 54.2002 1077.17 50.8584L1077.24 46.3584L1077.68 46.3555L1078.25 46.3467C1078.69 46.3379 1079.12 46.3252 1079.54 46.3115L1079.61 46.3086H1079.63C1081.29 46.2568 1082.83 46.209 1084.35 46.4268C1084.65 46.4697 1084.94 46.4736 1085.23 46.4492C1085.49 46.4268 1085.75 46.3818 1086 46.3232C1086.36 46.2402 1086.72 46.125 1087.08 46.0078L1087.19 45.9727L1087.22 45.9639C1088.42 45.5732 1089.63 45.1758 1091.04 45.7207C1091.2 45.7812 1091.36 45.833 1091.52 45.877C1091.67 45.9189 1091.82 45.9541 1091.98 45.9844C1093.12 46.1982 1094.36 46.0957 1095.61 45.9932C1096.32 45.9346 1097.03 45.876 1097.74 45.876C1097.78 47.7988 1097.84 49.6982 1097.89 51.5791L1097.91 52.2852C1098.06 57.2236 1098.2 62.042 1098.24 66.8633V67.3789C1098.26 70.6562 1098.26 70.6904 1101.27 71.3818L1102.1 89.1934L1103.27 89.2002H1103.37C1104.08 89.2051 1104.73 89.21 1105.38 89.1865C1109.43 89.043 1113.48 88.8613 1117.53 88.7334C1118.38 88.7051 1119.24 88.7139 1120.09 88.7227L1120.82 88.7285L1121.36 88.7314C1121.85 88.7314 1122.35 88.7246 1122.84 88.7061C1124.88 88.6289 1125.15 88.1309 1125.07 85.9961C1125.02 84.4766 1124.98 82.9551 1124.95 81.4336L1124.94 80.9092C1124.92 79.8447 1124.91 78.7783 1124.9 77.7119L1124.86 74.1084C1124.85 74.0381 1124.87 73.9697 1124.9 73.8975C1124.93 73.8359 1124.96 73.7734 1125 73.7051L1125.02 73.6758L1125.03 73.6641L1125.04 73.6406C1125.08 73.5723 1125.12 73.499 1125.15 73.4209L1127.88 72.5293L1127.87 72.0137L1127.87 71.5244C1127.85 70.7529 1127.84 70.0195 1127.91 69.2959C1127.93 69.0352 1127.98 68.708 1128.05 68.4033C1128.15 67.9453 1128.3 67.5332 1128.51 67.46C1130.47 66.7744 1130.43 65.1572 1130.38 63.5332C1130.37 63.3232 1130.37 63.1123 1130.37 62.9023L1130.28 50.7168C1130.24 45.3027 1130.2 39.8896 1130.17 34.4766V34.0869L1130.18 33.8867L1130.19 33.498C1130.2 33.1953 1130.21 32.8906 1130.23 32.5859L1130.25 32.126C1130.27 31.7783 1130.29 31.4268 1130.3 31.0752C1130.62 31.0508 1130.89 31.0264 1131.14 31.0029L1131.66 30.959C1131.83 30.9463 1131.99 30.9346 1132.15 30.9287L1132.4 30.9219H1132.51C1132.63 30.9229 1132.76 30.9277 1132.88 30.9355C1133.35 30.9648 1133.8 31.0342 1134.2 31.0732C1134.34 31.3701 1134.41 31.6934 1134.46 32.0186L1134.5 32.2939L1134.53 32.54L1134.55 32.7012C1134.58 32.9336 1134.61 33.1592 1134.66 33.3691C1134.8 33.9834 1135.11 34.4717 1135.94 34.6338C1136.47 34.7383 1136.99 34.8555 1137.53 34.9814L1138.37 35.1807C1138.78 35.2803 1139.2 35.3809 1139.64 35.4814C1139.73 36.9922 1139.76 38.5039 1139.76 40.0166L1139.76 41.5137L1139.75 42.4482C1139.73 46.5264 1139.71 50.5977 1140.49 54.6279L1142.84 54.8447C1144.76 57.7041 1144.76 60.7969 1144.76 63.8799L1144.76 64.8604L1144.77 65.7363C1144.81 67.3418 1144.86 68.9473 1144.92 70.5518C1144.97 72.0723 1145.03 73.5918 1145.09 75.1123C1145.16 76.8818 1145.23 78.6533 1145.29 80.4238C1145.52 87.3232 1145.36 94.1777 1144.3 101.02C1143.6 105.51 1143.09 110.036 1142.58 114.562L1142.45 115.731C1142.32 116.946 1142.18 118.159 1142.04 119.371C1141.71 122.206 1141.4 125.044 1141.1 127.846C1140.94 129.356 1140.77 130.856 1140.61 132.34L1132.52 134.09C1132.57 134.361 1132.6 134.568 1132.63 134.729C1132.67 134.983 1132.69 135.124 1132.76 135.222C1134.84 138.122 1134.53 139.093 1131.22 139.965C1130.46 140.165 1129.72 140.404 1128.97 140.642L1128.88 140.668C1128.53 140.782 1128.18 140.895 1127.82 141.004L1127.86 141.75L1128.7 142.137L1129.06 142.3L1129.27 142.394C1130.5 142.956 1131.74 143.519 1132.96 144.123C1133.12 144.203 1133.31 144.302 1133.5 144.412C1133.94 144.669 1134.36 144.986 1134.37 145.257C1134.38 147.24 1135.53 147.681 1136.69 148.122C1136.98 148.23 1137.26 148.338 1137.53 148.469C1138.11 148.755 1138.7 149.031 1139.3 149.306L1140.08 149.673C1141.05 150.131 1142.02 150.603 1142.96 151.137C1143.54 151.47 1144.04 151.99 1144.55 152.529C1144.79 152.779 1145.03 153.034 1145.29 153.276L1143.22 156.433L1149.53 160.627C1150.67 163.128 1150.49 166.556 1150.31 170.033V170.054L1150.28 170.767C1150.56 170.767 1150.83 170.767 1151.28 170.445C1151.36 169.388 1151.36 168.345 1151.36 167.315V167.189C1151.36 166.059 1151.36 164.947 1151.46 163.848C1151.56 162.943 1151.72 162.05 1152.03 161.165C1152.24 160.555 1152.51 159.949 1152.87 159.348C1154.99 160.124 1156.26 158.786 1157.56 157.428L1157.58 157.402C1157.87 157.096 1158.17 156.789 1158.47 156.506C1158.58 156.408 1158.68 156.312 1158.79 156.222L1157.44 152.685L1168.2 147.783L1167.79 145.106L1174.63 141.575C1173.74 140.862 1172.63 140.655 1171.57 140.455C1169.76 140.116 1168.07 139.797 1167.71 137.051L1170.39 134.978C1168.87 134.233 1167.55 133.689 1166.27 133.33C1165.5 133.11 1164.74 132.959 1163.96 132.873C1162.52 132.713 1161.7 132.108 1161.56 130.321C1161.39 128.1 1161.14 125.886 1160.88 123.581L1160.87 123.479L1160.7 122.072L1160.52 120.392C1160.94 120.311 1161.35 120.227 1161.75 120.143L1161.83 120.127L1161.99 120.095C1162.87 119.917 1163.7 119.748 1164.54 119.632C1165.54 119.494 1166.38 119.044 1166.97 118.314C1167.41 117.765 1167.71 117.057 1167.82 116.203C1167.92 115.428 1167.91 114.632 1167.9 113.839C1167.89 113.575 1167.89 113.312 1167.89 113.049V47.665L1173.1 44.8906C1174.15 47.1836 1174 49.501 1173.85 51.7598L1173.85 51.8037C1173.79 52.709 1173.73 53.6055 1173.75 54.4883C1173.76 55.502 1173.89 56.4971 1174.23 57.4648L1179.58 57.7539C1179.71 58.96 1179.77 60.1562 1179.78 61.3418C1179.8 62.5762 1179.78 63.7998 1179.76 65.0146C1179.69 68.3418 1179.63 71.5957 1180.41 74.7861C1183.98 75.4414 1199.03 75.2793 1201.65 74.4365L1201.66 72.627V71.3018L1201.65 70.8301L1201.59 65.3213C1201.53 60.376 1201.48 55.4307 1201.48 50.4873C1201.48 49.4463 1201.72 47.9023 1202.33 47.4727C1203.48 46.6738 1203.52 45.7031 1203.53 44.5322V20.5186L1207.51 19.0195L1207.57 19.9912L1207.67 21.4922C1207.78 23.0381 1207.87 24.4258 1207.89 25.8145C1207.93 28.2881 1207.96 30.7627 1207.99 33.2383L1208.25 54.2031C1208.34 61.7861 1208.44 69.3701 1208.55 76.9531C1208.6 80.3652 1208.75 83.7744 1208.9 87.1826L1209.03 90.2363C1209.03 90.3086 1209.05 90.3809 1209.08 90.4541C1209.12 90.5859 1209.2 90.7158 1209.28 90.8477L1209.37 91.0225L1209.43 91.1377L1212.82 91.4805C1213.13 92.0205 1213.39 92.5225 1213.63 92.9883L1213.69 93.0869C1214.2 94.0762 1214.64 94.9072 1215.18 95.6299L1215.69 96.2832L1216.02 96.7051L1216.04 96.7373C1217.33 98.3545 1218.6 99.9668 1219 102.239C1219.02 102.318 1219.1 102.38 1219.21 102.433L1219.67 102.616L1226.45 91.4111L1230.43 91.0098V67.5889L1233.01 67.3633C1234.7 67.2129 1236.28 67.0732 1237.87 66.9609C1240.05 66.8086 1240.09 66.7246 1240.06 64.3232C1240.02 61.6367 1240.03 58.9502 1240.04 56.1797V52.3789C1240.51 52.416 1240.98 52.3896 1241.43 52.3311C1241.93 52.2676 1242.42 52.1641 1242.91 52.0615L1242.94 52.0557C1244.57 51.709 1246.15 51.375 1247.78 52.5547L1248.08 57.75L1252.55 58.6504L1252.56 59.3594L1252.58 60.4385V60.4727C1252.6 61.1396 1252.61 61.7891 1252.6 62.4277C1252.6 62.9707 1252.58 63.5059 1252.52 64.0371C1252.17 67.4775 1252.32 67.7812 1255.37 68.1865C1255.56 68.2109 1255.74 68.3184 1255.95 68.4385C1256.05 68.498 1256.16 68.5615 1256.28 68.6201L1256.74 72.9229L1262.7 73.3018L1263.21 68.6074L1268.55 68.1445V40.0479C1275.13 42.1699 1281.25 43.0557 1287.23 38.874L1287.28 38.1943L1287.39 37.04C1287.43 36.6807 1287.46 36.3213 1287.49 35.9629L1287.52 35.6191C1287.59 34.7344 1287.63 33.8574 1287.58 32.9863C1287.43 29.9727 1288.16 28.9121 1290.84 28.3135C1292.87 27.8584 1294.88 27.1943 1296.87 26.5332L1298.1 26.1279C1298.58 25.9746 1299.12 25.6338 1299.38 25.1934C1299.83 24.418 1300.37 23.9385 1300.99 23.6631C1301.62 23.3818 1302.34 23.3203 1303.13 23.3809C1303.59 23.415 1304.04 23.2852 1304.56 23.1396L1304.58 23.1338C1304.83 23.0596 1305.11 22.9824 1305.4 22.917C1304.9 21.0244 1305.79 19.998 1306.67 18.9766C1307.32 18.2168 1307.97 17.458 1308.05 16.3447C1309.56 16.127 1311.04 15.832 1312.52 15.5117C1313.26 15.3516 1313.99 15.1855 1314.73 15.0195C1319.91 13.8486 1325.02 12.6943 1330.32 13.877L1330.98 16.8662L1332.37 16.8721H1332.39C1332.88 16.876 1333.37 16.8799 1333.85 16.8789C1334.38 16.8779 1334.91 16.8711 1335.43 16.8525C1335.67 16.8447 1335.91 16.8486 1336.17 16.8525L1336.65 16.8584C1336.95 16.8574 1337.26 16.8447 1337.54 16.7988C1337.87 16.7441 1338.18 16.6406 1338.44 16.4512C1338.93 16.0918 1339.17 15.3203 1339.41 14.5283L1339.42 14.4961L1339.56 14.0449C1339.62 13.8555 1339.69 13.6689 1339.77 13.4922L1346.32 12.8018C1347.36 16.5342 1349.57 18.2412 1352.8 18.0869L1353.54 34.8848H1374.61C1374.79 33.3408 1374.86 31.7998 1374.87 30.2617C1374.89 29.0674 1374.87 27.874 1374.85 26.6826V26.6328C1374.8 22.9062 1374.75 19.1953 1375.62 15.4941C1377.08 15.4688 1378.53 15.46 1379.97 15.458C1381.2 15.4561 1382.42 15.46 1383.63 15.4629L1385.93 15.4678C1388.3 15.4717 1390.63 15.4629 1392.93 15.4062C1393.09 14.8975 1393.19 14.3809 1393.29 13.9111C1393.36 13.5977 1393.42 13.3047 1393.49 13.0469C1393.55 12.835 1393.61 12.6465 1393.68 12.4912C1393.77 12.2891 1393.88 12.1426 1394.02 12.0713C1395.09 11.5234 1395.38 10.5566 1395.69 9.52148L1395.71 9.45117C1395.88 8.91016 1396.04 8.35254 1396.34 7.82715C1396.82 7.97461 1397.31 8.0166 1397.81 8.01367C1398.17 8.01172 1398.53 7.9873 1398.88 7.96289C1399.23 7.93945 1399.58 7.91504 1399.92 7.91211C1400.79 7.90527 1401.66 8.02344 1402.47 8.58398C1402.8 9.43555 1402.81 10.4082 1402.81 11.3662C1402.83 13.1309 1402.84 14.8457 1404.9 15.6553C1405.46 15.874 1406 16.2373 1406.54 16.6035C1408 17.5947 1409.48 18.6025 1411.62 16.9961C1411.09 14.9629 1412.39 13.9668 1413.99 13.417L1414.21 8.4209L1414.84 8.41797L1415.55 8.40918L1415.65 8.40723C1416.56 8.39258 1417.37 8.37988 1418.19 8.43262C1420.99 8.61523 1423.79 8.81934 1426.59 9.02344L1440.02 10V0L1440 196.999Z" fill="#BC6654"/>
<path d="M176.042 125.062L176.408 125.116C176.72 125.158 177.031 125.2 177.256 125.26C177.446 125.31 177.575 125.371 177.593 125.454C178.271 128.672 178.779 131.923 179.339 135.212C175.984 135.308 175.265 135.083 175.212 133.528C175.12 130.781 175.324 128.024 175.665 124.996C175.779 125.021 175.906 125.043 176.042 125.062Z" fill="#BC6654"/>
<path d="M1147.09 98.3877C1147.22 98.6064 1147.33 98.8252 1147.42 99.0439C1147.55 99.3438 1147.65 99.6436 1147.72 99.9453C1147.75 100.026 1147.76 100.107 1147.78 100.188C1147.8 100.275 1147.81 100.362 1147.82 100.449C1147.86 100.701 1147.87 100.953 1147.88 101.205C1147.9 107.657 1147.89 114.11 1147.89 120.562V128.135L1147.89 128.328L1147.88 128.523C1147.87 128.731 1147.85 128.939 1147.83 129.147L1147.8 129.538L1147.78 129.876C1147.76 130.484 1147.64 130.971 1147.44 131.344C1147.05 132.045 1146.35 132.341 1145.36 132.264C1145.07 132.242 1144.78 132.211 1144.46 132.173L1144.07 132.126L1143.2 132.025C1143.45 128.723 1143.68 125.635 1143.95 121.907C1144.06 120.807 1144.17 119.705 1144.28 118.604C1144.56 115.782 1144.85 112.961 1145.17 110.147C1145.63 106.224 1145.64 102.205 1147.09 98.3877Z" fill="#BC6654"/>
<path d="M1155.91 120.299C1155.97 120.306 1156.04 120.321 1156.11 120.346C1156.25 120.395 1156.4 120.474 1156.53 120.57C1156.82 120.768 1157.08 121.04 1157.11 121.262C1157.48 123.687 1157.77 126.123 1158.07 128.569L1158.17 129.387L1158.47 131.882C1157.12 131.913 1156.38 131.93 1155.91 131.581C1155.73 131.448 1155.59 131.261 1155.47 131.001C1155.2 130.431 1155.03 129.508 1154.75 128.023V127.18L1154.74 125.845C1154.73 124.471 1154.74 123.097 1154.81 121.728C1154.84 121.202 1155.38 120.374 1155.77 120.301C1155.81 120.293 1155.86 120.293 1155.91 120.299Z" fill="#BC6654"/>
</svg>
