<svg width="1440" height="320" viewBox="0 0 1440 320" fill="none" xmlns="http://www.w3.org/2000/svg">
<path fill-rule="evenodd" clip-rule="evenodd" d="M1440.49 0C1440.49 0 1440.49 24.0244 1440.49 159L1429.49 158.379L1425.42 158.085C1422.33 157.86 1419.25 157.634 1416.16 157.433C1415.34 157.38 1414.53 157.393 1413.62 157.407L1413.52 157.409C1413.1 157.415 1412.65 157.421 1412.18 157.421L1411.96 162.417C1410.36 162.967 1409.06 163.963 1409.59 165.996C1407.45 167.603 1405.97 166.595 1404.52 165.613L1404.51 165.604C1403.97 165.237 1403.43 164.874 1402.87 164.655C1400.81 163.846 1400.8 162.131 1400.78 160.366C1400.78 159.408 1400.77 158.436 1400.44 157.584C1399.63 157.023 1398.76 156.905 1397.89 156.912C1397.19 156.919 1396.48 157.01 1395.78 157.014C1395.28 157.017 1394.79 156.975 1394.31 156.827C1394 157.375 1393.83 157.959 1393.66 158.521C1393.35 159.557 1393.06 160.523 1391.99 161.071C1391.74 161.197 1391.59 161.558 1391.46 162.047C1391.39 162.305 1391.33 162.598 1391.26 162.911C1391.16 163.381 1391.06 163.897 1390.9 164.406C1388.6 164.463 1386.27 164.472 1383.9 164.468L1381.6 164.463C1380.39 164.46 1379.17 164.456 1377.94 164.458C1376.5 164.46 1375.05 164.469 1373.59 164.494C1372.72 168.195 1372.77 171.906 1372.82 175.633V175.683C1372.86 178.408 1372.9 181.141 1372.58 183.885H1351.51L1350.77 167.087C1347.54 167.241 1345.33 165.534 1344.29 161.802L1337.74 162.492C1337.66 162.669 1337.59 162.855 1337.53 163.045L1337.39 163.496L1337.38 163.528C1337.14 164.32 1336.9 165.092 1336.41 165.451C1335.94 165.799 1335.29 165.856 1334.62 165.858L1334.14 165.853C1333.88 165.849 1333.64 165.845 1333.4 165.853C1332.4 165.889 1331.4 165.88 1330.36 165.872H1330.34L1328.95 165.866L1328.29 162.877C1322.99 161.694 1317.88 162.849 1312.7 164.02C1310.49 164.518 1308.28 165.019 1306.02 165.345C1305.94 166.458 1305.29 167.217 1304.64 167.977C1303.76 168.998 1302.87 170.024 1303.37 171.917C1303.08 171.982 1302.8 172.06 1302.55 172.134C1302.02 172.283 1301.56 172.415 1301.1 172.381C1300.31 172.32 1299.59 172.382 1298.96 172.663C1298.34 172.938 1297.8 173.418 1297.35 174.193C1297.09 174.634 1296.55 174.975 1296.07 175.128C1293.67 175.912 1291.26 176.765 1288.81 177.313C1286.13 177.912 1285.4 178.973 1285.55 181.986C1285.6 182.857 1285.56 183.734 1285.49 184.619C1285.45 185.091 1285.41 185.565 1285.36 186.04L1285.25 187.194L1285.2 187.874C1279.22 192.056 1273.1 191.17 1266.52 189.048V217.145L1261.18 217.607L1260.67 222.302L1254.71 221.923L1254.25 217.62C1254.13 217.562 1254.02 217.498 1253.92 217.438C1253.71 217.318 1253.53 217.211 1253.34 217.187C1250.29 216.781 1250.14 216.478 1250.49 213.037C1250.61 211.882 1250.58 210.708 1250.55 209.473V209.438L1250.53 208.359L1250.52 207.65L1246.05 206.75L1245.75 201.555C1244.12 200.375 1242.54 200.709 1240.91 201.056C1240.41 201.16 1239.91 201.266 1239.4 201.331C1238.95 201.39 1238.48 201.416 1238.01 201.379V205.083V205.13C1238 207.917 1237.99 210.62 1238.03 213.323C1238.06 215.725 1238.02 215.809 1235.84 215.961C1234.25 216.073 1232.67 216.213 1230.98 216.363L1228.4 216.589V240.01L1224.42 240.411L1217.64 251.616C1217.54 251.564 1217.34 251.509 1217.18 251.433C1217.07 251.38 1216.99 251.318 1216.97 251.239C1216.57 248.951 1215.28 247.333 1213.99 245.705L1213.66 245.283C1213.49 245.068 1213.32 244.851 1213.15 244.63C1212.61 243.907 1212.17 243.076 1211.66 242.087L1211.6 241.988C1211.36 241.522 1211.1 241.021 1210.79 240.48L1207.4 240.138L1207.34 240.022L1207.25 239.848C1207.17 239.716 1207.09 239.586 1207.05 239.454C1207.02 239.381 1207 239.309 1207 239.236L1206.87 236.183C1206.72 232.774 1206.57 229.365 1206.52 225.953C1206.41 218.37 1206.31 210.786 1206.22 203.203L1206.01 186.281C1205.96 182.458 1205.92 178.636 1205.86 174.814C1205.84 173.426 1205.75 172.038 1205.64 170.492L1205.54 168.991L1205.48 168.02L1201.5 169.519V187.014C1201.5 189.187 1201.5 191.36 1201.5 193.532C1201.49 194.703 1201.45 195.674 1200.3 196.473C1199.69 196.902 1199.45 198.446 1199.45 199.487C1199.45 204.431 1199.5 209.376 1199.56 214.321L1199.62 219.83L1199.63 220.302V221.627L1199.62 223.437C1197 224.279 1181.95 224.441 1178.38 223.786C1177.6 220.596 1177.66 217.342 1177.73 214.015C1177.75 212.8 1177.77 211.576 1177.75 210.342C1177.74 209.156 1177.68 207.96 1177.55 206.754L1172.2 206.465C1171.56 204.655 1171.69 202.75 1171.82 200.804C1171.97 198.53 1172.13 196.198 1171.07 193.891L1165.86 196.665V262.049C1165.86 263.101 1165.93 264.17 1165.79 265.203C1165.68 266.057 1165.38 266.765 1164.94 267.314C1164.35 268.044 1163.51 268.494 1162.51 268.632C1161.62 268.755 1160.73 268.938 1159.8 269.127L1159.79 269.13L1159.72 269.143C1159.32 269.227 1158.91 269.311 1158.49 269.392L1158.67 271.072L1158.84 272.479L1158.85 272.581C1159.11 274.886 1159.36 277.1 1159.53 279.321C1159.67 281.108 1160.49 281.713 1161.93 281.873C1163.98 282.101 1165.92 282.78 1168.36 283.978L1165.68 286.051C1166.04 288.797 1167.73 289.116 1169.54 289.455C1170.6 289.655 1171.71 289.862 1172.6 290.575L1165.76 294.106L1166.17 296.783L1155.41 301.685L1156.76 305.222C1156.34 305.577 1155.94 305.99 1155.55 306.402L1155.53 306.428C1154.23 307.786 1152.96 309.124 1150.84 308.348C1149.96 309.82 1149.59 311.319 1149.43 312.848C1149.33 313.947 1149.33 315.059 1149.33 316.189V316.315C1149.33 317.345 1149.33 318.388 1149.25 319.445C1148.8 319.767 1148.53 319.767 1148.25 319.767L1148.28 319.054C1148.46 315.569 1148.64 312.133 1147.5 309.627L1141.19 305.433L1143.26 302.276C1142.45 301.514 1141.78 300.624 1140.93 300.137C1139.99 299.603 1139.02 299.131 1138.05 298.673L1137.27 298.306C1136.67 298.031 1136.08 297.755 1135.5 297.469C1135.23 297.338 1134.95 297.23 1134.66 297.122C1133.5 296.681 1132.35 296.24 1132.34 294.257C1132.33 293.986 1131.91 293.669 1131.47 293.412C1131.28 293.302 1131.09 293.203 1130.93 293.123C1129.71 292.519 1128.47 291.956 1127.24 291.394L1127.03 291.3C1126.63 291.119 1126.23 290.936 1125.83 290.75L1125.79 290.004C1126.15 289.895 1126.5 289.782 1126.85 289.668L1126.94 289.642C1127.69 289.404 1128.43 289.165 1129.19 288.965C1132.5 288.093 1132.81 287.122 1130.73 284.222C1130.66 284.124 1130.64 283.983 1130.6 283.729C1130.57 283.568 1130.54 283.361 1130.49 283.09L1138.58 281.34C1139.05 277.104 1139.5 272.734 1140.01 268.371C1140.15 267.159 1140.29 265.946 1140.42 264.731L1140.55 263.562C1141.06 259.036 1141.57 254.51 1142.27 250.02C1143.33 243.178 1143.49 236.323 1143.26 229.424C1143.2 227.653 1143.13 225.882 1143.06 224.112C1142.94 220.987 1142.82 217.863 1142.74 214.736C1142.73 214.118 1142.73 213.499 1142.73 212.88C1142.73 209.797 1142.73 206.704 1140.81 203.845L1138.46 203.628C1137.68 199.598 1137.7 195.526 1137.72 191.448C1137.73 190.638 1137.73 189.827 1137.73 189.017C1137.73 187.504 1137.7 185.992 1137.61 184.481C1137.17 184.381 1136.75 184.28 1136.34 184.181L1135.5 183.981C1134.96 183.855 1134.44 183.738 1133.91 183.634C1133.08 183.472 1132.77 182.983 1132.63 182.369C1132.57 182.11 1132.54 181.828 1132.5 181.54C1132.48 181.367 1132.46 181.193 1132.43 181.019C1132.38 180.693 1132.31 180.37 1132.17 180.073C1131.77 180.034 1131.32 179.965 1130.85 179.936C1130.73 179.928 1130.6 179.923 1130.48 179.922C1130.36 179.921 1130.24 179.924 1130.12 179.929C1129.96 179.935 1129.8 179.946 1129.63 179.959L1129.11 180.003C1128.86 180.026 1128.59 180.051 1128.27 180.075C1128.26 180.427 1128.24 180.778 1128.22 181.126L1128.2 181.586C1128.18 181.891 1128.17 182.195 1128.16 182.498L1128.15 182.887L1128.14 183.087C1128.14 183.217 1128.14 183.347 1128.14 183.477C1128.17 188.89 1128.21 194.303 1128.25 199.717L1128.34 211.902C1128.34 212.112 1128.34 212.323 1128.35 212.533C1128.4 214.157 1128.44 215.774 1126.48 216.46C1126.27 216.533 1126.12 216.945 1126.02 217.403C1125.95 217.708 1125.9 218.035 1125.88 218.296C1125.81 219.02 1125.82 219.753 1125.84 220.524C1125.84 220.852 1125.85 221.186 1125.85 221.529L1123.12 222.421C1123.09 222.499 1123.05 222.572 1123.01 222.641L1123 222.664L1122.99 222.676L1122.97 222.705C1122.93 222.773 1122.9 222.836 1122.87 222.897C1122.84 222.97 1122.82 223.038 1122.83 223.108L1122.87 226.712C1122.88 227.953 1122.9 229.194 1122.92 230.434C1122.95 231.955 1122.99 233.477 1123.04 234.996C1123.12 237.131 1122.85 237.629 1120.81 237.706C1120.32 237.725 1119.82 237.731 1119.33 237.731L1118.79 237.729L1118.06 237.723C1117.21 237.714 1116.35 237.705 1115.5 237.733C1111.45 237.861 1107.4 238.043 1103.35 238.187C1102.67 238.211 1101.99 238.205 1101.24 238.2L1100.07 238.193L1099.24 220.382C1096.23 219.69 1096.23 219.656 1096.21 216.379V215.863C1096.17 211.042 1096.03 206.224 1095.88 201.285C1095.82 199.174 1095.76 197.04 1095.71 194.876C1095 194.876 1094.29 194.935 1093.58 194.993C1092.33 195.096 1091.09 195.198 1089.95 194.984C1089.63 194.923 1089.32 194.838 1089.01 194.721C1087.6 194.176 1086.39 194.573 1085.19 194.964L1085.16 194.973C1084.76 195.102 1084.37 195.231 1083.97 195.323C1083.43 195.448 1082.89 195.509 1082.32 195.427C1080.8 195.208 1079.25 195.257 1077.58 195.309L1077.51 195.312C1077.09 195.325 1076.66 195.338 1076.22 195.347C1075.89 195.354 1075.55 195.358 1075.21 195.358L1075.14 199.858C1075.09 203.2 1075.05 206.422 1074.98 209.644C1074.97 210.036 1074.98 210.431 1074.99 210.825C1075.02 212.367 1075.06 213.903 1074.01 215.321C1073.82 215.583 1073.74 215.957 1073.72 216.379C1073.71 216.688 1073.72 217.022 1073.73 217.356C1073.74 217.558 1073.75 217.761 1073.75 217.957C1073.75 218.107 1073.75 218.252 1073.74 218.392C1073.66 219.606 1074.07 221.001 1072.47 221.553C1072.23 221.634 1072.07 222.181 1071.97 222.717C1071.93 222.934 1071.91 223.149 1071.89 223.33C1071.86 223.747 1071.84 224.165 1071.84 224.596C1071.84 224.971 1071.84 225.356 1071.85 225.754V225.792L1071.86 226.573V226.995C1069.61 226.815 1068.45 228.133 1067.23 229.674C1064.84 232.702 1061.49 232.498 1059.08 229.594C1058.42 228.789 1057.63 228.106 1056.85 227.427C1056.42 227.06 1055.99 226.694 1055.58 226.312C1055.52 226.251 1055.44 226.191 1055.36 226.128C1055.15 225.961 1054.93 225.788 1054.93 225.62C1054.93 224.93 1054.8 224.295 1054.59 223.693C1054.3 222.841 1053.86 222.055 1053.42 221.273C1052.58 219.795 1051.75 218.329 1051.98 216.45C1051.11 216.121 1050.5 215.889 1050.07 215.632C1049.81 215.479 1049.62 215.316 1049.47 215.117C1049.05 214.531 1049.04 213.634 1049.02 211.744H1043.62L1042.75 223.941C1042.39 223.974 1042.07 224.008 1041.79 224.039C1041.27 224.096 1040.88 224.139 1040.48 224.14L1038.88 224.142C1032.23 224.153 1025.57 224.164 1018.91 224.14C1015.77 224.129 1015.62 223.92 1015.59 220.307C1015.58 219.136 1015.61 217.965 1015.57 216.796V216.45C1015.57 215.924 1015.56 215.323 1015.33 215.133C1014.33 214.333 1013.91 213.376 1013.76 212.355C1013.63 211.515 1013.68 210.631 1013.73 209.756C1013.77 209.076 1013.81 208.402 1013.76 207.756C1013.62 205.702 1013.54 203.644 1013.48 201.582C1013.4 198.862 1013.36 196.138 1013.25 193.418C1013.23 193.055 1013.03 192.7 1012.83 192.346L1012.7 192.117C1012.65 192.028 1012.61 191.938 1012.57 191.848L1011.88 191.983V195.723C1011.88 198.372 1011.87 201.021 1011.88 203.67C1011.9 206.968 1011.95 210.268 1012 213.569C1012.11 221.507 1012.23 229.445 1011.85 237.352C1011.65 241.532 1011.47 245.726 1011.29 249.918V249.962L1011.18 252.312C1011.15 252.984 1011.05 253.653 1010.94 254.245C1010.84 254.754 1010.74 255.207 1010.68 255.561C1003.53 259.132 996.241 259.984 988.772 260.859L988.014 260.948C987.987 260.747 987.956 260.559 987.926 260.377L987.915 260.321L987.815 259.737C987.739 259.276 987.678 258.855 987.673 258.433C987.653 256.76 987.59 255.08 987.581 253.407C987.571 252.035 987.596 250.668 987.708 249.31C988.006 245.658 987.204 242.69 984.315 240.24H980.229C979.958 237.316 979.901 234.403 979.907 231.486C979.911 230.246 979.924 229.006 979.938 227.764C979.981 224.055 980.024 220.328 979.766 216.555L973.315 216.148C972.237 216.082 971.163 216.019 970.089 215.959C967.801 215.833 967.803 215.796 967.858 213.219L967.862 213.091C967.887 211.982 967.899 210.872 967.905 209.758C967.909 208.408 967.905 207.05 967.899 205.679L967.893 205.033L967.891 204.195C967.887 203.328 967.883 202.454 967.883 201.574C967.139 201.458 966.423 201.329 965.721 201.203C964.182 200.927 962.727 200.665 961.264 200.604C959.089 200.511 958.366 201.498 958.274 203.967C958.253 204.5 958.258 205.034 958.264 205.69L958.268 206.789L952.526 207.583C952.526 208.143 952.506 208.7 952.489 209.253C952.45 210.459 952.411 211.647 952.563 212.803C953.053 216.549 952.866 216.91 949.43 217.15C949.258 217.161 949.087 217.195 948.881 217.238C948.721 217.271 948.54 217.311 948.321 217.352L947.79 221.863L939.473 222.335L939.137 217.696L932.534 217.125V189.112C924.407 191.117 916.608 192.157 908.952 187.8C908.924 187.186 908.889 186.582 908.854 185.986C908.827 185.515 908.801 185.063 908.78 184.614C908.739 183.783 908.712 182.961 908.725 182.14C908.782 179.029 908.065 177.42 905.464 177.519C903.919 177.576 902.52 177.026 901.13 176.479L901.112 176.473C900.45 176.212 899.79 175.952 899.118 175.759C898.286 175.52 897.434 175.382 896.536 175.473C895.967 175.53 895.126 175.278 894.805 174.821C892.93 172.142 890.29 172.417 887.731 172.27C887.544 172.26 887.36 172.16 887.126 172.033L886.887 171.908L886.694 171.817L886.675 171.678C886.434 169.934 886.176 168.07 884.108 167.523C883.872 167.46 883.729 166.969 883.559 166.39L883.553 166.372C883.467 166.075 883.374 165.756 883.259 165.461C881.598 165.229 879.94 164.945 878.28 164.644L876.067 164.237C869.409 163.004 862.704 161.762 855.733 162.769L855.618 163.175L855.614 163.19C855.563 163.363 855.512 163.533 855.471 163.704C855.444 163.814 855.419 163.923 855.397 164.034C855.344 164.321 855.313 164.612 855.272 165.027C855.251 165.245 855.225 165.498 855.19 165.803C854.259 165.803 853.333 165.809 852.411 165.815C850.217 165.827 848.048 165.84 845.878 165.779C844.663 165.744 844.436 164.757 844.202 163.725L844.198 163.698L844.192 163.674C844.1 163.283 844.009 162.886 843.856 162.534L836.251 161.791C834.2 165.134 832.022 167.81 827.745 166.603L827.257 183.581C826.37 183.912 825.477 184.079 824.581 184.155C823.438 184.25 822.29 184.197 821.145 184.144C820.72 184.123 820.292 184.104 819.866 184.091C819.565 184.082 819.264 184.077 818.966 184.079C818.761 184.081 818.555 184.086 818.35 184.095C816.251 184.183 814.143 184.161 812.042 184.141L810.72 184.13L809.286 184.123H800.159C800.116 183.655 800.071 183.242 800.028 182.866C799.948 182.143 799.884 181.553 799.88 180.964C799.864 178.769 799.872 176.574 799.874 174.379C799.876 172.595 799.872 170.811 799.848 169.028C799.837 168.134 799.735 167.243 799.626 166.234L799.614 166.149L799.596 165.999C799.542 165.519 799.487 165.009 799.434 164.461H777.501C777.399 164.228 777.313 163.986 777.237 163.742C777.159 163.493 777.091 163.243 777.022 162.996C776.653 161.649 776.307 160.391 774.655 160.111C774.315 160.053 774.087 159.151 773.85 158.22L773.704 157.648C773.639 157.408 773.573 157.178 773.503 156.973C772.946 156.973 772.393 156.968 771.845 156.964C770.616 156.954 769.393 156.945 768.175 156.985C767.083 157.02 766.516 157.075 766.194 157.421C765.88 157.758 765.796 158.371 765.682 159.51C765.659 159.737 765.643 159.966 765.628 160.196C765.61 160.424 765.593 160.653 765.571 160.878L765.552 161.074L765.512 161.358C765.483 161.554 765.444 161.747 765.391 161.936C765.182 162.697 764.802 163.964 764.411 164.006C763.251 164.132 762.274 164.773 761.298 165.412L761.274 165.43C760.823 165.725 760.372 166.019 759.903 166.262C759.208 166.622 758.473 166.868 757.637 166.834L757.331 166.824C755.602 166.761 754.102 166.709 753.677 164.071C753.557 163.334 752.192 162.851 751.356 162.218C751.278 159.735 751.241 158.539 750.628 157.964C750.059 157.431 748.993 157.433 746.938 157.436H746.919L746.028 157.439C744.419 158.125 742.806 158.811 741.192 159.493C739.206 160.332 737.218 161.164 735.224 161.981C734.903 162.112 734.579 162.234 734.251 162.349C734.022 162.429 733.794 162.506 733.561 162.581C732.798 162.828 732.011 163.051 731.196 163.283C730.72 163.416 730.233 163.554 729.739 163.7C722.263 164.659 715.604 167.044 709.716 171.386C706.624 173.665 703.503 175.91 700.368 178.171C697.573 180.187 694.765 182.214 691.952 184.288C691.905 184.413 691.864 184.399 691.862 184.403C689.919 184.283 688.2 184.498 686.892 186.324C686.526 186.835 684.893 186.948 684.085 186.642C682.106 185.895 680.138 185.121 678.175 184.337C676.809 183.791 675.446 183.241 674.083 182.69C672.397 182.007 670.708 181.325 669.017 180.653C668.556 180.469 667.999 180.514 667.276 180.49C666.886 180.462 666.71 180.401 666.407 180.273C663.222 175.86 657.104 175.552 653.339 179.332C650.954 181.726 648.184 183.758 645.622 185.991C645.343 186.234 645.081 186.5 644.833 186.779C644.706 186.921 644.583 187.068 644.462 187.215C644.278 187.437 644.1 187.663 643.927 187.889C642.462 189.788 641.052 191.731 639.599 193.639C638.608 194.941 637.599 196.226 636.538 197.472C634.358 200.035 632.077 202.518 629.796 205C628.462 206.451 627.128 207.903 625.813 209.37C624.005 211.39 622.218 213.426 620.442 215.472C619.511 216.546 618.583 217.623 617.657 218.703C617.335 219.08 617.151 219.57 616.942 220.125L616.917 220.189C616.86 220.344 616.798 220.504 616.731 220.668C616.724 220.745 616.71 220.781 616.702 220.796C616.688 220.819 616.685 220.805 616.7 220.815L616.622 220.864C613.501 222.82 610.569 224.657 606.276 224.23C605.02 224.105 603.595 225.529 602.175 226.946C601.894 227.226 601.612 227.506 601.335 227.775C600.989 228.106 600.645 228.417 600.308 228.688C599.667 229.201 599.034 229.725 598.401 230.247L598.284 230.341C597.249 231.195 596.216 232.048 595.155 232.866C594.755 233.173 594.351 233.477 593.94 233.774C593.681 233.962 593.267 234.098 592.847 234.156C592.364 234.221 591.872 234.185 591.587 234.007C589.968 232.994 588.394 231.918 586.819 230.841L585.665 230.054C584.388 229.186 583.103 228.326 581.79 227.513C581.431 227.29 581.081 227.054 580.735 226.811C580.212 226.443 579.702 226.057 579.19 225.67C577.095 224.088 574.991 222.501 572.101 222.139C571.677 222.086 571.286 221.843 570.901 221.527C570.759 221.409 570.616 221.282 570.474 221.15L570.212 220.903C569.851 220.558 569.485 220.209 569.097 219.954C568.837 219.783 568.577 219.603 568.315 219.421C567.347 218.75 566.358 218.065 565.276 217.813C562.214 217.099 559.593 216.187 557.999 213.18C556.622 210.581 554.643 208.506 551.493 207.378C550.372 206.977 549.321 206.391 548.296 205.74C547.729 205.379 547.171 204.998 546.612 204.617C546.175 204.321 545.737 204.023 545.298 203.735C544.946 203.504 544.593 203.281 544.233 203.067C543.958 202.904 543.661 202.771 543.343 202.653C543.013 202.53 542.657 202.422 542.278 202.305L542.237 202.293L541.911 202.195C541.845 202.198 541.776 202.19 541.714 202.175C541.599 202.15 541.503 202.101 541.46 202.052C540.977 201.674 540.517 201.262 540.061 200.854C539.024 199.923 538.013 199.015 536.815 198.599C534.12 197.661 532.96 195.73 531.722 193.579C530.911 192.174 529.987 190.573 528.655 189.758C528.161 189.455 527.657 189.161 527.149 188.875C526.081 188.275 524.989 187.709 523.884 187.165C522.286 186.38 520.661 185.64 519.04 184.906C518.468 184.647 517.675 184.842 516.882 185.037C516.694 185.083 516.507 185.129 516.323 185.169C516.284 185.248 516.267 185.296 516.257 185.323L516.237 185.354C512.565 186.436 509.368 187.927 507.316 191.441C505.829 193.985 503.927 196.688 499.81 195.995L499.591 195.993C499.567 195.993 499.564 195.992 499.566 195.987L499.528 195.864L499.503 195.759C499.458 195.575 499.411 195.395 499.298 195.277C494.034 189.831 488.683 184.479 481.952 180.4C481.689 180.348 481.605 180.317 481.413 180.209C479.228 177.406 476.171 176.319 472.929 175.935C468.9 175.457 464.849 175.165 460.786 174.873L457.622 174.643C457.505 174.634 457.386 174.634 457.265 174.64C457.12 174.647 456.976 174.662 456.829 174.685C456.556 174.726 456.28 174.789 456.007 174.853L455.607 174.942C454.989 175.071 454.374 175.226 453.759 175.381L453.694 175.396C452.368 175.731 451.046 176.065 449.702 176.157C447.79 176.288 446.794 177.196 446.939 178.773C447.093 180.453 446.144 181.468 445.198 182.478C444.661 183.053 444.124 183.625 443.796 184.319C443.739 184.436 443.577 184.53 443.382 184.596C443.146 184.677 442.857 184.72 442.638 184.724C440.148 184.774 437.097 182.201 436.782 179.699C436.538 177.75 435.603 176.458 433.517 176.457C433.021 176.457 432.505 176.383 431.987 176.309C430.284 176.066 428.573 175.82 427.462 178.222C426.105 181.153 424.126 183.47 419.982 182.98C417.847 182.727 415.677 182.746 413.503 182.803C412.097 182.84 410.689 182.892 409.286 182.896C405.441 182.908 404.962 183.65 405.312 187.493C405.439 188.886 405.493 190.286 405.505 191.689C405.521 193.395 405.476 195.105 405.429 196.808C405.37 198.906 404.585 200.052 401.861 199.88C399.007 199.7 396.14 199.735 393.271 199.769C392.302 199.78 391.333 199.791 390.365 199.794C389.638 199.797 388.911 199.794 388.185 199.784C387.798 199.779 387.411 199.771 387.027 199.76C386.2 199.738 384.788 198.8 384.697 198.148C384.478 196.576 384.382 194.99 384.288 193.403C384.236 192.521 384.183 191.639 384.109 190.76C384.044 189.983 383.962 189.207 383.849 188.437C383.757 187.821 383.435 187.193 383.011 186.611C382.851 186.39 382.675 186.177 382.491 185.973C382.245 185.698 381.986 185.44 381.73 185.208C381.167 184.698 380.48 184.314 379.794 183.93L379.583 183.81L379.14 183.56C378.642 183.266 378.165 182.95 377.763 182.562C375.288 180.177 369.572 180.117 367.198 182.642C365.792 184.139 362.251 184.691 360.87 183.244C358.47 180.727 355.429 180.941 352.554 181.143L352.144 181.171C347.47 181.489 342.841 182.385 338.187 183C335.302 183.383 333.622 185.147 332.323 187.478C332.052 187.968 331.714 188.533 331.306 188.943C331.097 189.153 330.87 189.321 330.626 189.415C329.406 189.89 328.173 190.343 326.935 190.781C326.134 191.064 325.331 191.34 324.527 191.613C323.245 192.046 321.958 192.467 320.669 192.883L320.372 192.979C318.925 193.45 317.423 193.937 315.929 193.992C313.456 194.085 312.909 195.248 312.876 197.383C312.855 198.851 312.642 200.316 312.406 201.831C312.284 202.604 312.158 203.389 312.046 204.195C311.923 204.415 311.845 204.462 311.64 204.559L310.992 204.752C309.808 205.104 308.685 205.437 307.47 205.85C307.095 205.988 306.853 206.013 306.427 206.028L304.82 205.794L303.156 205.548C300.3 205.122 297.515 204.708 294.716 204.429C294.156 204.374 292.968 205.524 292.921 206.174C292.859 207.022 292.884 207.874 292.937 208.73C292.958 209.089 292.984 209.449 293.009 209.808L293.025 209.993C293.074 210.727 293.126 211.46 293.134 212.193C293.185 216.647 293.109 221.102 293.183 225.555C293.218 227.739 292.376 228.705 290.013 228.892C289.355 228.944 288.706 229.319 288.081 229.773C287.621 230.105 287.177 230.48 286.749 230.801C286.435 231.038 286.13 231.437 285.847 231.807C285.474 232.295 285.14 232.733 284.872 232.681C283.722 232.461 282.251 231.83 281.736 230.925L281.64 230.753C281.169 229.925 280.755 229.198 280.072 228.703C279.667 228.41 279.167 228.199 278.505 228.096C278.304 228.064 278.113 227.783 277.949 227.408C277.738 226.926 277.574 226.289 277.488 225.826C277.351 225.086 277.253 224.34 277.156 223.582L277.152 223.56C277.036 222.663 276.919 221.749 276.728 220.81C276.634 220.755 276.576 220.735 276.542 220.722C276.514 220.712 276.501 220.708 276.497 220.697C276.368 220.599 276.238 220.478 276.109 220.359L276.074 220.329C275.904 220.177 275.738 220.031 275.572 219.946C275.474 219.896 275.378 219.867 275.285 219.871C273.136 219.975 272.652 218.669 272.478 217.022C272.224 214.66 270.591 214.01 268.452 214.026C268.273 214.027 268.093 214.043 267.913 214.067L267.62 214.111L267.411 214.147L267.058 214.204L266.906 214.226C262.743 214.773 262.339 215.264 262.435 219.393C262.482 221.471 262.57 223.565 262.349 225.623C262.286 226.198 261.22 227.084 260.566 227.126L260.462 227.133C255.716 227.437 253.763 227.563 252.976 228.592C252.425 229.313 252.445 230.476 252.482 232.454C252.497 233.302 252.517 234.299 252.494 235.476C252.48 236.22 252.466 236.965 252.458 237.71C252.451 238.303 252.445 238.896 252.443 239.49C252.441 240.396 252.445 241.302 252.458 242.208C252.47 242.901 252.486 243.592 252.511 244.283C252.564 245.707 252.464 246.95 251.591 247.686C251.148 248.059 250.505 248.302 249.583 248.373C249.406 248.388 249.242 248.568 249.064 248.801C248.974 248.918 248.88 249.049 248.779 249.179L248.738 249.333L248.724 249.395C248.716 249.427 248.708 249.448 248.693 249.458C248.277 249.933 247.871 250.402 247.468 250.889C247.062 251.384 246.66 251.899 246.261 252.458C246.269 252.639 246.152 252.851 246.056 252.927C244.503 254.052 243.046 255.102 241.535 256.191C240.499 255.312 239.249 254.252 237.814 253.175C237.63 253.141 237.505 253.1 237.408 253.035L237.345 252.99C237.29 252.945 237.24 252.89 237.185 252.821C236.884 250.285 236.109 248.391 233.136 247.912C232.341 247.784 231.408 246.606 231.14 245.735C230.886 244.915 230.919 244.011 230.953 243.108C230.966 242.728 230.98 242.348 230.972 241.974L229.976 191.297L229.96 190.806C229.939 190.293 229.917 189.779 230.001 189.282C230.304 187.486 229.777 186.149 227.746 186.092C225.785 186.035 224.421 186.993 224.273 189.073C224.259 189.272 224.251 189.471 224.247 189.67C224.242 189.981 224.242 190.293 224.244 190.605L224.242 194.906C224.238 199.095 224.234 203.285 224.165 207.475C224.156 208.236 223.824 209.319 223.253 209.682C221.587 210.741 221.554 212.076 221.611 213.795C221.689 216.15 221.742 218.504 221.775 220.86C221.83 224.797 221.833 228.736 221.816 232.674C221.814 233.2 220.921 234.164 220.421 234.178C216.587 234.28 212.749 234.313 208.912 234.345L206.673 234.365L204.503 234.386L202.951 234.405C201.437 234.424 200.714 233.842 200.667 232.342C200.626 231.003 200.558 229.665 200.49 228.326C200.388 226.307 200.285 224.288 200.277 222.269C200.269 220.158 199.499 219.032 197.228 219.242C195.062 219.445 194.208 218.445 194.255 216.464C194.267 216.053 194.253 215.64 194.242 215.228V215.134L194.24 215.051L194.226 214.589C194.216 214.129 194.214 213.671 194.24 213.213C194.355 211.277 194.386 209.346 191.919 208.787C189.968 208.344 186.259 210.83 186.248 212.643C186.222 216.763 186.257 220.884 186.292 225.006C186.306 226.508 186.32 228.01 186.33 229.512L186.347 232.576C186.371 240.814 186.378 249.052 186.357 257.29C186.349 259.957 186.29 262.623 186.234 265.29L186.177 268.135C186.142 270.046 185.908 271.143 185.117 271.818C184.468 272.37 183.447 272.639 181.857 272.842C178.853 273.226 178.367 273.954 178.9 276.85C179.173 278.33 179.285 279.847 179.353 281.353C179.501 284.623 180.134 285.396 183.396 285.757L183.48 285.767C184.582 285.889 185.56 285.997 186.07 286.627C186.406 287.045 186.539 287.69 186.363 288.719C186.226 289.517 187.613 290.749 188.554 291.469C189.121 291.902 189.841 292.145 190.617 292.408C191.007 292.54 191.414 292.677 191.822 292.845C191.904 292.952 191.923 293.022 191.91 293.109C191.902 293.156 191.884 293.206 191.865 293.27L191.855 293.301C191.828 293.426 191.605 293.499 191.49 293.496C190.607 293.779 189.765 294.061 188.933 294.379C188.32 294.612 187.714 294.864 187.101 295.148C187.072 295.326 187.052 295.386 187.025 295.405C186.076 297.617 184.287 298.572 181.958 299.03C180.46 299.326 178.9 299.838 177.658 300.662C176.929 301.146 176.476 302.06 176.044 302.93C175.949 303.123 175.853 303.314 175.755 303.498C175.583 303.829 175.48 304.233 175.382 304.627C175.23 305.236 175.082 305.824 174.683 306.096C173.699 306.768 172.63 307.336 171.537 307.855C170.763 308.22 169.976 308.561 169.193 308.897C168.968 308.994 168.599 308.776 168.179 308.528C167.958 308.397 167.724 308.258 167.488 308.152C167.402 308.12 167.353 308.1 167.324 308.085C167.298 308.073 167.289 308.064 167.289 308.055C167.263 307.932 167.212 307.838 167.105 307.771C167.039 307.728 166.949 307.696 166.83 307.672C166.734 307.672 166.697 307.649 166.693 307.633C166.691 307.627 166.695 307.622 166.701 307.62C166.511 307.451 166.31 307.289 166.105 307.129C165.925 306.987 165.746 306.844 165.574 306.695C165.384 306.532 165.207 306.361 165.048 306.173L164.884 305.984L164.603 305.674C164.314 305.358 164.013 305.029 163.789 304.702C163.557 304.37 163.41 304.04 163.433 303.731C163.65 300.931 161.941 299.828 159.677 299.064C159.322 298.944 158.962 298.831 158.603 298.724C158.062 298.562 157.518 298.411 156.973 298.258L156.892 298.235C156.41 298.1 155.925 297.965 155.447 297.823C155.353 297.794 155.255 297.769 155.156 297.744C154.822 297.657 154.48 297.568 154.24 297.371C153.273 296.589 152.314 295.796 151.367 295.005L148.191 292.349C152.08 290.626 152.501 289.936 151.941 285.689C151.916 285.6 151.949 285.541 152.001 285.505C152.029 285.486 152.063 285.473 152.098 285.465C152.143 285.454 152.193 285.453 152.228 285.459C155.326 286.458 157.863 285.249 160.554 283.962L160.744 283.872C160.932 283.858 160.99 283.908 160.986 283.946C161.011 284.118 161.083 284.227 161.29 284.352C161.339 284.374 161.38 284.38 161.415 284.384L161.464 284.395L161.48 284.405C161.996 284.509 162.499 284.598 163.035 284.63C163.208 284.64 163.384 284.645 163.566 284.641C163.876 284.48 164.103 284.442 164.503 284.41C164.632 284.385 164.769 284.364 164.906 284.341L165.029 284.321C165.23 284.288 165.427 284.256 165.597 284.222C165.723 284.197 165.835 284.169 165.921 284.139C166.029 284.101 166.095 284.058 166.101 284.007L166.244 283.015C166.337 282.368 166.431 281.719 166.517 281.07C166.566 280.698 166.611 280.326 166.654 279.953C166.781 278.83 166.871 277.706 166.88 276.581C166.904 274.144 166.888 271.706 166.855 269.268C166.824 266.891 166.775 264.514 166.726 262.138L166.687 260.241C166.632 257.46 167.208 254.538 164.464 252.365C164.182 252.142 164.098 251.659 164.08 251.12C164.061 250.652 164.093 250.141 164.083 249.72C164.001 245.946 163.925 242.17 163.851 238.397C163.753 233.459 163.654 228.523 163.539 223.586C163.535 223.379 163.503 223.173 163.453 222.965C163.345 222.518 163.152 222.06 162.941 221.564L162.847 221.34C162.688 221.23 162.597 221.007 162.566 220.89C162.554 220.421 162.503 219.989 162.41 219.584C162.337 219.271 162.24 218.975 162.119 218.693C161.734 217.796 161.089 217.041 160.162 216.319C159.744 215.993 159.421 215.474 159.185 214.884C159.064 214.58 158.966 214.257 158.889 213.932C158.787 213.482 158.725 213.028 158.703 212.616C158.665 211.911 158.662 211.205 158.673 210.498C158.684 209.779 158.714 209.058 158.744 208.338C158.804 206.835 158.863 205.333 158.769 203.84C158.632 201.698 158.24 199.425 154.996 199.444C154.248 199.448 153.197 198.703 152.794 198.023C151.46 195.76 149.664 195.687 147.372 196.716C147.272 196.992 147.165 197.261 147.062 197.523C146.853 198.048 146.654 198.548 146.537 199.04C146.469 199.318 146.428 199.593 146.427 199.868C146.402 203.597 146.396 207.325 146.398 211.054C146.402 215.026 146.416 218.998 146.43 222.97L146.437 223.808V224.011C146.447 225.667 146.458 227.28 144.343 227.907C144.264 227.93 144.152 227.973 144.126 228.035C143.939 228.491 143.744 228.944 143.548 229.397L143.091 230.443C142.223 232.416 141.359 234.391 140.777 236.441C140.447 237.606 140.531 238.879 140.617 240.154C140.637 240.498 140.662 240.844 140.676 241.188C140.688 241.447 140.695 241.704 140.693 241.96C140.667 245.688 140.322 245.975 136.56 246.064C134.505 246.112 132.454 246.36 130.277 246.658C130.085 246.823 129.999 246.869 129.829 246.963L129.781 246.991C127.74 246.996 125.816 246.93 123.656 246.836C123.286 246.755 122.947 246.649 122.628 246.549L122.31 246.452C122.042 246.372 121.789 246.306 121.54 246.272C121.384 246.25 121.232 246.242 121.08 246.252C120.097 246.314 119.382 246.144 118.898 245.733C118.396 245.306 118.144 244.62 118.099 243.665C118.027 242.107 117.936 240.548 117.847 238.991C117.748 237.29 117.649 235.591 117.574 233.891C117.499 232.27 117.025 231.084 115.332 230.277C115.068 230.152 114.824 229.9 114.616 229.587C114.46 229.351 114.325 229.08 114.222 228.802C114.08 228.425 113.994 228.035 113.984 227.704C113.957 226.652 113.941 225.599 113.931 224.546C113.915 222.944 113.915 221.34 113.915 219.737C113.914 217.366 113.914 214.994 113.863 212.624C113.847 211.813 113.412 211.011 112.958 210.179L112.683 209.667C112.397 209.616 112.299 209.613 112.059 209.577C111.583 209.469 111.249 209.393 110.873 209.418C110.599 209.543 110.368 209.566 109.963 209.575C109.142 209.528 108.332 209.477 107.527 209.427L107.404 209.418L107.302 209.411C105.185 209.278 103.126 209.146 101.07 209.092C100.043 209.065 99.0145 209.074 97.9853 209.094C97.374 209.107 96.7627 209.124 96.1494 209.142C95.4443 209.161 94.7373 209.181 94.0302 209.195C91.3115 209.244 90.1826 210.213 90.0498 212.805L90.0166 213.443C89.9697 214.321 89.9248 215.202 89.9131 216.082C89.9072 216.476 89.9092 216.869 89.9209 217.262C89.9365 217.795 89.9717 218.327 90.0322 218.857C90.4951 222.832 89.2021 226.416 87.9072 230.005C87.667 230.67 87.4267 231.335 87.1982 232.002C87.1553 232.125 87.0849 232.247 87.0146 232.367L86.9463 232.489C86.8642 232.637 86.7998 232.783 86.8096 232.928C87.0088 235.829 85.0342 237.176 83.0908 238.501C82.6142 238.825 82.1416 239.15 81.7021 239.493C79.4717 241.241 76.751 240.387 74.1553 238.565C70.5225 236.011 69.1338 232.262 67.21 228.72C66.3389 227.115 65.3545 225.476 64.0459 224.219C63.6807 223.871 63.1045 223.639 62.4814 223.511C61.8779 223.388 61.2295 223.361 60.6885 223.42C58.6025 223.649 57.8467 223.214 58.5693 221.131C58.8056 220.45 58.8193 219.64 58.7158 218.918C58.6592 218.53 58.6279 218.121 58.5693 217.729C58.4951 217.236 58.3779 216.769 58.122 216.399C57.7822 215.908 57.1943 215.588 56.126 215.61C53.0283 215.67 51.7392 216.562 51.3467 219.086C51.2881 219.454 51.2217 219.821 51.1553 220.187C51.0713 220.649 50.9873 221.111 50.9209 221.575C50.3467 225.593 49.6084 226.303 45.4853 226.283C43.1142 226.272 40.7451 226.221 38.376 226.171C35.6162 226.113 32.8584 226.054 30.0986 226.057C28.54 226.058 27.5361 225.627 26.9678 224.716C26.6143 224.149 26.4307 223.395 26.3877 222.443C26.2725 221.883 26.251 221.491 26.2705 220.905C26.3389 218.586 26.4365 216.324 26.4893 214.088C26.5322 212.2 26.542 210.331 26.4736 208.465C26.4404 207.528 25.1104 206.637 23.9287 205.879C22.9463 209.846 22.7549 213.655 23.7569 217.611C23.96 217.945 24.0127 218.16 24.0635 218.544L24.0576 218.768L24.0166 221.874C23.9971 223.604 23.9932 225.322 24.0225 227.108L24.0694 229.538V229.617C24.1768 235.118 24.2822 240.501 24.1494 245.878C24.0869 248.419 23.8838 250.957 23.6807 253.496L23.669 253.625C23.4912 255.861 23.3135 258.096 23.2334 260.334C23.167 262.242 22.0264 262.518 20.8135 262.812C20.5869 262.869 20.3721 262.92 20.1611 262.981C20.0186 263.023 19.876 263.069 19.7373 263.122C13.8565 265.394 6.33611 266.231 0.00408006 266.767L0 0H1440.49ZM1143.14 259.147C1142.69 263.06 1142.32 266.986 1141.92 270.907C1141.65 274.635 1141.42 277.723 1141.17 281.025L1142.04 281.126C1142.54 281.186 1142.93 281.234 1143.33 281.264C1144.32 281.341 1145.02 281.045 1145.41 280.344C1145.61 279.971 1145.73 279.484 1145.75 278.876L1145.77 278.538L1145.8 278.147C1145.82 277.939 1145.84 277.731 1145.85 277.523C1145.85 277.394 1145.86 277.264 1145.86 277.135V276.013C1145.86 267.411 1145.87 258.808 1145.85 250.205C1145.84 249.953 1145.83 249.701 1145.79 249.449C1145.77 249.282 1145.74 249.113 1145.69 248.945C1145.57 248.424 1145.36 247.906 1145.06 247.388C1143.61 251.205 1143.6 255.224 1143.14 259.147ZM1152.71 274.845L1152.72 276.18V277.023C1153 278.508 1153.17 279.431 1153.44 280.001C1153.56 280.261 1153.7 280.448 1153.88 280.581C1154.35 280.93 1155.09 280.913 1156.44 280.882L1156.14 278.387C1155.81 275.666 1155.49 272.956 1155.08 270.262C1155.05 270.04 1154.79 269.768 1154.5 269.57C1154.37 269.474 1154.22 269.395 1154.08 269.346C1153.95 269.302 1153.83 269.284 1153.74 269.301C1153.35 269.374 1152.81 270.202 1152.78 270.728C1152.71 272.097 1152.7 273.471 1152.71 274.845ZM174.376 274.116L174.009 274.063C173.873 274.043 173.746 274.021 173.632 273.996C173.292 277.024 173.087 279.781 173.179 282.528C173.231 284.083 173.951 284.308 177.306 284.212C176.746 280.923 176.238 277.672 175.56 274.454C175.521 274.272 174.949 274.194 174.376 274.116Z" fill="#FFEABE"/>
</svg>
