<svg width="1440" height="323" viewBox="0 0 1440 323" fill="none" xmlns="http://www.w3.org/2000/svg">
<path d="M1440 323.173H0L0.00390625 109.939C6.33594 109.403 13.8565 108.567 19.7373 106.295C19.876 106.242 20.0187 106.196 20.1611 106.154C20.3721 106.093 20.5869 106.042 20.8135 105.985C22.0264 105.691 23.167 105.415 23.2334 103.507C23.3135 101.269 23.4911 99.0338 23.6689 96.7979L23.6807 96.6689C23.8838 94.1299 24.0869 91.5918 24.1494 89.0508C24.2822 83.6739 24.1767 78.2909 24.0693 72.79V72.7109L24.0225 70.2812C23.9932 68.4953 23.9971 66.7769 24.0166 65.0469L24.0576 61.9404L24.0635 61.7168C24.0127 61.3329 23.9598 61.118 23.7568 60.7842C22.7548 56.8282 22.9463 53.0188 23.9287 49.0518C25.1103 49.8097 26.4403 50.7008 26.4736 51.6377C26.542 53.5037 26.5322 55.3728 26.4893 57.2607C26.4365 59.4967 26.3389 61.7591 26.2705 64.0781C26.251 64.664 26.2725 65.0563 26.3877 65.6162C26.4307 66.568 26.6144 67.3218 26.9678 67.8887C27.5361 68.7997 28.54 69.2305 30.0986 69.2295C32.8584 69.2265 35.6162 69.2858 38.376 69.3438C40.7451 69.3938 43.1143 69.4451 45.4854 69.4561C49.6083 69.4761 50.3467 68.7659 50.9209 64.748C50.9873 64.2842 51.0713 63.8222 51.1553 63.3604C51.2217 62.9944 51.2881 62.6268 51.3467 62.2588C51.7392 59.7349 53.0283 58.8432 56.126 58.7832C57.1943 58.7612 57.7823 59.0813 58.1221 59.5723C58.3778 59.9422 58.4952 60.4095 58.5693 60.9023C58.6279 61.2942 58.6592 61.703 58.7158 62.0908C58.8193 62.8128 58.8056 63.6227 58.5693 64.3037C57.8467 66.3867 58.6025 66.8218 60.6885 66.5928C61.2295 66.5338 61.8779 66.5606 62.4814 66.6836C63.1045 66.8116 63.6807 67.0437 64.0459 67.3916C65.3544 68.6485 66.3389 70.2877 67.21 71.8926C69.1338 75.4346 70.5225 79.1843 74.1553 81.7383C76.7509 83.5602 79.4718 84.4139 81.7021 82.666C82.1416 82.323 82.6142 81.9978 83.0908 81.6738C85.0342 80.3488 87.0088 79.0016 86.8096 76.1006C86.7999 75.9557 86.8643 75.81 86.9463 75.6621L87.0146 75.54C87.0849 75.42 87.1553 75.2978 87.1982 75.1748C87.4267 74.5078 87.667 73.8427 87.9072 73.1777C89.2021 69.5889 90.495 66.0051 90.0322 62.0303C89.9717 61.5003 89.9365 60.9676 89.9209 60.4346C89.9092 60.0417 89.9072 59.6488 89.9131 59.2549C89.9248 58.375 89.9697 57.4941 90.0166 56.6162L90.0498 55.9775C90.1827 53.3858 91.3117 52.4172 94.0303 52.3682C94.7374 52.3542 95.4443 52.3335 96.1494 52.3145C96.7627 52.2965 97.3741 52.2796 97.9854 52.2666C99.0145 52.2466 100.043 52.2377 101.069 52.2646C103.125 52.3186 105.185 52.451 107.302 52.584L107.403 52.5908L107.526 52.5996C108.331 52.6496 109.142 52.701 109.964 52.748C110.368 52.739 110.598 52.7156 110.872 52.5908C111.248 52.5658 111.583 52.642 112.06 52.75C112.3 52.786 112.398 52.7888 112.683 52.8398L112.957 53.3516C113.411 54.1836 113.846 54.9859 113.862 55.7969C113.913 58.1669 113.913 60.5392 113.914 62.9102C113.914 64.513 113.915 66.1169 113.931 67.7188C113.941 68.7718 113.956 69.825 113.983 70.877C113.993 71.2079 114.08 71.5977 114.222 71.9746C114.326 72.2525 114.459 72.5238 114.616 72.7598C114.823 73.0727 115.067 73.3252 115.331 73.4502C117.024 74.2571 117.498 75.4427 117.573 77.0635C117.649 78.7635 117.748 80.4631 117.847 82.1641C117.937 83.721 118.027 85.28 118.099 86.8379C118.144 87.7929 118.395 88.4793 118.897 88.9062C119.381 89.3171 120.096 89.4867 121.079 89.4248C121.231 89.4148 121.383 89.4234 121.539 89.4453C121.788 89.4793 122.042 89.545 122.31 89.625L122.628 89.7217C122.947 89.8216 123.286 89.9278 123.655 90.0088C125.815 90.1028 127.739 90.1691 129.78 90.1641L129.829 90.1357C129.998 90.0418 130.084 89.9959 130.276 89.8311C132.454 89.5331 134.505 89.2853 136.56 89.2373C140.322 89.1483 140.666 88.8608 140.692 85.1328C140.694 84.877 140.689 84.6201 140.677 84.3613C140.662 84.0174 140.637 83.6711 140.616 83.3271C140.53 82.0523 140.447 80.7792 140.776 79.6143C141.358 77.5643 142.224 75.5892 143.091 73.6162L143.548 72.5703C143.744 72.1173 143.939 71.664 144.126 71.208C144.152 71.146 144.265 71.1031 144.343 71.0801C146.193 70.5314 146.416 69.2275 146.437 67.8008V66.9805L146.431 66.1426C146.417 62.1707 146.401 58.1985 146.397 54.2266C146.395 50.4977 146.402 46.7699 146.427 43.041C146.429 42.766 146.469 42.4909 146.536 42.2129C146.653 41.721 146.853 41.2212 147.062 40.6963C147.165 40.4343 147.272 40.1647 147.372 39.8887C149.663 38.8597 151.46 38.9333 152.794 41.1963C153.197 41.876 154.247 42.6209 154.995 42.6172C158.239 42.5982 158.632 44.8707 158.769 47.0127C158.863 48.5057 158.803 50.0078 158.743 51.5107C158.713 52.2307 158.685 52.9519 158.673 53.6709C158.662 54.3779 158.664 55.0841 158.702 55.7891C158.725 56.2009 158.787 56.6547 158.89 57.1045C158.966 57.4294 159.064 57.7527 159.185 58.0566C159.421 58.6466 159.743 59.1662 160.161 59.4922C161.088 60.2142 161.733 60.9692 162.118 61.8662C162.239 62.1481 162.336 62.4439 162.409 62.7568C162.502 63.1617 162.553 63.5936 162.565 64.0625C162.596 64.1795 162.689 64.4027 162.847 64.5127L162.94 64.7373C163.151 65.2331 163.344 65.6909 163.452 66.1377C163.502 66.3457 163.534 66.5518 163.538 66.7588C163.653 71.6958 163.753 76.6323 163.851 81.5703C163.925 85.3431 164 89.1188 164.082 92.8926C164.092 93.3136 164.061 93.825 164.079 94.293C164.098 94.8319 164.183 95.3151 164.464 95.5381C167.208 97.7111 166.632 100.633 166.687 103.414L166.726 105.311C166.775 107.686 166.823 110.064 166.854 112.44C166.887 114.878 166.904 117.317 166.88 119.754C166.871 120.879 166.78 122.003 166.653 123.126C166.61 123.499 166.566 123.871 166.517 124.243C166.431 124.892 166.336 125.541 166.243 126.188L166.101 127.18C166.095 127.231 166.029 127.274 165.921 127.312C165.835 127.342 165.724 127.37 165.597 127.395C165.427 127.429 165.229 127.461 165.028 127.494L164.905 127.514C164.768 127.537 164.632 127.558 164.503 127.583C164.103 127.615 163.875 127.653 163.565 127.813C163.383 127.817 163.207 127.813 163.034 127.803C162.498 127.771 161.995 127.682 161.479 127.578L161.464 127.568L161.414 127.557C161.379 127.553 161.338 127.546 161.289 127.524C161.083 127.4 161.01 127.291 160.985 127.119C160.989 127.081 160.932 127.031 160.743 127.045L160.554 127.135C157.863 128.422 155.326 129.631 152.228 128.632C152.193 128.626 152.144 128.627 152.099 128.638C152.064 128.646 152.029 128.659 152.001 128.678C151.949 128.714 151.915 128.773 151.94 128.862C152.5 133.109 152.079 133.799 148.19 135.521L151.366 138.178C152.313 138.969 153.272 139.762 154.239 140.544C154.479 140.741 154.821 140.83 155.155 140.917C155.254 140.942 155.352 140.967 155.446 140.996C155.924 141.138 156.41 141.273 156.892 141.408L156.974 141.431C157.519 141.584 158.062 141.734 158.603 141.896C158.962 142.003 159.322 142.117 159.677 142.237C161.941 143.001 163.65 144.104 163.433 146.904C163.41 147.213 163.557 147.543 163.788 147.875C164.012 148.202 164.314 148.531 164.603 148.847L164.884 149.157L165.048 149.346C165.207 149.534 165.383 149.705 165.573 149.868C165.745 150.017 165.925 150.16 166.104 150.302C166.309 150.462 166.51 150.624 166.7 150.793C166.694 150.795 166.691 150.8 166.692 150.806C166.696 150.822 166.733 150.845 166.829 150.845C166.948 150.869 167.038 150.901 167.104 150.944C167.211 151.011 167.262 151.105 167.288 151.228C167.288 151.237 167.297 151.246 167.323 151.258C167.352 151.273 167.401 151.293 167.487 151.325C167.723 151.431 167.958 151.57 168.179 151.701C168.598 151.949 168.967 152.167 169.192 152.07C169.975 151.734 170.762 151.393 171.536 151.028C172.629 150.509 173.699 149.941 174.683 149.269C175.081 148.996 175.23 148.409 175.382 147.8C175.48 147.406 175.583 147.002 175.755 146.671C175.853 146.487 175.949 146.295 176.044 146.103C176.476 145.233 176.928 144.319 177.657 143.835C178.899 143.011 180.459 142.499 181.957 142.203C184.286 141.745 186.075 140.79 187.024 138.578C187.051 138.559 187.072 138.499 187.101 138.321C187.714 138.037 188.32 137.785 188.933 137.552C189.764 137.234 190.606 136.952 191.489 136.669C191.604 136.672 191.827 136.599 191.854 136.474L191.864 136.443C191.883 136.38 191.901 136.329 191.909 136.282C191.922 136.195 191.903 136.125 191.821 136.018C191.413 135.85 191.006 135.713 190.616 135.581C189.84 135.318 189.121 135.075 188.554 134.642C187.613 133.922 186.225 132.69 186.362 131.892C186.538 130.863 186.405 130.218 186.069 129.8C185.559 129.17 184.581 129.061 183.479 128.939L183.396 128.93C180.134 128.569 179.501 127.796 179.353 124.526C179.285 123.02 179.172 121.502 178.899 120.022C178.367 117.127 178.853 116.399 181.856 116.015C183.446 115.812 184.467 115.543 185.116 114.991C185.907 114.316 186.142 113.219 186.177 111.308L186.233 108.463C186.289 105.796 186.348 103.13 186.356 100.463C186.377 92.2249 186.371 83.987 186.347 75.749L186.329 72.6846C186.319 71.1827 186.306 69.6806 186.292 68.1787C186.257 64.0568 186.221 59.9354 186.247 55.8154C186.259 54.0025 189.968 51.517 191.919 51.96C194.385 52.5191 194.354 54.4499 194.239 56.3857C194.213 56.8437 194.216 57.3018 194.226 57.7617L194.239 58.2236L194.241 58.3066V58.4004C194.252 58.8123 194.267 59.2258 194.255 59.6367C194.208 61.6177 195.062 62.618 197.228 62.415C199.498 62.2051 200.268 63.3307 200.276 65.4414C200.284 67.4604 200.387 69.48 200.489 71.499C200.557 72.8379 200.626 74.1758 200.667 75.5146C200.714 77.0145 201.436 77.597 202.95 77.5781L204.503 77.5586L208.911 77.5176C212.748 77.4856 216.587 77.4526 220.421 77.3506C220.921 77.3361 221.813 76.3725 221.815 75.8467C221.832 71.9089 221.829 67.97 221.774 64.0332C221.741 61.6772 221.688 59.3228 221.61 56.9678C221.553 55.2488 221.587 53.9135 223.253 52.8545C223.824 52.4912 224.155 51.4082 224.164 50.6475C224.233 46.4577 224.237 42.2679 224.241 38.0791L224.243 33.7783C224.241 33.4663 224.241 33.1538 224.246 32.8428C224.25 32.6439 224.258 32.445 224.272 32.2461C224.42 30.1662 225.784 29.2078 227.745 29.2646C229.776 29.3216 230.304 30.6591 230.001 32.4551C229.917 32.9519 229.939 33.4657 229.96 33.9785L229.976 34.4697L230.972 85.1465C230.98 85.5205 230.965 85.9013 230.952 86.2812C230.918 87.1841 230.886 88.0883 231.14 88.9082C231.408 89.7792 232.341 90.957 233.136 91.085C236.109 91.564 236.884 93.4582 237.185 95.9941C237.24 96.0631 237.29 96.1181 237.345 96.1631L237.407 96.208C237.504 96.273 237.63 96.3137 237.813 96.3477C239.248 97.4247 240.498 98.4853 241.534 99.3643C243.045 98.2753 244.503 97.2246 246.056 96.0996C246.152 96.0235 246.269 95.8117 246.261 95.6309C246.66 95.0719 247.062 94.5565 247.468 94.0615C247.871 93.5747 248.277 93.1057 248.692 92.6309C248.707 92.6209 248.716 92.6001 248.724 92.5684L248.737 92.5059L248.778 92.3516C248.879 92.2216 248.973 92.0906 249.063 91.9736C249.241 91.7409 249.405 91.5612 249.582 91.5459C250.504 91.4749 251.148 91.2314 251.591 90.8584C252.463 90.1224 252.564 88.8798 252.511 87.4561C252.486 86.7651 252.469 86.0739 252.457 85.3809C252.444 84.4749 252.44 83.569 252.442 82.6631C252.444 82.0691 252.45 81.4758 252.457 80.8828C252.465 80.1378 252.479 79.3924 252.493 78.6484C252.516 77.4717 252.496 76.4748 252.481 75.627C252.444 73.649 252.425 72.4856 252.976 71.7646C253.763 70.7358 255.716 70.6096 260.462 70.3057L260.565 70.2988C261.219 70.2568 262.286 69.3709 262.349 68.7959C262.57 66.7379 262.482 64.6434 262.435 62.5654C262.339 58.4369 262.743 57.9454 266.905 57.3984L267.058 57.377L267.41 57.3203L267.619 57.2842L267.912 57.2402C268.092 57.2163 268.272 57.2002 268.451 57.1992C270.59 57.1832 272.224 57.8333 272.478 60.1953C272.652 61.842 273.136 63.1478 275.284 63.0439C275.377 63.0399 275.473 63.0692 275.571 63.1191C275.737 63.2041 275.903 63.35 276.073 63.502L276.108 63.5322C276.237 63.6511 276.367 63.7722 276.496 63.8701C276.5 63.8811 276.515 63.8846 276.542 63.8945C276.576 63.9075 276.634 63.9277 276.728 63.9824C276.919 64.9213 277.035 65.8356 277.151 66.7324L277.155 66.7549C277.252 67.5129 277.35 68.259 277.487 68.999C277.573 69.462 277.737 70.0991 277.948 70.5811C278.112 70.956 278.304 71.2366 278.505 71.2686C279.167 71.3716 279.666 71.5831 280.071 71.876C280.754 72.371 281.169 73.0978 281.64 73.9258L281.735 74.0977C282.25 75.0025 283.721 75.6334 284.871 75.8535C285.139 75.9055 285.474 75.4675 285.847 74.9795C286.13 74.6096 286.434 74.2106 286.748 73.9736C287.176 73.6527 287.621 73.2782 288.08 72.9463C288.705 72.4923 289.355 72.1165 290.013 72.0645C292.376 71.8774 293.218 70.9115 293.183 68.7275C293.109 64.2748 293.185 59.82 293.134 55.3662C293.126 54.6333 293.074 53.9 293.024 53.166L293.009 52.9805C292.984 52.6217 292.958 52.262 292.937 51.9033C292.884 51.0473 292.859 50.1947 292.921 49.3467C292.968 48.6966 294.156 47.5466 294.716 47.6016C297.515 47.8806 300.299 48.2947 303.155 48.7207L304.819 48.9668L306.427 49.2012C306.853 49.1862 307.095 49.1604 307.47 49.0225C308.685 48.6095 309.807 48.2767 310.991 47.9248L311.64 47.7314C311.844 47.6345 311.923 47.588 312.046 47.3682C312.158 46.5622 312.283 45.7769 312.405 45.0039C312.641 43.4889 312.855 42.0237 312.876 40.5557C312.909 38.4208 313.456 37.258 315.929 37.165C317.422 37.11 318.924 36.6233 320.371 36.1523L320.669 36.0557C321.958 35.6397 323.245 35.2191 324.526 34.7861C325.33 34.5131 326.134 34.2371 326.935 33.9541C328.173 33.5161 329.406 33.0629 330.626 32.5879C330.87 32.4939 331.097 32.3261 331.306 32.1162C331.714 31.7062 332.051 31.1404 332.322 30.6504C333.621 28.3195 335.302 26.5558 338.187 26.1729C342.841 25.5579 347.47 24.6618 352.144 24.3438L352.554 24.3154C355.429 24.1134 358.469 23.9002 360.869 26.417C362.25 27.864 365.791 27.3115 367.197 25.8145C369.571 23.2895 375.288 23.3504 377.763 25.7354C378.165 26.1232 378.642 26.4385 379.14 26.7324L379.583 26.9824L379.794 27.1025C380.48 27.4865 381.167 27.8709 381.729 28.3809C381.985 28.6128 382.244 28.8706 382.49 29.1455C382.674 29.3495 382.851 29.5632 383.011 29.7842C383.435 30.3661 383.757 30.9945 383.849 31.6104C383.962 32.3801 384.043 33.1559 384.108 33.9326C384.182 34.8116 384.235 35.6942 384.287 36.5762C384.381 38.1631 384.477 39.7494 384.696 41.3213C384.788 41.9732 386.199 42.9105 387.026 42.9326C387.41 42.9436 387.798 42.952 388.185 42.957C388.91 42.967 389.637 42.9698 390.364 42.9668C391.332 42.9638 392.302 42.9524 393.271 42.9414C396.139 42.9074 399.006 42.8727 401.86 43.0527C404.584 43.2247 405.37 42.0785 405.429 39.9805C405.476 38.2777 405.521 36.568 405.505 34.8623C405.493 33.4594 405.439 32.059 405.312 30.666C404.962 26.8231 405.441 26.0814 409.285 26.0693C410.688 26.0653 412.097 26.0126 413.503 25.9756C415.677 25.9186 417.847 25.9003 419.981 26.1533C424.125 26.6433 426.105 24.3255 427.462 21.3945C428.573 18.9931 430.284 19.2385 431.986 19.4814C432.504 19.5554 433.021 19.6299 433.517 19.6299C435.603 19.6309 436.537 20.9231 436.781 22.8721C437.096 25.374 440.148 27.9465 442.638 27.8965C442.857 27.8925 443.146 27.8495 443.382 27.7686C443.577 27.7026 443.739 27.6091 443.796 27.4922C444.124 26.7982 444.66 26.2254 445.197 25.6504C446.143 24.6405 447.092 23.626 446.938 21.9463C446.793 20.3694 447.789 19.4612 449.701 19.3301C451.045 19.2381 452.367 18.9043 453.693 18.5693L453.759 18.5537C454.374 18.3987 454.989 18.2442 455.606 18.1152L456.007 18.0254C456.28 17.9614 456.555 17.8984 456.828 17.8574C456.975 17.8344 457.12 17.8195 457.265 17.8125C457.385 17.8065 457.504 17.8065 457.621 17.8154L460.785 18.0459C464.848 18.3379 468.9 18.6294 472.929 19.1074C476.171 19.4914 479.227 20.579 481.412 23.3818C481.604 23.4898 481.688 23.5213 481.951 23.5732C488.682 27.6522 494.034 33.0042 499.298 38.4502C499.411 38.5682 499.458 38.7479 499.503 38.9316L499.527 39.0371L499.565 39.1602C499.564 39.1649 499.567 39.166 499.591 39.166L499.81 39.168C503.926 39.8609 505.828 37.1581 507.315 34.6143C509.367 31.1004 512.564 29.6093 516.236 28.5273L516.257 28.4961C516.267 28.4691 516.283 28.4208 516.322 28.3418C516.506 28.3018 516.694 28.256 516.882 28.21C517.675 28.015 518.468 27.8201 519.04 28.0791C520.661 28.813 522.286 29.553 523.884 30.3379C524.989 30.8818 526.081 31.4479 527.148 32.0479C527.656 32.3338 528.16 32.6277 528.654 32.9307C529.986 33.7457 530.911 35.347 531.722 36.752C532.96 38.9028 534.12 40.8335 536.814 41.7715C538.012 42.1875 539.024 43.0963 540.061 44.0273C540.516 44.4353 540.977 44.8467 541.46 45.2246C541.503 45.2736 541.599 45.3227 541.714 45.3477C541.776 45.3626 541.844 45.3711 541.91 45.3682L542.236 45.4658L542.277 45.4775C542.656 45.5945 543.013 45.7032 543.343 45.8262C543.661 45.9441 543.958 46.0773 544.232 46.2402C544.592 46.4542 544.946 46.6772 545.298 46.9082C545.737 47.1961 546.174 47.4941 546.611 47.79C547.17 48.171 547.729 48.5521 548.296 48.9131C549.321 49.5639 550.371 50.1498 551.492 50.5508C554.642 51.6788 556.622 53.7536 557.999 56.3525C559.593 59.3595 562.213 60.2723 565.275 60.9863C566.357 61.2383 567.346 61.9228 568.314 62.5938C568.576 62.7757 568.837 62.956 569.097 63.127C569.485 63.3819 569.851 63.7312 570.212 64.0762L570.474 64.3232C570.616 64.4552 570.758 64.5823 570.9 64.7002C571.285 65.0162 571.677 65.2585 572.101 65.3115C574.991 65.6735 577.094 67.2608 579.189 68.8428C579.701 69.2297 580.211 69.6155 580.734 69.9834C581.08 70.2264 581.431 70.4625 581.79 70.6855C583.103 71.4985 584.388 72.3586 585.665 73.2266L586.818 74.0137C588.393 75.0907 589.968 76.1667 591.587 77.1797C591.872 77.3576 592.364 77.3941 592.847 77.3291C593.266 77.2711 593.68 77.1352 593.939 76.9473C594.35 76.6503 594.754 76.346 595.154 76.0391C596.215 75.2211 597.248 74.3676 598.283 73.5137L598.4 73.4199C599.033 72.898 599.667 72.3743 600.308 71.8613C600.645 71.5903 600.989 71.2792 601.335 70.9482C601.612 70.6793 601.894 70.3991 602.175 70.1191C603.595 68.7022 605.019 67.2785 606.275 67.4033C610.568 67.8303 613.5 65.993 616.621 64.0371L616.699 63.9883C616.684 63.9783 616.687 63.9916 616.701 63.9688C616.709 63.9538 616.723 63.9178 616.73 63.8408C616.797 63.6769 616.86 63.5172 616.917 63.3623L616.941 63.2979C617.15 62.743 617.334 62.2529 617.656 61.876C618.582 60.796 619.51 59.7185 620.441 58.6445C622.217 56.5986 624.005 54.5629 625.812 52.543C627.128 51.076 628.462 49.6239 629.796 48.1729C632.077 45.6909 634.357 43.2075 636.537 40.6445C637.598 39.3985 638.608 38.1135 639.599 36.8115C641.052 34.9036 642.462 32.9604 643.927 31.0615C644.1 30.8356 644.278 30.6096 644.462 30.3877C644.583 30.2408 644.706 30.0941 644.833 29.9521C645.081 29.6733 645.342 29.407 645.621 29.1641C648.183 26.9311 650.954 24.8989 653.339 22.5049C657.104 18.725 663.221 19.0333 666.406 23.4463C666.709 23.5743 666.885 23.6351 667.275 23.6631C667.998 23.6871 668.556 23.6422 669.017 23.8262C670.708 24.4982 672.397 25.1803 674.083 25.8633C675.446 26.4142 676.809 26.9638 678.175 27.5098C680.138 28.2937 682.106 29.0675 684.085 29.8145C684.893 30.1203 686.526 30.0079 686.892 29.4971C688.2 27.6711 689.918 27.4562 691.861 27.5762C691.863 27.5722 691.904 27.5857 691.951 27.4609C694.764 25.387 697.572 23.3597 700.367 21.3438C703.502 19.0828 706.624 16.8376 709.716 14.5586C715.604 10.2168 722.263 7.83206 729.738 6.87305C730.232 6.72708 730.719 6.58903 731.195 6.45605C732.01 6.22406 732.798 6.0009 733.561 5.75391C733.794 5.67891 734.022 5.60148 734.251 5.52148C734.579 5.40655 734.903 5.28521 735.224 5.1543C737.218 4.33732 739.205 3.50499 741.191 2.66602C742.805 1.98406 744.418 1.29826 746.027 0.612305L746.919 0.608398H746.938C748.992 0.605398 750.059 0.603719 750.628 1.13672C751.241 1.71174 751.277 2.90793 751.355 5.39062C752.191 6.02362 753.557 6.50714 753.677 7.24414C754.102 9.88186 755.602 9.93407 757.331 9.99707L757.637 10.0068C758.473 10.0408 759.207 9.79453 759.902 9.43457C760.371 9.19157 760.822 8.89754 761.273 8.60254L761.298 8.58496C762.274 7.94606 763.25 7.3048 764.41 7.17871C764.801 7.13671 765.182 5.8694 765.391 5.1084C765.444 4.91965 765.483 4.72697 765.512 4.53125L765.552 4.24707L765.57 4.05078C765.592 3.82588 765.61 3.59704 765.628 3.36914C765.643 3.13914 765.659 2.90962 765.682 2.68262C765.796 1.54382 765.879 0.930733 766.193 0.59375C766.515 0.24775 767.083 0.193203 768.175 0.158203C769.393 0.118211 770.616 0.126719 771.845 0.136719C772.393 0.140719 772.946 0.145508 773.503 0.145508C773.573 0.350508 773.638 0.581289 773.703 0.821289L773.85 1.39258C774.087 2.32338 774.314 3.22584 774.654 3.28418C776.306 3.56418 776.652 4.82195 777.021 6.16895C777.09 6.41593 777.158 6.66605 777.236 6.91504C777.312 7.15902 777.399 7.40081 777.501 7.63379H799.434C799.487 8.18179 799.542 8.69187 799.596 9.17188L799.613 9.32227L799.626 9.40723C799.735 10.4161 799.837 11.3073 799.848 12.2012C799.872 13.984 799.876 15.7679 799.874 17.5518C799.872 19.7467 799.864 21.9418 799.88 24.1367C799.884 24.7257 799.947 25.3161 800.027 26.0391C800.07 26.415 800.115 26.828 800.158 27.2959H809.285L810.72 27.3027L812.042 27.3135C814.143 27.3335 816.251 27.3556 818.35 27.2676C818.555 27.2586 818.761 27.254 818.966 27.252C819.264 27.25 819.564 27.2547 819.865 27.2637C820.291 27.2767 820.72 27.2954 821.145 27.3164C822.29 27.3694 823.438 27.4231 824.581 27.3281C825.477 27.2521 826.37 27.0849 827.257 26.7539L827.744 9.77539C832.021 10.9824 834.2 8.30687 836.251 4.96387L843.855 5.70703C844.008 6.05894 844.099 6.45579 844.191 6.84668L844.197 6.87109L844.201 6.89746C844.435 7.92946 844.663 8.91715 845.878 8.95215C848.048 9.01313 850.216 9.00028 852.41 8.98828C853.332 8.98228 854.258 8.97559 855.189 8.97559C855.224 8.67086 855.25 8.41806 855.271 8.2002C855.312 7.78528 855.344 7.49397 855.396 7.20703C855.418 7.09605 855.444 6.98694 855.471 6.87695C855.512 6.7061 855.562 6.53613 855.613 6.36328L855.617 6.34766L855.732 5.94141C862.703 4.93441 869.408 6.17716 876.066 7.41016L878.279 7.81641C879.939 8.11741 881.598 8.40179 883.259 8.63379C883.374 8.92879 883.467 9.24792 883.553 9.54492L883.559 9.5625C883.729 10.1415 883.871 10.6332 884.107 10.6963C886.175 11.2433 886.434 13.1067 886.675 14.8506L886.693 14.9902L886.887 15.0811L887.126 15.2061C887.36 15.3329 887.544 15.4333 887.73 15.4434C890.289 15.5904 892.93 15.3151 894.805 17.9941C895.126 18.4509 895.966 18.7024 896.535 18.6455C897.433 18.5545 898.285 18.6927 899.117 18.9316C899.789 19.1246 900.449 19.3846 901.111 19.6455L901.13 19.6523C902.52 20.1993 903.919 20.7484 905.464 20.6914C908.065 20.5925 908.782 22.2019 908.725 25.3125C908.712 26.1335 908.738 26.9561 908.779 27.7871C908.8 28.236 908.827 28.6883 908.854 29.1592C908.888 29.755 908.923 30.3588 908.951 30.9727C916.607 35.3296 924.406 34.2901 932.533 32.2852V60.2979L939.137 60.8691L939.473 65.5078L947.79 65.0361L948.32 60.5244C948.539 60.4834 948.721 60.4441 948.881 60.4111C949.087 60.3682 949.258 60.3342 949.43 60.3232C952.866 60.0832 953.052 59.7216 952.562 55.9756C952.411 54.8197 952.449 53.6317 952.488 52.4258C952.505 51.8728 952.525 51.3158 952.525 50.7559L958.268 49.9619L958.264 48.8633C958.258 48.2073 958.252 47.6726 958.273 47.1396C958.365 44.6708 959.089 43.6843 961.264 43.7773C962.727 43.8384 964.182 44.1 965.721 44.376C966.423 44.502 967.139 44.6311 967.883 44.7471C967.883 45.627 967.887 46.5012 967.891 47.3682L967.893 48.2061L967.898 48.8516C967.904 50.2225 967.908 51.5807 967.904 52.9307C967.898 54.0446 967.886 55.1547 967.861 56.2637L967.857 56.3916C967.802 58.9686 967.801 59.0058 970.089 59.1318C971.163 59.1918 972.237 59.2553 973.314 59.3213L979.766 59.7275C980.024 63.5004 979.98 67.2276 979.938 70.9365C979.924 72.1785 979.91 73.4192 979.906 74.6592C979.9 77.5761 979.958 80.4892 980.229 83.4131H984.314C987.203 85.863 988.006 88.8306 987.708 92.4824C987.596 93.8404 987.571 95.2081 987.581 96.5801C987.59 98.2529 987.653 99.9327 987.673 101.605C987.678 102.027 987.738 102.449 987.814 102.91L987.915 103.494L987.926 103.55C987.956 103.732 987.987 103.92 988.014 104.121L988.771 104.032C996.24 103.157 1003.53 102.304 1010.68 98.7334C1010.74 98.3795 1010.84 97.9267 1010.94 97.418C1011.05 96.8261 1011.15 96.1572 1011.18 95.4854L1011.29 93.1348V93.0908C1011.47 88.8988 1011.65 84.7044 1011.85 80.5244C1012.23 72.6177 1012.11 64.6799 1012 56.7422C1011.95 53.4412 1011.9 50.1408 1011.88 46.8428V35.1562L1012.57 35.0205C1012.61 35.1105 1012.65 35.201 1012.7 35.29L1012.83 35.5186C1013.03 35.8725 1013.23 36.2278 1013.25 36.5908C1013.36 39.3108 1013.4 42.0349 1013.48 44.7549C1013.54 46.8168 1013.62 48.8748 1013.76 50.9287C1013.81 51.5747 1013.77 52.2488 1013.73 52.9287C1013.68 53.8037 1013.63 54.6883 1013.76 55.5283C1013.91 56.549 1014.33 57.5059 1015.33 58.3057C1015.56 58.4957 1015.57 59.097 1015.57 59.623V59.9688C1015.61 61.1376 1015.58 62.3086 1015.59 63.4795C1015.62 67.0924 1015.77 67.3015 1018.91 67.3125C1025.57 67.3365 1032.23 67.3255 1038.88 67.3145L1040.48 67.3125C1040.88 67.3115 1041.27 67.2689 1041.79 67.2119C1042.07 67.1809 1042.39 67.1472 1042.75 67.1143L1043.62 54.917H1049.02C1049.04 56.8069 1049.05 57.7041 1049.47 58.29C1049.62 58.4889 1049.81 58.6518 1050.07 58.8047C1050.5 59.0617 1051.11 59.2941 1051.98 59.623C1051.75 61.502 1052.58 62.9683 1053.42 64.4463C1053.86 65.2281 1054.3 66.0144 1054.59 66.8662C1054.8 67.4681 1054.93 68.1031 1054.93 68.793C1054.93 68.9609 1055.15 69.1339 1055.36 69.3008C1055.44 69.3638 1055.52 69.4244 1055.58 69.4854C1055.99 69.8671 1056.42 70.2328 1056.85 70.5996C1057.63 71.2786 1058.42 71.9616 1059.08 72.7666C1061.49 75.6705 1064.84 75.8747 1067.23 72.8467C1068.45 71.3058 1069.61 69.9881 1071.86 70.168V69.7461L1071.85 68.9648V68.9268C1071.84 68.5288 1071.84 68.1435 1071.84 67.7686C1071.84 67.3377 1071.86 66.9198 1071.89 66.5029C1071.91 66.3219 1071.93 66.1067 1071.97 65.8896C1072.07 65.3537 1072.23 64.8066 1072.47 64.7256C1074.07 64.1735 1073.66 62.7784 1073.74 61.5645C1073.75 61.4246 1073.75 61.2797 1073.75 61.1299C1073.75 60.934 1073.74 60.7312 1073.73 60.5293C1073.72 60.1953 1073.71 59.8608 1073.72 59.5518C1073.74 59.1299 1073.82 58.7561 1074.01 58.4941C1075.06 57.0762 1075.02 55.54 1074.99 53.998C1074.98 53.604 1074.97 53.2084 1074.98 52.8164C1075.05 49.5947 1075.09 46.373 1075.14 43.0312L1075.21 38.5312C1075.55 38.5312 1075.89 38.5265 1076.22 38.5195C1076.66 38.5105 1077.09 38.4984 1077.51 38.4854L1077.58 38.4814C1079.25 38.4295 1080.8 38.3807 1082.32 38.5996C1082.89 38.6816 1083.43 38.6211 1083.97 38.4961C1084.37 38.4041 1084.76 38.2745 1085.16 38.1455L1085.19 38.1367C1086.39 37.7457 1087.6 37.3486 1089.01 37.8936C1089.32 38.0105 1089.63 38.0962 1089.95 38.1572C1091.09 38.3712 1092.33 38.269 1093.58 38.166C1094.29 38.108 1095 38.0488 1095.71 38.0488C1095.76 40.2128 1095.82 42.347 1095.88 44.458C1096.03 49.397 1096.17 54.2152 1096.21 59.0361V59.5518C1096.23 62.8286 1096.23 62.8628 1099.24 63.5547L1100.07 81.3662L1101.24 81.373C1101.99 81.378 1102.67 81.3844 1103.35 81.3604C1107.4 81.2164 1111.45 81.0342 1115.5 80.9062C1116.35 80.8783 1117.21 80.8865 1118.06 80.8955L1118.79 80.9023L1119.33 80.9043C1119.82 80.9043 1120.32 80.8979 1120.81 80.8789C1122.85 80.8019 1123.12 80.3039 1123.04 78.1689C1122.99 76.6499 1122.95 75.1274 1122.92 73.6064C1122.9 72.3666 1122.88 71.1256 1122.87 69.8848L1122.83 66.2812C1122.82 66.2113 1122.84 66.1432 1122.87 66.0703C1122.9 66.0093 1122.93 65.9459 1122.97 65.8779L1122.99 65.8486L1123 65.8369L1123.01 65.8135C1123.05 65.7446 1123.09 65.6716 1123.12 65.5938L1125.85 64.7021C1125.85 64.3593 1125.84 64.0251 1125.84 63.6973C1125.82 62.9263 1125.81 62.1927 1125.88 61.4688C1125.9 61.2079 1125.95 60.881 1126.02 60.5762C1126.12 60.1182 1126.27 59.7059 1126.48 59.6328C1128.44 58.9468 1128.4 57.33 1128.35 55.7061C1128.34 55.4962 1128.34 55.2851 1128.34 55.0752L1128.25 42.8896C1128.21 37.4757 1128.17 32.0623 1128.14 26.6494V26.2598L1128.15 26.0596L1128.16 25.6709C1128.17 25.3679 1128.18 25.0638 1128.2 24.7588L1128.22 24.2988C1128.24 23.9509 1128.26 23.6 1128.27 23.248C1128.59 23.2241 1128.86 23.1988 1129.11 23.1758L1129.63 23.1318C1129.8 23.1188 1129.96 23.1076 1130.12 23.1016C1130.24 23.0966 1130.36 23.0937 1130.48 23.0947C1130.6 23.0957 1130.73 23.1004 1130.85 23.1084C1131.32 23.1374 1131.77 23.2071 1132.17 23.2461C1132.31 23.5429 1132.38 23.8657 1132.43 24.1914C1132.46 24.3654 1132.48 24.5399 1132.5 24.7129C1132.54 25.0009 1132.57 25.283 1132.63 25.542C1132.77 26.1559 1133.08 26.6447 1133.91 26.8066C1134.44 26.9106 1134.96 27.0283 1135.5 27.1543L1136.34 27.3535C1136.75 27.4525 1137.17 27.5543 1137.61 27.6543C1137.7 29.165 1137.73 30.6767 1137.73 32.1895C1137.73 32.9995 1137.73 33.8111 1137.72 34.6211C1137.7 38.699 1137.68 42.7709 1138.46 46.8008L1140.81 47.0176C1142.73 49.8765 1142.73 52.9698 1142.73 56.0527C1142.73 56.6717 1142.73 57.2912 1142.74 57.9092C1142.82 61.0361 1142.94 64.1603 1143.06 67.2852C1143.13 69.055 1143.2 70.8258 1143.26 72.5967C1143.49 79.4957 1143.33 86.3514 1142.27 93.1934C1141.57 97.6832 1141.06 102.21 1140.55 106.735L1140.42 107.904C1140.29 109.119 1140.15 110.332 1140.01 111.544C1139.5 115.907 1139.05 120.277 1138.58 124.513L1130.49 126.263C1130.54 126.534 1130.57 126.741 1130.6 126.902C1130.64 127.156 1130.66 127.297 1130.73 127.395C1132.81 130.295 1132.5 131.266 1129.19 132.138C1128.43 132.338 1127.69 132.576 1126.94 132.814L1126.85 132.841C1126.5 132.955 1126.15 133.068 1125.79 133.177L1125.83 133.923C1126.23 134.109 1126.63 134.292 1127.03 134.473L1127.24 134.567C1128.47 135.129 1129.71 135.692 1130.93 136.296C1131.09 136.376 1131.28 136.475 1131.47 136.585C1131.91 136.842 1132.33 137.159 1132.34 137.43C1132.35 139.413 1133.5 139.854 1134.66 140.295C1134.95 140.403 1135.23 140.511 1135.5 140.642C1136.08 140.928 1136.67 141.204 1137.27 141.479L1138.05 141.846C1139.02 142.304 1139.99 142.776 1140.93 143.31C1141.78 143.797 1142.45 144.687 1143.26 145.449L1141.19 148.605L1147.5 152.8C1148.64 155.306 1148.46 158.742 1148.28 162.227L1148.25 162.939C1148.53 162.939 1148.8 162.94 1149.25 162.618C1149.33 161.561 1149.33 160.518 1149.33 159.488V159.362C1149.33 158.232 1149.33 157.12 1149.43 156.021C1149.59 154.492 1149.96 152.992 1150.84 151.521C1152.96 152.296 1154.23 150.959 1155.53 149.601L1155.55 149.575C1155.94 149.163 1156.34 148.75 1156.76 148.395L1155.41 144.857L1166.17 139.956L1165.76 137.279L1172.6 133.748C1171.71 133.035 1170.6 132.828 1169.54 132.628C1167.73 132.289 1166.04 131.97 1165.68 129.224L1168.36 127.151C1165.92 125.953 1163.98 125.274 1161.93 125.046C1160.49 124.886 1159.67 124.281 1159.53 122.494C1159.36 120.273 1159.11 118.059 1158.85 115.754L1158.84 115.652L1158.67 114.245L1158.49 112.564C1158.91 112.483 1159.32 112.399 1159.72 112.315L1159.79 112.303L1159.8 112.3C1160.73 112.111 1161.62 111.928 1162.51 111.805C1163.51 111.667 1164.35 111.217 1164.94 110.487C1165.38 109.938 1165.68 109.23 1165.79 108.376C1165.93 107.343 1165.86 106.274 1165.86 105.222V39.8379L1171.07 37.0635C1172.13 39.3704 1171.97 41.7027 1171.82 43.9766C1171.69 45.9225 1171.56 47.8278 1172.2 49.6377L1177.55 49.9268C1177.68 51.1327 1177.74 52.3287 1177.75 53.5146C1177.77 54.7485 1177.75 55.9726 1177.73 57.1875C1177.66 60.5145 1177.6 63.769 1178.38 66.959C1181.95 67.6139 1197 67.4523 1199.62 66.6104L1199.63 64.7998V63.4746L1199.62 63.0029L1199.56 57.4941C1199.5 52.5492 1199.45 47.6041 1199.45 42.6602C1199.45 41.6192 1199.69 40.0745 1200.3 39.6455C1201.45 38.8466 1201.49 37.8759 1201.5 36.7051V12.6914L1205.48 11.1934L1205.54 12.1641L1205.64 13.665C1205.75 15.211 1205.84 16.5994 1205.86 17.9873C1205.92 21.8092 1205.96 25.6312 1206.01 29.4541L1206.22 46.376C1206.31 53.9589 1206.41 61.543 1206.52 69.126C1206.57 72.5378 1206.72 75.9466 1206.87 79.3555L1207 82.4092C1207 82.4821 1207.02 82.5541 1207.05 82.627C1207.09 82.7589 1207.17 82.8886 1207.25 83.0205L1207.34 83.1953L1207.4 83.3105L1210.79 83.6533C1211.1 84.1941 1211.36 84.6953 1211.6 85.1611L1211.66 85.2598C1212.17 86.2486 1212.61 87.0798 1213.15 87.8027C1213.32 88.0237 1213.49 88.2411 1213.66 88.4561L1213.99 88.8779C1215.28 90.5059 1216.57 92.1241 1216.97 94.4121C1216.99 94.491 1217.07 94.5525 1217.18 94.6055C1217.34 94.6815 1217.54 94.7371 1217.64 94.7891L1224.42 83.584L1228.4 83.1826V59.7617L1230.98 59.5361C1232.67 59.3861 1234.25 59.2458 1235.84 59.1338C1238.02 58.9818 1238.06 58.8978 1238.03 56.4961C1237.99 53.7931 1238 51.0897 1238.01 48.3027V44.5518C1238.48 44.5887 1238.95 44.5629 1239.4 44.5039C1239.91 44.4389 1240.41 44.3325 1240.91 44.2285C1242.54 43.8816 1244.12 43.5477 1245.75 44.7275L1246.05 49.9229L1250.52 50.8232L1250.53 51.5322L1250.55 52.6113V52.6455C1250.58 53.8805 1250.61 55.055 1250.49 56.21C1250.14 59.6508 1250.29 59.9544 1253.34 60.3604C1253.53 60.3844 1253.71 60.4914 1253.92 60.6113C1254.02 60.6713 1254.13 60.735 1254.25 60.793L1254.71 65.0957L1260.67 65.4746L1261.18 60.7803L1266.52 60.3184V32.2207C1273.1 34.3427 1279.22 35.2287 1285.2 31.0469L1285.25 30.3672L1285.36 29.2129C1285.41 28.7379 1285.45 28.2639 1285.49 27.792C1285.56 26.9071 1285.6 26.0301 1285.55 25.1592C1285.4 22.1462 1286.13 21.0853 1288.81 20.4863C1291.26 19.9383 1293.67 19.0848 1296.07 18.3008C1296.55 18.1478 1297.09 17.8071 1297.35 17.3662C1297.8 16.5912 1298.34 16.1109 1298.96 15.8359C1299.59 15.555 1300.31 15.4927 1301.1 15.5537C1301.56 15.5877 1302.02 15.4556 1302.55 15.3066C1302.8 15.2327 1303.08 15.1548 1303.37 15.0898C1302.87 13.1968 1303.76 12.1704 1304.64 11.1494C1305.29 10.3895 1305.94 9.63046 1306.02 8.51758C1308.28 8.1916 1310.49 7.69132 1312.7 7.19336C1317.88 6.02236 1322.99 4.8668 1328.29 6.0498L1328.95 9.03906L1330.34 9.04492H1330.36C1331.4 9.05292 1332.4 9.06138 1333.4 9.02539C1333.64 9.01739 1333.88 9.02139 1334.14 9.02539L1334.62 9.03125C1335.29 9.02923 1335.94 8.97195 1336.41 8.62402C1336.9 8.26499 1337.14 7.49298 1337.38 6.70117L1337.39 6.66895L1337.53 6.21777C1337.59 6.02788 1337.66 5.84195 1337.74 5.66504L1344.29 4.97461C1345.33 8.70655 1347.54 10.4137 1350.77 10.2598L1351.51 27.0576H1372.58C1372.9 24.3137 1372.86 21.5804 1372.82 18.8555V18.8057C1372.77 15.0788 1372.72 11.3679 1373.59 7.66699C1375.05 7.642 1376.5 7.63286 1377.94 7.63086C1379.17 7.62886 1380.39 7.63274 1381.6 7.63574L1383.9 7.64062C1386.27 7.64462 1388.6 7.6361 1390.9 7.5791C1391.06 7.07014 1391.16 6.55396 1391.26 6.08398C1391.33 5.77098 1391.39 5.47773 1391.46 5.21973C1391.59 4.73112 1391.74 4.37032 1391.99 4.24414C1393.06 3.6962 1393.35 2.73022 1393.66 1.69434C1393.83 1.13238 1394 0.547965 1394.31 0C1394.79 0.14796 1395.28 0.189498 1395.78 0.186523C1396.48 0.182524 1397.19 0.0919644 1397.89 0.0849609C1398.76 0.0779613 1399.63 0.195913 1400.44 0.756836C1400.77 1.60884 1400.78 2.58106 1400.78 3.53906C1400.8 5.304 1400.81 7.01915 1402.87 7.82812C1403.43 8.04714 1403.97 8.41045 1404.51 8.77734L1404.52 8.78613C1405.97 9.76813 1407.45 10.7759 1409.59 9.16895C1409.06 7.13595 1410.36 6.13984 1411.96 5.58984L1412.18 0.59375C1412.65 0.593749 1413.1 0.58803 1413.52 0.582031L1413.62 0.580078C1414.53 0.566081 1415.34 0.552477 1416.16 0.605469C1419.25 0.806462 1422.33 1.03282 1425.42 1.25781L1429.49 1.55176L1440 2.14453V323.173Z" fill="#FFEABE"/>
<path d="M174.009 117.236L174.376 117.289C174.949 117.367 175.521 117.445 175.56 117.627C176.238 120.845 176.746 124.096 177.306 127.385C173.951 127.481 173.232 127.256 173.179 125.701C173.087 122.954 173.292 120.197 173.632 117.169C173.746 117.194 173.873 117.216 174.009 117.236Z" fill="#FFEABE"/>
<path d="M1145.06 90.5605C1145.36 91.0785 1145.57 91.5972 1145.69 92.1182C1145.74 92.2861 1145.77 92.4551 1145.79 92.6221C1145.83 92.874 1145.84 93.126 1145.85 93.3779C1145.87 101.981 1145.86 110.584 1145.86 119.186V120.308C1145.86 120.437 1145.85 120.567 1145.85 120.696C1145.84 120.904 1145.82 121.112 1145.8 121.32L1145.77 121.711L1145.75 122.049C1145.73 122.657 1145.61 123.144 1145.41 123.517C1145.02 124.217 1144.32 124.513 1143.33 124.437C1142.93 124.407 1142.54 124.359 1142.04 124.299L1141.17 124.198C1141.42 120.896 1141.65 117.808 1141.92 114.08C1142.32 110.159 1142.69 106.233 1143.14 102.32C1143.6 98.3973 1143.61 94.3775 1145.06 90.5605Z" fill="#FFEABE"/>
<path d="M1153.74 112.474C1153.83 112.457 1153.95 112.475 1154.08 112.519C1154.22 112.568 1154.37 112.647 1154.5 112.743C1154.79 112.941 1155.05 113.213 1155.08 113.435C1155.49 116.128 1155.81 118.839 1156.14 121.56L1156.44 124.055C1155.09 124.086 1154.35 124.103 1153.88 123.754C1153.7 123.621 1153.56 123.434 1153.44 123.174C1153.17 122.604 1153 121.681 1152.72 120.196V119.353L1152.71 118.018C1152.7 116.644 1152.71 115.27 1152.78 113.901C1152.81 113.376 1153.35 112.547 1153.74 112.474Z" fill="#FFEABE"/>
</svg>
