<svg width="1440" height="188" viewBox="0 0 1440 188" fill="none" xmlns="http://www.w3.org/2000/svg">
<path d="M1394.31 6.91406C1394.79 7.06191 1395.28 7.10356 1395.78 7.10059C1396.48 7.09657 1397.19 7.00605 1397.89 6.99902C1398.76 6.99202 1399.63 7.10998 1400.44 7.6709C1400.77 8.52286 1400.78 9.49519 1400.78 10.4531C1400.8 12.2181 1400.81 13.9332 1402.87 14.7422C1403.43 14.9612 1403.97 15.3246 1404.51 15.6914L1404.52 15.7002C1405.97 16.6821 1407.45 17.6898 1409.59 16.083C1409.06 14.05 1410.36 13.0539 1411.96 12.5039L1412.18 7.50781C1412.65 7.50781 1413.1 7.50209 1413.52 7.49609L1413.62 7.49414C1414.53 7.48014 1415.34 7.46654 1416.16 7.51953C1419.25 7.72052 1422.33 7.94689 1425.42 8.17188L1429.49 8.46582L1440 9.05859V187.914H0L0.00390625 116.854C6.33594 116.318 13.8565 115.481 19.7373 113.209C19.876 113.156 20.0188 113.11 20.1611 113.068C20.3721 113.007 20.5869 112.956 20.8135 112.899C22.0264 112.605 23.167 112.329 23.2334 110.421C23.3135 108.183 23.4911 105.948 23.6689 103.712L23.6807 103.583C23.8838 101.044 24.0869 98.5058 24.1494 95.9648C24.2822 90.588 24.1767 85.205 24.0693 79.7041V79.625L24.0225 77.1953C23.9932 75.4094 23.9971 73.6909 24.0166 71.9609L24.0576 68.8545L24.0635 68.6309C24.0127 68.247 23.9598 68.032 23.7568 67.6982C22.7548 63.7422 22.9463 59.9328 23.9287 55.9658C25.1103 56.7237 26.4403 57.6149 26.4736 58.5518C26.542 60.4178 26.5322 62.2869 26.4893 64.1748C26.4365 66.4108 26.3389 68.6732 26.2705 70.9922C26.251 71.5781 26.2725 71.9704 26.3877 72.5303C26.4307 73.4821 26.6144 74.2358 26.9678 74.8027C27.5361 75.7137 28.54 76.1446 30.0986 76.1436C32.8584 76.1406 35.6162 76.1998 38.376 76.2578C40.7451 76.3078 43.1143 76.3591 45.4854 76.3701C49.6082 76.3901 50.3467 75.68 50.9209 71.6621C50.9873 71.1983 51.0713 70.7362 51.1553 70.2744C51.2217 69.9084 51.2881 69.5408 51.3467 69.1729C51.7392 66.649 53.0283 65.7573 56.126 65.6973C57.1942 65.6753 57.7823 65.9953 58.1221 66.4863C58.3778 66.8562 58.4952 67.3236 58.5693 67.8164C58.6279 68.2083 58.6592 68.6171 58.7158 69.0049C58.8193 69.7269 58.8056 70.5368 58.5693 71.2178C57.8467 73.3008 58.6025 73.7358 60.6885 73.5068C61.2295 73.4478 61.8779 73.4747 62.4814 73.5977C63.1045 73.7257 63.6807 73.9578 64.0459 74.3057C65.3544 75.5626 66.3389 77.2018 67.21 78.8066C69.1338 82.3486 70.5225 86.0983 74.1553 88.6523C76.7509 90.4742 79.4718 91.328 81.7021 89.5801C82.1416 89.2371 82.6142 88.9119 83.0908 88.5879C85.0342 87.2629 87.0088 85.9156 86.8096 83.0146C86.7999 82.8698 86.8643 82.7241 86.9463 82.5762L87.0146 82.4541C87.0849 82.3341 87.1553 82.2119 87.1982 82.0889C87.4267 81.4219 87.667 80.7568 87.9072 80.0918C89.2021 76.503 90.495 72.9191 90.0322 68.9443C89.9717 68.4143 89.9365 67.8816 89.9209 67.3486C89.9092 66.9557 89.9072 66.5628 89.9131 66.1689C89.9248 65.2891 89.9697 64.4082 90.0166 63.5303L90.0498 62.8916C90.1827 60.2999 91.3117 59.3312 94.0303 59.2822C94.7374 59.2682 95.4443 59.2475 96.1494 59.2285C96.7627 59.2105 97.3741 59.1937 97.9854 59.1807C99.0145 59.1607 100.043 59.1518 101.069 59.1787C103.125 59.2327 105.185 59.3651 107.302 59.498L107.403 59.5049L107.526 59.5137C108.331 59.5637 109.142 59.6151 109.964 59.6621C110.368 59.6531 110.598 59.6297 110.872 59.5049C111.248 59.4799 111.583 59.5561 112.06 59.6641C112.299 59.7 112.398 59.703 112.683 59.7539L112.957 60.2656C113.411 61.0976 113.846 61.8999 113.862 62.7109C113.913 65.0809 113.913 67.4532 113.914 69.8242C113.914 71.427 113.915 73.0309 113.931 74.6328C113.941 75.6858 113.956 76.739 113.983 77.791C113.993 78.1219 114.08 78.5118 114.222 78.8887C114.326 79.1666 114.459 79.4378 114.616 79.6738C114.823 79.9867 115.067 80.2393 115.331 80.3643C117.024 81.1712 117.498 82.3568 117.573 83.9775C117.649 85.6775 117.748 87.3771 117.847 89.0781C117.937 90.635 118.027 92.1941 118.099 93.752C118.144 94.707 118.395 95.3934 118.897 95.8203C119.381 96.231 120.096 96.4008 121.079 96.3389C121.231 96.3289 121.383 96.3375 121.539 96.3594C121.788 96.3934 122.042 96.4591 122.31 96.5391L122.628 96.6357C122.947 96.7356 123.286 96.8419 123.655 96.9229C125.815 97.0168 127.739 97.0831 129.78 97.0781L129.829 97.0498C129.998 96.9559 130.084 96.9099 130.276 96.7451C132.454 96.4472 134.505 96.1994 136.56 96.1514C140.322 96.0624 140.666 95.7749 140.692 92.0469C140.694 91.7911 140.689 91.5342 140.677 91.2754C140.662 90.9315 140.637 90.5852 140.616 90.2412C140.53 88.9664 140.447 87.6932 140.776 86.5283C141.358 84.4784 142.224 82.5032 143.091 80.5303L143.548 79.4844C143.744 79.0314 143.939 78.5781 144.126 78.1221C144.152 78.0601 144.265 78.0172 144.343 77.9941C146.193 77.4454 146.416 76.1415 146.437 74.7148V73.8945L146.431 73.0566C146.417 69.0847 146.401 65.1125 146.397 61.1406C146.395 57.4117 146.402 53.684 146.427 49.9551C146.429 49.6801 146.469 49.405 146.536 49.127C146.653 48.6351 146.853 48.1352 147.062 47.6104C147.165 47.3484 147.272 47.0787 147.372 46.8027C149.663 45.7738 151.46 45.8474 152.794 48.1104C153.197 48.7901 154.247 49.535 154.995 49.5312C158.239 49.5123 158.632 51.7848 158.769 53.9268C158.863 55.4198 158.803 56.9219 158.743 58.4248C158.713 59.1448 158.685 59.866 158.673 60.585C158.662 61.292 158.664 61.9981 158.702 62.7031C158.725 63.1149 158.787 63.5688 158.89 64.0186C158.966 64.3434 159.064 64.6668 159.185 64.9707C159.421 65.5607 159.743 66.0802 160.161 66.4062C161.088 67.1282 161.733 67.8833 162.118 68.7803C162.239 69.0622 162.336 69.358 162.409 69.6709C162.502 70.0758 162.553 70.5077 162.565 70.9766C162.596 71.0935 162.689 71.3167 162.847 71.4268L162.94 71.6514C163.151 72.1471 163.344 72.605 163.452 73.0518C163.502 73.2597 163.534 73.4659 163.538 73.6729C163.653 78.6099 163.753 83.5464 163.851 88.4844C163.925 92.2572 164 96.0329 164.082 99.8066C164.092 100.228 164.061 100.739 164.079 101.207C164.098 101.746 164.183 102.229 164.464 102.452C167.208 104.625 166.632 107.547 166.687 110.328L166.726 112.225C166.775 114.6 166.823 116.978 166.854 119.354C166.887 121.792 166.904 124.231 166.88 126.668C166.871 127.793 166.78 128.917 166.653 130.04C166.61 130.413 166.566 130.785 166.517 131.157C166.431 131.806 166.336 132.456 166.243 133.103L166.101 134.094C166.095 134.145 166.029 134.188 165.921 134.226C165.835 134.256 165.724 134.284 165.597 134.309C165.427 134.343 165.229 134.375 165.028 134.408L164.905 134.428C164.768 134.451 164.632 134.472 164.503 134.497C164.103 134.529 163.875 134.568 163.565 134.728C163.383 134.732 163.207 134.727 163.034 134.717C162.498 134.685 161.995 134.596 161.479 134.492L161.464 134.482L161.414 134.471C161.379 134.467 161.338 134.46 161.289 134.438C161.083 134.315 161.01 134.205 160.985 134.033C160.989 133.995 160.932 133.945 160.743 133.959L160.554 134.049C157.863 135.336 155.325 136.545 152.228 135.546C152.193 135.54 152.143 135.541 152.099 135.552C152.064 135.56 152.029 135.573 152.001 135.592C151.949 135.628 151.915 135.687 151.94 135.776C152.5 140.023 152.079 140.714 148.19 142.436L151.366 145.092C152.313 145.883 153.272 146.676 154.239 147.458C154.479 147.655 154.821 147.744 155.155 147.831C155.254 147.856 155.352 147.881 155.446 147.91C155.924 148.052 156.41 148.187 156.892 148.322L156.974 148.345C157.519 148.498 158.062 148.649 158.603 148.811C158.961 148.918 159.322 149.031 159.677 149.151C161.941 149.915 163.65 151.018 163.433 153.818C163.41 154.127 163.557 154.457 163.788 154.789C164.012 155.116 164.314 155.445 164.603 155.761L164.884 156.071L165.048 156.26C165.207 156.448 165.383 156.619 165.573 156.782C165.745 156.931 165.926 157.074 166.104 157.216C166.309 157.376 166.51 157.538 166.7 157.707C166.694 157.709 166.692 157.714 166.692 157.72C166.696 157.736 166.733 157.759 166.829 157.759C166.948 157.783 167.039 157.815 167.104 157.858C167.211 157.925 167.262 158.019 167.288 158.142C167.288 158.151 167.297 158.16 167.323 158.172C167.352 158.187 167.401 158.207 167.487 158.239C167.723 158.345 167.958 158.484 168.179 158.615C168.598 158.863 168.967 159.081 169.192 158.984C169.975 158.648 170.762 158.307 171.536 157.942C172.629 157.423 173.699 156.855 174.683 156.183C175.081 155.91 175.23 155.323 175.382 154.714C175.48 154.32 175.583 153.916 175.755 153.585C175.853 153.401 175.949 153.209 176.044 153.017C176.476 152.147 176.928 151.233 177.657 150.749C178.899 149.925 180.459 149.413 181.957 149.117C184.286 148.659 186.075 147.704 187.024 145.492C187.051 145.473 187.072 145.413 187.101 145.235C187.714 144.951 188.32 144.699 188.933 144.466C189.764 144.148 190.606 143.866 191.489 143.583C191.604 143.586 191.828 143.513 191.854 143.388L191.864 143.357C191.883 143.295 191.901 143.243 191.909 143.196C191.922 143.109 191.903 143.039 191.821 142.932C191.413 142.764 191.006 142.627 190.616 142.495C189.84 142.232 189.121 141.989 188.554 141.556C187.613 140.836 186.225 139.604 186.362 138.806C186.538 137.777 186.405 137.132 186.069 136.714C185.559 136.084 184.581 135.975 183.479 135.854L183.396 135.844C180.135 135.483 179.501 134.71 179.353 131.44C179.285 129.935 179.172 128.416 178.899 126.937C178.367 124.042 178.853 123.313 181.856 122.929C183.446 122.726 184.467 122.457 185.116 121.905C185.907 121.23 186.142 120.133 186.177 118.222L186.233 115.377C186.289 112.71 186.348 110.044 186.356 107.377C186.377 99.1389 186.371 90.901 186.347 82.6631L186.329 79.5986C186.319 78.0967 186.306 76.5947 186.292 75.0928C186.257 70.9709 186.221 66.8495 186.247 62.7295C186.259 60.9166 189.968 58.4311 191.919 58.874C194.385 59.4331 194.354 61.364 194.239 63.2998C194.213 63.7578 194.216 64.2159 194.226 64.6758L194.239 65.1377L194.241 65.2207V65.3145C194.252 65.7264 194.267 66.1399 194.255 66.5508C194.208 68.5316 195.062 69.5319 197.228 69.3291C199.498 69.1192 200.268 70.2448 200.276 72.3555C200.284 74.3745 200.387 76.3941 200.489 78.4131C200.557 79.752 200.626 81.0899 200.667 82.4287C200.714 83.9286 201.436 84.5111 202.95 84.4922L204.503 84.4727L208.911 84.4316C212.748 84.3996 216.587 84.3666 220.421 84.2646C220.921 84.2501 221.813 83.2865 221.815 82.7607C221.832 78.823 221.829 74.8841 221.774 70.9473C221.741 68.5913 221.688 66.2368 221.61 63.8818C221.553 62.1629 221.587 60.8275 223.253 59.7686C223.824 59.4053 224.155 58.3222 224.164 57.5615C224.233 53.3717 224.237 49.182 224.241 44.9932L224.243 40.6924C224.241 40.3804 224.241 40.0678 224.246 39.7568C224.25 39.5579 224.258 39.359 224.272 39.1602C224.42 37.0803 225.784 36.1219 227.745 36.1787C229.776 36.2358 230.304 37.5732 230.001 39.3691C229.917 39.8659 229.939 40.3798 229.96 40.8926L229.976 41.3838L230.972 92.0605C230.98 92.4345 230.965 92.8154 230.952 93.1953C230.918 94.0982 230.886 95.0024 231.14 95.8223C231.408 96.6932 232.341 97.8708 233.136 97.999C236.109 98.478 236.884 100.372 237.185 102.908C237.24 102.977 237.29 103.032 237.345 103.077L237.407 103.122C237.504 103.187 237.631 103.228 237.813 103.262C239.248 104.339 240.498 105.399 241.534 106.278C243.045 105.189 244.503 104.139 246.056 103.014C246.152 102.938 246.269 102.726 246.261 102.545C246.66 101.986 247.062 101.471 247.468 100.976C247.871 100.489 248.277 100.02 248.692 99.5449C248.707 99.5349 248.716 99.5139 248.724 99.4824L248.737 99.4199L248.778 99.2656C248.879 99.1357 248.974 99.0046 249.063 98.8877C249.241 98.6551 249.405 98.4753 249.582 98.46C250.504 98.389 251.148 98.1454 251.591 97.7725C252.463 97.0365 252.564 95.7938 252.511 94.3701C252.486 93.6791 252.469 92.9879 252.457 92.2949C252.444 91.3889 252.44 90.483 252.442 89.5771C252.444 88.9832 252.45 88.3899 252.457 87.7969C252.465 87.0519 252.479 86.3065 252.493 85.5625C252.516 84.3858 252.496 83.3888 252.481 82.541C252.444 80.5632 252.425 79.3997 252.976 78.6787C253.763 77.6499 255.716 77.5236 260.462 77.2197L260.565 77.2129C261.219 77.1705 262.286 76.2848 262.349 75.71C262.57 73.652 262.482 71.5575 262.435 69.4795C262.339 65.351 262.743 64.8595 266.905 64.3125L267.058 64.291L267.41 64.2344L267.619 64.1982L267.912 64.1543C268.092 64.1304 268.272 64.1143 268.451 64.1133C270.59 64.0973 272.224 64.7475 272.478 67.1094C272.652 68.7561 273.136 70.0619 275.284 69.958C275.377 69.9541 275.473 69.9833 275.571 70.0332C275.737 70.1182 275.903 70.2641 276.073 70.416L276.108 70.4463C276.237 70.5651 276.367 70.6863 276.496 70.7842C276.5 70.7951 276.515 70.7987 276.542 70.8086C276.576 70.8216 276.634 70.8419 276.728 70.8965C276.919 71.8354 277.035 72.7497 277.151 73.6465L277.155 73.6689C277.252 74.4269 277.35 75.1731 277.487 75.9131C277.573 76.3761 277.737 77.0131 277.948 77.4951C278.112 77.8699 278.304 78.1505 278.505 78.1826C279.167 78.2856 279.666 78.4971 280.071 78.79C280.754 79.285 281.169 80.012 281.64 80.8398L281.735 81.0117C282.25 81.9165 283.721 82.5475 284.871 82.7676C285.139 82.8195 285.474 82.3814 285.847 81.8936C286.13 81.5237 286.434 81.1247 286.748 80.8877C287.176 80.5668 287.621 80.1922 288.08 79.8604C288.705 79.4064 289.355 79.0306 290.013 78.9785C292.376 78.7914 293.218 77.8256 293.183 75.6416C293.109 71.1889 293.185 66.7341 293.134 62.2803C293.126 61.5474 293.074 60.8141 293.024 60.0801L293.009 59.8945C292.984 59.5358 292.958 59.1761 292.938 58.8174C292.885 57.9614 292.859 57.1087 292.921 56.2607C292.968 55.6107 294.156 54.4609 294.716 54.5156C297.515 54.7946 300.299 55.2088 303.155 55.6348L304.819 55.8809L306.427 56.1152C306.853 56.1002 307.095 56.0743 307.47 55.9365C308.685 55.5235 309.807 55.1908 310.991 54.8389L311.64 54.6455C311.844 54.5486 311.923 54.502 312.046 54.2822C312.158 53.4762 312.283 52.691 312.405 51.918C312.641 50.403 312.855 48.9377 312.876 47.4697C312.909 45.3349 313.456 44.1722 315.929 44.0791C317.422 44.0241 318.924 43.5374 320.371 43.0664L320.669 42.9697C321.958 42.5537 323.245 42.1332 324.526 41.7002C325.33 41.4273 326.134 41.1511 326.935 40.8682C328.173 40.4302 329.406 39.9769 330.626 39.502C330.87 39.408 331.097 39.2401 331.306 39.0303C331.714 38.6203 332.051 38.0545 332.322 37.5645C333.621 35.2336 335.303 33.4698 338.188 33.0869C342.841 32.4719 347.47 31.5758 352.144 31.2578L352.554 31.2295C355.429 31.0275 358.469 30.8143 360.869 33.3311C362.25 34.778 365.791 34.2255 367.197 32.7285C369.571 30.2037 375.288 30.2646 377.763 32.6494C378.165 33.0371 378.642 33.3526 379.14 33.6465L379.583 33.8965L379.794 34.0166C380.48 34.4006 381.167 34.7849 381.729 35.2949C381.985 35.5268 382.244 35.7848 382.49 36.0596C382.674 36.2635 382.851 36.4773 383.011 36.6982C383.435 37.2801 383.757 37.9085 383.849 38.5244C383.962 39.2941 384.043 40.07 384.108 40.8467C384.182 41.7257 384.235 42.6083 384.287 43.4902C384.381 45.0771 384.477 46.6635 384.696 48.2354C384.788 48.8873 386.199 49.8246 387.026 49.8467C387.41 49.8577 387.798 49.8661 388.185 49.8711C388.91 49.8811 389.637 49.8839 390.364 49.8809C391.332 49.8779 392.303 49.8665 393.271 49.8555C396.139 49.8215 399.007 49.7868 401.86 49.9668C404.584 50.1387 405.37 48.9924 405.429 46.8945C405.476 45.1917 405.521 43.4821 405.505 41.7764C405.493 40.3735 405.439 38.9731 405.312 37.5801C404.963 33.7372 405.441 32.9955 409.285 32.9834C410.688 32.9794 412.097 32.9266 413.503 32.8896C415.677 32.8326 417.847 32.8144 419.981 33.0674C424.125 33.5572 426.105 31.2395 427.462 28.3086C428.573 25.9072 430.284 26.1526 431.986 26.3955C432.504 26.4695 433.021 26.5439 433.517 26.5439C435.603 26.5449 436.537 27.8371 436.781 29.7861C437.096 32.2879 440.148 34.8603 442.638 34.8105C442.857 34.8065 443.146 34.7635 443.382 34.6826C443.577 34.6166 443.739 34.5231 443.796 34.4062C444.124 33.7122 444.66 33.1395 445.197 32.5645C446.143 31.5546 447.092 30.54 446.938 28.8604C446.793 27.2835 447.789 26.3752 449.701 26.2441C451.045 26.1521 452.367 25.8184 453.693 25.4834L453.759 25.4678C454.374 25.3128 454.989 25.1583 455.606 25.0293L456.007 24.9395C456.28 24.8755 456.555 24.8125 456.828 24.7715C456.975 24.7485 457.12 24.7336 457.265 24.7266C457.385 24.7206 457.504 24.7206 457.621 24.7295L460.785 24.96C464.848 25.252 468.9 25.5435 472.929 26.0215C476.171 26.4055 479.227 27.4931 481.412 30.2959C481.604 30.4038 481.688 30.4354 481.951 30.4873C488.682 34.5663 494.034 39.9183 499.298 45.3643C499.411 45.4823 499.458 45.662 499.503 45.8457L499.527 45.9512L499.565 46.0742C499.564 46.0789 499.567 46.0801 499.591 46.0801L499.81 46.082C503.926 46.7749 505.828 44.0721 507.315 41.5283C509.367 38.0146 512.564 36.5234 516.236 35.4414L516.257 35.4102C516.267 35.3832 516.283 35.3349 516.322 35.2559C516.506 35.2159 516.694 35.17 516.882 35.124C517.675 34.929 518.468 34.7342 519.04 34.9932C520.661 35.727 522.286 36.4671 523.884 37.252C524.989 37.7959 526.081 38.3619 527.148 38.9619C527.656 39.2478 528.16 39.5418 528.654 39.8447C529.986 40.6597 530.911 42.2611 531.722 43.666C532.96 45.8168 534.12 47.7475 536.814 48.6855C538.012 49.1016 539.024 50.0106 540.061 50.9414C540.516 51.3494 540.977 51.7608 541.46 52.1387C541.503 52.1877 541.599 52.2367 541.714 52.2617C541.776 52.2766 541.844 52.2851 541.91 52.2822L542.236 52.3799L542.277 52.3916C542.656 52.5085 543.013 52.6173 543.343 52.7402C543.661 52.8581 543.958 52.9914 544.232 53.1543C544.592 53.3682 544.946 53.5914 545.298 53.8223C545.737 54.1102 546.174 54.4082 546.611 54.7041C547.17 55.085 547.729 55.4662 548.296 55.8271C549.321 56.4779 550.371 57.0638 551.492 57.4648C554.642 58.5929 556.622 60.6677 557.999 63.2666C559.593 66.2736 562.213 67.1864 565.275 67.9004C566.357 68.1525 567.347 68.8369 568.314 69.5078C568.576 69.6896 568.837 69.8701 569.097 70.041C569.485 70.2959 569.851 70.6452 570.212 70.9902L570.474 71.2373C570.616 71.3693 570.758 71.4964 570.9 71.6143C571.285 71.9301 571.677 72.1725 572.101 72.2256C574.991 72.5876 577.094 74.1748 579.189 75.7568C579.701 76.1437 580.211 76.5296 580.734 76.8975C581.08 77.1404 581.431 77.3767 581.79 77.5996C583.103 78.4126 584.388 79.2726 585.665 80.1406L586.818 80.9277C588.393 82.0047 589.968 83.0808 591.587 84.0938C591.872 84.2716 592.364 84.3081 592.847 84.2432C593.266 84.1852 593.68 84.0492 593.939 83.8613C594.35 83.5644 594.754 83.26 595.154 82.9531C596.215 82.1352 597.248 81.2816 598.283 80.4277L598.4 80.334C599.033 79.8122 599.667 79.2883 600.308 78.7754C600.645 78.5044 600.989 78.1933 601.335 77.8623C601.612 77.5934 601.894 77.3132 602.175 77.0332C603.595 75.6163 605.019 74.1926 606.275 74.3174C610.568 74.7442 613.5 72.907 616.621 70.9512L616.699 70.9023C616.684 70.8923 616.687 70.9056 616.701 70.8828C616.709 70.8677 616.723 70.8317 616.73 70.7549C616.797 70.591 616.86 70.4312 616.917 70.2764L616.941 70.2119C617.15 69.6571 617.334 69.1669 617.656 68.79C618.582 67.7101 619.51 66.6325 620.441 65.5586C622.217 63.5128 624.006 61.4769 625.812 59.457C627.128 57.9901 628.462 56.5378 629.796 55.0869C632.077 52.6049 634.357 50.1216 636.537 47.5586C637.598 46.3127 638.608 45.0275 639.599 43.7256C641.052 41.8177 642.462 39.8744 643.927 37.9756C644.1 37.7497 644.278 37.5236 644.462 37.3018C644.583 37.1549 644.706 37.0082 644.833 36.8662C645.081 36.5874 645.342 36.321 645.621 36.0781C648.183 33.8452 650.954 31.8129 653.339 29.4189C657.104 25.639 663.221 25.9474 666.406 30.3604C666.709 30.4883 666.885 30.5492 667.275 30.5771C667.998 30.6011 668.556 30.5564 669.017 30.7402C670.708 31.4122 672.397 32.0943 674.083 32.7773C675.446 33.3282 676.809 33.8779 678.175 34.4238C680.138 35.2077 682.106 35.9815 684.085 36.7285C684.893 37.0343 686.525 36.9218 686.892 36.4111C688.2 34.5851 689.918 34.3702 691.861 34.4902C691.865 34.4868 691.905 34.4977 691.951 34.375C694.764 32.3011 697.572 30.2737 700.367 28.2578C703.502 25.9969 706.624 23.7516 709.716 21.4727C715.604 17.1309 722.263 14.7461 729.738 13.7871C730.232 13.6412 730.719 13.5031 731.195 13.3701C732.01 13.1382 732.798 12.9149 733.561 12.668C733.794 12.593 734.022 12.5155 734.251 12.4355C734.579 12.3207 734.903 12.1992 735.224 12.0684C737.218 11.2514 739.205 10.419 741.191 9.58008C742.805 8.89817 744.418 8.21227 746.027 7.52637L746.919 7.52246H746.938C748.992 7.51946 750.059 7.51785 750.628 8.05078C751.241 8.6258 751.277 9.822 751.355 12.3047C752.191 12.9376 753.557 13.4213 753.677 14.1582C754.102 16.7959 755.602 16.8481 757.331 16.9111L757.637 16.9209C758.473 16.9549 759.207 16.7086 759.902 16.3486C760.371 16.1057 760.823 15.8115 761.273 15.5166L761.298 15.499C762.274 14.8601 763.25 14.2189 764.41 14.0928C764.801 14.0504 765.182 12.7834 765.391 12.0225C765.444 11.8337 765.483 11.641 765.512 11.4453L765.552 11.1611L765.57 10.9648C765.592 10.74 765.61 10.5111 765.628 10.2832C765.643 10.0532 765.659 9.82367 765.682 9.59668C765.796 8.45788 765.879 7.8448 766.193 7.50781C766.515 7.162 767.083 7.10726 768.175 7.07227C769.393 7.03228 770.616 7.04078 771.845 7.05078C772.393 7.05478 772.946 7.05957 773.503 7.05957C773.573 7.26457 773.638 7.49535 773.703 7.73535L773.85 8.30664C774.087 9.23744 774.314 10.1399 774.654 10.1982C776.306 10.4783 776.653 11.7361 777.021 13.083C777.09 13.3299 777.158 13.5802 777.236 13.8291C777.312 14.0731 777.399 14.3149 777.501 14.5479H799.434C799.487 15.0958 799.542 15.6059 799.596 16.0859L799.613 16.2363L799.626 16.3213C799.735 17.3301 799.837 18.2213 799.848 19.1152C799.872 20.898 799.876 22.6819 799.874 24.4658C799.872 26.6607 799.864 28.8559 799.88 31.0508C799.884 31.6398 799.947 32.2301 800.027 32.9531C800.07 33.329 800.115 33.7421 800.158 34.21H809.285L810.72 34.2168L812.042 34.2275C814.143 34.2475 816.251 34.2696 818.35 34.1816C818.555 34.1726 818.761 34.168 818.966 34.166C819.264 34.164 819.564 34.1687 819.865 34.1777C820.291 34.1907 820.721 34.2095 821.146 34.2305C822.29 34.2835 823.438 34.3372 824.581 34.2422C825.477 34.1662 826.37 33.9989 827.257 33.668L827.744 16.6895C832.021 17.8964 834.2 15.2209 836.251 11.8779L843.855 12.6211C844.008 12.973 844.099 13.3699 844.191 13.7607L844.197 13.7852L844.201 13.8115C844.435 14.8435 844.663 15.8312 845.878 15.8662C848.048 15.9272 850.216 15.9143 852.41 15.9023C853.332 15.8963 854.259 15.8896 855.189 15.8896C855.224 15.5849 855.25 15.3321 855.271 15.1143C855.312 14.6994 855.344 14.408 855.396 14.1211C855.418 14.0102 855.444 13.901 855.471 13.791C855.512 13.6202 855.562 13.4502 855.613 13.2773L855.617 13.2617L855.732 12.8555C862.703 11.8486 869.409 13.0912 876.066 14.3242L878.279 14.7305C879.939 15.0314 881.598 15.3159 883.259 15.5479C883.374 15.8428 883.467 16.162 883.553 16.459L883.559 16.4766C883.729 17.0556 883.871 17.5473 884.107 17.6104C886.175 18.1575 886.434 20.0209 886.675 21.7646L886.693 21.9043L886.887 21.9951L887.126 22.1201C887.36 22.2469 887.544 22.3473 887.73 22.3574C890.289 22.5044 892.93 22.2295 894.805 24.9082C895.126 25.365 895.966 25.6165 896.535 25.5596C897.433 25.4686 898.285 25.6068 899.117 25.8457C899.789 26.0387 900.449 26.2987 901.111 26.5596L901.13 26.5664C902.52 27.1134 903.919 27.6624 905.464 27.6055C908.065 27.5066 908.782 29.116 908.725 32.2266C908.712 33.0476 908.738 33.8702 908.779 34.7012C908.8 35.1501 908.827 35.6024 908.854 36.0732C908.888 36.669 908.923 37.2728 908.951 37.8867C916.607 42.2435 924.406 41.2041 932.533 39.1992V67.2119L939.137 67.7832L939.473 72.4219L947.79 71.9502L948.32 67.4385C948.539 67.3975 948.721 67.3582 948.881 67.3252C949.087 67.2823 949.258 67.2483 949.43 67.2373C952.866 66.9973 953.052 66.6356 952.562 62.8896C952.412 61.7337 952.449 60.5457 952.488 59.3398C952.505 58.7869 952.525 58.2298 952.525 57.6699L958.268 56.876L958.264 55.7773C958.258 55.1214 958.252 54.5867 958.273 54.0537C958.365 51.585 959.089 50.5985 961.264 50.6914C962.727 50.7525 964.182 51.0141 965.721 51.29C966.423 51.416 967.139 51.5451 967.883 51.6611C967.883 52.541 967.887 53.4152 967.891 54.2822L967.893 55.1201L967.898 55.7656C967.904 57.1365 967.908 58.4947 967.904 59.8447C967.898 60.9586 967.886 62.0687 967.861 63.1777L967.857 63.3057C967.802 65.8826 967.801 65.9199 970.089 66.0459C971.163 66.1059 972.237 66.1694 973.314 66.2354L979.766 66.6416C980.024 70.4145 979.98 74.1417 979.938 77.8506C979.924 79.0926 979.91 80.3333 979.906 81.5732C979.9 84.4901 979.958 87.4032 980.229 90.3271H984.314C987.203 92.777 988.006 95.7448 987.708 99.3965C987.596 100.754 987.571 102.122 987.581 103.494C987.59 105.167 987.653 106.847 987.673 108.52C987.678 108.941 987.738 109.363 987.814 109.824L987.915 110.408L987.926 110.464C987.956 110.646 987.987 110.834 988.014 111.035L988.771 110.946C996.24 110.071 1003.53 109.218 1010.68 105.647C1010.74 105.294 1010.84 104.841 1010.94 104.332C1011.05 103.74 1011.15 103.071 1011.18 102.399L1011.29 100.049V100.005C1011.47 95.8129 1011.65 91.6185 1011.85 87.4385C1012.23 79.5318 1012.11 71.5939 1012 63.6562C1011.95 60.3553 1011.9 57.0548 1011.88 53.7568V42.0703L1012.57 41.9346C1012.61 42.0245 1012.65 42.1151 1012.7 42.2041L1012.83 42.4326C1013.03 42.7865 1013.23 43.1419 1013.25 43.5049C1013.36 46.2249 1013.4 48.949 1013.48 51.6689C1013.54 53.7308 1013.62 55.7889 1013.76 57.8428C1013.81 58.4888 1013.77 59.1629 1013.73 59.8428C1013.68 60.7178 1013.63 61.6024 1013.76 62.4424C1013.91 63.4631 1014.33 64.4199 1015.33 65.2197C1015.56 65.4097 1015.57 66.0111 1015.57 66.5371V66.8828C1015.61 68.0516 1015.58 69.2227 1015.59 70.3936C1015.62 74.0065 1015.77 74.2156 1018.91 74.2266C1025.57 74.2506 1032.23 74.2395 1038.88 74.2285L1040.48 74.2266C1040.88 74.2255 1041.27 74.183 1041.79 74.126C1042.07 74.095 1042.39 74.0612 1042.75 74.0283L1043.62 61.8311H1049.02C1049.04 63.7209 1049.05 64.6182 1049.47 65.2041C1049.62 65.403 1049.81 65.5659 1050.07 65.7188C1050.5 65.9757 1051.11 66.2083 1051.98 66.5371C1051.75 68.4161 1052.58 69.8824 1053.42 71.3604C1053.86 72.1421 1054.3 72.9285 1054.59 73.7803C1054.8 74.3822 1054.93 75.0171 1054.93 75.707C1054.93 75.8749 1055.15 76.0479 1055.36 76.2148C1055.44 76.2778 1055.52 76.3385 1055.58 76.3994C1055.99 76.781 1056.42 77.1469 1056.85 77.5137C1057.63 78.1927 1058.42 78.8757 1059.08 79.6807C1061.49 82.5845 1064.84 82.7887 1067.23 79.7607C1068.45 78.22 1069.61 76.9021 1071.86 77.082V76.6602L1071.85 75.8789V75.8408C1071.84 75.4428 1071.84 75.0575 1071.84 74.6826C1071.84 74.2518 1071.86 73.8339 1071.89 73.417C1071.91 73.236 1071.93 73.0208 1071.97 72.8037C1072.07 72.268 1072.23 71.7209 1072.47 71.6396C1074.07 71.0875 1073.66 69.6924 1073.74 68.4785C1073.75 68.3386 1073.75 68.1937 1073.75 68.0439C1073.75 67.8481 1073.74 67.6452 1073.73 67.4434C1073.72 67.1094 1073.71 66.7748 1073.72 66.4658C1073.74 66.044 1073.82 65.6702 1074.01 65.4082C1075.06 63.9903 1075.02 62.4541 1074.99 60.9121C1074.98 60.5181 1074.97 60.1225 1074.98 59.7305C1075.05 56.5088 1075.09 53.2871 1075.14 49.9453L1075.21 45.4453C1075.55 45.4453 1075.89 45.4406 1076.22 45.4336C1076.66 45.4246 1077.09 45.4124 1077.51 45.3994L1077.58 45.3955C1079.25 45.3436 1080.8 45.2948 1082.32 45.5137C1082.89 45.5956 1083.43 45.5351 1083.97 45.4102C1084.37 45.3182 1084.76 45.1886 1085.16 45.0596L1085.19 45.0508C1086.39 44.6598 1087.6 44.2628 1089.01 44.8076C1089.32 44.9245 1089.63 45.0103 1089.95 45.0713C1091.09 45.2852 1092.33 45.1831 1093.58 45.0801C1094.29 45.0221 1095 44.9629 1095.71 44.9629C1095.76 47.1269 1095.82 49.2611 1095.88 51.3721C1096.03 56.3111 1096.17 61.1293 1096.21 65.9502V66.4658C1096.23 69.7426 1096.23 69.7768 1099.24 70.4688L1100.07 88.2803L1101.24 88.2871C1101.99 88.2921 1102.67 88.2984 1103.35 88.2744C1107.4 88.1304 1111.45 87.9483 1115.5 87.8203C1116.35 87.7924 1117.21 87.8006 1118.06 87.8096L1118.79 87.8164L1119.33 87.8184C1119.82 87.8184 1120.32 87.812 1120.81 87.793C1122.85 87.7159 1123.12 87.2178 1123.04 85.083C1122.99 83.564 1122.95 82.0415 1122.92 80.5205C1122.9 79.2807 1122.88 78.0396 1122.87 76.7988L1122.83 73.1953C1122.82 73.1254 1122.84 73.0573 1122.87 72.9844C1122.9 72.9234 1122.93 72.8599 1122.97 72.792L1122.99 72.7627L1123 72.751L1123.01 72.7275C1123.05 72.6586 1123.09 72.5856 1123.12 72.5078L1125.85 71.6162C1125.85 71.2734 1125.84 70.9391 1125.84 70.6113C1125.82 69.8403 1125.81 69.1067 1125.88 68.3828C1125.9 68.1219 1125.95 67.795 1126.02 67.4902C1126.12 67.0323 1126.27 66.62 1126.48 66.5469C1128.44 65.8608 1128.4 64.2439 1128.35 62.6201C1128.34 62.4102 1128.34 62.1991 1128.34 61.9893L1128.25 49.8037C1128.21 44.3898 1128.17 38.9764 1128.14 33.5635V33.1738L1128.15 32.9736L1128.16 32.585C1128.17 32.282 1128.18 31.9778 1128.2 31.6729L1128.22 31.2129C1128.24 30.865 1128.26 30.5141 1128.27 30.1621C1128.59 30.1382 1128.86 30.1128 1129.11 30.0898L1129.63 30.0459C1129.8 30.0329 1129.96 30.0216 1130.12 30.0156C1130.24 30.0106 1130.36 30.0078 1130.48 30.0088C1130.6 30.0098 1130.73 30.0145 1130.85 30.0225C1131.32 30.0515 1131.77 30.1212 1132.17 30.1602C1132.31 30.4569 1132.38 30.7798 1132.43 31.1055C1132.46 31.2795 1132.48 31.454 1132.5 31.627C1132.54 31.9149 1132.57 32.1971 1132.63 32.4561C1132.77 33.07 1133.08 33.5588 1133.91 33.7207C1134.44 33.8247 1134.96 33.9424 1135.5 34.0684L1136.34 34.2676C1136.75 34.3666 1137.17 34.4684 1137.61 34.5684C1137.7 36.079 1137.73 37.5907 1137.73 39.1035C1137.73 39.9135 1137.73 40.7252 1137.72 41.5352C1137.7 45.613 1137.68 49.6849 1138.46 53.7148L1140.81 53.9316C1142.73 56.7905 1142.73 59.884 1142.73 62.9668C1142.73 63.5858 1142.73 64.2053 1142.74 64.8232C1142.82 67.9501 1142.94 71.0743 1143.06 74.1992C1143.13 75.969 1143.2 77.7399 1143.26 79.5107C1143.49 86.4097 1143.33 93.2655 1142.27 100.107C1141.57 104.597 1141.06 109.124 1140.55 113.649L1140.42 114.818C1140.29 116.033 1140.15 117.246 1140.01 118.458C1139.5 122.821 1139.05 127.191 1138.58 131.427L1130.49 133.177C1130.54 133.448 1130.57 133.655 1130.6 133.816C1130.64 134.07 1130.66 134.211 1130.73 134.309C1132.81 137.208 1132.5 138.18 1129.19 139.052C1128.43 139.252 1127.69 139.491 1126.94 139.729L1126.85 139.755C1126.5 139.869 1126.15 139.982 1125.79 140.091L1125.83 140.837C1126.23 141.023 1126.63 141.206 1127.03 141.387L1127.24 141.481C1128.47 142.043 1129.71 142.606 1130.93 143.21C1131.09 143.29 1131.28 143.389 1131.47 143.499C1131.91 143.756 1132.33 144.073 1132.34 144.344C1132.35 146.327 1133.5 146.768 1134.66 147.209C1134.95 147.317 1135.23 147.425 1135.5 147.556C1136.08 147.842 1136.67 148.119 1137.27 148.394L1138.05 148.76C1139.02 149.218 1139.99 149.69 1140.93 150.224C1141.78 150.711 1142.45 151.601 1143.26 152.363L1141.19 155.52L1147.5 159.714C1148.64 162.22 1148.46 165.656 1148.28 169.141L1148.25 169.854C1148.53 169.854 1148.8 169.854 1149.25 169.532C1149.33 168.475 1149.33 167.432 1149.33 166.402V166.276C1149.33 165.147 1149.33 164.034 1149.43 162.936C1149.59 161.407 1149.96 159.906 1150.84 158.436C1152.96 159.211 1154.23 157.873 1155.53 156.515L1155.55 156.489C1155.94 156.077 1156.34 155.664 1156.76 155.309L1155.41 151.771L1166.17 146.87L1165.76 144.193L1172.6 140.662C1171.71 139.949 1170.6 139.742 1169.54 139.542C1167.73 139.203 1166.04 138.884 1165.68 136.138L1168.36 134.065C1165.92 132.867 1163.98 132.188 1161.93 131.96C1160.49 131.8 1159.67 131.195 1159.53 129.408C1159.36 127.187 1159.11 124.973 1158.85 122.668L1158.84 122.566L1158.67 121.159L1158.49 119.479C1158.91 119.398 1159.32 119.313 1159.72 119.229L1159.79 119.217L1159.8 119.214C1160.73 119.025 1161.62 118.842 1162.51 118.719C1163.51 118.581 1164.35 118.131 1164.94 117.401C1165.38 116.852 1165.68 116.144 1165.79 115.29C1165.93 114.257 1165.86 113.188 1165.86 112.136V46.752L1171.07 43.9775C1172.13 46.2844 1171.97 48.6168 1171.82 50.8906C1171.69 52.8365 1171.56 54.7419 1172.2 56.5518L1177.55 56.8408C1177.68 58.0467 1177.74 59.2428 1177.75 60.4287C1177.77 61.6626 1177.75 62.8867 1177.73 64.1016C1177.66 67.4285 1177.6 70.6831 1178.38 73.873C1181.95 74.5279 1197 74.3663 1199.62 73.5244L1199.63 71.7139V70.3887L1199.62 69.917L1199.56 64.4082C1199.5 59.4633 1199.45 54.5181 1199.45 49.5742C1199.45 48.5333 1199.69 46.9887 1200.3 46.5596C1201.45 45.7607 1201.49 44.7899 1201.5 43.6191V19.6055L1205.48 18.1074L1205.54 19.0781L1205.64 20.5791C1205.75 22.1251 1205.84 23.5135 1205.86 24.9014C1205.92 28.7233 1205.96 32.5453 1206.01 36.3682L1206.22 53.29C1206.31 60.8729 1206.41 68.457 1206.52 76.04C1206.57 79.4518 1206.72 82.8606 1206.87 86.2695L1207 89.3232C1207 89.3961 1207.02 89.4682 1207.05 89.541C1207.09 89.6729 1207.17 89.8027 1207.25 89.9346L1207.34 90.1094L1207.4 90.2246L1210.79 90.5674C1211.1 91.1081 1211.36 91.6094 1211.6 92.0752L1211.66 92.1738C1212.17 93.1626 1212.61 93.9939 1213.15 94.7168C1213.32 94.9377 1213.49 95.1552 1213.66 95.3701L1213.99 95.792C1215.28 97.4199 1216.57 99.0383 1216.97 101.326C1216.99 101.405 1217.07 101.467 1217.18 101.52C1217.34 101.595 1217.54 101.651 1217.64 101.703L1224.42 90.498L1228.4 90.0967V66.6758L1230.98 66.4502C1232.67 66.3002 1234.25 66.1598 1235.84 66.0479C1238.02 65.8959 1238.06 65.8119 1238.03 63.4102C1237.99 60.7072 1238 58.0038 1238.01 55.2168V51.4658C1238.48 51.5027 1238.95 51.477 1239.4 51.418C1239.91 51.353 1240.41 51.2466 1240.91 51.1426C1242.54 50.7957 1244.12 50.4618 1245.75 51.6416L1246.05 56.8369L1250.52 57.7373L1250.53 58.4463L1250.55 59.5254V59.5596C1250.58 60.7945 1250.61 61.969 1250.49 63.124C1250.14 66.5648 1250.29 66.8684 1253.34 67.2744C1253.53 67.2984 1253.71 67.4055 1253.92 67.5254C1254.02 67.5854 1254.13 67.649 1254.25 67.707L1254.71 72.0098L1260.67 72.3887L1261.18 67.6943L1266.52 67.2324V39.1348C1273.1 41.2567 1279.22 42.1426 1285.2 37.9609L1285.25 37.2812L1285.36 36.127C1285.41 35.652 1285.45 35.1779 1285.49 34.7061C1285.56 33.8212 1285.6 32.9441 1285.55 32.0732C1285.4 29.0603 1286.13 27.9994 1288.81 27.4004C1291.26 26.8524 1293.67 25.9988 1296.07 25.2148C1296.55 25.0618 1297.09 24.721 1297.35 24.2803C1297.8 23.5053 1298.34 23.025 1298.96 22.75C1299.59 22.4691 1300.31 22.4068 1301.1 22.4678C1301.56 22.5018 1302.02 22.3697 1302.55 22.2207C1302.8 22.1468 1303.08 22.0689 1303.37 22.0039C1302.87 20.111 1303.76 19.0844 1304.64 18.0635C1305.29 17.3036 1305.94 16.5445 1306.02 15.4316C1308.28 15.1057 1310.49 14.6053 1312.7 14.1074C1317.88 12.9364 1322.99 11.7809 1328.29 12.9639L1328.95 15.9531L1330.34 15.959H1330.36C1331.4 15.967 1332.4 15.9754 1333.4 15.9395C1333.64 15.9315 1333.88 15.9355 1334.14 15.9395L1334.62 15.9453C1335.29 15.9433 1335.94 15.886 1336.41 15.5381C1336.9 15.179 1337.14 14.407 1337.38 13.6152L1337.53 13.1318C1337.59 12.942 1337.66 12.756 1337.74 12.5791L1344.29 11.8887C1345.33 15.6206 1347.54 17.3277 1350.77 17.1738L1351.51 33.9717H1372.58C1372.9 31.2278 1372.86 28.4944 1372.82 25.7695V25.7197C1372.77 21.9928 1372.72 18.2819 1373.59 14.5811C1375.05 14.5561 1376.5 14.5469 1377.94 14.5449C1379.17 14.5429 1380.39 14.5468 1381.6 14.5498L1383.9 14.5547C1386.27 14.5587 1388.6 14.5502 1390.9 14.4932C1391.06 13.9843 1391.16 13.468 1391.26 12.998C1391.33 12.685 1391.39 12.3918 1391.46 12.1338C1391.59 11.6452 1391.74 11.2844 1391.99 11.1582C1393.06 10.6102 1393.35 9.64422 1393.66 8.6084C1393.83 8.04645 1394 7.46202 1394.31 6.91406Z" fill="#FFD170"/>
<path d="M1111.24 21.9131C1111.33 21.8962 1111.45 21.9141 1111.58 21.958C1111.72 22.007 1111.87 22.0866 1112 22.1826C1112.29 22.3805 1112.55 22.6521 1112.58 22.874C1112.99 25.5669 1113.31 28.2782 1113.64 30.999L1113.94 33.4941C1112.59 33.5251 1111.85 33.5424 1111.38 33.1934C1111.2 33.0604 1111.06 32.8732 1110.94 32.6133C1110.67 32.0433 1110.5 31.1206 1110.22 29.6357V28.792L1110.21 27.457C1110.2 26.0833 1110.21 24.7096 1110.28 23.3408C1110.31 22.8158 1110.85 21.9861 1111.24 21.9131Z" fill="#FFD170"/>
</svg>
