<svg width="1441" height="611" viewBox="0 0 1441 611" fill="none" xmlns="http://www.w3.org/2000/svg">
<path fill-rule="evenodd" clip-rule="evenodd" d="M1440.48 449.5L1429.48 448.879L1425.41 448.585C1422.32 448.36 1419.24 448.134 1416.15 447.933C1415.33 447.88 1414.52 447.893 1413.61 447.907L1413.51 447.909C1413.09 447.915 1412.64 447.921 1412.17 447.921L1411.95 452.917C1410.35 453.467 1409.05 454.463 1409.58 456.496C1407.44 458.103 1405.96 457.095 1404.51 456.113L1404.5 456.105C1403.96 455.738 1403.42 455.374 1402.86 455.155C1400.8 454.346 1400.79 452.631 1400.77 450.866C1400.77 449.908 1400.76 448.936 1400.43 448.084C1399.62 447.523 1398.75 447.405 1397.88 447.412C1397.18 447.419 1396.47 447.51 1395.77 447.514C1395.27 447.517 1394.78 447.475 1394.3 447.327C1393.99 447.875 1393.82 448.46 1393.65 449.022C1393.34 450.057 1393.05 451.023 1391.98 451.571C1391.73 451.698 1391.58 452.058 1391.45 452.547C1391.38 452.805 1391.32 453.098 1391.25 453.411C1391.15 453.881 1391.05 454.397 1390.89 454.906C1388.59 454.963 1386.26 454.972 1383.89 454.968L1381.59 454.963C1380.38 454.96 1379.16 454.956 1377.93 454.958C1376.49 454.96 1375.04 454.969 1373.58 454.994C1372.71 458.695 1372.76 462.406 1372.81 466.133V466.183C1372.85 468.908 1372.89 471.641 1372.57 474.385H1351.5L1350.76 457.587C1347.53 457.741 1345.32 456.034 1344.28 452.302L1337.73 452.992C1337.65 453.169 1337.58 453.355 1337.52 453.545L1337.38 453.996L1337.37 454.028C1337.13 454.82 1336.89 455.592 1336.4 455.951C1335.93 456.299 1335.28 456.356 1334.61 456.358L1334.13 456.353C1333.87 456.349 1333.63 456.345 1333.39 456.353C1332.39 456.389 1331.39 456.38 1330.35 456.372H1330.33L1328.94 456.366L1328.28 453.377C1322.98 452.194 1317.87 453.35 1312.69 454.521C1310.48 455.019 1308.27 455.519 1306.01 455.845C1305.93 456.958 1305.28 457.717 1304.63 458.477C1303.75 459.498 1302.86 460.524 1303.36 462.417C1303.07 462.482 1302.79 462.56 1302.54 462.634C1302.01 462.783 1301.55 462.915 1301.09 462.881C1300.3 462.82 1299.58 462.882 1298.95 463.163C1298.33 463.438 1297.79 463.918 1297.34 464.693C1297.08 465.134 1296.54 465.475 1296.06 465.628C1293.66 466.412 1291.25 467.266 1288.8 467.814C1286.12 468.413 1285.39 469.473 1285.54 472.486C1285.59 473.357 1285.55 474.234 1285.48 475.119C1285.44 475.591 1285.4 476.065 1285.35 476.54L1285.24 477.694L1285.19 478.374C1279.21 482.556 1273.09 481.67 1266.51 479.548V507.646L1261.17 508.107L1260.66 512.802L1254.7 512.423L1254.24 508.12C1254.12 508.062 1254.01 507.998 1253.91 507.939C1253.7 507.819 1253.52 507.712 1253.33 507.688C1250.28 507.282 1250.13 506.978 1250.48 503.537C1250.6 502.382 1250.57 501.208 1250.54 499.973V499.939L1250.52 498.859L1250.51 498.15L1246.04 497.25L1245.74 492.055C1244.11 490.875 1242.53 491.209 1240.9 491.556C1240.4 491.66 1239.9 491.766 1239.39 491.831C1238.94 491.89 1238.47 491.916 1238 491.879V495.63C1237.99 498.417 1237.98 501.12 1238.02 503.823C1238.05 506.225 1238.01 506.309 1235.83 506.461C1234.24 506.573 1232.66 506.713 1230.97 506.863L1228.39 507.089V530.51L1224.41 530.911L1217.63 542.116C1217.53 542.064 1217.33 542.009 1217.17 541.933C1217.06 541.88 1216.98 541.818 1216.96 541.739C1216.56 539.451 1215.27 537.833 1213.98 536.205L1213.65 535.783C1213.48 535.568 1213.31 535.351 1213.14 535.13C1212.6 534.407 1212.16 533.576 1211.65 532.587L1211.59 532.488C1211.35 532.022 1211.09 531.521 1210.78 530.981L1207.39 530.638L1207.33 530.523L1207.24 530.348C1207.16 530.216 1207.08 530.086 1207.04 529.954C1207.01 529.881 1206.99 529.809 1206.99 529.736L1206.86 526.683C1206.71 523.274 1206.56 519.865 1206.51 516.453C1206.4 508.87 1206.3 501.286 1206.21 493.703L1206 476.781C1205.95 472.958 1205.91 469.136 1205.85 465.315C1205.83 463.927 1205.74 462.538 1205.63 460.992L1205.53 459.491L1205.47 458.521L1201.49 460.019V484.032C1201.48 485.203 1201.44 486.174 1200.29 486.973C1199.68 487.402 1199.44 488.946 1199.44 489.987C1199.44 494.931 1199.49 499.876 1199.55 504.821L1199.61 510.33L1199.62 510.802V512.127L1199.61 513.938C1196.99 514.78 1181.94 514.941 1178.37 514.286C1177.59 511.096 1177.65 507.842 1177.72 504.515C1177.74 503.3 1177.76 502.076 1177.74 500.842C1177.73 499.656 1177.67 498.46 1177.54 497.254L1172.19 496.965C1171.55 495.155 1171.68 493.25 1171.81 491.304C1171.96 489.03 1172.12 486.698 1171.06 484.391L1165.85 487.165V552.549C1165.85 553.601 1165.92 554.67 1165.78 555.703C1165.67 556.557 1165.37 557.266 1164.93 557.815C1164.34 558.544 1163.5 558.994 1162.5 559.132C1161.61 559.255 1160.72 559.438 1159.79 559.627L1159.78 559.63L1159.71 559.643C1159.31 559.727 1158.9 559.811 1158.48 559.892L1158.66 561.572L1158.83 562.98L1158.84 563.081C1159.1 565.386 1159.35 567.6 1159.52 569.821C1159.66 571.608 1160.48 572.213 1161.92 572.373C1163.97 572.601 1165.91 573.281 1168.35 574.479L1165.67 576.551C1166.03 579.297 1167.72 579.616 1169.53 579.955C1170.59 580.155 1171.7 580.362 1172.59 581.075L1165.75 584.607L1166.16 587.283L1155.4 592.185L1156.75 595.722C1156.33 596.077 1155.93 596.49 1155.54 596.902L1155.52 596.928C1154.22 598.286 1152.95 599.624 1150.83 598.848C1149.95 600.32 1149.58 601.819 1149.42 603.348C1149.32 604.447 1149.32 605.56 1149.32 606.69V606.815C1149.32 607.845 1149.32 608.889 1149.24 609.945C1148.79 610.267 1148.52 610.267 1148.24 610.267L1148.27 609.554C1148.45 606.069 1148.63 602.633 1147.49 600.127L1141.18 595.933L1143.25 592.776C1142.44 592.014 1141.77 591.124 1140.92 590.637C1139.98 590.103 1139.01 589.631 1138.04 589.173L1137.26 588.806C1136.66 588.531 1136.07 588.255 1135.49 587.969C1135.22 587.838 1134.94 587.73 1134.65 587.622C1133.49 587.181 1132.34 586.74 1132.33 584.757C1132.32 584.486 1131.9 584.169 1131.46 583.912C1131.27 583.802 1131.08 583.703 1130.92 583.623C1129.7 583.019 1128.46 582.457 1127.23 581.895L1127.02 581.8C1126.62 581.619 1126.22 581.436 1125.82 581.25L1125.78 580.504C1126.14 580.395 1126.49 580.282 1126.84 580.168L1126.93 580.142C1127.68 579.904 1128.42 579.665 1129.18 579.465C1132.49 578.593 1132.8 577.622 1130.72 574.722C1130.65 574.624 1130.63 574.483 1130.59 574.23C1130.56 574.069 1130.53 573.861 1130.48 573.59L1138.57 571.84C1139.04 567.604 1139.49 563.234 1140 558.871C1140.14 557.659 1140.28 556.446 1140.41 555.232L1140.54 554.063C1141.05 549.537 1141.56 545.01 1142.26 540.521C1143.32 533.679 1143.48 526.823 1143.25 519.924C1143.19 518.153 1143.12 516.382 1143.05 514.612C1142.93 511.487 1142.81 508.363 1142.73 505.236C1142.72 504.618 1142.72 503.999 1142.72 503.38C1142.72 500.297 1142.72 497.204 1140.8 494.345L1138.45 494.128C1137.67 490.098 1137.69 486.026 1137.71 481.948C1137.72 481.138 1137.72 480.327 1137.72 479.517C1137.72 478.004 1137.69 476.492 1137.6 474.982C1137.16 474.882 1136.74 474.78 1136.33 474.681L1135.49 474.482C1134.95 474.356 1134.43 474.238 1133.9 474.134C1133.07 473.972 1132.76 473.483 1132.62 472.869C1132.56 472.61 1132.53 472.328 1132.49 472.04C1132.47 471.867 1132.45 471.693 1132.42 471.519C1132.37 471.193 1132.3 470.87 1132.16 470.573C1131.76 470.534 1131.31 470.465 1130.84 470.436C1130.72 470.428 1130.59 470.423 1130.47 470.422C1130.35 470.421 1130.23 470.424 1130.11 470.429C1129.95 470.435 1129.79 470.446 1129.62 470.459L1129.1 470.503C1128.85 470.526 1128.58 470.551 1128.26 470.575C1128.25 470.927 1128.23 471.278 1128.21 471.626L1128.19 472.086C1128.17 472.391 1128.16 472.695 1128.15 472.998L1128.14 473.387L1128.13 473.587V473.977C1128.16 479.39 1128.2 484.803 1128.24 490.217L1128.33 502.402C1128.33 502.612 1128.33 502.823 1128.34 503.033C1128.39 504.657 1128.43 506.274 1126.47 506.96C1126.26 507.033 1126.11 507.445 1126.01 507.903C1125.94 508.208 1125.89 508.535 1125.87 508.796C1125.8 509.52 1125.81 510.253 1125.83 511.024C1125.83 511.352 1125.84 511.686 1125.84 512.029L1123.11 512.921C1123.08 512.999 1123.04 513.072 1123 513.141L1122.99 513.164L1122.98 513.176L1122.96 513.205C1122.92 513.273 1122.89 513.337 1122.86 513.398C1122.83 513.47 1122.81 513.539 1122.82 513.608L1122.86 517.212C1122.87 518.453 1122.89 519.694 1122.91 520.934C1122.94 522.455 1122.98 523.977 1123.03 525.496C1123.11 527.631 1122.84 528.129 1120.8 528.206C1120.31 528.225 1119.81 528.232 1119.32 528.232L1118.78 528.23L1118.05 528.223C1117.2 528.214 1116.34 528.205 1115.49 528.233C1111.44 528.361 1107.39 528.544 1103.34 528.688C1102.66 528.712 1101.98 528.705 1101.23 528.7L1100.06 528.693L1099.23 510.882C1096.22 510.19 1096.22 510.156 1096.2 506.879V506.363C1096.16 501.542 1096.02 496.724 1095.87 491.785C1095.81 489.674 1095.75 487.54 1095.7 485.376C1094.99 485.376 1094.28 485.435 1093.57 485.493C1092.32 485.596 1091.08 485.698 1089.94 485.484C1089.62 485.423 1089.31 485.338 1089 485.221C1087.59 484.676 1086.38 485.073 1085.18 485.464L1085.15 485.473C1084.75 485.602 1084.36 485.731 1083.96 485.823C1083.42 485.948 1082.88 486.009 1082.31 485.927C1080.79 485.708 1079.24 485.757 1077.57 485.809L1077.5 485.813C1077.08 485.826 1076.65 485.838 1076.21 485.847C1075.88 485.854 1075.54 485.858 1075.2 485.858L1075.13 490.358C1075.08 493.7 1075.04 496.922 1074.97 500.144C1074.96 500.536 1074.97 500.931 1074.98 501.325C1075.01 502.867 1075.05 504.403 1074 505.821C1073.81 506.083 1073.73 506.457 1073.71 506.879C1073.7 507.188 1073.71 507.523 1073.72 507.857C1073.73 508.058 1073.74 508.261 1073.74 508.457C1073.74 508.607 1073.74 508.752 1073.73 508.892C1073.65 510.106 1074.06 511.501 1072.46 512.053C1072.22 512.134 1072.06 512.681 1071.96 513.217C1071.92 513.434 1071.9 513.649 1071.88 513.83C1071.85 514.247 1071.83 514.665 1071.83 515.096C1071.83 515.471 1071.83 515.856 1071.84 516.254V516.292L1071.85 517.073V517.495C1069.6 517.315 1068.44 518.633 1067.22 520.174C1064.83 523.202 1061.48 522.998 1059.07 520.094C1058.41 519.289 1057.62 518.606 1056.84 517.927C1056.41 517.56 1055.98 517.194 1055.57 516.813C1055.51 516.752 1055.43 516.691 1055.35 516.628C1055.14 516.461 1054.92 516.288 1054.92 516.12C1054.92 515.43 1054.79 514.795 1054.58 514.193C1054.29 513.342 1053.85 512.555 1053.41 511.773C1052.57 510.296 1051.74 508.829 1051.97 506.95C1051.1 506.621 1050.49 506.389 1050.06 506.132C1049.8 505.979 1049.61 505.816 1049.46 505.617C1049.04 505.031 1049.03 504.134 1049.01 502.244H1043.61L1042.74 514.441C1042.38 514.474 1042.06 514.508 1041.78 514.539C1041.26 514.596 1040.87 514.639 1040.47 514.64L1038.87 514.642C1032.22 514.653 1025.56 514.664 1018.9 514.64C1015.76 514.629 1015.61 514.42 1015.58 510.807C1015.57 509.636 1015.6 508.465 1015.56 507.296V506.95C1015.56 506.424 1015.55 505.823 1015.32 505.633C1014.32 504.833 1013.9 503.876 1013.75 502.856C1013.62 502.016 1013.67 501.131 1013.72 500.256C1013.76 499.576 1013.8 498.902 1013.75 498.256C1013.61 496.202 1013.53 494.144 1013.47 492.082C1013.39 489.362 1013.35 486.638 1013.24 483.918C1013.22 483.555 1013.02 483.2 1012.82 482.846L1012.69 482.617C1012.64 482.528 1012.6 482.438 1012.56 482.348L1011.87 482.483V486.223C1011.87 488.872 1011.86 491.521 1011.87 494.17C1011.89 497.468 1011.94 500.768 1011.99 504.069C1012.1 512.007 1012.22 519.945 1011.84 527.852C1011.64 532.032 1011.46 536.226 1011.28 540.418V540.462L1011.17 542.813C1011.14 543.484 1011.04 544.153 1010.93 544.745C1010.83 545.254 1010.73 545.707 1010.67 546.061C1003.52 549.632 996.237 550.484 988.768 551.359L988.01 551.448C987.983 551.247 987.952 551.059 987.922 550.877L987.911 550.821L987.811 550.237C987.735 549.776 987.674 549.355 987.669 548.933C987.649 547.26 987.586 545.58 987.577 543.907C987.567 542.535 987.592 541.168 987.704 539.81C988.002 536.158 987.199 533.19 984.31 530.74H980.225C979.954 527.816 979.896 524.903 979.902 521.986C979.906 520.746 979.92 519.506 979.934 518.264C979.977 514.555 980.02 510.828 979.762 507.055L973.31 506.648C972.233 506.583 971.159 506.519 970.085 506.459C967.797 506.333 967.798 506.296 967.853 503.719L967.857 503.591C967.882 502.482 967.894 501.372 967.9 500.258C967.904 498.908 967.9 497.55 967.894 496.179L967.889 495.533L967.887 494.695C967.883 493.828 967.879 492.954 967.879 492.074C967.135 491.958 966.419 491.829 965.717 491.703C964.178 491.427 962.723 491.166 961.26 491.105C959.085 491.012 958.362 491.998 958.269 494.467C958.248 495 958.254 495.534 958.26 496.19L958.264 497.289L952.521 498.083C952.521 498.643 952.501 499.2 952.484 499.753C952.445 500.959 952.407 502.147 952.559 503.303C953.049 507.049 952.862 507.41 949.426 507.65C949.254 507.661 949.083 507.695 948.877 507.738C948.717 507.771 948.535 507.811 948.316 507.852L947.786 512.363L939.469 512.835L939.133 508.196L932.529 507.625V479.612C924.402 481.617 916.603 482.657 908.947 478.3C908.919 477.686 908.885 477.082 908.85 476.486C908.823 476.015 908.796 475.563 908.775 475.114C908.734 474.283 908.708 473.461 908.721 472.64C908.778 469.529 908.061 467.92 905.46 468.019C903.915 468.076 902.516 467.527 901.126 466.98L901.107 466.973C900.445 466.712 899.785 466.452 899.113 466.259C898.281 466.02 897.429 465.882 896.531 465.973C895.962 466.03 895.122 465.778 894.801 465.321C892.926 462.642 890.286 462.918 887.727 462.771C887.54 462.761 887.356 462.66 887.122 462.533L886.883 462.408L886.689 462.317L886.671 462.178C886.43 460.434 886.171 458.57 884.103 458.023C883.867 457.96 883.725 457.469 883.555 456.89L883.549 456.872C883.463 456.575 883.37 456.256 883.255 455.961C881.594 455.729 879.935 455.445 878.275 455.144L876.062 454.737C869.404 453.504 862.699 452.262 855.728 453.269L855.613 453.675L855.609 453.69C855.558 453.863 855.508 454.033 855.467 454.204C855.44 454.314 855.415 454.423 855.393 454.534C855.34 454.821 855.309 455.112 855.268 455.527C855.247 455.745 855.22 455.998 855.185 456.303C854.255 456.303 853.328 456.309 852.406 456.315C850.212 456.327 848.044 456.34 845.874 456.279C844.659 456.244 844.431 455.257 844.197 454.225L844.193 454.198L844.187 454.174C844.095 453.783 844.004 453.386 843.852 453.034L836.247 452.291C834.196 455.634 832.017 458.31 827.74 457.103L827.253 474.081C826.366 474.412 825.473 474.579 824.577 474.655C823.434 474.75 822.286 474.697 821.141 474.644C820.716 474.623 820.287 474.604 819.861 474.591C819.56 474.582 819.26 474.577 818.962 474.579C818.757 474.581 818.551 474.586 818.346 474.595C816.247 474.683 814.139 474.661 812.038 474.641L810.716 474.63L809.281 474.623H800.154C800.111 474.155 800.066 473.742 800.023 473.366C799.943 472.643 799.88 472.053 799.876 471.464C799.86 469.269 799.868 467.074 799.87 464.879C799.872 463.095 799.868 461.311 799.844 459.528C799.833 458.634 799.731 457.743 799.622 456.734L799.609 456.649L799.592 456.499C799.538 456.019 799.483 455.509 799.43 454.961H777.497C777.395 454.728 777.308 454.486 777.232 454.242C777.154 453.993 777.087 453.743 777.018 453.496C776.649 452.149 776.302 450.891 774.65 450.611C774.31 450.553 774.083 449.651 773.846 448.72L773.699 448.148C773.634 447.908 773.569 447.678 773.499 447.473C772.942 447.473 772.389 447.468 771.841 447.464C770.612 447.454 769.389 447.445 768.171 447.485C767.079 447.52 766.511 447.575 766.189 447.921C765.875 448.258 765.792 448.871 765.678 450.01C765.655 450.237 765.639 450.466 765.624 450.696C765.606 450.924 765.588 451.153 765.566 451.378L765.548 451.574L765.508 451.858C765.479 452.054 765.44 452.247 765.387 452.436C765.178 453.197 764.797 454.464 764.406 454.506C763.246 454.632 762.27 455.273 761.294 455.912L761.269 455.93C760.818 456.225 760.367 456.519 759.898 456.762C759.203 457.122 758.469 457.368 757.633 457.334L757.327 457.324C755.598 457.261 754.098 457.209 753.673 454.571C753.553 453.834 752.188 453.351 751.352 452.718C751.274 450.235 751.237 449.039 750.624 448.464C750.055 447.931 748.989 447.933 746.934 447.936H746.915L746.023 447.94C744.414 448.625 742.801 449.311 741.187 449.993C739.201 450.832 737.214 451.665 735.22 452.482C734.899 452.612 734.575 452.734 734.247 452.849C734.018 452.929 733.79 453.006 733.557 453.081C732.794 453.328 732.006 453.551 731.191 453.783C730.715 453.916 730.228 454.054 729.734 454.2C722.259 455.159 715.6 457.544 709.712 461.886C706.62 464.165 703.498 466.41 700.363 468.671C697.568 470.687 694.76 472.714 691.947 474.788C691.9 474.913 691.859 474.899 691.857 474.903C689.914 474.783 688.196 474.998 686.888 476.824C686.522 477.335 684.889 477.448 684.081 477.142C682.102 476.395 680.134 475.621 678.171 474.837C676.805 474.291 675.442 473.741 674.079 473.19C672.393 472.508 670.704 471.825 669.013 471.153C668.552 470.969 667.994 471.014 667.271 470.99C666.882 470.962 666.705 470.901 666.402 470.773C663.217 466.361 657.1 466.052 653.335 469.832C650.95 472.226 648.179 474.258 645.617 476.491C645.338 476.734 645.077 477.001 644.829 477.279C644.702 477.421 644.579 477.568 644.458 477.715C644.274 477.937 644.096 478.163 643.923 478.389C642.458 480.288 641.048 482.231 639.595 484.139C638.604 485.441 637.594 486.726 636.533 487.972C634.353 490.535 632.073 493.018 629.792 495.5C628.458 496.951 627.124 498.403 625.809 499.87C624.001 501.89 622.213 503.926 620.437 505.972C619.506 507.046 618.578 508.123 617.652 509.203C617.33 509.58 617.146 510.07 616.937 510.625L616.913 510.69C616.856 510.844 616.793 511.004 616.727 511.168C616.72 511.245 616.705 511.281 616.697 511.296C616.683 511.319 616.68 511.306 616.695 511.315L616.617 511.364C613.496 513.32 610.564 515.158 606.271 514.731C605.015 514.606 603.591 516.029 602.171 517.446C601.89 517.726 601.608 518.006 601.331 518.275C600.985 518.606 600.641 518.918 600.304 519.189C599.663 519.701 599.029 520.225 598.396 520.747L598.279 520.841C597.244 521.695 596.211 522.548 595.15 523.366C594.75 523.673 594.346 523.978 593.935 524.274C593.676 524.462 593.263 524.598 592.843 524.656C592.36 524.721 591.868 524.685 591.583 524.507C589.964 523.494 588.389 522.418 586.814 521.341L585.661 520.554C584.384 519.686 583.099 518.826 581.786 518.013C581.427 517.79 581.076 517.554 580.73 517.311C580.208 516.943 579.697 516.557 579.185 516.17C577.091 514.588 574.987 513.001 572.097 512.639C571.673 512.586 571.281 512.343 570.896 512.027C570.754 511.909 570.612 511.782 570.47 511.65L570.208 511.403C569.847 511.058 569.481 510.709 569.093 510.454C568.833 510.283 568.572 510.103 568.31 509.921C567.343 509.25 566.353 508.566 565.271 508.314C562.209 507.6 559.589 506.687 557.995 503.68C556.618 501.081 554.638 499.006 551.488 497.878C550.367 497.477 549.317 496.891 548.292 496.24C547.725 495.879 547.166 495.498 546.607 495.117C546.171 494.821 545.733 494.523 545.294 494.235C544.942 494.004 544.588 493.781 544.228 493.567C543.954 493.404 543.657 493.271 543.339 493.153C543.009 493.03 542.652 492.922 542.273 492.805L542.232 492.793L541.906 492.695C541.84 492.698 541.772 492.69 541.71 492.675C541.595 492.65 541.499 492.601 541.456 492.552C540.973 492.174 540.513 491.762 540.057 491.355C539.02 490.424 538.008 489.515 536.81 489.099C534.116 488.161 532.956 486.23 531.718 484.079C530.907 482.674 529.982 481.073 528.65 480.258C528.156 479.955 527.652 479.661 527.144 479.375C526.077 478.775 524.985 478.209 523.88 477.665C522.282 476.88 520.657 476.14 519.036 475.406C518.464 475.147 517.671 475.342 516.878 475.537C516.69 475.583 516.502 475.629 516.318 475.669C516.279 475.748 516.263 475.796 516.253 475.823L516.232 475.855C512.561 476.937 509.363 478.428 507.311 481.941C505.824 484.485 503.922 487.188 499.806 486.495L499.587 486.493C499.563 486.493 499.56 486.492 499.561 486.487L499.523 486.364L499.499 486.259C499.454 486.075 499.407 485.895 499.294 485.777C494.03 480.331 488.678 474.979 481.947 470.9C481.684 470.848 481.6 470.817 481.408 470.709C479.223 467.906 476.167 466.819 472.925 466.435C468.896 465.957 464.844 465.665 460.781 465.373L457.617 465.143C457.5 465.134 457.382 465.134 457.261 465.14C457.116 465.147 456.971 465.162 456.824 465.185C456.551 465.226 456.276 465.289 456.003 465.353L455.603 465.442C454.985 465.571 454.37 465.726 453.755 465.881L453.689 465.897C452.364 466.232 451.041 466.565 449.697 466.657C447.786 466.788 446.79 467.697 446.935 469.273C447.088 470.953 446.139 471.968 445.193 472.978C444.656 473.553 444.12 474.125 443.792 474.819C443.735 474.936 443.573 475.03 443.378 475.096C443.142 475.177 442.853 475.22 442.634 475.224C440.144 475.274 437.092 472.701 436.777 470.199C436.533 468.25 435.599 466.958 433.513 466.957C433.017 466.957 432.5 466.883 431.982 466.809C430.28 466.566 428.569 466.32 427.458 468.722C426.101 471.653 424.122 473.971 419.978 473.481C417.843 473.228 415.673 473.246 413.499 473.303C412.093 473.34 410.684 473.393 409.281 473.397C405.437 473.409 404.958 474.15 405.308 477.993C405.435 479.386 405.489 480.787 405.501 482.19C405.517 483.895 405.472 485.605 405.425 487.308C405.366 489.406 404.58 490.552 401.856 490.38C399.003 490.2 396.136 490.235 393.267 490.269C392.298 490.28 391.328 490.291 390.36 490.294C389.633 490.297 388.907 490.294 388.181 490.284C387.794 490.279 387.406 490.271 387.022 490.26C386.196 490.238 384.784 489.3 384.692 488.648C384.473 487.077 384.377 485.49 384.283 483.903C384.231 483.021 384.179 482.139 384.105 481.26C384.04 480.483 383.958 479.707 383.845 478.938C383.753 478.322 383.431 477.693 383.007 477.111C382.847 476.89 382.67 476.677 382.486 476.473C382.24 476.198 381.982 475.94 381.726 475.708C381.163 475.198 380.476 474.814 379.79 474.43L379.579 474.31L379.136 474.06C378.638 473.766 378.161 473.45 377.759 473.063C375.284 470.678 369.567 470.617 367.193 473.142C365.787 474.639 362.246 475.191 360.865 473.744C358.465 471.227 355.425 471.441 352.55 471.643L352.14 471.671C347.466 471.989 342.837 472.885 338.183 473.5C335.298 473.883 333.617 475.647 332.318 477.978C332.047 478.468 331.71 479.033 331.302 479.443C331.093 479.653 330.866 479.821 330.622 479.915C329.402 480.39 328.169 480.843 326.931 481.281C326.13 481.564 325.326 481.84 324.522 482.113C323.241 482.546 321.954 482.967 320.665 483.383L320.367 483.48C318.92 483.95 317.419 484.437 315.925 484.492C313.452 484.585 312.905 485.748 312.872 487.883C312.851 489.351 312.637 490.816 312.401 492.331C312.279 493.104 312.154 493.889 312.042 494.695C311.919 494.915 311.841 494.962 311.636 495.059L310.987 495.252C309.804 495.604 308.681 495.937 307.466 496.35C307.091 496.488 306.849 496.513 306.423 496.528L304.815 496.294L303.151 496.048C300.296 495.622 297.511 495.208 294.712 494.929C294.152 494.874 292.964 496.024 292.917 496.674C292.855 497.522 292.88 498.375 292.933 499.231C292.954 499.589 292.98 499.949 293.005 500.308L293.021 500.493C293.071 501.227 293.122 501.96 293.13 502.693C293.181 507.147 293.105 511.602 293.179 516.055C293.214 518.239 292.372 519.205 290.009 519.392C289.351 519.444 288.701 519.819 288.076 520.273C287.617 520.605 287.172 520.98 286.744 521.301C286.43 521.538 286.126 521.937 285.843 522.307C285.47 522.795 285.135 523.233 284.867 523.181C283.717 522.961 282.246 522.33 281.731 521.425L281.636 521.253C281.165 520.425 280.75 519.698 280.067 519.203C279.662 518.91 279.163 518.699 278.501 518.596C278.3 518.564 278.108 518.283 277.944 517.908C277.733 517.426 277.569 516.789 277.483 516.326C277.346 515.586 277.248 514.84 277.151 514.082L277.147 514.06C277.032 513.163 276.915 512.248 276.724 511.31C276.63 511.255 276.572 511.235 276.538 511.222C276.511 511.212 276.496 511.208 276.492 511.197C276.363 511.099 276.233 510.978 276.105 510.859L276.069 510.829C275.899 510.677 275.733 510.531 275.567 510.446C275.469 510.396 275.373 510.367 275.28 510.371C273.132 510.475 272.648 509.169 272.474 507.523C272.22 505.161 270.586 504.51 268.447 504.526C268.268 504.527 268.088 504.543 267.908 504.567L267.615 504.611L267.406 504.648L267.054 504.704L266.901 504.726C262.739 505.273 262.335 505.764 262.431 509.893C262.478 511.971 262.566 514.065 262.345 516.123C262.282 516.698 261.216 517.584 260.562 517.626L260.458 517.633C255.712 517.937 253.759 518.063 252.972 519.092C252.421 519.813 252.441 520.976 252.478 522.954C252.493 523.802 252.512 524.799 252.489 525.976C252.475 526.72 252.461 527.465 252.453 528.21C252.446 528.803 252.441 529.396 252.439 529.99C252.437 530.896 252.44 531.802 252.453 532.708C252.465 533.401 252.482 534.092 252.507 534.783C252.56 536.207 252.46 537.45 251.587 538.186C251.144 538.559 250.5 538.802 249.578 538.873C249.401 538.888 249.237 539.068 249.06 539.301C248.97 539.418 248.875 539.549 248.774 539.679L248.733 539.833L248.72 539.896C248.712 539.927 248.703 539.948 248.689 539.958C248.273 540.433 247.867 540.902 247.464 541.389C247.058 541.884 246.656 542.399 246.257 542.958C246.265 543.139 246.148 543.351 246.052 543.427C244.499 544.552 243.041 545.602 241.53 546.691C240.494 545.812 239.245 544.752 237.81 543.675C237.626 543.641 237.5 543.6 237.403 543.535L237.341 543.49C237.286 543.445 237.236 543.39 237.181 543.321C236.88 540.785 236.105 538.891 233.132 538.412C232.337 538.284 231.404 537.106 231.136 536.235C230.882 535.416 230.914 534.511 230.948 533.608C230.961 533.228 230.976 532.848 230.968 532.474L229.972 481.797L229.956 481.306C229.935 480.793 229.913 480.279 229.997 479.782C230.3 477.986 229.772 476.649 227.741 476.592C225.78 476.535 224.417 477.493 224.269 479.573C224.255 479.772 224.246 479.971 224.242 480.17C224.237 480.481 224.237 480.794 224.239 481.106L224.237 485.406C224.233 489.595 224.229 493.785 224.16 497.975C224.151 498.735 223.82 499.818 223.249 500.182C221.583 501.241 221.549 502.576 221.606 504.295C221.684 506.65 221.738 509.004 221.771 511.36C221.826 515.297 221.829 519.236 221.812 523.174C221.81 523.7 220.917 524.663 220.417 524.678C216.583 524.78 212.744 524.813 208.907 524.845L204.499 524.886L202.946 524.905C201.433 524.924 200.71 524.342 200.663 522.842C200.622 521.503 200.553 520.165 200.485 518.826C200.383 516.807 200.28 514.788 200.272 512.769C200.264 510.658 199.494 509.532 197.224 509.742C195.058 509.945 194.204 508.945 194.251 506.964C194.263 506.553 194.248 506.14 194.237 505.728V505.634L194.235 505.551L194.222 505.089C194.212 504.629 194.209 504.171 194.235 503.713C194.35 501.777 194.382 499.846 191.915 499.287C189.964 498.844 186.255 501.33 186.243 503.143C186.217 507.263 186.253 511.384 186.288 515.506C186.302 517.008 186.315 518.51 186.325 520.012L186.343 523.076C186.367 531.314 186.374 539.552 186.353 547.79C186.345 550.457 186.285 553.123 186.229 555.79L186.173 558.635C186.138 560.546 185.903 561.643 185.112 562.318C184.463 562.87 183.442 563.139 181.853 563.342C178.849 563.726 178.363 564.454 178.896 567.35C179.169 568.83 179.281 570.348 179.349 571.854C179.497 575.123 180.13 575.896 183.392 576.257L183.476 576.267C184.578 576.389 185.555 576.497 186.065 577.127C186.401 577.545 186.534 578.19 186.358 579.219C186.221 580.017 187.609 581.249 188.55 581.969C189.117 582.402 189.836 582.645 190.612 582.908C191.002 583.04 191.409 583.177 191.817 583.345C191.899 583.452 191.918 583.522 191.905 583.609C191.897 583.656 191.879 583.707 191.86 583.771L191.851 583.801C191.824 583.926 191.6 583.999 191.485 583.996C190.602 584.279 189.761 584.561 188.929 584.879C188.316 585.112 187.71 585.364 187.097 585.648C187.068 585.826 187.047 585.886 187.021 585.905C186.071 588.117 184.282 589.072 181.953 589.53C180.455 589.826 178.895 590.338 177.653 591.162C176.925 591.646 176.472 592.56 176.04 593.43C175.945 593.623 175.849 593.814 175.751 593.998C175.579 594.329 175.476 594.733 175.378 595.127C175.226 595.736 175.078 596.324 174.679 596.596C173.695 597.268 172.625 597.837 171.532 598.356C170.758 598.72 169.971 599.062 169.188 599.398C168.964 599.494 168.595 599.276 168.175 599.028C167.954 598.897 167.719 598.758 167.483 598.652C167.397 598.62 167.348 598.6 167.319 598.585C167.294 598.573 167.284 598.564 167.284 598.555C167.258 598.432 167.207 598.338 167.101 598.272C167.035 598.229 166.944 598.196 166.825 598.172C166.729 598.172 166.692 598.149 166.688 598.133C166.687 598.127 166.691 598.122 166.696 598.12C166.506 597.951 166.306 597.789 166.101 597.629C165.921 597.487 165.741 597.344 165.569 597.195C165.379 597.032 165.203 596.861 165.044 596.673L164.88 596.484L164.599 596.174C164.31 595.858 164.008 595.529 163.784 595.202C163.553 594.87 163.406 594.54 163.429 594.232C163.646 591.432 161.937 590.329 159.673 589.565C159.318 589.445 158.958 589.331 158.599 589.224C158.058 589.062 157.515 588.911 156.97 588.758L156.888 588.735C156.406 588.6 155.92 588.465 155.442 588.323C155.348 588.294 155.25 588.269 155.151 588.244C154.817 588.157 154.475 588.068 154.235 587.871C153.268 587.089 152.309 586.296 151.362 585.505L148.187 582.849C152.075 581.126 152.496 580.436 151.937 576.19C151.912 576.101 151.945 576.041 151.997 576.005C152.025 575.986 152.06 575.973 152.095 575.965C152.14 575.954 152.189 575.953 152.224 575.959C155.322 576.958 157.859 575.749 160.55 574.462L160.739 574.372C160.928 574.358 160.985 574.408 160.981 574.446C161.006 574.618 161.079 574.727 161.285 574.852C161.334 574.874 161.375 574.88 161.41 574.884L161.46 574.896L161.476 574.905C161.991 575.009 162.494 575.098 163.03 575.13C163.203 575.14 163.38 575.145 163.562 575.141C163.871 574.98 164.099 574.942 164.499 574.91C164.628 574.885 164.765 574.864 164.901 574.841L165.024 574.821C165.225 574.788 165.423 574.756 165.593 574.722C165.72 574.697 165.831 574.669 165.917 574.639C166.025 574.601 166.091 574.558 166.097 574.507L166.239 573.515C166.332 572.868 166.427 572.219 166.513 571.57C166.562 571.198 166.606 570.826 166.649 570.453C166.776 569.33 166.867 568.206 166.876 567.081C166.9 564.644 166.884 562.206 166.851 559.768C166.82 557.391 166.771 555.014 166.722 552.638L166.683 550.741C166.628 547.96 167.204 545.038 164.46 542.865C164.179 542.642 164.094 542.159 164.075 541.62C164.057 541.152 164.088 540.641 164.078 540.22C163.996 536.446 163.921 532.67 163.847 528.898C163.749 523.96 163.649 519.023 163.534 514.086C163.53 513.879 163.498 513.673 163.448 513.465C163.34 513.018 163.147 512.56 162.937 512.065L162.843 511.84C162.685 511.73 162.593 511.507 162.562 511.39C162.55 510.921 162.498 510.489 162.405 510.084C162.332 509.771 162.235 509.475 162.114 509.193C161.729 508.296 161.084 507.541 160.157 506.819C159.739 506.493 159.417 505.974 159.181 505.384C159.06 505.08 158.962 504.757 158.886 504.432C158.783 503.982 158.721 503.528 158.698 503.116C158.66 502.411 158.658 501.705 158.669 500.998C158.681 500.279 158.709 499.558 158.739 498.838C158.799 497.335 158.859 495.833 158.765 494.34C158.628 492.198 158.235 489.925 154.991 489.944C154.243 489.948 153.193 489.203 152.79 488.523C151.456 486.26 149.659 486.187 147.368 487.216C147.268 487.492 147.161 487.761 147.058 488.023C146.849 488.548 146.649 489.048 146.532 489.54C146.465 489.818 146.425 490.093 146.423 490.368C146.398 494.097 146.392 497.825 146.394 501.554C146.398 505.526 146.413 509.498 146.427 513.47L146.433 514.308V515.128C146.413 516.555 146.189 517.859 144.339 518.407C144.261 518.43 144.148 518.473 144.122 518.535C143.935 518.991 143.74 519.445 143.544 519.898L143.087 520.943C142.22 522.916 141.354 524.892 140.772 526.941C140.443 528.106 140.526 529.38 140.612 530.654C140.633 530.998 140.658 531.345 140.673 531.689C140.685 531.947 140.69 532.204 140.688 532.46C140.662 536.188 140.318 536.476 136.556 536.565C134.501 536.613 132.45 536.86 130.272 537.158C130.081 537.323 129.994 537.369 129.825 537.463L129.776 537.491C127.735 537.496 125.811 537.43 123.651 537.336C123.283 537.255 122.943 537.149 122.624 537.049L122.306 536.952C122.038 536.872 121.784 536.807 121.535 536.773C121.379 536.751 121.227 536.742 121.075 536.752C120.093 536.814 119.377 536.644 118.894 536.233C118.392 535.806 118.14 535.12 118.095 534.165C118.023 532.607 117.933 531.048 117.843 529.491C117.744 527.79 117.645 526.091 117.569 524.391C117.494 522.77 117.02 521.584 115.327 520.777C115.063 520.652 114.819 520.4 114.612 520.087C114.455 519.851 114.322 519.58 114.218 519.302C114.076 518.925 113.99 518.535 113.979 518.204C113.952 517.152 113.937 516.099 113.927 515.046C113.911 513.444 113.91 511.84 113.91 510.237C113.909 507.866 113.909 505.494 113.858 503.124C113.842 502.313 113.407 501.511 112.953 500.679L112.679 500.167C112.394 500.116 112.296 500.113 112.056 500.077C111.579 499.969 111.244 499.893 110.868 499.918C110.594 500.043 110.365 500.066 109.96 500.075C109.138 500.028 108.327 499.977 107.522 499.927L107.399 499.918L107.298 499.911C105.181 499.778 103.121 499.646 101.065 499.592C100.04 499.565 99.0106 499.574 97.9814 499.594C97.3702 499.607 96.7588 499.624 96.1455 499.642C95.4404 499.661 94.7334 499.681 94.0264 499.695C91.3078 499.744 90.1788 500.713 90.0459 503.305L90.0127 503.943C89.9658 504.821 89.9209 505.702 89.9092 506.582C89.9033 506.976 89.9053 507.369 89.917 507.762C89.9326 508.295 89.9678 508.827 90.0283 509.357C90.4911 513.332 89.1981 516.916 87.9033 520.505C87.6631 521.17 87.4228 521.835 87.1943 522.502C87.1514 522.625 87.081 522.747 87.0107 522.867L86.9424 522.989C86.8604 523.137 86.796 523.283 86.8056 523.428C87.0048 526.329 85.0303 527.676 83.0869 529.001C82.6103 529.325 82.1377 529.65 81.6982 529.993C79.4679 531.741 76.747 530.887 74.1514 529.065C70.5186 526.511 69.1299 522.762 67.2061 519.22C66.335 517.615 65.3505 515.976 64.042 514.719C63.6768 514.371 63.1006 514.139 62.4775 514.011C61.874 513.888 61.2256 513.861 60.6846 513.92C58.5986 514.149 57.8428 513.714 58.5654 511.631C58.8017 510.95 58.8154 510.14 58.7119 509.418C58.6553 509.03 58.624 508.621 58.5654 508.23C58.4912 507.737 58.3739 507.269 58.1182 506.899C57.7784 506.408 57.1904 506.088 56.1221 506.11C53.0244 506.17 51.7353 507.062 51.3428 509.586C51.2842 509.954 51.2178 510.322 51.1514 510.688C51.0674 511.149 50.9834 511.611 50.917 512.075C50.3428 516.093 49.6044 516.803 45.4814 516.783C43.1103 516.772 40.7412 516.721 38.3721 516.671C35.6123 516.613 32.8545 516.554 30.0947 516.557C28.5361 516.558 27.5322 516.127 26.9639 515.216C26.6105 514.649 26.4268 513.895 26.3838 512.943C26.2686 512.383 26.2471 511.991 26.2666 511.405C26.335 509.086 26.4325 506.824 26.4853 504.588C26.5282 502.7 26.5381 500.831 26.4697 498.965C26.4364 498.028 25.1064 497.137 23.9248 496.379C22.9424 500.346 22.7509 504.155 23.7529 508.111C23.9559 508.445 24.0088 508.66 24.0596 509.044L24.0537 509.268L24.0127 512.374C23.9932 514.104 23.9892 515.822 24.0185 517.608L24.0654 520.038V520.117C24.1728 525.618 24.2783 531.001 24.1455 536.378C24.083 538.919 23.8799 541.457 23.6768 543.996L23.665 544.125C23.4872 546.361 23.3096 548.596 23.2295 550.834C23.1631 552.742 22.0225 553.019 20.8096 553.313C20.583 553.37 20.3682 553.421 20.1572 553.482C20.0148 553.524 19.8721 553.569 19.7334 553.622C13.8526 555.894 6.33203 556.731 0 557.267V0H1440.48V449.5ZM173.628 564.496C173.288 567.524 173.083 570.281 173.175 573.028C173.228 574.583 173.947 574.808 177.302 574.712C176.742 571.423 176.234 568.172 175.556 564.954C175.517 564.772 174.945 564.694 174.372 564.616L174.005 564.564C173.869 564.544 173.742 564.521 173.628 564.496ZM1145.05 537.888C1143.6 541.705 1143.59 545.725 1143.13 549.648C1142.68 553.56 1142.31 557.486 1141.91 561.407C1141.64 565.135 1141.41 568.223 1141.16 571.525L1142.03 571.626C1142.53 571.686 1142.92 571.734 1143.32 571.764C1144.31 571.841 1145.01 571.545 1145.4 570.844C1145.6 570.471 1145.72 569.984 1145.74 569.376L1145.76 569.038L1145.79 568.648C1145.81 568.44 1145.83 568.231 1145.84 568.023C1145.84 567.894 1145.85 567.764 1145.85 567.635V566.513C1145.85 557.911 1145.86 549.308 1145.84 540.705C1145.83 540.453 1145.82 540.201 1145.78 539.949C1145.76 539.782 1145.73 539.613 1145.68 539.445C1145.56 538.924 1145.35 538.406 1145.05 537.888ZM1153.73 559.801C1153.34 559.874 1152.8 560.703 1152.77 561.229C1152.7 562.597 1152.69 563.971 1152.7 565.345L1152.71 566.68V567.523C1152.99 569.008 1153.16 569.931 1153.43 570.501C1153.55 570.761 1153.69 570.948 1153.87 571.081C1154.34 571.43 1155.08 571.413 1156.43 571.382L1156.13 568.887C1155.8 566.166 1155.48 563.456 1155.07 560.762C1155.04 560.54 1154.78 560.268 1154.49 560.07C1154.36 559.974 1154.21 559.895 1154.07 559.846C1153.94 559.802 1153.82 559.784 1153.73 559.801Z" fill="#BC6A53"/>
</svg>
