<svg width="1441" height="445" viewBox="0 0 1441 445" fill="none" xmlns="http://www.w3.org/2000/svg">
<path fill-rule="evenodd" clip-rule="evenodd" d="M1440.48 283.5L1429.48 282.879L1425.41 282.585C1422.32 282.36 1419.24 282.134 1416.15 281.933C1415.33 281.88 1414.52 281.893 1413.61 281.907L1413.51 281.909C1413.09 281.915 1412.64 281.921 1412.17 281.921L1411.95 286.917C1410.35 287.467 1409.05 288.463 1409.58 290.496C1407.44 292.103 1405.96 291.095 1404.51 290.113L1404.5 290.105C1403.96 289.738 1403.42 289.374 1402.86 289.155C1400.8 288.346 1400.79 286.631 1400.77 284.866C1400.77 283.908 1400.76 282.936 1400.43 282.084C1399.62 281.523 1398.75 281.405 1397.88 281.412C1397.18 281.419 1396.47 281.51 1395.77 281.514C1395.27 281.517 1394.78 281.475 1394.3 281.327C1393.99 281.875 1393.82 282.46 1393.65 283.022C1393.34 284.057 1393.05 285.023 1391.98 285.571C1391.73 285.698 1391.58 286.058 1391.45 286.547C1391.38 286.805 1391.32 287.098 1391.25 287.411C1391.15 287.881 1391.05 288.397 1390.89 288.906C1388.59 288.963 1386.26 288.972 1383.89 288.968L1381.59 288.963C1380.38 288.96 1379.16 288.956 1377.93 288.958C1376.49 288.96 1375.04 288.969 1373.58 288.994C1372.71 292.695 1372.76 296.406 1372.81 300.133V300.183C1372.85 302.908 1372.89 305.641 1372.57 308.385H1351.5L1350.76 291.587C1347.53 291.741 1345.32 290.034 1344.28 286.302L1337.73 286.992C1337.65 287.169 1337.58 287.355 1337.52 287.545L1337.38 287.996L1337.37 288.028C1337.13 288.82 1336.89 289.592 1336.4 289.951C1335.93 290.299 1335.28 290.356 1334.61 290.358L1334.13 290.353C1333.87 290.349 1333.63 290.345 1333.39 290.353C1332.39 290.389 1331.39 290.38 1330.35 290.372H1330.33L1328.94 290.366L1328.28 287.377C1322.98 286.194 1317.87 287.35 1312.69 288.521C1310.48 289.019 1308.27 289.519 1306.01 289.845C1305.93 290.958 1305.28 291.717 1304.63 292.477C1303.75 293.498 1302.86 294.524 1303.36 296.417C1303.07 296.482 1302.79 296.56 1302.54 296.634C1302.01 296.783 1301.55 296.915 1301.09 296.881C1300.3 296.82 1299.58 296.882 1298.95 297.163C1298.33 297.438 1297.79 297.918 1297.34 298.693C1297.08 299.134 1296.54 299.475 1296.06 299.628C1293.66 300.412 1291.25 301.266 1288.8 301.814C1286.12 302.413 1285.39 303.473 1285.54 306.486C1285.59 307.357 1285.55 308.234 1285.48 309.119C1285.44 309.591 1285.4 310.065 1285.35 310.54L1285.24 311.694L1285.19 312.374C1279.21 316.556 1273.09 315.67 1266.51 313.548V341.646L1261.17 342.107L1260.66 346.802L1254.7 346.423L1254.24 342.12C1254.12 342.062 1254.01 341.998 1253.91 341.939C1253.7 341.819 1253.52 341.712 1253.33 341.688C1250.28 341.282 1250.13 340.978 1250.48 337.537C1250.6 336.382 1250.57 335.208 1250.54 333.973V333.939L1250.52 332.859L1250.51 332.15L1246.04 331.25L1245.74 326.055C1244.11 324.875 1242.53 325.209 1240.9 325.556C1240.4 325.66 1239.9 325.766 1239.39 325.831C1238.94 325.89 1238.47 325.916 1238 325.879V329.63C1237.99 332.417 1237.98 335.12 1238.02 337.823C1238.05 340.225 1238.01 340.309 1235.83 340.461C1234.24 340.573 1232.66 340.713 1230.97 340.863L1228.39 341.089V364.51L1224.41 364.911L1217.63 376.116C1217.53 376.064 1217.33 376.009 1217.17 375.933C1217.06 375.88 1216.98 375.818 1216.96 375.739C1216.56 373.451 1215.27 371.833 1213.98 370.205L1213.65 369.783C1213.48 369.568 1213.31 369.351 1213.14 369.13C1212.6 368.407 1212.16 367.576 1211.65 366.587L1211.59 366.488C1211.35 366.022 1211.09 365.521 1210.78 364.981L1207.39 364.638L1207.33 364.523L1207.24 364.348C1207.16 364.216 1207.08 364.086 1207.04 363.954C1207.01 363.881 1206.99 363.809 1206.99 363.736L1206.86 360.683C1206.71 357.274 1206.56 353.865 1206.51 350.453C1206.4 342.87 1206.3 335.286 1206.21 327.703L1206 310.781C1205.95 306.958 1205.91 303.136 1205.85 299.315C1205.83 297.927 1205.74 296.538 1205.63 294.992L1205.53 293.491L1205.47 292.521L1201.49 294.019V318.032C1201.48 319.203 1201.44 320.174 1200.29 320.973C1199.68 321.402 1199.44 322.946 1199.44 323.987C1199.44 328.931 1199.49 333.876 1199.55 338.821L1199.61 344.33L1199.62 344.802V346.127L1199.61 347.938C1196.99 348.78 1181.94 348.941 1178.37 348.286C1177.59 345.096 1177.65 341.842 1177.72 338.515C1177.74 337.3 1177.76 336.076 1177.74 334.842C1177.73 333.656 1177.67 332.46 1177.54 331.254L1172.19 330.965C1171.55 329.155 1171.68 327.25 1171.81 325.304C1171.96 323.03 1172.12 320.698 1171.06 318.391L1165.85 321.165V386.549C1165.85 387.601 1165.92 388.67 1165.78 389.703C1165.67 390.557 1165.37 391.266 1164.93 391.815C1164.34 392.544 1163.5 392.994 1162.5 393.132C1161.61 393.255 1160.72 393.438 1159.79 393.627L1159.78 393.63L1159.71 393.643C1159.31 393.727 1158.9 393.811 1158.48 393.892L1158.66 395.572L1158.83 396.98L1158.84 397.081C1159.1 399.386 1159.35 401.6 1159.52 403.821C1159.66 405.608 1160.48 406.213 1161.92 406.373C1163.97 406.601 1165.91 407.281 1168.35 408.479L1165.67 410.551C1166.03 413.297 1167.72 413.616 1169.53 413.955C1170.59 414.155 1171.7 414.362 1172.59 415.075L1165.75 418.607L1166.16 421.283L1155.4 426.185L1156.75 429.722C1156.33 430.077 1155.93 430.49 1155.54 430.902L1155.52 430.928C1154.22 432.286 1152.95 433.624 1150.83 432.848C1149.95 434.32 1149.58 435.819 1149.42 437.348C1149.32 438.447 1149.32 439.56 1149.32 440.69V440.815C1149.32 441.845 1149.32 442.889 1149.24 443.945C1148.79 444.267 1148.52 444.267 1148.24 444.267L1148.27 443.554C1148.45 440.069 1148.63 436.633 1147.49 434.127L1141.18 429.933L1143.25 426.776C1142.44 426.014 1141.77 425.124 1140.92 424.637C1139.98 424.103 1139.01 423.631 1138.04 423.173L1137.26 422.806C1136.66 422.531 1136.07 422.255 1135.49 421.969C1135.22 421.838 1134.94 421.73 1134.65 421.622C1133.49 421.181 1132.34 420.74 1132.33 418.757C1132.32 418.486 1131.9 418.169 1131.46 417.912C1131.27 417.802 1131.08 417.703 1130.92 417.623C1129.7 417.019 1128.46 416.457 1127.23 415.895L1127.02 415.8C1126.62 415.619 1126.22 415.436 1125.82 415.25L1125.78 414.504C1126.14 414.395 1126.49 414.282 1126.84 414.168L1126.93 414.142C1127.68 413.904 1128.42 413.665 1129.18 413.465C1132.49 412.593 1132.8 411.622 1130.72 408.722C1130.65 408.624 1130.63 408.483 1130.59 408.23C1130.56 408.069 1130.53 407.861 1130.48 407.59L1138.57 405.84C1139.04 401.604 1139.49 397.234 1140 392.871C1140.14 391.659 1140.28 390.446 1140.41 389.232L1140.54 388.063C1141.05 383.537 1141.56 379.01 1142.26 374.521C1143.32 367.679 1143.48 360.823 1143.25 353.924C1143.19 352.153 1143.12 350.382 1143.05 348.612C1142.93 345.487 1142.81 342.363 1142.73 339.236C1142.72 338.618 1142.72 337.999 1142.72 337.38C1142.72 334.297 1142.72 331.204 1140.8 328.345L1138.45 328.128C1137.67 324.098 1137.69 320.026 1137.71 315.948C1137.72 315.138 1137.72 314.327 1137.72 313.517C1137.72 312.004 1137.69 310.492 1137.6 308.982C1137.16 308.882 1136.74 308.78 1136.33 308.681L1135.49 308.482C1134.95 308.356 1134.43 308.238 1133.9 308.134C1133.07 307.972 1132.76 307.483 1132.62 306.869C1132.56 306.61 1132.53 306.328 1132.49 306.04C1132.47 305.867 1132.45 305.693 1132.42 305.519C1132.37 305.193 1132.3 304.87 1132.16 304.573C1131.76 304.534 1131.31 304.465 1130.84 304.436C1130.72 304.428 1130.59 304.423 1130.47 304.422C1130.35 304.421 1130.23 304.424 1130.11 304.429C1129.95 304.435 1129.79 304.446 1129.62 304.459L1129.1 304.503C1128.85 304.526 1128.58 304.551 1128.26 304.575C1128.25 304.927 1128.23 305.278 1128.21 305.626L1128.19 306.086C1128.17 306.391 1128.16 306.695 1128.15 306.998L1128.14 307.387L1128.13 307.587V307.977C1128.16 313.39 1128.2 318.803 1128.24 324.217L1128.33 336.402C1128.33 336.612 1128.33 336.823 1128.34 337.033C1128.39 338.657 1128.43 340.274 1126.47 340.96C1126.26 341.033 1126.11 341.445 1126.01 341.903C1125.94 342.208 1125.89 342.535 1125.87 342.796C1125.8 343.52 1125.81 344.253 1125.83 345.024C1125.83 345.352 1125.84 345.686 1125.84 346.029L1123.11 346.921C1123.08 346.999 1123.04 347.072 1123 347.141L1122.99 347.164L1122.98 347.176L1122.96 347.205C1122.92 347.273 1122.89 347.337 1122.86 347.398C1122.83 347.47 1122.81 347.539 1122.82 347.608L1122.86 351.212C1122.87 352.453 1122.89 353.694 1122.91 354.934C1122.94 356.455 1122.98 357.977 1123.03 359.496C1123.11 361.631 1122.84 362.129 1120.8 362.206C1120.31 362.225 1119.81 362.232 1119.32 362.232L1118.78 362.23L1118.05 362.223C1117.2 362.214 1116.34 362.205 1115.49 362.233C1111.44 362.361 1107.39 362.544 1103.34 362.688C1102.66 362.712 1101.98 362.705 1101.23 362.7L1100.06 362.693L1099.23 344.882C1096.22 344.19 1096.22 344.156 1096.2 340.879V340.363C1096.16 335.542 1096.02 330.724 1095.87 325.785C1095.81 323.674 1095.75 321.54 1095.7 319.376C1094.99 319.376 1094.28 319.435 1093.57 319.493C1092.32 319.596 1091.08 319.698 1089.94 319.484C1089.62 319.423 1089.31 319.338 1089 319.221C1087.59 318.676 1086.38 319.073 1085.18 319.464L1085.15 319.473C1084.75 319.602 1084.36 319.731 1083.96 319.823C1083.42 319.948 1082.88 320.009 1082.31 319.927C1080.79 319.708 1079.24 319.757 1077.57 319.809L1077.5 319.813C1077.08 319.826 1076.65 319.838 1076.21 319.847C1075.88 319.854 1075.54 319.858 1075.2 319.858L1075.13 324.358C1075.08 327.7 1075.04 330.922 1074.97 334.144C1074.96 334.536 1074.97 334.931 1074.98 335.325C1075.01 336.867 1075.05 338.403 1074 339.821C1073.81 340.083 1073.73 340.457 1073.71 340.879C1073.7 341.188 1073.71 341.523 1073.72 341.857C1073.73 342.058 1073.74 342.261 1073.74 342.457C1073.74 342.607 1073.74 342.752 1073.73 342.892C1073.65 344.106 1074.06 345.501 1072.46 346.053C1072.22 346.134 1072.06 346.681 1071.96 347.217C1071.92 347.434 1071.9 347.649 1071.88 347.83C1071.85 348.247 1071.83 348.665 1071.83 349.096C1071.83 349.471 1071.83 349.856 1071.84 350.254V350.292L1071.85 351.073V351.495C1069.6 351.315 1068.44 352.633 1067.22 354.174C1064.83 357.202 1061.48 356.998 1059.07 354.094C1058.41 353.289 1057.62 352.606 1056.84 351.927C1056.41 351.56 1055.98 351.194 1055.57 350.813C1055.51 350.752 1055.43 350.691 1055.35 350.628C1055.14 350.461 1054.92 350.288 1054.92 350.12C1054.92 349.43 1054.79 348.795 1054.58 348.193C1054.29 347.342 1053.85 346.555 1053.41 345.773C1052.57 344.296 1051.74 342.829 1051.97 340.95C1051.1 340.621 1050.49 340.389 1050.06 340.132C1049.8 339.979 1049.61 339.816 1049.46 339.617C1049.04 339.031 1049.03 338.134 1049.01 336.244H1043.61L1042.74 348.441C1042.38 348.474 1042.06 348.508 1041.78 348.539C1041.26 348.596 1040.87 348.639 1040.47 348.64L1038.87 348.642C1032.22 348.653 1025.56 348.664 1018.9 348.64C1015.76 348.629 1015.61 348.42 1015.58 344.807C1015.57 343.636 1015.6 342.465 1015.56 341.296V340.95C1015.56 340.424 1015.55 339.823 1015.32 339.633C1014.32 338.833 1013.9 337.876 1013.75 336.856C1013.62 336.016 1013.67 335.131 1013.72 334.256C1013.76 333.576 1013.8 332.902 1013.75 332.256C1013.61 330.202 1013.53 328.144 1013.47 326.082C1013.39 323.362 1013.35 320.638 1013.24 317.918C1013.22 317.555 1013.02 317.2 1012.82 316.846L1012.69 316.617C1012.64 316.528 1012.6 316.438 1012.56 316.348L1011.87 316.483V320.223C1011.87 322.872 1011.86 325.521 1011.87 328.17C1011.89 331.468 1011.94 334.768 1011.99 338.069C1012.1 346.007 1012.22 353.945 1011.84 361.852C1011.64 366.032 1011.46 370.226 1011.28 374.418V374.462L1011.17 376.813C1011.14 377.484 1011.04 378.153 1010.93 378.745C1010.83 379.254 1010.73 379.707 1010.67 380.061C1003.52 383.632 996.237 384.484 988.768 385.359L988.01 385.448C987.983 385.247 987.952 385.059 987.922 384.877L987.911 384.821L987.811 384.237C987.735 383.776 987.674 383.355 987.669 382.933C987.649 381.26 987.586 379.58 987.577 377.907C987.567 376.535 987.592 375.168 987.704 373.81C988.002 370.158 987.199 367.19 984.31 364.74H980.225C979.954 361.816 979.896 358.903 979.902 355.986C979.906 354.746 979.92 353.506 979.934 352.264C979.977 348.555 980.02 344.828 979.762 341.055L973.31 340.648C972.233 340.583 971.159 340.519 970.085 340.459C967.797 340.333 967.798 340.296 967.853 337.719L967.857 337.591C967.882 336.482 967.894 335.372 967.9 334.258C967.904 332.908 967.9 331.55 967.894 330.179L967.889 329.533L967.887 328.695C967.883 327.828 967.879 326.954 967.879 326.074C967.135 325.958 966.419 325.829 965.717 325.703C964.178 325.427 962.723 325.166 961.26 325.105C959.085 325.012 958.362 325.998 958.269 328.467C958.248 329 958.254 329.534 958.26 330.19L958.264 331.289L952.521 332.083C952.521 332.643 952.501 333.2 952.484 333.753C952.445 334.959 952.407 336.147 952.559 337.303C953.049 341.049 952.862 341.41 949.426 341.65C949.254 341.661 949.083 341.695 948.877 341.738C948.717 341.771 948.535 341.811 948.316 341.852L947.786 346.363L939.469 346.835L939.133 342.196L932.529 341.625V313.612C924.402 315.617 916.603 316.657 908.947 312.3C908.919 311.686 908.885 311.082 908.85 310.486C908.823 310.015 908.796 309.563 908.775 309.114C908.734 308.283 908.708 307.461 908.721 306.64C908.778 303.529 908.061 301.92 905.46 302.019C903.915 302.076 902.516 301.527 901.126 300.98L901.107 300.973C900.445 300.712 899.785 300.452 899.113 300.259C898.281 300.02 897.429 299.882 896.531 299.973C895.962 300.03 895.122 299.778 894.801 299.321C892.926 296.642 890.286 296.918 887.727 296.771C887.54 296.761 887.356 296.66 887.122 296.533L886.883 296.408L886.689 296.317L886.671 296.178C886.43 294.434 886.171 292.57 884.103 292.023C883.867 291.96 883.725 291.469 883.555 290.89L883.549 290.872C883.463 290.575 883.37 290.256 883.255 289.961C881.594 289.729 879.935 289.445 878.275 289.144L876.062 288.737C869.404 287.504 862.699 286.262 855.728 287.269L855.613 287.675L855.609 287.69C855.558 287.863 855.508 288.033 855.467 288.204C855.44 288.314 855.415 288.423 855.393 288.534C855.34 288.821 855.309 289.112 855.268 289.527C855.247 289.745 855.22 289.998 855.185 290.303C854.255 290.303 853.328 290.309 852.406 290.315C850.212 290.327 848.044 290.34 845.874 290.279C844.659 290.244 844.431 289.257 844.197 288.225L844.193 288.198L844.187 288.174C844.095 287.783 844.004 287.386 843.852 287.034L836.247 286.291C834.196 289.634 832.017 292.31 827.74 291.103L827.253 308.081C826.366 308.412 825.473 308.579 824.577 308.655C823.434 308.75 822.286 308.697 821.141 308.644C820.716 308.623 820.287 308.604 819.861 308.591C819.56 308.582 819.26 308.577 818.962 308.579C818.757 308.581 818.551 308.586 818.346 308.595C816.247 308.683 814.139 308.661 812.038 308.641L810.716 308.63L809.281 308.623H800.154C800.111 308.155 800.066 307.742 800.023 307.366C799.943 306.643 799.88 306.053 799.876 305.464C799.86 303.269 799.868 301.074 799.87 298.879C799.872 297.095 799.868 295.311 799.844 293.528C799.833 292.634 799.731 291.743 799.622 290.734L799.609 290.649L799.592 290.499C799.538 290.019 799.483 289.509 799.43 288.961H777.497C777.395 288.728 777.308 288.486 777.232 288.242C777.154 287.993 777.087 287.743 777.018 287.496C776.649 286.149 776.302 284.891 774.65 284.611C774.31 284.553 774.083 283.651 773.846 282.72L773.699 282.148C773.634 281.908 773.569 281.678 773.499 281.473C772.942 281.473 772.389 281.468 771.841 281.464C770.612 281.454 769.389 281.445 768.171 281.485C767.079 281.52 766.511 281.575 766.189 281.921C765.875 282.258 765.792 282.871 765.678 284.01C765.655 284.237 765.639 284.466 765.624 284.696C765.606 284.924 765.588 285.153 765.566 285.378L765.548 285.574L765.508 285.858C765.479 286.054 765.44 286.247 765.387 286.436C765.178 287.197 764.797 288.464 764.406 288.506C763.246 288.632 762.27 289.273 761.294 289.912L761.269 289.93C760.818 290.225 760.367 290.519 759.898 290.762C759.203 291.122 758.469 291.368 757.633 291.334L757.327 291.324C755.598 291.261 754.098 291.209 753.673 288.571C753.553 287.834 752.188 287.351 751.352 286.718C751.274 284.235 751.237 283.039 750.624 282.464C750.055 281.931 748.989 281.933 746.934 281.936H746.915L746.023 281.94C744.414 282.625 742.801 283.311 741.187 283.993C739.201 284.832 737.214 285.665 735.22 286.482C734.899 286.612 734.575 286.734 734.247 286.849C734.018 286.929 733.79 287.006 733.557 287.081C732.794 287.328 732.006 287.551 731.191 287.783C730.715 287.916 730.228 288.054 729.734 288.2C722.259 289.159 715.6 291.544 709.712 295.886C706.62 298.165 703.498 300.41 700.363 302.671C697.568 304.687 694.76 306.714 691.947 308.788C691.9 308.913 691.859 308.899 691.857 308.903C689.914 308.783 688.196 308.998 686.888 310.824C686.522 311.335 684.889 311.448 684.081 311.142C682.102 310.395 680.134 309.621 678.171 308.837C676.805 308.291 675.442 307.741 674.079 307.19C672.393 306.508 670.704 305.825 669.013 305.153C668.552 304.969 667.994 305.014 667.271 304.99C666.882 304.962 666.705 304.901 666.402 304.773C663.217 300.361 657.1 300.052 653.335 303.832C650.95 306.226 648.179 308.258 645.617 310.491C645.338 310.734 645.077 311.001 644.829 311.279C644.702 311.421 644.579 311.568 644.458 311.715C644.274 311.937 644.096 312.163 643.923 312.389C642.458 314.288 641.048 316.231 639.595 318.139C638.604 319.441 637.594 320.726 636.533 321.972C634.353 324.535 632.073 327.018 629.792 329.5C628.458 330.951 627.124 332.403 625.809 333.87C624.001 335.89 622.213 337.926 620.437 339.972C619.506 341.046 618.578 342.123 617.652 343.203C617.33 343.58 617.146 344.07 616.937 344.625L616.913 344.69C616.856 344.844 616.793 345.004 616.727 345.168C616.72 345.245 616.705 345.281 616.697 345.296C616.683 345.319 616.68 345.306 616.695 345.315L616.617 345.364C613.496 347.32 610.564 349.158 606.271 348.731C605.015 348.606 603.591 350.029 602.171 351.446C601.89 351.726 601.608 352.006 601.331 352.275C600.985 352.606 600.641 352.918 600.304 353.189C599.663 353.701 599.029 354.225 598.396 354.747L598.279 354.841C597.244 355.695 596.211 356.548 595.15 357.366C594.75 357.673 594.346 357.978 593.935 358.274C593.676 358.462 593.263 358.598 592.843 358.656C592.36 358.721 591.868 358.685 591.583 358.507C589.964 357.494 588.389 356.418 586.814 355.341L585.661 354.554C584.384 353.686 583.099 352.826 581.786 352.013C581.427 351.79 581.076 351.554 580.73 351.311C580.208 350.943 579.697 350.557 579.185 350.17C577.091 348.588 574.987 347.001 572.097 346.639C571.673 346.586 571.281 346.343 570.896 346.027C570.754 345.909 570.612 345.782 570.47 345.65L570.208 345.403C569.847 345.058 569.481 344.709 569.093 344.454C568.833 344.283 568.572 344.103 568.31 343.921C567.343 343.25 566.353 342.566 565.271 342.314C562.209 341.6 559.589 340.687 557.995 337.68C556.618 335.081 554.638 333.006 551.488 331.878C550.367 331.477 549.317 330.891 548.292 330.24C547.725 329.879 547.166 329.498 546.607 329.117C546.171 328.821 545.733 328.523 545.294 328.235C544.942 328.004 544.588 327.781 544.228 327.567C543.954 327.404 543.657 327.271 543.339 327.153C543.009 327.03 542.652 326.922 542.273 326.805L542.232 326.793L541.906 326.695C541.84 326.698 541.772 326.69 541.71 326.675C541.595 326.65 541.499 326.601 541.456 326.552C540.973 326.174 540.513 325.762 540.057 325.355C539.02 324.424 538.008 323.515 536.81 323.099C534.116 322.161 532.956 320.23 531.718 318.079C530.907 316.674 529.982 315.073 528.65 314.258C528.156 313.955 527.652 313.661 527.144 313.375C526.077 312.775 524.985 312.209 523.88 311.665C522.282 310.88 520.657 310.14 519.036 309.406C518.464 309.147 517.671 309.342 516.878 309.537C516.69 309.583 516.502 309.629 516.318 309.669C516.279 309.748 516.263 309.796 516.253 309.823L516.232 309.855C512.561 310.937 509.363 312.428 507.311 315.941C505.824 318.485 503.922 321.188 499.806 320.495L499.587 320.493C499.563 320.493 499.56 320.492 499.561 320.487L499.523 320.364L499.499 320.259C499.454 320.075 499.407 319.895 499.294 319.777C494.03 314.331 488.678 308.979 481.947 304.9C481.684 304.848 481.6 304.817 481.408 304.709C479.223 301.906 476.167 300.819 472.925 300.435C468.896 299.957 464.844 299.665 460.781 299.373L457.617 299.143C457.5 299.134 457.382 299.134 457.261 299.14C457.116 299.147 456.971 299.162 456.824 299.185C456.551 299.226 456.276 299.289 456.003 299.353L455.603 299.442C454.985 299.571 454.37 299.726 453.755 299.881L453.689 299.897C452.364 300.232 451.041 300.565 449.697 300.657C447.786 300.788 446.79 301.697 446.935 303.273C447.088 304.953 446.139 305.968 445.193 306.978C444.656 307.553 444.12 308.125 443.792 308.819C443.735 308.936 443.573 309.03 443.378 309.096C443.142 309.177 442.853 309.22 442.634 309.224C440.144 309.274 437.092 306.701 436.777 304.199C436.533 302.25 435.599 300.958 433.513 300.957C433.017 300.957 432.5 300.883 431.982 300.809C430.28 300.566 428.569 300.32 427.458 302.722C426.101 305.653 424.122 307.971 419.978 307.481C417.843 307.228 415.673 307.246 413.499 307.303C412.093 307.34 410.684 307.393 409.281 307.397C405.437 307.409 404.958 308.15 405.308 311.993C405.435 313.386 405.489 314.787 405.501 316.19C405.517 317.895 405.472 319.605 405.425 321.308C405.366 323.406 404.58 324.552 401.856 324.38C399.003 324.2 396.136 324.235 393.267 324.269C392.298 324.28 391.328 324.291 390.36 324.294C389.633 324.297 388.907 324.294 388.181 324.284C387.794 324.279 387.406 324.271 387.022 324.26C386.196 324.238 384.784 323.3 384.692 322.648C384.473 321.077 384.377 319.49 384.283 317.903C384.231 317.021 384.179 316.139 384.105 315.26C384.04 314.483 383.958 313.707 383.845 312.938C383.753 312.322 383.431 311.693 383.007 311.111C382.847 310.89 382.67 310.677 382.486 310.473C382.24 310.198 381.982 309.94 381.726 309.708C381.163 309.198 380.476 308.814 379.79 308.43L379.579 308.31L379.136 308.06C378.638 307.766 378.161 307.45 377.759 307.063C375.284 304.678 369.567 304.617 367.193 307.142C365.787 308.639 362.246 309.191 360.865 307.744C358.465 305.227 355.425 305.441 352.55 305.643L352.14 305.671C347.466 305.989 342.837 306.885 338.183 307.5C335.298 307.883 333.617 309.647 332.318 311.978C332.047 312.468 331.71 313.033 331.302 313.443C331.093 313.653 330.866 313.821 330.622 313.915C329.402 314.39 328.169 314.843 326.931 315.281C326.13 315.564 325.326 315.84 324.522 316.113C323.241 316.546 321.954 316.967 320.665 317.383L320.367 317.48C318.92 317.95 317.419 318.437 315.925 318.492C313.452 318.585 312.905 319.748 312.872 321.883C312.851 323.351 312.637 324.816 312.401 326.331C312.279 327.104 312.154 327.889 312.042 328.695C311.919 328.915 311.841 328.962 311.636 329.059L310.987 329.252C309.804 329.604 308.681 329.937 307.466 330.35C307.091 330.488 306.849 330.513 306.423 330.528L304.815 330.294L303.151 330.048C300.296 329.622 297.511 329.208 294.712 328.929C294.152 328.874 292.964 330.024 292.917 330.674C292.855 331.522 292.88 332.375 292.933 333.231C292.954 333.589 292.98 333.949 293.005 334.308L293.021 334.493C293.071 335.227 293.122 335.96 293.13 336.693C293.181 341.147 293.105 345.602 293.179 350.055C293.214 352.239 292.372 353.205 290.009 353.392C289.351 353.444 288.701 353.819 288.076 354.273C287.617 354.605 287.172 354.98 286.744 355.301C286.43 355.538 286.126 355.937 285.843 356.307C285.47 356.795 285.135 357.233 284.867 357.181C283.717 356.961 282.246 356.33 281.731 355.425L281.636 355.253C281.165 354.425 280.75 353.698 280.067 353.203C279.662 352.91 279.163 352.699 278.501 352.596C278.3 352.564 278.108 352.283 277.944 351.908C277.733 351.426 277.569 350.789 277.483 350.326C277.346 349.586 277.248 348.84 277.151 348.082L277.147 348.06C277.032 347.163 276.915 346.248 276.724 345.31C276.63 345.255 276.572 345.235 276.538 345.222C276.511 345.212 276.496 345.208 276.492 345.197C276.363 345.099 276.233 344.978 276.105 344.859L276.069 344.829C275.899 344.677 275.733 344.531 275.567 344.446C275.469 344.396 275.373 344.367 275.28 344.371C273.132 344.475 272.648 343.169 272.474 341.523C272.22 339.161 270.586 338.51 268.447 338.526C268.268 338.527 268.088 338.543 267.908 338.567L267.615 338.611L267.406 338.648L267.054 338.704L266.901 338.726C262.739 339.273 262.335 339.764 262.431 343.893C262.478 345.971 262.566 348.065 262.345 350.123C262.282 350.698 261.216 351.584 260.562 351.626L260.458 351.633C255.712 351.937 253.759 352.063 252.972 353.092C252.421 353.813 252.441 354.976 252.478 356.954C252.493 357.802 252.512 358.799 252.489 359.976C252.475 360.72 252.461 361.465 252.453 362.21C252.446 362.803 252.441 363.396 252.439 363.99C252.437 364.896 252.44 365.802 252.453 366.708C252.465 367.401 252.482 368.092 252.507 368.783C252.56 370.207 252.46 371.45 251.587 372.186C251.144 372.559 250.5 372.802 249.578 372.873C249.401 372.888 249.237 373.068 249.06 373.301C248.97 373.418 248.875 373.549 248.774 373.679L248.733 373.833L248.72 373.896C248.712 373.927 248.703 373.948 248.689 373.958C248.273 374.433 247.867 374.902 247.464 375.389C247.058 375.884 246.656 376.399 246.257 376.958C246.265 377.139 246.148 377.351 246.052 377.427C244.499 378.552 243.041 379.602 241.53 380.691C240.494 379.812 239.245 378.752 237.81 377.675C237.626 377.641 237.5 377.6 237.403 377.535L237.341 377.49C237.286 377.445 237.236 377.39 237.181 377.321C236.88 374.785 236.105 372.891 233.132 372.412C232.337 372.284 231.404 371.106 231.136 370.235C230.882 369.416 230.914 368.511 230.948 367.608C230.961 367.228 230.976 366.848 230.968 366.474L229.972 315.797L229.956 315.306C229.935 314.793 229.913 314.279 229.997 313.782C230.3 311.986 229.772 310.649 227.741 310.592C225.78 310.535 224.417 311.493 224.269 313.573C224.255 313.772 224.246 313.971 224.242 314.17C224.237 314.481 224.237 314.794 224.239 315.106L224.237 319.406C224.233 323.595 224.229 327.785 224.16 331.975C224.151 332.735 223.82 333.818 223.249 334.182C221.583 335.241 221.549 336.576 221.606 338.295C221.684 340.65 221.738 343.004 221.771 345.36C221.826 349.297 221.829 353.236 221.812 357.174C221.81 357.7 220.917 358.663 220.417 358.678C216.583 358.78 212.744 358.813 208.907 358.845L204.499 358.886L202.946 358.905C201.433 358.924 200.71 358.342 200.663 356.842C200.622 355.503 200.553 354.165 200.485 352.826C200.383 350.807 200.28 348.788 200.272 346.769C200.264 344.658 199.494 343.532 197.224 343.742C195.058 343.945 194.204 342.945 194.251 340.964C194.263 340.553 194.248 340.14 194.237 339.728V339.634L194.235 339.551L194.222 339.089C194.212 338.629 194.209 338.171 194.235 337.713C194.35 335.777 194.382 333.846 191.915 333.287C189.964 332.844 186.255 335.33 186.243 337.143C186.217 341.263 186.253 345.384 186.288 349.506C186.302 351.008 186.315 352.51 186.325 354.012L186.343 357.076C186.367 365.314 186.374 373.552 186.353 381.79C186.345 384.457 186.285 387.123 186.229 389.79L186.173 392.635C186.138 394.546 185.903 395.643 185.112 396.318C184.463 396.87 183.442 397.139 181.853 397.342C178.849 397.726 178.363 398.454 178.896 401.35C179.169 402.83 179.281 404.348 179.349 405.854C179.497 409.123 180.13 409.896 183.392 410.257L183.476 410.267C184.578 410.389 185.555 410.497 186.065 411.127C186.401 411.545 186.534 412.19 186.358 413.219C186.221 414.017 187.609 415.249 188.55 415.969C189.117 416.402 189.836 416.645 190.612 416.908C191.002 417.04 191.409 417.177 191.817 417.345C191.899 417.452 191.918 417.522 191.905 417.609C191.897 417.656 191.879 417.707 191.86 417.771L191.851 417.801C191.824 417.926 191.6 417.999 191.485 417.996C190.602 418.279 189.761 418.561 188.929 418.879C188.316 419.112 187.71 419.364 187.097 419.648C187.068 419.826 187.047 419.886 187.021 419.905C186.071 422.117 184.282 423.072 181.953 423.53C180.455 423.826 178.895 424.338 177.653 425.162C176.925 425.646 176.472 426.56 176.04 427.43C175.945 427.623 175.849 427.814 175.751 427.998C175.579 428.329 175.476 428.733 175.378 429.127C175.226 429.736 175.078 430.324 174.679 430.596C173.695 431.268 172.625 431.837 171.532 432.356C170.758 432.72 169.971 433.062 169.188 433.398C168.964 433.494 168.595 433.276 168.175 433.028C167.954 432.897 167.719 432.758 167.483 432.652C167.397 432.62 167.348 432.6 167.319 432.585C167.294 432.573 167.284 432.564 167.284 432.555C167.258 432.432 167.207 432.338 167.101 432.272C167.035 432.229 166.944 432.196 166.825 432.172C166.729 432.172 166.692 432.149 166.688 432.133C166.687 432.127 166.691 432.122 166.696 432.12C166.506 431.951 166.306 431.789 166.101 431.629C165.921 431.487 165.741 431.344 165.569 431.195C165.379 431.032 165.203 430.861 165.044 430.673L164.88 430.484L164.599 430.174C164.31 429.858 164.008 429.529 163.784 429.202C163.553 428.87 163.406 428.54 163.429 428.232C163.646 425.432 161.937 424.329 159.673 423.565C159.318 423.445 158.958 423.331 158.599 423.224C158.058 423.062 157.515 422.911 156.97 422.758L156.888 422.735C156.406 422.6 155.92 422.465 155.442 422.323C155.348 422.294 155.25 422.269 155.151 422.244C154.817 422.157 154.475 422.068 154.235 421.871C153.268 421.089 152.309 420.296 151.362 419.505L148.187 416.849C152.075 415.126 152.496 414.436 151.937 410.19C151.912 410.101 151.945 410.041 151.997 410.005C152.025 409.986 152.06 409.973 152.095 409.965C152.14 409.954 152.189 409.953 152.224 409.959C155.322 410.958 157.859 409.749 160.55 408.462L160.739 408.372C160.928 408.358 160.985 408.408 160.981 408.446C161.006 408.618 161.079 408.727 161.285 408.852C161.334 408.874 161.375 408.88 161.41 408.884L161.46 408.896L161.476 408.905C161.991 409.009 162.494 409.098 163.03 409.13C163.203 409.14 163.38 409.145 163.562 409.141C163.871 408.98 164.099 408.942 164.499 408.91C164.628 408.885 164.765 408.864 164.901 408.841L165.024 408.821C165.225 408.788 165.423 408.756 165.593 408.722C165.72 408.697 165.831 408.669 165.917 408.639C166.025 408.601 166.091 408.558 166.097 408.507L166.239 407.515C166.332 406.868 166.427 406.219 166.513 405.57C166.562 405.198 166.606 404.826 166.649 404.453C166.776 403.33 166.867 402.206 166.876 401.081C166.9 398.644 166.884 396.206 166.851 393.768C166.82 391.391 166.771 389.014 166.722 386.638L166.683 384.741C166.628 381.96 167.204 379.038 164.46 376.865C164.179 376.642 164.094 376.159 164.075 375.62C164.057 375.152 164.088 374.641 164.078 374.22C163.996 370.446 163.921 366.67 163.847 362.898C163.749 357.96 163.649 353.023 163.534 348.086C163.53 347.879 163.498 347.673 163.448 347.465C163.34 347.018 163.147 346.56 162.937 346.065L162.843 345.84C162.685 345.73 162.593 345.507 162.562 345.39C162.55 344.921 162.498 344.489 162.405 344.084C162.332 343.771 162.235 343.475 162.114 343.193C161.729 342.296 161.084 341.541 160.157 340.819C159.739 340.493 159.417 339.974 159.181 339.384C159.06 339.08 158.962 338.757 158.886 338.432C158.783 337.982 158.721 337.528 158.698 337.116C158.66 336.411 158.658 335.705 158.669 334.998C158.681 334.279 158.709 333.558 158.739 332.838C158.799 331.335 158.859 329.833 158.765 328.34C158.628 326.198 158.235 323.925 154.991 323.944C154.243 323.948 153.193 323.203 152.79 322.523C151.456 320.26 149.659 320.187 147.368 321.216C147.268 321.492 147.161 321.761 147.058 322.023C146.849 322.548 146.649 323.048 146.532 323.54C146.465 323.818 146.425 324.093 146.423 324.368C146.398 328.097 146.392 331.825 146.394 335.554C146.398 339.526 146.413 343.498 146.427 347.47L146.433 348.308V349.128C146.413 350.555 146.189 351.859 144.339 352.407C144.261 352.43 144.148 352.473 144.122 352.535C143.935 352.991 143.74 353.445 143.544 353.898L143.087 354.943C142.22 356.916 141.354 358.892 140.772 360.941C140.443 362.106 140.526 363.38 140.612 364.654C140.633 364.998 140.658 365.345 140.673 365.689C140.685 365.947 140.69 366.204 140.688 366.46C140.662 370.188 140.318 370.476 136.556 370.565C134.501 370.613 132.45 370.86 130.272 371.158C130.081 371.323 129.994 371.369 129.825 371.463L129.776 371.491C127.735 371.496 125.811 371.43 123.651 371.336C123.283 371.255 122.943 371.149 122.624 371.049L122.306 370.952C122.038 370.872 121.784 370.807 121.535 370.773C121.379 370.751 121.227 370.742 121.075 370.752C120.093 370.814 119.377 370.644 118.894 370.233C118.392 369.806 118.14 369.12 118.095 368.165C118.023 366.607 117.933 365.048 117.843 363.491C117.744 361.79 117.645 360.091 117.569 358.391C117.494 356.77 117.02 355.584 115.327 354.777C115.063 354.652 114.819 354.4 114.612 354.087C114.455 353.851 114.322 353.58 114.218 353.302C114.076 352.925 113.99 352.535 113.979 352.204C113.952 351.152 113.937 350.099 113.927 349.046C113.911 347.444 113.91 345.84 113.91 344.237C113.909 341.866 113.909 339.494 113.858 337.124C113.842 336.313 113.407 335.511 112.953 334.679L112.679 334.167C112.394 334.116 112.296 334.113 112.056 334.077C111.579 333.969 111.244 333.893 110.868 333.918C110.594 334.043 110.365 334.066 109.96 334.075C109.138 334.028 108.327 333.977 107.522 333.927L107.399 333.918L107.298 333.911C105.181 333.778 103.121 333.646 101.065 333.592C100.04 333.565 99.0106 333.574 97.9814 333.594C97.3702 333.607 96.7588 333.624 96.1455 333.642C95.4404 333.661 94.7334 333.681 94.0264 333.695C91.3078 333.744 90.1788 334.713 90.0459 337.305L90.0127 337.943C89.9658 338.821 89.9209 339.702 89.9092 340.582C89.9033 340.976 89.9053 341.369 89.917 341.762C89.9326 342.295 89.9678 342.827 90.0283 343.357C90.4911 347.332 89.1981 350.916 87.9033 354.505C87.6631 355.17 87.4228 355.835 87.1943 356.502C87.1514 356.625 87.081 356.747 87.0107 356.867L86.9424 356.989C86.8604 357.137 86.796 357.283 86.8056 357.428C87.0048 360.329 85.0303 361.676 83.0869 363.001C82.6103 363.325 82.1377 363.65 81.6982 363.993C79.4679 365.741 76.747 364.887 74.1514 363.065C70.5186 360.511 69.1299 356.762 67.2061 353.22C66.335 351.615 65.3505 349.976 64.042 348.719C63.6768 348.371 63.1006 348.139 62.4775 348.011C61.874 347.888 61.2256 347.861 60.6846 347.92C58.5986 348.149 57.8428 347.714 58.5654 345.631C58.8017 344.95 58.8154 344.14 58.7119 343.418C58.6553 343.03 58.624 342.621 58.5654 342.23C58.4912 341.737 58.3739 341.269 58.1182 340.899C57.7784 340.408 57.1904 340.088 56.1221 340.11C53.0244 340.17 51.7353 341.062 51.3428 343.586C51.2842 343.954 51.2178 344.322 51.1514 344.688C51.0674 345.149 50.9834 345.611 50.917 346.075C50.3428 350.093 49.6044 350.803 45.4814 350.783C43.1103 350.772 40.7412 350.721 38.3721 350.671C35.6123 350.613 32.8545 350.554 30.0947 350.557C28.5361 350.558 27.5322 350.127 26.9639 349.216C26.6105 348.649 26.4268 347.895 26.3838 346.943C26.2686 346.383 26.2471 345.991 26.2666 345.405C26.335 343.086 26.4325 340.824 26.4853 338.588C26.5282 336.7 26.5381 334.831 26.4697 332.965C26.4364 332.028 25.1064 331.137 23.9248 330.379C22.9424 334.346 22.7509 338.155 23.7529 342.111C23.9559 342.445 24.0088 342.66 24.0596 343.044L24.0537 343.268L24.0127 346.374C23.9932 348.104 23.9892 349.822 24.0185 351.608L24.0654 354.038V354.117C24.1728 359.618 24.2783 365.001 24.1455 370.378C24.083 372.919 23.8799 375.457 23.6768 377.996L23.665 378.125C23.4872 380.361 23.3096 382.596 23.2295 384.834C23.1631 386.742 22.0225 387.019 20.8096 387.313C20.583 387.37 20.3682 387.421 20.1572 387.482C20.0148 387.524 19.8721 387.569 19.7334 387.622C13.8526 389.894 6.33203 390.731 0 391.267V0H1440.48V283.5ZM173.628 398.496C173.288 401.524 173.083 404.281 173.175 407.028C173.228 408.583 173.947 408.808 177.302 408.712C176.742 405.423 176.234 402.172 175.556 398.954C175.517 398.772 174.945 398.694 174.372 398.616L174.005 398.564C173.869 398.544 173.742 398.521 173.628 398.496ZM1145.05 371.888C1143.6 375.705 1143.59 379.725 1143.13 383.648C1142.68 387.56 1142.31 391.486 1141.91 395.407C1141.64 399.135 1141.41 402.223 1141.16 405.525L1142.03 405.626C1142.53 405.686 1142.92 405.734 1143.32 405.764C1144.31 405.841 1145.01 405.545 1145.4 404.844C1145.6 404.471 1145.72 403.984 1145.74 403.376L1145.76 403.038L1145.79 402.648C1145.81 402.44 1145.83 402.231 1145.84 402.023C1145.84 401.894 1145.85 401.764 1145.85 401.635V400.513C1145.85 391.911 1145.86 383.308 1145.84 374.705C1145.83 374.453 1145.82 374.201 1145.78 373.949C1145.76 373.782 1145.73 373.613 1145.68 373.445C1145.56 372.924 1145.35 372.406 1145.05 371.888ZM1153.73 393.801C1153.34 393.874 1152.8 394.703 1152.77 395.229C1152.7 396.597 1152.69 397.971 1152.7 399.345L1152.71 400.68V401.523C1152.99 403.008 1153.16 403.931 1153.43 404.501C1153.55 404.761 1153.69 404.948 1153.87 405.081C1154.34 405.43 1155.08 405.413 1156.43 405.382L1156.13 402.887C1155.8 400.166 1155.48 397.456 1155.07 394.762C1155.04 394.54 1154.78 394.268 1154.49 394.07C1154.36 393.974 1154.21 393.895 1154.07 393.846C1153.94 393.802 1153.82 393.784 1153.73 393.801Z" fill="#D17D54"/>
</svg>
