<svg width="1440" height="270" viewBox="0 0 1440 270" fill="none" xmlns="http://www.w3.org/2000/svg">
<path fill-rule="evenodd" clip-rule="evenodd" d="M1440 109.145L1429.49 108.552L1425.42 108.258C1422.33 108.033 1419.25 107.806 1416.16 107.605C1415.34 107.552 1414.53 107.566 1413.62 107.58L1413.52 107.582C1413.1 107.588 1412.65 107.594 1412.18 107.594L1411.96 112.59C1410.36 113.14 1409.06 114.136 1409.59 116.169C1407.45 117.776 1405.97 116.768 1404.52 115.786L1404.51 115.777C1403.97 115.41 1403.43 115.047 1402.87 114.828C1400.81 114.019 1400.8 112.304 1400.78 110.539C1400.78 109.581 1400.77 108.609 1400.44 107.757C1399.63 107.196 1398.76 107.078 1397.89 107.085C1397.19 107.092 1396.48 107.183 1395.78 107.187C1395.28 107.189 1394.79 107.148 1394.31 107C1394 107.548 1393.83 108.132 1393.66 108.694C1393.35 109.73 1393.06 110.696 1391.99 111.244C1391.74 111.37 1391.59 111.731 1391.46 112.22C1391.39 112.478 1391.33 112.771 1391.26 113.084C1391.16 113.554 1391.06 114.07 1390.9 114.579C1388.6 114.636 1386.27 114.645 1383.9 114.641L1381.6 114.636C1380.39 114.633 1379.17 114.629 1377.94 114.631C1376.5 114.633 1375.05 114.642 1373.59 114.667C1372.72 118.368 1372.77 122.079 1372.82 125.806V125.855C1372.86 128.58 1372.9 131.314 1372.58 134.058H1351.51L1350.77 117.26C1347.54 117.414 1345.33 115.707 1344.29 111.975L1337.74 112.665C1337.66 112.842 1337.59 113.028 1337.53 113.218L1337.39 113.669L1337.38 113.701C1337.14 114.493 1336.9 115.265 1336.41 115.624C1335.94 115.972 1335.29 116.029 1334.62 116.031L1334.14 116.025C1333.88 116.021 1333.64 116.017 1333.4 116.025C1332.4 116.061 1331.4 116.053 1330.36 116.045H1330.34L1328.95 116.039L1328.29 113.05C1322.99 111.867 1317.88 113.022 1312.7 114.193C1310.49 114.691 1308.28 115.192 1306.02 115.518C1305.94 116.63 1305.29 117.389 1304.64 118.149C1303.76 119.17 1302.87 120.197 1303.37 122.09C1303.08 122.155 1302.8 122.233 1302.55 122.307C1302.02 122.456 1301.56 122.588 1301.1 122.554C1300.31 122.493 1299.59 122.555 1298.96 122.836C1298.34 123.111 1297.8 123.591 1297.35 124.366C1297.09 124.807 1296.55 125.148 1296.07 125.301C1293.67 126.085 1291.26 126.938 1288.81 127.486C1286.13 128.085 1285.4 129.146 1285.55 132.159C1285.6 133.03 1285.56 133.907 1285.49 134.792C1285.45 135.264 1285.41 135.738 1285.36 136.213L1285.25 137.367L1285.2 138.047C1279.22 142.229 1273.1 141.343 1266.52 139.221V167.318L1261.18 167.78L1260.67 172.475L1254.71 172.096L1254.25 167.793C1254.13 167.735 1254.02 167.671 1253.92 167.611C1253.71 167.491 1253.53 167.384 1253.34 167.36C1250.29 166.954 1250.14 166.651 1250.49 163.21C1250.61 162.055 1250.58 160.881 1250.55 159.646V159.611L1250.53 158.532L1250.52 157.823L1246.05 156.923L1245.75 151.728C1244.12 150.548 1242.54 150.882 1240.91 151.229C1240.41 151.333 1239.91 151.439 1239.4 151.504C1238.95 151.563 1238.48 151.589 1238.01 151.552V155.303C1238 158.09 1237.99 160.793 1238.03 163.496C1238.06 165.898 1238.02 165.982 1235.84 166.134C1234.25 166.246 1232.67 166.386 1230.98 166.536L1228.4 166.762V190.183L1224.42 190.584L1217.64 201.789C1217.54 201.737 1217.34 201.681 1217.18 201.605C1217.07 201.553 1216.99 201.491 1216.97 201.412C1216.57 199.124 1215.28 197.506 1213.99 195.878L1213.66 195.456C1213.49 195.241 1213.32 195.024 1213.15 194.803C1212.61 194.08 1212.17 193.249 1211.66 192.26L1211.6 192.161C1211.36 191.695 1211.1 191.194 1210.79 190.653L1207.4 190.311L1207.34 190.195L1207.25 190.021C1207.17 189.889 1207.09 189.759 1207.05 189.627C1207.02 189.554 1207 189.482 1207 189.409L1206.87 186.355C1206.72 182.947 1206.57 179.538 1206.52 176.126C1206.41 168.543 1206.31 160.959 1206.22 153.376L1206.01 136.454C1205.96 132.631 1205.92 128.809 1205.86 124.987C1205.84 123.599 1205.75 122.211 1205.64 120.665L1205.54 119.164L1205.48 118.193L1201.5 119.691V143.705C1201.49 144.876 1201.45 145.847 1200.3 146.646C1199.69 147.075 1199.45 148.619 1199.45 149.66C1199.45 154.604 1199.5 159.549 1199.56 164.494L1199.62 170.003L1199.63 170.475V171.8L1199.62 173.61C1197 174.452 1181.95 174.614 1178.38 173.959C1177.6 170.769 1177.66 167.514 1177.73 164.188C1177.75 162.973 1177.77 161.749 1177.75 160.515C1177.74 159.329 1177.68 158.133 1177.55 156.927L1172.2 156.638C1171.56 154.828 1171.69 152.922 1171.82 150.977C1171.97 148.703 1172.13 146.37 1171.07 144.063L1165.86 146.838V212.222C1165.86 213.274 1165.93 214.343 1165.79 215.376C1165.68 216.23 1165.38 216.938 1164.94 217.487C1164.35 218.217 1163.51 218.667 1162.51 218.805C1161.62 218.928 1160.73 219.111 1159.8 219.3L1159.79 219.303L1159.72 219.315C1159.32 219.399 1158.91 219.483 1158.49 219.564L1158.67 221.245L1158.84 222.652L1158.85 222.754C1159.11 225.059 1159.36 227.273 1159.53 229.494C1159.67 231.281 1160.49 231.886 1161.93 232.046C1163.98 232.274 1165.92 232.953 1168.36 234.151L1165.68 236.224C1166.04 238.97 1167.73 239.289 1169.54 239.628C1170.6 239.828 1171.71 240.035 1172.6 240.748L1165.76 244.279L1166.17 246.956L1155.41 251.857L1156.76 255.395C1156.34 255.75 1155.94 256.163 1155.55 256.575L1155.53 256.601C1154.23 257.959 1152.96 259.296 1150.84 258.521C1149.96 259.992 1149.59 261.492 1149.43 263.021C1149.33 264.12 1149.33 265.232 1149.33 266.362V266.488C1149.33 267.518 1149.33 268.561 1149.25 269.618C1148.8 269.94 1148.53 269.939 1148.25 269.939L1148.28 269.227C1148.46 265.742 1148.64 262.306 1147.5 259.8L1141.19 255.605L1143.26 252.449C1142.45 251.687 1141.78 250.797 1140.93 250.31C1139.99 249.776 1139.02 249.304 1138.05 248.846L1137.27 248.479C1136.67 248.204 1136.08 247.928 1135.5 247.642C1135.23 247.511 1134.95 247.403 1134.66 247.295C1133.5 246.854 1132.35 246.413 1132.34 244.43C1132.33 244.159 1131.91 243.842 1131.47 243.585C1131.28 243.475 1131.09 243.376 1130.93 243.296C1129.71 242.692 1128.47 242.129 1127.24 241.567L1127.03 241.473C1126.63 241.292 1126.23 241.109 1125.83 240.923L1125.79 240.177C1126.15 240.068 1126.5 239.955 1126.85 239.841L1126.94 239.814C1127.69 239.576 1128.43 239.338 1129.19 239.138C1132.5 238.266 1132.81 237.295 1130.73 234.395C1130.66 234.297 1130.64 234.156 1130.6 233.902C1130.57 233.741 1130.54 233.534 1130.49 233.263L1138.58 231.513C1139.05 227.277 1139.5 222.907 1140.01 218.544C1140.15 217.332 1140.29 216.119 1140.42 214.904L1140.55 213.735C1141.06 209.21 1141.57 204.683 1142.27 200.193C1143.33 193.351 1143.49 186.496 1143.26 179.597C1143.2 177.826 1143.13 176.055 1143.06 174.285C1142.94 171.16 1142.82 168.036 1142.74 164.909C1142.73 164.291 1142.73 163.672 1142.73 163.053C1142.73 159.97 1142.73 156.877 1140.81 154.018L1138.46 153.801C1137.68 149.771 1137.7 145.699 1137.72 141.621C1137.73 140.811 1137.73 139.999 1137.73 139.189C1137.73 137.677 1137.7 136.165 1137.61 134.654C1137.17 134.554 1136.75 134.452 1136.34 134.354L1135.5 134.154C1134.96 134.028 1134.44 133.911 1133.91 133.807C1133.08 133.645 1132.77 133.156 1132.63 132.542C1132.57 132.283 1132.54 132.001 1132.5 131.713C1132.48 131.54 1132.46 131.365 1132.43 131.191C1132.38 130.866 1132.31 130.543 1132.17 130.246C1131.77 130.207 1131.32 130.137 1130.85 130.108C1130.73 130.1 1130.6 130.096 1130.48 130.095C1130.36 130.094 1130.24 130.097 1130.12 130.102C1129.96 130.108 1129.8 130.119 1129.63 130.132L1129.11 130.176C1128.86 130.199 1128.59 130.224 1128.27 130.248C1128.26 130.6 1128.24 130.951 1128.22 131.299L1128.2 131.759C1128.18 132.064 1128.17 132.368 1128.16 132.671L1128.15 133.06L1128.14 133.26V133.649C1128.17 139.062 1128.21 144.476 1128.25 149.89L1128.34 162.075C1128.34 162.285 1128.34 162.496 1128.35 162.706C1128.4 164.33 1128.44 165.947 1126.48 166.633C1126.27 166.706 1126.12 167.118 1126.02 167.576C1125.95 167.881 1125.9 168.208 1125.88 168.469C1125.81 169.193 1125.82 169.926 1125.84 170.697C1125.84 171.025 1125.85 171.359 1125.85 171.702L1123.12 172.594C1123.09 172.672 1123.05 172.745 1123.01 172.813L1123 172.837L1122.99 172.849L1122.97 172.878C1122.93 172.946 1122.9 173.009 1122.87 173.07C1122.84 173.143 1122.82 173.211 1122.83 173.281L1122.87 176.885C1122.88 178.126 1122.9 179.367 1122.92 180.606C1122.95 182.127 1122.99 183.65 1123.04 185.169C1123.12 187.304 1122.85 187.802 1120.81 187.879C1120.32 187.898 1119.82 187.904 1119.33 187.904L1118.79 187.902L1118.06 187.896C1117.21 187.887 1116.35 187.878 1115.5 187.906C1111.45 188.034 1107.4 188.216 1103.35 188.36C1102.67 188.384 1101.99 188.378 1101.24 188.373L1100.07 188.366L1099.24 170.555C1096.23 169.863 1096.23 169.829 1096.21 166.552V166.036C1096.17 161.215 1096.03 156.397 1095.88 151.458C1095.82 149.347 1095.76 147.213 1095.71 145.049C1095 145.049 1094.29 145.108 1093.58 145.166C1092.33 145.269 1091.09 145.371 1089.95 145.157C1089.63 145.096 1089.32 145.011 1089.01 144.894C1087.6 144.349 1086.39 144.746 1085.19 145.137L1085.16 145.146C1084.76 145.275 1084.37 145.404 1083.97 145.496C1083.43 145.621 1082.89 145.682 1082.32 145.6C1080.8 145.381 1079.25 145.429 1077.58 145.481L1077.51 145.485C1077.09 145.498 1076.66 145.511 1076.22 145.52C1075.89 145.527 1075.55 145.531 1075.21 145.531L1075.14 150.031C1075.09 153.373 1075.05 156.595 1074.98 159.816C1074.97 160.208 1074.98 160.604 1074.99 160.998C1075.02 162.54 1075.06 164.076 1074.01 165.494C1073.82 165.756 1073.74 166.13 1073.72 166.552C1073.71 166.861 1073.72 167.195 1073.73 167.529C1073.74 167.731 1073.75 167.934 1073.75 168.13C1073.75 168.28 1073.75 168.425 1073.74 168.564C1073.66 169.778 1074.07 171.174 1072.47 171.726C1072.23 171.807 1072.07 172.354 1071.97 172.89C1071.93 173.107 1071.91 173.322 1071.89 173.503C1071.86 173.92 1071.84 174.338 1071.84 174.769C1071.84 175.144 1071.84 175.529 1071.85 175.927V175.965L1071.86 176.746V177.168C1069.61 176.988 1068.45 178.306 1067.23 179.847C1064.84 182.875 1061.49 182.671 1059.08 179.767C1058.42 178.962 1057.63 178.279 1056.85 177.6C1056.42 177.233 1055.99 176.867 1055.58 176.485C1055.52 176.424 1055.44 176.364 1055.36 176.301C1055.15 176.134 1054.93 175.961 1054.93 175.793C1054.93 175.103 1054.8 174.468 1054.59 173.866C1054.3 173.014 1053.86 172.228 1053.42 171.446C1052.58 169.968 1051.75 168.502 1051.98 166.623C1051.11 166.294 1050.5 166.062 1050.07 165.805C1049.81 165.652 1049.62 165.489 1049.47 165.29C1049.05 164.704 1049.04 163.807 1049.02 161.917H1043.62L1042.75 174.114C1042.39 174.147 1042.07 174.181 1041.79 174.212C1041.27 174.269 1040.88 174.312 1040.48 174.312L1038.88 174.314C1032.23 174.325 1025.57 174.337 1018.91 174.312C1015.77 174.301 1015.62 174.092 1015.59 170.479C1015.58 169.309 1015.61 168.138 1015.57 166.969V166.623C1015.57 166.097 1015.56 165.496 1015.33 165.306C1014.33 164.506 1013.91 163.549 1013.76 162.528C1013.63 161.688 1013.68 160.804 1013.73 159.929C1013.77 159.249 1013.81 158.575 1013.76 157.929C1013.62 155.875 1013.54 153.817 1013.48 151.755C1013.4 149.035 1013.36 146.311 1013.25 143.591C1013.23 143.228 1013.03 142.873 1012.83 142.519L1012.7 142.29C1012.65 142.201 1012.61 142.11 1012.57 142.021L1011.88 142.156V153.843C1011.9 157.141 1011.95 160.441 1012 163.742C1012.11 171.68 1012.23 179.618 1011.85 187.524C1011.65 191.704 1011.47 195.899 1011.29 200.091V200.135L1011.18 202.485C1011.15 203.157 1011.05 203.826 1010.94 204.418C1010.84 204.927 1010.74 205.379 1010.68 205.733C1003.53 209.304 996.24 210.157 988.771 211.032L988.014 211.121C987.987 210.92 987.956 210.732 987.926 210.55L987.915 210.494L987.814 209.91C987.738 209.449 987.678 209.027 987.673 208.605C987.653 206.933 987.59 205.253 987.581 203.58C987.571 202.208 987.596 200.84 987.708 199.482C988.006 195.831 987.203 192.863 984.314 190.413H980.229C979.958 187.489 979.9 184.576 979.906 181.659C979.91 180.419 979.924 179.179 979.938 177.937C979.98 174.228 980.024 170.5 979.766 166.728L973.314 166.321C972.237 166.255 971.163 166.192 970.089 166.132C967.801 166.006 967.802 165.969 967.857 163.392L967.861 163.264C967.886 162.155 967.898 161.045 967.904 159.931C967.908 158.581 967.904 157.222 967.898 155.852L967.893 155.206L967.891 154.368C967.887 153.501 967.883 152.627 967.883 151.747C967.139 151.631 966.423 151.502 965.721 151.376C964.182 151.1 962.727 150.838 961.264 150.777C959.089 150.684 958.365 151.671 958.273 154.14C958.252 154.673 958.258 155.207 958.264 155.863L958.268 156.962L952.525 157.756C952.525 158.316 952.505 158.873 952.488 159.426C952.449 160.632 952.411 161.82 952.562 162.976C953.052 166.722 952.866 167.083 949.43 167.323C949.258 167.334 949.087 167.368 948.881 167.411C948.721 167.444 948.539 167.483 948.32 167.524L947.79 172.036L939.473 172.508L939.137 167.869L932.533 167.298V139.285C924.406 141.29 916.607 142.33 908.951 137.973C908.923 137.359 908.888 136.755 908.854 136.159C908.827 135.688 908.8 135.236 908.779 134.787C908.738 133.956 908.712 133.133 908.725 132.312C908.782 129.202 908.065 127.593 905.464 127.691C903.919 127.748 902.52 127.199 901.13 126.652L901.111 126.646C900.449 126.385 899.789 126.125 899.117 125.932C898.285 125.693 897.433 125.555 896.535 125.646C895.966 125.702 895.126 125.451 894.805 124.994C892.93 122.315 890.289 122.59 887.73 122.443C887.544 122.433 887.36 122.333 887.126 122.206L886.887 122.081L886.693 121.99L886.675 121.851C886.434 120.107 886.175 118.243 884.107 117.696C883.871 117.633 883.729 117.141 883.559 116.562L883.553 116.545C883.467 116.248 883.374 115.929 883.259 115.634C881.598 115.402 879.939 115.117 878.279 114.816L876.066 114.41C869.408 113.177 862.703 111.934 855.732 112.941L855.617 113.348L855.613 113.363C855.562 113.536 855.512 113.706 855.471 113.877C855.444 113.987 855.418 114.096 855.396 114.207C855.344 114.494 855.312 114.785 855.271 115.2C855.25 115.418 855.224 115.671 855.189 115.976C854.258 115.976 853.332 115.982 852.41 115.988C850.216 116 848.048 116.013 845.878 115.952C844.663 115.917 844.435 114.929 844.201 113.897L844.197 113.871L844.191 113.847C844.099 113.456 844.008 113.059 843.855 112.707L836.251 111.964C834.2 115.307 832.021 117.982 827.744 116.775L827.257 133.754C826.37 134.085 825.477 134.252 824.581 134.328C823.438 134.423 822.29 134.369 821.145 134.316C820.72 134.295 820.291 134.277 819.865 134.264C819.564 134.255 819.264 134.25 818.966 134.252C818.761 134.254 818.555 134.259 818.35 134.268C816.251 134.356 814.143 134.333 812.042 134.313L810.72 134.303L809.285 134.296H800.158C800.115 133.828 800.07 133.415 800.027 133.039C799.947 132.316 799.884 131.726 799.88 131.137C799.864 128.942 799.872 126.747 799.874 124.552C799.876 122.768 799.872 120.984 799.848 119.201C799.837 118.307 799.735 117.416 799.626 116.407L799.613 116.322L799.596 116.172C799.542 115.692 799.487 115.182 799.434 114.634H777.501C777.399 114.401 777.312 114.159 777.236 113.915C777.158 113.666 777.09 113.416 777.021 113.169C776.652 111.822 776.306 110.564 774.654 110.284C774.314 110.226 774.087 109.323 773.85 108.393L773.703 107.821C773.638 107.581 773.573 107.351 773.503 107.146C772.946 107.146 772.393 107.141 771.845 107.137C770.616 107.127 769.393 107.118 768.175 107.158C767.083 107.193 766.515 107.248 766.193 107.594C765.879 107.931 765.796 108.544 765.682 109.683C765.659 109.91 765.643 110.139 765.628 110.369C765.61 110.597 765.592 110.826 765.57 111.051L765.552 111.247L765.512 111.531C765.483 111.727 765.444 111.92 765.391 112.108C765.182 112.869 764.801 114.137 764.41 114.179C763.25 114.305 762.274 114.946 761.298 115.585L761.273 115.603C760.822 115.898 760.371 116.192 759.902 116.435C759.207 116.795 758.473 117.041 757.637 117.007L757.331 116.997C755.602 116.934 754.102 116.882 753.677 114.244C753.557 113.507 752.191 113.024 751.355 112.391C751.277 109.908 751.241 108.712 750.628 108.137C750.059 107.604 748.992 107.605 746.938 107.608H746.919L746.027 107.612C744.418 108.298 742.805 108.984 741.191 109.666C739.205 110.505 737.218 111.337 735.224 112.154C734.903 112.285 734.579 112.407 734.251 112.521C734.022 112.601 733.794 112.679 733.561 112.754C732.798 113.001 732.01 113.224 731.195 113.456C730.719 113.589 730.232 113.727 729.738 113.873C722.263 114.832 715.604 117.217 709.716 121.559C706.624 123.838 703.502 126.083 700.367 128.344C697.572 130.36 694.764 132.387 691.951 134.461C691.904 134.586 691.863 134.572 691.861 134.576C689.918 134.456 688.2 134.671 686.892 136.497C686.526 137.008 684.893 137.12 684.085 136.814C682.106 136.067 680.138 135.294 678.175 134.51C676.809 133.964 675.446 133.414 674.083 132.863C672.397 132.18 670.708 131.498 669.017 130.826C668.556 130.642 667.998 130.687 667.275 130.663C666.885 130.635 666.709 130.574 666.406 130.446C663.221 126.033 657.104 125.725 653.339 129.505C650.954 131.899 648.183 133.931 645.621 136.164C645.342 136.407 645.081 136.673 644.833 136.952C644.706 137.094 644.583 137.241 644.462 137.388C644.278 137.61 644.1 137.836 643.927 138.062C642.462 139.96 641.052 141.904 639.599 143.812C638.608 145.114 637.598 146.399 636.537 147.645C634.357 150.207 632.077 152.691 629.796 155.173C628.462 156.624 627.128 158.076 625.812 159.543C624.005 161.563 622.217 163.599 620.441 165.645C619.51 166.719 618.582 167.796 617.656 168.876C617.334 169.253 617.15 169.743 616.941 170.298L616.917 170.362C616.86 170.517 616.797 170.677 616.73 170.841C616.723 170.918 616.709 170.954 616.701 170.969C616.687 170.992 616.684 170.978 616.699 170.988L616.621 171.037C613.5 172.993 610.568 174.83 606.275 174.403C605.019 174.278 603.595 175.702 602.175 177.119C601.894 177.399 601.612 177.679 601.335 177.948C600.989 178.279 600.645 178.59 600.308 178.861C599.667 179.374 599.033 179.898 598.4 180.42L598.283 180.514C597.248 181.368 596.215 182.221 595.154 183.039C594.754 183.346 594.35 183.65 593.939 183.947C593.68 184.135 593.266 184.271 592.847 184.329C592.364 184.394 591.872 184.358 591.587 184.18C589.968 183.167 588.393 182.091 586.818 181.014L585.665 180.227C584.388 179.359 583.103 178.499 581.79 177.686C581.431 177.463 581.08 177.226 580.734 176.983C580.211 176.615 579.701 176.23 579.189 175.843C577.094 174.261 574.991 172.674 572.101 172.312C571.677 172.259 571.285 172.016 570.9 171.7C570.758 171.582 570.616 171.455 570.474 171.323L570.212 171.076C569.851 170.731 569.485 170.382 569.097 170.127C568.837 169.956 568.576 169.776 568.314 169.594C567.346 168.923 566.357 168.238 565.275 167.986C562.213 167.272 559.593 166.36 557.999 163.353C556.622 160.754 554.642 158.679 551.492 157.551C550.371 157.15 549.321 156.564 548.296 155.913C547.729 155.552 547.17 155.171 546.611 154.79C546.174 154.494 545.737 154.196 545.298 153.908C544.946 153.677 544.592 153.454 544.232 153.24C543.958 153.077 543.661 152.944 543.343 152.826C543.013 152.703 542.656 152.595 542.277 152.478L542.236 152.466L541.91 152.368C541.844 152.371 541.776 152.363 541.714 152.348C541.599 152.323 541.503 152.274 541.46 152.225C540.977 151.847 540.516 151.435 540.061 151.027C539.024 150.096 538.012 149.187 536.814 148.771C534.12 147.833 532.96 145.903 531.722 143.752C530.911 142.347 529.986 140.746 528.654 139.931C528.16 139.628 527.656 139.334 527.148 139.048C526.081 138.448 524.989 137.882 523.884 137.338C522.286 136.553 520.661 135.813 519.04 135.079C518.468 134.82 517.675 135.015 516.882 135.21C516.694 135.256 516.506 135.302 516.322 135.342C516.283 135.421 516.267 135.469 516.257 135.496L516.236 135.527C512.564 136.609 509.367 138.1 507.315 141.614C505.828 144.158 503.926 146.861 499.81 146.168L499.591 146.166C499.567 146.166 499.564 146.165 499.565 146.16L499.527 146.037L499.503 145.932C499.458 145.748 499.411 145.568 499.298 145.45C494.034 140.004 488.682 134.652 481.951 130.573C481.688 130.521 481.604 130.49 481.412 130.382C479.227 127.579 476.171 126.491 472.929 126.107C468.9 125.629 464.848 125.338 460.785 125.046L457.621 124.815C457.504 124.806 457.385 124.807 457.265 124.812C457.12 124.819 456.975 124.834 456.828 124.857C456.555 124.898 456.28 124.961 456.007 125.025L455.606 125.115C454.989 125.244 454.374 125.399 453.759 125.554L453.693 125.569C452.367 125.904 451.045 126.238 449.701 126.33C447.789 126.461 446.793 127.369 446.938 128.946C447.092 130.626 446.143 131.641 445.197 132.65C444.66 133.225 444.124 133.798 443.796 134.492C443.739 134.609 443.577 134.703 443.382 134.769C443.146 134.85 442.857 134.892 442.638 134.896C440.148 134.946 437.096 132.374 436.781 129.872C436.537 127.923 435.603 126.631 433.517 126.63C433.021 126.63 432.504 126.555 431.986 126.481C430.284 126.238 428.573 125.993 427.462 128.395C426.105 131.326 424.125 133.643 419.981 133.153C417.847 132.9 415.677 132.919 413.503 132.976C412.097 133.013 410.688 133.065 409.285 133.069C405.441 133.081 404.962 133.823 405.312 137.666C405.439 139.059 405.493 140.459 405.505 141.862C405.521 143.568 405.476 145.278 405.429 146.98C405.37 149.078 404.584 150.225 401.86 150.053C399.006 149.873 396.139 149.907 393.271 149.941C392.302 149.952 391.332 149.964 390.364 149.967C389.637 149.97 388.91 149.967 388.185 149.957C387.798 149.952 387.41 149.944 387.026 149.933C386.199 149.91 384.788 148.973 384.696 148.321C384.477 146.749 384.381 145.163 384.287 143.576C384.235 142.694 384.182 141.812 384.108 140.933C384.043 140.156 383.962 139.38 383.849 138.61C383.757 137.994 383.435 137.366 383.011 136.784C382.851 136.563 382.674 136.35 382.49 136.146C382.244 135.871 381.985 135.613 381.729 135.381C381.167 134.871 380.48 134.486 379.794 134.103L379.583 133.982L379.14 133.732C378.642 133.439 378.165 133.123 377.763 132.735C375.288 130.35 369.571 130.29 367.197 132.814C365.791 134.311 362.25 134.864 360.869 133.417C358.469 130.9 355.429 131.113 352.554 131.315L352.144 131.344C347.47 131.662 342.841 132.558 338.187 133.173C335.302 133.556 333.621 135.32 332.322 137.65C332.051 138.14 331.714 138.706 331.306 139.116C331.097 139.326 330.87 139.494 330.626 139.588C329.406 140.063 328.173 140.516 326.935 140.954C326.134 141.237 325.33 141.513 324.526 141.786C323.245 142.219 321.958 142.64 320.669 143.056L320.371 143.152C318.924 143.623 317.422 144.11 315.929 144.165C313.456 144.258 312.909 145.421 312.876 147.556C312.855 149.024 312.641 150.489 312.405 152.004C312.283 152.777 312.158 153.562 312.046 154.368C311.923 154.588 311.844 154.635 311.64 154.731L310.991 154.925C309.807 155.277 308.685 155.61 307.47 156.022C307.095 156.16 306.853 156.186 306.427 156.201L304.819 155.967L303.155 155.721C300.299 155.295 297.515 154.881 294.716 154.602C294.156 154.547 292.968 155.697 292.921 156.347C292.859 157.195 292.884 158.047 292.937 158.903C292.958 159.262 292.984 159.622 293.009 159.98L293.024 160.166C293.074 160.9 293.126 161.633 293.134 162.366C293.185 166.82 293.109 171.275 293.183 175.728C293.218 177.911 292.376 178.877 290.013 179.064C289.355 179.116 288.705 179.492 288.08 179.946C287.621 180.278 287.176 180.653 286.748 180.974C286.434 181.211 286.13 181.61 285.847 181.979C285.474 182.467 285.139 182.906 284.871 182.854C283.721 182.633 282.25 182.003 281.735 181.098L281.64 180.926C281.169 180.098 280.754 179.371 280.071 178.876C279.666 178.583 279.167 178.372 278.505 178.269C278.304 178.237 278.112 177.956 277.948 177.581C277.737 177.099 277.573 176.462 277.487 175.999C277.35 175.259 277.252 174.513 277.155 173.755L277.151 173.732C277.035 172.836 276.919 171.921 276.728 170.982C276.634 170.928 276.576 170.908 276.542 170.895C276.515 170.885 276.5 170.881 276.496 170.87C276.367 170.772 276.237 170.651 276.108 170.532L276.073 170.502C275.903 170.35 275.737 170.204 275.571 170.119C275.473 170.069 275.377 170.04 275.284 170.044C273.136 170.148 272.652 168.842 272.478 167.195C272.224 164.833 270.59 164.183 268.451 164.199C268.272 164.2 268.092 164.216 267.912 164.24L267.619 164.284L267.41 164.32L267.058 164.377L266.905 164.398C262.743 164.945 262.339 165.437 262.435 169.565C262.482 171.643 262.57 173.738 262.349 175.796C262.286 176.371 261.219 177.257 260.565 177.299L260.462 177.306C255.716 177.61 253.763 177.736 252.976 178.765C252.425 179.486 252.444 180.649 252.481 182.627C252.496 183.475 252.516 184.472 252.493 185.648C252.479 186.392 252.465 187.138 252.457 187.883C252.45 188.476 252.444 189.069 252.442 189.663C252.44 190.569 252.444 191.475 252.457 192.381C252.469 193.074 252.486 193.765 252.511 194.456C252.564 195.88 252.463 197.122 251.591 197.858C251.148 198.231 250.504 198.475 249.582 198.546C249.405 198.561 249.241 198.741 249.063 198.974C248.973 199.091 248.879 199.222 248.778 199.352L248.737 199.506L248.724 199.568C248.716 199.6 248.707 199.621 248.692 199.631C248.277 200.106 247.871 200.575 247.468 201.062C247.062 201.556 246.66 202.072 246.261 202.631C246.269 202.812 246.152 203.023 246.056 203.1C244.503 204.225 243.045 205.275 241.534 206.364C240.498 205.485 239.248 204.425 237.813 203.348C237.63 203.314 237.504 203.273 237.407 203.208L237.345 203.163C237.29 203.118 237.24 203.063 237.185 202.994C236.884 200.458 236.109 198.564 233.136 198.085C232.341 197.957 231.408 196.779 231.14 195.908C230.886 195.088 230.918 194.184 230.952 193.281C230.965 192.901 230.98 192.52 230.972 192.146L229.976 141.47L229.96 140.979C229.939 140.466 229.917 139.952 230.001 139.455C230.304 137.659 229.776 136.322 227.745 136.265C225.784 136.208 224.42 137.166 224.272 139.246C224.258 139.445 224.25 139.644 224.246 139.843C224.241 140.154 224.241 140.466 224.243 140.778L224.241 145.079C224.237 149.268 224.233 153.458 224.164 157.647C224.155 158.408 223.824 159.491 223.253 159.854C221.587 160.913 221.553 162.249 221.61 163.968C221.688 166.323 221.741 168.677 221.774 171.033C221.829 174.97 221.832 178.909 221.815 182.847C221.813 183.373 220.921 184.336 220.421 184.351C216.587 184.453 212.748 184.486 208.911 184.518L204.503 184.559L202.95 184.578C201.436 184.597 200.714 184.015 200.667 182.515C200.626 181.176 200.557 179.838 200.489 178.499C200.387 176.48 200.284 174.46 200.276 172.441C200.268 170.331 199.498 169.205 197.228 169.415C195.062 169.618 194.208 168.618 194.255 166.637C194.267 166.226 194.252 165.812 194.241 165.4V165.307L194.239 165.224L194.226 164.762C194.216 164.302 194.213 163.844 194.239 163.386C194.354 161.45 194.385 159.519 191.919 158.96C189.968 158.517 186.259 161.002 186.247 162.815C186.221 166.935 186.257 171.057 186.292 175.179C186.306 176.681 186.319 178.183 186.329 179.685L186.347 182.749C186.371 190.987 186.377 199.225 186.356 207.463C186.348 210.13 186.289 212.796 186.233 215.463L186.177 218.308C186.142 220.219 185.907 221.316 185.116 221.991C184.467 222.543 183.446 222.812 181.856 223.015C178.853 223.399 178.367 224.127 178.899 227.022C179.172 228.502 179.285 230.02 179.353 231.526C179.501 234.796 180.134 235.569 183.396 235.93L183.479 235.939C184.581 236.061 185.559 236.17 186.069 236.8C186.405 237.218 186.538 237.863 186.362 238.892C186.225 239.69 187.613 240.922 188.554 241.642C189.121 242.075 189.84 242.318 190.616 242.581C191.006 242.713 191.413 242.85 191.821 243.018C191.903 243.125 191.922 243.195 191.909 243.282C191.901 243.329 191.883 243.38 191.864 243.443L191.854 243.474C191.827 243.599 191.604 243.672 191.489 243.669C190.606 243.952 189.764 244.234 188.933 244.552C188.32 244.785 187.714 245.037 187.101 245.321C187.072 245.499 187.051 245.559 187.024 245.578C186.075 247.79 184.286 248.745 181.957 249.203C180.459 249.499 178.899 250.011 177.657 250.835C176.928 251.319 176.476 252.233 176.044 253.103C175.949 253.295 175.853 253.487 175.755 253.671C175.583 254.002 175.48 254.406 175.382 254.8C175.23 255.409 175.081 255.996 174.683 256.269C173.699 256.941 172.629 257.509 171.536 258.028C170.762 258.393 169.975 258.734 169.192 259.07C168.967 259.167 168.598 258.949 168.179 258.701C167.958 258.57 167.723 258.431 167.487 258.325C167.401 258.293 167.352 258.273 167.323 258.258C167.297 258.246 167.288 258.237 167.288 258.228C167.262 258.105 167.211 258.011 167.104 257.944C167.038 257.901 166.948 257.869 166.829 257.845C166.733 257.845 166.696 257.822 166.692 257.806C166.691 257.8 166.694 257.795 166.7 257.793C166.51 257.624 166.309 257.462 166.104 257.302C165.925 257.16 165.745 257.017 165.573 256.868C165.383 256.705 165.207 256.534 165.048 256.346L164.884 256.157L164.603 255.847C164.314 255.531 164.012 255.202 163.788 254.875C163.557 254.543 163.41 254.213 163.433 253.904C163.65 251.104 161.941 250.001 159.677 249.237C159.322 249.117 158.962 249.003 158.603 248.896C158.062 248.734 157.519 248.584 156.974 248.431L156.892 248.408C156.41 248.273 155.924 248.138 155.446 247.996C155.352 247.967 155.254 247.942 155.155 247.917C154.821 247.83 154.479 247.741 154.239 247.544C153.272 246.762 152.313 245.969 151.366 245.178L148.19 242.521C152.079 240.799 152.5 240.109 151.94 235.862C151.915 235.773 151.949 235.714 152.001 235.678C152.029 235.659 152.064 235.646 152.099 235.638C152.144 235.627 152.193 235.626 152.228 235.632C155.326 236.631 157.863 235.422 160.554 234.135L160.743 234.045C160.932 234.031 160.989 234.081 160.985 234.119C161.01 234.291 161.083 234.4 161.289 234.524C161.338 234.546 161.379 234.553 161.414 234.557L161.464 234.568L161.479 234.578C161.995 234.682 162.498 234.771 163.034 234.803C163.207 234.813 163.383 234.817 163.565 234.813C163.875 234.653 164.103 234.615 164.503 234.583C164.632 234.558 164.768 234.537 164.905 234.514L165.028 234.494C165.229 234.461 165.427 234.429 165.597 234.395C165.724 234.37 165.835 234.342 165.921 234.312C166.029 234.274 166.095 234.231 166.101 234.18L166.243 233.188C166.336 232.541 166.431 231.892 166.517 231.243C166.566 230.871 166.61 230.499 166.653 230.126C166.78 229.003 166.871 227.879 166.88 226.754C166.904 224.317 166.887 221.878 166.854 219.44C166.823 217.064 166.775 214.686 166.726 212.311L166.687 210.414C166.632 207.633 167.208 204.711 164.464 202.538C164.183 202.315 164.098 201.832 164.079 201.293C164.061 200.825 164.092 200.314 164.082 199.893C164 196.119 163.925 192.343 163.851 188.57C163.753 183.632 163.653 178.696 163.538 173.759C163.534 173.552 163.502 173.346 163.452 173.138C163.344 172.691 163.151 172.233 162.94 171.737L162.847 171.513C162.689 171.403 162.596 171.179 162.565 171.062C162.553 170.594 162.502 170.162 162.409 169.757C162.336 169.444 162.239 169.148 162.118 168.866C161.733 167.969 161.088 167.214 160.161 166.492C159.743 166.166 159.421 165.647 159.185 165.057C159.064 164.753 158.966 164.429 158.89 164.104C158.787 163.655 158.725 163.201 158.702 162.789C158.664 162.084 158.662 161.378 158.673 160.671C158.685 159.952 158.713 159.231 158.743 158.511C158.803 157.008 158.863 155.506 158.769 154.013C158.632 151.871 158.239 149.598 154.995 149.617C154.247 149.621 153.197 148.876 152.794 148.196C151.46 145.933 149.663 145.86 147.372 146.889C147.272 147.165 147.165 147.434 147.062 147.696C146.853 148.221 146.653 148.721 146.536 149.213C146.469 149.491 146.429 149.766 146.427 150.041C146.402 153.77 146.395 157.498 146.397 161.227C146.401 165.198 146.417 169.171 146.431 173.143L146.437 173.98V174.801C146.416 176.228 146.193 177.531 144.343 178.08C144.265 178.103 144.152 178.146 144.126 178.208C143.939 178.664 143.744 179.117 143.548 179.57L143.091 180.616C142.224 182.589 141.358 184.564 140.776 186.614C140.447 187.779 140.53 189.052 140.616 190.327C140.637 190.671 140.662 191.017 140.677 191.361C140.689 191.62 140.694 191.877 140.692 192.133C140.666 195.861 140.322 196.148 136.56 196.237C134.505 196.285 132.454 196.533 130.276 196.831C130.084 196.996 129.998 197.042 129.829 197.136L129.78 197.164C127.739 197.169 125.815 197.103 123.655 197.009C123.286 196.928 122.947 196.822 122.628 196.722L122.31 196.625C122.042 196.545 121.788 196.479 121.539 196.445C121.383 196.423 121.231 196.415 121.079 196.425C120.096 196.487 119.381 196.317 118.897 195.906C118.395 195.479 118.144 194.793 118.099 193.838C118.027 192.28 117.937 190.721 117.847 189.164C117.748 187.463 117.649 185.763 117.573 184.063C117.498 182.443 117.024 181.257 115.331 180.45C115.067 180.325 114.823 180.073 114.616 179.76C114.459 179.524 114.326 179.253 114.222 178.975C114.08 178.598 113.993 178.208 113.983 177.877C113.956 176.825 113.941 175.772 113.931 174.719C113.915 173.117 113.914 171.513 113.914 169.91C113.913 167.539 113.913 165.167 113.862 162.797C113.846 161.986 113.411 161.184 112.957 160.352L112.683 159.84C112.398 159.789 112.3 159.786 112.06 159.75C111.583 159.642 111.248 159.566 110.872 159.591C110.598 159.716 110.368 159.739 109.964 159.748C109.142 159.701 108.331 159.65 107.526 159.6L107.403 159.591L107.302 159.584C105.185 159.451 103.125 159.319 101.069 159.265C100.043 159.238 99.0145 159.247 97.9854 159.267C97.3741 159.28 96.7627 159.296 96.1494 159.314C95.4443 159.333 94.7374 159.354 94.0303 159.368C91.3117 159.417 90.1827 160.386 90.0498 162.978L90.0166 163.616C89.9697 164.494 89.9248 165.375 89.9131 166.255C89.9072 166.649 89.9092 167.042 89.9209 167.435C89.9365 167.968 89.9717 168.5 90.0322 169.03C90.495 173.005 89.2021 176.589 87.9072 180.178C87.667 180.843 87.4267 181.508 87.1982 182.175C87.1553 182.298 87.0849 182.42 87.0146 182.54L86.9463 182.662C86.8643 182.81 86.7999 182.956 86.8096 183.101C87.0088 186.002 85.0342 187.349 83.0908 188.674C82.6142 188.998 82.1416 189.323 81.7021 189.666C79.4718 191.414 76.7509 190.56 74.1553 188.738C70.5225 186.184 69.1338 182.435 67.21 178.893C66.3389 177.288 65.3544 175.649 64.0459 174.392C63.6807 174.044 63.1045 173.812 62.4814 173.684C61.8779 173.561 61.2295 173.534 60.6885 173.593C58.6025 173.822 57.8467 173.387 58.5693 171.304C58.8056 170.623 58.8193 169.813 58.7158 169.091C58.6592 168.703 58.6279 168.294 58.5693 167.902C58.4952 167.409 58.3778 166.942 58.1221 166.572C57.7823 166.081 57.1943 165.761 56.126 165.783C53.0283 165.843 51.7392 166.735 51.3467 169.259C51.2881 169.627 51.2217 169.994 51.1553 170.36C51.0713 170.822 50.9873 171.284 50.9209 171.748C50.3467 175.766 49.6083 176.476 45.4854 176.456C43.1143 176.445 40.7451 176.394 38.376 176.344C35.6162 176.286 32.8584 176.226 30.0986 176.229C28.54 176.23 27.5361 175.8 26.9678 174.889C26.6144 174.322 26.4307 173.568 26.3877 172.616C26.2725 172.056 26.251 171.664 26.2705 171.078C26.3389 168.759 26.4365 166.497 26.4893 164.261C26.5322 162.373 26.542 160.504 26.4736 158.638C26.4403 157.701 25.1103 156.81 23.9287 156.052C22.9463 160.019 22.7548 163.828 23.7568 167.784C23.9598 168.118 24.0127 168.333 24.0635 168.717L24.0576 168.94L24.0166 172.047C23.9971 173.777 23.9932 175.495 24.0225 177.281L24.0693 179.711V179.79C24.1767 185.291 24.2822 190.674 24.1494 196.051C24.0869 198.592 23.8838 201.13 23.6807 203.669L23.6689 203.798C23.4911 206.034 23.3135 208.269 23.2334 210.507C23.167 212.415 22.0264 212.691 20.8135 212.985C20.5869 213.042 20.3721 213.093 20.1611 213.154C20.0187 213.196 19.876 213.242 19.7373 213.295C13.8565 215.567 6.33594 216.403 0.00390625 216.939L0 0H1440V109.145ZM173.632 224.169C173.292 227.197 173.087 229.954 173.179 232.701C173.232 234.256 173.951 234.481 177.306 234.385C176.746 231.096 176.238 227.845 175.56 224.627C175.521 224.445 174.949 224.367 174.376 224.289L174.009 224.236C173.873 224.216 173.746 224.194 173.632 224.169ZM1145.06 197.561C1143.61 201.378 1143.6 205.397 1143.14 209.32C1142.69 213.233 1142.32 217.159 1141.92 221.08C1141.65 224.808 1141.42 227.896 1141.17 231.198L1142.04 231.299C1142.54 231.359 1142.93 231.407 1143.33 231.437C1144.32 231.513 1145.02 231.217 1145.41 230.517C1145.61 230.144 1145.73 229.657 1145.75 229.049L1145.77 228.711L1145.8 228.32C1145.82 228.112 1145.84 227.904 1145.85 227.696C1145.85 227.567 1145.86 227.437 1145.86 227.308V226.186C1145.86 217.584 1145.87 208.981 1145.85 200.378C1145.84 200.126 1145.83 199.874 1145.79 199.622C1145.77 199.455 1145.74 199.286 1145.69 199.118C1145.57 198.597 1145.36 198.079 1145.06 197.561ZM1153.74 219.474C1153.35 219.547 1152.81 220.376 1152.78 220.901C1152.71 222.27 1152.7 223.644 1152.71 225.018L1152.72 226.353V227.196C1153 228.681 1153.17 229.604 1153.44 230.174C1153.56 230.434 1153.7 230.621 1153.88 230.754C1154.35 231.103 1155.09 231.086 1156.44 231.055L1156.14 228.56C1155.81 225.839 1155.49 223.128 1155.08 220.435C1155.05 220.213 1154.79 219.941 1154.5 219.743C1154.37 219.647 1154.22 219.568 1154.08 219.519C1153.95 219.475 1153.83 219.457 1153.74 219.474Z" fill="#FFD170"/>
</svg>
