<svg width="1440" height="403" viewBox="0 0 1440 403" fill="none" xmlns="http://www.w3.org/2000/svg">
<path fill-rule="evenodd" clip-rule="evenodd" d="M1439.75 242.195C1439.75 54.2657 1440 0 1440 0H720H0V144.346H0.0437428C0.0534634 151.242 0.0664243 158.15 0.0826253 165.074C0.139329 167.917 0.181452 170.687 0.215474 173.415C0.262457 177.311 0.291619 181.119 0.3143 184.927C0.3143 185.055 0.108547 185.183 0 185.311C0 190.883 0 196.455 0.00648041 202.053C0.016201 210.336 0.0388825 218.68 0.0972062 227.172C0.291619 228.334 0.46821 229.076 0.47307 229.819L0.492512 233.067C0.526534 239.386 0.562176 245.707 0.515193 252.026C0.494132 254.698 0.179832 257.369 0 260.041L0.0016201 262.185L0.00810052 263.525C0.0194412 265.124 0.0453629 266.78 0.106927 268.575C0.338602 269.644 0.568656 270.293 0.570276 270.943C0.571897 284.326 0.567036 297.709 0.589718 311.1C0.612399 324.025 0.657762 336.959 0.754968 349.908C1.59094 349.833 2.4253 349.762 3.25803 349.691L3.33093 349.685C9.66392 349.15 15.8576 348.627 21.7386 346.356C22.0804 346.224 22.4433 346.137 22.7997 346.05L22.8143 346.045C24.0261 345.751 25.1667 345.475 25.2347 343.568C25.3157 341.286 25.4988 339.008 25.6819 336.73C25.8844 334.191 26.0869 331.653 26.1501 329.111C26.2829 323.725 26.1776 318.334 26.0707 312.823V312.772L26.0237 310.341C25.9929 308.554 25.9978 306.837 26.0172 305.108C26.0286 304.009 26.0464 302.906 26.0642 301.777C26.014 301.394 25.9605 301.178 25.758 300.844C24.7552 296.888 24.9464 293.079 25.9298 289.113C27.1108 289.87 28.4409 290.761 28.4749 291.698C28.6256 295.773 28.3988 299.861 28.2708 304.138C28.2514 304.724 28.2724 305.117 28.3891 305.675C28.5009 308.156 29.5701 309.292 32.0991 309.29C34.8582 309.287 37.6172 309.345 40.3762 309.404C42.7464 309.455 45.115 309.505 47.4852 309.517C51.6084 309.536 52.3472 308.826 52.9223 304.808C53.0406 303.976 53.2172 303.15 53.3468 302.319C53.7405 299.795 55.0284 298.904 58.1261 298.842C59.1954 298.821 59.7834 299.141 60.1237 299.632C60.5838 300.296 60.5886 301.274 60.7166 302.151C60.8203 302.873 60.8057 303.684 60.5692 304.364C59.8466 306.447 60.6032 306.881 62.6899 306.653C63.231 306.594 63.8791 306.621 64.4818 306.745C65.1055 306.872 65.6822 307.105 66.0468 307.453C67.3558 308.709 68.3392 310.348 69.2108 311.953C71.1339 315.496 72.5223 319.245 76.1562 321.798C78.7516 323.62 81.4718 324.473 83.7027 322.726C84.1417 322.382 84.6148 322.059 85.0911 321.735C87.0352 320.409 89.0101 319.063 88.8092 316.161C88.7995 316.017 88.8643 315.87 88.9469 315.721C89.0344 315.562 89.143 315.4 89.1997 315.236C89.4281 314.568 89.6679 313.903 89.9077 313.239C91.2037 309.649 92.495 306.066 92.0332 302.089C91.9717 301.561 91.9376 301.029 91.9214 300.495C91.9101 300.103 91.9085 299.709 91.9133 299.315C91.9279 298.222 91.996 297.126 92.0511 296.038C92.1823 293.447 93.3131 292.477 96.0316 292.427C96.738 292.414 97.4444 292.395 98.1507 292.375C99.7919 292.329 101.433 292.282 103.069 292.326C105.127 292.379 107.184 292.511 109.302 292.644L109.404 292.652C110.246 292.704 111.099 292.757 111.965 292.808C112.369 292.799 112.599 292.776 112.873 292.652C113.25 292.626 113.584 292.702 114.06 292.81C114.3 292.845 114.399 292.849 114.682 292.901L114.958 293.413C115.411 294.244 115.847 295.046 115.863 295.858C115.948 299.83 115.893 303.805 115.931 307.779C115.941 308.832 115.957 309.885 115.985 310.938C115.995 311.268 116.08 311.658 116.221 312.035C116.464 312.681 116.871 313.291 117.331 313.51C119.024 314.317 119.5 315.503 119.573 317.124C119.65 318.824 119.748 320.524 119.847 322.224C119.938 323.781 120.027 325.339 120.1 326.898C120.187 328.773 121.077 329.611 123.079 329.485C123.473 329.461 123.875 329.556 124.311 329.686L124.628 329.783C124.947 329.882 125.287 329.988 125.657 330.069C127.816 330.163 129.74 330.229 131.781 330.223C131.983 330.111 132.068 330.071 132.277 329.891C134.454 329.593 136.505 329.345 138.561 329.297C142.321 329.208 142.668 328.921 142.692 325.194C142.697 324.599 142.657 323.992 142.616 323.387C142.532 322.112 142.448 320.839 142.777 319.674C143.358 317.624 144.225 315.65 145.092 313.676L145.548 312.63C145.745 312.177 145.939 311.724 146.127 311.268C146.151 311.206 146.265 311.163 146.344 311.14C148.458 310.513 148.447 308.901 148.437 307.244V307.041L148.432 306.203C148.403 298.503 148.374 290.802 148.427 283.102C148.429 282.826 148.47 282.551 148.536 282.273C148.713 281.535 149.072 280.779 149.372 279.949C151.664 278.92 153.461 278.993 154.794 281.256C155.196 281.937 156.248 282.681 156.996 282.677C160.24 282.658 160.633 284.931 160.769 287.073C160.863 288.567 160.803 290.069 160.743 291.571C160.685 292.999 160.627 294.428 160.703 295.849C160.742 296.559 160.897 297.391 161.186 298.117C161.421 298.707 161.743 299.227 162.161 299.552C163.089 300.274 163.734 301.029 164.12 301.926C164.398 302.572 164.544 303.291 164.567 304.123C164.598 304.24 164.69 304.463 164.847 304.573L164.941 304.797C165.152 305.293 165.345 305.751 165.453 306.198C165.503 306.406 165.534 306.613 165.539 306.819C165.654 311.756 165.753 316.693 165.852 321.63C165.926 325.404 166.001 329.179 166.083 332.953C166.103 333.86 165.939 335.181 166.464 335.598C169.208 337.772 168.632 340.693 168.687 343.474L168.726 345.371C168.826 350.185 168.925 355.001 168.881 359.815C168.87 360.939 168.781 362.064 168.654 363.187C168.539 364.208 168.392 365.229 168.245 366.248L168.102 367.24C168.095 367.291 168.029 367.334 167.922 367.372C167.836 367.402 167.724 367.429 167.598 367.455C167.428 367.49 167.23 367.521 167.029 367.554C166.851 367.583 166.67 367.611 166.503 367.643C166.103 367.675 165.876 367.713 165.566 367.874C165.385 367.877 165.208 367.873 165.035 367.863C164.5 367.831 163.997 367.742 163.48 367.638C163.467 367.625 163.444 367.622 163.415 367.618C163.381 367.613 163.339 367.608 163.29 367.585C163.085 367.459 163.012 367.35 162.986 367.178C162.991 367.141 162.934 367.09 162.744 367.105L162.555 367.195C159.862 368.482 157.327 369.691 154.229 368.692C154.166 368.683 154.067 368.693 154.002 368.738C153.949 368.775 153.916 368.833 153.941 368.922C154.501 373.169 154.08 373.859 150.192 375.582L153.367 378.238C154.315 379.029 155.272 379.822 156.24 380.605C156.552 380.858 157.033 380.932 157.447 381.055C157.954 381.206 158.464 381.349 158.974 381.491C159.882 381.745 160.787 381.997 161.678 382.297C163.942 383.061 165.649 384.164 165.434 386.964C165.409 387.273 165.558 387.602 165.788 387.935C166.014 388.262 166.315 388.591 166.603 388.907L166.884 389.217L167.049 389.406C167.352 389.765 167.729 390.064 168.105 390.362C168.309 390.523 168.512 390.683 168.701 390.853C168.695 390.855 168.692 390.86 168.693 390.866C168.697 390.882 168.734 390.906 168.829 390.906C168.949 390.929 169.038 390.961 169.105 391.004C169.213 391.071 169.264 391.165 169.288 391.288C169.291 391.307 169.325 391.324 169.487 391.385C169.724 391.491 169.959 391.63 170.179 391.76C170.6 392.009 170.968 392.227 171.193 392.13C171.976 391.794 172.763 391.453 173.536 391.087C174.631 390.569 175.699 390.001 176.684 389.329C177.082 389.057 177.23 388.469 177.382 387.861C177.481 387.466 177.583 387.062 177.756 386.731C177.853 386.547 177.949 386.357 178.045 386.164C178.475 385.293 178.929 384.379 179.658 383.896C180.901 383.071 182.461 382.559 183.96 382.263C186.286 381.804 188.076 380.849 189.026 378.638C189.052 378.619 189.071 378.559 189.102 378.381C189.714 378.097 190.32 377.845 190.932 377.612C191.765 377.294 192.608 377.012 193.489 376.73C193.606 376.733 193.828 376.66 193.855 376.534L193.865 376.503C193.923 376.321 193.949 376.242 193.821 376.079C192.606 375.575 191.406 375.353 190.555 374.702C189.612 373.982 188.227 372.75 188.363 371.952C188.538 370.923 188.407 370.278 188.07 369.861C187.561 369.23 186.582 369.122 185.479 369L185.397 368.991C182.134 368.629 181.502 367.856 181.353 364.586C181.285 363.08 181.173 361.563 180.901 360.083C180.366 357.187 180.854 356.459 183.857 356.075C187.393 355.624 188.113 354.843 188.178 351.369C188.246 347.753 188.345 344.139 188.357 340.523C188.379 332.286 188.371 324.047 188.347 315.809C188.339 313.286 188.316 310.762 188.293 308.239C188.258 304.118 188.222 299.996 188.248 295.876C188.259 294.064 191.968 291.578 193.92 292.02C196.386 292.579 196.355 294.51 196.24 296.446C196.214 296.904 196.216 297.363 196.227 297.822L196.24 298.284L196.242 298.367C196.255 298.811 196.267 299.255 196.256 299.697C196.209 301.678 197.063 302.678 199.227 302.476C201.499 302.265 202.268 303.391 202.276 305.502C202.285 307.521 202.388 309.54 202.49 311.559C202.558 312.898 202.626 314.237 202.667 315.575C202.714 317.076 203.438 317.657 204.951 317.638C206.192 317.621 207.433 317.608 208.674 317.598L210.912 317.578C214.75 317.546 218.588 317.513 222.422 317.411C222.921 317.397 223.814 316.433 223.816 315.907C223.834 311.969 223.83 308.03 223.775 304.092C223.741 301.737 223.689 299.383 223.612 297.029C223.555 295.309 223.587 293.974 225.253 292.916C225.825 292.552 226.155 291.468 226.166 290.708C226.254 285.247 226.231 279.786 226.244 274.324V273.837C226.243 273.526 226.241 273.214 226.247 272.904C226.251 272.704 226.259 272.504 226.273 272.306C226.421 270.226 227.785 269.269 229.745 269.325C231.777 269.382 232.305 270.718 232.002 272.514C231.918 273.011 231.939 273.526 231.96 274.039C231.966 274.203 231.973 274.367 231.976 274.53L232.973 325.207C232.997 326.469 232.778 327.803 233.139 328.968C233.408 329.839 234.342 331.018 235.137 331.146C238.108 331.624 238.884 333.518 239.186 336.054C239.241 336.123 239.291 336.178 239.346 336.224L239.408 336.268C239.506 336.333 239.63 336.374 239.814 336.409C241.25 337.485 242.5 338.545 243.536 339.424C245.047 338.335 246.504 337.285 248.056 336.16C248.151 336.084 248.27 335.872 248.261 335.692C248.66 335.132 249.062 334.618 249.468 334.122C249.87 333.635 250.277 333.166 250.693 332.691C250.708 332.681 250.716 332.66 250.724 332.628L250.739 332.566L250.779 332.412C251.08 332.024 251.317 331.628 251.584 331.607C254.324 331.394 254.59 329.662 254.512 327.517C254.455 325.92 254.439 324.322 254.444 322.722C254.449 321.384 254.468 320.046 254.494 318.709C254.57 314.788 254.189 312.855 254.977 311.825C255.763 310.796 257.716 310.67 262.462 310.366L262.565 310.359C263.22 310.317 264.288 309.431 264.349 308.857C264.569 306.798 264.482 304.704 264.435 302.626C264.339 298.497 264.744 298.006 268.906 297.459C269.075 297.437 269.243 297.408 269.412 297.38L269.621 297.344C269.898 297.299 270.175 297.261 270.454 297.258C272.591 297.243 274.225 297.894 274.478 300.255C274.653 301.902 275.136 303.208 277.284 303.105C277.538 303.093 277.804 303.319 278.073 303.563C278.214 303.691 278.357 303.824 278.497 303.93C278.506 303.956 278.562 303.946 278.729 304.043C278.92 304.982 279.037 305.896 279.152 306.793L279.157 306.815C279.254 307.573 279.351 308.32 279.487 309.059C279.573 309.522 279.738 310.159 279.949 310.641C280.113 311.016 280.304 311.297 280.506 311.329C282.287 311.604 282.89 312.667 283.64 313.987L283.737 314.158C284.252 315.064 285.721 315.694 286.872 315.914C287.343 316.005 288.019 314.584 288.749 314.035C289.76 313.274 290.872 312.214 292.012 312.125C294.376 311.939 295.219 310.972 295.183 308.788C295.108 304.335 295.185 299.88 295.134 295.426C295.126 294.693 295.076 293.96 295.024 293.227L295.01 293.041C294.922 291.824 294.835 290.61 294.922 289.407C294.969 288.757 296.155 287.607 296.716 287.662C299.515 287.941 302.3 288.356 305.156 288.781C306.235 288.942 307.324 289.104 308.427 289.261C308.853 289.246 309.095 289.22 309.471 289.083C310.686 288.67 311.808 288.337 312.993 287.985L313.641 287.792C313.845 287.695 313.923 287.649 314.047 287.428C314.375 285.041 314.844 282.831 314.877 280.616C314.909 278.482 315.457 277.318 317.929 277.225C319.423 277.17 320.925 276.683 322.373 276.212L322.67 276.117C324.768 275.439 326.861 274.748 328.936 274.013C330.174 273.576 331.405 273.123 332.627 272.649C332.871 272.553 333.098 272.385 333.307 272.176C333.715 271.767 334.052 271.201 334.325 270.711C335.622 268.38 337.302 266.616 340.188 266.234C344.841 265.618 349.471 264.722 354.143 264.404L354.555 264.376C357.429 264.174 360.47 263.96 362.871 266.477C364.251 267.924 367.793 267.372 369.199 265.875C371.572 263.349 377.288 263.41 379.764 265.795C380.165 266.184 380.642 266.499 381.141 266.793C381.356 266.919 381.575 267.041 381.794 267.163C382.481 267.547 383.167 267.931 383.73 268.441C383.986 268.672 384.246 268.931 384.493 269.206C384.676 269.41 384.851 269.623 385.011 269.844C385.436 270.426 385.758 271.054 385.849 271.67C386.09 273.312 386.189 274.973 386.288 276.636C386.383 278.223 386.479 279.81 386.698 281.381C386.788 282.033 388.201 282.971 389.027 282.994C390.139 283.024 391.252 283.031 392.365 283.028C393.334 283.024 394.302 283.013 395.271 283.002C398.141 282.967 401.008 282.933 403.861 283.113C406.586 283.285 407.37 282.139 407.43 280.041C407.516 276.938 407.594 273.812 407.312 270.727C406.962 266.883 407.441 266.142 411.286 266.129C414.855 266.119 418.466 265.796 421.982 266.212C426.126 266.703 428.104 264.386 429.462 261.455C430.573 259.053 432.284 259.299 433.989 259.542C434.505 259.617 435.021 259.691 435.518 259.691C437.603 259.691 438.538 260.984 438.782 262.931C439.097 265.434 442.147 268.007 444.639 267.957C444.858 267.953 445.146 267.91 445.383 267.829C445.579 267.762 445.739 267.669 445.796 267.552C446.125 266.859 446.661 266.286 447.199 265.711C448.145 264.701 449.094 263.687 448.939 262.006C448.795 260.429 449.791 259.521 451.703 259.39C453.046 259.298 454.369 258.964 455.695 258.629C456.331 258.468 456.968 258.308 457.606 258.174L458.007 258.086C458.28 258.023 458.556 257.959 458.83 257.918C459.097 257.877 459.363 257.857 459.623 257.876L462.786 258.107H462.8C466.849 258.398 470.901 258.691 474.929 259.168C478.172 259.552 481.228 260.638 483.415 263.442C483.606 263.55 483.688 263.581 483.953 263.633C490.682 267.712 496.035 273.064 501.299 278.51C501.412 278.628 501.458 278.809 501.503 278.992L501.529 279.097L501.566 279.219C501.561 279.232 501.587 279.225 501.811 279.228C505.928 279.921 507.83 277.217 509.315 274.674C511.368 271.16 514.566 269.669 518.237 268.587C518.242 268.588 518.245 268.587 518.248 268.579L518.258 268.556C518.268 268.529 518.284 268.482 518.323 268.403C519.289 268.192 520.334 267.818 521.042 268.139C523.783 269.382 526.537 270.639 529.15 272.108C529.659 272.394 530.161 272.689 530.657 272.992C531.989 273.806 532.912 275.408 533.722 276.812C534.961 278.963 536.12 280.895 538.816 281.832C540.013 282.248 541.026 283.156 542.062 284.087C542.518 284.495 542.978 284.908 543.461 285.285C543.504 285.334 543.6 285.383 543.715 285.409C543.776 285.423 543.845 285.431 543.913 285.427L544.238 285.527C544.635 285.647 545.001 285.759 545.343 285.886C545.662 286.004 545.959 286.136 546.234 286.3C547.043 286.781 547.828 287.316 548.612 287.851C550.184 288.92 551.752 289.987 553.494 290.611C556.643 291.739 558.623 293.814 560 296.413C561.594 299.42 564.214 300.332 567.278 301.046C568.652 301.366 569.875 302.386 571.098 303.187C571.487 303.442 571.851 303.791 572.213 304.135L572.475 304.383C572.998 304.87 573.522 305.3 574.102 305.372C576.992 305.734 579.095 307.321 581.191 308.904C581.703 309.29 582.213 309.675 582.735 310.044C583.082 310.287 583.432 310.524 583.791 310.746C585.104 311.56 586.388 312.419 587.665 313.287C589.629 314.622 591.574 315.98 593.588 317.24C594.121 317.573 595.383 317.412 595.941 317.007C597.436 315.924 598.86 314.749 600.284 313.574C600.956 313.02 601.629 312.466 602.309 311.921C602.646 311.65 602.99 311.338 603.335 311.008C603.613 310.74 603.894 310.459 604.176 310.179C605.595 308.762 607.02 307.338 608.278 307.463C612.569 307.89 615.502 306.053 618.624 304.096L618.701 304.047C618.685 304.038 618.69 304.052 618.703 304.03C618.711 304.013 618.724 303.978 618.732 303.902C618.799 303.737 618.86 303.577 618.919 303.422L618.943 303.358C619.152 302.802 619.336 302.314 619.659 301.936C622.345 298.8 625.057 295.683 627.815 292.603C631.374 288.626 635.084 284.767 638.54 280.706C641.154 277.632 643.463 274.317 645.927 271.123C646.102 270.897 646.279 270.67 646.462 270.448C646.583 270.3 646.707 270.155 646.835 270.012C647.082 269.733 647.343 269.467 647.622 269.223C650.185 266.991 652.955 264.959 655.34 262.565C659.105 258.785 665.223 259.093 668.408 263.506C668.711 263.634 668.887 263.695 669.276 263.722C669.999 263.747 670.556 263.702 671.018 263.885C672.709 264.558 674.397 265.24 676.084 265.922C679.407 267.266 682.73 268.61 686.085 269.875C686.895 270.181 688.526 270.068 688.892 269.556C690.201 267.731 691.919 267.515 693.871 267.646L693.863 267.636C693.865 267.632 693.907 267.647 693.952 267.522C699.917 263.12 705.866 258.932 711.716 254.619C717.606 250.277 724.263 247.893 731.739 246.934C732.235 246.787 732.721 246.65 733.197 246.515C734.011 246.285 734.798 246.061 735.563 245.814C736.128 245.632 736.682 245.436 737.223 245.214C739.218 244.397 741.207 243.566 743.193 242.726C744.807 242.044 746.419 241.358 748.029 240.672L748.92 240.669H748.94C750.994 240.666 752.06 240.664 752.629 241.198C753.241 241.772 753.279 242.967 753.356 245.451C754.194 246.084 755.558 246.567 755.678 247.304C756.102 249.942 757.603 249.994 759.331 250.056L759.639 250.067C760.473 250.101 761.209 249.855 761.904 249.495C762.382 249.247 762.84 248.947 763.299 248.646C764.274 248.005 765.251 247.365 766.411 247.24C766.803 247.197 767.184 245.93 767.393 245.169C767.445 244.98 767.484 244.787 767.513 244.591L767.552 244.307C767.586 244.017 767.607 243.723 767.628 243.429C767.644 243.199 767.66 242.97 767.683 242.743C767.913 240.436 768.018 240.288 770.176 240.217C771.395 240.178 772.616 240.187 773.846 240.197C774.395 240.201 774.947 240.206 775.503 240.206C775.574 240.411 775.641 240.641 775.704 240.881L775.852 241.454C776.088 242.384 776.316 243.286 776.657 243.344C778.309 243.624 778.654 244.882 779.024 246.229C779.158 246.72 779.296 247.223 779.502 247.694H801.436C801.488 248.243 801.543 248.752 801.598 249.233L801.614 249.382C801.733 250.426 801.838 251.342 801.849 252.26C801.901 256.238 801.854 260.218 801.88 264.197C801.885 264.787 801.95 265.376 802.029 266.098C802.071 266.475 802.117 266.888 802.16 267.356H811.286C811.764 267.356 812.242 267.359 812.72 267.363L814.042 267.374C816.145 267.395 818.251 267.416 820.351 267.328C820.855 267.307 821.36 267.31 821.867 267.325C822.293 267.337 822.719 267.356 823.147 267.377C825.188 267.472 827.241 267.567 829.257 266.815L829.746 249.836C834.023 251.043 836.2 248.367 838.251 245.024L845.858 245.768C846.012 246.126 846.106 246.531 846.198 246.931L846.203 246.958C846.438 247.99 846.663 248.978 847.878 249.012C850.961 249.099 854.046 249.036 857.19 249.036C857.291 248.155 857.315 247.705 857.398 247.268C857.451 246.984 857.532 246.707 857.615 246.423L857.62 246.408L857.735 246.002C864.704 244.996 871.41 246.237 878.069 247.47C880.468 247.915 882.863 248.358 885.26 248.695C885.375 248.989 885.468 249.308 885.555 249.606C885.725 250.192 885.871 250.693 886.109 250.755C888.177 251.303 888.436 253.167 888.675 254.911L888.695 255.05C888.859 255.124 889 255.199 889.126 255.267C889.361 255.393 889.544 255.493 889.732 255.503C892.29 255.651 894.931 255.375 896.807 258.054C897.128 258.511 897.968 258.763 898.537 258.706C900.162 258.542 901.631 259.122 903.114 259.706C904.509 260.255 905.913 260.809 907.465 260.752C910.066 260.654 910.783 262.261 910.727 265.373C910.704 266.638 910.779 267.904 910.855 269.204V269.219C910.89 269.816 910.926 270.419 910.954 271.033C918.609 275.39 926.408 274.349 934.536 272.345V300.359L941.139 300.928L941.475 305.568L949.791 305.096L950.322 300.585C950.541 300.544 950.722 300.504 950.883 300.47C951.088 300.427 951.26 300.395 951.432 300.382C954.866 300.144 955.054 299.782 954.563 296.036C954.411 294.88 954.45 293.692 954.491 292.486C954.508 291.933 954.526 291.376 954.526 290.817L960.269 290.023C960.269 288.809 960.244 288.003 960.274 287.2C960.367 284.732 961.089 283.744 963.265 283.837C964.728 283.899 966.183 284.16 967.722 284.437C968.423 284.563 969.141 284.692 969.885 284.806C969.885 285.972 969.89 287.125 969.895 288.266L969.899 288.912C969.906 290.284 969.911 291.641 969.906 292.991C969.901 294.105 969.888 295.215 969.864 296.324L969.859 296.453C969.804 299.029 969.802 299.067 972.09 299.192C973.164 299.251 974.238 299.315 975.317 299.381L981.768 299.788C982.112 304.826 981.919 309.778 981.908 314.718C981.901 317.636 981.959 320.549 982.23 323.473H986.316C989.205 325.923 990.008 328.892 989.708 332.543C989.461 335.56 989.639 338.623 989.674 341.666C989.679 342.088 989.741 342.509 989.817 342.969L989.916 343.554C989.95 343.753 989.984 343.96 990.015 344.18L990.773 344.091C998.242 343.217 1005.53 342.365 1012.68 338.794C1012.74 338.441 1012.84 337.988 1012.94 337.478C1013.05 336.885 1013.15 336.217 1013.18 335.545L1013.29 333.195C1013.46 328.988 1013.64 324.78 1013.85 320.585C1014.23 312.678 1014.11 304.74 1014 296.801C1013.95 293.501 1013.89 290.201 1013.88 286.903C1013.87 284.254 1013.87 281.605 1013.88 278.956L1013.88 275.216L1014.57 275.081C1014.61 275.171 1014.65 275.261 1014.7 275.351C1014.74 275.427 1014.79 275.503 1014.83 275.579C1015.03 275.933 1015.23 276.288 1015.25 276.652C1015.44 281.431 1015.43 286.224 1015.76 290.989C1015.81 291.635 1015.77 292.309 1015.73 292.989C1015.62 294.929 1015.51 296.909 1017.33 298.367C1017.56 298.556 1017.57 299.157 1017.57 299.683C1017.57 299.804 1017.57 299.921 1017.57 300.029C1017.61 301.198 1017.58 302.369 1017.59 303.54C1017.62 307.154 1017.77 307.362 1020.91 307.373C1027.57 307.397 1034.22 307.386 1040.88 307.375L1042.48 307.373C1042.88 307.372 1043.27 307.329 1043.79 307.273C1044.07 307.242 1044.38 307.207 1044.75 307.174L1045.62 294.978H1051.02C1051.04 296.867 1051.05 297.764 1051.47 298.35C1051.86 298.88 1052.59 299.157 1053.98 299.683C1053.75 301.562 1054.58 303.028 1055.42 304.506C1055.86 305.288 1056.3 306.074 1056.59 306.926C1056.8 307.528 1056.93 308.163 1056.93 308.853C1056.92 309.021 1057.15 309.195 1057.36 309.361C1057.44 309.424 1057.51 309.485 1057.58 309.545C1057.99 309.927 1058.42 310.293 1058.84 310.66C1059.63 311.338 1060.41 312.023 1061.08 312.827C1063.49 315.732 1066.84 315.936 1069.23 312.907C1070.45 311.366 1071.61 310.048 1073.86 310.229C1073.86 309.809 1073.86 309.41 1073.85 309.025C1073.84 308.612 1073.84 308.216 1073.84 307.829C1073.84 307.399 1073.85 306.98 1073.89 306.564C1073.9 306.382 1073.93 306.167 1073.97 305.95C1074.06 305.414 1074.23 304.867 1074.47 304.786C1076.07 304.234 1075.66 302.839 1075.73 301.625C1075.76 301.301 1075.74 300.945 1075.73 300.589C1075.7 299.798 1075.67 299.008 1076.01 298.554C1077.05 297.135 1077.02 295.599 1076.98 294.058C1076.97 293.664 1076.97 293.27 1076.97 292.877C1077.08 288.234 1077.13 283.591 1077.21 278.591C1078 278.591 1078.77 278.567 1079.51 278.545L1079.58 278.542C1081.25 278.49 1082.8 278.441 1084.32 278.66C1084.89 278.743 1085.43 278.681 1085.97 278.556C1086.38 278.462 1086.78 278.33 1087.19 278.198C1088.39 277.806 1089.6 277.409 1091.01 277.954C1092.39 278.488 1093.98 278.357 1095.58 278.227C1096.29 278.168 1097 278.11 1097.7 278.11C1097.89 285.336 1098.15 292.215 1098.21 299.096C1098.24 302.887 1098.08 302.889 1101.24 303.615L1102.07 321.426C1102.48 321.426 1102.87 321.429 1103.24 321.432C1103.99 321.439 1104.67 321.445 1105.35 321.42C1109.4 321.277 1113.45 321.093 1117.5 320.965C1118.35 320.939 1119.21 320.948 1120.06 320.956L1120.78 320.962L1121.33 320.964C1121.82 320.964 1122.32 320.958 1122.81 320.939C1124.85 320.863 1125.12 320.364 1125.04 318.229C1124.98 316.71 1124.95 315.188 1124.92 313.667C1124.9 312.427 1124.88 311.186 1124.87 309.945C1124.85 308.744 1124.84 307.542 1124.82 306.341C1124.82 306.272 1124.84 306.203 1124.87 306.13C1124.9 306.06 1124.94 305.987 1124.99 305.909L1125 305.897C1125.04 305.821 1125.08 305.741 1125.12 305.654L1127.85 304.761C1127.85 303.612 1127.78 302.56 1127.88 301.53C1127.94 300.878 1128.13 299.815 1128.48 299.693C1130.44 299.007 1130.39 297.39 1130.35 295.767C1130.34 295.555 1130.34 295.344 1130.34 295.135C1130.28 285.66 1130.2 276.184 1130.14 266.709C1130.14 266.513 1130.14 266.317 1130.14 266.12L1130.16 265.732C1130.17 265.275 1130.19 264.819 1130.22 264.36C1130.24 264.011 1130.26 263.66 1130.27 263.308C1130.81 263.268 1131.24 263.223 1131.62 263.193C1131.8 263.179 1131.96 263.167 1132.12 263.162C1132.24 263.157 1132.36 263.154 1132.48 263.155C1132.6 263.156 1132.72 263.161 1132.85 263.169C1133.31 263.198 1133.77 263.268 1134.17 263.306C1134.31 263.603 1134.38 263.926 1134.43 264.252C1134.46 264.426 1134.48 264.601 1134.5 264.773C1134.62 265.741 1134.72 266.635 1135.91 266.868C1136.43 266.971 1136.96 267.088 1137.5 267.214L1138.34 267.414C1138.75 267.513 1139.17 267.614 1139.61 267.714C1139.74 270.034 1139.73 272.359 1139.72 274.681C1139.7 278.759 1139.68 282.831 1140.46 286.861L1142.81 287.078C1145.11 290.512 1144.65 294.284 1144.74 297.969C1144.86 302.867 1145.09 307.761 1145.26 312.658C1145.49 319.556 1145.33 326.411 1144.26 333.253C1143.51 338.129 1142.97 343.049 1142.42 347.964C1142.29 349.178 1142.15 350.392 1142.01 351.604C1141.5 355.967 1141.05 360.337 1140.58 364.573L1132.48 366.323C1132.63 367.018 1132.61 367.295 1132.73 367.455C1134.81 370.355 1134.49 371.326 1131.19 372.198C1130.41 372.406 1129.63 372.654 1128.85 372.902C1128.5 373.015 1128.14 373.128 1127.79 373.237L1127.83 373.984C1128.3 374.2 1128.77 374.414 1129.24 374.627C1130.47 375.19 1131.71 375.752 1132.93 376.356C1133.47 376.622 1134.33 377.103 1134.34 377.491C1134.35 379.473 1135.5 379.914 1136.66 380.356C1136.95 380.463 1137.23 380.571 1137.5 380.702C1138.08 380.988 1138.67 381.263 1139.27 381.539L1140.05 381.906C1141.02 382.364 1141.99 382.836 1142.92 383.37C1143.78 383.858 1144.45 384.747 1145.26 385.508L1143.19 388.666L1149.5 392.86C1150.64 395.366 1150.46 398.802 1150.28 402.287L1150.25 403C1150.52 403 1150.8 403 1151.25 402.677C1151.33 401.599 1151.33 400.533 1151.33 399.48C1151.33 398.331 1151.32 397.199 1151.43 396.081C1151.59 394.552 1151.96 393.053 1152.84 391.581C1154.96 392.358 1156.23 391.02 1157.53 389.661C1157.93 389.24 1158.33 388.817 1158.76 388.455L1157.41 384.918L1168.17 380.016L1167.76 377.339L1174.6 373.808C1173.71 373.095 1172.6 372.888 1171.54 372.688C1169.73 372.348 1168.04 372.031 1167.68 369.284L1170.36 367.211C1167.91 366.012 1165.98 365.334 1163.92 365.106C1162.49 364.947 1161.67 364.341 1161.53 362.553C1161.36 360.301 1161.1 358.055 1160.84 355.712C1160.72 354.704 1160.6 353.678 1160.49 352.625C1160.91 352.544 1161.32 352.46 1161.72 352.376L1161.78 352.363C1162.71 352.173 1163.61 351.989 1164.51 351.866C1166.27 351.623 1167.53 350.428 1167.79 348.435C1167.93 347.403 1167.85 346.334 1167.85 345.282L1167.86 279.898L1173.06 277.124C1174.13 279.43 1173.97 281.762 1173.82 284.037C1173.69 285.983 1173.56 287.887 1174.2 289.699L1179.55 289.987C1179.81 292.448 1179.77 294.867 1179.72 297.248C1179.66 300.576 1179.6 303.829 1180.38 307.019C1183.94 307.674 1199 307.512 1201.62 306.67L1201.63 304.861L1201.62 303.535L1201.62 303.063C1201.6 301.227 1201.58 299.39 1201.56 297.553C1201.5 292.609 1201.45 287.664 1201.45 282.72C1201.45 281.678 1201.69 280.134 1202.3 279.706C1203.45 278.907 1203.49 277.937 1203.5 276.765C1203.5 274.593 1203.5 272.42 1203.5 270.247V252.752L1207.48 251.253C1207.53 252.131 1207.58 252.948 1207.64 253.725C1207.75 255.272 1207.84 256.659 1207.86 258.047C1207.96 265.477 1208.05 272.908 1208.15 280.338L1208.22 286.436C1208.31 294.02 1208.41 301.603 1208.52 309.187C1208.56 312.597 1208.72 316.006 1208.87 319.416C1208.91 320.433 1208.96 321.451 1209 322.469C1209 322.542 1209.02 322.615 1209.05 322.687C1209.09 322.819 1209.17 322.95 1209.25 323.081L1209.34 323.255L1209.4 323.371L1212.79 323.713C1213.1 324.254 1213.36 324.755 1213.6 325.22L1213.66 325.321C1214.17 326.31 1214.61 327.139 1215.15 327.864C1215.32 328.084 1215.49 328.3 1215.66 328.515L1215.99 328.938C1217.28 330.566 1218.57 332.185 1218.97 334.472C1219 334.664 1219.47 334.759 1219.64 334.85L1226.41 323.645L1230.4 323.243V299.822L1232.98 299.596C1234.66 299.446 1236.25 299.306 1237.84 299.194C1240.02 299.042 1240.05 298.958 1240.02 296.555C1239.99 293.853 1240 291.151 1240 288.363V288.317C1240.01 287.1 1240.01 285.867 1240.01 284.613C1241.01 284.691 1241.96 284.488 1242.9 284.289C1244.54 283.943 1246.12 283.609 1247.74 284.789L1248.05 289.984L1252.52 290.883C1252.52 291.495 1252.54 292.09 1252.55 292.671C1252.58 293.918 1252.61 295.104 1252.49 296.271C1252.14 299.711 1252.29 300.013 1255.34 300.42C1255.63 300.457 1255.89 300.677 1256.25 300.853L1256.71 305.156L1262.67 305.535L1263.18 300.84L1268.52 300.378V272.281C1275.1 274.404 1281.22 275.289 1287.2 271.107L1287.25 270.427C1287.28 270.041 1287.32 269.657 1287.36 269.274V269.259C1287.49 267.902 1287.62 266.553 1287.55 265.218C1287.39 262.206 1288.13 261.145 1290.81 260.546C1293.26 259.998 1295.67 259.146 1298.07 258.362C1298.55 258.208 1299.09 257.867 1299.35 257.426C1300.27 255.855 1301.54 255.494 1303.1 255.614C1303.78 255.666 1304.48 255.346 1305.37 255.151C1304.87 253.257 1305.76 252.232 1306.63 251.21C1307.29 250.45 1307.94 249.691 1308.02 248.578C1310.28 248.252 1312.49 247.751 1314.7 247.253C1319.88 246.082 1324.99 244.927 1330.29 246.11L1330.95 249.099C1331.42 249.099 1331.88 249.102 1332.34 249.105H1332.36C1333.4 249.114 1334.4 249.122 1335.4 249.086C1335.63 249.078 1335.88 249.082 1336.13 249.086L1336.62 249.091C1337.29 249.089 1337.94 249.032 1338.41 248.684C1338.89 248.326 1339.13 247.552 1339.38 246.761L1339.39 246.729C1339.5 246.386 1339.6 246.041 1339.73 245.726L1346.29 245.035C1347.33 248.767 1349.54 250.474 1352.77 250.32L1353.51 267.118H1374.58C1374.9 264.374 1374.86 261.641 1374.82 258.916C1374.77 255.172 1374.71 251.444 1375.59 247.728C1377.05 247.702 1378.5 247.693 1379.94 247.691C1381.95 247.688 1383.94 247.699 1385.9 247.702C1388.27 247.705 1390.6 247.697 1392.9 247.639C1393.05 247.13 1393.16 246.615 1393.26 246.144C1393.33 245.832 1393.39 245.538 1393.46 245.281C1393.59 244.791 1393.74 244.43 1393.99 244.304C1395.06 243.755 1395.35 242.79 1395.66 241.754C1395.83 241.192 1396 240.609 1396.31 240.061C1397.45 240.415 1398.68 240.157 1399.89 240.146C1400.76 240.138 1401.62 240.256 1402.44 240.817C1402.77 241.669 1402.78 242.642 1402.78 243.599C1402.79 245.365 1402.81 247.079 1404.87 247.888C1405.44 248.11 1405.97 248.476 1406.52 248.846C1407.96 249.828 1409.45 250.836 1411.59 249.229C1411.06 247.196 1412.36 246.201 1413.96 245.651L1414.18 240.654C1414.69 240.654 1415.16 240.647 1415.61 240.64C1416.53 240.626 1417.34 240.613 1418.16 240.666C1422.6 240.956 1427.04 241.295 1431.49 241.612L1439.75 242.195ZM1143.91 354.14C1144.32 350.219 1144.69 346.293 1145.14 342.38C1145.6 338.457 1145.61 334.438 1147.05 330.621C1147.36 331.138 1147.57 331.657 1147.69 332.177C1147.79 332.598 1147.84 333.018 1147.85 333.439C1147.87 342.041 1147.86 350.643 1147.85 359.246V360.368C1147.85 360.706 1147.83 361.043 1147.8 361.38L1147.77 361.771L1147.75 362.109C1147.73 362.716 1147.61 363.204 1147.4 363.577C1147.02 364.278 1146.31 364.574 1145.32 364.497C1144.93 364.467 1144.54 364.419 1144.04 364.359L1143.17 364.258C1143.42 360.956 1143.65 357.868 1143.91 354.14ZM1154.71 358.514L1154.71 358.079C1154.7 356.704 1154.7 355.33 1154.78 353.961C1154.81 353.434 1155.35 352.607 1155.74 352.534C1155.94 352.497 1156.24 352.619 1156.5 352.803C1156.79 353.001 1157.04 353.274 1157.08 353.495C1157.48 356.19 1157.81 358.9 1158.14 361.62L1158.44 364.115C1157.09 364.146 1156.35 364.164 1155.88 363.814C1155.3 363.388 1155.12 362.416 1154.72 360.256C1154.72 359.676 1154.72 359.095 1154.71 358.514ZM176.01 357.296L176.377 357.348C176.949 357.427 177.521 357.505 177.56 357.687C178.237 360.905 178.746 364.156 179.307 367.446C175.951 367.541 175.232 367.317 175.18 365.761C175.088 363.014 175.292 360.257 175.632 357.23C175.746 357.254 175.874 357.276 176.01 357.296Z" fill="#BC6654"/>
</svg>
