<svg width="75" height="73" viewBox="0 0 75 73" fill="none" xmlns="http://www.w3.org/2000/svg">
<path d="M29.6412 2.83395C28.9512 5.24267 27.8583 5.61364 26.093 4.01597C25.6114 3.69902 25.0849 3.45628 24.5311 3.29594C24.3546 3.82815 24.1862 4.36762 23.9971 4.89435C23.808 5.42107 23.6392 6.51739 23.276 6.61286C22.6586 6.77669 21.8624 6.41747 21.1878 6.15628C20.6576 5.90903 20.1507 5.61488 19.6729 5.27737C19.3751 5.65938 19.0759 5.86507 19.0717 6.08004C18.9468 9.45357 18.9688 9.40335 15.9228 8.66647C15.5501 8.57836 14.5177 9.40942 14.534 9.78287C14.6715 13.0692 14.7247 13.0588 11.5008 12.5321C11.0018 12.4874 10.5006 12.4718 9.99982 12.4854C10.1729 13.3125 10.3434 13.8804 10.4103 14.4629C10.4924 15.1904 10.7966 16.1795 10.4482 16.5917C10.0998 17.0039 9.07493 16.7915 8.35006 16.8934C7.81072 16.9642 7.27906 17.0945 6.74307 17.2004C6.91469 17.7315 7.10612 18.2601 7.24891 18.7972C7.43179 19.5164 7.87794 20.403 7.63316 20.9203C7.38839 21.4377 6.34552 21.352 5.66561 21.5819C4.98571 21.8119 4.39368 22.0802 3.46454 22.4443C4.28134 23.2013 4.8583 23.5319 5.2029 24.0265C6.13798 25.3511 6.05362 26.331 4.16712 26.6019C3.52435 26.7392 2.89346 26.9273 2.28034 27.1642C2.66637 27.7778 2.94181 28.5075 3.46018 28.9808C4.97681 30.3689 4.73902 31.1696 2.82657 31.7992C1.98801 32.0757 1.25941 32.6994 0.143674 33.3706C0.550273 33.493 0.946527 33.6474 1.32869 33.8325C2.11991 34.3914 2.89388 34.9726 3.67687 35.5503C2.96436 36.1885 2.23851 36.8058 1.55642 37.4685C1.07273 37.9337 0.647126 38.4543 0.385988 38.7439L3.39992 41.2051C2.65947 42.1039 1.91275 43 0.92999 44.1967C1.4777 44.466 2.10877 44.7754 2.70493 45.0621C3.30109 45.3489 4.28658 45.6599 4.32085 46.0263C4.3766 46.66 3.84985 47.3607 3.53138 47.9953C3.26503 48.5107 2.92434 48.9824 2.61502 49.4678C3.18301 49.7849 3.79005 50.0263 4.4207 50.1859C6.46097 50.4271 6.8337 51.1396 5.78347 52.8414C5.50639 53.4297 5.29445 54.0466 5.15144 54.681C5.81313 54.8279 6.48717 54.9123 7.16465 54.9329C9.14535 54.8228 9.77968 55.4328 8.71187 57.3287C8.44876 57.9349 8.27219 58.575 8.18735 59.2304C9.96062 59.3212 11.3689 59.3835 12.7348 59.4571L11.7411 63.4415C12.4003 63.3446 13.1459 63.2293 13.8889 63.1204C14.6318 63.0114 15.5294 62.899 16.3596 62.7871C16.4545 63.6136 16.5764 64.4295 16.6432 65.2774C16.6297 65.8728 16.5847 66.4671 16.5081 67.0577C17.4824 66.676 18.0636 66.4067 18.6641 66.213C19.3456 66.0137 20.1255 65.6405 20.7206 65.8184C21.0761 65.9288 21.1623 66.946 21.3613 67.56C21.5602 68.1741 21.7493 68.7764 21.9447 69.3814C22.5137 69.0544 23.0739 68.7049 23.6463 68.413C24.1474 68.1646 24.8211 67.6666 25.1573 67.821C25.6648 68.054 26.0026 68.7437 26.3162 69.292C26.6742 69.9269 26.923 70.6151 27.2214 71.2838C27.7495 70.7681 28.3096 70.2862 28.8985 69.8411C29.3478 69.5403 29.9719 69.1813 30.4174 69.2825C30.8628 69.3837 31.2218 70.0079 31.5344 70.4473C31.943 71.0521 32.2584 71.7245 32.6137 72.3658C33.1016 71.8052 33.6424 71.2864 34.073 70.6858C35.2179 69.0927 36.4673 69.2275 37.3939 70.9821C37.7854 71.6179 38.2145 72.2299 38.6789 72.8147C39.0392 72.373 39.3587 71.8995 39.6335 71.4001C40.7851 68.6024 41.183 68.5558 43.0982 70.948C43.339 71.2439 43.9973 71.6363 44.0699 71.5559C44.5188 71.1864 44.869 70.7113 45.0891 70.1732C45.7937 67.9877 46.5197 67.7293 48.0873 69.1546C48.5362 69.4987 49.0176 69.798 49.5248 70.0483C49.7495 69.44 50.1478 68.8365 50.1764 68.2321C50.2537 66.2248 51.1134 65.8827 52.743 66.8155C53.4114 67.1936 54.1288 67.5109 55.0735 67.9836C55.384 67.3417 55.6757 67.0505 55.6824 66.7357C55.747 63.6199 55.7233 63.6656 58.752 64.4249C59.0753 64.5063 60.0441 63.6325 60.0198 63.2518C59.791 60.0116 59.7532 60.0212 62.6805 60.7474C63.0595 60.8382 63.7593 60.845 63.8469 60.6702C64.0695 60.2271 64.1166 59.7162 63.9786 59.2399C62.9213 56.3815 63.0568 56.1828 66.024 56.4927C66.4186 56.5306 67.1196 56.5005 67.1738 56.3335C67.3323 55.8739 67.3206 55.3726 67.1407 54.9209C65.702 51.9519 65.8931 51.6429 69.1951 51.5458C69.6639 51.5339 70.3785 51.3527 70.5122 51.0298C70.6458 50.7069 70.3798 50.0411 70.0856 49.6621C68.3164 47.3636 68.4079 47.1456 71.4799 46.5144C71.6737 46.4869 71.8597 46.4196 72.0262 46.3168C72.1928 46.2139 72.3362 46.0777 72.4476 45.9167C72.4948 45.7176 72.4961 45.5103 72.4512 45.3106C72.4063 45.1109 72.3166 44.9241 72.1887 44.7643C70.0053 42.2587 69.9989 42.282 72.9973 40.998C73.2769 40.8885 73.4513 40.5236 73.6644 40.284C70.6795 37.1663 70.6795 37.1663 74.1191 34.8041C72.9312 33.9896 70.9506 33.21 70.986 32.5301C71.0342 31.325 72.3198 30.171 73.0919 28.9944C69.6075 27.2846 69.6075 27.2846 71.6591 23.6765C70.3811 23.2563 69.1363 22.8543 67.8915 22.4523L69.3449 18.5791C65.3081 18.0223 65.3081 18.0222 66.1833 14.0009C64.8468 13.9626 62.9841 14.4271 62.3584 13.7461C61.7327 13.0651 62.2702 11.2365 62.3139 9.6481C61.7184 9.8721 61.1074 10.0523 60.4857 10.1874C59.7591 10.2848 58.8021 10.5245 58.3485 10.1767C57.8949 9.82892 58.1367 8.83929 58.0419 8.13243C57.9668 7.56874 57.8583 7.01291 57.7634 6.45178C57.1954 6.62226 56.6328 6.80627 56.056 6.9542C55.3549 7.13003 54.624 7.44237 53.9519 7.34673C53.6814 7.30702 53.492 6.3719 53.3529 5.81765C53.159 5.12358 53.0454 4.40847 52.8984 3.70123C52.3117 4.15021 51.6737 4.52771 50.9977 4.82572C50.1214 5.04055 49.2289 5.18312 48.3293 5.25202C48.2961 4.60946 48.2476 3.96769 48.2252 3.32611C48.2129 2.9095 48.2392 2.49858 48.2544 1.75381C47.4045 1.98795 46.4585 1.93714 46.1937 2.36346C44.415 5.04781 43.2104 5.18677 42.3612 1.78382C42.2948 1.50806 41.0722 1.14942 40.8487 1.33584C38.2619 3.55114 38.2923 3.57564 36.5065 0.955874C36.3953 0.791356 36.0291 0.799557 35.6566 0.685352C35.4431 0.94946 35.2608 1.23735 35.1134 1.5433C34.116 4.41583 33.7755 4.47639 31.7055 2.23333C31.3949 1.89197 30.7748 1.5574 30.4063 1.63933C30.0378 1.72127 29.7695 2.37787 29.6412 2.83395ZM55.5082 53.7136C56.0446 55.6938 55.4523 57.263 53.3646 58.0029C51.7484 58.5789 48.445 57.4902 48.578 56.2362C48.7832 54.595 49.713 52.9976 50.3218 51.3907C52.8906 51.0555 55.0323 51.9542 55.5082 53.7136ZM37.5607 58.9501C38.0263 60.8957 37.5046 62.5256 35.4122 63.2934C33.6843 63.9027 30.5471 62.827 30.7429 61.4807C31.0477 59.755 31.9224 58.1812 33.227 57.0112C34.5617 55.916 37.1547 57.2362 37.5607 58.9501ZM14.8987 52.8289C14.2462 50.8577 14.8046 49.255 16.756 48.4592C18.7074 47.6635 20.3068 48.426 21.1342 50.3391C22.0105 52.3371 21.2006 54.0279 19.3494 54.774C17.4981 55.5201 15.8388 54.8435 14.9005 52.8334L14.8987 52.8289ZM64.5648 37.7201C65.2636 39.6367 64.3211 41.494 62.27 42.2612C61.8318 42.448 61.3587 42.5392 60.8824 42.5287C60.406 42.5183 59.9374 42.4064 59.5078 42.2005C59.0781 41.9947 58.6972 41.6996 58.3906 41.335C58.0839 40.9704 57.8585 40.5446 57.7293 40.086C57.0322 37.9345 58.1729 36.676 59.6869 35.7863C61.8921 34.9744 63.8739 35.8368 64.5666 37.7246L64.5648 37.7201ZM59.3221 19.9669C60.2992 22.3416 59.4908 24.0631 57.3799 24.8901C55.269 25.7171 53.4826 24.955 52.7614 23.0211C52.0403 21.0872 52.9499 19.3053 55.0672 18.5746C57.0512 17.8753 58.5883 18.4125 59.3238 19.9714L59.3221 19.9669ZM49.096 32.0585C51.6399 38.7517 48.4666 45.3799 41.4026 48.1318C39.8916 48.7424 38.2742 49.0457 36.6447 49.0241C35.0152 49.0024 33.4064 48.6563 31.9122 48.0058C30.418 47.3554 29.0684 46.4137 27.9423 45.2358C26.8161 44.0578 25.936 42.6673 25.3533 41.1453C24.7706 39.6234 24.497 38.0005 24.5485 36.3717C24.6 34.7428 24.9756 33.1405 25.6533 31.6583C26.331 30.1762 27.2972 28.844 28.4955 27.7396C29.6939 26.6351 31.1003 25.7805 32.6325 25.2257C39.5679 22.4773 46.5575 25.3789 49.096 32.0585ZM16.2617 32.7738C17.1252 34.2877 16.1321 36.5602 14.4191 37.2209C12.4526 37.9914 10.8782 37.3855 9.93545 35.4968C9.74839 35.0888 9.64745 34.6467 9.63894 34.1979C9.63042 33.7491 9.71451 33.3034 9.88597 32.8886C10.0574 32.4738 10.3126 32.0988 10.6354 31.7871C10.9583 31.4753 11.342 31.2334 11.7625 31.0766C13.799 30.2059 15.2862 31.054 16.2617 32.7738ZM43.227 11.8035C44.0653 13.8372 43.2898 15.4833 41.4779 16.2765C39.6659 17.0696 37.923 16.3789 36.992 14.4804C36.1843 12.8302 37.08 10.7207 39.1038 9.87057C40.7347 9.49176 42.3784 9.71666 43.2343 11.7954L43.227 11.8035ZM25.5328 17.1021C26.2784 19.0056 25.5515 20.5234 23.7388 21.3013C21.7817 22.1357 20.184 21.5234 19.3312 19.5058C18.4784 17.4882 19.4042 16.0797 20.9247 15.1666C23.2843 14.4035 24.7742 15.1257 25.5536 17.0888L25.5328 17.1021Z" fill="#F8E2A5"/>
<path d="M26.3447 40.5975C27.3904 43.4639 29.5262 45.8011 32.2869 47.1001C35.0476 48.3991 38.2098 48.5548 41.0848 47.5331C47.3886 45.2975 50.6825 38.5389 48.413 32.4666C46.1199 26.3203 39.665 23.4955 33.0884 25.7651C27.2773 27.7712 24.1728 34.6015 26.3447 40.5975ZM45.198 33.3568C46.9073 37.4945 44.6777 42.3482 40.2319 44.1472C39.2331 44.5587 38.162 44.7661 37.0818 44.7572C36.0016 44.7483 34.9341 44.5232 33.9423 44.0953C32.9504 43.6674 32.0542 43.0452 31.3065 42.2656C30.5588 41.4859 29.9748 40.5644 29.5887 39.5554C29.1908 38.5765 28.9915 37.5282 29.0024 36.4715C29.0134 35.4148 29.2344 34.3708 29.6526 33.4003C30.0708 32.4299 30.6779 31.5522 31.4384 30.8186C32.199 30.0849 33.0978 29.5098 34.0827 29.1268C38.536 27.2937 43.4665 29.1757 45.198 33.3568Z" fill="#F8E2A5"/>
</svg>
