<svg width="75" height="73" viewBox="0 0 75 73" fill="none" xmlns="http://www.w3.org/2000/svg">
<path d="M74.7276 33.3933C73.7875 33.9441 72.8124 34.4478 71.9141 35.0486C71.2147 35.568 70.5424 36.123 69.9 36.7115C70.5959 37.274 71.2753 37.865 72.0002 38.3885C72.3066 38.6058 72.7838 38.5958 73.0508 38.8396C73.4766 39.2815 73.8689 39.7545 74.2244 40.2546C73.7721 40.644 73.2825 40.9877 72.7627 41.2808C72.3521 41.4749 71.7804 41.3283 71.3612 41.5147C70.6373 41.8752 69.9335 42.2747 69.2528 42.7112C69.6702 43.3957 70.1383 44.0479 70.6531 44.6624C71.1049 45.138 71.8194 45.3668 72.2616 45.8462C72.5847 46.232 72.7454 46.7282 72.7097 47.2302C72.6842 47.4614 72.0493 47.7324 71.6519 47.8051C70.2521 48.0715 68.8365 48.2555 67.4245 48.4768C68.1924 49.6748 68.9997 50.8462 69.7109 52.0829C69.9423 52.49 70.1617 53.2336 69.9677 53.4866C69.7709 53.6658 69.5392 53.8024 69.2872 53.8878C69.0352 53.9732 68.7682 54.0056 68.503 53.983C63.6743 53.7124 63.6878 53.6905 65.6036 58.1717C65.7426 58.5265 65.7491 59.2208 65.5242 59.3808C65.1071 59.6712 64.5954 59.7927 64.0923 59.7206C62.6981 59.465 61.3229 59.0746 59.9427 58.7415L60.9078 63.2523C60.9466 63.4362 60.95 63.6285 61.0641 64.6678C59.687 64.1454 58.6803 63.7213 57.6434 63.3754C56.8154 63.097 55.9589 62.9293 55.1001 62.6851C55.0233 63.5337 54.9187 64.3821 54.8744 65.229C54.8142 66.3034 54.8046 67.38 54.7768 68.4528L53.9423 68.553C53.2443 67.79 52.4938 67.0769 51.6961 66.4189C51.0893 65.9709 50.1163 65.3787 49.6097 65.6103C49.1032 65.842 48.6333 66.8446 48.3927 67.5859C48.0786 68.7061 47.826 69.8427 47.636 70.9905C46.7434 70.1235 45.8853 69.2319 44.9618 68.3991C44.5068 67.9857 43.6648 67.2481 43.531 67.3725C42.9112 67.8558 42.408 68.4726 42.059 69.177C41.4732 70.3356 42.3378 72.5851 39.6538 72.171L37.5878 66.897C36.5252 68.4194 35.8991 69.4611 35.176 70.4246C34.6775 71.0271 34.1483 71.6036 33.5907 72.1518C33.2235 71.4827 32.8132 70.8305 32.4988 70.1407C32.3278 69.7044 32.3345 69.1708 32.1146 68.7647C31.7967 68.1648 31.4422 67.4575 30.9002 67.1611C30.6516 67.0206 29.8876 67.6961 29.4316 68.0849C28.3532 68.9885 27.3166 69.9422 26.261 70.8756L25.5348 66.7911C25.2542 65.2418 24.5116 64.7862 23.1921 65.8507C22.9447 66.1348 22.681 66.4043 22.4022 66.6578C21.5629 67.1692 20.6858 67.6124 19.8247 68.0825C19.7464 67.1342 19.6776 66.1823 19.5878 65.233C19.498 64.2838 19.3949 63.3287 19.284 62.3822C18.4546 62.7072 17.6064 62.9842 16.7732 63.2996C15.8143 63.6752 14.8075 64.0697 13.8198 64.4566L13.0224 63.5081C13.6267 62.6492 14.1547 61.7391 14.6005 60.7883C14.8681 60.1304 14.7049 59.2762 14.7409 58.5211C13.9534 58.4696 13.1627 58.4996 12.3814 58.6104C11.4581 58.8228 10.5943 59.2718 8.71967 60.0063C9.2953 58.3981 9.63852 57.4673 9.95797 56.5181C10.2774 55.5689 10.5467 54.6891 10.8401 53.7723C9.98211 53.6715 9.12708 53.564 8.26518 53.4814C7.40328 53.3988 6.37584 53.3312 5.41533 53.2651L6.93874 50.5611C7.32486 49.8715 7.70876 49.181 8.09044 48.4895C7.29536 48.1539 6.51987 47.7554 5.70127 47.5009C4.76819 47.2084 3.79597 47.0417 2.84041 46.8188C3.51434 46.0404 4.21394 45.2852 4.85368 44.476C5.38922 43.7961 5.85824 43.0593 6.3529 42.3456C5.65184 41.9677 5.00286 41.5251 4.28805 41.1968C3.28069 40.7287 2.23835 40.3407 0.830234 39.7531C1.64014 39.0818 1.76539 38.9498 1.91234 38.8591C3.2355 38.0863 4.56239 37.3231 5.88742 36.5551L1.18576 32.8113C2.33641 32.3605 3.40413 32.0086 4.41718 31.5453C5.19264 31.1215 5.94421 30.6553 6.66847 30.149C6.1897 29.5281 5.67511 28.9356 5.12731 28.3747C4.64096 27.9237 3.69498 27.697 3.56365 27.2065C3.40144 26.6229 3.88212 25.8594 4.1212 25.1851C4.13974 25.1336 4.49275 25.2442 4.68141 25.2034C5.95598 24.9419 7.23261 24.6574 8.50342 24.3863C7.82609 23.363 7.11228 22.3596 6.47914 21.308C6.19693 20.7666 5.9564 20.2046 5.75964 19.6266C6.40272 19.4102 7.06319 19.2495 7.73379 19.1463C8.18347 19.1083 8.6723 19.4809 9.1249 19.4364C10.0856 19.3476 11.0349 19.1028 11.9876 18.9231C11.6891 18.0059 11.3696 17.0913 11.0903 16.1666C10.811 15.2418 10.6063 14.4371 10.3658 13.569C11.2077 13.6429 12.0477 13.712 12.8886 13.7973C13.931 13.9033 14.9714 14.0321 16.0157 14.1428C15.8993 13.1819 15.7694 12.2152 15.674 11.2516C15.5863 10.4066 15.5293 9.55512 15.4579 8.70928C16.2898 8.96957 17.1247 9.22319 17.9508 9.49682C18.8714 9.79981 19.7784 10.1247 20.6931 10.441C20.807 9.4894 20.9276 8.54072 21.0319 7.59286C21.1362 6.645 21.2069 5.71028 21.2987 4.77285C22.1126 5.28354 22.8965 5.84472 23.7462 6.2916C24.596 6.73848 25.5954 7.11567 26.5277 7.51915C26.859 6.64271 27.2429 5.77334 27.5094 4.87254C27.7759 3.97173 27.9417 2.9832 28.1474 2.03989C28.918 2.7224 29.6827 3.41825 30.4658 4.09033C31.1282 4.66593 31.8156 5.22066 32.4952 5.78396C32.9405 5.02881 33.4333 4.31037 33.8176 3.51272C34.202 2.71507 34.6085 1.74832 34.9935 0.867487C35.6303 1.67431 36.2498 2.49344 36.902 3.28316C37.4585 3.95554 38.0506 4.59186 38.6273 5.24526C39.169 4.65145 39.7363 4.08081 40.2485 3.45428C40.9236 2.63671 41.559 1.77389 42.2066 0.928393C42.6415 1.8973 43.0542 2.88043 43.5112 3.83515C43.8598 4.55578 44.2689 5.2472 44.654 5.948C45.4086 5.53071 46.3085 5.2445 46.9085 4.64442C47.6437 3.77893 48.3038 2.85237 48.8818 1.8748C49.1811 1.86259 49.4805 1.85038 49.777 1.84484C49.953 3.04237 50.0773 4.24908 50.3194 5.43178C50.5174 6.17119 50.7629 6.89706 51.0545 7.60484C51.7687 7.3329 52.4636 7.0126 53.1344 6.64618C53.6031 6.34639 53.8829 5.73353 54.3323 5.46898C54.8859 5.22958 55.4658 5.05621 56.06 4.95246C56.242 5.50988 56.3806 6.08059 56.4743 6.65945C56.5042 7.01826 56.2089 7.39387 56.2005 7.76771C56.2426 8.70801 56.3822 9.64327 56.4778 10.5792C57.2992 10.3182 58.1253 10.0554 58.9333 9.78861C59.863 9.47967 60.7841 9.163 61.712 8.84926C61.565 9.88574 61.4545 10.9024 61.3496 11.9335C61.2611 12.8088 61.2051 13.6824 61.1396 14.5598C61.9224 14.4688 62.7451 14.423 63.492 14.2686C64.0465 14.1453 64.5505 13.7377 65.1046 13.67C65.3553 13.6254 65.6124 13.6323 65.8603 13.6901C66.1083 13.7479 66.3419 13.8555 66.547 14.0063C66.6524 14.2337 66.7084 14.4808 66.7112 14.7314C66.714 14.9819 66.6637 15.2303 66.5634 15.4599C66.3752 15.9817 65.8186 16.3822 65.6266 16.8943C65.3369 17.715 65.09 18.5501 64.8868 19.3964C65.6676 19.4555 66.4451 19.5767 67.233 19.5833C67.8976 19.5718 68.5628 19.3499 69.2283 19.3546C69.6471 19.3509 70.3583 19.5147 70.4122 19.7369C70.4944 20.2517 70.4151 20.7793 70.1853 21.2472C70.0435 21.5627 69.5671 21.7161 69.3479 22.0177C68.7307 22.8844 68.1611 23.7878 67.5743 24.6758C68.6738 24.9696 69.782 25.2433 70.8774 25.5552C71.6256 25.7709 72.3581 26.0315 73.1012 26.2768C72.6877 26.949 72.2309 27.5936 71.7335 28.2063C71.4261 28.5369 70.7746 28.582 70.4874 28.8936C69.967 29.3755 69.5941 29.9952 69.4123 30.6808C69.3768 30.9712 70.3012 31.5382 70.8679 31.7144C71.9672 32.0086 73.081 32.246 74.2048 32.4257L74.7276 33.3933ZM12.0814 45.7037C13.3899 48.0558 14.2026 49.8058 15.2719 51.3778C19.3334 57.3412 20.2425 57.2339 24.4116 51.331C26.4305 48.4661 28.2444 45.9249 25.0942 42.7678C24.558 42.1969 24.262 41.4415 24.2678 40.6582C24.738 34.7997 20.1187 34.9227 16.4732 33.9176C15.8242 33.7901 15.1661 33.715 14.505 33.6932C11.414 33.3833 10.6153 33.9562 10.855 37.081C11.0947 40.2058 11.7259 43.2713 12.091 45.6999L12.0814 45.7037ZM28.4742 11.839C22.612 14.3514 18.1087 17.9187 15.0497 23.1544C13.5415 25.7418 14.0484 26.9369 16.9262 27.7893C19.1303 28.4466 21.3209 29.1259 23.5887 29.5647C24.4303 29.6209 25.2633 29.3673 25.9308 28.8517C28.3692 27.1 30.7422 25.2522 33.0878 23.3765C33.6782 22.9074 34.5046 22.2075 34.5079 21.6089C34.5277 18.8359 34.338 16.0787 34.1043 13.3221C33.9384 11.374 32.7029 10.7187 30.8774 11.1408C29.9541 11.3532 29.0492 11.669 28.4838 11.8352L28.4742 11.839ZM49.8748 46.2825C51.1051 47.8137 52.9736 50.2119 54.9344 52.5352C56.077 53.8849 57.4571 54.3729 58.7929 52.7711C63.5323 47.0817 65.8504 40.6043 64.8729 33.1395C64.6011 31.0338 63.4022 30.3311 61.4517 30.9846C58.8187 31.8724 56.1865 32.7765 53.6211 33.8368C53.2809 34.0239 52.9824 34.2784 52.7439 34.5848C52.5054 34.8913 52.3321 35.2432 52.2343 35.619C51.4213 38.8797 50.7637 42.1846 49.8748 46.2825ZM51.2657 28.3885C53.2506 27.6109 56.3071 26.4632 59.3299 25.2291C61.41 24.3699 61.7278 22.9789 60.3957 21.1172C56.2147 15.3002 50.6212 11.7787 43.5419 10.6477C41.4292 10.3085 40.164 11.1305 40.2022 13.4162C40.2708 16.0052 40.3489 18.5905 40.5686 21.1701C40.634 21.5032 40.766 21.8196 40.9567 22.1003C41.1475 22.381 41.393 22.6203 41.6785 22.8037C44.5748 24.5504 47.5272 26.2142 51.2657 28.3885ZM31.8609 50.8514C30.8152 52.417 29.1899 54.7903 27.6274 57.2109C26.3666 59.1594 26.7204 60.6413 29.0305 61.4562C35.7881 63.8414 42.3866 63.3356 48.8872 60.4625C51.1414 59.4687 51.3866 57.9347 50.0495 56.1026C48.5351 54.0142 46.9168 52.0032 45.2006 50.0772C44.7804 49.6113 43.7612 49.452 43.0589 49.5226C39.6276 49.8548 36.203 50.3172 31.8657 50.8495L31.8609 50.8514ZM35.2833 28.7271C30.5162 30.5339 28.2784 35.1271 29.9957 39.5534C31.713 43.9797 36.2161 45.9319 40.854 44.148C45.4919 42.3642 47.6017 37.882 45.9513 33.4571C45.563 32.4454 44.9789 31.5201 44.2325 30.7345C43.486 29.9488 42.592 29.3182 41.6014 28.8786C40.6109 28.4391 39.5434 28.1993 38.4601 28.1729C37.3767 28.1466 36.2988 28.3343 35.2881 28.7252L35.2833 28.7271Z" fill="#F8E2A5"/>
</svg>
