<svg width="95" height="94" viewBox="0 0 95 94" fill="none" xmlns="http://www.w3.org/2000/svg">
<mask id="path-1-inside-1_1906_10" fill="white">
<path d="M40.6721 0.541558L38.3975 5.33722L34.6323 2.20545C34.1298 2.90249 33.6772 3.63423 33.278 4.39519C32.9316 5.26799 32.6428 6.16259 32.4136 7.07322C31.5801 6.6255 30.7758 6.11105 29.9122 5.74153C29.2161 5.46117 28.3122 4.97472 27.7302 5.1972C27.1482 5.41969 26.7236 6.35476 26.5236 7.05809C26.3128 8.07192 26.1795 9.10029 26.1249 10.1344C25.0823 9.6469 24.0338 9.17279 22.9923 8.67386C22.6645 8.5147 22.3523 8.31069 21.1105 7.59709C21.1412 9.32717 21.2033 10.4034 21.1499 11.453C21.1131 12.1919 21.123 13.0784 20.7225 13.5948C20.5054 13.8735 19.4607 13.5361 18.8036 13.4396C17.8439 13.2626 16.9081 13.0761 15.958 12.8953L16.0383 15.7121L16.0811 18.0237C15.3193 17.9848 14.4931 18.1204 13.8083 17.8688C12.1899 17.2807 10.8447 17.1219 10.0945 19.2021C10.4462 19.6004 10.7511 20.0376 11.0031 20.5053C11.3206 21.3156 11.5459 22.173 11.8028 23.0125C10.8611 23.1215 9.91299 23.1999 8.97863 23.3558C8.22813 23.4729 7.48956 23.6627 6.74929 23.82C7.0152 24.6117 7.25422 25.4196 7.55369 26.1982C7.85316 26.9768 8.2329 27.7627 8.58387 28.5598C7.77609 28.7988 6.93568 29.3217 6.17238 29.2225C4.51778 29.008 3.55807 29.3674 3.57961 31.173C4.32777 32.5888 7.53243 32.7933 6.10577 34.9395C4.28074 35.5605 2.38316 35.6292 1.91231 36.4884C0.808947 38.4858 3.51915 38.3033 4.11498 39.3585C4.44356 39.9432 4.14487 41.1995 3.67873 41.8024C3.3101 42.2731 2.189 42.0653 1.52491 42.4029C0.9865 42.6802 0.30792 43.3055 0.291013 43.7989C0.344133 44.1206 0.471591 44.4255 0.663263 44.6893C0.854932 44.9532 1.10552 45.1686 1.39509 45.3185C2.34671 45.6915 3.33327 45.9683 4.34002 46.1447L4.74023 47.011C3.71828 47.6492 2.65377 48.2211 1.69815 48.9439C1.12322 49.4667 0.598873 50.0424 0.13206 50.6636C0.721419 51.1517 1.28078 51.6902 1.90973 52.124C2.79935 52.7433 3.74691 53.2846 5.15097 54.1725C3.77275 54.8894 3.16153 55.0514 2.78682 55.436C2.22627 56.0874 1.71325 56.7782 1.25173 57.5031C1.96969 57.9241 2.69517 58.3644 3.44106 58.7579C4.18696 59.1515 4.96952 59.4975 5.73375 59.8672C5.24556 60.6116 4.72504 61.3298 4.27397 62.0983C3.90228 62.7306 3.61338 63.419 3.29215 64.0813C3.95941 64.3729 4.64921 64.7221 5.33876 64.9718C6.24203 65.2871 7.16881 65.5213 8.08582 65.7869C7.68625 66.5739 7.23811 67.3358 6.90339 68.1472C6.61176 68.8145 6.08072 69.8023 6.33858 70.2488C6.59643 70.6953 7.71065 70.9279 8.41992 70.9598C9.12919 70.9916 9.8748 70.6221 11.2725 70.2514C11.1021 71.4962 11.0067 72.3963 10.8571 73.2568C10.6607 74.2518 10.3821 75.2348 10.138 76.2209C11.1874 76.1471 12.2315 76.0311 13.2739 76.0099C14.3163 75.9886 15.2126 76.0744 15.8214 76.1179C15.3312 78.2124 14.2718 80.082 14.8069 80.9397C16.0879 82.9819 17.2651 80.4246 18.5822 80.2294C19.1728 80.1418 20.1055 80.0805 20.3079 80.3994C20.4758 80.7005 20.5825 81.0318 20.6218 81.3743C20.661 81.7168 20.632 82.0636 20.5365 82.3948C20.1276 83.8215 19.4245 85.2031 21.4701 85.6958C22.7643 84.962 24.1581 83.5366 25.1108 83.7661C27.3395 84.3309 25.6471 86.3213 25.8517 87.6624C25.9209 87.9154 26.0512 88.1475 26.231 88.3384C26.4109 88.5292 26.6349 88.673 26.8833 88.757C27.405 88.8181 28.0157 88.4572 28.5312 88.1778C29.445 87.687 30.325 87.11 31.22 86.5713C31.5093 87.564 31.7346 88.5487 32.0951 89.497C32.3392 90.1203 32.6408 91.0031 33.1291 91.1768C33.6175 91.3505 34.4033 90.8436 34.9366 90.4687C35.8035 89.8581 36.5412 89.1155 37.3322 88.4241C37.7733 89.4513 38.2432 90.4674 38.6459 91.5097C38.7718 91.8309 38.7202 92.2217 38.8315 93.6492C40.3648 92.4954 41.3632 91.8111 42.2838 91.0412C42.914 90.4677 43.5151 89.8631 44.0848 89.2295C44.6009 89.9398 45.1044 90.6606 45.6503 91.3482C46.1373 91.9704 46.6725 92.546 47.1894 93.1455C47.816 92.5469 48.3922 91.8975 48.9119 91.2041C49.2562 90.671 49.3226 89.9371 49.7938 88.486C50.8677 89.5474 51.881 90.1294 52.2249 90.979C52.8522 92.5805 53.6826 93.0626 55.2563 92.2801C55.2708 91.8822 55.3313 91.4873 55.4368 91.1033C55.8396 90.1269 56.3044 89.1817 56.7473 88.2228C57.4378 88.8713 58.1666 89.4778 58.9298 90.039C59.5627 90.4547 60.5144 91.0773 61.0082 90.8838C61.6605 90.6006 62.0938 89.6456 62.4452 88.9051C62.8171 88.0365 63.137 87.1466 63.4032 86.2401C64.1422 86.6794 64.9031 87.0808 65.6828 87.443C66.5857 87.8138 67.541 88.0644 68.453 88.3597L68.7856 83.5617C69.9754 84.0579 71.1438 84.6122 72.3581 85.0158C72.796 85.1595 73.6272 85.1214 73.7945 84.8568C74.1117 84.2453 74.2896 83.5713 74.3154 82.8829C74.4269 81.8548 74.4238 80.8163 74.4666 79.7819C75.3662 80.1223 76.2929 80.3864 77.2368 80.5714C78.0811 80.7287 78.9531 80.6279 79.7393 80.2823C80.0591 80.0962 79.8257 78.8935 79.7746 78.1558C79.7152 77.2279 79.5985 76.2947 79.476 75.3749C80.409 75.4131 81.3407 75.4905 82.2845 75.4857C83.0361 75.4844 83.7912 75.3932 84.5432 75.3364C84.513 74.623 84.4431 73.9118 84.3337 73.2062C84.1275 72.2141 83.818 71.2403 83.5553 70.2593C84.6005 70.2591 85.6466 70.2474 86.6934 70.2797C87.3605 70.3711 88.022 70.4997 88.6748 70.6648C88.2377 69.2101 87.9844 68.253 87.6574 67.3193C87.3658 66.5044 86.9813 65.7204 86.6511 64.9483C87.4693 64.7217 88.2988 64.524 89.1087 64.262C89.9186 64 90.6717 63.6496 91.4531 63.3435C91.1137 62.6745 90.8107 61.9858 90.43 61.3386C89.9548 60.5348 89.4276 59.768 88.9207 58.9821C89.7937 58.5848 90.6733 58.1904 91.5444 57.7883C92.5258 57.343 93.5005 56.8947 94.6469 56.3626L90.811 52.8383C91.8971 52.2948 92.9546 51.6959 93.9792 51.044C94.229 50.8794 94.4407 50.6632 94.6 50.41C94.7593 50.1568 94.8626 49.8724 94.9029 49.576C94.8729 49.09 94.277 48.5713 93.8093 48.196C92.9918 47.5208 92.1278 46.9246 91.2736 46.297C92.2297 45.6459 93.1857 44.9948 94.1437 44.3485C94.3822 44.2008 94.6283 44.0656 94.8809 43.9436C95.3195 42.2398 94.6123 41.5213 92.9562 41.2466C92.1883 41.1216 91.5222 40.4092 90.7967 39.969C91.3058 39.3768 91.8386 38.8031 92.3106 38.1868C92.882 37.443 93.3973 36.6549 93.943 35.8881C93.1748 35.5364 92.3941 35.1952 91.6328 34.8188C90.8715 34.4424 90.1277 34.0259 89.3732 33.6246C89.7977 32.9717 90.2507 32.3351 90.6447 31.6609C91.0997 30.8743 91.5024 30.0529 91.9126 29.2506C91.0823 29.0229 90.2583 28.8535 89.4483 28.6068C88.6382 28.36 87.8496 28.0551 87.0493 27.7768C87.3614 27.0628 87.6801 26.3517 87.9873 25.6396C88.2945 24.9275 88.6449 24.0713 88.9746 23.2895C88.0629 23.0936 87.1607 22.8941 86.2393 22.702C85.318 22.5099 84.5567 22.3878 83.7125 22.2374C83.976 21.4982 84.097 20.6212 84.5706 20.0375C85.6859 18.6493 85.7049 17.5966 84.039 16.6897C83.7656 16.8275 83.4799 16.9395 83.1856 17.024C82.1459 17.1935 81.0663 17.3455 80.0066 17.5063C80.2481 16.482 80.4134 15.4412 80.5012 14.3925C80.4598 13.6172 80.3332 12.8489 80.1236 12.1014C78.0706 12.5076 76.6782 12.7931 75.2984 13.0683C75.3295 11.6513 75.3674 10.2373 75.4221 8.20279C74.581 8.21464 73.7426 8.29889 72.916 8.4546C71.7405 8.81165 70.5839 9.22792 69.4504 9.70177L69.2522 5.99103C69.244 5.80068 69.2683 5.60864 69.3144 4.51215C68.0535 5.00616 67.1189 5.31698 66.2316 5.71995C65.4468 6.08825 64.7252 6.57558 63.9734 7.01393C63.6259 6.12692 63.3629 5.20132 62.9616 4.34645C62.5604 3.49157 62.0088 2.6624 61.3231 1.47655L58.3366 5.81004C57.6378 4.84498 57.0815 4.14489 56.6059 3.39659C56.0679 2.54551 55.6039 1.64332 55.1082 0.759086C54.4511 1.45343 53.8282 2.17862 53.1486 2.81543C52.6067 3.30978 51.9928 3.98722 51.3755 4.06315C50.9794 4.09666 50.4659 3.15299 50.0692 2.60605C49.5277 1.84484 49.0572 1.03923 48.5551 0.251527C47.7465 1.01077 46.9266 1.74124 46.1847 2.52965C45.6587 3.07862 45.2238 3.71906 44.7492 4.31429C44.1694 3.82248 43.5742 3.34778 43.0146 2.83699C42.2696 2.05042 41.4834 1.28556 40.6721 0.541558ZM26.7328 77.4177C20.3754 73.0894 15.6394 67.4511 12.8924 60.1984C8.99516 49.7131 9.65714 39.4878 14.9157 29.6462C16.1601 27.3171 18.0665 25.3369 19.7224 23.2392C20.8716 21.7824 22.2194 21.835 23.3495 23.1952C25.4912 25.7684 27.7767 28.2852 29.4699 31.1393C30.1397 32.2705 29.9065 34.5409 29.1966 35.7924C24.2423 44.547 25.3723 55.0269 32.6895 61.9325C35.2606 64.3596 35.6774 66.5246 34.1493 69.4848C33.0139 71.6828 32.0291 73.9545 31.0413 76.233C30.0536 78.5114 28.6626 78.73 26.7328 77.4177ZM72.6079 46.9291C75.3782 46.2364 78.2658 45.9844 81.1112 45.6107C84.2352 45.1998 84.839 45.8094 84.6259 49.0065C83.6283 63.6549 73.8983 76.0724 59.7842 80.9827C53.9813 83.0669 47.7525 83.6812 41.6544 82.7709C38.529 82.303 38.03 81.4809 39.1405 78.4852C40.1152 75.8912 41.1187 73.2858 42.23 70.7157C42.6693 69.7195 43.4804 68.8819 44.0532 68.0713C45.2565 68.0091 46.11 67.9291 46.9658 67.9256C56.53 67.8895 64.0358 62.8528 67.5674 54.0804C68.2021 52.51 68.5759 50.7818 69.4808 49.3931C70.2111 48.2386 71.3147 47.369 72.6079 46.9291ZM53.1331 60.4601C45.0066 63.6439 36.4874 60.0795 33.4262 52.2365C30.3649 44.3936 34.2779 36.0581 42.4303 32.8696C46.0804 31.4276 50.1523 31.4849 53.7604 33.0291C57.3685 34.5733 60.2212 37.4795 61.6981 41.1158C64.8199 48.6475 60.92 57.4259 53.1331 60.4601ZM76.186 23.0846C78.7553 26.2133 80.9965 29.5976 82.8742 33.1844C84.2654 35.7475 83.2704 37.1604 80.434 37.6136C77.5975 38.0667 74.7339 38.3093 71.9262 38.8783C69.5399 39.3653 67.9349 38.5009 66.9818 36.463C62.6322 27.1947 49.4097 23.6092 41.2791 26.5569C38.6974 27.4909 36.4797 27.2648 34.7641 24.7347C33.3703 22.687 31.6959 20.8267 30.1665 18.8708C28.4098 16.6168 28.6679 15.5534 31.2816 14.2916C32.4925 13.7121 33.7317 13.1768 34.4502 12.8511C50.0771 6.98862 65.7895 10.8595 76.186 23.0846Z"/>
<path d="M42.5452 34.0524C34.8548 37.2202 31.6085 44.8576 34.7359 52.4037C37.1885 58.3116 44.9663 62.9905 53.3081 59.2411C60.0404 56.2109 63.5313 48.1956 60.679 41.493C59.9924 39.8014 58.9751 38.2639 57.6867 36.9706C56.3983 35.6773 54.8647 34.6542 53.1759 33.9612C51.487 33.2682 49.6768 32.9193 47.8513 32.935C46.0259 32.9507 44.2219 33.3305 42.5452 34.0524ZM50.4541 53.4518C46.1391 55.1423 41.9342 53.4714 40.4212 49.496C38.9082 45.5206 40.9333 41.514 45.2854 39.8476C46.1832 39.481 47.1454 39.2977 48.1151 39.3086C49.0849 39.3194 50.0426 39.5241 50.9321 39.9107C51.8215 40.2974 52.6246 40.858 53.2941 41.5597C53.9635 42.2614 54.4859 43.0899 54.8303 43.9965C55.1748 44.9032 55.3344 45.8696 55.2997 46.8388C55.2651 47.808 55.0369 48.7606 54.6286 49.6403C54.2202 50.52 53.6401 51.3091 52.9222 51.9612C52.2043 52.6133 51.3632 53.1153 50.4485 53.4374L50.4541 53.4518Z"/>
</mask>
<path d="M40.6721 0.541558L42.0238 -0.932531L40.0265 -2.76421L38.8651 -0.315519L40.6721 0.541558ZM38.3975 5.33722L37.1185 6.87491L39.0999 8.523L40.2045 6.19429L38.3975 5.33722ZM34.6323 2.20545L35.9113 0.667764L34.2635 -0.702792L33.0101 1.03581L34.6323 2.20545ZM33.278 4.39519L31.507 3.46608L31.458 3.55941L31.4191 3.65738L33.278 4.39519ZM32.4136 7.07322L31.4672 8.83516L33.7269 10.049L34.3531 7.56136L32.4136 7.07322ZM29.9122 5.74153L30.6989 3.90271L30.6792 3.8943L30.6594 3.88632L29.9122 5.74153ZM26.5236 7.05809L24.5999 6.51088L24.5802 6.58034L24.5655 6.65105L26.5236 7.05809ZM26.1249 10.1344L25.2778 11.9462L27.9655 13.2028L28.122 10.2398L26.1249 10.1344ZM22.9923 8.67386L22.1187 10.4731L22.1282 10.4776L22.9923 8.67386ZM21.1105 7.59709L22.107 5.86297L19.0483 4.10527L19.1108 7.63263L21.1105 7.59709ZM21.1499 11.453L19.1525 11.3514L19.1524 11.3535L21.1499 11.453ZM20.7225 13.5948L22.3 14.8242L22.3028 14.8205L20.7225 13.5948ZM18.8036 13.4396L18.4407 15.4065L18.4767 15.4131L18.513 15.4184L18.8036 13.4396ZM15.958 12.8953L16.3319 10.9306L13.8879 10.4655L13.9588 12.9524L15.958 12.8953ZM16.0383 15.7121L18.0379 15.675L18.0377 15.665L18.0374 15.655L16.0383 15.7121ZM16.0811 18.0237L15.979 20.0211L18.1204 20.1304L18.0807 17.9866L16.0811 18.0237ZM13.8083 17.8688L14.4981 15.9915L14.4915 15.989L13.8083 17.8688ZM10.0945 19.2021L8.21313 18.5237L7.81125 19.6382L8.59542 20.5261L10.0945 19.2021ZM11.0031 20.5053L12.8653 19.7757L12.8211 19.6629L12.7636 19.5562L11.0031 20.5053ZM11.8028 23.0125L12.0327 24.9993L14.418 24.7232L13.7152 22.4271L11.8028 23.0125ZM8.97863 23.3558L9.28676 25.332L9.29724 25.3303L9.30771 25.3286L8.97863 23.3558ZM6.74929 23.82L6.3337 21.8636L4.13909 22.3299L4.8534 24.4568L6.74929 23.82ZM8.58387 28.5598L9.15131 30.4776L11.3297 29.833L10.4143 27.7538L8.58387 28.5598ZM6.17238 29.2225L6.43006 27.2391L6.42957 27.2391L6.17238 29.2225ZM3.57961 31.173L1.57978 31.1969L1.58555 31.6802L1.81136 32.1075L3.57961 31.173ZM6.10577 34.9395L6.74994 36.8329L7.39441 36.6136L7.77129 36.0466L6.10577 34.9395ZM1.91231 36.4884L3.66292 37.4554L3.66616 37.4495L1.91231 36.4884ZM4.11498 39.3585L5.85849 38.3786L5.85647 38.375L4.11498 39.3585ZM3.67873 41.8024L5.25332 43.0356L5.26094 43.0257L3.67873 41.8024ZM1.52491 42.4029L0.618636 40.62L0.609233 40.6248L1.52491 42.4029ZM0.291013 43.7989L-1.70778 43.7304L-1.71458 43.9288L-1.68224 44.1247L0.291013 43.7989ZM1.39509 45.3185L0.475442 47.0946L0.568101 47.1426L0.665249 47.1807L1.39509 45.3185ZM4.34002 46.1447L6.15563 45.3059L5.71656 44.3554L4.68526 44.1747L4.34002 46.1447ZM4.74023 47.011L5.79951 48.7075L7.29541 47.7733L6.55584 46.1722L4.74023 47.011ZM1.69815 48.9439L0.491725 47.3488L0.419664 47.4033L0.352811 47.4641L1.69815 48.9439ZM0.13206 50.6636L-1.46673 49.4621L-2.6129 50.9873L-1.14355 52.2041L0.13206 50.6636ZM1.90973 52.124L3.05239 50.4825L3.04532 50.4776L1.90973 52.124ZM5.15097 54.1725L6.07385 55.9468L9.16021 54.3413L6.21987 52.482L5.15097 54.1725ZM2.78682 55.436L1.35435 54.0404L1.31127 54.0846L1.27099 54.1314L2.78682 55.436ZM1.25173 57.5031L-0.435294 56.4289L-1.54945 58.1788L0.239919 59.2283L1.25173 57.5031ZM5.73375 59.8672L7.40606 60.9641L8.65558 59.0591L6.60486 58.0669L5.73375 59.8672ZM4.27397 62.0983L5.99808 63.1118L5.99874 63.1107L4.27397 62.0983ZM3.29215 64.0813L1.49269 63.2085L0.584656 65.0807L2.49118 65.9139L3.29215 64.0813ZM5.33876 64.9718L4.65774 66.8523L4.66864 66.8563L4.6796 66.8601L5.33876 64.9718ZM8.08582 65.7869L9.8691 66.6923L10.9628 64.5381L8.64241 63.8659L8.08582 65.7869ZM6.90339 68.1472L8.73598 68.948L8.74429 68.929L8.7522 68.9099L6.90339 68.1472ZM11.2725 70.2514L13.254 70.5227L13.6613 67.5489L10.76 68.3182L11.2725 70.2514ZM10.8571 73.2568L12.8192 73.6441L12.8236 73.6217L12.8275 73.5993L10.8571 73.2568ZM10.138 76.2209L8.19662 75.7402L7.5358 78.4088L10.2782 78.216L10.138 76.2209ZM15.8214 76.1179L17.7687 76.5736L18.3031 74.2902L15.9641 74.123L15.8214 76.1179ZM14.8069 80.9397L13.11 81.9984L13.1127 82.0027L14.8069 80.9397ZM18.5822 80.2294L18.8754 82.2078L18.8756 82.2078L18.5822 80.2294ZM20.3079 80.3994L22.0544 79.4249L22.0269 79.3755L21.9966 79.3278L20.3079 80.3994ZM20.5365 82.3948L18.6149 81.8408L18.614 81.8438L20.5365 82.3948ZM21.4701 85.6958L21.0018 87.6402L21.7695 87.8251L22.4565 87.4356L21.4701 85.6958ZM25.1108 83.7661L25.6021 81.8274L25.5908 81.8245L25.5794 81.8218L25.1108 83.7661ZM25.8517 87.6624L23.8746 87.9641L23.8921 88.0785L23.9226 88.19L25.8517 87.6624ZM26.8833 88.757L26.2425 90.6516L26.4417 90.719L26.6506 90.7435L26.8833 88.757ZM28.5312 88.1778L27.585 86.4158L27.5782 86.4194L28.5312 88.1778ZM31.22 86.5713L33.14 86.0116L32.4135 83.5187L30.1887 84.8577L31.22 86.5713ZM32.0951 89.497L30.2256 90.2076L30.2292 90.2171L30.2329 90.2265L32.0951 89.497ZM34.9366 90.4687L36.0866 92.105L36.0883 92.1038L34.9366 90.4687ZM37.3322 88.4241L39.1698 87.6348L38.0853 85.1091L36.0159 86.9183L37.3322 88.4241ZM38.6459 91.5097L36.7804 92.2307L36.7838 92.2392L38.6459 91.5097ZM38.8315 93.6492L36.8376 93.8046L37.1208 97.4393L40.0339 95.2473L38.8315 93.6492ZM42.2838 91.0412L43.5668 92.5754L43.5988 92.5486L43.6297 92.5205L42.2838 91.0412ZM44.0848 89.2295L45.7029 88.0539L44.2502 86.0544L42.5977 87.8922L44.0848 89.2295ZM45.6503 91.3482L47.2251 90.1153L47.2167 90.1046L45.6503 91.3482ZM47.1894 93.1455L45.6747 94.4516L47.0489 96.0453L48.5707 94.5917L47.1894 93.1455ZM48.9119 91.2041L50.5122 92.4036L50.5541 92.3477L50.592 92.289L48.9119 91.2041ZM49.7938 88.486L51.1998 87.0635L48.8934 84.7838L47.8917 87.8683L49.7938 88.486ZM52.2249 90.979L54.087 90.2495L54.083 90.239L54.0787 90.2286L52.2249 90.979ZM55.2563 92.2801L56.1466 94.071L57.2117 93.5414L57.255 92.3527L55.2563 92.2801ZM55.4368 91.1033L53.588 90.3405L53.541 90.4546L53.5083 90.5736L55.4368 91.1033ZM56.7473 88.2228L58.1164 86.7649L56.0947 84.8662L54.9316 87.3842L56.7473 88.2228ZM58.9298 90.039L57.7449 91.6503L57.7875 91.6817L57.8318 91.7107L58.9298 90.039ZM61.0082 90.8838L61.7377 92.746L61.7714 92.7328L61.8047 92.7184L61.0082 90.8838ZM62.4452 88.9051L64.252 89.7625L64.2685 89.7277L64.2837 89.6924L62.4452 88.9051ZM63.4032 86.2401L64.4251 84.5208L62.2101 83.2043L61.4842 85.6767L63.4032 86.2401ZM65.6828 87.443L64.8402 89.2569L64.8812 89.276L64.923 89.2932L65.6828 87.443ZM68.453 88.3597L67.837 90.2625L70.2713 91.0507L70.4482 88.4979L68.453 88.3597ZM68.7856 83.5617L69.5554 81.7157L66.9832 80.6431L66.7904 83.4235L68.7856 83.5617ZM72.3581 85.0158L71.7273 86.9138L71.7345 86.9161L72.3581 85.0158ZM73.7945 84.8568L75.4849 85.9255L75.5305 85.8534L75.5698 85.7777L73.7945 84.8568ZM74.3154 82.8829L72.3271 82.6672L72.3195 82.7375L72.3168 82.8081L74.3154 82.8829ZM74.4666 79.7819L75.1743 77.9113L72.5828 76.9308L72.4683 79.6994L74.4666 79.7819ZM77.2368 80.5714L76.852 82.5341L76.8612 82.5359L76.8705 82.5377L77.2368 80.5714ZM79.7393 80.2823L80.5442 82.1132L80.6476 82.0677L80.7453 82.0109L79.7393 80.2823ZM79.7746 78.1558L77.7787 78.2836L77.7794 78.2943L79.7746 78.1558ZM79.476 75.3749L79.5579 73.3765L77.1792 73.2791L77.4936 75.639L79.476 75.3749ZM82.2845 75.4857L82.281 73.4857L82.2745 73.4857L82.2845 75.4857ZM84.5432 75.3364L84.6937 77.3307L86.6231 77.185L86.5414 75.2518L84.5432 75.3364ZM84.3337 73.2062L86.31 72.8997L86.3022 72.8493L86.2918 72.7993L84.3337 73.2062ZM83.5553 70.2593L83.555 68.2592L80.9496 68.2598L81.6234 70.7766L83.5553 70.2593ZM86.6934 70.2797L86.9651 68.2982L86.8606 68.2839L86.7552 68.2806L86.6934 70.2797ZM88.6748 70.6648L88.1843 72.6038L91.6058 73.4693L90.5901 70.0892L88.6748 70.6648ZM87.6574 67.3193L89.5449 66.658L89.5404 66.6455L87.6574 67.3193ZM86.6511 64.9483L86.1175 63.0208L83.9129 63.6312L84.8122 65.7346L86.6511 64.9483ZM91.4531 63.3435L92.1826 65.2057L94.2333 64.4023L93.2366 62.4383L91.4531 63.3435ZM90.43 61.3386L92.1538 60.3244L92.1515 60.3206L90.43 61.3386ZM88.9207 58.9821L88.0923 57.1618L85.9851 58.1209L87.2401 60.0664L88.9207 58.9821ZM91.5444 57.7883L90.7181 55.967L90.7063 55.9724L91.5444 57.7883ZM94.6469 56.3626L95.4889 58.1768L98.2054 56.9159L96 54.8898L94.6469 56.3626ZM90.811 52.8383L89.9161 51.0497L87.3212 52.3481L89.4579 54.3111L90.811 52.8383ZM93.9792 51.044L95.0528 52.7314L95.0662 52.7228L95.0795 52.7141L93.9792 51.044ZM94.9029 49.576L96.8846 49.8452L96.9112 49.6497L96.899 49.4527L94.9029 49.576ZM93.8093 48.196L92.5357 49.7381L92.5466 49.7472L92.5577 49.756L93.8093 48.196ZM91.2736 46.297L90.1479 44.6439L87.8115 46.235L90.0894 47.9087L91.2736 46.297ZM94.1437 44.3485L93.0906 42.6483L93.0575 42.6688L93.0252 42.6905L94.1437 44.3485ZM94.8809 43.9436L95.7508 45.7445L96.5864 45.3408L96.8177 44.4421L94.8809 43.9436ZM92.9562 41.2466L93.2836 39.2735L93.2776 39.2725L92.9562 41.2466ZM90.7967 39.969L89.2802 38.6651L87.7416 40.4545L89.7591 41.6788L90.7967 39.969ZM92.3106 38.1868L90.7247 36.9683L90.7228 36.9707L92.3106 38.1868ZM93.943 35.8881L95.5724 37.0477L96.9753 35.0765L94.7754 34.0695L93.943 35.8881ZM89.3732 33.6246L87.6964 32.5346L86.5065 34.3653L88.4341 35.3905L89.3732 33.6246ZM90.6447 31.6609L92.3714 32.67L92.3758 32.6624L90.6447 31.6609ZM91.9126 29.2506L93.6932 30.1611L94.8125 27.9722L92.4417 27.3218L91.9126 29.2506ZM87.0493 27.7768L85.2167 26.976L84.3513 28.9563L86.3925 29.666L87.0493 27.7768ZM88.9746 23.2895L90.8174 24.0667L91.756 21.8412L89.3947 21.334L88.9746 23.2895ZM83.7125 22.2374L81.8286 21.5661L81.0353 23.792L83.3617 24.2065L83.7125 22.2374ZM84.5706 20.0375L86.1237 21.2976L86.1297 21.2901L84.5706 20.0375ZM84.039 16.6897L84.9953 14.9331L84.0746 14.4319L83.1386 14.9038L84.039 16.6897ZM83.1856 17.024L83.5073 18.998L83.6241 18.979L83.7378 18.9463L83.1856 17.024ZM80.0066 17.5063L78.06 17.0474L77.381 19.9275L80.3065 19.4837L80.0066 17.5063ZM80.5012 14.3925L82.4942 14.5592L82.5056 14.4226L82.4983 14.2858L80.5012 14.3925ZM80.1236 12.1014L82.0493 11.5614L81.5499 9.78049L79.7355 10.1394L80.1236 12.1014ZM75.2984 13.0683L73.2989 13.0244L73.2441 15.5173L75.6894 15.0297L75.2984 13.0683ZM75.4221 8.20279L77.4213 8.25645L77.4773 6.17357L75.3939 6.20295L75.4221 8.20279ZM72.916 8.4546L72.5458 6.48913L72.4389 6.50927L72.3348 6.5409L72.916 8.4546ZM69.4504 9.70177L67.4533 9.80853L67.6046 12.6411L70.2217 11.547L69.4504 9.70177ZM69.2522 5.99103L67.2541 6.07722L67.2545 6.08751L67.2551 6.09779L69.2522 5.99103ZM69.3144 4.51215L71.3126 4.59604L71.4414 1.53081L68.5849 2.64993L69.3144 4.51215ZM66.2316 5.71995L65.4047 3.89888L65.3933 3.90405L65.382 3.90937L66.2316 5.71995ZM63.9734 7.01393L62.1112 7.7435L62.963 9.91809L64.9806 8.74174L63.9734 7.01393ZM61.3231 1.47655L63.0544 0.475268L61.4712 -2.26267L59.6764 0.341609L61.3231 1.47655ZM58.3366 5.81004L56.7167 6.98309L58.3769 9.2759L59.9833 6.94498L58.3366 5.81004ZM56.6059 3.39659L54.9154 4.46535L54.918 4.46951L56.6059 3.39659ZM55.1082 0.759086L56.8527 -0.218996L55.5237 -2.5897L53.6556 -0.615638L55.1082 0.759086ZM53.1486 2.81543L54.4964 4.29296L54.5063 4.284L54.516 4.27489L53.1486 2.81543ZM51.3755 4.06315L51.544 6.05606L51.5819 6.05286L51.6196 6.04822L51.3755 4.06315ZM50.0692 2.60605L48.4395 3.76548L48.4449 3.77301L48.4503 3.7805L50.0692 2.60605ZM48.5551 0.251527L50.2416 -0.823621L48.9449 -2.85781L47.1862 -1.20653L48.5551 0.251527ZM46.1847 2.52965L47.6287 3.91335L47.635 3.90684L47.6412 3.90027L46.1847 2.52965ZM44.7492 4.31429L43.4554 5.83952L45.0274 7.17304L46.3127 5.56131L44.7492 4.31429ZM43.0146 2.83699L41.5626 4.21239L41.6126 4.26515L41.6663 4.31416L43.0146 2.83699ZM26.7328 77.4177L25.6073 79.071L25.6082 79.0716L26.7328 77.4177ZM12.8924 60.1984L11.0177 60.8953L11.0221 60.9069L12.8924 60.1984ZM14.9157 29.6462L16.6796 30.5888L16.6797 30.5887L14.9157 29.6462ZM19.7224 23.2392L21.2922 24.4783L21.2925 24.4779L19.7224 23.2392ZM23.3495 23.1952L21.8112 24.4734L21.8123 24.4747L23.3495 23.1952ZM29.4699 31.1393L31.1907 30.1201L31.1899 30.1188L29.4699 31.1393ZM29.1966 35.7924L27.4571 34.8057L27.4561 34.8073L29.1966 35.7924ZM32.6895 61.9325L34.0624 60.4781L34.0622 60.4779L32.6895 61.9325ZM34.1493 69.4848L35.9262 70.4027L35.9264 70.4022L34.1493 69.4848ZM72.6079 46.9291L72.1229 44.9888L72.0424 45.0089L71.964 45.0356L72.6079 46.9291ZM81.1112 45.6107L81.3716 47.5937L81.372 47.5937L81.1112 45.6107ZM84.6259 49.0065L86.6212 49.1424L86.6214 49.1395L84.6259 49.0065ZM59.7842 80.9827L59.1271 79.0937L59.1177 79.097L59.1082 79.1004L59.7842 80.9827ZM41.6544 82.7709L41.3582 84.7489L41.359 84.749L41.6544 82.7709ZM39.1405 78.4852L37.2683 77.7818L37.2652 77.7901L39.1405 78.4852ZM42.23 70.7157L40.4001 69.9087L40.3971 69.9153L40.3943 69.922L42.23 70.7157ZM44.0532 68.0713L43.95 66.0739L42.9803 66.124L42.4199 66.9171L44.0532 68.0713ZM46.9658 67.9256L46.9584 65.9256L46.9578 65.9256L46.9658 67.9256ZM67.5674 54.0804L65.7132 53.3311L65.7122 53.3335L67.5674 54.0804ZM69.4808 49.3931L71.1564 50.485L71.1637 50.4737L71.171 50.4623L69.4808 49.3931ZM53.1331 60.4601L52.407 58.5965L52.4036 58.5978L53.1331 60.4601ZM42.4303 32.8696L43.1586 34.7323L43.165 34.7298L42.4303 32.8696ZM61.6981 41.1158L59.8451 41.8685L59.8478 41.8751L59.8505 41.8817L61.6981 41.1158ZM76.186 23.0846L77.7316 21.8152L77.7207 21.802L77.7095 21.7889L76.186 23.0846ZM82.8742 33.1844L81.1024 34.1121L81.1093 34.1253L81.1165 34.1385L82.8742 33.1844ZM71.9262 38.8783L71.529 36.9182L71.5264 36.9187L71.9262 38.8783ZM66.9818 36.463L68.7934 35.6156L68.7923 35.6133L66.9818 36.463ZM41.2791 26.5569L41.9594 28.4376L41.9607 28.4371L41.2791 26.5569ZM34.7641 24.7347L36.4194 23.6122L36.4174 23.6092L34.7641 24.7347ZM30.1665 18.8708L28.5891 20.1003L28.591 20.1028L30.1665 18.8708ZM31.2816 14.2916L30.4183 12.4874L30.4122 12.4904L31.2816 14.2916ZM34.4502 12.8511L33.7478 10.9785L33.6853 11.0019L33.6245 11.0295L34.4502 12.8511ZM42.5452 34.0524L43.3068 35.9017L43.3214 35.8957L43.3359 35.8894L42.5452 34.0524ZM34.7359 52.4037L32.8884 53.1695L32.8888 53.1706L34.7359 52.4037ZM53.3081 59.2411L54.1279 61.0654L54.1289 61.0649L53.3081 59.2411ZM60.679 41.493L58.8258 42.2452L58.8321 42.2608L58.8387 42.2762L60.679 41.493ZM50.4541 53.4518L51.1836 55.314L53.0457 54.5844L52.3163 52.7222L50.4541 53.4518ZM45.2854 39.8476L46.0004 41.7154L46.021 41.7076L46.0414 41.6993L45.2854 39.8476ZM50.4485 53.4374L49.7843 51.5509L47.8309 52.2387L48.5863 54.167L50.4485 53.4374ZM38.8651 -0.315519L36.5905 4.48014L40.2045 6.19429L42.4791 1.39863L38.8651 -0.315519ZM39.6764 3.79953L35.9113 0.667764L33.3534 3.74314L37.1185 6.87491L39.6764 3.79953ZM33.0101 1.03581C32.4523 1.80942 31.95 2.62154 31.507 3.46608L35.049 5.3243C35.4044 4.64692 35.8073 3.99556 36.2546 3.37509L33.0101 1.03581ZM31.4191 3.65738C31.0404 4.61155 30.7247 5.58955 30.4742 6.58508L34.3531 7.56136C34.5609 6.73562 34.8228 5.92443 35.1369 5.133L31.4191 3.65738ZM33.3601 5.31128C32.7148 4.96465 31.6639 4.31559 30.6989 3.90271L29.1254 7.58034C29.8878 7.90652 30.4455 8.28636 31.4672 8.83516L33.3601 5.31128ZM30.6594 3.88632C30.4969 3.82084 29.8589 3.53302 29.4121 3.38379C28.9857 3.24136 28.014 2.94755 27.0161 3.32902L28.4442 7.06539C28.2032 7.15751 28.0288 7.14006 28.0091 7.13799C27.9877 7.13573 28.0252 7.13787 28.1447 7.17781C28.2596 7.2162 28.3968 7.2709 28.5765 7.34736C28.7268 7.4113 28.9684 7.51761 29.1649 7.59673L30.6594 3.88632ZM27.0161 3.32902C26.0696 3.69087 25.5242 4.48009 25.2562 4.9395C24.9458 5.47162 24.732 6.04659 24.5999 6.51088L28.4472 7.60529C28.4788 7.49404 28.5199 7.37216 28.5681 7.25315C28.6169 7.13276 28.6665 7.03168 28.7111 6.95515C28.7583 6.8742 28.7813 6.85307 28.7668 6.86817C28.7558 6.87966 28.6536 6.98535 28.4442 7.06539L27.0161 3.32902ZM24.5655 6.65105C24.334 7.76425 24.1877 8.89345 24.1277 10.0289L28.122 10.2398C28.1713 9.30714 28.2915 8.37957 28.4817 7.46512L24.5655 6.65105ZM26.9719 8.32255C25.8948 7.81892 24.8906 7.36555 23.8563 6.87008L22.1282 10.4776C23.177 10.98 24.2697 11.4749 25.2778 11.9462L26.9719 8.32255ZM23.8658 6.87467C23.6199 6.75526 23.4624 6.64184 22.107 5.86297L20.114 9.33122C21.2422 9.97954 21.709 10.2741 22.1187 10.473L23.8658 6.87467ZM19.1108 7.63263C19.1434 9.46966 19.2013 10.3929 19.1525 11.3514L23.1473 11.5545C23.2053 10.4139 23.1389 9.18468 23.1101 7.56155L19.1108 7.63263ZM19.1524 11.3535C19.1473 11.4556 19.1431 11.5599 19.1392 11.652C19.1352 11.7477 19.1314 11.8346 19.1268 11.9193C19.1176 12.0907 19.1065 12.2244 19.0914 12.3343C19.076 12.4456 19.0609 12.4983 19.0565 12.5117C19.0523 12.5241 19.071 12.4609 19.1422 12.3691L22.3028 14.8205C22.8274 14.1442 22.9862 13.3709 23.0538 12.8804C23.1218 12.3871 23.1337 11.8266 23.1474 11.5525L19.1524 11.3535ZM19.145 12.3655C19.4255 12.0055 19.7626 11.8461 19.9596 11.779C20.1513 11.7137 20.2951 11.7054 20.3364 11.7035C20.4117 11.7003 20.4066 11.7099 20.256 11.6849C20.1227 11.6628 19.9714 11.6307 19.7627 11.5867C19.5802 11.5483 19.3304 11.4955 19.0941 11.4608L18.513 15.4184C18.6054 15.432 18.7325 15.4576 18.9375 15.5008C19.1164 15.5385 19.363 15.5914 19.6001 15.6309C19.8199 15.6674 20.1578 15.7152 20.5105 15.6998C20.7334 15.6901 21.6623 15.6425 22.3 14.8242L19.145 12.3655ZM19.1665 11.4728C18.2103 11.2964 17.3081 11.1163 16.3319 10.9306L15.584 14.8601C16.5081 15.036 17.4774 15.2288 18.4407 15.4065L19.1665 11.4728ZM13.9588 12.9524L14.0391 15.7691L18.0374 15.655L17.9571 12.8383L13.9588 12.9524ZM14.0387 15.7492L14.0814 18.0607L18.0807 17.9866L18.0379 15.675L14.0387 15.7492ZM16.1831 16.0262C15.9214 16.0129 15.6706 16.0152 15.467 16.0187C15.2425 16.0225 15.0911 16.027 14.9283 16.026C14.7758 16.025 14.671 16.0188 14.594 16.0092C14.5191 15.9998 14.4935 15.9898 14.4981 15.9915L13.1186 19.7461C13.7946 19.9946 14.4551 20.0232 14.9033 20.026C15.506 20.0297 15.6259 20.0031 15.979 20.0211L16.1831 16.0262ZM14.4915 15.989C13.6803 15.6943 12.4353 15.2937 11.1736 15.5866C9.65886 15.9383 8.72886 17.0936 8.21313 18.5237L11.9759 19.8806C12.0997 19.5371 12.1993 19.4259 12.2086 19.4163C12.2105 19.4143 12.1952 19.4302 12.162 19.4491C12.1287 19.468 12.0977 19.4785 12.078 19.483C12.0471 19.4902 12.1009 19.4701 12.3 19.5055C12.5007 19.5413 12.7647 19.6176 13.1252 19.7486L14.4915 15.989ZM8.59542 20.5261C8.84593 20.8098 9.06309 21.1212 9.24266 21.4543L12.7636 19.5562C12.439 18.954 12.0464 18.391 11.5936 17.8782L8.59542 20.5261ZM9.14097 21.2349C9.42127 21.9504 9.60156 22.6542 9.89044 23.598L13.7152 22.4271C13.4901 21.6918 13.2199 20.6807 12.8653 19.7757L9.14097 21.2349ZM11.5729 21.0258C10.7193 21.1246 9.64899 21.2163 8.64954 21.3831L9.30771 25.3286C10.177 25.1835 11.003 25.1185 12.0327 24.9993L11.5729 21.0258ZM8.67049 21.3797C7.85073 21.5075 6.96077 21.7304 6.3337 21.8636L7.16488 25.7763C8.01834 25.595 8.60554 25.4382 9.28676 25.332L8.67049 21.3797ZM4.8534 24.4568C5.08709 25.1527 5.36816 26.0872 5.68704 26.9162L9.42034 25.4801C9.14028 24.752 8.94331 24.0708 8.64519 23.1831L4.8534 24.4568ZM5.68704 26.9162C6.00846 27.7519 6.44274 28.6601 6.75347 29.3658L10.4143 27.7538C10.0231 26.8652 9.69786 26.2016 9.42034 25.4801L5.68704 26.9162ZM8.01643 26.642C7.72363 26.7286 7.45021 26.8341 7.23599 26.9191C6.9949 27.0148 6.84444 27.0777 6.67651 27.1389C6.32247 27.268 6.30711 27.2232 6.43006 27.2391L5.9147 31.2059C6.80095 31.321 7.58744 31.0644 8.04638 30.897C8.70383 30.6573 8.79367 30.5835 9.15131 30.4776L8.01643 26.642ZM6.42957 27.2391C5.54446 27.1243 4.2473 27.0547 3.1573 27.7635C1.87967 28.5942 1.56537 29.9888 1.57978 31.1969L5.57943 31.149C5.57778 31.0103 5.58606 30.9167 5.59468 30.8595C5.60323 30.8026 5.6105 30.7923 5.6019 30.814C5.59235 30.8381 5.56737 30.8908 5.51659 30.9544C5.46475 31.0193 5.40231 31.0749 5.33758 31.117C5.21233 31.1984 5.15003 31.1843 5.26212 31.1733C5.31471 31.1681 5.39443 31.1648 5.50727 31.1692C5.61962 31.1736 5.75444 31.1851 5.91519 31.206L6.42957 27.2391ZM1.81136 32.1075C2.24677 32.9315 2.95333 33.4402 3.39258 33.7287C3.62922 33.8841 3.87626 34.0295 4.05928 34.1387C4.26151 34.2593 4.40307 34.3459 4.51916 34.4263C4.80628 34.6252 4.61845 34.5778 4.5161 34.2629C4.36998 33.8132 4.60478 33.5848 4.44025 33.8323L7.77129 36.0466C8.3201 35.221 8.68931 34.1622 8.32018 33.0264C7.99482 32.0252 7.22657 31.4358 6.79734 31.1383C6.55525 30.9706 6.30466 30.8204 6.10843 30.7033C5.89299 30.5748 5.73529 30.4816 5.58857 30.3853C5.26111 30.1702 5.28652 30.1224 5.34786 30.2384L1.81136 32.1075ZM5.4616 33.046C4.61821 33.333 3.9664 33.4317 2.98795 33.6916C2.57307 33.8018 2.07339 33.9521 1.61176 34.1841C1.15176 34.4152 0.547873 34.8166 0.15846 35.5272L3.66616 37.4495C3.51217 37.7305 3.32205 37.8012 3.40731 37.7584C3.49093 37.7164 3.66799 37.6496 4.01449 37.5576C4.5588 37.4131 5.7683 37.1669 6.74994 36.8329L5.4616 33.046ZM0.161708 35.5213C-0.257158 36.2796 -0.567311 37.293 -0.15847 38.3517C0.216384 39.3224 1.01386 39.8111 1.41657 40.0314C1.64542 40.1566 1.87636 40.2614 2.04349 40.3367C2.23383 40.4225 2.35119 40.4746 2.4602 40.5298C2.73081 40.6669 2.53622 40.6302 2.37349 40.342L5.85647 38.375C5.39582 37.5592 4.63902 37.1495 4.26837 36.9617C4.05675 36.8545 3.83372 36.756 3.68707 36.6899C3.5172 36.6133 3.41453 36.5649 3.33633 36.5221C3.12493 36.4065 3.41449 36.5004 3.57289 36.9105C3.76527 37.4087 3.5301 37.6959 3.66292 37.4554L0.161708 35.5213ZM2.37147 40.3384C2.30725 40.2241 2.27909 40.1314 2.26696 40.0817C2.26054 40.0555 2.25729 40.0359 2.25567 40.0242C2.25483 40.0182 2.25435 40.0137 2.25408 40.0108C2.25382 40.008 2.25374 40.0065 2.25374 40.0065C2.25373 40.0064 2.2538 40.0076 2.25383 40.01C2.25386 40.0125 2.25387 40.016 2.25377 40.0206C2.25357 40.03 2.25297 40.0429 2.25157 40.0592C2.24872 40.0925 2.24302 40.1347 2.23323 40.184C2.213 40.2859 2.18093 40.3899 2.1443 40.4776C2.10486 40.572 2.07993 40.6006 2.09652 40.5791L5.26094 43.0257C5.73246 42.4158 6.02228 41.639 6.15652 40.9632C6.27442 40.3696 6.38255 39.3111 5.85849 38.3786L2.37147 40.3384ZM2.10417 40.5693C2.36544 40.2357 2.6631 40.1447 2.68674 40.1374C2.70997 40.1302 2.67525 40.1427 2.47461 40.1668C2.33681 40.1833 2.02143 40.2149 1.74882 40.2621C1.4629 40.3116 1.04324 40.4042 0.618649 40.62L2.43116 44.1858C2.33862 44.2328 2.30813 44.2248 2.43072 44.2036C2.56661 44.1801 2.67906 44.1709 2.95063 44.1384C3.15935 44.1134 3.51553 44.0685 3.87339 43.9573C4.23167 43.846 4.80771 43.6045 5.25328 43.0355L2.10417 40.5693ZM0.609233 40.6248C0.13461 40.8693 -0.350134 41.2329 -0.740313 41.6453C-1.05235 41.9751 -1.67304 42.7167 -1.70778 43.7304L2.2898 43.8673C2.28437 44.0259 2.25403 44.1498 2.22755 44.2307C2.20106 44.3116 2.17319 44.3657 2.15849 44.3919C2.13202 44.4389 2.1252 44.4366 2.16511 44.3945C2.20084 44.3567 2.25204 44.3103 2.3119 44.2652C2.37279 44.2192 2.42004 44.1915 2.44058 44.181L0.609233 40.6248ZM-1.68224 44.1247C-1.57843 44.7535 -1.32935 45.3494 -0.954762 45.865L2.28128 43.5137C2.27253 43.5017 2.2667 43.4877 2.26427 43.473L-1.68224 44.1247ZM-0.954762 45.865C-0.58014 46.3806 -0.0903958 46.8016 0.475442 47.0946L2.31475 43.5425C2.30144 43.5356 2.29 43.5257 2.28128 43.5137L-0.954762 45.865ZM0.665249 47.1807C1.74113 47.6023 2.85654 47.9153 3.99479 48.1147L4.68526 44.1747C3.81 44.0213 2.95229 43.7807 2.12494 43.4564L0.665249 47.1807ZM2.52441 46.9835L2.92461 47.8498L6.55584 46.1722L6.15563 45.3059L2.52441 46.9835ZM3.68094 45.3146C2.81054 45.8582 1.53978 46.5561 0.491725 47.3488L2.90457 50.5391C3.76776 49.8862 4.62601 49.4403 5.79951 48.7075L3.68094 45.3146ZM0.352811 47.4641C-0.31517 48.0714 -0.924376 48.7404 -1.46673 49.4621L1.73085 51.8651C2.12212 51.3445 2.56161 50.8619 3.04348 50.4238L0.352811 47.4641ZM-1.14355 52.2041C-0.715815 52.5583 0.0550947 53.2745 0.774132 53.7704L3.04532 50.4776C2.50646 50.106 2.15865 49.7451 1.40767 49.1232L-1.14355 52.2041ZM0.76708 53.7655C1.70007 54.415 2.77877 55.0388 4.08206 55.8629L6.21987 52.482C4.71505 51.5305 3.89863 51.0716 3.05238 50.4825L0.76708 53.7655ZM4.22808 52.3981C3.57696 52.7368 3.15763 52.9196 2.72847 53.1252C2.3612 53.3012 1.81582 53.5667 1.35435 54.0404L4.21929 56.8317C4.13253 56.9208 4.08011 56.913 4.45668 56.7326C4.77137 56.5818 5.34676 56.325 6.07385 55.9468L4.22808 52.3981ZM1.27099 54.1314C0.64791 54.8554 0.0776874 55.6232 -0.435294 56.4289L2.93875 58.5772C3.34882 57.9331 3.80462 57.3194 4.30265 56.7407L1.27099 54.1314ZM0.239919 59.2283C0.922475 59.6286 1.70959 60.1057 2.50775 60.5269L4.37437 56.989C3.68075 56.623 3.01692 56.2197 2.26353 55.7778L0.239919 59.2283ZM2.50775 60.5269C3.28971 60.9394 4.18683 61.3406 4.86265 61.6676L6.60486 58.0669C5.75221 57.6543 5.08421 57.3635 4.37437 56.989L2.50775 60.5269ZM4.06144 58.7703C3.64462 59.4058 3.03068 60.2656 2.5492 61.0859L5.99874 63.1107C6.4194 62.394 6.8465 61.8173 7.40606 60.9641L4.06144 58.7703ZM2.54986 61.0848C2.12516 61.8073 1.74896 62.6801 1.49269 63.2085L5.09162 64.9541C5.4778 64.1578 5.6794 63.654 5.99808 63.1118L2.54986 61.0848ZM2.49118 65.9139C3.00765 66.1397 3.89409 66.5758 4.65774 66.8523L6.01978 63.0912C5.40432 62.8684 4.91117 62.6061 4.09312 62.2486L2.49118 65.9139ZM4.6796 66.8601C5.64999 67.1988 6.70124 67.4681 7.52924 67.708L8.64241 63.8659C7.63639 63.5744 6.83406 63.3753 5.99792 63.0835L4.6796 66.8601ZM6.30255 64.8815C5.98025 65.5164 5.42753 66.4804 5.05457 67.3845L8.7522 68.9099C9.04869 68.1911 9.39226 67.6315 9.8691 66.6923L6.30255 64.8815ZM5.07079 67.3463C4.98503 67.5426 4.69757 68.1399 4.53004 68.6122C4.43836 68.8707 4.33101 69.2226 4.28886 69.6092C4.24951 69.97 4.23825 70.6111 4.60668 71.2491L8.07047 69.2485C8.19382 69.4621 8.24106 69.6583 8.25885 69.7901C8.27622 69.9188 8.26887 70.0091 8.26522 70.0426C8.25923 70.0976 8.25451 70.0771 8.29982 69.9494C8.34099 69.8333 8.40042 69.6916 8.48061 69.5128C8.5203 69.4244 8.55979 69.3384 8.60383 69.242C8.64583 69.1501 8.6922 69.0482 8.73598 68.948L5.07079 67.3463ZM4.60668 71.2491C4.92835 71.8061 5.3995 72.1228 5.69484 72.2884C6.01937 72.4703 6.35633 72.5931 6.64352 72.6779C7.21698 72.8473 7.83498 72.9356 8.3302 72.9578L8.50964 68.9617C8.4132 68.9574 8.2861 68.9452 8.14729 68.923C8.00809 68.9008 7.87982 68.8722 7.77642 68.8416C7.66416 68.8085 7.62989 68.7874 7.65082 68.7991C7.66423 68.8067 7.71571 68.8364 7.78527 68.8969C7.8539 68.9566 7.96726 69.0698 8.07047 69.2485L4.60668 71.2491ZM8.3302 72.9578C9.04675 72.9899 9.68887 72.8141 10.1619 72.6724C10.7135 72.5072 11.1187 72.3614 11.7851 72.1846L10.76 68.3182C10.0287 68.5121 9.36213 68.7364 9.01421 68.8406C8.58768 68.9684 8.50236 68.9614 8.50964 68.9617L8.3302 72.9578ZM9.29107 69.9801C9.10931 71.3072 9.02853 72.0985 8.88671 72.9144L12.8275 73.5993C12.9849 72.6942 13.0948 71.6852 13.254 70.5227L9.29107 69.9801ZM8.89503 72.8695C8.71071 73.8033 8.46268 74.6657 8.19662 75.7402L12.0793 76.7015C12.3016 75.8038 12.6107 74.7004 12.8192 73.6441L8.89503 72.8695ZM10.2782 78.216C11.4389 78.1343 12.3353 78.0295 13.3146 78.0095L13.2332 74.0103C12.1276 74.0328 10.936 74.1598 9.99772 74.2258L10.2782 78.216ZM13.3146 78.0095C14.2413 77.9906 15.0218 78.0659 15.6786 78.1128L15.9641 74.123C15.4034 74.0829 14.3913 73.9866 13.2332 74.0103L13.3146 78.0095ZM13.874 75.6622C13.6473 76.631 13.3405 77.3643 13.0193 78.4006C12.8809 78.8473 12.7322 79.3868 12.68 79.9268C12.6292 80.4535 12.6418 81.2479 13.11 81.9984L16.5037 79.8811C16.7044 80.2027 16.6488 80.4418 16.6614 80.3112C16.6727 80.194 16.7192 79.9743 16.84 79.5847C17.0373 78.9481 17.5053 77.6994 17.7687 76.5736L13.874 75.6622ZM13.1127 82.0027C13.581 82.7493 14.3265 83.5347 15.4695 83.6977C16.5343 83.8496 17.3721 83.3637 17.7824 83.093C18.0147 82.9397 18.2273 82.7738 18.3888 82.6459C18.572 82.5007 18.6858 82.4075 18.8122 82.3134C19.0982 82.1001 19.0752 82.1782 18.8754 82.2078L18.289 78.251C17.4307 78.3782 16.7666 78.8492 16.4215 79.1065C16.2322 79.2476 16.0329 79.4092 15.9045 79.5109C15.7543 79.6299 15.6569 79.7032 15.5797 79.7542C15.3709 79.8919 15.5919 79.6746 16.0345 79.7377C16.5553 79.812 16.6732 80.1513 16.5011 79.8768L13.1127 82.0027ZM18.8756 82.2078C19.1118 82.1727 19.3539 82.154 19.5088 82.1603C19.5917 82.1637 19.5592 82.1712 19.4584 82.1408C19.4031 82.1242 19.2853 82.0836 19.1422 81.9945C18.9963 81.9035 18.79 81.7402 18.6192 81.471L21.9966 79.3278C21.5662 78.6494 20.9171 78.4027 20.6134 78.3111C20.2624 78.2053 19.9219 78.1738 19.6725 78.1636C19.1628 78.1427 18.6433 78.1984 18.2889 78.251L18.8756 82.2078ZM18.5614 81.3739C18.6007 81.4444 18.6256 81.5219 18.6348 81.602L22.6087 81.1465C22.5394 80.5417 22.351 79.9565 22.0544 79.4249L18.5614 81.3739ZM18.6348 81.602C18.644 81.6821 18.6372 81.7633 18.6149 81.8408L22.4582 82.9489C22.6269 82.364 22.678 81.7514 22.6087 81.1465L18.6348 81.602ZM18.614 81.8438C18.5722 81.9896 18.3663 82.6453 18.2918 82.9207C18.1858 83.312 18.0551 83.8798 18.0853 84.494C18.1188 85.173 18.3515 85.9323 18.9711 86.5684C19.5453 87.1578 20.2845 87.4675 21.0018 87.6402L21.9385 83.7513C21.6329 83.6777 21.693 83.6299 21.8364 83.7772C21.9139 83.8568 21.9821 83.96 22.0275 84.0747C22.0706 84.1836 22.0789 84.2662 22.0804 84.2971C22.0818 84.326 22.0757 84.2501 22.1527 83.9658C22.1879 83.8359 22.231 83.6945 22.2855 83.5185C22.3369 83.353 22.4005 83.1502 22.4591 82.9459L18.614 81.8438ZM22.4565 87.4356C22.8754 87.1981 23.2757 86.9204 23.611 86.6816C23.9765 86.4213 24.2472 86.2209 24.5276 86.034C24.8059 85.8485 24.971 85.7617 25.0583 85.7271C25.1577 85.6878 24.9711 85.7898 24.6421 85.7105L25.5794 81.8218C24.7741 81.6277 24.056 81.8218 23.5857 82.0081C23.1033 82.1991 22.6605 82.4715 22.3095 82.7054C21.9606 82.9379 21.5806 83.217 21.291 83.4232C20.9712 83.6509 20.712 83.8266 20.4838 83.9559L22.4565 87.4356ZM24.6194 85.7049C24.8593 85.7657 24.5877 85.7556 24.3859 85.3891C24.2198 85.0873 24.3014 84.8848 24.2659 85.1041C24.2515 85.1931 24.2251 85.3102 24.1796 85.4853C24.1448 85.619 24.0708 85.8883 24.0217 86.0867C23.9217 86.4907 23.7587 87.2043 23.8746 87.9641L27.8288 87.3607C27.8424 87.45 27.8143 87.4119 27.9044 87.0478C27.9565 86.8373 28.1384 86.214 28.2146 85.7422C28.2981 85.2257 28.3721 84.3359 27.8901 83.4601C27.3724 82.5196 26.4766 82.049 25.6021 81.8274L24.6194 85.7049ZM23.9226 88.19C24.0782 88.759 24.3711 89.281 24.7756 89.7102L27.6865 86.9666C27.7312 87.0141 27.7637 87.0718 27.7809 87.1348L23.9226 88.19ZM24.7756 89.7102C25.18 90.1393 25.6838 90.4626 26.2425 90.6516L27.5242 86.8624C27.586 86.8834 27.6418 86.9191 27.6865 86.9666L24.7756 89.7102ZM26.6506 90.7435C27.4204 90.8336 28.086 90.6047 28.4781 90.4415C28.8813 90.2737 29.2831 90.0451 29.4841 89.9362L27.5782 86.4194C27.424 86.503 27.3235 86.5593 27.2022 86.6227C27.0902 86.6814 27.0066 86.7213 26.941 86.7486C26.874 86.7765 26.8539 86.7792 26.8708 86.7757C26.8881 86.772 26.9777 86.7544 27.116 86.7706L26.6506 90.7435ZM29.4773 89.9398C30.4461 89.4195 31.4479 88.7684 32.2512 88.2849L30.1887 84.8577C29.202 85.4516 28.4438 85.9546 27.585 86.4158L29.4773 89.9398ZM29.2999 87.131C29.5449 87.9715 29.8284 89.1627 30.2256 90.2076L33.9645 88.7863C33.6408 87.9346 33.4738 87.1566 33.14 86.0116L29.2999 87.131ZM30.2329 90.2265C30.3249 90.4616 30.5157 90.9861 30.747 91.43C30.9233 91.7683 31.4236 92.693 32.4589 93.0612L33.7994 89.2924C34.1163 89.4051 34.2779 89.5847 34.311 89.6231C34.3484 89.6665 34.3391 89.6675 34.2941 89.581C34.2526 89.5014 34.2039 89.3931 34.1442 89.246C34.0787 89.0845 34.0332 88.9614 33.9572 88.7674L30.2329 90.2265ZM32.4589 93.0612C33.5165 93.4374 34.4957 93.0124 34.8645 92.8396C35.3581 92.6083 35.809 92.3001 36.0866 92.105L33.7867 88.8324C33.6671 88.9164 33.5514 88.9951 33.4392 89.0651C33.325 89.1363 33.2343 89.1861 33.1675 89.2174C33.0931 89.2522 33.097 89.2412 33.1652 89.2281C33.2272 89.2162 33.4746 89.1769 33.7994 89.2924L32.4589 93.0612ZM36.0883 92.1038C37.0679 91.4138 37.9987 90.4979 38.6484 89.9298L36.0159 86.9183C35.0838 87.7332 34.5391 88.3024 33.785 88.8336L36.0883 92.1038ZM35.4945 89.2133C35.9653 90.3097 36.3948 91.2328 36.7804 92.2307L40.5115 90.7887C40.0915 89.702 39.5813 88.593 39.1698 87.6348L35.4945 89.2133ZM36.7838 92.2392C36.7125 92.0574 36.7287 91.9236 36.747 92.2704C36.7619 92.5523 36.7794 93.0578 36.8376 93.8046L40.8254 93.4937C40.7723 92.813 40.7599 92.4094 40.7413 92.0587C40.7262 91.7729 40.7052 91.2831 40.5081 90.7801L36.7838 92.2392ZM40.0339 95.2473C41.4748 94.1631 42.5963 93.3871 43.5668 92.5754L41.0008 89.507C40.1302 90.2351 39.2549 90.8277 37.6291 92.051L40.0339 95.2473ZM43.6297 92.5205C44.3094 91.9021 44.9576 91.25 45.5719 90.5668L42.5977 87.8922C42.0726 88.4761 41.5187 89.0334 40.9378 89.5619L43.6297 92.5205ZM42.4668 90.4051C42.9537 91.0754 43.5027 91.8597 44.0839 92.5918L47.2167 90.1046C46.7061 89.4615 46.248 88.8043 45.7029 88.0539L42.4668 90.4051ZM44.0755 92.5811C44.5999 93.251 45.2245 93.9294 45.6747 94.4516L48.704 91.8393C48.1206 91.1627 47.6748 90.6898 47.2251 90.1153L44.0755 92.5811ZM48.5707 94.5917C49.2771 93.917 49.9264 93.1852 50.5122 92.4036L47.3117 90.0046C46.8579 90.6099 46.355 91.1767 45.808 91.6992L48.5707 94.5917ZM50.592 92.289C50.949 91.7362 51.1166 91.1456 51.2338 90.7191C51.3657 90.239 51.4792 89.7713 51.696 89.1037L47.8917 87.8683C47.6372 88.6518 47.4819 89.2767 47.3768 89.6595C47.2568 90.0961 47.2191 90.139 47.2319 90.1191L50.592 92.289ZM48.3879 89.9085C48.9629 90.4768 49.6472 91.0326 49.9511 91.3039C50.3594 91.6684 50.3855 91.7653 50.371 91.7295L54.0787 90.2286C53.7204 89.3431 53.0679 88.7242 52.6151 88.3199C52.0579 87.8225 51.6987 87.5567 51.1998 87.0635L48.3879 89.9085ZM50.3627 91.7086C50.7208 92.6228 51.3307 93.7776 52.5472 94.3394C53.8487 94.9403 55.1533 94.5649 56.1466 94.071L54.366 90.4892C54.0957 90.6236 53.9685 90.6463 53.9514 90.6485C53.9487 90.6488 53.9796 90.6446 54.0352 90.652C54.093 90.6597 54.1589 90.6776 54.2241 90.7077C54.3598 90.7704 54.3942 90.8387 54.3507 90.7798C54.3003 90.7115 54.2066 90.5548 54.087 90.2495L50.3627 91.7086ZM57.255 92.3527C57.2638 92.1093 57.3008 91.8678 57.3653 91.633L53.5083 90.5736C53.3618 91.1067 53.2778 91.655 53.2577 92.2075L57.255 92.3527ZM57.2856 91.8661C57.6674 90.9406 58.0929 90.0791 58.5629 89.0614L54.9316 87.3842C54.516 88.2842 54.0118 89.3133 53.588 90.3405L57.2856 91.8661ZM55.3782 89.6808C56.127 90.384 56.9173 91.0417 57.7449 91.6503L60.1146 88.4277C59.4159 87.9139 58.7486 87.3586 58.1164 86.7649L55.3782 89.6808ZM57.8318 91.7107C58.1279 91.9052 58.6331 92.2399 59.1495 92.4899C59.4095 92.6159 59.7496 92.7593 60.128 92.8438C60.481 92.9227 61.0872 93.0009 61.7377 92.746L60.2788 89.0216C60.4888 88.9393 60.6696 88.9212 60.7849 88.9202C60.8987 88.9191 60.9746 88.9343 61.0003 88.94C61.0416 88.9492 61.0116 88.9473 60.8929 88.8898C60.7845 88.8373 60.6519 88.763 60.4961 88.6677C60.3411 88.5728 60.1881 88.4726 60.0277 88.3673L57.8318 91.7107ZM61.8047 92.7184C62.6927 92.3328 63.2325 91.6013 63.5259 91.141C63.8416 90.6458 64.0955 90.0923 64.252 89.7625L60.6384 88.0476C60.4435 88.4583 60.305 88.7526 60.1531 88.9909C60.0833 89.1004 60.0403 89.1491 60.0287 89.1609C60.0169 89.173 60.0748 89.1087 60.2118 89.0492L61.8047 92.7184ZM64.2837 89.6924C64.6868 88.7509 65.0336 87.7862 65.3221 86.8035L61.4842 85.6767C61.2404 86.5071 60.9474 87.3222 60.6067 88.1178L64.2837 89.6924ZM62.3813 87.9594C63.1785 88.4332 63.9992 88.8663 64.8402 89.2569L66.5254 85.6291C65.8069 85.2954 65.1059 84.9255 64.4251 84.5208L62.3813 87.9594ZM64.923 89.2932C65.9174 89.7015 67.0731 90.0152 67.837 90.2625L69.0691 86.4569C68.0089 86.1137 67.2539 85.9261 66.4425 85.5929L64.923 89.2932ZM70.4482 88.4979L70.7808 83.6999L66.7904 83.4235L66.4579 88.2215L70.4482 88.4979ZM68.0158 85.4077C69.0854 85.8537 70.4201 86.4793 71.7273 86.9138L72.9889 83.1178C71.8674 82.7451 70.8654 82.262 69.5554 81.7157L68.0158 85.4077ZM71.7345 86.9161C72.2763 87.0939 72.8778 87.123 73.3509 87.0819C73.6009 87.0602 73.9135 87.0109 74.2315 86.8977C74.4851 86.8075 75.084 86.5597 75.4849 85.9255L72.1041 83.788C72.2749 83.5178 72.4765 83.3583 72.6024 83.2753C72.731 83.1906 72.8373 83.1482 72.8906 83.1292C72.992 83.0931 73.0381 83.094 73.0046 83.0969C72.9823 83.0988 72.9488 83.099 72.9191 83.0964C72.881 83.0931 72.9059 83.0906 72.9817 83.1155L71.7345 86.9161ZM75.5698 85.7777C76.023 84.9042 76.2771 83.9411 76.3139 82.9578L72.3168 82.8081C72.3021 83.2014 72.2004 83.5865 72.0192 83.9358L75.5698 85.7777ZM76.3037 83.0986C76.4247 81.9832 76.427 80.779 76.4649 79.8645L72.4683 79.6994C72.4206 80.8536 72.4292 81.7264 72.3271 82.6672L76.3037 83.0986ZM73.7589 81.6526C74.7634 82.0326 75.798 82.3275 76.852 82.5341L77.6216 78.6088C76.7878 78.4453 75.9691 78.212 75.1743 77.9113L73.7589 81.6526ZM76.8705 82.5377C78.1099 82.7685 79.3901 82.6206 80.5442 82.1132L78.9345 78.4514C78.5162 78.6353 78.0522 78.6889 77.6031 78.6052L76.8705 82.5377ZM80.7453 82.0109C81.6937 81.4588 81.8357 80.468 81.8653 80.2683C81.9186 79.9087 81.907 79.5518 81.8925 79.307C81.8767 79.0423 81.8472 78.77 81.8236 78.5549C81.7975 78.3166 81.7791 78.1519 81.7697 78.0174L77.7794 78.2943C77.7957 78.5287 77.8256 78.7908 77.8476 78.9913C77.8721 79.2151 77.8906 79.3934 77.8996 79.5448C77.9098 79.7161 77.8999 79.7409 77.9085 79.6822C77.9132 79.6507 77.9347 79.5115 78.0196 79.328C78.1058 79.1417 78.3098 78.8002 78.7333 78.5537L80.7453 82.0109ZM81.7705 78.0281C81.7064 77.0261 81.5815 76.0342 81.4585 75.1107L77.4936 75.639C77.6156 76.5552 77.7241 77.4296 77.7787 78.2836L81.7705 78.0281ZM79.3941 77.3732C80.2109 77.4067 81.2945 77.4907 82.2945 77.4857L82.2745 73.4857C81.3869 73.4902 80.6071 73.4195 79.5579 73.3765L79.3941 77.3732ZM82.288 77.4857C83.1371 77.4842 84.0629 77.3784 84.6937 77.3307L84.3926 73.342C83.5195 73.408 82.9351 73.4845 82.281 73.4857L82.288 77.4857ZM86.5414 75.2518C86.5081 74.4641 86.4308 73.6788 86.31 72.8997L82.3573 73.5128C82.4553 74.1448 82.518 74.7819 82.545 75.4209L86.5414 75.2518ZM86.2918 72.7993C86.0711 71.7369 85.7168 70.5994 85.4873 69.742L81.6234 70.7766C81.9191 71.8813 82.184 72.6913 82.3755 73.6132L86.2918 72.7993ZM83.5557 72.2593C84.6304 72.2591 85.6258 72.2477 86.6316 72.2788L86.7552 68.2806C85.6675 68.2471 84.5705 68.259 83.555 68.2592L83.5557 72.2593ZM86.4218 72.2612C87.0152 72.3426 87.6036 72.4569 88.1843 72.6038L89.1653 68.7259C88.4404 68.5425 87.7058 68.3997 86.9651 68.2982L86.4218 72.2612ZM90.5901 70.0892C90.1779 68.7175 89.8913 67.6472 89.5449 66.6581L85.7698 67.9805C86.0775 68.8589 86.2974 69.7028 86.7594 71.2405L90.5901 70.0892ZM89.5404 66.6455C89.2236 65.7599 88.7629 64.8002 88.4901 64.162L84.8122 65.7346C85.1996 66.6407 85.508 67.249 85.7743 67.9932L89.5404 66.6455ZM87.1847 66.8758C87.9069 66.6759 88.8633 66.4434 89.7242 66.1649L88.4932 62.359C87.7344 62.6045 87.0318 62.7676 86.1175 63.0208L87.1847 66.8758ZM89.7242 66.1649C90.6009 65.8813 91.5624 65.4487 92.1826 65.2057L90.7237 61.4812C89.7809 61.8506 89.2362 62.1187 88.4932 62.359L89.7242 66.1649ZM93.2366 62.4383C92.9667 61.9065 92.5734 61.0376 92.1538 60.3244L88.7062 62.3527C89.0481 62.934 89.2606 63.4426 89.6697 64.2486L93.2366 62.4383ZM92.1515 60.3206C91.6507 59.4735 91.0651 58.6169 90.6013 57.8979L87.2401 60.0664C87.7901 60.9191 88.2588 61.5961 88.7084 62.3566L92.1515 60.3206ZM89.7491 60.8025C90.6074 60.4119 91.506 60.0089 92.3826 59.6042L90.7063 55.9724C89.8407 56.372 88.98 56.7578 88.0923 57.1618L89.7491 60.8025ZM92.3708 59.6096C93.3586 59.1614 94.3386 58.7107 95.4889 58.1768L93.805 54.5485C92.6624 55.0788 91.693 55.5246 90.7181 55.967L92.3708 59.6096ZM96 54.8898L92.1641 51.3654L89.4579 54.3111L93.2938 57.8355L96 54.8898ZM91.7058 54.6269C92.8532 54.0528 93.9703 53.4201 95.0528 52.7314L92.9057 49.3565C91.9388 49.9717 90.941 50.5369 89.9161 51.0497L91.7058 54.6269ZM95.0795 52.7141C95.5676 52.3925 95.9814 51.97 96.2928 51.4751L92.9073 49.3449C92.9001 49.3564 92.8904 49.3663 92.8789 49.3739L95.0795 52.7141ZM96.2928 51.4751C96.6042 50.9802 96.8059 50.4244 96.8846 49.8452L92.9211 49.3068C92.9192 49.3204 92.9145 49.3334 92.9073 49.3449L96.2928 51.4751ZM96.899 49.4527C96.8407 48.5079 96.291 47.8258 96.0144 47.515C95.6838 47.1434 95.3048 46.8317 95.0609 46.636L92.5577 49.756C92.6626 49.8403 92.7569 49.9183 92.8414 49.9937C92.9271 50.0702 92.9871 50.1302 93.0261 50.1741C93.0686 50.2218 93.0592 50.2203 93.0317 50.1702C93.0057 50.1229 92.9227 49.958 92.9067 49.6993L96.899 49.4527ZM95.0829 46.6539C94.2071 45.9306 93.2488 45.2664 92.4578 44.6852L90.0894 47.9087C91.0067 48.5828 91.7764 49.111 92.5357 49.7381L95.0829 46.6539ZM92.3993 47.9501C93.3559 47.2986 94.3084 46.65 95.2622 46.0065L93.0252 42.6905C92.063 43.3397 91.1034 43.9932 90.1479 44.6439L92.3993 47.9501ZM95.1968 46.0488C95.376 45.9378 95.5609 45.8362 95.7508 45.7445L94.011 42.1426C93.6957 42.295 93.3884 42.4637 93.0906 42.6483L95.1968 46.0488ZM96.8177 44.4421C97.1052 43.3256 97.1623 41.9725 96.2882 40.8383C95.4811 39.7909 94.2444 39.4329 93.2836 39.2735L92.6288 43.2196C92.939 43.2711 93.1103 43.3291 93.1911 43.3657C93.2629 43.3983 93.2013 43.3857 93.1199 43.2801C93.0804 43.2288 93.0502 43.1731 93.0303 43.1206C93.0111 43.0697 93.0078 43.0381 93.0077 43.0371C93.0077 43.0371 93.0079 43.0391 93.0081 43.0433C93.0082 43.0474 93.0084 43.0537 93.0083 43.0622C93.0081 43.0793 93.0069 43.1047 93.0032 43.1392C92.9958 43.2094 92.9789 43.3097 92.9441 43.445L96.8177 44.4421ZM93.2776 39.2725C93.3667 39.287 93.3209 39.3082 93.0121 39.0907C92.8609 38.9842 92.7346 38.8865 92.5222 38.7293C92.3346 38.5904 92.097 38.4186 91.8343 38.2591L89.7591 41.6788C90.063 41.8632 90.1601 41.9747 90.709 42.3613C91.1066 42.6413 91.7778 43.0811 92.6348 43.2206L93.2776 39.2725ZM92.3131 41.2729C92.7543 40.7597 93.3813 40.078 93.8984 39.4028L90.7228 36.9707C90.296 37.5281 89.8572 37.994 89.2802 38.6651L92.3131 41.2729ZM93.8965 39.4052C94.4926 38.6293 95.0926 37.7219 95.5724 37.0477L92.3136 34.7285C91.7019 35.5879 91.2714 36.2568 90.7247 36.9683L93.8965 39.4052ZM94.7754 34.0695C93.9652 33.6986 93.2449 33.3848 92.5193 33.0259L90.7463 36.6116C91.5433 37.0057 92.3844 37.3743 93.1106 37.7067L94.7754 34.0695ZM92.5193 33.0259C91.7924 32.6665 91.1188 32.2877 90.3124 31.8588L88.4341 35.3905C89.1366 35.7641 89.9506 36.2182 90.7463 36.6116L92.5193 33.0259ZM91.0501 34.7146C91.4106 34.16 91.9478 33.3948 92.3714 32.67L88.9179 30.6519C88.5535 31.2755 88.1847 31.7834 87.6964 32.5346L91.0501 34.7146ZM92.3758 32.6624C92.8649 31.8168 93.3041 30.9221 93.6932 30.1611L90.1319 28.3401C89.7006 29.1836 89.3344 29.9318 88.9135 30.6595L92.3758 32.6624ZM92.4417 27.3218C91.3866 27.0324 90.8639 26.9472 90.0311 26.6935L88.8654 30.52C89.6527 30.7598 90.778 31.0133 91.3834 31.1794L92.4417 27.3218ZM90.0311 26.6935C89.267 26.4608 88.5965 26.1973 87.7062 25.8877L86.3925 29.666C87.1027 29.9129 88.0094 30.2592 88.8654 30.52L90.0311 26.6935ZM88.8819 28.5777C89.1812 27.893 89.5167 27.1433 89.8236 26.4319L86.151 24.8473C85.8435 25.5601 85.5416 26.2327 85.2167 26.976L88.8819 28.5777ZM89.8236 26.4319C90.1333 25.7143 90.5019 24.8148 90.8174 24.0667L87.1319 22.5123C86.7879 23.3278 86.4559 24.1407 86.151 24.8473L89.8236 26.4319ZM89.3947 21.334C88.4997 21.1418 87.5758 20.9375 86.6475 20.744L85.8311 24.6599C86.7456 24.8506 87.626 25.0455 88.5546 25.2449L89.3947 21.334ZM86.6475 20.744C85.688 20.544 84.8705 20.4122 84.0634 20.2684L83.3617 24.2065C84.2429 24.3635 84.9479 24.4758 85.8311 24.6599L86.6475 20.744ZM85.5964 22.9088C85.6855 22.6588 85.7574 22.4121 85.8142 22.2133C85.8762 21.9961 85.9191 21.841 85.9686 21.6856C86.0705 21.3653 86.1284 21.2918 86.1237 21.2976L83.0176 18.7773C82.5392 19.3669 82.2998 20.0238 82.157 20.4727C82.084 20.7019 82.0177 20.9412 81.9681 21.1146C81.9133 21.3064 81.8712 21.4465 81.8286 21.5661L85.5964 22.9088ZM86.1297 21.2901C86.761 20.5044 87.4961 19.3401 87.3343 17.9516C87.1581 16.4392 86.0452 15.5046 84.9953 14.9331L83.0827 18.4463C83.2205 18.5213 83.3166 18.5848 83.3811 18.6334C83.4455 18.6821 83.4698 18.7095 83.471 18.7108C83.4711 18.711 83.4651 18.7041 83.4555 18.6895C83.4458 18.6748 83.4331 18.6533 83.4199 18.6249C83.392 18.5649 83.3703 18.4923 83.3612 18.4146C83.3427 18.2553 83.3884 18.1887 83.3553 18.2657C83.3388 18.304 83.3069 18.3677 83.2491 18.4584C83.1916 18.5487 83.1141 18.6572 83.0116 18.7848L86.1297 21.2901ZM83.1386 14.9038C82.9768 14.9854 82.8076 15.0517 82.6334 15.1018L83.7378 18.9463C84.1521 18.8272 84.5544 18.6696 84.9394 18.4755L83.1386 14.9038ZM82.8638 15.0501C81.837 15.2175 80.797 15.3635 79.7067 15.5289L80.3065 19.4837C81.3355 19.3276 82.4549 19.1696 83.5073 18.998L82.8638 15.0501ZM81.9532 17.9652C82.2173 16.8448 82.3982 15.7063 82.4942 14.5592L78.5082 14.2257C78.4286 15.176 78.2788 16.1192 78.06 17.0474L81.9532 17.9652ZM82.4983 14.2858C82.4491 13.3639 82.2985 12.4502 82.0493 11.5614L78.1979 12.6415C78.3678 13.2476 78.4705 13.8706 78.5041 14.4991L82.4983 14.2858ZM79.7355 10.1394C77.6872 10.5446 76.2684 10.8355 74.9074 11.1069L75.6894 15.0297C77.0881 14.7508 78.454 14.4705 80.5116 14.0634L79.7355 10.1394ZM77.2979 13.1122C77.3289 11.701 77.3666 10.292 77.4213 8.25645L73.4228 8.14912C73.3682 10.1826 73.3302 11.6017 73.2989 13.0244L77.2979 13.1122ZM75.3939 6.20295C74.4381 6.21643 73.4852 6.31217 72.5458 6.48913L73.2861 10.4201C73.9999 10.2856 74.7239 10.2129 75.4502 10.2026L75.3939 6.20295ZM72.3348 6.5409C71.0948 6.91755 69.8747 7.35666 68.6791 7.85648L70.2217 11.547C71.293 11.0992 72.3862 10.7058 73.4972 10.3683L72.3348 6.5409ZM71.4475 9.595L71.2493 5.88427L67.2551 6.09779L67.4533 9.80853L71.4475 9.595ZM71.2503 5.90484C71.2511 5.92253 71.2482 5.92668 71.2602 5.69474C71.271 5.48724 71.2891 5.15555 71.3126 4.59604L67.3162 4.42826C67.2936 4.96524 67.2765 5.27781 67.2656 5.48804C67.256 5.67383 67.2451 5.86917 67.2541 6.07722L71.2503 5.90484ZM68.5849 2.64993C67.4559 3.09225 66.3497 3.46976 65.4047 3.89888L67.0584 7.54101C67.8882 7.1642 68.651 6.92007 70.0439 6.37437L68.5849 2.64993ZM65.382 3.90937C64.4929 4.32664 63.5618 4.93882 62.9661 5.28611L64.9806 8.74174C65.8886 8.21234 66.4007 7.84986 67.0812 7.53051L65.382 3.90937ZM65.8355 6.28435C65.6776 5.8811 65.5462 5.48896 65.3725 4.9993C65.2086 4.53725 65.016 4.01632 64.7721 3.49659L61.1512 5.1963C61.3085 5.53144 61.448 5.90075 61.6028 6.33697C61.7478 6.74558 61.9217 7.25975 62.1112 7.7435L65.8355 6.28435ZM64.7721 3.49659C64.3238 2.54149 63.654 1.51215 63.0544 0.475268L59.5918 2.47783C60.3637 3.81265 60.797 4.44164 61.1512 5.1963L64.7721 3.49659ZM59.6764 0.341609L56.6898 4.6751L59.9833 6.94498L62.9698 2.61149L59.6764 0.341609ZM59.9564 4.63698C59.1878 3.5755 58.7272 3.00556 58.2937 2.32366L54.918 4.46951C55.4358 5.28422 56.0877 6.11447 56.7167 6.98309L59.9564 4.63698ZM58.2964 2.32782C57.7954 1.53524 57.3961 0.750338 56.8527 -0.218996L53.3636 1.73716C53.8116 2.5363 54.3404 3.55578 54.9154 4.46535L58.2964 2.32782ZM53.6556 -0.615638C52.9057 0.176759 52.4053 0.771188 51.7812 1.35596L54.516 4.27489C55.2511 3.58606 55.9965 2.73009 56.5607 2.1338L53.6556 -0.615638ZM51.8007 1.33789C51.656 1.46993 51.473 1.64526 51.3632 1.74802C51.2301 1.87255 51.1259 1.96595 51.0348 2.03938C50.9911 2.07468 50.9567 2.10017 50.9306 2.11813C50.9043 2.13622 50.8918 2.143 50.8921 2.14286C50.8922 2.14278 50.9119 2.13214 50.9497 2.11898C50.9881 2.10564 51.0497 2.08812 51.1314 2.07807L51.6196 6.04822C52.5098 5.93872 53.1856 5.4435 53.5458 5.15301C53.9018 4.86585 54.341 4.43482 54.4964 4.29296L51.8007 1.33789ZM51.2069 2.07024C51.5772 2.0389 51.8685 2.13056 52.0409 2.20791C52.2077 2.28278 52.31 2.36448 52.3454 2.39417C52.4074 2.44618 52.4004 2.45482 52.3164 2.34406C52.2428 2.24699 52.1589 2.12416 52.0481 1.95821C51.9513 1.81341 51.8163 1.60837 51.6881 1.43161L48.4503 3.7805C48.5205 3.8772 48.5984 3.99522 48.7219 4.18014C48.8313 4.34391 48.9748 4.55745 49.1287 4.76048C49.2722 4.94981 49.4927 5.22227 49.7747 5.45889C50.0003 5.64806 50.6346 6.13301 51.544 6.05606L51.2069 2.07024ZM51.6989 1.44662C51.1952 0.73869 50.8008 0.0536823 50.2416 -0.823621L46.8687 1.32667C47.3137 2.02477 47.8601 2.951 48.4395 3.76548L51.6989 1.44662ZM47.1862 -1.20653C46.4294 -0.495946 45.5266 0.310671 44.7283 1.15903L47.6412 3.90027C48.3266 3.17181 49.0636 2.51748 49.924 1.70958L47.1862 -1.20653ZM44.7407 1.14594C44.1362 1.77682 43.5259 2.6405 43.1856 3.06727L46.3127 5.56131C46.9218 4.79762 47.1812 4.38041 47.6287 3.91335L44.7407 1.14594ZM46.0429 2.78906C45.3993 2.24308 44.8887 1.83975 44.363 1.35981L41.6663 4.31416C42.2596 4.85582 42.9395 5.40187 43.4554 5.83952L46.0429 2.78906ZM44.4667 1.46157C43.6841 0.635359 42.8635 -0.162497 42.0238 -0.932531L39.3203 2.01564C40.1032 2.73362 40.8552 3.46549 41.5626 4.21239L44.4667 1.46157ZM27.8584 75.7644C21.805 71.6431 17.3499 66.3207 14.7627 59.4899L11.0221 60.9069C13.9289 68.5815 18.9457 74.5356 25.6073 79.071L27.8584 75.7644ZM14.767 59.5015C11.0677 49.5487 11.6934 39.9206 16.6796 30.5888L13.1518 28.7037C7.62086 39.055 6.92259 49.8775 11.0177 60.8953L14.767 59.5015ZM16.6797 30.5887C17.8126 28.4682 19.4665 26.7912 21.2922 24.4783L18.1526 22C16.6666 23.8825 14.5076 26.1659 13.1517 28.7038L16.6797 30.5887ZM21.2925 24.4779C21.4627 24.2622 21.5814 24.1781 21.6243 24.1531C21.6566 24.1342 21.6219 24.161 21.5396 24.1608C21.4596 24.1607 21.4323 24.1353 21.4746 24.1595C21.5258 24.1887 21.6451 24.2734 21.8112 24.4734L24.8878 21.917C24.1067 20.9768 22.9769 20.1632 21.5467 20.1608C20.0976 20.1582 18.9513 20.9875 18.1522 22.0004L21.2925 24.4779ZM21.8123 24.4747C24.034 27.1441 26.1623 29.4838 27.7498 32.1598L31.1899 30.1188C29.3912 27.0867 26.9484 24.3927 24.8867 21.9157L21.8123 24.4747ZM27.749 32.1584C27.7462 32.1537 27.7593 32.175 27.7781 32.2328C27.7968 32.2899 27.8171 32.3706 27.8337 32.4768C27.8674 32.6927 27.8786 32.9665 27.856 33.2749C27.8085 33.9239 27.6309 34.4991 27.4571 34.8057L30.9362 36.7791C31.4722 35.8342 31.7661 34.6484 31.8453 33.5666C31.9211 32.53 31.8283 31.1968 31.1907 30.1201L27.749 32.1584ZM27.4561 34.8073C22.0892 44.2908 23.2718 55.7947 31.3169 63.3871L34.0622 60.4779C27.4727 54.2591 26.3953 44.8031 30.9372 36.7774L27.4561 34.8073ZM31.3167 63.3869C32.4442 64.4513 32.869 65.2463 32.9929 65.888C33.1128 66.5085 33.0156 67.321 32.3722 68.5674L35.9264 70.4022C36.8111 68.6884 37.2696 66.9383 36.9203 65.1294C36.5751 63.3418 35.506 61.8408 34.0624 60.4781L31.3167 63.3869ZM32.3724 68.5669C31.2007 70.8352 30.1896 73.1696 29.2064 75.4375L32.8763 77.0285C33.8686 74.7395 34.8271 72.5304 35.9262 70.4027L32.3724 68.5669ZM29.2064 75.4375C28.8056 76.362 28.5694 76.2773 28.7623 76.2298C28.8326 76.2125 28.8227 76.2422 28.6698 76.1951C28.5039 76.144 28.2375 76.0222 27.8575 75.7638L25.6082 79.0716C26.7119 79.8222 28.1599 80.4977 29.7184 80.1139C31.3361 79.7156 32.2893 78.3823 32.8763 77.0285L29.2064 75.4375ZM73.093 48.8694C75.716 48.2136 78.4077 47.983 81.3716 47.5937L80.8509 43.6277C78.1239 43.9859 75.0404 44.2593 72.1229 44.9888L73.093 48.8694ZM81.372 47.5937C82.113 47.4962 82.5517 47.4827 82.809 47.5084C83.0469 47.5323 82.9093 47.5681 82.7256 47.3894C82.5497 47.2183 82.5876 47.0976 82.6283 47.3677C82.6706 47.6481 82.6812 48.1107 82.6304 48.8736L86.6214 49.1395C86.6771 48.3038 86.6922 47.4913 86.5835 46.771C86.4734 46.0404 86.2051 45.1936 85.5144 44.5218C84.8159 43.8425 83.9549 43.6031 83.2076 43.5283C82.4797 43.4554 81.6715 43.5198 80.8505 43.6278L81.372 47.5937ZM82.6306 48.8707C81.6895 62.6888 72.5135 74.4366 59.1271 79.0937L60.4413 82.8717C75.2831 77.7082 85.5671 64.6211 86.6212 49.1424L82.6306 48.8707ZM59.1082 79.1004C53.6162 81.0729 47.7212 81.6544 41.9497 80.7928L41.359 84.749C47.7839 85.7081 54.3463 85.0608 60.4601 82.865L59.1082 79.1004ZM41.9505 80.7929C41.2171 80.6831 40.7852 80.5715 40.5369 80.471C40.3049 80.3772 40.4183 80.3678 40.5316 80.5598C40.6445 80.7511 40.5808 80.8436 40.6111 80.5906C40.6434 80.3208 40.7553 79.8829 41.0157 79.1804L37.2652 77.7901C36.9704 78.5853 36.7283 79.3736 36.6395 80.1151C36.5487 80.8734 36.5969 81.7624 37.0864 82.5922C37.5762 83.4227 38.331 83.8937 39.0369 84.1793C39.7265 84.4582 40.5289 84.6247 41.3582 84.7489L41.9505 80.7929ZM41.0126 79.1887C41.9847 76.6017 42.9743 74.0334 44.0657 71.5094L40.3943 69.922C39.263 72.5383 38.2457 75.1806 37.2683 77.7818L41.0126 79.1887ZM44.0599 71.5227C44.1855 71.2378 44.3877 70.9255 44.6864 70.5306C44.9148 70.2288 45.3907 69.6441 45.6865 69.2254L42.4199 66.9171C42.1429 67.3091 41.9268 67.5485 41.4966 68.1172C41.1368 68.5929 40.7137 69.1975 40.4001 69.9087L44.0599 71.5227ZM44.1563 70.0686C45.4705 70.0007 46.1777 69.9288 46.9739 69.9256L46.9578 65.9256C46.0423 65.9293 45.0425 66.0174 43.95 66.0739L44.1563 70.0686ZM46.9733 69.9256C57.3367 69.8865 65.5819 64.3674 69.4227 54.8273L65.7122 53.3335C62.4896 61.3382 55.7233 65.8925 46.9584 65.9256L46.9733 69.9256ZM69.4217 54.8298C69.7559 54.0028 70.0657 53.0159 70.3066 52.3402C70.5775 51.5801 70.8346 50.9788 71.1564 50.485L67.8052 48.3012C67.2221 49.1961 66.8398 50.1532 66.5389 50.997C66.208 51.9252 66.0136 52.5876 65.7132 53.3311L69.4217 54.8298ZM71.171 50.4623C71.6569 49.694 72.3913 49.1153 73.2519 48.8226L71.964 45.0356C70.238 45.6227 68.7652 46.7832 67.7906 48.3239L71.171 50.4623ZM52.4036 58.5978C45.2461 61.402 37.9253 58.263 35.2892 51.5092L31.5631 52.9638C35.0495 61.896 44.767 65.8858 53.8625 62.3223L52.4036 58.5978ZM35.2892 51.5092C32.6611 44.7759 35.9515 37.5511 43.1586 34.7323L41.7019 31.007C32.6044 34.5651 28.0687 44.0112 31.5631 52.9638L35.2892 51.5092ZM43.165 34.7298C46.325 33.4814 49.8499 33.531 52.9735 34.8678L54.5473 31.1903C50.4546 29.4387 45.8359 29.3738 41.6955 31.0095L43.165 34.7298ZM52.9735 34.8678C56.097 36.2046 58.5666 38.7205 59.8451 41.8685L63.551 40.3632C61.8758 36.2385 58.64 32.9419 54.5473 31.1903L52.9735 34.8678ZM59.8505 41.8817C62.5226 48.3284 59.1994 55.9498 52.407 58.5965L53.8591 62.3236C62.6406 58.9019 67.1171 48.9667 63.5456 40.35L59.8505 41.8817ZM74.6404 24.354C77.1229 27.3768 79.2882 30.6467 81.1024 34.1121L84.6461 32.2567C82.7048 28.5486 80.3878 25.0498 77.7316 21.8152L74.6404 24.354ZM81.1165 34.1385C81.6935 35.2017 81.408 35.3592 81.5155 35.1765C81.5439 35.128 81.5317 35.1921 81.3101 35.3035C81.0802 35.4189 80.7001 35.5457 80.1185 35.6386L80.7494 39.5886C82.3148 39.3385 84.0608 38.7389 84.9634 37.2039C85.9297 35.5607 85.4461 33.7302 84.632 32.2302L81.1165 34.1385ZM80.1185 35.6386C77.522 36.0534 74.3464 36.3471 71.529 36.9182L72.3234 40.8385C75.1214 40.2714 77.6731 40.08 80.7494 39.5886L80.1185 35.6386ZM71.5264 36.9187C70.6456 37.0984 70.1285 36.9876 69.8121 36.8291C69.4969 36.6713 69.1332 36.3423 68.7934 35.6156L65.1702 37.3104C65.7834 38.6216 66.6989 39.7438 68.021 40.4059C69.342 41.0673 70.8205 41.1452 72.326 40.838L71.5264 36.9187ZM68.7923 35.6133C66.3254 30.3567 61.4192 26.847 56.2033 25.0392C51 23.2357 45.1806 23.0151 40.5975 24.6766L41.9607 28.4371C45.5082 27.1511 50.3653 27.2493 54.8933 28.8187C59.4087 30.3838 63.2886 33.301 65.1713 37.3128L68.7923 35.6133ZM40.5988 24.6761C39.5023 25.0728 38.7234 25.1313 38.1536 24.9976C37.643 24.8779 37.0535 24.5472 36.4194 23.6122L33.1088 25.8572C34.1903 27.4522 35.5674 28.4997 37.2401 28.892C38.8534 29.2704 40.4742 28.9749 41.9594 28.4376L40.5988 24.6761ZM36.4174 23.6092C34.9817 21.5001 33.1484 19.4373 31.742 17.6388L28.591 20.1028C30.2434 22.216 31.7588 23.8739 33.1109 25.8602L36.4174 23.6092ZM31.744 17.6412C31.3507 17.1366 31.1605 16.8098 31.0779 16.6119C31.0042 16.435 31.0729 16.499 31.0284 16.682C30.9849 16.8608 30.8997 16.8777 31.0594 16.7407C31.2334 16.5916 31.5629 16.3766 32.151 16.0927L30.4122 12.4904C29.6935 12.8374 29.0105 13.2285 28.4559 13.7041C27.887 14.1919 27.3571 14.852 27.1419 15.7362C26.9257 16.6246 27.096 17.4559 27.3862 18.1518C27.6677 18.8266 28.104 19.4779 28.5891 20.1003L31.744 17.6412ZM32.1449 16.0956C33.3329 15.5271 34.5095 15.0201 35.2759 14.6726L33.6245 11.0295C32.9539 11.3335 31.652 11.8971 30.4183 12.4875L32.1449 16.0956ZM35.1526 14.7237C50.0296 9.14257 64.839 12.8291 74.6625 24.3804L77.7095 21.7889C66.74 8.88997 50.1247 4.83468 33.7478 10.9785L35.1526 14.7237ZM41.7835 32.2031C33.1005 35.7798 29.325 44.5715 32.8884 53.1695L36.5835 51.6379C33.8921 45.1437 36.6091 38.6606 43.3068 35.9017L41.7835 32.2031ZM32.8888 53.1706C35.722 59.9954 44.6393 65.3302 54.1279 61.0654L52.4883 57.4169C45.2932 60.6508 38.655 56.6279 36.5831 51.6368L32.8888 53.1706ZM54.1289 61.0649C61.7633 57.6286 65.8356 48.5028 62.5192 40.7097L58.8387 42.2762C61.2269 47.8883 58.3174 54.7932 52.4873 57.4173L54.1289 61.0649ZM62.5321 40.7407C61.7454 38.8025 60.5798 37.0409 59.1036 35.559L56.2698 38.3822C57.3704 39.487 58.2393 40.8003 58.8258 42.2452L62.5321 40.7407ZM59.1036 35.559C57.6274 34.0772 55.8702 32.9049 53.9351 32.1109L52.4166 35.8115C53.8593 36.4035 55.1693 37.2774 56.2698 38.3822L59.1036 35.559ZM53.9351 32.1109C52 31.3168 49.9259 30.9171 47.8343 30.935L47.8684 34.935C49.4277 34.9216 50.974 35.2196 52.4166 35.8115L53.9351 32.1109ZM47.8343 30.935C45.7427 30.953 43.6757 31.3882 41.7544 32.2153L43.3359 35.8894C44.7682 35.2728 46.3091 34.9483 47.8684 34.935L47.8343 30.935ZM49.7246 51.5895C46.2994 52.9315 43.3543 51.5799 42.2904 48.7845L38.552 50.2075C40.5141 55.3629 45.9789 57.3531 51.1836 55.314L49.7246 51.5895ZM42.2904 48.7845C41.2306 46 42.511 43.0515 46.0004 41.7154L44.5703 37.9798C39.3556 39.9765 36.5858 45.0412 38.552 50.2075L42.2904 48.7845ZM46.0414 41.6993C46.6922 41.4335 47.3897 41.3006 48.0927 41.3085L48.1375 37.3086C46.901 37.2948 45.6742 37.5285 44.5294 37.996L46.0414 41.6993ZM48.0927 41.3085C48.7957 41.3163 49.49 41.4647 50.1348 41.745L51.7294 38.0765C50.5953 37.5835 49.374 37.3225 48.1375 37.3086L48.0927 41.3085ZM50.1348 41.745C50.7796 42.0253 51.3617 42.4317 51.8471 42.9404L54.7411 40.179C53.8874 39.2843 52.8634 38.5694 51.7294 38.0765L50.1348 41.745ZM51.8471 42.9404C52.3324 43.449 52.7111 44.0497 52.9608 44.7069L56.6999 43.2861C56.2607 42.1301 55.5947 41.0737 54.7411 40.179L51.8471 42.9404ZM52.9608 44.7069C53.2105 45.3642 53.3262 46.0648 53.301 46.7674L57.2984 46.9102C57.3426 45.6743 57.1391 44.4421 56.6999 43.2861L52.9608 44.7069ZM53.301 46.7674C53.2759 47.47 53.1105 48.1606 52.8145 48.7983L56.4426 50.4823C56.9633 49.3606 57.2542 48.146 57.2984 46.9102L53.301 46.7674ZM52.8145 48.7983C52.5185 49.436 52.0979 50.0081 51.5775 50.4808L54.2669 53.4417C55.1822 52.6102 55.922 51.604 56.4426 50.4823L52.8145 48.7983ZM51.5775 50.4808C51.0571 50.9535 50.4474 51.3174 49.7843 51.5509L51.1127 55.3239C52.2791 54.9131 53.3515 54.2732 54.2669 53.4417L51.5775 50.4808ZM48.5863 54.167L48.5919 54.1813L52.3163 52.7222L52.3106 52.7078L48.5863 54.167Z" fill="#F8E2A5" mask="url(#path-1-inside-1_1906_10)"/>
</svg>
