<svg width="65" height="64" viewBox="0 0 65 64" fill="none" xmlns="http://www.w3.org/2000/svg">
<path d="M62.7335 43.2835C61.5963 43.6327 60.8592 43.883 60.1105 44.084C59.4837 44.2526 58.844 44.3685 58.2089 44.5057C58.4669 45.0963 58.7546 45.6734 59.0709 46.2349C59.4842 46.7765 59.9334 47.2898 60.4155 47.7711L57.996 48.0301L56.0427 48.2411C56.2382 48.8188 56.453 49.3967 56.6172 49.9828C56.7814 50.569 56.8936 51.1601 57.0306 51.7454C56.4818 51.7102 55.9337 51.667 55.3777 51.6232C54.7031 51.5911 54.0279 51.567 53.3546 51.5382C53.4894 52.1474 53.6374 52.7514 53.7542 53.3639C53.8587 53.9157 53.9239 54.4752 54.0205 55.0262C53.4301 54.9535 52.845 54.8748 52.2585 54.812C51.4605 54.7398 50.6791 54.661 49.8877 54.5862C49.9423 55.3346 50.0268 56.0712 50.0223 56.7966C49.9885 57.2579 49.9196 57.7159 49.8162 58.1668C49.4064 58.1016 49.0057 57.9886 48.6221 57.8302C48.2178 57.6037 47.9253 57.191 47.5169 56.9738C46.6193 56.4902 45.9223 56.5285 46.0428 57.8284C46.19 58.7679 46.1746 59.7256 45.9973 60.6599C45.3706 60.2588 44.7554 59.8378 44.1158 59.4725C43.6513 59.2003 43.1544 58.9832 42.6756 58.7435C42.4857 59.2413 42.2706 59.7336 42.1086 60.2435C41.901 60.8829 41.74 61.5426 41.5564 62.1842C40.8831 61.7821 40.1998 61.3839 39.5394 60.9653C39.0868 60.6845 38.6465 60.3759 38.2034 60.0799C37.9537 60.5627 37.7073 61.0634 37.4708 61.5601C37.1838 62.1537 36.9093 62.7501 36.6302 63.3444L35.1488 61.7732L34.1679 60.7527C33.7838 61.1249 33.4252 61.5225 33.0946 61.9429C32.706 62.5032 32.4008 63.1193 32.0571 63.7158C31.6422 63.1085 31.2518 62.5148 30.816 61.9427C30.4957 61.5178 30.1151 61.1358 29.7586 60.7366C29.3988 61.0661 29.014 61.3708 28.6874 61.7259C28.1957 62.2688 27.7444 62.8459 27.2732 63.4115C26.9818 62.7559 26.7103 62.0925 26.3955 61.446C26.1672 60.9812 25.9197 60.2314 25.606 60.1773C25.1666 60.1069 24.5815 60.5094 24.1678 60.8485C23.825 61.1329 23.6889 61.6597 23.3737 61.9948C23.1424 62.2394 22.6296 62.5712 22.4865 62.481C22.1473 62.2399 21.9049 61.886 21.8028 61.4825C21.6975 61.0465 21.8961 60.5415 21.8027 60.0969C21.7094 59.6524 21.5047 59.1591 21.1982 59.0252C20.8917 58.8912 20.3879 59.1771 20.0654 59.4151C19.7429 59.653 19.4891 60.1643 19.1257 60.4452C18.8507 60.6569 18.2787 60.8964 18.1292 60.7702C17.8265 60.4747 17.6425 60.0785 17.6121 59.6565C17.5787 59.2077 17.8582 58.7325 17.8215 58.285C17.7952 57.8697 17.6147 57.4792 17.3156 57.19C17.1263 57.0409 16.5916 57.1888 16.3016 57.3525C15.8465 57.6154 15.5025 58.0735 15.0422 58.3231C14.8826 58.4151 14.7049 58.4713 14.5215 58.4881C14.338 58.5048 14.1531 58.4816 13.9794 58.42C13.7549 58.2694 13.688 57.7644 13.7079 57.4026C13.7278 57.0407 14.0174 56.6501 14.0641 56.2584C14.0894 55.783 14.0777 55.3063 14.029 54.8326C13.5532 54.8277 13.0779 54.8633 12.6081 54.939C12.2295 55.0335 11.9097 55.3666 11.531 55.4611C11.1206 55.5224 10.7047 55.5382 10.2909 55.5081C10.25 55.0888 10.2575 54.6661 10.3132 54.2485C10.405 53.8738 10.7586 53.5582 10.8459 53.1815C10.9331 52.8048 11.0328 52.1652 10.8162 51.9268C10.5996 51.6883 9.9894 51.7811 9.57445 51.8321C8.64661 51.9493 7.72359 52.1377 6.80143 52.2988C7.17824 51.5315 7.59554 50.7791 7.92257 49.9928C8.09883 49.5389 8.36512 48.8726 8.15856 48.6302C7.92441 48.3371 7.25204 48.3695 6.76565 48.2676C6.70717 48.2559 6.63884 48.3173 6.575 48.3115C5.75202 48.3132 4.93083 48.3129 4.11143 48.3106C4.57114 47.6763 5.07991 47.069 5.47402 46.395C5.6982 45.9123 5.87625 45.4095 6.00579 44.8934C5.56529 44.6877 5.09993 44.5401 4.62141 44.4543C4.17306 44.4298 3.71177 44.726 3.25733 44.7154C2.91534 44.707 2.34518 44.4993 2.29417 44.2806C2.26329 44.0739 2.27478 43.8631 2.32793 43.661C2.38108 43.4589 2.47479 43.2696 2.60335 43.1049C2.88326 42.7681 3.45157 42.6763 3.75933 42.3518C4.06238 41.9586 4.31722 41.5305 4.51842 41.0767C4.05866 40.7902 3.57558 40.543 3.0743 40.3377C2.79016 40.2412 2.40111 40.486 2.10016 40.4153C1.63961 40.269 1.19179 40.0853 0.761156 39.866C1.01936 39.3992 1.3244 38.9599 1.67156 38.5548C1.95295 38.2906 2.46193 38.3029 2.7439 38.05C3.10289 37.7285 3.58414 37.2474 3.5409 36.8717C3.52178 36.5675 2.87336 36.2288 2.44613 36.042C1.66728 35.7044 0.84711 35.4676 0.0439003 35.1857C0.795001 34.6567 1.55669 34.135 2.29792 33.5906C2.64315 33.3322 2.94948 33.0235 3.27293 32.739C2.9001 32.3339 2.50635 31.9486 2.09329 31.5846C1.56992 31.1623 0.990859 30.8041 0.435286 30.4175C1.05687 30.0392 1.70706 29.6652 2.32879 29.2677C2.76933 28.9873 3.18287 28.6675 3.61616 28.3784C3.25501 27.9772 2.91256 27.5648 2.5327 27.1747C2.07503 26.6843 1.60198 26.2038 1.13763 25.716C1.75826 25.4728 2.39923 25.2718 3.02449 25.0307C3.52166 24.8359 4.01765 24.6184 4.50625 24.4116C4.21383 23.8911 3.93344 23.362 3.61577 22.836C3.2724 22.2739 2.90164 21.7302 2.5429 21.1779C3.20449 21.0688 3.87189 20.9844 4.52839 20.8427C5.04358 20.7332 5.5486 20.5584 6.0574 20.413C5.89203 19.9073 5.69782 19.4115 5.47572 18.9281C5.32805 18.6395 4.97598 18.458 4.83962 18.1688C4.6953 17.784 4.58957 17.3858 4.52401 16.98C4.90739 16.8413 5.3096 16.7616 5.7169 16.7436C6.82605 16.8633 8.06364 17.8218 8.86257 16C8.45587 15.4412 8.07753 14.8624 7.729 14.2656C7.58319 13.8868 7.48866 13.4902 7.44793 13.0863C7.85374 12.9885 8.26648 12.922 8.68248 12.8874C8.93204 12.8859 9.15993 13.1238 9.4333 13.1437C10.0278 13.2071 10.616 13.2153 11.2208 13.2363C11.1452 12.6308 11.0777 12.026 10.9843 11.4044C10.8909 10.7829 10.7853 10.1891 10.6911 9.59483C11.2831 9.72083 11.8805 9.84088 12.4698 9.97951C13.0591 10.1181 13.6455 10.2887 14.2221 10.4246C14.2537 9.82717 14.3038 9.23791 14.2921 8.6382C14.2804 8.03849 14.2668 7.42412 14.2525 6.81774L16.1149 7.41598L17.8679 7.96086C17.9502 7.42438 18.0007 6.88502 18.1222 6.36014C18.2937 5.63862 18.5204 4.93013 18.7199 4.20149C19.2931 4.53499 19.8644 4.87314 20.443 5.2007C20.9309 5.46372 21.3982 5.72326 21.8768 5.98222C22.0957 5.43074 22.3285 4.88537 22.5322 4.32446C22.7358 3.76355 22.957 3.08031 23.1697 2.45425L24.5316 3.62194L25.9221 4.79383C26.235 4.21706 26.5711 3.65045 26.8548 3.05817C27.1385 2.46589 27.3388 1.90629 27.5982 1.28123C28.0795 1.52757 28.2117 1.56044 28.2823 1.65212C28.9486 2.46879 29.6041 3.29735 30.2617 4.12127C30.8119 3.30528 31.3429 2.46986 31.9236 1.67272C32.1667 1.40755 32.4397 1.17143 32.7372 0.969079C33.0985 1.31843 33.4143 1.71198 33.6771 2.14042C34.0625 2.96706 33.8285 4.32503 35.4429 3.96583L35.6547 3.6519L37.2717 1.3441C37.5828 2.13827 37.8618 2.94885 38.2437 3.70759C38.4292 4.10585 38.7469 4.42751 39.1429 4.61776C39.3593 4.6985 39.8103 4.35631 40.0631 4.08791C40.3723 3.74738 40.503 3.24585 40.836 2.92678C41.116 2.65925 41.6226 2.36071 41.9088 2.45259C42.1949 2.54447 42.3587 3.10001 42.4624 3.48275C42.5441 3.78946 42.3663 4.17086 42.4634 4.4677C42.6415 4.95968 42.8547 5.43826 43.1013 5.89977C43.5274 5.6905 43.9791 5.51737 44.3915 5.26342C45.173 4.77251 45.9174 4.24606 46.6917 3.72715L47.0764 4.18844C46.8285 4.90702 46.6385 5.64429 46.5083 6.3932C46.4653 6.83346 46.6333 7.53745 46.9382 7.70667C47.2431 7.87588 47.8561 7.57411 48.3163 7.43231C48.4898 7.36433 48.6177 7.16024 48.794 7.07963C49.4043 6.79049 50.0251 6.52804 50.6432 6.25892C50.6532 6.91319 50.6485 7.56936 50.6811 8.22245C50.7137 8.87555 50.767 9.42432 50.824 10.0217C51.35 9.88101 51.8707 9.7463 52.4015 9.60766C53.1002 9.42629 53.8222 9.23578 54.9876 8.92929C54.65 9.79671 54.5393 10.0248 54.4756 10.2846C54.2427 11.1148 54.0238 11.9512 53.7969 12.7867C54.5776 12.6772 55.3539 12.527 56.1368 12.482C56.6182 12.4984 57.0969 12.5595 57.567 12.6645C57.4612 13.1216 57.3761 13.5822 57.2358 14.0298C57.1793 14.2097 56.9468 14.3432 56.9049 14.5212C56.7683 15.1059 56.6822 15.7016 56.5755 16.2938C57.1303 16.3151 57.6818 16.3376 58.2341 16.3522C58.7863 16.3668 59.4337 16.3787 60.0359 16.393L59.2831 18.1851L58.5778 19.8432C59.189 19.9887 59.7944 20.1094 60.4023 20.2562C61.0101 20.4029 61.5713 20.568 62.1466 20.7005L61.1385 22.1848L60.0887 23.7199C60.7106 23.9613 61.3357 24.2013 61.9568 24.4507C62.5779 24.7 63.1545 24.9437 64.2771 25.4122C63.1603 25.9999 62.6493 26.1693 62.2556 26.5006C61.8304 26.9218 61.4414 27.3781 61.0926 27.8646C61.6067 28.1943 62.1221 28.5274 62.6522 28.8393C63.1824 29.1512 63.6888 29.4224 64.2098 29.7109C63.7691 30.1184 63.3368 30.5379 62.8875 30.9334C62.3933 31.3618 61.8787 31.7674 61.3759 32.1837L62.8301 33.2922L64.2185 34.3802C63.7231 34.6974 63.2316 35.0247 62.7342 35.3466C62.1747 35.6967 61.6113 36.0367 61.0531 36.3901C61.4825 36.8377 61.9239 37.2768 62.3492 37.7337C62.7745 38.1906 63.1207 38.6323 63.5061 39.0856C62.9455 39.3052 62.3783 39.5275 61.8208 39.6959C61.4307 39.7929 61.035 39.8657 60.636 39.9137C59.3748 40.123 59.447 40.9068 60.1004 41.5823C60.6353 42.1618 61.4614 42.4924 62.7335 43.2835ZM24.7676 35.4489C26.4001 39.5475 30.9303 41.356 35.2497 39.6098C39.1767 38.0212 41.2261 33.3001 39.6489 29.4801C38.0364 25.5701 33.4179 23.546 29.5096 25.0349C25.1262 26.706 23.0749 31.2162 24.7689 35.4523L24.7676 35.4489ZM9.58994 34.2747C10.5823 36.9651 13.3636 38.2195 16.0889 37.1787C18.7106 36.1785 20.0415 33.3862 19.0953 30.8625C18.07 28.1272 15.3502 26.9219 12.5796 27.9843C9.80893 29.0467 8.61389 31.6357 9.59124 34.2781L9.58994 34.2747ZM34.6962 10.7747C31.9735 11.8414 30.7156 14.4665 31.6973 17.061C32.7168 19.7716 35.4826 20.9666 38.2387 19.8868C40.9948 18.807 42.2256 16.0539 41.1532 13.3948C40.1117 10.7853 37.4369 9.70474 34.6962 10.7747ZM40.7638 47.6339C40.4336 46.6814 39.828 45.8485 39.0238 45.2408C38.2196 44.6331 37.253 44.2779 36.2467 44.2203C35.2403 44.1628 34.2395 44.4054 33.3712 44.9174C32.5029 45.4294 31.8063 46.1878 31.3696 47.0964C30.9329 48.0049 30.7758 49.0227 30.9183 50.0206C31.0608 51.0185 31.4965 51.9516 32.1701 52.7016C32.8436 53.4515 33.7247 53.9845 34.7016 54.233C35.6785 54.4814 36.7072 54.4342 37.6572 54.0971C38.2924 53.8866 38.8787 53.5504 39.3812 53.1084C39.8837 52.6665 40.292 52.1279 40.5819 51.5247C40.8719 50.9216 41.0374 50.2663 41.0686 49.5978C41.0998 48.9293 40.9962 48.2614 40.7638 47.6339ZM22.6562 50.7213C23.2724 50.5114 23.8407 50.1807 24.3278 49.7488C24.8148 49.3168 25.211 48.7922 25.4931 48.2055C25.7753 47.6188 25.9378 46.9817 25.9711 46.3315C26.0044 45.6814 25.9079 45.0311 25.6872 44.4186C25.2135 43.1908 24.2741 42.1997 23.0735 41.661C21.8728 41.1222 20.508 41.0794 19.2759 41.5418C16.4313 42.6217 15.1194 45.2757 16.1072 47.9448C17.095 50.6139 19.7759 51.769 22.6562 50.7213ZM22.8987 23.368C25.727 22.2368 27.0732 19.5424 26.0967 16.9612C25.1203 14.3801 22.1202 13.1961 19.2644 14.3457C18.068 14.8277 17.1121 15.7652 16.6069 16.9521C16.1018 18.1389 16.0887 19.4777 16.5706 20.6742C17.0526 21.8706 17.99 22.8266 19.1768 23.3317C20.3635 23.8369 21.7023 23.8499 22.8987 23.368ZM43.5053 41.7909C44.5509 44.3912 47.3837 45.5214 50.1684 44.4458C51.396 43.9812 52.3889 43.0478 52.9284 41.8512C53.468 40.6545 53.5101 39.2925 53.0455 38.0648C52.5809 36.837 51.6476 35.8442 50.451 35.3046C49.2544 34.765 47.8925 34.7229 46.6649 35.1876C43.8078 36.2454 42.4344 39.1159 43.5053 41.7909ZM43.8726 26.6053C44.8447 28.9495 47.9212 30.2498 50.2578 29.3074C52.7098 28.316 54.0298 25.1815 53.0108 22.7864C51.9917 20.3913 48.9833 19.1567 46.6256 20.0842C44.1944 21.0406 42.867 24.1856 43.8726 26.6053Z" fill="#F8E2A5"/>
</svg>
