<svg width="229" height="222" viewBox="0 0 229 222" fill="none" xmlns="http://www.w3.org/2000/svg">
<path d="M125.733 191.283C124.596 191.633 123.859 191.883 123.11 192.084C122.484 192.253 121.844 192.368 121.209 192.506C121.467 193.096 121.755 193.673 122.071 194.235C122.484 194.777 122.933 195.29 123.416 195.771L120.996 196.03L119.043 196.241C119.238 196.819 119.453 197.397 119.617 197.983C119.781 198.569 119.894 199.16 120.031 199.745C119.482 199.71 118.934 199.667 118.378 199.623C117.703 199.591 117.028 199.567 116.355 199.538C116.489 200.147 116.637 200.751 116.754 201.364C116.859 201.916 116.924 202.475 117.02 203.026C116.43 202.953 115.845 202.875 115.259 202.812C114.46 202.74 113.679 202.661 112.888 202.586C112.942 203.335 113.027 204.071 113.022 204.797C112.988 205.258 112.92 205.716 112.816 206.167C112.406 206.102 112.006 205.989 111.622 205.83C111.218 205.604 110.925 205.191 110.517 204.974C109.619 204.49 108.922 204.529 109.043 205.828C109.19 206.768 109.175 207.726 108.997 208.66C108.371 208.259 107.755 207.838 107.116 207.473C106.651 207.2 106.154 206.983 105.676 206.744C105.486 207.241 105.271 207.734 105.109 208.244C104.901 208.883 104.74 209.543 104.556 210.184C103.883 209.782 103.2 209.384 102.539 208.965C102.087 208.685 101.647 208.376 101.203 208.08C100.954 208.563 100.707 209.063 100.471 209.56C100.184 210.154 99.9093 210.75 99.6302 211.344L98.1488 209.773L97.1679 208.753C96.7838 209.125 96.4252 209.523 96.0946 209.943C95.706 210.503 95.4008 211.119 95.0571 211.716C94.6422 211.109 94.2518 210.515 93.816 209.943C93.4957 209.518 93.1151 209.136 92.7586 208.737C92.3988 209.066 92.014 209.371 91.6874 209.726C91.1957 210.269 90.7444 210.846 90.2732 211.412C89.9818 210.756 89.7103 210.092 89.3955 209.446C89.1672 208.981 88.9197 208.231 88.606 208.177C88.1666 208.107 87.5815 208.509 87.1678 208.849C86.825 209.133 86.6889 209.66 86.3737 209.995C86.1424 210.239 85.6296 210.571 85.4865 210.481C85.1473 210.24 84.9049 209.886 84.8028 209.483C84.6975 209.047 84.8961 208.541 84.8027 208.097C84.7094 207.652 84.5047 207.159 84.1982 207.025C83.8917 206.891 83.3879 207.177 83.0654 207.415C82.7429 207.653 82.4891 208.164 82.1257 208.445C81.8507 208.657 81.2787 208.896 81.1292 208.77C80.8265 208.475 80.6425 208.078 80.6121 207.656C80.5787 207.208 80.8582 206.733 80.8215 206.285C80.7952 205.87 80.6147 205.479 80.3156 205.19C80.1263 205.041 79.5916 205.189 79.3016 205.352C78.8465 205.615 78.5025 206.074 78.0422 206.323C77.8826 206.415 77.7049 206.471 77.5215 206.488C77.338 206.505 77.1531 206.482 76.9794 206.42C76.7549 206.269 76.688 205.764 76.7079 205.403C76.7278 205.041 77.0174 204.65 77.0641 204.258C77.0894 203.783 77.0777 203.306 77.029 202.833C76.5532 202.828 76.0779 202.863 75.6081 202.939C75.2295 203.033 74.9097 203.367 74.531 203.461C74.1206 203.522 73.7047 203.538 73.2909 203.508C73.25 203.089 73.2575 202.666 73.3132 202.248C73.405 201.874 73.7586 201.558 73.8459 201.181C73.9331 200.805 74.0328 200.165 73.8162 199.927C73.5996 199.688 72.9894 199.781 72.5745 199.832C71.6466 199.949 70.7236 200.138 69.8014 200.299C70.1782 199.532 70.5955 198.779 70.9226 197.993C71.0988 197.539 71.3651 196.873 71.1586 196.63C70.9244 196.337 70.252 196.37 69.7656 196.268C69.7072 196.256 69.6388 196.317 69.575 196.311C68.752 196.313 67.9308 196.313 67.1114 196.311C67.5711 195.676 68.0799 195.069 68.474 194.395C68.6982 193.912 68.8762 193.41 69.0058 192.893C68.5653 192.688 68.0999 192.54 67.6214 192.454C67.1731 192.43 66.7118 192.726 66.2573 192.715C65.9153 192.707 65.3452 192.499 65.2942 192.281C65.2633 192.074 65.2748 191.863 65.3279 191.661C65.3811 191.459 65.4748 191.27 65.6034 191.105C65.8833 190.768 66.4516 190.676 66.7593 190.352C67.0624 189.959 67.3172 189.531 67.5184 189.077C67.0587 188.79 66.5756 188.543 66.0743 188.338C65.7902 188.241 65.4011 188.486 65.1002 188.415C64.6396 188.269 64.1918 188.085 63.7612 187.866C64.0194 187.399 64.3244 186.96 64.6716 186.555C64.9529 186.291 65.4619 186.303 65.7439 186.05C66.1029 185.728 66.5841 185.247 66.5409 184.872C66.5218 184.567 65.8734 184.229 65.4461 184.042C64.6673 183.704 63.8471 183.468 63.0439 183.186C63.795 182.657 64.5567 182.135 65.2979 181.591C65.6431 181.332 65.9495 181.024 66.2729 180.739C65.9001 180.334 65.5064 179.949 65.0933 179.585C64.5699 179.162 63.9909 178.804 63.4353 178.417C64.0569 178.039 64.7071 177.665 65.3288 177.268C65.7693 176.987 66.1829 176.667 66.6162 176.378C66.255 175.977 65.9126 175.565 65.5327 175.175C65.075 174.684 64.602 174.204 64.1376 173.716C64.7583 173.473 65.3992 173.272 66.0245 173.031C66.5217 172.836 67.0176 172.618 67.5062 172.412C67.2138 171.891 66.9334 171.362 66.6158 170.836C66.2724 170.274 65.9016 169.73 65.5429 169.178C66.2045 169.069 66.8719 168.984 67.5284 168.843C68.0436 168.733 68.5486 168.558 69.0574 168.413C68.892 167.907 68.6978 167.412 68.4757 166.928C68.3281 166.64 67.976 166.458 67.8396 166.169C67.6953 165.784 67.5896 165.386 67.524 164.98C67.9074 164.841 68.3096 164.762 68.7169 164.744C69.8261 164.863 71.0636 165.822 71.8626 164C71.4559 163.441 71.0775 162.862 70.729 162.266C70.5832 161.887 70.4887 161.49 70.4479 161.086C70.8537 160.988 71.2665 160.922 71.6825 160.887C71.932 160.886 72.1599 161.124 72.4333 161.144C73.0278 161.207 73.616 161.215 74.2208 161.236C74.1452 160.631 74.0777 160.026 73.9843 159.404C73.8909 158.783 73.7853 158.189 73.6911 157.595C74.2831 157.721 74.8805 157.841 75.4698 157.98C76.0591 158.118 76.6455 158.289 77.2221 158.425C77.2537 157.827 77.3038 157.238 77.2921 156.638C77.2804 156.038 77.2668 155.424 77.2525 154.818L79.1149 155.416L80.8679 155.961C80.9502 155.424 81.0007 154.885 81.1222 154.36C81.2937 153.639 81.5204 152.93 81.7199 152.201C82.2931 152.535 82.8644 152.873 83.443 153.201C83.9309 153.464 84.3982 153.723 84.8768 153.982C85.0957 153.431 85.3285 152.885 85.5322 152.324C85.7358 151.764 85.957 151.08 86.1697 150.454L87.5316 151.622L88.9221 152.794C89.235 152.217 89.5711 151.65 89.8548 151.058C90.1385 150.466 90.3388 149.906 90.5982 149.281C91.0795 149.528 91.2117 149.56 91.2823 149.652C91.9486 150.469 92.6041 151.297 93.2617 152.121C93.8119 151.305 94.3429 150.47 94.9236 149.673C95.1667 149.408 95.4397 149.171 95.7372 148.969C96.0985 149.318 96.4143 149.712 96.6771 150.14C97.0625 150.967 96.8285 152.325 98.4429 151.966L98.6547 151.652L100.272 149.344C100.583 150.138 100.862 150.949 101.244 151.708C101.429 152.106 101.747 152.428 102.143 152.618C102.359 152.698 102.81 152.356 103.063 152.088C103.372 151.747 103.503 151.246 103.836 150.927C104.116 150.659 104.623 150.361 104.909 150.453C105.195 150.544 105.359 151.1 105.462 151.483C105.544 151.789 105.366 152.171 105.463 152.468C105.642 152.96 105.855 153.438 106.101 153.9C106.527 153.691 106.979 153.517 107.392 153.263C108.173 152.773 108.917 152.246 109.692 151.727L110.076 152.188C109.829 152.907 109.639 153.644 109.508 154.393C109.465 154.833 109.633 155.537 109.938 155.707C110.243 155.876 110.856 155.574 111.316 155.432C111.49 155.364 111.618 155.16 111.794 155.08C112.404 154.79 113.025 154.528 113.643 154.259C113.653 154.913 113.648 155.569 113.681 156.222C113.714 156.876 113.767 157.424 113.824 158.022C114.35 157.881 114.871 157.746 115.401 157.608C116.1 157.426 116.822 157.236 117.988 156.929C117.65 157.797 117.539 158.025 117.476 158.285C117.243 159.115 117.024 159.951 116.797 160.787C117.578 160.677 118.354 160.527 119.137 160.482C119.618 160.498 120.097 160.56 120.567 160.665C120.461 161.122 120.376 161.582 120.236 162.03C120.179 162.21 119.947 162.343 119.905 162.521C119.768 163.106 119.682 163.702 119.575 164.294C120.13 164.315 120.682 164.338 121.234 164.352C121.786 164.367 122.434 164.379 123.036 164.393L122.283 166.185L121.578 167.843C122.189 167.989 122.794 168.109 123.402 168.256C124.01 168.403 124.571 168.568 125.147 168.701L124.139 170.185L123.089 171.72C123.711 171.961 124.336 172.201 124.957 172.451C125.578 172.7 126.155 172.944 127.277 173.412C126.16 174 125.649 174.169 125.256 174.501C124.83 174.922 124.441 175.378 124.093 175.865C124.607 176.194 125.122 176.527 125.652 176.839C126.182 177.151 126.689 177.422 127.21 177.711C126.769 178.118 126.337 178.538 125.887 178.933C125.393 179.362 124.879 179.767 124.376 180.184L125.83 181.292L127.218 182.38C126.723 182.697 126.232 183.025 125.734 183.347C125.175 183.697 124.611 184.037 124.053 184.39C124.482 184.838 124.924 185.277 125.349 185.734C125.774 186.191 126.121 186.632 126.506 187.086C125.946 187.305 125.378 187.527 124.821 187.696C124.431 187.793 124.035 187.866 123.636 187.914C122.375 188.123 122.447 188.907 123.1 189.582C123.635 190.162 124.461 190.492 125.733 191.283ZM87.7676 183.449C89.4001 187.547 93.9303 189.356 98.2497 187.61C102.177 186.021 104.226 181.3 102.649 177.48C101.036 173.57 96.4179 171.546 92.5096 173.035C88.1262 174.706 86.0749 179.216 87.7689 183.452L87.7676 183.449ZM72.5899 182.275C73.5823 184.965 76.3636 186.219 79.0889 185.179C81.7106 184.178 83.0415 181.386 82.0953 178.862C81.07 176.127 78.3502 174.922 75.5796 175.984C72.8089 177.047 71.6139 179.636 72.5912 182.278L72.5899 182.275ZM97.6962 158.775C94.9735 159.841 93.7156 162.467 94.6973 165.061C95.7168 167.772 98.4826 168.967 101.239 167.887C103.995 166.807 105.226 164.054 104.153 161.395C103.112 158.785 100.437 157.705 97.6962 158.775ZM103.764 195.634C103.434 194.681 102.828 193.849 102.024 193.241C101.22 192.633 100.253 192.278 99.2467 192.22C98.2403 192.163 97.2395 192.405 96.3712 192.917C95.5029 193.429 94.8063 194.188 94.3696 195.096C93.9329 196.005 93.7758 197.023 93.9183 198.021C94.0608 199.019 94.4965 199.952 95.1701 200.702C95.8436 201.452 96.7247 201.985 97.7016 202.233C98.6785 202.481 99.7072 202.434 100.657 202.097C101.292 201.887 101.879 201.55 102.381 201.108C102.884 200.666 103.292 200.128 103.582 199.525C103.872 198.922 104.037 198.266 104.069 197.598C104.1 196.929 103.996 196.261 103.764 195.634ZM85.6562 198.721C86.2724 198.511 86.8407 198.181 87.3278 197.749C87.8148 197.317 88.211 196.792 88.4931 196.205C88.7753 195.619 88.9378 194.982 88.9711 194.332C89.0044 193.681 88.9079 193.031 88.6872 192.419C88.2135 191.191 87.2741 190.2 86.0735 189.661C84.8728 189.122 83.508 189.079 82.2759 189.542C79.4313 190.622 78.1194 193.276 79.1072 195.945C80.095 198.614 82.7759 199.769 85.6562 198.721ZM85.8987 171.368C88.727 170.237 90.0732 167.542 89.0967 164.961C88.1203 162.38 85.1202 161.196 82.2644 162.346C81.068 162.828 80.1121 163.765 79.6069 164.952C79.1018 166.139 79.0887 167.478 79.5706 168.674C80.0526 169.871 80.99 170.827 82.1768 171.332C83.3635 171.837 84.7023 171.85 85.8987 171.368ZM106.505 189.791C107.551 192.391 110.384 193.521 113.168 192.446C114.396 191.981 115.389 191.048 115.928 189.851C116.468 188.654 116.51 187.292 116.046 186.065C115.581 184.837 114.648 183.844 113.451 183.305C112.254 182.765 110.893 182.723 109.665 183.188C106.808 184.245 105.434 187.116 106.505 189.791ZM106.873 174.605C107.845 176.949 110.921 178.25 113.258 177.307C115.71 176.316 117.03 173.182 116.011 170.786C114.992 168.391 111.983 167.157 109.626 168.084C107.194 169.041 105.867 172.186 106.873 174.605Z" fill="#F8E2A5"/>

<path d="M120.672 62.5416L118.397 67.3372L114.632 64.2055C114.13 64.9025 113.677 65.6342 113.278 66.3952C112.932 67.268 112.643 68.1626 112.414 69.0732C111.58 68.6255 110.776 68.1111 109.912 67.7415C109.216 67.4612 108.312 66.9747 107.73 67.1972C107.148 67.4197 106.724 68.3548 106.524 69.0581C106.313 70.0719 106.179 71.1003 106.125 72.1344C105.082 71.6469 104.034 71.1728 102.992 70.6739C102.664 70.5147 102.352 70.3107 101.11 69.5971C101.141 71.3272 101.203 72.4034 101.15 73.453C101.113 74.1919 101.123 75.0784 100.723 75.5948C100.505 75.8735 99.4607 75.5361 98.8036 75.4396C97.8439 75.2626 96.9081 75.0761 95.958 74.8953L96.0383 77.7121L96.0811 80.0237C95.3193 79.9848 94.4931 80.1204 93.8083 79.8688C92.1899 79.2807 90.8447 79.1219 90.0945 81.2021C90.4462 81.6004 90.7511 82.0376 91.0031 82.5053C91.3206 83.3156 91.5459 84.173 91.8028 85.0125C90.8611 85.1215 89.913 85.1999 88.9786 85.3558C88.2281 85.4729 87.4896 85.6627 86.7493 85.82C87.0152 86.6117 87.2542 87.4196 87.5537 88.1982C87.8532 88.9768 88.2329 89.7626 88.5839 90.5598C87.7761 90.7988 86.9357 91.3217 86.1724 91.2225C84.5178 91.008 83.5581 91.3674 83.5796 93.173C84.3278 94.5888 87.5324 94.7933 86.1058 96.9395C84.2807 97.5605 82.3832 97.6292 81.9123 98.4884C80.8089 100.486 83.5191 100.303 84.115 101.358C84.4436 101.943 84.1449 103.199 83.6787 103.802C83.3101 104.273 82.189 104.065 81.5249 104.403C80.9865 104.68 80.3079 105.306 80.291 105.799C80.3441 106.121 80.4716 106.426 80.6633 106.689C80.8549 106.953 81.1055 107.169 81.3951 107.319C82.3467 107.692 83.3333 107.968 84.34 108.145L84.7402 109.011C83.7183 109.649 82.6538 110.221 81.6981 110.944C81.1232 111.467 80.5989 112.042 80.1321 112.664C80.7214 113.152 81.2808 113.69 81.9097 114.124C82.7994 114.743 83.7469 115.285 85.151 116.172C83.7727 116.889 83.1615 117.051 82.7868 117.436C82.2263 118.087 81.7133 118.778 81.2517 119.503C81.9697 119.924 82.6952 120.364 83.4411 120.758C84.187 121.151 84.9695 121.497 85.7338 121.867C85.2456 122.612 84.725 123.33 84.274 124.098C83.9023 124.731 83.6134 125.419 83.2922 126.081C83.9594 126.373 84.6492 126.722 85.3388 126.972C86.242 127.287 87.1688 127.521 88.0858 127.787C87.6863 128.574 87.2381 129.336 86.9034 130.147C86.6118 130.814 86.0807 131.802 86.3386 132.249C86.5964 132.695 87.7106 132.928 88.4199 132.96C89.1292 132.992 89.8748 132.622 91.2725 132.251C91.1021 133.496 91.0067 134.396 90.8571 135.257C90.6607 136.252 90.3821 137.235 90.138 138.221C91.1874 138.147 92.2315 138.031 93.2739 138.01C94.3163 137.989 95.2126 138.074 95.8214 138.118C95.3312 140.212 94.2718 142.082 94.8069 142.94C96.0879 144.982 97.2651 142.425 98.5822 142.229C99.1728 142.142 100.106 142.081 100.308 142.399C100.476 142.7 100.583 143.032 100.622 143.374C100.661 143.717 100.632 144.064 100.537 144.395C100.128 145.822 99.4245 147.203 101.47 147.696C102.764 146.962 104.158 145.537 105.111 145.766C107.339 146.331 105.647 148.321 105.852 149.662C105.921 149.915 106.051 150.148 106.231 150.338C106.411 150.529 106.635 150.673 106.883 150.757C107.405 150.818 108.016 150.457 108.531 150.178C109.445 149.687 110.325 149.11 111.22 148.571C111.509 149.564 111.735 150.549 112.095 151.497C112.339 152.12 112.641 153.003 113.129 153.177C113.617 153.351 114.403 152.844 114.937 152.469C115.803 151.858 116.541 151.116 117.332 150.424C117.773 151.451 118.243 152.467 118.646 153.51C118.772 153.831 118.72 154.222 118.831 155.649C120.365 154.495 121.363 153.811 122.284 153.041C122.914 152.468 123.515 151.863 124.085 151.229C124.601 151.94 125.104 152.661 125.65 153.348C126.137 153.97 126.673 154.546 127.189 155.145C127.816 154.547 128.392 153.898 128.912 153.204C129.256 152.671 129.323 151.937 129.794 150.486C130.868 151.547 131.881 152.129 132.225 152.979C132.852 154.58 133.683 155.063 135.256 154.28C135.271 153.882 135.331 153.487 135.437 153.103C135.84 152.127 136.304 151.182 136.747 150.223C137.438 150.871 138.167 151.478 138.93 152.039C139.563 152.455 140.514 153.077 141.008 152.884C141.66 152.601 142.094 151.646 142.445 150.905C142.817 150.037 143.137 149.147 143.403 148.24C144.142 148.679 144.903 149.081 145.683 149.443C146.586 149.814 147.541 150.064 148.453 150.36L148.786 145.562C149.975 146.058 151.144 146.612 152.358 147.016C152.796 147.159 153.627 147.121 153.795 146.857C154.112 146.245 154.29 145.571 154.315 144.883C154.427 143.855 154.424 142.816 154.467 141.782C155.366 142.122 156.293 142.386 157.237 142.571C158.081 142.729 158.953 142.628 159.739 142.282C160.059 142.096 159.826 140.893 159.775 140.156C159.715 139.228 159.599 138.295 159.476 137.375C160.409 137.413 161.341 137.49 162.285 137.486C163.036 137.484 163.791 137.393 164.543 137.336C164.513 136.623 164.443 135.912 164.334 135.206C164.128 134.214 163.818 133.24 163.555 132.259C164.6 132.259 165.647 132.247 166.693 132.28C167.361 132.371 168.022 132.5 168.675 132.665C168.238 131.21 167.984 130.253 167.657 129.319C167.366 128.504 166.981 127.72 166.651 126.948C167.469 126.722 168.299 126.524 169.109 126.262C169.919 126 170.672 125.65 171.453 125.343C171.114 124.675 170.811 123.986 170.43 123.339C169.955 122.535 169.428 121.768 168.921 120.982C169.794 120.585 170.673 120.19 171.544 119.788C172.526 119.343 173.5 118.895 174.647 118.363L170.811 114.838C171.897 114.295 172.955 113.696 173.979 113.044C174.229 112.879 174.441 112.663 174.6 112.41C174.759 112.157 174.863 111.872 174.903 111.576C174.873 111.09 174.277 110.571 173.809 110.196C172.992 109.521 172.128 108.925 171.274 108.297C172.23 107.646 173.186 106.995 174.144 106.349C174.382 106.201 174.628 106.066 174.881 105.944C175.32 104.24 174.612 103.521 172.956 103.247C172.188 103.122 171.522 102.409 170.797 101.969C171.306 101.377 171.839 100.803 172.311 100.187C172.882 99.443 173.397 98.6549 173.943 97.8881C173.175 97.5364 172.394 97.1952 171.633 96.8188C170.871 96.4424 170.128 96.0259 169.373 95.6246C169.798 94.9717 170.251 94.3351 170.645 93.6609C171.1 92.8743 171.502 92.0529 171.913 91.2506C171.082 91.0229 170.258 90.8535 169.448 90.6067C168.638 90.36 167.85 90.0551 167.049 89.7768C167.361 89.0628 167.68 88.3517 167.987 87.6396C168.295 86.9275 168.645 86.0713 168.975 85.2895C168.063 85.0936 167.161 84.8941 166.239 84.702C165.318 84.5099 164.557 84.3878 163.713 84.2374C163.976 83.4982 164.097 82.6212 164.571 82.0375C165.686 80.6493 165.705 79.5966 164.039 78.6897C163.766 78.8275 163.48 78.9395 163.186 79.024C162.146 79.1935 161.066 79.3455 160.007 79.5063C160.248 78.482 160.413 77.4412 160.501 76.3924C160.46 75.6172 160.333 74.8489 160.124 74.1014C158.071 74.5076 156.678 74.7931 155.298 75.0683C155.33 73.6513 155.367 72.2373 155.422 70.2028C154.581 70.2146 153.743 70.2989 152.916 70.4546C151.741 70.8117 150.584 71.2279 149.45 71.7018L149.252 67.991C149.244 67.8007 149.268 67.6086 149.314 66.5121C148.053 67.0062 147.119 67.317 146.232 67.7199C145.447 68.0882 144.725 68.5756 143.973 69.0139C143.626 68.1269 143.363 67.2013 142.962 66.3464C142.56 65.4916 142.009 64.6624 141.323 63.4765L138.337 67.81C137.638 66.845 137.082 66.1449 136.606 65.3966C136.068 64.5455 135.604 63.6433 135.108 62.7591C134.451 63.4534 133.828 64.1786 133.149 64.8154C132.607 65.3098 131.993 65.9872 131.375 66.0631C130.979 66.0967 130.466 65.153 130.069 64.6061C129.528 63.8448 129.057 63.0392 128.555 62.2515C127.746 63.0108 126.927 63.7412 126.185 64.5296C125.659 65.0786 125.224 65.7191 124.749 66.3143C124.169 65.8225 123.574 65.3478 123.015 64.837C122.27 64.0504 121.483 63.2856 120.672 62.5416ZM106.733 139.418C100.375 135.089 95.6394 129.451 92.8924 122.198C88.9952 111.713 89.6571 101.488 94.9157 91.6462C96.1601 89.3171 98.0665 87.3369 99.7224 85.2392C100.872 83.7824 102.219 83.835 103.35 85.1952C105.491 87.7684 107.777 90.2852 109.47 93.1393C110.14 94.2705 109.906 96.5409 109.197 97.7924C104.242 106.547 105.372 117.027 112.69 123.932C115.261 126.36 115.677 128.525 114.149 131.485C113.014 133.683 112.029 135.955 111.041 138.233C110.054 140.511 108.663 140.73 106.733 139.418ZM152.608 108.929C155.378 108.236 158.266 107.984 161.111 107.611C164.235 107.2 164.839 107.809 164.626 111.007C163.628 125.655 153.898 138.072 139.784 142.983C133.981 145.067 127.753 145.681 121.654 144.771C118.529 144.303 118.03 143.481 119.14 140.485C120.115 137.891 121.119 135.286 122.23 132.716C122.669 131.72 123.48 130.882 124.053 130.071C125.257 130.009 126.11 129.929 126.966 129.926C136.53 129.889 144.036 124.853 147.567 116.08C148.202 114.51 148.576 112.782 149.481 111.393C150.211 110.239 151.315 109.369 152.608 108.929ZM133.133 122.46C125.007 125.644 116.487 122.08 113.426 114.237C110.365 106.394 114.278 98.0581 122.43 94.8696C126.08 93.4276 130.152 93.4849 133.76 95.0291C137.369 96.5733 140.221 99.4795 141.698 103.116C144.82 110.648 140.92 119.426 133.133 122.46ZM156.186 85.0846C158.755 88.2133 160.997 91.5976 162.874 95.1844C164.265 97.7475 163.27 99.1604 160.434 99.6136C157.598 100.067 154.734 100.309 151.926 100.878C149.54 101.365 147.935 100.501 146.982 98.463C142.632 89.1947 129.41 85.6092 121.279 88.5569C118.697 89.4909 116.48 89.2648 114.764 86.7347C113.37 84.687 111.696 82.8267 110.167 80.8708C108.41 78.6168 108.668 77.5534 111.282 76.2916C112.492 75.7121 113.732 75.1768 114.45 74.8511C130.077 68.9886 145.789 72.8595 156.186 85.0846Z"/>

<path d="M122.545 96.0524C114.855 99.2202 111.609 106.858 114.736 114.404C117.188 120.312 124.966 124.99 133.308 121.241C140.04 118.211 143.531 110.196 140.679 103.493C139.992 101.801 138.975 100.264 137.687 98.9706C136.398 97.6773 134.865 96.6542 133.176 95.9612C131.487 95.2682 129.677 94.9193 127.851 94.935C126.026 94.9507 124.222 95.3305 122.545 96.0524ZM130.454 115.452C126.139 117.142 121.934 115.471 120.421 111.496C118.908 107.521 120.933 103.514 125.285 101.848C126.183 101.481 127.145 101.298 128.115 101.309C129.085 101.319 130.043 101.524 130.932 101.911C131.821 102.297 132.625 102.858 133.294 103.56C133.964 104.261 134.486 105.09 134.83 105.997C135.175 106.903 135.334 107.87 135.3 108.839C135.265 109.808 135.037 110.761 134.629 111.64C134.22 112.52 133.64 113.309 132.922 113.961C132.204 114.613 131.363 115.115 130.448 115.437L130.454 115.452Z"/>

<path d="M120.672 62.5416L122.024 61.0675L120.027 59.2358L118.865 61.6845L120.672 62.5416ZM118.397 67.3372L117.119 68.8749L119.1 70.523L120.204 68.1943L118.397 67.3372ZM114.632 64.2055L115.911 62.6678L114.264 61.2972L113.01 63.0358L114.632 64.2055ZM113.278 66.3952L111.507 65.4661L111.458 65.5594L111.419 65.6574L113.278 66.3952ZM112.414 69.0732L111.467 70.8352L113.727 72.049L114.353 69.5614L112.414 69.0732ZM109.912 67.7415L110.699 65.9027L110.679 65.8943L110.659 65.8863L109.912 67.7415ZM106.524 69.0581L104.6 68.5109L104.58 68.5803L104.565 68.651L106.524 69.0581ZM106.125 72.1344L105.278 73.9462L107.965 75.2028L108.122 72.2398L106.125 72.1344ZM102.992 70.6739L102.119 72.4731L102.128 72.4776L102.992 70.6739ZM101.11 69.5971L102.107 67.863L99.0483 66.1053L99.1108 69.6326L101.11 69.5971ZM101.15 73.453L99.1525 73.3514L99.1524 73.3535L101.15 73.453ZM100.723 75.5948L102.3 76.8242L102.303 76.8205L100.723 75.5948ZM98.8036 75.4396L98.4407 77.4065L98.4767 77.4131L98.513 77.4184L98.8036 75.4396ZM95.958 74.8953L96.3319 72.9305L93.8879 72.4655L93.9588 74.9524L95.958 74.8953ZM96.0383 77.7121L98.0379 77.675L98.0377 77.665L98.0374 77.655L96.0383 77.7121ZM96.0811 80.0237L95.979 82.0211L98.1204 82.1304L98.0807 79.9866L96.0811 80.0237ZM93.8083 79.8688L94.4981 77.9915L94.4914 77.989L93.8083 79.8688ZM90.0945 81.2021L88.2131 80.5237L87.8113 81.6382L88.5954 82.5261L90.0945 81.2021ZM91.0031 82.5053L92.8653 81.7757L92.8211 81.6629L92.7636 81.5562L91.0031 82.5053ZM91.8028 85.0125L92.0327 86.9993L94.418 86.7232L93.7152 84.4271L91.8028 85.0125ZM88.9786 85.3558L89.2868 87.332L89.2972 87.3303L89.3077 87.3286L88.9786 85.3558ZM86.7493 85.82L86.3337 83.8636L84.1391 84.3299L84.8534 86.4568L86.7493 85.82ZM88.5839 90.5598L89.1513 92.4776L91.3297 91.833L90.4143 89.7538L88.5839 90.5598ZM86.1724 91.2225L86.4301 89.2391L86.4296 89.2391L86.1724 91.2225ZM83.5796 93.173L81.5798 93.1969L81.5855 93.6802L81.8114 94.1075L83.5796 93.173ZM86.1058 96.9395L86.7499 98.8329L87.3944 98.6136L87.7713 98.0466L86.1058 96.9395ZM81.9123 98.4884L83.6629 99.4554L83.6662 99.4495L81.9123 98.4884ZM84.115 101.358L85.8585 100.379L85.8565 100.375L84.115 101.358ZM83.6787 103.802L85.2533 105.036L85.2609 105.026L83.6787 103.802ZM81.5249 104.403L80.6186 102.62L80.6092 102.625L81.5249 104.403ZM80.291 105.799L78.2922 105.73L78.2854 105.929L78.3178 106.125L80.291 105.799ZM81.3951 107.319L80.4754 109.095L80.5681 109.143L80.6652 109.181L81.3951 107.319ZM84.34 108.145L86.1556 107.306L85.7166 106.355L84.6853 106.175L84.34 108.145ZM84.7402 109.011L85.7995 110.707L87.2954 109.773L86.5558 108.172L84.7402 109.011ZM81.6981 110.944L80.4917 109.349L80.4197 109.403L80.3528 109.464L81.6981 110.944ZM80.1321 112.664L78.5333 111.462L77.3871 112.987L78.8565 114.204L80.1321 112.664ZM81.9097 114.124L83.0524 112.483L83.0453 112.478L81.9097 114.124ZM85.151 116.172L86.0738 117.947L89.1602 116.341L86.2199 114.482L85.151 116.172ZM82.7868 117.436L81.3544 116.04L81.3113 116.085L81.271 116.131L82.7868 117.436ZM81.2517 119.503L79.5647 118.429L78.4506 120.179L80.2399 121.228L81.2517 119.503ZM85.7338 121.867L87.4061 122.964L88.6556 121.059L86.6049 120.067L85.7338 121.867ZM84.274 124.098L85.9981 125.112L85.9987 125.111L84.274 124.098ZM83.2922 126.081L81.4927 125.209L80.5847 127.081L82.4912 127.914L83.2922 126.081ZM85.3388 126.972L84.6577 128.852L84.6686 128.856L84.6796 128.86L85.3388 126.972ZM88.0858 127.787L89.8691 128.692L90.9628 126.538L88.6424 125.866L88.0858 127.787ZM86.9034 130.147L88.736 130.948L88.7443 130.929L88.7522 130.91L86.9034 130.147ZM91.2725 132.251L93.254 132.523L93.6613 129.549L90.76 130.318L91.2725 132.251ZM90.8571 135.257L92.8192 135.644L92.8236 135.622L92.8275 135.599L90.8571 135.257ZM90.138 138.221L88.1966 137.74L87.5358 140.409L90.2782 140.216L90.138 138.221ZM95.8214 138.118L97.7687 138.574L98.3031 136.29L95.9641 136.123L95.8214 138.118ZM94.8069 142.94L93.11 143.998L93.1127 144.003L94.8069 142.94ZM98.5822 142.229L98.8754 144.208L98.8756 144.208L98.5822 142.229ZM100.308 142.399L102.054 141.425L102.027 141.376L101.997 141.328L100.308 142.399ZM100.537 144.395L98.6149 143.841L98.614 143.844L100.537 144.395ZM101.47 147.696L101.002 149.64L101.77 149.825L102.456 149.436L101.47 147.696ZM105.111 145.766L105.602 143.827L105.591 143.825L105.579 143.822L105.111 145.766ZM105.852 149.662L103.875 149.964L103.892 150.078L103.923 150.19L105.852 149.662ZM106.883 150.757L106.242 152.652L106.442 152.719L106.651 152.743L106.883 150.757ZM108.531 150.178L107.585 148.416L107.578 148.419L108.531 150.178ZM111.22 148.571L113.14 148.012L112.413 145.519L110.189 146.858L111.22 148.571ZM112.095 151.497L110.226 152.208L110.229 152.217L110.233 152.227L112.095 151.497ZM114.937 152.469L116.087 154.105L116.088 154.104L114.937 152.469ZM117.332 150.424L119.17 149.635L118.085 147.109L116.016 148.918L117.332 150.424ZM118.646 153.51L116.78 154.231L116.784 154.239L118.646 153.51ZM118.831 155.649L116.838 155.805L117.121 159.439L120.034 157.247L118.831 155.649ZM122.284 153.041L123.567 154.575L123.599 154.549L123.63 154.52L122.284 153.041ZM124.085 151.229L125.703 150.054L124.25 148.054L122.598 149.892L124.085 151.229ZM125.65 153.348L127.225 152.115L127.217 152.105L125.65 153.348ZM127.189 155.145L125.675 156.452L127.049 158.045L128.571 156.592L127.189 155.145ZM128.912 153.204L130.512 154.404L130.554 154.348L130.592 154.289L128.912 153.204ZM129.794 150.486L131.2 149.063L128.893 146.784L127.892 149.868L129.794 150.486ZM132.225 152.979L134.087 152.249L134.083 152.239L134.079 152.229L132.225 152.979ZM135.256 154.28L136.147 156.071L137.212 155.541L137.255 154.353L135.256 154.28ZM135.437 153.103L133.588 152.34L133.541 152.455L133.508 152.574L135.437 153.103ZM136.747 150.223L138.116 148.765L136.095 146.866L134.932 149.384L136.747 150.223ZM138.93 152.039L137.745 153.65L137.788 153.682L137.832 153.711L138.93 152.039ZM141.008 152.884L141.738 154.746L141.771 154.733L141.805 154.718L141.008 152.884ZM142.445 150.905L144.252 151.763L144.268 151.728L144.284 151.692L142.445 150.905ZM143.403 148.24L144.425 146.521L142.21 145.204L141.484 147.677L143.403 148.24ZM145.683 149.443L144.84 151.257L144.881 151.276L144.923 151.293L145.683 149.443ZM148.453 150.36L147.837 152.263L150.271 153.051L150.448 150.498L148.453 150.36ZM148.786 145.562L149.555 143.716L146.983 142.643L146.79 145.423L148.786 145.562ZM152.358 147.016L151.727 148.914L151.734 148.916L152.358 147.016ZM153.795 146.857L155.485 147.925L155.531 147.853L155.57 147.778L153.795 146.857ZM154.315 144.883L152.327 144.667L152.319 144.737L152.317 144.808L154.315 144.883ZM154.467 141.782L155.174 139.911L152.583 138.931L152.468 141.699L154.467 141.782ZM157.237 142.571L156.852 144.534L156.861 144.536L156.871 144.538L157.237 142.571ZM159.739 142.282L160.544 144.113L160.648 144.068L160.745 144.011L159.739 142.282ZM159.775 140.156L157.779 140.284L157.779 140.294L159.775 140.156ZM159.476 137.375L159.558 135.376L157.179 135.279L157.494 137.639L159.476 137.375ZM162.285 137.486L162.281 135.486L162.275 135.486L162.285 137.486ZM164.543 137.336L164.694 139.331L166.623 139.185L166.541 137.252L164.543 137.336ZM164.334 135.206L166.31 134.9L166.302 134.849L166.292 134.799L164.334 135.206ZM163.555 132.259L163.555 130.259L160.95 130.26L161.623 132.777L163.555 132.259ZM166.693 132.28L166.965 130.298L166.861 130.284L166.755 130.281L166.693 132.28ZM168.675 132.665L168.184 134.604L171.606 135.469L170.59 132.089L168.675 132.665ZM167.657 129.319L169.545 128.658L169.54 128.645L167.657 129.319ZM166.651 126.948L166.118 125.021L163.913 125.631L164.812 127.735L166.651 126.948ZM171.453 125.343L172.183 127.206L174.233 126.402L173.237 124.438L171.453 125.343ZM170.43 123.339L172.154 122.324L172.152 122.321L170.43 123.339ZM168.921 120.982L168.092 119.162L165.985 120.121L167.24 122.066L168.921 120.982ZM171.544 119.788L170.718 117.967L170.706 117.972L171.544 119.788ZM174.647 118.363L175.489 120.177L178.205 118.916L176 116.89L174.647 118.363ZM170.811 114.838L169.916 113.05L167.321 114.348L169.458 116.311L170.811 114.838ZM173.979 113.044L175.053 114.731L175.066 114.723L175.08 114.714L173.979 113.044ZM174.903 111.576L176.885 111.845L176.911 111.65L176.899 111.453L174.903 111.576ZM173.809 110.196L172.536 111.738L172.547 111.747L172.558 111.756L173.809 110.196ZM171.274 108.297L170.148 106.644L167.812 108.235L170.089 109.909L171.274 108.297ZM174.144 106.349L173.091 104.648L173.057 104.669L173.025 104.691L174.144 106.349ZM174.881 105.944L175.751 107.744L176.586 107.341L176.818 106.442L174.881 105.944ZM172.956 103.247L173.284 101.274L173.278 101.273L172.956 103.247ZM170.797 101.969L169.28 100.665L167.742 102.455L169.759 103.679L170.797 101.969ZM172.311 100.187L170.725 98.9683L170.723 98.9707L172.311 100.187ZM173.943 97.8881L175.572 99.0477L176.975 97.0765L174.775 96.0695L173.943 97.8881ZM169.373 95.6246L167.696 94.5346L166.507 96.3653L168.434 97.3905L169.373 95.6246ZM170.645 93.6609L172.371 94.67L172.376 94.6624L170.645 93.6609ZM171.913 91.2506L173.693 92.1611L174.812 89.9722L172.442 89.3218L171.913 91.2506ZM167.049 89.7768L165.217 88.976L164.351 90.9563L166.393 91.666L167.049 89.7768ZM168.975 85.2895L170.817 86.0667L171.756 83.8412L169.395 83.334L168.975 85.2895ZM163.713 84.2374L161.829 83.566L161.035 85.792L163.362 86.2065L163.713 84.2374ZM164.571 82.0375L166.124 83.2976L166.13 83.2901L164.571 82.0375ZM164.039 78.6897L164.995 76.933L164.075 76.4319L163.139 76.9038L164.039 78.6897ZM163.186 79.024L163.507 80.998L163.624 80.979L163.738 80.9463L163.186 79.024ZM160.007 79.5063L158.06 79.0474L157.381 81.9275L160.306 81.4837L160.007 79.5063ZM160.501 76.3924L162.494 76.5592L162.506 76.4226L162.498 76.2858L160.501 76.3924ZM160.124 74.1014L162.049 73.5614L161.55 71.7805L159.736 72.1394L160.124 74.1014ZM155.298 75.0683L153.299 75.0244L153.244 77.5173L155.689 77.0297L155.298 75.0683ZM155.422 70.2028L157.421 70.2564L157.477 68.1736L155.394 68.2029L155.422 70.2028ZM152.916 70.4546L152.546 68.4891L152.439 68.5093L152.335 68.5409L152.916 70.4546ZM149.45 71.7018L147.453 71.8085L147.605 74.6412L150.222 73.547L149.45 71.7018ZM149.252 67.991L147.254 68.0772L147.255 68.0875L147.255 68.0978L149.252 67.991ZM149.314 66.5121L151.313 66.596L151.441 63.5308L148.585 64.6499L149.314 66.5121ZM146.232 67.7199L145.405 65.8989L145.393 65.9041L145.382 65.9094L146.232 67.7199ZM143.973 69.0139L142.111 69.7435L142.963 71.9181L144.981 70.7417L143.973 69.0139ZM141.323 63.4765L143.054 62.4753L141.471 59.7373L139.676 62.3416L141.323 63.4765ZM138.337 67.81L136.717 68.9831L138.377 71.2759L139.983 68.945L138.337 67.81ZM136.606 65.3966L134.915 66.4654L134.918 66.4695L136.606 65.3966ZM135.108 62.7591L136.853 61.781L135.524 59.4103L133.656 61.3844L135.108 62.7591ZM133.149 64.8154L134.496 66.293L134.506 66.284L134.516 66.2749L133.149 64.8154ZM131.375 66.0631L131.544 68.0561L131.582 68.0529L131.62 68.0482L131.375 66.0631ZM130.069 64.6061L128.44 65.7655L128.445 65.773L128.45 65.7805L130.069 64.6061ZM128.555 62.2515L130.242 61.1764L128.945 59.1422L127.186 60.7935L128.555 62.2515ZM126.185 64.5296L127.629 65.9134L127.635 65.9068L127.641 65.9003L126.185 64.5296ZM124.749 66.3143L123.455 67.8395L125.027 69.173L126.313 67.5613L124.749 66.3143ZM123.015 64.837L121.563 66.2124L121.613 66.2652L121.666 66.3142L123.015 64.837ZM106.733 139.418L105.607 141.071L105.608 141.072L106.733 139.418ZM92.8924 122.198L91.0177 122.895L91.0221 122.907L92.8924 122.198ZM94.9157 91.6462L96.6796 92.5888L96.6797 92.5887L94.9157 91.6462ZM99.7224 85.2392L101.292 86.4783L101.293 86.4779L99.7224 85.2392ZM103.35 85.1952L101.811 86.4733L101.812 86.4747L103.35 85.1952ZM109.47 93.1393L111.191 92.1201L111.19 92.1188L109.47 93.1393ZM109.197 97.7924L107.457 96.8057L107.456 96.8073L109.197 97.7924ZM112.69 123.932L114.062 122.478L114.062 122.478L112.69 123.932ZM114.149 131.485L115.926 132.403L115.926 132.402L114.149 131.485ZM152.608 108.929L152.123 106.989L152.042 107.009L151.964 107.036L152.608 108.929ZM161.111 107.611L161.372 109.594L161.372 109.594L161.111 107.611ZM164.626 111.007L166.621 111.142L166.621 111.139L164.626 111.007ZM139.784 142.983L139.127 141.094L139.118 141.097L139.108 141.1L139.784 142.983ZM121.654 144.771L121.358 146.749L121.359 146.749L121.654 144.771ZM119.14 140.485L117.268 139.782L117.265 139.79L119.14 140.485ZM122.23 132.716L120.4 131.909L120.397 131.915L120.394 131.922L122.23 132.716ZM124.053 130.071L123.95 128.074L122.98 128.124L122.42 128.917L124.053 130.071ZM126.966 129.926L126.958 127.926L126.958 127.926L126.966 129.926ZM147.567 116.08L145.713 115.331L145.712 115.334L147.567 116.08ZM149.481 111.393L151.156 112.485L151.164 112.474L151.171 112.462L149.481 111.393ZM133.133 122.46L132.407 120.596L132.404 120.598L133.133 122.46ZM122.43 94.8696L123.159 96.7323L123.165 96.7298L122.43 94.8696ZM141.698 103.116L139.845 103.869L139.848 103.875L139.851 103.882L141.698 103.116ZM156.186 85.0846L157.732 83.8152L157.721 83.802L157.71 83.7889L156.186 85.0846ZM162.874 95.1844L161.102 96.1121L161.109 96.1253L161.116 96.1385L162.874 95.1844ZM151.926 100.878L151.529 98.9182L151.526 98.9187L151.926 100.878ZM146.982 98.463L148.793 97.6156L148.792 97.6133L146.982 98.463ZM121.279 88.5569L121.959 90.4376L121.961 90.4371L121.279 88.5569ZM114.764 86.7347L116.419 85.6122L116.417 85.6092L114.764 86.7347ZM110.167 80.8708L108.589 82.1003L108.591 82.1028L110.167 80.8708ZM111.282 76.2916L110.418 74.4874L110.412 74.4904L111.282 76.2916ZM114.45 74.8511L113.748 72.9785L113.685 73.0019L113.624 73.0295L114.45 74.8511ZM122.545 96.0524L123.307 97.9017L123.321 97.8957L123.336 97.8894L122.545 96.0524ZM114.736 114.404L112.888 115.17L112.889 115.171L114.736 114.404ZM133.308 121.241L134.128 123.065L134.129 123.065L133.308 121.241ZM140.679 103.493L138.826 104.245L138.832 104.261L138.839 104.276L140.679 103.493ZM130.454 115.452L131.184 117.314L133.046 116.584L132.316 114.722L130.454 115.452ZM125.285 101.848L126 103.715L126.021 103.708L126.041 103.699L125.285 101.848ZM130.448 115.437L129.784 113.551L127.831 114.239L128.586 116.167L130.448 115.437ZM118.865 61.6845L116.59 66.4801L120.204 68.1943L122.479 63.3986L118.865 61.6845ZM119.676 65.7995L115.911 62.6678L113.353 65.7431L117.119 68.8749L119.676 65.7995ZM113.01 63.0358C112.452 63.8094 111.95 64.6215 111.507 65.4661L115.049 67.3243C115.404 66.6469 115.807 65.9956 116.255 65.3751L113.01 63.0358ZM111.419 65.6574C111.04 66.6115 110.725 67.5895 110.474 68.5851L114.353 69.5614C114.561 68.7356 114.823 67.9244 115.137 67.133L111.419 65.6574ZM113.36 67.3113C112.715 66.9646 111.664 66.3156 110.699 65.9027L109.125 69.5803C109.888 69.9065 110.446 70.2864 111.467 70.8352L113.36 67.3113ZM110.659 65.8863C110.497 65.8208 109.859 65.533 109.412 65.3838C108.986 65.2414 108.014 64.9476 107.016 65.329L108.444 69.0654C108.203 69.1575 108.029 69.1401 108.009 69.138C107.988 69.1357 108.025 69.1379 108.145 69.1778C108.26 69.2162 108.397 69.2709 108.577 69.3474C108.727 69.4113 108.968 69.5176 109.165 69.5967L110.659 65.8863ZM107.016 65.329C106.07 65.6909 105.524 66.4801 105.256 66.9395C104.946 67.4716 104.732 68.0466 104.6 68.5109L108.447 69.6053C108.479 69.494 108.52 69.3722 108.568 69.2532C108.617 69.1328 108.666 69.0317 108.711 68.9551C108.758 68.8742 108.781 68.8531 108.767 68.8682C108.756 68.8797 108.654 68.9853 108.444 69.0654L107.016 65.329ZM104.565 68.651C104.334 69.7643 104.188 70.8935 104.128 72.0289L108.122 72.2398C108.171 71.3071 108.292 70.3796 108.482 69.4651L104.565 68.651ZM106.972 70.3226C105.895 69.8189 104.891 69.3655 103.856 68.8701L102.128 72.4776C103.177 72.98 104.27 73.4749 105.278 73.9462L106.972 70.3226ZM103.866 68.8747C103.62 68.7553 103.462 68.6418 102.107 67.863L100.114 71.3312C101.242 71.9795 101.709 72.2741 102.119 72.473L103.866 68.8747ZM99.1108 69.6326C99.1434 71.4697 99.2013 72.3929 99.1525 73.3514L103.147 73.5545C103.205 72.4139 103.139 71.1847 103.11 69.5616L99.1108 69.6326ZM99.1524 73.3535C99.1473 73.4556 99.1431 73.5599 99.1392 73.652C99.1352 73.7477 99.1314 73.8346 99.1268 73.9193C99.1176 74.0907 99.1065 74.2244 99.0914 74.3343C99.076 74.4456 99.0609 74.4983 99.0565 74.5117C99.0523 74.5241 99.071 74.4609 99.1422 74.3691L102.303 76.8205C102.827 76.1442 102.986 75.3709 103.054 74.8804C103.122 74.3871 103.134 73.8266 103.147 73.5525L99.1524 73.3535ZM99.145 74.3655C99.4255 74.0055 99.7626 73.8461 99.9596 73.779C100.151 73.7137 100.295 73.7054 100.336 73.7035C100.412 73.7003 100.407 73.7099 100.256 73.6849C100.123 73.6628 99.9714 73.6307 99.7627 73.5867C99.5802 73.5483 99.3304 73.4955 99.0941 73.4608L98.513 77.4184C98.6054 77.432 98.7325 77.4576 98.9375 77.5008C99.1164 77.5385 99.363 77.5914 99.6001 77.6309C99.8199 77.6674 100.158 77.7152 100.511 77.6998C100.733 77.6901 101.662 77.6425 102.3 76.8242L99.145 74.3655ZM99.1665 73.4728C98.2103 73.2964 97.3081 73.1163 96.3319 72.9305L95.584 76.8601C96.5081 77.036 97.4774 77.2288 98.4407 77.4065L99.1665 73.4728ZM93.9588 74.9524L94.0391 77.7691L98.0374 77.655L97.9571 74.8383L93.9588 74.9524ZM94.0387 77.7492L94.0814 80.0607L98.0807 79.9866L98.0379 77.675L94.0387 77.7492ZM96.1831 78.0262C95.9214 78.0129 95.6706 78.0152 95.467 78.0187C95.2425 78.0225 95.0911 78.027 94.9283 78.026C94.7758 78.025 94.671 78.0188 94.594 78.0092C94.5191 77.9998 94.4935 77.9898 94.4981 77.9915L93.1186 81.7462C93.7946 81.9946 94.4551 82.0232 94.9033 82.026C95.506 82.0297 95.6259 82.0031 95.979 82.0211L96.1831 78.0262ZM94.4914 77.989C93.6803 77.6943 92.4353 77.2937 91.1736 77.5866C89.6589 77.9383 88.7289 79.0936 88.2131 80.5237L91.9759 81.8806C92.0997 81.5371 92.1993 81.4259 92.2086 81.4163C92.2105 81.4143 92.1952 81.4302 92.162 81.4491C92.1287 81.468 92.0977 81.4785 92.078 81.483C92.0471 81.4902 92.1009 81.4701 92.3 81.5055C92.5007 81.5413 92.7647 81.6176 93.1252 81.7486L94.4914 77.989ZM88.5954 82.5261C88.8459 82.8098 89.0631 83.1212 89.2427 83.4543L92.7636 81.5562C92.439 80.954 92.0464 80.391 91.5936 79.8782L88.5954 82.5261ZM89.141 83.2349C89.4213 83.9504 89.6016 84.6542 89.8904 85.598L93.7152 84.4271C93.4901 83.6918 93.2199 82.6807 92.8653 81.7757L89.141 83.2349ZM91.5729 83.0258C90.7193 83.1246 89.649 83.2163 88.6495 83.3831L89.3077 87.3286C90.177 87.1835 91.003 87.1185 92.0327 86.9993L91.5729 83.0258ZM88.6705 83.3797C87.8507 83.5075 86.9608 83.7304 86.3337 83.8636L87.1649 87.7763C88.0183 87.595 88.6055 87.4382 89.2868 87.332L88.6705 83.3797ZM84.8534 86.4568C85.0871 87.1527 85.3682 88.0872 85.687 88.9162L89.4203 87.4801C89.1403 86.752 88.9433 86.0708 88.6452 85.1831L84.8534 86.4568ZM85.687 88.9162C86.0085 89.7519 86.4427 90.6601 86.7535 91.3658L90.4143 89.7538C90.0231 88.8652 89.6979 88.2017 89.4203 87.4801L85.687 88.9162ZM88.0164 88.642C87.7236 88.7286 87.4502 88.8341 87.236 88.9191C86.9949 89.0148 86.8444 89.0777 86.6765 89.1389C86.3225 89.268 86.3071 89.2232 86.4301 89.2391L85.9147 93.2059C86.8009 93.321 87.5874 93.0644 88.0464 92.897C88.7038 92.6574 88.7937 92.5835 89.1513 92.4776L88.0164 88.642ZM86.4296 89.2391C85.5445 89.1243 84.2473 89.0547 83.1573 89.7635C81.8797 90.5942 81.5654 91.9888 81.5798 93.1969L85.5794 93.149C85.5778 93.0103 85.5861 92.9167 85.5947 92.8595C85.6032 92.8026 85.6105 92.7923 85.6019 92.814C85.5924 92.8381 85.5674 92.8908 85.5166 92.9544C85.4647 93.0193 85.4023 93.0749 85.3376 93.117C85.2123 93.1984 85.15 93.1843 85.2621 93.1733C85.3147 93.1681 85.3944 93.1648 85.5073 93.1692C85.6196 93.1736 85.7544 93.1851 85.9152 93.206L86.4296 89.2391ZM81.8114 94.1075C82.2468 94.9315 82.9533 95.4402 83.3926 95.7287C83.6292 95.8841 83.8763 96.0295 84.0593 96.1387C84.2615 96.2593 84.4031 96.3459 84.5192 96.4263C84.8063 96.6252 84.6185 96.5778 84.5161 96.2629C84.37 95.8132 84.6048 95.5848 84.4403 95.8323L87.7713 98.0466C88.3201 97.221 88.6893 96.1622 88.3202 95.0264C87.9948 94.0252 87.2266 93.4358 86.7973 93.1383C86.5553 92.9706 86.3047 92.8204 86.1084 92.7033C85.893 92.5748 85.7353 92.4816 85.5886 92.3853C85.2611 92.1702 85.2865 92.1224 85.3479 92.2385L81.8114 94.1075ZM85.4616 95.046C84.6182 95.333 83.9664 95.4317 82.988 95.6916C82.5731 95.8018 82.0734 95.9521 81.6118 96.1841C81.1518 96.4152 80.5479 96.8166 80.1585 97.5272L83.6662 99.4495C83.5122 99.7305 83.322 99.8012 83.4073 99.7584C83.4909 99.7164 83.668 99.6496 84.0145 99.5576C84.5588 99.4131 85.7683 99.1669 86.7499 98.8329L85.4616 95.046ZM80.1617 97.5213C79.7428 98.2796 79.4327 99.293 79.8415 100.352C80.2164 101.322 81.0139 101.811 81.4166 102.031C81.6454 102.157 81.8764 102.261 82.0435 102.337C82.2338 102.423 82.3512 102.475 82.4602 102.53C82.7308 102.667 82.5362 102.63 82.3735 102.342L85.8565 100.375C85.3958 99.5592 84.639 99.1495 84.2684 98.9617C84.0568 98.8545 83.8337 98.756 83.6871 98.6899C83.5172 98.6133 83.4145 98.5649 83.3363 98.5221C83.1249 98.4065 83.4145 98.5004 83.5729 98.9105C83.7653 99.4087 83.5301 99.6959 83.6629 99.4554L80.1617 97.5213ZM82.3715 102.338C82.3073 102.224 82.2791 102.131 82.267 102.082C82.2605 102.055 82.2573 102.036 82.2557 102.024C82.2548 102.018 82.2544 102.014 82.2541 102.011C82.2538 102.008 82.2537 102.006 82.2537 102.006C82.2537 102.006 82.2538 102.008 82.2538 102.01C82.2539 102.012 82.2539 102.016 82.2538 102.021C82.2536 102.03 82.253 102.043 82.2516 102.059C82.2487 102.093 82.243 102.135 82.2332 102.184C82.213 102.286 82.1809 102.39 82.1443 102.478C82.1049 102.572 82.0799 102.601 82.0965 102.579L85.2609 105.026C85.7325 104.416 86.0223 103.639 86.1565 102.963C86.2744 102.37 86.3826 101.311 85.8585 100.379L82.3715 102.338ZM82.1042 102.569C82.3654 102.236 82.6631 102.145 82.6867 102.137C82.71 102.13 82.6753 102.143 82.4746 102.167C82.3368 102.183 82.0214 102.215 81.7488 102.262C81.4629 102.312 81.0432 102.404 80.6186 102.62L82.4312 106.186C82.3386 106.233 82.3081 106.225 82.4307 106.204C82.5666 106.18 82.6791 106.171 82.9506 106.138C83.1593 106.113 83.5155 106.068 83.8734 105.957C84.2317 105.846 84.8077 105.605 85.2533 105.036L82.1042 102.569ZM80.6092 102.625C80.1346 102.869 79.6499 103.233 79.2597 103.645C78.9476 103.975 78.327 104.717 78.2922 105.73L82.2898 105.867C82.2844 106.026 82.254 106.15 82.2276 106.231C82.2011 106.312 82.1732 106.366 82.1585 106.392C82.132 106.439 82.1252 106.437 82.1651 106.394C82.2008 106.357 82.252 106.31 82.3119 106.265C82.3728 106.219 82.42 106.192 82.4406 106.181L80.6092 102.625ZM78.3178 106.125C78.4216 106.753 78.6707 107.349 79.0452 107.865L82.2813 105.514C82.2725 105.502 82.2667 105.488 82.2643 105.473L78.3178 106.125ZM79.0452 107.865C79.4199 108.381 79.9096 108.802 80.4754 109.095L82.3147 105.542C82.3014 105.536 82.29 105.526 82.2813 105.514L79.0452 107.865ZM80.6652 109.181C81.7411 109.602 82.8565 109.915 83.9948 110.115L84.6853 106.175C83.81 106.021 82.9523 105.781 82.1249 105.456L80.6652 109.181ZM82.5244 108.983L82.9246 109.85L86.5558 108.172L86.1556 107.306L82.5244 108.983ZM83.6809 107.315C82.8105 107.858 81.5398 108.556 80.4917 109.349L82.9046 112.539C83.7678 111.886 84.626 111.44 85.7995 110.707L83.6809 107.315ZM80.3528 109.464C79.6848 110.071 79.0756 110.74 78.5333 111.462L81.7309 113.865C82.1221 113.344 82.5616 112.862 83.0435 112.424L80.3528 109.464ZM78.8565 114.204C79.2842 114.558 80.0551 115.274 80.7741 115.77L83.0453 112.478C82.5065 112.106 82.1587 111.745 81.4077 111.123L78.8565 114.204ZM80.7671 115.766C81.7001 116.415 82.7788 117.039 84.0821 117.863L86.2199 114.482C84.7151 113.53 83.8986 113.072 83.0524 112.483L80.7671 115.766ZM84.2281 114.398C83.577 114.737 83.1576 114.92 82.7285 115.125C82.3612 115.301 81.8158 115.567 81.3544 116.04L84.2193 118.832C84.1325 118.921 84.0801 118.913 84.4567 118.733C84.7714 118.582 85.3468 118.325 86.0738 117.947L84.2281 114.398ZM81.271 116.131C80.6479 116.855 80.0777 117.623 79.5647 118.429L82.9387 120.577C83.3488 119.933 83.8046 119.319 84.3027 118.741L81.271 116.131ZM80.2399 121.228C80.9225 121.629 81.7096 122.106 82.5078 122.527L84.3744 118.989C83.6808 118.623 83.0169 118.22 82.2635 117.778L80.2399 121.228ZM82.5078 122.527C83.2897 122.939 84.1868 123.341 84.8626 123.668L86.6049 120.067C85.7522 119.654 85.0842 119.364 84.3744 118.989L82.5078 122.527ZM84.0614 120.77C83.6446 121.406 83.0307 122.266 82.5492 123.086L85.9987 125.111C86.4194 124.394 86.8465 123.817 87.4061 122.964L84.0614 120.77ZM82.5499 123.085C82.1252 123.807 81.749 124.68 81.4927 125.209L85.0916 126.954C85.4778 126.158 85.6794 125.654 85.9981 125.112L82.5499 123.085ZM82.4912 127.914C83.0077 128.14 83.8941 128.576 84.6577 128.852L86.0198 125.091C85.4043 124.868 84.9112 124.606 84.0931 124.249L82.4912 127.914ZM84.6796 128.86C85.65 129.199 86.7012 129.468 87.5292 129.708L88.6424 125.866C87.6364 125.574 86.8341 125.375 85.9979 125.083L84.6796 128.86ZM86.3025 126.882C85.9803 127.516 85.4275 128.48 85.0546 129.384L88.7522 130.91C89.0487 130.191 89.3923 129.632 89.8691 128.692L86.3025 126.882ZM85.0708 129.346C84.985 129.543 84.6976 130.14 84.53 130.612C84.4384 130.871 84.331 131.223 84.2889 131.609C84.2495 131.97 84.2383 132.611 84.6067 133.249L88.0705 131.248C88.1938 131.462 88.2411 131.658 88.2589 131.79C88.2762 131.919 88.2689 132.009 88.2652 132.043C88.2592 132.098 88.2545 132.077 88.2998 131.949C88.341 131.833 88.4004 131.692 88.4806 131.513C88.5203 131.424 88.5598 131.338 88.6038 131.242C88.6458 131.15 88.6922 131.048 88.736 130.948L85.0708 129.346ZM84.6067 133.249C84.9283 133.806 85.3995 134.123 85.6948 134.288C86.0194 134.47 86.3563 134.593 86.6435 134.678C87.217 134.847 87.835 134.936 88.3302 134.958L88.5096 130.962C88.4132 130.957 88.2861 130.945 88.1473 130.923C88.0081 130.901 87.8798 130.872 87.7764 130.842C87.6642 130.808 87.6299 130.787 87.6508 130.799C87.6642 130.807 87.7157 130.836 87.7853 130.897C87.8539 130.957 87.9673 131.07 88.0705 131.248L84.6067 133.249ZM88.3302 134.958C89.0468 134.99 89.6889 134.814 90.1619 134.672C90.7135 134.507 91.1187 134.361 91.7851 134.185L90.76 130.318C90.0287 130.512 89.3621 130.736 89.0142 130.841C88.5877 130.968 88.5024 130.961 88.5096 130.962L88.3302 134.958ZM89.2911 131.98C89.1093 133.307 89.0285 134.098 88.8867 134.914L92.8275 135.599C92.9849 134.694 93.0948 133.685 93.254 132.523L89.2911 131.98ZM88.895 134.87C88.7107 135.803 88.4627 136.666 88.1966 137.74L92.0793 138.702C92.3016 137.804 92.6107 136.7 92.8192 135.644L88.895 134.87ZM90.2782 140.216C91.4389 140.134 92.3353 140.029 93.3146 140.009L93.2332 136.01C92.1276 136.033 90.936 136.16 89.9977 136.226L90.2782 140.216ZM93.3146 140.009C94.2413 139.991 95.0218 140.066 95.6786 140.113L95.9641 136.123C95.4034 136.083 94.3913 135.987 93.2332 136.01L93.3146 140.009ZM93.874 137.662C93.6473 138.631 93.3405 139.364 93.0193 140.401C92.8809 140.847 92.7322 141.387 92.68 141.927C92.6292 142.453 92.6418 143.248 93.11 143.998L96.5037 141.881C96.7044 142.203 96.6488 142.442 96.6614 142.311C96.6727 142.194 96.7192 141.974 96.84 141.585C97.0373 140.948 97.5053 139.699 97.7687 138.574L93.874 137.662ZM93.1127 144.003C93.581 144.749 94.3265 145.535 95.4695 145.698C96.5343 145.85 97.3721 145.364 97.7824 145.093C98.0147 144.94 98.2273 144.774 98.3888 144.646C98.572 144.501 98.6858 144.408 98.8121 144.313C99.0982 144.1 99.0752 144.178 98.8754 144.208L98.289 140.251C97.4307 140.378 96.7666 140.849 96.4215 141.106C96.2322 141.248 96.0329 141.409 95.9045 141.511C95.7543 141.63 95.6569 141.703 95.5797 141.754C95.3709 141.892 95.5919 141.675 96.0345 141.738C96.5553 141.812 96.6732 142.151 96.5011 141.877L93.1127 144.003ZM98.8756 144.208C99.1118 144.173 99.3539 144.154 99.5088 144.16C99.5917 144.164 99.5592 144.171 99.4584 144.141C99.4031 144.124 99.2853 144.084 99.1422 143.994C98.9963 143.904 98.79 143.74 98.6192 143.471L101.997 141.328C101.566 140.649 100.917 140.403 100.613 140.311C100.262 140.205 99.9219 140.174 99.6725 140.164C99.1628 140.143 98.6433 140.198 98.2889 140.251L98.8756 144.208ZM98.5614 143.374C98.6007 143.444 98.6256 143.522 98.6348 143.602L102.609 143.147C102.539 142.542 102.351 141.957 102.054 141.425L98.5614 143.374ZM98.6348 143.602C98.644 143.682 98.6372 143.763 98.6149 143.841L102.458 144.949C102.627 144.364 102.678 143.751 102.609 143.147L98.6348 143.602ZM98.614 143.844C98.5722 143.99 98.3663 144.645 98.2918 144.921C98.1858 145.312 98.0551 145.88 98.0853 146.494C98.1188 147.173 98.3515 147.932 98.9711 148.568C99.5453 149.158 100.285 149.467 101.002 149.64L101.938 145.751C101.633 145.678 101.693 145.63 101.836 145.777C101.914 145.857 101.982 145.96 102.028 146.075C102.071 146.184 102.079 146.266 102.08 146.297C102.082 146.326 102.076 146.25 102.153 145.966C102.188 145.836 102.231 145.694 102.286 145.519C102.337 145.353 102.401 145.15 102.459 144.946L98.614 143.844ZM102.456 149.436C102.875 149.198 103.276 148.92 103.611 148.682C103.977 148.421 104.247 148.221 104.528 148.034C104.806 147.849 104.971 147.762 105.058 147.727C105.158 147.688 104.971 147.79 104.642 147.711L105.579 143.822C104.774 143.628 104.056 143.822 103.586 144.008C103.103 144.199 102.66 144.471 102.309 144.705C101.961 144.938 101.581 145.217 101.291 145.423C100.971 145.651 100.712 145.827 100.484 145.956L102.456 149.436ZM104.619 147.705C104.859 147.766 104.588 147.756 104.386 147.389C104.22 147.087 104.301 146.885 104.266 147.104C104.252 147.193 104.225 147.31 104.18 147.485C104.145 147.619 104.071 147.888 104.022 148.087C103.922 148.491 103.759 149.204 103.875 149.964L107.829 149.361C107.842 149.45 107.814 149.412 107.904 149.048C107.957 148.837 108.138 148.214 108.215 147.742C108.298 147.226 108.372 146.336 107.89 145.46C107.372 144.52 106.477 144.049 105.602 143.827L104.619 147.705ZM103.923 150.19C104.078 150.759 104.371 151.281 104.776 151.71L107.687 148.967C107.731 149.014 107.764 149.072 107.781 149.135L103.923 150.19ZM104.776 151.71C105.18 152.139 105.684 152.463 106.242 152.652L107.524 148.862C107.586 148.883 107.642 148.919 107.687 148.967L104.776 151.71ZM106.651 152.743C107.42 152.834 108.086 152.605 108.478 152.442C108.881 152.274 109.283 152.045 109.484 151.936L107.578 148.419C107.424 148.503 107.323 148.559 107.202 148.623C107.09 148.681 107.007 148.721 106.941 148.749C106.874 148.777 106.854 148.779 106.871 148.776C106.888 148.772 106.978 148.754 107.116 148.771L106.651 152.743ZM109.477 151.94C110.446 151.42 111.448 150.768 112.251 150.285L110.189 146.858C109.202 147.452 108.444 147.955 107.585 148.416L109.477 151.94ZM109.3 149.131C109.545 149.972 109.828 151.163 110.226 152.208L113.965 150.786C113.641 149.935 113.474 149.157 113.14 148.012L109.3 149.131ZM110.233 152.227C110.325 152.462 110.516 152.986 110.747 153.43C110.923 153.768 111.424 154.693 112.459 155.061L113.799 151.292C114.116 151.405 114.278 151.585 114.311 151.623C114.348 151.666 114.339 151.668 114.294 151.581C114.253 151.501 114.204 151.393 114.144 151.246C114.079 151.084 114.033 150.961 113.957 150.767L110.233 152.227ZM112.459 155.061C113.516 155.437 114.496 155.012 114.864 154.84C115.358 154.608 115.809 154.3 116.087 154.105L113.787 150.832C113.667 150.916 113.551 150.995 113.439 151.065C113.325 151.136 113.234 151.186 113.168 151.217C113.093 151.252 113.097 151.241 113.165 151.228C113.227 151.216 113.475 151.177 113.799 151.292L112.459 155.061ZM116.088 154.104C117.068 153.414 117.999 152.498 118.648 151.93L116.016 148.918C115.084 149.733 114.539 150.302 113.785 150.834L116.088 154.104ZM115.494 151.213C115.965 152.31 116.395 153.233 116.78 154.231L120.511 152.789C120.092 151.702 119.581 150.593 119.17 149.635L115.494 151.213ZM116.784 154.239C116.713 154.057 116.729 153.924 116.747 154.27C116.762 154.552 116.779 155.058 116.838 155.805L120.825 155.494C120.772 154.813 120.76 154.409 120.741 154.059C120.726 153.773 120.705 153.283 120.508 152.78L116.784 154.239ZM120.034 157.247C121.475 156.163 122.596 155.387 123.567 154.575L121.001 151.507C120.13 152.235 119.255 152.828 117.629 154.051L120.034 157.247ZM123.63 154.52C124.309 153.902 124.958 153.25 125.572 152.567L122.598 149.892C122.073 150.476 121.519 151.033 120.938 151.562L123.63 154.52ZM122.467 152.405C122.954 153.075 123.503 153.86 124.084 154.592L127.217 152.105C126.706 151.462 126.248 150.804 125.703 150.054L122.467 152.405ZM124.075 154.581C124.6 155.251 125.224 155.929 125.675 156.452L128.704 153.839C128.121 153.163 127.675 152.69 127.225 152.115L124.075 154.581ZM128.571 156.592C129.277 155.917 129.926 155.185 130.512 154.404L127.312 152.005C126.858 152.61 126.355 153.177 125.808 153.699L128.571 156.592ZM130.592 154.289C130.949 153.736 131.117 153.146 131.234 152.719C131.366 152.239 131.479 151.771 131.696 151.104L127.892 149.868C127.637 150.652 127.482 151.277 127.377 151.66C127.257 152.096 127.219 152.139 127.232 152.119L130.592 154.289ZM128.388 151.909C128.963 152.477 129.647 153.033 129.951 153.304C130.359 153.668 130.385 153.765 130.371 153.729L134.079 152.229C133.72 151.343 133.068 150.724 132.615 150.32C132.058 149.823 131.699 149.557 131.2 149.063L128.388 151.909ZM130.363 153.709C130.721 154.623 131.331 155.778 132.547 156.339C133.849 156.94 135.153 156.565 136.147 156.071L134.366 152.489C134.096 152.624 133.968 152.646 133.951 152.648C133.949 152.649 133.98 152.645 134.035 152.652C134.093 152.66 134.159 152.678 134.224 152.708C134.36 152.77 134.394 152.839 134.351 152.78C134.3 152.712 134.207 152.555 134.087 152.249L130.363 153.709ZM137.255 154.353C137.264 154.109 137.301 153.868 137.365 153.633L133.508 152.574C133.362 153.107 133.278 153.655 133.258 154.207L137.255 154.353ZM137.286 153.866C137.667 152.941 138.093 152.079 138.563 151.061L134.932 149.384C134.516 150.284 134.012 151.313 133.588 152.34L137.286 153.866ZM135.378 151.681C136.127 152.384 136.917 153.042 137.745 153.65L140.115 150.428C139.416 149.914 138.749 149.359 138.116 148.765L135.378 151.681ZM137.832 153.711C138.128 153.905 138.633 154.24 139.149 154.49C139.409 154.616 139.75 154.759 140.128 154.844C140.481 154.923 141.087 155.001 141.738 154.746L140.279 151.022C140.489 150.939 140.67 150.921 140.785 150.92C140.899 150.919 140.975 150.934 141 150.94C141.042 150.949 141.012 150.947 140.893 150.89C140.784 150.837 140.652 150.763 140.496 150.668C140.341 150.573 140.188 150.473 140.028 150.367L137.832 153.711ZM141.805 154.718C142.693 154.333 143.233 153.601 143.526 153.141C143.842 152.646 144.095 152.092 144.252 151.763L140.638 150.048C140.443 150.458 140.305 150.753 140.153 150.991C140.083 151.1 140.04 151.149 140.029 151.161C140.017 151.173 140.075 151.109 140.212 151.049L141.805 154.718ZM144.284 151.692C144.687 150.751 145.034 149.786 145.322 148.804L141.484 147.677C141.24 148.507 140.947 149.322 140.607 150.118L144.284 151.692ZM142.381 149.959C143.179 150.433 143.999 150.866 144.84 151.257L146.525 147.629C145.807 147.295 145.106 146.926 144.425 146.521L142.381 149.959ZM144.923 151.293C145.917 151.702 147.073 152.015 147.837 152.263L149.069 148.457C148.009 148.114 147.254 147.926 146.443 147.593L144.923 151.293ZM150.448 150.498L150.781 145.7L146.79 145.423L146.458 150.221L150.448 150.498ZM148.016 147.408C149.085 147.854 150.42 148.479 151.727 148.914L152.989 145.118C151.867 144.745 150.865 144.262 149.555 143.716L148.016 147.408ZM151.734 148.916C152.276 149.094 152.878 149.123 153.351 149.082C153.601 149.06 153.914 149.011 154.232 148.898C154.485 148.807 155.084 148.56 155.485 147.925L152.104 145.788C152.275 145.518 152.476 145.358 152.602 145.275C152.731 145.191 152.837 145.148 152.891 145.129C152.992 145.093 153.038 145.094 153.005 145.097C152.982 145.099 152.949 145.099 152.919 145.096C152.881 145.093 152.906 145.091 152.982 145.115L151.734 148.916ZM155.57 147.778C156.023 146.904 156.277 145.941 156.314 144.958L152.317 144.808C152.302 145.201 152.2 145.586 152.019 145.936L155.57 147.778ZM156.304 145.099C156.425 143.983 156.427 142.779 156.465 141.864L152.468 141.699C152.421 142.854 152.429 143.726 152.327 144.667L156.304 145.099ZM153.759 143.653C154.763 144.033 155.798 144.327 156.852 144.534L157.622 140.609C156.788 140.445 155.969 140.212 155.174 139.911L153.759 143.653ZM156.871 144.538C158.11 144.769 159.39 144.621 160.544 144.113L158.934 140.451C158.516 140.635 158.052 140.689 157.603 140.605L156.871 144.538ZM160.745 144.011C161.694 143.459 161.836 142.468 161.865 142.268C161.919 141.909 161.907 141.552 161.892 141.307C161.877 141.042 161.847 140.77 161.824 140.555C161.797 140.317 161.779 140.152 161.77 140.017L157.779 140.294C157.796 140.529 157.826 140.791 157.848 140.991C157.872 141.215 157.891 141.393 157.9 141.545C157.91 141.716 157.9 141.741 157.909 141.682C157.913 141.651 157.935 141.512 158.02 141.328C158.106 141.142 158.31 140.8 158.733 140.554L160.745 144.011ZM161.77 140.028C161.706 139.026 161.581 138.034 161.458 137.111L157.494 137.639C157.616 138.555 157.724 139.43 157.779 140.284L161.77 140.028ZM159.394 139.373C160.211 139.407 161.295 139.491 162.295 139.486L162.275 135.486C161.387 135.49 160.607 135.419 159.558 135.376L159.394 139.373ZM162.288 139.486C163.137 139.484 164.063 139.378 164.694 139.331L164.393 135.342C163.519 135.408 162.935 135.484 162.281 135.486L162.288 139.486ZM166.541 137.252C166.508 136.464 166.431 135.679 166.31 134.9L162.357 135.513C162.455 136.145 162.518 136.782 162.545 137.421L166.541 137.252ZM166.292 134.799C166.071 133.737 165.717 132.599 165.487 131.742L161.623 132.777C161.919 133.881 162.184 134.691 162.376 135.613L166.292 134.799ZM163.556 134.259C164.63 134.259 165.626 134.248 166.632 134.279L166.755 130.281C165.667 130.247 164.57 130.259 163.555 130.259L163.556 134.259ZM166.422 134.261C167.015 134.343 167.604 134.457 168.184 134.604L169.165 130.726C168.44 130.542 167.706 130.4 166.965 130.298L166.422 134.261ZM170.59 132.089C170.178 130.717 169.891 129.647 169.545 128.658L165.77 129.981C166.077 130.859 166.297 131.703 166.759 133.24L170.59 132.089ZM169.54 128.645C169.224 127.76 168.763 126.8 168.49 126.162L164.812 127.735C165.2 128.641 165.508 129.249 165.774 129.993L169.54 128.645ZM167.185 128.876C167.907 128.676 168.863 128.443 169.724 128.165L168.493 124.359C167.734 124.605 167.032 124.768 166.118 125.021L167.185 128.876ZM169.724 128.165C170.601 127.881 171.562 127.449 172.183 127.206L170.724 123.481C169.781 123.851 169.236 124.119 168.493 124.359L169.724 128.165ZM173.237 124.438C172.967 123.907 172.573 123.038 172.154 122.324L168.706 124.353C169.048 124.934 169.261 125.443 169.67 126.249L173.237 124.438ZM172.152 122.321C171.651 121.474 171.065 120.617 170.601 119.898L167.24 122.066C167.79 122.919 168.259 123.596 168.708 124.357L172.152 122.321ZM169.749 122.803C170.607 122.412 171.506 122.009 172.383 121.604L170.706 117.972C169.841 118.372 168.98 118.758 168.092 119.162L169.749 122.803ZM172.371 121.61C173.359 121.161 174.339 120.711 175.489 120.177L173.805 116.548C172.662 117.079 171.693 117.525 170.718 117.967L172.371 121.61ZM176 116.89L172.164 113.365L169.458 116.311L173.294 119.835L176 116.89ZM171.706 116.627C172.853 116.053 173.97 115.42 175.053 114.731L172.906 111.357C171.939 111.972 170.941 112.537 169.916 113.05L171.706 116.627ZM175.08 114.714C175.568 114.392 175.981 113.97 176.293 113.475L172.907 111.345C172.9 111.356 172.89 111.366 172.879 111.374L175.08 114.714ZM176.293 113.475C176.604 112.98 176.806 112.424 176.885 111.845L172.921 111.307C172.919 111.32 172.915 111.333 172.907 111.345L176.293 113.475ZM176.899 111.453C176.841 110.508 176.291 109.826 176.014 109.515C175.684 109.143 175.305 108.832 175.061 108.636L172.558 111.756C172.663 111.84 172.757 111.918 172.841 111.994C172.927 112.07 172.987 112.13 173.026 112.174C173.069 112.222 173.059 112.22 173.032 112.17C173.006 112.123 172.923 111.958 172.907 111.699L176.899 111.453ZM175.083 108.654C174.207 107.931 173.249 107.266 172.458 106.685L170.089 109.909C171.007 110.583 171.776 111.111 172.536 111.738L175.083 108.654ZM172.399 109.95C173.356 109.299 174.308 108.65 175.262 108.006L173.025 104.691C172.063 105.34 171.103 105.993 170.148 106.644L172.399 109.95ZM175.197 108.049C175.376 107.938 175.561 107.836 175.751 107.744L174.011 104.143C173.696 104.295 173.388 104.464 173.091 104.648L175.197 108.049ZM176.818 106.442C177.105 105.326 177.162 103.973 176.288 102.838C175.481 101.791 174.244 101.433 173.284 101.274L172.629 105.22C172.939 105.271 173.11 105.329 173.191 105.366C173.263 105.398 173.201 105.386 173.12 105.28C173.08 105.229 173.05 105.173 173.03 105.121C173.011 105.07 173.008 105.038 173.008 105.037C173.008 105.037 173.008 105.039 173.008 105.043C173.008 105.047 173.008 105.054 173.008 105.062C173.008 105.079 173.007 105.105 173.003 105.139C172.996 105.209 172.979 105.31 172.944 105.445L176.818 106.442ZM173.278 101.273C173.367 101.287 173.321 101.308 173.012 101.091C172.861 100.984 172.735 100.886 172.522 100.729C172.335 100.59 172.097 100.419 171.834 100.259L169.759 103.679C170.063 103.863 170.16 103.975 170.709 104.361C171.107 104.641 171.778 105.081 172.635 105.221L173.278 101.273ZM172.313 103.273C172.754 102.76 173.381 102.078 173.898 101.403L170.723 98.9707C170.296 99.5281 169.857 99.994 169.28 100.665L172.313 103.273ZM173.897 101.405C174.493 100.629 175.093 99.7219 175.572 99.0477L172.314 96.7285C171.702 97.5879 171.271 98.2568 170.725 98.9683L173.897 101.405ZM174.775 96.0695C173.965 95.6986 173.245 95.3848 172.519 95.0259L170.746 98.6117C171.543 99.0057 172.384 99.3743 173.111 99.7067L174.775 96.0695ZM172.519 95.0259C171.792 94.6665 171.119 94.2877 170.312 93.8588L168.434 97.3905C169.137 97.7641 169.951 98.2182 170.746 98.6117L172.519 95.0259ZM171.05 96.7146C171.411 96.16 171.948 95.3948 172.371 94.67L168.918 92.6519C168.554 93.2755 168.185 93.7834 167.696 94.5346L171.05 96.7146ZM172.376 94.6624C172.865 93.8168 173.304 92.9221 173.693 92.1611L170.132 90.3401C169.701 91.1836 169.334 91.9318 168.913 92.6595L172.376 94.6624ZM172.442 89.3218C171.387 89.0324 170.864 88.9472 170.031 88.6935L168.865 92.52C169.653 92.7598 170.778 93.0133 171.383 93.1794L172.442 89.3218ZM170.031 88.6935C169.267 88.4608 168.596 88.1973 167.706 87.8877L166.393 91.666C167.103 91.9129 168.009 92.2592 168.865 92.52L170.031 88.6935ZM168.882 90.5777C169.181 89.893 169.517 89.1433 169.824 88.4319L166.151 86.8473C165.843 87.5601 165.542 88.2327 165.217 88.976L168.882 90.5777ZM169.824 88.4319C170.133 87.7143 170.502 86.8148 170.817 86.0667L167.132 84.5123C166.788 85.3278 166.456 86.1407 166.151 86.8473L169.824 88.4319ZM169.395 83.334C168.5 83.1418 167.576 82.9375 166.648 82.744L165.831 86.6599C166.746 86.8506 167.626 87.0455 168.555 87.2449L169.395 83.334ZM166.648 82.744C165.688 82.544 164.871 82.4122 164.063 82.2684L163.362 86.2065C164.243 86.3635 164.948 86.4758 165.831 86.6599L166.648 82.744ZM165.596 84.9088C165.686 84.6588 165.757 84.4121 165.814 84.2133C165.876 83.9961 165.919 83.841 165.969 83.6856C166.07 83.3653 166.128 83.2918 166.124 83.2976L163.018 80.7773C162.539 81.3669 162.3 82.0238 162.157 82.4727C162.084 82.7019 162.018 82.9412 161.968 83.1146C161.913 83.3064 161.871 83.4465 161.829 83.566L165.596 84.9088ZM166.13 83.2901C166.761 82.5044 167.496 81.3401 167.334 79.9516C167.158 78.4392 166.045 77.5046 164.995 76.933L163.083 80.4463C163.22 80.5213 163.317 80.5848 163.381 80.6334C163.446 80.6821 163.47 80.7095 163.471 80.7108C163.471 80.711 163.465 80.7041 163.455 80.6895C163.446 80.6748 163.433 80.6533 163.42 80.6249C163.392 80.5649 163.37 80.4923 163.361 80.4146C163.343 80.2553 163.388 80.1887 163.355 80.2657C163.339 80.304 163.307 80.3677 163.249 80.4584C163.192 80.5487 163.114 80.6572 163.012 80.7848L166.13 83.2901ZM163.139 76.9038C162.977 76.9854 162.808 77.0517 162.633 77.1018L163.738 80.9463C164.152 80.8272 164.554 80.6696 164.939 80.4755L163.139 76.9038ZM162.864 77.0501C161.837 77.2175 160.797 77.3635 159.707 77.5289L160.306 81.4837C161.336 81.3276 162.455 81.1696 163.507 80.998L162.864 77.0501ZM161.953 79.9652C162.217 78.8448 162.398 77.7063 162.494 76.5592L158.508 76.2257C158.429 77.176 158.279 78.1192 158.06 79.0474L161.953 79.9652ZM162.498 76.2858C162.449 75.3639 162.299 74.4502 162.049 73.5614L158.198 74.6415C158.368 75.2476 158.471 75.8706 158.504 76.4991L162.498 76.2858ZM159.736 72.1394C157.687 72.5446 156.268 72.8355 154.907 73.1069L155.689 77.0297C157.088 76.7508 158.454 76.4705 160.512 76.0634L159.736 72.1394ZM157.298 75.1122C157.329 73.701 157.367 72.292 157.421 70.2564L153.423 70.1491C153.368 72.1826 153.33 73.6017 153.299 75.0244L157.298 75.1122ZM155.394 68.2029C154.438 68.2164 153.485 68.3122 152.546 68.4891L153.286 72.4201C154 72.2856 154.724 72.2129 155.45 72.2026L155.394 68.2029ZM152.335 68.5409C151.095 68.9175 149.875 69.3567 148.679 69.8565L150.222 73.547C151.293 73.0992 152.386 72.7058 153.497 72.3683L152.335 68.5409ZM151.448 71.595L151.249 67.8843L147.255 68.0978L147.453 71.8085L151.448 71.595ZM151.25 67.9048C151.251 67.9225 151.248 67.9267 151.26 67.6947C151.271 67.4872 151.289 67.1556 151.313 66.596L147.316 66.4283C147.294 66.9652 147.277 67.2778 147.266 67.488C147.256 67.6738 147.245 67.8692 147.254 68.0772L151.25 67.9048ZM148.585 64.6499C147.456 65.0923 146.35 65.4698 145.405 65.8989L147.058 69.541C147.888 69.1642 148.651 68.9201 150.044 68.3744L148.585 64.6499ZM145.382 65.9094C144.493 66.3266 143.562 66.9388 142.966 67.2861L144.981 70.7417C145.889 70.2123 146.401 69.8499 147.081 69.5305L145.382 65.9094ZM145.836 68.2844C145.678 67.8811 145.546 67.489 145.373 66.9993C145.209 66.5373 145.016 66.0163 144.772 65.4966L141.151 67.1963C141.308 67.5314 141.448 67.9007 141.603 68.337C141.748 68.7456 141.922 69.2597 142.111 69.7435L145.836 68.2844ZM144.772 65.4966C144.324 64.5415 143.654 63.5122 143.054 62.4753L139.592 64.4778C140.364 65.8127 140.797 66.4416 141.151 67.1963L144.772 65.4966ZM139.676 62.3416L136.69 66.6751L139.983 68.945L142.97 64.6115L139.676 62.3416ZM139.956 66.637C139.188 65.5755 138.727 65.0056 138.294 64.3237L134.918 66.4695C135.436 67.2842 136.088 68.1145 136.717 68.9831L139.956 66.637ZM138.296 64.3278C137.795 63.5352 137.396 62.7503 136.853 61.781L133.364 63.7372C133.812 64.5363 134.34 65.5558 134.915 66.4653L138.296 64.3278ZM133.656 61.3844C132.906 62.1768 132.405 62.7712 131.781 63.356L134.516 66.2749C135.251 65.5861 135.996 64.7301 136.561 64.1338L133.656 61.3844ZM131.801 63.3379C131.656 63.4699 131.473 63.6453 131.363 63.748C131.23 63.8726 131.126 63.9659 131.035 64.0394C130.991 64.0747 130.957 64.1002 130.931 64.1181C130.904 64.1362 130.892 64.143 130.892 64.1429C130.892 64.1428 130.912 64.1321 130.95 64.119C130.988 64.1056 131.05 64.0881 131.131 64.0781L131.62 68.0482C132.51 67.9387 133.186 67.4435 133.546 67.153C133.902 66.8659 134.341 66.4348 134.496 66.293L131.801 63.3379ZM131.207 64.0702C131.577 64.0389 131.869 64.1306 132.041 64.2079C132.208 64.2828 132.31 64.3645 132.345 64.3942C132.407 64.4462 132.4 64.4548 132.316 64.3441C132.243 64.247 132.159 64.1242 132.048 63.9582C131.951 63.8134 131.816 63.6084 131.688 63.4316L128.45 65.7805C128.52 65.8772 128.598 65.9952 128.722 66.1801C128.831 66.3439 128.975 66.5574 129.129 66.7605C129.272 66.9498 129.493 67.2223 129.775 67.4589C130 67.6481 130.635 68.133 131.544 68.0561L131.207 64.0702ZM131.699 63.4466C131.195 62.7387 130.801 62.0537 130.242 61.1764L126.869 63.3267C127.314 64.0248 127.86 64.951 128.44 65.7655L131.699 63.4466ZM127.186 60.7935C126.429 61.5041 125.527 62.3107 124.728 63.159L127.641 65.9003C128.327 65.1718 129.064 64.5175 129.924 63.7096L127.186 60.7935ZM124.741 63.1459C124.136 63.7768 123.526 64.6405 123.186 65.0673L126.313 67.5613C126.922 66.7976 127.181 66.3804 127.629 65.9134L124.741 63.1459ZM126.043 64.7891C125.399 64.2431 124.889 63.8397 124.363 63.3598L121.666 66.3142C122.26 66.8558 122.939 67.4019 123.455 67.8395L126.043 64.7891ZM124.467 63.4616C123.684 62.6354 122.863 61.8375 122.024 61.0675L119.32 64.0156C120.103 64.7336 120.855 65.4655 121.563 66.2124L124.467 63.4616ZM107.858 137.764C101.805 133.643 97.3499 128.321 94.7627 121.49L91.0221 122.907C93.9289 130.581 98.9457 136.536 105.607 141.071L107.858 137.764ZM94.767 121.502C91.0677 111.549 91.6934 101.921 96.6796 92.5888L93.1518 90.7037C87.6209 101.055 86.9226 111.878 91.0177 122.895L94.767 121.502ZM96.6797 92.5887C97.8125 90.4682 99.4665 88.7912 101.292 86.4783L98.1526 84C96.6666 85.8825 94.5076 88.1659 93.1517 90.7038L96.6797 92.5887ZM101.293 86.4779C101.463 86.2622 101.581 86.1781 101.624 86.1531C101.657 86.1342 101.622 86.161 101.54 86.1608C101.46 86.1607 101.432 86.1353 101.475 86.1595C101.526 86.1887 101.645 86.2734 101.811 86.4733L104.888 83.917C104.107 82.9768 102.977 82.1632 101.547 82.1608C100.098 82.1582 98.9513 82.9875 98.1522 84.0004L101.293 86.4779ZM101.812 86.4747C104.034 89.1441 106.162 91.4838 107.75 94.1598L111.19 92.1188C109.391 89.0867 106.948 86.3927 104.887 83.9157L101.812 86.4747ZM107.749 94.1584C107.746 94.1536 107.759 94.175 107.778 94.2328C107.797 94.2899 107.817 94.3706 107.834 94.4768C107.867 94.6927 107.879 94.9665 107.856 95.2749C107.809 95.9239 107.631 96.4991 107.457 96.8057L110.936 98.7791C111.472 97.8342 111.766 96.6484 111.845 95.5666C111.921 94.53 111.828 93.1968 111.191 92.1201L107.749 94.1584ZM107.456 96.8073C102.089 106.291 103.272 117.795 111.317 125.387L114.062 122.478C107.473 116.259 106.395 106.803 110.937 98.7774L107.456 96.8073ZM111.317 125.387C112.444 126.451 112.869 127.246 112.993 127.888C113.113 128.509 113.016 129.321 112.372 130.567L115.926 132.402C116.811 130.688 117.27 128.938 116.92 127.129C116.575 125.342 115.506 123.841 114.062 122.478L111.317 125.387ZM112.372 130.567C111.201 132.835 110.19 135.17 109.206 137.437L112.876 139.028C113.869 136.74 114.827 134.53 115.926 132.403L112.372 130.567ZM109.206 137.437C108.806 138.362 108.569 138.277 108.762 138.23C108.833 138.212 108.823 138.242 108.67 138.195C108.504 138.144 108.237 138.022 107.857 137.764L105.608 141.072C106.712 141.822 108.16 142.498 109.718 142.114C111.336 141.716 112.289 140.382 112.876 139.028L109.206 137.437ZM153.093 110.869C155.716 110.214 158.408 109.983 161.372 109.594L160.851 105.628C158.124 105.986 155.04 106.259 152.123 106.989L153.093 110.869ZM161.372 109.594C162.113 109.496 162.552 109.483 162.809 109.508C163.047 109.532 162.909 109.568 162.726 109.389C162.55 109.218 162.588 109.098 162.628 109.368C162.671 109.648 162.681 110.111 162.63 110.874L166.621 111.139C166.677 110.304 166.692 109.491 166.584 108.771C166.473 108.04 166.205 107.194 165.514 106.522C164.816 105.842 163.955 105.603 163.208 105.528C162.48 105.455 161.671 105.52 160.85 105.628L161.372 109.594ZM162.631 110.871C161.689 124.689 152.514 136.437 139.127 141.094L140.441 144.872C155.283 139.708 165.567 126.621 166.621 111.142L162.631 110.871ZM139.108 141.1C133.616 143.073 127.721 143.654 121.95 142.793L121.359 146.749C127.784 147.708 134.346 147.061 140.46 144.865L139.108 141.1ZM121.951 142.793C121.217 142.683 120.785 142.571 120.537 142.471C120.305 142.377 120.418 142.368 120.532 142.56C120.644 142.751 120.581 142.844 120.611 142.591C120.643 142.321 120.755 141.883 121.016 141.18L117.265 139.79C116.97 140.585 116.728 141.374 116.64 142.115C116.549 142.873 116.597 143.762 117.086 144.592C117.576 145.423 118.331 145.894 119.037 146.179C119.726 146.458 120.529 146.625 121.358 146.749L121.951 142.793ZM121.013 141.189C121.985 138.602 122.974 136.033 124.066 133.509L120.394 131.922C119.263 134.538 118.246 137.181 117.268 139.782L121.013 141.189ZM124.06 133.523C124.186 133.238 124.388 132.925 124.686 132.531C124.915 132.229 125.391 131.644 125.686 131.225L122.42 128.917C122.143 129.309 121.927 129.549 121.497 130.117C121.137 130.593 120.714 131.197 120.4 131.909L124.06 133.523ZM124.156 132.069C125.471 132.001 126.178 131.929 126.974 131.926L126.958 127.926C126.042 127.929 125.043 128.017 123.95 128.074L124.156 132.069ZM126.973 131.926C137.337 131.886 145.582 126.367 149.423 116.827L145.712 115.334C142.49 123.338 135.723 127.892 126.958 127.926L126.973 131.926ZM149.422 116.83C149.756 116.003 150.066 115.016 150.307 114.34C150.578 113.58 150.835 112.979 151.156 112.485L147.805 110.301C147.222 111.196 146.84 112.153 146.539 112.997C146.208 113.925 146.014 114.588 145.713 115.331L149.422 116.83ZM151.171 112.462C151.657 111.694 152.391 111.115 153.252 110.823L151.964 107.036C150.238 107.623 148.765 108.783 147.791 110.324L151.171 112.462ZM132.404 120.598C125.246 123.402 117.925 120.263 115.289 113.509L111.563 114.964C115.049 123.896 124.767 127.886 133.863 124.322L132.404 120.598ZM115.289 113.509C112.661 106.776 115.951 99.5511 123.159 96.7323L121.702 93.007C112.604 96.5651 108.069 106.011 111.563 114.964L115.289 113.509ZM123.165 96.7298C126.325 95.4814 129.85 95.531 132.973 96.8678L134.547 93.1903C130.455 91.4387 125.836 91.3738 121.695 93.0095L123.165 96.7298ZM132.973 96.8678C136.097 98.2046 138.567 100.721 139.845 103.869L143.551 102.363C141.876 98.2385 138.64 94.9419 134.547 93.1903L132.973 96.8678ZM139.851 103.882C142.523 110.328 139.199 117.95 132.407 120.596L133.859 124.324C142.641 120.902 147.117 110.967 143.546 102.35L139.851 103.882ZM154.64 86.354C157.123 89.3768 159.288 92.6467 161.102 96.1121L164.646 94.2567C162.705 90.5486 160.388 87.0497 157.732 83.8152L154.64 86.354ZM161.116 96.1385C161.694 97.2017 161.408 97.3592 161.515 97.1765C161.544 97.128 161.532 97.1921 161.31 97.3035C161.08 97.4189 160.7 97.5457 160.119 97.6386L160.749 101.589C162.315 101.338 164.061 100.739 164.963 99.2039C165.93 97.5607 165.446 95.7302 164.632 94.2302L161.116 96.1385ZM160.119 97.6386C157.522 98.0534 154.346 98.3471 151.529 98.9182L152.323 102.839C155.121 102.271 157.673 102.08 160.749 101.589L160.119 97.6386ZM151.526 98.9187C150.646 99.0984 150.128 98.9876 149.812 98.8291C149.497 98.6713 149.133 98.3423 148.793 97.6156L145.17 99.3104C145.783 100.622 146.699 101.744 148.021 102.406C149.342 103.067 150.821 103.145 152.326 102.838L151.526 98.9187ZM148.792 97.6133C146.325 92.3567 141.419 88.847 136.203 87.0392C131 85.2357 125.181 85.015 120.598 86.6766L121.961 90.4371C125.508 89.1511 130.365 89.2493 134.893 90.8187C139.409 92.3838 143.289 95.3011 145.171 99.3128L148.792 97.6133ZM120.599 86.6761C119.502 87.0728 118.723 87.1313 118.154 86.9976C117.643 86.8779 117.053 86.5472 116.419 85.6122L113.109 87.8573C114.19 89.4522 115.567 90.4997 117.24 90.892C118.853 91.2704 120.474 90.9749 121.959 90.4376L120.599 86.6761ZM116.417 85.6092C114.982 83.5001 113.148 81.4373 111.742 79.6388L108.591 82.1028C110.243 84.216 111.759 85.8739 113.111 87.8602L116.417 85.6092ZM111.744 79.6412C111.351 79.1366 111.16 78.8098 111.078 78.6119C111.004 78.435 111.073 78.499 111.028 78.682C110.985 78.8608 110.9 78.8777 111.059 78.7407C111.233 78.5916 111.563 78.3766 112.151 78.0927L110.412 74.4904C109.693 74.8374 109.011 75.2286 108.456 75.7041C107.887 76.1919 107.357 76.852 107.142 77.7362C106.926 78.6246 107.096 79.4559 107.386 80.1518C107.668 80.8266 108.104 81.4779 108.589 82.1003L111.744 79.6412ZM112.145 78.0956C113.333 77.5271 114.509 77.0201 115.276 76.6726L113.624 73.0295C112.954 73.3335 111.652 73.8971 110.418 74.4875L112.145 78.0956ZM115.153 76.7237C130.03 71.1426 144.839 74.8291 154.662 86.3804L157.71 83.7889C146.74 70.89 130.125 66.8347 113.748 72.9785L115.153 76.7237ZM121.784 94.2031C113.1 97.7798 109.325 106.571 112.888 115.17L116.584 113.638C113.892 107.144 116.609 100.661 123.307 97.9017L121.784 94.2031ZM112.889 115.171C115.722 121.995 124.639 127.33 134.128 123.065L132.488 119.417C125.293 122.651 118.655 118.628 116.583 113.637L112.889 115.171ZM134.129 123.065C141.763 119.629 145.836 110.503 142.519 102.71L138.839 104.276C141.227 109.888 138.317 116.793 132.487 119.417L134.129 123.065ZM142.532 102.741C141.745 100.803 140.58 99.0409 139.104 97.559L136.27 100.382C137.37 101.487 138.239 102.8 138.826 104.245L142.532 102.741ZM139.104 97.559C137.627 96.0772 135.87 94.9049 133.935 94.1109L132.417 97.8115C133.859 98.4035 135.169 99.2774 136.27 100.382L139.104 97.559ZM133.935 94.1109C132 93.3169 129.926 92.9171 127.834 92.935L127.868 96.935C129.428 96.9216 130.974 97.2196 132.417 97.8115L133.935 94.1109ZM127.834 92.935C125.743 92.953 123.676 93.3882 121.754 94.2153L123.336 97.8894C124.768 97.2728 126.309 96.9483 127.868 96.935L127.834 92.935ZM129.725 113.59C126.299 114.931 123.354 113.58 122.29 110.785L118.552 112.208C120.514 117.363 125.979 119.353 131.184 117.314L129.725 113.59ZM122.29 110.785C121.231 108 122.511 105.052 126 103.715L124.57 99.9798C119.356 101.976 116.586 107.041 118.552 112.208L122.29 110.785ZM126.041 103.699C126.692 103.433 127.39 103.301 128.093 103.308L128.138 99.3086C126.901 99.2948 125.674 99.5285 124.529 99.996L126.041 103.699ZM128.093 103.308C128.796 103.316 129.49 103.465 130.135 103.745L131.729 100.076C130.595 99.5835 129.374 99.3225 128.138 99.3086L128.093 103.308ZM130.135 103.745C130.78 104.025 131.362 104.432 131.847 104.94L134.741 102.179C133.887 101.284 132.863 100.569 131.729 100.076L130.135 103.745ZM131.847 104.94C132.332 105.449 132.711 106.05 132.961 106.707L136.7 105.286C136.261 104.13 135.595 103.074 134.741 102.179L131.847 104.94ZM132.961 106.707C133.21 107.364 133.326 108.065 133.301 108.767L137.298 108.91C137.343 107.674 137.139 106.442 136.7 105.286L132.961 106.707ZM133.301 108.767C133.276 109.47 133.11 110.161 132.814 110.798L136.443 112.482C136.963 111.361 137.254 110.146 137.298 108.91L133.301 108.767ZM132.814 110.798C132.518 111.436 132.098 112.008 131.578 112.481L134.267 115.442C135.182 114.61 135.922 113.604 136.443 112.482L132.814 110.798ZM131.578 112.481C131.057 112.954 130.447 113.317 129.784 113.551L131.113 117.324C132.279 116.913 133.352 116.273 134.267 115.442L131.578 112.481ZM128.586 116.167L128.592 116.181L132.316 114.722L132.311 114.708L128.586 116.167Z" fill="#F8E2A5" mask="url(#path-2-inside-1_2099_15)"/>
<path d="M83.7276 123.393C82.7875 123.944 81.8124 124.448 80.9141 125.049C80.2147 125.568 79.5424 126.123 78.9 126.712C79.5959 127.274 80.2753 127.865 81.0002 128.388C81.3066 128.606 81.7838 128.596 82.0508 128.84C82.4766 129.282 82.8689 129.754 83.2244 130.255C82.7721 130.644 82.2825 130.988 81.7627 131.281C81.3521 131.475 80.7804 131.328 80.3612 131.515C79.6373 131.875 78.9335 132.275 78.2528 132.711C78.6702 133.396 79.1383 134.048 79.6531 134.662C80.1049 135.138 80.8194 135.367 81.2616 135.846C81.5847 136.232 81.7454 136.728 81.7097 137.23C81.6842 137.461 81.0493 137.732 80.6519 137.805C79.2521 138.071 77.8365 138.255 76.4245 138.477C77.1924 139.675 77.9997 140.846 78.7109 142.083C78.9423 142.49 79.1617 143.234 78.9677 143.487C78.7709 143.666 78.5392 143.802 78.2872 143.888C78.0352 143.973 77.7682 144.006 77.503 143.983C72.6743 143.712 72.6878 143.69 74.6036 148.172C74.7426 148.527 74.7491 149.221 74.5242 149.381C74.1071 149.671 73.5954 149.793 73.0923 149.721C71.6981 149.465 70.3229 149.075 68.9427 148.742L69.9078 153.252C69.9466 153.436 69.95 153.628 70.0641 154.668C68.687 154.145 67.6803 153.721 66.6434 153.375C65.8154 153.097 64.9589 152.929 64.1001 152.685C64.0233 153.534 63.9187 154.382 63.8744 155.229C63.8142 156.303 63.8046 157.38 63.7768 158.453L62.9423 158.553C62.2443 157.79 61.4938 157.077 60.6961 156.419C60.0893 155.971 59.1163 155.379 58.6097 155.61C58.1032 155.842 57.6333 156.845 57.3927 157.586C57.0786 158.706 56.826 159.843 56.636 160.991C55.7434 160.124 54.8853 159.232 53.9618 158.399C53.5068 157.986 52.6648 157.248 52.531 157.372C51.9112 157.856 51.408 158.473 51.059 159.177C50.4732 160.336 51.3378 162.585 48.6538 162.171L46.5878 156.897C45.5252 158.419 44.8991 159.461 44.176 160.425C43.6775 161.027 43.1483 161.604 42.5907 162.152C42.2235 161.483 41.8132 160.83 41.4988 160.141C41.3278 159.704 41.3345 159.171 41.1146 158.765C40.7967 158.165 40.4422 157.458 39.9002 157.161C39.6516 157.021 38.8876 157.696 38.4316 158.085C37.3532 158.989 36.3166 159.942 35.261 160.876L34.5348 156.791C34.2542 155.242 33.5116 154.786 32.1921 155.851C31.9447 156.135 31.681 156.404 31.4022 156.658C30.5629 157.169 29.6858 157.612 28.8247 158.082C28.7464 157.134 28.6776 156.182 28.5878 155.233C28.498 154.284 28.3949 153.329 28.284 152.382C27.4546 152.707 26.6064 152.984 25.7732 153.3C24.8143 153.675 23.8075 154.07 22.8198 154.457L22.0224 153.508C22.6267 152.649 23.1547 151.739 23.6005 150.788C23.8681 150.13 23.7049 149.276 23.7409 148.521C22.9534 148.47 22.1627 148.5 21.3814 148.61C20.4581 148.823 19.5943 149.272 17.7197 150.006C18.2953 148.398 18.6385 147.467 18.958 146.518C19.2774 145.569 19.5467 144.689 19.8401 143.772C18.9821 143.671 18.1271 143.564 17.2652 143.481C16.4033 143.399 15.3758 143.331 14.4153 143.265L15.9387 140.561C16.3249 139.872 16.7088 139.181 17.0904 138.489C16.2954 138.154 15.5199 137.755 14.7013 137.501C13.7682 137.208 12.796 137.042 11.8404 136.819C12.5143 136.04 13.2139 135.285 13.8537 134.476C14.3892 133.796 14.8582 133.059 15.3529 132.346C14.6518 131.968 14.0029 131.525 13.2881 131.197C12.2807 130.729 11.2383 130.341 9.83023 129.753C10.6401 129.082 10.7654 128.95 10.9123 128.859C12.2355 128.086 13.5624 127.323 14.8874 126.555L10.1858 122.811C11.3364 122.361 12.4041 122.009 13.4172 121.545C14.1926 121.121 14.9442 120.655 15.6685 120.149C15.1897 119.528 14.6751 118.936 14.1273 118.375C13.641 117.924 12.695 117.697 12.5637 117.206C12.4014 116.623 12.8821 115.859 13.1212 115.185C13.1397 115.134 13.4928 115.244 13.6814 115.203C14.956 114.942 16.2326 114.657 17.5034 114.386C16.8261 113.363 16.1123 112.36 15.4791 111.308C15.1969 110.767 14.9564 110.205 14.7596 109.627C15.4027 109.41 16.0632 109.25 16.7338 109.146C17.1835 109.108 17.6723 109.481 18.1249 109.436C19.0856 109.348 20.0349 109.103 20.9876 108.923C20.6891 108.006 20.3696 107.091 20.0903 106.167C19.811 105.242 19.6063 104.437 19.3658 103.569C20.2077 103.643 21.0477 103.712 21.8886 103.797C22.931 103.903 23.9714 104.032 25.0157 104.143C24.8993 103.182 24.7694 102.215 24.674 101.252C24.5863 100.407 24.5293 99.5551 24.4579 98.7093C25.2898 98.9696 26.1247 99.2232 26.9508 99.4968C27.8714 99.7998 28.7784 100.125 29.6931 100.441C29.807 99.4894 29.9276 98.5407 30.0319 97.5929C30.1362 96.645 30.2069 95.7103 30.2987 94.7728C31.1126 95.2835 31.8965 95.8447 32.7462 96.2916C33.596 96.7385 34.5954 97.1157 35.5277 97.5192C35.859 96.6427 36.2429 95.7733 36.5094 94.8725C36.7759 93.9717 36.9417 92.9832 37.1474 92.0399C37.918 92.7224 38.6827 93.4182 39.4658 94.0903C40.1282 94.6659 40.8156 95.2207 41.4952 95.784C41.9405 95.0288 42.4333 94.3104 42.8176 93.5127C43.202 92.7151 43.6085 91.7483 43.9935 90.8675C44.6303 91.6743 45.2498 92.4934 45.902 93.2832C46.4585 93.9555 47.0506 94.5919 47.6273 95.2453C48.169 94.6515 48.7363 94.0808 49.2485 93.4543C49.9236 92.6367 50.559 91.7739 51.2066 90.9284C51.6415 91.8973 52.0542 92.8804 52.5112 93.8351C52.8598 94.5558 53.2689 95.2472 53.654 95.948C54.4086 95.5307 55.3085 95.2445 55.9085 94.6444C56.6437 93.7789 57.3038 92.8524 57.8818 91.8748C58.1811 91.8626 58.4805 91.8504 58.777 91.8448C58.953 93.0424 59.0773 94.2491 59.3194 95.4318C59.5174 96.1712 59.7629 96.8971 60.0545 97.6048C60.7687 97.3329 61.4636 97.0126 62.1344 96.6462C62.6031 96.3464 62.8829 95.7335 63.3323 95.469C63.8859 95.2296 64.4658 95.0562 65.06 94.9525C65.242 95.5099 65.3806 96.0806 65.4743 96.6594C65.5042 97.0183 65.2089 97.3939 65.2005 97.7677C65.2426 98.708 65.3822 99.6433 65.4778 100.579C66.2992 100.318 67.1253 100.055 67.9333 99.7886C68.863 99.4797 69.7841 99.163 70.712 98.8493C70.565 99.8857 70.4545 100.902 70.3496 101.933C70.2611 102.809 70.2051 103.682 70.1396 104.56C70.9224 104.469 71.7451 104.423 72.492 104.269C73.0465 104.145 73.5505 103.738 74.1046 103.67C74.3553 103.625 74.6124 103.632 74.8603 103.69C75.1083 103.748 75.3419 103.855 75.547 104.006C75.6524 104.234 75.7084 104.481 75.7112 104.731C75.714 104.982 75.6637 105.23 75.5634 105.46C75.3752 105.982 74.8186 106.382 74.6266 106.894C74.3369 107.715 74.09 108.55 73.8868 109.396C74.6676 109.455 75.4451 109.577 76.233 109.583C76.8976 109.572 77.5628 109.35 78.2283 109.355C78.6471 109.351 79.3583 109.515 79.4122 109.737C79.4944 110.252 79.4151 110.779 79.1853 111.247C79.0435 111.563 78.5671 111.716 78.3479 112.018C77.7307 112.884 77.1611 113.788 76.5743 114.676C77.6738 114.97 78.782 115.243 79.8774 115.555C80.6256 115.771 81.3581 116.031 82.1012 116.277C81.6877 116.949 81.2309 117.594 80.7335 118.206C80.4261 118.537 79.7746 118.582 79.4874 118.894C78.967 119.375 78.5941 119.995 78.4123 120.681C78.3768 120.971 79.3012 121.538 79.8679 121.714C80.9672 122.009 82.081 122.246 83.2048 122.426L83.7276 123.393ZM21.0814 135.704C22.3899 138.056 23.2026 139.806 24.2719 141.378C28.3334 147.341 29.2425 147.234 33.4116 141.331C35.4305 138.466 37.2444 135.925 34.0942 132.768C33.558 132.197 33.262 131.441 33.2678 130.658C33.738 124.8 29.1187 124.923 25.4732 123.918C24.8242 123.79 24.1661 123.715 23.505 123.693C20.414 123.383 19.6153 123.956 19.855 127.081C20.0947 130.206 20.7259 133.271 21.091 135.7L21.0814 135.704ZM37.4742 101.839C31.612 104.351 27.1087 107.919 24.0497 113.154C22.5415 115.742 23.0484 116.937 25.9262 117.789C28.1303 118.447 30.3209 119.126 32.5887 119.565C33.4303 119.621 34.2633 119.367 34.9308 118.852C37.3692 117.1 39.7422 115.252 42.0878 113.376C42.6782 112.907 43.5046 112.208 43.5079 111.609C43.5277 108.836 43.338 106.079 43.1043 103.322C42.9384 101.374 41.7029 100.719 39.8774 101.141C38.9541 101.353 38.0492 101.669 37.4838 101.835L37.4742 101.839ZM58.8748 136.283C60.1051 137.814 61.9736 140.212 63.9344 142.535C65.077 143.885 66.4571 144.373 67.7929 142.771C72.5323 137.082 74.8504 130.604 73.8729 123.14C73.6011 121.034 72.4022 120.331 70.4517 120.985C67.8187 121.872 65.1865 122.776 62.6211 123.837C62.2809 124.024 61.9824 124.278 61.7439 124.585C61.5054 124.891 61.3321 125.243 61.2343 125.619C60.4213 128.88 59.7637 132.185 58.8748 136.283ZM60.2657 118.389C62.2506 117.611 65.3071 116.463 68.3299 115.229C70.41 114.37 70.7278 112.979 69.3957 111.117C65.2147 105.3 59.6212 101.779 52.5419 100.648C50.4292 100.308 49.164 101.13 49.2022 103.416C49.2708 106.005 49.3489 108.591 49.5686 111.17C49.634 111.503 49.766 111.82 49.9567 112.1C50.1475 112.381 50.393 112.62 50.6785 112.804C53.5748 114.55 56.5272 116.214 60.2657 118.389ZM40.8609 140.851C39.8152 142.417 38.1899 144.79 36.6274 147.211C35.3666 149.159 35.7204 150.641 38.0305 151.456C44.7881 153.841 51.3866 153.336 57.8872 150.462C60.1414 149.469 60.3866 147.935 59.0495 146.103C57.5351 144.014 55.9168 142.003 54.2006 140.077C53.7804 139.611 52.7612 139.452 52.0589 139.523C48.6276 139.855 45.203 140.317 40.8657 140.85L40.8609 140.851ZM44.2833 118.727C39.5162 120.534 37.2784 125.127 38.9957 129.553C40.713 133.98 45.2161 135.932 49.854 134.148C54.4919 132.364 56.6017 127.882 54.9513 123.457C54.563 122.445 53.9789 121.52 53.2325 120.734C52.486 119.949 51.592 119.318 50.6014 118.879C49.6109 118.439 48.5434 118.199 47.4601 118.173C46.3767 118.147 45.2988 118.334 44.2881 118.725L44.2833 118.727Z" fill="#F8E2A5"/>
<path d="M173.641 12.8339C172.951 15.2427 171.858 15.6136 170.093 14.016C169.611 13.699 169.085 13.4563 168.531 13.2959C168.355 13.8281 168.186 14.3676 167.997 14.8943C167.808 15.4211 167.639 16.5174 167.276 16.6129C166.659 16.7767 165.862 16.4175 165.188 16.1563C164.658 15.909 164.151 15.6149 163.673 15.2774C163.375 15.6594 163.076 15.8651 163.072 16.08C162.947 19.4536 162.969 19.4033 159.923 18.6665C159.55 18.5784 158.518 19.4094 158.534 19.7829C158.672 23.0692 158.725 23.0588 155.501 22.5321C155.002 22.4874 154.501 22.4718 154 22.4854C154.173 23.3125 154.343 23.8804 154.41 24.4629C154.492 25.1904 154.797 26.1795 154.448 26.5917C154.1 27.0039 153.075 26.7915 152.35 26.8934C151.811 26.9642 151.279 27.0945 150.743 27.2004C150.915 27.7315 151.106 28.2601 151.249 28.7972C151.432 29.5164 151.878 30.403 151.633 30.9203C151.388 31.4377 150.346 31.352 149.666 31.5819C148.986 31.8119 148.394 32.0802 147.465 32.4443C148.281 33.2013 148.858 33.5319 149.203 34.0265C150.138 35.3511 150.054 36.331 148.167 36.6019C147.524 36.7392 146.893 36.9273 146.28 37.1642C146.666 37.7778 146.942 38.5075 147.46 38.9808C148.977 40.3689 148.739 41.1696 146.827 41.7992C145.988 42.0757 145.259 42.6994 144.144 43.3706C144.55 43.493 144.947 43.6474 145.329 43.8325C146.12 44.3914 146.894 44.9726 147.677 45.5503C146.964 46.1885 146.239 46.8058 145.556 47.4685C145.073 47.9337 144.647 48.4543 144.386 48.7439L147.4 51.2051C146.659 52.1039 145.913 53 144.93 54.1967C145.478 54.466 146.109 54.7754 146.705 55.0621C147.301 55.3489 148.287 55.6599 148.321 56.0263C148.377 56.66 147.85 57.3607 147.531 57.9953C147.265 58.5107 146.924 58.9824 146.615 59.4678C147.183 59.7849 147.79 60.0263 148.421 60.1859C150.461 60.4271 150.834 61.1396 149.783 62.8414C149.506 63.4297 149.294 64.0466 149.151 64.681C149.813 64.8279 150.487 64.9123 151.165 64.9329C153.145 64.8228 153.78 65.4328 152.712 67.3287C152.449 67.9349 152.272 68.575 152.187 69.2304C153.961 69.3212 155.369 69.3835 156.735 69.4571L155.741 73.4415C156.4 73.3446 157.146 73.2293 157.889 73.1204C158.632 73.0114 159.529 72.899 160.36 72.7871C160.454 73.6136 160.576 74.4295 160.643 75.2774C160.63 75.8728 160.585 76.4671 160.508 77.0577C161.482 76.676 162.064 76.4067 162.664 76.213C163.346 76.0137 164.125 75.6405 164.721 75.8184C165.076 75.9288 165.162 76.946 165.361 77.56C165.56 78.1741 165.749 78.7764 165.945 79.3814C166.514 79.0544 167.074 78.7049 167.646 78.413C168.147 78.1646 168.821 77.6666 169.157 77.821C169.665 78.054 170.003 78.7437 170.316 79.292C170.674 79.9269 170.923 80.6151 171.221 81.2838C171.749 80.7681 172.31 80.2862 172.899 79.8411C173.348 79.5403 173.972 79.1813 174.417 79.2825C174.863 79.3837 175.222 80.0079 175.534 80.4473C175.943 81.0521 176.258 81.7245 176.614 82.3658C177.102 81.8052 177.642 81.2864 178.073 80.6858C179.218 79.0927 180.467 79.2275 181.394 80.9821C181.785 81.6179 182.215 82.2299 182.679 82.8147C183.039 82.373 183.359 81.8995 183.633 81.4001C184.785 78.6024 185.183 78.5558 187.098 80.948C187.339 81.2439 187.997 81.6363 188.07 81.5559C188.519 81.1864 188.869 80.7113 189.089 80.1732C189.794 77.9877 190.52 77.7293 192.087 79.1546C192.536 79.4987 193.018 79.798 193.525 80.0483C193.749 79.44 194.148 78.8365 194.176 78.2321C194.254 76.2248 195.113 75.8827 196.743 76.8155C197.411 77.1936 198.129 77.5109 199.074 77.9836C199.384 77.3417 199.676 77.0505 199.682 76.7357C199.747 73.6199 199.723 73.6656 202.752 74.4249C203.075 74.5063 204.044 73.6325 204.02 73.2518C203.791 70.0116 203.753 70.0212 206.681 70.7474C207.06 70.8382 207.759 70.845 207.847 70.6702C208.07 70.2271 208.117 69.7162 207.979 69.2399C206.921 66.3815 207.057 66.1828 210.024 66.4927C210.419 66.5306 211.12 66.5005 211.174 66.3335C211.332 65.8739 211.321 65.3726 211.141 64.9209C209.702 61.9519 209.893 61.6429 213.195 61.5458C213.664 61.5339 214.379 61.3527 214.512 61.0298C214.646 60.7069 214.38 60.0411 214.086 59.6621C212.316 57.3636 212.408 57.1456 215.48 56.5144C215.674 56.4869 215.86 56.4196 216.026 56.3168C216.193 56.2139 216.336 56.0777 216.448 55.9167C216.495 55.7176 216.496 55.5103 216.451 55.3106C216.406 55.1109 216.317 54.9241 216.189 54.7643C214.005 52.2587 213.999 52.282 216.997 50.998C217.277 50.8885 217.451 50.5236 217.664 50.284C214.679 47.1663 214.679 47.1663 218.119 44.8041C216.931 43.9896 214.951 43.21 214.986 42.5301C215.034 41.325 216.32 40.171 217.092 38.9944C213.608 37.2846 213.608 37.2846 215.659 33.6765C214.381 33.2563 213.136 32.8543 211.891 32.4523L213.345 28.5791C209.308 28.0223 209.308 28.0222 210.183 24.0009C208.847 23.9626 206.984 24.4271 206.358 23.7461C205.733 23.0651 206.27 21.2365 206.314 19.6481C205.718 19.8721 205.107 20.0523 204.486 20.1874C203.759 20.2848 202.802 20.5245 202.348 20.1767C201.895 19.8289 202.137 18.8393 202.042 18.1324C201.967 17.5687 201.858 17.0129 201.763 16.4518C201.195 16.6223 200.633 16.8063 200.056 16.9542C199.355 17.13 198.624 17.4424 197.952 17.3467C197.681 17.307 197.492 16.3719 197.353 15.8177C197.159 15.1236 197.045 14.4085 196.898 13.7012C196.312 14.1502 195.674 14.5277 194.998 14.8257C194.121 15.0405 193.229 15.1831 192.329 15.252C192.296 14.6095 192.248 13.9677 192.225 13.3261C192.213 12.9095 192.239 12.4986 192.254 11.7538C191.404 11.9879 190.458 11.9371 190.194 12.3635C188.415 15.0478 187.21 15.1868 186.361 11.7838C186.295 11.5081 185.072 11.1494 184.849 11.3358C182.262 13.5511 182.292 13.5756 180.507 10.9559C180.395 10.7914 180.029 10.7996 179.657 10.6854C179.443 10.9495 179.261 11.2373 179.113 11.5433C178.116 14.4158 177.776 14.4764 175.705 12.2333C175.395 11.892 174.775 11.5574 174.406 11.6393C174.038 11.7213 173.77 12.3779 173.641 12.8339ZM199.508 63.7136C200.045 65.6938 199.452 67.263 197.365 68.0029C195.748 68.5789 192.445 67.4902 192.578 66.2362C192.783 64.595 193.713 62.9976 194.322 61.3907C196.891 61.0555 199.032 61.9542 199.508 63.7136ZM181.561 68.9501C182.026 70.8957 181.505 72.5256 179.412 73.2934C177.684 73.9027 174.547 72.827 174.743 71.4807C175.048 69.755 175.922 68.1812 177.227 67.0112C178.562 65.916 181.155 67.2362 181.561 68.9501ZM158.899 62.8289C158.246 60.8577 158.805 59.255 160.756 58.4592C162.707 57.6635 164.307 58.426 165.134 60.3391C166.011 62.3371 165.201 64.0279 163.349 64.774C161.498 65.5201 159.839 64.8435 158.901 62.8334L158.899 62.8289ZM208.565 47.7201C209.264 49.6367 208.321 51.494 206.27 52.2612C205.832 52.448 205.359 52.5392 204.882 52.5287C204.406 52.5183 203.937 52.4064 203.508 52.2005C203.078 51.9947 202.697 51.6996 202.391 51.335C202.084 50.9704 201.858 50.5446 201.729 50.086C201.032 47.9345 202.173 46.676 203.687 45.7863C205.892 44.9744 207.874 45.8368 208.567 47.7246L208.565 47.7201ZM203.322 29.9669C204.299 32.3416 203.491 34.0631 201.38 34.8901C199.269 35.7171 197.483 34.955 196.761 33.0211C196.04 31.0872 196.95 29.3053 199.067 28.5746C201.051 27.8753 202.588 28.4125 203.324 29.9714L203.322 29.9669ZM193.096 42.0585C195.64 48.7517 192.467 55.3799 185.403 58.1318C183.892 58.7424 182.274 59.0457 180.645 59.0241C179.015 59.0024 177.406 58.6563 175.912 58.0058C174.418 57.3554 173.068 56.4137 171.942 55.2358C170.816 54.0578 169.936 52.6673 169.353 51.1453C168.771 49.6234 168.497 48.0005 168.549 46.3717C168.6 44.7428 168.976 43.1405 169.653 41.6583C170.331 40.1762 171.297 38.844 172.496 37.7396C173.694 36.6351 175.1 35.7805 176.633 35.2257C183.568 32.4773 190.557 35.3789 193.096 42.0585ZM160.262 42.7738C161.125 44.2877 160.132 46.5602 158.419 47.2209C156.453 47.9914 154.878 47.3855 153.935 45.4968C153.748 45.0888 153.647 44.6467 153.639 44.1979C153.63 43.7491 153.715 43.3034 153.886 42.8886C154.057 42.4738 154.313 42.0988 154.635 41.7871C154.958 41.4753 155.342 41.2334 155.763 41.0766C157.799 40.2059 159.286 41.054 160.262 42.7738ZM187.227 21.8035C188.065 23.8372 187.29 25.4833 185.478 26.2765C183.666 27.0696 181.923 26.3789 180.992 24.4804C180.184 22.8302 181.08 20.7207 183.104 19.8706C184.735 19.4918 186.378 19.7167 187.234 21.7954L187.227 21.8035ZM169.533 27.1021C170.278 29.0056 169.552 30.5234 167.739 31.3013C165.782 32.1357 164.184 31.5234 163.331 29.5058C162.478 27.4882 163.404 26.0797 164.925 25.1666C167.284 24.4035 168.774 25.1257 169.554 27.0888L169.533 27.1021Z" fill="#F8E2A5"/>
<path d="M170.345 50.5975C171.39 53.4639 173.526 55.8011 176.287 57.1001C179.048 58.3991 182.21 58.5548 185.085 57.5331C191.389 55.2975 194.682 48.5389 192.413 42.4666C190.12 36.3203 183.665 33.4955 177.088 35.7651C171.277 37.7712 168.173 44.6015 170.345 50.5975ZM189.198 43.3568C190.907 47.4945 188.678 52.3482 184.232 54.1472C183.233 54.5587 182.162 54.7661 181.082 54.7572C180.002 54.7483 178.934 54.5232 177.942 54.0953C176.95 53.6674 176.054 53.0452 175.307 52.2656C174.559 51.4859 173.975 50.5644 173.589 49.5554C173.191 48.5765 172.991 47.5282 173.002 46.4715C173.013 45.4148 173.234 44.3708 173.653 43.4003C174.071 42.4299 174.678 41.5522 175.438 40.8186C176.199 40.0849 177.098 39.5098 178.083 39.1268C182.536 37.2937 187.466 39.1757 189.198 43.3568Z" fill="#F8E2A5"/>
</svg>
