<svg width="314" height="188" viewBox="0 0 314 188" fill="none" xmlns="http://www.w3.org/2000/svg">
<path opacity="0.5" fill-rule="evenodd" clip-rule="evenodd" d="M253.15 13.7691C254.315 17.9235 258.808 14.8113 262.522 12.6159C263.409 12.0919 264.237 12.0899 265.267 12.4935C266.754 13.0762 267.907 14.263 269.161 15.2514C273.047 18.3128 277.724 19.0901 282.389 19.4812C286.831 19.8536 288.524 21.8555 287.754 25.2178C287.182 27.7148 287.296 30.2423 287.41 32.772C287.564 36.2301 287.718 39.6913 286.124 43.0796C284.407 46.7243 282.038 49.8272 278.868 52.4832C278.065 53.1553 277.433 53.6979 277.48 54.6353C277.606 57.0319 276.64 58.5677 273.977 59.7081C271.416 60.8046 271.947 62.7492 274.257 63.7431C276.381 64.656 277.897 66.1241 279.414 67.5916C280.593 68.7334 281.771 69.8737 283.234 70.7516C285.205 71.9366 285.5 73.6887 284.719 75.8244C283.503 79.1606 286.033 81.6794 289.432 82.7088C290.362 82.9905 291.268 83.3317 292.159 83.667C292.955 83.9665 293.944 83.8631 294.287 83.0849C294.61 82.3529 294.53 81.6278 294.859 81.0191C296.23 78.4842 298.119 78.2909 300.44 80.3129C301.549 81.2793 302.502 82.3787 303.457 83.4782C305.286 85.5849 307.118 87.6938 310.047 88.8751C311 89.2586 311.504 90.3261 311.102 91.187C309.75 94.0822 310.628 96.3921 313.026 98.4144C313.407 98.7365 313.491 99.2999 313.178 99.6896C312.069 101.074 311.066 102.326 311.889 104.381C312.785 106.616 310.339 107.983 308.28 108.991L307.716 109.265C304.848 110.651 302.121 111.971 302.423 115.677C302.562 117.374 300.796 118.258 299.108 117.041C297.445 115.842 296.011 115.763 294.636 116.245C293.287 116.718 292.436 118.119 293.117 119.376C293.219 119.564 293.321 119.751 293.404 119.942C295.105 123.834 294.196 126.154 290.264 128.124C288.622 128.947 287.53 128.228 286.512 127.21C285.705 126.401 284.984 125.561 284.077 124.79C279.521 120.914 274.695 120.839 269.148 122.754C266.707 123.597 264.971 122.37 263.027 120.546L262.565 120.115C259.811 117.543 257.355 115.251 257.858 111.265C258.062 109.648 256.174 109.666 254.79 109.68L254.546 109.682C249.216 109.71 245.101 107.826 242.123 103.945C241.093 102.603 239.67 101.761 237.692 102.213C235.667 102.679 234.244 103.921 234.191 105.669C234.159 106.721 234.105 107.776 234.051 108.83C233.71 115.433 233.37 122.032 238.529 127.895C241.738 131.543 245.99 133.376 250.812 134.451C252.843 134.904 254.563 135.464 255.935 136.974C257.255 138.427 258.759 138.136 260.34 137.831C260.727 137.756 261.118 137.68 261.513 137.629C262.515 137.499 263.618 136.478 263.268 135.53C262.501 133.448 263.644 132.194 265.793 131.959C267.9 131.73 269.552 132.822 269.576 134.791C269.589 135.943 269.464 137.084 269.337 138.23C269.174 139.685 269.011 141.15 269.133 142.66C269.299 144.726 267.206 144.215 265.717 143.238C261.468 140.45 260.208 140.626 257.96 144.699C256.52 147.31 255.214 149.282 251.165 149.509C248.061 149.683 247.574 152.527 248.685 154.875C250.21 158.096 249.118 160.165 245.763 161.732C243.994 162.559 242.243 163.522 240.754 164.688C237.529 167.212 234.383 166.859 230.804 165.245C225.595 162.896 222.211 164.137 219.952 168.994C218.971 171.103 217.273 170.946 215.33 170.448C212.836 169.809 210.674 170.601 208.492 171.401C206.852 172.002 205.203 172.607 203.395 172.611C202.096 172.613 202.647 174.549 203.363 175.525C204.867 177.574 205.024 179.521 203.103 181.43C201.226 183.298 199.363 184.804 196.035 183.911C193.008 183.098 190.455 184.213 187.895 185.331C186.577 185.906 185.259 186.482 183.874 186.797C182.091 187.2 181.231 187.039 179.718 186.256C175.784 184.22 172.853 181.312 169.924 178.406C168.464 176.957 167.003 175.508 165.419 174.167C165.015 173.825 164.384 173.144 164.513 172.943C165.497 171.411 165.049 169.925 164.593 168.409C164.166 166.994 163.731 165.552 164.449 164.023C165.994 160.732 165.227 156.834 167.578 153.54C169.863 150.339 172.394 147.543 176.792 146.767C179.821 146.234 181.083 144.647 180.749 142.208C179.874 135.81 183.631 131.667 189.156 128.304C191.443 126.911 189.148 124.642 186.646 123.689C185.645 123.308 184.685 122.809 183.718 122.307C181.923 121.375 180.105 120.431 177.956 120.199C177.304 120.129 176.203 119.656 176.173 119.31C175.985 117.205 174.428 115.565 172.87 113.926C170.665 111.607 168.464 109.288 170.143 105.651C170.494 104.893 169.693 104.18 169.054 103.697C167.046 102.18 165.715 100.508 165.396 98.6215C164.984 96.1861 164.277 92.8724 162.157 94.1396C157.834 96.7236 156.736 102.061 159.84 105.651C161.469 107.533 162.206 109.524 161.201 112.003C160.142 114.605 159.124 117.242 158.178 119.882C157.011 123.147 153.081 123.695 149.641 124.046C147.763 124.237 145.857 124.2 143.949 124.162C143.099 124.145 142.249 124.128 141.401 124.132H141.243C139.696 124.136 138.156 124.141 137.028 125.34C135.451 127.018 133.688 127.401 131.283 126.456C128.766 125.468 129.005 123.874 129.258 122.179L129.331 121.679C129.348 121.549 129.29 121.412 129.214 121.253C129.093 121.008 128.892 120.802 128.634 120.71C126.156 119.825 124.142 120.873 122.118 121.925C121.786 122.098 121.454 122.271 121.118 122.436C118.283 123.828 115.496 124.166 112.048 124.328C110.33 124.409 108.559 124.341 106.775 124.272C101.822 124.081 96.7586 123.886 92.3705 126.865C92.1823 126.992 91.9872 127.113 91.7921 127.234C90.9118 127.777 90.0501 128.31 89.9925 129.381L89.9874 129.491C89.9195 130.792 89.8483 132.156 87.8977 132.097C86.0641 132.041 84.3747 131.053 83.937 129.534C83.5164 128.075 83.4078 126.58 83.3552 125.074C83.2993 123.459 83.3077 121.831 83.0652 120.218C82.8871 119.034 84.0168 118.593 85.311 118.087C86.7789 117.514 86.5235 115.897 85.063 115.305C84.6498 115.138 84.2425 114.968 83.8387 114.793C81.9983 113.996 79.6049 113.011 79.6134 111.274C79.6304 107.512 76.9877 105.395 74.6232 102.838C72.6505 100.704 73.5766 98.2564 75.5052 96.256C76.4454 95.2799 77.4042 94.3188 78.4123 93.3665C81.2985 90.6401 80.1362 85.832 76.1735 85.5864C69.9899 85.2031 64.0655 84.8366 59.0066 81.3029C58.9231 81.2446 58.8064 81.2738 58.7621 81.3655C55.6665 87.7808 55.5851 87.9466 48.1574 87.5147C46.6817 87.4292 45.2451 87.6663 43.8033 87.9042C43.5818 87.9408 43.3602 87.9775 43.1383 88.013C40.2967 88.4678 38.3727 85.9427 40.801 84.3985C41.0368 84.2483 41.2726 84.0981 41.4999 83.942C44.1748 82.1067 44.2172 78.6648 41.5965 75.2862C39.7273 72.8777 37.4951 72.5655 34.5437 74.0879C30.4644 76.1916 26.4173 75.2535 23.6609 71.7738C21.522 69.0746 19.5697 66.362 15.8499 64.9399C13.5329 64.0538 12.8036 61.994 13.2819 59.7594C13.7484 57.5791 13.0088 55.7742 11.1447 54.2993C6.43095 50.5728 7.02971 47.3659 13.3871 43.3412C15.8567 41.7779 16.0687 41.0063 13.6822 39.5686C11.9826 38.5457 10.8292 37.111 11.8147 35.3701C12.7171 33.7778 13.7975 34.3226 14.878 34.869C15.3292 35.0972 15.7804 35.3255 16.2197 35.3968C17.7595 35.6482 18.8819 34.3264 18.7321 32.7734C18.5438 30.8201 17.5793 29.0708 16.6166 27.3238C15.7465 25.7449 14.8763 24.1682 14.5812 22.445C14.3692 21.2006 13.0529 21.269 11.8842 21.33C11.6807 21.3404 11.4805 21.3508 11.2923 21.3538C8.04404 21.4065 4.94847 20.8074 1.19988 20.0811C0.696243 19.984 0.505133 19.3501 0.851852 18.9721C1.04178 18.7651 1.22409 18.5601 1.40172 18.3602C3.1081 16.4401 4.38873 14.9994 7.89307 16.8222C10.3509 18.1 13.672 18.2747 16.7506 18.1253C19.5901 17.9878 21.042 19.1735 21.2405 21.6771C21.2557 21.8756 21.2574 22.0904 21.2591 22.3097C21.2625 23.3861 21.2676 24.583 23.0299 24.5837C24.8754 24.5852 25.7744 22.9438 25.983 21.7165C26.4936 18.7081 28.8937 17.3061 31.3498 15.8706L31.8688 15.5673C32.9731 14.9154 34.0332 14.5229 35.4987 14.8946C38.2923 15.603 39.2778 14.2791 38.7028 12.0698C37.8089 8.64209 39.517 5.82545 41.3777 3.14038C43.079 0.685768 45.6437 -0.175058 48.8122 1.35034C50.9663 2.3866 50.7119 3.62135 50.4168 5.05531C50.3116 5.56081 50.2014 6.09083 50.1895 6.64613C50.1471 8.80117 49.1836 10.5169 48.2388 12.1984C47.579 13.3737 46.9277 14.5326 46.6071 15.8141C45.7912 19.079 49.5449 20.1309 51.4888 21.8935C53.1934 23.4374 54.9778 21.8593 56.2517 20.6884C60.2394 17.0221 61.7677 16.7493 66.5154 19.4098L67.4737 19.9503C69.6991 21.2118 71.9178 22.4681 74.4502 23.2449C75.4272 23.5445 76.4585 23.9846 76.7502 24.864C77.4423 26.9491 78.7823 28.7585 80.124 30.5694C81.8388 32.8865 83.5571 35.2065 83.9201 38.1101C84.205 40.3774 86.5984 40.9506 88.6745 41.4523L89.2546 41.5913C93.0032 42.4879 96.5398 43.3331 97.1843 47.7294C97.3811 49.0682 98.8822 49.4666 100.36 49.8599C100.984 50.0257 101.603 50.1899 102.119 50.4234C105.182 51.8127 106.7 53.3188 106.576 56.8439C106.556 57.4118 106.542 57.9783 106.529 58.5425C106.415 62.9819 106.303 67.2927 103.482 71.2675C102.755 72.2926 103.14 73.5593 104.249 73.8857C106.3 74.4893 109.012 76.2994 110.596 74.2373C111.517 73.0382 112.61 71.9455 113.704 70.8512C115.893 68.6598 118.087 66.4646 118.926 63.4041C120.349 58.2184 126.8 55.4969 132.491 57.3271C136.814 58.7179 138.246 58.0712 139.56 54.2116C140.061 52.7397 140.956 51.4641 142.157 50.3148C143.519 49.0102 143.246 47.519 142.378 46.0843C141.652 44.8845 140.687 45.1231 139.696 45.3684C139.328 45.4599 138.955 45.552 138.59 45.5714C136.344 45.6903 134.989 46.9555 133.648 48.2074L133.566 48.281C131.541 50.1684 129.019 50.8724 126.194 51.0114C124.212 51.1087 122.834 50.2732 122.118 48.7173C121.384 47.122 121.757 45.4859 123.462 44.712C125.725 43.6854 126.625 41.911 127.804 40.1879C130.784 35.8362 136.348 34.9411 140.889 38.0298C141.806 38.655 142.644 39.3189 143.899 39.3984C147.324 39.6147 148.584 41.6582 148.835 44.2712C148.978 45.7498 149.858 46.8024 150.547 48.0453C152.667 51.8685 155.676 53.7827 160.739 53.3062C162.678 53.1233 164.625 54.1595 166.077 55.5296C167.899 57.2498 169.475 56.7628 171.195 55.2627C176.1 50.9831 178.517 50.6464 184.676 53.1069L184.761 53.1404C186.075 53.6674 187.595 54.2755 188.35 52.6193C189.161 50.8449 189.904 48.9582 192.536 50.0517C195.157 51.1392 196.66 53.182 196.42 55.8864C196.31 57.1353 196.017 58.373 195.796 59.6144C195.08 63.6517 197.615 65.6514 201.543 66.9701C203.299 67.5588 204.309 67.2333 204.996 65.8149C205.146 65.5079 205.292 65.1994 205.437 64.8909C207.005 61.5777 208.572 58.2689 213.045 56.9888C213.123 56.9665 213.182 56.9019 213.245 56.8364C213.281 56.7985 213.316 56.7599 213.357 56.7294C214.507 55.847 214.95 54.5989 213.837 53.7395C212.421 52.646 212.399 51.0039 212.377 49.3767C212.346 47.1912 212.317 45.0324 208.913 44.266C207.108 43.8594 204.51 44.0452 204.888 41.853C205.244 39.7797 206.983 37.5348 209.819 37.8165C213.627 38.1956 214.604 36.1885 215.706 33.919L215.854 33.6164C216.736 31.8167 216.112 30.6244 214.247 29.9249C212.078 29.1109 210.648 27.6003 209.239 26.1106C208.91 25.7635 208.582 25.4178 208.246 25.0818C205.599 22.4331 206.477 17.657 210.088 17.1946C216.217 16.4111 220.698 13.4079 225.186 10.3994C226.759 9.34532 228.333 8.29047 229.978 7.33003C231.917 6.19936 234.044 5.45673 236.374 5.10066C239.175 4.67322 241.383 5.3876 242.374 7.71733C243.317 9.9363 245.006 10.7503 247.374 10.2255C251.036 9.41296 252.392 11.0677 253.15 13.7691ZM186.496 30.6229C192.261 29.4632 197.859 28.5875 202.328 33.241C205.4 36.7104 205.278 37.8485 201.501 39.3077C197.553 40.8316 193.481 42.3065 189.327 39.4274C187.77 38.348 185.672 39.0973 183.865 38.771C181.609 38.3629 180.183 37.363 182.184 35.4481C182.756 34.9017 183.076 34.2015 183.397 33.5012C183.964 32.2605 184.532 31.0184 186.496 30.6229Z" fill="#F4C66B"/>
</svg>
