<svg width="1806" height="341" viewBox="0 0 1806 341" fill="none" xmlns="http://www.w3.org/2000/svg">
<path fill-rule="evenodd" clip-rule="evenodd" d="M369.015 150.819C366.862 149.541 371.909 150.18 369.755 148.519C367.871 149.925 368.006 146.666 366.593 146.219C365.92 146.858 365.382 148.072 364.574 147.624C364.574 147.241 365.045 146.794 364.574 146.538C361.815 149.477 367.266 150.755 369.015 150.819Z" fill="#D17D54"/>
<path fill-rule="evenodd" clip-rule="evenodd" d="M331.67 221.171C332.477 221.746 331.67 222.64 332.073 223.279C333.554 221.874 335.371 222.129 336.918 221.298C334.967 220.212 333.486 221.298 331.67 221.171Z" fill="#D17D54"/>
<path fill-rule="evenodd" clip-rule="evenodd" d="M399.632 198.423C400.118 198.796 400.501 199.276 400.748 199.822C400.994 200.368 401.096 200.962 401.045 201.554C400.17 200.723 399.295 202.96 400.574 202.129C401.852 201.298 401.583 202.129 402.189 202.129C403.669 201.043 401.045 197.592 399.632 198.423Z" fill="#D17D54"/>
<path fill-rule="evenodd" clip-rule="evenodd" d="M339.072 225.835C339.812 225.004 340.754 225.452 341.494 224.813C338.802 223.535 338.533 222.257 336.851 222.321C339.071 223.215 337.187 224.941 339.072 225.835Z" fill="#D17D54"/>
<path fill-rule="evenodd" clip-rule="evenodd" d="M493.029 236.826C495.048 239.573 498.749 234.909 499.22 238.87C499.96 235.164 502.181 238.87 504.267 235.484C498.893 234.597 493.362 235.334 488.454 237.592C491.011 237.209 492.424 237.592 491.616 240.659C494.577 240.532 491.145 238.359 493.029 236.826Z" fill="#D17D54"/>
<path fill-rule="evenodd" clip-rule="evenodd" d="M686.083 248.966C685.141 249.413 684.333 248.966 683.256 250.308C684.468 251.969 685.141 250.691 685.073 252.672C686.621 251.586 685.477 250.18 686.083 248.966Z" fill="#D17D54"/>
<path fill-rule="evenodd" clip-rule="evenodd" d="M985.049 292.672C987.228 293.299 989.502 293.58 991.778 293.503C990.432 291.139 985.453 290.5 985.049 292.672Z" fill="#D17D54"/>
<path fill-rule="evenodd" clip-rule="evenodd" d="M1587.62 298.743C1589.04 300.659 1601.08 302.704 1599.6 299.19C1594.42 299.19 1583.05 298.423 1579.42 294.589C1578.74 297.401 1575.24 294.589 1574.64 297.912C1570.33 296.698 1566.36 295.931 1564.01 298.615C1571.14 300.774 1578.43 302.461 1585.81 303.663C1582.85 301.618 1588.7 301.81 1587.62 298.743Z" fill="#D17D54"/>
<path fill-rule="evenodd" clip-rule="evenodd" d="M1264.64 314.717C1266.66 313.056 1263.83 311.458 1263.83 309.861C1262.01 311.586 1262.21 314.717 1264.64 314.717Z" fill="#D17D54"/>
<path fill-rule="evenodd" clip-rule="evenodd" d="M1308.04 122.896C1308.04 122.512 1307.5 122.193 1308.04 121.81C1307.5 121.298 1308.04 120.723 1307.36 120.212C1304.81 120.212 1301.17 122.257 1299.76 119.126C1297.02 119.83 1294.19 120.216 1291.35 120.276C1297.14 122.512 1302.59 120.979 1308.04 122.896Z" fill="#D17D54"/>
<path fill-rule="evenodd" clip-rule="evenodd" d="M1408.1 319.765C1408.57 320.212 1409.51 320.596 1409.04 321.235C1409.63 321.609 1410.3 321.845 1411 321.923C1411.7 322 1412.41 321.918 1413.08 321.682C1411.73 320.659 1410.25 318.423 1408.1 319.765Z" fill="#D17D54"/>
<path fill-rule="evenodd" clip-rule="evenodd" d="M653.515 243.088C656.206 243.535 656.139 241.81 658.629 239.637C661.993 240.915 661.186 241.107 661.32 244.174C662.935 241.49 668.857 241.81 667.242 238.231C664.079 238.231 660.513 240.723 657.821 237.401C654.726 239.382 653.38 239.957 653.515 243.088Z" fill="#D17D54"/>
<path fill-rule="evenodd" clip-rule="evenodd" d="M1241.89 321.746C1245.8 323.121 1250.1 323.121 1254 321.746C1250.85 320.828 1247.53 320.545 1244.25 320.915C1244.7 320.618 1245.01 320.162 1245.11 319.647C1245.21 319.132 1245.1 318.6 1244.79 318.167C1243.37 319.19 1244.11 320.468 1241.89 321.746Z" fill="#D17D54"/>
<path fill-rule="evenodd" clip-rule="evenodd" d="M1542 309.158C1547.25 308.838 1553.58 310.755 1557.41 307.241C1551.96 307.369 1545.97 305.899 1542 309.158Z" fill="#D17D54"/>
<path fill-rule="evenodd" clip-rule="evenodd" d="M1474.04 312.8C1474.92 309.477 1473.57 309.669 1471.21 307.944C1469.67 309.664 1467.67 310.965 1465.43 311.714C1468.46 312.928 1472.49 309.669 1474.04 312.8Z" fill="#D17D54"/>
<path fill-rule="evenodd" clip-rule="evenodd" d="M1504.25 314.717C1505.13 312.544 1508.43 316.953 1509.37 314.717C1508.69 312.417 1504.19 314.717 1506.54 311.011C1509.97 311.297 1513.41 311.297 1516.84 311.011C1516.3 310.628 1516.23 310.052 1516.84 309.286C1511.79 307.369 1505.8 311.586 1503.38 309.733L1502.44 311.139C1502.44 311.586 1502.03 312.033 1502.77 312.161C1505.87 310.116 1503.18 314.461 1504.25 314.717Z" fill="#D17D54"/>
<path fill-rule="evenodd" clip-rule="evenodd" d="M1601.35 287.433C1603.51 287.816 1603.44 289.286 1606.53 289.222C1608.75 285.835 1603.44 286.794 1601.35 287.433Z" fill="#D17D54"/>
<path fill-rule="evenodd" clip-rule="evenodd" d="M755.727 253.311C757.477 256.889 760.37 253.311 762.456 257.081C763.263 256.25 764.878 255.612 764.475 254.653C760.841 257.145 758.957 251.266 755.727 253.311Z" fill="#D17D54"/>
<path fill-rule="evenodd" clip-rule="evenodd" d="M1091.43 308.583C1092.98 308.902 1094.66 307.241 1096.14 308.966L1097.36 308.008C1097.76 307.688 1098.03 307.305 1097.36 306.921C1095.74 308.199 1091.3 305.643 1091.43 308.583Z" fill="#D17D54"/>
<path fill-rule="evenodd" clip-rule="evenodd" d="M1334.95 123.088C1331.25 124.941 1326.74 120.468 1322.98 122.385C1326.88 123.727 1333.61 127.369 1334.95 123.088Z" fill="#D17D54"/>
<path fill-rule="evenodd" clip-rule="evenodd" d="M1556.13 313.056C1557.95 311.203 1561.72 313.631 1563.27 311.394C1561.11 311.394 1554.59 310.5 1556.13 313.056Z" fill="#D17D54"/>
<path fill-rule="evenodd" clip-rule="evenodd" d="M1569.46 306.027C1563.94 303.854 1560.91 306.858 1557.48 308.966C1562.32 309.669 1564.61 305.196 1569.46 306.027Z" fill="#D17D54"/>
<path fill-rule="evenodd" clip-rule="evenodd" d="M667.982 250.308C668.924 251.394 669.933 251.969 671.01 251.714C669.328 249.925 672.288 248.583 671.01 246.794C670 247.88 669.193 247.241 668.251 248.199C670.27 250.116 670.404 248.838 667.982 250.308Z" fill="#D17D54"/>
<path fill-rule="evenodd" clip-rule="evenodd" d="M925.565 286.858C926.238 289.286 930.343 288.583 929.67 286.858C928.19 287.497 927.247 284.877 925.565 286.858Z" fill="#D17D54"/>
<path fill-rule="evenodd" clip-rule="evenodd" d="M1478.01 339.893C1479.22 338.806 1478.95 340.468 1480.5 340.915C1481.44 340.084 1482.65 340.084 1483.39 338.487C1481.58 337.72 1476.26 337.72 1478.01 339.893Z" fill="#D17D54"/>
<path fill-rule="evenodd" clip-rule="evenodd" d="M1520.34 308.902C1521.74 309.183 1523.19 309.193 1524.6 308.929C1526.02 308.666 1527.36 308.135 1528.54 307.369C1525.05 307.369 1523.97 306.538 1524.37 304.174C1521.21 304.941 1522.56 308.455 1520.34 308.902Z" fill="#D17D54"/>
<path fill-rule="evenodd" clip-rule="evenodd" d="M1133.09 303.854C1131.81 304.685 1132.41 305.643 1131.2 306.474C1131.61 306.964 1132.15 307.34 1132.77 307.565C1133.38 307.79 1134.05 307.854 1134.7 307.752C1134.3 306.474 1133.09 305.132 1133.09 303.854Z" fill="#D17D54"/>
<path fill-rule="evenodd" clip-rule="evenodd" d="M1490.39 337.72C1494.89 338.195 1499.44 337.936 1503.85 336.953C1499.38 335.962 1494.7 336.228 1490.39 337.72Z" fill="#D17D54"/>
<path fill-rule="evenodd" clip-rule="evenodd" d="M657.619 244.429C659.167 247.752 664.348 245.963 664.348 244.429C662.06 245.388 659.907 243.854 657.619 244.429Z" fill="#D17D54"/>
<path fill-rule="evenodd" clip-rule="evenodd" d="M1526.32 310.947C1530.63 310.947 1532.11 312.225 1536.28 309.989C1532.72 309.669 1528.88 308.838 1526.32 310.947Z" fill="#D17D54"/>
<path fill-rule="evenodd" clip-rule="evenodd" d="M1456.88 317.72C1454.39 317.72 1451.43 315.739 1449.48 317.72C1450.51 318.565 1451.82 319.031 1453.18 319.031C1454.54 319.031 1455.85 318.565 1456.88 317.72Z" fill="#D17D54"/>
<path fill-rule="evenodd" clip-rule="evenodd" d="M1467.18 315.164C1464.28 314.717 1462 316.57 1459.44 317.209C1462.8 319.254 1467.18 317.081 1467.18 315.164Z" fill="#D17D54"/>
<path fill-rule="evenodd" clip-rule="evenodd" d="M1484 313.503C1480.84 315.867 1482.72 307.816 1480.03 311.778C1481.51 312.289 1481.38 313.247 1480.03 314.525C1481.71 316.059 1485.82 315.1 1484 313.503Z" fill="#D17D54"/>
<path fill-rule="evenodd" clip-rule="evenodd" d="M1556.47 303.279C1555.06 302.896 1557.14 301.043 1556 300.532C1552.5 304.046 1540.19 300.532 1542.54 306.474C1545.57 302.065 1552.1 305.388 1556.47 303.279Z" fill="#D17D54"/>
<path fill-rule="evenodd" clip-rule="evenodd" d="M1601.22 295.995C1602.29 294.909 1603.57 294.27 1604.65 293.183C1602.7 293.183 1603.3 291.778 1602.56 291.075C1601.02 292.225 1598.19 291.075 1596.24 291.714C1595.83 292.928 1594.49 294.525 1595.57 295.036C1598.46 291.905 1598.66 295.548 1601.22 295.995Z" fill="#D17D54"/>
<path fill-rule="evenodd" clip-rule="evenodd" d="M1260.53 317.528C1259.79 318.423 1258.18 319.381 1258.85 320.276C1260.2 318.487 1261.74 321.746 1263.16 320.723C1262.97 320.049 1262.64 319.418 1262.19 318.868C1261.74 318.319 1261.18 317.863 1260.53 317.528Z" fill="#D17D54"/>
<path fill-rule="evenodd" clip-rule="evenodd" d="M1608.62 291.266C1610.77 290.18 1614.47 291.266 1615.82 288.838C1612.39 289.413 1613.13 288.838 1611.45 287.497C1611.51 289.733 1606.06 289.541 1608.62 291.266Z" fill="#D17D54"/>
<path fill-rule="evenodd" clip-rule="evenodd" d="M1340.81 125.132C1338.92 123.151 1337.24 122.832 1335.83 124.685C1336.57 125.113 1337.4 125.375 1338.26 125.453C1339.13 125.53 1340 125.421 1340.81 125.132Z" fill="#D17D54"/>
<path fill-rule="evenodd" clip-rule="evenodd" d="M1801.34 56.6978C1801.34 54.4614 1801.67 52.161 1801.87 49.7329C1802.04 47.2861 1802.04 44.8315 1801.87 42.3847C1800.26 42.8959 1799.32 41.8735 1798.71 39.3815C1798.71 38.1674 1798.17 36.6978 1797.97 35.292V34.2697C1797.92 33.7812 1797.92 33.2885 1797.97 32.8V29.2218C1788.24 37.6613 1779.95 47.4921 1773.41 58.3591C1775.77 59.6371 1776.1 56.3783 1777.99 56.8895C1777.99 61.8735 1772.74 62.8959 1772.07 68.5189C1762.11 67.4326 1758.61 88.7745 1751 92.225C1750.67 101.874 1740.44 110.564 1735.93 113.631C1736.54 111.714 1742.12 108.263 1738.42 107.241C1733.98 111.458 1732.9 116.506 1727.45 118.104C1725.43 122.64 1719.98 130.883 1716.15 129.03C1714.06 131.905 1717.63 129.03 1717.36 132.161C1714.47 134.717 1708.07 134.909 1707.94 139.126C1710.09 139.126 1710.83 134.142 1712.18 136.251C1710.43 139.126 1707.67 145.005 1705.45 140.659C1701 147.78 1694.99 153.904 1687.82 158.615C1684.73 158.023 1681.54 158.059 1678.47 158.72C1675.4 159.381 1672.51 160.652 1669.99 162.449C1668.61 160.469 1667.52 158.319 1666.76 156.059C1668.01 155.161 1669.56 154.709 1671.13 154.781C1671.08 155.208 1671.13 155.641 1671.29 156.044C1671.45 156.447 1671.71 156.808 1672.04 157.096C1672.38 157.384 1672.78 157.591 1673.22 157.7C1673.66 157.809 1674.12 157.815 1674.56 157.72C1677.04 154.091 1680.42 151.087 1684.39 148.966C1684.39 147.369 1683.38 147.305 1683.45 145.771C1686.61 146.858 1685.8 144.238 1688.63 143.215C1688.63 143.79 1688.63 144.877 1689.57 144.749C1689.35 143.531 1689.61 142.278 1690.31 141.235C1687.48 141.937 1681.16 145.388 1679.88 142.193C1684.52 138.551 1689.77 139.062 1691.79 134.334C1691.79 132.161 1688.36 134.334 1688.96 131.586C1690.58 128.583 1694.88 127.369 1695.09 123.471C1693 124.046 1691.05 124.557 1690.71 122.768C1690.71 119.765 1695.69 119.509 1694.08 115.356C1695.22 115.356 1695.42 116.123 1696.77 115.356C1696.56 113.501 1696.86 111.628 1697.64 109.916C1698.42 108.203 1699.65 106.71 1701.21 105.58C1699.53 100.851 1703.23 99.1898 1702.42 95.0365C1688.96 104.238 1682.23 117.017 1666.82 122.832C1665.41 127.433 1660.5 129.222 1654.91 130.564C1654.71 131.823 1654.2 133.02 1653.43 134.063C1652.66 135.107 1651.64 135.97 1650.47 136.586C1649.3 137.203 1647.99 137.556 1646.65 137.62C1645.31 137.683 1643.97 137.455 1642.73 136.953C1646.3 135.612 1652.16 136.059 1653.3 132.544C1647.11 134.589 1639.84 135.356 1636.95 140.212C1636.01 137.592 1631.9 139.509 1630.22 140.851C1632.71 141.426 1637.35 140.02 1638.43 141.746C1634.12 143.918 1629.48 140.34 1624.5 142.257C1624.5 143.663 1625.37 143.982 1625.17 145.388C1623.15 146.282 1617.7 147.369 1620.93 149.094C1620.19 149.094 1619.92 149.669 1619.25 149.733C1618.11 148.327 1615.01 148.391 1613.8 146.985C1613.8 146.155 1614.81 145.899 1615.55 145.643C1617.5 145.643 1617.23 147.241 1619.52 146.666C1618.38 143.599 1622.95 146.666 1622.82 144.493C1619.12 143.088 1620.13 145.068 1616.09 144.941C1615.78 144.599 1615.57 144.196 1615.45 143.762C1615.34 143.328 1615.33 142.876 1615.43 142.438C1615.52 142.001 1615.72 141.59 1616.01 141.238C1616.3 140.885 1616.67 140.6 1617.1 140.404C1614.68 140.02 1611.71 140.404 1611.71 137.784C1616.29 138.679 1626.79 140.659 1625.17 135.42C1626.93 134.971 1628.59 134.236 1630.08 133.247C1630.39 134.142 1630.95 134.939 1631.7 135.548C1631.7 134.77 1631.93 134.007 1632.36 133.343C1632.79 132.679 1633.4 132.138 1634.12 131.778C1649.66 125.805 1663.32 116.12 1673.76 103.663C1669.72 104.395 1665.74 105.377 1661.85 106.602C1664.12 103.789 1666.67 101.179 1669.45 98.8064C1669.45 97.4007 1667.63 94.6531 1669.45 94.2058C1673.42 95.6115 1671.4 88.8384 1676.18 88.6467C1675.03 86.0908 1677.52 86.2185 1678.13 83.407C1675.77 83.7904 1676.11 85.7074 1673.76 86.0269C1673.08 84.3655 1671.4 83.4071 1672.54 81.6818C1664.67 83.7612 1656.99 86.4761 1649.6 89.7968L1639.44 93.5668C1636 94.5218 1632.88 96.3303 1630.42 98.8064C1625.94 99.0812 1621.56 100.234 1617.57 102.193C1613.82 104.102 1610.2 106.237 1606.74 108.583C1599.69 109.143 1592.9 111.337 1586.95 114.973C1587.83 114.973 1588.1 115.931 1588.43 116.634C1585.47 116.634 1581.7 119.957 1580.29 116.634V120.915C1571.44 123.537 1561.9 123.084 1553.37 119.637C1551.29 122.001 1548.53 122.576 1545.5 119.637C1543.84 123.37 1541.01 126.531 1537.4 128.701C1533.8 130.87 1529.58 131.943 1525.32 131.778C1525.72 130.5 1527.74 132.225 1527.94 130.564C1525.72 128.519 1524.64 129.413 1522.69 126.985C1521.34 127.433 1520.6 129.094 1518.12 127.433C1517.71 129.925 1516.7 131.394 1514.95 131.458C1514.95 129.477 1512.66 128.455 1510.78 127.369C1509.25 129.457 1507.41 131.328 1505.33 132.928C1503.25 134.277 1500.99 135.352 1498.6 136.123C1493.37 137.663 1487.8 137.884 1482.45 136.762C1481.64 141.426 1476.67 136.123 1474.44 137.337C1472.96 131.33 1464.28 137.337 1464.96 129.669C1462.57 132.038 1459.59 133.787 1456.29 134.749C1452.99 135.711 1449.49 135.854 1446.12 135.164C1440.08 133.751 1433.78 133.751 1427.75 135.164C1425.61 133.668 1423.11 132.721 1420.48 132.417C1417.89 131.899 1415.21 132.009 1412.67 132.736C1405.4 129.594 1397.17 129.072 1389.53 131.266C1382.8 128.263 1379.16 128.583 1373.11 125.899C1372.1 126.666 1373.11 129.733 1371.16 128.966C1370.35 124.174 1364.43 124.941 1361.06 124.621C1361.87 125.388 1363.28 126.091 1362.95 127.049C1359.9 124.989 1356.31 123.773 1352.58 123.535C1349.07 123.024 1345.49 123.607 1342.36 125.196C1343.97 125.771 1352.25 130.819 1351.37 125.196C1354.46 126.536 1357.47 128.03 1360.39 129.669C1359.78 130.947 1358.91 130.564 1358.24 131.714C1360.19 133.567 1363.96 130.5 1364.56 133.95C1361.33 133.311 1356.22 134.909 1354.06 130.244C1347.33 137.081 1336.23 126.41 1328.09 131.266C1326.07 128.902 1323.58 131.267 1324.25 127.88C1323.51 130.308 1322.3 128.583 1321.43 129.35C1321.97 129.989 1323.04 130.564 1322.64 131.33C1318.8 128.391 1315.91 131.33 1311.87 128.774C1312.55 128.263 1316.11 128.774 1313.62 126.474C1310.53 129.925 1310.26 125.899 1308.64 126.474C1311.07 128.327 1307.43 127.56 1306.89 129.925C1302.99 128.072 1300.17 128.838 1297.54 126.219C1299.83 125.26 1297.54 121.554 1298.35 123.982L1296.06 126.858C1289.83 125.458 1283.67 123.751 1277.62 121.746C1279.04 123.407 1282.06 121.746 1280.79 124.749C1277.81 124.804 1274.91 123.878 1272.58 122.129C1273.18 122.832 1273.72 123.471 1272.58 124.302C1270.96 121.874 1269.48 123.79 1267.93 122.832C1267.93 122.321 1268.88 121.746 1268.34 121.171C1265.51 123.599 1265.24 119.19 1263.69 119.701C1263.95 120.138 1264.05 120.643 1263.98 121.139C1263.9 121.635 1263.66 122.095 1263.29 122.449C1257.35 123.326 1251.27 122.386 1245.93 119.765C1244.45 120.915 1242.7 123.407 1241.35 119.318C1240.28 120.276 1240.82 121.171 1239.87 122.129C1238.6 120.771 1236.83 119.933 1234.92 119.79C1233.02 119.647 1231.12 120.21 1229.65 121.362L1227.63 119.254C1208.52 123.727 1189.54 115.739 1170.36 117.017C1166.7 115.138 1162.52 114.379 1158.39 114.845L1156.43 112.544C1154.91 113.207 1153.21 113.421 1151.56 113.159C1149.9 112.897 1148.37 112.171 1147.15 111.075C1146.41 114.397 1145 110.628 1143.04 109.797C1131.4 111.969 1120.37 105.58 1108.73 105.58L1107.31 103.854C1086.25 100.276 1065.53 96.8256 1044.73 91.7777C1023.94 86.7298 1003.42 82.5125 982.761 76.8256C962.103 71.1387 941.445 66.7298 920.653 60.9789C910.223 58.2953 899.793 55.6754 889.296 53.1834L873.416 49.5413L856.392 45.8991C856.728 44.3016 854.306 43.2154 852.489 43.5988C853.095 44.8767 854.844 44.5573 853.969 45.5157C849.73 46.602 852.018 43.3432 849.596 42.5125L846.837 44.2377C834.052 39.701 824.497 37.848 811.779 33.7585C812.183 34.5892 811.779 35.9949 810.904 35.292L808.886 32.7361C796.381 31.0279 783.981 28.6816 771.742 25.7074C765.619 24.3655 759.428 22.9597 753.237 21.8096C747.047 20.6594 740.721 19.8927 734.396 19.3176C723.569 15.8346 712.18 14.1907 700.752 14.4614C696.983 11.2665 692.475 14.4614 688.707 11.2026C681.44 13.8863 675.249 7.87988 667.78 10.6275C660.214 8.173 652.29 6.85785 644.296 6.72974C636.314 6.77765 628.365 5.76688 620.677 3.72656L618.053 5.7713C605.941 1.87354 590.734 5.77127 580.438 1.61792C576.065 5.2601 570.681 -0.362915 568.057 3.59875L565.567 1.36234C561.732 3.98215 557.762 1.80963 552.581 1.36234C543.093 0.851166 527.953 4.36554 524.588 0.915039C513.62 1.74573 502.652 1.42624 491.616 1.68185C480.606 1.79953 469.615 2.58917 458.712 4.04602C458.039 3.53485 458.375 2.95978 457.972 2.44858C445.586 5.58063 432.725 6.66144 419.953 5.64346L416.522 9.22177C414.318 8.51187 411.982 8.24747 409.665 8.44553C407.347 8.64362 405.098 9.2998 403.064 10.3719C402.189 9.73297 403.467 8.90228 403.064 8.26331C400.103 8.26331 397.613 12.3527 394.585 11.3304C382.762 10.7927 370.942 12.4643 359.797 16.2505C360.604 15.7393 359.393 14.8448 358.922 13.7585C344.926 19.3176 330.324 19.6371 315.857 22.3208C314.309 23.6627 315.857 24.4933 314.04 25.963C310.675 23.0237 308.522 25.963 305.225 23.5988C302.13 28.2633 297.554 25.7074 294.324 29.4135C287.999 27.177 277.973 32.6083 270.167 33.5668C270.638 38.6147 258.19 35.1642 254.287 39.6371C251.932 38.9981 253.749 37.5285 252.268 36.6978C250.586 37.6562 249.038 41.1068 244.934 38.4231C239.063 42.6548 232.029 45.1845 224.68 45.7074C222.324 47.9438 228.381 48.1994 225.42 50.5636C218.586 49.0162 211.434 49.3038 204.762 51.3943C205.368 53.6307 207.588 51.3943 209.809 52.8639C207.857 54.653 211.02 55.1642 209.068 56.9534C205.233 55.6754 200.186 55.4199 198.302 58.2314C199.513 58.2314 203.349 56.4422 203.012 58.6147C199.324 60.4128 195.133 61.0613 191.035 60.4678C189.689 61.9374 191.506 62.5764 189.622 64.2377C186.123 64.2377 184.441 66.2185 181.413 63.1515C177.577 68.1994 171.588 66.602 166.609 68.2633C164.388 67.6243 169.704 64.685 165.936 64.4933C162.773 66.6658 167.618 69.2218 163.783 69.6691C163.783 68.0716 160.351 65.0684 158.736 68.3911C159.813 69.0301 161.764 69.4134 161.428 70.4358C155.052 73.7467 148.273 76.3005 141.241 78.0396C141.241 78.0396 141.241 78.3592 141.241 78.8064C136.8 81.3623 127.447 86.8575 125.091 83.7265C124.553 85.1962 123.207 84.7489 122.333 85.324C123.544 85.8352 125.159 86.2186 123.947 87.6243C121.323 85.5796 121.121 89.4135 118.43 87.6243C119.372 86.7298 120.583 86.2186 121.525 85.324C116.613 83.8543 119.439 91.0748 114.796 89.669C113.989 92.6722 111.297 91.0748 110.153 93.1195C111.499 94.7809 114.123 92.3528 113.383 94.2697C108.732 97.1953 103.284 98.7717 97.7047 98.8064C98.4954 99.3688 99.0831 100.15 99.3869 101.043C97.6374 101.043 96.8972 102.512 95.1477 102.193C93.3981 101.874 94.3402 100.532 93.3981 99.9566C92.0893 101.917 90.0841 103.368 87.7458 104.046C88.4187 103.215 86.6019 100.787 85.6599 102.512C89.2262 106.219 81.4879 104.813 80.4786 107.624C80.4786 109.03 84.3141 108.774 83.843 110.372C79.9403 108.519 78.5272 111.714 75.6337 111.969C76.9795 108.583 70.9908 110.883 70.116 111.969C72.6057 111.969 74.9608 112.736 73.9515 115.612C72.673 115.612 70.1833 113.567 69.5777 115.164C74.0188 119.19 62.5123 122.96 59.0806 124.685C59.0806 123.727 59.5516 122.832 58.0712 122.704C56.9273 126.346 56.7254 123.279 54.6395 124.238L53.0918 128.008C56.5236 128.008 55.1105 130.308 56.2544 131.33C59.4843 128.391 59.4843 127.497 64.1946 127.816C65.2039 122.896 66.617 125.899 68.9721 120.851C68.9721 123.024 72.4712 123.088 74.1534 121.554C73.0095 121.043 71.0581 120.915 71.2599 119.829C72.8076 120.276 71.2599 116.57 74.1534 117.337C75.8356 118.806 75.5665 121.107 78.4599 122.001C79.6038 119.318 73.8169 119.701 76.4412 116.314C81.0842 118.423 81.0842 110.755 86.0636 113.567C85.5926 115.484 83.9776 117.912 86.4673 118.679C87.2075 115.356 87.8131 115.484 86.4673 112.8C94.071 114.461 98.4448 109.222 104.097 106.794C104.097 107.433 104.097 107.88 105.308 108.072C104.635 109.477 102.751 108.072 102.348 110.436C106.587 111.33 104.972 106.091 107.529 105.452C108.471 107.049 109.278 108.391 111.566 106.921C106.991 106.027 111.566 105.005 112.105 102.001C117.017 102.96 127.85 94.6531 132.291 99.1259C134.377 97.2729 132.291 96.9534 132.291 95.7393C136.463 94.5891 139.895 91.4582 144.74 92.0333C142.856 91.5221 141.914 90.6914 142.385 89.4134C144.134 89.4134 145.48 88.1994 147.835 89.7968C147.431 90.947 146.153 92.3527 147.095 92.9917C148.239 91.3943 150.527 92.9917 151.334 90.3719C148.71 89.7329 148.239 88.3911 149.787 86.2825C156.044 88.6467 159.476 78.8064 164.658 83.7265C166.138 83.0876 166.609 82.3847 166.272 80.9789C168.022 83.1515 170.983 79.7649 170.579 81.9374C169.973 82.7042 168.291 82.8959 169.3 84.0461C172.8 82.7681 175.491 79.1898 178.856 77.6563C178.317 78.6147 179.865 78.8703 179.596 79.7649C179.327 80.6594 177.779 80.9151 177.173 82.193C185.921 82.5764 191.641 73.5668 201.128 76.3783C203.551 73.6307 199.244 76.3783 200.455 74.3336C204.829 71.0748 210.28 71.3943 214.788 68.6467C221.517 72.0333 226.496 60.7234 231.409 66.2186C231.812 61.9374 238.137 65.7713 240.089 60.7234C243.521 63.2154 245.607 60.7234 248.298 60.7234C247.356 56.6339 256.844 55.5476 260.545 59.062C262.9 57.5285 260.545 56.8895 260.949 55.6754C263.169 56.8895 264.044 52.8 266.264 54.0141C266.264 55.5476 268.283 57.9118 269.898 56.0588C269.158 55.1003 265.592 54.7169 266.735 53.3751C268.956 51.0109 272.59 54.8448 275.214 54.3975C274.272 52.4806 275.214 52.1611 276.896 50.6914C280.597 52.9917 283.625 51.2665 287.057 53.6307C285.509 54.078 285.038 54.7809 286.317 55.9949C286.855 55.5477 287.259 54.717 287.999 55.1004C288.739 55.4838 286.249 57.6563 287.461 58.4869C292.44 54.6531 292.844 59.2537 297.823 54.3975C298.191 54.7602 298.64 55.0404 299.137 55.2175C299.634 55.3947 300.166 55.4644 300.694 55.4215C301.223 55.3786 301.735 55.2244 302.193 54.9698C302.65 54.7153 303.043 54.367 303.341 53.9502C302.399 53.2473 300.582 52.6083 300.986 51.586C301.995 52.1611 302.533 50.8831 303.408 51.2026C305.965 52.0333 303.408 53.7585 306.032 54.5892C311.416 50.7553 320.298 53.6946 323.057 46.0908C324.066 46.4742 327.767 45.1962 327.094 47.6243C326.421 50.0524 322.249 47.6243 323.864 50.3719C326.959 48.1355 337.322 50.3719 333.957 44.4294C334.336 44.2589 334.75 44.1704 335.169 44.1704C335.588 44.1704 336.001 44.2589 336.38 44.4294C338.937 45.324 336.38 46.9853 338.87 47.8799C348.492 46.2186 361.075 42.1291 369.15 43.6627C379.58 39.2537 390.817 40.0205 401.651 37.9119C401.651 38.4869 400.574 39.1259 401.247 39.5732C407.976 33.6946 422.241 36.8895 431.998 34.2697C432.806 35.1004 431.998 36.0588 432.806 36.9534C439.534 34.5253 446.263 35.3559 452.992 33.2473C452.387 34.0141 451.848 34.7809 452.992 35.4199C456.222 32.0972 461.336 30.6914 463.288 34.3975C470.757 29.8607 478.764 35.5476 486.301 31.2026C486.301 33.8224 492.222 32.4806 489.934 29.9247C488.925 32.225 484.753 29.9246 485.56 28.5189C488.925 27.4326 487.444 26.2186 489.059 23.9821C494.51 25.1323 493.231 29.8607 493.029 31.4582C498.726 30.7346 504.512 30.9726 510.121 32.161C511.332 31.2665 510.727 30.3719 511.871 29.4774C526.607 34.8448 544.371 28.3911 556.887 32.5444C559.848 30.8831 560.521 31.4582 562.405 29.9247C563.145 30.6914 562.405 31.3943 563.616 32.161C587.369 30.8192 607.96 35.4199 630.905 35.1642C632.184 37.9758 638.307 36.8895 641.873 34.5891C645.238 38.8703 649.073 35.6115 652.64 36.57C654.12 39.3176 670.741 39.8288 677.604 41.8096C677.381 41.3478 677.347 40.8236 677.509 40.3393C677.671 39.855 678.016 39.4452 678.479 39.1898C683.727 44.1738 690.254 39.1898 692.61 43.5988C693.124 43.3328 693.576 42.9684 693.935 42.5284C694.294 42.0885 694.553 41.5827 694.696 41.0428C695.462 41.1521 696.16 41.5248 696.656 42.0902C697.152 42.6556 697.412 43.3744 697.387 44.11C700.819 42.7042 700.281 46.3464 701.223 42.3208C705.26 44.4294 709.634 43.0237 713.469 46.4103C712.864 45.6435 712.393 44.8767 713.469 44.3016C716.363 46.2825 719.795 44.3016 722.553 47.3048C721.948 46.4742 725.043 44.4294 725.447 45.6435C727.937 46.9854 723.697 47.6243 726.254 48.9662C728.567 47.957 731.129 47.5723 733.657 47.8541C736.185 48.1358 738.583 49.0733 740.587 50.5636C743.548 48.0716 746.912 52.1611 752.295 53.1834C755.592 53.7585 762.86 51.586 763.533 55.2921C778.067 53.3112 787.488 61.6818 801.484 60.7234C800.744 61.3623 799.465 61.8735 799.936 62.7042C802.157 62.7042 800.744 62.0652 802.628 60.915C808.549 66.4742 823.891 65.4518 833.648 70.6275C833.648 70.0524 833.648 69.5413 834.523 69.1579C840.486 72.5274 847.381 74.1086 854.306 73.6946C857.887 75.9563 861.813 77.6805 865.947 78.8064C867.799 79.3258 869.743 79.4859 871.662 79.2774C873.581 79.0688 875.436 78.4958 877.117 77.5924C878.261 79.2537 876.04 80.34 877.117 82.0013C879.809 79.5732 881.154 83.9821 883.846 83.0876C883.308 81.8735 881.76 82.193 882.567 81.2345C884.452 82.3208 885.259 82.1291 885.73 84.5572C899.794 84.1099 911.973 93.439 926.104 92.4806C926.642 93.8863 927.719 95.356 926.104 96.3783L859.756 79.6371L823.555 71.1387C811.308 68.2633 799.061 65.3879 786.68 63.0876L749.536 55.931C737.088 53.7585 724.572 51.9055 712.056 49.9246L693.35 47.0493L674.442 44.8128C661.791 43.3432 649.275 41.7457 636.558 40.6595C535.624 31.7138 431.594 34.2697 331.401 56.4422C323.479 57.2286 315.725 59.1234 308.388 62.0652C303.677 60.34 299.909 62.9598 294.93 61.6179C293.853 62.3208 293.247 65.3879 291.767 64.3655C290.892 61.1707 285.038 65.8352 283.019 66.7298C278.646 68.9023 271.782 65.963 271.109 69.1579C272.948 69.4221 274.827 69.2238 276.56 68.5828C273.868 75.3559 261.958 67.6882 258.122 74.9725C250.048 71.5221 240.089 82.7042 235.581 77.5924C234.84 79.3176 233.293 78.2952 232.62 80.5316C230.736 78.2313 224.209 80.0205 225.42 83.9182C219.902 85.0684 213.442 83.2792 208.799 87.3048C208.463 88.7106 212.366 88.9661 211.625 90.4997C210.482 90.0524 206.983 89.9885 208.328 88.0077C201.599 88.0077 196.351 94.078 188.949 92.8639C189.958 95.1003 185.854 96.2505 184.71 93.6307C183.7 94.8448 184.71 95.4199 184.71 96.3783C181.48 96.3783 178.519 100.34 175.895 96.8256C173.809 98.1036 171.521 98.8703 169.166 99.9566C167.686 106.346 152.344 105.452 147.028 113.056C137.742 110.819 134.041 122.449 124.284 119.445C124.284 122.576 121.525 120.02 120.987 122.449C126.437 123.407 131.282 119.318 137.607 118.551C138.458 119.575 139.139 120.717 139.626 121.937C138.831 122.589 137.816 122.948 136.766 122.948C135.716 122.948 134.701 122.589 133.906 121.937C131.686 124.557 138.684 123.663 135.252 126.666C134.31 124.11 128.994 128.647 129.129 124.302C127.043 127.56 123.544 125.068 122.804 127.88C122.804 124.493 120.919 125.707 119.506 123.279C117.151 127.433 113.921 126.602 110.826 125.963C109.346 127.688 111.701 127.944 110.826 129.413C106.856 129.861 100.464 132.8 99.7906 135.803C102.146 133.631 105.847 134.525 108.336 132.864C107.26 135.1 109.884 135.803 107.596 138.487C106.721 136.378 105.241 138.104 102.953 136.889C105.645 140.34 93.9365 148.008 90.0337 145.771C88.0823 147.816 92.3215 147.177 90.0337 149.222C89.2262 149.222 88.8224 149.222 88.1496 149.222C86.4673 147.241 84.5832 146.666 86.0636 143.599C84.7339 144.796 83.1512 145.711 81.4206 146.282C81.4206 143.79 85.0542 143.215 83.2374 141.874C82.43 145.196 78.5272 142.321 77.9216 146.027C80.2094 147.944 81.959 146.027 83.1702 148.455C81.8917 150.883 78.7963 149.477 77.3833 151.65C79.402 152.353 77.3833 154.845 79.4019 155.548C81.0169 155.1 85.5253 154.717 84.8524 157.273C83.7758 158.551 80.6131 155.739 79.6038 157.273C82.6991 158.551 77.0468 161.362 80.4786 161.682C78.5945 163.024 74.2207 163.535 76.0375 159.445C78.7963 161.937 76.5758 158.231 77.2487 156.506C77.9216 156.506 78.7963 157.017 79.0655 156.506C77.5179 156.506 77.7197 155.1 76.2393 154.781C73.7496 155.867 76.7777 157.592 74.9609 160.148C73.8169 160.148 73.0768 160.659 71.5291 160.148C71.5291 158.615 74.8936 158.487 72.673 157.273C69.5104 160.148 64.8002 160.02 62.1759 164.046C67.2226 163.088 69.645 164.046 74.8936 162.896C74.8936 163.599 75.23 163.918 74.8936 164.557C69.9252 165.487 65.0426 166.79 60.2918 168.455C59.5516 169.861 60.8301 170.244 61.0992 171.139C60.2918 171.139 59.9553 171.139 59.2151 171.139C58.475 171.139 59.2151 169.669 58.2058 169.222C56.1198 169.797 52.0152 170.883 53.1591 173.503C49.2563 174.142 40.3741 172.481 40.7779 176.762C41.9891 176.378 46.2283 176.762 52.0825 176.442C48.8526 178.934 43.133 177.273 40.9124 181.618C42.3255 178.87 38.019 178.998 38.1536 176.889C37.6826 178.04 35.8657 176.889 35.7985 178.743C36.4291 178.657 37.0721 178.712 37.6764 178.904C38.2807 179.095 38.8299 179.417 39.2803 179.845C39.7308 180.273 40.0702 180.794 40.2717 181.368C40.4733 181.942 40.5313 182.553 40.4414 183.151C36.1349 181.554 36.1349 183.918 35.7985 186.794C27.2527 186.794 25.8396 191.778 19.2453 193.183C21.735 196.25 25.9742 190.819 28.3293 194.397C25.4359 197.848 18.9761 195.675 18.3705 202.576C14.1986 202.576 11.6416 205.196 8.74815 207.049C6.86405 206.666 6.72948 205.26 4.10519 205.324C3.70146 206.219 3.70144 207.56 2.6921 207.497C3.36499 205.388 2.0865 204.621 0.673423 205.58C-0.335917 209.35 3.49959 207.56 5.92201 208.072C2.75941 209.989 8.27713 208.774 6.86405 211.394C4.44164 209.797 1.41361 210.5 3.09584 213.12C6.46031 212.353 8.34442 213.631 10.2285 211.266C10.2285 212.033 10.6995 212.289 10.6995 212.928C10.0939 215.036 5.72012 213.886 7.40236 216.25C11.5743 215.228 13.5257 210.947 18.0341 210.5C19.0434 211.203 17.4285 213.375 18.8415 213.822C18.8415 211.394 21.735 212.608 21.6004 209.605C20.6584 209.605 19.3126 209.605 19.3799 208.391C21.264 207.113 26.7817 205.963 26.9163 208.391C26.9163 206.027 28.8677 206.538 28.9349 204.11C25.8396 202.768 26.4453 207.369 23.3499 206.027C25.5705 202.576 26.849 203.151 27.2527 198.167C28.0757 198.468 28.9867 198.468 29.8097 198.167C30.7518 199.957 29.4732 199.126 29.0022 201.171C29.5376 201.218 30.0348 201.455 30.3959 201.833C30.757 202.212 30.956 202.705 30.9536 203.215C33.7125 204.046 34.4527 201.682 37.1443 202.257C37.7499 205.068 32.3667 204.941 36.0676 206.027C38.5573 204.302 43.8059 201.298 43.9405 199.19C43.3349 200.787 41.4508 200.212 39.5667 199.637C41.5854 195.036 48.9199 195.292 49.5928 191.905C51.0731 191.905 51.2077 193.12 50.4675 194.525C53.4283 195.803 54.8413 194.525 56.6581 193.758C58.2058 188.072 64.8002 187.369 71.2599 185.963C69.9814 185.132 67.2899 187.177 67.3571 184.813C67.4244 182.449 72.4711 184.813 74.0861 182.768C73.6151 181.746 71.3272 181.682 72.5384 179.893L75.6337 180.787C77.3833 175.867 84.2468 180.787 87.544 178.934C88.5533 174.27 95.8205 173.695 96.8972 177.145C96.157 177.592 91.5813 176.442 93.7346 178.551C95.3495 176.57 93.7346 180.851 95.4841 180.787C96.6953 178.87 98.0411 177.401 99.2523 175.484C98.3038 174.804 97.2089 174.331 96.0458 174.099C94.8826 173.867 93.6798 173.882 92.5234 174.142C94.0452 172.211 96.1379 170.755 98.5347 169.959C100.932 169.162 103.524 169.061 105.981 169.669C104.635 168.902 107.596 166.091 108.538 165.643C110.759 169.158 112.912 162.96 115.671 163.279C115.671 164.174 119.843 166.602 120.987 165.26C120.045 163.854 118.632 162.64 119.506 160.532C124.015 162.193 122.063 156.251 127.447 158.615C125.293 159.445 127.447 160.148 127.985 161.298C130.542 159.701 136.06 158.615 131.753 156.953C134.239 157.434 136.809 157.362 139.261 156.741C141.713 156.12 143.98 154.968 145.884 153.375L148.845 154.589C151.402 152.353 145.749 152.992 146.893 151.266C151.671 150.308 154.564 152.225 159.274 149.861C158.803 152.225 156.583 150.308 156.112 152.672C158.601 151.075 165.196 151.969 165.129 148.966C164.59 149.925 160.889 150.436 161.495 148.966C163.985 148.072 166.003 145.771 169.502 147.369C168.224 148.263 165.936 148.455 168.089 150.116C169.704 148.711 172.463 149.413 170.579 146.985C172.665 150.116 173.742 146.985 176.366 147.88C175.289 149.35 173.876 149.989 173.203 152.417C171.588 151.33 170.983 152.992 169.166 151.458C167.753 159.573 156.381 153.95 152.747 161.171C148.643 160.02 147.297 165.771 142.721 163.727C137.772 167.224 132.148 169.764 126.168 171.203C126.908 172.289 126.168 174.014 127.177 174.973C125.764 175.356 125.091 177.592 123.005 176.698C121.592 179.254 123.005 180.596 123.005 182.512C120.987 181.746 118.632 181.171 118.093 179.829C117.091 180.369 116.228 181.113 115.565 182.008C114.901 182.903 114.455 183.926 114.258 185.004C112.508 183.854 112.037 183.024 110.22 184.302C111.835 186.73 115.2 185.005 114.863 187.688C112.845 187.688 108.807 187.688 110.22 190.819C108.404 189.989 107.462 190.819 105.914 190.819C105.914 189.03 105.039 187.624 102.213 187.049C101.271 189.541 104.232 187.624 103.424 190.755C99.2523 190.116 99.1177 193.95 94.9458 195.164C98.6467 196.059 99.1177 195.548 99.7233 198.423C100.127 196.762 102.482 198.998 103.693 198.998C105.066 197.465 106.936 196.409 109.009 195.995C107.529 194.397 105.174 197.017 105.308 194.653C108.673 196.123 108.74 189.797 111.634 193.695C113.788 190.411 116.656 187.6 120.045 185.452C121.158 185.721 122.12 186.384 122.736 187.305C123.14 186.474 123.611 185.707 124.822 186.474C126.976 184.366 122.467 185.068 123.476 183.471C124.486 181.874 127.447 182.193 128.187 184.429C129.6 182.64 128.187 182.193 128.927 180.596C132.359 179.126 134.512 181.746 136.867 176.378C138.347 177.017 136.867 178.679 139.222 178.998C141.914 176.89 142.25 176.378 141.712 178.998C143.461 178.998 144.134 176.187 145.749 175.675C152.478 176.698 155.977 170.244 160.418 168.583C163.177 169.989 167.147 170.819 166.003 173.631C164.254 172.736 164.388 171.33 162.37 171.969C160.418 173.822 164.456 173.567 162.37 175.42C154.205 178.235 146.553 182.245 139.693 187.305C142.25 189.094 142.99 186.73 144.942 187.305C146.489 189.413 143.529 189.989 145.951 191.011C146.174 190.237 146.174 189.42 145.951 188.647C149.787 189.03 150.729 190.372 153.353 189.286C149.719 189.733 152.074 187.433 149.652 186.027C149.046 187.049 148.777 188.774 147.701 188.519C147.297 187.113 145.009 186.474 146.018 184.493C147.768 188.647 148.374 183.343 152.007 184.493C150.93 186.666 155.237 186.985 156.045 187.049C160.015 184.046 173.674 183.918 175.424 179.062C176.635 180.02 174.684 182.001 177.241 182.449C178.721 177.337 179.798 177.72 183.028 176.059C180.269 176.059 180 173.503 178.115 175.42C178.923 175.931 179.663 176.442 178.856 177.465C177.577 176.953 174.751 177.081 173.876 175.164C176.299 175.739 182.355 170.116 185.517 176.378C187.199 174.973 189.487 175.484 191.17 174.078C188.814 171.969 185.786 173.695 186.527 170.947C187.267 168.199 191.439 172.736 193.256 170.947C193.794 176.251 200.859 170.116 202.743 173.056C202.743 170.947 201.599 171.969 201.398 170.691C202.609 169.158 205.233 168.135 205.973 170.691C207.184 167.56 208.867 170.308 208.799 166.921C211.356 166.921 213.981 166.921 214.452 169.861C217.278 169.861 213.308 166.346 216.268 166.474C216.672 168.455 218.22 169.669 221.181 167.369C221.786 166.282 219.498 165.963 219.835 164.941C221.988 164.366 221.046 165.963 222.257 167.113C222.796 165.771 223.872 166.027 224.478 164.813C224.478 162.001 220.844 165.771 220.979 162.96C221.521 162.419 222.222 162.047 222.99 161.891C223.759 161.735 224.559 161.803 225.286 162.086C226.013 162.369 226.633 162.854 227.065 163.477C227.497 164.101 227.721 164.833 227.708 165.58C228.448 162.385 231.409 159.19 232.687 163.088C234.908 162.449 233.158 161.554 233.562 160.02C240.964 160.02 243.924 156.57 251.393 157.656C253.278 155.867 251.393 155.036 252.066 153.567C256.171 153.567 259.199 157.081 259.939 152.8C262.833 154.525 264.649 152.161 265.928 153.567C265.188 152.992 265.928 152.097 266.466 151.203C268.149 152.353 277.973 154.653 276.56 150.052C279.991 151.842 284.365 152.161 286.115 154.142C288.604 148.327 301.457 151.778 297.15 147.305C299.64 145.388 300.044 150.116 302.197 146.794C303.408 144.557 298.496 148.072 299.573 145.132C301.86 143.599 307.176 142.129 307.244 146.41C305.965 145.963 302.13 147.049 303.072 148.327C306.974 146.858 312.223 146.602 314.107 143.535C316.799 144.174 313.165 145.899 315.857 146.538C318.212 143.663 318.414 146.091 320.701 145.132C319.497 146.249 318.777 147.754 318.683 149.35C316.26 148.583 313.905 148.199 312.358 151.586C314.645 152.672 316.059 149.35 318.481 151.075C321.173 148.966 319.961 144.685 323.124 145.835C325.143 146.921 324.133 148.583 326.152 149.669L327.027 148.391C327.43 148.391 327.834 148.838 328.103 148.391C326.017 147.113 324.201 145.835 324.47 144.11C327.901 144.429 325.412 142.576 324.941 140.723C327.767 139.126 328.036 142.385 331.064 142.896C334.025 140.02 341.09 138.551 342.032 143.854C344.32 141.298 339.744 139.765 340.888 137.465C341.898 139.19 344.522 140.596 345.128 142.385C346.069 141.461 347.332 140.894 348.681 140.788C350.03 140.682 351.374 141.045 352.462 141.81C354.346 139.701 349.165 138.679 352.462 136.314L356.97 139.509C356.365 135.931 359.864 137.081 362.488 134.845C363.296 135.484 362.488 136.25 363.969 136.826C367.198 134.589 372.447 133.567 374.869 138.04C374.945 137.427 375.236 136.857 375.694 136.42C376.153 135.983 376.752 135.706 377.397 135.632C378.042 135.558 378.694 135.693 379.248 136.014C379.803 136.334 380.228 136.823 380.454 137.401C382.944 131.905 386.847 137.401 389.74 134.717C390.211 136.953 390.548 134.717 392.095 135.548C392.211 136.139 392.489 136.69 392.903 137.145C394.922 137.784 396.94 139.382 398.623 137.592C396.94 136.314 393.643 137.592 394.854 134.717C399.363 135.803 402.996 130.052 407.437 130.628C409.658 131.267 410.667 132.417 410.129 134.653C406.092 137.72 407.639 131.139 404.342 133.12C407.101 134.973 405.217 137.401 406.159 139.509C406.765 135.931 410.062 136.762 412.484 135.548C411.34 133.886 409.86 132.225 411.879 130.18C413.292 130.628 413.022 133.886 414.974 132.608C414.46 131.797 414.182 130.871 414.166 129.925C416.614 130.386 419.084 130.727 421.568 130.947C423.452 126.602 430.921 129.861 435.026 127.688C434.421 128.647 435.766 129.477 435.834 130.372C437.112 129.925 438.323 128.519 439.804 130.372C441.89 125.324 445.187 129.413 448.753 129.669C447.609 127.688 451.041 128.838 450.233 126.794C449.426 124.749 447.071 124.493 445.591 125.005C446.6 120.596 452.319 121.49 455.684 123.215C454.069 124.302 452.185 122.449 450.704 125.196C456.121 125.394 461.495 126.187 466.719 127.56C467.325 128.263 466.719 129.03 465.71 129.797L468.671 132.353C470.891 130.628 467.863 129.158 470.084 127.433C474.323 124.749 474.39 130.244 477.351 126.474C479.168 129.541 474.256 131.011 472.506 130.564C474.525 133.567 477.889 128.902 478.226 132.417C480.648 129.605 476.611 127.113 480.648 124.174C483.609 126.091 492.76 123.407 491.684 130.564C489.248 129.258 486.47 128.637 483.676 128.774C483.676 131.394 487.175 128.774 486.099 131.905C490.338 129.925 497.74 132.864 500.095 130.883C499.76 131.075 499.376 131.176 498.985 131.176C498.593 131.176 498.21 131.075 497.874 130.883C499.287 128.902 501.912 129.925 498.884 127.624C495.856 125.324 499.489 131.011 497.269 129.286C493.568 127.049 498.278 128.008 497.269 126.027C494.173 126.858 495.115 122.832 490.944 123.535C492.76 121.49 494.712 122.257 496.596 122.257C497.672 123.663 498.48 126.41 500.633 124.877C500.633 123.599 498.951 122.385 499.96 121.107C501.912 121.618 504.065 121.874 503.459 124.302C500.902 123.407 502.046 127.752 499.557 127.049C501.71 130.052 503.661 126.474 505.747 126.41C506.555 127.305 508.102 128.199 507.497 129.094C505.814 128.327 504.132 129.094 502.45 129.733C503.594 132.992 504.199 129.733 506.487 132.417C503.661 133.247 500.835 132.417 498.076 133.056C498.682 133.758 499.826 134.461 499.287 135.228C497.201 135.228 495.721 135.228 496.394 132.544C493.231 133.822 490.338 134.397 488.521 132.544C489.867 134.206 486.839 134.397 486.233 132.544C485.658 133.171 485.305 133.953 485.224 134.781C483.851 134.572 482.619 133.861 481.792 132.8C479.168 136.634 476.274 134.781 473.381 133.695C474.39 134.781 471.968 135.995 472.439 137.017C467.863 133.247 461.202 140.596 458.308 135.036C456.828 137.784 455.011 135.036 453.262 135.036C451.243 136.442 451.983 137.72 450.772 139.062C448.551 134.589 442.832 141.298 439.131 140.532C438.391 139.701 439.131 138.743 438.323 137.912C435.978 138.547 433.56 138.911 431.123 138.998C431.123 140.915 434.555 140.084 433.142 142.64C427.557 135.867 418.944 141.746 414.032 142.065C414.032 140.787 414.705 139.445 413.09 138.359C411.206 140.148 408.985 138.679 407.034 139.573C407.758 140.038 408.372 140.643 408.836 141.347C409.3 142.051 409.603 142.84 409.725 143.663C399.834 146.282 386.039 142.512 378.503 148.838C379.714 148.327 380.925 147.624 382.406 148.838C380.589 150.18 382.069 151.075 380.656 152.353C377.292 148.455 376.417 153.759 374.735 153.631C373.053 153.503 373.725 151.266 371.438 150.308C370.428 153.375 369.15 152.8 367.535 154.142C366.189 153.439 366.929 152.417 366.593 151.522C364.709 152.8 359.326 150.308 359.864 153.12C361.344 153.12 362.555 151.586 364.372 153.567C359.864 154.909 363.228 156.059 361.95 159.382C359.527 158.487 359.931 157.145 359.729 155.867C355.261 156.081 350.877 157.1 346.81 158.87C346.406 156.378 343.647 156.762 341.696 155.228C339.677 157.081 343.714 157.848 341.696 159.701C339.677 157.924 337.101 156.824 334.361 156.57C334.9 155.356 336.447 155.612 335.707 154.717C334.025 156.506 332.073 154.078 332.477 152.544C330.862 153.95 328.709 152.544 327.229 154.589C328.776 156.634 329.516 154.589 330.728 155.036C328.776 156.826 331.333 156.953 332.208 157.017C331.131 157.081 330.1 157.459 329.257 158.1C328.415 158.74 327.8 159.612 327.498 160.596C328.171 159.318 330.728 160.596 329.786 161.81C326.354 164.302 321.711 160.532 317.875 161.235C319.558 162.385 322.384 163.343 319.827 165.26C317.741 162.385 312.358 159.382 310.945 163.024C310.945 162.129 314.309 162.129 313.367 163.663C310.724 164.501 307.941 164.869 305.158 164.749C304.668 165.229 304.289 165.801 304.045 166.428C303.802 167.055 303.7 167.724 303.745 168.391C301.188 167.752 302.197 167.497 299.775 165.835C299.169 167.177 298.16 166.858 297.487 168.008C296.814 169.158 298.227 169.35 297.958 170.116C292.238 173.567 287.461 170.116 281.808 170.819C282.926 172.351 283.746 174.061 284.231 175.867C282.077 175.867 280.462 177.465 277.973 175.484C279.117 173.886 283.692 176.187 281.27 173.12C278.713 173.12 276.896 175.1 274.541 177.976C270.773 176.187 275.887 175.612 274.541 173.503C268.889 177.528 261.891 175.867 256.709 176.251C258.257 177.784 258.795 175.739 260.141 176.251C258.459 177.976 261.218 178.615 259.603 180.34C251.663 176.251 246.952 183.599 240.358 184.174C242.377 184.749 242.646 185.835 241.3 187.305C240.39 186.538 239.321 185.961 238.163 185.609C237.004 185.257 235.781 185.138 234.571 185.26C234.848 185.536 235.049 185.874 235.155 186.242C235.26 186.61 235.268 186.997 235.177 187.369C229.726 186.73 225.824 191.011 219.969 189.35C220.454 189.545 220.852 189.894 221.097 190.336C221.342 190.779 221.419 191.288 221.315 191.778C213.173 192.608 214.586 193.886 209.001 197.337C210.683 197.976 211.491 198.87 211.087 200.148C207.655 198.231 209.809 202.321 206.983 201.426C205.648 201.011 204.537 200.117 203.887 198.934C203.214 200.148 202.34 200.979 201.196 200.915C200.052 200.851 201.734 198.87 200.792 198.231C197.427 200.723 199.446 200.723 195.409 202.193C195.813 200.915 197.764 199.19 195.409 198.806C192.717 204.238 182.893 205.196 187.872 209.413C185.854 211.586 182.489 210.052 180.201 211.522C180.942 212.033 182.22 212.353 181.951 213.247C178.519 212.672 180.336 216.698 177.039 216.698C175.155 214.845 175.895 212.097 173.943 210.308C173.943 213.695 170.041 217.656 167.215 213.886C152.545 223.535 137.203 229.477 123.746 238.167C126.235 239.765 126.235 236.123 128.254 236.762C129.061 238.551 130.811 236.762 130.609 239.318C129.667 238.934 129.533 240.276 128.725 240.148C127.918 240.02 127.716 238.615 126.168 238.295C124.62 240.212 126.706 240.468 126.639 241.682C125.743 242.532 124.695 243.224 123.544 243.727C122.835 243.081 122.284 242.296 121.929 241.426C122.851 239.236 123.084 236.839 122.602 234.525C121.794 236.123 119.641 234.909 119.237 237.273C120.448 237.912 123.073 237.912 121.66 239.765C117.353 240.148 116.411 247.049 111.028 245.196C111.028 247.688 111.028 247.88 109.211 246.027C109.211 248.711 107.529 248.774 106.52 249.861C109.009 250.244 110.422 248.391 113.248 249.094C112.037 254.27 107.26 252.289 104.568 254.525C106.52 257.209 102.213 257.209 101.742 258.998C103.021 260.596 107.058 260.851 106.856 263.151C103.559 261.618 102.549 264.302 100.127 264.621C97.3682 263.343 98.5121 263.535 96.2243 261.682C96.1255 263.644 95.6464 265.572 94.8112 267.369C97.099 268.072 96.6953 268.902 98.5121 271.011C100.194 270.564 100.665 268.008 103.492 269.669C105.645 264.366 110.22 264.685 114.527 260.596C119.439 263.599 119.91 257.848 123.275 257.72C123.275 258.615 123.275 259.509 124.217 259.701C124.553 257.337 126.841 258.998 126.908 256.059C126.168 254.845 123.947 254.206 124.957 252.161C125.697 252.161 126.033 252.161 126.639 252.161C130.138 252.8 128.052 255.931 131.551 256.57C132.359 253.886 132.897 253.886 135.925 255.164C136.161 254.37 136.161 253.53 135.925 252.736C137.338 252.736 139.491 254.014 140.568 253.183C139.155 249.03 135.992 253.183 133.368 253.183C133.368 251.714 130.811 251.522 132.157 249.541C135.118 250.18 136.8 248.072 139.693 248.711C141.443 247.177 139.693 245.196 142.721 246.794C143.596 245.26 141.981 244.749 143.26 243.024C145.211 244.429 146.086 243.407 147.701 244.11C148.306 242.96 146.96 239.765 149.181 239.957C149.181 242.065 149.181 244.366 152.074 245.196C151.132 240.276 154.362 243.471 153.689 238.806C156.448 240.979 155.977 239.893 158.803 240.34C157.996 242.001 153.353 241.426 154.901 244.238C158.063 243.727 160.149 240.915 163.11 239.893C164.388 243.79 170.175 238.04 173.472 238.231C171.723 241.171 164.792 245.196 168.56 248.902C167.753 249.605 166.609 249.477 165.263 248.902C165.479 248.453 165.537 247.949 165.428 247.465C165.319 246.982 165.049 246.545 164.658 246.219C161.63 249.541 160.889 243.151 157.929 245.388C159.745 246.091 161.36 246.858 160.889 248.391C160.328 249.046 159.581 249.534 158.736 249.797L155.977 248.583C155.17 250.5 153.689 250.947 152.882 252.8C155.439 254.909 156.112 252.8 158.198 253.567C157.659 254.845 156.919 255.675 155.843 255.739L151.738 253.886C152.882 253.247 153.084 252.544 151.738 251.522C149.585 254.525 146.355 255.036 143.596 256.762C135.521 249.861 132.224 263.727 126.303 263.151C127.81 263.763 129.03 264.877 129.734 266.282C131.417 262.704 134.175 257.337 137.607 260.787C138.078 257.528 140.097 257.528 141.981 257.145C142.721 259.573 139.357 258.679 141.308 261.618C137.069 258.104 138.213 266.921 134.916 262.065C134.175 266.794 130.609 265.452 129.061 268.455C130.878 269.094 131.618 268.008 131.686 270.308C129.869 269.733 130.744 272.608 130.811 273.12C129.667 270.627 128.927 273.95 126.437 272.097C127.514 271.394 127.716 270.691 126.437 269.733C125.159 271.842 122.198 270.819 121.862 274.845C122.871 275.356 124.486 275.612 124.419 276.634C121.996 277.912 121.256 275.675 118.564 275.867C119.237 280.468 115.133 279.062 115.671 284.046C113.383 284.046 112.306 287.113 111.23 288.455C112.037 288.455 113.248 290.18 113.248 290.755C111.634 291.394 110.759 296.187 109.884 292.481C107.933 294.589 109.884 294.206 110.49 296.506C108.673 295.484 109.278 298.87 107.865 298.487C105.914 296.187 107.865 296.826 108.606 295.036C107.529 293.247 107.26 295.036 105.106 293.758C105.106 295.739 104.366 296.187 102.617 295.1C103.828 297.209 100.194 298.359 103.155 299.765C103.626 299.19 102.415 295.356 106.587 297.337C104.434 300.34 106.587 300.404 106.587 303.727C103.155 301.874 104.164 307.688 101.473 307.049C103.492 308.327 103.761 306.602 105.779 307.88C105.779 304.685 107.731 304.493 109.413 304.046C109.413 304.877 110.22 306.155 110.624 305.26C110.153 302.768 115.334 302.321 118.43 303.024C119.103 301.49 117.555 301.043 118.43 299.318C120.987 299.893 124.419 298.551 123.678 296.123C121.256 293.886 122.736 298.998 120.987 298.04C120.381 296.314 116.142 296.378 116.68 294.078C118.295 293.247 117.824 294.973 120.112 295.42C120.448 293.056 122.669 294.27 123.678 293.056C124.688 291.842 121.592 291.586 123.005 289.669C123.29 290.128 123.678 290.521 124.143 290.819C124.607 291.118 125.136 291.314 125.69 291.393C126.245 291.473 126.811 291.434 127.348 291.279C127.884 291.125 128.378 290.858 128.792 290.5C129.532 292.063 130.751 293.377 132.291 294.27C133.974 291.586 137.473 292.608 139.02 289.413C137.944 288.199 136.127 290.5 136.261 288.263C139.491 288.263 137.944 285.26 141.51 285.835C141.039 284.046 144.202 280.34 146.691 281.043C147.768 278.615 144.471 277.976 146.153 275.292C147.701 278.04 149.854 275.292 151.603 277.784C151.603 275.675 153.42 277.017 153.824 275.612C152.815 275.1 151.469 274.653 152.276 273.311C153.488 274.078 154.026 273.311 155.17 273.886C156.246 271.842 153.959 271.203 154.295 269.477C157.659 272.161 158.265 268.774 160.62 269.477C159.598 271.189 158.304 272.74 156.785 274.078C160.688 274.461 162.033 269.03 166.071 269.541C162.773 272.353 160.418 277.017 156.314 277.784C156.314 276.698 157.188 275.42 155.641 275.1C154.901 277.72 155.641 277.401 154.295 279.254C154.968 280.34 156.583 281.043 157.256 282.193C159.544 276.953 163.379 273.119 167.686 275.803C166.138 274.717 168.291 272.481 169.771 274.397C171.117 272.353 167.686 272.097 168.089 270.436C169.704 270.947 170.31 269.03 171.723 268.966C171.723 270.244 168.291 271.586 171.185 272.736C172.8 274.078 171.857 269.286 173.472 270.628C175.693 273.056 175.155 272.8 178.183 272.928C176.77 274.845 178.183 275.548 179.192 276.634C179.999 273.631 182.287 277.465 183.364 277.912C184.306 275.612 180.403 275.164 181.278 272.864C182.375 273.073 183.509 273.018 184.578 272.706C185.647 272.393 186.618 271.833 187.401 271.075C185.719 270.308 184.912 271.075 185.046 269.094C186.998 268.391 185.45 266.985 186.594 264.941C187.805 267.88 189.487 264.429 190.16 261.937C192.785 262.832 194.467 262.832 195.207 265.388C195.873 264.563 196.233 263.552 196.233 262.513C196.233 261.473 195.873 260.462 195.207 259.637C198.1 261.81 200.455 257.592 201.936 260.723C202.743 259.893 202.609 256.826 204.022 257.656C206.175 263.151 196.822 263.151 198.302 267.752C200.388 266.282 202.205 264.174 204.291 262.768C204.829 268.072 208.867 269.158 210.28 273.375C211.356 269.286 217.345 271.33 221.988 270.052C219.566 269.35 219.027 268.199 215.932 267.369C218.96 262.832 222.661 259.445 227.708 260.979C230.063 254.589 235.917 258.551 238.339 251.969C239.887 253.503 240.291 251.394 241.569 251.969L243.184 248.711C249.375 250.116 253.681 242.321 257.719 241.171C257.719 242.001 256.642 242.96 257.382 243.535C258.122 244.11 260.881 245.26 260.276 242.704C259.468 244.238 258.661 241.426 259.67 240.596C261.016 240.979 266.399 237.465 267.812 237.145C266.399 236.314 263.707 237.145 264.044 235.548C265.861 233.759 268.081 233.503 270.033 232.353C271.446 234.27 270.975 236.634 272.724 238.743C271.782 232.992 271.782 226.602 278.107 228.647C277.031 230.372 278.107 230.628 276.627 231.267C281.203 233.95 283.356 230.372 288.335 231.714C289.681 227.241 295.737 231.139 298.294 225.324C300.111 226.985 300.918 224.366 302.803 226.602C302.803 227.433 301.659 228.327 302.332 228.966C304.417 224.877 309.06 229.605 312.694 226.155C310.204 223.471 306.436 227.688 305.965 224.877C309.06 222.576 320.365 221.937 316.731 218.487C320.23 218.104 325.748 219.957 330.189 217.145C332.275 214.397 331.401 212.8 334.025 212.544C334.025 209.925 331.401 210.436 331.199 208.647C331.737 208.072 332.477 208.199 333.217 208.263C333.957 208.327 334.294 210.691 336.515 211.522C338.466 209.541 334.563 208.583 335.034 206.858C337.322 204.238 338.197 210.691 340.619 208.072C340.302 207.942 340.024 207.739 339.809 207.481C339.595 207.224 339.452 206.92 339.392 206.597C339.331 206.274 339.357 205.942 339.465 205.63C339.574 205.319 339.762 205.038 340.014 204.813C342.974 205.26 341.763 206.219 343.311 208.072C343.916 205.516 345.599 209.03 346.204 206.474C346.81 203.918 343.58 206.474 344.185 204.11C344.791 201.746 348.425 206.091 350.511 206.858C348.559 206.858 345.666 209.669 348.156 211.65C351.991 210.308 355.625 208.008 359.931 209.286C359.931 209.861 359.124 210.564 359.931 211.011C362.69 208.391 357.845 206.921 359.931 204.621C362.354 207.497 363.363 201.554 365.583 203.215C365.112 205.132 361.681 205.58 364.305 208.902C366.055 207.177 365.92 205.707 366.727 204.11L370.967 207.369C373.793 204.941 377.157 206.346 379.983 203.79C377.696 201.362 379.58 205.388 377.897 203.79C376.215 202.193 377.897 201.937 377.897 201.043C379.456 202.1 381.243 202.814 383.128 203.135C385.014 203.455 386.95 203.374 388.798 202.896C390.615 201.426 387.991 200.468 389.875 198.998C391.759 197.528 392.768 197.145 394.787 200.02C397.075 198.295 394.787 197.081 395.258 195.612C397.063 195.599 398.866 195.749 400.641 196.059C398.219 193.886 400.641 194.142 401.785 192.097C396.529 193.162 391.339 194.506 386.241 196.123C387.116 194.525 384.492 193.375 384.626 191.905C391.355 191.905 402.391 184.621 406.63 191.905C409.187 191.905 406.63 190.052 408.38 188.455C410.667 189.797 412.686 188.455 415.108 188.774C415.781 191.011 417.665 189.733 417.531 191.778C415.849 192.353 414.234 194.078 412.282 192.353C412.753 191.586 413.695 190.755 413.09 190.116C411.879 191.714 410.196 190.116 408.985 191.65C410.802 193.631 408.985 195.995 410.735 198.04C413.292 198.04 410.735 196.25 412.484 194.589C415.714 198.423 419.819 189.733 420.693 196.506C420.89 196.355 421.117 196.243 421.361 196.177C421.604 196.112 421.859 196.093 422.111 196.123C422.362 196.153 422.604 196.23 422.823 196.351C423.042 196.472 423.233 196.633 423.385 196.826C425.336 195.995 423.385 192.928 425.74 193.886C426.548 194.525 425.74 195.356 425.74 196.059C428.23 195.673 430.683 195.096 433.075 194.334C431.46 196.442 435.968 194.717 434.353 196.442C431.931 195.42 429.778 197.528 427.624 198.615C431.325 197.401 432.469 199.254 435.632 199.573C435.632 198.487 433.68 197.528 435.632 196.314C436.372 196.889 437.045 196.314 437.852 197.209C437.852 198.679 438.794 200.02 437.852 201.554C435.43 200.212 433.411 202.832 431.123 200.468C429.239 201.937 429.912 203.151 428.835 204.493C424.192 203.407 422.107 198.998 418.136 203.215C417.665 205.26 421.635 203.854 419.482 206.346C417.598 203.79 417.06 203.854 414.503 204.174C413.83 206.027 419.415 205.388 417.06 208.263C415.512 205.899 413.628 207.241 412.35 203.343C408.918 206.538 415.579 205.388 412.888 208.711C410.196 205.899 408.11 208.711 409.322 204.813C407.034 208.455 404.544 208.774 404.14 205.388C403.467 206.091 402.862 206.666 402.054 205.388C400.978 206.474 402.794 209.925 399.901 209.477C399.234 208.119 398.693 206.708 398.286 205.26C396.738 205.26 392.297 204.877 392.768 207.56C394.181 206.027 395.931 207.56 397.411 206.474C392.903 210.564 386.78 207.433 387.654 213.822C384.963 211.969 383.011 215.548 380.253 213.822C382.137 213.439 383.55 209.733 385.905 212.544L387.654 210.18L385.299 208.263C383.886 210.116 381.195 210.628 378.57 212.417C378.974 213.822 380.858 215.036 379.176 216.762C375.811 214.206 371.909 217.976 370.563 218.615C369.554 215.931 366.189 216.826 366.66 213.695C366.189 214.078 365.718 213.695 365.045 213.695C365.382 216.89 362.623 217.273 364.44 220.084C362.286 220.084 361.21 217.337 361.142 215.612C358.72 217.912 350.847 215.612 354.884 219.318C353.942 220.276 350.04 219.318 351.184 222.065C352.462 222.065 353.404 220.787 354.817 222.065C353.539 225.771 351.116 222.896 349.501 224.493L350.713 225.452C350.713 226.027 350.713 226.538 351.52 226.985C352.193 226.155 352.799 224.557 353.741 225.005C354.683 225.452 355.557 226.155 355.154 226.985C352.664 227.752 349.434 229.861 347.685 225.963C344.642 228.022 340.892 228.912 337.187 228.455C337.494 227.55 337.562 226.588 337.386 225.652C337.21 224.716 336.795 223.836 336.178 223.088C336.178 228.455 334.63 223.088 331.939 225.516C332.814 228.455 336.851 227.305 335.976 230.308C332.006 231.139 328.44 234.142 323.73 231.458C321.105 236.059 314.04 235.1 311.954 239.382C312.829 240.404 314.04 239.381 313.771 240.659C311.617 242.129 315.251 245.068 312.156 244.941C311.146 243.663 312.156 242.001 311.214 240.723C307.849 238.806 305.427 240.723 302.466 240.723C303.408 239.062 305.023 237.209 303.475 236.059C301.591 236.059 300.111 238.167 298.16 237.784C299.64 238.551 297.756 240.084 298.9 240.979C300.044 238.615 301.524 237.401 303.341 237.784C301.255 239.701 300.515 238.615 302.062 241.362C298.967 242.129 296.208 244.302 293.113 245.004C293.61 245.236 294.028 245.595 294.321 246.041C294.614 246.488 294.769 247.003 294.769 247.528C294.769 248.054 294.614 248.569 294.321 249.015C294.028 249.462 293.61 249.821 293.113 250.052C294.997 252.225 295.266 247.56 297.016 249.222C297.016 252.097 294.391 254.461 290.287 251.778C290.96 248.966 291.431 249.35 289.883 248.008C291.969 245.963 292.507 250.372 294.391 247.496C292.911 246.538 291.902 247.497 290.287 245.644C285.913 247.816 280.395 252.033 276.358 249.669C274.877 251.394 276.358 252.289 274.945 254.014C274.339 253.567 273.935 254.014 273.33 254.014C272.724 254.014 272.253 250.755 270.84 252.417C269.763 255.612 261.958 259.573 258.997 256.123C256.844 257.848 260.949 257.848 259.872 259.254C258.93 258.806 258.526 260.468 257.988 261.49C256.238 259.509 255.498 261.107 254.825 262.96C254.018 262.449 254.354 261.554 253.278 261.171C252.47 263.151 250.855 262.257 250.115 264.302C248.029 264.302 246.481 264.813 245.337 263.918C247.827 266.921 241.973 265.58 242.915 269.158C240.207 269.123 237.538 269.766 235.175 271.022C232.813 272.278 230.84 274.104 229.457 276.314C226.967 274.589 227.91 275.675 227.371 277.528C223.872 277.528 218.624 278.615 218.22 282.129C214.99 279.701 212.164 285.963 212.164 287.816C212.164 287.305 215.057 286.921 214.317 288.199C213.942 288.744 213.395 289.161 212.754 289.391C212.112 289.621 211.411 289.651 210.751 289.477C210.751 288.583 211.154 287.752 210.011 287.433C208.396 289.158 206.04 288.583 203.954 288.966C210.078 290.627 211.424 294.525 213.577 290.18C216.605 291.266 218.489 288.966 221.45 289.733C222.594 287.816 221.45 286.346 223.065 285.771C222.123 284.429 220.104 286.538 220.508 284.302C224.881 283.151 230.197 281.107 233.158 284.302C234.504 282.193 231.61 281.362 233.158 279.254C236.59 282.129 238.945 277.145 240.493 276.89C239.749 277.029 238.982 277.022 238.241 276.868C237.5 276.714 236.801 276.417 236.186 275.995C235.58 278.87 231.678 279.765 230.938 277.081C232.956 274.078 236.388 275.228 238.541 272.353L240.425 273.439C240.425 275.484 237.734 275.036 239.281 276.123C239.82 274.589 241.637 277.145 242.646 277.337C245.001 272.289 247.962 279.254 251.057 276.634C249.913 274.845 247.356 276.187 247.962 274.653C250.621 273.52 253.427 272.725 256.306 272.289C257.719 270.755 256.306 270.052 257.248 268.583C258.854 269.222 260.522 269.714 262.227 270.052C262.227 267.88 258.661 266.921 258.257 264.941C258.93 263.215 260.41 264.238 261.352 263.471C261.352 266.41 264.38 264.813 265.121 264.11C265.121 267.177 267.61 265.26 267.879 266.73C267.879 267.177 267.879 267.56 268.216 267.752C270.1 265.835 266.399 265.26 268.216 263.343C270.84 261.235 274.272 267.177 275.752 264.813C274.272 264.046 273.532 263.151 273.935 261.937C277.165 258.423 281.203 264.302 282.347 264.813C281.203 263.79 282.347 262.321 281.876 261.043C280.328 259.893 276.694 260.404 276.627 258.423C280.934 255.164 282.01 260.148 286.317 260.468C287.124 259.318 286.317 258.615 287.057 257.465L290.758 259.893C290.152 261.107 286.451 259.893 287.797 262.321C289.681 261.682 291.296 260.02 293.517 260.915C288.335 263.663 282.885 265.516 277.569 267.752C283.154 270.372 291.027 259.957 293.584 265.388C295.401 266.474 296.679 265.388 298.025 264.877C297.352 264.302 296.275 263.79 296.545 262.96C299.573 262.065 302.062 259.254 305.09 258.359C308.926 259.957 310.272 258.934 313.636 262.576C315.722 260.02 315.453 264.11 319.154 260.276C322.855 263.535 329.18 258.359 333.688 257.465C333.083 256.826 332.006 256.25 332.343 255.484C332.881 255.484 333.352 255.484 333.688 254.653C333.688 257.209 336.313 258.679 337.995 256.123C338.533 255.292 337.322 254.717 337.591 253.95C339.206 255.1 338.129 255.867 339.946 255.739C341.763 255.612 339.946 253.886 339.946 252.992C341.157 253.695 340.821 254.653 341.898 255.356C345.195 255.356 349.434 250.819 351.655 253.567C353.673 251.714 349.367 251.011 350.914 249.286C357.105 254.142 361.277 250.244 364.372 246.666C363.901 247.241 363.296 246.666 364.372 245.58C363.62 245.562 362.88 245.391 362.204 245.078C361.527 244.766 360.929 244.318 360.45 243.767C359.972 243.215 359.623 242.573 359.429 241.882C359.235 241.192 359.2 240.47 359.326 239.765C361.681 240.404 361.277 242.193 363.699 241.298C363.431 242.052 363.444 242.871 363.739 243.617C364.033 244.362 364.59 244.988 365.314 245.388C366.862 243.535 363.969 242.321 365.314 240.532C366.862 239.765 366.66 237.976 369.15 238.87C373.591 244.877 380.522 241.298 385.636 243.471C384.155 242.385 382.81 241.362 383.684 239.957C386.51 239.957 387.251 238.295 388.529 242.001C391.423 238.231 390.077 245.068 392.701 242.64C390.615 241.235 391.019 239.509 390.548 237.976C390.847 237.786 391.198 237.685 391.557 237.685C391.917 237.685 392.268 237.786 392.566 237.976C392.566 239.19 392.566 240.532 394.585 241.554C395.124 238.167 397.68 239.893 397.68 242.257C406.495 237.592 416.656 242.257 421.299 234.078C423.25 236.378 424.798 234.525 426.682 236.826C429.037 233.12 431.123 234.781 432.873 237.401C436.574 236.123 437.449 234.014 439.602 237.401C442.361 235.867 437.381 235.036 438.794 233.631C440.207 232.225 442.159 234.653 442.697 231.139C444.245 233.311 445.59 232.8 446.869 231.842C446.331 231.203 445.254 230.564 445.725 229.797C455.751 231.011 468.267 227.752 476.678 231.075C474.188 232.161 468.805 230.627 468.065 233.119C468.738 232.672 470.084 232.608 469.613 233.631C467.863 234.461 465.777 235.548 466.45 232.672C462.951 233.119 464.566 236.826 466.45 238.679C469.949 235.803 475.467 231.842 476.611 237.017C477.822 234.397 479.37 238.04 480.648 235.739C480.11 233.758 477.351 235.292 478.495 233.695C479.639 232.097 481.523 233.056 483.138 233.695C483.138 234.27 482.196 234.845 482.667 235.356C484.416 233.439 483.878 231.714 481.456 229.989C479.773 230.819 479.841 232.225 477.351 229.989C480.043 228.008 476.14 226.41 478.091 224.493C479.37 225.388 480.514 224.493 481.725 224.877C482.433 227.501 484.001 229.843 486.202 231.566C488.403 233.288 491.124 234.302 493.972 234.461C491.549 232.928 495.183 231.778 495.923 232.289C497 235.548 501.643 232.289 504.2 232.289C503.527 231.394 502.046 230.564 502.585 229.605C505.142 228.008 506.151 233.822 507.833 232.736C506.958 229.222 510.525 232.736 511.467 232.161C510.323 230.883 513.351 229.541 513.956 228.263C514.831 229.413 515.706 228.838 516.581 229.861C515.235 229.477 513.216 229.861 514.562 232.097C516.783 230.5 519.609 230.308 519.205 233.631C521.493 232.481 517.927 231.458 520.214 230.308C522.57 233.886 522.031 230.308 523.848 230.819C525.261 232.033 524.655 233.311 524.386 234.589C523.983 231.905 520.147 234.589 518.196 234.589C519.945 235.612 518.196 236.762 519.272 237.784C520.753 237.784 522.3 236.762 523.848 238.231C523.848 240.34 522.166 240.468 520.82 241.554C525.463 241.107 525.934 239.318 527.953 235.995C530.711 237.784 532.932 233.375 535.22 232.608C535.22 231.011 533.47 229.35 533.672 227.752C536.095 228.135 538.517 226.921 540.94 227.752C541.68 229.158 541.343 231.905 543.564 230.5C543.564 228.583 540.738 229.094 543.093 226.666C544.102 229.605 544.169 227.624 546.188 227.816C546.515 229.048 546.673 230.315 546.659 231.586C546.053 231.586 542.958 231.586 544.035 233.183C545.448 233.183 546.794 231.266 548.139 233.183C547.668 235.164 544.91 233.758 546.053 235.292C546.996 234.653 547.534 236.187 547.601 236.953C548.391 236.548 549.026 235.915 549.413 235.146C549.799 234.377 549.919 233.51 549.754 232.672C551.1 233.119 552.513 231.586 553.859 232.672C555.541 231.139 555.878 226.794 558.166 228.391C560.453 229.989 556.685 231.65 559.579 233.311C562.068 231.714 557.762 230.052 560.252 228.455C562.246 227.873 564.352 227.726 566.414 228.025C568.477 228.323 570.441 229.06 572.162 230.18C572.162 226.73 575.593 230.18 576.872 229.733C578.15 229.286 578.352 225.132 580.708 226.091C582.39 228.263 584.476 231.65 585.62 232.481C585.62 231.266 587.235 230.5 588.917 229.35C589.724 226.73 585.418 229.35 586.427 226.538C588.917 226.538 594.165 226.155 594.704 229.094C593.223 230.052 591.07 227.944 591.003 230.564C595.578 233.12 602.711 229.03 605.537 232.225C611.324 230.627 614.823 226.666 617.717 231.139C618.861 229.733 619.062 227.624 621.014 229.158C620.408 229.989 620.61 230.883 619.197 231.714L622.09 235.228C623.167 229.989 628.819 237.273 629.627 233.567C627.877 234.781 627.137 232.672 627.675 231.267C629.358 232.481 631.376 229.158 632.924 231.65C631.646 234.397 634.673 232.8 636.356 234.653C638.845 233.695 635.279 232.353 637.702 231.458C638.24 231.458 638.644 232.608 639.249 232.161C639.249 229.605 633.597 230.308 635.481 226.41C638.038 229.477 643.623 223.854 644.229 229.797C645.44 228.966 644.969 228.008 646.045 227.177C647.458 229.541 650.688 227.56 650.554 230.244C649.141 231.714 648.266 228.391 646.786 230.244C650.958 233.12 653.515 231.778 655.264 235.739C656.677 234.27 654.86 232.481 656.273 230.947C653.447 233.758 650.958 229.477 652.371 227.433C654.658 229.477 657.216 228.647 659.571 230.116C659.19 231.406 658.297 232.505 657.081 233.183C658.763 236.187 660.782 234.909 662.599 236.314C664.886 235.228 663.675 233.822 664.55 232.672C668.049 237.209 675.653 234.014 678.815 238.487C679.488 236.953 678.412 235.164 678.815 233.567C682.449 232.992 679.556 237.273 682.785 236.187C682.314 235.42 681.911 234.653 682.785 234.014C683.727 234.909 685.679 236.059 685.544 237.592C683.966 237.306 682.345 237.306 680.767 237.592C681.44 238.743 680.767 239.765 679.354 240.659C682.747 241.553 686.265 241.941 689.783 241.81C692.744 243.918 690.524 245.516 690.187 247.305C693.686 245.899 691.264 245.58 693.888 243.343C689.851 238.679 687.159 240.596 683.795 238.998C686.486 238.04 685.948 237.209 688.37 236.187C695.84 240.468 712.393 233.886 710.845 243.279C710.845 242.065 708.086 242.065 708.692 243.79C709.432 243.79 712.864 243.79 711.72 245.196C709.028 245.196 706.673 243.151 704.318 240.596C701.492 244.302 699.877 239.573 697.589 241.49C698.464 243.854 700.011 241.49 701.155 242.449C700.819 243.663 701.155 245.004 700.146 246.155C702.636 247.752 701.694 249.989 704.654 248.263C704.991 245.963 700.415 245.324 703.241 242.64C705.462 246.155 708.288 248.008 707.01 250.116C705.731 252.225 703.039 248.902 703.578 251.905C704.037 251.719 704.552 251.701 705.024 251.855C705.497 252.008 705.892 252.322 706.135 252.736C708.019 249.03 712.864 252.736 712.258 246.858C713.604 250.244 720.871 254.653 724.303 251.842C724.141 252.172 724.057 252.532 724.057 252.896C724.057 253.26 724.141 253.62 724.303 253.95C725.043 253.439 725.851 253.056 726.322 253.95C726.892 253.394 727.264 252.681 727.385 251.913C727.505 251.144 727.369 250.36 726.994 249.669C724.161 249.798 721.328 249.408 718.651 248.519C719.593 247.369 717.372 245.771 719.727 244.813C720.939 248.455 727.264 245.963 730.157 250.052C728.542 251.139 727.398 250.052 728.138 252.544C731.234 254.078 738.366 252.097 737.626 256.57C738.837 254.27 740.25 251.586 742.606 255.612C743.884 254.845 743.48 253.886 744.624 253.12C743.951 250.564 742.336 254.142 741.664 251.65C745.836 249.286 740.183 250.436 741.664 248.902C743.144 247.369 744.422 249.413 745.836 249.477C743.48 252.289 747.451 252.544 745.365 255.42C746.643 253.503 751.555 251.586 752.093 255.42C753.17 254.397 753.977 255.036 754.987 254.142C756.871 250.116 749.065 251.011 752.363 247.752C744.759 249.222 740.452 245.132 734.194 243.663C737.155 240.34 739.241 246.282 740.923 242.385C743.009 243.599 743.077 244.366 742.942 246.474C747.114 245.196 744.692 246.474 745.566 243.535C747.316 245.005 748.931 243.535 747.787 246.602C751.421 246.602 747.787 242.129 748.796 240.212C751.017 242.257 754.045 239.318 756.198 241.235C755.525 242.193 755.323 243.279 754.583 244.302C753.776 241.937 752.295 243.151 751.219 242.193C749.671 242.96 749.133 246.538 751.219 246.027C750.075 245.324 750.546 242.449 751.622 243.854C752.579 244.803 753.13 246.056 753.17 247.369C754.987 247.369 759.899 246.219 759.495 248.199C757.409 249.861 756.131 246.921 754.045 248.583C755.054 251.458 757.746 249.094 757.275 251.714C759.226 247.177 768.445 249.35 767.099 253.822C769.656 252.8 769.185 249.925 771.271 251.778C771.742 252.736 771.271 253.567 771.271 254.525C773.29 253.183 773.02 255.356 773.626 256.57C775.457 256.031 777.322 255.604 779.211 255.292C776.995 254.271 775.014 252.841 773.385 251.086C771.756 249.33 770.512 247.285 769.723 245.068C771.944 245.452 771.002 247.177 771.204 248.647C773.626 246.41 775.039 249.605 777.327 248.008C776.452 246.602 778 245.58 779.615 244.557C781.162 248.263 784.056 245.004 784.863 245.452C785.671 245.899 786.68 247.56 785.94 248.391C785.2 249.222 782.104 246.219 782.576 248.902C783.383 248.902 786.344 251.267 785.334 251.586C784.594 250.18 780.961 250.18 781.297 252.544C783.316 256.57 786.546 253.695 787.42 257.465C788.833 256.762 788.093 255.739 788.497 254.845C790.717 255.675 795.226 254.845 795.226 258.231C799.936 255.739 800.205 260.212 803.839 261.298C803.839 261.298 807.002 258.998 806.329 262.257C808.482 261.554 807.405 260.276 809.088 259.445C809.088 262.896 815.144 261.043 817.701 263.088C817.028 261.874 817.701 260.915 819.45 260.148C822.747 259.318 820.056 262.385 822.007 262.193C821.824 261.708 821.84 261.176 822.052 260.702C822.264 260.229 822.656 259.848 823.151 259.637C823.689 262.576 825.708 258.551 826.583 260.276C827.457 262.001 825.102 262.193 825.91 263.471C829.947 263.024 833.043 267.305 837.147 266.538C836.783 266.151 836.582 265.651 836.582 265.132C836.582 264.614 836.783 264.113 837.147 263.727C839.637 266.666 841.588 267.305 842.396 264.11C846.097 266.474 850.74 269.541 853.835 266.091C855.315 268.647 857.603 266.985 859.353 268.135C859.353 270.052 861.102 269.797 861.506 272.417C863.054 270.564 863.255 270.052 865.341 270.819C865.812 268.583 862.717 268.902 861.169 267.944C863.188 266.091 861.64 263.599 861.169 261.554C863.659 261.554 866.082 261.554 866.485 264.685C870.052 264.685 873.954 262.513 876.579 267.56C878.867 267.56 876.579 263.663 878.732 265.196C879.27 265.771 878.732 266.282 879.068 266.858C884.519 264.238 892.526 270.436 899.861 269.158C896.765 271.075 896.833 270.372 894.545 272.736C893.805 270.18 891.988 273.695 891.248 271.139C891.921 270.564 892.997 271.139 892.593 270.244C887.143 268.008 884.317 270.244 879.136 268.583C880.414 269.925 883.038 270.436 879.674 271.969C881.693 274.014 883.106 273.758 884.451 271.969C885.797 273.311 891.18 277.145 894.949 276.378C894.208 275.356 893.132 274.27 894.949 273.631C896.765 272.992 897.842 275.164 899.39 275.356L897.371 276.698C903.007 277.487 908.535 278.858 913.857 280.787C916.145 280.02 914.934 278.743 916.75 277.912L918.702 280.34C920.115 279.637 919.375 278.615 919.711 277.784C920.653 278.998 922.133 277.337 923.008 279.318C922.268 279.957 920.99 280.532 921.461 281.298C923.345 280.723 924.825 282.704 926.776 281.298C926.104 280.276 924.96 279.19 926.776 278.551C927.651 280.212 929.064 279.062 929.872 281.171C929.406 281.425 929.05 281.827 928.866 282.306C928.681 282.785 928.68 283.311 928.862 283.79C932.832 279.829 935.591 285.196 938.821 284.685C939.427 283.663 937.004 282.193 938.148 281.298C945.954 279.318 955.644 287.688 965.67 282.512C966.41 283.471 964.391 284.174 965.67 285.26C968.698 285.26 965.67 283.854 967.756 282.768C970.851 283.151 967.15 283.982 969.169 285.643C970.986 284.749 969.64 283.535 971.928 282.704C974.215 284.685 977.042 282.704 979.329 285.196C978.843 285.43 978.469 285.831 978.281 286.317C978.094 286.804 978.108 287.339 978.32 287.816C979.195 287.369 979.868 288.263 980.541 289.158C985.184 286.41 987.27 291.011 990.499 289.733C990.499 286.474 986.799 288.199 984.982 286.921C985.655 286.474 985.318 285.899 985.789 285.388C989.961 286.219 994.268 286.41 998.574 286.858C997.418 287.536 996.116 287.957 994.764 288.09C993.412 288.222 992.047 288.063 990.769 287.624C991.98 288.647 990.769 289.477 990.769 290.372C995.479 287.688 993.46 291.139 996.556 291.075C997.265 290.159 998.219 289.439 999.319 288.989C1000.42 288.54 1001.63 288.378 1002.81 288.519C1001.6 290.947 1000.73 290.819 999.92 292.544C1001.94 291.011 1003.42 293.12 1005.5 290.436C1005.5 292.544 1009.27 293.95 1010.15 291.011C1014.25 294.781 1018.9 293.886 1023.61 294.142C1026.1 295.42 1025.15 298.998 1027.24 298.423C1026.43 295.164 1029.66 297.912 1031.21 294.461C1034.84 300.148 1041.64 296.698 1043.46 302.129C1045.41 300.34 1046.96 303.088 1048.7 303.088C1046.96 296.698 1060.48 302.64 1063.44 304.877C1064.99 301.49 1059.4 302.385 1059.67 300.787C1061.25 299.546 1063.16 298.749 1065.19 298.487C1063.51 301.298 1065.93 299.509 1067.41 299.765C1066.87 302.321 1067.41 302.385 1068.22 304.174C1070.78 302.96 1067.28 301.235 1068.62 299.893C1071.11 298.231 1074.01 298.806 1073.8 294.845C1074.46 297.31 1075.24 299.741 1076.16 302.129C1077.77 299.509 1081.74 300.34 1083.56 298.423C1083.9 300.787 1079.25 302.768 1078.85 304.813C1082.96 306.155 1084.57 298.423 1089.62 303.599C1083.56 303.982 1084.3 307.624 1077.98 308.583C1080.33 308.583 1085.71 310.18 1086.32 308.199C1085.65 308.199 1085.11 308.199 1084.57 307.497C1085.48 306.35 1086.69 305.455 1088.09 304.904C1089.49 304.354 1091.01 304.168 1092.51 304.366C1091.9 302.576 1090.29 302.385 1092.85 300.02C1094.19 300.596 1095.61 299.382 1096.88 300.915C1095.87 302.385 1093.38 300.915 1095.54 302.96C1098.63 302.576 1100.45 300.915 1102.27 305.005C1105.09 301.49 1111.28 303.088 1110.01 305.963L1112.49 303.918C1113.3 306.858 1114.85 305.388 1117.14 306.346C1119.16 304.302 1117.88 302.896 1120.91 302.193C1123.33 304.366 1125.89 306.794 1129.65 305.324C1128.51 303.535 1124.27 304.493 1125.08 301.81C1127.37 302.449 1128.31 300.276 1129.32 300.404C1133.09 302.896 1134.43 302.449 1136.05 306.219C1142.1 303.151 1147.69 312.608 1153.81 307.113C1153.8 307.407 1153.85 307.699 1153.96 307.974C1154.07 308.249 1154.24 308.5 1154.45 308.713C1154.67 308.927 1154.92 309.099 1155.2 309.219C1155.48 309.339 1155.79 309.405 1156.1 309.413C1158.99 308.391 1156.43 304.429 1159.8 305.196C1161.55 306.538 1157.92 307.688 1160.27 309.03C1164.24 309.477 1167.34 307.88 1169.83 311.33C1172.92 310.308 1168.21 309.158 1169.83 308.072C1172.99 308.072 1177.5 307.113 1178.78 310.947C1181.4 310.628 1184.02 309.286 1186.58 311.586C1187.99 310.372 1187.32 309.094 1189.61 307.816C1191.56 311.33 1193.58 306.538 1195.6 309.03C1195.13 310.436 1196.14 311.905 1196.74 313.375C1199.1 311.075 1194.18 308.647 1197.35 306.346C1198.36 307.56 1199.37 306.73 1200.37 306.921C1199.97 308.199 1199.37 309.413 1200.98 310.691C1203.13 309.35 1200.44 307.433 1203.34 307.497C1205.22 309.35 1204.01 311.139 1203.34 312.928C1205.62 309.925 1204.08 315.1 1206.36 313.503C1205.56 312.353 1207.24 312.928 1208.11 311.905C1211.28 315.42 1214.84 311.905 1214.84 316.889C1214.84 314.334 1216.73 314.334 1217.2 312.544C1216.51 312.188 1215.95 311.627 1215.63 310.947C1215.3 310.268 1215.21 309.505 1215.38 308.774C1217.53 308.774 1222.92 306.474 1223.19 310.244C1222.74 309.942 1222.21 309.762 1221.66 309.723C1221.11 309.685 1220.56 309.789 1220.07 310.026C1219.58 310.263 1219.16 310.622 1218.87 311.066C1218.58 311.51 1218.42 312.021 1218.41 312.544C1222.04 314.397 1225.68 313.439 1229.38 316.634C1232.47 313.822 1236.11 318.167 1236.11 313.758C1239.34 315.739 1241.49 314.909 1243.44 316.826C1243.44 313.183 1248.28 317.656 1250.17 315.036C1248.22 312.928 1246.54 315.739 1244.65 313.567C1249.29 309.861 1240.82 312.481 1242.09 309.286C1244.45 308.199 1245.93 309.286 1246.87 308.072C1249.83 311.65 1254.68 312.161 1258.04 315.42C1258.98 313.759 1256.02 312.225 1257.23 310.564C1256.09 308.774 1252.05 310.564 1252.86 307.944C1256.36 308.774 1259.59 310.18 1263.09 307.177C1265.98 308.455 1268.94 311.522 1271.57 308.008C1275.87 308.391 1276.88 315.484 1280.99 312.289C1278.09 311.65 1278.57 309.797 1277.62 307.624C1283.07 310.244 1291.89 306.985 1293.71 310.947C1291.62 313.95 1292.83 308.711 1290.74 311.714L1293.97 314.206C1294.71 310.883 1297.81 311.139 1300.7 311.075C1302.12 315.1 1305.35 312.928 1308.37 314.909C1311 313.503 1310.26 312.033 1312.34 311.905C1316.18 315.036 1305.62 316.698 1311.74 318.295C1311.4 314.589 1319.48 310.691 1323.45 311.905C1323.07 312.275 1322.86 312.767 1322.86 313.279C1322.86 313.792 1323.07 314.284 1323.45 314.653C1325.6 313.311 1323.99 312.417 1325.6 311.139C1330.18 311.139 1329.91 314.845 1333.07 311.139C1334.28 312.225 1333.07 313.695 1334.15 314.845C1336.23 313.503 1334.62 312.608 1336.23 311.33C1339.33 313.247 1342.36 313.95 1344.98 311.33C1347.74 312.481 1343.57 314.397 1346.73 315.484C1348.55 314.781 1350.56 315.867 1352.38 315.484C1350.63 314.589 1349.89 313.567 1350.7 312.417C1360.94 313.31 1371.25 312.923 1381.38 311.266C1380.84 312.097 1380.37 312.864 1381.79 313.375C1382.86 310.947 1384.68 313.375 1386.03 312.161C1385.83 311.982 1385.68 311.769 1385.57 311.533C1385.47 311.297 1385.42 311.043 1385.42 310.787C1385.42 310.531 1385.47 310.278 1385.57 310.042C1385.68 309.806 1385.83 309.592 1386.03 309.413C1389.19 310.18 1391.75 308.072 1395.11 310.18C1396.25 309.03 1395.45 308.263 1396.46 307.177C1400.96 310.564 1403.93 306.155 1408.03 307.56C1407.56 308.199 1408.03 308.647 1408.03 309.222C1406.01 308.711 1404.33 309.861 1402.51 310.691C1404.04 310.655 1405.56 310.974 1406.93 311.619C1408.3 312.265 1409.49 313.219 1410.39 314.397C1413.68 312.417 1406.68 312.033 1408.23 310.308C1416.84 310.691 1433.6 315.739 1441.41 311.586C1443.15 313.822 1443.69 312.544 1446.18 312.225C1445.44 308.327 1437.03 311.203 1438.31 307.177C1444.99 306.043 1451.82 306.043 1458.5 307.177C1460.78 304.941 1458.9 304.11 1457.69 306.794C1457.69 305.132 1450.56 305.005 1450.49 302.193C1454.91 301.852 1459.33 302.764 1463.21 304.813C1462.4 304.238 1463.21 303.343 1463.88 302.385C1473.57 304.302 1481.91 302.001 1493.22 308.072C1494.56 306.027 1493.22 304.749 1492.28 303.279C1491.2 304.302 1492.28 305.516 1490.93 305.324C1489.58 305.132 1488.44 305.324 1488.98 303.599C1491.13 303.215 1492.88 301.554 1495.3 301.874C1494.83 302.96 1496.58 303.407 1496.85 304.302C1498.74 304.302 1499.14 300.34 1501.23 300.723C1502.1 301.171 1503.65 301.426 1503.24 302.321C1499.68 303.151 1500.15 302.704 1500.08 305.643C1498.04 305.417 1495.98 305.773 1494.16 306.666C1496.85 308.072 1490.39 308.391 1493.08 309.797C1495.98 309.413 1494.56 309.286 1496.25 306.666C1502.3 304.429 1505.73 307.816 1510.58 306.666C1507.69 304.366 1502.84 302.64 1503.85 298.998C1506.95 296.251 1512.53 300.404 1516.1 298.998C1517.51 295.228 1520.87 296.442 1523.36 295.484C1523.97 297.848 1532.52 298.487 1532.25 295.995C1530.29 296.698 1526.26 296.634 1528.48 293.758C1530.9 295.036 1532.38 293.759 1534.4 294.078C1533.79 295.228 1536.22 295.42 1534.8 296.826C1538.52 296.598 1542.25 296.598 1545.97 296.826C1549.61 290.052 1555.39 297.592 1558.89 289.989C1561.45 291.075 1562.73 289.477 1565.62 290.883C1563.39 288.092 1560.42 285.91 1557.01 284.557C1561.2 283.18 1565.47 282.028 1569.79 281.107C1571.8 280.542 1573.91 280.404 1575.98 280.702C1578.05 281 1580.03 281.727 1581.77 282.832C1587.96 279.381 1597.99 275.292 1605.59 278.806C1600.95 287.56 1584.19 280.723 1580.76 286.921C1581.97 285.516 1577.87 283.599 1576.66 285.26C1577.6 285.771 1578 286.602 1577.26 287.944C1572.62 288.519 1567.77 282.512 1562.26 285.963C1566.5 288.519 1575.71 293.056 1581.91 290.628C1581.91 288.966 1576.25 290.052 1578.54 287.369C1583.89 287.064 1589.23 288.1 1594.02 290.372C1597.43 287.691 1601.01 285.195 1604.72 282.896C1610.97 284.941 1613.87 281.362 1617.5 285.516C1619.45 282.832 1614.14 284.046 1616.49 281.107C1620.87 278.551 1618.85 280.34 1618.24 276.953L1626.79 277.912C1627.44 276.776 1628.42 275.838 1629.61 275.205C1630.8 274.572 1632.15 274.27 1633.52 274.334C1633.52 277.017 1631.16 276.187 1630.22 277.401C1633.52 277.401 1634.93 278.104 1635.27 279.637C1637.22 278.04 1640.58 278.551 1641.19 275.036C1639.1 274.525 1636.88 274.078 1638.7 271.394C1643.29 272.432 1647.94 273.221 1652.63 273.758C1652.63 268.199 1661.98 274.206 1662.45 268.774C1660.57 267.113 1658.62 269.541 1658.14 266.985C1657.2 269.158 1653.97 268.263 1652.29 269.413C1652.29 268.263 1651.48 267.752 1652.29 265.963H1658.14C1656.8 262.129 1662.45 263.215 1664.2 260.021C1657 260.596 1651.28 266.41 1645.09 261.235C1649.53 256.634 1666.29 259.19 1663.46 250.628C1665.38 249.803 1667.49 249.472 1669.58 249.669C1669.58 250.755 1668.64 252.225 1669.58 252.289C1677.79 244.429 1690.71 242.129 1698.32 233.119C1698.32 234.334 1700.2 233.822 1700.81 234.525C1700.81 231.203 1705.11 232.033 1705.85 229.477C1702.49 229.477 1700.2 232.417 1700.13 229.477C1703.58 226.161 1707.5 223.321 1711.77 221.043C1713.12 218.423 1710.83 218.934 1711.77 216.698C1713.05 216.698 1713.46 217.784 1715.61 216.698C1716.01 214.525 1714.4 214.27 1715.61 211.33C1719.31 210.564 1718.57 209.733 1721.53 210.18C1720.99 207.56 1718.1 207.305 1717.56 204.685C1720.52 203.151 1724.29 202.257 1725.1 198.743L1723.08 199.19C1723.08 198.615 1723.08 198.104 1722.27 198.487C1723.15 200.979 1718.3 203.854 1717.96 201.937C1721.19 198.164 1725.56 195.421 1730.48 194.078C1728.53 191.33 1732.77 190.436 1730.95 188.455C1731.34 188.675 1731.78 188.797 1732.23 188.81C1732.68 188.822 1733.12 188.724 1733.52 188.525C1733.92 188.326 1734.26 188.032 1734.5 187.673C1734.75 187.314 1734.89 186.901 1734.92 186.474C1731.09 187.497 1729.34 186.091 1729.54 182.449C1726.78 184.302 1724.42 186.41 1721.53 188.072C1721.53 185.771 1717.49 188.072 1719.11 184.174C1721.75 183.973 1724.31 183.243 1726.63 182.032C1728.95 180.82 1730.97 179.154 1732.57 177.145C1733.15 177.705 1733.88 178.105 1734.68 178.301C1735.48 178.497 1736.33 178.483 1737.12 178.26C1737.92 178.037 1738.63 177.614 1739.19 177.035C1739.75 176.456 1740.14 175.743 1740.3 174.973C1738.02 175.612 1737.34 177.401 1734.45 177.528C1733.31 176.123 1734.45 172.864 1734.45 172.033C1734.45 171.203 1737.95 174.717 1739.23 171.65C1738.02 172.225 1736 169.925 1738.35 169.158C1740.71 168.391 1740.98 171.203 1745.08 169.158C1745.55 166.921 1742.19 165.068 1744.21 163.918C1744.81 165.643 1750.13 165.899 1751.81 163.151C1750.87 160.787 1748.65 163.599 1747.98 162.576C1751.34 161.171 1746.23 159.062 1748.92 158.551C1751.41 162.704 1759.68 155.803 1761.1 151.075C1761.9 151.11 1762.68 151.333 1763.38 151.723C1764.07 152.113 1764.65 152.658 1765.07 153.311C1765.61 150.18 1767.29 148.711 1768.77 150.691C1768.77 148.199 1771.66 147.369 1771.39 144.749C1765.99 146.47 1761.18 149.538 1757.46 153.631C1757.46 152.672 1756.66 152.8 1756.39 152.097C1761.12 148.249 1765.45 143.968 1769.31 139.318C1773.17 134.318 1777.69 129.809 1782.76 125.899C1781.69 123.599 1783.77 122.832 1782.76 120.659C1777.45 122.896 1772.33 130.755 1765.61 130.755V128.838C1769.78 125.899 1774.69 123.151 1778.52 119.893C1780.47 118.386 1782.02 116.483 1783.08 114.326C1784.14 112.169 1784.68 109.813 1784.65 107.433C1790.23 101.043 1798.44 91.4582 1796.42 85.1323C1797.9 85.5796 1799.12 83.7905 1799.52 81.554C1797.43 83.5988 1795.82 84.0461 1795.41 81.554C1796.05 80.5029 1796.38 79.3137 1796.38 78.1035C1796.38 76.8935 1796.05 75.7042 1795.41 74.6531C1797.5 72.9278 1797.43 70.6275 1798.98 72.864C1798.11 73.8863 1796.63 74.6531 1796.83 75.8672C1800.6 76.2505 1801.34 69.4774 1805.51 67.0492C1801.74 64.9406 1801.27 61.2985 1801.34 56.6978Z" fill="#D17D54"/>
</svg>
