<svg width="1497" height="1127" viewBox="0 0 1497 1127" fill="none" xmlns="http://www.w3.org/2000/svg">
<path d="M870 1069L1378.5 779L818 1043L1408.5 724.5L638 1079L1424 669L530 1090.5L1477.5 595L439.5 1065L1420 565L415.5 1040.5L1360.5 540.5L370.5 1022.5L1388.5 476L394 949L1244 495L299.5 968.5L1322.5 418.5L221 936.5L1266.5 395L174.5 914.5L1198 372.5L121 878.5L1228 286.5L202 787L1163.5 240L184 743L1092.5 226L142 707L1096 145.5L98 687L1000 155L20 669L1000 113L112 549L888 113L136 471L800 98.5L83 449L762 62.5L165 350.5L710 39L181.5 306.5L668.5 35.5" stroke="black" stroke-width="80"/>
</svg>
