<svg width="1440" height="1065" viewBox="0 0 1440 1065" fill="none" xmlns="http://www.w3.org/2000/svg">
<path d="M367.609 967.16C361.689 970.393 355.769 973.626 349.849 976.858C349.199 976.37 348.55 975.882 347.9 975.394C364.067 965.478 380.26 955.58 396.393 945.641C412.361 935.803 428.268 925.922 443.947 915.5C440.799 916.571 437.292 917.345 434.561 918.763C418.351 927.181 402.36 935.782 386.185 944.23C383.833 945.458 380.889 946.199 377.165 947.546C376.938 951.159 373.678 951.873 367.72 948.934C370.986 946.386 374.32 943.787 377.653 941.188C377.349 940.866 377.044 940.544 376.74 940.222C372.726 941.266 368.712 942.31 364.698 943.354C364.547 943.161 364.396 942.968 364.246 942.775C381.22 932.426 398.194 922.076 415.168 911.727C414.391 911.104 413.615 910.481 412.838 909.859C398.981 916.902 385.125 923.945 371.252 930.996C371.45 927.249 372.508 927.723 384.868 915.821C389.684 911.183 393.045 905.595 399.148 900.627C399.653 899.924 399.681 899.646 399.709 899.368C399.13 899.459 398.55 899.55 397.97 899.641C385.47 906.114 372.97 912.586 360.47 919.059C360.101 918.921 359.732 918.784 359.363 918.646C360.599 916.727 361.834 914.807 363.07 912.888C362.805 912.695 362.54 912.502 362.275 912.308C355.304 915.715 348.333 919.122 340.786 922.81C342.985 911.202 357.8 906.289 368.578 899.435C368.101 899.111 367.624 898.786 367.147 898.462C366.077 898.773 364.87 898.964 363.957 899.413C340.538 910.919 317.183 922.481 293.722 933.951C289.957 935.792 285.744 937.239 281.738 938.868C281.369 938.513 280.999 938.158 280.63 937.803C290.926 931.572 301.222 925.342 312.092 918.765C310.285 918.207 309.102 917.842 307.26 917.274C319.969 909.316 332.183 901.668 344.949 893.65C345.884 892.906 346.268 892.532 347.016 892.106C347.615 891.784 347.849 891.512 348.497 891.11C348.213 890.839 347.516 890.698 346.575 890.635C346.028 890.854 345.804 891.038 345.28 891.384C344.34 891.898 343.782 892.291 343.223 892.685C336.253 895.513 329.282 898.341 322.311 901.168C321.909 900.789 321.507 900.41 321.104 900.031C323.368 898.21 325.632 896.389 328.978 893.698C323.825 894.903 320.236 895.742 316.647 896.581C316.438 896.36 316.228 896.139 316.019 895.918C358.168 873.207 400.317 850.495 442.825 827.591C440.997 826.658 439.621 825.956 437.942 825.099C438.737 824.238 439.556 823.352 440.84 821.926C441.179 821.146 441.054 820.905 440.93 820.664C440.394 820.845 439.858 821.026 439.323 821.207C427.082 827.025 414.69 832.713 402.643 838.7C391.273 844.351 380.266 850.318 368.45 856.078C367.641 855.878 367.482 855.746 367.322 855.614C366.443 855.506 365.188 855.094 364.74 855.334C349.362 863.548 334.03 871.8 318.783 880.119C316.465 881.384 314.625 883.022 312.517 884.458C308.148 887.432 304.145 887.244 299.889 883.45C302.801 881.854 305.819 880.2 309.202 878.346C302.237 874.594 296.885 876.628 291.842 879.324C277.625 886.926 263.506 894.609 249.344 902.256C247.389 903.312 245.406 904.345 242.87 905.688C242.078 904.105 241.544 903.041 240.607 901.168C230.8 906.175 221.304 911.023 211.809 915.871C211.402 915.553 210.995 915.234 210.588 914.915C212.681 913.414 214.774 911.912 217.297 910.101C215.231 909.823 213.605 909.604 210.989 909.253C231.858 897.654 252.194 886.352 273.249 874.718C279.982 871.026 285.995 867.666 292.008 864.306C291.443 863.883 290.878 863.461 290.313 863.038C283.89 866.434 277.467 869.831 271.044 873.228C255.826 878.612 240.608 883.996 224.607 889.657C226.151 887.521 227.396 885.798 228.641 884.076C228.395 883.828 228.149 883.58 227.903 883.332C215.164 889.851 202.425 896.371 189.686 902.89C189.111 902.424 188.536 901.957 187.961 901.491C196.032 897.104 204.102 892.718 213.459 887.632C209.496 887.369 207.155 887.213 204.04 887.006C205.189 886.076 205.994 885.423 207.43 884.334C208.53 883.545 208.999 883.192 209.784 882.82C210.1 882.801 210.574 882.523 211.036 882.444C217.116 879.629 222.734 876.892 228.351 874.156C227.909 873.771 227.468 873.386 227.026 873.002C221.553 875.726 216.08 878.451 210.221 881.281C209.399 881.613 208.963 881.84 208.188 882.215C207.273 882.711 206.698 883.059 206.123 883.406C197.28 886.87 188.437 890.335 179.595 893.799C178.996 893.167 178.397 892.535 177.798 891.904C188.585 887.001 199.371 882.099 210.158 877.197C209.751 876.762 209.343 876.327 208.936 875.892C205.677 877.03 202.419 878.167 199.16 879.305C198.81 879.051 198.46 878.797 198.11 878.543C204.513 874.109 210.916 869.675 217.319 865.241C216.769 864.888 216.219 864.536 215.67 864.184C195.857 873.106 176.044 882.029 155.222 891.407C154.185 884.056 163.322 882.063 169.442 877.38C164.126 878.422 160.439 879.144 156.751 879.867C156.505 879.621 156.259 879.375 156.013 879.13C174.542 869.991 193.072 860.852 212.344 851.397C238.638 838.376 264.19 825.67 290.187 812.855C297.244 809.404 303.857 806.062 310.469 802.719C310.016 802.346 309.562 801.973 309.108 801.601C302.132 805.085 295.157 808.57 287.735 812.166C261.175 824.57 235.062 836.862 208.949 849.155C193.377 855.304 177.805 861.452 162.233 867.601C161.548 867.146 160.864 866.691 160.18 866.236C163.008 864.099 165.459 861.667 168.722 859.87C200.076 842.6 231.609 825.469 262.996 808.224C274.903 801.682 286.976 795.229 298.187 788.195C305.188 783.802 307.228 777.277 311.227 771.506C277.172 786.825 247.178 805.544 210.444 819.122C210.444 816.913 210.444 815.442 210.444 813.499C207.785 814.694 205.693 815.634 202.95 816.366C202.137 815.977 201.974 815.795 201.811 815.614C209.578 810.509 217.267 805.353 225.138 800.319C229.927 797.256 236.434 794.933 234.492 788.692C232.405 789.746 230.635 790.563 228.995 791.48C212.713 800.584 196.421 809.68 180.197 818.828C167.703 825.873 154.524 832.092 139.957 837.354C127.547 841.836 116.869 848.377 105.361 853.95C102.865 855.159 100.096 856.125 97.4529 857.203C97.0749 856.87 96.6969 856.537 96.3189 856.204C99.7523 854.079 103.358 852.061 106.586 849.808C115.082 843.878 122.984 837.55 131.936 831.94C140.231 826.743 149.578 822.27 159.153 817.103C185.067 802.252 210.29 787.778 235.514 773.303C234.687 772.685 233.86 772.067 233.033 771.449C207.186 786.244 181.34 801.039 155.494 815.834C139.632 824.578 123.77 833.323 107.908 842.066C107.403 841.735 106.898 841.403 106.394 841.071C108.837 839.256 111.083 837.304 113.754 835.647C135.138 822.378 156.525 809.11 178.076 795.958C188.702 789.474 199.683 783.24 210.483 776.877C211.128 776.496 211.583 775.976 212.126 775.52C211.791 775.167 211.457 774.813 211.122 774.459C205.815 776.431 199.99 777.978 195.296 780.452C179.517 788.766 164.204 797.461 148.554 805.883C145.682 807.429 142.066 808.38 137.842 809.962C135.74 814.309 135.376 814.4 127.861 811.415C131.354 808.706 134.804 806.031 138.254 803.355C138.003 802.933 137.751 802.512 137.5 802.091C133.277 803.064 129.053 804.037 124.829 805.011C124.493 804.752 124.156 804.494 123.82 804.236C155.397 786.281 186.975 768.326 219.264 750.024C243.825 736.198 267.694 722.735 291.517 709.237C315.013 695.924 338.464 682.575 362.379 669.128C369.757 665.029 376.691 661.044 383.625 657.059C383.131 656.7 382.637 656.341 382.143 655.982C374.865 660.054 367.587 664.126 359.869 668.311C356.727 669.904 354.002 671.367 351.326 672.867C325.641 687.265 299.958 701.665 274.287 716.074C255.394 726.678 236.518 737.297 217.635 747.909C192.081 760.616 166.542 773.337 140.946 786.008C138.655 787.142 135.998 787.956 132.953 788.429C190.299 751.564 254.894 719.69 305.218 678.212C304.816 677.877 304.414 677.541 304.012 677.205C285.677 686.824 267.342 696.442 249.006 706.061C248.825 705.866 248.643 705.672 248.461 705.477C253.716 701.648 258.97 697.819 264.224 693.99C246.291 696.137 239.165 708.037 223.987 712.642C226.596 709.373 229.204 706.104 232.097 702.48C240.548 703.308 239.283 698.275 240.612 694.717C243.273 694.458 245.882 694.204 248.49 693.951C248.536 693.562 248.582 693.174 248.628 692.786C247.332 692.5 246.036 692.214 244.6 691.896C245.706 690.66 246.796 689.443 247.885 688.225C247.513 687.934 247.141 687.642 246.77 687.351C242.948 689.086 239.127 690.821 234.56 692.894C234.998 691.332 235.323 690.169 235.895 688.126C230.933 690.447 226.767 692.396 220.776 695.198C223.529 690.428 225.532 686.959 228.231 682.283C204.317 694.292 182.988 706.517 160.174 717.422C159.692 717.031 159.21 716.639 158.728 716.247C165.173 712.084 171.617 707.921 178.062 703.758C177.804 703.502 177.546 703.245 177.288 702.989C174.991 703.35 172.693 703.711 170.169 703.699C169.943 703.325 169.857 703.261 169.857 703.261C187.785 692.189 207.764 682.509 223.692 670.082C223.197 669.678 222.701 669.274 222.206 668.87C216.6 671.576 210.995 674.283 205.389 676.99C205.015 676.794 204.641 676.597 204.267 676.401C205.044 675.271 205.821 674.14 207.095 672.5C207.527 671.744 207.462 671.497 207.397 671.251C206.935 671.404 206.472 671.556 206.009 671.709C203.78 672.413 201.55 673.116 199.321 673.819C199.034 673.573 198.747 673.328 198.46 673.082C216.726 662.438 234.992 651.795 253.258 641.151C252.99 640.853 252.722 640.556 252.454 640.258C251.364 640.424 250.275 640.59 248.391 640.708C247.409 640.498 247.221 640.334 247.033 640.171C246.726 638.259 244.356 637.251 242.022 638.204C240.243 638.931 238.952 640.234 237.103 640.811C235.142 641.423 232.78 641.481 230.593 641.781C230.167 641.338 229.741 640.895 229.316 640.452C228.694 642.128 228.264 643.848 227.402 645.469C226.343 647.461 225.425 649.585 220.663 648.459C219.25 648.125 216.741 648.901 215.309 649.645C209.338 652.745 203.443 655.926 197.878 659.329C196.793 659.992 197.301 661.779 196.924 663.891C193.392 664.253 189.028 664.7 184.664 665.147C184.428 664.682 184.191 664.217 183.954 663.753C186.341 661.922 188.727 660.091 191.126 658.251C188.309 654.396 185.001 655.125 181.202 657.337C168.531 664.716 155.794 672.045 142.511 679.723C141.675 678.605 141.055 677.776 140.501 677.035C135.912 678.387 131.316 679.741 126.896 681.043C126.125 682.356 125.157 684.003 123.633 686.599C121.361 684.397 120.241 683.31 118.879 681.99C138.013 670.612 156.947 659.353 175.88 648.094C175.476 647.794 175.072 647.495 174.668 647.195C158.916 653.742 143.164 660.288 127.408 666.835C127.24 665.959 126.984 664.635 126.725 663.291C121.811 662.473 115.651 664.75 111.882 660.762C105.31 663.43 98.5877 666.158 91.8656 668.886C91.3301 668.36 90.7947 667.834 90.2593 667.307C98.7118 663.356 107.164 659.405 115.617 655.454C115.233 655.062 114.849 654.67 114.465 654.278C113.179 654.278 111.892 654.278 109.803 654.278C113.026 651.558 115.88 649.15 119.308 646.327C119.875 645.539 119.87 645.165 119.864 644.79C119.31 644.922 118.756 645.053 118.203 645.184C103.18 652.224 88.1564 659.264 73.1331 666.305C72.5952 666.08 72.0573 665.855 71.5194 665.63C74.0541 662.639 76.5889 659.647 79.3967 656.333C77.217 656.412 75.3618 656.48 72.414 656.588C92.9544 645.635 112.537 635.193 132.12 624.751C131.613 624.286 131.106 623.822 130.598 623.357C113.231 630.897 95.8631 638.437 78.4956 645.976C77.9376 645.589 77.3797 645.201 76.8217 644.814C82.9296 636.84 95.1858 632.486 105.053 625.939C116.118 619.247 126.507 612.943 137.21 606.522C137.967 606.05 138.41 605.695 139.299 605.23C142.874 603.161 146.003 601.202 149.131 599.243C148.679 598.925 148.227 598.608 147.774 598.291C144.315 600.39 140.855 602.488 137.094 604.712C136.34 605.18 135.887 605.523 134.994 605.982C124.548 612.118 114.542 618.139 104.536 624.159C104.536 624.159 104.219 624.22 103.773 624.006C103.133 623.661 102.94 623.529 102.746 623.397C115.279 614.172 127.812 604.948 140.344 595.723C139.994 595.482 139.644 595.241 139.293 595.001C122.525 603.506 105.756 612.011 88.9871 620.517C88.4385 620.085 87.8898 619.653 87.3412 619.221C99.9045 611.142 112.468 603.063 125.031 594.984C124.3 594.471 123.569 593.958 122.838 593.445C101.837 605.934 80.8352 618.423 59.8339 630.912C59.1912 630.514 58.5484 630.117 57.9057 629.719C65.9213 624.047 67.1521 615.876 76.527 610.474C85.0325 605.573 92.0336 599.547 98.7389 593.234C97.0924 593.568 95.446 593.902 93.6369 594.269C93.5166 593.833 93.104 593.321 93.3312 593.009C95.2189 590.42 96.424 587.357 99.3311 585.391C113.185 576.023 127.511 566.956 141.53 557.061C139.27 557.821 136.677 558.325 134.802 559.379C112.638 571.842 90.8966 584.638 68.4066 596.84C46.8489 608.536 24.5437 619.638 1.7322 630.949C0.598239 630.336 0.299125 629.774 0 629.213C3.95629 626.503 7.91261 623.793 12.4822 620.614C13.2428 619.699 13.3903 619.253 13.5377 618.808C12.7525 619.164 11.9674 619.521 11.1822 619.877C9.91577 620.024 8.64931 620.17 7.38285 620.317C7.1009 620.052 6.81895 619.787 6.537 619.522C45.0327 596.858 83.5283 574.193 122.72 551.137C136.334 543.193 149.251 535.64 162.168 528.087C161.695 527.737 161.222 527.388 160.75 527.038C147.693 534.174 134.635 541.31 121.578 548.447C119.618 547.232 117.658 546.016 116.544 545.326C119.432 543.179 121.168 541.878 122.923 540.588C124.163 539.677 125.335 538.716 126.697 537.89C167.307 513.259 208.006 488.69 248.448 463.941C252.087 461.715 254.093 458.338 256.857 455.496C256.219 455.173 255.581 454.851 254.943 454.529C250.05 457.27 245.144 460.001 240.266 462.753C200.305 485.299 160.356 507.853 120.37 530.381C118.605 531.375 116.53 532.133 113.901 532.899C113.201 532.798 112.775 532.518 112.775 532.518C126.274 524.387 140.182 516.527 153.177 508.063C173.007 495.146 191.987 481.669 211.766 468.718C221.578 462.292 232.405 456.538 242.687 450.418C245.637 448.662 248.288 446.69 251.628 444.447C252.537 443.664 252.895 443.251 253.634 442.77C254.154 442.393 254.293 442.083 254.82 441.704C255.093 441.448 254.978 441.262 254.862 441.076C254.759 441.349 254.655 441.622 254.235 441.653C253.395 441.644 252.872 441.878 251.98 442.229C251.047 442.707 250.482 443.067 249.917 443.427C237.064 450.55 224.119 457.603 211.379 464.812C189.896 476.967 168.542 489.221 146.488 501.391C145.666 501.213 145.49 501.08 145.314 500.946C157.624 493.113 170.038 485.349 182.219 477.431C201.116 465.146 219.86 452.759 238.648 440.402C239.742 439.683 240.654 438.844 241.65 438.06C241.295 437.735 240.939 437.411 240.584 437.086C237.595 438.346 234.607 439.606 231.252 441.021C230.867 439.898 230.561 439.008 230.29 438.219C184.014 464.787 137.975 491.218 91.9358 517.65C91.3368 517.23 90.7378 516.811 90.1389 516.392C118.297 496.79 146.454 477.189 174.612 457.587C174.1 457.187 173.587 456.786 173.075 456.386C171.244 457.291 169.3 458.112 167.6 459.113C149.022 470.054 130.525 481.055 111.851 491.925C110.319 492.817 107.651 492.867 105.51 493.309C105.199 492.812 104.887 492.315 104.576 491.818C114.855 484.636 125.135 477.453 136.058 469.882C139.573 467.515 142.444 465.537 145.508 463.487C145.942 463.291 146.124 463.139 146.559 462.861C147.167 462.537 147.446 462.299 148.074 461.909C148.908 461.191 149.374 460.615 149.84 460.039C149.627 459.938 149.413 459.836 149.199 459.735C148.409 460.2 147.619 460.665 146.477 461.188C145.872 461.506 145.619 461.767 145.015 462.088C144.413 462.408 144.163 462.668 143.312 463.121C140.874 463.654 139.036 463.994 137.198 464.334C149.492 455.426 161.786 446.519 174.08 437.611C173.733 437.366 173.385 437.121 173.038 436.876C162.424 441.933 151.81 446.991 140.381 451.937C139.325 451.737 139.083 451.648 138.841 451.559C143.704 448.054 148.567 444.549 154.009 440.605C154.742 439.833 154.895 439.5 155.049 439.167C154.141 439.335 153.233 439.504 152.326 439.673C144.826 443.038 137.325 446.403 129.825 449.768C129.549 449.493 129.273 449.219 128.997 448.944C142.304 440.284 155.611 431.624 168.918 422.963C168.554 422.711 168.191 422.459 167.828 422.207C143.047 434.475 118.267 446.743 92.8566 458.916C92.0796 458.683 91.9328 458.545 91.786 458.408C100.753 452.169 109.696 445.915 118.704 439.701C120.805 438.252 123.5 437.111 125.217 435.504C126.443 434.357 126.49 432.667 127.063 431.219C126.327 431.02 125.592 430.82 124.856 430.621C118.823 433.931 112.79 437.241 106.662 440.602C101.717 437.256 105.68 435.158 108.424 433.373C118.263 426.973 128.649 420.93 138.358 414.449C152.82 404.796 166.884 394.885 181.591 384.665C181.47 384.059 180.875 383.871 180.28 383.682C167.973 389.77 155.666 395.857 143.359 401.944C142.948 401.633 142.538 401.322 142.127 401.011C148.367 396.869 154.606 392.728 161.495 388.205C166.524 384.974 170.902 382.125 175.281 379.276C174.671 378.889 174.061 378.502 173.451 378.116C169.336 380.711 165.221 383.306 161.105 385.902C147.363 393.998 133.62 402.095 119.146 410.11C118.216 409.943 118.017 409.857 117.819 409.771C124.996 398.109 138.991 389.812 152.696 380.022C149.851 380.26 148.547 380.368 145.298 380.639C147.8 377.733 149.114 375.087 151.775 373.312C163.096 365.763 174.817 358.472 185.943 350.428C184.024 351.142 181.888 351.685 180.222 352.598C167.943 359.327 155.922 366.264 143.508 372.882C117.977 386.492 92.2618 399.953 66.5773 413.439C65.127 414.2 63.2679 414.626 61.1084 414.609C66.4346 410.94 71.7608 407.271 77.4166 403.375C76.7976 402.987 75.8335 402.383 74.6123 401.617C110.285 380.795 145.617 360.172 181.406 339.234C181.862 338.92 182.318 338.657 182.78 338.588C188.475 335.386 193.709 332.253 199.254 328.981C200.026 328.477 200.487 328.112 201.317 327.687C202.022 327.162 202.358 326.697 202.695 326.231C201.79 326.506 200.885 326.78 199.65 327.192C198.797 327.691 198.274 328.053 197.297 328.511C191.444 331.633 186.046 334.659 180.532 337.729C180.416 337.773 180.311 337.935 180.311 337.935C176.536 339.762 172.761 341.589 168.985 343.416C166.171 341.108 166.204 341.131 169.458 339.16C217.745 309.904 266.027 280.643 314.291 251.37C315.653 250.544 316.811 249.572 318.064 248.669C317.793 248.289 317.523 247.909 317.252 247.529C314.454 248.313 311.141 248.701 308.935 249.94C271.772 270.806 234.754 291.784 197.669 312.71C196.11 313.59 194.216 314.213 191.822 315.201C190.567 315.137 189.969 314.828 189.371 314.519C226.909 291.091 264.447 267.663 302.538 243.855C303.481 243.126 303.872 242.777 304.623 242.321C304.408 242.041 303.833 241.869 302.862 241.769C301.908 242.205 301.352 242.568 300.795 242.932C283.482 252.669 266.121 262.371 248.869 272.154C233.195 281.044 217.667 290.044 201.987 298.929C200.283 299.894 197.993 300.414 195.415 300.473C218.773 285.822 242.132 271.172 265.207 256.699C262.195 255.053 260.728 254.251 259.343 253.494C221.802 274.872 183.625 296.612 145.448 318.352C144.894 317.972 144.341 317.592 143.787 317.213C166.99 301.254 190.192 285.295 213.394 269.336C212.82 268.938 212.246 268.54 211.671 268.142C205.743 271.66 199.841 275.197 193.879 278.691C187.733 282.293 181.659 285.955 175.312 289.399C169.466 292.572 164.531 296.71 157.558 298.8C156.979 298.306 156.399 297.811 155.819 297.317C164.646 291.053 173.472 284.788 182.673 278.258C181.599 277.794 180.686 277.4 179.67 276.961C189.364 269.983 198.968 263.069 208.571 256.156C208.148 255.764 207.724 255.372 207.301 254.979C200.448 258.092 193.594 261.205 186.74 264.317C186.32 263.937 185.9 263.557 185.48 263.176C189.739 260.14 193.998 257.104 198.257 254.068C197.847 253.759 197.436 253.451 197.026 253.142C193.049 255.09 189.072 257.037 184.23 258.872C183.064 258.644 182.763 258.527 182.462 258.41C184.68 256.945 186.899 255.48 189.779 253.647C201.294 246.49 212.146 239.702 222.999 232.913C222.365 232.483 221.732 232.052 221.098 231.621C209.531 238.225 197.964 244.828 186.396 251.432C173.253 257.687 160.109 263.942 146.32 270.145C145.674 270.093 145.348 269.878 145.348 269.878C152.773 264.783 160.163 259.666 167.645 254.607C170.091 252.953 172.779 251.453 175.329 249.899C173.523 248.568 172.557 248.866 157.17 255.084C153.9 252.333 156.878 250.614 159.576 248.989C188.534 231.548 217.156 213.856 246.591 196.768C321.16 153.477 396.087 110.452 470.902 67.3432C482.997 60.3745 496.216 54.1235 507.195 46.4758C521.397 36.5838 539.058 29.6978 554.554 20.9673C564.658 15.2742 576.784 11.1278 587.683 6.42696C587.53 6.83795 587.136 7.89295 586.446 9.7434C591.417 7.31982 595.534 5.31214 600.678 2.80396C599.193 8.76197 594.404 12.1659 588.983 15.4171C586.49 16.9123 584.684 18.901 582.076 21.1453C571.094 27.7919 560.603 33.9591 550.112 40.1263C550.674 40.5199 551.235 40.9134 551.797 41.307C562.073 35.1487 572.349 28.9904 582.625 22.8321C596.321 15.1957 610.018 7.55925 624.342 0C624.968 0.0771888 625.242 0.270647 625.242 0.270642C615.099 7.89044 604.956 15.5102 594.756 23.1734C596.026 24.0404 596.026 24.0404 614.641 17.8719C612.411 20.2021 611.099 21.5735 609.674 23.0628C610.243 23.3889 611.228 23.9542 612.534 24.7035C585.639 40.1953 558.937 55.5762 531.902 71.1483C532.729 71.7577 533.552 72.3649 534.743 73.243C525.591 78.5547 516.593 83.9843 507.21 89.109C503.978 90.8742 499.183 91.4608 496.164 93.3265C491.265 96.3537 487.29 100.02 482.828 103.361C480.466 105.129 477.901 106.781 475.427 108.485C475.917 108.853 476.407 109.221 476.897 109.589C480.784 107.594 484.82 105.712 488.534 103.587C515.864 87.9508 543.082 72.2293 570.482 56.6456C573.701 54.815 577.969 53.8011 581.429 52.1226C582.908 51.4048 583.562 49.9532 584.702 48.7146C591.596 48.4942 604.307 41.8177 605.993 37.3389C606.157 36.9026 606.227 36.0997 606.467 36.0783C612.213 35.5657 614.805 32.7849 618.372 30.1812C621.629 27.8047 627.726 27.1067 633.982 26.3412C630.396 28.9243 626.811 31.5074 622.985 34.2636C627.16 36.8175 630.471 35.3918 633.766 33.4689C644.133 27.42 654.521 21.3872 664.666 15.485C668.555 16.4054 672.024 17.2266 676.366 18.2545C663.459 25.9078 650.661 33.4962 637.864 41.0846C638.082 41.3311 638.3 41.5777 638.518 41.8243C651.426 36.5276 664.335 31.2309 678.065 25.597C678.187 27.0176 678.244 27.6802 678.26 27.868C682.674 28.224 686.927 28.5672 690.729 29.2665C689.759 29.8321 689.242 30.0417 688.724 30.2512C689.14 30.3579 689.727 30.6311 689.938 30.5378C690.429 30.3212 690.739 29.9277 691.122 29.6059C695.437 28.0392 699.752 26.4725 704.937 25.0707C706.079 25.3632 706.351 25.4907 706.623 25.6181C702.172 27.7876 697.713 29.9507 693.273 32.1295C691.298 33.0984 689.359 34.099 686.23 35.6773C689.204 36.0246 690.638 36.1919 692.375 36.3949C690.537 38.0926 688.779 39.7164 687.021 41.3402C687.447 41.6283 687.873 41.9163 688.299 42.2043C700.288 36.602 712.276 30.9996 724.264 25.3973C724.816 25.7247 725.367 26.0522 725.919 26.3796C723.568 28.652 721.217 30.9244 718.617 33.4369C720.036 33.4369 721.281 33.4369 724.371 33.4369C708.44 41.9718 693.702 49.8679 678.964 57.764C679.343 58.1352 679.722 58.5065 680.101 58.8778C693.282 53.2607 706.464 47.6436 719.645 42.0264C720.254 42.5057 720.864 42.9849 721.473 43.4641C704.953 54.8181 685.557 64.2345 667.959 75.4331C669.82 75.8932 670.988 76.1818 672.525 76.5616C662.754 83.3839 653.119 90.1115 643.484 96.839C643.731 97.134 643.979 97.4289 644.226 97.7239C646.281 96.9986 648.568 96.4621 650.35 95.5155C658.386 91.2468 666.219 86.8138 674.258 82.547C676.796 81.1995 679.842 79.1067 682.487 79.2103C692.195 79.5906 697.101 74.8258 703.916 71.327C706.163 76.1825 700.42 78.0912 697.214 80.7512C702.317 84.791 706.607 83.0446 711.066 80.1274C714.05 78.176 717.502 76.5337 721.381 74.8132C722.171 74.9938 722.324 75.1143 722.478 75.2347C723.185 75.6367 724.342 76.4642 724.532 76.3775C727.97 74.8087 731.292 73.1297 736.15 70.727C733.839 78.775 725.33 82.4743 718.112 86.7632C718.544 87.1691 718.977 87.5749 719.41 87.9807C723.266 86.5827 727.56 85.5327 730.896 83.7215C741.024 78.2224 750.781 72.4289 761.47 66.8696C762.491 67.1101 762.724 67.2312 762.958 67.3522C752.674 75.555 742.391 83.7578 731.635 92.3765C731.175 93.0369 731.187 93.2814 731.199 93.5259C731.758 93.4343 732.317 93.3428 732.876 93.2512C737.794 90.9134 742.713 88.5755 747.805 86.1554C748.207 87.9193 748.547 89.4097 749.111 91.881C730.361 102.727 710.446 114.249 690.524 125.767C685.933 128.421 681.025 130.872 676.809 133.76C673.72 135.877 669.583 136.989 668.896 141.238C668.408 144.254 660.255 146.735 655.526 149.458C655.368 149.549 655.243 149.666 655.732 150.682C658.408 149.813 661.46 149.243 663.7 148.028C678.022 140.255 692.382 132.5 706.262 124.395C711.859 121.126 719.972 120.22 723.754 114.951C725.428 112.619 732.408 112.147 736.232 110.199C739.702 108.43 742.158 105.803 744.047 103.087C752.305 99.4849 760.562 95.8832 768.82 92.2815C769.444 92.7528 770.069 93.2241 770.693 93.6955C766.521 96.5287 762.349 99.3619 757.998 102.317C762.405 105.275 765.815 103.283 769.124 101.384C779.574 95.3868 789.973 89.3513 800.391 83.3306C800.554 83.7379 800.717 84.1452 800.88 84.5525C805.974 83.8408 811.067 83.129 816.16 82.4173C816.523 82.7237 816.887 83.0301 817.25 83.3365C805.002 90.5383 792.753 97.74 780.082 105.529C780.446 106.073 781.232 106.031 782.019 105.989C791.563 102.154 801.15 98.3629 810.62 94.449C812.825 93.5374 814.241 92.7594 813.269 95.9205C813.014 96.7069 813.083 96.9464 813.153 97.1859C813.62 97.0319 814.088 96.8778 814.555 96.7238C818.624 96.6855 822.694 96.6473 826.356 97.1361C825.818 98.8396 825.688 100.016 825.558 101.192C821.533 103.79 824.268 104.103 828.516 104.057C826.35 105.755 824.501 107.203 822.05 109.068C821.023 110.038 820.601 110.592 820.178 111.146C821.279 110.875 822.38 110.603 823.481 110.332C835.429 104.762 847.376 99.1912 859.324 93.6207C859.899 93.9319 860.473 94.243 861.048 94.5542C858.417 96.9703 855.786 99.3864 853.052 101.897C854.798 101.897 856.729 101.897 860.374 101.897C843.249 110.77 827.356 119.005 810.932 127.548C810.402 127.856 810.042 128.189 809.541 128.305C808.134 129.15 807.228 129.88 806.322 130.61C806.71 130.825 807.098 131.041 807.486 131.256C808.768 130.494 810.05 129.731 811.579 128.935C811.825 128.902 812.111 128.63 812.111 128.63C826.339 122.455 840.566 116.279 854.793 110.104C855.35 110.454 855.907 110.805 856.464 111.156C853.587 113.245 850.956 115.513 847.793 117.394C822.497 132.438 797.092 147.403 771.746 162.411C768.428 164.376 764.97 166.29 762.106 168.52C759.396 170.631 757.382 173.127 755.062 175.454C755.703 175.8 756.343 176.147 756.984 176.494C772.049 168.991 787.06 161.439 802.213 154.013C807.084 151.625 812.444 149.669 817.38 147.333C828.21 142.208 839.198 137.202 849.601 131.721C866.845 122.635 883.678 113.214 901.583 103.98C902.801 104.05 903.12 104.074 903.44 104.098C896.601 109.282 889.761 114.465 882.443 119.992C881.699 120.468 881.51 120.637 881.038 121.005C880.228 121.765 879.777 122.363 879.325 122.96C879.765 123.2 880.204 123.44 880.644 123.679C881.205 123.031 881.766 122.383 882.691 121.694C883.326 121.398 883.599 121.144 883.871 120.89C903.305 110.303 922.734 99.7116 942.175 89.1301C946.679 86.6784 951.224 84.2589 955.751 81.8247C956.194 82.153 956.636 82.4812 957.079 82.8095C952.071 86.0617 947.063 89.3138 941.377 92.9413C940.035 93.5882 939.372 93.8598 938.71 94.1314C938.898 94.3787 939.087 94.6259 939.275 94.8732C940.517 94.5244 941.759 94.1756 943.001 93.8268C949.252 91.993 955.464 90.0966 961.799 88.399C962.659 88.1683 964.138 88.9321 965.33 89.6215C965.329 90.0076 965.367 89.9277 964.943 89.975C963.92 90.6269 963.319 91.2315 962.298 91.9736C959.579 93.4638 956.959 94.6515 955.096 96.226C953.8 97.3216 953.546 98.9484 952.565 100.593C943.572 105.982 934.838 111.116 926.105 116.25C926.64 116.642 927.176 117.034 927.711 117.426C937.239 111.939 946.77 106.453 956.264 100.941C956.324 100.906 955.883 100.498 955.62 100.24C955.564 100.215 955.637 100.289 956.054 100.569C957.575 100.639 958.679 100.43 959.784 100.221C958.311 101.805 957.312 103.739 955.293 104.921C927.434 121.23 899.435 137.436 871.364 153.728C872.106 154.381 873.141 155.29 874.477 156.463C866.287 160.912 858.235 165.358 850.002 169.656C849.08 170.137 847.132 169.771 846.104 169.381C846.936 168.382 847.323 167.801 847.71 167.219C846.644 167.48 845.578 167.74 844.511 168C818.987 182.007 793.463 196.013 767.939 210.019C768.483 210.641 769.027 211.263 769.572 211.885C773.208 210.919 777.328 210.384 780.384 208.901C787.685 205.359 794.33 201.235 801.572 197.634C804.115 196.369 807.625 195.942 810.694 195.132C810.969 195.54 811.244 195.948 811.518 196.356C804.534 201.171 797.549 205.986 790.052 211.154C794.004 211.66 796.55 211.986 798.471 212.699C795.004 214.711 792.162 216.335 788.9 218.009C787.655 218.572 786.832 219.085 785.689 219.836C786.128 220.096 786.887 220.118 788.085 220.032C789.628 219.629 790.732 219.334 792.106 219.355C792.07 220.355 791.766 221.037 791.074 221.782C790.671 222.077 790.656 222.31 790.641 222.543C791.159 222.43 791.677 222.317 792.652 222.106C796.43 220.386 799.751 218.764 802.465 217.438C801.63 215.866 801.053 214.782 800.477 213.698C803.326 212.029 806.236 210.402 809.013 208.683C815.274 204.806 821.468 200.884 828.83 196.265C825.158 195.93 823.449 195.774 821.404 195.588C823.351 194.192 825.173 192.885 827.363 191.316C825.073 191.198 823.343 191.11 819.091 190.892C847.527 175.731 874.387 161.41 901.246 147.089C901.573 147.702 901.901 148.314 902.228 148.926C904.795 148.734 907.921 149.095 909.836 148.259C922.134 142.891 934.185 137.278 946.277 131.707C951.264 129.41 956.151 127.019 961.758 124.827C962.594 125.143 962.757 125.302 962.919 125.462C957.878 129.219 952.837 132.977 947.738 136.777C948.154 137.099 948.907 137.683 949.171 138.7C948.627 139.467 948.572 139.801 948.095 140.183C947.775 140.443 947.877 140.656 947.978 140.87C948.167 140.831 948.522 140.786 948.519 140.754C948.501 140.52 948.411 140.289 948.738 140.267C949.518 140.132 949.902 139.787 950.286 139.443C957.456 135.825 964.643 132.221 971.793 128.586C982.377 123.205 996.55 123.613 1007 118.028C1007.41 118.438 1007.82 118.848 1008.23 119.258C1005.53 121.771 1002.83 124.284 1000.13 126.793C1002.21 127.871 1004.12 128.859 1005.38 130.33C1004.95 131.126 1005.17 131.438 1005.38 131.751C1005.79 131.486 1006.2 131.221 1006.61 130.956C1021.27 123.73 1035.92 116.503 1050.57 109.276C1051.18 109.728 1051.79 110.18 1052.4 110.632C1045.45 114.81 1038.51 118.987 1031.38 123.275C1032.67 123.275 1034.29 123.275 1037.33 123.275C1035.48 125.931 1034.13 127.877 1032.48 130.23C1035.39 129.389 1038.19 128.577 1042.29 127.392C1041.71 129.123 1041.9 130.644 1040.84 131.384C1032.41 137.239 1023.59 142.85 1015.27 148.766C1013.21 150.228 1013.19 152.948 1011.1 154.365C1005.56 158.111 999.546 161.582 993.433 164.935C986.839 168.553 979.917 171.914 973.138 175.388C973.693 175.921 974.249 176.455 974.804 176.988C982.147 173.904 989.491 170.82 996.834 167.736C997.04 167.945 997.245 168.154 997.451 168.363C983.973 176.659 970.496 184.956 956.538 193.649C955.581 194.518 955.105 194.99 954.629 195.462C954.894 195.598 955.158 195.734 955.423 195.87C956.22 195.453 957.016 195.036 957.813 194.619C963.646 192.47 969.479 190.322 975.988 188.25C976.665 188.326 976.996 188.542 976.996 188.542C973.144 191.575 969.292 194.608 965.17 197.854C968.847 200.744 972.008 199.547 975.349 197.816C990.449 189.992 1005.6 182.208 1021.5 174.526C1022.5 174.772 1022.71 174.903 1022.93 175.033C1014.79 180.151 1006.65 185.268 998.502 190.386C998.989 190.612 999.477 190.838 999.964 191.065C999.23 192.201 998.947 193.656 997.69 194.424C988.767 199.878 979.644 205.19 970.086 211.072C969.758 211.916 969.928 212.235 970.099 212.555C970.576 212.328 971.055 212.101 971.533 211.874C977.168 209.597 982.804 207.32 988.439 205.042C988.91 205.392 989.381 205.742 989.852 206.092C987.895 207.412 985.939 208.732 983.516 210.408C983.119 210.963 983.19 211.163 983.261 211.363C983.445 211.33 983.788 211.297 983.788 211.263C983.791 211.041 983.719 210.819 983.672 210.597C985.457 210.681 987.242 210.766 990.642 210.926C972.033 220.944 954.563 230.349 936.91 239.851C937.922 240.23 938.752 240.541 938.768 240.547C932.889 245.078 926.937 249.665 920.72 254.676C920.333 255.419 920.21 255.74 919.709 256.114C919.132 256.453 918.932 256.739 918.319 257.063C917.855 257.342 917.806 257.583 917.756 257.823C918.308 257.725 918.861 257.627 919.709 257.431C920.363 257.159 920.673 256.953 921.224 256.62C921.844 256.337 922.119 256.12 922.338 255.873C927.021 253.55 931.668 251.195 936.391 248.908C956.939 238.955 978.973 230.307 997.746 218.786C999.084 217.965 1000.85 217.26 1002.6 216.97C1004.05 216.73 1005.76 217.183 1007.36 217.328C1006.89 218.225 1006.76 219.314 1005.89 219.98C1004.07 221.367 1001.86 222.531 999.792 223.794C1005.98 226.988 1010.4 224.717 1015.2 222.109C1027.88 215.22 1040.81 208.536 1053.87 201.65C1054.76 202.55 1055.58 203.393 1056.71 204.544C1062.18 201.878 1067.56 199.252 1073.76 196.766C1074.81 197.043 1075.04 197.18 1075.27 197.318C1075.86 198.006 1076.44 198.693 1077.39 199.811C1057.66 210.466 1037.61 221.288 1017.57 232.111C1017.93 232.484 1018.28 232.857 1018.64 233.23C1026.79 230.065 1034.91 226.854 1043.11 223.745C1051.46 220.581 1059.9 217.517 1068.76 214.238C1068.76 215.561 1068.76 216.759 1068.76 218.676C1075.42 215.198 1081.41 212.075 1088.16 208.985C1089.25 209.278 1089.57 209.537 1089.89 209.796C1086.46 211.794 1083.04 213.792 1079.53 215.844C1091.45 221.038 1097.63 212.554 1107.72 210.984C1101.44 218.641 1086.88 219.097 1080.61 225.604C1081.02 225.931 1081.44 226.257 1081.85 226.584C1084.06 225.575 1086.27 224.565 1089.26 223.679C1090.25 223.936 1090.45 224.069 1090.65 224.202C1085.32 227.501 1079.98 230.799 1074.65 234.098C1075.15 234.494 1075.66 234.891 1076.16 235.287C1092.72 228.052 1109.28 220.817 1125.87 213.57C1126.5 217.518 1124.94 219.264 1116.71 223.528C1118.55 223.528 1119.83 223.528 1121.92 223.708C1122.97 224.007 1123.19 224.126 1123.41 224.244C1109.72 231.423 1096.03 238.602 1081.75 246.166C1080.66 246.892 1080.16 247.233 1079.18 247.618C1078.23 247.886 1077.74 248.111 1077.25 248.336C1078.37 248.373 1079.49 248.41 1081.03 248.377C1082.02 247.921 1082.61 247.535 1083.19 247.149C1095.59 242.283 1107.99 237.416 1120.39 232.55C1120.97 232.896 1121.56 233.243 1122.15 233.59C1120.37 235.091 1118.93 236.857 1116.76 238.054C1089.57 253.058 1062.28 267.986 1034.99 282.918C1025.79 287.954 1016.53 292.943 1006.88 298.179C1008 299.238 1008.97 300.165 1010.32 301.447C1008.51 302.78 1006.4 304.341 1004.29 305.903C1004.5 306.251 1004.72 306.6 1004.93 306.949C1009.22 305.604 1014.06 304.715 1017.71 302.833C1031.77 295.589 1045.11 287.747 1059.4 280.716C1065.54 277.69 1073.33 276.102 1080.37 273.86C1080.81 274.308 1081.25 274.757 1081.7 275.205C1068.73 282.277 1055.77 289.35 1042.8 296.422C1043.25 296.842 1043.69 297.262 1044.14 297.682C1057 291.701 1069.87 285.721 1082.73 279.74C1083.31 280.1 1083.9 280.461 1084.48 280.821C1077.87 285.618 1071.27 290.414 1064.57 295.285C1064.98 295.827 1065.68 296.757 1066.02 298.156C1065.28 298.796 1065.03 299.023 1064.62 299.536C1064.5 300.065 1064.67 300.363 1064.83 300.66C1065.22 300.408 1065.62 300.156 1066.37 299.866C1067.01 299.572 1067.29 299.316 1067.56 299.061C1078.59 293.411 1089.99 288.033 1100.48 281.978C1104.72 279.536 1109.14 281.348 1113.14 280.06C1120.48 277.7 1128 275.591 1135.46 273.402C1136.26 273.169 1137.17 273.1 1139.08 272.776C1134.88 276.615 1131.28 279.9 1127.15 283.677C1129.84 284.228 1132.06 284.497 1133.93 285.18C1134.51 285.388 1134.12 286.732 1133.63 287.933C1132.69 288.65 1132.29 288.99 1131.52 289.396C1130.96 289.752 1130.77 290.042 1130.24 290.409C1129.88 290.69 1129.88 290.894 1129.88 291.098C1130.4 291.036 1130.92 290.974 1131.74 290.865C1132.41 290.673 1132.71 290.482 1133.31 290.122C1134.26 289.619 1134.83 289.236 1135.4 288.854C1150.85 280.871 1166.29 272.881 1181.76 264.913C1184.2 263.659 1186.75 262.505 1189.85 261.783C1186.24 269.178 1176.09 272.492 1167.65 277.633C1166.22 278.276 1165.49 278.558 1164.77 278.839C1164.92 279.069 1165.07 279.299 1165.23 279.529C1166.57 279.216 1167.9 278.904 1169.24 278.592C1169.79 280.168 1171.36 281.993 1170.64 283.26C1169.67 284.977 1166.95 286.267 1164.86 288.11C1164.75 288.481 1164.8 288.475 1164.25 288.502C1163.07 289.29 1162.44 290.052 1161.8 290.813C1162.14 290.95 1162.49 291.086 1162.84 291.222C1163.56 290.725 1164.29 290.228 1165.37 289.68C1166 289.38 1166.27 289.131 1166.54 288.881C1170.12 287.237 1173.69 285.592 1177.26 283.948C1177.89 284.098 1178.52 284.249 1179.15 284.399C1178.46 286.041 1178.5 288.106 1176.95 289.255C1169.02 295.166 1160.75 300.89 1152.43 306.573C1149.54 308.549 1146.16 310.221 1144.06 312.375C1143.47 313.737 1143.52 315.556 1142.17 316.388C1133.27 321.855 1124.16 327.182 1114.93 332.408C1108.78 335.893 1102.3 339.137 1096.52 343.061C1108.04 342.681 1114.44 335.642 1124.92 333.964C1108.7 344.15 1092.47 354.336 1075.72 364.939C1074.9 365.773 1074.6 366.188 1073.89 366.657C1073.57 366.91 1073.65 367.11 1073.73 367.311C1073.91 367.273 1074.26 367.235 1074.26 367.199C1074.25 366.974 1074.17 366.75 1074.47 366.812C1075.65 366.67 1076.48 366.24 1077.32 365.81C1084.35 363.238 1091.38 360.666 1099.26 358.247C1100.36 358.499 1100.6 358.599 1100.84 358.698C1095.91 362.409 1090.97 366.12 1085.55 370.196C1089.73 373.877 1093.75 372.443 1097.77 370.312C1112.58 362.465 1127.33 354.57 1142.2 346.771C1146.81 344.354 1151.72 342.182 1156.49 339.897C1156.96 340.289 1157.43 340.681 1157.91 341.073C1146.48 348.21 1135.05 355.348 1123.24 362.812C1123.27 363.136 1123.67 363.133 1124.07 363.13C1123.56 362.954 1123.04 362.778 1122.53 362.602C1124.72 362.785 1126.91 362.967 1129.14 363.153C1116.46 371.153 1103.79 379.147 1090.68 387.567C1090.24 388.246 1090.26 388.5 1090.28 388.755C1090.83 388.654 1091.38 388.553 1091.92 388.453C1099.32 385.307 1106.72 382.161 1114.12 379.015C1114.6 379.408 1115.07 379.801 1115.54 380.195C1113.11 381.926 1110.68 383.657 1107.77 385.765C1107.27 386.376 1107.24 386.61 1107.22 386.844C1107.77 386.754 1108.32 386.664 1108.88 386.574C1111.52 385.752 1114.16 384.931 1117.65 384.268C1118.78 384.549 1119.05 384.671 1119.32 384.792C1093.93 398.569 1068.55 412.35 1043.17 426.121C1036.85 429.549 1030.49 432.949 1024.16 436.362C1024.55 436.76 1024.95 437.159 1025.34 437.558C1033.1 434.415 1041.23 431.606 1048.5 428.04C1056.58 424.076 1063.88 419.421 1071.8 414.907C1072.91 415.779 1073.85 416.52 1074.48 417.018C1082.1 415.046 1089.96 413.628 1096.81 411.058C1103.24 408.648 1108.67 405.064 1114.44 401.913C1117.87 400.038 1120.69 397.508 1124.51 396.157C1130.25 394.13 1136.62 392.879 1142.73 391.299C1143.02 391.624 1143.31 391.95 1143.59 392.275C1138.19 395.615 1132.78 398.954 1127.61 402.149C1135.25 406.194 1140.72 402.982 1146.56 399.796C1161.94 391.409 1177.52 383.19 1193.58 374.607C1194.53 375.978 1195.34 377.133 1196.43 378.695C1206.2 373.82 1215.86 369 1225.52 364.18C1225.85 364.445 1226.19 364.71 1226.53 364.976C1223.93 366.483 1221.33 367.991 1218.22 369.796C1220.12 370.753 1221.07 371.234 1222.74 372.073C1196.39 386.585 1170.18 401.018 1143.97 415.452C1144.53 415.953 1145.09 416.455 1145.65 416.956C1148.08 415.865 1150.71 414.916 1152.93 413.659C1163.53 407.654 1175.08 402.893 1188.44 399.793C1193.72 398.569 1197.93 395.396 1202.69 393.166C1205.4 391.896 1208.23 390.738 1212.56 388.854C1211.73 391.833 1211.29 393.407 1210.52 396.171C1218.23 392.182 1224.87 388.744 1232.57 385.239C1234.45 385.217 1235.27 385.262 1236.09 385.307C1231.62 387.852 1227.15 390.397 1221.43 393.658C1226.03 393.358 1228.92 393.17 1233.54 392.87C1230.49 394.702 1228.48 395.905 1225.72 397.543C1224.71 398.413 1224.44 398.849 1224.17 399.285C1225.2 398.981 1226.23 398.676 1227.26 398.372C1237.26 394.266 1247.27 390.159 1257.28 386.053C1257.66 386.357 1258.04 386.662 1258.42 386.967C1254.39 391.039 1248.19 393.495 1241.9 396.106C1236.06 398.534 1227.84 399.487 1225.21 406.308C1230.55 403.902 1234.3 402.215 1238.74 400.641C1239.63 400.89 1239.82 401.026 1240 401.161C1233.49 405.354 1226.97 409.546 1219.78 414.186C1219.08 415.151 1219.06 415.669 1219.03 416.187C1219.93 415.845 1220.83 415.503 1221.73 415.161C1240.2 407.028 1258.68 398.894 1277.16 390.763C1278.51 390.172 1279.87 389.599 1281.95 388.703C1281.83 395.066 1275.8 398.323 1270.01 402.123C1273.38 401.524 1276.76 400.925 1280.13 400.326C1280.36 400.562 1280.58 400.799 1280.81 401.036C1266.02 408.4 1251.22 415.764 1235.68 423.506C1233.68 424.438 1232.43 424.991 1231.18 425.544C1231.43 425.819 1231.67 426.093 1231.92 426.367C1233.66 425.693 1235.39 425.02 1237.13 424.347C1249.79 420.769 1262.44 417.192 1276.49 413.22C1269.64 421.065 1258.84 425.525 1249.49 431.616C1246.39 432.982 1243.97 433.95 1241.83 435.137C1207.7 454.043 1173.59 472.974 1139.51 491.921C1138.35 492.57 1137.48 493.451 1136.47 494.224C1137.05 494.616 1137.63 495.009 1138.21 495.401C1140.92 493.95 1143.65 492.525 1146.32 491.044C1180.78 471.91 1215.22 452.768 1249.67 433.627C1252.7 436.107 1249.34 437.179 1247.14 438.442C1219.67 454.245 1192.17 470.033 1164.68 485.823C1159.77 488.642 1154.84 491.448 1149.93 494.258C1153.21 496.738 1155.84 495.506 1159.07 493.692C1171.75 486.579 1184.28 479.302 1197.66 472.792C1205.12 469.162 1214.12 466.887 1222.5 464.098C1223.6 463.732 1225.15 463.942 1227.44 464.827C1213.37 472.62 1199.3 480.414 1185.22 488.207C1185.88 488.868 1186.54 489.528 1187.2 490.188C1191.27 488.894 1195.72 487.94 1199.37 486.248C1216.82 478.158 1234.06 469.867 1251.38 461.652C1252.89 460.936 1254.44 460.256 1255.97 459.56C1256.42 459.817 1256.86 460.075 1257.31 460.333C1250.62 465.188 1243.94 470.043 1236.99 475.087C1237.21 475.65 1237.64 476.737 1237.47 478.378C1237.02 479.274 1237.18 479.617 1237.35 479.959C1237.76 479.685 1238.18 479.412 1238.59 479.138C1249.57 473.623 1259.85 467.31 1271.74 462.838C1281.73 459.079 1293.59 457.463 1305.52 454.691C1301.81 458.146 1298.61 461.116 1295.09 464.395C1297.95 465.163 1300.19 465.765 1302.56 466.4C1302.03 467.136 1301.53 467.822 1301.03 468.509C1301.46 468.82 1301.89 469.132 1302.31 469.444C1318.91 460.95 1335.52 452.456 1352.12 443.962C1352.61 444.328 1353.1 444.693 1353.59 445.059C1348.6 451.642 1338.14 454.826 1330.21 460.174C1332.24 460.276 1333.89 460.358 1337.97 460.563C1334.86 463.535 1332.56 465.734 1329.7 468.28C1328.87 468.877 1328.59 469.125 1327.96 469.488C1327.55 469.927 1327.5 470.25 1327.06 470.806C1322.94 472.723 1319.01 474.247 1315.53 476.127C1308.69 479.814 1302.11 483.7 1295.42 487.504C1295.97 487.916 1296.52 488.327 1297.07 488.739C1307.66 482.689 1318.25 476.639 1328.99 470.569C1329.15 470.55 1329.32 470.375 1329.63 470.338C1330.27 470.135 1330.49 469.915 1330.6 469.644C1334.18 467.997 1337.76 466.349 1341.34 464.701C1341.89 464.842 1342.44 464.983 1342.98 465.124C1342.47 466.529 1342.65 468.365 1341.34 469.269C1331.61 475.979 1321.4 482.395 1311.77 489.167C1309.45 490.802 1309.52 493.949 1307.12 495.491C1299.93 500.128 1292.15 504.377 1284.45 508.659C1278.09 512.195 1271.52 515.563 1265.04 519.005C1265.56 519.503 1266.07 520.001 1266.59 520.499C1275.21 516.983 1283.82 513.468 1292.44 509.952C1292.54 510.13 1292.63 510.308 1292.73 510.486C1277.38 520.113 1262.02 529.74 1246.14 539.791C1246.22 540.398 1246.83 540.583 1247.43 540.767C1254.8 537.748 1262.17 534.729 1269.54 531.71C1270.03 532.148 1270.52 532.585 1271.01 533.023C1266.12 536.626 1261.23 540.229 1256.26 543.896C1260.77 547.775 1264.58 545.418 1267.85 543.75C1280.11 537.505 1292.13 531.064 1304.3 524.749C1310.05 521.762 1315.95 518.895 1321.78 515.973C1322.29 516.377 1322.81 516.782 1323.32 517.186C1312.74 523.725 1302.15 530.264 1290.66 537.365C1293.03 537.28 1294.09 537.242 1295.67 537.292C1296.19 537.379 1296.17 537.358 1296.17 537.358C1294.46 538.665 1292.93 540.089 1291.02 541.257C1281.44 547.139 1271.77 552.953 1261.61 559.249C1261.72 559.881 1262.35 560.054 1262.98 560.227C1269.52 557.459 1276.06 554.692 1282.61 551.924C1283.06 552.251 1283.5 552.577 1283.95 552.903C1281.51 554.758 1279.07 556.614 1275.2 559.562C1279.68 558.269 1282.32 557.507 1285.77 556.899C1286.78 557.182 1286.99 557.312 1287.2 557.442C1260.72 571.658 1234.25 585.874 1207.03 600.413C1200.7 603.82 1195.13 606.904 1189.55 609.987C1190.18 610.44 1190.82 610.893 1191.45 611.346C1197.24 608.071 1203.03 604.796 1208.82 601.521C1210.47 601.034 1212.12 600.546 1213.77 600.058C1214.1 600.279 1214.44 600.499 1214.77 600.72C1209.53 604.465 1204.29 608.211 1199.05 611.956C1199.27 612.26 1199.49 612.564 1199.71 612.868C1201.94 612.081 1204.38 611.468 1206.38 610.478C1219.72 603.889 1232.02 596.102 1246.47 590.865C1263.9 584.548 1276.84 574.91 1292.71 567.592C1296.94 565.639 1302.54 564.956 1308.13 564.452C1303.85 567.283 1299.56 570.113 1295.39 572.872C1301.48 576.433 1306.07 574.705 1311.2 571.909C1325.86 563.922 1340.87 556.219 1356.34 548.094C1357.25 549.176 1358.07 550.146 1359.21 551.497C1368.14 547.049 1377.02 542.623 1385.91 538.196C1386.34 538.469 1386.77 538.742 1387.2 539.015C1384.92 540.631 1382.64 542.246 1379.97 544.138C1380.86 544.527 1381.83 544.946 1383.6 545.715C1361.68 557.51 1339.99 569.181 1318.3 580.853C1318.73 581.301 1319.17 581.749 1319.61 582.197C1337.45 575.563 1355.3 568.93 1374.31 561.865C1373.2 564.001 1372.46 565.437 1370.95 568.36C1380.06 563.667 1387.65 559.762 1396.12 555.993C1397.31 556.261 1397.62 556.393 1397.92 556.525C1393.23 559.213 1388.53 561.9 1382.78 565.19C1386.68 565.036 1389.26 564.933 1392.69 564.798C1391.72 565.706 1391.07 566.316 1389.65 567.283C1388.14 567.899 1387.41 568.158 1386.67 568.416C1386.83 568.656 1386.98 568.897 1387.14 569.137C1388.47 568.815 1389.8 568.493 1391.13 568.171C1399.25 564.925 1407.37 561.679 1415.49 558.433C1409.67 567.041 1393.3 567.815 1385.87 575.128C1386.31 575.498 1386.75 575.868 1387.19 576.237C1390.29 574.919 1393.39 573.601 1396.48 572.283C1396.87 572.544 1397.27 572.805 1397.66 573.066C1391.53 577.157 1385.4 581.248 1379.27 585.339C1379.67 585.685 1380.08 586.032 1380.48 586.379C1399.66 577.942 1418.83 569.505 1438 561.069C1438.67 561.455 1439.33 561.842 1440 562.229C1436.33 565.38 1432.66 568.53 1428.29 572.059C1427.24 572.744 1426.88 573.05 1426.52 573.357C1427.46 573.188 1428.4 573.019 1429.34 572.85C1430.59 572.65 1431.84 572.45 1433.82 572.382C1434.73 572.643 1434.92 572.772 1435.1 572.901C1410.63 585.003 1386.16 597.104 1361.69 609.207C1359.82 610.131 1357.96 611.068 1355.32 612.284C1343.48 618.08 1332.44 623.59 1320.91 629.19C1318.86 629.864 1317.29 630.449 1315.73 631.033C1316.42 631.471 1317.1 631.909 1317.79 632.347C1319.35 631.563 1320.9 630.778 1322.88 629.841C1334.15 624.551 1344.99 619.415 1355.82 614.278C1380.78 603.624 1405.75 592.971 1430.71 582.318C1431.47 582.827 1432.24 583.336 1433 583.844C1430.99 585.618 1429.41 587.729 1426.9 589.112C1401.67 603.019 1376.27 616.801 1350.93 630.629C1335.03 639.304 1319.16 647.999 1302.9 656.889C1304.59 658.142 1305.92 659.135 1307.49 660.299C1305.31 661.863 1303.12 663.426 1300.24 665.388C1298.64 666.469 1297.75 667.152 1296.85 667.836C1297.47 668.241 1298.08 668.646 1298.7 669.052C1299.31 668.25 1299.91 667.449 1300.51 666.647C1306.46 664.584 1313.01 663.03 1318.25 660.361C1333.65 652.506 1348.16 643.886 1363.79 636.239C1370.24 633.08 1378.64 631.638 1386.16 629.415C1386.63 629.902 1387.11 630.389 1387.58 630.876C1373.03 638.836 1358.47 646.797 1343.92 654.757C1344.12 655.036 1344.33 655.315 1344.54 655.594C1351.32 653.994 1358.09 652.394 1364.86 650.794C1365.29 651.162 1365.73 651.53 1366.16 651.898C1341.61 664.92 1317.06 677.942 1292.51 690.964C1292.99 691.367 1293.47 691.77 1293.94 692.173C1301.33 689.121 1308.71 686.068 1316.89 683.132C1317.91 683.357 1318.13 683.466 1318.35 683.574C1316.57 685.819 1314.79 688.065 1312.24 691.275C1314.92 690.377 1316.02 689.895 1317.23 689.62C1322.1 688.509 1325.69 684.624 1332.52 687.497C1334.7 688.41 1339.54 686.578 1344.12 685.852C1343.24 688.113 1342.49 690.064 1341.61 692.355C1344.37 691.953 1346.96 691.575 1350.2 691.104C1349.74 692.333 1349.4 693.233 1349.02 694.245C1349.86 694.245 1350.68 694.416 1351.08 694.219C1354.64 692.47 1357.98 690.503 1361.71 688.921C1363.75 688.051 1366.4 687.795 1369.1 687.618C1369.42 687.975 1369.57 688.004 1369.57 688.004C1367.3 689.326 1363.16 689.851 1366.5 693.078C1367.53 694.078 1365.02 696.656 1363.93 698.941C1366.1 698.655 1367.78 698.435 1369.99 698.146C1369.75 709.763 1357.34 715.961 1345.25 722.296C1345.72 722.734 1346.2 723.173 1346.67 723.611C1351.46 721.703 1356.25 719.796 1361.73 718.024C1362.6 718.305 1362.78 718.45 1362.96 718.596C1353.52 724.21 1344.07 729.825 1334.29 735.642C1340.52 737.414 1344.33 734.807 1349.37 733.269C1350.48 733.519 1350.74 733.645 1351 733.771C1349.25 734.781 1347.5 735.79 1344.69 737.413C1347.53 737.646 1349.05 737.771 1351.26 737.953C1345.68 742.488 1340.21 746.77 1335.08 751.22C1334.01 752.146 1334.2 753.697 1334.35 754.987C1330.82 760.152 1318.65 761.174 1318.88 769.282C1313.88 772.413 1309.18 774.936 1304.48 777.459C1305 777.892 1305.52 778.326 1306.05 778.76C1311.64 775.758 1321.07 776.291 1323.06 769.961C1326.87 771.661 1329.26 770.126 1331.14 768.234C1331.91 767.455 1331.75 766.277 1331.89 765.755C1336.32 764.144 1340.83 762.501 1346.4 760.477C1339.18 769.623 1328.57 775.92 1316.94 782C1324.4 785.333 1319.81 788.15 1315.37 789.609C1311.08 791.022 1309.12 793.003 1307.22 795.517C1306.35 796.66 1304.54 797.496 1301.34 798.142C1301.52 795.764 1301.7 793.386 1301.88 791.009C1301.23 790.874 1300.58 790.739 1299.93 790.603C1299.04 792.641 1298.14 794.676 1297.28 796.717C1297.22 796.844 1297.44 797.009 1297.46 797.159C1297.89 800.609 1290.01 810.396 1283.09 813.222C1285.46 807.68 1287.06 803.291 1291.42 799.478C1284.17 799.197 1281.03 801.302 1281.16 806.16C1281.2 807.528 1280.66 808.903 1280.39 810.275C1279.77 810.269 1279.15 810.263 1278.53 810.256C1277.24 809.016 1275.95 807.776 1274.35 806.232C1272.4 807.443 1270.62 808.544 1270.3 808.742C1270.72 811.754 1272.31 814.61 1270.96 815.468C1269.05 816.679 1264.96 816.412 1260.45 816.934C1260.47 816.851 1260.66 818.229 1259.94 819.358C1258.57 821.518 1257.3 823.939 1254.9 825.54C1247.18 830.669 1239.08 835.559 1230.84 840.32C1229.39 841.156 1225.18 841.624 1224.52 841.077C1220.23 837.532 1216.81 839.634 1212.65 841.574C1214.13 843.36 1215.63 845.166 1217.02 846.843C1203.43 854.958 1190.06 862.943 1176.48 871.054C1174.53 869.322 1173.21 868.15 1171.96 867.043C1149.45 879.931 1128.29 893.524 1104.13 904.693C1103.68 904.353 1103.24 904.013 1102.8 903.673C1106.43 901.148 1110.06 898.624 1113.69 896.099C1113.51 895.876 1113.33 895.653 1113.15 895.43C1111.17 896.188 1108.99 896.789 1107.22 897.726C1080.36 911.983 1053.15 925.967 1026.85 940.656C994.415 958.765 962.85 977.542 930.646 995.829C926.423 998.227 922.396 1001.94 915.003 1000.55C914.177 1000.39 912.663 1001.91 911.412 1002.61C901.214 1008.3 891.002 1013.98 880.156 1019.55C879.518 1019.44 879.125 1019.06 879.125 1019.06C880.852 1017.18 882.578 1015.31 884.77 1012.92C888.328 1010.51 891.422 1008.6 894.811 1006.56C895.56 1006.09 896.014 1005.74 896.894 1005.3C898.855 1004.07 900.39 1002.93 901.925 1001.78C901.632 1001.6 901.339 1001.42 901.046 1001.24C899.135 1002.37 897.223 1003.5 894.99 1004.76C894.16 1005.26 893.65 1005.61 892.693 1006.07C888.857 1008.33 885.47 1010.48 882.082 1012.63C878.694 1014.25 875.383 1015.94 871.86 1017.41C871.082 1017.74 869.553 1017.29 868.656 1016.75C868.366 1016.11 867.789 1015.93 867.212 1015.74C856.327 1020.19 845.443 1024.65 834.238 1029.23C834.116 1028.53 833.743 1027.98 834.015 1027.72C848.518 1013.87 864.735 1000.95 882.965 989.119C886.897 986.567 892.316 985.136 894.476 981.056C895.529 979.065 900.713 978.017 904.991 976.114C904.549 975.342 903.578 973.644 902.725 972.153C894.599 975.756 886.855 979.19 879.111 982.624C878.75 982.289 878.388 981.955 878.026 981.62C888.244 974.253 898.463 966.885 909.324 959.134C914.069 956.114 918.171 953.478 922.557 950.781C923.201 950.595 923.493 950.42 924.069 950.04C924.943 949.472 925.466 949.061 926.356 948.592C926.926 948.249 927.128 947.965 927.71 947.603C928.124 947.299 928.156 947.072 928.189 946.845C927.649 946.94 927.108 947.034 926.268 947.233C925.597 947.523 925.321 947.757 924.783 948.155C923.891 948.634 923.357 948.997 922.464 949.409C921.836 949.71 921.567 949.963 920.835 950.3C916.001 952.84 911.63 955.296 907.259 957.752C898.202 961.973 889.144 966.194 880.086 970.415C879.634 970.116 879.181 969.818 878.729 969.519C880.816 967.838 883.143 966.259 884.931 964.45C887.175 962.179 888.972 959.718 890.978 957.345C891.192 957.092 891.534 956.667 891.784 956.677C901.37 957.062 900.484 950.027 906.38 947.815C908.391 947.061 910.544 946.401 912.286 945.431C913.566 944.719 914.283 943.571 915.251 942.617C914.541 942.154 913.832 941.691 913.122 941.228C896.959 950.148 880.749 959.033 864.646 967.999C845.261 978.792 826.008 989.686 806.594 1000.46C803.516 1002.16 799.893 1003.45 796.521 1004.93C796.12 1004.58 795.718 1004.23 795.316 1003.88C799.372 1001.39 803.428 998.892 807.484 996.396C807.007 995.945 806.529 995.494 806.052 995.043C800.847 997.219 795.642 999.396 790.437 1001.57C790.079 1001.35 789.721 1001.13 789.363 1000.91C791.085 999.705 792.693 998.419 794.545 997.307C840.91 969.47 887.206 941.583 933.723 913.855C959.864 898.273 986.399 882.977 1012.68 867.496C1014.89 866.192 1016.52 864.459 1018.43 862.926C1017.81 862.558 1017.2 862.19 1016.58 861.822C1012.85 863.987 1009.1 866.142 1005.38 868.32C929.339 912.871 853.331 957.449 777.15 1001.9C773.676 1003.92 768.606 1004.76 764.335 1006.21C761.649 1007.13 759.049 1008.16 756.44 1009.17C753.95 1010.13 751.498 1011.14 747.948 1011.31C750.665 1008.92 753.383 1006.53 756.745 1003.75C761.223 1000.78 764.981 998.164 768.903 995.655C776.89 990.545 784.967 985.496 793.139 980.356C793.271 980.29 793.678 979.946 794.052 979.78C794.823 979.006 795.22 978.399 795.616 977.792C795.343 977.693 795.069 977.594 794.796 977.495C794.119 978.013 793.442 978.532 792.413 979.108C791.809 979.426 791.557 979.687 790.863 980.063C785.969 982.862 781.507 985.541 777.065 988.235C769.26 992.967 761.467 997.709 753.669 1002.45C751.588 1003.55 749.508 1004.65 747.427 1005.74C747.002 1005.43 746.577 1005.11 746.151 1004.79C748.389 1002.85 750.626 1000.9 753.355 998.496C754.135 997.463 754.425 996.89 754.715 996.317C754.381 996.177 754.047 996.037 753.713 995.897C753.07 996.47 752.426 997.043 751.783 997.616C736.66 1005.52 721.592 1013.47 706.353 1021.28C704.195 1022.39 701.209 1022.8 698.851 1023.16C699.414 1022.57 699.731 1022.35 700.403 1022.06C700.986 1021.72 701.212 1021.45 701.837 1021.08C701.633 1020.78 701.032 1020.58 700.152 1020.49C699.56 1020.8 699.274 1021.02 698.724 1021.34C698.131 1021.63 697.864 1021.86 697.63 1022.09C679.93 1031.66 662.231 1041.23 643.696 1050.65C642.604 1050.36 642.349 1050.22 642.094 1050.08C657.557 1040.03 673.021 1029.99 688.485 1019.94C688.019 1019.53 687.552 1019.11 687.086 1018.7C682.402 1020.49 677.443 1022.03 673.086 1024.12C659.604 1030.57 646.383 1037.25 632.947 1043.74C631.938 1044.23 630.036 1043.92 629.291 1043.55C637.341 1038.59 644.649 1034.07 652.391 1029.45C653.249 1028.78 653.674 1028.22 654.098 1027.66C653.02 1027.97 651.942 1028.28 650.451 1028.76C642.04 1033.37 634.042 1037.82 626.043 1042.26C615.5 1047.65 604.957 1053.04 594.014 1058.24C593.614 1058.06 593.697 1058.1 593.697 1058.1C596.684 1054.74 599.561 1051.33 602.694 1048.02C605.098 1045.48 609.588 1044.13 609.023 1039.98C608.723 1037.77 614.062 1035.24 616.855 1032.85C616.296 1032.43 615.737 1032.01 615.178 1031.59C604.794 1036.9 594.41 1042.22 584.026 1047.54C583.665 1047.34 583.303 1047.13 582.942 1046.92C583.784 1045.6 584.627 1044.28 585.667 1042.61C585.75 1042.14 585.635 1042.02 585.519 1041.9C585.405 1041.97 585.29 1042.04 585.176 1042.1C585.629 1042.26 586.082 1042.41 586.535 1042.56C583.968 1043.25 581.188 1043.71 578.883 1044.67C575.147 1046.22 571.723 1048.09 567.394 1049.73C566.399 1049.52 566.177 1049.41 565.955 1049.29C569.242 1045.13 572.53 1040.98 575.981 1036.61C549.579 1041.76 534.24 1057.99 509.58 1065C519.14 1059.28 528.701 1053.56 538.649 1047.61C537.399 1047.12 536.395 1046.72 534.594 1046.01C545.683 1038.62 556.628 1031.33 568.888 1023.15C560.913 1026.23 554.536 1028.69 548.16 1031.15C547.797 1030.82 547.433 1030.49 547.07 1030.16C549.043 1028.55 551.016 1026.94 554.047 1024.47C550.856 1025.18 549.081 1025.57 546.564 1025.86C545.646 1025.64 545.47 1025.51 545.294 1025.39C569.611 1012.3 593.918 999.209 618.25 986.134C632.063 978.712 645.918 971.324 660.377 963.549C663.929 961.63 666.858 960.082 669.786 958.534C669.142 958.115 668.498 957.695 667.854 957.276C665.287 959.077 662.72 960.879 660.152 962.68C658.725 962.341 657.297 962.002 655.017 961.46C660.342 958.652 664.962 956.216 670.282 953.436C690.55 942.374 710.117 931.655 730.118 920.846C730.984 920.203 731.416 919.65 731.848 919.097C730.769 919.389 729.689 919.68 728.187 920.133C707.624 930.665 687.484 941.036 667.344 951.407C642.421 964.146 617.498 976.885 592.569 989.618C591.836 989.993 591.029 990.306 589.847 990.49C589.438 990.332 589.53 990.381 589.484 990.005C589.081 989.345 588.725 989.061 588.369 988.778C588.248 989.321 588.127 989.864 588.034 990.37C588.062 990.334 588.105 990.258 588.105 990.258C583.978 991.969 579.507 993.408 575.786 995.44C563.397 1002.2 551.418 1009.29 538.963 1016C535.61 1017.81 530.905 1019.99 527.789 1015.12C529.956 1013.77 532.123 1012.41 534.354 1011.01C532.123 1007.11 527.879 1007.79 524.21 1009.32C519.476 1011.28 515.206 1013.74 510.828 1016.06C498.954 1022.36 487.128 1028.7 474.674 1035.34C473.95 1034.02 473.402 1033.03 472.582 1031.53C463.594 1035.95 454.754 1040.29 445.914 1044.64C445.491 1044.33 445.068 1044.02 444.645 1043.72C446.416 1042.48 448.187 1041.25 450.256 1039.81C449.076 1039.35 447.969 1038.91 446.114 1038.18C468.41 1025.94 490.484 1013.82 513.227 1001.31C515.718 999.786 517.539 998.655 519.361 997.524C518.93 997.236 518.498 996.948 518.067 996.66C515.83 997.877 513.594 999.095 511.357 1000.31C500.004 1004.43 488.548 1008.43 477.342 1012.72C471.546 1014.93 466.195 1017.65 459.904 1020.01C459.166 1019.89 458.669 1019.6 458.669 1019.6C459.541 1018.35 460.413 1017.09 461.285 1015.84C461.011 1015.6 460.737 1015.37 460.463 1015.13C447.527 1021.65 434.59 1028.17 421.654 1034.69C421.165 1034.26 420.676 1033.82 420.188 1033.39C429.149 1028.54 438.11 1023.69 448.064 1018.3C444.694 1018.3 442.555 1018.3 440.417 1018.3C440.551 1017.64 440.684 1016.99 441.43 1015.99C442.042 1015.64 442.415 1015.33 442.882 1015.26C447.171 1013.3 450.993 1011.41 455.179 1009.4C456.631 1008.72 457.719 1008.17 459.212 1007.47C460.462 1006.73 461.307 1006.13 462.152 1005.53C461.859 1005.37 461.567 1005.21 461.274 1005.05C460.103 1005.66 458.931 1006.27 457.327 1006.94C455.766 1007.57 454.636 1008.15 453.036 1008.81C448.74 1010.75 444.914 1012.62 440.859 1014.51C440.629 1014.54 440.336 1014.78 440.336 1014.78C432.256 1018.03 424.175 1021.29 416.094 1024.55C415.525 1023.97 414.956 1023.39 414.387 1022.82C424.012 1018.48 433.638 1014.15 443.263 1009.81C442.982 1009.46 442.702 1009.12 442.421 1008.77C439.923 1009.2 437.424 1009.62 434.925 1010.04C434.385 1009.63 433.845 1009.21 433.304 1008.8C439.406 1005.69 445.507 1002.59 451.608 999.48C450.739 998.828 449.869 998.176 449 997.524C430.634 1005.69 412.269 1013.85 393.249 1022.31C392.213 1015.6 400.836 1013.92 406.508 1009.52C401.607 1010.42 398.117 1011.06 394.626 1011.7C394.432 1011.47 394.239 1011.25 394.045 1011.02C423.356 996.68 452.668 982.338 482.668 967.652C485.27 966.32 487.183 965.332 489.573 964.286C499.721 959.382 509.392 954.534 519.415 949.631C520.048 949.334 520.329 949.091 521.04 948.784C521.854 948.437 522.239 948.157 523.074 947.834C527.699 945.648 531.872 943.505 536.505 941.25C537.565 940.582 538.166 940.025 538.767 939.469C538.536 939.341 538.306 939.213 538.075 939.085C537.028 939.568 535.981 940.052 534.538 940.711C529.887 943.057 525.633 945.228 521.017 947.459C520.305 947.737 519.955 947.955 519.325 948.226C518.692 948.396 518.397 948.559 517.721 948.92C507.383 953.845 497.484 958.618 487.155 963.471C484.894 964.507 483.063 965.463 481.232 966.418C455.959 977.101 430.694 987.791 405.4 998.451C403.628 999.197 401.642 999.724 399.755 1000.35C399.198 999.938 398.64 999.523 398.083 999.107C400.683 997.197 402.97 995.042 405.929 993.413C448.126 970.19 490.416 947.04 532.672 923.863C534.809 922.691 536.84 921.434 539.781 919.714C537.502 919.63 536.299 919.586 533.756 919.492C539.122 915.101 544.046 911.071 548.969 907.042C513.237 922.053 482.582 941.896 444.525 956.166C444.259 954.068 444.1 952.815 443.893 951.18C441.857 951.996 440.121 952.691 437.675 953.365C436.785 953.22 436.605 953.095 436.425 952.97C445.076 947.387 453.715 941.796 462.385 936.226C464.39 934.938 466.501 933.722 468.736 932.368C467.374 932.113 466.374 931.926 465.774 931.814C501.113 912.019 536.529 892.182 572.597 871.948C581.827 866.436 590.404 861.321 599.402 855.996C599.57 855.42 599.317 855.054 599.064 854.689C598.595 854.981 598.125 855.274 597.205 855.667C587.596 860.98 578.439 866.192 569.282 871.404C539.22 887.92 509.122 904.41 479.105 920.962C455.343 934.066 432.145 947.635 407.792 960.245C393.701 967.541 377.711 973.24 362.792 979.868C355.226 983.229 348.141 987.056 340.144 990.598C339.261 990.379 339.071 990.234 338.882 990.089C345.635 985.88 352.55 981.776 359.083 977.424C363.14 974.723 366.618 971.646 370.923 968.298C404.602 950.288 436.397 931.737 467.655 912.756C465.653 912.762 464.301 913.279 463.12 913.929C445.11 923.842 427.069 933.732 409.146 943.712C395.221 951.467 381.449 959.34 367.609 967.16ZM1294.86 489.219C1294.74 488.865 1294.62 488.51 1294.51 488.156C1294.08 488.449 1293.66 488.742 1292.45 489.185C1292.43 489.42 1292.42 489.656 1292.4 489.891C1292.95 489.799 1293.5 489.706 1294.86 489.219ZM180.52 375.932C180.77 375.67 181.019 375.408 181.977 374.998C182.164 374.707 182.351 374.417 183.335 373.906C183.294 373.648 183.252 373.39 183.211 373.132C182.635 373.269 182.059 373.406 180.943 373.787C180.609 373.99 180.397 374.237 179.602 374.663C179.31 374.911 179.019 375.16 178.285 375.473C178.009 375.573 177.81 375.718 176.682 376.271C175.945 376.989 175.207 377.707 174.47 378.425C175.142 378.822 175.814 379.219 176.486 379.616C177.123 378.736 177.761 377.855 179.115 376.858C179.345 376.586 179.574 376.315 180.52 375.932ZM263.949 634.808C264.037 634.605 264.125 634.403 264.213 634.2C263.537 634.265 262.861 634.331 261.313 634.786C261.488 635.163 261.663 635.54 261.839 635.917C262.254 635.59 262.669 635.263 263.949 634.808ZM126.896 593.182C127.127 592.91 127.358 592.638 128.297 592.251C128.55 591.992 128.804 591.733 130.076 591.072C129.924 590.704 129.773 590.335 129.621 589.967C128.906 590.233 128.191 590.499 126.867 590.994C126.416 591.136 126.121 591.365 125.25 591.92C124.95 592.205 124.651 592.49 123.784 593.342C124.583 593.328 125.381 593.314 126.896 593.182ZM133.981 588.539C134.195 588.261 134.41 587.983 135.348 587.601C135.59 587.334 135.833 587.066 136.809 586.655C136.992 586.364 137.174 586.073 138.114 585.652C138.118 585.418 138.122 585.183 138.125 584.949C137.676 585.093 137.226 585.237 135.996 585.455C135.596 585.673 135.196 585.891 134.283 586.374C133.939 586.557 133.667 586.777 132.859 587.272C132.435 587.436 132.141 587.671 131.162 588.45C131.305 588.797 131.449 589.144 131.593 589.491C132.152 589.218 132.711 588.946 133.981 588.539ZM1000.87 148.595C1000.76 148.235 1000.66 147.874 1000.55 147.513C1000.13 147.816 999.71 148.12 998.485 148.52C998.33 148.824 998.175 149.128 997.333 149.486C997.443 149.667 997.553 149.848 997.663 150.029C997.739 149.794 997.815 149.559 998.632 149.654C999.125 149.445 999.619 149.235 1000.87 148.595ZM687.163 42.7867C687.103 42.4353 687.043 42.084 686.983 41.7327C686.471 42.0139 685.959 42.2951 684.61 42.7439C684.577 43.005 684.544 43.2661 684.511 43.5272C685.1 43.4234 685.69 43.3195 687.163 42.7867ZM1125.68 311.267C1126.2 311.078 1126.72 310.89 1128.04 310.335C1139.47 304.33 1151.36 298.663 1161.53 291.762C1160.88 291.287 1160.23 290.813 1159.58 290.338C1148.52 296.843 1137.45 303.348 1125.61 310.003C1125.47 310.311 1125.34 310.619 1124.51 311.014C1124.55 311.18 1124.59 311.345 1124.64 311.511C1124.8 311.483 1125.11 311.46 1125.11 311.425C1125.13 311.234 1125.07 311.041 1125.68 311.267ZM806.97 184.116C807.284 183.938 807.568 183.742 808.547 183.243C809.093 182.842 809.639 182.441 811.085 181.832C815.917 179.073 820.749 176.314 826.463 173.328C860.005 154.788 893.547 136.248 927.089 117.708C926.444 117.21 925.798 116.711 925.153 116.213C891.473 135.017 857.793 153.822 823.223 172.84C818.468 175.662 813.713 178.483 808.316 181.567C807.855 181.939 807.394 182.311 806.238 182.814C805.993 183.075 805.747 183.337 804.752 183.718C804.58 184.005 804.407 184.292 803.893 185.186C802.157 186.081 800.422 186.976 798.687 187.872C798.874 188.001 799.062 188.13 799.249 188.26C800.871 186.999 802.493 185.738 804.827 184.902C805.365 184.71 805.902 184.519 806.97 184.116ZM713.874 1004.02C713.513 1004.26 713.152 1004.49 712.331 1004.88C712.044 1005.02 711.845 1005.2 710.876 1005.88C710.876 1006.24 710.876 1006.59 710.876 1006.95C711.465 1006.72 712.055 1006.49 713.351 1006.14C713.596 1005.88 713.841 1005.62 714.832 1005.19C714.998 1004.9 715.164 1004.6 715.893 1004.16C715.452 1004.04 715.011 1003.92 713.874 1004.02ZM603.81 851.8C603.417 851.949 603.112 852.155 602.328 852.645C601.987 852.836 601.702 853.057 600.57 853.72C600.612 854.075 600.654 854.431 600.696 854.786C601.26 854.535 601.825 854.284 603.089 853.912C603.356 853.663 603.622 853.414 604.593 853.025C604.808 852.747 605.023 852.469 606.137 851.983C606.061 851.638 605.984 851.292 605.908 850.947C605.416 851.182 604.925 851.417 603.81 851.8ZM235.816 787.764C235.527 788.321 235.239 788.878 234.95 789.435C235.946 789.049 236.943 788.663 238.629 788.019C238.026 787.79 237.422 787.561 235.816 787.764ZM1077.75 428.706C1077.49 429.032 1077.24 429.358 1076.99 429.684C1077.69 429.544 1078.39 429.403 1079.84 429.046C1080.39 428.682 1080.94 428.318 1082.41 427.768C1086.54 425.585 1090.68 423.402 1095.62 420.856C1100.63 418.126 1105.63 415.396 1111.43 412.332C1113.68 411.072 1115.94 409.813 1118.2 408.554C1117.74 408.229 1117.27 407.904 1116.81 407.579C1114.33 409.019 1111.84 410.46 1108.43 412.081C1103.56 414.802 1098.68 417.523 1092.89 420.43C1088.7 422.708 1084.51 424.986 1079.69 427.533C1079.24 427.91 1078.8 428.287 1077.75 428.706ZM990.426 230.114C990.895 229.657 991.365 229.2 991.834 228.743C991.588 228.618 991.342 228.492 991.096 228.367C990.217 228.771 989.337 229.175 987.86 229.867C987.373 230.215 986.886 230.562 985.545 231.073C984.178 231.812 982.811 232.551 980.799 233.543C980.282 233.884 979.765 234.226 978.361 234.726C976.314 235.915 974.267 237.105 971.342 238.486C969.5 239.536 967.659 240.587 965.198 241.9C964.697 242.24 964.196 242.579 962.822 243.09C961.478 243.885 960.134 244.68 958.273 245.935C958.367 246.185 958.462 246.435 958.556 246.684C959.062 246.496 959.568 246.308 960.931 245.977C962.251 245.22 963.571 244.462 965.551 243.445C966.073 243.096 966.595 242.747 967.967 242.214C969.751 241.209 971.535 240.204 974.066 238.834C976.172 237.67 978.279 236.506 981.056 235.083C981.603 234.743 982.151 234.404 983.536 233.903C984.848 233.152 986.159 232.401 988.168 231.41C988.658 231.029 989.148 230.649 990.426 230.114ZM951.402 978.58C950.429 979.315 949.457 980.051 948.485 980.786C948.829 980.984 949.173 981.182 949.517 981.38C950.666 980.708 951.815 980.035 953.661 979.239C953.922 978.986 954.183 978.733 955.345 978.271C959.531 975.943 963.717 973.614 967.903 971.285C967.343 970.86 966.783 970.435 966.223 970.009C961.792 972.631 957.361 975.253 952.699 977.986C952.699 977.986 952.322 978.267 951.402 978.58ZM1281.85 677.572C1283.45 676.992 1285.05 676.413 1286.65 675.834C1285.96 675.399 1285.26 674.964 1284.57 674.529C1283.02 675.355 1281.47 676.18 1279.14 677.323C1278.81 677.652 1278.49 677.98 1278.16 678.309C1279.06 678.101 1279.96 677.893 1281.85 677.572ZM1285.38 578.307C1284 579.026 1282.63 579.744 1280.44 580.786C1274.78 583.905 1269.13 587.023 1262.8 590.204C1262.65 590.648 1262.5 591.093 1262.34 591.538C1263.05 591.276 1263.75 591.015 1265.3 590.469C1270.98 587.384 1276.67 584.3 1283.24 581.035C1284.23 580.099 1285.22 579.162 1286.26 577.896C1286.59 577.82 1286.93 577.743 1287.26 577.666C1286.93 577.863 1286.6 578.059 1285.38 578.307ZM285.881 729.45C284.572 730.235 283.262 731.021 281.089 732.07C277.449 734.083 273.808 736.095 270.168 738.108C270.804 738.524 271.44 738.94 272.076 739.356C275.718 737.07 279.36 734.783 283.873 732.336C285.211 731.55 286.548 730.764 288.209 729.567C288.123 729.346 288.037 729.126 287.951 728.905C287.559 729.064 287.168 729.223 285.881 729.45ZM1303.11 639.515C1304.36 638.734 1305.61 637.953 1306.86 637.172C1306.5 636.951 1306.14 636.731 1305.78 636.511C1304.21 637.319 1302.64 638.128 1300.39 639.191C1299.85 639.539 1299.3 639.886 1297.81 640.362C1293.61 642.45 1289.41 644.537 1285.21 646.625C1285.64 646.964 1286.06 647.304 1286.49 647.644C1290.88 645.395 1295.26 643.146 1300.39 640.698C1300.97 640.358 1301.55 640.018 1303.11 639.515ZM181.207 596.778C179.819 597.564 178.432 598.349 176.213 599.573C176.965 599.645 177.718 599.718 179.353 599.655C180.735 598.897 182.118 598.139 184.234 597.067C184.984 596.499 185.734 595.931 186.483 595.363C186.225 595.194 185.966 595.025 185.708 594.856C184.498 595.432 183.288 596.008 181.207 596.778ZM1311.99 635.15C1313.59 634.286 1315.18 633.423 1316.77 632.56C1316.37 632.265 1315.96 631.97 1315.56 631.675C1313.73 632.666 1311.89 633.656 1309.05 634.816C1308.38 635.411 1307.72 636.006 1307.06 636.601C1307.31 636.747 1307.56 636.893 1307.81 637.04C1308.92 636.533 1310.04 636.027 1311.99 635.15ZM314.985 798.81C313.433 799.671 311.881 800.533 310.329 801.394C310.703 801.66 311.078 801.925 311.452 802.191C313.243 801.21 315.034 800.229 317.523 799.171C317.788 798.75 318.053 798.329 318.317 797.908C317.486 798.088 316.654 798.268 314.985 798.81ZM257.348 636.649C255.559 637.777 253.771 638.904 251.982 640.032C252.504 640.358 253.026 640.685 253.548 641.011C255.652 639.724 257.755 638.437 260.677 636.7C259.901 636.622 259.126 636.543 257.348 636.649ZM793.195 138.756C795.353 137.567 797.51 136.379 799.667 135.19C799.246 134.862 798.824 134.533 798.403 134.204C796.03 135.482 793.657 136.76 790.316 138.105C789.875 138.618 789.434 139.131 788.993 139.643C790.098 139.462 791.203 139.281 793.195 138.756ZM1004.79 146.642C1007.33 145.159 1009.87 143.676 1013.34 142.019C1018.15 139.427 1022.96 136.836 1027.77 134.244C1020.35 134.936 1016.14 138.575 1010.31 141.744C1007.77 143.214 1005.22 144.684 1001.89 146.587C1002.09 146.947 1002.3 147.308 1002.5 147.668C1002.96 147.377 1003.42 147.086 1004.79 146.642ZM1293.6 669.208C1291.23 670.608 1288.86 672.007 1285.76 673.857C1286.51 673.908 1287.25 673.959 1288.87 673.808C1291.18 672.421 1293.49 671.034 1296.62 669.215C1296.38 668.847 1296.14 668.478 1295.9 668.109C1295.43 668.404 1294.96 668.698 1293.6 669.208ZM166.649 525.346C169.167 523.857 171.684 522.368 175.076 520.638C178.154 518.768 181.233 516.897 184.311 515.027C183.773 514.674 183.234 514.321 182.696 513.968C179.351 516.013 176.007 518.059 171.917 520.43C169.352 521.882 166.787 523.335 163.591 525.127C163.482 525.455 163.372 525.783 163.262 526.112C164.098 525.926 164.934 525.74 166.649 525.346ZM311.042 877.543C314.115 875.814 317.189 874.086 321.082 872.004C328.875 867.798 336.668 863.592 344.461 859.385C343.87 858.926 343.28 858.466 342.689 858.007C334.854 862.445 327.02 866.882 318.313 871.564C315.298 873.341 312.284 875.119 308.257 877.084C308.209 877.426 308.162 877.768 308.114 878.11C308.809 878.031 309.504 877.951 311.042 877.543ZM552.972 999.643C549.741 1001.36 546.51 1003.07 543.28 1004.78C543.716 1005.13 544.151 1005.47 544.587 1005.82C548.039 1003.94 551.491 1002.06 555.615 999.932C556.152 999.584 556.689 999.236 558.146 998.702C561.776 996.715 565.407 994.728 569.038 992.741C568.501 992.367 567.964 991.993 567.427 991.619C563.652 993.79 559.878 995.961 555.417 998.374C554.911 998.739 554.404 999.104 552.972 999.643ZM579.492 1035.92C583.274 1033.87 588.906 1032.91 590.273 1027.68C584.874 1030.8 580.92 1033.09 576.138 1035.87C576.367 1036.21 576.596 1036.55 576.825 1036.89C577.4 1036.63 577.975 1036.36 579.492 1035.92ZM641.954 90.9187C638.311 93.1284 634.667 95.338 631.024 97.5476C631.837 98.0902 632.65 98.6328 633.463 99.1754C636.935 96.5952 640.407 94.015 644.695 91.1227C654.005 85.7457 654.005 85.7457 652.206 83.5152C649.091 85.9204 645.977 88.3256 641.954 90.9187ZM1246.51 705.363C1250.11 703.234 1253.71 701.105 1257.31 698.976C1256.88 698.674 1256.44 698.371 1256.01 698.069C1252.01 700.328 1248 702.588 1243.23 705.2C1241.3 706.276 1239.36 707.352 1237.43 708.427C1237.89 708.782 1238.35 709.138 1238.81 709.493C1241.08 708.195 1243.35 706.898 1246.51 705.363ZM1025.02 126.17C1019.88 129.05 1014.73 131.931 1009.59 134.811C1010.09 135.2 1010.6 135.588 1011.1 135.977C1016.5 132.855 1021.91 129.734 1027.62 126.127C1027.48 125.881 1027.34 125.635 1027.2 125.39C1026.78 125.598 1026.37 125.806 1025.02 126.17ZM815.376 159.589C820.573 156.74 825.771 153.891 830.968 151.042C830.423 150.649 829.877 150.256 829.332 149.864C823.93 152.914 818.529 155.965 812.345 159.362C810.953 160.198 809.561 161.034 808.169 161.87C808.499 162.135 808.828 162.4 809.158 162.665C810.929 161.707 812.7 160.749 815.376 159.589ZM703.817 1009.43C698.299 1012.51 692.78 1015.6 687.261 1018.69C687.893 1019.14 688.524 1019.58 689.156 1020.03C694.659 1016.7 700.163 1013.36 706.526 1009.73C706.724 1009.26 706.922 1008.79 707.119 1008.32C706.283 1008.56 705.447 1008.81 703.817 1009.43ZM452.053 99.2402C457.82 95.8531 463.588 92.466 470.21 88.8149C476.121 85.2431 482.033 81.6714 488.847 77.8946C506 67.7713 523.152 57.648 541.209 47.3139C544.518 45.358 547.828 43.402 551.137 41.4461C550.591 41.1018 550.046 40.7576 549.5 40.4133C546.067 42.4452 542.634 44.477 538.411 46.8799C521.145 57.0343 503.879 67.1886 485.827 77.7268C484.575 78.0171 482.981 78.0803 482.129 78.6349C476.986 81.9794 472.013 85.4364 466.149 89.071C460.769 92.2739 455.388 95.4768 449.264 98.9652C449.015 99.2924 448.765 99.6197 448.516 99.9469C449.39 99.7703 450.264 99.5938 452.053 99.2402ZM1307.35 474.344C1314.32 470.502 1321.28 466.66 1328.24 462.818C1327.63 462.369 1327.02 461.92 1326.42 461.472C1319.45 465.584 1312.48 469.696 1304.64 474.101C1304.4 474.543 1304.16 474.985 1303.92 475.428C1304.73 475.097 1305.53 474.767 1307.35 474.344ZM651.779 73.6359C660.739 68.8911 669.699 64.1463 678.925 58.7015C678.07 58.9026 677.215 59.1037 675.461 59.407C666.97 63.9717 658.479 68.5363 649.009 73.1474C648.495 73.3606 647.982 73.5738 647.468 73.787C648.62 73.8394 649.772 73.8919 651.779 73.6359ZM865.263 129.886C853.482 136.441 841.7 142.995 829.918 149.549C830.485 149.979 831.051 150.408 831.617 150.837C843.732 143.958 855.848 137.079 868.52 129.688C867.736 129.687 866.952 129.687 865.263 129.886ZM824.001 204.721C818.041 208.179 812.08 211.636 806.23 215.03C807.249 215.107 808.53 215.205 809.86 215.306C808.281 217.128 806.841 218.791 805.4 220.454C805.968 220.726 806.536 220.998 807.104 221.27C818.578 214.651 830.053 208.031 841.528 201.412C841.081 201.027 840.634 200.641 840.188 200.256C837.793 201.304 835.501 202.477 832.975 203.364C830.709 204.159 828.186 204.64 826.56 205.001C825.999 204.79 825.438 204.58 824.001 204.721ZM1316.33 672.659C1321.57 669.201 1326.81 665.743 1332.06 662.285C1331.54 661.955 1331.02 661.626 1330.5 661.296C1316.31 669.005 1302.11 676.714 1287.92 684.424C1298.76 682.284 1307.22 677.74 1316.33 672.659ZM877.568 172.934C890.667 167.506 898.165 162.336 898.721 157.768C886.787 164.252 875.37 170.455 863.952 176.658C864.166 176.904 864.379 177.15 864.593 177.396C868.644 176.044 872.694 174.692 877.568 172.934ZM1153.57 514.782C1151.23 515.997 1148.89 517.212 1146.31 518.556C1156.53 518.503 1178.81 506.906 1182.28 499.586C1172.55 504.72 1163.44 509.527 1153.57 514.782ZM320.789 755.742C321.312 755.184 321.834 754.626 323.262 753.101C308.731 756.993 299.277 763.124 290.454 769.768C291.064 770.281 291.675 770.794 292.285 771.308C301.534 766.27 310.783 761.231 320.789 755.742ZM537.743 899.296C531.076 903.027 524.409 906.757 517.742 910.488C518.357 910.974 518.971 911.459 519.586 911.945C530.552 907.981 538.83 901.771 548.609 896.815C548.226 896.435 547.843 896.054 547.46 895.674C544.485 896.741 541.51 897.808 537.743 899.296ZM730.718 923.87C720.698 929.313 710.677 934.755 700.657 940.198C701.166 940.585 701.676 940.971 702.186 941.358C714.15 935.031 726.115 928.705 738.079 922.378C737.718 922.027 737.357 921.676 736.995 921.325C735.16 922.026 733.324 922.727 730.718 923.87ZM148.818 616.06C153.196 613.602 157.573 611.145 161.951 608.687C161.41 608.296 160.869 607.905 160.328 607.514C152.321 611.773 144.314 616.031 136.307 620.29C136.828 620.732 137.349 621.173 137.87 621.614C141.241 619.888 144.612 618.163 148.818 616.06ZM222.72 807.849C230.267 803.781 237.815 799.713 245.362 795.645C244.711 795.165 244.059 794.684 243.408 794.204C235.151 798.822 226.895 803.44 218.638 808.059C218.956 808.356 219.275 808.652 219.593 808.949C220.34 808.729 221.087 808.509 222.72 807.849ZM456.541 945.508C463.299 941.766 470.058 938.025 476.816 934.284C475.331 933.557 474.552 933.466 474.155 933.68C466.95 937.577 459.791 941.51 451.716 945.932C453.802 945.847 454.694 945.811 456.541 945.508ZM1283.9 700.575C1280.89 702.049 1277.89 703.522 1273.8 705.529C1283.71 705.652 1288.62 703.149 1290.08 697.725C1287.98 698.681 1286.35 699.424 1283.9 700.575ZM966.684 903.425C970.704 901.164 974.724 898.903 978.744 896.641C978.198 896.232 977.651 895.822 977.104 895.413C971.584 898.081 966.064 900.749 960.544 903.417C960.884 903.797 961.224 904.177 961.565 904.557C962.998 904.308 964.431 904.06 966.684 903.425ZM1158.74 282.212C1153.46 285.111 1148.19 288.011 1142.91 290.91C1143.47 291.365 1144.04 291.821 1144.6 292.276C1150.32 288.963 1156.05 285.651 1161.77 282.338C1161.02 282.146 1160.27 281.954 1158.74 282.212ZM1320.42 747.681C1322.19 746.994 1323.96 746.307 1325.72 745.62C1316.56 744.202 1315.33 744.83 1314.01 750.064C1316.04 749.379 1317.85 748.768 1320.42 747.681ZM165.687 604.858C164.034 605.201 162.381 605.543 160.727 605.885C161.805 606.613 162.882 607.34 163.96 608.068C168.092 605.802 172.224 603.536 176.356 601.269C175.925 600.913 175.494 600.557 175.063 600.201C172.207 601.622 169.352 603.044 165.687 604.858ZM871.351 128.411C873.725 126.982 876.1 125.553 878.474 124.123C878.074 123.841 877.674 123.558 877.275 123.276C874.635 124.717 871.975 126.143 869.422 127.647C869.301 127.719 870.131 128.487 871.351 128.411ZM775.81 225.399C773.404 226.566 770.997 227.734 768.59 228.901C769.107 229.306 769.625 229.711 770.142 230.115C772.331 228.691 774.519 227.267 775.81 225.399ZM782.362 223.503C783.285 222.704 784.207 221.905 785.129 221.107C784.723 220.907 784.317 220.708 783.911 220.509C781.827 222.21 779.742 223.912 777.084 226.082C779.007 225.132 780.221 224.532 782.362 223.503ZM270.615 739.102C268.765 739.746 266.914 740.39 265.064 741.034C265.499 741.378 265.933 741.723 266.367 742.067C267.735 741.306 269.102 740.546 270.615 739.102ZM801.584 132.386C800.891 133 800.198 133.614 799.505 134.228C799.86 134.434 800.216 134.639 800.571 134.844C802.592 133.713 804.614 132.582 806.636 131.451C806.294 131.157 805.952 130.862 805.61 130.568C804.554 131.01 803.499 131.451 801.584 132.386ZM670.45 958.024C671.887 957.222 673.325 956.42 674.762 955.618C674.322 955.33 673.882 955.041 673.442 954.753C672.121 955.689 670.799 956.626 670.45 958.024ZM215.385 812.059C216.394 811.279 217.403 810.498 218.412 809.718C217.862 809.477 217.312 809.236 216.762 808.995C215.926 810.075 215.09 811.156 215.385 812.059ZM774.946 108.164C776.495 107.974 778.044 107.784 779.593 107.593C779.346 107.182 779.099 106.771 778.851 106.36C777.779 106.757 776.707 107.154 774.946 108.164ZM540.199 938.083C540.353 938.482 540.508 938.882 540.662 939.281C541.448 938.815 542.233 938.349 543.019 937.883C542.37 937.764 541.722 937.644 540.199 938.083ZM152.38 595.816C152.139 595.874 151.899 595.933 151.658 595.991C151.838 595.89 152.019 595.788 152.38 595.816ZM1348.18 693.916C1347.2 694.564 1346.21 695.212 1345.22 695.861C1345.64 696.108 1346.06 696.356 1346.49 696.604C1347.4 695.925 1348.32 695.246 1348.18 693.916ZM536.968 1008.82C537.132 1008.85 537.297 1008.87 537.461 1008.9C537.349 1008.84 537.237 1008.79 536.968 1008.82ZM539.879 1006.45C540.04 1006.49 540.201 1006.54 540.362 1006.58C540.251 1006.62 540.126 1006.71 540.034 1006.69C539.87 1006.67 539.727 1006.59 539.879 1006.45ZM446.694 915.241C446.213 915.488 445.732 915.735 445.251 915.982C445.93 915.909 446.61 915.836 446.694 915.241ZM1121.08 406.83C1120.82 406.826 1120.95 406.828 1121.08 406.83V406.83ZM549.525 906.442C550.209 906.488 550.893 906.533 551.577 906.579C551.096 906.336 550.616 906.094 549.525 906.442ZM708.925 1007.06C708.88 1007.33 708.835 1007.61 708.79 1007.89C709.064 1007.76 709.338 1007.64 708.925 1007.06ZM676.896 954.616C676.606 954.544 676.316 954.472 676.026 954.4C676.108 954.587 676.191 954.773 676.896 954.616ZM718.004 33.8018C717.699 33.7303 717.395 33.6589 717.091 33.5874C717.181 33.7772 717.271 33.9669 718.004 33.8018ZM1002.28 132.251C1002.61 132.33 1002.94 132.408 1003.26 132.486C1003.16 132.269 1003.06 132.052 1002.28 132.251ZM1009.25 135.983C1008.91 135.914 1008.58 135.845 1008.24 135.775C1008.36 135.988 1008.47 136.201 1009.25 135.983Z" fill="#D17D54"/>
</svg>
