<svg width="1728" height="1440" viewBox="0 0 1728 1440" fill="none" xmlns="http://www.w3.org/2000/svg">
<path d="M1569.25 1072.39C1574.5 1078.31 1579.74 1084.23 1584.99 1090.15C1584.19 1090.8 1583.4 1091.45 1582.61 1092.1C1566.52 1075.93 1550.46 1059.74 1534.34 1043.61C1518.37 1027.64 1502.34 1011.73 1485.43 996.053C1487.17 999.201 1488.42 1002.71 1490.73 1005.44C1504.38 1021.65 1518.34 1037.64 1532.05 1053.81C1534.04 1056.17 1535.24 1059.11 1537.43 1062.83C1543.29 1063.06 1544.45 1066.32 1539.68 1072.28C1535.55 1069.01 1531.33 1065.68 1527.11 1062.35C1526.59 1062.65 1526.07 1062.96 1525.54 1063.26C1527.24 1067.27 1528.93 1071.29 1530.63 1075.3C1530.31 1075.45 1530 1075.6 1529.69 1075.75C1512.89 1058.78 1496.1 1041.81 1479.31 1024.83C1478.3 1025.61 1477.29 1026.39 1476.28 1027.16C1487.71 1041.02 1499.13 1054.88 1510.57 1068.75C1504.49 1068.55 1505.26 1067.49 1485.95 1055.13C1478.43 1050.32 1469.36 1046.96 1461.3 1040.85C1460.16 1040.35 1459.71 1040.32 1459.26 1040.29C1459.4 1040.87 1459.55 1041.45 1459.7 1042.03C1470.2 1054.53 1480.7 1067.03 1491.21 1079.53C1490.98 1079.9 1490.76 1080.27 1490.54 1080.64C1487.42 1079.4 1484.31 1078.17 1481.19 1076.93C1480.88 1077.2 1480.57 1077.46 1480.25 1077.73C1485.78 1084.7 1491.31 1091.67 1497.29 1099.21C1478.46 1097.02 1470.49 1082.2 1459.37 1071.42C1458.84 1071.9 1458.31 1072.38 1457.79 1072.85C1458.29 1073.92 1458.6 1075.13 1459.33 1076.04C1478 1099.46 1496.76 1122.82 1515.37 1146.28C1518.36 1150.04 1520.7 1154.26 1523.35 1158.26C1522.77 1158.63 1522.19 1159 1521.62 1159.37C1511.51 1149.07 1501.4 1138.78 1490.73 1127.91C1489.82 1129.72 1489.23 1130.9 1488.31 1132.74C1475.4 1120.03 1462.99 1107.82 1449.98 1095.05C1448.77 1094.12 1448.16 1093.73 1447.47 1092.98C1446.95 1092.38 1446.51 1092.15 1445.86 1091.5C1445.42 1091.79 1445.19 1092.48 1445.09 1093.42C1445.44 1093.97 1445.74 1094.2 1446.3 1094.72C1447.14 1095.66 1447.77 1096.22 1448.41 1096.78C1453 1103.75 1457.59 1110.72 1462.18 1117.69C1461.56 1118.09 1460.95 1118.49 1460.33 1118.9C1457.38 1116.63 1454.42 1114.37 1450.06 1111.02C1452.01 1116.17 1453.37 1119.76 1454.73 1123.35C1454.38 1123.56 1454.02 1123.77 1453.66 1123.98C1416.81 1081.83 1379.96 1039.68 1342.79 997.175C1341.28 999.003 1340.14 1000.38 1338.75 1002.06C1337.36 1001.26 1335.92 1000.44 1333.6 999.16C1332.34 998.821 1331.95 998.946 1331.56 999.07C1331.85 999.606 1332.14 1000.14 1332.44 1000.68C1341.88 1012.92 1351.11 1025.31 1360.82 1037.36C1369.99 1048.73 1379.67 1059.73 1389.02 1071.55C1388.69 1072.36 1388.48 1072.52 1388.26 1072.68C1388.09 1073.56 1387.42 1074.81 1387.81 1075.26C1401.14 1090.64 1414.53 1105.97 1428.02 1121.22C1430.08 1123.54 1432.73 1125.37 1435.06 1127.48C1439.89 1131.85 1439.58 1135.85 1433.43 1140.11C1430.84 1137.2 1428.16 1134.18 1425.15 1130.8C1419.06 1137.76 1422.36 1143.12 1426.73 1148.16C1439.07 1162.38 1451.53 1176.49 1463.94 1190.66C1465.66 1192.61 1467.33 1194.59 1469.51 1197.13C1466.94 1197.92 1465.22 1198.46 1462.18 1199.39C1470.3 1209.2 1478.17 1218.7 1486.03 1228.19C1485.52 1228.6 1485 1229 1484.48 1229.41C1482.05 1227.32 1479.61 1225.23 1476.67 1222.7C1476.22 1224.77 1475.87 1226.4 1475.29 1229.01C1456.48 1208.14 1438.14 1187.81 1419.26 1166.75C1413.27 1160.02 1407.82 1154 1402.37 1147.99C1401.68 1148.56 1401 1149.12 1400.31 1149.69C1405.82 1156.11 1411.33 1162.53 1416.84 1168.96C1425.58 1184.17 1434.31 1199.39 1443.5 1215.39C1440.03 1213.85 1437.24 1212.6 1434.44 1211.36C1434.04 1211.6 1433.64 1211.85 1433.24 1212.1C1443.81 1224.84 1454.39 1237.57 1464.97 1250.31C1464.21 1250.89 1463.46 1251.46 1462.7 1252.04C1455.58 1243.97 1448.47 1235.9 1440.21 1226.54C1439.79 1230.5 1439.53 1232.85 1439.2 1235.96C1437.69 1234.81 1436.63 1234.01 1434.86 1232.57C1433.58 1231.47 1433.01 1231 1432.41 1230.22C1432.38 1229.9 1431.92 1229.43 1431.8 1228.96C1427.23 1222.88 1422.79 1217.27 1418.35 1211.65C1417.72 1212.09 1417.1 1212.53 1416.48 1212.97C1420.9 1218.45 1425.32 1223.92 1429.91 1229.78C1430.45 1230.6 1430.82 1231.04 1431.43 1231.81C1432.23 1232.73 1432.79 1233.3 1433.36 1233.88C1438.98 1242.72 1444.6 1251.56 1450.22 1260.41C1449.2 1261 1448.17 1261.6 1447.15 1262.2C1439.19 1251.42 1431.24 1240.63 1423.28 1229.84C1422.58 1230.25 1421.87 1230.66 1421.17 1231.06C1423.01 1234.32 1424.86 1237.58 1426.7 1240.84C1426.29 1241.19 1425.88 1241.54 1425.47 1241.89C1418.27 1235.49 1411.08 1229.08 1403.88 1222.68C1403.31 1223.23 1402.74 1223.78 1402.17 1224.33C1416.65 1244.14 1431.12 1263.96 1446.34 1284.78C1434.41 1285.82 1431.18 1276.68 1423.58 1270.56C1425.27 1275.87 1426.44 1279.56 1427.61 1283.25C1427.22 1283.49 1426.82 1283.74 1426.42 1283.99C1411.59 1265.46 1396.76 1246.93 1381.42 1227.66C1360.29 1201.36 1339.68 1175.81 1318.89 1149.81C1313.29 1142.76 1307.86 1136.14 1302.44 1129.53C1301.84 1129.98 1301.23 1130.44 1300.63 1130.89C1306.28 1137.87 1311.93 1144.84 1317.77 1152.27C1337.89 1178.82 1357.84 1204.94 1377.78 1231.05C1387.76 1246.62 1397.74 1262.2 1407.71 1277.77C1406.97 1278.45 1406.24 1279.14 1405.5 1279.82C1402.03 1276.99 1398.09 1274.54 1395.17 1271.28C1367.15 1239.92 1339.35 1208.39 1311.37 1177C1300.76 1165.1 1290.29 1153.02 1278.87 1141.81C1271.75 1134.81 1261.16 1132.77 1251.8 1128.77C1276.65 1162.83 1307.02 1192.82 1329.05 1229.56C1325.47 1229.56 1323.08 1229.56 1319.93 1229.56C1321.87 1232.22 1323.39 1234.31 1324.58 1237.05C1323.95 1237.86 1323.66 1238.03 1323.36 1238.19C1315.08 1230.42 1306.71 1222.73 1298.55 1214.86C1293.58 1210.07 1289.81 1203.57 1279.68 1205.51C1281.39 1207.59 1282.72 1209.37 1284.2 1211.01C1298.98 1227.29 1313.73 1243.58 1328.58 1259.8C1340.01 1272.3 1350.1 1285.48 1358.64 1300.04C1365.91 1312.45 1376.52 1323.13 1385.56 1334.64C1387.53 1337.14 1389.09 1339.9 1390.84 1342.55C1390.3 1342.93 1389.76 1343.3 1389.22 1343.68C1385.77 1340.25 1382.5 1336.64 1378.84 1333.41C1369.22 1324.92 1358.95 1317.02 1349.85 1308.06C1341.42 1299.77 1334.16 1290.42 1325.78 1280.85C1301.68 1254.93 1278.2 1229.71 1254.71 1204.49C1253.71 1205.31 1252.71 1206.14 1251.7 1206.97C1275.71 1232.81 1299.71 1258.66 1323.72 1284.51C1337.91 1300.37 1352.1 1316.23 1366.28 1332.09C1365.74 1332.6 1365.21 1333.1 1364.67 1333.61C1361.72 1331.16 1358.56 1328.92 1355.87 1326.25C1334.34 1304.86 1312.81 1283.48 1291.47 1261.92C1280.95 1251.3 1270.83 1240.32 1260.51 1229.52C1259.89 1228.87 1259.05 1228.42 1258.31 1227.87C1257.73 1228.21 1257.16 1228.54 1256.59 1228.88C1259.79 1234.19 1262.3 1240.01 1266.31 1244.7C1279.8 1260.48 1293.91 1275.8 1307.57 1291.45C1310.08 1294.32 1311.62 1297.93 1314.19 1302.16C1321.25 1304.26 1321.39 1304.62 1316.55 1312.14C1312.15 1308.65 1307.81 1305.2 1303.47 1301.75C1302.79 1302 1302.1 1302.25 1301.42 1302.5C1303 1306.72 1304.58 1310.95 1306.16 1315.17C1305.74 1315.51 1305.32 1315.84 1304.9 1316.18C1275.77 1284.6 1246.64 1253.03 1216.94 1220.74C1194.51 1196.17 1172.66 1172.31 1150.76 1148.48C1129.16 1124.99 1107.5 1101.54 1085.68 1077.62C1079.03 1070.24 1072.57 1063.31 1066.1 1056.37C1065.52 1056.87 1064.94 1057.36 1064.35 1057.86C1070.96 1065.13 1077.57 1072.41 1084.36 1080.13C1086.94 1083.27 1089.32 1086 1091.75 1088.67C1115.11 1114.36 1138.48 1140.04 1161.86 1165.71C1179.06 1184.61 1196.29 1203.48 1213.51 1222.36C1234.13 1247.92 1254.77 1273.46 1275.33 1299.05C1277.17 1301.34 1278.49 1304 1279.25 1307.05C1219.44 1249.7 1167.72 1185.11 1100.42 1134.78C1099.88 1135.18 1099.33 1135.59 1098.79 1135.99C1114.4 1154.32 1130 1172.66 1145.61 1190.99C1145.29 1191.18 1144.98 1191.36 1144.66 1191.54C1138.45 1186.28 1132.24 1181.03 1126.02 1175.78C1129.51 1193.71 1148.81 1200.84 1156.29 1216.01C1150.98 1213.4 1145.68 1210.8 1139.8 1207.9C1141.14 1199.45 1132.98 1200.72 1127.2 1199.39C1126.78 1196.73 1126.37 1194.12 1125.96 1191.51C1125.33 1191.46 1124.7 1191.42 1124.07 1191.37C1123.6 1192.67 1123.14 1193.96 1122.63 1195.4C1120.62 1194.29 1118.65 1193.2 1116.67 1192.11C1116.2 1192.49 1115.72 1192.86 1115.25 1193.23C1118.07 1197.05 1120.88 1200.87 1124.25 1205.44C1121.71 1205 1119.82 1204.68 1116.51 1204.1C1120.27 1209.07 1123.44 1213.23 1127.98 1219.22C1120.24 1216.47 1114.62 1214.47 1107.03 1211.77C1126.51 1235.68 1146.35 1257.01 1164.04 1279.83C1163.41 1280.31 1162.77 1280.79 1162.14 1281.27C1155.38 1274.83 1148.63 1268.38 1141.87 1261.94C1141.46 1262.2 1141.04 1262.45 1140.62 1262.71C1141.21 1265.01 1141.8 1267.31 1141.78 1269.83C1141.17 1270.06 1141.07 1270.14 1141.07 1270.14C1123.1 1252.22 1107.39 1232.24 1087.23 1216.31C1086.58 1216.8 1085.92 1217.3 1085.26 1217.79C1089.66 1223.4 1094.05 1229.01 1098.44 1234.61C1098.12 1234.98 1097.8 1235.36 1097.48 1235.73C1095.65 1234.96 1093.82 1234.18 1091.15 1232.91C1089.93 1232.47 1089.53 1232.54 1089.13 1232.6C1089.38 1233.07 1089.62 1233.53 1089.87 1233.99C1091.01 1236.22 1092.15 1238.45 1093.3 1240.68C1092.9 1240.97 1092.5 1241.25 1092.1 1241.54C1074.83 1223.27 1057.56 1205.01 1040.29 1186.74C1039.81 1187.01 1039.32 1187.28 1038.84 1187.55C1039.11 1188.64 1039.38 1189.73 1039.57 1191.61C1039.23 1192.59 1038.96 1192.78 1038.7 1192.97C1035.6 1193.27 1033.96 1195.64 1035.51 1197.98C1036.69 1199.76 1038.8 1201.05 1039.74 1202.9C1040.73 1204.86 1040.83 1207.22 1041.31 1209.41C1040.59 1209.83 1039.87 1210.26 1039.16 1210.68C1041.88 1211.31 1044.67 1211.74 1047.3 1212.6C1050.53 1213.66 1053.97 1214.57 1052.15 1219.34C1051.61 1220.75 1052.86 1223.26 1054.07 1224.69C1059.1 1230.66 1064.26 1236.56 1069.78 1242.12C1070.86 1243.21 1073.76 1242.7 1077.19 1243.08C1077.77 1246.61 1078.5 1250.97 1079.22 1255.34C1078.47 1255.57 1077.72 1255.81 1076.96 1256.05C1073.99 1253.66 1071.02 1251.27 1068.04 1248.87C1061.78 1251.69 1062.96 1255 1066.55 1258.8C1078.52 1271.47 1090.42 1284.21 1102.87 1297.49C1101.06 1298.32 1099.72 1298.95 1098.51 1299.5C1100.71 1304.09 1102.9 1308.68 1105.02 1313.1C1107.15 1313.88 1109.82 1314.84 1114.03 1316.37C1110.46 1318.64 1108.69 1319.76 1106.55 1321.12C1088.09 1301.99 1069.82 1283.05 1051.55 1264.12C1051.07 1264.52 1050.58 1264.93 1050.1 1265.33C1060.72 1281.08 1071.34 1296.84 1081.96 1312.59C1080.54 1312.76 1078.39 1313.02 1076.21 1313.27C1074.89 1318.19 1078.58 1324.35 1072.11 1328.12C1076.44 1334.69 1080.87 1341.41 1085.29 1348.13C1084.44 1348.67 1083.58 1349.21 1082.73 1349.74C1076.32 1341.29 1069.91 1332.84 1063.5 1324.38C1062.86 1324.77 1062.23 1325.15 1061.59 1325.53C1061.59 1326.82 1061.59 1328.11 1061.59 1330.2C1057.18 1326.97 1053.27 1324.12 1048.69 1320.69C1047.41 1320.12 1046.8 1320.13 1046.2 1320.14C1046.41 1320.69 1046.62 1321.24 1046.83 1321.8C1058.26 1336.82 1069.68 1351.84 1081.1 1366.87C1080.74 1367.4 1080.37 1367.94 1080.01 1368.48C1075.15 1365.95 1070.3 1363.41 1064.92 1360.6C1065.05 1362.78 1065.16 1364.64 1065.34 1367.59C1047.57 1347.05 1030.62 1327.46 1013.68 1307.88C1012.93 1308.39 1012.17 1308.89 1011.42 1309.4C1023.65 1326.77 1035.89 1344.14 1048.12 1361.5C1047.49 1362.06 1046.86 1362.62 1046.23 1363.18C1033.3 1357.07 1026.23 1344.81 1015.61 1334.95C1004.75 1323.88 994.522 1313.49 984.104 1302.79C983.337 1302.03 982.761 1301.59 982.007 1300.7C978.65 1297.13 975.471 1294 972.292 1290.87C971.778 1291.32 971.263 1291.77 970.749 1292.23C974.154 1295.69 977.559 1299.15 981.166 1302.91C981.926 1303.66 982.483 1304.11 983.227 1305.01C993.183 1315.45 1002.95 1325.46 1012.72 1335.46C1012.72 1335.46 1012.82 1335.78 1012.47 1336.23C1011.91 1336.87 1011.7 1337.06 1011.48 1337.25C996.516 1324.72 981.549 1312.19 966.581 1299.66C966.191 1300.01 965.8 1300.36 965.41 1300.71C979.21 1317.48 993.01 1334.24 1006.81 1351.01C1006.11 1351.56 1005.41 1352.11 1004.71 1352.66C991.6 1340.1 978.491 1327.53 965.383 1314.97C964.55 1315.7 963.718 1316.43 962.885 1317.16C983.149 1338.16 1003.41 1359.16 1023.68 1380.17C1023.03 1380.81 1022.39 1381.45 1021.74 1382.09C1012.54 1374.08 999.28 1372.85 990.516 1363.47C982.564 1354.97 972.785 1347.97 962.542 1341.26C963.084 1342.91 963.626 1344.55 964.222 1346.36C963.515 1346.48 962.684 1346.9 962.178 1346.67C957.977 1344.78 953.007 1343.58 949.818 1340.67C934.617 1326.82 919.905 1312.49 903.852 1298.47C905.084 1300.73 905.901 1303.32 907.612 1305.2C927.834 1327.36 948.596 1349.1 968.394 1371.59C987.371 1393.15 1005.38 1415.46 1023.74 1438.27C1022.74 1439.4 1021.83 1439.7 1020.92 1440C1016.52 1436.04 1012.13 1432.09 1006.97 1427.52C1005.48 1426.76 1004.76 1426.61 1004.04 1426.46C1004.62 1427.25 1005.19 1428.03 1005.77 1428.82C1006.01 1430.08 1006.25 1431.35 1006.49 1432.62C1006.06 1432.9 1005.63 1433.18 1005.2 1433.46C968.423 1394.97 931.649 1356.47 894.24 1317.28C881.35 1303.67 869.095 1290.75 856.84 1277.83C856.272 1278.3 855.705 1278.78 855.137 1279.25C866.716 1292.31 878.295 1305.36 889.874 1318.42C887.903 1320.38 885.931 1322.34 884.81 1323.46C881.327 1320.57 879.216 1318.83 877.123 1317.08C875.645 1315.84 874.085 1314.66 872.745 1313.3C832.781 1272.69 792.917 1231.99 752.761 1191.55C749.149 1187.91 743.67 1185.91 739.058 1183.14C738.535 1183.78 738.012 1184.42 737.489 1185.06C741.936 1189.95 746.367 1194.86 750.833 1199.73C787.414 1239.69 824.01 1279.64 860.561 1319.63C862.175 1321.39 863.404 1323.47 864.648 1326.1C864.484 1326.8 864.029 1327.22 864.029 1327.22C850.837 1313.73 838.083 1299.82 824.349 1286.82C803.393 1266.99 781.525 1248.01 760.511 1228.23C750.086 1218.42 740.748 1207.6 730.818 1197.31C727.97 1194.36 724.771 1191.71 721.132 1188.37C719.86 1187.46 719.19 1187.1 718.41 1186.37C717.798 1185.85 717.295 1185.71 716.68 1185.18C716.265 1184.91 715.963 1185.02 715.662 1185.14C716.104 1185.24 716.547 1185.34 716.597 1185.76C716.584 1186.6 716.963 1187.13 717.533 1188.02C718.308 1188.95 718.892 1189.52 719.476 1190.08C731.033 1202.94 742.477 1215.88 754.173 1228.62C773.896 1250.1 793.779 1271.46 813.524 1293.51C813.236 1294.33 813.019 1294.51 812.802 1294.69C800.093 1282.38 787.496 1269.96 774.648 1257.78C754.716 1238.88 734.618 1220.14 714.568 1201.35C713.401 1200.26 712.039 1199.35 710.768 1198.35C710.241 1198.71 709.714 1199.06 709.187 1199.42C711.232 1202.4 713.276 1205.39 715.572 1208.75C713.75 1209.13 712.307 1209.44 711.026 1209.71C754.133 1255.99 797.019 1302.03 839.905 1348.06C839.225 1348.66 838.544 1349.26 837.864 1349.86C806.06 1321.7 774.256 1293.55 742.451 1265.39C741.802 1265.9 741.152 1266.41 740.502 1266.93C741.97 1268.76 743.303 1270.7 744.927 1272.4C762.679 1290.98 780.529 1309.47 798.165 1328.15C799.613 1329.68 799.694 1332.35 800.411 1334.49C799.605 1334.8 798.798 1335.11 797.992 1335.42C786.339 1325.14 774.685 1314.86 762.4 1303.94C758.559 1300.43 755.351 1297.56 752.023 1294.49C751.706 1294.06 751.459 1293.88 751.008 1293.44C750.483 1292.83 750.097 1292.55 749.464 1291.93C748.299 1291.09 747.364 1290.63 746.429 1290.16C746.265 1290.37 746.1 1290.59 745.936 1290.8C746.691 1291.59 747.446 1292.38 748.294 1293.52C748.81 1294.13 749.232 1294.38 749.753 1294.98C750.274 1295.59 750.696 1295.84 751.43 1296.69C752.295 1299.13 752.846 1300.96 753.398 1302.8C738.945 1290.51 724.492 1278.21 710.039 1265.92C709.642 1266.27 709.244 1266.61 708.847 1266.96C717.052 1277.58 725.258 1288.19 733.284 1299.62C732.96 1300.68 732.815 1300.92 732.671 1301.16C726.984 1296.3 721.297 1291.43 714.898 1285.99C713.644 1285.26 713.104 1285.1 712.563 1284.95C712.837 1285.86 713.111 1286.77 713.385 1287.67C718.845 1295.17 724.304 1302.67 729.764 1310.17C729.318 1310.45 728.873 1310.73 728.427 1311C714.376 1297.7 700.325 1284.39 686.273 1271.08C685.864 1271.45 685.455 1271.81 685.046 1272.17C704.951 1296.95 724.856 1321.73 744.607 1347.14C744.229 1347.92 744.006 1348.07 743.783 1348.21C733.659 1339.25 723.512 1330.3 713.431 1321.3C711.079 1319.19 709.228 1316.5 706.621 1314.78C704.759 1313.56 702.017 1313.51 699.667 1312.94C699.344 1313.67 699.021 1314.41 698.698 1315.14C704.068 1321.18 709.438 1327.21 714.893 1333.34C709.463 1338.28 706.059 1334.32 703.162 1331.58C692.778 1321.74 682.974 1311.35 672.458 1301.64C656.795 1287.18 640.714 1273.12 624.133 1258.41C623.15 1258.53 622.844 1259.13 622.538 1259.72C632.415 1272.03 642.292 1284.33 652.169 1296.64C651.664 1297.05 651.159 1297.46 650.654 1297.87C643.935 1291.63 637.215 1285.39 629.876 1278.5C624.633 1273.48 620.011 1269.1 615.388 1264.72C614.761 1265.33 614.134 1265.94 613.506 1266.55C617.717 1270.66 621.928 1274.78 626.139 1278.89C639.276 1292.64 652.413 1306.38 665.418 1320.85C665.147 1321.78 665.007 1321.98 664.868 1322.18C645.947 1315 632.484 1301.01 616.6 1287.3C616.984 1290.15 617.161 1291.45 617.6 1294.7C612.886 1292.2 608.591 1290.89 605.711 1288.22C593.463 1276.9 581.633 1265.18 568.581 1254.06C569.74 1255.98 570.621 1258.11 572.102 1259.78C583.021 1272.06 594.276 1284.08 605.014 1296.49C627.097 1322.02 648.938 1347.74 670.819 1373.42C672.054 1374.87 672.745 1376.73 672.718 1378.89C666.765 1373.57 660.812 1368.24 654.49 1362.58C653.861 1363.2 652.88 1364.17 651.638 1365.39C617.853 1329.71 584.391 1294.38 550.42 1258.59C549.91 1258.14 549.483 1257.68 549.371 1257.22C544.175 1251.52 539.092 1246.29 533.784 1240.75C532.965 1239.97 532.373 1239.51 531.684 1238.68C530.832 1237.98 530.077 1237.64 529.322 1237.31C529.767 1238.21 530.212 1239.12 530.88 1240.35C531.691 1241.2 532.278 1241.73 533.02 1242.7C538.085 1248.56 542.995 1253.95 547.977 1259.47C548.049 1259.58 548.312 1259.69 548.312 1259.69C551.276 1263.46 554.24 1267.24 557.205 1271.01C553.46 1273.83 553.498 1273.8 550.299 1270.54C502.83 1222.25 455.353 1173.97 407.856 1125.71C406.516 1124.35 404.94 1123.19 403.474 1121.94C402.858 1122.21 402.241 1122.48 401.625 1122.75C402.897 1125.55 403.527 1128.86 405.536 1131.07C439.393 1168.23 473.429 1205.25 507.383 1242.33C508.81 1243.89 509.821 1245.78 511.425 1248.18C511.321 1249.43 510.82 1250.03 510.318 1250.63C472.306 1213.09 434.293 1175.55 395.664 1137.46C394.48 1136.52 393.914 1136.13 393.174 1135.38C392.721 1135.59 392.441 1136.17 392.279 1137.14C392.986 1138.09 393.576 1138.65 394.166 1139.21C409.965 1156.52 425.706 1173.88 441.58 1191.13C456.003 1206.81 470.607 1222.33 485.023 1238.01C486.589 1239.72 487.432 1242.01 487.527 1244.58C463.756 1221.23 439.986 1197.87 416.503 1174.79C413.832 1177.81 412.531 1179.27 411.303 1180.66C445.99 1218.2 481.263 1256.38 516.537 1294.55C515.921 1295.11 515.305 1295.66 514.689 1296.21C488.795 1273.01 462.901 1249.81 437.007 1226.61C436.361 1227.18 435.715 1227.75 435.069 1228.33C440.778 1234.26 446.517 1240.16 452.186 1246.12C458.03 1252.27 463.973 1258.34 469.561 1264.69C474.708 1270.53 481.422 1275.47 484.813 1282.44C484.011 1283.02 483.209 1283.6 482.408 1284.18C472.243 1275.35 462.079 1266.53 451.483 1257.33C450.73 1258.4 450.091 1259.31 449.379 1260.33C438.056 1250.64 426.839 1241.03 415.622 1231.43C414.986 1231.85 414.35 1232.28 413.713 1232.7C418.764 1239.55 423.814 1246.41 428.864 1253.26C428.247 1253.68 427.63 1254.1 427.013 1254.52C422.086 1250.26 417.16 1246 412.234 1241.74C411.733 1242.15 411.233 1242.56 410.733 1242.97C413.892 1246.95 417.052 1250.93 420.029 1255.77C419.658 1256.94 419.469 1257.24 419.28 1257.54C416.903 1255.32 414.526 1253.1 411.551 1250.22C399.939 1238.71 388.925 1227.85 377.91 1217C377.211 1217.63 376.512 1218.27 375.813 1218.9C386.528 1230.47 397.243 1242.04 407.957 1253.6C418.106 1266.75 428.256 1279.89 438.32 1293.68C438.235 1294.33 437.887 1294.65 437.887 1294.65C429.62 1287.23 421.317 1279.84 413.109 1272.36C410.425 1269.91 407.992 1267.22 405.47 1264.67C403.311 1266.48 403.793 1267.44 413.884 1282.83C409.419 1286.1 406.63 1283.12 403.993 1280.42C375.695 1251.47 346.99 1222.84 319.264 1193.41C249.022 1118.84 179.211 1043.91 109.267 969.098C97.9597 957.003 87.8173 943.784 75.4086 932.804C59.3585 918.603 48.1858 900.942 34.0202 885.446C24.7829 875.342 18.0553 863.216 10.428 852.317C11.0948 852.47 12.8066 852.864 15.809 853.554C11.8767 848.583 8.61913 844.466 4.54952 839.322C14.2166 840.807 19.7396 845.596 25.0149 851.017C27.4409 853.51 30.6675 855.316 34.3089 857.924C45.0933 868.906 55.0998 879.397 65.1063 889.888C65.7449 889.326 66.3835 888.765 67.022 888.203C57.03 877.927 47.038 867.651 37.0459 857.375C24.6555 843.679 12.2651 829.982 0 815.658C0.125241 815.032 0.439135 814.758 0.439126 814.758C12.8025 824.901 25.1659 835.044 37.5996 845.244C39.0064 843.974 39.0064 843.974 28.9979 825.36C32.7786 827.589 35.0038 828.901 37.4202 830.326C37.9493 829.757 38.8665 828.772 40.0822 827.466C65.2182 854.361 90.1743 881.063 115.441 908.098C116.429 907.271 117.415 906.448 118.839 905.257C127.458 914.409 136.268 923.407 144.583 932.79C147.447 936.022 148.398 940.817 151.425 943.836C156.337 948.735 162.286 952.71 167.706 957.172C170.576 959.534 173.256 962.099 176.021 964.573C176.618 964.083 177.215 963.593 177.812 963.103C174.576 959.216 171.522 955.18 168.074 951.466C142.703 924.136 117.195 896.918 91.9095 869.518C88.9393 866.299 87.2942 862.031 84.5707 858.571C83.4061 857.092 81.0508 856.438 79.0411 855.298C78.6836 848.404 67.8507 835.693 60.5837 834.007C59.8757 833.843 58.5731 833.773 58.5383 833.533C57.7066 827.787 53.1947 825.196 48.9701 821.628C45.1141 818.371 43.9816 812.274 42.7395 806.018C46.9306 809.604 51.1218 813.189 55.5938 817.015C59.7378 812.84 57.4244 809.529 54.3044 806.234C44.4899 795.867 34.7015 785.479 25.125 775.334C26.6184 771.445 27.9508 767.976 29.6186 763.634C42.0364 776.541 54.3488 789.338 66.6612 802.136C67.0612 801.918 67.4613 801.7 67.8613 801.482C59.2673 788.574 50.6733 775.665 41.532 761.935C43.837 761.813 44.9121 761.756 45.2168 761.74C45.7945 757.326 46.3513 753.073 47.4859 749.271C48.4037 750.241 48.7437 750.758 49.0836 751.276C49.2568 750.86 49.7 750.273 49.5487 750.062C49.1972 749.571 48.5588 749.261 48.0367 748.878C45.4946 744.563 42.9525 740.248 40.6782 735.063C41.1527 733.921 41.3595 733.649 41.5663 733.377C45.0864 737.828 48.5961 742.287 52.1312 746.727C53.7034 748.702 55.3268 750.641 57.8876 753.77C58.4511 750.796 58.7227 749.363 59.0519 747.625C61.8066 749.463 64.4413 751.221 67.076 752.979C67.5433 752.553 68.0107 752.127 68.478 751.701C59.388 739.712 50.298 727.724 41.208 715.736C41.7393 715.184 42.2705 714.633 42.8018 714.081C46.4888 716.432 50.1759 718.783 54.2526 721.383C54.2526 719.964 54.2526 718.719 54.2526 715.629C68.1006 731.56 80.9123 746.298 93.724 761.036C94.3265 760.657 94.9289 760.278 95.5314 759.899C86.4174 746.718 77.3034 733.536 68.1894 720.355C68.967 719.746 69.7445 719.136 70.5221 718.527C88.9444 735.047 104.223 754.443 122.393 772.041C123.139 770.18 123.608 769.012 124.224 767.475C135.293 777.246 146.209 786.881 157.125 796.516C157.603 796.269 158.082 796.021 158.56 795.774C157.384 793.719 156.513 791.432 154.977 789.65C148.051 781.614 140.858 773.781 133.935 765.742C131.749 763.204 128.353 760.158 128.522 757.513C129.139 747.805 121.408 742.899 115.731 736.084C123.609 733.837 126.706 739.58 131.022 742.786C137.576 737.683 134.743 733.393 130.01 728.934C126.843 725.95 124.179 722.498 121.387 718.619C121.68 717.829 121.876 717.676 122.071 717.522C122.723 716.815 124.066 715.658 123.925 715.468C121.38 712.03 118.656 708.708 114.757 703.85C127.815 706.161 133.817 714.67 140.776 721.888C141.435 721.456 142.093 721.023 142.752 720.59C140.483 716.734 138.78 712.44 135.841 709.104C126.919 698.976 117.518 689.219 108.498 678.53C108.889 677.509 109.085 677.276 109.281 677.042C122.591 687.326 135.9 697.609 149.884 708.365C150.956 708.825 151.352 708.813 151.749 708.801C151.6 708.242 151.452 707.683 151.303 707.124C147.51 702.206 143.717 697.287 139.79 692.195C142.652 691.793 145.07 691.453 149.08 690.889C166.677 709.639 185.374 729.554 204.061 749.476C208.367 754.067 212.345 758.975 217.031 763.191C220.464 766.28 222.27 770.417 229.163 771.104C234.058 771.592 238.083 779.745 242.501 784.474C242.649 784.632 242.838 784.757 244.486 784.268C243.077 781.592 242.152 778.54 240.18 776.3C227.569 761.978 214.986 747.618 201.834 733.738C196.532 728.141 195.062 720.028 186.512 716.246C182.728 714.572 181.963 707.592 178.801 703.768C175.932 700.298 171.67 697.842 167.262 695.953C161.418 687.695 155.574 679.438 149.73 671.18C150.495 670.556 151.259 669.931 152.024 669.307C156.621 673.479 161.218 677.651 166.013 682.002C170.813 677.595 167.58 674.184 164.499 670.876C154.768 660.426 144.976 650.027 135.207 639.609C135.868 639.446 136.529 639.283 137.189 639.12C136.035 634.026 134.88 628.933 133.725 623.84C134.222 623.477 134.719 623.113 135.216 622.75C146.902 634.998 158.587 647.247 171.224 659.918C172.108 659.554 172.039 658.768 171.971 657.981C165.748 648.437 159.597 638.85 153.247 629.38C151.768 627.175 150.505 625.759 155.634 626.731C156.91 626.986 157.299 626.917 157.688 626.847C157.438 626.38 157.188 625.912 156.938 625.445C156.876 621.376 156.814 617.306 157.607 613.644C160.371 614.182 162.279 614.312 164.188 614.442C168.403 618.467 168.911 615.732 168.836 611.484C171.591 613.65 173.94 615.499 176.966 617.95C178.541 618.977 179.44 619.399 180.339 619.822C179.898 618.721 179.458 617.62 179.018 616.519C169.979 604.571 160.941 592.624 151.903 580.676C152.408 580.101 152.913 579.527 153.418 578.952C157.338 581.583 161.258 584.214 165.332 586.948C165.332 585.202 165.332 583.271 165.332 579.626C179.729 596.751 193.09 612.644 206.951 629.068C207.451 629.598 207.992 629.958 208.179 630.459C209.55 631.866 210.735 632.772 211.919 633.678C212.269 633.29 212.618 632.902 212.968 632.514C211.731 631.232 210.494 629.95 209.202 628.421C209.148 628.175 208.707 627.889 208.707 627.889C198.687 613.661 188.667 599.434 178.647 585.207C179.216 584.65 179.786 584.093 180.355 583.536C183.744 586.413 187.423 589.044 190.476 592.207C214.886 617.503 239.166 642.908 263.518 668.254C266.706 671.572 269.811 675.03 273.43 677.894C276.855 680.604 280.905 682.618 284.68 684.938C285.242 684.297 285.805 683.657 286.367 683.016C274.193 667.951 261.941 652.94 249.891 637.787C246.016 632.916 242.843 627.556 239.053 622.62C230.738 611.79 222.615 600.802 213.721 590.399C198.98 573.155 183.693 556.322 168.711 538.417C168.825 537.199 168.864 536.88 168.903 536.56C177.314 543.399 185.724 550.239 194.692 557.557C195.464 558.301 195.737 558.49 196.334 558.962C197.569 559.772 198.538 560.223 199.507 560.675C199.896 560.235 200.285 559.796 200.674 559.356C199.623 558.795 198.571 558.234 197.452 557.309C196.973 556.674 196.561 556.402 196.149 556.129C178.97 536.695 161.786 517.266 144.617 497.825C140.639 493.321 136.713 488.776 132.763 484.249C133.296 483.806 133.829 483.364 134.361 482.921C139.638 487.929 144.915 492.937 150.8 498.623C151.85 499.965 152.291 500.627 152.732 501.29C153.133 501.102 153.534 500.913 153.935 500.725C153.369 499.483 152.803 498.241 152.237 496.999C149.262 490.748 146.185 484.536 143.43 478.201C143.056 477.341 144.296 475.862 145.414 474.67C146.04 474.671 145.911 474.633 145.988 475.057C147.045 476.08 148.026 476.681 149.23 477.702C151.648 480.421 153.575 483.041 156.13 484.904C157.908 486.2 160.547 486.454 163.216 487.435C171.96 496.428 180.29 505.162 188.62 513.895C189.256 513.36 189.891 512.824 190.527 512.289C181.625 502.761 172.724 493.23 163.78 483.736C163.723 483.676 163.062 484.117 162.642 484.38C162.602 484.436 162.723 484.363 163.177 483.946C163.291 482.425 162.951 481.321 162.612 480.216C165.183 481.689 168.321 482.688 170.239 484.707C196.701 512.566 222.995 540.565 249.43 568.636C250.488 567.894 251.964 566.859 253.867 565.523C261.085 573.713 268.3 581.765 275.272 589.998C276.053 590.92 275.459 592.868 274.826 593.896C273.206 593.064 272.263 592.677 271.32 592.29C271.742 593.356 272.164 594.422 272.586 595.489C295.312 621.013 318.038 646.537 340.764 672.061C341.773 671.517 342.782 670.973 343.791 670.428C342.223 666.792 341.355 662.672 338.95 659.616C333.202 652.315 326.512 645.67 320.668 638.428C318.615 635.885 317.923 632.375 316.609 629.306C317.271 629.031 317.932 628.756 318.594 628.482C326.407 635.466 334.219 642.451 342.605 649.948C343.426 645.996 343.954 643.45 345.112 641.53C348.376 644.996 351.011 647.838 353.727 651.1C354.64 652.345 355.472 653.168 356.691 654.311C357.114 653.872 357.15 653.113 357.01 651.915C356.355 650.372 355.876 649.268 355.912 647.894C357.533 647.93 358.641 648.234 359.849 648.926C360.328 649.329 360.706 649.344 361.084 649.359C360.901 648.841 360.717 648.323 360.375 647.348C357.584 643.57 354.952 640.249 352.801 637.535C350.25 638.37 348.491 638.947 346.732 639.523C344.024 636.674 341.385 633.764 338.595 630.987C332.306 624.726 325.941 618.532 318.446 611.17C317.904 614.842 317.651 616.551 317.349 618.596C315.084 616.649 312.963 614.827 310.416 612.637C310.226 614.927 310.082 616.657 309.729 620.909C285.13 592.473 261.894 565.613 238.658 538.754C239.651 538.427 240.645 538.099 241.638 537.772C241.326 535.205 241.912 532.079 240.555 530.164C231.845 517.866 222.738 505.814 213.7 493.723C209.972 488.736 206.093 483.849 202.537 478.242C203.049 477.406 203.308 477.243 203.566 477.081C209.663 482.122 215.76 487.163 221.925 492.262C222.448 491.846 223.396 491.093 225.045 490.829C226.289 491.373 226.833 491.428 227.452 491.905C227.874 492.225 228.22 492.123 228.566 492.022C228.503 491.833 228.431 491.478 228.378 491.481C227.999 491.499 227.625 491.589 227.588 491.262C227.369 490.482 226.81 490.098 226.25 489.714C220.381 482.544 214.534 475.357 208.636 468.207C199.905 457.623 200.566 443.45 191.504 433C192.17 432.589 192.835 432.178 193.501 431.768C197.578 434.471 201.655 437.175 205.726 439.874C207.475 437.79 209.078 435.88 211.464 434.621C212.756 435.054 213.264 434.835 213.771 434.616C213.341 434.206 212.911 433.795 212.481 433.385C200.756 418.734 189.03 404.083 177.305 389.432C178.038 388.822 178.772 388.213 179.505 387.604C186.283 394.547 193.06 401.49 200.018 408.618C200.018 407.331 200.018 405.706 200.018 402.665C204.327 404.517 207.485 405.875 211.303 407.516C209.939 404.611 208.621 401.805 206.698 397.712C209.507 398.293 211.974 398.099 213.175 399.164C222.675 407.588 231.78 416.409 241.377 424.73C243.751 426.788 248.164 426.807 250.462 428.901C256.541 434.443 262.172 440.454 267.613 446.567C273.484 453.161 278.937 460.083 284.573 466.862C285.438 466.307 286.304 465.751 287.169 465.196C282.166 457.853 277.162 450.509 272.158 443.166C272.497 442.96 272.835 442.755 273.174 442.549C286.636 456.027 300.097 469.504 314.203 483.462C315.612 484.419 316.378 484.895 317.143 485.371C317.364 485.106 317.585 484.842 317.806 484.577C317.129 483.78 316.452 482.984 315.776 482.187C312.29 476.354 308.804 470.521 305.442 464.012C305.565 463.335 305.916 463.004 305.916 463.004C310.837 466.856 315.758 470.708 321.024 474.83C325.715 471.153 323.772 467.992 320.963 464.651C308.268 449.551 295.639 434.403 283.174 418.496C283.574 417.503 283.786 417.286 283.998 417.069C292.301 425.212 300.605 433.355 308.908 441.498C309.275 441.011 309.642 440.523 310.009 440.036C311.854 440.77 314.214 441.053 315.46 442.31C324.308 451.233 332.929 460.356 342.472 469.914C343.841 470.242 344.359 470.072 344.878 469.901C344.51 469.424 344.142 468.945 343.774 468.467C340.078 462.832 336.383 457.196 332.688 451.561C333.256 451.09 333.824 450.619 334.392 450.148C336.534 452.105 338.676 454.061 341.394 456.484C342.296 456.881 342.62 456.81 342.944 456.739C342.89 456.555 342.837 456.212 342.782 456.212C342.422 456.209 342.061 456.281 341.7 456.328C341.837 454.543 341.974 452.758 342.236 449.358C358.489 467.967 373.749 485.437 389.167 503.09C389.782 502.078 390.286 501.248 390.296 501.232C397.647 507.111 405.09 513.063 413.22 519.28C414.427 519.667 414.947 519.79 415.554 520.291C416.104 520.868 416.567 521.068 417.094 521.681C417.547 522.145 417.937 522.194 418.327 522.244C418.167 521.692 418.008 521.139 417.691 520.291C417.25 519.637 416.915 519.327 416.375 518.776C415.916 518.156 415.564 517.881 415.163 517.662C411.393 512.98 407.573 508.332 403.862 503.609C387.712 483.061 373.681 461.027 354.988 442.254C353.656 440.916 352.512 439.149 352.042 437.402C351.652 435.954 352.387 434.24 352.623 432.644C354.078 433.109 355.844 433.236 356.925 434.109C359.176 435.929 361.064 438.143 363.114 440.208C368.296 434.021 364.611 429.6 360.379 424.8C349.202 412.123 338.357 399.187 327.185 386.126C328.645 385.244 330.013 384.418 331.88 383.291C327.555 377.823 323.293 372.436 319.259 366.238C319.709 365.194 319.932 364.961 320.155 364.728C321.271 364.143 322.387 363.559 324.2 362.609C341.488 382.342 359.048 402.386 376.608 422.43C377.214 422.074 377.819 421.718 378.425 421.361C373.288 413.208 368.079 405.094 363.035 396.89C357.9 388.54 352.929 380.101 347.609 371.239C349.755 371.239 351.698 371.239 354.809 371.239C349.166 364.576 344.099 358.595 339.086 351.839C339.56 350.748 339.981 350.431 340.401 350.114C343.643 353.535 346.886 356.956 350.215 360.47C358.642 348.548 344.876 342.372 342.33 332.278C354.753 338.557 355.493 353.123 366.05 359.391C366.58 358.976 367.111 358.561 367.641 358.146C366.003 355.94 364.365 353.734 362.927 350.742C363.344 349.753 363.56 349.549 363.776 349.345C369.128 354.68 374.48 360.015 379.832 365.351C380.475 364.846 381.118 364.342 381.761 363.838C370.023 347.277 358.284 330.715 346.526 314.127C352.93 313.496 355.763 315.06 362.682 323.294C362.682 321.452 362.682 320.173 362.975 318.075C363.459 317.034 363.652 316.811 363.844 316.589C375.492 330.28 387.14 343.97 399.413 358.247C400.591 359.339 401.145 359.845 401.768 360.819C402.204 361.773 402.569 362.26 402.934 362.746C402.994 361.626 403.054 360.506 403.001 358.973C402.261 357.976 401.635 357.391 401.009 356.807C393.112 344.409 385.216 332.011 377.32 319.613C377.883 319.027 378.445 318.441 379.007 317.854C381.443 319.633 384.309 321.074 386.25 323.242C410.595 350.434 434.817 377.722 459.044 405.006C467.215 414.208 475.31 423.469 483.805 433.118C485.525 432.004 487.028 431.03 489.108 429.682C491.272 431.486 493.805 433.598 496.338 435.71C496.904 435.497 497.469 435.285 498.035 435.072C495.853 430.778 494.411 425.938 491.357 422.286C479.604 408.235 466.879 394.885 455.472 380.602C450.562 374.456 447.985 366.669 444.348 359.627C445.075 359.187 445.803 358.746 446.53 358.305C458.005 371.269 469.48 384.233 480.955 397.197C481.636 396.751 482.318 396.306 482.999 395.86C473.296 382.997 463.592 370.133 453.888 357.269C454.473 356.687 455.057 356.105 455.642 355.522C463.424 362.125 471.207 368.728 479.11 375.433C479.99 375.023 481.499 374.321 483.768 373.983C484.807 374.715 485.175 374.967 486.009 375.385C486.866 375.501 487.349 375.334 487.832 375.167C487.423 374.776 487.014 374.385 486.543 373.626C486.066 372.987 485.651 372.715 485.237 372.443C476.07 361.409 467.343 350.01 457.52 339.517C453.557 335.284 456.497 330.865 454.407 326.86C450.579 319.523 447.156 311.999 443.604 304.536C443.226 303.741 443.114 302.833 442.589 300.922C448.818 305.124 454.147 308.719 460.275 312.853C461.17 310.163 461.607 307.94 462.714 306.068C463.053 305.495 465.233 305.882 467.182 306.372C468.345 307.311 468.897 307.709 469.556 308.481C470.133 309.042 470.604 309.229 471.2 309.763C471.655 310.116 471.986 310.12 472.317 310.124C472.217 309.603 472.116 309.081 471.939 308.256C471.628 307.587 471.317 307.294 470.733 306.694C469.917 305.745 469.296 305.174 468.675 304.604C455.723 289.151 442.758 273.707 429.83 258.236C427.796 255.802 425.924 253.249 424.751 250.147C436.751 253.758 442.128 263.914 450.469 272.353C451.513 273.785 451.97 274.509 452.426 275.233C452.799 275.079 453.172 274.925 453.545 274.771C453.039 273.435 452.532 272.098 452.026 270.762C454.583 270.211 457.544 268.641 459.599 269.358C462.385 270.33 464.478 273.054 467.469 275.136C468.071 275.245 468.062 275.205 468.105 275.746C469.384 276.926 470.619 277.565 471.855 278.203C472.076 277.856 472.297 277.508 472.519 277.161C471.712 276.437 470.905 275.713 470.016 274.632C469.529 274.002 469.124 273.729 468.72 273.456C466.052 269.883 463.383 266.309 460.715 262.736C460.96 262.106 461.204 261.476 461.448 260.846C464.112 261.539 467.461 261.503 469.327 263.047C478.917 270.984 488.204 279.25 497.425 287.569C500.632 290.463 503.345 293.838 506.84 295.937C509.05 296.533 512.001 296.478 513.35 297.83C522.221 306.728 530.864 315.835 539.343 325.066C544.999 331.222 550.261 337.696 556.628 343.477C556.012 331.96 544.591 325.561 541.869 315.079C558.395 331.304 574.922 347.528 592.127 364.277C593.479 365.103 594.153 365.404 594.914 366.107C595.325 366.43 595.65 366.351 595.974 366.272C595.914 366.087 595.852 365.742 595.794 365.742C595.429 365.746 595.064 365.826 595.166 365.534C594.935 364.353 594.237 363.519 593.539 362.685C589.366 355.653 585.193 348.621 581.268 340.736C581.677 339.641 581.839 339.4 582.001 339.158C588.022 344.093 594.042 349.028 600.656 354.449C606.629 350.272 604.302 346.254 600.844 342.231C588.112 327.419 575.303 312.666 562.648 297.796C558.726 293.188 555.202 288.282 551.496 283.512C552.131 283.04 552.767 282.567 553.403 282.095C564.984 293.523 576.565 304.951 588.675 316.758C589.2 316.734 589.196 316.332 589.192 315.929C588.906 316.444 588.621 316.959 588.335 317.475C588.631 315.282 588.927 313.088 589.228 310.858C602.208 323.536 615.179 336.206 628.84 349.325C629.943 349.756 630.356 349.738 630.768 349.72C630.605 349.173 630.441 348.625 630.278 348.077C625.173 340.676 620.069 333.276 614.964 325.876C615.603 325.403 616.241 324.93 616.879 324.457C619.688 326.886 622.497 329.315 625.918 332.226C626.909 332.732 627.289 332.757 627.669 332.782C627.522 332.229 627.376 331.676 627.23 331.123C625.897 328.483 624.563 325.844 623.488 322.347C623.944 321.221 624.142 320.953 624.339 320.684C646.693 346.067 669.052 371.445 691.397 396.835C696.958 403.154 702.475 409.507 708.012 415.844C708.659 415.448 709.306 415.052 709.953 414.656C704.854 406.904 700.296 398.772 694.51 391.501C688.077 383.417 680.525 376.118 673.201 368.198C674.616 367.09 675.819 366.148 676.626 365.516C673.427 357.901 671.125 350.044 666.956 343.188C663.046 336.755 657.23 331.326 652.118 325.56C649.076 322.129 644.97 319.308 642.779 315.488C639.49 309.75 637.461 303.376 634.896 297.273C635.424 296.984 635.952 296.694 636.481 296.405C641.899 301.81 647.318 307.215 652.501 312.386C659.063 304.747 653.853 299.279 648.683 293.437C635.076 278.064 621.739 262.479 607.813 246.423C610.037 245.466 611.911 244.659 614.446 243.568C606.536 233.8 598.715 224.142 590.894 214.484C591.325 214.145 591.755 213.806 592.186 213.467C594.632 216.068 597.078 218.67 600.007 221.783C601.56 219.883 602.34 218.927 603.702 217.26C627.248 243.611 650.666 269.819 674.085 296.028C674.899 295.47 675.712 294.912 676.526 294.354C674.756 291.917 673.216 289.292 671.176 287.073C661.432 276.473 653.708 264.918 648.679 251.558C646.692 246.28 641.544 242.066 637.925 237.308C635.865 234.599 633.986 231.769 630.929 227.44C635.763 228.27 638.317 228.709 642.802 229.478C636.328 221.771 630.75 215.129 625.064 207.426C625.028 205.548 625.101 204.731 625.173 203.914C629.303 208.381 633.432 212.847 638.724 218.571C638.238 213.965 637.933 211.077 637.445 206.458C640.417 209.513 642.37 211.519 645.027 214.276C646.439 215.293 647.147 215.559 647.854 215.825C647.36 214.798 646.867 213.77 646.373 212.743C639.71 202.737 633.047 192.731 626.384 182.725C626.879 182.343 627.373 181.962 627.867 181.581C634.474 185.613 638.459 191.807 642.696 198.096C646.635 203.941 648.182 212.164 659.248 214.785C655.345 209.446 652.608 205.701 650.055 201.256C650.459 200.371 650.679 200.184 650.899 199.998C657.701 206.514 664.504 213.03 672.031 220.221C673.597 220.919 674.438 220.944 675.278 220.968C674.723 220.07 674.168 219.172 673.613 218.273C660.417 199.795 647.22 181.317 634.027 162.837C633.068 161.495 632.139 160.134 630.685 158.049C641.009 158.168 646.293 164.198 652.458 169.989C651.486 166.616 650.514 163.242 649.543 159.869C649.927 159.642 650.311 159.416 650.695 159.189C662.643 173.984 674.591 188.778 687.154 204.319C688.666 206.315 689.563 207.566 690.461 208.816C690.906 208.571 691.35 208.326 691.795 208.082C690.702 206.344 689.61 204.606 688.517 202.867C682.713 190.213 676.908 177.558 670.465 163.51C683.193 170.356 690.429 181.161 700.312 190.509C702.528 193.606 704.1 196.029 706.025 198.171C736.701 232.304 767.417 266.406 798.159 300.486C799.212 301.652 800.642 302.519 801.896 303.525C802.532 302.947 803.169 302.369 803.805 301.79C801.451 299.085 799.14 296.345 796.737 293.678C765.69 259.222 734.631 224.776 703.575 190.327C707.599 187.299 709.339 190.664 711.387 192.859C737.028 220.334 762.646 247.828 788.264 275.321C792.838 280.23 797.391 285.156 801.951 290.071C805.974 286.785 803.976 284.163 801.033 280.93C789.492 268.25 777.684 255.725 767.122 242.345C761.232 234.883 757.54 225.88 753.015 217.496C752.421 216.395 752.763 214.85 754.198 212.555C766.843 226.629 779.488 240.702 792.134 254.775C793.205 254.118 794.276 253.461 795.347 252.804C793.247 248.727 791.699 244.284 788.954 240.634C775.828 223.178 762.375 205.94 749.046 188.618C747.885 187.109 746.782 185.559 745.652 184.028C746.07 183.582 746.488 183.135 746.907 182.689C754.784 189.376 762.662 196.064 770.845 203.01C771.759 202.787 773.523 202.357 776.186 202.535C777.64 202.979 778.195 202.815 778.75 202.652C778.306 202.237 777.862 201.822 777.419 201.406C768.47 190.43 758.227 180.15 750.971 168.264C744.872 158.272 742.25 146.41 737.752 134.48C743.359 138.195 748.177 141.387 753.498 144.911C754.744 142.049 755.72 139.809 756.75 137.443C757.945 137.975 759.058 138.47 760.172 138.965C760.678 138.54 761.183 138.115 761.689 137.689C747.908 121.085 734.126 104.481 720.345 87.8769C720.938 87.3868 721.531 86.897 722.123 86.407C732.805 91.395 737.971 101.86 746.648 109.789C746.813 107.758 746.947 106.108 747.279 102.028C752.102 105.139 755.669 107.439 759.801 110.299C760.769 111.133 761.172 111.406 761.762 112.038C762.473 112.449 762.997 112.502 763.899 112.94C767.01 117.056 769.482 120.988 772.533 124.473C778.515 131.306 784.821 137.89 790.992 144.577C791.66 144.028 792.329 143.478 792.997 142.929C783.18 132.341 773.363 121.753 763.515 111.008C763.484 110.851 763.199 110.675 763.141 110.374C762.81 109.732 762.454 109.509 762.015 109.403C759.341 105.822 756.668 102.24 753.994 98.6589C754.223 98.1118 754.452 97.5646 754.68 97.0173C756.959 97.527 759.939 97.3462 761.405 98.6567C772.293 108.391 782.702 118.6 793.69 128.23C796.343 130.555 801.449 130.485 803.952 132.876C811.475 140.066 818.369 147.848 825.318 155.55C831.054 161.908 836.519 168.48 842.105 174.958C842.912 174.442 843.72 173.926 844.527 173.411C838.823 164.794 833.119 156.177 827.416 147.56C827.704 147.463 827.993 147.366 828.281 147.269C843.902 162.625 859.522 177.98 875.829 193.859C876.815 193.778 877.114 193.175 877.413 192.571C872.515 185.2 867.617 177.83 862.719 170.459C863.429 169.968 864.138 169.477 864.848 168.985C870.694 173.875 876.54 178.766 882.49 183.742C888.784 179.226 884.959 175.418 882.254 172.146C872.121 159.894 861.67 147.875 851.423 135.705C846.578 129.95 841.925 124.051 837.184 118.218C837.84 117.705 838.496 117.192 839.152 116.679C849.762 127.262 860.372 137.845 871.893 149.337C871.756 146.969 871.695 145.913 871.775 144.333C871.916 143.81 871.883 143.831 871.883 143.831C874.002 145.537 876.314 147.074 878.209 148.977C887.752 158.557 897.185 168.233 907.401 178.39C908.426 178.277 908.707 177.65 908.988 177.022C904.497 170.479 900.007 163.937 895.516 157.394C896.046 156.945 896.576 156.496 897.105 156.047C900.115 158.487 903.125 160.927 907.909 164.804C905.811 160.322 904.574 157.68 903.588 154.231C904.048 153.217 904.259 153.009 904.47 152.801C927.535 179.276 950.601 205.751 974.192 232.971C979.72 239.296 984.723 244.874 989.726 250.453C990.461 249.818 991.196 249.184 991.931 248.549C986.617 242.758 981.303 236.968 975.99 231.177C975.198 229.528 974.406 227.88 973.615 226.231C973.973 225.896 974.331 225.561 974.69 225.226C980.766 230.468 986.843 235.711 992.919 240.953C993.413 240.733 993.907 240.513 994.4 240.293C993.123 238.057 992.129 235.622 990.522 233.618C979.832 220.285 967.196 207.983 958.698 193.531C948.45 176.099 932.812 163.163 920.938 147.291C917.77 143.056 916.662 137.463 915.844 131.872C920.436 136.154 925.028 140.437 929.506 144.613C935.284 138.523 932.479 133.932 927.942 128.801C914.984 114.143 902.485 99.1282 889.301 83.662C891.058 82.7485 892.632 81.93 894.823 80.7905C887.607 71.8623 880.425 62.9768 873.243 54.0912C873.685 53.6611 874.128 53.2307 874.57 52.8006C877.192 55.0814 879.814 57.3625 882.883 60.0324C883.515 59.136 884.194 58.1727 885.441 56.4036C904.58 78.3239 923.517 100.013 942.454 121.702C943.181 121.265 943.908 120.828 944.635 120.392C933.871 102.545 923.108 84.6991 911.646 65.6942C915.112 66.7983 917.441 67.5404 922.185 69.0514C914.569 59.9365 908.234 52.3539 902.119 43.8803C902.553 42.6863 902.767 42.3831 902.982 42.0802C907.342 46.7747 911.703 51.4693 917.04 57.2156C916.79 53.3236 916.624 50.7387 916.404 47.3091C917.877 48.2776 918.867 48.9284 920.437 50.3494C921.436 51.8561 921.856 52.5927 922.275 53.3291C922.665 53.1733 923.055 53.0173 923.444 52.8615C922.922 51.5321 922.4 50.2028 921.877 48.8733C916.61 40.7533 911.344 32.6331 906.077 24.513C920.043 30.335 921.3 46.7015 933.166 54.1297C933.766 53.6895 934.366 53.2494 934.966 52.809C932.827 49.7119 930.688 46.6148 928.549 43.5176C928.973 43.1251 929.396 42.7325 929.82 42.34C936.457 48.4705 943.095 54.6009 949.732 60.7314C950.295 60.3267 950.858 59.922 951.421 59.5172C937.732 40.3449 924.043 21.1724 910.353 1.99996C910.981 1.33325 911.609 0.666717 912.236 1.05791e-05C917.348 3.66897 922.46 7.33792 928.186 11.7072C929.297 12.7649 929.794 13.1223 930.292 13.4798C930.018 12.5385 929.744 11.5975 929.47 10.6563C929.145 9.41051 928.821 8.16492 928.71 6.18326C929.134 5.26602 929.343 5.08485 929.552 4.90351C949.187 29.3732 968.822 53.8433 988.459 78.3114C989.96 80.1808 991.479 82.0368 993.453 84.6843C1002.86 96.5163 1011.8 107.563 1020.88 119.094C1021.98 121.144 1022.93 122.708 1023.87 124.273C1024.58 123.584 1025.29 122.895 1026 122.207C1024.73 120.653 1023.46 119.099 1021.94 117.116C1013.36 105.851 1005.02 95.0138 996.687 84.177C979.402 59.2151 962.116 34.2531 944.831 9.29128C945.657 8.52674 946.482 7.7622 947.308 6.99749C950.185 9.00796 953.612 10.5862 955.855 13.0957C978.419 38.3349 1000.78 63.734 1023.22 89.0735C1037.29 104.971 1051.4 120.844 1065.82 137.1C1067.86 135.413 1069.47 134.075 1071.36 132.508C1073.9 134.694 1076.43 136.879 1079.61 139.761C1081.37 141.356 1082.48 142.253 1083.59 143.15C1084.24 142.533 1084.9 141.915 1085.56 141.298C1084.26 140.695 1082.96 140.092 1081.66 139.489C1078.31 133.54 1075.79 126.988 1071.46 121.755C1058.71 106.353 1044.73 91.8398 1032.32 76.2142C1027.19 69.7595 1024.85 61.3568 1021.25 53.8402C1022.04 53.3662 1022.83 52.8922 1023.62 52.4182C1036.53 66.9736 1049.45 81.529 1062.37 96.0846C1062.82 95.8753 1063.27 95.6662 1063.72 95.4569C1061.13 88.6847 1058.53 81.9126 1055.94 75.1406C1056.53 74.7073 1057.13 74.2741 1057.73 73.8408C1078.86 98.3892 1099.98 122.938 1121.11 147.486C1121.77 147.009 1122.42 146.532 1123.08 146.056C1118.12 138.67 1113.17 131.285 1108.41 123.107C1108.77 122.094 1108.95 121.874 1109.12 121.654C1112.77 123.434 1116.41 125.213 1121.62 127.757C1120.16 125.083 1119.38 123.982 1118.93 122.773C1117.13 117.896 1110.83 114.308 1115.49 107.475C1116.97 105.304 1114 100.455 1112.82 95.8844C1116.49 96.7564 1119.65 97.5089 1123.37 98.3925C1122.72 95.6294 1122.11 93.0411 1121.34 89.8019C1123.34 90.2649 1124.8 90.6037 1126.44 90.9847C1126.44 90.1403 1126.71 89.3207 1126.39 88.9194C1123.56 85.3553 1120.37 82.0156 1117.8 78.2945C1116.39 76.2492 1115.97 73.5986 1115.69 70.8998C1116.26 70.5789 1116.31 70.4338 1116.31 70.4338C1118.46 72.7021 1119.31 76.8384 1124.54 73.5032C1126.17 72.4702 1130.35 74.9798 1134.06 76.073C1133.59 73.8957 1133.24 72.2163 1132.77 70.0144C1151.62 70.2514 1161.67 82.6619 1171.95 94.7475C1172.66 94.2753 1173.37 93.8032 1174.08 93.3311C1170.99 88.5393 1167.89 83.7474 1165.02 78.2695C1165.47 77.4016 1165.71 77.2201 1165.95 77.0384C1175.06 86.4841 1184.17 95.9296 1193.6 105.715C1196.48 99.4792 1192.25 95.6743 1189.75 90.6282C1190.16 89.5217 1190.36 89.2608 1190.57 89C1192.21 90.7495 1193.85 92.4991 1196.48 95.3111C1196.86 92.4701 1197.06 90.9483 1197.36 88.7351C1204.71 94.3213 1211.66 99.7892 1218.88 104.918C1220.38 105.985 1222.9 105.796 1224.99 105.646C1233.37 109.178 1235.03 121.351 1248.19 121.123C1253.27 126.117 1257.36 130.819 1261.45 135.521C1262.16 134.999 1262.86 134.476 1263.57 133.954C1258.69 128.359 1259.56 118.926 1249.29 116.944C1252.05 113.135 1249.56 110.742 1246.49 108.864C1245.22 108.091 1243.31 108.25 1242.46 108.111C1239.85 103.683 1237.18 99.1652 1233.9 93.5998C1248.74 100.82 1258.96 111.432 1268.82 123.061C1274.23 115.602 1278.8 120.195 1281.17 124.626C1283.46 128.921 1286.68 130.882 1290.75 132.782C1292.61 133.648 1293.97 135.458 1295.01 138.657C1291.16 138.479 1287.3 138.3 1283.44 138.122C1283.22 138.772 1283 139.422 1282.78 140.072C1286.09 140.96 1289.39 141.856 1292.7 142.722C1292.91 142.776 1293.17 142.562 1293.42 142.543C1299.02 142.107 1314.9 149.994 1319.48 156.908C1310.49 154.539 1303.37 152.944 1297.18 148.577C1296.73 155.827 1300.14 158.972 1308.02 158.842C1310.24 158.805 1312.47 159.338 1314.7 159.61C1314.69 160.231 1314.68 160.852 1314.67 161.474C1312.66 162.76 1310.64 164.046 1308.14 165.647C1310.11 167.601 1311.89 169.377 1312.21 169.696C1317.1 169.276 1321.73 167.69 1323.13 169.043C1325.09 170.953 1324.66 175.036 1325.5 179.549C1325.37 179.535 1327.61 179.339 1329.44 180.055C1332.94 181.426 1336.87 182.696 1339.47 185.104C1347.79 192.817 1355.72 200.915 1363.45 209.16C1364.81 210.608 1365.57 214.816 1364.68 215.479C1358.93 219.769 1362.34 223.195 1365.48 227.347C1368.38 225.867 1371.31 224.37 1374.03 222.98C1387.2 236.567 1400.16 249.938 1413.32 263.518C1410.5 265.469 1408.6 266.788 1406.81 268.035C1427.72 290.549 1449.77 311.706 1467.9 335.874C1467.34 336.317 1466.79 336.761 1466.24 337.205C1462.14 333.574 1458.05 329.943 1453.95 326.312C1453.59 326.49 1453.23 326.668 1452.87 326.846C1454.1 328.832 1455.07 331.011 1456.59 332.776C1479.72 359.636 1502.41 386.851 1526.25 413.154C1555.63 445.585 1586.1 477.15 1615.77 509.354C1619.66 513.577 1625.69 517.604 1623.42 524.997C1623.17 525.823 1625.63 527.337 1626.77 528.588C1636 538.786 1645.21 548.998 1654.25 559.844C1654.07 560.482 1653.46 560.875 1653.46 560.875C1650.41 559.148 1647.37 557.422 1643.5 555.23C1639.58 551.672 1636.49 548.578 1633.19 545.189C1632.41 544.44 1631.85 543.986 1631.13 543.106C1629.13 541.145 1627.28 539.61 1625.43 538.075C1625.13 538.368 1624.84 538.661 1624.54 538.954C1626.37 540.865 1628.21 542.777 1630.26 545.01C1631.07 545.84 1631.64 546.35 1632.39 547.307C1636.05 551.142 1639.54 554.53 1643.03 557.918C1645.65 561.306 1648.4 564.617 1650.79 568.14C1651.32 568.918 1650.59 570.447 1649.71 571.344C1648.68 571.634 1648.38 572.211 1648.07 572.788C1655.3 583.673 1662.53 594.557 1669.97 605.762C1668.83 605.884 1667.94 606.257 1667.52 605.985C1645.03 591.482 1624.08 575.265 1604.88 557.035C1600.74 553.103 1598.42 547.684 1591.8 545.524C1588.57 544.471 1586.87 539.287 1583.78 535.009C1582.53 535.451 1579.77 536.422 1577.35 537.275C1583.2 545.401 1588.77 553.145 1594.34 560.889C1593.8 561.25 1593.26 561.612 1592.71 561.974C1580.76 551.756 1568.81 541.537 1556.23 530.676C1551.33 525.931 1547.05 521.829 1542.67 517.443C1542.37 516.799 1542.09 516.507 1541.47 515.931C1540.55 515.057 1539.88 514.534 1539.12 513.644C1538.57 513.074 1538.11 512.872 1537.52 512.29C1537.03 511.876 1536.66 511.843 1536.29 511.811C1536.44 512.351 1536.6 512.892 1536.92 513.732C1537.39 514.403 1537.77 514.679 1538.42 515.217C1539.19 516.109 1539.78 516.643 1540.45 517.536C1540.94 518.164 1541.35 518.433 1541.9 519.165C1546.02 523.999 1550 528.37 1553.99 532.741C1560.84 541.798 1567.68 550.856 1574.53 559.914C1574.05 560.366 1573.56 560.819 1573.08 561.271C1570.35 559.184 1567.79 556.857 1564.85 555.069C1561.17 552.825 1557.18 551.028 1553.33 549.022C1552.92 548.808 1552.23 548.466 1552.24 548.217C1552.87 538.63 1541.45 539.516 1537.86 533.62C1536.64 531.609 1535.57 529.457 1533.99 527.714C1532.84 526.434 1530.98 525.717 1529.43 524.749C1528.68 525.459 1527.93 526.168 1527.17 526.878C1541.65 543.041 1556.06 559.251 1570.61 575.354C1588.12 594.739 1605.8 613.992 1623.27 633.406C1626.05 636.484 1628.13 640.107 1630.53 643.479C1629.96 643.88 1629.4 644.282 1628.84 644.684C1624.79 640.628 1620.74 636.572 1616.69 632.516C1615.96 632.993 1615.22 633.471 1614.49 633.948C1618.02 639.153 1621.56 644.358 1625.09 649.563C1624.73 649.921 1624.37 650.279 1624.01 650.637C1622.06 648.915 1619.97 647.307 1618.17 645.455C1573 599.09 1527.75 552.794 1482.76 506.277C1457.48 480.136 1432.66 453.601 1407.54 427.32C1405.43 425.106 1402.62 423.476 1400.13 421.575C1399.53 422.19 1398.93 422.804 1398.34 423.419C1401.85 427.152 1405.35 430.9 1408.88 434.617C1481.16 510.661 1553.49 586.669 1625.61 662.85C1628.9 666.324 1630.25 671.394 1632.62 675.665C1634.1 678.351 1635.77 680.951 1637.41 683.56C1638.98 686.05 1640.62 688.502 1640.88 692.052C1637.01 689.335 1633.13 686.617 1628.62 683.255C1623.81 678.777 1619.56 675.019 1615.49 671.097C1607.19 663.11 1599 655.033 1590.66 646.861C1590.56 646.729 1590 646.322 1589.73 645.948C1588.47 645.177 1587.49 644.78 1586.5 644.384C1586.34 644.657 1586.18 644.931 1586.02 645.204C1586.86 645.881 1587.7 646.558 1588.64 647.587C1589.15 648.191 1589.58 648.443 1590.19 649.137C1594.73 654.031 1599.08 658.493 1603.45 662.935C1611.12 670.74 1618.82 678.533 1626.5 686.331C1628.29 688.412 1630.07 690.492 1631.86 692.573C1631.34 692.998 1630.83 693.423 1630.31 693.849C1627.15 691.611 1624 689.374 1620.1 686.645C1618.42 685.865 1617.49 685.575 1616.56 685.285C1616.33 685.619 1616.1 685.953 1615.88 686.287C1616.81 686.93 1617.74 687.574 1618.67 688.217C1631.49 703.34 1644.39 718.408 1657.06 733.647C1658.86 735.805 1659.52 738.791 1660.11 741.149C1659.16 740.586 1658.8 740.269 1658.33 739.597C1657.78 739.014 1657.34 738.788 1656.73 738.163C1656.25 738.367 1655.92 738.968 1655.78 739.848C1656.29 740.44 1656.64 740.726 1657.16 741.276C1657.64 741.869 1658 742.136 1658.38 742.37C1673.9 760.07 1689.43 777.769 1704.72 796.304C1704.25 797.396 1704.02 797.651 1703.79 797.906C1687.49 782.443 1671.19 766.979 1654.89 751.515C1654.22 751.981 1653.55 752.448 1652.88 752.914C1655.78 757.598 1658.29 762.557 1661.67 766.914C1672.13 780.396 1682.98 793.617 1693.51 807.053C1694.3 808.062 1693.8 809.964 1693.19 810.709C1685.15 802.659 1677.81 795.35 1670.31 787.609C1669.24 786.751 1668.32 786.326 1667.41 785.902C1667.91 786.98 1668.42 788.058 1669.19 789.549C1676.68 797.96 1683.89 805.958 1691.11 813.957C1699.85 824.5 1708.59 835.043 1717.04 845.986C1716.74 846.386 1716.81 846.303 1716.81 846.303C1711.35 843.316 1705.81 840.439 1700.45 837.306C1696.33 834.902 1694.14 830.412 1687.4 830.977C1683.82 831.277 1679.71 825.938 1675.84 823.145C1675.15 823.704 1674.47 824.263 1673.78 824.822C1682.41 835.206 1691.04 845.59 1699.67 855.974C1699.34 856.335 1699.01 856.697 1698.67 857.058C1696.53 856.216 1694.38 855.373 1691.67 854.333C1690.91 854.25 1690.72 854.365 1690.53 854.481C1690.63 854.595 1690.74 854.71 1690.85 854.824C1691.1 854.371 1691.35 853.918 1691.6 853.465C1692.71 856.032 1693.46 858.812 1695.01 861.117C1697.53 864.853 1700.57 868.277 1703.22 872.606C1702.88 873.601 1702.7 873.823 1702.51 874.045C1695.77 870.758 1689.02 867.47 1681.94 864.019C1690.3 890.421 1716.63 905.76 1728 930.42C1718.72 920.86 1709.44 911.3 1699.79 901.351C1698.99 902.601 1698.35 903.605 1697.2 905.406C1685.2 894.317 1673.36 883.373 1660.1 871.112C1665.09 879.087 1669.08 885.464 1673.07 891.84C1672.54 892.203 1672.01 892.567 1671.48 892.93C1668.86 890.957 1666.25 888.984 1662.24 885.953C1663.39 889.144 1664.02 890.919 1664.5 893.436C1664.13 894.354 1663.93 894.53 1663.73 894.706C1642.5 870.389 1621.25 846.082 1600.04 821.75C1588 807.937 1576.01 794.082 1563.39 779.623C1560.28 776.071 1557.77 773.142 1555.26 770.214C1554.57 770.858 1553.89 771.502 1553.21 772.146C1556.14 774.713 1559.06 777.28 1561.98 779.848C1561.43 781.275 1560.88 782.703 1560 784.983C1555.45 779.658 1551.49 775.038 1546.98 769.718C1529.03 749.45 1511.64 729.883 1494.1 709.882C1493.06 709.016 1492.16 708.584 1491.27 708.152C1491.74 709.231 1492.21 710.311 1492.95 711.813C1510.04 732.376 1526.86 752.516 1543.69 772.656C1564.36 797.579 1585.03 822.502 1605.69 847.431C1606.3 848.164 1606.81 848.972 1607.1 850.153C1606.85 850.562 1606.93 850.47 1606.32 850.516C1605.25 850.919 1604.79 851.275 1604.33 851.631C1605.21 851.752 1606.09 851.873 1606.91 851.966C1606.85 851.938 1606.73 851.895 1606.73 851.895C1609.5 856.022 1611.84 860.493 1615.14 864.214C1626.11 876.603 1637.61 888.582 1648.5 901.037C1651.43 904.389 1654.97 909.095 1647.08 912.211C1644.87 910.044 1642.67 907.877 1640.4 905.646C1634.08 907.877 1635.18 912.121 1637.65 915.79C1640.84 920.524 1644.83 924.794 1648.6 929.172C1658.82 941.046 1669.1 952.872 1679.88 965.326C1677.74 966.05 1676.12 966.598 1673.7 967.418C1680.87 976.406 1687.91 985.246 1694.96 994.086C1694.46 994.509 1693.97 994.932 1693.47 995.355C1691.47 993.584 1689.47 991.813 1687.13 989.744C1686.38 990.924 1685.67 992.031 1684.48 993.886C1664.62 971.59 1644.96 949.516 1624.66 926.773C1622.19 924.282 1620.35 922.46 1618.52 920.639C1618.05 921.07 1617.58 921.502 1617.12 921.933C1619.09 924.17 1621.07 926.406 1623.04 928.643C1629.73 939.996 1636.22 951.452 1643.17 962.658C1646.77 968.454 1651.17 973.805 1655.01 980.096C1654.81 980.834 1654.34 981.331 1654.34 981.331C1652.31 980.459 1650.27 979.587 1648.23 978.715C1647.85 978.989 1647.47 979.263 1647.09 979.537C1657.67 992.473 1668.24 1005.41 1678.82 1018.35C1678.12 1018.83 1677.41 1019.32 1676.71 1019.81C1668.84 1010.85 1660.97 1001.89 1652.23 991.936C1652.23 995.306 1652.23 997.445 1652.23 999.583C1651.16 999.449 1650.1 999.316 1648.47 998.57C1647.91 997.958 1647.42 997.585 1647.3 997.118C1644.11 992.829 1641.05 989.007 1637.78 984.821C1636.69 983.369 1635.8 982.281 1634.66 980.788C1633.45 979.538 1632.48 978.693 1631.51 977.848C1631.25 978.141 1630.99 978.433 1630.74 978.726C1631.72 979.897 1632.71 981.069 1633.79 982.673C1634.82 984.234 1635.76 985.364 1636.83 986.964C1639.98 991.26 1643.01 995.086 1646.08 999.141C1646.12 999.371 1646.51 999.664 1646.51 999.664C1651.79 1007.74 1657.08 1015.83 1662.36 1023.91C1661.43 1024.47 1660.49 1025.04 1659.56 1025.61C1652.52 1015.99 1645.49 1006.36 1638.45 996.737C1637.89 997.018 1637.33 997.298 1636.77 997.579C1637.46 1000.08 1638.14 1002.58 1638.83 1005.07C1638.16 1005.62 1637.48 1006.16 1636.81 1006.7C1631.77 1000.59 1626.73 994.493 1621.69 988.392C1620.63 989.261 1619.58 990.131 1618.52 991C1631.77 1009.37 1645.01 1027.73 1658.73 1046.75C1647.85 1047.79 1645.13 1039.16 1637.98 1033.49C1639.44 1038.39 1640.48 1041.88 1641.51 1045.37C1641.15 1045.57 1640.78 1045.76 1640.42 1045.96C1617.15 1016.64 1593.88 987.332 1570.05 957.332C1567.89 954.73 1566.28 952.817 1564.59 950.427C1556.63 940.279 1548.76 930.608 1540.81 920.585C1540.33 919.952 1539.93 919.671 1539.43 918.96C1538.87 918.146 1538.42 917.761 1537.89 916.926C1534.35 912.301 1530.87 908.128 1527.21 903.495C1526.13 902.435 1525.22 901.834 1524.32 901.233C1524.11 901.463 1523.91 901.694 1523.7 901.925C1524.48 902.972 1525.27 904.019 1526.34 905.462C1530.14 910.113 1533.67 914.367 1537.29 918.983C1537.74 919.695 1538.09 920.045 1538.53 920.675C1538.81 921.308 1539.07 921.603 1539.66 922.279C1547.65 932.617 1555.39 942.516 1563.27 952.845C1564.95 955.106 1566.5 956.937 1568.05 958.768C1585.38 984.041 1602.72 1009.31 1620.02 1034.6C1621.23 1036.37 1622.09 1038.36 1623.11 1040.25C1622.43 1040.8 1621.76 1041.36 1621.09 1041.92C1617.99 1039.32 1614.49 1037.03 1611.85 1034.07C1574.17 991.874 1536.61 949.584 1499 907.328C1497.1 905.191 1495.06 903.16 1492.27 900.219C1492.13 902.498 1492.06 903.701 1491.91 906.244C1484.78 900.878 1478.25 895.954 1471.71 891.031C1496.06 926.763 1528.26 957.418 1551.41 995.475C1548.01 995.741 1545.98 995.9 1543.32 996.107C1544.65 998.143 1545.77 999.879 1546.87 1002.32C1546.63 1003.22 1546.43 1003.4 1546.23 1003.57C1537.17 994.924 1528.1 986.285 1519.06 977.615C1516.97 975.61 1515 973.499 1512.8 971.264C1512.39 972.626 1512.08 973.626 1511.9 974.226C1479.78 938.887 1447.6 903.471 1414.77 867.403C1405.82 858.173 1397.52 849.596 1388.88 840.598C1387.95 840.43 1387.36 840.683 1386.76 840.936C1387.24 841.405 1387.71 841.874 1388.35 842.795C1396.97 852.404 1405.43 861.561 1413.88 870.718C1440.68 900.78 1467.44 930.878 1494.29 960.895C1515.56 984.657 1537.57 1007.86 1558.03 1032.21C1569.87 1046.3 1579.12 1062.29 1589.87 1077.21C1595.32 1084.77 1601.53 1091.86 1607.28 1099.86C1606.92 1100.74 1606.69 1100.93 1606.45 1101.12C1599.63 1094.36 1592.97 1087.45 1585.91 1080.92C1581.52 1076.86 1576.53 1073.38 1571.1 1069.08C1541.88 1035.4 1511.78 1003.6 1480.98 972.345C1480.99 974.347 1481.83 975.699 1482.88 976.88C1498.97 994.89 1515.01 1012.93 1531.21 1030.85C1543.79 1044.78 1556.56 1058.55 1569.25 1072.39ZM793.776 145.144C793.2 145.26 792.625 145.376 792.05 145.493C792.526 145.917 793.001 146.341 793.72 147.55C794.102 147.567 794.483 147.585 794.865 147.602C794.716 147.051 794.566 146.5 793.776 145.144ZM609.962 1259.48C609.537 1259.23 609.113 1258.98 608.448 1258.02C607.976 1257.84 607.505 1257.65 606.676 1256.66C606.257 1256.71 605.839 1256.75 605.42 1256.79C605.642 1257.37 605.864 1257.94 606.483 1259.06C606.811 1259.39 607.213 1259.6 607.903 1260.4C608.307 1260.69 608.71 1260.98 609.219 1261.71C609.38 1261.99 609.615 1262.19 610.513 1263.32C611.677 1264.06 612.842 1264.79 614.007 1265.53C614.652 1264.86 615.296 1264.19 615.941 1263.51C614.512 1262.88 613.084 1262.24 611.466 1260.88C611.025 1260.66 610.584 1260.43 609.962 1259.48ZM1030 1176.05C1029.67 1175.96 1029.34 1175.87 1029.01 1175.79C1029.12 1176.46 1029.22 1177.14 1029.96 1178.69C1030.57 1178.51 1031.19 1178.34 1031.8 1178.16C1031.27 1177.75 1030.74 1177.33 1030 1176.05ZM962.458 1313.1C962.017 1312.87 961.576 1312.64 960.948 1311.7C960.527 1311.45 960.107 1311.2 959.035 1309.92C958.437 1310.08 957.84 1310.23 957.242 1310.38C957.674 1311.09 958.106 1311.81 958.908 1313.13C959.139 1313.58 959.511 1313.88 960.411 1314.75C960.874 1315.05 961.336 1315.35 962.719 1316.22C962.695 1315.42 962.672 1314.62 962.458 1313.1ZM954.926 1306.02C954.474 1305.8 954.023 1305.59 953.404 1304.65C952.97 1304.41 952.536 1304.17 951.869 1303.19C951.396 1303.01 950.924 1302.83 950.241 1301.89C949.861 1301.88 949.48 1301.88 949.1 1301.87C949.333 1302.32 949.567 1302.77 949.921 1304C950.275 1304.4 950.629 1304.8 951.412 1305.72C951.709 1306.06 952.067 1306.33 952.869 1307.14C953.135 1307.57 953.516 1307.86 954.782 1308.84C955.344 1308.69 955.907 1308.55 956.469 1308.41C956.027 1307.85 955.586 1307.29 954.926 1306.02ZM241.101 439.126C240.516 439.235 239.931 439.344 239.345 439.453C239.837 439.872 240.329 440.29 240.978 441.515C241.472 441.67 241.965 441.825 242.546 442.667C242.84 442.557 243.133 442.447 243.427 442.337C243.046 442.261 242.665 442.185 242.819 441.368C242.479 440.875 242.139 440.381 241.101 439.126ZM69.4229 752.837C68.8528 752.897 68.2828 752.957 67.7127 753.017C68.169 753.529 68.6253 754.041 69.3535 755.39C69.7772 755.423 70.2008 755.456 70.6244 755.489C70.4559 754.9 70.2874 754.31 69.4229 752.837ZM505.041 314.324C504.736 313.804 504.43 313.284 503.529 311.955C493.786 300.533 484.592 288.639 473.394 278.471C472.624 279.12 471.854 279.769 471.084 280.417C481.638 291.483 492.192 302.549 502.991 314.393C503.49 314.525 503.99 314.658 504.631 315.49C504.9 315.447 505.169 315.405 505.438 315.363C505.392 315.198 505.354 314.893 505.298 314.89C504.989 314.874 504.674 314.931 505.041 314.324ZM298.734 633.03C298.447 632.716 298.128 632.432 297.318 631.453C296.667 630.907 296.017 630.361 295.03 628.915C290.553 624.083 286.076 619.251 281.231 613.537C251.149 579.995 221.067 546.453 190.985 512.911C190.177 513.556 189.368 514.202 188.559 514.847C219.07 548.527 249.581 582.207 280.44 616.777C285.018 621.532 289.596 626.287 294.598 631.684C295.202 632.145 295.806 632.606 296.622 633.762C297.046 634.007 297.47 634.253 298.089 635.248C298.555 635.42 299.021 635.593 300.471 636.107C301.923 637.843 303.376 639.578 304.828 641.313C305.038 641.126 305.248 640.938 305.458 640.751C303.412 639.129 301.367 637.507 300.01 635.173C299.699 634.635 299.388 634.098 298.734 633.03ZM1629.06 726.126C1629.44 726.487 1629.82 726.848 1630.45 727.669C1630.68 727.956 1630.97 728.155 1632.08 729.124C1632.65 729.124 1633.23 729.124 1633.81 729.124C1633.44 728.535 1633.07 727.945 1632.5 726.649C1632.07 726.404 1631.65 726.159 1630.96 725.168C1630.48 725.002 1630 724.836 1629.28 724.107C1629.09 724.548 1628.9 724.989 1629.06 726.126ZM1382.08 836.19C1382.32 836.583 1382.65 836.888 1383.45 837.672C1383.76 838.013 1384.11 838.298 1385.19 839.43C1385.77 839.388 1386.34 839.346 1386.92 839.304C1386.51 838.74 1386.11 838.175 1385.5 836.911C1385.1 836.644 1384.69 836.378 1384.06 835.407C1383.61 835.192 1383.16 834.977 1382.37 833.863C1381.81 833.939 1381.25 834.016 1380.69 834.092C1381.07 834.584 1381.45 835.075 1382.08 836.19ZM1278.18 1204.18C1279.08 1204.47 1279.98 1204.76 1280.89 1205.05C1280.26 1204.05 1279.63 1203.06 1278.59 1201.37C1278.22 1201.97 1277.85 1202.58 1278.18 1204.18ZM695.59 362.253C696.119 362.507 696.649 362.761 697.178 363.014C696.95 362.31 696.722 361.605 696.142 360.159C695.551 359.612 694.96 359.064 694.069 357.591C690.527 353.457 686.985 349.324 682.854 344.382C678.424 339.375 673.994 334.367 669.023 328.574C666.979 326.317 664.936 324.059 662.893 321.802C662.365 322.265 661.838 322.727 661.311 323.189C663.648 325.674 665.985 328.16 668.616 331.569C673.03 336.444 677.445 341.319 682.163 347.11C685.859 351.298 689.554 355.486 693.688 360.308C694.3 360.756 694.911 361.203 695.59 362.253ZM373.368 449.574C372.627 449.105 371.885 448.635 371.144 448.166C370.941 448.412 370.737 448.658 370.534 448.904C371.189 449.783 371.845 450.663 372.968 452.14C373.532 452.627 374.095 453.114 374.923 454.455C376.122 455.822 377.322 457.189 378.931 459.201C379.486 459.718 380.04 460.235 380.852 461.639C382.781 463.686 384.711 465.733 386.951 468.658C388.656 470.5 390.36 472.341 392.492 474.802C393.042 475.303 393.593 475.804 394.422 477.178C395.712 478.522 397.002 479.866 399.038 481.727C399.443 481.633 399.849 481.538 400.254 481.444C399.949 480.938 399.644 480.432 399.106 479.069C397.877 477.749 396.648 476.429 394.999 474.449C394.432 473.927 393.865 473.405 393 472.033C391.37 470.249 389.739 468.465 387.517 465.934C385.628 463.828 383.74 461.721 381.43 458.944C380.88 458.397 380.329 457.849 379.516 456.464C378.297 455.152 377.078 453.841 375.47 451.832C374.853 451.342 374.235 450.852 373.368 449.574ZM1587.78 488.598C1588.97 489.571 1590.17 490.543 1591.36 491.515C1591.68 491.171 1592 490.827 1592.32 490.483C1591.23 489.334 1590.14 488.185 1588.85 486.339C1588.44 486.078 1588.03 485.817 1587.28 484.655C1583.5 480.469 1579.72 476.283 1575.94 472.097C1575.25 472.657 1574.56 473.217 1573.87 473.777C1578.13 478.208 1582.38 482.639 1586.82 487.301C1586.82 487.301 1587.27 487.678 1587.78 488.598ZM1099.38 158.15C1098.44 156.549 1097.5 154.947 1096.56 153.346C1095.86 154.041 1095.15 154.736 1094.45 155.432C1095.79 156.979 1097.13 158.526 1098.98 160.863C1099.51 161.187 1100.05 161.512 1100.58 161.836C1100.24 160.94 1099.91 160.045 1099.38 158.15ZM938.323 154.622C939.489 155.997 940.655 157.372 942.346 159.56C947.406 165.216 952.466 170.871 957.626 177.196C958.348 177.35 959.069 177.504 959.791 177.657C959.366 176.953 958.942 176.249 958.056 174.701C953.052 169.018 948.047 163.334 942.75 156.757C941.231 155.77 939.711 154.784 937.657 153.742C937.533 153.407 937.408 153.072 937.283 152.737C937.602 153.07 937.921 153.404 938.323 154.622ZM1183.56 1154.12C1184.83 1155.43 1186.11 1156.74 1187.81 1158.91C1191.07 1162.55 1194.34 1166.19 1197.61 1169.83C1198.28 1169.2 1198.96 1168.56 1199.63 1167.92C1195.92 1164.28 1192.21 1160.64 1188.24 1156.13C1186.97 1154.79 1185.69 1153.45 1183.75 1151.79C1183.39 1151.88 1183.03 1151.96 1182.67 1152.05C1182.93 1152.44 1183.19 1152.83 1183.56 1154.12ZM1037.64 136.887C1036.37 135.639 1035.1 134.39 1033.83 133.141C1033.48 133.501 1033.12 133.861 1032.76 134.221C1034.07 135.789 1035.39 137.357 1037.11 139.611C1037.67 140.154 1038.24 140.697 1039.01 142.193C1042.4 146.393 1045.78 150.593 1049.17 154.793C1049.72 154.364 1050.27 153.936 1050.82 153.507C1047.18 149.123 1043.53 144.739 1039.56 139.609C1039 139.029 1038.45 138.45 1037.64 136.887ZM968.294 1258.79C969.568 1260.18 970.843 1261.57 972.827 1263.79C972.946 1263.03 973.064 1262.28 972.962 1260.65C971.731 1259.26 970.501 1257.88 968.763 1255.77C967.841 1255.02 966.919 1254.27 965.997 1253.52C965.723 1253.78 965.449 1254.03 965.175 1254.29C966.11 1255.5 967.045 1256.71 968.294 1258.79ZM1030.55 128.007C1029.15 126.414 1027.75 124.822 1026.35 123.229C1025.87 123.633 1025.39 124.037 1024.92 124.441C1026.52 126.275 1028.13 128.109 1030.01 130.951C1030.98 131.615 1031.94 132.28 1032.91 132.945C1033.14 132.693 1033.38 132.441 1033.62 132.19C1032.8 131.077 1031.98 129.964 1030.55 128.007ZM1296.1 1125.01C1297.49 1126.57 1298.89 1128.12 1300.29 1129.67C1300.72 1129.3 1301.15 1128.92 1301.58 1128.55C1299.99 1126.76 1298.4 1124.97 1296.68 1122.48C1296 1122.21 1295.32 1121.95 1294.63 1121.68C1294.93 1122.51 1295.22 1123.35 1296.1 1125.01ZM1032.99 1182.65C1034.82 1184.44 1036.64 1186.23 1038.47 1188.02C1039 1187.5 1039.53 1186.97 1040.06 1186.45C1037.97 1184.35 1035.89 1182.24 1033.07 1179.32C1032.94 1180.1 1032.81 1180.87 1032.99 1182.65ZM225.136 646.805C223.208 644.647 221.28 642.49 219.351 640.333C218.818 640.754 218.285 641.176 217.751 641.597C219.825 643.97 221.898 646.343 224.081 649.684C224.912 650.125 225.744 650.566 226.576 651.007C226.282 649.902 225.988 648.797 225.136 646.805ZM237.932 435.211C235.525 432.668 233.119 430.126 230.43 426.66C226.225 421.852 222.021 417.043 217.816 412.235C218.939 419.649 224.843 423.865 229.985 429.689C232.37 432.232 234.756 434.776 237.843 438.109C238.427 437.907 239.012 437.705 239.596 437.503C239.124 437.042 238.652 436.581 237.932 435.211ZM1085.81 146.402C1088.08 148.77 1090.36 151.139 1093.36 154.235C1093.44 153.494 1093.52 152.754 1093.28 151.129C1091.03 148.821 1088.78 146.514 1085.83 143.379C1085.23 143.619 1084.63 143.859 1084.03 144.099C1084.51 144.57 1084.99 145.04 1085.81 146.402ZM852.393 1273.35C849.977 1270.83 847.561 1268.32 844.753 1264.92C841.719 1261.85 838.684 1258.77 835.649 1255.69C835.077 1256.23 834.504 1256.77 833.931 1257.3C837.25 1260.65 840.568 1263.99 844.416 1268.08C846.772 1270.65 849.129 1273.21 852.036 1276.41C852.569 1276.52 853.102 1276.63 853.635 1276.74C853.333 1275.9 853.031 1275.07 852.393 1273.35ZM1423.84 1128.96C1421.04 1125.88 1418.23 1122.81 1414.86 1118.92C1408.03 1111.12 1401.21 1103.33 1394.38 1095.54C1393.64 1096.13 1392.89 1096.72 1392.15 1097.31C1399.35 1105.15 1406.55 1112.98 1414.14 1121.69C1417.03 1124.7 1419.91 1127.72 1423.1 1131.74C1423.65 1131.79 1424.21 1131.84 1424.76 1131.89C1424.64 1131.19 1424.51 1130.5 1423.84 1128.96ZM1621.96 887.028C1624.73 890.259 1627.51 893.489 1630.29 896.72C1630.85 896.284 1631.42 895.849 1631.98 895.413C1628.93 891.961 1625.88 888.509 1622.42 884.385C1621.86 883.848 1621.3 883.311 1620.43 881.854C1617.2 878.224 1613.98 874.593 1610.76 870.962C1610.15 871.499 1609.54 872.036 1608.94 872.573C1612.46 876.348 1615.98 880.122 1619.9 884.583C1620.49 885.089 1621.08 885.596 1621.96 887.028ZM1680.82 860.508C1677.5 856.726 1675.94 851.094 1667.44 849.727C1672.52 855.126 1676.23 859.08 1680.73 863.862C1681.29 863.633 1681.84 863.404 1682.4 863.175C1681.96 862.6 1681.52 862.025 1680.82 860.508ZM147.519 798.046C151.104 801.689 154.689 805.333 158.274 808.976C159.155 808.163 160.035 807.35 160.916 806.537C156.729 803.065 152.543 799.593 147.85 795.305C139.125 785.995 139.125 785.995 135.506 787.794C139.409 790.909 143.311 794.023 147.519 798.046ZM1144.48 193.493C1141.02 189.893 1137.57 186.292 1134.11 182.692C1133.62 183.124 1133.13 183.555 1132.64 183.987C1136.31 187.994 1139.97 192.002 1144.21 196.77C1145.96 198.703 1147.7 200.636 1149.45 202.569C1150.02 202.111 1150.6 201.652 1151.18 201.194C1149.07 198.92 1146.97 196.645 1144.48 193.493ZM204.716 414.979C209.389 420.124 214.062 425.269 218.735 430.414C219.366 429.908 219.997 429.403 220.628 428.897C215.562 423.496 210.497 418.094 204.645 412.382C204.247 412.522 203.848 412.661 203.449 412.801C203.787 413.216 204.125 413.631 204.716 414.979ZM258.939 624.624C254.316 619.427 249.693 614.229 245.07 609.032C244.433 609.577 243.796 610.123 243.159 610.668C248.109 616.07 253.059 621.471 258.57 627.655C259.927 629.047 261.283 630.439 262.64 631.831C263.07 631.501 263.5 631.172 263.93 630.842C262.375 629.071 260.821 627.3 258.939 624.624ZM1637.83 736.183C1642.84 741.701 1647.85 747.22 1652.85 752.739C1653.58 752.107 1654.31 751.476 1655.04 750.844C1649.63 745.341 1644.21 739.837 1638.32 733.474C1637.56 733.276 1636.79 733.079 1636.03 732.881C1636.43 733.717 1636.83 734.553 1637.83 736.183ZM161.021 987.947C155.525 982.18 150.029 976.412 144.105 969.79C138.31 963.879 132.515 957.967 126.387 951.153C109.961 934 93.5359 916.848 76.7685 898.791C73.5949 895.481 70.4213 892.172 67.2477 888.863C66.6891 889.409 66.1306 889.954 65.572 890.5C68.8688 893.933 72.1655 897.366 76.0643 901.589C92.5401 918.855 109.016 936.121 126.114 954.173C126.585 955.425 126.688 957.019 127.588 957.871C133.014 963.014 138.624 967.987 144.521 973.851C149.718 979.231 154.914 984.612 160.574 990.736C161.105 990.985 161.636 991.235 162.167 991.484C161.881 990.61 161.594 989.736 161.021 987.947ZM769.64 132.648C763.406 125.684 757.172 118.721 750.938 111.758C750.21 112.367 749.482 112.976 748.754 113.585C755.426 120.553 762.099 127.522 769.245 135.357C769.962 135.597 770.68 135.837 771.398 136.077C770.862 135.273 770.325 134.469 769.64 132.648ZM119.477 788.221C111.778 779.261 104.08 770.301 95.2453 761.075C95.5716 761.93 95.8978 762.785 96.39 764.539C103.796 773.03 111.203 781.521 118.684 790.991C119.03 791.505 119.376 792.018 119.722 792.532C119.807 791.38 119.892 790.228 119.477 788.221ZM210.745 574.737C221.38 586.518 232.015 598.3 242.649 610.082C243.346 609.515 244.042 608.949 244.739 608.383C233.577 596.268 222.416 584.152 210.423 571.48C210.422 572.264 210.422 573.048 210.745 574.737ZM332.167 615.999C337.777 621.96 343.387 627.92 348.893 633.77C349.019 632.751 349.177 631.47 349.341 630.14C352.298 631.719 354.996 633.159 357.694 634.6C358.136 634.032 358.577 633.464 359.019 632.896C348.278 621.422 337.538 609.947 326.798 598.472C326.173 598.919 325.547 599.366 324.922 599.812C326.623 602.207 328.526 604.499 329.965 607.025C331.255 609.291 332.035 611.814 332.621 613.44C332.28 614.001 331.938 614.562 332.167 615.999ZM1091.41 123.67C1085.8 118.428 1080.19 113.185 1074.58 107.943C1074.05 108.461 1073.51 108.979 1072.98 109.497C1085.48 123.692 1097.99 137.887 1110.5 152.082C1107.03 141.243 1099.66 132.781 1091.41 123.67ZM280.591 562.432C271.785 549.333 263.395 541.835 255.984 541.279C266.504 553.213 276.569 564.63 286.634 576.048C287.033 575.834 287.432 575.621 287.831 575.407C285.638 571.356 283.444 567.306 280.591 562.432ZM835.252 286.428C837.223 288.766 839.194 291.105 841.375 293.693C841.29 283.467 822.473 261.188 810.595 257.723C818.925 267.453 826.725 276.564 835.252 286.428ZM1226.22 1119.21C1225.31 1118.69 1224.41 1118.17 1221.93 1116.74C1228.25 1131.27 1238.19 1140.72 1248.98 1149.55C1249.81 1148.94 1250.64 1148.33 1251.47 1147.71C1243.3 1138.47 1235.12 1129.22 1226.22 1119.21ZM1459.14 902.257C1465.19 908.924 1471.25 915.591 1477.3 922.258C1478.09 921.644 1478.87 921.029 1479.66 920.414C1473.23 909.448 1463.16 901.17 1455.11 891.391C1454.5 891.774 1453.88 892.157 1453.26 892.54C1454.99 895.515 1456.72 898.49 1459.14 902.257ZM1499.01 709.282C1507.84 719.302 1516.67 729.323 1525.5 739.343C1526.13 738.834 1526.76 738.324 1527.39 737.814C1517.12 725.85 1506.86 713.886 1496.59 701.921C1496.02 702.282 1495.45 702.643 1494.88 703.005C1496.02 704.84 1497.16 706.676 1499.01 709.282ZM999.579 1291.18C995.591 1286.8 991.604 1282.43 987.616 1278.05C986.982 1278.59 986.348 1279.13 985.713 1279.67C992.623 1287.68 999.533 1295.69 1006.44 1303.69C1007.16 1303.17 1007.87 1302.65 1008.59 1302.13C1005.79 1298.76 1002.99 1295.39 999.579 1291.18ZM1310.76 1217.28C1304.16 1209.73 1297.56 1202.19 1290.96 1194.64C1290.18 1195.29 1289.4 1195.94 1288.62 1196.59C1296.12 1204.85 1303.61 1213.11 1311.1 1221.36C1311.59 1221.04 1312.07 1220.73 1312.55 1220.41C1312.19 1219.66 1311.83 1218.91 1310.76 1217.28ZM1534.12 983.459C1528.05 976.701 1521.98 969.942 1515.91 963.184C1514.73 964.669 1514.58 965.448 1514.93 965.845C1521.25 973.05 1527.63 980.209 1534.81 988.284C1534.67 986.198 1534.61 985.306 1534.12 983.459ZM1136.71 156.105C1139.1 159.107 1141.49 162.11 1144.75 166.2C1144.94 156.292 1140.88 151.381 1132.08 149.919C1133.63 152.02 1134.84 153.654 1136.71 156.105ZM1465.84 473.316C1462.17 469.296 1458.5 465.276 1454.83 461.256C1454.17 461.802 1453.5 462.349 1452.84 462.896C1457.17 468.416 1461.5 473.936 1465.83 479.456C1466.44 479.116 1467.06 478.776 1467.68 478.435C1467.27 477.002 1466.87 475.569 1465.84 473.316ZM457.899 281.262C462.603 286.538 467.307 291.814 472.011 297.09C472.75 296.527 473.489 295.964 474.228 295.4C468.853 289.677 463.478 283.954 458.103 278.23C457.792 278.979 457.48 279.728 457.899 281.262ZM1213.14 119.578C1212.02 117.811 1210.91 116.044 1209.79 114.277C1207.49 123.437 1208.51 124.674 1217.01 125.987C1215.89 123.958 1214.9 122.15 1213.14 119.578ZM981.404 1274.31C981.959 1275.97 982.514 1277.62 983.069 1279.27C984.25 1278.2 985.431 1277.12 986.612 1276.04C982.935 1271.91 979.258 1267.78 975.581 1263.64C975.003 1264.08 974.425 1264.51 973.847 1264.94C976.154 1267.79 978.46 1270.65 981.404 1274.31ZM208.352 568.649C206.033 566.275 203.713 563.9 201.394 561.526C200.936 561.926 200.478 562.326 200.02 562.725C202.358 565.365 204.671 568.025 207.112 570.578C207.228 570.699 208.475 569.869 208.352 568.649ZM365.718 664.19C367.612 666.596 369.506 669.003 371.4 671.41C372.057 670.893 372.714 670.375 373.37 669.858C371.06 667.669 368.749 665.481 365.718 664.19ZM362.642 657.638C361.346 656.715 360.049 655.793 358.753 654.871C358.43 655.277 358.107 655.683 357.784 656.089C360.544 658.173 363.305 660.258 366.825 662.916C365.284 660.993 364.31 659.779 362.642 657.638ZM1199.22 1169.38C1200.26 1171.24 1201.31 1173.09 1202.35 1174.94C1202.91 1174.5 1203.47 1174.07 1204.03 1173.63C1202.8 1172.27 1201.56 1170.9 1199.22 1169.38ZM214.801 638.416C215.797 639.109 216.794 639.802 217.79 640.495C218.123 640.14 218.456 639.784 218.789 639.429C216.954 637.408 215.119 635.386 213.284 633.364C212.806 633.706 212.329 634.048 211.851 634.39C212.568 635.446 213.284 636.501 214.801 638.416ZM1554.43 769.55C1553.13 768.113 1551.83 766.675 1550.52 765.238C1550.06 765.678 1549.59 766.118 1549.12 766.558C1550.64 767.879 1552.16 769.201 1554.43 769.55ZM1317.59 1224.62C1316.33 1223.61 1315.06 1222.6 1313.8 1221.59C1313.41 1222.14 1313.01 1222.69 1312.62 1223.24C1314.38 1224.07 1316.13 1224.91 1317.59 1224.62ZM175.501 665.054C175.192 663.505 174.883 661.956 174.574 660.407C173.907 660.654 173.24 660.901 172.573 661.149C173.217 662.221 173.861 663.293 175.501 665.054ZM1522.07 899.801C1522.72 899.647 1523.37 899.492 1524.02 899.338C1523.26 898.552 1522.5 897.767 1521.75 896.981C1521.55 897.63 1521.36 898.278 1522.07 899.801ZM966.732 1287.62C966.827 1287.86 966.922 1288.1 967.017 1288.34C966.852 1288.16 966.686 1287.98 966.732 1287.62ZM1125.9 91.8165C1126.95 92.8042 1128.01 93.792 1129.06 94.7798C1129.46 94.3581 1129.86 93.9362 1130.26 93.5145C1129.16 92.5971 1128.06 91.6799 1125.9 91.8165ZM1636.85 903.032C1636.89 902.868 1636.93 902.703 1636.97 902.539C1636.88 902.651 1636.79 902.763 1636.85 903.032ZM1632.99 900.121C1633.07 899.96 1633.14 899.799 1633.21 899.638C1633.28 899.749 1633.42 899.874 1633.4 899.966C1633.36 900.13 1633.22 900.273 1632.99 900.121ZM1485.01 993.306C1485.41 993.787 1485.81 994.268 1486.21 994.749C1486.1 994.07 1485.98 993.39 1485.01 993.306ZM660.096 318.924C660.093 319.052 660.09 319.181 660.096 318.924ZM1470.73 890.475C1470.81 889.791 1470.88 889.107 1470.96 888.423C1470.56 888.904 1470.17 889.384 1470.73 890.475ZM1633.98 731.075C1634.43 731.12 1634.88 731.165 1635.33 731.21C1635.13 730.936 1634.93 730.662 1633.98 731.075ZM1548.9 763.104C1548.78 763.394 1548.66 763.684 1548.55 763.974C1548.85 763.892 1549.15 763.809 1548.9 763.104ZM54.8446 721.996C54.7286 722.301 54.6127 722.605 54.4968 722.909C54.8046 722.819 55.1125 722.729 54.8446 721.996ZM214.583 437.72C214.71 437.392 214.837 437.065 214.964 436.737C214.611 436.838 214.258 436.939 214.583 437.72ZM220.638 430.75C220.525 431.086 220.413 431.421 220.3 431.756C220.645 431.642 220.99 431.529 220.638 430.75Z" fill="#D17D54"/>
</svg>
