<svg width="1729" height="209" viewBox="0 0 1729 209" fill="none" xmlns="http://www.w3.org/2000/svg">
<path d="M1622.46 80.0408C1614.36 77.6438 1606.11 75.8722 1597.77 74.7404C1606.15 75.193 1614.45 76.6644 1622.51 79.1252C1630.46 81.6658 1638.07 85.2573 1645.16 89.8136C1637.91 85.795 1630.31 82.5222 1622.46 80.0408Z" fill="#985142"/>
<path d="M1469.3 120.968L1523.52 119.918C1504.58 123.431 1485.07 126.187 1465.4 128.343C1465.37 128.801 1465.36 129.128 1464.96 129.498C1464.92 129.713 1464.91 129.933 1464.93 130.152C1495.72 128.342 1526.4 124.656 1556.79 119.111C1542.57 122.799 1528.15 125.586 1513.61 127.455C1498.07 129.468 1482.18 131.065 1465.87 132.243C1469.51 136.228 1473.5 139.852 1477.77 143.069C1484.04 148.369 1489.18 153.798 1485.15 156.638C1474.12 160.71 1462.88 164.127 1451.48 166.871C1447.22 167.007 1442.89 167.532 1438.42 168.115C1437.73 168.073 1437.05 169.147 1436.03 170.66C1422.72 173.996 1409.17 176.14 1395.51 177.066L1385.51 177.183C1383.6 176.305 1381.91 174.992 1380.54 173.339C1378.77 174.955 1376.81 176.314 1374.7 177.381L1347.43 177.962L1332.04 173.881C1331.97 175.189 1333.18 176.903 1332.24 178.224C1320.92 178.392 1309.06 178.265 1298.08 178.059C1293.6 176.419 1289.49 173.824 1286 170.439C1284.12 172.223 1281.92 173.605 1279.53 174.509C1281.07 174.669 1282.61 174.224 1283.85 173.261C1283.84 175.043 1284.13 176.813 1284.69 178.495L1273.26 176.163C1260.34 178.203 1243.44 174.358 1230.58 175.286L1230.56 175.744C1221.53 175.198 1212.5 174.652 1203.35 174.098C1201.85 172.864 1200.46 171.483 1199.2 169.975C1196.85 171.802 1194.48 171.855 1193.3 172.768C1186.65 170.967 1180.18 168.51 1173.97 165.43C1172.79 166.408 1170.52 170.077 1168.15 170.065C1163.54 169.488 1158.91 169.207 1154.27 169.224L1138.27 167.075C1120.18 164.274 1102.46 160.642 1084.88 156.495C1084.49 154.943 1084.3 153.342 1084.33 151.737L1083.58 151.692C1080.88 153.168 1077.36 151.315 1075.22 152.629C1075.49 152.241 1075.71 151.811 1075.86 151.355L1070.5 151.031C1022.63 147.771 974.993 141.338 927.888 131.77C839.724 114.033 756.056 108.838 664.305 96.1327C615.589 89.1817 565.443 93.4958 516.84 95.8692C490.409 97.1567 466.028 87.2822 440.51 90.1341C420.145 92.4449 403.514 81.3334 382.551 83.1487C372.495 84.1206 362.372 84.0354 352.332 82.8946L350.694 82.008C350.684 81.7018 350.7 81.3953 350.745 81.0924C348.69 80.9681 346.035 80.4137 344.021 80.6855C344.201 80.1176 344.586 79.6464 345.092 79.3724C340.575 79.7874 336.024 79.512 331.582 78.5547C338.345 74.8302 351.198 73.9676 360.783 72.3168C352.86 72.8477 344.907 72.6519 337.016 71.7314C326.806 71.1135 317.941 72.1518 308.024 71.8797C310.676 69.0874 320.065 68.737 324.919 66.7998C321.087 66.043 317.136 66.3288 313.152 66.0876C324.935 60.9677 337.023 56.658 349.339 53.1859C344.973 51.9374 329.151 56.8197 325.677 57.5281C317.977 59.764 310.007 60.807 302.02 60.6239C305.417 57.9815 309.437 56.3642 313.645 55.9469C307.411 56.5191 301.135 56.3813 294.929 55.5359C301.149 54.2134 307.264 52.3897 313.218 50.0811C299.054 47.5179 282.453 49.5315 267.682 47.7845C286.657 24.1299 369.228 27.6836 415.568 28.979C467.786 30.1708 520.314 33.678 572.421 38.0128C597.853 40.1425 623.273 42.4684 648.544 45.2445C741.931 50.8965 833.305 63.6444 923.974 77.8589L975.372 86.0221L1036.29 86.8221C1033.37 85.2077 1030.91 82.7917 1029.18 79.83L1033.82 76.1735C1021.73 63.1714 997.954 59.2393 985.928 46.1755C1046.03 89.1832 1133.34 77.0785 1208.64 76.4524C1229.27 74.4796 1249.66 70.3954 1269.53 64.258C1279.31 61.2412 1288.62 57.7366 1297.57 54.0131C1305.9 50.2811 1314.02 46.0399 1321.88 41.3112C1332.2 39.065 1342.74 38.1602 1353.26 38.6172C1373.15 33.5978 1392.51 26.5277 1411.07 17.5099C1454.06 2.52618 1503.14 4.05279 1555.7 0.0164016C1558.51 -0.119859 1561.29 0.595185 1563.71 2.07586C1566.26 3.29851 1568.35 5.38974 1569.63 8.01161C1570.14 9.18447 1570.25 10.5044 1569.94 11.7514C1569.63 12.9985 1568.93 14.0973 1567.94 14.8648C1566.42 16.1248 1564.72 17.1288 1562.91 17.8409C1560.45 18.9527 1557.89 19.8088 1555.27 20.3971C1534.89 26.3433 1514.08 30.5481 1493.05 32.9702C1493.05 32.9702 1493.05 32.9702 1493.03 33.3626C1509.23 30.734 1524.44 30.1454 1540.19 28.933C1535.91 30.0794 1531.51 30.6943 1527.09 30.7652C1532.57 31.0968 1537.96 31.9478 1543.31 32.2719C1548.67 32.5959 1554.89 32.9727 1560.62 33.3194C1566.35 33.666 1573.07 34.073 1579.3 34.4497C1585.53 34.8265 1591.75 35.2033 1597.95 36.1033L1571.35 40.3992L1564.36 41.4197L1558.06 42.4163C1553.97 43.087 1549.87 43.6923 1545.47 44.2133C1528.98 46.5615 1512.27 48.2406 1495.67 50.1888C1463.57 53.2187 1431.72 58.7259 1400.38 66.6659C1418.38 72.217 1439.43 56.3648 1456.1 64.3296C1427.81 68.7853 1399.8 72.733 1371.85 74.3878C1364.51 77.3253 1356.68 78.6814 1348.83 78.3753C1354.95 81.0864 1361.52 82.4879 1368.16 82.4976L1395.81 79.3813C1383.03 81.915 1370.53 85.8197 1358.51 91.0342L1386.35 91.4068C1395.95 90.6099 1405.62 89.6206 1415.21 88.9545C1451.47 80.5842 1488.97 73.2087 1526.91 75.111C1522.21 79.8792 1516.13 83.8413 1511.92 88.7705C1515.9 87.2948 1520.02 86.2684 1524.21 85.7084L1526.26 85.8327C1521.45 87.0506 1516.58 88.1338 1511.77 89.1554C1510.73 90.3963 1509.82 91.7487 1509.05 93.1903L1613.79 94.608C1603.1 91.8483 1592.27 89.7465 1581.34 88.3134C1592.14 88.0262 1602.94 88.3953 1613.7 89.4188C1627.09 92.4741 1639.79 98.2581 1651.06 106.443C1638.91 101.73 1626.51 97.7803 1613.92 94.6155C1580.72 106.452 1531.71 112.869 1474.59 115.711C1472.57 117.16 1470.79 118.934 1469.3 120.968Z" fill="#985142"/>
<path d="M1692.69 55.7481C1705.78 60.8477 1718.02 68.0529 1729 77.1055C1722.72 77.7751 1714.38 70.3806 1710.01 73.7906C1692.05 65.2235 1673.95 56.9759 1655.11 49.7332C1636.45 42.1739 1617.25 36.1847 1597.68 31.8222C1601.04 29.5807 1604.95 28.4253 1608.92 28.4998C1612.13 28.8861 1615.2 30.0375 1617.92 31.8658C1622.54 35.7006 1627.74 38.6985 1633.3 40.7363C1659.91 43.8227 1685.93 51.1497 1710.44 62.4652C1704.58 60.0107 1698.64 57.7486 1692.69 55.7481Z" fill="#985142"/>
<path d="M1565.59 60.1288C1570.54 60.4929 1575.43 61.4495 1580.17 62.9801C1577.97 63.8435 1575.72 64.562 1573.43 65.1312C1556.46 63.6448 1540.31 63.1267 1523.16 62.6791C1532.4 62.7136 1541.99 60.9973 1551.33 60.3815C1556.07 60.001 1560.83 59.9166 1565.59 60.1288Z" fill="#985142"/>
<path d="M106.536 129.022C114.636 131.412 122.891 133.175 131.236 134.299C122.853 133.855 114.548 132.391 106.487 129.938C98.5336 127.405 90.9195 123.821 83.8269 119.271C91.0797 123.283 98.6847 126.548 106.536 129.022Z" fill="#985142"/>
<path d="M259.66 87.949L205.447 89.0502C224.376 85.5192 243.889 82.7447 263.557 80.5699C263.581 80.1121 263.599 79.7852 263.994 79.415C264.034 79.1998 264.046 78.9796 264.029 78.7609C233.231 80.5999 202.56 84.3157 172.172 89.8895C186.391 86.1875 200.809 83.3872 215.348 81.504C230.886 79.4769 246.776 77.8644 263.08 76.6704C259.436 72.6888 255.449 69.0689 251.172 65.8566C244.899 60.562 239.757 55.1379 243.784 52.2939C254.811 48.2113 266.048 44.7843 277.442 42.0291C281.697 41.8889 286.036 41.36 290.502 40.773C291.187 40.8138 291.87 39.7391 292.888 38.225C306.194 34.8763 319.746 32.7203 333.399 31.7803L343.4 31.6543C345.31 32.53 347.01 33.8416 348.377 35.4938C350.142 33.8761 352.107 32.5145 354.217 31.4456L381.483 30.8389L396.879 34.9053C396.949 33.5973 395.73 31.8843 396.676 30.5628C407.991 30.3838 419.852 30.4999 430.835 30.6948C435.318 32.3309 439.431 34.9213 442.917 38.3038C444.8 36.5177 446.997 35.1331 449.383 34.2272C447.847 34.0692 446.309 34.5154 445.068 35.4794C445.071 33.6974 444.786 31.9279 444.226 30.2457L455.656 32.5669C468.572 30.5149 485.48 34.3434 498.335 33.4032L498.36 32.9453C507.388 33.4831 516.416 34.0208 525.568 34.566C527.072 35.7986 528.461 37.1774 529.718 38.6843C532.065 36.8558 534.442 36.8005 535.615 35.8862C542.268 37.6806 548.745 40.1314 554.958 43.2061C556.135 42.2264 558.395 38.5554 560.768 38.5655C565.375 39.1381 570.012 39.4143 574.652 39.3926L590.652 41.5266C608.74 44.31 626.472 47.9251 644.05 52.056C644.445 53.607 644.632 55.2081 644.606 56.8132L645.353 56.8577C648.056 55.3784 651.579 57.2286 653.711 55.9121C653.44 56.3007 653.227 56.7305 653.08 57.1868L658.435 57.5057C706.314 60.7204 753.952 67.1082 801.064 76.6309C889.244 94.2843 972.916 99.3995 1064.68 112.017C1113.4 118.922 1163.54 114.56 1212.14 112.14C1238.57 110.827 1262.96 120.679 1288.48 117.802C1308.84 115.472 1325.48 126.568 1346.44 124.733C1356.5 123.751 1366.62 123.827 1376.66 124.958L1378.3 125.843C1378.31 126.149 1378.3 126.456 1378.25 126.759C1380.31 126.881 1382.96 127.433 1384.98 127.159C1384.8 127.727 1384.41 128.199 1383.91 128.473C1388.42 128.054 1392.97 128.325 1397.42 129.278C1390.66 133.009 1377.8 133.884 1368.22 135.544C1376.14 135.005 1384.1 135.194 1391.99 136.107C1402.2 136.715 1411.06 135.668 1420.98 135.931C1418.33 138.725 1408.94 139.085 1404.09 141.027C1407.92 141.78 1411.87 141.49 1415.86 141.728C1404.08 146.859 1391.99 151.18 1379.68 154.664C1384.05 155.908 1399.87 151.011 1403.34 150.299C1411.04 148.056 1419.01 147.005 1426.99 147.181C1423.6 149.826 1419.58 151.447 1415.37 151.869C1421.61 151.291 1427.88 151.423 1434.09 152.262C1427.87 153.59 1421.76 155.42 1415.81 157.734C1429.97 160.284 1446.57 158.254 1461.34 159.987C1442.39 183.66 1359.81 180.185 1313.47 178.934C1261.25 177.792 1208.72 174.335 1156.61 170.05C1131.18 167.944 1105.76 165.642 1080.48 162.89C987.091 157.327 895.706 144.667 805.025 130.538L753.62 122.424L692.697 121.682C695.626 123.294 698.086 125.708 699.815 128.668L695.183 132.329C707.286 145.319 731.061 149.229 743.098 162.281C682.955 119.331 595.663 131.518 520.359 132.216C499.736 134.209 479.348 138.312 459.485 144.469C449.702 147.495 440.393 151.008 431.447 154.74C423.119 158.48 415.006 162.729 407.15 167.465C396.836 169.721 386.298 170.636 375.772 170.189C355.891 175.228 336.532 182.316 317.977 191.352C275.004 206.376 225.927 204.896 173.364 208.983C170.562 209.122 167.781 208.41 165.354 206.931C162.8 205.711 160.712 203.622 159.428 201.001C158.92 199.829 158.81 198.509 159.116 197.262C159.422 196.014 160.126 194.915 161.11 194.146C162.631 192.885 164.328 191.879 166.143 191.165C168.602 190.051 171.159 189.193 173.777 188.602C194.154 182.636 214.957 178.412 235.983 175.969C235.983 175.969 235.983 175.97 236.004 175.577C219.809 178.221 204.598 178.824 188.854 180.052C193.134 178.901 197.528 178.282 201.946 178.207C196.467 177.881 191.078 177.035 185.724 176.716C180.369 176.397 174.143 176.026 168.415 175.685C162.687 175.344 155.963 174.943 149.737 174.572C143.511 174.201 137.285 173.83 131.087 172.936L157.679 168.615L164.667 167.588L170.968 166.585C175.064 165.911 179.157 165.302 183.558 164.776C200.05 162.412 216.756 160.717 233.352 158.753C265.454 155.693 297.298 150.155 328.626 142.186C310.624 136.651 289.592 152.524 272.906 144.575C301.194 140.092 329.203 136.118 357.152 134.436C364.49 131.492 372.317 130.128 380.167 130.427C374.048 127.722 367.477 126.326 360.838 126.323L333.185 129.466C345.965 126.92 358.463 123.003 370.481 117.777L342.642 117.431C333.042 118.237 323.369 119.236 313.776 119.911C277.532 128.316 240.029 135.727 202.091 133.861C206.783 129.088 212.869 125.12 217.07 120.187C213.091 121.667 208.974 122.697 204.787 123.261L202.732 123.139C207.545 121.916 212.414 120.828 217.216 119.802C218.254 118.56 219.165 117.207 219.932 115.765L115.193 114.447C125.886 117.196 136.722 119.288 147.647 120.71C136.85 121.008 126.045 120.649 115.288 119.636C101.893 116.593 89.1962 110.821 77.9158 102.647C90.0662 107.349 102.473 111.287 115.069 114.439C148.252 102.572 197.258 96.108 254.379 93.2116C256.392 91.7602 258.175 89.9842 259.66 87.949Z" fill="#985142"/>
<path d="M36.3259 153.382C23.2385 148.295 10.9835 141.101 0 132.059C6.28263 131.383 14.6286 138.77 18.9978 135.356C36.9624 143.906 55.0692 152.136 73.9174 159.361C92.5826 166.902 111.789 172.873 131.355 177.217C128.002 179.462 124.095 180.621 120.12 180.55C116.915 180.167 113.836 179.019 111.119 177.193C106.494 173.363 101.294 170.37 95.7317 168.337C69.1148 165.276 43.0971 157.974 18.5738 146.682C24.4379 149.131 30.3748 151.387 36.3259 153.382Z" fill="#985142"/>
<path d="M163.429 148.88C158.479 148.521 153.585 147.569 148.841 146.043C151.042 145.177 153.292 144.457 155.578 143.885C172.551 145.355 188.701 145.858 205.855 146.289C196.612 146.264 187.025 147.989 177.684 148.614C172.942 148.999 168.181 149.088 163.429 148.88Z" fill="#985142"/>
</svg>
