<svg width="1536" height="194" viewBox="0 0 1536 194" fill="none" xmlns="http://www.w3.org/2000/svg">
<path d="M303.385 61.1233C317.16 65.8979 331.588 68.5213 346.163 68.9011C354.446 68.9011 362.69 69.2122 371.907 68.3955C381.124 67.5788 390.34 66.9177 399.868 65.9455C404.574 65.5955 409.59 64.701 414.49 64.001L429.385 61.8621L459.835 56.5344L523.846 43.6233C568.607 34.8733 613.718 28.0677 658.246 23.0899C669.42 21.8455 680.542 20.7048 691.613 19.6677L708.607 18.1899L720.04 17.4122C724.707 17.0622 729.413 16.8288 734.079 16.5955C752.746 15.6622 771.335 15.3122 788.951 16.1677C797.406 16.5222 805.833 17.3662 814.19 18.6955C821.604 19.8016 828.887 21.6517 835.929 24.2177C843.161 26.7679 849.996 30.3292 856.229 34.7955C859.149 36.9036 861.893 39.2446 864.435 41.7955C865.819 43.1388 867.118 44.5675 868.324 46.0733C869.659 47.7463 870.831 49.5434 871.824 51.4399C872.329 52.389 872.72 53.394 872.99 54.4344C872.99 54.94 872.99 55.1344 872.99 55.251C872.99 55.3677 872.446 55.251 872.018 54.6288C871.59 54.0066 869.49 51.2455 868.129 49.7677C867.546 49.1066 866.963 48.5233 867.118 48.9511L867.468 49.6122L868.363 51.1677C869.82 53.6469 871.056 56.2496 872.057 58.9455L872.563 60.3066V60.6566C872.174 60.8899 870.035 61.5122 868.674 61.9011L860.196 64.5844L843.201 69.99L834.685 72.7122L830.446 74.0732C810.768 87.2955 868.401 46.3455 785.296 104.057C786.113 103.489 786.869 102.837 787.551 102.112L788.485 101.101C788.954 100.704 789.396 100.275 789.807 99.8177C790.672 98.9502 791.466 98.0137 792.179 97.0177C792.763 96.0844 794.007 94.7233 794.824 93.5566C795.716 92.3098 796.534 91.0112 797.274 89.6677C797.974 88.3844 799.179 86.751 799.996 85.2733C800.813 83.7955 801.785 82.201 802.563 80.6455L803.768 78.2344L805.207 75.551C807.113 71.9733 808.746 68.3566 810.34 64.5844C813.024 58.7511 812.051 60.8899 812.324 60.4621H812.79C814.502 60.8899 818.507 61.8233 822.785 62.5233C827.063 63.2233 832.079 63.9233 837.135 64.5066C859.1 66.7161 881.172 67.6769 903.246 67.3844C926.19 67.3844 949.485 66.14 972.818 64.2733C1019.42 60.5191 1065.72 53.7775 1111.46 44.0899C1122.81 41.6788 1134.09 39.1122 1145.25 36.3122C1150.85 34.9511 1156.41 33.4733 1161.93 32.0344L1179.28 27.4066L1216.34 17.8399C1228.67 14.8066 1241.19 12.2788 1253.52 9.51773C1254.57 14.6899 1239.95 26.0455 1256.78 25.0733L1268.45 24.0622C1272.34 24.0622 1275.65 23.8288 1278.87 23.7899C1285.37 23.7899 1290.97 23.7899 1295.75 24.1011C1302.79 24.2217 1309.76 25.5367 1316.36 27.9899C1319.38 28.9571 1322.02 30.8543 1323.9 33.4104C1325.78 35.9666 1326.8 39.051 1326.82 42.2233C1327.21 44.9455 1315.16 46.1122 1305.08 48.3288C1295.01 50.5455 1287.12 51.5566 1295.56 52.7233L1276.46 56.3011C1269.85 57.7011 1263.08 59.4121 1256.47 61.0066C1243.17 64.2344 1230.42 67.4233 1220.89 70.7677C1201.64 77.1066 1194.45 81.0344 1218.44 77.5733C1224.99 77.3969 1231.5 76.5631 1237.88 75.0844C1246.28 73.6455 1256.12 71.5455 1265.92 69.5622C1275.24 67.5617 1284.67 66.1074 1294.16 65.2066C1300.74 64.2186 1307.44 64.3238 1313.99 65.5177C1322.51 68.1621 1319.12 72.6733 1315.9 77.1844C1312.67 81.6955 1309.48 86.401 1317.8 88.851C1325.58 87.5288 1337.05 86.0899 1348.6 84.4177C1354.4 83.5233 1360.27 82.9788 1365.48 82.4733L1379.44 81.0733C1395 84.9621 1365.63 98.4177 1380.84 96.9011H1389.59L1398.57 97.1344C1404.68 97.1344 1410.94 97.1344 1417.4 97.1344C1423.85 97.1344 1430.35 97.3677 1437.03 97.3677C1443.72 97.3677 1450.45 97.7566 1457.37 97.8733C1471.1 98.3011 1485.06 99.3899 1498.83 101.023L1509.02 102.54C1512.4 103.084 1515.59 103.823 1518.9 104.446C1522.2 105.068 1525.16 105.923 1528.23 106.662L1532.35 107.868L1533.95 108.412L1534.72 108.684H1534.3C1533.28 111.134 1535.89 115.14 1535 117.279C1534.53 118.329 1533.21 118.912 1530.1 118.64C1530.27 118.876 1530.48 119.085 1530.72 119.262C1530.91 119.262 1530.37 119.262 1530.21 119.495C1529.66 119.542 1529.1 119.542 1528.54 119.495C1526.75 119.495 1524.96 119.145 1521.85 118.795C1508 115.694 1493.93 113.614 1479.77 112.573C1464.49 111.562 1448.9 110.979 1433.11 111.484C1425.33 111.718 1417.24 111.795 1409.15 112.495L1397.1 113.351C1393.21 113.584 1389.05 113.896 1385 114.401L1360.7 117.123L1336.27 120.818C1328.15 121.907 1320.02 123.579 1311.85 125.134C1303.68 126.69 1295.56 128.168 1287.43 129.957L1263.01 135.634L1250.76 138.434L1238.58 141.701L1188.03 155.546C1169.88 160.42 1151.73 164.814 1133.58 168.729C1060.17 184.722 985.303 193.127 910.168 193.812C891.113 193.812 871.863 193.346 852.185 191.946C842.346 191.207 832.351 190.234 822.085 188.873C811.088 187.473 800.171 185.5 789.379 182.962C782.793 181.386 776.301 179.438 769.935 177.129C765.546 175.525 761.249 173.682 757.063 171.607C756.013 171.101 754.457 170.246 753.174 169.468C751.89 168.69 750.451 167.912 748.818 166.901C747.185 165.89 745.279 164.529 743.568 163.284L742.285 162.351L740.612 160.99C739.485 160.095 738.396 159.123 737.307 158.151C736.218 157.179 735.246 156.245 734.079 155.079C732.913 153.912 731.24 152.045 729.918 150.451C728.596 148.857 727.313 147.223 726.029 145.551C724.746 143.879 724.124 142.051 723.151 140.301L720.624 135.557H720.935C720.935 135.557 720.585 135.557 720.429 135.557C720.103 135.645 719.789 135.776 719.496 135.945L719.263 136.14H718.213H715.879L703.979 137.112C670.846 139.912 637.324 144.384 603.996 149.907C587.352 152.707 570.746 155.779 554.179 159.123C545.909 160.834 537.651 162.597 529.407 164.412L502.729 170.129C465.024 178.65 426.767 184.511 388.24 187.668L372.685 188.29L364.907 188.562C362.263 188.562 359.424 188.562 356.663 188.562L340.096 188.018C334.34 187.551 328.429 186.89 322.713 186.229C316.724 185.582 310.778 184.595 304.901 183.273L295.957 181.445C292.963 180.745 289.968 179.773 286.974 178.918C281 177.309 275.119 175.374 269.357 173.123L260.84 169.74L256.601 168.029L252.713 166.201C234.715 157.374 217.227 147.546 200.329 136.762L189.751 130.54C186.251 128.401 182.868 126.651 179.485 124.707L174.429 121.907L171.901 120.507C171.279 120.195 171.24 120.273 170.89 120.079C170.349 119.853 169.828 119.58 169.335 119.262C168.707 119.114 168.095 118.905 167.507 118.64C164.338 117.591 161.041 116.976 157.707 116.812C155.535 116.626 153.353 116.561 151.174 116.618C150.007 116.618 148.724 116.618 147.285 116.851C145.983 116.861 144.683 116.965 143.396 117.162C131.082 118.76 118.997 121.787 107.385 126.184C79.5913 136.799 53.125 150.606 28.5181 167.329C22.5681 171.023 17.9015 173.901 14.4015 175.807C12.6126 176.779 11.1348 177.557 9.92925 178.062C9.41219 178.294 8.87937 178.489 8.3348 178.645C7.86814 178.645 7.40147 178.918 7.36258 178.645C5.45702 179.268 4.48481 178.957 4.32925 177.945C4.30029 177.225 4.43318 176.508 4.71814 175.846C4.73635 175.012 4.96367 174.196 5.37925 173.473C9.26814 165.384 24.4348 148.545 41.157 133.923C30.1515 143.801 25.8348 137.151 15.0237 147.651C12.7681 144.384 15.7626 135.712 26.1848 123.696C41.8872 106.59 60.9341 92.8907 82.1459 83.4455C67.9889 89.3007 54.2087 96.0284 40.8848 103.59C26.107 108.879 36.9959 96.7066 34.4292 91.9233C48.2348 84.1455 62.6626 77.5344 61.6515 75.0844L57.1792 65.4788C49.7904 68.9399 38.7848 74.3844 28.1292 80.3733C17.4737 86.3622 7.01259 92.7399 0.207031 97.1344C13.857 88.3066 28.0904 80.3733 26.807 78.0789L21.4404 68.9011C38.2294 58.3544 56.2541 49.9167 75.107 43.7788C94.5612 37.1064 114.49 31.9066 134.724 28.2233L133.829 20.4455C112.55 21.9908 91.6647 26.9953 71.9959 35.2621C53.28 42.9459 35.0922 51.8579 17.5515 61.9399C31.2404 51.401 30.2681 49.2233 27.7792 44.4399C51.5594 31.0569 77.2531 21.4038 103.963 15.8177C118.379 12.6305 133.018 10.5503 147.751 9.59549C164.143 8.48671 180.608 9.24342 196.829 11.8511C175.783 6.23859 153.857 4.7073 132.235 7.33993C145.812 1.95849 160.48 -0.0950194 175.013 1.35104C185.079 2.10092 195.017 4.07282 204.607 7.22327L212.385 9.94551C214.951 11.0344 217.557 12.201 220.163 13.4455L224.051 15.2733L225.918 16.2066L227.24 16.9455L232.568 19.9399C247.074 27.9899 260.607 37.1288 272.779 44.751C282.394 51.2415 292.65 56.7277 303.385 61.1233Z" fill="#985142"/>
</svg>
