<svg width="1318" height="434" viewBox="0 0 1318 434" fill="none" xmlns="http://www.w3.org/2000/svg">
<path d="M1292 281C1179.67 193.334 952.799 19.6002 943.999 26.0002C932.999 34.0002 1307 307 1292 308C1277 309 940 48 921 46C905.8 44.4 1148 242 1271 341L884 56L1243 365L831 40L1153 341L781 35L1125 365L744 40L1062 353L702 46L943.999 299L694 91L907 323L628 77L854 328L531 56L754 299L460 61L673 274L426 83L681 328L387 91L648 353L280 56L609 365L238 61L571 391L196 77L499 370L172 91L460 370L108 91L472 413L78 128L332 347L25 140" stroke="black" stroke-width="50" stroke-linecap="round"/>
</svg>
