<svg width="120" height="37" viewBox="0 0 120 37" fill="none" xmlns="http://www.w3.org/2000/svg">
<path d="M109.414 18.0242H105.258C102.574 18.0242 101.103 20.0103 101.103 23.4516V35.7815H93.0701V18.0242H89.7099C87.0256 18.0242 85.5543 20.0103 85.5543 23.4516V35.7815H77.5215V11.3971H85.5543V15.1138C86.8865 12.2034 88.6362 11.3971 91.3204 11.3971H101.103V15.1138C102.435 12.2034 104.185 11.3971 106.869 11.3971H109.553L109.414 18.0242ZM75.6326 25.4575H59.0104C59.408 28.2499 61.1577 29.705 63.9613 29.705C66.1086 29.705 67.58 28.7808 68.1168 27.3256L75.2151 29.3118C73.4654 33.5593 69.1905 36.0764 63.9613 36.0764C55.2525 36.0764 51.2361 29.3118 51.2361 23.491C51.2361 17.7882 54.7156 11.0235 63.4244 11.0235C72.67 11.0235 75.7519 17.9258 75.7519 23.078C75.7718 24.2579 75.7718 24.9265 75.6326 25.4575ZM67.9975 20.8166C67.8583 18.6928 66.2478 16.8443 63.5835 16.8443C61.0384 16.8443 59.5671 17.9062 59.0303 20.8166H67.9975ZM37.298 35.7815H44.277L53.125 11.5151H45.0723L40.7776 25.6934L36.4828 11.3775H28.45L37.298 35.7815ZM4.59034 35.7815H12.5038V18.0242H20.1389V35.7815H28.0524V11.3971H12.5038V9.94194C12.5038 8.34909 13.7167 7.28719 15.4465 7.28719H20.1389V0.660156H14.2535C8.48742 0.660156 4.61022 4.23915 4.61022 9.41099V11.3971H0.0371094V18.0242H4.59034V35.7815Z" fill="#182E35"/>
<path d="M114.385 36.4497C117.069 36.4497 119.336 34.1882 119.336 31.5532C119.336 28.8984 117.049 26.6566 114.385 26.6566C111.72 26.6566 109.434 28.9181 109.434 31.5532C109.414 34.2079 111.7 36.4497 114.385 36.4497Z" fill="#182E35"/>
</svg>
