<svg width="79" height="79" viewBox="0 0 79 79" fill="none" xmlns="http://www.w3.org/2000/svg">
<path fill-rule="evenodd" clip-rule="evenodd" d="M39.3588 0.782715C17.9011 0.782715 0.554688 18.5531 0.554688 40.5376C0.554688 58.1109 11.6691 72.9864 27.0878 78.2513C29.0156 78.647 29.7217 77.3958 29.7217 76.3434C29.7217 75.4217 29.6581 72.2626 29.6581 68.971C18.8638 71.341 16.616 64.232 16.616 64.232C14.8812 59.6246 12.3109 58.4405 12.3109 58.4405C8.77794 56.0051 12.5683 56.0051 12.5683 56.0051C16.4873 56.2684 18.5437 60.0858 18.5437 60.0858C22.0123 66.1407 27.6017 64.4299 29.8504 63.3766C30.1712 60.8096 31.1998 59.0325 32.292 58.0455C23.6827 57.1238 14.6247 53.7014 14.6247 38.431C14.6247 34.0869 16.1656 30.5328 18.6072 27.7687C18.222 26.7816 16.8725 22.7001 18.9933 17.2373C18.9933 17.2373 22.2697 16.184 29.6573 21.3181C32.8203 20.4478 36.0821 20.0052 39.3588 20.0014C42.6352 20.0014 45.9752 20.4626 49.0594 21.3181C56.4478 16.184 59.7243 17.2373 59.7243 17.2373C61.845 22.7001 60.4947 26.7816 60.1095 27.7687C62.6155 30.5328 64.0928 34.0869 64.0928 38.431C64.0928 53.7014 55.0348 57.0576 46.3612 58.0455C47.775 59.2959 48.995 61.665 48.995 65.417C48.995 70.7481 48.9315 75.0267 48.9315 76.3425C48.9315 77.3958 49.6384 78.647 51.5654 78.2521C66.984 72.9855 78.0985 58.1109 78.0985 40.5376C78.162 18.5531 60.7521 0.782715 39.3588 0.782715Z" fill="#182E35"/>
</svg>
