<svg width="1002" height="145" viewBox="0 0 1002 145" fill="none" xmlns="http://www.w3.org/2000/svg">
<path d="M29.7045 52.9025C27.8818 51.1816 26.049 49.4712 24.2477 47.728C23.899 47.3909 23.5783 47.2267 23.085 47.2399C21.2606 47.2846 19.4348 47.2922 17.6372 46.8864C8.69891 44.8644 3.5088 35.1469 6.80304 26.5959C9.40141 19.8516 16.593 15.7457 23.6874 17.0116C26.8666 17.5792 29.6571 18.9249 31.9476 21.2873C34.7412 24.1708 37.6178 26.9721 40.4414 29.8267C41.0839 30.4766 41.822 30.7729 42.7124 30.6457C43.8629 30.4814 44.7791 29.9334 45.195 28.8052C45.6025 27.6945 45.4042 26.6437 44.5647 25.7916C41.6013 22.7892 38.7076 19.7118 35.625 16.8373C29.6449 11.2591 22.5934 9.60139 14.7944 11.9731C4.30438 15.1604 -1.83542 25.9924 0.56214 36.6809C2.74633 46.4196 11.2652 53.2546 21.2299 53.2633C24.0122 53.2661 26.795 53.2661 29.5783 53.2633C29.7177 53.2633 29.8537 53.2511 30.0664 53.2403C29.945 53.129 29.8244 53.0163 29.7045 52.9025Z" fill="#182E35"/>
<path d="M430.73 50.3992C430.73 51.1819 430.419 51.9326 429.866 52.486C429.312 53.0395 428.561 53.3504 427.779 53.3504H48.5504C47.3672 53.3421 46.1857 53.2595 45.0128 53.1032C41.0408 52.5775 37.3728 51.2712 34.1197 48.9088C33.2538 48.2771 32.4363 47.5814 31.6741 46.8278C27.221 42.4472 22.802 38.0304 18.3437 33.654C17.2232 32.5519 17.1583 31.3397 17.6729 30.2645C18.252 29.06 19.4684 28.3906 20.8106 28.5562C21.5776 28.6504 22.1703 29.0792 22.7044 29.6161C26.7036 33.633 30.7174 37.6347 34.7051 41.6624C37.8118 44.8022 41.5659 46.6782 45.9144 47.2479C46.7892 47.3635 47.6696 47.4307 48.5518 47.4494H427.779C428.561 47.4494 429.312 47.7602 429.865 48.3133C430.418 48.8665 430.73 49.6168 430.73 50.3992Z" fill="#182E35"/>
<path d="M459 10.6103V90.4967H499.272V66.0307L486.584 50.4652C486.584 49.4254 486.584 45.5574 486.584 42.9787L502.031 61.9028L517.478 42.9787V50.4652L504.789 66.0255V90.4967H531.976C534.861 90.4967 537.628 89.4166 539.668 87.4939C541.709 85.5713 542.855 82.9636 542.855 80.2445V0.555664H469.669C466.84 0.555664 464.126 1.61499 462.125 3.50061C460.124 5.38623 459 7.94368 459 10.6103ZM529.444 87.8973H526.029C525.881 87.8975 525.736 87.8617 525.607 87.7934C525.479 87.725 525.371 87.6265 525.295 87.5074C523.679 84.9755 520.49 78.872 518.3 67.6683C517.93 65.7603 520.749 62.5734 523.552 54.9362C524.571 52.0894 526.082 49.4209 528.026 47.0391C528.1 46.9356 528.198 46.8494 528.313 46.7873C528.427 46.7251 528.556 46.6885 528.688 46.6804C528.748 46.6861 528.809 46.6861 528.87 46.6804C529.086 46.6077 529.288 46.5005 529.466 46.3632C529.637 46.2592 529.769 46.1189 529.94 46.0097C530.058 45.9548 530.182 45.9112 530.31 45.8797C530.597 46.0667 530.904 46.2252 531.225 46.3528C531.621 46.4505 532.023 46.5235 532.428 46.5712L532.572 46.3164L532.858 46.5244L533.476 46.2385C533.455 46.1445 533.446 46.0485 533.449 45.9525C533.27 46.0091 533.085 46.0457 532.897 46.0617C532.897 46.0617 532.842 46.0617 532.82 46.0617C532.798 46.0617 532.743 46.0045 532.765 45.9577C532.787 45.9109 532.825 45.9577 532.858 45.9577C532.892 45.9577 533.002 45.9889 533.013 45.8953C533.024 45.8017 532.958 45.7861 532.892 45.7653C532.847 45.7575 532.805 45.7391 532.771 45.7118C532.736 45.6845 532.709 45.6492 532.693 45.6094C532.693 45.6094 532.638 45.5522 532.61 45.5158C532.572 45.573 532.544 45.625 532.544 45.625L532.241 45.4638C532.248 45.4198 532.273 45.3798 532.309 45.3512C532.346 45.3226 532.392 45.3072 532.439 45.3078C532.599 45.3078 532.671 45.4378 532.687 45.5782C532.687 45.5782 532.687 45.5782 532.687 45.6094C532.881 45.7861 532.996 45.7809 533.123 45.6094C533.219 45.6222 533.307 45.6681 533.369 45.7382C533.431 45.8083 533.463 45.8976 533.46 45.9889H533.52C533.585 45.9595 533.635 45.9083 533.66 45.8456C533.686 45.7828 533.685 45.7133 533.658 45.651C533.628 45.5834 533.624 45.5075 533.648 45.4376C533.673 45.3677 533.723 45.3086 533.791 45.2715C533.842 45.2479 533.881 45.2063 533.9 45.1556C533.918 45.1049 533.915 45.0494 533.89 45.0011C533.866 44.9494 533.865 44.8908 533.886 44.8382C533.908 44.7855 533.951 44.7432 534.006 44.7204C534.127 44.6528 534.144 44.58 534.006 44.502C533.868 44.424 533.885 44.3097 533.956 44.1953C534.028 44.0809 534.045 44.0549 533.956 43.9873C533.925 43.9532 533.884 43.9286 533.837 43.9166C533.791 43.9046 533.742 43.9057 533.697 43.9197L533.614 43.9561C533.477 43.9758 533.337 43.9461 533.223 43.8729C533.184 43.847 533.223 43.7846 533.223 43.7586C533.223 43.7326 533.327 43.4362 533.565 43.535C533.578 43.5418 533.593 43.5455 533.608 43.5459C533.624 43.5463 533.639 43.5433 533.653 43.5373C533.667 43.5313 533.679 43.5223 533.688 43.5111C533.698 43.4999 533.705 43.4867 533.708 43.4726C533.708 43.3219 533.901 43.2075 533.818 43.0255C533.774 42.9319 533.857 42.854 533.923 42.7864C534.065 42.6361 534.17 42.4588 534.232 42.2665C534.283 42.1161 534.299 41.9573 534.28 41.8004C534.261 41.6436 534.207 41.4924 534.122 41.3567C534.072 41.2787 534.039 41.1851 533.984 41.1019C533.929 41.0187 533.984 40.9408 534.1 40.9304C534.32 40.9044 534.502 40.7484 534.745 40.7848C534.856 40.7848 534.878 40.6912 534.878 40.6028C534.878 40.5145 534.878 40.3533 535.043 40.3169C535.131 40.3169 535.12 40.2077 535.115 40.1349C535.109 40.0621 535.115 39.9894 535.203 39.9686C535.291 39.9478 535.28 40.0258 535.302 40.0777C535.324 40.1297 535.38 40.1245 535.407 40.0777C535.432 40.0347 535.443 39.9861 535.44 39.9374C535.444 39.6828 535.481 39.4295 535.551 39.1835C535.551 39.0484 535.584 38.8924 535.793 38.8768C535.854 38.8768 535.854 38.804 535.871 38.7624C535.91 38.6487 535.983 38.5478 536.08 38.4713C536.161 38.4009 536.212 38.3058 536.226 38.203C536.239 38.1001 536.213 37.9962 536.152 37.9098C536.067 37.8294 535.953 37.7817 535.833 37.7759C535.713 37.7702 535.594 37.8068 535.501 37.8786C535.413 37.9878 535.324 38.0138 535.214 37.9254C535.104 37.837 534.905 37.8682 534.734 37.9254C534.801 37.7777 534.815 37.6132 534.773 37.4575C534.773 37.4159 534.773 37.4003 534.828 37.3795C534.927 37.3481 535.032 37.3388 535.136 37.3523C535.239 37.3658 535.338 37.4018 535.424 37.4575C535.503 37.522 535.598 37.566 535.701 37.5852C535.803 37.6043 535.909 37.598 536.009 37.5667C536.262 37.5043 536.284 37.2391 536.516 37.1976C536.621 37.1976 536.709 37.1144 536.825 37.1612C536.847 37.1794 536.876 37.1895 536.905 37.1895C536.934 37.1895 536.963 37.1794 536.985 37.1612C537.004 37.1403 537.015 37.1135 537.015 37.0858C537.015 37.058 537.004 37.0312 536.985 37.0104C536.934 36.933 536.914 36.8405 536.93 36.7505C536.936 36.698 536.925 36.645 536.898 36.5986C536.872 36.5522 536.831 36.5145 536.781 36.4905C536.671 36.4333 536.632 36.5529 536.582 36.6049C536.533 36.6569 536.317 36.7868 536.273 36.9688C536.252 36.8837 536.211 36.8039 536.154 36.7349C536.097 36.6658 536.025 36.6091 535.942 36.5685C535.882 36.5373 535.909 36.4489 535.898 36.3917C535.904 36.2169 535.885 36.0421 535.843 35.8718C535.828 35.8394 535.826 35.8032 535.836 35.7692C535.846 35.7352 535.868 35.7054 535.898 35.6847C535.912 35.6726 535.929 35.6659 535.948 35.6659C535.966 35.6659 535.984 35.6726 535.997 35.6847C536.027 35.7063 536.047 35.7371 536.054 35.7715C536.061 35.8058 536.055 35.8415 536.036 35.8718C536.036 35.9082 535.992 35.9602 536.036 35.981C536.08 36.0018 536.119 35.9498 536.141 35.9082C536.185 35.8067 536.193 35.6947 536.166 35.5883C536.138 35.4818 536.075 35.3864 535.986 35.3156C535.893 35.1568 535.847 34.9771 535.854 34.7957C535.854 34.7489 535.92 34.7489 535.97 34.7385C536.033 34.7366 536.094 34.7186 536.148 34.6863C536.201 34.654 536.243 34.6087 536.271 34.5552C536.299 34.5018 536.311 34.4422 536.305 34.3829C536.3 34.3235 536.277 34.2667 536.24 34.2186C536.18 34.099 536.119 33.9846 536.058 33.8547C536.058 34.0002 535.964 34.0522 535.865 34.0262C535.766 34.0002 535.771 33.8703 535.821 33.7975C535.871 33.7247 535.821 33.3868 536.031 33.3764C536.24 33.366 536.362 33.5479 536.494 33.6831C536.626 33.8183 536.665 33.8547 536.808 33.8287C536.952 33.8027 536.952 33.7975 536.974 33.7143C536.983 33.6901 536.982 33.6636 536.97 33.6403C536.959 33.6171 536.939 33.5988 536.913 33.5895C536.878 33.5776 536.839 33.5791 536.805 33.5937C536.771 33.6082 536.745 33.6347 536.731 33.6675L536.698 33.7351C536.615 33.6311 536.643 33.5739 536.698 33.5323C536.836 33.433 536.984 33.346 537.139 33.2724C537.294 33.21 537.459 33.1216 537.448 32.9344C537.437 32.7473 537.399 32.5341 537.15 32.451C537.054 32.4165 536.969 32.3591 536.903 32.2844C536.838 32.2097 536.793 32.1202 536.775 32.0246C536.743 31.8816 536.666 31.751 536.554 31.6499C536.441 31.5488 536.3 31.4819 536.146 31.458C536.016 31.4386 535.888 31.4054 535.766 31.3592C535.617 31.3072 535.534 31.2292 535.595 31.0472C535.634 30.9758 535.651 30.8952 535.643 30.815C535.635 30.7348 535.603 30.6585 535.551 30.5949C535.705 30.5274 535.826 30.465 535.777 30.257C535.727 30.0491 535.948 29.8203 536.163 29.7371C536.268 29.7371 536.273 29.6175 536.268 29.5344C536.268 29.1652 536.224 28.7961 536.191 28.4322C536.162 28.2816 536.085 28.1427 535.971 28.0341C535.857 27.9254 535.71 27.8521 535.551 27.8239C535.432 27.7835 535.326 27.7141 535.245 27.6228C535.163 27.5315 535.109 27.4215 535.087 27.304C535.091 27.263 535.086 27.2216 535.073 27.1824C535.06 27.1431 535.038 27.1067 535.01 27.0753C534.98 27.054 534.959 27.0242 534.949 26.9904C534.939 26.9566 534.941 26.9207 534.955 26.8881C534.984 26.8243 534.992 26.754 534.979 26.6858C534.967 26.6175 534.933 26.5541 534.883 26.5034C534.955 26.4514 535.027 26.5034 535.082 26.467C535.137 26.4306 535.192 26.4202 535.164 26.389C535.038 26.2383 535.126 25.9991 534.911 25.8691C534.839 25.7942 534.792 25.7012 534.775 25.6015C534.759 25.5018 534.773 25.3997 534.817 25.3077C534.867 25.2453 534.933 25.2661 534.999 25.2713C535.108 25.2701 535.214 25.2409 535.306 25.1868C535.399 25.1327 535.474 25.0559 535.523 24.9645C535.562 24.8813 535.523 24.8398 535.446 24.8138C535.32 24.7465 535.189 24.6875 535.054 24.637C535.023 24.6325 534.994 24.6216 534.967 24.6052C534.941 24.5888 534.919 24.5672 534.903 24.5419C534.887 24.5167 534.877 24.4884 534.873 24.459C534.87 24.4296 534.873 24.3999 534.883 24.3719C534.883 24.2731 534.883 24.1847 534.778 24.1431C534.624 24.077 534.488 23.9784 534.381 23.8549C534.274 23.7314 534.199 23.5863 534.16 23.4308C534.122 23.3269 534.028 23.2905 533.929 23.2541C533.829 23.2177 533.691 23.1553 533.807 22.9993C533.923 22.8434 533.807 22.8694 533.714 22.8746C533.504 22.9058 533.454 22.7342 533.36 22.6198C533.267 22.5054 533.322 22.5106 533.36 22.5054C533.625 22.4379 533.449 22.2715 533.454 22.1467C533.477 22.014 533.444 21.8781 533.363 21.7676C533.282 21.6571 533.158 21.5806 533.018 21.554C532.672 21.4177 532.314 21.3082 531.948 21.2265C531.816 21.2265 531.788 21.1433 531.86 21.0186C531.935 20.9019 532.022 20.7922 532.119 20.691C532.186 20.6938 532.253 20.7043 532.318 20.7222C532.398 20.7428 532.484 20.7382 532.561 20.7092C532.639 20.6801 532.705 20.6281 532.748 20.5611C532.778 20.5182 532.824 20.4864 532.876 20.4713C532.928 20.4561 532.984 20.4584 533.035 20.4779C533.178 20.5455 533.101 20.6442 533.035 20.7222C532.969 20.8002 532.947 20.8158 533.007 20.8626C533.068 20.9094 533.145 20.8886 533.212 20.8626C533.253 20.8445 533.286 20.8132 533.305 20.7742C533.413 20.4708 533.467 20.153 533.465 19.8332C533.452 19.7243 533.396 19.6241 533.308 19.5521C533.22 19.48 533.107 19.4412 532.991 19.4433C532.862 19.4457 532.736 19.4055 532.635 19.3295C532.534 19.2535 532.465 19.1466 532.439 19.0274C532.429 18.9409 532.384 18.8615 532.313 18.8061C532.242 18.7507 532.15 18.7238 532.059 18.731C531.961 18.7353 531.866 18.7033 531.794 18.642C531.722 18.5807 531.678 18.495 531.672 18.4035C531.634 18.1956 531.518 18.128 531.319 18.2423C531.121 18.3567 530.933 18.2943 530.768 18.128C530.602 17.9616 530.591 17.9252 530.431 17.9772C530.358 17.9971 530.293 18.0386 530.246 18.0957C530.2 18.1527 530.174 18.2223 530.172 18.2943C530.172 18.3359 530.172 18.3775 530.172 18.4191C530.152 18.5163 530.11 18.6082 530.049 18.6889C529.988 18.7696 529.909 18.8371 529.819 18.887C529.819 18.887 529.659 18.887 529.642 18.809C529.576 18.6115 529.184 18.4763 529.482 18.2111C529.502 18.1976 529.517 18.18 529.528 18.1597C529.539 18.1393 529.545 18.1169 529.545 18.0942C529.545 18.0714 529.539 18.049 529.528 18.0287C529.517 18.0084 529.502 17.9907 529.482 17.9772C529.245 17.8524 529.168 17.5561 528.815 17.5561C528.638 17.5561 528.566 17.4001 528.495 17.2701C528.18 16.7582 527.707 16.3498 527.138 16.1004C527.051 16.0457 526.951 16.014 526.847 16.0085C526.743 16.003 526.64 16.024 526.547 16.0692C526.302 16.1383 526.047 16.1716 525.791 16.168C525.609 16.1992 525.532 16.0484 525.576 15.9028C525.676 15.5857 525.521 15.2426 525.725 14.9358C525.819 14.7955 525.659 14.6967 525.51 14.6499C525.361 14.6031 525.091 14.5147 525.14 14.2444C525.14 14.1144 525.014 14.078 524.898 14.0416C524.782 14.0052 524.655 13.9428 524.677 13.8129C524.699 13.6829 524.815 13.7453 524.909 13.7505C525.003 13.7557 525.041 13.6725 524.975 13.6049C524.92 13.5456 524.85 13.5008 524.771 13.4749C524.357 13.3137 523.962 13.1097 523.596 12.8667C523.386 12.7523 523.143 12.6379 523.243 12.3468C523.243 12.2636 523.165 12.2168 523.099 12.17C522.949 12.0449 522.832 11.8882 522.757 11.7125C522.687 11.5534 522.561 11.4218 522.401 11.3395C522.24 11.2572 522.054 11.2292 521.875 11.2602C521.694 11.3226 521.547 11.4486 521.463 11.6116C521.38 11.7747 521.367 11.9619 521.428 12.1336C521.555 12.326 521.544 12.4508 521.328 12.5599C521.113 12.6691 521.053 12.9447 521.047 13.215C520.844 13.0297 520.583 12.9112 520.302 12.8771C520.231 12.8771 520.22 12.8199 520.214 12.7575C520.223 12.6005 520.272 12.4479 520.358 12.3129C520.443 12.1779 520.563 12.0646 520.705 11.9829C520.86 11.9212 520.994 11.8199 521.092 11.6904C521.189 11.5609 521.246 11.4083 521.257 11.2498C521.301 10.8703 520.887 10.6831 520.964 10.34C521.003 10.1892 520.937 10.0229 521.091 9.8981C521.111 9.88687 521.129 9.87203 521.142 9.85444C521.156 9.83685 521.166 9.81686 521.172 9.7956C521.178 9.77435 521.179 9.75225 521.175 9.73059C521.172 9.70892 521.164 9.68811 521.152 9.66935C521.097 9.57057 520.997 9.57057 520.898 9.58616C520.738 9.60847 520.575 9.57916 520.435 9.50298C520.353 9.46532 520.261 9.45022 520.17 9.45942C520.079 9.46861 519.993 9.50173 519.922 9.55497C519.756 9.65895 519.922 9.78892 519.988 9.8981C520.098 10.1061 520.126 10.3608 520.396 10.5376C520.245 10.5141 520.091 10.5205 519.943 10.5563C519.794 10.5921 519.656 10.6565 519.535 10.7455C519.453 10.8079 519.326 10.7455 519.221 10.6935C518.948 10.5866 518.663 10.5099 518.371 10.4648C518.31 10.4654 518.251 10.4475 518.201 10.4138C518.151 10.3802 518.114 10.3324 518.096 10.2776C518.089 10.2651 518.086 10.2515 518.086 10.2376C518.085 10.2238 518.088 10.2101 518.094 10.1973C518.1 10.1846 518.108 10.1731 518.119 10.1636C518.13 10.1542 518.142 10.147 518.156 10.1424C518.211 10.1158 518.274 10.107 518.335 10.1173C518.396 10.1277 518.451 10.1566 518.493 10.1996C518.542 10.2464 518.603 10.314 518.675 10.2568C518.747 10.1996 518.675 10.1268 518.62 10.0697C518.48 9.94452 518.303 9.86292 518.113 9.83594C517.922 9.80897 517.727 9.83793 517.555 9.91889C517.231 9.94961 516.903 9.89941 516.606 9.77332C516.545 9.71614 516.567 9.65375 516.578 9.59136C516.672 9.14946 516.418 8.86351 515.9 8.89991C515.674 8.89991 515.448 8.89991 515.194 8.89991C515.437 8.97789 515.464 9.15465 515.359 9.26903C515.254 9.38341 515.05 9.30542 514.951 9.19105C514.78 8.98309 514.3 8.9207 514.399 8.67116C514.499 8.42161 514.89 8.32283 515.188 8.22405C515.387 8.15127 515.574 8.09408 515.619 7.88612C515.642 7.83545 515.646 7.77877 515.63 7.72571C515.613 7.67265 515.578 7.62646 515.53 7.59498C515.498 7.56722 515.456 7.55184 515.412 7.55184C515.368 7.55184 515.326 7.56722 515.293 7.59498C515.272 7.61388 515.256 7.63651 515.245 7.66151C515.233 7.68652 515.228 7.7134 515.228 7.74055C515.228 7.76771 515.233 7.79458 515.245 7.81959C515.256 7.8446 515.272 7.86722 515.293 7.88612L515.392 7.9797C515.172 8.03169 515.094 7.95371 515.067 7.82893C514.991 7.57921 514.939 7.32338 514.912 7.06469C514.935 6.93659 514.911 6.80511 514.845 6.69113C514.779 6.57715 514.675 6.48722 514.548 6.43563C514.395 6.3533 514.218 6.31994 514.043 6.34056C513.868 6.36118 513.704 6.43466 513.577 6.55C513.49 6.6382 513.384 6.70758 513.266 6.75336C513.148 6.79914 513.021 6.82022 512.893 6.81515C512.567 6.81182 512.243 6.87515 511.945 7.00079C511.647 7.12643 511.382 7.31141 511.167 7.54299C511.097 7.62283 511.024 7.69919 510.946 7.77175C510.914 7.82298 510.871 7.86646 510.818 7.89864C510.765 7.93081 510.705 7.95076 510.643 7.95685C510.58 7.96294 510.517 7.95499 510.459 7.93366C510.4 7.91233 510.348 7.87822 510.306 7.83413C510.212 7.73409 510.091 7.661 509.955 7.62328C509.819 7.58557 509.675 7.58477 509.539 7.62098C509.539 7.36623 509.495 7.16347 509.131 7.10109C508.953 7.04004 508.801 6.92673 508.696 6.77789C508.592 6.62905 508.541 6.45256 508.552 6.27446C508.552 6.11329 508.419 6.05091 508.281 6.00412C507.663 5.81176 507.051 5.6194 506.428 5.44264C506.168 5.39042 505.898 5.41195 505.652 5.5045C505.405 5.59705 505.193 5.75645 505.043 5.96253C504.898 6.10035 504.718 6.20125 504.52 6.2558C504.322 6.31035 504.113 6.31677 503.912 6.27446C503.845 6.24801 503.772 6.23439 503.7 6.23439C503.627 6.23439 503.554 6.24801 503.487 6.27446C503.432 6.29904 503.37 6.30818 503.31 6.30081C503.249 6.29344 503.192 6.26986 503.145 6.23287C503.057 6.15358 502.948 6.09817 502.83 6.07254C502.711 6.04691 502.588 6.05201 502.472 6.0873C502.428 5.96253 502.527 5.88974 502.533 5.79096C502.538 5.69218 502.533 5.6194 502.456 5.64019C502.13 5.72338 501.794 5.45303 501.468 5.67139C501.302 5.72612 501.123 5.73564 500.951 5.69887C500.779 5.66209 500.622 5.5805 500.497 5.46343C500.42 5.35945 500.497 5.28147 500.541 5.19309C500.606 5.0417 500.623 4.87599 500.591 4.71563C500.559 4.55528 500.478 4.40703 500.359 4.28848C500.341 4.26941 500.318 4.25419 500.293 4.24378C500.268 4.23337 500.24 4.228 500.213 4.228C500.186 4.228 500.158 4.23337 500.133 4.24378C500.108 4.25419 500.085 4.26941 500.067 4.28848C499.874 4.42194 499.69 4.56603 499.515 4.71999C499.486 4.76136 499.448 4.79652 499.404 4.82319C499.36 4.84986 499.31 4.86745 499.258 4.8748C499.206 4.88216 499.153 4.87912 499.102 4.86588C499.051 4.85264 499.004 4.82951 498.963 4.79797C498.905 4.74491 498.827 4.71528 498.746 4.71528C498.664 4.71528 498.586 4.74491 498.528 4.79797C498.337 4.98579 498.103 5.13019 497.844 5.22026C497.585 5.31033 497.307 5.34371 497.033 5.31786C496.948 5.32006 496.866 5.34042 496.791 5.37736C496.717 5.41431 496.652 5.46688 496.602 5.53102C496.453 5.67139 496.299 5.78576 496.111 5.53102C495.995 5.38025 495.891 5.46343 495.858 5.583C495.769 5.88974 495.46 5.85335 495.212 5.91574C495.14 5.91574 495.019 5.91574 495.024 5.84815C495.08 5.45303 494.699 5.5882 494.473 5.49982C494.27 5.39801 494.036 5.36568 493.81 5.40835C493.585 5.45101 493.382 5.56602 493.237 5.73377C492.823 6.11423 492.443 6.52636 492.101 6.96592C491.974 7.13748 491.858 7.13748 491.709 6.96592C491.469 6.65378 491.26 6.32136 491.086 5.97292C491.009 5.84169 490.888 5.7385 490.742 5.68001C490.596 5.62153 490.433 5.61116 490.28 5.65059C489.938 5.69218 489.684 5.82215 489.679 6.17048C489.679 6.76316 489.232 7.21026 488.978 7.68336C488.953 7.73307 488.918 7.77723 488.874 7.81291C488.829 7.84858 488.778 7.87493 488.722 7.89019C488.666 7.90546 488.607 7.90928 488.55 7.9014C488.492 7.89353 488.437 7.87414 488.388 7.84453C488.113 7.74888 487.816 7.72376 487.527 7.77175C487.318 7.77175 487.229 7.89652 487.169 8.04209C487.092 8.24648 486.956 8.42659 486.777 8.56198C486.69 8.61723 486.627 8.70058 486.601 8.79633C486.574 8.89209 486.586 8.99364 486.633 9.08187C486.689 9.2496 486.687 9.4295 486.629 9.59637C486.571 9.76324 486.458 9.90873 486.308 10.0125C486.269 9.90849 486.231 9.80452 486.187 9.70054C486.142 9.59656 485.977 9.47179 485.894 9.48738C485.811 9.50298 485.503 9.53417 485.591 9.82531C485.64 10.0073 485.707 10.184 485.762 10.3452C485.817 10.5064 485.823 10.5636 485.867 10.6935H485.497C485.497 10.5688 485.497 10.47 485.497 10.3608C485.343 10.4596 485.21 10.548 485.089 10.6363C485.126 10.7538 485.153 10.8737 485.172 10.9951C485.173 11.1082 485.214 11.2177 485.287 11.307L485.227 11.3538L485.133 11.437C485.108 11.4024 485.085 11.3659 485.067 11.3278C484.993 11.2188 484.912 11.1146 484.824 11.0159C484.824 10.9015 484.824 10.7819 484.824 10.6623C484.821 10.6208 484.821 10.5791 484.824 10.5376C484.86 10.4529 484.883 10.3635 484.89 10.2724C484.867 10.1343 484.83 9.99848 484.78 9.8669C484.78 9.77852 484.703 9.69534 484.653 9.57576C484.627 9.61184 484.605 9.65014 484.587 9.69014C484.363 9.66836 484.139 9.72692 483.959 9.85413C483.779 9.98134 483.656 10.1678 483.616 10.3764C483.6 10.4484 483.564 10.5149 483.511 10.5688C483.665 10.6779 483.848 10.7351 483.897 10.8495C484.046 11.1978 484.377 11.5254 484.112 11.9569C484.112 11.9933 484.112 12.0764 484.112 12.1336C484.16 12.282 484.196 12.4331 484.223 12.5859C484.223 12.8095 484.223 13.033 484.223 13.2774C484.041 13.1578 483.803 13.1266 483.87 12.9447L483.439 12.6275L483.307 12.7887C483.213 12.6743 483.125 12.5807 483.026 12.456L483.213 12.3676L482.347 11.6241L482.65 11.4942C482.474 11.3538 482.303 11.2238 482.137 11.0834C482.137 11.0523 482.137 10.9587 482.137 10.8963C482.137 10.6363 482.187 10.3764 482.215 10.1217C482.215 10.0333 482.33 9.96048 482.375 9.85651C482.427 9.75283 482.439 9.63487 482.408 9.52378C482.33 9.425 482.148 9.32102 482.06 9.35221C481.972 9.38341 481.674 9.56537 481.668 9.69014C481.668 9.95009 481.393 10.158 481.58 10.4336C481.587 10.4465 481.59 10.4607 481.59 10.4752C481.59 10.4896 481.587 10.5038 481.58 10.5168C481.348 10.7455 481.426 11.0679 481.382 11.3434C481.382 11.437 481.382 11.6241 481.437 11.6345C481.74 11.7125 481.542 11.9361 481.586 12.0349C481.034 12.3728 480.383 12.5547 479.98 13.0746C479.888 13.183 479.767 13.2665 479.629 13.3167C479.492 13.3669 479.343 13.382 479.197 13.3606H479.037C479.037 13.3606 479.037 13.4074 479.037 13.4334L479.241 13.5841C478.689 13.5009 478.425 13.6153 478.353 13.9169C478.684 14.078 478.998 14.4367 479.373 14.0312C479.373 14.0312 479.434 14.0312 479.462 14.0312L480.168 13.8233C480.168 13.8233 480.201 13.7765 480.223 13.7557C480.245 13.7349 480.372 13.6205 480.383 13.6101L480.515 13.8025C480.609 13.9342 480.743 14.0361 480.9 14.0946C481.057 14.153 481.228 14.1654 481.393 14.13C481.555 14.1093 481.721 14.1093 481.884 14.13L482.612 14.5251L482.915 14.941C483.059 15.1334 483.18 15.3466 483.334 15.5233C483.489 15.7001 483.588 16.2616 483.395 16.3967C483.232 16.5431 483.112 16.7269 483.047 16.9302C482.982 17.1335 482.975 17.3492 483.026 17.5561C483.01 17.8466 483.076 18.1358 483.216 18.3949C483.357 18.654 483.567 18.8739 483.825 19.0326C484.112 19.1574 484.019 19.2457 483.897 19.3497L499.824 40.5405V16.1056L504.309 20.8782L504.237 51.5049L500.927 55.6641L483.699 34.5825V55.4457L479.451 50.1584V25.5572C479.452 25.3826 479.393 25.2124 479.283 25.0719C479.173 24.9314 479.018 24.8281 478.841 24.7773C478.663 24.7265 478.473 24.7309 478.299 24.7899C478.125 24.849 477.975 24.9594 477.873 25.1049C476.23 27.3034 474.989 29.7461 474.204 32.3314C473.851 33.9222 475.252 35.196 475.252 36.4905C475.252 37.785 473.504 37.7642 471.755 38.7208C466.558 41.7414 460.721 43.4622 467.744 47.9541C467.907 48.0589 468.027 48.2126 468.085 48.3901C468.143 48.5676 468.136 48.7585 468.064 48.9315C467.766 49.6437 467.159 50.5691 466.503 50.4912C465.846 50.4132 465.455 50.8135 465.455 51.7649C465.455 52.7163 465.102 53.6781 467.203 54.6295C467.703 54.8544 468.176 55.1279 468.616 55.4457C468.749 55.5451 468.847 55.6793 468.899 55.8314C468.952 55.9835 468.955 56.1468 468.909 56.3007C468.863 56.4545 468.77 56.5922 468.641 56.6963C468.512 56.8004 468.354 56.8663 468.185 56.8858C467.347 56.9846 466.481 57.2289 466.155 57.8164C465.455 58.4507 465.802 60.3587 466.503 60.681C467.203 61.0033 468.605 60.681 468.952 61.3153C469.3 61.9495 467.551 62.8905 467.203 64.5022C466.034 71.2348 475.936 71.2608 481.685 73.5535C483.776 74.3749 485.789 75.2068 486.804 77.2395C488.134 80.4109 489.144 83.655 490.33 86.8367C490.375 86.9586 490.39 87.089 490.371 87.2171C490.352 87.3452 490.302 87.4672 490.223 87.573C490.144 87.6788 490.039 87.7654 489.918 87.8254C489.796 87.8854 489.661 87.9172 489.524 87.9181H477.79C475.683 87.9181 473.596 87.5266 471.65 86.7661C469.703 86.0055 467.935 84.8908 466.446 83.4857C464.957 82.0806 463.777 80.4126 462.972 78.5772C462.168 76.7418 461.755 74.775 461.758 72.7893V13.1422C461.758 10.4935 462.875 7.95322 464.862 6.08027C466.85 4.20733 469.545 3.15512 472.356 3.15512H524.098C528.341 3.15512 532.41 4.74356 535.411 7.57102C538.411 10.3985 540.096 14.2333 540.096 18.2319V77.8582C540.095 80.5203 538.972 83.073 536.975 84.9554C534.977 86.8378 532.268 87.8959 529.444 87.8973ZM528.892 45.9317L529.129 45.6198H529.217C529.162 45.7705 529.107 45.9109 529.046 46.0877C528.987 46.0414 528.933 45.9891 528.886 45.9317H528.892ZM529.295 45.6198H529.554C529.512 45.6946 529.458 45.763 529.394 45.8225C529.355 45.755 529.328 45.6926 529.289 45.6198H529.295Z" fill="#182E35"/>
<path d="M972.295 52.9025C974.118 51.1816 975.95 49.4712 977.752 47.728C978.1 47.3909 978.421 47.2267 978.914 47.2399C980.739 47.2846 982.565 47.2922 984.362 46.8864C993.301 44.8644 998.491 35.1469 995.196 26.5959C992.598 19.8516 985.406 15.7457 978.312 17.0116C975.133 17.5792 972.342 18.9249 970.052 21.2873C967.258 24.1708 964.382 26.9721 961.558 29.8267C960.915 30.4766 960.177 30.7729 959.287 30.6457C958.136 30.4814 957.22 29.9334 956.804 28.8052C956.397 27.6945 956.595 26.6437 957.435 25.7916C960.398 22.7892 963.292 19.7118 966.374 16.8373C972.355 11.2591 979.406 9.60139 987.205 11.9731C997.695 15.1604 1003.83 25.9924 1001.44 36.6809C999.253 46.4196 990.734 53.2546 980.77 53.2633C977.987 53.2661 975.204 53.2661 972.421 53.2633C972.282 53.2633 972.146 53.2511 971.933 53.2403C972.054 53.129 972.175 53.0163 972.295 52.9025Z" fill="#182E35"/>
<path d="M571.268 50.3992C571.268 51.1819 571.579 51.9326 572.132 52.486C572.685 53.0395 573.436 53.3504 574.219 53.3504H953.449C954.632 53.3421 955.814 53.2595 956.987 53.1032C960.959 52.5775 964.627 51.2712 967.88 48.9088C968.746 48.2771 969.563 47.5814 970.325 46.8278C974.779 42.4472 979.198 38.0304 983.656 33.654C984.776 32.5519 984.841 31.3397 984.327 30.2645C983.748 29.06 982.531 28.3906 981.189 28.5562C980.422 28.6504 979.829 29.0792 979.295 29.6161C975.296 33.633 971.282 37.6347 967.294 41.6624C964.188 44.8022 960.434 46.6782 956.085 47.2479C955.21 47.3635 954.33 47.4307 953.448 47.4494H574.219C573.436 47.4494 572.686 47.7602 572.132 48.3133C571.579 48.8665 571.268 49.6168 571.268 50.3992Z" fill="#182E35"/>
<path d="M967.033 100.957C969.182 102.72 971.343 104.473 973.466 106.259C973.877 106.601 974.255 106.773 974.837 106.761C976.987 106.716 979.14 106.707 981.259 107.124C991.797 109.195 997.916 119.154 994.032 127.916C990.969 134.825 982.489 139.033 974.127 137.735C970.378 137.154 967.089 135.775 964.388 133.354C961.094 130.399 957.703 127.528 954.374 124.604C953.617 123.938 952.747 123.634 951.697 123.764C950.34 123.932 949.26 124.494 948.77 125.65C948.289 126.788 948.522 127.866 949.513 128.739C953.007 131.815 956.417 134.968 960.053 137.912C967.103 143.627 975.416 145.327 984.611 142.897C996.978 139.631 1004.22 128.53 1001.39 117.578C998.815 107.598 988.774 100.593 977.024 100.585C973.743 100.582 970.462 100.582 967.181 100.585C967.023 100.585 966.857 100.598 966.607 100.608C966.749 100.726 966.891 100.837 967.033 100.957Z" fill="#182E35"/>
<path d="M34.926 101.001C32.7793 102.764 30.6216 104.517 28.5002 106.303C28.0899 106.646 27.7112 106.817 27.1313 106.805C24.9831 106.759 22.8333 106.752 20.7166 107.167C10.1914 109.239 4.07953 119.198 7.95868 127.96C11.0182 134.87 19.4882 139.077 27.8398 137.78C31.5834 137.198 34.8693 135.819 37.5667 133.398C40.8557 130.443 44.2433 127.573 47.5679 124.647C48.3253 123.981 49.194 123.678 50.2425 123.808C51.5978 123.977 52.6763 124.538 53.1662 125.694C53.6459 126.833 53.4139 127.91 52.4238 128.782C48.9343 131.859 45.5278 135.012 41.8971 137.956C34.855 143.671 26.5515 145.37 17.3675 142.94C5.01514 139.674 -2.21387 128.574 0.608948 117.621C3.18091 107.641 13.2098 100.637 24.946 100.628C28.2222 100.626 31.4991 100.626 34.7769 100.628C34.9387 100.628 35.1012 100.641 35.3513 100.652C35.2093 100.769 35.0673 100.885 34.926 101.001Z" fill="#182E35"/>
<path d="M20.7592 124.198C21.0779 124.795 21.6087 125.287 22.2736 125.602C22.9384 125.918 23.7023 126.04 24.4529 125.95C25.3563 125.854 26.0552 125.413 26.6824 124.864C31.3916 120.748 36.118 116.65 40.8138 112.52C44.4721 109.303 48.8926 107.38 54.0135 106.796C55.0435 106.679 56.0801 106.61 57.1188 106.591L503.678 106.591C503.875 106.591 504.073 106.576 504.267 106.547L944.813 106.547C945.853 106.566 946.891 106.634 947.922 106.753C953.05 107.337 957.475 109.259 961.138 112.476C965.839 116.603 970.571 120.704 975.283 124.82C975.914 125.368 976.61 125.81 977.515 125.906C978.266 125.996 979.031 125.874 979.696 125.559C980.362 125.243 980.893 124.751 981.213 124.155C981.822 123.052 981.743 121.811 980.424 120.681C975.167 116.196 969.958 111.67 964.708 107.181C963.81 106.408 962.846 105.696 961.824 105.049C957.989 102.627 953.665 101.289 948.982 100.75C947.599 100.59 946.206 100.505 944.811 100.497L497.717 100.497C497.52 100.497 497.322 100.512 497.127 100.541L57.1204 100.541C55.7271 100.55 54.3358 100.634 52.9548 100.795C48.278 101.333 43.9609 102.672 40.1283 105.092C39.1083 105.74 38.1454 106.453 37.2479 107.225C32.0046 111.714 26.8008 116.241 21.5481 120.726C20.2298 121.854 20.1517 123.097 20.7592 124.198Z" fill="#182E35"/>
</svg>
