<svg width="79" height="79" viewBox="0 0 79 79" fill="var(--secondary-color)" xmlns="http://www.w3.org/2000/svg">
<path fill-rule="evenodd" clip-rule="evenodd" d="M69.747 78.4129H9.30114C4.53209 78.4129 0.666016 74.5468 0.666016 69.7778V9.3319C0.666016 4.56285 4.53209 0.696777 9.30114 0.696777H69.747C74.5161 0.696777 78.3821 4.56285 78.3821 9.3319V69.7778C78.3821 74.5468 74.5161 78.4129 69.747 78.4129ZM56.0551 67.6189H67.5877V43.9276C67.5877 33.9036 61.9055 29.0568 53.9686 29.0568C46.028 29.0568 42.6863 35.2403 42.6863 35.2403V30.2H31.5721V67.6189H42.6863V47.9763C42.6863 42.7132 45.109 39.5812 49.7462 39.5812C54.0088 39.5812 56.0551 42.5908 56.0551 47.9763V67.6189ZM11.4594 18.3955C11.4594 22.2086 14.5271 25.3003 18.3129 25.3003C22.0986 25.3003 25.1645 22.2086 25.1645 18.3955C25.1645 14.5824 22.0986 11.4906 18.3129 11.4906C14.5271 11.4906 11.4594 14.5824 11.4594 18.3955ZM24.1632 67.6189H12.574V30.2H24.1632V67.6189Z"/>
</svg>
