<svg width="120" height="37" viewBox="0 0 120 37" fill="var(--secondary-color)" xmlns="http://www.w3.org/2000/svg">
<path d="M32.937 23.3952C30.9972 23.3952 29.1797 22.565 27.5283 21.2136L27.9302 19.3057L27.9477 19.2351C28.3059 17.2036 29.4419 13.7943 32.937 13.7943C35.5584 13.7943 37.6905 15.9494 37.6905 18.5991C37.6817 21.2401 35.5497 23.3952 32.937 23.3952ZM32.937 8.92753C28.472 8.92753 25.0118 11.8599 23.605 16.6825C21.4554 13.4233 19.8302 9.51048 18.8777 6.21594H14.0719V18.8553C14.0719 21.3461 12.0622 23.3775 9.59808 23.3775C7.13399 23.3775 5.12427 21.3461 5.12427 18.8553V6.21594H0.318414V18.8553C0.300938 24.0312 4.46892 28.2796 9.58934 28.2796C14.7098 28.2796 18.8777 24.0312 18.8777 18.8553V16.7355C19.8127 18.7051 20.9574 20.6925 22.3467 22.459L19.402 36.4497H24.3215L26.4535 26.3011C28.3234 27.5112 30.4729 28.2708 32.937 28.2708C38.206 28.2708 42.4963 23.9075 42.4963 18.5815C42.4963 13.2643 38.206 8.92753 32.937 8.92753Z"/>
<path d="M57.1669 9.47502L60.2689 22.1144L63.6854 9.47502H67.7573L62.5058 27.7407H58.4339L55.2096 15.0218L51.9941 27.7318H47.9222L42.6707 9.46619H46.7426L50.1591 22.1055L53.2611 9.46619H57.1669V9.47502ZM77.5 8.9274C72.2136 8.9274 67.932 13.2642 67.932 18.599C67.932 23.9427 72.2224 28.2706 77.5 28.2706C82.7865 28.2706 87.0768 23.9427 87.0768 18.599C87.0768 13.2553 82.7865 8.9274 77.5 8.9274ZM77.5 24.296C74.3894 24.296 71.8728 21.7522 71.8728 18.6079C71.8728 15.4635 74.3981 12.9197 77.5 12.9197C80.6107 12.9197 83.1273 15.4635 83.1273 18.6079C83.1273 21.7434 80.6107 24.296 77.5 24.296ZM98.707 13.5645C95.972 13.5645 93.7613 15.8079 93.7613 18.5637V27.7318H89.6632V9.47502H93.7613V12.2838C93.7613 12.2838 95.5089 9.46619 99.1002 9.46619H100.358V13.5645H98.707ZM112.46 17.8924C115.37 16.2319 117.345 13.0787 117.345 9.46619H113.247C113.247 12.5134 110.8 14.9865 107.786 14.9865H107.235V0.660156H103.137V27.7318H107.235V19.129H107.724C108.126 19.129 108.651 19.3939 108.887 19.7207L114.706 27.7318H119.617L112.46 17.8924Z"/>
</svg>
