<svg width="446" height="60" viewBox="0 0 446 60" fill="none" xmlns="http://www.w3.org/2000/svg">
<path d="M439.092 24.4519C440.251 24.7831 441.261 25.3628 442.123 26.191C443.381 27.1185 444.292 28.2116 444.855 29.4704C445.419 30.7292 445.7 32.0708 445.7 33.4952C445.7 33.7602 445.684 34.0087 445.65 34.2405C445.65 34.4393 445.634 34.6712 445.601 34.9362C444.739 35.1681 443.845 35.3006 442.918 35.3337C442.023 35.3337 441.096 35.3337 440.135 35.3337C439.638 35.3337 439.158 35.3171 438.694 35.284C438.263 35.2177 437.916 35.0852 437.651 34.8865C437.783 34.754 437.849 34.5718 437.849 34.3399C437.849 33.4786 437.501 32.7996 436.806 32.3027C436.11 31.8058 435.381 31.5573 434.62 31.5573C434.355 31.5573 434.056 31.5739 433.725 31.607C433.394 31.6402 433.162 31.723 433.029 31.8555L433.228 31.9548C432.533 32.0542 432.052 32.3358 431.787 32.7996C431.522 33.2633 431.39 33.7768 431.39 34.3399C431.39 35.2343 431.638 35.8803 432.135 36.2778C432.665 36.6753 433.278 36.9568 433.974 37.1225C434.669 37.2881 435.381 37.4206 436.11 37.52C436.872 37.5862 437.485 37.7519 437.949 38.0169C438.942 38.6131 439.87 39.1928 440.731 39.756C441.626 40.286 442.404 40.9154 443.067 41.6442C443.729 42.3729 444.243 43.2673 444.607 44.3273C445.004 45.3874 445.203 46.7124 445.203 48.3024C445.203 50.29 444.789 52.0953 443.961 53.7185C443.166 55.3417 441.924 56.5508 440.234 57.3458C440.4 57.1139 440.615 56.9317 440.88 56.7992C441.145 56.6336 441.361 56.4183 441.526 56.1533H440.98C440.781 56.2858 440.582 56.4183 440.383 56.5508C440.185 56.6502 440.002 56.733 439.837 56.7992L438.793 57.2464C438.131 57.5445 437.452 57.9421 436.756 58.4389H436.557C436.359 58.4389 436.127 58.4721 435.862 58.5383C435.63 58.5714 435.415 58.588 435.216 58.588C435.05 58.588 434.951 58.5714 434.918 58.5383C434.818 58.5714 434.62 58.588 434.321 58.588H433.775C432.649 58.588 431.622 58.5218 430.694 58.3893C429.767 58.2236 428.756 58.0083 427.663 57.7433C427.232 57.6108 426.852 57.3955 426.52 57.0974C426.222 56.7992 425.941 56.468 425.676 56.1036C425.444 55.7392 425.195 55.3748 424.93 55.0104C424.698 54.6129 424.45 54.2651 424.185 53.967C423.655 53.1057 423.274 52.1782 423.042 51.1844C422.843 50.1906 422.711 49.1637 422.645 48.1037L422.943 47.8552C423.671 47.9215 424.384 47.9712 425.079 48.0043C425.808 48.0374 426.52 48.054 427.216 48.054C427.68 48.054 428.143 48.0374 428.607 48.0043C429.104 47.9712 429.584 47.9215 430.048 47.8552C430.28 47.9215 430.446 48.0374 430.545 48.2031C430.644 48.3687 430.711 48.5675 430.744 48.7993C430.81 48.9981 430.86 49.1968 430.893 49.3956C430.959 49.5944 431.075 49.76 431.241 49.8925C431.936 50.8863 432.847 51.3831 433.974 51.3831C434.967 51.3831 435.779 51.0684 436.408 50.4391C437.038 49.7765 437.352 48.9153 437.352 47.8552C437.352 47.5571 437.253 47.259 437.054 46.9608C436.624 46.199 436.061 45.6358 435.365 45.2714C434.702 44.8739 433.99 44.5758 433.228 44.377C432.466 44.1783 431.671 44.0126 430.843 43.8801C430.048 43.7476 429.303 43.5489 428.607 43.2839C427.746 42.9526 426.984 42.5054 426.322 41.9423C425.692 41.346 425.162 40.6835 424.731 39.9547C424.301 39.1928 423.986 38.3978 423.787 37.5697C423.589 36.7084 423.489 35.8306 423.489 34.9362C423.489 33.5449 423.655 32.2364 423.986 31.0108C424.351 29.752 424.947 28.5926 425.775 27.5326C426.934 26.4063 428.408 25.5284 430.197 24.899C431.986 24.2365 433.758 23.9053 435.514 23.9053C436.74 23.9053 437.932 24.0875 439.092 24.4519ZM443.613 34.5387C443.646 34.5055 443.696 34.489 443.762 34.489L444.259 34.2405C444.226 33.8761 444.209 33.5283 444.209 33.1971C444.243 32.8327 444.226 32.4186 444.16 31.9548C443.994 30.9611 443.613 30.0998 443.017 29.371C442.421 28.6091 441.725 27.9632 440.93 27.4332C440.135 26.9032 439.274 26.456 438.346 26.0916C437.419 25.7272 436.524 25.4125 435.663 25.1475C435.398 25.0812 435.216 25.0481 435.116 25.0481H434.57C433.543 25.0481 432.483 25.1972 431.39 25.4953C430.297 25.7934 429.502 26.191 429.005 26.6878C428.64 26.6878 428.342 26.8369 428.11 27.135C427.878 27.4 427.696 27.5326 427.564 27.5326C427.497 27.5326 427.464 27.4994 427.464 27.4332C427.464 27.3007 427.597 27.1847 427.862 27.0854C428.16 26.9529 428.408 26.7541 428.607 26.4891C428.342 26.5553 428.061 26.7044 427.762 26.9363C427.497 27.1682 427.249 27.4166 427.017 27.6816C426.785 27.9466 426.587 28.2116 426.421 28.4766C426.288 28.7085 426.222 28.8741 426.222 28.9735C426.222 28.8741 426.322 28.7251 426.52 28.5263C426.752 28.3276 426.951 28.1785 427.117 28.0791L427.216 28.3773C426.454 29.0729 425.924 29.8845 425.626 30.812C425.328 31.7064 425.063 32.4683 424.831 33.0977C424.632 33.6608 424.516 34.0583 424.483 34.2902C424.45 34.5221 424.433 34.9693 424.433 35.6318C424.433 36.6918 424.698 37.7022 425.228 38.6628C425.758 39.6235 426.487 40.4847 427.415 41.2466C427.415 41.4123 427.481 41.5779 427.613 41.7435C427.779 41.9092 427.945 42.0251 428.11 42.0914C429.005 42.3564 429.916 42.5882 430.843 42.787C431.771 42.9526 432.665 43.1845 433.526 43.4826C434.421 43.7808 435.249 44.1783 436.011 44.6752C436.773 45.1389 437.419 45.8014 437.949 46.6627C438.147 47.0602 438.247 47.4743 438.247 47.9049C438.247 48.4018 438.131 48.8987 437.899 49.3956C437.667 49.8594 437.352 50.29 436.955 50.6875C436.557 51.0519 436.094 51.35 435.564 51.5819C435.034 51.8138 434.47 51.9297 433.874 51.9297C433.278 51.9297 432.781 51.8469 432.384 51.6813C431.986 51.5156 431.638 51.3003 431.34 51.0353C431.075 50.7372 430.843 50.4225 430.644 50.0912C430.446 49.76 430.247 49.4453 430.048 49.1472C429.651 49.0147 429.137 48.9484 428.508 48.9484C427.845 48.9484 427.199 48.9981 426.57 49.0975C425.974 49.1968 425.361 49.2465 424.731 49.2465H424.284C424.086 49.2465 423.953 49.23 423.887 49.1968C423.92 49.4618 423.97 49.7931 424.036 50.1906C424.102 50.5881 424.168 50.9691 424.235 51.3335C424.334 51.6978 424.433 52.0125 424.533 52.2775C424.632 52.5425 424.715 52.6751 424.781 52.6751C424.98 53.2713 425.311 53.851 425.775 54.4142C426.239 54.9442 426.769 55.4245 427.365 55.8551C427.961 56.2526 428.574 56.5839 429.203 56.8489C429.866 57.1139 430.479 57.2464 431.042 57.2464C431.274 57.2464 431.456 57.1802 431.589 57.0477C431.688 57.147 431.854 57.1967 432.085 57.1967H432.334C432.632 57.1967 432.947 57.263 433.278 57.3955C433.609 57.4949 433.974 57.5445 434.371 57.5445C436.226 57.5445 437.882 57.0145 439.34 55.9545C440.798 54.8945 442.056 53.6523 443.116 52.2279C443.414 51.5653 443.646 50.8531 443.812 50.0912C444.011 49.2962 444.11 48.4846 444.11 47.6565C444.11 46.3315 443.911 45.2383 443.514 44.377C443.149 43.5158 442.636 42.787 441.973 42.1907C441.344 41.5945 440.599 41.0976 439.737 40.7001C438.876 40.3026 437.982 39.905 437.054 39.5075L432.234 37.4703C431.605 37.1722 431.208 36.7084 431.042 36.079C430.876 35.4496 430.793 34.8534 430.793 34.2902C430.793 33.8596 430.843 33.4124 430.943 32.9486C431.042 32.4517 431.208 32.0211 431.439 31.6567C431.704 31.2592 432.052 30.9445 432.483 30.7126C432.914 30.4476 433.46 30.3151 434.123 30.3151C434.752 30.3151 435.315 30.4476 435.812 30.7126C436.342 30.9445 436.806 31.2592 437.203 31.6567C437.601 32.0211 437.932 32.4517 438.197 32.9486C438.462 33.4455 438.661 33.9424 438.793 34.4393C439.224 34.5387 439.737 34.5884 440.334 34.5884C440.698 34.5884 441.079 34.5552 441.477 34.489C441.874 34.3896 442.238 34.3399 442.57 34.3399C442.735 34.3399 442.901 34.373 443.067 34.4393C443.232 34.5055 443.398 34.5387 443.564 34.5387H443.613Z" fill="#F8E2A5"/>
<path d="M396.93 42.2932L396.85 41.1694L393.318 34.1059C393.158 34.427 393.077 34.8551 393.077 35.3902V36.2731C393.077 36.4872 393.077 36.8885 393.077 37.4771C393.131 38.0122 393.184 38.5741 393.238 39.1627C393.291 39.7514 393.318 40.3132 393.318 40.8483C393.372 41.33 393.398 41.651 393.398 41.8116V46.3868C393.398 46.8684 393.372 47.1895 393.318 47.35C393.372 47.4035 393.398 47.5105 393.398 47.6711C393.398 48.1527 393.318 48.7681 393.158 49.5172C392.997 50.2664 392.917 50.855 392.917 51.2831C392.917 51.9787 392.997 53.1292 393.158 54.7346C392.997 55.3767 392.917 55.8048 392.917 56.0189C392.917 56.3399 392.944 56.5807 392.997 56.7413C393.104 56.8483 393.158 57.0623 393.158 57.3834V58.0256C393.158 58.0256 393.104 58.2931 392.997 58.8282L392.756 58.3466C392.435 58.6677 392.141 58.8282 391.873 58.8282C391.713 58.8282 391.579 58.7747 391.472 58.6677C391.418 58.5607 391.338 58.5072 391.231 58.5072C390.857 58.5072 390.321 58.6142 389.626 58.8282C388.074 58.6142 386.87 58.5339 386.014 58.5874C385.158 58.6944 384.435 58.6409 383.847 58.4269C383.579 58.4804 383.311 58.5072 383.044 58.5072C382.776 58.4536 382.509 58.4804 382.241 58.5874L381.278 58.9888L380.716 58.5874C380.716 58.6409 380.636 58.6677 380.475 58.6677C380.368 58.6677 380.315 58.6142 380.315 58.5072C380.475 58.0256 380.556 57.3567 380.556 56.5005C380.556 55.7513 380.502 55.0022 380.395 54.253C380.342 53.4503 380.315 52.7279 380.315 52.0858C380.315 51.6577 380.342 51.2563 380.395 50.8818C380.449 50.5072 380.475 50.1058 380.475 49.6777C380.475 48.6075 380.368 47.8316 380.154 47.35C380.154 47.457 380.154 46.7614 380.154 45.2631C380.208 43.7112 380.235 41.758 380.235 39.4035C380.288 37.049 380.315 34.4805 380.315 31.6979C380.368 28.8618 380.395 26.2397 380.395 23.8317C380.449 21.3701 380.475 19.3099 380.475 17.6511C380.529 15.9387 380.556 15.029 380.556 14.922C380.502 14.815 380.475 14.5474 380.475 14.1193V13.3167C380.475 12.0324 380.529 10.7481 380.636 9.46382C380.743 8.12603 380.796 6.815 380.796 5.53073V3.44378C380.796 2.69461 380.957 2.21301 381.278 1.99896C381.653 1.78492 382.107 1.67789 382.643 1.67789C382.964 1.67789 383.338 1.73141 383.766 1.83843C384.194 1.89194 384.623 1.9187 385.051 1.9187C385.8 1.9187 386.576 1.81167 387.378 1.59763C388.181 1.33007 389.01 1.19629 389.867 1.19629C390.348 1.19629 390.83 1.46385 391.311 1.99896C391.847 2.53408 392.328 3.14946 392.756 3.84511C393.184 4.54076 393.532 5.20966 393.8 5.8518C394.121 6.44042 394.308 6.84176 394.362 7.05581C394.576 7.64443 394.95 8.31332 395.485 9.06249C396.074 9.81165 396.609 10.5608 397.091 11.31C397.251 11.524 397.412 11.9254 397.572 12.514C397.733 13.1026 397.92 13.718 398.134 14.3601C398.348 15.0023 398.536 15.5909 398.696 16.126C398.857 16.6611 399.017 17.009 399.178 17.1695C399.338 17.7581 399.659 18.2932 400.141 18.7748C400.622 19.2564 400.863 19.8183 400.863 20.4604L401.184 20.7815C401.131 20.7815 401.077 20.8083 401.024 20.8618C401.452 21.2899 401.746 21.718 401.907 22.1461C402.121 22.5206 402.415 22.922 402.79 23.3501C402.95 23.2966 403.03 23.1895 403.03 23.029C403.03 22.922 403.004 22.815 402.95 22.7079C402.897 22.5474 402.87 22.4136 402.87 22.3066C402.87 22.1461 402.897 22.039 402.95 21.9855L403.111 22.1461C403.111 21.6645 403.084 21.2899 403.03 21.0223C403.03 20.7548 403.004 20.4337 402.95 20.0591C402.95 19.631 402.897 19.0959 402.79 18.4538C402.683 17.7581 402.549 16.7682 402.388 15.4839L402.549 15.7247C402.549 15.7782 402.522 15.2431 402.469 14.1193C402.469 12.9421 402.442 11.6578 402.388 10.2665C402.388 8.8752 402.362 7.61767 402.308 6.49393C402.308 5.37019 402.308 4.83508 402.308 4.88859C402.308 4.83508 402.255 4.59427 402.148 4.16618C402.362 3.89862 402.415 3.47053 402.308 2.88191C402.255 2.29328 402.388 1.81167 402.709 1.43709C402.977 1.4906 403.218 1.54411 403.432 1.59763C403.699 1.59763 403.967 1.59763 404.234 1.59763C404.877 1.59763 405.465 1.57087 406 1.51736C406.589 1.46385 407.178 1.43709 407.766 1.43709C408.408 1.38358 409.104 1.33007 409.853 1.27656C410.656 1.22305 411.592 1.19629 412.663 1.19629C412.77 1.19629 412.877 1.22305 412.984 1.27656C413.091 1.27656 413.171 1.27656 413.224 1.27656L413.305 1.19629C413.626 1.19629 414.188 1.33007 414.99 1.59763L414.91 1.83843C414.857 1.83843 414.776 1.91869 414.669 2.07923C414.562 2.18625 414.509 2.26652 414.509 2.32003C414.509 2.48057 414.562 2.61435 414.669 2.72137C414.83 2.82839 414.91 2.93542 414.91 3.04244C414.91 3.09595 414.883 3.14946 414.83 3.20297C414.937 4.2732 415.017 5.34344 415.071 6.41367C415.124 7.4839 415.151 8.55413 415.151 9.62436C415.151 12.0324 415.071 14.3869 414.91 16.6879C414.803 18.9889 414.75 21.3434 414.75 23.7514C414.75 26.8016 414.776 29.7982 414.83 32.7413C414.883 35.631 414.91 38.6009 414.91 41.651C414.91 43.2029 414.883 44.7279 414.83 46.2263C414.83 47.6711 414.776 49.1694 414.669 50.7212C414.776 52.2731 414.83 53.7446 414.83 55.1359C414.883 56.5272 414.964 57.3834 415.071 57.7045C415.071 57.7045 415.044 57.7312 414.99 57.7848C414.99 57.7848 414.91 57.8115 414.75 57.865C414.642 57.9185 414.428 58.0256 414.107 58.1861C413.786 58.2931 413.305 58.4536 412.663 58.6677H411.619C410.923 58.6677 410.255 58.6409 409.612 58.5874C408.97 58.5874 408.301 58.5874 407.606 58.5874C407.124 58.5874 406.642 58.5874 406.161 58.5874C405.679 58.6409 405.224 58.6945 404.796 58.748L404.395 59.1493C404.395 59.0423 404.341 58.962 404.234 58.9085C404.181 58.855 404.127 58.7747 404.074 58.6677C403.218 57.8115 402.576 57.1159 402.148 56.5807C401.773 56.0456 401.425 55.4035 401.104 54.6543C400.837 53.8517 400.515 52.8082 400.141 51.5239C399.82 50.2396 399.311 48.4737 398.616 46.2263L397.813 43.9788C397.813 44.0323 397.786 44.059 397.733 44.059C397.519 44.059 397.251 43.4704 396.93 42.2932ZM413.305 57.2229H413.706L413.626 55.457H413.786C413.733 55.2965 413.706 54.8951 413.706 54.253V53.049C413.706 51.8182 413.733 50.5874 413.786 49.3567C413.84 48.1259 413.867 46.8952 413.867 45.6644C413.867 45.1828 413.867 44.1393 413.867 42.534C413.867 40.9286 413.84 39.029 413.786 36.835C413.786 34.5875 413.786 32.2062 413.786 29.6912C413.786 27.1226 413.76 24.6879 413.706 22.3869C413.706 20.0859 413.706 18.0257 413.706 16.2063C413.706 14.3869 413.706 13.1026 413.706 12.3534C413.706 11.2297 413.679 10.106 413.626 8.98222C413.626 7.80497 413.599 6.65447 413.546 5.53073L413.144 4.80832L413.546 4.64778V4.32671C413.546 3.84511 413.438 3.39026 413.224 2.96217C413.117 2.96217 412.984 2.98893 412.823 3.04244C412.663 3.04244 412.448 3.06919 412.181 3.1227C411.86 3.06919 411.539 3.04244 411.218 3.04244C410.897 2.98893 410.576 2.96217 410.255 2.96217H408.489C407.739 2.96217 406.99 2.98893 406.241 3.04244C405.492 3.04244 404.743 3.04244 403.994 3.04244C403.833 4.91534 403.726 6.815 403.673 8.74142C403.619 10.6678 403.592 12.5942 403.592 14.5207C403.592 16.0725 403.592 17.6243 403.592 19.1762C403.646 20.6745 403.699 22.1996 403.753 23.7514L403.271 24.3935C403.164 24.3935 402.95 24.233 402.629 23.9119C402.308 23.5909 401.987 23.243 401.666 22.8685C401.345 22.4939 401.024 22.1461 400.703 21.825C400.435 21.5039 400.275 21.3434 400.221 21.3434L399.338 19.8183C398.75 18.427 398.241 17.1427 397.813 15.9655C397.385 14.7347 396.877 13.4772 396.288 12.1929C395.699 10.9086 394.95 9.51733 394.041 8.01901C393.131 6.52069 391.927 4.78156 390.428 2.80163C390.214 2.80163 390 2.80163 389.786 2.80163C389.626 2.74812 389.439 2.72137 389.224 2.72137C388.047 2.72137 386.924 2.85515 385.853 3.1227C384.783 3.39026 383.686 3.57755 382.562 3.68458C382.295 12.2999 382.134 17.437 382.081 19.0959L381.84 19.417C381.84 19.8451 381.84 20.2732 381.84 20.7012C381.893 21.0758 381.92 21.4772 381.92 21.9053C381.92 23.4571 381.867 25.0089 381.76 26.5608C381.706 28.1126 381.679 29.6912 381.679 31.2965C381.679 33.0089 381.679 34.4537 381.679 35.631C381.733 36.8082 381.813 37.5039 381.92 37.7179C382.027 40.9286 382.054 44.2998 382 47.8316C382 51.3099 382.134 54.5205 382.402 57.4637C382.99 57.5707 383.633 57.651 384.328 57.7045C385.077 57.758 385.853 57.7848 386.656 57.7848C388.261 57.7848 389.786 57.6242 391.231 57.3031C391.231 57.1426 391.178 57.0088 391.071 56.9018C391.017 56.7948 390.99 56.6878 390.99 56.5807C391.044 56.4202 391.124 56.3399 391.231 56.3399L391.633 54.0122C391.847 52.7814 391.954 51.5507 391.954 50.3199C391.954 49.0891 391.954 47.8584 391.954 46.6276C391.954 44.7547 391.927 42.855 391.873 40.9286C391.82 38.9487 391.793 36.6744 391.793 34.1059L391.633 33.8651C391.686 33.544 391.713 33.1962 391.713 32.8216C391.713 32.447 391.74 32.0992 391.793 31.7781C391.9 31.4036 392.034 31.1092 392.194 30.8952C392.355 30.6276 392.622 30.4939 392.997 30.4939C393.051 30.4939 393.104 30.5206 393.158 30.5741C393.211 30.5741 393.265 30.5741 393.318 30.5741C393.425 31.4303 393.639 32.2062 393.96 32.9019C394.335 33.544 394.709 34.1862 395.084 34.8283C395.512 35.4704 395.913 36.1393 396.288 36.835C396.716 37.4771 397.037 38.1995 397.251 39.0022C397.358 39.2698 397.492 39.4838 397.653 39.6443C397.813 39.7514 397.893 39.8851 397.893 40.0457C397.893 40.2062 397.867 40.3132 397.813 40.3667L398.214 41.4102C398.482 41.5708 398.562 41.7848 398.455 42.0524C398.402 42.2664 398.509 42.4269 398.776 42.534C399.311 44.0858 399.793 45.4236 400.221 46.5473C400.649 47.6711 401.077 48.7681 401.505 49.8383C401.933 50.855 402.388 51.952 402.87 53.1292C403.352 54.253 403.887 55.5908 404.475 57.1426C405.224 57.1426 405.947 57.1961 406.642 57.3031C407.338 57.3567 408.061 57.3834 408.81 57.3834C409.559 57.3834 410.255 57.3032 410.897 57.1426C411.057 57.3032 411.325 57.3834 411.699 57.3834C411.967 57.3834 412.234 57.3567 412.502 57.3031C412.77 57.2496 413.037 57.2229 413.305 57.2229ZM398.375 45.6644C398.482 45.8784 398.562 46.0657 398.616 46.2263L398.375 45.6644Z" fill="#F8E2A5"/>
<path d="M367.68 7.21684C368.804 8.28707 369.633 9.5981 370.168 11.1499C370.811 12.6483 371.239 14.2001 371.453 15.8054C371.667 17.3573 371.774 18.9626 371.774 20.6215C371.774 22.1733 371.72 23.7787 371.613 25.4375C371.506 27.0429 371.453 28.6215 371.453 30.1733V31.297C371.453 31.8857 371.479 32.2602 371.533 32.4208C371.426 34.4542 371.346 36.4609 371.292 38.4408C371.239 40.3672 371.078 42.2937 370.811 44.2201C370.543 46.1465 370.088 48.0729 369.446 49.9993C368.857 51.8722 367.974 53.7184 366.797 55.5378C366.155 56.2334 365.406 56.7685 364.55 57.1431C363.747 57.5177 362.891 57.812 361.981 58.0261C361.071 58.2401 360.135 58.4274 359.172 58.5879C358.262 58.6949 357.379 58.8555 356.523 59.0695H354.998C353.821 59.0695 352.75 59.123 351.787 59.2301C350.824 59.3371 349.781 59.3906 348.657 59.3906C347.533 59.3906 346.436 59.123 345.366 58.5879C344.296 58.1063 343.332 57.4642 342.476 56.6615C341.62 55.8053 340.871 54.8689 340.229 53.8522C339.64 52.7819 339.239 51.7117 339.025 50.6415C338.65 49.0896 338.409 47.5913 338.302 46.1465C338.195 44.6482 338.115 43.1766 338.061 41.7318C338.061 40.287 338.035 38.8422 337.981 37.3974C337.981 35.899 337.874 34.3739 337.66 32.8221V31.7786C337.66 30.2803 337.687 28.782 337.74 27.2837C337.847 25.7318 337.901 24.18 337.901 22.6282C338.008 21.5044 338.061 20.3807 338.061 19.2569C338.115 18.0797 338.195 16.9024 338.302 15.7252C338.409 14.5479 338.597 13.4242 338.864 12.3539C339.185 11.2837 339.667 10.267 340.309 9.30379C340.791 8.07302 341.459 7.02955 342.316 6.17336C343.225 5.31718 344.215 4.64828 345.286 4.16668C346.409 3.63156 347.587 3.25698 348.817 3.04294C350.102 2.77538 351.386 2.6416 352.67 2.6416H354.276C355.934 2.6416 357.593 2.80213 359.252 3.1232C360.911 3.39076 362.463 3.87237 363.908 4.56802C365.352 5.21016 366.61 6.0931 367.68 7.21684ZM369.205 35.3907C369.205 31.5914 369.285 29.0496 369.446 27.7653C369.446 27.3372 369.419 26.9358 369.366 26.5613C369.366 26.1867 369.366 25.7853 369.366 25.3573C369.366 24.6081 369.366 23.8857 369.366 23.19C369.419 22.4409 369.446 21.2636 369.446 19.6583C369.446 18.8556 369.419 17.9459 369.366 16.9292C369.312 15.859 369.178 14.762 368.964 13.6382C368.75 12.5145 368.429 11.3907 368.001 10.267C367.573 9.14325 367.011 8.07302 366.316 7.0563C364.229 5.98607 361.901 5.23691 359.332 4.80882C356.764 4.32722 354.115 4.08641 351.386 4.08641C350.316 4.08641 349.299 4.22019 348.336 4.48775C347.373 4.7018 346.516 5.1834 345.767 5.93256L345.687 5.69176C345.74 5.63825 345.767 5.55798 345.767 5.45095C343.894 6.52119 342.342 8.04627 341.112 10.0262C339.881 12.0061 339.266 14.1466 339.266 16.4476C339.266 18.1064 339.239 19.5513 339.185 20.782C339.132 21.9593 339.078 23.0295 339.025 23.9927C338.971 24.9024 338.918 25.7586 338.864 26.5613C338.811 27.3639 338.784 28.2201 338.784 29.1298C338.784 30.9492 338.891 32.3138 339.105 33.2234H339.025C338.971 33.1699 338.918 33.1432 338.864 33.1432L338.944 36.6749C339.159 38.0127 339.292 39.404 339.346 40.8488C339.453 42.2937 339.613 43.7117 339.827 45.103C340.041 46.4943 340.362 47.8321 340.791 49.1164C341.219 50.4007 341.888 51.5512 342.797 52.5679C343.225 53.4776 343.787 54.2267 344.483 54.8154C345.179 55.3505 345.928 55.7786 346.73 56.0996C347.587 56.4207 348.47 56.6615 349.379 56.822C350.289 56.9291 351.172 57.0093 352.028 57.0628C352.67 56.9023 353.179 56.7953 353.553 56.7418C353.981 56.6883 354.516 56.608 355.158 56.501C355.854 56.394 356.844 56.2334 358.128 56.0194C359.413 55.7518 361.259 55.3237 363.667 54.7351C364.951 52.9157 365.968 51.4709 366.717 50.4007C367.466 49.2769 368.001 48.287 368.322 47.4308C368.697 46.5746 368.938 45.7184 369.045 44.8622C369.152 44.006 369.205 42.8823 369.205 41.491V35.792L369.366 35.1499L369.205 35.3907ZM357.245 13.7988C357.727 14.0663 358.61 14.6817 359.894 15.6449C360.376 17.1967 360.697 18.481 360.857 19.4977C361.018 20.4609 361.152 21.3974 361.259 22.3071C361.312 22.7352 361.366 24.3405 361.419 27.1231C361.473 29.9057 361.553 33.9191 361.66 39.1632C361.66 40.0729 361.607 41.0094 361.5 41.9726C361.393 42.8823 361.205 43.7652 360.938 44.6214V44.9425C360.938 45.103 360.75 45.3438 360.376 45.6649C360.055 45.986 359.627 46.307 359.092 46.6281C358.61 46.9492 358.075 47.2435 357.486 47.511C356.951 47.7251 356.469 47.8321 356.041 47.8321C355.934 48.2602 355.774 48.5278 355.56 48.6348C355.346 48.7418 355.105 48.7953 354.837 48.7953C353.821 48.7953 352.938 48.6615 352.189 48.394C351.493 48.0729 350.851 47.6716 350.262 47.19C349.727 46.6549 349.219 46.0662 348.737 45.4241C348.255 44.7819 347.774 44.113 347.292 43.4174C347.185 42.8288 347.051 41.8656 346.891 40.5278C346.73 39.1365 346.597 37.3171 346.49 35.0696V34.2669C346.49 32.394 346.677 30.5746 347.051 28.8087C347.48 27.0429 347.694 25.2502 347.694 23.4308C347.694 22.6817 347.613 21.8522 347.453 20.9426L348.175 17.6516C348.443 17.5446 348.577 17.384 348.577 17.17C348.63 16.9024 348.764 16.6884 348.978 16.5278C349.674 15.8322 350.449 15.2436 351.306 14.762C352.162 14.2804 353.393 14.0396 354.998 14.0396C355.426 14.0396 355.56 13.9325 355.399 13.7185C355.292 13.5044 355.453 13.3974 355.881 13.3974C356.309 13.3974 356.764 13.5312 357.245 13.7988ZM350.985 43.5779C351.306 44.5947 351.787 45.5311 352.429 46.3873H352.75C354.57 45.3706 355.774 44.6482 356.362 44.2201C357.914 38.1198 358.69 34.1867 358.69 32.4208C358.69 31.3505 358.663 30.3071 358.61 29.2904C358.556 28.2201 358.476 27.1766 358.369 26.1599C358.209 25.4108 358.128 24.4476 358.128 23.2703C358.128 22.0395 358.048 20.8623 357.888 19.7385C357.781 18.6148 357.54 17.6516 357.165 16.8489C356.791 16.0462 356.122 15.6449 355.158 15.6449C354.409 15.6449 353.847 15.7252 353.473 15.8857C353.098 16.0462 352.804 16.2603 352.59 16.5278C352.376 16.7419 352.189 17.0095 352.028 17.3305C351.921 17.6516 351.707 17.9727 351.386 18.2937L351.065 18.2135L351.306 17.4108L350.021 18.2937C349.807 18.8824 349.7 19.6048 349.7 20.4609C349.754 21.3171 349.754 21.879 349.7 22.1466C349.647 22.5747 349.62 23.0027 349.62 23.4308C349.62 23.8589 349.62 24.287 349.62 24.7151V27.1231C349.62 28.1934 349.62 29.2368 349.62 30.2536C349.62 31.2703 349.7 32.3138 349.861 33.384C350.021 34.5077 350.102 35.6582 350.102 36.8355C350.155 38.0127 350.235 39.1632 350.342 40.287C350.503 41.4107 350.717 42.5077 350.985 43.5779Z" fill="#F8E2A5"/>
<path d="M327.169 1.59778C327.222 1.27671 327.303 0.982401 327.41 0.714844C327.57 0.92889 327.677 1.2232 327.731 1.59778C327.784 1.91885 327.945 2.18641 328.212 2.40046H329.336C329.336 2.77504 329.149 2.98908 328.774 3.04259C328.4 3.09611 328.212 3.31015 328.212 3.68473V3.92553C327.998 5.10279 327.865 6.28004 327.811 7.4573C327.757 8.63455 327.731 9.83856 327.731 11.0693C327.731 12.5141 327.757 14.0125 327.811 15.5643C327.865 17.0626 327.891 18.5877 327.891 20.1395C327.891 22.066 327.811 23.9389 327.65 25.7582C327.704 26.1863 327.731 26.6144 327.731 27.0425C327.731 27.4706 327.731 27.8987 327.731 28.3268V30.8151C327.731 33.3836 327.65 35.5509 327.49 37.3167C327.383 39.0291 327.329 40.3401 327.329 41.2498C327.436 43.9789 327.543 46.6813 327.65 49.3568C327.758 52.0324 327.972 54.7348 328.293 57.4638L328.854 58.5876C328.854 58.8016 328.721 58.9354 328.453 58.9889C328.239 59.0424 328.079 59.0692 327.972 59.0692C327.383 59.0692 326.714 58.9622 325.965 58.7481C325.269 58.5876 324.092 58.5073 322.433 58.5073H319.543C318.955 58.5073 318.473 58.5073 318.099 58.5073C317.778 58.4538 317.564 58.427 317.457 58.427H317.296L316.975 58.5876C316.814 58.6946 316.413 58.8551 315.771 59.0692C315.182 59.2832 314.834 59.3903 314.727 59.3903C314.62 59.3903 314.567 59.3635 314.567 59.31V59.2297C314.299 59.2297 314.139 59.1227 314.085 58.9086C314.032 58.6946 313.952 58.5876 313.845 58.5876L313.523 58.7481C313.684 53.8786 313.898 49.2498 314.166 44.8619C314.433 40.4204 314.567 35.9254 314.567 31.377C314.567 29.7716 314.54 28.193 314.487 26.6412C314.433 25.0358 314.353 23.377 314.246 21.6646C314.299 20.5409 314.326 19.4171 314.326 18.2934C314.326 17.1696 314.513 16.0727 314.888 15.0024L314.567 14.9222L314.647 14.4406C314.647 14.4941 314.674 14.5476 314.727 14.6011C314.727 14.28 314.754 13.9857 314.808 13.7181C314.915 13.3971 314.968 12.8887 314.968 12.1931C314.968 11.4439 314.941 10.8285 314.888 10.3469C314.888 9.86532 314.888 9.49074 314.888 9.22318C314.888 8.58104 314.915 7.9389 314.968 7.29676C315.075 6.60111 315.129 5.93222 315.129 5.29008C315.129 4.70145 315.049 4.11283 314.888 3.5242H314.647C314.647 3.14962 314.834 2.82855 315.209 2.56099C315.637 2.29343 315.824 2.15966 315.771 2.15966H316.092H316.895C316.948 2.15966 317.028 2.15966 317.135 2.15966C317.296 2.15966 317.483 2.1329 317.697 2.07938L317.617 2.40046C318.313 2.6145 319.276 2.72153 320.507 2.72153C321.577 2.72153 322.62 2.66801 323.637 2.56099C324.707 2.40046 325.751 2.32019 326.768 2.32019C327.035 2.10614 327.169 1.86534 327.169 1.59778ZM325.965 10.8285C326.018 10.8285 326.072 10.8553 326.125 10.9088V10.7483C326.125 10.6412 326.072 10.561 325.965 10.5075C325.858 10.4004 325.804 10.2934 325.804 10.1864L325.965 10.0259L326.045 10.1061V5.93222C326.045 5.77168 326.018 5.58439 325.965 5.37035C325.965 5.1563 325.938 4.9155 325.885 4.64794C324.814 4.43389 323.771 4.27336 322.754 4.16634C321.737 4.0058 320.694 3.92553 319.624 3.92553H318.179C317.697 3.92553 317.457 4.16634 317.457 4.64794C317.457 4.75496 317.457 4.9155 317.457 5.12955C317.51 5.34359 317.564 5.58439 317.617 5.85195L317.858 6.57436C317.858 6.57436 317.671 6.44058 317.296 6.17302C317.296 6.33355 317.296 6.52085 317.296 6.73489C317.35 6.89543 317.376 7.08272 317.376 7.29676C317.376 7.67134 317.269 7.9389 317.055 8.09944L316.975 7.9389C316.975 8.04592 316.948 8.1797 316.895 8.34024C316.895 8.50077 316.895 8.63455 316.895 8.74157C316.895 8.95562 317.028 9.19642 317.296 9.46398C317.296 10.9088 317.135 11.6312 316.814 11.6312C316.707 12.5409 316.6 13.8519 316.493 15.5643C316.44 17.2767 316.386 19.0961 316.333 21.0225C316.333 22.9489 316.306 24.8486 316.253 26.7215C316.253 28.5944 316.253 30.1462 316.253 31.377C316.253 32.7683 316.279 34.1596 316.333 35.5509C316.44 36.9422 316.547 38.2532 316.654 39.484C316.761 40.6612 316.841 41.6779 316.895 42.5341C317.002 43.3368 317.055 43.8451 317.055 44.0592V44.1395L316.975 43.9789V44.6211C317.028 45.1562 317.082 45.7716 317.135 46.4672C317.189 47.1094 317.216 47.7782 317.216 48.4739C317.269 49.116 317.296 49.7582 317.296 50.4003C317.35 50.9889 317.376 51.4973 317.376 51.9254C317.376 52.407 317.323 52.8886 317.216 53.3702C317.162 53.8518 317.135 54.3334 317.135 54.815C317.135 55.5642 317.242 56.126 317.457 56.5006C319.865 56.4471 321.577 56.4204 322.594 56.4204C323.61 56.4204 324.119 56.2063 324.119 55.7782C324.386 56.0993 324.574 56.2598 324.681 56.2598C324.788 56.2063 324.921 56.2598 325.082 56.4204C325.189 55.8317 325.242 55.2431 325.242 54.6545C325.296 54.0659 325.323 53.4772 325.323 52.8886V49.9187L325.082 49.999V49.5976C325.135 49.5976 325.162 49.3301 325.162 48.795V45.1027C325.162 44.193 325.162 43.203 325.162 42.1328C325.216 41.0625 325.296 39.8585 325.403 38.5208C325.403 38.0927 325.323 37.3435 325.162 36.2733C325.162 35.9522 325.242 35.6311 325.403 35.3101C325.456 35.3101 325.51 35.3368 325.564 35.3903C325.671 35.0693 325.724 34.882 325.724 34.8285C325.724 34.4004 325.617 33.8385 325.403 33.1428H325.483C325.537 33.1428 325.564 33.0091 325.564 32.7415C325.564 32.4739 325.537 32.0459 325.483 31.4572C325.43 30.8686 325.349 30.0392 325.242 28.9689C325.242 28.4873 325.269 28.2198 325.323 28.1663C325.43 28.2733 325.483 28.3536 325.483 28.4071L325.644 28.4873C325.644 28.1128 325.671 27.5241 325.724 26.7215C325.778 25.8653 325.804 24.9288 325.804 23.9121C325.858 22.8419 325.911 21.7181 325.965 20.5409C326.018 19.3636 326.045 18.2131 326.045 17.0894V13.2365C326.045 12.8085 326.045 12.4071 326.045 12.0325C326.045 11.6044 326.018 11.2031 325.965 10.8285Z" fill="#F8E2A5"/>
<path d="M304.024 2.72124C304.345 2.72124 304.8 2.80151 305.388 2.96205C305.442 3.01556 305.495 3.06907 305.549 3.12258C305.602 3.12258 305.683 3.17609 305.79 3.28312L305.709 6.17274L305.629 6.09247L305.469 6.33327L305.549 13.9587C305.067 14.2797 304.826 14.5741 304.826 14.8416C304.88 15.1092 304.853 15.2429 304.746 15.2429C304.639 15.2429 304.505 15.2429 304.345 15.2429C304.238 15.1894 304.131 15.1627 304.024 15.1627C303.97 15.2162 303.917 15.2429 303.863 15.2429C303.81 15.2429 303.729 15.2697 303.622 15.3232C303.569 15.3232 303.489 15.3232 303.382 15.3232C303.114 15.2697 302.846 15.2429 302.579 15.2429C302.311 15.1894 302.044 15.1627 301.776 15.1627C301.295 15.1627 300.84 15.1894 300.412 15.2429C299.984 15.2965 299.555 15.3232 299.127 15.3232C298.592 15.3232 298.271 15.2965 298.164 15.2429L295.114 15.4035C295.007 15.671 294.927 16.0724 294.873 16.6075C294.82 17.1426 294.793 17.7045 294.793 18.2931C294.793 18.7212 294.793 19.1493 294.793 19.5774C294.846 19.952 294.873 20.2463 294.873 20.4603L294.713 29.2095C294.713 30.2262 294.713 30.9753 294.713 31.4569C294.766 31.885 294.82 32.2061 294.873 32.4202C294.927 32.6342 294.953 32.7947 294.953 32.9018C295.007 33.0088 295.061 33.1961 295.114 33.4636C295.168 33.6777 295.194 34.079 295.194 34.6676C295.248 35.2563 295.275 36.1124 295.275 37.2362C295.275 37.6643 295.248 38.2797 295.194 39.0823C295.194 39.8315 295.168 40.6877 295.114 41.6509C295.061 42.6141 295.007 43.6041 294.953 44.6208C294.953 45.6375 294.953 46.574 294.953 47.4301C294.953 49.1425 295.007 50.8549 295.114 52.5672C295.221 54.2261 295.328 55.992 295.435 57.8649L294.552 58.3465L294.392 58.186C292.037 58.293 290.084 58.3465 288.532 58.3465C287.034 58.3465 285.83 58.3732 284.92 58.4268C283.85 58.4803 282.994 58.507 282.352 58.507H282.432L282.352 58.3465C282.352 58.1325 282.405 57.9452 282.512 57.7846C282.619 57.5706 282.673 57.41 282.673 57.303V57.1425C282.726 56.7679 282.753 56.4736 282.753 56.2595C282.753 56.0455 282.753 55.885 282.753 55.7779V55.0555C282.699 54.788 282.646 54.5472 282.592 54.3331C282.592 54.0656 282.539 53.798 282.432 53.5305L282.271 54.0121V55.2161C282.271 55.7512 282.164 56.1258 281.95 56.3398V56.0187C282.004 55.3231 282.057 54.7077 282.111 54.1726C282.164 53.6375 282.191 53.0756 282.191 52.487C282.244 51.8984 282.271 51.2295 282.271 50.4803C282.325 49.7311 282.352 48.8214 282.352 47.7512C282.352 46.9485 282.325 46.0656 282.271 45.1024C282.271 44.0857 282.271 42.9619 282.271 41.7312C282.325 41.1425 282.405 40.7947 282.512 40.6877C282.512 40.5807 282.485 40.3666 282.432 40.0455C282.432 39.671 282.432 39.2429 282.432 38.7613C282.432 38.4937 282.432 38.2262 282.432 37.9586C282.485 37.691 282.512 37.4235 282.512 37.1559V36.9151C282.619 36.5941 282.699 36.3265 282.753 36.1124C282.86 35.8984 282.913 35.5506 282.913 35.069C282.913 34.4803 282.887 34.1325 282.833 34.0255L282.673 33.9452H282.753C282.646 33.4101 282.592 33.1426 282.592 33.1426C282.592 33.0355 282.619 32.6877 282.673 32.0991C282.726 31.4569 282.753 30.788 282.753 30.0924C282.753 29.7178 282.726 29.37 282.673 29.0489C282.673 28.7279 282.646 28.4335 282.592 28.166L282.913 28.3265C282.967 28.273 282.994 28.1125 282.994 27.8449C282.994 27.4703 282.967 27.2563 282.913 27.2028L282.753 27.0422C282.699 26.6677 282.673 26.3466 282.673 26.079C282.673 25.8115 282.673 25.6242 282.673 25.5172V25.1158H282.512L282.592 24.554C282.592 23.8583 282.566 23.1359 282.512 22.3867C282.512 21.5841 282.485 20.8617 282.432 20.2195C282.378 19.5774 282.325 19.0155 282.271 18.5339C282.271 18.0523 282.271 17.7312 282.271 17.5707L282.191 16.3667L282.673 15.1627V15.2429C282.405 15.2429 281.843 15.1359 280.987 14.9219C280.398 15.1359 279.676 15.2429 278.82 15.2429C278.392 15.2429 277.937 15.2429 277.455 15.2429C277.027 15.1894 276.599 15.1627 276.171 15.1627C275.743 15.1627 275.395 15.1894 275.127 15.2429C274.913 15.2429 274.432 15.2429 273.683 15.2429C273.415 15.2429 273.148 15.2429 272.88 15.2429C272.666 15.2429 272.372 15.1894 271.997 15.0824C271.89 14.4403 271.837 13.8249 271.837 13.2363C271.837 12.5941 271.837 11.9787 271.837 11.3901V9.2229C271.837 8.79481 271.837 8.39347 271.837 8.01888C271.837 7.59079 271.81 7.18946 271.756 6.81487L271.596 4.88846C271.596 4.40686 271.649 3.92525 271.756 3.44365C271.917 2.96205 271.997 2.69449 271.997 2.64098C271.997 2.53395 271.944 2.45368 271.837 2.40017C271.729 2.29315 271.676 2.18613 271.676 2.0791H271.756C272.024 2.0791 272.693 2.13261 273.763 2.23964C274.833 2.34666 276.064 2.40017 277.455 2.40017C277.83 2.40017 278.178 2.40017 278.499 2.40017C278.873 2.34666 279.221 2.29315 279.542 2.23964L282.592 2.31991C283.02 2.31991 283.422 2.34666 283.796 2.40017C284.171 2.40017 284.572 2.40017 285 2.40017C286.231 2.40017 287.435 2.37342 288.612 2.31991C289.843 2.2664 290.967 2.18613 291.984 2.0791L292.305 2.31991C294.178 2.42693 296.077 2.53395 298.004 2.64098C299.984 2.69449 301.99 2.72124 304.024 2.72124ZM300.733 13.8784C301.963 13.7179 303.194 13.6376 304.425 13.6376C304.425 12.2463 304.452 10.8818 304.505 9.54397C304.612 8.20618 304.666 6.81488 304.666 5.37006C304.666 4.94197 304.612 4.54064 304.505 4.16605C304.452 3.73796 304.238 3.52391 303.863 3.52391H302.659C302.285 3.52391 301.883 3.63094 301.455 3.84498C301.295 3.84498 301.188 3.81823 301.134 3.76472C301.188 3.71121 301.214 3.55067 301.214 3.28312V3.20284C300.786 3.63094 300.412 3.84498 300.091 3.84498C299.93 3.84498 299.77 3.73796 299.609 3.52391C299.555 3.73796 299.341 3.84498 298.967 3.84498C298.86 3.84498 298.78 3.84498 298.726 3.84498C298.726 3.79147 298.673 3.76472 298.566 3.76472L298.887 3.60418H298.325V3.84498C298.218 3.89849 298.164 3.92525 298.164 3.92525H298.004L298.084 3.84498C298.084 3.84498 298.03 3.84498 297.923 3.84498C297.816 3.79147 297.576 3.76472 297.201 3.76472C296.88 3.71121 296.372 3.68445 295.676 3.68445C294.98 3.63094 294.071 3.60418 292.947 3.60418C291.288 3.60418 289.388 3.63094 287.248 3.68445C285.161 3.73796 283.261 3.81823 281.549 3.92525C281.335 3.87174 281.228 3.79147 281.228 3.68445L276.974 3.44365L276.733 3.76472C276.305 3.65769 276.01 3.60418 275.85 3.60418C275.422 3.60418 274.994 3.65769 274.566 3.76472C274.137 3.81823 273.709 3.84498 273.281 3.84498C272.8 3.84498 272.532 3.81823 272.479 3.76472V4.00552C272.479 4.16605 272.452 4.3801 272.398 4.64766C272.398 4.8617 272.398 5.15602 272.398 5.5306C272.398 5.79816 272.425 6.14598 272.479 6.57408C272.532 7.00217 272.612 7.48377 272.719 8.01888L272.88 8.98209C272.933 9.83828 272.933 10.641 272.88 11.3901C272.88 12.1393 272.934 12.9687 273.041 13.8784C273.736 14.0924 274.405 14.2262 275.047 14.2797C275.743 14.3333 276.465 14.36 277.214 14.36C278.231 14.36 279.221 14.3333 280.184 14.2797C281.201 14.2262 282.164 14.1995 283.074 14.1995C283.181 14.253 283.341 14.2797 283.556 14.2797C283.823 14.2797 284.01 14.3868 284.117 14.6008C284.064 14.7613 283.984 15.3767 283.877 16.447C284.037 20.2998 284.117 24.2329 284.117 28.2463C284.117 32.9553 284.037 37.6643 283.877 42.3733C283.77 47.0823 283.716 51.7111 283.716 56.2595C283.716 56.6876 286.927 57.089 293.348 57.4636C293.348 56.7679 293.402 56.0723 293.509 55.3766C293.669 54.6274 293.749 53.9318 293.749 53.2897V44.2194C293.749 43.8984 293.749 43.5773 293.749 43.2562C293.749 42.9352 293.776 42.6409 293.83 42.3733L293.428 17.972V18.1326C293.321 17.5975 293.268 17.3299 293.268 17.3299C293.268 17.0623 293.268 16.8483 293.268 16.6878C293.321 16.4737 293.348 16.2864 293.348 16.1259C293.348 16.0189 293.321 15.9118 293.268 15.8048C293.268 15.6978 293.268 15.6175 293.268 15.564C293.535 15.1359 293.75 14.7613 293.91 14.4403C294.071 14.0657 294.204 13.8784 294.311 13.8784V13.9587V13.7981C294.579 13.7981 294.9 13.8516 295.275 13.9587C295.703 14.0122 296.077 14.0389 296.398 14.0389H297.04C298.271 14.0389 299.502 13.9854 300.733 13.8784Z" fill="#F8E2A5"/>
<path d="M268.249 51.5245C268.516 53.1299 268.917 54.5479 269.453 55.7787C269.56 56.2603 269.693 56.7151 269.854 57.1432C270.014 57.5713 270.175 58.0262 270.335 58.5078C270.228 58.8288 270.121 58.9894 270.014 58.9894C269.8 58.9894 269.372 58.9626 268.73 58.9091C268.088 58.8556 266.777 58.7753 264.797 58.6683C263.62 58.6148 262.603 58.5881 261.747 58.5881C260.891 58.5881 260.195 58.5078 259.66 58.3473C259.339 57.4911 258.991 56.5279 258.616 55.4576C258.295 54.3874 257.948 53.3172 257.573 52.2469C257.252 51.1232 256.904 50.053 256.529 49.0362C256.208 47.966 255.887 47.0296 255.566 46.2269L255.245 45.9058C254.603 45.9593 253.934 45.9861 253.239 45.9861C252.596 45.9326 251.981 46.0396 251.392 46.3072C251.927 46.4677 252.436 46.5747 252.917 46.6282C253.453 46.6282 253.988 46.6817 254.523 46.7888C254.309 46.8423 254.095 46.869 253.881 46.869C253.774 46.869 253.72 46.8958 253.72 46.9493C253.399 46.9493 253.051 46.9225 252.677 46.869C252.356 46.762 252.035 46.7085 251.713 46.7085C250.964 46.7085 250.483 46.9493 250.269 47.4309C250.108 48.1801 249.921 49.0362 249.707 49.9995C249.493 50.9627 249.252 51.9526 248.984 52.9693C248.77 53.9325 248.556 54.8958 248.342 55.859C248.128 56.8222 247.941 57.6516 247.78 58.3473C247.513 58.6148 247.165 58.7486 246.737 58.7486C246.469 58.7486 246.175 58.6951 245.854 58.5881C245.533 58.5345 245.239 58.5078 244.971 58.5078C244.65 58.5078 244.463 58.5345 244.409 58.5881L244.249 58.4275C242.911 58.481 241.546 58.5078 240.155 58.5078C238.764 58.4543 237.426 58.5078 236.142 58.6683C236.088 58.5613 236.008 58.5078 235.901 58.5078C235.794 58.5078 235.74 58.4543 235.74 58.3473C235.74 58.2402 235.74 58.2135 235.74 58.267C235.794 58.3205 235.874 58.1867 235.981 57.8656L236.302 57.384C236.142 57.2235 236.061 57.0897 236.061 56.9827C236.061 56.8222 236.142 56.6616 236.302 56.5011C236.463 56.3406 236.57 56.1533 236.623 55.9392C237.051 53.3707 237.533 50.6148 238.068 47.6717C238.657 44.7286 239.138 41.9727 239.513 39.4042C239.352 39.4042 239.138 39.9928 238.871 41.17C238.603 42.2938 238.309 43.6583 237.988 45.2637C237.667 46.869 237.319 48.5546 236.944 50.3205C236.623 52.0329 236.302 53.4777 235.981 54.655C236.891 49.9459 237.774 45.0496 238.63 39.966C239.486 34.8289 240.503 29.9059 241.68 25.1968C241.68 25.5714 241.653 25.839 241.6 25.9995V26.9627C242.349 23.9126 243.071 20.9159 243.767 17.9728C244.516 15.0297 245.185 12.033 245.774 8.98285C245.667 9.08987 245.586 9.2504 245.533 9.46445C245.479 9.62498 245.399 9.78552 245.292 9.94605C245.346 9.35743 245.506 8.68853 245.774 7.93937C246.041 7.1367 246.362 6.36078 246.737 5.61162C247.111 4.86246 247.513 4.16681 247.941 3.52467C248.422 2.88253 248.904 2.40092 249.386 2.07985H250.75C252.944 2.07985 254.496 2.02634 255.406 1.91932C256.369 1.8123 257.172 1.75879 257.814 1.75879C258.456 4.32734 259.071 6.84238 259.66 9.30392C260.249 11.7119 260.757 14.2002 261.185 16.7688C261.185 17.3039 261.346 17.7587 261.667 18.1333C261.988 18.4544 262.148 18.829 262.148 19.2571C262.095 19.3106 262.068 19.3641 262.068 19.4176C262.068 19.4711 262.041 19.5246 261.988 19.5781C261.988 19.6316 261.988 19.7119 261.988 19.8189C262.469 21.4778 262.844 23.1902 263.111 24.956C263.379 26.6684 263.807 28.3273 264.396 29.9326C264.663 31.538 264.984 33.1968 265.359 34.9092C265.787 36.5681 266.081 38.2001 266.242 39.8055C266.67 40.6617 266.884 41.6249 266.884 42.6951C266.884 43.7118 267.044 44.675 267.366 45.5847C267.633 45.6918 267.767 45.8523 267.767 46.0663C267.767 46.2804 267.794 46.4944 267.847 46.7085C267.633 46.7085 267.526 46.8155 267.526 47.0296C267.794 48.3673 268.034 49.8657 268.249 51.5245ZM265.84 57.063C266.483 57.063 267.178 57.0362 267.927 56.9827H268.57L268.168 54.5747C267.901 52.9158 267.526 51.2837 267.045 49.6784C266.616 48.073 266.162 46.5747 265.68 45.1834C265.252 43.7921 264.877 42.5613 264.556 41.4911C264.235 40.4209 264.075 39.5914 264.075 39.0028V38.762C264.075 38.3874 264.021 37.9594 263.914 37.4777C263.807 36.9961 263.647 36.354 263.432 35.5513C263.218 34.6951 262.924 33.6517 262.55 32.4209C262.175 31.1366 261.747 29.4778 261.265 27.4443C261.212 27.3373 261.185 27.257 261.185 27.2035C261.185 27.0965 261.158 26.9895 261.105 26.8825C261.212 26.8825 261.934 28.8356 263.272 32.742C263.379 32.9025 263.486 33.0898 263.593 33.3038C263.754 33.4644 263.834 33.6517 263.834 33.8657V34.1065H263.673C263.78 34.3741 263.834 34.6149 263.834 34.8289C263.887 35.043 263.968 35.257 264.075 35.4711C264.128 35.4711 264.208 35.4176 264.315 35.3105C264.208 35.2035 264.155 35.1232 264.155 35.0697C264.155 34.9627 264.208 34.8824 264.315 34.8289C264.422 34.7754 264.476 34.6951 264.476 34.5881C264.048 33.0363 263.7 31.4042 263.432 29.6918C263.165 27.9259 262.79 26.3206 262.309 24.8758V24.3942C262.309 23.1634 262.014 21.9594 261.426 20.7821C260.891 19.5514 260.57 18.3741 260.463 17.2504V17.5714C260.463 17.625 260.516 17.8658 260.623 18.2939C260.463 18.6149 260.382 18.8825 260.382 19.0965C260.382 19.5246 260.463 19.926 260.623 20.3005C260.784 20.6751 260.864 21.0497 260.864 21.4243C260.864 21.5848 260.81 21.6651 260.703 21.6651L260.623 21.4243C260.623 21.3173 260.596 21.2637 260.543 21.2637L260.382 21.8256C260.275 20.1132 259.927 18.0263 259.339 15.5648C258.75 13.0497 258.188 10.3474 257.653 7.45777L257.733 7.53803L257.332 4.56814C257.332 3.97952 257.091 3.6852 256.61 3.6852C256.449 3.6852 256.262 3.71196 256.048 3.76547C255.887 3.76547 255.7 3.76547 255.486 3.76547C255.218 3.76547 255.031 3.71196 254.924 3.60493C255.085 3.4444 255.165 3.33738 255.165 3.28387C254.844 3.28387 254.175 3.28387 253.158 3.28387C252.195 3.28387 250.857 3.31062 249.145 3.36413C248.984 4.64841 248.77 5.79891 248.503 6.81563C248.235 7.77883 247.914 8.82231 247.54 9.94605C247.165 11.0698 246.871 12.1935 246.657 13.3173C246.443 14.441 246.229 15.5648 246.014 16.6885C245.8 17.8123 245.56 18.9092 245.292 19.9795C245.024 21.0497 244.65 22.0932 244.168 23.1099H244.409C244.302 23.8591 244.195 24.6617 244.088 25.5179C243.981 26.3206 243.713 27.0162 243.285 27.6049C243.392 28.14 243.446 28.4611 243.446 28.5681C243.446 28.7286 243.366 29.1032 243.205 29.6918C243.045 30.2269 242.857 30.8423 242.643 31.538C242.483 32.2336 242.295 32.9025 242.081 33.5446C241.921 34.1333 241.814 34.5614 241.76 34.8289C241.6 35.5781 241.439 36.3808 241.279 37.2369C241.118 38.0396 240.904 38.7085 240.637 39.2436C240.637 39.3507 240.637 39.4577 240.637 39.5647C240.69 39.6717 240.717 39.752 240.717 39.8055C240.717 39.9125 240.744 39.966 240.797 39.966C240.797 40.3941 240.717 40.8222 240.556 41.2503C240.396 41.6249 240.315 41.9995 240.315 42.3741V42.6149C240.53 42.3473 240.637 42.0797 240.637 41.8122C240.637 41.4911 240.797 41.2771 241.118 41.17C241.065 42.5078 240.877 43.8724 240.556 45.2637C240.289 46.655 239.968 48.073 239.593 49.5178C239.218 50.9091 238.844 52.3004 238.469 53.6917C238.095 55.0295 237.774 56.3406 237.506 57.6248L237.827 57.7854C239.379 57.5178 240.877 57.277 242.322 57.063C243.82 56.7954 245.292 56.5011 246.737 56.18C247.111 55.5914 247.433 54.8422 247.7 53.9325C247.968 53.0229 248.208 52.0864 248.422 51.1232C248.637 50.16 248.824 49.2235 248.984 48.3138C249.198 47.3506 249.439 46.548 249.707 45.9058L249.305 45.2637C250.215 44.7286 251.312 44.4878 252.596 44.5413C253.881 44.5948 255.085 44.568 256.208 44.461C256.315 44.568 256.476 44.7018 256.69 44.8623C256.958 44.9694 257.091 45.1567 257.091 45.4242L256.931 45.7453C257.252 46.4944 257.546 47.3506 257.814 48.3138C258.081 49.277 258.349 50.267 258.616 51.2837C258.884 52.3004 259.178 53.2637 259.499 54.1733C259.82 55.083 260.195 55.859 260.623 56.5011H260.302V57.1432C260.409 57.0897 260.516 57.063 260.623 57.063C260.784 57.0095 260.917 56.9292 261.024 56.8222C261.239 56.9827 262.282 57.063 264.155 57.063C264.69 57.063 265.252 57.063 265.84 57.063ZM252.998 18.8557C253.265 18.8557 253.479 19.2838 253.64 20.14C254.496 23.7253 255.058 26.7754 255.325 29.2905C255.593 31.8055 255.968 33.8657 256.449 35.4711L256.208 35.6316C256.048 35.6316 255.887 35.6584 255.727 35.7119C255.566 35.7119 255.406 35.7119 255.245 35.7119C254.657 35.7119 253.988 35.6851 253.239 35.6316C252.489 35.5781 251.82 35.5513 251.232 35.5513H250.188C249.974 35.5513 249.867 35.364 249.867 34.9895C249.867 34.7219 249.894 34.5614 249.948 34.5079C250.055 34.4008 250.108 34.2938 250.108 34.1868V33.8657C250.108 33.7052 250.135 33.5982 250.188 33.5446L250.269 33.6249C250.376 33.1968 250.456 32.2336 250.509 30.7353C250.616 29.237 250.964 27.2838 251.553 24.8758C251.874 23.538 252.035 22.5748 252.035 21.9862V21.5848C252.035 21.3173 252.222 20.9962 252.596 20.6216C252.543 20.5681 252.516 20.4076 252.516 20.14C252.516 19.926 252.543 19.6584 252.596 19.3373C252.703 19.0163 252.837 18.8557 252.998 18.8557ZM254.362 24.956C254.148 23.6718 253.8 22.6283 253.319 21.8256V21.4243C253.319 21.1567 253.239 20.9694 253.078 20.8624C252.971 21.13 252.81 21.3975 252.596 21.6651C252.436 21.9326 252.356 22.2805 252.356 22.7086V23.3507C252.356 23.6718 252.275 24.3674 252.115 25.4376C252.008 26.4544 251.847 27.5514 251.633 28.7286C251.473 29.9059 251.312 31.0296 251.152 32.0998C250.991 33.1166 250.884 33.7854 250.83 34.1065L250.67 33.946L250.509 34.2671L250.67 34.1868L250.991 35.0697H255.566L255.887 34.8289C255.62 34.3473 255.432 33.5714 255.325 32.5012C255.218 31.3774 255.085 30.1734 254.924 28.8891C254.817 27.5514 254.63 26.2403 254.362 24.956ZM240.235 33.5446C239.968 35.4176 239.62 37.2905 239.192 39.1634L239.593 39.0831C240.021 37.2637 240.396 35.3908 240.717 33.4644C241.038 31.4845 241.332 29.6115 241.6 27.8457C241.011 29.7186 240.556 31.6182 240.235 33.5446ZM235.901 54.976C235.901 55.083 235.874 55.1901 235.821 55.2971C235.874 55.1901 235.901 55.083 235.901 54.976C235.901 54.869 235.928 54.762 235.981 54.655C235.928 54.762 235.901 54.869 235.901 54.976Z" fill="#F8E2A5"/>
<path d="M213.469 13.5576C211.97 13.5576 210.579 14.1195 209.295 15.2432L208.332 16.5275C208.118 19.7382 207.957 22.7081 207.85 25.4372C207.743 28.1128 207.689 31.0559 207.689 34.2666C207.689 35.6579 207.743 37.0759 207.85 38.5208C207.957 39.9656 208.198 41.3034 208.572 42.5341C209.001 43.7649 209.589 44.7816 210.338 45.5843C211.141 46.3334 212.184 46.708 213.469 46.708C215.074 46.708 216.251 46.3602 217 45.6645C217.803 44.9689 218.338 44.086 218.606 43.0157C218.927 41.892 219.114 40.688 219.168 39.4037C219.221 38.1194 219.328 36.8886 219.489 35.7114C219.917 35.7649 220.211 35.8184 220.372 35.8719C220.532 35.8719 220.8 35.8719 221.174 35.8719C221.602 35.8719 222.298 35.8719 223.261 35.8719C224.225 35.8719 225.723 35.8987 227.756 35.9522C228.024 35.8987 228.238 35.8452 228.398 35.7917C228.612 35.7382 228.827 35.7114 229.041 35.7114C229.469 35.7114 229.897 35.8719 230.325 36.193C230.325 37.5843 230.405 39.0024 230.566 40.4472C230.726 41.8385 230.806 43.2298 230.806 44.6211C230.806 46.815 230.271 48.8485 229.201 50.7214C228.184 52.5408 226.9 54.1461 225.348 55.5374C223.796 56.8752 222.111 57.9187 220.291 58.6679C218.526 59.4705 216.893 59.8719 215.395 59.8719C213.148 59.8719 211.944 59.8451 211.783 59.7916L208.572 59.0692C208.572 59.3367 208.465 59.524 208.251 59.6311C208.091 59.7381 207.904 59.7916 207.689 59.7916C204.586 59.7916 202.231 59.0157 200.626 57.4638C199.021 55.8585 197.87 53.8518 197.174 51.4438C196.479 49.0358 196.077 46.4405 195.97 43.6579C195.863 40.8217 195.783 38.1729 195.73 35.7114L195.649 35.5509C195.435 36.2465 195.328 37.183 195.328 38.3602C195.328 39.1094 195.355 39.8853 195.409 40.688C195.516 41.4371 195.623 42.1863 195.73 42.9355L195.248 42.8552C195.248 39.1629 195.355 35.3903 195.569 31.5375C195.837 27.6847 195.97 23.8318 195.97 19.979V16.9288C195.97 16.3937 195.944 15.8854 195.89 15.4038C195.89 14.9222 195.863 14.4138 195.81 13.8787C196.345 11.8452 197.014 9.83856 197.817 7.85863C198.673 5.8252 199.823 3.95229 201.268 2.23992C202.552 1.49076 203.917 1.06267 205.362 0.955643C206.807 0.848621 208.358 0.768355 210.017 0.714844C212.051 0.821865 213.87 0.875376 215.475 0.875376C217.081 0.875376 218.793 1.16969 220.613 1.75832C221.041 2.18641 221.522 2.53423 222.057 2.80179C222.592 3.06935 223.128 3.36366 223.663 3.68473C224.251 3.95229 224.786 4.27336 225.268 4.64794C225.75 5.02252 226.151 5.50413 226.472 6.09275C228.934 9.30345 230.512 12.7817 231.208 16.5275C231.154 17.7583 231.021 18.9623 230.806 20.1395C230.592 21.3168 230.485 22.5208 230.485 23.7516C230.485 24.3937 230.512 24.7683 230.566 24.8753C229.924 24.9823 229.308 25.0626 228.72 25.1161C228.131 25.1696 227.542 25.1964 226.954 25.1964C226.044 25.1964 225.134 25.1696 224.225 25.1161C223.368 25.0091 222.485 24.9556 221.576 24.9556C221.308 24.9556 221.014 24.9823 220.693 25.0358C220.425 25.0358 220.158 25.0358 219.89 25.0358C219.623 24.9288 219.328 24.8485 219.007 24.795C218.686 24.7415 218.499 24.5275 218.445 24.1529C218.338 23.2967 218.285 22.28 218.285 21.1027C218.285 19.872 218.151 18.6947 217.883 17.571C217.669 16.4472 217.241 15.5108 216.599 14.7616C215.957 13.959 214.914 13.5576 213.469 13.5576ZM206.646 39.1629C206.539 37.504 206.459 36.0057 206.405 34.6679V31.8586C206.459 31.591 206.485 31.3234 206.485 31.0559C206.485 30.7348 206.485 30.4405 206.485 30.173V25.0358C206.485 22.6278 206.646 20.3536 206.967 18.2131C207.288 16.0727 208.171 14.0927 209.616 12.2733H210.017C210.713 12.2733 211.248 12.1663 211.623 11.9523C212.051 11.6847 212.639 11.5509 213.388 11.5509C214.994 11.5509 216.171 11.979 216.92 12.8352C217.723 13.6379 218.312 14.6546 218.686 15.8854C219.061 17.1161 219.275 18.4539 219.328 19.8987C219.435 21.29 219.569 22.5476 219.73 23.6713H228.639L229.121 23.3502C229.121 22.5476 229.174 21.7984 229.281 21.1027C229.388 20.3536 229.442 19.5777 229.442 18.775C229.442 17.1696 229.228 15.7516 228.8 14.5208C228.425 13.2901 227.89 12.1663 227.194 11.1496C226.499 10.0794 225.669 9.06265 224.706 8.09944C223.796 7.08272 222.833 6.03924 221.817 4.96901C220.265 4.21985 218.606 3.63122 216.84 3.20313C215.074 2.72152 213.281 2.48072 211.462 2.48072C210.017 2.48072 208.572 2.64126 207.128 2.96233C205.736 3.2834 204.425 3.765 203.195 4.40714C202.927 4.46065 202.74 4.62119 202.633 4.88874C202.526 5.10279 202.365 5.20981 202.151 5.20981L201.99 5.04928L200.706 5.93222C199.743 6.73489 199.101 7.64459 198.78 8.66131C198.459 9.62451 198.271 10.668 198.218 11.7917C198.164 12.9155 198.138 14.066 198.138 15.2432C198.191 16.367 198.111 17.4372 197.897 18.4539C197.79 18.4539 197.736 18.3737 197.736 18.2131C197.79 18.0526 197.763 17.892 197.656 17.7315L197.335 22.4673C197.174 24.5007 197.094 26.5074 197.094 28.4873C197.094 29.076 197.094 29.6646 197.094 30.2532C197.148 30.7883 197.174 31.3502 197.174 31.9388L197.576 32.1796C197.415 32.9823 197.335 33.4907 197.335 33.7047C197.335 33.8652 197.362 33.9455 197.415 33.9455L197.576 33.8652C197.522 34.1328 197.469 34.4004 197.415 34.6679C197.415 34.882 197.415 35.1228 197.415 35.3903V40.1261C197.415 40.3401 197.415 40.5542 197.415 40.7682C197.415 40.9823 197.389 41.1963 197.335 41.4104L197.656 42.6947C197.442 43.2833 197.335 44.0324 197.335 44.9421C197.335 46.494 197.683 48.0726 198.378 49.6779C199.128 51.2297 200.225 52.6478 201.669 53.9321C203.114 55.2164 204.88 56.2598 206.967 57.0625C209.054 57.8652 211.462 58.2665 214.191 58.2665C215.529 58.2665 216.92 58.0792 218.365 57.7046C219.81 57.3301 221.174 56.7682 222.459 56.019C223.796 55.2699 224.974 54.3334 225.99 53.2097C227.007 52.0859 227.756 50.7749 228.238 49.2766L227.917 49.1963C228.452 48.0191 228.773 46.8953 228.88 45.8251C228.987 44.7548 229.041 43.6311 229.041 42.4538C229.041 40.7415 228.773 39.591 228.238 39.0024C227.756 38.4137 227.034 38.1194 226.071 38.1194C225.375 38.1194 224.653 38.1997 223.903 38.3602C223.154 38.4672 222.432 38.5208 221.736 38.5208C221.201 38.5208 220.88 38.494 220.773 38.4405C220.72 39.5107 220.532 40.5274 220.211 41.4906C219.944 42.4538 219.81 43.4706 219.81 44.5408C219.382 45.397 218.74 46.0926 217.883 46.6278C217.027 47.1629 216.332 47.8585 215.796 48.7147C215.422 48.9287 214.833 49.0358 214.031 49.0358C212.265 49.0358 210.873 48.5542 209.857 47.591C208.84 46.5742 208.091 45.3435 207.609 43.8987C207.128 42.4003 206.807 40.8217 206.646 39.1629Z" fill="#F8E2A5"/>
<path d="M184.759 1.59778C184.812 1.27671 184.893 0.982401 185 0.714844C185.16 0.92889 185.267 1.2232 185.321 1.59778C185.374 1.91885 185.535 2.18641 185.802 2.40046H186.926C186.926 2.77504 186.739 2.98908 186.364 3.04259C185.989 3.09611 185.802 3.31015 185.802 3.68473V3.92553C185.588 5.10279 185.454 6.28004 185.401 7.4573C185.347 8.63455 185.321 9.83856 185.321 11.0693C185.321 12.5141 185.347 14.0125 185.401 15.5643C185.454 17.0626 185.481 18.5877 185.481 20.1395C185.481 22.066 185.401 23.9389 185.24 25.7582C185.294 26.1863 185.321 26.6144 185.321 27.0425C185.321 27.4706 185.321 27.8987 185.321 28.3268V30.8151C185.321 33.3836 185.24 35.5509 185.08 37.3167C184.973 39.0291 184.919 40.3401 184.919 41.2498C185.026 43.9789 185.133 46.6813 185.24 49.3568C185.347 52.0324 185.561 54.7348 185.882 57.4638L186.444 58.5876C186.444 58.8016 186.311 58.9354 186.043 58.9889C185.829 59.0424 185.668 59.0692 185.561 59.0692C184.973 59.0692 184.304 58.9622 183.555 58.7481C182.859 58.5876 181.682 58.5073 180.023 58.5073H177.133C176.545 58.5073 176.063 58.5073 175.689 58.5073C175.367 58.4538 175.153 58.427 175.046 58.427H174.886L174.565 58.5876C174.404 58.6946 174.003 58.8551 173.361 59.0692C172.772 59.2832 172.424 59.3903 172.317 59.3903C172.21 59.3903 172.157 59.3635 172.157 59.31V59.2297C171.889 59.2297 171.729 59.1227 171.675 58.9086C171.622 58.6946 171.541 58.5876 171.434 58.5876L171.113 58.7481C171.274 53.8786 171.488 49.2498 171.755 44.8619C172.023 40.4204 172.157 35.9254 172.157 31.377C172.157 29.7716 172.13 28.193 172.076 26.6412C172.023 25.0358 171.943 23.377 171.836 21.6646C171.889 20.5409 171.916 19.4171 171.916 18.2934C171.916 17.1696 172.103 16.0727 172.478 15.0024L172.157 14.9222L172.237 14.4406C172.237 14.4941 172.264 14.5476 172.317 14.6011C172.317 14.28 172.344 13.9857 172.398 13.7181C172.505 13.3971 172.558 12.8887 172.558 12.1931C172.558 11.4439 172.531 10.8285 172.478 10.3469C172.478 9.86532 172.478 9.49074 172.478 9.22318C172.478 8.58104 172.505 7.9389 172.558 7.29676C172.665 6.60111 172.719 5.93222 172.719 5.29008C172.719 4.70145 172.638 4.11283 172.478 3.5242H172.237C172.237 3.14962 172.424 2.82855 172.799 2.56099C173.227 2.29343 173.414 2.15966 173.361 2.15966H173.682H174.484C174.538 2.15966 174.618 2.15966 174.725 2.15966C174.886 2.15966 175.073 2.1329 175.287 2.07938L175.207 2.40046C175.903 2.6145 176.866 2.72153 178.097 2.72153C179.167 2.72153 180.21 2.66801 181.227 2.56099C182.297 2.40046 183.341 2.32019 184.357 2.32019C184.625 2.10614 184.759 1.86534 184.759 1.59778ZM183.555 10.8285C183.608 10.8285 183.662 10.8553 183.715 10.9088V10.7483C183.715 10.6412 183.662 10.561 183.555 10.5075C183.448 10.4004 183.394 10.2934 183.394 10.1864L183.555 10.0259L183.635 10.1061V5.93222C183.635 5.77168 183.608 5.58439 183.555 5.37035C183.555 5.1563 183.528 4.9155 183.474 4.64794C182.404 4.43389 181.361 4.27336 180.344 4.16634C179.327 4.0058 178.284 3.92553 177.214 3.92553H175.769C175.287 3.92553 175.046 4.16634 175.046 4.64794C175.046 4.75496 175.046 4.9155 175.046 5.12955C175.1 5.34359 175.153 5.58439 175.207 5.85195L175.448 6.57436C175.448 6.57436 175.26 6.44058 174.886 6.17302C174.886 6.33355 174.886 6.52085 174.886 6.73489C174.939 6.89543 174.966 7.08272 174.966 7.29676C174.966 7.67134 174.859 7.9389 174.645 8.09944L174.565 7.9389C174.565 8.04592 174.538 8.1797 174.484 8.34024C174.484 8.50077 174.484 8.63455 174.484 8.74157C174.484 8.95562 174.618 9.19642 174.886 9.46398C174.886 10.9088 174.725 11.6312 174.404 11.6312C174.297 12.5409 174.19 13.8519 174.083 15.5643C174.03 17.2767 173.976 19.0961 173.923 21.0225C173.923 22.9489 173.896 24.8486 173.842 26.7215C173.842 28.5944 173.842 30.1462 173.842 31.377C173.842 32.7683 173.869 34.1596 173.923 35.5509C174.03 36.9422 174.137 38.2532 174.244 39.484C174.351 40.6612 174.431 41.6779 174.484 42.5341C174.592 43.3368 174.645 43.8451 174.645 44.0592V44.1395L174.565 43.9789V44.6211C174.618 45.1562 174.672 45.7716 174.725 46.4672C174.779 47.1094 174.806 47.7782 174.806 48.4739C174.859 49.116 174.886 49.7582 174.886 50.4003C174.939 50.9889 174.966 51.4973 174.966 51.9254C174.966 52.407 174.913 52.8886 174.806 53.3702C174.752 53.8518 174.725 54.3334 174.725 54.815C174.725 55.5642 174.832 56.126 175.046 56.5006C177.454 56.4471 179.167 56.4204 180.183 56.4204C181.2 56.4204 181.709 56.2063 181.709 55.7782C181.976 56.0993 182.163 56.2598 182.27 56.2598C182.377 56.2063 182.511 56.2598 182.672 56.4204C182.779 55.8317 182.832 55.2431 182.832 54.6545C182.886 54.0659 182.913 53.4772 182.913 52.8886V49.9187L182.672 49.999V49.5976C182.725 49.5976 182.752 49.3301 182.752 48.795V45.1027C182.752 44.193 182.752 43.203 182.752 42.1328C182.806 41.0625 182.886 39.8585 182.993 38.5208C182.993 38.0927 182.913 37.3435 182.752 36.2733C182.752 35.9522 182.832 35.6311 182.993 35.3101C183.046 35.3101 183.1 35.3368 183.153 35.3903C183.26 35.0693 183.314 34.882 183.314 34.8285C183.314 34.4004 183.207 33.8385 182.993 33.1428H183.073C183.127 33.1428 183.153 33.0091 183.153 32.7415C183.153 32.4739 183.127 32.0459 183.073 31.4572C183.02 30.8686 182.939 30.0392 182.832 28.9689C182.832 28.4873 182.859 28.2198 182.913 28.1663C183.02 28.2733 183.073 28.3536 183.073 28.4071L183.234 28.4873C183.234 28.1128 183.26 27.5241 183.314 26.7215C183.367 25.8653 183.394 24.9288 183.394 23.9121C183.448 22.8419 183.501 21.7181 183.555 20.5409C183.608 19.3636 183.635 18.2131 183.635 17.0894V13.2365C183.635 12.8085 183.635 12.4071 183.635 12.0325C183.635 11.6044 183.608 11.2031 183.555 10.8285Z" fill="#F8E2A5"/>
<path d="M160.121 58.1861C159.8 58.1861 159.345 58.2129 158.756 58.2664C158.81 58.2129 159.024 58.1861 159.398 58.1861L159.238 58.1059C158.81 57.9988 158.596 57.9453 158.596 57.9453C158.328 57.9453 158.141 58.0791 158.034 58.3467C157.927 58.5607 157.739 58.6677 157.472 58.6677C157.204 58.6677 156.937 58.5607 156.669 58.3467C156.402 58.1326 156.134 58.0256 155.867 58.0256C155.653 58.0256 155.438 58.1059 155.224 58.2664C155.01 58.2129 154.743 58.1594 154.422 58.1059C154.154 58.0523 153.806 57.9988 153.378 57.9453V58.2664C153.004 58.0523 152.549 57.9453 152.014 57.9453C151.746 57.9453 151.479 57.9721 151.211 58.0256C150.997 58.0256 150.756 58.0256 150.489 58.0256H149.927V57.9453H148.321C147.786 57.9453 147.224 57.9721 146.636 58.0256C146.047 58.0256 145.566 58.0791 145.191 58.1861H145.432C145.539 58.1861 145.592 58.2129 145.592 58.2664L145.432 58.4269H142.221L142.061 58.5072V58.4269C141.74 58.3199 141.499 58.2664 141.338 58.2664C141.231 58.2664 141.044 58.2129 140.776 58.1059C140.562 58.2129 140.402 58.2664 140.295 58.2664C140.134 58.2664 140.054 58.2129 140.054 58.1059C140.054 58.0523 140.081 57.9988 140.134 57.9453C139.867 57.9988 139.599 58.0256 139.331 58.0256C139.064 58.0256 138.716 58.0256 138.288 58.0256C137.699 58.0256 136.95 58.0256 136.041 58.0256C135.184 57.9721 134.435 57.9453 133.793 57.9453C132.669 57.9453 132.107 58.0256 132.107 58.1861C131.947 58.1861 131.599 58.0791 131.064 57.8651C130.529 57.5975 130.181 57.3032 130.02 56.9821V56.9018L130.101 56.9821C130.422 55.8049 130.582 54.5473 130.582 53.2095H130.663H130.582C130.636 53.156 130.663 53.1025 130.663 53.049C130.556 52.6209 130.502 52.4069 130.502 52.4069C130.502 52.4069 130.556 52.2463 130.663 51.9253V52.4069L130.903 51.6845L130.663 51.9253C130.77 50.8015 130.823 50.0256 130.823 49.5975C130.877 49.1159 130.903 48.6343 130.903 48.1527C130.903 47.6176 130.93 46.8684 130.984 45.9052C131.037 44.942 131.144 43.4169 131.305 41.33C131.251 35.8183 131.198 31.1895 131.144 27.4437C131.144 23.6979 131.117 20.621 131.064 18.213C131.01 15.805 130.957 13.9588 130.903 12.6745C130.903 11.3903 130.903 10.4271 130.903 9.78492C130.903 9.08927 130.877 8.60767 130.823 8.34011C130.823 8.07255 130.796 7.77824 130.743 7.45717C130.689 7.1361 130.636 6.6545 130.582 6.01236C130.582 5.37022 130.556 4.3535 130.502 2.9622C130.395 2.74816 130.208 2.64113 129.94 2.64113C129.726 2.58762 129.619 2.50735 129.619 2.40033C129.619 2.18628 129.94 2.02575 130.582 1.91873C131.224 1.8117 131.786 1.75819 132.268 1.75819C132.428 1.75819 132.669 1.8117 132.99 1.91873C133.954 1.86522 134.863 1.8117 135.719 1.75819C136.629 1.65117 137.512 1.59766 138.368 1.59766C139.171 1.59766 139.947 1.65117 140.696 1.75819C141.499 1.8117 142.328 1.97224 143.184 2.2398C143.131 3.203 143.077 4.16621 143.024 5.12942C143.024 6.09263 143.024 7.05584 143.024 8.01904V19.7381C143.024 21.5575 143.077 23.4036 143.184 25.2765C143.291 27.0959 143.345 28.9153 143.345 30.7347C143.345 32.8752 143.291 35.0424 143.184 37.2363C143.077 39.3768 143.024 41.4905 143.024 43.5775C143.345 43.6845 143.505 43.845 143.505 44.0591C143.505 44.1661 143.479 44.2999 143.425 44.4604C143.372 44.5674 143.345 44.6744 143.345 44.7815C143.345 44.942 143.372 45.049 143.425 45.1025C143.265 45.2096 143.184 45.3166 143.184 45.4236C143.238 45.5306 143.238 45.6377 143.184 45.7447C143.291 45.8517 143.398 45.9052 143.505 45.9052C143.612 45.8517 143.746 45.8517 143.907 45.9052C144.067 45.4771 144.308 45.2631 144.629 45.2631C144.95 45.2631 145.111 45.2898 145.111 45.3433C145.111 45.3433 145.137 45.3701 145.191 45.4236C145.298 45.4771 145.539 45.5306 145.913 45.5841C146.288 45.5841 147.037 45.5841 148.161 45.5841H149.766C150.997 45.5841 152.147 45.6377 153.218 45.7447C154.288 45.7982 155.358 45.9052 156.428 46.0658C156.642 45.8517 156.964 45.7447 157.392 45.7447C157.713 46.0122 158.114 46.1995 158.596 46.3066C159.077 46.3601 159.559 46.3868 160.04 46.3868H161.566C161.673 46.3868 161.726 46.3601 161.726 46.3066C161.726 46.253 161.753 46.1995 161.806 46.146L159.719 45.4236C160.147 45.3166 160.469 45.2631 160.683 45.2631C161.378 45.2631 162.101 45.3701 162.85 45.5841C163.599 45.7982 163.974 46.3601 163.974 47.2698C163.974 47.8049 163.893 48.3132 163.733 48.7948C163.626 49.2765 163.572 49.8116 163.572 50.4002C163.572 50.5072 163.572 50.6142 163.572 50.7213C163.626 50.7748 163.652 50.855 163.652 50.9621C163.599 51.2296 163.572 51.4972 163.572 51.7647C163.572 52.0323 163.572 52.2998 163.572 52.5674V54.0925C163.572 55.4303 163.652 56.661 163.813 57.7848C163.545 58.2664 163.171 58.5072 162.689 58.5072C162.422 58.5072 162.101 58.4537 161.726 58.3467C161.405 58.2396 161.057 58.1861 160.683 58.1861C160.629 58.1861 160.442 58.1861 160.121 58.1861ZM161.164 57.3032C161.646 57.3032 161.913 57.3299 161.967 57.3834C162.181 56.9018 162.315 56.3667 162.368 55.7781C162.475 55.1895 162.555 54.6008 162.609 54.0122C162.234 53.4771 162.047 52.7815 162.047 51.9253C162.047 51.4437 162.074 50.9621 162.127 50.4805C162.234 49.9988 162.288 49.5173 162.288 49.0356C162.288 48.3935 162.261 48.0189 162.208 47.9119C158.676 47.8049 155.278 47.7514 152.014 47.7514C148.75 47.6979 145.432 47.35 142.061 46.7079C142.114 46.8149 142.141 46.9219 142.141 47.029C142.141 47.136 142.194 47.2162 142.301 47.2698C142.301 47.7514 142.194 48.0992 141.98 48.3132C141.445 48.2597 141.178 47.9387 141.178 47.35C141.178 47.136 141.204 46.9219 141.258 46.7079C141.311 46.4938 141.338 46.2798 141.338 46.0658C141.338 45.6912 141.204 45.3701 140.937 45.1025C140.723 44.5139 140.589 43.9253 140.535 43.3367C140.482 42.748 140.455 42.1594 140.455 41.5708C140.455 40.7146 140.455 39.6979 140.455 38.5206C140.455 37.3434 140.482 36.2196 140.535 35.1494C140.589 33.8651 140.643 32.5808 140.696 31.2966C140.75 31.2966 140.83 31.4571 140.937 31.7782L141.097 31.2163C141.204 30.1996 141.311 29.1294 141.418 28.0056C141.525 26.8284 141.579 25.7046 141.579 24.6344C141.472 24.3668 141.418 23.9655 141.418 23.4304V22.4672V21.0224V20.0591C141.418 19.524 141.365 19.1227 141.258 18.8551C141.472 18.6946 141.579 18.5341 141.579 18.3735C141.579 18.213 141.525 18.0792 141.418 17.9722C141.311 17.8117 141.258 17.5976 141.258 17.3301C141.258 17.116 141.285 16.8484 141.338 16.5274C141.445 16.1528 141.499 15.2699 141.499 13.8786V5.77155V5.04915C141.499 4.67457 141.552 4.43377 141.659 4.32674L141.82 4.48728L141.9 4.32674C141.9 4.16621 141.739 4.05919 141.418 4.00568C141.151 3.89865 140.803 3.84514 140.375 3.84514C139.947 3.79163 139.492 3.76488 139.01 3.76488C138.582 3.71136 138.234 3.68461 137.967 3.68461C137.004 3.68461 136.041 3.71136 135.077 3.76488C134.168 3.81839 133.258 3.89865 132.348 4.00568C132.295 5.39698 132.241 6.84179 132.188 8.34011C132.134 9.78492 132.107 11.2297 132.107 12.6745C132.107 13.9053 132.134 15.1628 132.188 16.4471C132.241 17.6779 132.268 18.9086 132.268 20.1394C132.268 23.9922 132.188 27.7916 132.027 31.5374C131.867 35.2832 131.786 39.0825 131.786 42.9353C131.786 44.7012 131.813 46.4938 131.867 48.3132C131.974 50.0791 132.081 51.8718 132.188 53.6911C131.92 53.8517 131.786 54.039 131.786 54.253C131.786 54.36 131.813 54.5206 131.867 54.7346C131.92 54.8952 131.947 55.0824 131.947 55.2965V55.5373C132.054 55.8584 132.081 56.1794 132.027 56.5005C131.974 56.8216 132.188 56.9821 132.669 56.9821C133.258 56.8216 133.82 56.7681 134.355 56.8216C134.89 56.8216 135.398 56.6878 135.88 56.4202C138.234 56.5808 140.616 56.6878 143.024 56.7413C145.432 56.7948 147.599 56.8483 149.525 56.9018C151.452 56.9018 153.03 56.9018 154.261 56.9018C155.492 56.9018 156.107 56.9286 156.107 56.9821C156.482 56.8216 156.964 56.7413 157.552 56.7413C158.034 56.7413 158.462 56.8483 158.836 57.0624C159.211 57.2229 159.639 57.3032 160.121 57.3032H161.164Z" fill="#F8E2A5"/>
<path d="M101.36 2.07966C103.34 2.18669 105.346 2.29371 107.38 2.40074C109.36 2.66829 111.233 3.3907 112.999 4.56795C114.818 5.6917 116.397 7.083 117.734 8.74185C119.072 10.3472 120.142 12.1131 120.945 14.0395C121.748 15.9659 122.149 17.8388 122.149 19.6582C122.149 21.9057 121.667 24.0194 120.704 25.9993C119.741 27.9257 118.698 29.7986 117.574 31.618C115.861 32.8488 114.149 34.0528 112.437 35.2301C110.724 36.4073 108.798 37.1297 106.657 37.3973H106.015C105.266 37.3973 104.544 37.424 103.848 37.4776C103.206 37.5311 102.537 37.5578 101.841 37.5578H101.119C100.744 37.5578 100.504 37.5311 100.397 37.4776L100.156 37.6381L100.637 38.2C100.53 38.8956 100.423 39.5645 100.316 40.2066C100.263 40.7953 100.236 41.4374 100.236 42.1331V42.7752C100.236 43.1498 100.263 43.3906 100.316 43.4976C100.102 43.5511 99.9952 43.6581 99.9952 43.8187C99.9952 43.9257 100.022 44.0327 100.076 44.1397C100.129 44.1933 100.156 44.2735 100.156 44.3805C100.156 44.4876 100.129 44.5411 100.076 44.5411V45.103L100.156 44.9424C100.263 45.317 100.316 45.6916 100.316 46.0662C100.316 46.3872 100.316 46.7351 100.316 47.1096V48.6347V51.2835C100.316 51.8722 100.316 52.4875 100.316 53.1297C100.37 53.7183 100.397 54.3069 100.397 54.8956V54.9758C100.343 54.9758 100.263 54.9223 100.156 54.8153V54.9758C100.156 55.1899 100.29 55.4307 100.557 55.6982C100.343 55.9123 100.236 56.2066 100.236 56.5812C100.236 56.8487 100.316 57.0093 100.477 57.0628C100.691 57.0628 100.798 57.143 100.798 57.3036L100.477 57.7049C100.049 57.4909 99.7277 57.3839 99.5136 57.3839C99.4066 57.3839 98.925 57.6246 98.0688 58.1063L97.9083 58.1865C97.7478 58.0795 97.6675 58.026 97.6675 58.026C97.6675 57.9725 97.5337 57.9457 97.2662 57.9457C96.9986 57.9457 96.4902 57.9992 95.7411 58.1063C95.0454 58.1598 94.4033 58.1865 93.8147 58.1865H88.4367C88.1157 58.1865 87.9016 58.4006 87.7946 58.8287C87.6876 58.7216 87.5538 58.5879 87.3933 58.4273C87.2862 58.2133 87.1525 58.1063 86.9919 58.1063C86.8849 58.1063 86.7511 58.1865 86.5906 58.3471C86.5371 58.3471 86.5103 58.3471 86.5103 58.3471C86.5103 58.2935 86.4836 58.2668 86.4301 58.2668H86.2695C86.2695 58.1598 86.4301 58.026 86.7511 57.8655C87.0722 57.6514 87.2327 57.3571 87.2327 56.9825C87.2327 56.2334 87.1792 55.5377 87.0722 54.8956C87.0187 54.2534 86.9919 53.5845 86.9919 52.8889C86.9919 51.6046 87.0722 50.1865 87.2327 48.6347C87.1257 45.424 87.0454 42.7217 86.9919 40.5277C86.9384 38.3337 86.8849 36.4876 86.8314 34.9893C86.7779 33.4374 86.7511 32.1799 86.7511 31.2167C86.7511 30.2535 86.7511 29.3973 86.7511 28.6481C86.7511 27.5244 86.7511 26.4274 86.7511 25.3572C86.8046 24.2334 86.8314 22.6013 86.8314 20.4609V16.4475C86.8314 15.7519 86.8314 15.083 86.8314 14.4408C86.8314 13.7452 86.8582 13.0495 86.9117 12.3539C86.8046 11.8723 86.6976 10.9358 86.5906 9.54453C86.5371 8.09972 86.5103 6.1733 86.5103 3.76528C86.5103 3.3907 86.7244 3.06963 87.1525 2.80207C87.5806 2.53451 88.1157 2.34722 88.7578 2.2402C89.4 2.07967 90.0956 1.97264 90.8448 1.91913C91.5939 1.86562 92.3163 1.83887 93.012 1.83887H95.3397C97.3732 1.83887 99.3799 1.91913 101.36 2.07966ZM116.049 31.6983C117.279 30.6281 118.002 29.5578 118.216 28.4876C118.751 27.9525 119.126 27.3371 119.34 26.6415C119.607 25.9458 119.768 25.2234 119.821 24.4742C119.928 23.6716 120.009 22.8957 120.062 22.1465C120.116 21.3438 120.223 20.6214 120.383 19.9793C120.276 18.802 120.089 17.6515 119.821 16.5278C119.554 15.404 119.233 14.3071 118.858 13.2368L115.968 9.22346C115.701 9.00941 115.353 8.7151 114.925 8.34052C114.497 7.91243 114.042 7.51109 113.56 7.13651C113.079 6.70842 112.624 6.36059 112.196 6.09303C111.768 5.77196 111.42 5.61143 111.152 5.61143C110.51 5.61143 109.734 5.50441 108.825 5.29036C107.968 5.0228 107.005 4.75525 105.935 4.48769C104.918 4.16662 103.848 3.89906 102.724 3.68501C101.601 3.41746 100.477 3.28368 99.3531 3.28368H98.2294C98.1759 3.28368 97.9886 3.31043 97.6675 3.36395C97.3464 3.36395 97.1324 3.36395 97.0254 3.36395C96.8113 3.36395 96.6775 3.28368 96.624 3.12314C96.3029 3.23017 95.9284 3.25692 95.5003 3.20341C95.1257 3.1499 94.8581 3.25692 94.6976 3.52448C94.4836 3.52448 94.323 3.47097 94.216 3.36395H92.8514C92.7444 3.36395 92.6106 3.41746 92.4501 3.52448C92.3431 3.57799 92.2361 3.60474 92.129 3.60474C92.0755 3.60474 91.9953 3.55123 91.8882 3.44421L90.2829 3.84555C89.8548 3.84555 89.614 3.8723 89.5605 3.92581C89.507 5.47765 89.4535 6.94922 89.4 8.34052C89.4 9.73182 89.2929 11.1766 89.0789 12.675C89.1324 12.996 89.1592 13.3171 89.1592 13.6382C89.2127 13.9057 89.2394 14.1733 89.2394 14.4408C89.2394 14.7084 89.2127 15.4843 89.1592 16.7686C89.1056 18.0529 89.0254 19.899 88.9184 22.307C88.8113 24.7151 88.7311 26.5344 88.6776 27.7652C88.6776 28.9425 88.6776 29.5846 88.6776 29.6916C88.7311 29.7986 88.7578 30.0395 88.7578 30.414C88.5438 32.8221 88.3832 34.8287 88.2762 36.4341C88.1692 37.9859 88.1157 39.1899 88.1157 40.0461C88.1157 41.4374 88.1959 42.8555 88.3565 44.3003C88.1959 44.9424 88.1157 45.5578 88.1157 46.1464C88.1157 46.7886 88.1424 47.4307 88.1959 48.0728C88.303 48.715 88.3565 49.3304 88.3565 49.919C88.3565 50.5611 88.3297 50.9357 88.2762 51.0427C88.2762 51.1498 88.2762 51.337 88.2762 51.6046C88.3297 51.8722 88.3832 52.1665 88.4367 52.4875C88.4903 52.8086 88.517 53.1297 88.517 53.4508C88.5705 53.7183 88.5973 53.9056 88.5973 54.0126C88.5973 54.2267 88.5705 54.414 88.517 54.5745C88.517 54.6815 88.517 54.8153 88.517 54.9758C88.517 55.2969 88.5705 55.5912 88.6776 55.8588C88.8381 56.1263 88.9184 56.3136 88.9184 56.4206C88.9184 56.5277 88.8916 56.6079 88.8381 56.6614C88.8381 56.6614 88.8381 56.715 88.8381 56.822L89.5605 56.9022C89.6675 57.0093 89.7478 57.0628 89.8013 57.0628H90.1224C90.2294 57.0628 90.3364 57.143 90.4434 57.3036C91.0856 57.3571 91.7277 57.4106 92.3699 57.4641C93.012 57.4641 93.6541 57.4641 94.2963 57.4641C94.7244 57.4641 95.1792 57.4374 95.6608 57.3839C96.1959 57.3303 96.6775 57.2768 97.1056 57.2233C97.5337 57.1163 97.8815 57.036 98.1491 56.9825C98.4702 56.929 98.6307 56.8755 98.6307 56.822V56.1798L98.7912 56.2601C98.8983 56.2601 98.9785 55.832 99.032 54.9758C99.1391 54.0661 99.1926 53.2367 99.1926 52.4875V51.4441C99.1926 51.016 99.1658 50.5879 99.1123 50.1598C99.1123 49.7317 99.1123 49.3036 99.1123 48.8755C99.1123 48.2869 99.1123 47.7518 99.1123 47.2702C99.1658 46.7351 99.2193 46.2267 99.2728 45.7451C99.1123 45.1565 99.0588 44.3538 99.1123 43.3371C99.2193 42.3203 99.1658 41.4374 98.9518 40.6882C98.6842 40.4207 98.5504 40.0996 98.5504 39.725C98.5504 39.511 98.5772 39.2969 98.6307 39.0829C98.6842 38.8153 98.711 38.5478 98.711 38.2802C98.711 37.8521 98.6842 37.5043 98.6307 37.2368C98.5772 36.9692 98.5504 36.7819 98.5504 36.6749C98.5504 36.5679 98.5772 36.5144 98.6307 36.5144C98.6842 36.4608 98.711 36.3806 98.711 36.2735C98.711 36.1665 98.6842 36.0863 98.6307 36.0327C98.5772 35.9257 98.5504 35.8187 98.5504 35.7117C98.5504 35.4976 98.7377 35.3906 99.1123 35.3906L99.1926 34.909C99.6207 34.909 99.8347 35.2568 99.8347 35.9525C100.798 36.3271 102.109 36.5144 103.768 36.5144C105.855 36.5144 107.567 36.1933 108.905 35.5511C110.243 34.909 111.313 34.4274 112.116 34.1063C113.507 33.5712 114.818 32.7685 116.049 31.6983ZM99.3531 14.2C99.6207 14.2 99.8347 14.1198 99.9952 13.9592C100.102 13.9057 100.37 13.879 100.798 13.879H101.681C102.537 13.879 103.473 14.0127 104.49 14.2803C105.56 14.5479 106.55 14.9759 107.46 15.5646C108.423 16.0997 109.199 16.7686 109.788 17.5713C110.43 18.3739 110.751 19.3104 110.751 20.3806C110.751 21.7719 110.51 22.8154 110.029 23.511C109.601 24.1532 109.039 24.6348 108.343 24.9559C107.647 25.2234 106.898 25.4107 106.096 25.5177C105.293 25.6247 104.544 25.7853 103.848 25.9993C102.938 26.1064 102.082 26.1599 101.28 26.1599C100.477 26.1599 99.6207 26.1866 98.711 26.2401C98.711 26.1331 98.6039 25.9993 98.3899 25.8388C98.2294 25.6247 98.1491 25.4375 98.1491 25.2769C98.1491 25.1699 98.2561 25.0361 98.4702 24.8756L98.1491 14.6816C98.1491 14.3071 98.3631 14.1198 98.7912 14.1198C98.8983 14.1198 98.9785 14.1465 99.032 14.2C99.1391 14.2 99.2461 14.2 99.3531 14.2ZM104.811 24.1532C105.935 23.8321 107.032 23.4843 108.102 23.1097C108.744 22.307 109.065 21.3438 109.065 20.2201C109.065 19.0428 108.771 18.1599 108.183 17.5713C107.594 16.9826 106.871 16.5545 106.015 16.287C105.159 15.9659 104.249 15.7519 103.286 15.6448C102.323 15.4843 101.467 15.2703 100.718 15.0027C100.076 15.1097 99.6742 15.19 99.5136 15.2435C99.3531 15.2435 99.2728 15.404 99.2728 15.7251C99.2728 16.0997 99.2996 16.9826 99.3531 18.3739C99.4066 19.7652 99.6474 21.8254 100.076 24.5545C100.236 24.6615 100.45 24.7151 100.718 24.7151C100.985 24.7151 101.172 24.7686 101.28 24.8756C102.51 24.6615 103.688 24.4207 104.811 24.1532Z" fill="#F8E2A5"/>
<path d="M57.4477 2.07966C59.4276 2.18669 61.4343 2.29371 63.4677 2.40074C65.4477 2.66829 67.3206 3.3907 69.0864 4.56795C70.9058 5.6917 72.4844 7.083 73.8222 8.74185C75.16 10.3472 76.2302 12.1131 77.0329 14.0395C77.8356 15.9659 78.2369 17.8388 78.2369 19.6582C78.2369 21.9057 77.7553 24.0194 76.7921 25.9993C75.8289 27.9257 74.7854 29.7986 73.6617 31.618C71.9493 32.8488 70.2369 34.0528 68.5246 35.2301C66.8122 36.4073 64.8858 37.1297 62.7453 37.3973H62.1032C61.354 37.3973 60.6316 37.424 59.936 37.4776C59.2938 37.5311 58.6249 37.5578 57.9293 37.5578H57.2069C56.8323 37.5578 56.5915 37.5311 56.4845 37.4776L56.2437 37.6381L56.7253 38.2C56.6182 38.8956 56.5112 39.5645 56.4042 40.2066C56.3507 40.7953 56.3239 41.4374 56.3239 42.1331V42.7752C56.3239 43.1498 56.3507 43.3906 56.4042 43.4976C56.1902 43.5511 56.0831 43.6581 56.0831 43.8187C56.0831 43.9257 56.1099 44.0327 56.1634 44.1397C56.2169 44.1933 56.2437 44.2735 56.2437 44.3805C56.2437 44.4876 56.2169 44.5411 56.1634 44.5411V45.103L56.2437 44.9424C56.3507 45.317 56.4042 45.6916 56.4042 46.0662C56.4042 46.3872 56.4042 46.7351 56.4042 47.1096V48.6347V51.2835C56.4042 51.8722 56.4042 52.4875 56.4042 53.1297C56.4577 53.7183 56.4845 54.3069 56.4845 54.8956V54.9758C56.431 54.9758 56.3507 54.9223 56.2437 54.8153V54.9758C56.2437 55.1899 56.3774 55.4307 56.645 55.6982C56.431 55.9123 56.3239 56.2066 56.3239 56.5812C56.3239 56.8487 56.4042 57.0093 56.5647 57.0628C56.7788 57.0628 56.8858 57.143 56.8858 57.3036L56.5647 57.7049C56.1366 57.4909 55.8156 57.3839 55.6015 57.3839C55.4945 57.3839 55.0129 57.6246 54.1567 58.1063L53.9962 58.1865C53.8356 58.0795 53.7554 58.026 53.7554 58.026C53.7554 57.9725 53.6216 57.9457 53.354 57.9457C53.0865 57.9457 52.5781 57.9992 51.829 58.1063C51.1333 58.1598 50.4912 58.1865 49.9025 58.1865H44.5246C44.2036 58.1865 43.9895 58.4006 43.8825 58.8287C43.7755 58.7216 43.6417 58.5879 43.4812 58.4273C43.3741 58.2133 43.2404 58.1063 43.0798 58.1063C42.9728 58.1063 42.839 58.1865 42.6785 58.3471C42.625 58.3471 42.5982 58.3471 42.5982 58.3471C42.5982 58.2935 42.5715 58.2668 42.518 58.2668H42.3574C42.3574 58.1598 42.518 58.026 42.839 57.8655C43.1601 57.6514 43.3206 57.3571 43.3206 56.9825C43.3206 56.2334 43.2671 55.5377 43.1601 54.8956C43.1066 54.2534 43.0798 53.5845 43.0798 52.8889C43.0798 51.6046 43.1601 50.1865 43.3206 48.6347C43.2136 45.424 43.1333 42.7217 43.0798 40.5277C43.0263 38.3337 42.9728 36.4876 42.9193 34.9893C42.8658 33.4374 42.839 32.1799 42.839 31.2167C42.839 30.2535 42.839 29.3973 42.839 28.6481C42.839 27.5244 42.839 26.4274 42.839 25.3572C42.8925 24.2334 42.9193 22.6013 42.9193 20.4609V16.4475C42.9193 15.7519 42.9193 15.083 42.9193 14.4408C42.9193 13.7452 42.946 13.0495 42.9996 12.3539C42.8925 11.8723 42.7855 10.9358 42.6785 9.54453C42.625 8.09972 42.5982 6.1733 42.5982 3.76528C42.5982 3.3907 42.8123 3.06963 43.2404 2.80207C43.6685 2.53451 44.2036 2.34722 44.8457 2.2402C45.4878 2.07967 46.1835 1.97264 46.9327 1.91913C47.6818 1.86562 48.4042 1.83887 49.0999 1.83887H51.4276C53.4611 1.83887 55.4678 1.91913 57.4477 2.07966ZM72.1366 31.6983C73.3674 30.6281 74.0898 29.5578 74.3038 28.4876C74.8389 27.9525 75.2135 27.3371 75.4276 26.6415C75.6951 25.9458 75.8556 25.2234 75.9092 24.4742C76.0162 23.6716 76.0965 22.8957 76.15 22.1465C76.2035 21.3438 76.3105 20.6214 76.471 19.9793C76.364 18.802 76.1767 17.6515 75.9092 16.5278C75.6416 15.404 75.3205 14.3071 74.946 13.2368L72.0563 9.22346C71.7888 9.00941 71.4409 8.7151 71.0129 8.34052C70.5848 7.91243 70.1299 7.51109 69.6483 7.13651C69.1667 6.70842 68.7119 6.36059 68.2838 6.09303C67.8557 5.77196 67.5078 5.61143 67.2403 5.61143C66.5982 5.61143 65.8222 5.50441 64.9125 5.29036C64.0564 5.0228 63.0931 4.75525 62.0229 4.48769C61.0062 4.16662 59.936 3.89906 58.8122 3.68501C57.6885 3.41746 56.5647 3.28368 55.441 3.28368H54.3173C54.2637 3.28368 54.0765 3.31043 53.7554 3.36395C53.4343 3.36395 53.2203 3.36395 53.1132 3.36395C52.8992 3.36395 52.7654 3.28368 52.7119 3.12314C52.3908 3.23017 52.0163 3.25692 51.5882 3.20341C51.2136 3.1499 50.946 3.25692 50.7855 3.52448C50.5714 3.52448 50.4109 3.47097 50.3039 3.36395H48.9393C48.8323 3.36395 48.6985 3.41746 48.538 3.52448C48.431 3.57799 48.324 3.60474 48.2169 3.60474C48.1634 3.60474 48.0832 3.55123 47.9761 3.44421L46.3708 3.84555C45.9427 3.84555 45.7019 3.8723 45.6484 3.92581C45.5949 5.47765 45.5414 6.94922 45.4878 8.34052C45.4878 9.73182 45.3808 11.1766 45.1668 12.675C45.2203 12.996 45.247 13.3171 45.247 13.6382C45.3006 13.9057 45.3273 14.1733 45.3273 14.4408C45.3273 14.7084 45.3006 15.4843 45.247 16.7686C45.1935 18.0529 45.1133 19.899 45.0062 22.307C44.8992 24.7151 44.819 26.5344 44.7654 27.7652C44.7654 28.9425 44.7654 29.5846 44.7654 29.6916C44.819 29.7986 44.8457 30.0395 44.8457 30.414C44.6317 32.8221 44.4711 34.8287 44.3641 36.4341C44.2571 37.9859 44.2036 39.1899 44.2036 40.0461C44.2036 41.4374 44.2838 42.8555 44.4444 44.3003C44.2838 44.9424 44.2036 45.5578 44.2036 46.1464C44.2036 46.7886 44.2303 47.4307 44.2838 48.0728C44.3909 48.715 44.4444 49.3304 44.4444 49.919C44.4444 50.5611 44.4176 50.9357 44.3641 51.0427C44.3641 51.1498 44.3641 51.337 44.3641 51.6046C44.4176 51.8722 44.4711 52.1665 44.5246 52.4875C44.5782 52.8086 44.6049 53.1297 44.6049 53.4508C44.6584 53.7183 44.6852 53.9056 44.6852 54.0126C44.6852 54.2267 44.6584 54.414 44.6049 54.5745C44.6049 54.6815 44.6049 54.8153 44.6049 54.9758C44.6049 55.2969 44.6584 55.5912 44.7654 55.8588C44.926 56.1263 45.0062 56.3136 45.0062 56.4206C45.0062 56.5277 44.9795 56.6079 44.926 56.6614C44.926 56.6614 44.926 56.715 44.926 56.822L45.6484 56.9022C45.7554 57.0093 45.8357 57.0628 45.8892 57.0628H46.2103C46.3173 57.0628 46.4243 57.143 46.5313 57.3036C47.1735 57.3571 47.8156 57.4106 48.4577 57.4641C49.0999 57.4641 49.742 57.4641 50.3842 57.4641C50.8122 57.4641 51.2671 57.4374 51.7487 57.3839C52.2838 57.3303 52.7654 57.2768 53.1935 57.2233C53.6216 57.1163 53.9694 57.036 54.237 56.9825C54.5581 56.929 54.7186 56.8755 54.7186 56.822V56.1798L54.8791 56.2601C54.9861 56.2601 55.0664 55.832 55.1199 54.9758C55.2269 54.0661 55.2805 53.2367 55.2805 52.4875V51.4441C55.2805 51.016 55.2537 50.5879 55.2002 50.1598C55.2002 49.7317 55.2002 49.3036 55.2002 48.8755C55.2002 48.2869 55.2002 47.7518 55.2002 47.2702C55.2537 46.7351 55.3072 46.2267 55.3607 45.7451C55.2002 45.1565 55.1467 44.3538 55.2002 43.3371C55.3072 42.3203 55.2537 41.4374 55.0397 40.6882C54.7721 40.4207 54.6383 40.0996 54.6383 39.725C54.6383 39.511 54.6651 39.2969 54.7186 39.0829C54.7721 38.8153 54.7989 38.5478 54.7989 38.2802C54.7989 37.8521 54.7721 37.5043 54.7186 37.2368C54.6651 36.9692 54.6383 36.7819 54.6383 36.6749C54.6383 36.5679 54.6651 36.5144 54.7186 36.5144C54.7721 36.4608 54.7989 36.3806 54.7989 36.2735C54.7989 36.1665 54.7721 36.0863 54.7186 36.0327C54.6651 35.9257 54.6383 35.8187 54.6383 35.7117C54.6383 35.4976 54.8256 35.3906 55.2002 35.3906L55.2805 34.909C55.7086 34.909 55.9226 35.2568 55.9226 35.9525C56.8858 36.3271 58.1968 36.5144 59.8557 36.5144C61.9426 36.5144 63.655 36.1933 64.9928 35.5511C66.3306 34.909 67.4008 34.4274 68.2035 34.1063C69.5948 33.5712 70.9058 32.7685 72.1366 31.6983ZM55.441 14.2C55.7086 14.2 55.9226 14.1198 56.0831 13.9592C56.1902 13.9057 56.4577 13.879 56.8858 13.879H57.7687C58.6249 13.879 59.5614 14.0127 60.5781 14.2803C61.6483 14.5479 62.6383 14.9759 63.548 15.5646C64.5112 16.0997 65.2871 16.7686 65.8757 17.5713C66.5179 18.3739 66.839 19.3104 66.839 20.3806C66.839 21.7719 66.5982 22.8154 66.1166 23.511C65.6885 24.1532 65.1266 24.6348 64.4309 24.9559C63.7353 25.2234 62.9861 25.4107 62.1834 25.5177C61.3808 25.6247 60.6316 25.7853 59.936 25.9993C59.0263 26.1064 58.1701 26.1599 57.3674 26.1599C56.5647 26.1599 55.7086 26.1866 54.7989 26.2401C54.7989 26.1331 54.6918 25.9993 54.4778 25.8388C54.3173 25.6247 54.237 25.4375 54.237 25.2769C54.237 25.1699 54.344 25.0361 54.5581 24.8756L54.237 14.6816C54.237 14.3071 54.451 14.1198 54.8791 14.1198C54.9861 14.1198 55.0664 14.1465 55.1199 14.2C55.2269 14.2 55.334 14.2 55.441 14.2ZM60.8992 24.1532C62.0229 23.8321 63.1199 23.4843 64.1901 23.1097C64.8323 22.307 65.1533 21.3438 65.1533 20.2201C65.1533 19.0428 64.859 18.1599 64.2704 17.5713C63.6818 16.9826 62.9594 16.5545 62.1032 16.287C61.247 15.9659 60.3373 15.7519 59.3741 15.6448C58.4109 15.4843 57.5547 15.2703 56.8055 15.0027C56.1634 15.1097 55.7621 15.19 55.6015 15.2435C55.441 15.2435 55.3607 15.404 55.3607 15.7251C55.3607 16.0997 55.3875 16.9826 55.441 18.3739C55.4945 19.7652 55.7353 21.8254 56.1634 24.5545C56.3239 24.6615 56.538 24.7151 56.8055 24.7151C57.0731 24.7151 57.2604 24.7686 57.3674 24.8756C58.5982 24.6615 59.7754 24.4207 60.8992 24.1532Z" fill="#F8E2A5"/>
<path d="M32.9184 51.5245C33.186 53.1299 33.5873 54.5479 34.1224 55.7787C34.2295 56.2603 34.3632 56.7151 34.5238 57.1432C34.6843 57.5713 34.8448 58.0262 35.0054 58.5078C34.8983 58.8288 34.7913 58.9894 34.6843 58.9894C34.4703 58.9894 34.0422 58.9626 33.4 58.9091C32.7579 58.8556 31.4469 58.7753 29.4669 58.6683C28.2897 58.6148 27.273 58.5881 26.4168 58.5881C25.5606 58.5881 24.8649 58.5078 24.3298 58.3473C24.0087 57.4911 23.6609 56.5279 23.2863 55.4576C22.9653 54.3874 22.6174 53.3172 22.2429 52.2469C21.9218 51.1232 21.574 50.053 21.1994 49.0362C20.8783 47.966 20.5573 47.0296 20.2362 46.2269L19.9151 45.9058C19.273 45.9593 18.6041 45.9861 17.9084 45.9861C17.2663 45.9326 16.6509 46.0396 16.0623 46.3072C16.5974 46.4677 17.1058 46.5747 17.5874 46.6282C18.1225 46.6282 18.6576 46.6817 19.1927 46.7888C18.9787 46.8423 18.7646 46.869 18.5506 46.869C18.4435 46.869 18.39 46.8958 18.39 46.9493C18.069 46.9493 17.7211 46.9225 17.3466 46.869C17.0255 46.762 16.7044 46.7085 16.3834 46.7085C15.6342 46.7085 15.1526 46.9493 14.9385 47.4309C14.778 48.1801 14.5907 49.0362 14.3767 49.9995C14.1626 50.9627 13.9218 51.9526 13.6543 52.9693C13.4402 53.9325 13.2262 54.8958 13.0121 55.859C12.7981 56.8222 12.6108 57.6516 12.4503 58.3473C12.1827 58.6148 11.8349 58.7486 11.4068 58.7486C11.1392 58.7486 10.8449 58.6951 10.5238 58.5881C10.2028 58.5345 9.90846 58.5078 9.6409 58.5078C9.31983 58.5078 9.13254 58.5345 9.07903 58.5881L8.91849 58.4275C7.5807 58.481 6.21616 58.5078 4.82486 58.5078C3.43356 58.4543 2.09577 58.5078 0.811493 58.6683C0.757981 58.5613 0.677714 58.5078 0.570691 58.5078C0.463668 58.5078 0.410156 58.4543 0.410156 58.3473C0.410156 58.2402 0.410156 58.2135 0.410156 58.267C0.463668 58.3205 0.543935 58.1867 0.650958 57.8656L0.972028 57.384C0.811493 57.2235 0.731226 57.0897 0.731226 56.9827C0.731226 56.8222 0.811493 56.6616 0.972028 56.5011C1.13256 56.3406 1.23959 56.1533 1.2931 55.9392C1.72119 53.3707 2.20279 50.6148 2.73791 47.6717C3.32654 44.7286 3.80814 41.9727 4.18272 39.4042C4.02219 39.4042 3.80814 39.9928 3.54058 41.17C3.27302 42.2938 2.97871 43.6583 2.65764 45.2637C2.33657 46.869 1.98875 48.5546 1.61417 50.3205C1.2931 52.0329 0.972028 53.4777 0.650958 54.655C1.56065 49.9459 2.44359 45.0496 3.29978 39.966C4.15596 34.8289 5.17268 29.9059 6.34994 25.1968C6.34994 25.5714 6.32318 25.839 6.26967 25.9995V26.9627C7.01883 23.9126 7.74124 20.9159 8.43689 17.9728C9.18605 15.0297 9.85495 12.033 10.4436 8.98285C10.3365 9.08987 10.2563 9.2504 10.2028 9.46445C10.1493 9.62498 10.069 9.78552 9.96197 9.94605C10.0155 9.35743 10.176 8.68853 10.4436 7.93937C10.7111 7.1367 11.0322 6.36078 11.4068 5.61162C11.7814 4.86246 12.1827 4.16681 12.6108 3.52467C13.0924 2.88253 13.574 2.40092 14.0556 2.07985H15.4201C17.6141 2.07985 19.166 2.02634 20.0757 1.91932C21.0389 1.8123 21.8415 1.75879 22.4837 1.75879C23.1258 4.32734 23.7412 6.84238 24.3298 9.30392C24.9184 11.7119 25.4268 14.2002 25.8549 16.7688C25.8549 17.3039 26.0154 17.7587 26.3365 18.1333C26.6576 18.4544 26.8181 18.829 26.8181 19.2571C26.7646 19.3106 26.7378 19.3641 26.7378 19.4176C26.7378 19.4711 26.7111 19.5246 26.6576 19.5781C26.6576 19.6316 26.6576 19.7119 26.6576 19.8189C27.1392 21.4778 27.5138 23.1902 27.7813 24.956C28.0489 26.6684 28.477 28.3273 29.0656 29.9326C29.3331 31.538 29.6542 33.1968 30.0288 34.9092C30.4569 36.5681 30.7512 38.2001 30.9117 39.8055C31.3398 40.6617 31.5539 41.6249 31.5539 42.6951C31.5539 43.7118 31.7144 44.675 32.0355 45.5847C32.303 45.6918 32.4368 45.8523 32.4368 46.0663C32.4368 46.2804 32.4636 46.4944 32.5171 46.7085C32.303 46.7085 32.196 46.8155 32.196 47.0296C32.4636 48.3673 32.7044 49.8657 32.9184 51.5245ZM30.5104 57.063C31.1525 57.063 31.8482 57.0362 32.5974 56.9827H33.2395L32.8382 54.5747C32.5706 52.9158 32.196 51.2837 31.7144 49.6784C31.2863 48.073 30.8315 46.5747 30.3499 45.1834C29.9218 43.7921 29.5472 42.5613 29.2261 41.4911C28.9051 40.4209 28.7445 39.5914 28.7445 39.0028V38.762C28.7445 38.3874 28.691 37.9594 28.584 37.4777C28.477 36.9961 28.3164 36.354 28.1024 35.5513C27.8883 34.6951 27.594 33.6517 27.2194 32.4209C26.8449 31.1366 26.4168 29.4778 25.9352 27.4443C25.8817 27.3373 25.8549 27.257 25.8549 27.2035C25.8549 27.0965 25.8281 26.9895 25.7746 26.8825C25.8817 26.8825 26.6041 28.8356 27.9418 32.742C28.0489 32.9025 28.1559 33.0898 28.2629 33.3038C28.4235 33.4644 28.5037 33.6517 28.5037 33.8657V34.1065H28.3432C28.4502 34.3741 28.5037 34.6149 28.5037 34.8289C28.5572 35.043 28.6375 35.257 28.7445 35.4711C28.798 35.4711 28.8783 35.4176 28.9853 35.3105C28.8783 35.2035 28.8248 35.1232 28.8248 35.0697C28.8248 34.9627 28.8783 34.8824 28.9853 34.8289C29.0923 34.7754 29.1459 34.6951 29.1459 34.5881C28.7178 33.0363 28.3699 31.4042 28.1024 29.6918C27.8348 27.9259 27.4602 26.3206 26.9786 24.8758V24.3942C26.9786 23.1634 26.6843 21.9594 26.0957 20.7821C25.5606 19.5514 25.2395 18.3741 25.1325 17.2504V17.5714C25.1325 17.625 25.186 17.8658 25.293 18.2939C25.1325 18.6149 25.0522 18.8825 25.0522 19.0965C25.0522 19.5246 25.1325 19.926 25.293 20.3005C25.4536 20.6751 25.5338 21.0497 25.5338 21.4243C25.5338 21.5848 25.4803 21.6651 25.3733 21.6651L25.293 21.4243C25.293 21.3173 25.2663 21.2637 25.2128 21.2637L25.0522 21.8256C24.9452 20.1132 24.5974 18.0263 24.0087 15.5648C23.4201 13.0497 22.8582 10.3474 22.3231 7.45777L22.4034 7.53803L22.0021 4.56814C22.0021 3.97952 21.7613 3.6852 21.2797 3.6852C21.1191 3.6852 20.9318 3.71196 20.7178 3.76547C20.5573 3.76547 20.37 3.76547 20.1559 3.76547C19.8884 3.76547 19.7011 3.71196 19.594 3.60493C19.7546 3.4444 19.8348 3.33738 19.8348 3.28387C19.5138 3.28387 18.8449 3.28387 17.8282 3.28387C16.865 3.28387 15.5272 3.31062 13.8148 3.36413C13.6543 4.64841 13.4402 5.79891 13.1727 6.81563C12.9051 7.77883 12.584 8.82231 12.2095 9.94605C11.8349 11.0698 11.5406 12.1935 11.3265 13.3173C11.1125 14.441 10.8984 15.5648 10.6844 16.6885C10.4703 17.8123 10.2295 18.9092 9.96197 19.9795C9.69441 21.0497 9.31983 22.0932 8.83823 23.1099H9.07903C8.972 23.8591 8.86498 24.6617 8.75796 25.5179C8.65094 26.3206 8.38338 27.0162 7.95528 27.6049C8.06231 28.14 8.11582 28.4611 8.11582 28.5681C8.11582 28.7286 8.03555 29.1032 7.87502 29.6918C7.71448 30.2269 7.52719 30.8423 7.31315 31.538C7.15261 32.2336 6.96532 32.9025 6.75127 33.5446C6.59074 34.1333 6.48372 34.5614 6.43021 34.8289C6.26967 35.5781 6.10914 36.3808 5.9486 37.2369C5.78807 38.0396 5.57402 38.7085 5.30646 39.2436C5.30646 39.3507 5.30646 39.4577 5.30646 39.5647C5.35997 39.6717 5.38673 39.752 5.38673 39.8055C5.38673 39.9125 5.41349 39.966 5.467 39.966C5.467 40.3941 5.38673 40.8222 5.2262 41.2503C5.06566 41.6249 4.98539 41.9995 4.98539 42.3741V42.6149C5.19944 42.3473 5.30646 42.0797 5.30646 41.8122C5.30646 41.4911 5.467 41.2771 5.78807 41.17C5.73456 42.5078 5.54727 43.8724 5.2262 45.2637C4.95864 46.655 4.63757 48.073 4.26299 49.5178C3.88841 50.9091 3.51383 52.3004 3.13925 53.6917C2.76466 55.0295 2.4436 56.3406 2.17604 57.6248L2.49711 57.7854C4.04894 57.5178 5.54726 57.277 6.99208 57.063C8.4904 56.7954 9.96197 56.5011 11.4068 56.18C11.7814 55.5914 12.1024 54.8422 12.37 53.9325C12.6375 53.0229 12.8783 52.0864 13.0924 51.1232C13.3064 50.16 13.4937 49.2235 13.6543 48.3138C13.8683 47.3506 14.1091 46.548 14.3767 45.9058L13.9753 45.2637C14.885 44.7286 15.982 44.4878 17.2663 44.5413C18.5506 44.5948 19.7546 44.568 20.8783 44.461C20.9853 44.568 21.1459 44.7018 21.3599 44.8623C21.6275 44.9694 21.7613 45.1567 21.7613 45.4242L21.6007 45.7453C21.9218 46.4944 22.2161 47.3506 22.4837 48.3138C22.7512 49.277 23.0188 50.267 23.2863 51.2837C23.5539 52.3004 23.8482 53.2637 24.1693 54.1733C24.4904 55.083 24.8649 55.859 25.293 56.5011H24.972V57.1432C25.079 57.0897 25.186 57.063 25.293 57.063C25.4536 57.0095 25.5873 56.9292 25.6944 56.8222C25.9084 56.9827 26.9519 57.063 28.8248 57.063C29.3599 57.063 29.9218 57.063 30.5104 57.063ZM17.6676 18.8557C17.9352 18.8557 18.1492 19.2838 18.3098 20.14C19.166 23.7253 19.7278 26.7754 19.9954 29.2905C20.2629 31.8055 20.6375 33.8657 21.1191 35.4711L20.8783 35.6316C20.7178 35.6316 20.5573 35.6584 20.3967 35.7119C20.2362 35.7119 20.0757 35.7119 19.9151 35.7119C19.3265 35.7119 18.6576 35.6851 17.9084 35.6316C17.1593 35.5781 16.4904 35.5513 15.9017 35.5513H14.8583C14.6442 35.5513 14.5372 35.364 14.5372 34.9895C14.5372 34.7219 14.564 34.5614 14.6175 34.5079C14.7245 34.4008 14.778 34.2938 14.778 34.1868V33.8657C14.778 33.7052 14.8048 33.5982 14.8583 33.5446L14.9385 33.6249C15.0456 33.1968 15.1258 32.2336 15.1793 30.7353C15.2864 29.237 15.6342 27.2838 16.2228 24.8758C16.5439 23.538 16.7044 22.5748 16.7044 21.9862V21.5848C16.7044 21.3173 16.8917 20.9962 17.2663 20.6216C17.2128 20.5681 17.186 20.4076 17.186 20.14C17.186 19.926 17.2128 19.6584 17.2663 19.3373C17.3733 19.0163 17.5071 18.8557 17.6676 18.8557ZM19.0322 24.956C18.8181 23.6718 18.4703 22.6283 17.9887 21.8256V21.4243C17.9887 21.1567 17.9084 20.9694 17.7479 20.8624C17.6409 21.13 17.4803 21.3975 17.2663 21.6651C17.1058 21.9326 17.0255 22.2805 17.0255 22.7086V23.3507C17.0255 23.6718 16.9452 24.3674 16.7847 25.4376C16.6777 26.4544 16.5171 27.5514 16.3031 28.7286C16.1426 29.9059 15.982 31.0296 15.8215 32.0998C15.6609 33.1166 15.5539 33.7854 15.5004 34.1065L15.3399 33.946L15.1793 34.2671L15.3399 34.1868L15.6609 35.0697H20.2362L20.5573 34.8289C20.2897 34.3473 20.1024 33.5714 19.9954 32.5012C19.8884 31.3774 19.7546 30.1734 19.594 28.8891C19.487 27.5514 19.2997 26.2403 19.0322 24.956ZM4.90513 33.5446C4.63757 35.4176 4.28974 37.2905 3.86165 39.1634L4.26299 39.0831C4.69108 37.2637 5.06566 35.3908 5.38673 33.4644C5.7078 31.4845 6.00211 29.6115 6.26967 27.8457C5.68104 29.7186 5.2262 31.6182 4.90513 33.5446ZM0.570691 54.976C0.570691 55.083 0.543935 55.1901 0.490424 55.2971C0.543935 55.1901 0.570691 55.083 0.570691 54.976C0.570691 54.869 0.597447 54.762 0.650958 54.655C0.597447 54.762 0.570691 54.869 0.570691 54.976Z" fill="#F8E2A5"/>
</svg>
