<svg width="24" height="22" viewBox="0 0 24 22" fill="none" xmlns="http://www.w3.org/2000/svg">
<path d="M6.14678 16.5956C6.10717 16.6412 6.05971 16.6781 6.00712 16.704C5.95454 16.7297 5.89786 16.7441 5.83981 16.7461C5.7821 16.7481 5.72474 16.7378 5.67045 16.7157C5.6165 16.6936 5.56699 16.6602 5.52465 16.6172L0.238582 11.2429C0.194534 11.1983 0.159705 11.1443 0.135804 11.0845C0.111902 11.0245 0.0996094 10.96 0.0996094 10.8947C0.0996094 10.8295 0.111902 10.7649 0.135804 10.705C0.151511 10.6658 0.171998 10.6291 0.196583 10.5959C0.209558 10.5784 0.223558 10.562 0.238582 10.5466L5.52465 5.17218C5.56699 5.12932 5.6165 5.09586 5.67045 5.07375C5.72474 5.05164 5.7821 5.04131 5.83981 5.04336C5.89786 5.04541 5.95454 5.05975 6.00712 5.08553C6.03102 5.0974 6.05424 5.11148 6.0761 5.1277C6.10171 5.14691 6.12527 5.1691 6.14678 5.19394L7.7424 7.03968C7.78269 7.08637 7.8141 7.14126 7.83425 7.20127C7.85473 7.26128 7.86361 7.32514 7.86088 7.38899C7.85815 7.45284 7.84347 7.51541 7.81786 7.57303C7.79225 7.63065 7.7564 7.68213 7.71201 7.72438L4.38999 10.8948L7.71201 14.0652C7.7564 14.1075 7.79225 14.1589 7.81786 14.2166C7.84347 14.2741 7.85815 14.3367 7.86088 14.4006C7.86361 14.4644 7.85473 14.5283 7.83425 14.5883C7.8141 14.6482 7.78269 14.7032 7.7424 14.7499L6.14678 16.5956Z"/>
<path d="M10.3272 21.0567L8.08966 20.3523C7.97766 20.317 7.88308 20.2349 7.82708 20.124C7.77074 20.0131 7.75742 19.8825 7.78986 19.7609L12.797 1.05807C12.8294 0.936512 12.9052 0.83399 13.0073 0.772955C13.1097 0.712006 13.2299 0.697494 13.3423 0.732749L15.5795 1.43717C15.6348 1.45458 15.6867 1.48378 15.7318 1.52296C15.7768 1.56214 15.8144 1.61054 15.8424 1.66552C15.8701 1.72041 15.8878 1.78076 15.894 1.84299C15.9004 1.90531 15.8953 1.96839 15.8793 2.02857L10.8722 20.7314C10.8561 20.7916 10.8291 20.8478 10.7933 20.8967C10.7571 20.9456 10.7124 20.9863 10.6618 21.0165C10.6113 21.0468 10.5556 21.0659 10.4983 21.0728C10.4406 21.0796 10.3825 21.0742 10.3272 21.0567Z"/>
<path d="M23.4305 11.2429L18.1445 16.6172C18.1021 16.6602 18.0526 16.6936 17.9987 16.7157C17.9724 16.7264 17.9454 16.7344 17.9178 16.7395C17.8887 16.7449 17.859 16.7472 17.8293 16.7461C17.7716 16.7441 17.7146 16.7297 17.662 16.704C17.6094 16.6781 17.562 16.6412 17.5223 16.5956L15.9267 14.7498C15.8864 14.7031 15.855 14.6482 15.8349 14.5881C15.8144 14.5282 15.8055 14.4644 15.8082 14.4005C15.811 14.3367 15.8257 14.274 15.8513 14.2165C15.8769 14.1588 15.9127 14.1074 15.9571 14.0651L19.2791 10.8948L15.9571 7.72438C15.9127 7.68213 15.8769 7.63065 15.8513 7.57303C15.8257 7.51541 15.8113 7.45284 15.8082 7.38899C15.8055 7.32514 15.8144 7.26128 15.8349 7.20127C15.8554 7.14126 15.8864 7.08637 15.9267 7.03968L17.5223 5.19394C17.562 5.14819 17.6094 5.1114 17.662 5.08553C17.7149 5.05975 17.7716 5.04541 17.8293 5.04336C17.8655 5.04208 17.9017 5.04567 17.9372 5.05403C17.958 5.05898 17.9785 5.06556 17.9987 5.07375C18.053 5.09586 18.1025 5.12932 18.1445 5.17218L23.4309 10.5466C23.4746 10.5912 23.5098 10.6452 23.5337 10.705C23.5576 10.765 23.5699 10.8295 23.5699 10.8948C23.5699 10.96 23.5576 11.0245 23.5333 11.0845C23.5094 11.1443 23.4746 11.1983 23.4305 11.2429Z"/>
</svg>
