<svg width="31" height="12" viewBox="0 0 31 12" fill="none" xmlns="http://www.w3.org/2000/svg">
<path d="M28.1506 9.03721C28.7622 9.06587 29.3928 9.07065 30.0425 9.05154V9.08021C30.0616 9.38597 30.0664 9.70607 30.0569 10.0405C30.0473 10.3654 30.0043 10.6711 29.9279 10.9578C28.9533 10.9482 27.9595 10.9626 26.9467 11.0008C25.9434 11.0294 24.9783 11.0056 24.0515 10.9291C24.0515 10.0978 24.0419 9.27609 24.0228 8.4639C24.0037 7.64216 23.9894 6.8252 23.9798 6.01302C23.9703 5.20083 23.9703 4.38865 23.9798 3.57646C23.9894 2.76428 24.018 1.94732 24.0658 1.12558C24.4385 1.10647 24.8398 1.09213 25.2698 1.08258C25.7093 1.06347 26.1488 1.04914 26.5884 1.03958C27.0279 1.03002 27.4531 1.02047 27.864 1.01091C28.2748 1.00136 28.6379 0.996582 28.9533 0.996582C29.2686 0.996582 29.5218 1.00136 29.7129 1.01091C29.904 1.02047 29.9995 1.03002 29.9995 1.03958C30.0473 1.37401 30.0569 1.71322 30.0282 2.0572C30.0091 2.40118 29.9995 2.74039 29.9995 3.07482V3.08915C29.6938 3.15604 29.3832 3.19904 29.0679 3.21815C28.7622 3.2277 28.4516 3.23248 28.1363 3.23248C27.821 3.22292 27.5057 3.21815 27.1903 3.21815C26.875 3.21815 26.5597 3.23248 26.2444 3.26114H26.2014L26.1871 3.27548C26.1966 3.55257 26.1823 3.83923 26.1441 4.13544C26.1154 4.42209 26.1345 4.69441 26.2014 4.9524L26.2157 4.96673C26.5024 4.98584 26.7938 4.9954 27.09 4.9954C27.3862 4.9954 27.6824 5.00017 27.9786 5.00973V5.02406C28.0264 5.34894 28.0407 5.67381 28.0216 5.99868C28.0025 6.32356 27.9977 6.66276 28.0073 7.0163C27.864 7.05452 27.7015 7.07841 27.52 7.08797C27.3384 7.08797 27.1617 7.08797 26.9897 7.08797C26.8272 7.08797 26.6791 7.09274 26.5454 7.1023C26.4116 7.11185 26.3208 7.13574 26.273 7.17396C26.2253 7.45106 26.2062 7.7616 26.2157 8.10559C26.2348 8.44957 26.2539 8.73622 26.273 8.96555L26.2874 8.97988C26.918 8.97988 27.5391 8.99899 28.1506 9.03721Z" fill="#F4C66B"/>
<path d="M20.7198 1.4126C21.0064 1.63236 21.2358 1.8808 21.4078 2.15789C21.618 2.48277 21.79 2.82198 21.9237 3.17551C22.0671 3.5195 22.1817 3.88259 22.2677 4.2648C22.3155 4.41768 22.3442 4.57056 22.3537 4.72344C22.3728 4.86677 22.3871 5.01487 22.3967 5.16775C22.3776 5.61685 22.3585 6.07071 22.3394 6.52936C22.3298 6.97845 22.282 7.42276 22.196 7.8623C22.196 7.87185 22.1913 7.87663 22.1817 7.87663C22.1817 7.87663 22.1817 7.88141 22.1817 7.89096C21.9906 8.45471 21.7278 8.9898 21.3934 9.49622C21.0685 10.0026 20.7246 10.4804 20.3615 10.9295C19.7308 10.9486 19.0954 10.9629 18.4552 10.9725C17.815 10.9725 17.1939 10.9725 16.592 10.9725C16.592 10.9725 16.5872 10.9773 16.5776 10.9868C16.4725 10.232 16.4056 9.45322 16.377 8.65059C16.3483 7.83841 16.334 7.01667 16.334 6.18537C16.334 5.35408 16.3388 4.51801 16.3483 3.67716C16.3674 2.82675 16.3674 1.9859 16.3483 1.15461C16.3579 1.14505 16.3627 1.1355 16.3627 1.12594C16.3722 1.11639 16.3818 1.10683 16.3913 1.09728C16.6589 1.03039 16.936 0.987394 17.2226 0.968283C17.5188 0.939618 17.815 0.930063 18.1112 0.939618C18.4074 0.939618 18.6989 0.944396 18.9855 0.953951C19.2817 0.963506 19.5684 0.963506 19.8455 0.953951C20.1513 1.03039 20.4427 1.18327 20.7198 1.4126ZM19.8885 7.61864C19.9649 7.53264 20.0318 7.44665 20.0891 7.36065C20.2516 7.11222 20.3662 6.8399 20.4331 6.54369C20.5096 6.24748 20.5096 5.92261 20.4331 5.56907C20.4045 5.42574 20.371 5.27764 20.3328 5.12476C20.2946 4.96232 20.2372 4.80944 20.1608 4.66611C20.0939 4.52278 20.0079 4.39857 19.9028 4.29346C19.7977 4.1788 19.6639 4.0928 19.5015 4.03547C19.3391 4.01636 19.1623 4.00681 18.9712 4.00681C18.7801 3.99725 18.5985 4.01159 18.4266 4.04981H18.3979H18.3836V4.10714C18.4027 4.36513 18.4122 4.64222 18.4122 4.93843C18.4122 5.23464 18.4074 5.54518 18.3979 5.87006C18.3883 6.18537 18.3836 6.51025 18.3836 6.84468C18.3836 7.16955 18.3931 7.49442 18.4122 7.8193C18.5173 7.91485 18.6607 7.95785 18.8422 7.94829C19.0333 7.93874 19.2149 7.9244 19.3868 7.90529C19.4346 7.91485 19.4776 7.91007 19.5158 7.89096C19.5541 7.8623 19.5971 7.83841 19.6448 7.8193C19.7404 7.76197 19.8216 7.69508 19.8885 7.61864Z" fill="#F4C66B"/>
<path d="M13.8055 1.64177C14.0826 1.8902 14.2785 2.18163 14.3931 2.51606C14.46 2.65939 14.5078 2.80749 14.5365 2.96038C14.5747 3.1037 14.6034 3.25181 14.6225 3.40469C14.6416 3.64357 14.6511 3.88245 14.6511 4.12132C14.6607 4.35065 14.6607 4.58475 14.6511 4.82362C14.6225 5.33004 14.6129 5.82213 14.6225 6.29989C14.632 6.77764 14.6177 7.26495 14.5795 7.76182L14.5365 8.2348C14.5174 8.56923 14.4648 8.90843 14.3788 9.25242C14.2928 9.58685 14.1638 9.89261 13.9918 10.1697C13.8294 10.399 13.6144 10.5854 13.3469 10.7287C13.0889 10.8625 12.8118 10.9676 12.5156 11.044C12.248 11.1204 11.9757 11.1682 11.6986 11.1873C11.4311 11.2064 11.1587 11.2064 10.8816 11.1873C10.681 11.1682 10.4851 11.1396 10.294 11.1013C10.1125 11.0727 9.93569 11.0201 9.7637 10.9437C9.60126 10.8672 9.45316 10.7717 9.31939 10.657C9.18561 10.5328 9.07573 10.3751 8.98973 10.184C8.85596 9.94516 8.76519 9.69195 8.71741 9.42441C8.67919 9.14731 8.6553 8.87021 8.64575 8.59311C8.61708 7.84782 8.58364 7.10252 8.54542 6.35722C8.51676 5.60236 8.52631 4.84751 8.57409 4.09266C8.58364 3.66268 8.63619 3.2327 8.73175 2.80272C8.83685 2.36318 9.03751 1.9762 9.33372 1.64177C9.42927 1.54622 9.53915 1.46022 9.66337 1.38378C9.97869 1.2309 10.3179 1.12102 10.681 1.05413C11.0536 0.977691 11.4215 0.949025 11.7846 0.968135C12.1573 0.987246 12.5156 1.05413 12.8596 1.16879C13.2131 1.2739 13.5284 1.43156 13.8055 1.64177ZM12.8596 6.7012V6.01323L12.8309 5.03861C12.8309 5.02906 12.8213 4.93351 12.8022 4.75196C12.7927 4.56086 12.7831 4.38409 12.7736 4.22165C12.7544 3.95411 12.678 3.71045 12.5442 3.49068C12.42 3.27092 12.248 3.10848 12.0283 3.00337C11.8372 2.92693 11.6413 2.9126 11.4406 2.96038C11.24 3.00815 11.0632 3.08937 10.9103 3.20403C10.5759 3.46202 10.3513 3.79167 10.2367 4.19299C10.1602 4.55608 10.1125 4.93828 10.0933 5.3396C10.0838 5.74091 10.0886 6.14223 10.1077 6.54354C10.1555 6.87797 10.1889 7.22196 10.208 7.5755C10.2271 7.91948 10.2845 8.24913 10.38 8.56445C10.4756 8.75555 10.6141 8.90366 10.7957 9.00876C10.9772 9.11387 11.1731 9.17598 11.3833 9.19509C11.5935 9.20464 11.8037 9.17598 12.0139 9.10909C12.2241 9.03265 12.4009 8.91321 12.5442 8.75077C12.6302 8.63611 12.6923 8.54534 12.7306 8.47845C12.7688 8.40201 12.7927 8.32079 12.8022 8.2348C12.8118 8.1488 12.8118 8.04847 12.8022 7.93381C12.8022 7.8096 12.8118 7.64716 12.8309 7.4465C12.8404 7.2554 12.8452 7.08819 12.8452 6.94486C12.8548 6.80153 12.8596 6.72031 12.8596 6.7012Z" fill="#F4C66B"/>
<path d="M3.49659 3.0751C3.36281 3.10376 3.25771 3.15631 3.18127 3.23276C3.16216 3.25187 3.14305 3.28531 3.12394 3.33308C3.11438 3.3713 3.10483 3.39997 3.09527 3.41908C3.07616 3.44775 3.05705 3.61496 3.03794 3.92072C3.02839 4.22649 3.01883 4.58958 3.00928 5.01001C2.99972 5.43043 2.99494 5.86997 2.99494 6.32861C2.99494 6.7777 3.00928 7.16946 3.03794 7.50389C3.06661 7.78099 3.13827 8.05331 3.25293 8.32085C3.37715 8.57884 3.5778 8.74606 3.8549 8.8225C4.06512 8.84161 4.261 8.81294 4.44254 8.7365C4.63364 8.6505 4.77697 8.51196 4.87252 8.32085C4.97763 8.10109 5.02063 7.87176 5.00152 7.63289C4.99196 7.38445 5.01107 7.1408 5.05885 6.90192C5.19262 6.92103 5.34072 6.92581 5.50316 6.91625C5.67515 6.9067 5.84714 6.90192 6.01914 6.90192C6.19113 6.90192 6.35834 6.9067 6.52078 6.91625C6.69277 6.92581 6.84565 6.94969 6.97942 6.98791C7.14186 7.48478 7.18486 7.98165 7.10842 8.47851C7.03198 8.96582 6.86476 9.40536 6.60677 9.79712C6.34879 10.1889 6.00958 10.5138 5.58916 10.7717C5.17829 11.0202 4.71008 11.1492 4.18455 11.1587C3.84057 11.2065 3.48703 11.2065 3.12394 11.1587C2.76084 11.1205 2.42164 11.0297 2.10632 10.8864C1.791 10.7335 1.52346 10.5233 1.30369 10.2558C1.09348 9.98822 0.969259 9.65379 0.931038 9.25248C0.911928 8.90849 0.897595 8.55018 0.88804 8.17753C0.878485 7.80488 0.86893 7.38923 0.859375 6.93058C0.859375 6.46238 0.859375 5.93685 0.859375 5.35399C0.86893 4.76157 0.878485 4.07838 0.88804 3.30442C0.86893 3.14198 0.873708 2.97955 0.902373 2.81711C0.940593 2.64512 0.988369 2.48746 1.0457 2.34413C1.1317 2.0957 1.2368 1.86637 1.36102 1.65616C1.49479 1.44595 1.65245 1.25963 1.834 1.09719C1.9391 1.02075 2.05376 0.958639 2.17798 0.910863C2.3022 0.853533 2.43119 0.805757 2.56496 0.767537C3.0045 0.62421 3.43926 0.56688 3.86924 0.595545C4.29922 0.62421 4.70053 0.724539 5.07318 0.896531C5.45538 1.05897 5.79937 1.27874 6.10513 1.55583C6.41089 1.83293 6.65455 2.15303 6.8361 2.51612C7.01764 2.86966 7.12753 3.25664 7.16575 3.67707C7.20397 4.09749 7.14664 4.52747 6.99376 4.96701C6.64022 5.04345 6.29146 5.07211 5.94747 5.053C5.61304 5.02434 5.26428 4.97656 4.90119 4.90968C4.87252 4.72813 4.85341 4.5227 4.84386 4.29337C4.84386 4.06405 4.81997 3.85384 4.77219 3.66274C4.72442 3.46208 4.63364 3.29964 4.49987 3.17543C4.37566 3.05121 4.175 2.99388 3.8979 3.00343C3.77368 3.02254 3.63991 3.04643 3.49659 3.0751Z" fill="#F4C66B"/>
</svg>
