<svg width="17" height="26" viewBox="0 0 17 26" fill="none" xmlns="http://www.w3.org/2000/svg">
<path d="M12.6475 8.87875C13.7462 8.87875 14.7999 8.44228 15.5768 7.66537C16.3537 6.88845 16.7902 5.83473 16.7902 4.73601C16.7902 3.63728 16.3537 2.58356 15.5768 1.80664C14.7999 1.02973 13.7462 0.593262 12.6475 0.593262L4.36197 0.593262C3.26389 0.593262 2.21078 1.02947 1.43432 1.80593C0.657863 2.58239 0.221652 3.6355 0.221652 4.73358C0.221652 5.83166 0.657863 6.88477 1.43432 7.66123C2.21078 8.43769 3.26389 8.8739 4.36197 8.8739C3.26325 8.8739 2.20952 9.31036 1.43261 10.0873C0.655691 10.8642 0.219225 11.9179 0.219225 13.0166C0.219225 14.1154 0.655691 15.1691 1.43261 15.946C2.20952 16.7229 3.26325 17.1594 4.36197 17.1594C3.54261 17.1589 2.74151 17.4014 2.05998 17.8562C1.37844 18.311 0.847074 18.9577 0.533076 19.7145C0.219078 20.4713 0.13655 21.3042 0.295928 22.108C0.455306 22.9117 0.849431 23.6501 1.42846 24.2298C2.0075 24.8095 2.74543 25.2045 3.54895 25.3648C4.35247 25.5251 5.18549 25.4436 5.94266 25.1305C6.69983 24.8173 7.34715 24.2867 7.80276 23.6057C8.25837 22.9247 8.50181 22.1239 8.50229 21.3046V8.87875H12.6475ZM12.6475 8.87875C11.8286 8.87875 11.0281 9.12158 10.3472 9.57652C9.66635 10.0315 9.13567 10.6781 8.8223 11.4346C8.50893 12.1912 8.42694 13.0237 8.5867 13.8268C8.74645 14.6299 9.14078 15.3677 9.71981 15.9467C10.2988 16.5257 11.0366 16.9201 11.8397 17.0798C12.6429 17.2396 13.4753 17.1576 14.2319 16.8442C14.9884 16.5309 15.6351 16.0002 16.09 15.3193C16.545 14.6384 16.7878 13.8379 16.7878 13.0191C16.7876 11.921 16.3514 10.868 15.575 10.0916C14.7985 9.31513 13.7455 8.87888 12.6475 8.87875Z" fill="#F4C66B"/>
</svg>
