<svg width="68" height="12" viewBox="0 0 68 12" fill="none" xmlns="http://www.w3.org/2000/svg">
<path d="M65.2678 9.09531C65.8793 9.12398 66.51 9.12876 67.1597 9.10965V9.13831C67.1788 9.44408 67.1836 9.76417 67.1741 10.0986C67.1645 10.4235 67.1215 10.7292 67.0451 11.0159C66.0704 11.0063 65.0767 11.0207 64.0639 11.0589C63.0606 11.0876 62.0955 11.0637 61.1687 10.9872C61.1687 10.1559 61.1591 9.33419 61.14 8.52201C61.1209 7.70027 61.1066 6.88331 61.097 6.07112C61.0875 5.25894 61.0875 4.44675 61.097 3.63457C61.1066 2.82238 61.1352 2.00542 61.183 1.18368C61.5557 1.16457 61.957 1.15024 62.387 1.14068C62.8265 1.12157 63.266 1.10724 63.7056 1.09769C64.1451 1.08813 64.5703 1.07858 64.9812 1.06902C65.392 1.05947 65.7551 1.05469 66.0704 1.05469C66.3858 1.05469 66.639 1.05947 66.8301 1.06902C67.0212 1.07858 67.1167 1.08813 67.1167 1.09769C67.1645 1.43211 67.1741 1.77132 67.1454 2.1153C67.1263 2.45929 67.1167 2.7985 67.1167 3.13292V3.14726C66.811 3.21414 66.5004 3.25714 66.1851 3.27625C65.8793 3.28581 65.5688 3.29058 65.2535 3.29058C64.9382 3.28103 64.6228 3.27625 64.3075 3.27625C63.9922 3.27625 63.6769 3.29058 63.3616 3.31925H63.3186L63.3042 3.33358C63.3138 3.61068 63.2995 3.89733 63.2612 4.19354C63.2326 4.48019 63.2517 4.75252 63.3186 5.0105L63.3329 5.02484C63.6196 5.04395 63.911 5.0535 64.2072 5.0535C64.5034 5.0535 64.7996 5.05828 65.0958 5.06783V5.08217C65.1436 5.40704 65.1579 5.73191 65.1388 6.05679C65.1197 6.38166 65.1149 6.72087 65.1245 7.07441C64.9812 7.11263 64.8187 7.13652 64.6372 7.14607C64.4556 7.14607 64.2789 7.14607 64.1069 7.14607C63.9444 7.14607 63.7963 7.15085 63.6626 7.1604C63.5288 7.16996 63.438 7.19385 63.3902 7.23207C63.3425 7.50917 63.3234 7.81971 63.3329 8.16369C63.352 8.50767 63.3711 8.79433 63.3902 9.02365L63.4046 9.03798C64.0352 9.03798 64.6563 9.05709 65.2678 9.09531Z" fill="#F4C66B"/>
<path d="M59.2469 2.63183C59.4667 3.01404 59.5909 3.47746 59.6196 4.0221V4.03643C59.6196 4.10332 59.6196 4.17021 59.6196 4.23709C59.6196 4.29442 59.6148 4.35175 59.6053 4.40908C59.5479 4.86773 59.3951 5.28815 59.1466 5.67036C58.9077 6.05256 58.6068 6.37744 58.2437 6.64498C57.8806 6.91252 57.4793 7.1084 57.0397 7.23262C56.6002 7.34728 56.1511 7.36639 55.6924 7.28995C55.702 7.42372 55.7068 7.55749 55.7068 7.69126C55.7068 7.81548 55.7068 8.00181 55.7068 8.25024C55.7068 8.48912 55.7068 8.81399 55.7068 9.22486C55.7163 9.63573 55.7307 10.1899 55.7498 10.8874V10.9018C55.7402 10.9018 55.7307 10.9066 55.7211 10.9161C55.7211 10.9161 55.7163 10.9161 55.7068 10.9161C55.573 10.9543 55.401 10.983 55.1908 11.0021C54.9901 11.0117 54.7752 11.0212 54.5458 11.0308C54.3261 11.0308 54.1063 11.026 53.8865 11.0164C53.6668 11.0069 53.4757 10.9926 53.3132 10.9734C53.2846 10.2759 53.2702 9.52107 53.2702 8.70888C53.2702 7.88714 53.2702 7.04629 53.2702 6.18633C53.2702 5.32637 53.2654 4.46164 53.2559 3.59212C53.2559 2.72261 53.2416 1.89131 53.2129 1.09824C53.6047 0.993131 54.0299 0.91669 54.4885 0.868914C54.9567 0.821139 55.4201 0.816361 55.8788 0.854582C56.347 0.892802 56.8008 0.978799 57.2404 1.11257C57.6799 1.23679 58.0669 1.42789 58.4013 1.68588C58.7453 1.93431 59.0272 2.24963 59.2469 2.63183ZM57.398 3.70678C57.3311 3.59212 57.2356 3.49657 57.1114 3.42013C56.8725 3.22903 56.5954 3.10959 56.2801 3.06181C55.9648 3.00448 55.6542 3.01404 55.3485 3.09048C55.3293 3.09048 55.315 3.09526 55.3055 3.10481C55.315 3.2768 55.315 3.45835 55.3055 3.64945C55.3055 3.84055 55.3055 4.03166 55.3055 4.22276C55.315 4.41386 55.3246 4.60019 55.3341 4.78173C55.3532 4.95372 55.3867 5.11138 55.4345 5.25471H55.4775C55.6303 5.24516 55.7928 5.24038 55.9648 5.24038C56.1368 5.23082 56.304 5.21649 56.4664 5.19738C56.6384 5.17827 56.8008 5.14483 56.9537 5.09705C57.1162 5.03972 57.2547 4.95372 57.3694 4.83906C57.4458 4.73396 57.4984 4.61452 57.527 4.48075C57.5652 4.34698 57.57 4.2132 57.5414 4.07943C57.5222 3.94566 57.4745 3.82144 57.398 3.70678Z" fill="#F4C66B"/>
<path d="M51.9573 1.11202C52.0528 1.11202 52.1292 1.1168 52.1866 1.12635V1.14068C51.919 2.00064 51.6037 2.84149 51.2406 3.66323C50.8775 4.48497 50.5001 5.30671 50.1083 6.12845C49.7166 6.94064 49.3344 7.7576 48.9617 8.57934C48.5891 9.39152 48.2594 10.218 47.9728 11.0589C47.9154 11.0493 47.8581 11.0446 47.8008 11.0446C47.7434 11.0446 47.6813 11.0446 47.6145 11.0446C47.4138 11.0446 47.194 11.0493 46.9551 11.0589C46.7163 11.078 46.4869 11.0876 46.2672 11.0876C46.2098 11.0876 46.1525 11.0876 46.0952 11.0876C46.0379 11.0876 45.9805 11.0828 45.9232 11.0732H45.8945C46.143 10.2993 46.4344 9.49185 46.7688 8.651C47.1033 7.8006 47.4377 6.95497 47.7721 6.11412V6.08545C47.667 5.66503 47.5332 5.24938 47.3708 4.83851C47.2084 4.41809 47.0364 4.00244 46.8548 3.59157C46.6828 3.1807 46.5156 2.76983 46.3532 2.35896C46.1907 1.94809 46.0617 1.542 45.9662 1.14068C46.1573 1.14068 46.358 1.12635 46.5682 1.09769C46.7784 1.06902 46.9886 1.05469 47.1988 1.05469C47.3135 1.05469 47.4281 1.06424 47.5428 1.08335C47.6575 1.09291 47.7673 1.12157 47.8724 1.16935C47.9202 1.37956 47.9871 1.62799 48.0731 1.91465C48.1687 2.2013 48.2642 2.49273 48.3598 2.78894C48.4649 3.08515 48.57 3.36702 48.6751 3.63457C48.7897 3.90211 48.8901 4.12666 48.9761 4.3082C49.0716 4.13621 49.1672 3.91644 49.2627 3.6489C49.3678 3.3718 49.4681 3.08515 49.5637 2.78894C49.6688 2.49273 49.7691 2.2013 49.8647 1.91465C49.9602 1.62799 50.051 1.38912 50.137 1.19801C50.309 1.15979 50.5383 1.13591 50.825 1.12635C51.1212 1.10724 51.3935 1.09769 51.6419 1.09769C51.7566 1.09769 51.8617 1.10246 51.9573 1.11202Z" fill="#F4C66B"/>
<path d="M41.8211 0.954319C42.8626 0.944764 43.8754 0.99254 44.8596 1.09765C44.8787 1.41296 44.8835 1.77606 44.8739 2.18693C44.8739 2.5978 44.85 2.97523 44.8023 3.31921C44.6207 3.28099 44.3962 3.26666 44.1286 3.27621C43.8611 3.28577 43.5028 3.3001 43.0537 3.31921H43.025H43.0107C43.0107 3.32876 43.0059 3.33832 42.9963 3.34787C42.9963 3.34787 42.9963 3.35265 42.9963 3.36221C42.9868 3.40998 42.9772 3.48642 42.9677 3.59153C42.9677 3.68708 42.9677 3.84474 42.9677 4.06451C42.9677 4.27472 42.9677 4.5566 42.9677 4.91014C42.9772 5.25412 42.9868 5.70321 42.9963 6.25741C43.0059 6.80205 43.0155 7.46135 43.025 8.23532C43.0346 8.99972 43.0489 9.90268 43.068 10.9442V10.9585V10.9729C42.896 11.0015 42.7049 11.0206 42.4947 11.0302C42.294 11.0302 42.0886 11.0302 41.8784 11.0302C41.6777 11.0302 41.4771 11.0302 41.2764 11.0302C41.0758 11.0302 40.8894 11.0445 40.7175 11.0732C40.7079 11.035 40.7079 10.863 40.7175 10.5572C40.727 10.2514 40.7318 9.79758 40.7318 9.1956C40.7413 8.58408 40.7366 7.80534 40.7175 6.85938C40.7079 5.91342 40.6745 4.77159 40.6171 3.43387L40.6028 3.41954C40.4881 3.36221 40.3448 3.32876 40.1728 3.31921C40.0008 3.3001 39.8288 3.29054 39.6568 3.29054C39.4848 3.28099 39.3272 3.27621 39.1839 3.27621C39.0405 3.27621 38.9402 3.26666 38.8829 3.24755C38.8638 3.20933 38.8446 3.11378 38.8255 2.96089C38.816 2.80801 38.8064 2.62646 38.7969 2.41625C38.7969 2.19648 38.7969 1.96238 38.7969 1.71395C38.7969 1.46552 38.8064 1.22664 38.8255 0.997318C38.8255 0.987763 38.8208 0.982985 38.8112 0.982985C38.8112 0.982985 38.8112 0.978207 38.8112 0.968652C39.7858 0.959097 40.7891 0.954319 41.8211 0.954319Z" fill="#F4C66B"/>
<path d="M36.6961 1.69988C36.9732 1.94831 37.1691 2.23974 37.2838 2.57417C37.3507 2.7175 37.3984 2.8656 37.4271 3.01848C37.4653 3.16181 37.494 3.30991 37.5131 3.46279C37.5322 3.70167 37.5418 3.94055 37.5418 4.17943C37.5513 4.40875 37.5513 4.64285 37.5418 4.88173C37.5131 5.38815 37.5035 5.88024 37.5131 6.35799C37.5227 6.83575 37.5083 7.32306 37.4701 7.81993L37.4271 8.2929C37.408 8.62733 37.3554 8.96654 37.2694 9.31052C37.1834 9.64495 37.0545 9.95072 36.8825 10.2278C36.72 10.4571 36.505 10.6435 36.2375 10.7868C35.9795 10.9206 35.7024 11.0257 35.4062 11.1021C35.1387 11.1785 34.8663 11.2263 34.5892 11.2454C34.3217 11.2645 34.0494 11.2645 33.7723 11.2454C33.5716 11.2263 33.3757 11.1977 33.1846 11.1594C33.0031 11.1308 32.8263 11.0782 32.6543 11.0018C32.4919 10.9253 32.3438 10.8298 32.21 10.7151C32.0762 10.5909 31.9664 10.4332 31.8804 10.2421C31.7466 10.0033 31.6558 9.75006 31.608 9.48252C31.5698 9.20542 31.5459 8.92832 31.5364 8.65122C31.5077 7.90592 31.4743 7.16062 31.436 6.41532C31.4074 5.66047 31.4169 4.90562 31.4647 4.15076C31.4743 3.72078 31.5268 3.2908 31.6224 2.86082C31.7275 2.42129 31.9281 2.03431 32.2243 1.69988C32.3199 1.60433 32.4298 1.51833 32.554 1.44189C32.8693 1.28901 33.2085 1.17912 33.5716 1.11224C33.9443 1.0358 34.3121 1.00713 34.6752 1.02624C35.0479 1.04535 35.4062 1.11224 35.7502 1.2269C36.1037 1.332 36.419 1.48966 36.6961 1.69988ZM35.7502 6.75931V6.07134L35.7215 5.09672C35.7215 5.08716 35.712 4.99161 35.6928 4.81007C35.6833 4.61896 35.6737 4.44219 35.6642 4.27976C35.6451 4.01221 35.5686 3.76856 35.4349 3.54879C35.3106 3.32902 35.1387 3.16659 34.9189 3.06148C34.7278 2.98504 34.5319 2.97071 34.3312 3.01848C34.1306 3.06626 33.9538 3.14748 33.8009 3.26214C33.4665 3.52013 33.242 3.84978 33.1273 4.25109C33.0509 4.61419 33.0031 4.99639 32.984 5.39771C32.9744 5.79902 32.9792 6.20033 32.9983 6.60165C33.0461 6.93608 33.0795 7.28006 33.0986 7.6336C33.1177 7.97759 33.1751 8.30724 33.2706 8.62256C33.3662 8.81366 33.5047 8.96176 33.6863 9.06687C33.8678 9.17197 34.0637 9.23408 34.2739 9.25319C34.4841 9.26275 34.6943 9.23408 34.9046 9.1672C35.1148 9.09076 35.2915 8.97132 35.4349 8.80888C35.5209 8.69422 35.583 8.60344 35.6212 8.53656C35.6594 8.46012 35.6833 8.3789 35.6928 8.2929C35.7024 8.20691 35.7024 8.10658 35.6928 7.99192C35.6928 7.8677 35.7024 7.70526 35.7215 7.50461C35.7311 7.31351 35.7358 7.14629 35.7358 7.00296C35.7454 6.85964 35.7502 6.77842 35.7502 6.75931Z" fill="#F4C66B"/>
<path d="M27.1023 0.954319C28.1438 0.944764 29.1567 0.99254 30.1408 1.09765C30.16 1.41296 30.1647 1.77606 30.1552 2.18693C30.1552 2.5978 30.1313 2.97523 30.0835 3.31921C29.902 3.28099 29.6774 3.26666 29.4099 3.27621C29.1423 3.28577 28.784 3.3001 28.3349 3.31921H28.3063H28.2919C28.2919 3.32876 28.2872 3.33832 28.2776 3.34787C28.2776 3.34787 28.2776 3.35265 28.2776 3.36221C28.268 3.40998 28.2585 3.48642 28.2489 3.59153C28.2489 3.68708 28.2489 3.84474 28.2489 4.06451C28.2489 4.27472 28.2489 4.5566 28.2489 4.91014C28.2585 5.25412 28.268 5.70321 28.2776 6.25741C28.2872 6.80205 28.2967 7.46135 28.3063 8.23532C28.3158 8.99972 28.3302 9.90268 28.3493 10.9442V10.9585V10.9729C28.1773 11.0015 27.9862 11.0206 27.776 11.0302C27.5753 11.0302 27.3699 11.0302 27.1596 11.0302C26.959 11.0302 26.7583 11.0302 26.5577 11.0302C26.357 11.0302 26.1707 11.0445 25.9987 11.0732C25.9891 11.035 25.9891 10.863 25.9987 10.5572C26.0083 10.2514 26.013 9.79758 26.013 9.1956C26.0226 8.58408 26.0178 7.80534 25.9987 6.85938C25.9891 5.91342 25.9557 4.77159 25.8984 3.43387L25.884 3.41954C25.7694 3.36221 25.6261 3.32876 25.4541 3.31921C25.2821 3.3001 25.1101 3.29054 24.9381 3.29054C24.7661 3.28099 24.6084 3.27621 24.4651 3.27621C24.3218 3.27621 24.2215 3.26666 24.1641 3.24755C24.145 3.20933 24.1259 3.11378 24.1068 2.96089C24.0972 2.80801 24.0877 2.62646 24.0781 2.41625C24.0781 2.19648 24.0781 1.96238 24.0781 1.71395C24.0781 1.46552 24.0877 1.22664 24.1068 0.997318C24.1068 0.987763 24.102 0.982985 24.0925 0.982985C24.0925 0.982985 24.0925 0.978207 24.0925 0.968652C25.0671 0.959097 26.0704 0.954319 27.1023 0.954319Z" fill="#F4C66B"/>
<path d="M21.9793 1.69988C22.2564 1.94831 22.4523 2.23974 22.567 2.57417C22.6339 2.7175 22.6816 2.8656 22.7103 3.01848C22.7485 3.16181 22.7772 3.30991 22.7963 3.46279C22.8154 3.70167 22.825 3.94055 22.825 4.17943C22.8345 4.40875 22.8345 4.64285 22.825 4.88173C22.7963 5.38815 22.7867 5.88024 22.7963 6.35799C22.8059 6.83575 22.7915 7.32306 22.7533 7.81993L22.7103 8.2929C22.6912 8.62733 22.6386 8.96654 22.5526 9.31052C22.4666 9.64495 22.3377 9.95072 22.1657 10.2278C22.0032 10.4571 21.7882 10.6435 21.5207 10.7868C21.2627 10.9206 20.9856 11.0257 20.6894 11.1021C20.4219 11.1785 20.1495 11.2263 19.8724 11.2454C19.6049 11.2645 19.3326 11.2645 19.0555 11.2454C18.8548 11.2263 18.6589 11.1977 18.4678 11.1594C18.2863 11.1308 18.1095 11.0782 17.9375 11.0018C17.7751 10.9253 17.627 10.8298 17.4932 10.7151C17.3594 10.5909 17.2496 10.4332 17.1636 10.2421C17.0298 10.0033 16.939 9.75006 16.8912 9.48252C16.853 9.20542 16.8291 8.92832 16.8196 8.65122C16.7909 7.90592 16.7575 7.16062 16.7192 6.41532C16.6906 5.66047 16.7001 4.90562 16.7479 4.15076C16.7575 3.72078 16.81 3.2908 16.9056 2.86082C17.0107 2.42129 17.2113 2.03431 17.5075 1.69988C17.6031 1.60433 17.713 1.51833 17.8372 1.44189C18.1525 1.28901 18.4917 1.17912 18.8548 1.11224C19.2275 1.0358 19.5953 1.00713 19.9584 1.02624C20.3311 1.04535 20.6894 1.11224 21.0334 1.2269C21.3869 1.332 21.7022 1.48966 21.9793 1.69988ZM21.0334 6.75931V6.07134L21.0047 5.09672C21.0047 5.08716 20.9952 4.99161 20.9761 4.81007C20.9665 4.61896 20.9569 4.44219 20.9474 4.27976C20.9283 4.01221 20.8518 3.76856 20.7181 3.54879C20.5938 3.32902 20.4219 3.16659 20.2021 3.06148C20.011 2.98504 19.8151 2.97071 19.6144 3.01848C19.4138 3.06626 19.237 3.14748 19.0841 3.26214C18.7497 3.52013 18.5252 3.84978 18.4105 4.25109C18.3341 4.61419 18.2863 4.99639 18.2672 5.39771C18.2576 5.79902 18.2624 6.20033 18.2815 6.60165C18.3293 6.93608 18.3627 7.28006 18.3818 7.6336C18.4009 7.97759 18.4583 8.30724 18.5538 8.62256C18.6494 8.81366 18.7879 8.96176 18.9695 9.06687C19.151 9.17197 19.3469 9.23408 19.5571 9.25319C19.7673 9.26275 19.9775 9.23408 20.1878 9.1672C20.398 9.09076 20.5747 8.97132 20.7181 8.80888C20.8041 8.69422 20.8662 8.60344 20.9044 8.53656C20.9426 8.46012 20.9665 8.3789 20.9761 8.2929C20.9856 8.20691 20.9856 8.10658 20.9761 7.99192C20.9761 7.8677 20.9856 7.70526 21.0047 7.50461C21.0143 7.31351 21.019 7.14629 21.019 7.00296C21.0286 6.85964 21.0334 6.77842 21.0334 6.75931Z" fill="#F4C66B"/>
<path d="M15.0349 9.88388C15.2452 10.247 15.4219 10.6244 15.5653 11.0162H15.5796C15.2452 11.0162 14.8725 11.0305 14.4616 11.0592C14.0508 11.0783 13.6303 11.0735 13.2004 11.0448H13.186C13.0905 10.8251 12.971 10.5623 12.8277 10.2565C12.6844 9.95076 12.5267 9.63066 12.3547 9.29624C12.1827 8.96181 11.9964 8.63216 11.7958 8.30728C11.5951 7.98241 11.3945 7.69575 11.1938 7.44732L11.1651 7.40432C11.1365 7.62409 11.1221 7.89641 11.1221 8.22129C11.1221 8.5366 11.1269 8.86626 11.1365 9.21024C11.1556 9.54467 11.1747 9.86476 11.1938 10.1705C11.2129 10.4763 11.2272 10.7199 11.2368 10.9015C11.0744 10.9684 10.8594 11.0114 10.5918 11.0305C10.3338 11.0496 10.0758 11.0592 9.81786 11.0592C9.55987 11.0687 9.32577 11.0687 9.11556 11.0592C8.9149 11.0496 8.79068 11.0496 8.74291 11.0592C8.76202 11.0592 8.77635 10.9302 8.7859 10.6722C8.79546 10.4046 8.80024 10.0559 8.80024 9.62589C8.80024 9.19591 8.80024 8.70382 8.80024 8.14962C8.80024 7.58587 8.79546 7.00779 8.7859 6.41537C8.7859 5.8134 8.77635 5.22098 8.75724 4.63812C8.74768 4.0457 8.73813 3.50584 8.72857 3.01853C8.71902 2.52166 8.70469 2.10124 8.68558 1.75725C8.67602 1.40371 8.66169 1.16483 8.64258 1.04062C9.17766 0.964178 9.7653 0.892515 10.4055 0.825628C11.0457 0.758743 11.7145 0.76352 12.4121 0.839961C12.9758 0.868626 13.4822 1.03106 13.9313 1.32727C14.3804 1.62348 14.7292 1.99135 14.9776 2.43089C15.226 2.87042 15.355 3.35773 15.3646 3.89282C15.3837 4.41835 15.2452 4.92955 14.949 5.42642C14.7674 5.7704 14.5237 6.05705 14.218 6.28638C13.9218 6.5157 13.5444 6.64469 13.0857 6.67336H13.0284H13.014V6.68769C13.2147 7.04123 13.4345 7.39477 13.6733 7.74831C13.9122 8.09229 14.1463 8.44105 14.3756 8.79459C14.605 9.14813 14.8247 9.51123 15.0349 9.88388ZM11.7241 2.8322C11.3992 2.84176 11.0696 2.91342 10.7351 3.04719C10.7447 3.17141 10.7495 3.31474 10.7495 3.47717C10.759 3.63005 10.7638 3.78771 10.7638 3.95015C10.7638 4.11259 10.7638 4.27025 10.7638 4.42313C10.7734 4.57601 10.7877 4.705 10.8068 4.81011H10.8211C11.0409 4.82922 11.2798 4.84355 11.5378 4.85311C11.7958 4.86266 12.0394 4.84833 12.2687 4.81011C12.4503 4.77189 12.5888 4.68112 12.6844 4.53779C12.7895 4.38491 12.8516 4.22247 12.8707 4.05048C12.8898 3.86893 12.8707 3.69216 12.8134 3.52017C12.7561 3.33862 12.6605 3.1953 12.5267 3.09019C12.3165 2.89909 12.049 2.81309 11.7241 2.8322Z" fill="#F4C66B"/>
<path d="M6.89343 2.63183C7.1132 3.01404 7.23741 3.47746 7.26608 4.0221V4.03643C7.26608 4.10332 7.26608 4.17021 7.26608 4.23709C7.26608 4.29442 7.2613 4.35175 7.25174 4.40908C7.19441 4.86773 7.04153 5.28815 6.7931 5.67036C6.55422 6.05256 6.25324 6.37744 5.89014 6.64498C5.52705 6.91252 5.12573 7.1084 4.6862 7.23262C4.24666 7.34728 3.79757 7.36639 3.33893 7.28995C3.34848 7.42372 3.35326 7.55749 3.35326 7.69126C3.35326 7.81548 3.35326 8.00181 3.35326 8.25024C3.35326 8.48912 3.35326 8.81399 3.35326 9.22486C3.36281 9.63573 3.37715 10.1899 3.39626 10.8874V10.9018C3.3867 10.9018 3.37715 10.9066 3.36759 10.9161C3.36759 10.9161 3.36281 10.9161 3.35326 10.9161C3.21949 10.9543 3.0475 10.983 2.83728 11.0021C2.63663 11.0117 2.42164 11.0212 2.19231 11.0308C1.97255 11.0308 1.75278 11.026 1.53301 11.0164C1.31324 11.0069 1.12214 10.9926 0.959704 10.9734C0.931038 10.2759 0.916706 9.52107 0.916706 8.70888C0.916706 7.88714 0.916706 7.04629 0.916706 6.18633C0.916706 5.32637 0.911928 4.46164 0.902373 3.59212C0.902373 2.72261 0.88804 1.89131 0.859375 1.09824C1.25113 0.993131 1.67634 0.91669 2.13498 0.868914C2.60318 0.821139 3.06661 0.816361 3.52525 0.854582C3.99345 0.892802 4.44732 0.978799 4.88685 1.11257C5.32639 1.23679 5.71337 1.42789 6.0478 1.68588C6.39178 1.93431 6.67366 2.24963 6.89343 2.63183ZM5.04451 3.70678C4.97763 3.59212 4.88208 3.49657 4.75786 3.42013C4.51898 3.22903 4.24188 3.10959 3.92657 3.06181C3.61125 3.00448 3.30071 3.01404 2.99494 3.09048C2.97583 3.09048 2.9615 3.09526 2.95194 3.10481C2.9615 3.2768 2.9615 3.45835 2.95194 3.64945C2.95194 3.84055 2.95194 4.03166 2.95194 4.22276C2.9615 4.41386 2.97105 4.60019 2.98061 4.78173C2.99972 4.95372 3.03316 5.11138 3.08094 5.25471H3.12394C3.27682 5.24516 3.43926 5.24038 3.61125 5.24038C3.78324 5.23082 3.95045 5.21649 4.11289 5.19738C4.28488 5.17827 4.44732 5.14483 4.6002 5.09705C4.76264 5.03972 4.90119 4.95372 5.01585 4.83906C5.09229 4.73396 5.14484 4.61452 5.17351 4.48075C5.21173 4.34698 5.21651 4.2132 5.18784 4.07943C5.16873 3.94566 5.12095 3.82144 5.04451 3.70678Z" fill="#F4C66B"/>
</svg>
