<svg width="49" height="49" viewBox="0 0 49 49" fill="none" xmlns="http://www.w3.org/2000/svg">
<path d="M1.30753 32.4284C1.82042 31.9134 2.36392 31.4229 2.8414 30.8827C3.20441 30.4289 3.54384 29.9566 3.85832 29.4679C3.31384 29.2233 2.77511 28.9574 2.21856 28.7429C1.98402 28.6547 1.67785 28.7422 1.46422 28.6303C1.11447 28.4176 0.781044 28.1791 0.466717 27.9168C0.692367 27.5889 0.949836 27.284 1.23539 27.0066C1.46734 26.8117 1.86106 26.8091 2.09984 26.6177C2.50555 26.2621 2.89174 25.8849 3.25673 25.4877C2.87121 25.1171 2.45848 24.7758 2.02197 24.4669C1.64975 24.2368 1.14991 24.2105 0.783237 23.9764C0.509258 23.7824 0.321313 23.4896 0.259045 23.1597C0.236256 23.0062 0.59985 22.7236 0.843832 22.6092C1.70166 22.1996 2.5836 21.8405 3.45689 21.4579C2.75805 20.8155 2.03828 20.197 1.36942 19.52C1.15101 19.2967 0.883183 18.8543 0.965367 18.6581C1.06186 18.5091 1.1881 18.3816 1.33619 18.2837C1.48427 18.1858 1.65099 18.1196 1.8259 18.0891C4.987 17.4435 4.98199 17.46 2.98492 14.8946C2.83499 14.6893 2.71286 14.2426 2.83076 14.1011C3.05053 13.843 3.36001 13.6777 3.69681 13.6387C4.63968 13.5668 5.5931 13.5851 6.54012 13.5655L5.15133 10.8196C5.09504 10.7076 5.06018 10.5842 4.81009 9.93308C5.78716 10.0362 6.50865 10.1387 7.23634 10.1858C7.81778 10.2247 8.39882 10.1874 8.99436 10.1991C8.89977 9.63863 8.82311 9.07358 8.70783 8.51972C8.56421 7.81641 8.38755 7.12025 8.22324 6.42355L8.74457 6.21717C9.32444 6.59077 9.92977 6.92331 10.5561 7.21232C11.0237 7.39825 11.752 7.61497 12.0394 7.37952C12.3268 7.14406 12.4597 6.41746 12.489 5.89841C12.5013 5.12242 12.4712 4.34634 12.3989 3.57363C13.122 3.98129 13.827 4.41071 14.5642 4.79106C14.928 4.98049 15.5964 5.31326 15.6616 5.21034C15.9794 4.79322 16.1992 4.30991 16.3047 3.79626C16.4859 2.94935 15.546 1.64509 17.3478 1.45631L19.5764 4.50761C20.0034 3.34502 20.2304 2.56669 20.5332 1.82232C20.7525 1.349 20.9959 0.887252 21.2625 0.438893C21.613 0.808164 21.9885 1.15921 22.3086 1.55077C22.4929 1.8032 22.5793 2.14851 22.7901 2.3731C23.0971 2.7061 23.4459 3.10214 23.8459 3.20134C24.0301 3.24971 24.4083 2.68424 24.6364 2.35597C25.1786 1.58989 25.6854 0.798619 26.2078 0.017181L27.3701 2.5287C27.8143 3.48041 28.3707 3.64823 29.0411 2.73744C29.1525 2.51209 29.2768 2.29345 29.4136 2.08259C29.8682 1.61015 30.3588 1.17528 30.8344 0.725787C31.046 1.32415 31.2521 1.92657 31.4712 2.52365C31.6904 3.12074 31.9192 3.71931 32.1515 4.31107C32.6313 3.96057 33.1315 3.6378 33.6154 3.29284C34.1702 2.88764 34.7527 2.46217 35.3242 2.04481L35.9997 2.52124C35.7558 3.17793 35.5697 3.85469 35.4436 4.54378C35.3827 5.01364 35.6331 5.53692 35.7381 6.03018C36.2549 5.9296 36.7599 5.77599 37.2451 5.57178C37.8047 5.27794 38.2857 4.84156 39.3703 4.04939C39.2721 5.18454 39.2088 5.84331 39.1639 6.50988C39.119 7.17645 39.0948 7.78969 39.0612 8.43098C39.6318 8.35027 40.2017 8.27435 40.7717 8.18126C41.3418 8.08817 42.0161 7.95725 42.647 7.83677L42.1235 9.83979C41.9915 10.3502 41.8611 10.8609 41.7324 11.3718C42.3023 11.4532 42.8703 11.5786 43.4416 11.6037C44.0932 11.6339 44.7487 11.5763 45.403 11.5578C45.1005 12.1743 44.7774 12.7804 44.5022 13.411C44.2722 13.9406 44.0947 14.4955 43.8968 15.0399C44.4133 15.1647 44.9071 15.3399 45.424 15.4303C46.1534 15.5612 46.8918 15.6344 47.9 15.7743C47.4915 16.3449 47.4331 16.4513 47.3537 16.5348C46.6314 17.2581 45.905 17.9758 45.1807 18.6963L48.8497 20.3127C48.184 20.7989 47.5549 21.2073 46.9801 21.6782C46.5518 22.0833 46.1461 22.5117 45.7649 22.9614C46.1792 23.2806 46.6118 23.5754 47.0605 23.8442C47.4509 24.0525 48.0996 24.038 48.2677 24.3322C48.4714 24.681 48.291 25.2552 48.2513 25.7308C48.2481 25.7672 48.0016 25.7558 47.8868 25.8141C47.109 26.1993 46.3337 26.5997 45.5599 26.9904C46.1707 27.5355 46.8016 28.0615 47.3887 28.6323C47.6627 28.9336 47.9134 29.2554 48.1384 29.5948C47.7603 29.8436 47.3615 30.0594 46.9465 30.24C46.6628 30.3408 46.2842 30.1835 45.9998 30.2891C45.3951 30.5096 44.8242 30.8287 44.2402 31.1064C44.5885 31.6474 44.95 32.1831 45.2873 32.7322C45.6245 33.2813 45.8932 33.7657 46.1958 34.2848C45.6401 34.3801 45.0865 34.4782 44.5296 34.566C43.8391 34.6747 43.146 34.7683 42.4535 34.8743C42.6918 35.4743 42.9398 36.0759 43.165 36.6813C43.3651 37.2115 43.5465 37.7511 43.7363 38.2846C43.1554 38.258 42.5737 38.2362 41.9943 38.2C41.3489 38.1609 40.7086 38.1054 40.0648 38.0567C40.1529 38.6899 40.2363 39.3224 40.33 39.9515C40.4237 40.5807 40.5368 41.1957 40.6369 41.816C40.025 41.6248 39.424 41.3959 38.7999 41.252C38.1758 41.108 37.467 41.0345 36.7971 40.9325C36.7322 41.5542 36.6322 42.1802 36.6132 42.8066C36.5943 43.4329 36.6553 44.0988 36.6828 44.7422C36.0698 44.4328 35.4582 44.1138 34.8389 43.8133C34.3138 43.5545 33.7761 43.3134 33.242 43.0655C33.083 43.6282 32.8871 44.1754 32.7747 44.7552C32.6622 45.335 32.5641 46.0277 32.4654 46.6613C31.9175 46.249 31.3787 45.8258 30.8238 45.4272C30.3506 45.088 29.8606 44.7781 29.3775 44.4545C29.129 44.9296 28.8599 45.394 28.6359 45.8852C28.3392 46.5273 28.0759 47.1918 27.8017 47.8472C27.3566 47.296 26.9233 46.7319 26.4664 46.1937C26.1191 45.788 25.7377 45.4115 25.3702 45.0248C24.9543 45.4222 24.4224 45.7597 24.1373 46.2487C23.81 46.9319 23.5415 47.6417 23.3347 48.3705C23.1436 48.4292 22.9526 48.4879 22.7623 48.5418C22.4453 47.7992 22.1602 47.0419 21.8031 46.3201C21.5498 45.8768 21.2681 45.4502 20.9598 45.0432C20.5452 45.3399 20.1513 45.6646 19.7808 46.0148C19.5293 46.2879 19.453 46.7307 19.208 46.9777C18.8915 47.2262 18.5468 47.4365 18.1811 47.6044C17.969 47.2757 17.7827 46.9311 17.6239 46.5736C17.5437 46.3472 17.6704 46.0547 17.6123 45.8122C17.4254 45.2127 17.1765 44.6331 16.9558 44.0456C16.4703 44.3535 15.982 44.6633 15.5061 44.9727C14.9588 45.3299 14.4183 45.6906 13.873 46.0506C13.7918 45.357 13.6904 44.6824 13.583 43.9995C13.4914 43.4198 13.3791 42.8467 13.2723 42.2696C12.7828 42.4613 12.2599 42.6306 11.8042 42.857C11.4674 43.0307 11.2115 43.3793 10.8656 43.5171C10.7114 43.5884 10.5444 43.6277 10.3746 43.6325C10.2048 43.6373 10.0359 43.6076 9.87791 43.5451C9.7713 43.4164 9.69324 43.2664 9.64885 43.1053C9.60447 42.9441 9.59477 42.7754 9.62042 42.6102C9.65326 42.2417 9.94425 41.8888 9.98114 41.5258C10.0286 40.9472 10.0461 40.3665 10.0334 39.7861C9.51967 39.8806 8.99751 39.9344 8.48813 40.064C8.06131 40.1843 7.66987 40.4405 7.23975 40.5504C6.97018 40.624 6.48355 40.6391 6.41104 40.5049C6.2706 40.1868 6.23213 39.833 6.3009 39.4921C6.33883 39.2645 6.62006 39.0846 6.71025 38.8529C6.9612 38.1889 7.17523 37.5094 7.40293 36.8369C6.64376 36.8341 5.88235 36.8458 5.12266 36.8307C4.60339 36.8186 4.08659 36.7749 3.56551 36.7429C3.71805 36.239 3.90331 35.7456 4.12012 35.2659C4.26227 35.0004 4.67492 34.8607 4.80726 34.6109C5.06114 34.2116 5.19639 33.7485 5.19725 33.2754C5.17084 33.082 4.47819 32.8733 4.08266 32.8559C3.32348 32.8528 2.56464 32.8888 1.80917 32.9638L1.30753 32.4284ZM39.6309 13.8467C38.3872 12.5517 37.5657 11.5608 36.6089 10.7284C32.9758 7.57131 32.4076 7.79495 30.7206 12.3109C29.9048 14.5019 29.1663 16.4493 31.7347 17.9508C32.1776 18.228 32.4969 18.6651 32.6262 19.1713C33.3179 23.0304 36.277 22.1665 38.7996 22.1957C39.2399 22.1677 39.6772 22.1043 40.1074 22.0061C42.1541 21.681 42.5721 21.1758 41.8867 19.2007C41.2013 17.2257 40.2734 15.3554 39.6253 13.8508L39.6309 13.8467ZM34.8076 38.4765C38.1626 35.8601 40.4619 32.794 41.546 28.897C42.0795 26.9718 41.5495 26.2869 39.5482 26.2258C38.0146 26.1762 36.4861 26.1101 34.9485 26.2122C34.3961 26.3189 33.9018 26.624 33.5587 27.0699C32.2832 28.6141 31.0661 30.2091 29.8716 31.8175C29.5704 32.2204 29.1561 32.8122 29.2556 33.1989C29.7139 34.9911 30.3046 36.7375 30.9236 38.4761C31.3615 39.7046 32.2698 39.9174 33.3758 39.3351C33.9354 39.0412 34.4655 38.6838 34.802 38.4806L34.8076 38.4765ZM15.1513 19.8925C14.0976 19.1138 12.4848 17.8841 10.8252 16.7185C9.85885 16.0418 8.8856 15.9615 8.29594 17.2216C6.20485 21.6967 5.80957 26.2689 7.70809 30.9183C8.24111 32.2305 9.13388 32.4802 10.2812 31.7273C11.829 30.7074 13.3735 29.6771 14.8484 28.5573C15.0361 28.3789 15.1855 28.164 15.2873 27.9258C15.389 27.6876 15.4411 27.4312 15.4403 27.1722C15.411 24.9306 15.2739 22.687 15.1513 19.8925ZM17.2933 31.6719C16.1449 32.5106 14.368 33.7702 12.6276 35.0796C11.4316 35.9872 11.4629 36.9385 12.6384 37.9132C16.3238 40.9555 20.5304 42.2771 25.2894 41.8043C26.71 41.6642 27.3866 40.9191 26.9737 39.4511C26.4897 37.7926 26.0002 36.1382 25.4203 34.5114C25.3216 34.3077 25.1827 34.126 25.0119 33.9773C24.8412 33.8286 24.6422 33.716 24.4268 33.6462C22.2617 33.0114 20.0745 32.4395 17.2933 31.6719ZM25.9964 13.8856C26.4051 12.698 27.0505 10.891 27.6473 9.0641C28.1297 7.59304 27.6498 6.6972 26.0211 6.56388C21.2565 6.17303 17.0856 7.62004 13.3799 10.5776C12.0945 11.6015 12.1968 12.6327 13.3706 13.5875C14.7023 14.6774 16.0879 15.6998 17.5222 16.6508C17.8724 16.8799 18.5569 16.8096 18.998 16.6448C21.1552 15.8476 23.2859 14.9677 25.9936 13.8876L25.9964 13.8856ZM27.5464 28.7389C30.3149 26.7636 30.9784 23.4205 29.1187 20.8569C27.259 18.2933 24.0223 17.7988 21.3333 19.7373C18.6444 21.6758 18.0446 24.9255 19.8609 27.4996C20.2832 28.0863 20.8172 28.5839 21.4322 28.9639C22.0471 29.344 22.731 29.5989 23.4447 29.7142C24.1584 29.8295 24.8878 29.8029 25.5911 29.6359C26.2945 29.4689 26.958 29.1647 27.5436 28.7409L27.5464 28.7389Z" fill="#F8E2A5"/>
</svg>
