<svg width="54" height="52" viewBox="0 0 54 52" fill="none" xmlns="http://www.w3.org/2000/svg">
<path d="M37.0142 48.3888C37.1403 46.6028 37.8468 46.1895 39.311 47.0629C39.693 47.2178 40.0953 47.3143 40.5045 47.3492C40.5491 46.9512 40.5871 46.5493 40.6413 46.1534C40.6954 45.7575 40.6517 44.9649 40.8906 44.8471C41.2964 44.6457 41.9037 44.7862 42.4118 44.8749C42.8174 44.9741 43.2137 45.1094 43.596 45.2792C43.7472 44.9696 43.9253 44.7834 43.8966 44.6321C43.4872 42.2485 43.4793 42.2868 45.7088 42.3771C45.9813 42.3867 46.5779 41.6593 46.5116 41.3996C45.9324 39.114 45.8969 39.1287 48.2193 39.0467C48.5733 39.0082 48.9246 38.9489 49.2714 38.8693C49.0292 38.3134 48.8269 37.939 48.6946 37.5398C48.5305 37.0411 48.1732 36.39 48.3551 36.0521C48.537 35.7142 49.2819 35.7196 49.7717 35.5467C50.1368 35.4215 50.4879 35.2557 50.8455 35.1063C50.6479 34.7579 50.4369 34.414 50.2584 34.0572C50.0253 33.5784 49.5842 33.0191 49.6785 32.622C49.7729 32.2248 50.5117 32.1389 50.9513 31.8824C51.3909 31.6259 51.7636 31.3548 52.3571 30.9694C51.677 30.5529 51.2266 30.4017 50.9139 30.1031C50.0679 29.3051 49.9825 28.6059 51.2563 28.1518C51.6836 27.9655 52.0953 27.7452 52.4874 27.4932C52.1283 27.1169 51.8291 26.6437 51.3986 26.3844C50.1383 25.6232 50.1861 25.0283 51.4252 24.3189C51.9684 24.0075 52.384 23.4681 53.0622 22.8411C52.7611 22.8122 52.4624 22.7594 52.1691 22.6831C51.5359 22.4019 50.9115 22.1026 50.2813 21.8071C50.6835 21.2597 51.0981 20.7251 51.4756 20.1648C51.744 19.7708 51.9638 19.3461 52.103 19.1064L49.6422 17.8023C50.0256 17.0682 50.4138 16.3352 50.9221 15.3582C50.5011 15.2461 50.0161 15.1174 49.5588 14.9998C49.1015 14.8822 48.3695 14.802 48.2917 14.5498C48.1597 14.1132 48.4234 13.548 48.5518 13.0583C48.6615 12.6595 48.8293 12.281 48.9733 11.8973C48.5311 11.7544 48.0729 11.67 47.6103 11.6464C46.1541 11.7629 45.7898 11.3155 46.2707 9.97484C46.3771 9.52338 46.4339 9.06104 46.4402 8.59605C45.9578 8.58568 45.4761 8.62093 45.0013 8.70133C43.6382 9.05587 43.1068 8.71691 43.5715 7.23764C43.6655 6.77566 43.6943 6.30196 43.657 5.83046C42.4088 6.01502 41.419 6.16858 40.4571 6.30822L40.5628 3.37454C40.1181 3.53485 39.6158 3.72009 39.1145 3.90054C38.6133 4.08099 38.0047 4.28549 37.4431 4.48025C37.2555 3.91385 37.0505 3.35868 36.8793 2.77335C36.8011 2.35388 36.745 1.93078 36.7114 1.50584C36.0892 1.90996 35.7241 2.18026 35.3344 2.40015C34.8892 2.6354 34.401 3.00633 33.9605 2.96492C33.6967 2.9372 33.487 2.2359 33.2581 1.83309C33.0293 1.43027 32.809 1.03433 32.584 0.637353C32.2358 0.946383 31.8971 1.26998 31.5415 1.55486C31.2291 1.79918 30.8333 2.24285 30.5764 2.18163C30.1888 2.08926 29.8521 1.65285 29.553 1.31222C29.2103 0.917003 28.9359 0.469178 28.6297 0.0419385C28.3379 0.477636 28.0187 0.894043 27.6741 1.28866C27.4056 1.56258 27.0237 1.90176 26.6987 1.89314C26.3736 1.88452 26.0318 1.497 25.7495 1.23258C25.376 0.865647 25.0574 0.438188 24.7157 0.0381868C24.4584 0.499682 24.1582 0.939281 23.9466 1.4208C23.3838 2.69848 22.494 2.77886 21.5907 1.67805C21.2245 1.28691 20.8357 0.917786 20.4263 0.572645C20.2404 0.932894 20.0875 1.3097 19.9696 1.69845C19.5793 3.82188 19.3091 3.91032 17.6235 2.50071C17.4124 2.3269 16.8962 2.14386 16.8575 2.21044C16.5993 2.5324 16.4253 2.91464 16.3512 3.32288C16.182 4.95439 15.7145 5.23729 14.4132 4.45713C14.0501 4.27864 13.6708 4.13612 13.2809 4.03163C13.2139 4.48976 13.0253 4.9688 13.0943 5.39666C13.3357 6.81537 12.7874 7.17565 11.5154 6.74962C10.9944 6.57803 10.4482 6.45596 9.72077 6.2567C9.59904 6.75038 9.43873 6.99546 9.48034 7.21721C9.89377 9.41152 9.90356 9.37614 7.68282 9.26775C7.44574 9.25588 6.8997 10.0044 6.97261 10.268C7.60855 12.5085 7.63349 12.4965 5.48824 12.3971C5.21099 12.3864 4.72269 12.4797 4.6874 12.6146C4.59757 12.9565 4.63998 13.3214 4.80614 13.6362C5.96284 15.4929 5.89776 15.6512 3.78599 15.8494C3.50562 15.878 3.02194 15.9973 3.00871 16.122C2.96596 16.4666 3.04787 16.8165 3.23956 17.1081C4.6782 18.989 4.59058 19.2325 2.30551 19.7629C1.98086 19.8369 1.50988 20.0641 1.46432 20.3092C1.41877 20.5544 1.70195 20.9841 1.96253 21.2088C3.53262 22.5731 3.50096 22.7388 1.45469 23.6117C1.3238 23.6581 1.20418 23.7314 1.10334 23.8268C1.00251 23.9223 0.922652 24.0379 0.868775 24.1664C0.865174 24.3127 0.894805 24.4582 0.955424 24.592C1.01604 24.7257 1.10605 24.8442 1.21861 24.9384C3.10754 26.39 3.10861 26.3727 1.20961 27.6931C1.031 27.8091 0.963228 28.0895 0.850078 28.2873C3.38725 30.056 3.38725 30.056 1.33958 32.1944C2.28657 32.5993 3.78046 32.8688 3.85579 33.3505C3.99952 34.2025 3.27408 35.1919 2.90951 36.1253C5.58732 36.8365 5.58732 36.8365 4.68953 39.6544C5.64124 39.7701 6.56719 39.8778 7.49313 39.9854L7.05082 42.9054C9.94372 42.7307 9.94373 42.7307 9.92587 45.6736C10.8621 45.5134 12.0909 44.9268 12.6268 45.3168C13.1627 45.7067 13.0574 47.0646 13.2606 48.1847C13.6423 47.9442 14.0412 47.7323 14.4543 47.5505C14.9459 47.3804 15.5771 47.0783 15.9441 47.2587C16.3111 47.4391 16.2883 48.1671 16.4583 48.6495C16.5935 49.0344 16.7508 49.409 16.8995 49.7893C17.2699 49.5902 17.6346 49.3823 18.0145 49.1978C18.4768 48.9763 18.9398 48.6549 19.4219 48.6279C19.6161 48.6179 19.8856 49.2472 20.064 49.6164C20.301 50.0761 20.4854 50.5617 20.6918 51.0372C21.0342 50.6401 21.423 50.286 21.8499 49.9823C22.4285 49.709 23.0289 49.484 23.6453 49.3097C23.7629 49.7557 23.8911 50.199 24.0011 50.6459C24.0709 50.9363 24.113 51.2282 24.212 51.7527C24.7694 51.4695 25.4356 51.3727 25.5573 51.0366C26.401 48.9048 27.2193 48.6387 28.3112 50.9065C28.398 51.0906 29.3022 51.1709 29.4304 51.0088C30.9057 49.0929 30.881 49.08 32.5099 50.6673C32.6116 50.7671 32.8653 50.7101 33.1415 50.738C33.2513 50.5229 33.3359 50.2955 33.3935 50.0602C33.6655 47.9059 33.8937 47.8158 35.6651 49.0991C35.9316 49.295 36.4126 49.4428 36.6572 49.3338C36.9017 49.2247 36.9919 48.7266 37.0142 48.3888ZM11.5173 16.326C10.8525 15.0122 11.0341 13.8287 12.379 13.0174C13.4197 12.3872 15.8801 12.6882 15.9719 13.5863C16.0705 14.7661 15.658 16.0166 15.4705 17.2289C13.7311 17.8237 12.1075 17.4933 11.5173 16.326ZM23.2445 10.1401C22.6341 8.84078 22.7575 7.62454 24.1016 6.79306C25.2152 6.12375 27.558 6.43896 27.6197 7.41056C27.6613 8.66363 27.2838 9.88986 26.5474 10.8932C25.7791 11.8482 23.7793 11.2853 23.2445 10.1401ZM39.9253 11.26C40.6696 12.5511 40.5166 13.7534 39.2748 14.5848C38.033 15.4161 36.8071 15.1052 35.9495 13.8794C35.0454 12.6008 35.3607 11.3014 36.54 10.5189C37.7193 9.73645 38.9743 9.97865 39.9234 11.2571L39.9253 11.26ZM7.5636 28.8113C6.79508 27.5649 7.17815 26.1303 8.49353 25.3051C8.77125 25.1127 9.08726 24.9825 9.42047 24.9231C9.75368 24.8638 10.0965 24.8766 10.4259 24.9608C10.7554 25.045 11.064 25.1986 11.3312 25.4114C11.5984 25.6242 11.818 25.8913 11.9754 26.1949C12.7773 27.6062 12.1682 28.6486 11.2448 29.4846C9.82867 30.3628 8.32177 30.0355 7.56172 28.8084L7.5636 28.8113ZM13.8259 40.5286C12.7962 38.9999 13.1059 37.6793 14.4541 36.8037C15.8023 35.9281 17.1584 36.2125 17.9451 37.4678C18.7317 38.7232 18.3605 40.1003 16.9936 40.9093C15.7149 41.6776 14.5655 41.516 13.824 40.5257L13.8259 40.5286ZM19.168 30.6161C16.412 26.278 17.6466 21.1849 22.1607 18.2656C23.123 17.6258 24.2047 17.1866 25.3425 16.9736C26.4804 16.7606 27.6516 16.7781 28.7877 17.025C29.9238 17.272 31.0021 17.7435 31.9596 18.412C32.917 19.0804 33.7345 19.9325 34.3641 20.9183C34.9938 21.9041 35.423 23.004 35.6268 24.1537C35.8305 25.3033 35.8047 26.4797 35.5508 27.6141C35.297 28.7485 34.8201 29.8181 34.1481 30.7606C33.4762 31.703 32.6226 32.4993 31.6372 33.103C27.2122 36.0017 21.9183 34.9455 19.168 30.6161ZM41.9265 25.5166C41.1024 24.5758 41.4597 22.8429 42.5553 22.1396C43.8113 21.3239 44.9967 21.5283 45.931 22.721C46.1213 22.9809 46.2567 23.2769 46.3286 23.5905C46.4005 23.904 46.4076 24.2284 46.3492 24.5433C46.2908 24.8583 46.1683 25.157 45.9894 25.4209C45.8104 25.6847 45.5788 25.9081 45.3091 26.077C44.019 26.9728 42.8587 26.5862 41.9265 25.5166ZM26.2344 44.0003C25.3515 42.6913 25.6493 41.4282 26.7944 40.6182C27.9394 39.8082 29.2547 40.0486 30.1823 41.2498C30.9875 42.2941 30.6741 43.899 29.3899 44.7786C28.31 45.2727 27.1323 45.3451 26.2305 44.007L26.2344 44.0003ZM37.7761 37.8064C36.9768 36.5757 37.2597 35.4094 38.4076 34.61C39.6476 33.7508 40.8502 33.9565 41.7409 35.2521C42.6315 36.5478 42.194 37.6653 41.2696 38.5186C39.7388 39.3842 38.5951 39.0863 37.7636 37.8186L37.7761 37.8064Z" fill="#F8E2A5"/>
<path d="M33.7544 21.4413C32.6045 19.5774 30.7735 18.2373 28.66 17.7128C26.5465 17.1883 24.3217 17.5219 22.47 18.641C18.4093 21.0917 17.11 26.2932 19.5835 30.2343C22.0845 34.2239 26.9948 35.3012 31.2405 32.7885C34.9918 30.5677 36.1488 25.3426 33.7544 21.4413ZM21.6913 29.1597C19.8924 26.497 20.7309 22.7806 23.562 20.8963C24.197 20.4678 24.9123 20.1724 25.6658 20.0274C26.4193 19.8824 27.1957 19.8908 27.9494 20.052C28.703 20.2132 29.4185 20.5241 30.0539 20.9662C30.6892 21.4084 31.2315 21.9729 31.6487 22.6265C32.0699 23.2573 32.3628 23.9647 32.5106 24.7073C32.6585 25.45 32.6581 26.2131 32.5097 26.9523C32.3612 27.6916 32.0676 28.3921 31.646 29.0132C31.2243 29.6342 30.683 30.1634 30.0535 30.5699C27.2222 32.4792 23.5121 31.8497 21.6913 29.1597Z" fill="#F8E2A5"/>
</svg>
