<svg width="48" height="49" viewBox="0 0 48 49" fill="none" xmlns="http://www.w3.org/2000/svg">
<path d="M23.5677 45.9825C23.0092 46.4716 22.4446 46.9523 21.8943 47.4525C21.5909 47.7254 21.3128 48.0268 21.0244 48.3143C20.7255 47.9516 20.311 47.6349 20.1483 47.2196C19.4566 45.4562 19.3514 45.4347 17.9555 46.8474C17.6205 47.0983 17.2508 47.2992 16.8579 47.444C16.6685 47.0739 16.3248 46.714 16.3077 46.3291C16.201 44.4802 15.5062 44.3511 14.1866 45.4602C13.8918 45.7097 13.4277 45.7624 13.0412 45.9038C12.9214 45.4657 12.7796 45.0267 12.6882 44.5808C12.5968 44.1349 12.5439 43.6309 12.4741 43.1564C11.9624 43.278 11.452 43.4073 10.9378 43.5137C10.4849 43.6052 10.029 43.6691 9.57563 43.7481C9.52771 43.2918 9.47016 42.834 9.42908 42.3812C9.388 41.9284 9.38846 41.3342 9.36815 40.8107C8.88278 40.8576 8.39815 40.8997 7.91481 40.9494C7.43148 40.9991 6.9674 41.0518 6.49572 41.1058C6.52832 40.6547 6.43414 40.1467 6.58407 39.7339C7.23735 37.975 7.13745 37.8558 5.1484 38.0482C4.75467 38.0922 4.15996 38.0011 4.00365 37.7521C3.84735 37.5031 4.02253 36.9266 4.21779 36.5874C5.21239 34.8527 5.15967 34.763 3.09377 34.6228C2.71117 34.5946 2.08855 34.4128 2.02794 34.1665C1.93165 33.8481 2.17714 33.327 2.42921 33.019C3.701 31.5005 3.65423 31.3723 1.67215 30.8803C1.31364 30.7918 1.02206 30.4451 0.699522 30.2193C0.946968 29.8933 1.19163 29.5693 1.44037 29.2509C1.76949 28.8268 2.10066 28.4055 2.42903 27.9863C1.99177 27.6733 1.55505 27.3728 1.11927 27.0502C0.76288 26.7722 0.437977 26.4498 0.0977017 26.1472C0.35284 25.8404 0.643506 25.5649 0.96362 25.3268C2.64666 24.3538 2.644 24.0994 1.09603 23.0939C0.728889 22.8536 0.507524 22.3873 0.220956 22.0241C0.613488 21.7801 1.0088 21.5341 1.38893 21.2906C1.76906 21.0472 2.45128 20.8266 2.49325 20.5225C2.53522 20.2184 2.09064 19.6972 1.82371 19.3026C1.55677 18.908 1.27225 18.5475 0.976053 18.1828C1.4293 17.9287 1.86207 17.5357 2.34172 17.446C3.89303 17.1674 4.76191 16.7592 3.26749 15.2147C3.00735 14.9518 3.00832 14.4341 2.89022 14.0333C3.29232 13.9191 3.70836 13.6665 4.09281 13.7147C5.998 13.9381 6.10902 13.1862 5.26965 11.7571C5.11701 11.3697 5.02045 10.9626 4.9829 10.5481C5.44269 10.4509 5.91317 10.4131 6.3829 10.4356C8.0365 10.7402 8.22708 10.5113 7.77061 8.83672C7.65344 8.41388 7.79878 7.91894 7.82601 7.45472C8.2395 7.44658 8.65258 7.48924 9.05599 7.58174C10.6919 8.17704 11.2287 7.7807 11.1002 6.08867C11.1252 5.62892 11.2119 5.17478 11.3577 4.73847C11.7666 4.79969 12.1667 4.91069 12.5489 5.06898C14.2191 5.9853 14.3617 5.92391 14.4982 3.99988C14.5354 3.50271 14.7991 3.02392 15.043 2.27326C15.6325 2.89372 15.9442 3.28553 16.3167 3.60306C17.1939 4.35513 17.8802 4.50753 18.1617 3.05015C18.2663 2.49949 18.639 2.00087 18.8921 1.4785C19.3302 1.79149 19.7395 2.1431 20.1151 2.52911C20.9177 3.4938 21.4615 3.6435 21.9693 2.2686C22.1907 1.67961 22.76 1.21687 23.17 0.699477C23.5389 1.15207 23.9411 1.58032 24.2712 2.06131C25.0788 3.24873 25.633 2.89952 26.2006 1.83979C26.4715 1.45627 26.7909 1.10954 27.1509 0.808226C27.4561 1.22614 27.7613 1.64406 28.0706 2.06755C28.38 2.49103 28.5515 3.10489 28.8724 3.16527C29.1933 3.22565 29.6541 2.73104 30.0468 2.46983C30.4396 2.20862 30.8441 1.93448 31.2404 1.66643C31.4459 2.07604 31.7672 2.46937 31.8388 2.89984C32.1455 4.73088 32.4087 4.84626 33.9354 3.62434C34.6665 3.03912 35.2947 2.65717 35.4937 3.95591C35.8866 6.50576 35.8487 6.51212 38.4805 4.88468C38.5677 5.64554 38.7561 6.22999 38.6709 6.76646C38.4065 8.41639 38.6693 8.69446 40.1501 8.24945C40.6483 8.16351 41.1554 8.13898 41.6599 8.1764C41.5856 8.65787 41.5447 9.115 41.4816 9.58836C41.4184 10.0617 41.358 10.533 41.2806 10.9869C41.7456 11.0404 42.23 11.0796 42.7026 11.1318C43.1751 11.184 43.7432 11.2561 44.2659 11.3187C44.171 11.7845 44.0234 12.2377 43.8258 12.6697C42.9863 14.0861 43.1343 14.3412 44.8962 14.5026C45.3068 14.592 45.705 14.7317 46.0817 14.9185C45.9156 15.356 45.872 15.9261 45.5672 16.2085C44.2404 17.4126 44.5808 17.9544 46.192 18.2302C46.6732 18.3059 47.1098 18.6237 47.8902 18.9808C47.4023 19.2833 46.938 19.6223 46.5014 19.9951C46.1905 20.3333 45.7299 20.8107 45.7924 21.1411C45.8548 21.4714 46.4655 21.7303 46.8474 22.0025C47.2294 22.2747 47.6122 22.5248 47.9936 22.7845C47.6423 23.1608 47.3639 23.6717 46.9282 23.8917C45.5985 24.6194 45.4768 25.2167 46.9082 25.9869C47.3224 26.2099 47.56 26.7627 47.8778 27.1628C47.4731 27.3901 47.063 27.6042 46.6712 27.8434C46.2794 28.0825 45.8837 28.363 45.489 28.6214C45.7617 28.9947 46.0323 29.3653 46.2668 29.7622C46.5014 30.1591 46.7964 30.6272 47.0622 31.0611C46.6689 31.2906 46.2533 31.4797 45.8218 31.6254C43.7476 32.0978 43.6661 32.3069 44.9204 33.8901C45.1463 34.1994 45.3698 34.7795 45.2299 35.0312C45.0901 35.2829 44.4971 35.4041 44.1071 35.4241C42.1264 35.4822 42.0098 35.6315 42.9511 37.486C43.3473 38.2733 43.4858 38.877 42.3458 38.8381C39.8054 38.7539 39.8071 38.7271 40.8148 41.7337C40.0263 41.6046 39.4064 41.6131 38.8695 41.4028C37.7896 40.974 37.2711 40.9638 37.2258 42.4239C37.1506 44.6535 37.0244 44.673 35.0286 43.6783C34.0972 43.2137 33.7256 43.4979 33.6446 44.4542C33.5888 45.1359 33.4917 45.8135 33.3713 46.8499C32.6883 46.2764 32.3961 46.0454 32.1186 45.7996C30.6625 44.5175 30.4178 44.6022 29.9831 46.4621C29.8484 46.8608 29.6711 47.2438 29.4545 47.6044C29.025 47.3985 28.6193 47.1461 28.2446 46.8518C27.5859 46.2007 27.0987 44.933 26.2398 46.731C25.9433 47.3748 25.2256 47.8092 24.7025 48.3409L23.5677 45.9825ZM14.1781 10.4543C13.9698 10.6064 13.7642 10.7565 13.5559 10.9087C11.4228 12.4667 11.4282 12.7832 13.5174 14.3548C15.2083 15.6319 16.8894 16.9247 18.6111 18.1623C18.9725 18.4238 19.5362 18.7 19.9113 18.6012C24.7173 17.3382 24.7148 17.323 26.3342 12.4958C26.6619 11.5216 26.9204 10.5168 27.3173 9.57325C28.0125 7.94182 27.3721 7.3158 25.7575 7.22193C21.5154 6.9537 17.6153 7.87111 14.1781 10.4543ZM31.2133 22.7448C34.1032 22.672 36.9718 22.5292 39.84 22.5492C41.5893 22.5532 41.7261 21.7142 41.3757 20.3423C40.4448 16.6944 38.6477 13.5808 35.7431 11.1436C32.468 8.40883 32.2096 8.35829 30.7183 12.1946C29.5214 15.2734 27.2587 18.5667 30.8246 21.717C31.0245 21.8915 31.038 22.2832 31.2092 22.7392L31.2133 22.7448ZM13.3659 29.7989C15.6301 28.6536 17.8678 27.1688 16.8916 23.7504C16.8431 23.585 17.0269 23.3525 16.9777 23.1919C16.7812 22.5963 16.6949 21.8134 16.2738 21.4759C14.3762 19.9566 12.3528 18.5976 10.4301 17.1138C9.37994 16.3 8.68109 16.4687 8.18671 17.6287C6.25329 22.2067 5.68223 26.8363 7.67945 31.5768C8.2168 32.8548 8.93527 33.0863 10.037 32.2388C11.0488 31.4315 12.0991 30.6943 13.36 29.7733L13.3659 29.7989ZM33.8032 38.8399C37.3083 36.4841 39.8464 32.9426 40.954 28.8619C41.3627 27.4739 40.9512 26.7704 39.45 26.7561C37.0177 26.7382 34.5854 26.6562 32.148 26.672C31.6629 26.6719 31.197 26.8591 30.8474 27.1947C27.9861 30.6773 27.9991 30.6892 29.3745 35.1789C29.5611 35.7902 29.781 36.3945 29.9704 37.0037C31.1242 40.6769 31.2086 40.705 33.7972 38.8143L33.8032 38.8399ZM15.6312 33.2328L15.5722 33.152C14.5862 33.8722 13.6002 34.5923 12.6142 35.3125C11.1643 36.3714 11.1881 36.9522 12.5563 38.1489C16.2336 41.376 20.6135 42.1418 25.2943 41.9144C26.6649 41.849 27.124 41.2531 26.6989 39.9187C25.9356 37.5325 25.247 35.126 24.4727 32.7479C24.3259 32.3451 24.0271 32.0156 23.6406 31.8304C19.8115 30.3548 19.8126 30.3796 16.2654 32.8123C16.0582 32.9252 15.8397 33.0634 15.6253 33.2072L15.6312 33.2328ZM22.0538 21.9837C20.4877 23.1575 20.1252 25.2679 21.2354 26.747C22.3456 28.2262 24.4549 28.4201 26.0492 27.2557C27.7324 26.0263 28.0837 23.924 26.8751 22.3801C25.7366 20.9088 23.6668 20.7458 22.0479 21.9581L22.0538 21.9837Z" fill="#F8E2A5"/>
</svg>
