<svg width="37" height="37" viewBox="0 0 37 37" fill="none" xmlns="http://www.w3.org/2000/svg">
<path d="M1.23242 11.7512C1.88253 11.5648 2.30421 11.4305 2.73197 11.3243C3.09004 11.2352 3.45488 11.1762 3.8174 11.1051C3.67709 10.7666 3.51973 10.4355 3.34594 10.113C3.11686 9.80067 2.86703 9.50412 2.59814 9.22535L3.9762 9.10416L5.08877 9.0052C4.98383 8.67473 4.86794 8.34398 4.78091 8.00905C4.69388 7.67413 4.63642 7.33695 4.56488 7.00281C4.87643 7.02871 5.18749 7.05913 5.50307 7.09005C5.88615 7.11554 6.26973 7.13649 6.65211 7.16007C6.58206 6.81234 6.50438 6.46745 6.44459 6.1181C6.3911 5.80335 6.36003 5.48464 6.31107 5.17039C6.64589 5.21808 6.97759 5.2691 7.31029 5.31106C7.76314 5.36069 8.20644 5.41386 8.65546 5.46491C8.63249 5.03893 8.59233 4.61932 8.60268 4.20708C8.62689 3.94526 8.67097 3.68566 8.73453 3.43052C8.96677 3.47198 9.19337 3.5405 9.40967 3.63467C9.63706 3.76775 9.79891 4.00547 10.0287 4.13331C10.5337 4.4178 10.9303 4.40353 10.8758 3.66337C10.8022 3.12783 10.8212 2.58363 10.932 2.05453C11.2839 2.28925 11.6291 2.53514 11.9888 2.74962C12.2499 2.90931 12.53 3.03808 12.7996 3.17944C12.9128 2.89855 13.0404 2.62106 13.138 2.33295C13.2628 1.97175 13.3615 1.59853 13.4727 1.23584C13.8511 1.47162 14.2352 1.70528 14.6061 1.95033C14.8603 2.11476 15.1073 2.2949 15.356 2.46789C15.5031 2.19621 15.6485 1.91426 15.7883 1.63444C15.9578 1.30014 16.1202 0.964141 16.2852 0.629344L17.1104 1.53829L17.6571 2.12889C17.8794 1.92146 18.0875 1.69929 18.2799 1.46389C18.5068 1.14963 18.6869 0.802737 18.8886 0.467383C19.118 0.816984 19.3335 1.15866 19.5751 1.48852C19.7526 1.73346 19.9648 1.95469 20.1632 2.18541C20.3712 2.00198 20.5932 1.83292 20.7827 1.63462C21.068 1.33134 21.3307 1.00817 21.6046 0.691723C21.7632 1.06749 21.9104 1.4475 22.0824 1.81831C22.2072 2.08496 22.3398 2.51379 22.5176 2.54793C22.7666 2.59264 23.1035 2.37018 23.3423 2.18187C23.5402 2.0239 23.6232 1.72596 23.806 1.53884C23.9401 1.40231 24.2351 1.21924 24.3155 1.27205C24.5057 1.41272 24.6397 1.6165 24.6934 1.84691C24.7486 2.09585 24.6303 2.38077 24.6785 2.63446C24.7268 2.88814 24.8379 3.17071 25.0107 3.25014C25.1835 3.32957 25.4729 3.17247 25.6588 3.04069C25.8446 2.90891 25.9944 2.62102 26.2039 2.46526C26.3625 2.3479 26.6902 2.21792 26.7739 2.29124C26.9427 2.46249 27.0431 2.68966 27.0559 2.92984C27.07 3.18528 26.906 3.45236 26.9221 3.7071C26.9326 3.94343 27.031 4.16733 27.1979 4.33493C27.3039 4.42171 27.6094 4.34337 27.776 4.25347C28.0375 4.1089 28.238 3.85223 28.5023 3.7153C28.594 3.66476 28.6956 3.63469 28.8001 3.62715C28.9045 3.61961 29.0094 3.63479 29.1074 3.67163C29.2334 3.75969 29.266 4.0474 29.2509 4.25288C29.2357 4.45836 29.0669 4.67725 29.0361 4.89936C29.0166 5.16933 29.0181 5.4404 29.0407 5.71012C29.3111 5.71805 29.5817 5.70293 29.8495 5.66494C30.0658 5.61532 30.2511 5.42941 30.4674 5.37978C30.7013 5.34931 30.9379 5.3448 31.1728 5.36635C31.1916 5.60513 31.1828 5.84529 31.1466 6.08207C31.0904 6.29405 30.886 6.46963 30.8324 6.68282C30.7788 6.89601 30.7152 7.25842 30.8357 7.39629C30.9563 7.53415 31.3042 7.48795 31.5406 7.46345C32.0692 7.40682 32.5959 7.30964 33.1218 7.22796C32.8994 7.66004 32.6541 8.0832 32.4598 8.5266C32.3547 8.78273 32.1962 9.15856 32.311 9.29855C32.441 9.4677 32.8235 9.45646 33.0989 9.51964C33.132 9.52694 33.1715 9.49276 33.2077 9.49673C33.6755 9.50462 34.1423 9.51362 34.608 9.52372C34.3399 9.8793 34.0442 10.219 33.8129 10.5979C33.6803 10.8698 33.5737 11.1537 33.4946 11.4456C33.7427 11.5673 34.0057 11.6562 34.2767 11.7101C34.5313 11.7288 34.7967 11.5654 35.0549 11.5763C35.2492 11.5848 35.5711 11.709 35.5977 11.8338C35.6131 11.9516 35.6043 12.0713 35.5719 12.1856C35.5395 12.3 35.4842 12.4065 35.4094 12.4988C35.2466 12.6872 34.9226 12.7332 34.7442 12.9144C34.5677 13.1346 34.4183 13.3752 34.299 13.6309C34.5573 13.7987 34.8292 13.9444 35.112 14.0665C35.2724 14.1244 35.4962 13.9895 35.6665 14.0329C35.9267 14.121 36.1793 14.2302 36.4217 14.3595C36.2699 14.622 36.0918 14.8685 35.8902 15.095C35.7274 15.2421 35.4382 15.2296 35.2752 15.3704C35.0677 15.5493 34.789 15.8175 34.8095 16.0315C34.8171 16.2046 35.1821 16.4041 35.4229 16.5148C35.862 16.7151 36.3256 16.8585 36.7792 17.0274C36.3466 17.32 35.908 17.6083 35.4808 17.9098C35.2818 18.053 35.1044 18.2251 34.9175 18.3833C35.1251 18.6176 35.3447 18.8409 35.5756 19.0522C35.8686 19.2978 36.1939 19.5076 36.5055 19.7334C36.1481 19.9417 35.7746 20.1473 35.4169 20.3666C35.1635 20.5212 34.925 20.6985 34.6756 20.8582C34.8765 21.0901 35.0668 21.3282 35.2785 21.5539C35.5334 21.8376 35.7971 22.1158 36.0558 22.3981C35.7004 22.5296 35.3339 22.637 34.9759 22.7673C34.6913 22.8727 34.407 22.9909 34.1271 23.1032C34.2877 23.4022 34.4414 23.706 34.6163 24.0084C34.8054 24.3316 35.0104 24.6446 35.2083 24.9623C34.8311 25.0172 34.4508 25.058 34.0762 25.1315C33.7821 25.1882 33.4932 25.2821 33.2024 25.3593C33.291 25.6485 33.3961 25.9324 33.5171 26.2096C33.598 26.3752 33.7961 26.4821 33.8705 26.6479C33.9484 26.8682 34.0043 27.0957 34.0372 27.3271C33.8178 27.4018 33.5883 27.4428 33.3566 27.4486C32.7274 27.3687 32.0342 26.8106 31.5606 27.8375C31.7857 28.1594 31.9946 28.4925 32.1863 28.8355C32.2651 29.0523 32.3146 29.2788 32.3334 29.5088C32.1017 29.56 31.8663 29.5934 31.6295 29.6085C31.4876 29.6067 31.3607 29.4691 31.2055 29.4548C30.8683 29.4124 30.534 29.4014 30.1905 29.383C30.2269 29.7279 30.2588 30.0724 30.3052 30.4267C30.3516 30.781 30.4053 31.1196 30.4524 31.4584C30.1173 31.3804 29.779 31.3058 29.4455 31.2206C29.1121 31.1355 28.7806 31.0323 28.4543 30.9488C28.4299 31.2881 28.3951 31.6225 28.3953 31.9634C28.3955 32.3044 28.3966 32.6538 28.3983 32.9986L27.3461 32.6385L26.3555 32.31C26.3029 32.6141 26.2685 32.9201 26.1938 33.2171C26.0885 33.6254 25.9521 34.0256 25.8309 34.4376C25.5086 34.2419 25.1875 34.0436 24.8621 33.8512C24.5876 33.6964 24.3248 33.5439 24.0555 33.3916C23.9252 33.7027 23.787 34.0101 23.6652 34.3268C23.5434 34.6434 23.4104 35.0293 23.2827 35.3829L22.5212 34.7046L21.7434 34.0236C21.5594 34.348 21.3622 34.6665 21.1946 35.0001C21.027 35.3336 20.9071 35.6496 20.753 36.002C20.482 35.8569 20.4072 35.8368 20.3681 35.7839C19.9981 35.3126 19.6344 34.8346 19.2694 34.3592C18.9479 34.8171 18.6371 35.2862 18.2985 35.7331C18.1575 35.8812 17.9998 36.0124 17.8285 36.1242C17.6269 35.9218 17.4516 35.6947 17.3068 35.4484C17.0966 34.9744 17.2442 34.2051 16.3227 34.3919L16.1989 34.568L15.2551 35.8624C15.0868 35.4076 14.9369 34.9439 14.7279 34.5086C14.6268 34.2802 14.4496 34.094 14.2266 33.9816C14.1045 33.9334 13.8444 34.123 13.6979 34.2728C13.5185 34.4631 13.4388 34.7467 13.2461 34.9245C13.084 35.0736 12.7929 35.2378 12.6312 35.1825C12.4695 35.1272 12.3824 34.8097 12.3275 34.591C12.2844 34.4158 12.3895 34.2009 12.3376 34.0312C12.2416 33.7496 12.1255 33.4753 11.9903 33.2104C11.7459 33.3247 11.4873 33.4183 11.2501 33.5582C10.8007 33.8288 10.3719 34.12 9.92615 34.4067L9.71245 34.1403C9.86107 33.7346 9.97697 33.3176 10.059 32.8933C10.0882 32.6435 10.0003 32.2416 9.82879 32.1421C9.65729 32.0427 9.30559 32.2076 9.04249 32.2833C8.94313 32.32 8.86824 32.4347 8.76719 32.4786C8.41718 32.6364 8.06151 32.7789 7.70725 32.9252C7.70861 32.5532 7.71832 32.1803 7.70679 31.8087C7.69527 31.4372 7.67086 31.1247 7.6449 30.7846C7.34437 30.8589 7.04694 30.9298 6.7438 31.0029C6.34469 31.0985 5.93222 31.199 5.26648 31.3607C5.46768 30.8713 5.53309 30.7428 5.57211 30.5959C5.71338 30.1265 5.84679 29.6535 5.98473 29.181C5.53979 29.2349 5.0969 29.3119 4.65139 29.3291C4.37798 29.3146 4.10649 29.2747 3.84045 29.21C3.90546 28.9513 3.9588 28.6904 4.04334 28.4375C4.0774 28.3359 4.211 28.2625 4.23671 28.1618C4.32063 27.8309 4.37598 27.4932 4.44299 27.1578C4.12783 27.1397 3.81459 27.121 3.50084 27.1068C3.1871 27.0926 2.81922 27.0788 2.4771 27.0642L2.92423 26.0537L3.34292 25.1188C2.99706 25.0296 2.65425 24.9545 2.31031 24.8645C1.96637 24.7746 1.64918 24.6747 1.32357 24.5932L1.91253 23.7604L2.52571 22.8991C2.17485 22.7553 1.82207 22.6121 1.47171 22.4637C1.12134 22.3154 0.796226 22.1707 0.163134 21.8923C0.804284 21.5703 1.09655 21.4795 1.32387 21.2954C1.57009 21.0605 1.79612 20.8054 1.99957 20.5326C1.71091 20.3397 1.42155 20.1448 1.12355 19.9618C0.825555 19.7789 0.540578 19.6193 0.247531 19.4497C0.502456 19.2228 0.752639 18.989 1.0123 18.7691C1.2978 18.5309 1.59467 18.3059 1.88491 18.0746L1.07027 17.429L0.292757 16.7957C0.577744 16.6207 0.860604 16.4399 1.14679 16.2623C1.46858 16.0694 1.79249 15.8821 2.11357 15.6873C1.87432 15.4282 1.62814 15.1739 1.39129 14.9097C1.15445 14.6454 0.962392 14.3906 0.748191 14.1288C1.06918 14.01 1.39399 13.8898 1.71271 13.8001C1.93545 13.7491 2.16114 13.712 2.38849 13.689C3.10764 13.5836 3.07497 13.1373 2.71085 12.7464C2.41303 12.4112 1.94699 12.2144 1.23242 11.7512ZM22.7287 16.6121C21.8448 14.265 19.2891 13.1884 16.8151 14.1345C14.5659 14.9952 13.3503 17.6566 14.2058 19.8448C15.0804 22.0845 17.684 23.2846 19.9215 22.4803C22.431 21.5776 23.6454 19.0361 22.728 16.6102L22.7287 16.6121ZM31.3433 17.4426C30.8081 15.9027 29.2406 15.1599 27.6804 15.7222C26.1794 16.2625 25.3929 17.8353 25.9037 19.2799C26.4571 20.8456 27.9902 21.5599 29.5764 20.9858C31.1627 20.4118 31.8698 18.9531 31.3426 17.4407L31.3433 17.4426ZM16.8202 30.5299C18.3793 29.9528 19.1225 28.4742 18.5923 26.989C18.042 25.4374 16.4827 24.7285 14.9044 25.3126C13.3262 25.8968 12.5971 27.4484 13.1781 28.9712C13.7421 30.4656 15.2509 31.1085 16.8202 30.5299ZM13.767 9.51453C13.9445 10.0594 14.2798 10.5393 14.7304 10.8934C15.181 11.2474 15.7266 11.4597 16.298 11.5033C16.8694 11.5468 17.4408 11.4196 17.9399 11.1379C18.4389 10.8563 18.8431 10.4327 19.1011 9.92098C19.359 9.40927 19.4592 8.83247 19.3889 8.26373C19.3186 7.695 19.081 7.15995 18.7062 6.72646C18.3314 6.29296 17.8363 5.98054 17.2837 5.82883C16.7311 5.67711 16.1459 5.69293 15.6022 5.87429C15.2389 5.98711 14.902 6.17193 14.6117 6.41772C14.3213 6.66352 14.0834 6.96527 13.9121 7.30497C13.7409 7.64467 13.6398 8.01537 13.6148 8.39498C13.5899 8.77459 13.6416 9.15534 13.767 9.51453ZM24.0928 7.95422C23.7402 8.06695 23.4137 8.24876 23.1322 8.48904C22.8507 8.72932 22.6199 9.02327 22.4532 9.35371C22.2865 9.68416 22.1873 10.0445 22.1614 10.4137C22.1355 10.7829 22.1834 11.1535 22.3023 11.504C22.5584 12.207 23.0817 12.7804 23.7583 13.0995C24.435 13.4186 25.2103 13.4576 25.9156 13.208C27.5441 12.6248 28.3184 11.1304 27.7855 9.60274C27.2527 8.07507 25.7412 7.38971 24.0928 7.95422ZM23.6613 23.4988C22.0415 24.1114 21.2474 25.6284 21.7747 27.1059C22.302 28.5835 23.9947 29.2887 25.6302 28.666C26.3155 28.4049 26.8689 27.8823 27.1688 27.2131C27.4687 26.544 27.4904 25.7831 27.2293 25.0979C26.9682 24.4127 26.4457 23.8593 25.7765 23.5594C25.1074 23.2595 24.3465 23.2377 23.6613 23.4988ZM12.146 12.8061C11.5796 11.3169 9.98149 10.6441 8.38708 11.2255C7.68428 11.4764 7.10993 11.9962 6.79038 12.6706C6.47084 13.345 6.43227 14.1187 6.68318 14.8215C6.93408 15.5243 7.45391 16.0986 8.12828 16.4182C8.80266 16.7377 9.57634 16.7763 10.2791 16.5254C11.9145 15.9548 12.726 14.338 12.146 12.8061ZM11.7742 21.4334C11.2468 20.0906 9.512 19.3184 8.17376 19.8289C6.76935 20.3661 5.98537 22.1335 6.5389 23.5058C7.09244 24.8781 8.78922 25.6122 10.1393 25.1103C11.5315 24.5928 12.3198 22.8195 11.7742 21.4334Z" fill="#F4C66B"/>
</svg>
