<svg width="64" height="64" viewBox="0 0 64 64" fill="none" xmlns="http://www.w3.org/2000/svg">
<path d="M44.9262 60.5819L45.5791 57.1019L48.54 58.4827C48.7458 57.9477 48.9135 57.3988 49.0417 56.8401C49.117 56.2182 49.1513 55.5921 49.1445 54.9657C49.7582 55.113 50.3645 55.3082 50.9844 55.3999C51.4811 55.4625 52.1469 55.6228 52.4845 55.3804C52.8222 55.138 52.9373 54.4627 52.9469 53.975C52.9106 53.2852 52.822 52.5992 52.6816 51.9229C53.437 52.0602 54.1939 52.188 54.9505 52.3329C55.189 52.3799 55.4251 52.4585 56.3474 52.7079C56.0337 51.5971 55.8109 50.9134 55.667 50.2273C55.5653 49.7443 55.4083 49.1742 55.579 48.773C55.6717 48.5564 56.4029 48.5966 56.8433 48.5472C57.4925 48.4984 58.1278 48.4597 58.7715 48.415L58.2412 46.6116L57.821 45.1277C58.3191 45.0234 58.829 44.7956 59.3135 44.8416C60.4575 44.9461 61.3523 44.82 61.4829 43.3507C61.1884 43.1535 60.9174 42.9232 60.6754 42.6644C60.333 42.1956 60.042 41.6807 59.7336 41.1828C60.3226 40.9525 60.921 40.7409 61.4973 40.4817C61.9615 40.2787 62.4058 40.0308 62.8566 39.8036C62.5506 39.338 62.2592 38.8575 61.9337 38.4061C61.6083 37.9547 61.2298 37.5122 60.868 37.0576C61.3485 36.7662 61.8019 36.2862 62.3111 36.2205C63.415 36.0779 63.9731 35.683 63.6525 34.5219C62.9294 33.7357 60.8272 34.1481 61.3831 32.5213C62.455 31.8107 63.6675 31.4441 63.8253 30.8099C64.1978 29.334 62.4804 29.912 61.9168 29.3326C61.6055 29.0112 61.5848 28.15 61.7831 27.6819C61.941 27.3157 62.6995 27.2593 63.0706 26.9287C63.3708 26.6584 63.7024 26.1397 63.6295 25.8186C63.5406 25.6201 63.4066 25.4451 63.2381 25.3074C63.0696 25.1698 62.8714 25.0734 62.6591 25.0259C61.9819 24.9469 61.2984 24.9359 60.619 24.9931L60.2136 24.5022C60.7645 23.917 61.3541 23.3672 61.8478 22.7386C62.1299 22.3038 62.3704 21.8433 62.5661 21.3633C62.1029 21.1486 61.6506 20.8962 61.1712 20.7232C60.4921 20.4748 59.7889 20.2865 58.7323 19.9523C59.4996 19.2557 59.8664 19.0474 60.0428 18.7356C60.2938 18.2203 60.5074 17.6875 60.682 17.1415C60.1473 16.9918 59.6045 16.8311 59.0565 16.7039C58.5085 16.5767 57.9449 16.4864 57.389 16.3777C57.5775 15.8146 57.7913 15.2629 57.9518 14.6905C58.0842 14.2195 58.1537 13.7264 58.2484 13.2446C57.7684 13.1698 57.2641 13.0617 56.7768 13.0178C56.1406 12.9678 55.5029 12.9741 54.8662 12.9585C54.9903 12.3829 55.15 11.8154 55.2281 11.2351C55.3029 10.7551 55.4777 10.0277 55.2355 9.78347C54.9933 9.53924 54.235 9.57841 53.772 9.67835C53.3091 9.77829 52.8908 10.1433 52.0521 10.6198C51.9506 9.78787 51.8592 9.19103 51.8096 8.61052C51.7673 7.93529 51.7801 7.2539 51.7701 6.57633C51.1056 6.8022 50.4517 7.0543 49.7829 7.24507C49.114 7.43584 48.5212 7.53277 48.1211 7.60808C48.0815 6.17369 48.4474 4.78771 47.9566 4.32528C46.7833 3.22555 46.4582 5.07511 45.6417 5.42478C45.2755 5.5816 44.6842 5.77955 44.4995 5.60819C44.34 5.44253 44.2149 5.24691 44.1314 5.03265C44.048 4.81838 44.0077 4.58971 44.0131 4.35982C44.0346 3.37003 44.2535 2.35939 42.8501 2.38902C42.1399 3.08219 41.4828 4.23845 40.8292 4.25215C39.2955 4.26638 40.0492 2.695 39.6894 1.8646C39.6018 1.71315 39.4784 1.58553 39.3299 1.49297C39.1815 1.4004 39.0126 1.34571 38.838 1.3337C38.4911 1.38289 38.1584 1.71946 37.8733 1.98724C37.3672 2.45902 36.8975 2.98073 36.4116 3.48025C36.0563 2.889 35.7437 2.29211 35.3501 1.7416C35.0868 1.38099 34.7422 0.862695 34.3977 0.833595C34.0532 0.804495 33.6323 1.26499 33.3519 1.59741C32.8964 2.13853 32.5466 2.74284 32.1538 3.32324C31.6948 2.73548 31.219 2.15987 30.7822 1.55591C30.6464 1.37006 30.6133 1.10924 30.2991 0.207272C29.5058 1.21201 28.978 1.82299 28.5149 2.47601C28.2057 2.95298 27.9206 3.44513 27.6607 3.95062C27.2072 3.58004 26.7599 3.20061 26.2909 2.84976C25.8711 2.53114 25.428 2.2507 24.9928 1.95181C24.6902 2.44438 24.4288 2.96112 24.2113 3.49673C24.0797 3.89906 24.1615 4.38378 24.104 5.3999C23.2309 4.89759 22.4784 4.6943 22.1123 4.2046C21.4356 3.27811 20.818 3.10815 19.9356 3.88021C19.9939 4.13937 20.0219 4.4044 20.0191 4.67001C19.925 5.36825 19.7857 6.05697 19.6629 6.75072C19.1073 6.44968 18.5341 6.18223 17.9465 5.94984C17.4676 5.78918 16.7478 5.54921 16.4621 5.75789C16.0894 6.05135 15.9721 6.74105 15.8712 7.27842C15.7788 7.90186 15.7236 8.53025 15.7058 9.16025C15.1544 9.00242 14.5954 8.87266 14.0309 8.77146C13.3854 8.68564 12.7265 8.68622 12.088 8.65065L12.6884 11.8022C11.8366 11.6843 10.9887 11.5251 10.1368 11.471C9.82988 11.4527 9.30012 11.6185 9.23713 11.8176C9.13635 12.2659 9.1361 12.7309 9.23637 13.1793C9.33903 13.8615 9.51742 14.5309 9.66553 15.2054C9.02734 15.1387 8.38467 15.1257 7.74431 15.1666C7.17295 15.2086 6.62747 15.4217 6.17899 15.7782C6.00433 15.9526 6.35914 16.6888 6.51743 17.156C6.71334 17.7445 6.94712 18.3266 7.1824 18.8992C6.57403 19.033 5.9598 19.1414 5.35174 19.3047C4.86711 19.4333 4.39547 19.6203 3.92001 19.7847C4.06063 20.2398 4.22654 20.6866 4.41696 21.1232C4.71847 21.7282 5.08357 22.3038 5.41965 22.892C4.74545 23.0697 4.07253 23.2549 3.39172 23.4119C2.94583 23.4662 2.49726 23.4956 2.0481 23.5C2.57718 24.3641 2.90313 24.9385 3.27271 25.4853C3.59921 25.9614 3.98045 26.4019 4.32456 26.8439C3.8352 27.129 3.33367 27.3975 2.85571 27.704C2.37776 28.0106 1.95142 28.3645 1.49927 28.6948C1.83188 29.0686 2.14432 29.4614 2.49987 29.8143C2.94297 30.2521 3.41329 30.6572 3.87378 31.078C3.37809 31.4826 2.8776 31.8864 2.38394 32.2938C1.82648 32.7477 1.27382 33.2024 0.624598 33.7404L3.69789 35.3624C3.08952 35.8974 2.50904 36.4634 1.95875 37.058C1.82556 37.2066 1.72571 37.382 1.66594 37.5724C1.60617 37.7628 1.58786 37.9638 1.61223 38.1618C1.71413 38.4702 2.18661 38.7036 2.55212 38.8663C3.1942 39.163 3.85283 39.4008 4.51049 39.6606C4.0043 40.243 3.49811 40.8254 2.9899 41.405C2.86112 41.5409 2.72532 41.6698 2.58307 41.7915C2.58949 42.9651 3.16779 43.3084 4.28283 43.2043C4.79944 43.1545 5.35019 43.5009 5.89299 43.6617C5.66513 44.1301 5.41883 44.5908 5.21903 45.0685C4.97674 45.6453 4.77818 46.2412 4.55638 46.8286C5.11168 46.925 5.67328 47.0125 6.22836 47.126C6.78344 47.2395 7.33402 47.3818 7.88888 47.5125C7.72598 48.0058 7.54186 48.4934 7.40221 48.9952C7.24227 49.58 7.12201 50.1783 6.99365 50.7654C7.56796 50.7713 8.1283 50.7406 8.69279 50.7622C9.25728 50.7838 9.81781 50.8466 10.3813 50.8901C10.3013 51.4037 10.2165 51.9166 10.1392 52.4281C10.062 52.9397 9.98141 53.5515 9.90148 54.1119C10.5229 54.0833 11.1389 54.0588 11.7659 54.0262C12.3929 53.9936 12.9047 53.9431 13.4749 53.8967C13.4305 54.4183 13.5014 55.0046 13.2949 55.4616C12.8112 56.5466 12.9778 57.2289 14.2066 57.5309C14.3595 57.3956 14.5248 57.2748 14.7003 57.1703C15.3422 56.8844 16.0129 56.6029 16.6692 56.3192C16.6874 57.021 16.7576 57.7205 16.8791 58.4119C17.0374 58.905 17.2496 59.3791 17.5118 59.8257C18.7672 59.215 19.617 58.7943 20.4604 58.3824C20.681 59.3018 20.8967 60.2204 21.207 61.5421C21.7476 61.3916 22.2742 61.1948 22.781 60.954C23.4787 60.524 24.1541 60.059 24.8049 59.5608L25.563 61.9209C25.6006 62.0423 25.6176 62.1703 25.7741 62.8854C26.5036 62.3526 27.0537 61.9934 27.5577 61.5827C28.0014 61.2118 28.3842 60.7749 28.7947 60.3644C29.1696 60.8776 29.4965 61.43 29.9005 61.9133C30.3046 62.3966 30.8012 62.8378 31.445 63.4863L32.6356 60.1836C33.2504 60.6875 33.7281 61.0446 34.1621 61.4465C34.6537 61.9042 35.1063 62.4073 35.5763 62.8935C35.8822 62.334 36.1609 61.7604 36.4912 61.2342C36.7568 60.8233 37.0378 60.282 37.4231 60.1281C37.6729 60.0392 38.1645 60.5608 38.5133 60.8462C38.9919 61.2453 39.4323 61.6851 39.89 62.1079C40.2827 61.4808 40.6875 60.8703 41.0322 60.2357C41.2783 59.7923 41.4501 59.3053 41.6552 58.8407C42.1128 59.0594 42.5774 59.2646 43.0251 59.499C43.6393 59.8799 44.2765 60.2397 44.9262 60.5819ZM40.8611 8.62293C45.6976 10.3352 49.7106 13.168 52.7146 17.38C57.0097 23.4819 58.3195 30.1904 56.5987 37.4322C56.1915 39.1461 55.298 40.7473 54.5861 42.3818C54.0921 43.5167 53.2137 43.7117 52.2536 43.0262C50.4349 41.73 48.5329 40.4947 46.9559 38.9412C46.3316 38.3252 46.0965 36.821 46.3418 35.8931C48.051 29.4042 45.542 22.8357 39.6485 19.6239C37.5776 18.4949 36.941 17.1691 37.424 15C37.7831 13.3892 38.0326 11.7565 38.2828 10.119C38.5331 8.48145 39.3932 8.10415 40.8611 8.62293ZM16.4447 36.0825C14.7752 36.9998 12.9552 37.6529 11.183 38.3772C9.23746 39.1729 8.7444 38.8822 8.33883 36.7836C6.49436 27.1648 10.6622 17.5018 18.9335 11.937C22.3231 9.60692 26.237 8.15265 30.3257 7.70412C32.4214 7.47509 32.8829 7.92067 32.6754 10.0417C32.4872 11.8807 32.2823 13.7318 32.002 15.5785C31.8877 16.2957 31.5068 16.9738 31.2749 17.594C30.5092 17.8385 29.9722 18.0351 29.4206 18.1827C23.2568 19.8305 19.2701 24.3544 18.4818 30.6132C18.3391 31.734 18.3915 32.9123 18.0436 33.9618C17.7686 34.8306 17.2043 35.579 16.4447 36.0825ZM26.7101 24.0461C31.4119 20.612 37.5132 21.4643 40.8202 26.0037C44.1272 30.5431 43.0187 36.5848 38.301 40.0263C36.1911 41.5765 33.5546 42.2311 30.9646 41.8479C28.3746 41.4646 26.0407 40.0743 24.4703 37.9795C21.1771 33.6512 22.2019 27.326 26.7101 24.0461ZM18.1865 52.0718C15.9975 50.49 13.9769 48.6875 12.1563 46.6927C10.8235 45.2756 11.2254 44.1951 12.9783 43.421C14.7311 42.6469 16.5373 42.004 18.2519 41.1601C19.7087 40.4406 20.8909 40.7256 21.852 41.8783C26.2322 47.1184 35.3713 47.1854 40.1159 43.903C41.6227 42.862 43.0918 42.6312 44.6283 43.9718C45.8753 45.056 47.2715 45.9717 48.5903 46.9737C50.1064 48.1293 50.1206 48.8591 48.6487 50.117C47.966 50.6965 47.2575 51.2523 46.8493 51.5845C37.7638 58.0205 26.97 58.1922 18.1865 52.0718Z" fill="#F4C66B"/>
<path d="M38.026 39.2828C42.4491 35.9331 43.2461 30.455 39.9468 26.1183C37.3612 22.7238 31.5488 21.0266 26.8042 24.8621C22.9758 27.9604 22.0851 33.7238 25.0637 37.5631C25.7939 38.5376 26.7113 39.3567 27.7622 39.9721C28.813 40.5876 29.9761 40.9871 31.1834 41.1473C32.3906 41.3074 33.6177 41.225 34.7926 40.9049C35.9676 40.5847 37.0669 40.0333 38.026 39.2828ZM29.6287 28.112C32.1253 26.2886 35.1217 26.6522 36.773 28.9597C38.4243 31.2671 37.7984 34.1957 35.2739 36.0098C34.7569 36.3988 34.1673 36.6805 33.5399 36.8382C32.9125 36.9959 32.2598 37.0265 31.6203 36.9282C30.9809 36.8299 30.3676 36.6047 29.8165 36.2657C29.2654 35.9268 28.7877 35.481 28.4115 34.9547C28.0353 34.4283 27.7682 33.832 27.6259 33.2009C27.4837 32.5698 27.4691 31.9166 27.5831 31.2797C27.6971 30.6429 27.9373 30.0353 28.2897 29.4927C28.642 28.9501 29.0994 28.4835 29.6348 28.1203L29.6287 28.112Z" fill="#F4C66B"/>
</svg>
