<svg class = "machinery" width="146" height="151" viewBox="0 0 146 151" fill="none" xmlns="http://www.w3.org/2000/svg">
<path d="M112.924 135.582L113.577 132.102L116.538 133.483C116.744 132.948 116.911 132.399 117.04 131.84C117.115 131.218 117.149 130.592 117.143 129.966C117.756 130.113 118.363 130.308 118.982 130.4C119.479 130.463 120.145 130.623 120.483 130.38C120.82 130.138 120.935 129.463 120.945 128.975C120.909 128.285 120.82 127.599 120.68 126.923C121.435 127.06 122.192 127.188 122.949 127.333C123.187 127.38 123.423 127.459 124.345 127.708C124.032 126.597 123.809 125.913 123.665 125.227C123.563 124.744 123.406 124.174 123.577 123.773C123.67 123.556 124.401 123.597 124.841 123.547C125.491 123.498 126.126 123.46 126.77 123.415L126.239 121.612L125.819 120.128C126.317 120.023 126.827 119.796 127.312 119.842C128.456 119.946 129.35 119.82 129.481 118.351C129.186 118.154 128.915 117.923 128.673 117.664C128.331 117.196 128.04 116.681 127.732 116.183C128.321 115.953 128.919 115.741 129.495 115.482C129.96 115.279 130.404 115.031 130.855 114.804C130.549 114.338 130.257 113.857 129.932 113.406C129.606 112.955 129.228 112.512 128.866 112.058C129.347 111.766 129.8 111.286 130.309 111.221C131.413 111.078 131.971 110.683 131.651 109.522C130.927 108.736 128.825 109.148 129.381 107.521C130.453 106.811 131.666 106.444 131.823 105.81C132.196 104.334 130.478 104.912 129.915 104.333C129.604 104.011 129.583 103.15 129.781 102.682C129.939 102.316 130.698 102.259 131.069 101.929C131.369 101.658 131.7 101.14 131.628 100.819C131.539 100.62 131.405 100.445 131.236 100.307C131.068 100.17 130.869 100.073 130.657 100.026C129.98 99.9469 129.296 99.9359 128.617 99.9931L128.212 99.5022C128.763 98.917 129.352 98.3672 129.846 97.7386C130.128 97.3038 130.368 96.8433 130.564 96.3633C130.101 96.1486 129.649 95.8962 129.169 95.7232C128.49 95.4748 127.787 95.2865 126.73 94.9523C127.498 94.2557 127.864 94.0474 128.041 93.7356C128.292 93.2203 128.505 92.6875 128.68 92.1415C128.145 91.9918 127.603 91.8311 127.055 91.7039C126.507 91.5767 125.943 91.4864 125.387 91.3777C125.576 90.8146 125.789 90.2629 125.95 89.6905C126.082 89.2195 126.152 88.7264 126.246 88.2446C125.766 88.1698 125.262 88.0617 124.775 88.0178C124.139 87.9678 123.501 87.9741 122.864 87.9585C122.988 87.3829 123.148 86.8154 123.226 86.2351C123.301 85.7551 123.476 85.0277 123.234 84.7835C122.991 84.5392 122.233 84.5784 121.77 84.6783C121.307 84.7783 120.889 85.1433 120.05 85.6198C119.949 84.7879 119.857 84.191 119.808 83.6105C119.765 82.9353 119.778 82.2539 119.768 81.5763C119.104 81.8022 118.45 82.0543 117.781 82.2451C117.112 82.4358 116.519 82.5328 116.119 82.6081C116.08 81.1737 116.445 79.7877 115.955 79.3253C114.781 78.2255 114.456 80.0751 113.64 80.4248C113.274 80.5816 112.682 80.7795 112.498 80.6082C112.338 80.4425 112.213 80.2469 112.129 80.0326C112.046 79.8184 112.006 79.5897 112.011 79.3598C112.033 78.37 112.252 77.3594 110.848 77.389C110.138 78.0822 109.481 79.2384 108.827 79.2522C107.294 79.2664 108.047 77.695 107.687 76.8646C107.6 76.7132 107.476 76.5855 107.328 76.493C107.18 76.4004 107.011 76.3457 106.836 76.3337C106.489 76.3829 106.156 76.7195 105.871 76.9872C105.365 77.459 104.896 77.9807 104.41 78.4802C104.054 77.889 103.742 77.2921 103.348 76.7416C103.085 76.381 102.74 75.8627 102.396 75.8336C102.051 75.8045 101.63 76.265 101.35 76.5974C100.894 77.1385 100.545 77.7428 100.152 78.3232C99.6928 77.7355 99.2171 77.1599 98.7802 76.5559C98.6445 76.3701 98.6114 76.1092 98.2971 75.2073C97.5039 76.212 96.976 76.823 96.5129 77.476C96.2038 77.953 95.9187 78.4451 95.6588 78.9506C95.2052 78.58 94.7579 78.2006 94.289 77.8498C93.8691 77.5311 93.4261 77.2507 92.9908 76.9518C92.6882 77.4444 92.4268 77.9611 92.2093 78.4967C92.0778 78.8991 92.1596 79.3838 92.102 80.3999C91.229 79.8976 90.4765 79.6943 90.1103 79.2046C89.4336 78.2781 88.816 78.1081 87.9337 78.8802C87.9919 79.1394 88.0199 79.4044 88.0171 79.67C87.9231 80.3682 87.7838 81.057 87.661 81.7507C87.1053 81.4497 86.5322 81.1822 85.9445 80.9498C85.4656 80.7892 84.7459 80.5492 84.4601 80.7579C84.0875 81.0514 83.9702 81.741 83.8692 82.2784C83.7768 82.9019 83.7216 83.5302 83.7039 84.1603C83.1525 84.0024 82.5935 83.8727 82.0289 83.7715C81.3835 83.6856 80.7246 83.6862 80.0861 83.6506L80.6865 86.8022C79.8347 86.6843 78.9868 86.5251 78.1348 86.471C77.8279 86.4527 77.2982 86.6185 77.2352 86.8176C77.1344 87.2659 77.1341 87.7309 77.2344 88.1793C77.3371 88.8615 77.5155 89.5309 77.6636 90.2054C77.0254 90.1387 76.3827 90.1257 75.7424 90.1666C75.171 90.2086 74.6255 90.4217 74.177 90.7782C74.0024 90.9526 74.3572 91.6888 74.5155 92.156C74.7114 92.7445 74.9452 93.3266 75.1804 93.8992C74.5721 94.033 73.9578 94.1414 73.3498 94.3047C72.8652 94.4333 72.3935 94.6203 71.9181 94.7847C72.0587 95.2398 72.2246 95.6866 72.415 96.1232C72.7165 96.7282 73.0816 97.3038 73.4177 97.892C72.7435 98.0697 72.0706 98.2549 71.3898 98.4119C70.9439 98.4662 70.4953 98.4956 70.0461 98.5C70.5752 99.3641 70.9012 99.9385 71.2708 100.485C71.5973 100.961 71.9785 101.402 72.3226 101.844C71.8332 102.129 71.3317 102.397 70.8538 102.704C70.3758 103.011 69.9495 103.365 69.4973 103.695C69.8299 104.069 70.1424 104.461 70.4979 104.814C70.941 105.252 71.4113 105.657 71.8718 106.078C71.3761 106.483 70.8756 106.886 70.382 107.294C69.8245 107.748 69.2719 108.202 68.6226 108.74L71.6959 110.362C71.0876 110.897 70.5071 111.463 69.9568 112.058C69.8236 112.207 69.7238 112.382 69.664 112.572C69.6042 112.763 69.5859 112.964 69.6103 113.162C69.7122 113.47 70.1847 113.704 70.5502 113.866C71.1922 114.163 71.8509 114.401 72.5085 114.661C72.0024 115.243 71.4962 115.825 70.9879 116.405C70.8592 116.541 70.7234 116.67 70.5811 116.791C70.5875 117.965 71.1658 118.308 72.2809 118.204C72.7975 118.155 73.3482 118.501 73.891 118.662C73.6632 119.13 73.4169 119.591 73.2171 120.069C72.9748 120.645 72.7762 121.241 72.5544 121.829C73.1097 121.925 73.6713 122.012 74.2264 122.126C74.7815 122.24 75.3321 122.382 75.8869 122.513C75.724 123.006 75.5399 123.493 75.4003 123.995C75.2403 124.58 75.1201 125.178 74.9917 125.765C75.566 125.771 76.1263 125.741 76.6908 125.762C77.2553 125.784 77.8159 125.847 78.3794 125.89C78.2994 126.404 78.2145 126.917 78.1373 127.428C78.06 127.94 77.9795 128.552 77.8995 129.112C78.521 129.083 79.1369 129.059 79.7639 129.026C80.3909 128.994 80.9028 128.943 81.4729 128.897C81.4285 129.418 81.4994 130.005 81.293 130.462C80.8093 131.547 80.9758 132.229 82.2046 132.531C82.3576 132.396 82.5229 132.275 82.6984 132.17C83.3403 131.884 84.011 131.603 84.6673 131.319C84.6855 132.021 84.7556 132.721 84.8771 133.412C85.0355 133.905 85.2477 134.379 85.5098 134.826C86.7653 134.215 87.615 133.794 88.4584 133.382C88.679 134.302 88.8948 135.22 89.2051 136.542C89.7456 136.392 90.2722 136.195 90.779 135.954C91.4767 135.524 92.1522 135.059 92.8029 134.561L93.5611 136.921C93.5987 137.042 93.6156 137.17 93.7721 137.885C94.5017 137.353 95.0518 136.993 95.5558 136.583C95.9995 136.212 96.3822 135.775 96.7928 135.364C97.1676 135.878 97.4945 136.43 97.8986 136.913C98.3026 137.397 98.7993 137.838 99.4431 138.486L100.634 135.184C101.248 135.687 101.726 136.045 102.16 136.447C102.652 136.904 103.104 137.407 103.574 137.894C103.88 137.334 104.159 136.76 104.489 136.234C104.755 135.823 105.036 135.282 105.421 135.128C105.671 135.039 106.162 135.561 106.511 135.846C106.99 136.245 107.43 136.685 107.888 137.108C108.281 136.481 108.686 135.87 109.03 135.236C109.276 134.792 109.448 134.305 109.653 133.841C110.111 134.059 110.575 134.265 111.023 134.499C111.637 134.88 112.275 135.24 112.924 135.582ZM108.859 83.6229C113.696 85.3352 117.709 88.168 120.713 92.38C125.008 98.4819 126.318 105.19 124.597 112.432C124.19 114.146 123.296 115.747 122.584 117.382C122.09 118.517 121.212 118.712 120.252 118.026C118.433 116.73 116.531 115.495 114.954 113.941C114.33 113.325 114.095 111.821 114.34 110.893C116.049 104.404 113.54 97.8357 107.647 94.6239C105.576 93.4949 104.939 92.1691 105.422 90C105.781 88.3892 106.031 86.7565 106.281 85.119C106.531 83.4815 107.391 83.1042 108.859 83.6229ZM84.4428 111.082C82.7733 112 80.9532 112.653 79.181 113.377C77.2355 114.173 76.7425 113.882 76.3369 111.784C74.4924 102.165 78.6603 92.5018 86.9315 86.937C90.3211 84.6069 94.235 83.1527 98.3237 82.7041C100.419 82.4751 100.881 82.9207 100.673 85.0417C100.485 86.8807 100.28 88.7318 100 90.5785C99.8858 91.2957 99.5048 91.9738 99.273 92.594C98.5072 92.8385 97.9702 93.0351 97.4187 93.1827C91.2548 94.8305 87.2682 99.3544 86.4798 105.613C86.3371 106.734 86.3895 107.912 86.0416 108.962C85.7666 109.831 85.2023 110.579 84.4428 111.082ZM94.7081 99.0461C99.4099 95.612 105.511 96.4643 108.818 101.004C112.125 105.543 111.017 111.585 106.299 115.026C104.189 116.577 101.553 117.231 98.9626 116.848C96.3727 116.465 94.0387 115.074 92.4683 112.979C89.1751 108.651 90.2 102.326 94.7081 99.0461ZM86.1845 127.072C83.9956 125.49 81.9749 123.687 80.1543 121.693C78.8215 120.276 79.2234 119.195 80.9763 118.421C82.7292 117.647 84.5354 117.004 86.25 116.16C87.7067 115.441 88.889 115.726 89.85 116.878C94.2303 122.118 103.369 122.185 108.114 118.903C109.621 117.862 111.09 117.631 112.626 118.972C113.873 120.056 115.27 120.972 116.588 121.974C118.104 123.129 118.119 123.859 116.647 125.117C115.964 125.697 115.256 126.252 114.847 126.584C105.762 133.02 94.968 133.192 86.1845 127.072Z" />
<path d="M106.024 114.283C110.447 110.933 111.244 105.455 107.945 101.118C105.359 97.7238 99.5469 96.0266 94.8022 99.8621C90.9738 102.96 90.0832 108.724 93.0617 112.563C93.792 113.538 94.7094 114.357 95.7602 114.972C96.8111 115.588 97.9742 115.987 99.1814 116.147C100.389 116.307 101.616 116.225 102.791 115.905C103.966 115.585 105.065 115.033 106.024 114.283ZM97.6268 103.112C100.123 101.289 103.12 101.652 104.771 103.96C106.422 106.267 105.796 109.196 103.272 111.01C102.755 111.399 102.165 111.68 101.538 111.838C100.911 111.996 100.258 112.027 99.6184 111.928C98.9789 111.83 98.3656 111.605 97.8146 111.266C97.2635 110.927 96.7858 110.481 96.4096 109.955C96.0334 109.428 95.7662 108.832 95.624 108.201C95.4817 107.57 95.4671 106.917 95.5811 106.28C95.6951 105.643 95.9354 105.035 96.2877 104.493C96.6401 103.95 97.0974 103.483 97.6328 103.12L97.6268 103.112Z" />
<path d="M111.566 74.9825C111.007 75.4716 110.443 75.9523 109.892 76.4525C109.589 76.7253 109.311 77.0268 109.022 77.3143C108.724 76.9516 108.309 76.6349 108.146 76.2196C107.455 74.4562 107.349 74.4347 105.954 75.8474C105.619 76.0983 105.249 76.2992 104.856 76.444C104.667 76.0739 104.323 75.714 104.306 75.3291C104.199 73.4802 103.504 73.3512 102.185 74.4602C101.89 74.7097 101.426 74.7624 101.039 74.9038C100.919 74.4657 100.778 74.0267 100.686 73.5808C100.595 73.1349 100.542 72.6309 100.472 72.1564C99.9605 72.278 99.4501 72.4073 98.9358 72.5137C98.483 72.6052 98.027 72.6691 97.5737 72.7481C97.5258 72.2918 97.4682 71.834 97.4271 71.3812C97.386 70.9284 97.3865 70.3342 97.3662 69.8107C96.8808 69.8576 96.3962 69.8997 95.9129 69.9494C95.4295 69.9991 94.9654 70.0518 94.4938 70.1058C94.5264 69.6547 94.4322 69.1467 94.5821 68.7339C95.2354 66.975 95.1355 66.8558 93.1465 67.0482C92.7527 67.0922 92.158 67.0011 92.0017 66.7521C91.8454 66.5031 92.0206 65.9266 92.2158 65.5874C93.2104 63.8527 93.1577 63.763 91.0918 63.6228C90.7092 63.5946 90.0866 63.4128 90.026 63.1665C89.9297 62.8481 90.1752 62.327 90.4273 62.019C91.6991 60.5005 91.6523 60.3723 89.6702 59.8803C89.3117 59.7918 89.0201 59.4451 88.6976 59.2193C88.945 58.8933 89.1897 58.5693 89.4384 58.2509C89.7675 57.8268 90.0987 57.4055 90.4271 56.9863C89.9898 56.6733 89.5531 56.3728 89.1173 56.0502C88.7609 55.7722 88.436 55.4498 88.0957 55.1472C88.3509 54.8404 88.6416 54.5649 88.9617 54.3268C90.6447 53.3538 90.642 53.0994 89.0941 52.0939C88.7269 51.8536 88.5056 51.3873 88.219 51.0241C88.6115 50.7801 89.0068 50.5341 89.387 50.2906C89.7671 50.0472 90.4493 49.8266 90.4913 49.5225C90.5333 49.2184 90.0887 48.6972 89.8218 48.3026C89.5548 47.908 89.2703 47.5475 88.9741 47.1828C89.4274 46.9287 89.8601 46.5357 90.3398 46.446C91.8911 46.1674 92.76 45.7592 91.2655 44.2147C91.0054 43.9518 91.0064 43.4341 90.8883 43.0333C91.2904 42.9191 91.7064 42.6665 92.0909 42.7147C93.996 42.9381 94.1071 42.1862 93.2677 40.7571C93.1151 40.3697 93.0185 39.9626 92.981 39.5481C93.4407 39.4509 93.9112 39.4131 94.381 39.4356C96.0346 39.7402 96.2251 39.5113 95.7687 37.8367C95.6515 37.4139 95.7968 36.9189 95.8241 36.4547C96.2375 36.4466 96.6506 36.4892 97.054 36.5817C98.6899 37.177 99.2267 36.7807 99.0983 35.0887C99.1233 34.6289 99.2099 34.1748 99.3558 33.7385C99.7647 33.7997 100.165 33.9107 100.547 34.069C102.217 34.9853 102.36 34.9239 102.496 32.9999C102.533 32.5027 102.797 32.0239 103.041 31.2733C103.631 31.8937 103.942 32.2855 104.315 32.6031C105.192 33.3551 105.878 33.5075 106.16 32.0502C106.264 31.4995 106.637 31.0009 106.89 30.4785C107.328 30.7915 107.738 31.1431 108.113 31.5291C108.916 32.4938 109.46 32.6435 109.967 31.2686C110.189 30.6796 110.758 30.2169 111.168 29.6995C111.537 30.1521 111.939 30.5803 112.269 31.0613C113.077 32.2487 113.631 31.8995 114.199 30.8398C114.47 30.4563 114.789 30.1095 115.149 29.8082C115.454 30.2261 115.759 30.6441 116.069 31.0675C116.378 31.491 116.55 32.1049 116.87 32.1653C117.191 32.2256 117.652 31.731 118.045 31.4698C118.438 31.2086 118.842 30.9345 119.238 30.6664C119.444 31.076 119.765 31.4694 119.837 31.8998C120.144 33.7309 120.407 33.8463 121.933 32.6243C122.664 32.0391 123.293 31.6572 123.492 32.9559C123.885 35.5058 123.847 35.5121 126.479 33.8847C126.566 34.6455 126.754 35.23 126.669 35.7665C126.405 37.4164 126.667 37.6945 128.148 37.2494C128.646 37.1635 129.153 37.139 129.658 37.1764C129.584 37.6579 129.543 38.115 129.48 38.5884C129.416 39.0617 129.356 39.533 129.279 39.9869C129.744 40.0404 130.228 40.0796 130.701 40.1318C131.173 40.184 131.741 40.2561 132.264 40.3187C132.169 40.7845 132.021 41.2377 131.824 41.6697C130.984 43.0861 131.132 43.3412 132.894 43.5026C133.305 43.592 133.703 43.7317 134.08 43.9185C133.914 44.356 133.87 44.9261 133.565 45.2085C132.238 46.4126 132.579 46.9544 134.19 47.2302C134.671 47.3059 135.108 47.6237 135.888 47.9808C135.4 48.2833 134.936 48.6223 134.499 48.9951C134.189 49.3333 133.728 49.8107 133.79 50.1411C133.853 50.4714 134.464 50.7303 134.845 51.0025C135.227 51.2747 135.61 51.5248 135.992 51.7845C135.64 52.1608 135.362 52.6717 134.926 52.8917C133.597 53.6194 133.475 54.2167 134.906 54.9869C135.32 55.2099 135.558 55.7627 135.876 56.1628C135.471 56.3901 135.061 56.6042 134.669 56.8434C134.277 57.0825 133.882 57.363 133.487 57.6214C133.76 57.9947 134.03 58.3653 134.265 58.7622C134.499 59.1591 134.794 59.6272 135.06 60.0611C134.667 60.2906 134.251 60.4797 133.82 60.6254C131.746 61.0978 131.664 61.3069 132.918 62.8901C133.144 63.1994 133.368 63.7795 133.228 64.0312C133.088 64.2829 132.495 64.4041 132.105 64.4241C130.124 64.4822 130.008 64.6315 130.949 66.486C131.345 67.2733 131.484 67.877 130.344 67.8381C127.803 67.7539 127.805 67.7271 128.813 70.7337C128.024 70.6046 127.404 70.6131 126.868 70.4028C125.788 69.974 125.269 69.9638 125.224 71.4239C125.149 73.6535 125.022 73.673 123.027 72.6783C122.095 72.2137 121.724 72.4979 121.643 73.4542C121.587 74.1359 121.49 74.8135 121.369 75.8499C120.686 75.2764 120.394 75.0454 120.117 74.7996C118.661 73.5175 118.416 73.6022 117.981 75.4621C117.846 75.8608 117.669 76.2438 117.453 76.6044C117.023 76.3985 116.617 76.1461 116.243 75.8518C115.584 75.2007 115.097 73.933 114.238 75.731C113.941 76.3748 113.224 76.8092 112.701 77.3409L111.566 74.9825ZM102.176 39.4543C101.968 39.6064 101.762 39.7565 101.554 39.9087C99.4208 41.4667 99.4263 41.7832 101.515 43.3548C103.206 44.6319 104.887 45.9247 106.609 47.1623C106.971 47.4238 107.534 47.7 107.909 47.6012C112.715 46.3382 112.713 46.323 114.332 41.4958C114.66 40.5216 114.918 39.5168 115.315 38.5732C116.011 36.9418 115.37 36.3158 113.756 36.2219C109.513 35.9537 105.613 36.8711 102.176 39.4543ZM119.211 51.7448C122.101 51.672 124.97 51.5292 127.838 51.5492C129.587 51.5532 129.724 50.7142 129.374 49.3423C128.443 45.6944 126.646 42.5808 123.741 40.1436C120.466 37.4088 120.208 37.3583 118.716 41.1946C117.519 44.2734 115.257 47.5667 118.823 50.717C119.023 50.8915 119.036 51.2832 119.207 51.7392L119.211 51.7448ZM101.364 58.7989C103.628 57.6536 105.866 56.1688 104.89 52.7504C104.841 52.585 105.025 52.3525 104.976 52.1919C104.779 51.5963 104.693 50.8134 104.272 50.4759C102.374 48.9566 100.351 47.5976 98.4281 46.1138C97.378 45.3 96.6791 45.4687 96.1848 46.6287C94.2513 51.2067 93.6803 55.8363 95.6775 60.5768C96.2148 61.8548 96.9333 62.0863 98.0351 61.2388C99.0468 60.4315 100.097 59.6943 101.358 58.7733L101.364 58.7989ZM121.801 67.8399C125.306 65.4841 127.844 61.9426 128.952 57.8619C129.361 56.4739 128.949 55.7704 127.448 55.7561C125.016 55.7382 122.583 55.6562 120.146 55.672C119.661 55.6719 119.195 55.8591 118.845 56.1947C115.984 59.6773 115.997 59.6892 117.373 64.1789C117.559 64.7902 117.779 65.3945 117.968 66.0037C119.122 69.6769 119.207 69.705 121.795 67.8143L121.801 67.8399ZM103.629 62.2328L103.57 62.152C102.584 62.8722 101.598 63.5923 100.612 64.3125C99.1624 65.3714 99.1862 65.9522 100.554 67.1489C104.232 70.376 108.612 71.1418 113.292 70.9144C114.663 70.849 115.122 70.2531 114.697 68.9187C113.934 66.5325 113.245 64.126 112.471 61.7479C112.324 61.3451 112.025 61.0156 111.639 60.8304C107.81 59.3548 107.811 59.3796 104.263 61.8123C104.056 61.9252 103.838 62.0634 103.623 62.2072L103.629 62.2328ZM110.052 50.9837C108.486 52.1575 108.123 54.2679 109.233 55.747C110.344 57.2262 112.453 57.4201 114.047 56.2557C115.73 55.0263 116.082 52.924 114.873 51.3801C113.735 49.9088 111.665 49.7458 110.046 50.9581L110.052 50.9837Z" />
<path d="M29.3056 91.4284C29.8185 90.9134 30.362 90.4229 30.8394 89.8827C31.2025 89.4289 31.5419 88.9566 31.8564 88.4679C31.3119 88.2233 30.7732 87.9574 30.2166 87.7429C29.9821 87.6547 29.6759 87.7422 29.4623 87.6303C29.1125 87.4176 28.7791 87.1791 28.4648 86.9168C28.6904 86.5889 28.9479 86.284 29.2334 86.0066C29.4654 85.8117 29.8591 85.8091 30.0979 85.6177C30.5036 85.2621 30.8898 84.8849 31.2548 84.4877C30.8693 84.1171 30.4565 83.7758 30.02 83.4669C29.6478 83.2368 29.148 83.2105 28.7813 82.9764C28.5073 82.7824 28.3194 82.4896 28.2571 82.1597C28.2343 82.0062 28.5979 81.7236 28.8419 81.6092C29.6997 81.1996 30.5816 80.8405 31.4549 80.4579C30.7561 79.8155 30.0363 79.197 29.3675 78.52C29.1491 78.2967 28.8812 77.8543 28.9634 77.6581C29.0599 77.5091 29.1862 77.3816 29.3342 77.2837C29.4823 77.1858 29.649 77.1196 29.8239 77.0891C32.985 76.4435 32.98 76.46 30.983 73.8946C30.833 73.6893 30.7109 73.2426 30.8288 73.1011C31.0486 72.843 31.3581 72.6777 31.6949 72.6387C32.6377 72.5668 33.5911 72.5851 34.5382 72.5655L33.1494 69.8196C33.0931 69.7076 33.0582 69.5841 32.8081 68.9331C33.7852 69.0362 34.5067 69.1387 35.2344 69.1858C35.8158 69.2247 36.3969 69.1874 36.9924 69.1991C36.8978 68.6386 36.8212 68.0736 36.7059 67.5197C36.5623 66.8164 36.3856 66.1203 36.2213 65.4236L36.7426 65.2172C37.3225 65.5908 37.9278 65.9233 38.5542 66.2123C39.0217 66.3983 39.75 66.615 40.0375 66.3795C40.3249 66.1441 40.4578 65.4175 40.487 64.8984C40.4994 64.1224 40.4693 63.3463 40.3969 62.5736C41.12 62.9813 41.825 63.4107 42.5622 63.7911C42.926 63.9805 43.5944 64.3133 43.6596 64.2103C43.9774 63.7932 44.1973 63.3099 44.3028 62.7963C44.4839 61.9493 43.5441 60.6451 45.3459 60.4563L47.5745 63.5076C48.0015 62.345 48.2284 61.5667 48.5312 60.8223C48.7505 60.349 48.9939 59.8873 49.2606 59.4389C49.6111 59.8082 49.9866 60.1592 50.3066 60.5508C50.491 60.8032 50.5773 61.1485 50.7881 61.3731C51.0951 61.7061 51.444 62.1021 51.844 62.2013C52.0282 62.2497 52.4063 61.6842 52.6345 61.356C53.1767 60.5899 53.6834 59.7986 54.2059 59.0172L55.3682 61.5287C55.8123 62.4804 56.3688 62.6482 57.0392 61.7374C57.1505 61.5121 57.2749 61.2934 57.4116 61.0826C57.8663 60.6102 58.3569 60.1753 58.8325 59.7258C59.0441 60.3241 59.2501 60.9266 59.4693 61.5237C59.6885 62.1207 59.9172 62.7193 60.1495 63.3111C60.6294 62.9606 61.1295 62.6378 61.6135 62.2928C62.1683 61.8876 62.7508 61.4622 63.3222 61.0448L63.9977 61.5212C63.7538 62.1779 63.5678 62.8547 63.4417 63.5438C63.3808 64.0136 63.6311 64.5369 63.7362 65.0302C64.2529 64.9296 64.7579 64.776 65.2432 64.5718C65.8027 64.2779 66.2837 63.8416 67.3683 63.0494C67.2701 64.1845 67.2068 64.8433 67.162 65.5099C67.1171 66.1764 67.0928 66.7897 67.0593 67.431C67.6299 67.3503 68.1997 67.2743 68.7698 67.1813C69.3399 67.0882 70.0142 66.9573 70.645 66.8368L70.1215 68.8398C69.9896 69.3502 69.8592 69.8609 69.7304 70.3718C70.3003 70.4532 70.8683 70.5786 71.4396 70.6037C72.0913 70.6339 72.7468 70.5763 73.4011 70.5578C73.0985 71.1743 72.7755 71.7804 72.5002 72.411C72.2702 72.9406 72.0928 73.4955 71.8949 74.0399C72.4113 74.1647 72.9052 74.3399 73.4221 74.4303C74.1515 74.5612 74.8898 74.6344 75.898 74.7743C75.4895 75.3449 75.4312 75.4513 75.3518 75.5348C74.6294 76.2581 73.9031 76.9758 73.1787 77.6963L76.8477 79.3127C76.182 79.7989 75.553 80.2073 74.9781 80.6782C74.5498 81.0833 74.1442 81.5117 73.7629 81.9614C74.1773 82.2806 74.6099 82.5754 75.0585 82.8442C75.4489 83.0525 76.0977 83.038 76.2657 83.3322C76.4695 83.681 76.2891 84.2552 76.2494 84.7308C76.2462 84.7672 75.9996 84.7558 75.8848 84.8141C75.107 85.1993 74.3318 85.5997 73.558 85.9904C74.1687 86.5355 74.7997 87.0615 75.3867 87.6323C75.6607 87.9336 75.9114 88.2554 76.1365 88.5948C75.7584 88.8436 75.3596 89.0594 74.9445 89.24C74.6609 89.3408 74.2822 89.1835 73.9978 89.2891C73.3932 89.5095 72.8223 89.8287 72.2382 90.1064C72.5866 90.6474 72.948 91.1831 73.2853 91.7322C73.6226 92.2813 73.8912 92.7657 74.1938 93.2848C73.6382 93.3801 73.0845 93.4782 72.5276 93.566C71.8371 93.6747 71.144 93.7683 70.4515 93.8743C70.6899 94.4743 70.9378 95.0759 71.1631 95.6813C71.3632 96.2115 71.5446 96.7511 71.7343 97.2846C71.1534 97.258 70.5717 97.2362 69.9923 97.2C69.347 97.1609 68.7067 97.1054 68.0628 97.0567C68.151 97.6899 68.2343 98.3224 68.328 98.9515C68.4218 99.5807 68.5349 100.196 68.6349 100.816C68.0231 100.625 67.4221 100.396 66.798 100.252C66.1739 100.108 65.4651 100.034 64.7951 99.9325C64.7302 100.554 64.6302 101.18 64.6113 101.807C64.5924 102.433 64.6533 103.099 64.6809 103.742C64.0678 103.433 63.4563 103.114 62.8369 102.813C62.3118 102.555 61.7742 102.313 61.24 102.065C61.0811 102.628 60.8852 103.175 60.7727 103.755C60.6603 104.335 60.5622 105.028 60.4634 105.661C59.9156 105.249 59.3768 104.826 58.8219 104.427C58.3487 104.088 57.8586 103.778 57.3756 103.455C57.127 103.93 56.858 104.394 56.634 104.885C56.3373 105.527 56.074 106.192 55.7998 106.847C55.3547 106.296 54.9214 105.732 54.4644 105.194C54.1171 104.788 53.7358 104.412 53.3683 104.025C52.9524 104.422 52.4204 104.76 52.1353 105.249C51.808 105.932 51.5395 106.642 51.3327 107.37C51.1417 107.429 50.9506 107.488 50.7603 107.542C50.4434 106.799 50.1582 106.042 49.8011 105.32C49.5478 104.877 49.2661 104.45 48.9578 104.043C48.5432 104.34 48.1493 104.665 47.7789 105.015C47.5274 105.288 47.451 105.731 47.206 105.978C46.8895 106.226 46.5449 106.437 46.1792 106.604C45.9671 106.276 45.7807 105.931 45.622 105.574C45.5417 105.347 45.6684 105.055 45.6103 104.812C45.4235 104.213 45.1746 103.633 44.9539 103.046C44.4684 103.353 43.9801 103.663 43.5041 103.973C42.9568 104.33 42.4164 104.691 41.8711 105.051C41.7899 104.357 41.6885 103.682 41.581 102.999C41.4894 102.42 41.3771 101.847 41.2704 101.27C40.7808 101.461 40.2579 101.631 39.8023 101.857C39.4655 102.031 39.2096 102.379 38.8636 102.517C38.7095 102.588 38.5424 102.628 38.3727 102.632C38.2029 102.637 38.0339 102.608 37.876 102.545C37.7694 102.416 37.6913 102.266 37.6469 102.105C37.6025 101.944 37.5928 101.775 37.6185 101.61C37.6513 101.242 37.9423 100.889 37.9792 100.526C38.0267 99.9472 38.0441 99.3665 38.0315 98.7861C37.5177 98.8806 36.9956 98.9344 36.4862 99.064C36.0594 99.1843 35.6679 99.4405 35.2378 99.5504C34.9682 99.624 34.4816 99.6391 34.4091 99.5049C34.2686 99.1868 34.2302 98.833 34.299 98.4921C34.3369 98.2645 34.6181 98.0846 34.7083 97.8529C34.9592 97.1889 35.1733 96.5094 35.401 95.8369C34.6418 95.8341 33.8804 95.8458 33.1207 95.8307C32.6014 95.8186 32.0846 95.7749 31.5636 95.7429C31.7161 95.239 31.9014 94.7456 32.1182 94.2659C32.2603 94.0004 32.673 93.8607 32.8053 93.6109C33.0592 93.2117 33.1944 92.7485 33.1953 92.2754C33.1689 92.082 32.4762 91.8733 32.0807 91.8559C31.3215 91.8528 30.5627 91.8888 29.8072 91.9638L29.3056 91.4284ZM67.6289 72.8467C66.3853 71.5517 65.5637 70.5608 64.6069 69.7284C60.9739 66.5713 60.4056 66.795 58.7187 71.3109C57.9029 73.5019 57.1643 75.4493 59.7328 76.9508C60.1757 77.228 60.4949 77.6651 60.6242 78.1713C61.316 82.0304 64.2751 81.1665 66.7976 81.1957C67.2379 81.1677 67.6753 81.1043 68.1054 81.0061C70.1522 80.681 70.5701 80.1758 69.8847 78.2007C69.1993 76.2257 68.2714 74.3554 67.6234 72.8508L67.6289 72.8467ZM62.8056 97.4765C66.1607 94.8601 68.46 91.794 69.5441 87.897C70.0776 85.9718 69.5476 85.2869 67.5463 85.2258C66.0127 85.1762 64.4841 85.1101 62.9466 85.2122C62.3942 85.3189 61.8998 85.624 61.5568 86.0699C60.2813 87.6141 59.0642 89.2091 57.8696 90.8175C57.5684 91.2204 57.1542 91.8122 57.2537 92.1989C57.7119 93.9911 58.3026 95.7375 58.9216 97.4761C59.3595 98.7046 60.2679 98.9174 61.3739 98.3351C61.9334 98.0412 62.4636 97.6838 62.8 97.4806L62.8056 97.4765ZM43.1493 78.8925C42.0956 78.1138 40.4829 76.8841 38.8233 75.7185C37.8569 75.0418 36.8837 74.9615 36.294 76.2216C34.2029 80.6967 33.8076 85.2689 35.7061 89.9183C36.2392 91.2305 37.1319 91.4802 38.2792 90.7273C39.8271 89.7074 41.3716 88.6771 42.8464 87.5573C43.0342 87.3789 43.1835 87.164 43.2853 86.9258C43.3871 86.6876 43.4392 86.4312 43.4384 86.1722C43.4091 83.9306 43.2719 81.687 43.1493 78.8925ZM45.2914 90.6719C44.143 91.5106 42.3661 92.7702 40.6257 94.0796C39.4297 94.9872 39.4609 95.9385 40.6365 96.9132C44.3218 99.9555 48.5284 101.277 53.2875 100.804C54.708 100.664 55.3846 99.9191 54.9717 98.4511C54.4878 96.7926 53.9983 95.1382 53.4184 93.5114C53.3196 93.3077 53.1807 93.126 53.01 92.9773C52.8392 92.8286 52.6402 92.716 52.4248 92.6462C50.2597 92.0114 48.0725 91.4395 45.2914 90.6719ZM53.9944 72.8856C54.4031 71.698 55.0485 69.891 55.6454 68.0641C56.1278 66.593 55.6479 65.6972 54.0192 65.5639C49.2545 65.173 45.0836 66.62 41.3779 69.5776C40.0925 70.6015 40.1949 71.6327 41.3686 72.5875C42.7003 73.6774 44.0859 74.6998 45.5202 75.6508C45.8705 75.8799 46.555 75.8096 46.9961 75.6448C49.1533 74.8476 51.284 73.9677 53.9916 72.8876L53.9944 72.8856ZM55.5445 87.7389C58.3129 85.7636 58.9764 82.4205 57.1167 79.8569C55.257 77.2933 52.0204 76.7988 49.3314 78.7373C46.6424 80.6758 46.0426 83.9255 47.8589 86.4996C48.2813 87.0863 48.8152 87.5839 49.4302 87.9639C50.0452 88.344 50.7291 88.5989 51.4427 88.7142C52.1564 88.8295 52.8858 88.8029 53.5892 88.6359C54.2925 88.4689 54.956 88.1647 55.5417 87.7409L55.5445 87.7389Z" />
<path d="M77.0122 58.3888C77.1384 56.6028 77.8448 56.1895 79.309 57.0629C79.691 57.2178 80.0934 57.3143 80.5026 57.3492C80.5472 56.9512 80.5851 56.5493 80.6393 56.1534C80.6935 55.7575 80.6498 54.9649 80.8886 54.8471C81.2944 54.6457 81.9017 54.7862 82.4099 54.8749C82.8154 54.9741 83.2117 55.1094 83.594 55.2792C83.7452 54.9696 83.9233 54.7834 83.8946 54.6321C83.4853 52.2485 83.4774 52.2868 85.7068 52.3771C85.9793 52.3867 86.5759 51.6593 86.5097 51.3996C85.9304 49.114 85.895 49.1287 88.2173 49.0467C88.5714 49.0082 88.9227 48.9489 89.2694 48.8693C89.0272 48.3134 88.8249 47.939 88.6927 47.5398C88.5285 47.0411 88.1712 46.39 88.3531 46.0521C88.5351 45.7142 89.28 45.7196 89.7697 45.5467C90.1349 45.4215 90.4859 45.2557 90.8436 45.1063C90.646 44.7579 90.4349 44.414 90.2564 44.0572C90.0233 43.5784 89.5822 43.0191 89.6766 42.622C89.7709 42.2248 90.5097 42.1389 90.9493 41.8824C91.3889 41.6259 91.7617 41.3548 92.3551 40.9694C91.675 40.5529 91.2246 40.4017 90.9119 40.1031C90.0659 39.3051 89.9805 38.6059 91.2543 38.1518C91.6817 37.9655 92.0933 37.7452 92.4854 37.4932C92.1263 37.1169 91.8272 36.6437 91.3966 36.3844C90.1363 35.6232 90.1841 35.0283 91.4232 34.3189C91.9665 34.0075 92.3821 33.4681 93.0602 32.8411C92.7591 32.8122 92.4605 32.7594 92.1671 32.6831C91.534 32.4019 90.9095 32.1026 90.2793 31.8071C90.6816 31.2597 91.0962 30.7251 91.4737 30.1648C91.742 29.7708 91.9618 29.3461 92.1011 29.1064L89.6403 27.8023C90.0237 27.0682 90.4118 26.3352 90.9201 25.3582C90.4991 25.2461 90.0141 25.1174 89.5568 24.9998C89.0995 24.8822 88.3675 24.802 88.2898 24.5498C88.1577 24.1132 88.4215 23.548 88.5499 23.0583C88.6595 22.6595 88.8274 22.281 88.9714 21.8973C88.5292 21.7544 88.071 21.67 87.6084 21.6464C86.1522 21.7629 85.7878 21.3155 86.2688 19.9748C86.3752 19.5234 86.432 19.061 86.4382 18.5961C85.9559 18.5857 85.4741 18.6209 84.9993 18.7013C83.6363 19.0559 83.1049 18.7169 83.5695 17.2376C83.6635 16.7757 83.6923 16.302 83.655 15.8305C82.4068 16.015 81.4171 16.1686 80.4551 16.3082L80.5609 13.3745C80.1162 13.5349 79.6139 13.7201 79.1126 13.9005C78.6113 14.081 78.0028 14.2855 77.4411 14.4803C77.2535 13.9139 77.0486 13.3587 76.8773 12.7733C76.7991 12.3539 76.7431 11.9308 76.7095 11.5058C76.0872 11.91 75.7221 12.1803 75.3325 12.4002C74.8873 12.6354 74.3991 13.0063 73.9585 12.9649C73.6947 12.9372 73.485 12.2359 73.2562 11.8331C73.0273 11.4303 72.8071 11.0343 72.582 10.6374C72.2339 10.9464 71.8952 11.27 71.5395 11.5549C71.2272 11.7992 70.8313 12.2429 70.5745 12.1816C70.1868 12.0893 69.8501 11.6529 69.5511 11.3122C69.2084 10.917 68.9339 10.4692 68.6278 10.0419C68.3359 10.4776 68.0168 10.894 67.6722 11.2887C67.4036 11.5626 67.0218 11.9018 66.6967 11.8931C66.3716 11.8845 66.0298 11.497 65.7475 11.2326C65.3741 10.8656 65.0555 10.4382 64.7138 10.0382C64.4565 10.4997 64.1562 10.9393 63.9447 11.4208C63.3819 12.6985 62.492 12.7789 61.5887 11.6781C61.2225 11.2869 60.8337 10.9178 60.4243 10.5726C60.2384 10.9329 60.0856 11.3097 59.9677 11.6984C59.5773 13.8219 59.3071 13.9103 57.6216 12.5007C57.4104 12.3269 56.8942 12.1439 56.8556 12.2104C56.5973 12.5324 56.4233 12.9146 56.3493 13.3229C56.1801 14.9544 55.7126 15.2373 54.4113 14.4571C54.0482 14.2786 53.6689 14.1361 53.2789 14.0316C53.2119 14.4898 53.0233 14.9688 53.0923 15.3967C53.3338 16.8154 52.7855 17.1757 51.5135 16.7496C50.9924 16.578 50.4462 16.456 49.7188 16.2567C49.5971 16.7504 49.4368 16.9955 49.4784 17.2172C49.8918 19.4115 49.9016 19.3761 47.6809 19.2678C47.4438 19.2559 46.8977 20.0044 46.9707 20.268C47.6066 22.5085 47.6315 22.4965 45.4863 22.3971C45.209 22.3864 44.7207 22.4797 44.6855 22.6146C44.5956 22.9565 44.638 23.3214 44.8042 23.6362C45.9609 25.4929 45.8958 25.6512 43.784 25.8494C43.5037 25.878 43.02 25.9973 43.0068 26.122C42.964 26.4666 43.0459 26.8165 43.2376 27.1081C44.6762 28.989 44.5886 29.2325 42.3036 29.7629C41.9789 29.8369 41.5079 30.064 41.4624 30.3092C41.4168 30.5544 41.7 30.9841 41.9606 31.2088C43.5307 32.5731 43.499 32.7388 41.4527 33.6117C41.3218 33.6581 41.2022 33.7314 41.1014 33.8268C41.0006 33.9223 40.9207 34.0379 40.8668 34.1664C40.8632 34.3127 40.8929 34.4582 40.9535 34.592C41.0141 34.7257 41.1041 34.8442 41.2167 34.9384C43.1056 36.39 43.1067 36.3727 41.2077 37.6931C41.029 37.8091 40.9613 38.0895 40.8481 38.2873C43.3853 40.056 43.3853 40.056 41.3376 42.1944C42.2846 42.5993 43.7785 42.8688 43.8538 43.3505C43.9976 44.2025 43.2721 45.1919 42.9076 46.1253C45.5854 46.8365 45.5854 46.8365 44.6876 49.6544C45.6393 49.7701 46.5652 49.8778 47.4912 49.9854L47.0489 52.9054C49.9418 52.7307 49.9418 52.7307 49.9239 55.6736C50.8602 55.5134 52.0889 54.9268 52.6248 55.3168C53.1607 55.7067 53.0554 57.0646 53.2586 58.1847C53.6403 57.9442 54.0393 57.7322 54.4523 57.5505C54.944 57.3804 55.5751 57.0783 55.9421 57.2587C56.3092 57.4391 56.2863 58.1671 56.4563 58.6495C56.5916 59.0344 56.7489 59.409 56.8975 59.7893C57.2679 59.5902 57.6327 59.3823 58.0125 59.1978C58.4749 58.9763 58.9378 58.6549 59.42 58.6279C59.6142 58.6179 59.8836 59.2472 60.062 59.6164C60.2991 60.0761 60.4834 60.5617 60.6898 61.0372C61.0323 60.6401 61.421 60.286 61.8479 59.9823C62.4265 59.709 63.027 59.484 63.6433 59.3097C63.7609 59.7557 63.8891 60.199 63.9991 60.6459C64.069 60.9363 64.1111 61.2282 64.2101 61.7527C64.7675 61.4695 65.4337 61.3727 65.5553 61.0366C66.399 58.9048 67.2174 58.6387 68.3093 60.9065C68.3961 61.0906 69.3002 61.1709 69.4284 61.0088C70.9038 59.0929 70.879 59.08 72.5079 60.6673C72.6096 60.7671 72.8634 60.7101 73.1396 60.738C73.2494 60.5229 73.3339 60.2955 73.3916 60.0602C73.6635 57.9059 73.8917 57.8158 75.6631 59.0991C75.9296 59.295 76.4107 59.4428 76.6552 59.3338C76.8997 59.2247 76.99 58.7266 77.0122 58.3888ZM51.5153 26.326C50.8505 25.0122 51.0321 23.8287 52.3771 23.0174C53.4177 22.3872 55.8782 22.6882 55.97 23.5863C56.0686 24.7661 55.6561 26.0166 55.4686 27.2289C53.7291 27.8237 52.1056 27.4933 51.5153 26.326ZM63.2425 20.1401C62.6321 18.8408 62.7556 17.6245 64.0997 16.7931C65.2133 16.1238 67.556 16.439 67.6177 17.4106C67.6594 18.6636 67.2818 19.8899 66.5455 20.8932C65.7772 21.8482 63.7774 21.2853 63.2425 20.1401ZM79.9233 21.26C80.6677 22.5511 80.5146 23.7534 79.2728 24.5848C78.0311 25.4161 76.8052 25.1052 75.9476 23.8794C75.0435 22.6008 75.3587 21.3014 76.5381 20.5189C77.7174 19.7364 78.9724 19.9787 79.9214 21.2571L79.9233 21.26ZM47.5617 38.8113C46.7931 37.5649 47.1762 36.1303 48.4916 35.3051C48.7693 35.1127 49.0853 34.9825 49.4185 34.9231C49.7517 34.8638 50.0945 34.8766 50.424 34.9608C50.7535 35.045 51.0621 35.1986 51.3292 35.4114C51.5964 35.6242 51.816 35.8913 51.9734 36.1949C52.7753 37.6062 52.1662 38.6486 51.2428 39.4846C49.8267 40.3628 48.3198 40.0355 47.5598 38.8084L47.5617 38.8113ZM53.824 50.5286C52.7943 48.9999 53.104 47.6793 54.4522 46.8037C55.8004 45.9281 57.1565 46.2125 57.9431 47.4678C58.7297 48.7232 58.3585 50.1003 56.9916 50.9093C55.7129 51.6776 54.5636 51.516 53.8221 50.5257L53.824 50.5286ZM59.166 40.6161C56.41 36.278 57.6446 31.1849 62.1587 28.2656C63.1211 27.6258 64.2027 27.1866 65.3406 26.9736C66.4784 26.7606 67.6496 26.7781 68.7857 27.025C69.9219 27.272 71.0002 27.7435 71.9576 28.412C72.9151 29.0804 73.7325 29.9325 74.3622 30.9183C74.9918 31.9041 75.4211 33.004 75.6248 34.1537C75.8286 35.3033 75.8028 36.4797 75.5489 37.6141C75.295 38.7485 74.8182 39.8181 74.1462 40.7606C73.4742 41.703 72.6206 42.4993 71.6353 43.103C67.2102 46.0017 61.9163 44.9455 59.166 40.6161ZM81.9245 35.5166C81.1005 34.5758 81.4577 32.8429 82.5533 32.1396C83.8094 31.3239 84.9948 31.5283 85.9291 32.721C86.1194 32.9809 86.2547 33.2769 86.3267 33.5905C86.3986 33.904 86.4056 34.2284 86.3472 34.5433C86.2889 34.8583 86.1664 35.157 85.9874 35.4209C85.8084 35.6847 85.5769 35.9081 85.3071 36.077C84.0171 36.9728 82.8567 36.5862 81.9245 35.5166ZM66.2324 54.0003C65.3495 52.6913 65.6474 51.4282 66.7924 50.6182C67.9375 49.8082 69.2528 50.0486 70.1803 51.2498C70.9855 52.2941 70.6721 53.899 69.3879 54.7786C68.308 55.2727 67.1304 55.3451 66.2286 54.007L66.2324 54.0003ZM77.7741 47.8064C76.9749 46.5757 77.2578 45.4094 78.4056 44.61C79.6457 43.7508 80.8483 43.9565 81.7389 45.2521C82.6295 46.5478 82.1921 47.6653 81.2676 48.5185C79.7368 49.3842 78.5931 49.0863 77.7616 47.8186L77.7741 47.8064Z" />
<path d="M73.7524 31.4413C72.6026 29.5774 70.7716 28.2373 68.6581 27.7128C66.5446 27.1883 64.3198 27.5219 62.4681 28.641C58.4074 31.0917 57.108 36.2932 59.5816 40.2343C62.0825 44.2239 66.9928 45.3012 71.2385 42.7885C74.9898 40.5677 76.1468 35.3426 73.7524 31.4413ZM61.6894 39.1597C59.8904 36.497 60.7289 32.7806 63.5601 30.8963C64.1951 30.4678 64.9104 30.1724 65.6639 30.0274C66.4174 29.8824 67.1938 29.8908 67.9474 30.052C68.701 30.2132 69.4166 30.5241 70.0519 30.9662C70.6873 31.4084 71.2295 31.9729 71.6468 32.6265C72.0679 33.2573 72.3609 33.9647 72.5087 34.7073C72.6565 35.45 72.6562 36.2131 72.5077 36.9523C72.3593 37.6916 72.0657 38.3921 71.644 39.0132C71.2224 39.6342 70.681 40.1634 70.0516 40.5699C67.2203 42.4792 63.5101 41.8497 61.6894 39.1597Z" />
<path d="M6.23047 46.7512C6.88057 46.5648 7.30226 46.4305 7.73002 46.3243C8.08808 46.2352 8.45293 46.1762 8.81544 46.1051C8.67513 45.7666 8.51778 45.4355 8.34399 45.113C8.11491 44.8007 7.86508 44.5041 7.59619 44.2254L8.97425 44.1042L10.0868 44.0052C9.98188 43.6747 9.86598 43.344 9.77895 43.0091C9.69192 42.6741 9.63446 42.337 9.56293 42.0028C9.87447 42.0287 10.1855 42.0591 10.5011 42.09C10.8842 42.1155 11.2678 42.1365 11.6502 42.1601C11.5801 41.8123 11.5024 41.4674 11.4426 41.1181C11.3891 40.8033 11.3581 40.4846 11.3091 40.1704C11.6439 40.2181 11.9756 40.2691 12.3083 40.3111C12.7612 40.3607 13.2045 40.4139 13.6535 40.4649C13.6305 40.0389 13.5904 39.6193 13.6007 39.2071C13.6249 38.9453 13.669 38.6857 13.7326 38.4305C13.9648 38.472 14.1914 38.5405 14.4077 38.6347C14.6351 38.7677 14.797 39.0055 15.0268 39.1333C15.5318 39.4178 15.9284 39.4035 15.8738 38.6634C15.8002 38.1278 15.8193 37.5836 15.9301 37.0545C16.282 37.2892 16.6272 37.5351 16.9868 37.7496C17.2479 37.9093 17.5281 38.0381 17.7976 38.1794C17.9109 37.8986 18.0385 37.6211 18.136 37.333C18.2609 36.9718 18.3595 36.5985 18.4707 36.2358C18.8491 36.4716 19.2332 36.7053 19.6042 36.9503C19.8584 37.1148 20.1053 37.2949 20.354 37.4679C20.5011 37.1962 20.6466 36.9143 20.7863 36.6344C20.9559 36.3001 21.1183 35.9641 21.2833 35.6293L22.1085 36.5383L22.6551 37.1289C22.8774 36.9215 23.0855 36.6993 23.2779 36.4639C23.5049 36.1496 23.685 35.8027 23.8867 35.4674C24.116 35.817 24.3315 36.1587 24.5731 36.4885C24.7507 36.7335 24.9629 36.9547 25.1613 37.1854C25.3693 37.002 25.5913 36.8329 25.7807 36.6346C26.066 36.3313 26.3288 36.0082 26.6027 35.6917C26.7613 36.0675 26.9085 36.4475 27.0805 36.8183C27.2052 37.085 27.3379 37.5138 27.5156 37.5479C27.7646 37.5926 28.1015 37.3702 28.3403 37.1819C28.5382 37.0239 28.6213 36.726 28.804 36.5388C28.9381 36.4023 29.2332 36.2192 29.3135 36.272C29.5038 36.4127 29.6377 36.6165 29.6914 36.8469C29.7466 37.0959 29.6283 37.3808 29.6766 37.6345C29.7249 37.8881 29.836 38.1707 30.0087 38.2501C30.1815 38.3296 30.471 38.1725 30.6568 38.0407C30.8426 37.9089 30.9924 37.621 31.202 37.4653C31.3606 37.3479 31.6883 37.2179 31.7719 37.2912C31.9408 37.4625 32.0411 37.6897 32.0539 37.9298C32.0681 38.1853 31.9041 38.4524 31.9201 38.7071C31.9306 38.9434 32.029 39.1673 32.196 39.3349C32.3019 39.4217 32.6075 39.3434 32.7741 39.2535C33.0356 39.1089 33.236 38.8522 33.5003 38.7153C33.5921 38.6648 33.6936 38.6347 33.7981 38.6272C33.9026 38.6196 34.0074 38.6348 34.1055 38.6716C34.2315 38.7597 34.2641 39.0474 34.2489 39.2529C34.2337 39.4584 34.0649 39.6773 34.0342 39.8994C34.0146 40.1693 34.0162 40.4404 34.0388 40.7101C34.3092 40.718 34.5798 40.7029 34.8476 40.6649C35.0638 40.6153 35.2492 40.4294 35.4654 40.3798C35.6994 40.3493 35.9359 40.3448 36.1708 40.3663C36.1896 40.6051 36.1808 40.8453 36.1446 41.0821C36.0884 41.2941 35.884 41.4696 35.8304 41.6828C35.7768 41.896 35.7132 42.2584 35.8338 42.3963C35.9543 42.5342 36.3022 42.488 36.5386 42.4634C37.0673 42.4068 37.5939 42.3096 38.1198 42.228C37.8974 42.66 37.6522 43.0832 37.4578 43.5266C37.3528 43.7827 37.1942 44.1586 37.3091 44.2986C37.439 44.4677 37.8215 44.4565 38.0969 44.5196C38.13 44.5269 38.1695 44.4928 38.2058 44.4967C38.6736 44.5046 39.1403 44.5136 39.6061 44.5237C39.338 44.8793 39.0422 45.219 38.811 45.5979C38.6784 45.8698 38.5718 46.1537 38.4926 46.4456C38.7408 46.5673 39.0037 46.6562 39.2748 46.7101C39.5294 46.7288 39.7948 46.5654 40.053 46.5763C40.2473 46.5848 40.5691 46.709 40.5958 46.8338C40.6111 46.9516 40.6023 47.0713 40.5699 47.1856C40.5375 47.3 40.4822 47.4065 40.4074 47.4988C40.2447 47.6872 39.9207 47.7332 39.7422 47.9144C39.5658 48.1346 39.4163 48.3752 39.2971 48.6309C39.5553 48.7987 39.8273 48.9444 40.11 49.0665C40.2705 49.1244 40.4942 48.9895 40.6646 49.0329C40.9248 49.121 41.1773 49.2302 41.4198 49.3595C41.268 49.622 41.0899 49.8685 40.8882 50.095C40.7254 50.2421 40.4362 50.2296 40.2732 50.3704C40.0657 50.5493 39.787 50.8175 39.8076 51.0315C39.8152 51.2046 40.1801 51.4041 40.4209 51.5148C40.86 51.7151 41.3237 51.8585 41.7772 52.0274C41.3446 52.32 40.906 52.6083 40.4789 52.9098C40.2799 53.053 40.1024 53.2251 39.9155 53.3833C40.1231 53.6176 40.3428 53.8409 40.5737 54.0522C40.8666 54.2978 41.1919 54.5076 41.5036 54.7334C41.1462 54.9417 40.7726 55.1473 40.4149 55.3666C40.1615 55.5212 39.923 55.6985 39.6736 55.8582C39.8746 56.0901 40.0648 56.3282 40.2766 56.5539C40.5314 56.8376 40.7952 57.1158 41.0539 57.3981C40.6985 57.5296 40.332 57.637 39.974 57.7673C39.6893 57.8727 39.405 57.9909 39.1251 58.1032C39.2857 58.4022 39.4394 58.706 39.6143 59.0084C39.8035 59.3316 40.0084 59.6446 40.2064 59.9623C39.8292 60.0172 39.4489 60.058 39.0742 60.1315C38.7802 60.1882 38.4912 60.2821 38.2005 60.3593C38.2891 60.6485 38.3941 60.9324 38.5152 61.2096C38.596 61.3752 38.7942 61.4821 38.8686 61.6479C38.9465 61.8682 39.0023 62.0957 39.0352 62.3271C38.8158 62.4018 38.5863 62.4428 38.3546 62.4486C37.7255 62.3687 37.0323 61.8106 36.5586 62.8375C36.7838 63.1594 36.9926 63.4925 37.1843 63.8355C37.2631 64.0523 37.3126 64.2788 37.3314 64.5088C37.0997 64.56 36.8644 64.5934 36.6276 64.6085C36.4857 64.6067 36.3587 64.4691 36.2035 64.4548C35.8663 64.4123 35.532 64.4014 35.1885 64.383C35.2249 64.7279 35.2569 65.0724 35.3033 65.4267C35.3497 65.781 35.4033 66.1196 35.4505 66.4584C35.1153 66.3804 34.777 66.3058 34.4436 66.2206C34.1101 66.1355 33.7786 66.0323 33.4523 65.9488C33.428 66.2881 33.3931 66.6225 33.3933 66.9634C33.3936 67.3044 33.3947 67.6538 33.3963 67.9986L32.3441 67.6385L31.3536 67.31C31.301 67.6141 31.2665 67.9201 31.1918 68.2171C31.0866 68.6254 30.9501 69.0256 30.8289 69.4376C30.5066 69.2419 30.1856 69.0436 29.8602 68.8512C29.5857 68.6964 29.3228 68.5439 29.0536 68.3916C28.9232 68.7027 28.785 69.0101 28.6633 69.3268C28.5415 69.6434 28.4084 70.0293 28.2808 70.3829L27.5192 69.7046L26.7414 69.0236C26.5574 69.348 26.3603 69.6665 26.1926 70.0001C26.025 70.3336 25.9051 70.6496 25.751 71.002C25.48 70.8569 25.4052 70.8368 25.3661 70.7839C24.9962 70.3126 24.6324 69.8346 24.2675 69.3592C23.946 69.8171 23.6352 70.2862 23.2966 70.7331C23.1555 70.8812 22.9978 71.0124 22.8266 71.1242C22.6249 70.9218 22.4497 70.6947 22.3049 70.4484C22.0947 69.9744 22.2422 69.2051 21.3208 69.3919L21.197 69.568L20.2531 70.8624C20.0848 70.4076 19.9349 69.9439 19.726 69.5086C19.6248 69.2802 19.4477 69.094 19.2246 68.9816C19.1025 68.9334 18.8425 69.123 18.6959 69.2728C18.5165 69.4631 18.4368 69.7467 18.2441 69.9245C18.082 70.0736 17.7909 70.2378 17.6292 70.1825C17.4676 70.1272 17.3805 69.8097 17.3256 69.591C17.2825 69.4158 17.3876 69.2009 17.3356 69.0312C17.2396 68.7496 17.1236 68.4753 16.9884 68.2104C16.7439 68.3247 16.4853 68.4183 16.2482 68.5582C15.7987 68.8288 15.3699 69.12 14.9242 69.4067L14.7105 69.1403C14.8591 68.7346 14.975 68.3176 15.0571 67.8933C15.0863 67.6435 14.9983 67.2416 14.8268 67.1421C14.6553 67.0427 14.3036 67.2076 14.0405 67.2833C13.9412 67.32 13.8663 67.4347 13.7652 67.4786C13.4152 67.6364 13.0596 67.7789 12.7053 67.9252C12.7067 67.5532 12.7164 67.1803 12.7048 66.8087C12.6933 66.4372 12.6689 66.1247 12.6429 65.7846C12.3424 65.8589 12.045 65.9298 11.7418 66.0029C11.3427 66.0985 10.9303 66.199 10.2645 66.3607C10.4657 65.8713 10.5311 65.7428 10.5702 65.5959C10.7114 65.1265 10.8448 64.6535 10.9828 64.181C10.5378 64.2349 10.0949 64.3119 9.64944 64.3291C9.37602 64.3146 9.10454 64.2747 8.83849 64.21C8.9035 63.9513 8.95684 63.6904 9.04138 63.4375C9.07544 63.3359 9.20905 63.2625 9.23476 63.1618C9.31868 62.8309 9.37403 62.4932 9.44104 62.1578C9.12588 62.1397 8.81263 62.121 8.49889 62.1068C8.18515 62.0926 7.81727 62.0788 7.47515 62.0642L7.92228 61.0537L8.34096 60.1188C7.99511 60.0296 7.6523 59.9545 7.30836 59.8645C6.96442 59.7746 6.64723 59.6747 6.32161 59.5932L6.91057 58.7604L7.52376 57.8991C7.1729 57.7553 6.82012 57.6121 6.46975 57.4637C6.11939 57.3154 5.79427 57.1707 5.16118 56.8923C5.80233 56.5703 6.09459 56.4795 6.32191 56.2954C6.56814 56.0605 6.79417 55.8054 6.99762 55.5326C6.70896 55.3397 6.4196 55.1448 6.1216 54.9618C5.8236 54.7789 5.53863 54.6193 5.24558 54.4497C5.5005 54.2228 5.75069 53.989 6.01035 53.7691C6.29585 53.5309 6.59272 53.3059 6.88296 53.0746L6.06831 52.429L5.2908 51.7957C5.57579 51.6207 5.85865 51.4399 6.14484 51.2623C6.46662 51.0694 6.79054 50.8821 7.11162 50.6873C6.87237 50.4282 6.62618 50.1739 6.38934 49.9097C6.15249 49.6454 5.96044 49.3906 5.74624 49.1288C6.06723 49.01 6.39204 48.8898 6.71076 48.8001C6.9335 48.7491 7.15919 48.712 7.38653 48.689C8.10568 48.5836 8.07301 48.1373 7.7089 47.7464C7.41108 47.4112 6.94503 47.2144 6.23047 46.7512ZM27.7267 51.6121C26.8428 49.265 24.2871 48.1884 21.8132 49.1345C19.564 49.9952 18.3484 52.6566 19.2039 54.8448C20.0785 57.0845 22.682 58.2846 24.9195 57.4803C27.4291 56.5776 28.6434 54.0361 27.726 51.6102L27.7267 51.6121ZM36.3413 52.4426C35.8062 50.9027 34.2386 50.1599 32.6784 50.7222C31.1774 51.2625 30.3909 52.8353 30.9017 54.2799C31.4551 55.8456 32.9882 56.5599 34.5745 55.9858C36.1607 55.4118 36.8678 53.9531 36.3406 52.4407L36.3413 52.4426ZM21.8183 65.5299C23.3774 64.9528 24.1205 63.4742 23.5904 61.989C23.04 60.4374 21.4807 59.7285 19.9025 60.3126C18.3243 60.8968 17.5951 62.4484 18.1762 63.9712C18.7401 65.4656 20.2489 66.1085 21.8183 65.5299ZM18.765 44.5145C18.9425 45.0594 19.2778 45.5393 19.7284 45.8934C20.179 46.2474 20.7246 46.4597 21.296 46.5033C21.8674 46.5468 22.4389 46.4196 22.9379 46.1379C23.437 45.8563 23.8411 45.4327 24.0991 44.921C24.3571 44.4093 24.4573 43.8325 24.387 43.2637C24.3167 42.695 24.0791 42.16 23.7043 41.7265C23.3295 41.293 22.8343 40.9805 22.2817 40.8288C21.7291 40.6771 21.1439 40.6929 20.6003 40.8743C20.237 40.9871 19.9001 41.1719 19.6097 41.4177C19.3194 41.6635 19.0814 41.9653 18.9102 42.305C18.7389 42.6447 18.6378 43.0154 18.6129 43.395C18.588 43.7746 18.6397 44.1553 18.765 44.5145ZM29.0908 42.9542C28.7383 43.0669 28.4117 43.2488 28.1302 43.489C27.8488 43.7293 27.6179 44.0233 27.4513 44.3537C27.2846 44.6842 27.1854 45.0445 27.1595 45.4137C27.1336 45.7829 27.1814 46.1535 27.3003 46.504C27.5564 47.207 28.0797 47.7804 28.7564 48.0995C29.4331 48.4186 30.2084 48.4576 30.9137 48.208C32.5422 47.6248 33.3164 46.1304 32.7836 44.6027C32.2507 43.0751 30.7393 42.3897 29.0908 42.9542ZM28.6594 58.4988C27.0395 59.1114 26.2454 60.6284 26.7728 62.1059C27.3001 63.5835 28.9927 64.2887 30.6283 63.666C31.3135 63.4049 31.8669 62.8822 32.1668 62.2131C32.4667 61.544 32.4885 60.7831 32.2274 60.0979C31.9663 59.4127 31.4437 58.8593 30.7746 58.5594C30.1054 58.2595 29.3446 58.2377 28.6594 58.4988ZM17.144 47.8061C16.5776 46.3169 14.9795 45.6441 13.3851 46.2255C12.6823 46.4764 12.108 46.9962 11.7884 47.6706C11.4689 48.345 11.4303 49.1187 11.6812 49.8215C11.9321 50.5243 12.452 51.0986 13.1263 51.4182C13.8007 51.7377 14.5744 51.7763 15.2772 51.5254C16.9126 50.9548 17.724 49.338 17.144 47.8061ZM16.7723 56.4334C16.2448 55.0906 14.51 54.3184 13.1718 54.8289C11.7674 55.3661 10.9834 57.1335 11.537 58.5058C12.0905 59.8781 13.7873 60.6122 15.1374 60.1103C16.5296 59.5928 17.3179 57.8195 16.7723 56.4334Z" />
</svg>
